<?xml version="1.0" encoding="UTF-8" standalone="no"?><!DOCTYPE svg PUBLIC "-//W3C//DTD SVG 1.1//EN" "http://www.w3.org/Graphics/SVG/1.1/DTD/svg11.dtd"><!-- Generated by graphviz version 2.40.1 (20161225.0304)
 --><!-- Title: G Pages: 1 --><svg xmlns="http://www.w3.org/2000/svg" xmlns:xlink="http://www.w3.org/1999/xlink" width="945pt" height="1011pt" viewBox="0.00 0.00 945.00 1010.50">
<g id="graph0" class="graph" transform="scale(1 1) rotate(0) translate(4 1006.5)">
<title>G</title>
<polygon fill="#ffffff" stroke="transparent" points="-4,4 -4,-1006.5 940.9976,-1006.5 940.9976,4 -4,4"/>
<text text-anchor="start" x="233.7783" y="-958.9" font-family="Times,serif" font-weight="bold" font-size="14.00" fill="#000000">Sylvie Allouche, « De la science-fiction en philosophie et réciproquement :            </text>
<text text-anchor="start" x="241.78" y="-944.9" font-family="Times,serif" font-weight="bold" font-size="14.00" fill="#000000">à partir des expériences de pensée sur l'identité personnelle de Locke »             </text>
<g id="clust1" class="cluster">
<title>cluster</title>
<path fill="#cdc9c9" stroke="#cdc9c9" d="M294.478,-69.5C294.478,-69.5 587.4084,-69.5 587.4084,-69.5 593.4084,-69.5 599.4084,-75.5 599.4084,-81.5 599.4084,-81.5 599.4084,-890.5 599.4084,-890.5 599.4084,-896.5 593.4084,-902.5 587.4084,-902.5 587.4084,-902.5 294.478,-902.5 294.478,-902.5 288.478,-902.5 282.478,-896.5 282.478,-890.5 282.478,-890.5 282.478,-81.5 282.478,-81.5 282.478,-75.5 288.478,-69.5 294.478,-69.5"/>
</g>
<g id="clust2" class="cluster">
<title>cluster_2</title>
<path fill="#cdc9c9" stroke="#cdc9c9" d="M312.478,-87.5C312.478,-87.5 569.4084,-87.5 569.4084,-87.5 575.4084,-87.5 581.4084,-93.5 581.4084,-99.5 581.4084,-99.5 581.4084,-183.5 581.4084,-183.5 581.4084,-189.5 575.4084,-195.5 569.4084,-195.5 569.4084,-195.5 312.478,-195.5 312.478,-195.5 306.478,-195.5 300.478,-189.5 300.478,-183.5 300.478,-183.5 300.478,-99.5 300.478,-99.5 300.478,-93.5 306.478,-87.5 312.478,-87.5"/>
</g>
<g id="clust3" class="cluster">
<title>cluster_1</title>
<path fill="#eee9e9" stroke="#cdc9c9" d="M339.244,-219.5C339.244,-219.5 542.6424,-219.5 542.6424,-219.5 548.6424,-219.5 554.6424,-225.5 554.6424,-231.5 554.6424,-231.5 554.6424,-577.5 554.6424,-577.5 554.6424,-583.5 548.6424,-589.5 542.6424,-589.5 542.6424,-589.5 339.244,-589.5 339.244,-589.5 333.244,-589.5 327.244,-583.5 327.244,-577.5 327.244,-577.5 327.244,-231.5 327.244,-231.5 327.244,-225.5 333.244,-219.5 339.244,-219.5"/>
</g>
<g id="clust5" class="cluster">
<title>cluster_0</title>
<path fill="#eee9e9" stroke="#cdc9c9" d="M331.1672,-611.5C331.1672,-611.5 550.7192,-611.5 550.7192,-611.5 556.7192,-611.5 562.7192,-617.5 562.7192,-623.5 562.7192,-623.5 562.7192,-872.5 562.7192,-872.5 562.7192,-878.5 556.7192,-884.5 550.7192,-884.5 550.7192,-884.5 331.1672,-884.5 331.1672,-884.5 325.1672,-884.5 319.1672,-878.5 319.1672,-872.5 319.1672,-872.5 319.1672,-623.5 319.1672,-623.5 319.1672,-617.5 325.1672,-611.5 331.1672,-611.5"/>
</g>
<!-- f -->
<g id="node1" class="node">
<title>f</title>
<path fill="#ffffff" stroke="#000000" stroke-width=".8" d="M551.3736,-177.9011C551.3736,-177.9011 330.5128,-177.9011 330.5128,-177.9011 324.5128,-177.9011 318.5128,-171.9011 318.5128,-165.9011 318.5128,-165.9011 318.5128,-117.0989 318.5128,-117.0989 318.5128,-111.0989 324.5128,-105.0989 330.5128,-105.0989 330.5128,-105.0989 551.3736,-105.0989 551.3736,-105.0989 557.3736,-105.0989 563.3736,-111.0989 563.3736,-117.0989 563.3736,-117.0989 563.3736,-165.9011 563.3736,-165.9011 563.3736,-171.9011 557.3736,-177.9011 551.3736,-177.9011"/>
<text text-anchor="middle" x="440.9432" y="-154.1" font-family="Times,serif" font-size="14.00" fill="#000000">Conclusion : pas de frontière</text>
<text text-anchor="middle" x="440.9432" y="-137.3" font-family="Times,serif" font-size="14.00" fill="#000000">imperméable, mais des caractéristiques</text>
<text text-anchor="middle" x="440.9432" y="-120.5" font-family="Times,serif" font-size="14.00" fill="#000000">différentes entre deux types de discours</text>
</g>
<!-- c -->
<g id="node2" class="node">
<title>c</title>
<path fill="#ffffff" stroke="#000000" stroke-width=".4" d="M509.3393,-559.1014C509.3393,-559.1014 372.5471,-559.1014 372.5471,-559.1014 366.5471,-559.1014 360.5471,-553.1014 360.5471,-547.1014 360.5471,-547.1014 360.5471,-515.8986 360.5471,-515.8986 360.5471,-509.8986 366.5471,-503.8986 372.5471,-503.8986 372.5471,-503.8986 509.3393,-503.8986 509.3393,-503.8986 515.3393,-503.8986 521.3393,-509.8986 521.3393,-515.8986 521.3393,-515.8986 521.3393,-547.1014 521.3393,-547.1014 521.3393,-553.1014 515.3393,-559.1014 509.3393,-559.1014"/>
<text text-anchor="middle" x="440.9432" y="-535.7" font-family="Times,serif" font-size="14.00" fill="#000000">Première comparaison :</text>
<text text-anchor="middle" x="440.9432" y="-518.9" font-family="Times,serif" font-size="14.00" fill="#000000">Locke vs. Hamilton</text>
</g>
<!-- c1 -->
<g id="node11" class="node">
<title>c1</title>
<path fill="#ffffff" stroke="#8b8989" stroke-width=".3" d="M897.2906,-692.5C897.2906,-692.5 684.1154,-692.5 684.1154,-692.5 678.1154,-692.5 672.1154,-686.5 672.1154,-680.5 672.1154,-680.5 672.1154,-658.5 672.1154,-658.5 672.1154,-652.5 678.1154,-646.5 684.1154,-646.5 684.1154,-646.5 897.2906,-646.5 897.2906,-646.5 903.2906,-646.5 909.2906,-652.5 909.2906,-658.5 909.2906,-658.5 909.2906,-680.5 909.2906,-680.5 909.2906,-686.5 903.2906,-692.5 897.2906,-692.5"/>
<text text-anchor="start" x="682.9094" y="-671.7" font-family="Times,serif" font-size="12.00" fill="#0d0d0d">John Locke : la fable du prince et du savetier</text>
<text text-anchor="start" x="693.3014" y="-659.7" font-family="Times,serif" font-size="12.00" fill="#0d0d0d">Edmond Hamilton : </text>
<text text-anchor="start" x="791.6306" y="-659.7" font-family="Times,serif" font-style="italic" font-size="12.00" fill="#0d0d0d">Les Rois des étoiles</text>
</g>
<!-- c&#45;&gt;c1 -->
<g id="edge16" class="edge">
<title>c-&gt;c1</title>
<path fill="none" stroke="#8b8989" stroke-width=".5" d="M503.6892,-559.1155C533.2311,-572.7411 568.651,-589.9874 599.4084,-607.5 620.2968,-619.3934 622.2845,-628.1025 644.4084,-637.5 653.1427,-641.21 662.3603,-644.5127 671.7458,-647.4486"/>
</g>
<!-- c2 -->
<g id="node12" class="node">
<title>c2</title>
<path fill="#ffffff" stroke="#8b8989" stroke-width=".3" d="M899.9367,-628.9022C899.9367,-628.9022 681.4693,-628.9022 681.4693,-628.9022 675.4693,-628.9022 669.4693,-622.9022 669.4693,-616.9022 669.4693,-616.9022 669.4693,-604.0978 669.4693,-604.0978 669.4693,-598.0978 675.4693,-592.0978 681.4693,-592.0978 681.4693,-592.0978 899.9367,-592.0978 899.9367,-592.0978 905.9367,-592.0978 911.9367,-598.0978 911.9367,-604.0978 911.9367,-604.0978 911.9367,-616.9022 911.9367,-616.9022 911.9367,-622.9022 905.9367,-628.9022 899.9367,-628.9022"/>
<text text-anchor="middle" x="790.703" y="-606.9" font-family="Times,serif" font-size="12.00" fill="#0d0d0d">Une symétrie d'intrigue, mais des différences</text>
</g>
<!-- c&#45;&gt;c2 -->
<g id="edge17" class="edge">
<title>c-&gt;c2</title>
<path fill="none" stroke="#8b8989" stroke-width=".5" d="M521.3407,-553.3841C558.6332,-563.1905 603.6359,-574.5382 644.4084,-583.5 658.1561,-586.5218 672.6807,-589.4806 687.0284,-592.2664"/>
</g>
<!-- c3 -->
<g id="node13" class="node">
<title>c3</title>
<path fill="#ffffff" stroke="#8b8989" stroke-width=".3" d="M906.9423,-574.9022C906.9423,-574.9022 674.4637,-574.9022 674.4637,-574.9022 668.4637,-574.9022 662.4637,-568.9022 662.4637,-562.9022 662.4637,-562.9022 662.4637,-550.0978 662.4637,-550.0978 662.4637,-544.0978 668.4637,-538.0978 674.4637,-538.0978 674.4637,-538.0978 906.9423,-538.0978 906.9423,-538.0978 912.9423,-538.0978 918.9423,-544.0978 918.9423,-550.0978 918.9423,-550.0978 918.9423,-562.9022 918.9423,-562.9022 918.9423,-568.9022 912.9423,-574.9022 906.9423,-574.9022"/>
<text text-anchor="middle" x="790.703" y="-552.9" font-family="Times,serif" font-size="12.00" fill="#0d0d0d">Différence de longueur (10 lignes vs. 300 pages)</text>
</g>
<!-- c&#45;&gt;c3 -->
<g id="edge18" class="edge">
<title>c-&gt;c3</title>
<path fill="none" stroke="#8b8989" stroke-width=".5" d="M521.1852,-537.2355C562.9333,-540.2196 614.9784,-543.9396 662.1705,-547.3128"/>
</g>
<!-- c4 -->
<g id="node14" class="node">
<title>c4</title>
<path fill="#ffffff" stroke="#8b8989" stroke-width=".3" d="M917.6754,-520C917.6754,-520 663.7306,-520 663.7306,-520 657.7306,-520 651.7306,-514 651.7306,-508 651.7306,-508 651.7306,-451 651.7306,-451 651.7306,-445 657.7306,-439 663.7306,-439 663.7306,-439 917.6754,-439 917.6754,-439 923.6754,-439 929.6754,-445 929.6754,-451 929.6754,-451 929.6754,-508 929.6754,-508 929.6754,-514 923.6754,-520 917.6754,-520"/>
<text text-anchor="start" x="677.8256" y="-499.2" font-family="Times,serif" font-size="12.00" fill="#0d0d0d">Dans le romain : de multiples effets de réel qui</text>
<text text-anchor="start" x="670.4234" y="-487.2" font-family="Times,serif" font-size="12.00" fill="#0d0d0d">visent à rendre vraisemblable le scénario imaginé</text>
<text text-anchor="start" x="662.967" y="-472" font-family="Times,serif" font-size="10.00" fill="#0d0d0d">(Nomination des personnages, effets de répétition et de dilution</text>
<text text-anchor="start" x="679.772" y="-462" font-family="Times,serif" font-size="10.00" fill="#0d0d0d">pour s'imprégner de l'hypothèse proposée, expression</text>
<text text-anchor="start" x="679.3005" y="-452" font-family="Times,serif" font-size="10.00" fill="#0d0d0d">d'affects, scènes dialoguées, personnages secondaires)</text>
</g>
<!-- c&#45;&gt;c4 -->
<g id="edge19" class="edge">
<title>c-&gt;c4</title>
<path fill="none" stroke="#8b8989" stroke-width=".5" d="M521.1852,-519.5701C559.9081,-513.8131 607.4897,-506.739 651.8407,-500.1451"/>
</g>
<!-- c5 -->
<g id="node15" class="node">
<title>c5</title>
<path fill="#ffffff" stroke="#8b8989" stroke-width=".3" d="M902.3781,-421C902.3781,-421 679.0279,-421 679.0279,-421 673.0279,-421 667.0279,-415 667.0279,-409 667.0279,-409 667.0279,-364 667.0279,-364 667.0279,-358 673.0279,-352 679.0279,-352 679.0279,-352 902.3781,-352 902.3781,-352 908.3781,-352 914.3781,-358 914.3781,-364 914.3781,-364 914.3781,-409 914.3781,-409 914.3781,-415 908.3781,-421 902.3781,-421"/>
<text text-anchor="start" x="686.4866" y="-400.2" font-family="Times,serif" font-size="12.00" fill="#0d0d0d">En philosophie : une focalisation différente</text>
<text text-anchor="start" x="690.447" y="-385" font-family="Times,serif" font-size="10.00" fill="#0d0d0d">Formulation explicite d'une thèse et de questions</text>
<text text-anchor="start" x="686.516" y="-375" font-family="Times,serif" font-size="10.00" fill="#0d0d0d">Séparation nette entre la présentation du scénario et</text>
<text text-anchor="start" x="678.1155" y="-365" font-family="Times,serif" font-size="10.00" fill="#0d0d0d">l'interprétation de ce scénario pour en tirer un argument</text>
</g>
<!-- c&#45;&gt;c5 -->
<g id="edge20" class="edge">
<title>c-&gt;c5</title>
<path fill="none" stroke="#8b8989" stroke-width=".5" d="M490.8697,-503.7526C531.4109,-481.9511 590.4964,-451.8122 644.4084,-430.5 652.6712,-427.2336 661.2766,-424.0686 669.9935,-421.0345"/>
</g>
<!-- d -->
<g id="node3" class="node">
<title>d</title>
<path fill="#ffffff" stroke="#000000" stroke-width=".4" d="M512.8421,-432.1014C512.8421,-432.1014 369.0443,-432.1014 369.0443,-432.1014 363.0443,-432.1014 357.0443,-426.1014 357.0443,-420.1014 357.0443,-420.1014 357.0443,-388.8986 357.0443,-388.8986 357.0443,-382.8986 363.0443,-376.8986 369.0443,-376.8986 369.0443,-376.8986 512.8421,-376.8986 512.8421,-376.8986 518.8421,-376.8986 524.8421,-382.8986 524.8421,-388.8986 524.8421,-388.8986 524.8421,-420.1014 524.8421,-420.1014 524.8421,-426.1014 518.8421,-432.1014 512.8421,-432.1014"/>
<text text-anchor="middle" x="440.9432" y="-408.7" font-family="Times,serif" font-size="14.00" fill="#000000">Deuxième comparaison :</text>
<text text-anchor="middle" x="440.9432" y="-391.9" font-family="Times,serif" font-size="14.00" fill="#000000">Shoemaker vs. Hamilton</text>
</g>
<!-- d&#45;&gt;c -->
<g id="edge2" class="edge">
<title>d-&gt;c</title>
<path fill="none" stroke="#000000" stroke-width=".4" d="M440.9432,-442.3097C440.9432,-462.738 440.9432,-483.1664 440.9432,-503.5947"/>
<polygon fill="#000000" stroke="#000000" stroke-width=".4" points="444.4433,-442.2812 440.9432,-432.2813 437.4433,-442.2813 444.4433,-442.2812"/>
</g>
<!-- e -->
<g id="node4" class="node">
<title>e</title>
<path fill="#ffffff" stroke="#000000" stroke-width=".4" d="M512.0692,-305.1014C512.0692,-305.1014 369.8172,-305.1014 369.8172,-305.1014 363.8172,-305.1014 357.8172,-299.1014 357.8172,-293.1014 357.8172,-293.1014 357.8172,-261.8986 357.8172,-261.8986 357.8172,-255.8986 363.8172,-249.8986 369.8172,-249.8986 369.8172,-249.8986 512.0692,-249.8986 512.0692,-249.8986 518.0692,-249.8986 524.0692,-255.8986 524.0692,-261.8986 524.0692,-261.8986 524.0692,-293.1014 524.0692,-293.1014 524.0692,-299.1014 518.0692,-305.1014 512.0692,-305.1014"/>
<text text-anchor="middle" x="440.9432" y="-281.7" font-family="Times,serif" font-size="14.00" fill="#000000">Troisième comparaison :</text>
<text text-anchor="middle" x="440.9432" y="-264.9" font-family="Times,serif" font-size="14.00" fill="#000000">Locke vs. Stevenson</text>
</g>
<!-- e&#45;&gt;f -->
<g id="edge3" class="edge">
<title>e-&gt;f</title>
<path fill="none" stroke="#000000" stroke-width=".4" d="M440.9432,-249.874C440.9432,-229.2537 440.9432,-208.6335 440.9432,-188.0133"/>
<polygon fill="#000000" stroke="#000000" stroke-width=".4" points="444.4433,-187.8906 440.9432,-177.8906 437.4433,-187.8907 444.4433,-187.8906"/>
</g>
<!-- e&#45;&gt;d -->
<g id="edge1" class="edge">
<title>e-&gt;d</title>
<path fill="none" stroke="#000000" stroke-width=".4" d="M440.9432,-315.3097C440.9432,-335.738 440.9432,-356.1664 440.9432,-376.5947"/>
<polygon fill="#000000" stroke="#000000" stroke-width=".4" points="444.4433,-315.2812 440.9432,-305.2813 437.4433,-315.2813 444.4433,-315.2812"/>
</g>
<!-- e1 -->
<g id="node20" class="node">
<title>e1</title>
<path fill="#ffffff" stroke="#8b8989" stroke-width=".3" d="M924.7925,-333.5C924.7925,-333.5 656.6135,-333.5 656.6135,-333.5 650.6135,-333.5 644.6135,-327.5 644.6135,-321.5 644.6135,-321.5 644.6135,-299.5 644.6135,-299.5 644.6135,-293.5 650.6135,-287.5 656.6135,-287.5 656.6135,-287.5 924.7925,-287.5 924.7925,-287.5 930.7925,-287.5 936.7925,-293.5 936.7925,-299.5 936.7925,-299.5 936.7925,-321.5 936.7925,-321.5 936.7925,-327.5 930.7925,-333.5 924.7925,-333.5"/>
<text text-anchor="start" x="665.0594" y="-312.7" font-family="Times,serif" font-size="12.00" fill="#0d0d0d">John Locke : l'homme du jour et l'homme de la nuit</text>
<text text-anchor="start" x="655.4084" y="-300.7" font-family="Times,serif" font-size="12.00" fill="#0d0d0d">Stevenson : </text>
<text text-anchor="start" x="714.0692" y="-300.7" font-family="Times,serif" font-style="italic" font-size="12.00" fill="#0d0d0d">The Strange Case of Dr Jekyll and Mr Hyde</text>
</g>
<!-- e&#45;&gt;e1 -->
<g id="edge30" class="edge">
<title>e-&gt;e1</title>
<path fill="none" stroke="#8b8989" stroke-width=".5" d="M524.275,-285.3624C560.2407,-288.7558 603.4007,-292.8279 644.4059,-296.6968"/>
</g>
<!-- e2 -->
<g id="node21" class="node">
<title>e2</title>
<path fill="#ffffff" stroke="#8b8989" stroke-width=".3" d="M919.5929,-269.101C919.5929,-269.101 661.8131,-269.101 661.8131,-269.101 655.8131,-269.101 649.8131,-263.101 649.8131,-257.101 649.8131,-257.101 649.8131,-201.899 649.8131,-201.899 649.8131,-195.899 655.8131,-189.899 661.8131,-189.899 661.8131,-189.899 919.5929,-189.899 919.5929,-189.899 925.5929,-189.899 931.5929,-195.899 931.5929,-201.899 931.5929,-201.899 931.5929,-257.101 931.5929,-257.101 931.5929,-263.101 925.5929,-269.101 919.5929,-269.101"/>
<text text-anchor="middle" x="790.703" y="-247.5" font-family="Times,serif" font-size="12.00" fill="#0d0d0d">Rapprochement suggéré par Etienne Balibar,</text>
<text text-anchor="middle" x="790.703" y="-233.1" font-family="Times,serif" font-size="12.00" fill="#0d0d0d">mais des différences : dans la nouvelle de Stevenson,</text>
<text text-anchor="middle" x="790.703" y="-218.7" font-family="Times,serif" font-size="12.00" fill="#0d0d0d">il n'y a pas rupture de la conscience et de la mémoire,</text>
<text text-anchor="middle" x="790.703" y="-204.3" font-family="Times,serif" font-size="12.00" fill="#0d0d0d">il s'agit de deux personnes dans un même esprit</text>
</g>
<!-- e&#45;&gt;e2 -->
<g id="edge31" class="edge">
<title>e-&gt;e2</title>
<path fill="none" stroke="#8b8989" stroke-width=".5" d="M524.275,-266.0638C561.8571,-260.9061 607.2948,-254.6704 649.9207,-248.8205"/>
</g>
<!-- e3 -->
<g id="node22" class="node">
<title>e3</title>
<path fill="#ffffff" stroke="#8b8989" stroke-width=".3" d="M907.1462,-172.2003C907.1462,-172.2003 674.2598,-172.2003 674.2598,-172.2003 668.2598,-172.2003 662.2598,-166.2003 662.2598,-160.2003 662.2598,-160.2003 662.2598,-118.7997 662.2598,-118.7997 662.2598,-112.7997 668.2598,-106.7997 674.2598,-106.7997 674.2598,-106.7997 907.1462,-106.7997 907.1462,-106.7997 913.1462,-106.7997 919.1462,-112.7997 919.1462,-118.7997 919.1462,-118.7997 919.1462,-160.2003 919.1462,-160.2003 919.1462,-166.2003 913.1462,-172.2003 907.1462,-172.2003"/>
<text text-anchor="middle" x="790.703" y="-150.3" font-family="Times,serif" font-size="12.00" fill="#0d0d0d">Dans le roman de Stevenson, il y a un véritable</text>
<text text-anchor="middle" x="790.703" y="-135.9" font-family="Times,serif" font-size="12.00" fill="#0d0d0d">questionnement philosophique, sur la conscience</text>
<text text-anchor="middle" x="790.703" y="-121.5" font-family="Times,serif" font-size="12.00" fill="#0d0d0d">et la responsabilité, qui anime le récit</text>
</g>
<!-- e&#45;&gt;e3 -->
<g id="edge32" class="edge">
<title>e-&gt;e3</title>
<path fill="none" stroke="#8b8989" stroke-width=".5" d="M496.2677,-249.807C546.0836,-225.1153 615.7398,-191.2601 644.4084,-180.5 652.0638,-177.6267 660.0104,-174.8481 668.0654,-172.1834"/>
</g>
<!-- a -->
<g id="node5" class="node">
<title>a</title>
<path fill="#ffffff" stroke="#000000" stroke-width=".4" d="M530.4957,-864.2002C530.4957,-864.2002 351.3907,-864.2002 351.3907,-864.2002 345.3907,-864.2002 339.3907,-858.2002 339.3907,-852.2002 339.3907,-852.2002 339.3907,-786.7998 339.3907,-786.7998 339.3907,-780.7998 345.3907,-774.7998 351.3907,-774.7998 351.3907,-774.7998 530.4957,-774.7998 530.4957,-774.7998 536.4957,-774.7998 542.4957,-780.7998 542.4957,-786.7998 542.4957,-786.7998 542.4957,-852.2002 542.4957,-852.2002 542.4957,-858.2002 536.4957,-864.2002 530.4957,-864.2002"/>
<text text-anchor="middle" x="440.9432" y="-840.5" font-family="Times,serif" font-size="14.00" fill="#000000">Il y a quelque chose de</text>
<text text-anchor="middle" x="440.9432" y="-823.7" font-family="Times,serif" font-size="14.00" fill="#000000">philosophique dans les récits</text>
<text text-anchor="middle" x="440.9432" y="-806.9" font-family="Times,serif" font-size="14.00" fill="#000000">de science-fiction, et parfois de</text>
<text text-anchor="middle" x="440.9432" y="-790.1" font-family="Times,serif" font-size="14.00" fill="#000000">la science-fiction en philosophie</text>
</g>
<!-- a1 -->
<g id="node7" class="node">
<title>a1</title>
<path fill="#ffffff" stroke="#8b8989" stroke-width=".3" d="M852.9396,-893.101C852.9396,-893.101 728.4664,-893.101 728.4664,-893.101 722.4664,-893.101 716.4664,-887.101 716.4664,-881.101 716.4664,-881.101 716.4664,-825.899 716.4664,-825.899 716.4664,-819.899 722.4664,-813.899 728.4664,-813.899 728.4664,-813.899 852.9396,-813.899 852.9396,-813.899 858.9396,-813.899 864.9396,-819.899 864.9396,-825.899 864.9396,-825.899 864.9396,-881.101 864.9396,-881.101 864.9396,-887.101 858.9396,-893.101 852.9396,-893.101"/>
<text text-anchor="middle" x="790.703" y="-871.5" font-family="Times,serif" font-size="12.00" fill="#0d0d0d">De la philosophie dans la</text>
<text text-anchor="middle" x="790.703" y="-857.1" font-family="Times,serif" font-size="12.00" fill="#0d0d0d">science-fiction : référence</text>
<text text-anchor="middle" x="790.703" y="-842.7" font-family="Times,serif" font-size="12.00" fill="#0d0d0d">à Gilbert Hottois, Isabelle</text>
<text text-anchor="middle" x="790.703" y="-828.3" font-family="Times,serif" font-size="12.00" fill="#0d0d0d">Stengers, Guy Lardreau</text>
</g>
<!-- a&#45;&gt;a1 -->
<g id="edge7" class="edge">
<title>a-&gt;a1</title>
<path fill="none" stroke="#8b8989" stroke-width=".5" d="M542.578,-829.3799C598.1448,-834.7815 665.7534,-841.3537 716.3562,-846.2728"/>
</g>
<!-- a2 -->
<g id="node8" class="node">
<title>a2</title>
<path fill="#ffffff" stroke="#8b8989" stroke-width=".3" d="M856.5041,-796.2003C856.5041,-796.2003 724.9019,-796.2003 724.9019,-796.2003 718.9019,-796.2003 712.9019,-790.2003 712.9019,-784.2003 712.9019,-784.2003 712.9019,-742.7997 712.9019,-742.7997 712.9019,-736.7997 718.9019,-730.7997 724.9019,-730.7997 724.9019,-730.7997 856.5041,-730.7997 856.5041,-730.7997 862.5041,-730.7997 868.5041,-736.7997 868.5041,-742.7997 868.5041,-742.7997 868.5041,-784.2003 868.5041,-784.2003 868.5041,-790.2003 862.5041,-796.2003 856.5041,-796.2003"/>
<text text-anchor="middle" x="790.703" y="-774.3" font-family="Times,serif" font-size="12.00" fill="#0d0d0d">De la science-fiction en</text>
<text text-anchor="middle" x="790.703" y="-759.9" font-family="Times,serif" font-size="12.00" fill="#0d0d0d">philosophie : référence à</text>
<text text-anchor="middle" x="790.703" y="-745.5" font-family="Times,serif" font-size="12.00" fill="#0d0d0d">Shoemaker, Wiggins, Parfit</text>
</g>
<!-- a&#45;&gt;a2 -->
<g id="edge8" class="edge">
<title>a-&gt;a2</title>
<path fill="none" stroke="#8b8989" stroke-width=".5" d="M542.578,-803.2273C596.9347,-794.5242 662.8143,-783.9762 713.0261,-775.9368"/>
</g>
<!-- b -->
<g id="node6" class="node">
<title>b</title>
<path fill="#ffffff" stroke="#000000" stroke-width=".4" d="M519.0566,-703.9011C519.0566,-703.9011 362.8298,-703.9011 362.8298,-703.9011 356.8298,-703.9011 350.8298,-697.9011 350.8298,-691.9011 350.8298,-691.9011 350.8298,-643.0989 350.8298,-643.0989 350.8298,-637.0989 356.8298,-631.0989 362.8298,-631.0989 362.8298,-631.0989 519.0566,-631.0989 519.0566,-631.0989 525.0566,-631.0989 531.0566,-637.0989 531.0566,-643.0989 531.0566,-643.0989 531.0566,-691.9011 531.0566,-691.9011 531.0566,-697.9011 525.0566,-703.9011 519.0566,-703.9011"/>
<text text-anchor="middle" x="440.9432" y="-680.1" font-family="Times,serif" font-size="14.00" fill="#000000">Quelle comparaison peut-on</text>
<text text-anchor="middle" x="440.9432" y="-663.3" font-family="Times,serif" font-size="14.00" fill="#000000">faire entre la littérature</text>
<text text-anchor="middle" x="440.9432" y="-646.5" font-family="Times,serif" font-size="14.00" fill="#000000">et la philosophie ?</text>
</g>
<!-- b&#45;&gt;c -->
<g id="edge5" class="edge">
<title>b-&gt;c</title>
<path fill="none" stroke="#000000" stroke-width=".4" d="M440.9432,-631.0928C440.9432,-610.477 440.9432,-589.8612 440.9432,-569.2455"/>
<polygon fill="#000000" stroke="#000000" stroke-width=".4" points="444.4433,-569.125 440.9432,-559.125 437.4433,-569.125 444.4433,-569.125"/>
</g>
<!-- b&#45;&gt;a -->
<g id="edge4" class="edge">
<title>b-&gt;a</title>
<path fill="none" stroke="#000000" stroke-width=".4" d="M440.9432,-713.9814C440.9432,-734.2293 440.9432,-754.4773 440.9432,-774.7252"/>
<polygon fill="#000000" stroke="#000000" stroke-width=".4" points="444.4433,-713.7187 440.9432,-703.7188 437.4433,-713.7188 444.4433,-713.7187"/>
</g>
<!-- a1&#45;&gt;a2 -->
<!-- b1 -->
<g id="node9" class="node">
<title>b1</title>
<path fill="#ffffff" stroke="#8b8989" stroke-width=".3" d="M170.5153,-772.8004C170.5153,-772.8004 66.9627,-772.8004 66.9627,-772.8004 60.9627,-772.8004 54.9627,-766.8004 54.9627,-760.8004 54.9627,-760.8004 54.9627,-734.1996 54.9627,-734.1996 54.9627,-728.1996 60.9627,-722.1996 66.9627,-722.1996 66.9627,-722.1996 170.5153,-722.1996 170.5153,-722.1996 176.5153,-722.1996 182.5153,-728.1996 182.5153,-734.1996 182.5153,-734.1996 182.5153,-760.8004 182.5153,-760.8004 182.5153,-766.8004 176.5153,-772.8004 170.5153,-772.8004"/>
<text text-anchor="middle" x="118.739" y="-751.1" font-family="Times,serif" font-size="12.00" fill="#0d0d0d">La ressemblance</text>
<text text-anchor="middle" x="118.739" y="-736.7" font-family="Times,serif" font-size="12.00" fill="#0d0d0d">est-elle superficielle ?</text>
</g>
<!-- b1&#45;&gt;b -->
<g id="edge10" class="edge">
<title>b1-&gt;b</title>
<path fill="none" stroke="#8b8989" stroke-width=".5" d="M182.3962,-731.6946C230.4467,-719.7641 297.0226,-703.234 350.582,-689.9358"/>
</g>
<!-- b2 -->
<g id="node10" class="node">
<title>b2</title>
<path fill="#ffffff" stroke="#8b8989" stroke-width=".3" d="M170.7314,-704.101C170.7314,-704.101 66.7466,-704.101 66.7466,-704.101 60.7466,-704.101 54.7466,-698.101 54.7466,-692.101 54.7466,-692.101 54.7466,-636.899 54.7466,-636.899 54.7466,-630.899 60.7466,-624.899 66.7466,-624.899 66.7466,-624.899 170.7314,-624.899 170.7314,-624.899 176.7314,-624.899 182.7314,-630.899 182.7314,-636.899 182.7314,-636.899 182.7314,-692.101 182.7314,-692.101 182.7314,-698.101 176.7314,-704.101 170.7314,-704.101"/>
<text text-anchor="middle" x="118.739" y="-682.5" font-family="Times,serif" font-size="12.00" fill="#0d0d0d">Faut-il remettre en</text>
<text text-anchor="middle" x="118.739" y="-668.1" font-family="Times,serif" font-size="12.00" fill="#0d0d0d">question la distinction</text>
<text text-anchor="middle" x="118.739" y="-653.7" font-family="Times,serif" font-size="12.00" fill="#0d0d0d">entre littérature et</text>
<text text-anchor="middle" x="118.739" y="-639.3" font-family="Times,serif" font-size="12.00" fill="#0d0d0d">philosophie ?</text>
</g>
<!-- b1&#45;&gt;b2 -->
<!-- b2&#45;&gt;b -->
<g id="edge11" class="edge">
<title>b2-&gt;b</title>
<path fill="none" stroke="#8b8989" stroke-width=".5" d="M182.7814,-665.0963C230.8648,-665.544 297.3391,-666.1629 350.7914,-666.6606"/>
</g>
<!-- c1&#45;&gt;c2 -->
<!-- c2&#45;&gt;c3 -->
<!-- c3&#45;&gt;c4 -->
<!-- c4&#45;&gt;c5 -->
<!-- d1 -->
<g id="node16" class="node">
<title>d1</title>
<path fill="#ffffff" stroke="#8b8989" stroke-width=".3" d="M211.8027,-598.5C211.8027,-598.5 25.6753,-598.5 25.6753,-598.5 19.6753,-598.5 13.6753,-592.5 13.6753,-586.5 13.6753,-586.5 13.6753,-540.5 13.6753,-540.5 13.6753,-534.5 19.6753,-528.5 25.6753,-528.5 25.6753,-528.5 211.8027,-528.5 211.8027,-528.5 217.8027,-528.5 223.8027,-534.5 223.8027,-540.5 223.8027,-540.5 223.8027,-586.5 223.8027,-586.5 223.8027,-592.5 217.8027,-598.5 211.8027,-598.5"/>
<text text-anchor="start" x="24.4574" y="-577.7" font-family="Times,serif" font-size="12.00" fill="#0d0d0d">Shoemaker : l'expérience de pensée de</text>
<text text-anchor="start" x="32.105" y="-565.7" font-family="Times,serif" font-size="12.00" fill="#0d0d0d">la transplantation d'un cerveau dans</text>
<text text-anchor="start" x="37.4336" y="-553.7" font-family="Times,serif" font-style="italic" font-size="12.00" fill="#0d0d0d">Self-Knowledge and Self-Identity</text>
<text text-anchor="start" x="25.6772" y="-541.7" font-family="Times,serif" font-size="12.00" fill="#0d0d0d">Hamilton : idem (</text>
<text text-anchor="start" x="111.332" y="-541.7" font-family="Times,serif" font-style="italic" font-size="12.00" fill="#0d0d0d">Les Rois des étoiles</text>
<text text-anchor="start" x="207.806" y="-541.7" font-family="Times,serif" font-size="12.00" fill="#0d0d0d">)</text>
</g>
<!-- d1&#45;&gt;d -->
<g id="edge24" class="edge">
<title>d1-&gt;d</title>
<path fill="none" stroke="#8b8989" stroke-width=".5" d="M217.0882,-528.4594C224.041,-525.5535 230.8978,-522.555 237.478,-519.5 241.463,-517.6499 333.2416,-465.6338 392.1586,-432.1995"/>
</g>
<!-- d2 -->
<g id="node17" class="node">
<title>d2</title>
<path fill="#ffffff" stroke="#8b8989" stroke-width=".3" d="M223.9711,-510.5C223.9711,-510.5 13.5069,-510.5 13.5069,-510.5 7.5069,-510.5 1.5069,-504.5 1.5069,-498.5 1.5069,-498.5 1.5069,-428.5 1.5069,-428.5 1.5069,-422.5 7.5069,-416.5 13.5069,-416.5 13.5069,-416.5 223.9711,-416.5 223.9711,-416.5 229.9711,-416.5 235.9711,-422.5 235.9711,-428.5 235.9711,-428.5 235.9711,-498.5 235.9711,-498.5 235.9711,-504.5 229.9711,-510.5 223.9711,-510.5"/>
<text text-anchor="middle" x="118.739" y="-488.7" font-family="Times,serif" font-size="12.00" fill="#0d0d0d">Toujours une différence de longueur,</text>
<text text-anchor="middle" x="118.739" y="-474.3" font-family="Times,serif" font-size="12.00" fill="#0d0d0d">mais S. propose une véritable petite</text>
<text text-anchor="middle" x="118.739" y="-459.9" font-family="Times,serif" font-size="12.00" fill="#0d0d0d">histoire avec des effets de réel</text>
<text text-anchor="middle" x="118.739" y="-445.5" font-family="Times,serif" font-size="12.00" fill="#0d0d0d">(nomination, expression d'affects,</text>
<text text-anchor="middle" x="118.739" y="-431.1" font-family="Times,serif" font-size="12.00" fill="#0d0d0d">saynète), et des éléments de vraisemblance</text>
</g>
<!-- d1&#45;&gt;d2 -->
<!-- d2&#45;&gt;d -->
<g id="edge25" class="edge">
<title>d2-&gt;d</title>
<path fill="none" stroke="#8b8989" stroke-width=".5" d="M235.9736,-442.0327C276.0988,-434.6853 320.1542,-426.6181 357.1043,-419.852"/>
</g>
<!-- d3 -->
<g id="node18" class="node">
<title>d3</title>
<path fill="#ffffff" stroke="#8b8989" stroke-width=".3" d="M174.3795,-398.2003C174.3795,-398.2003 63.0985,-398.2003 63.0985,-398.2003 57.0985,-398.2003 51.0985,-392.2003 51.0985,-386.2003 51.0985,-386.2003 51.0985,-344.7997 51.0985,-344.7997 51.0985,-338.7997 57.0985,-332.7997 63.0985,-332.7997 63.0985,-332.7997 174.3795,-332.7997 174.3795,-332.7997 180.3795,-332.7997 186.3795,-338.7997 186.3795,-344.7997 186.3795,-344.7997 186.3795,-386.2003 186.3795,-386.2003 186.3795,-392.2003 180.3795,-398.2003 174.3795,-398.2003"/>
<text text-anchor="middle" x="118.739" y="-376.3" font-family="Times,serif" font-size="12.00" fill="#0d0d0d">Cependant le discours</text>
<text text-anchor="middle" x="118.739" y="-361.9" font-family="Times,serif" font-size="12.00" fill="#0d0d0d">philosophique conserve</text>
<text text-anchor="middle" x="118.739" y="-347.5" font-family="Times,serif" font-size="12.00" fill="#0d0d0d">ses spécificités</text>
</g>
<!-- d2&#45;&gt;d3 -->
<!-- d3&#45;&gt;d -->
<g id="edge26" class="edge">
<title>d3-&gt;d</title>
<path fill="none" stroke="#8b8989" stroke-width=".5" d="M186.6765,-373.7232C236.3422,-379.7348 304.0067,-387.925 357.0477,-394.3452"/>
</g>
<!-- d4 -->
<g id="node19" class="node">
<title>d4</title>
<path fill="#ffffff" stroke="#8b8989" stroke-width=".3" d="M218.1574,-314.5C218.1574,-314.5 19.3206,-314.5 19.3206,-314.5 13.3206,-314.5 7.3206,-308.5 7.3206,-302.5 7.3206,-302.5 7.3206,-232.5 7.3206,-232.5 7.3206,-226.5 13.3206,-220.5 19.3206,-220.5 19.3206,-220.5 218.1574,-220.5 218.1574,-220.5 224.1574,-220.5 230.1574,-226.5 230.1574,-232.5 230.1574,-232.5 230.1574,-302.5 230.1574,-302.5 230.1574,-308.5 224.1574,-314.5 218.1574,-314.5"/>
<text text-anchor="start" x="50.258" y="-293.7" font-family="Times,serif" font-size="12.00" fill="#0d0d0d">Il y a parfois introduction en</text>
<text text-anchor="start" x="33.4298" y="-281.7" font-family="Times,serif" font-size="12.00" fill="#0d0d0d">philosophie de courts discours avec</text>
<text text-anchor="start" x="39.6176" y="-269.7" font-family="Times,serif" font-size="12.00" fill="#0d0d0d">des caractéristiques littéraires, et</text>
<text text-anchor="start" x="23.1908" y="-257.7" font-family="Times,serif" font-size="12.00" fill="#0d0d0d">certaines fictions littéraires introduisent</text>
<text text-anchor="start" x="20.5892" y="-245.7" font-family="Times,serif" font-size="12.00" fill="#0d0d0d">du discours philosophique dans le roman</text>
<text text-anchor="start" x="18.53" y="-233.7" font-family="Times,serif" font-size="12.00" fill="#0d0d0d">(Ex. : Greg Egan, </text>
<text text-anchor="start" x="105.8324" y="-233.7" font-family="Times,serif" font-style="italic" font-size="12.00" fill="#0d0d0d">La cité des permutants</text>
<text text-anchor="start" x="214.9532" y="-233.7" font-family="Times,serif" font-size="12.00" fill="#0d0d0d">)</text>
</g>
<!-- d3&#45;&gt;d4 -->
<!-- d4&#45;&gt;d -->
<g id="edge27" class="edge">
<title>d4-&gt;d</title>
<path fill="none" stroke="#8b8989" stroke-width=".5" d="M229.6234,-314.6476C278.4089,-335.391 334.0209,-359.0371 375.9464,-376.8636"/>
</g>
<!-- e1&#45;&gt;e2 -->
<!-- e2&#45;&gt;e3 -->
<!-- f1 -->
<g id="node23" class="node">
<title>f1</title>
<path fill="#ffffff" stroke="#8b8989" stroke-width=".3" d="M225.7175,-186C225.7175,-186 11.7605,-186 11.7605,-186 5.7605,-186 -.2395,-180 -.2395,-174 -.2395,-174 -.2395,-119 -.2395,-119 -.2395,-113 5.7605,-107 11.7605,-107 11.7605,-107 225.7175,-107 225.7175,-107 231.7175,-107 237.7175,-113 237.7175,-119 237.7175,-119 237.7175,-174 237.7175,-174 237.7175,-180 231.7175,-186 225.7175,-186"/>
<text text-anchor="start" x="21.4508" y="-165.2" font-family="Times,serif" font-size="12.00" fill="#0d0d0d">L'expérience de pensée en philosophie :</text>
<text text-anchor="start" x="11" y="-150" font-family="Times,serif" font-size="10.00" fill="#0d0d0d">– Examen plus superficiel et plus orienté du scénario</text>
<text text-anchor="start" x="13.764" y="-140" font-family="Times,serif" font-size="10.00" fill="#0d0d0d">– Souci d'explicitation des thèses et des arguments</text>
<text text-anchor="start" x="26.754" y="-130" font-family="Times,serif" font-size="10.00" fill="#0d0d0d">– Séparation entre le moment imaginatif et le</text>
<text text-anchor="start" x="24.2615" y="-120" font-family="Times,serif" font-size="10.00" fill="#0d0d0d">moment argumentatif, et rationalité privilégiée</text>
</g>
<!-- f1&#45;&gt;f -->
<g id="edge34" class="edge">
<title>f1-&gt;f</title>
<path fill="none" stroke="#8b8989" stroke-width=".5" d="M237.8005,-144.6524C264.0629,-144.2448 291.9279,-143.8124 318.3283,-143.4028"/>
</g>
<!-- f2 -->
<g id="node24" class="node">
<title>f2</title>
<path fill="#ffffff" stroke="#8b8989" stroke-width=".3" d="M221.828,-89C221.828,-89 15.65,-89 15.65,-89 9.65,-89 3.65,-83 3.65,-77 3.65,-77 3.65,-12 3.65,-12 3.65,-6 9.65,0 15.65,0 15.65,0 221.828,0 221.828,0 227.828,0 233.828,-6 233.828,-12 233.828,-12 233.828,-77 233.828,-77 233.828,-83 227.828,-89 221.828,-89"/>
<text text-anchor="start" x="52.6922" y="-68.2" font-family="Times,serif" font-size="12.00" fill="#0d0d0d">Le récit de science-fiction :</text>
<text text-anchor="start" x="41.749" y="-53" font-family="Times,serif" font-size="10.00" fill="#0d0d0d">– Développement et approndissement</text>
<text text-anchor="start" x="48.2195" y="-43" font-family="Times,serif" font-size="10.00" fill="#0d0d0d">du scénario et de ses conséquences</text>
<text text-anchor="start" x="40.5715" y="-33" font-family="Times,serif" font-size="10.00" fill="#0d0d0d">– Thèses généralement implicites, ou</text>
<text text-anchor="start" x="30.7815" y="-23" font-family="Times,serif" font-size="10.00" fill="#0d0d0d">formulées sous forme de questions ouvertes</text>
<text text-anchor="start" x="14.6945" y="-13" font-family="Times,serif" font-size="10.00" fill="#0d0d0d">– Abondance des effets de réel et de vraisemblance</text>
</g>
<!-- f1&#45;&gt;f2 -->
<!-- f2&#45;&gt;f -->
<g id="edge35" class="edge">
<title>f2-&gt;f</title>
<path fill="none" stroke="#8b8989" stroke-width=".5" d="M234.152,-79.2452C262.231,-87.6985 292.3287,-96.7594 320.6289,-105.2792"/>
</g>
</g>
</svg>