<?xml version="1.0" encoding="UTF-8" standalone="no"?><!DOCTYPE svg PUBLIC "-//W3C//DTD SVG 1.1//EN" "http://www.w3.org/Graphics/SVG/1.1/DTD/svg11.dtd"><!-- Generated by graphviz version 2.40.1 (20161225.0304)
 --><!-- Title: G Pages: 1 --><svg xmlns="http://www.w3.org/2000/svg" xmlns:xlink="http://www.w3.org/1999/xlink" width="662pt" height="733pt" viewBox="0.00 0.00 662.33 732.78">
<g id="graph0" class="graph" transform="scale(1 1) rotate(0) translate(21.6 711.182)">
<title>G</title>
<polygon fill="#fafafa" stroke="transparent" points="-21.6,21.6 -21.6,-711.182 640.7318,-711.182 640.7318,21.6 -21.6,21.6"/>
<!-- a1 -->
<g id="node1" class="node">
<title>a1</title>
<ellipse fill="#000000" stroke="#000000" cx="110.5873" cy="-653.3781" rx="82.1739" ry="36.4089"/>
<text text-anchor="middle" x="110.5873" y="-658.7781" font-family="Times,serif" font-size="18.00" fill="#ffffff">Qu'est-ce que</text>
<text text-anchor="middle" x="110.5873" y="-637.1781" font-family="Times,serif" font-size="18.00" fill="#ffffff">l'aliénation ?</text>
</g>
<!-- b1 -->
<g id="node3" class="node">
<title>b1</title>
<ellipse fill="#8b0000" stroke="#000000" cx="110.5873" cy="-549.3645" rx="56.5964" ry="32.6206"/>
<text text-anchor="middle" x="110.5873" y="-554.1645" font-family="Times,serif" font-size="16.00" fill="#ffffff">Première</text>
<text text-anchor="middle" x="110.5873" y="-534.9645" font-family="Times,serif" font-size="16.00" fill="#ffffff">approche</text>
</g>
<!-- a1&#45;&gt;b1 -->
<g id="edge1" class="edge">
<title>a1-&gt;b1</title>
<path fill="none" stroke="#000000" d="M110.5873,-616.9992C110.5873,-609.0905 110.5873,-600.6502 110.5873,-592.5086"/>
<polygon fill="#000000" stroke="#000000" points="114.0874,-592.4179 110.5873,-582.418 107.0874,-592.418 114.0874,-592.4179"/>
</g>
<!-- c1 -->
<g id="node2" class="node">
<title>c1</title>
<ellipse fill="#000000" stroke="#000000" cx="109.5873" cy="-209.6774" rx="109.6746" ry="51.4548"/>
<text text-anchor="middle" x="109.5873" y="-225.8774" font-family="Times,serif" font-size="18.00" fill="#ffffff">L'aliénation</text>
<text text-anchor="middle" x="109.5873" y="-204.2774" font-family="Times,serif" font-size="18.00" fill="#ffffff">dans la philosophie</text>
<text text-anchor="middle" x="109.5873" y="-182.6774" font-family="Times,serif" font-size="18.00" fill="#ffffff">sociale critique</text>
</g>
<!-- d3 -->
<g id="node8" class="node">
<title>d3</title>
<polygon fill="#ffffff" stroke="#7f7f7f" points="558.6476,-251.9776 274.5269,-251.9776 274.5269,-167.3771 558.6476,-167.3771 558.6476,-251.9776"/>
<text text-anchor="middle" x="416.5873" y="-233.6774" font-family="Times,serif" font-size="16.00" fill="#000000">On s'intéresse aux changements</text>
<text text-anchor="middle" x="416.5873" y="-214.4774" font-family="Times,serif" font-size="16.00" fill="#000000">sociaux qui conduisent l'être humain à</text>
<text text-anchor="middle" x="416.5873" y="-195.2774" font-family="Times,serif" font-size="16.00" fill="#000000">devenir autre et qui ont pour conséquence</text>
<text text-anchor="middle" x="416.5873" y="-176.0774" font-family="Times,serif" font-size="16.00" fill="#000000">une forme de dépossession de soi</text>
</g>
<!-- c1&#45;&gt;d3 -->
<g id="edge8" class="edge">
<title>c1-&gt;d3</title>
<path fill="none" stroke="#000000" d="M219.3158,-209.6774C234.238,-209.6774 249.1602,-209.6774 264.0823,-209.6774"/>
<polygon fill="#000000" stroke="#000000" points="264.4131,-213.1775 274.4131,-209.6774 264.4131,-206.1775 264.4131,-213.1775"/>
</g>
<!-- b2 -->
<g id="node4" class="node">
<title>b2</title>
<ellipse fill="#8b0000" stroke="#000000" cx="109.5873" cy="-348.1547" rx="67.2691" ry="46.2727"/>
<text text-anchor="middle" x="109.5873" y="-362.5547" font-family="Times,serif" font-size="16.00" fill="#ffffff">L'aliénation</text>
<text text-anchor="middle" x="109.5873" y="-343.3547" font-family="Times,serif" font-size="16.00" fill="#ffffff">au sens</text>
<text text-anchor="middle" x="109.5873" y="-324.1547" font-family="Times,serif" font-size="16.00" fill="#ffffff">juridique</text>
</g>
<!-- b1&#45;&gt;b2 -->
<g id="edge2" class="edge">
<title>b1-&gt;b2</title>
<path fill="none" stroke="#000000" d="M110.5873,-516.3487C110.5873,-510.5841 110.5873,-504.6447 110.5873,-499.0547 110.5873,-499.0547 110.5873,-499.0547 110.5873,-417.6547 110.5873,-413.5142 110.5693,-409.235 110.5382,-404.9288"/>
<polygon fill="#000000" stroke="#000000" points="114.0377,-404.8509 110.444,-394.8842 107.038,-404.9166 114.0377,-404.8509"/>
</g>
<!-- d1 -->
<g id="node5" class="node">
<title>d1</title>
<polygon fill="#ffffff" stroke="#7f7f7f" points="428.7196,-572.7662 222.4549,-572.7662 222.4549,-525.9628 428.7196,-525.9628 428.7196,-572.7662"/>
<text text-anchor="middle" x="325.5873" y="-554.1645" font-family="Times,serif" font-size="16.00" fill="#000000">Aliénation vient du latin</text>
<text text-anchor="middle" x="325.5873" y="-534.9645" font-family="Times,serif" font-size="16.00" fill="#000000">“alius” qui signifie “autre”</text>
</g>
<!-- b1&#45;&gt;d1 -->
<g id="edge4" class="edge">
<title>b1-&gt;d1</title>
<path fill="none" stroke="#000000" d="M167.2767,-549.3645C182.1828,-549.3645 197.0888,-549.3645 211.9948,-549.3645"/>
<polygon fill="#000000" stroke="#000000" points="212.3144,-552.8646 222.3144,-549.3645 212.3143,-545.8646 212.3144,-552.8646"/>
</g>
<!-- b2&#45;&gt;c1 -->
<g id="edge3" class="edge">
<title>b2-&gt;c1</title>
<path fill="none" stroke="#000000" d="M109.5873,-301.6586C109.5873,-291.9941 109.5873,-281.6647 109.5873,-271.5475"/>
<polygon fill="#000000" stroke="#000000" points="113.0874,-271.5336 109.5873,-261.5336 106.0874,-271.5336 113.0874,-271.5336"/>
</g>
<!-- d2 -->
<g id="node6" class="node">
<title>d2</title>
<polygon fill="#ffffff" stroke="#7f7f7f" points="420.9989,-400.1547 232.1756,-400.1547 232.1756,-296.1547 420.9989,-296.1547 420.9989,-400.1547"/>
<text text-anchor="middle" x="326.5873" y="-381.7547" font-family="Times,serif" font-size="16.00" fill="#000000">Ce qui devient autre,</text>
<text text-anchor="middle" x="326.5873" y="-362.5547" font-family="Times,serif" font-size="16.00" fill="#000000">c'est le statut juridique de</text>
<text text-anchor="middle" x="326.5873" y="-343.3547" font-family="Times,serif" font-size="16.00" fill="#000000">ce qui est aliéné : ce qui</text>
<text text-anchor="middle" x="326.5873" y="-324.1547" font-family="Times,serif" font-size="16.00" fill="#000000">est aliéné ne m'appartient</text>
<text text-anchor="middle" x="326.5873" y="-304.9547" font-family="Times,serif" font-size="16.00" fill="#000000">plus, je ne le possède plus</text>
</g>
<!-- b2&#45;&gt;d2 -->
<g id="edge5" class="edge">
<title>b2-&gt;d2</title>
<path fill="none" stroke="#000000" d="M176.9759,-348.1547C191.9334,-348.1547 206.8909,-348.1547 221.8484,-348.1547"/>
<polygon fill="#000000" stroke="#000000" points="222.2036,-351.6548 232.2036,-348.1547 222.2035,-344.6548 222.2036,-351.6548"/>
</g>
<!-- d1a -->
<g id="node7" class="node">
<title>d1a</title>
<polygon fill="#ffffff" stroke="#7f7f7f" points="399.3739,-481.7565 251.8006,-481.7565 251.8006,-434.953 399.3739,-434.953 399.3739,-481.7565"/>
<text text-anchor="middle" x="325.5873" y="-463.1547" font-family="Times,serif" font-size="16.00" fill="#000000">L'aliénation signifie</text>
<text text-anchor="middle" x="325.5873" y="-443.9547" font-family="Times,serif" font-size="16.00" fill="#000000">un “devenir autre”</text>
</g>
<!-- d1&#45;&gt;d1a -->
<g id="edge6" class="edge">
<title>d1-&gt;d1a</title>
<path fill="none" stroke="#000000" d="M325.5873,-525.9272C325.5873,-515.5238 325.5873,-503.09 325.5873,-491.7409"/>
<polygon fill="#000000" stroke="#000000" points="329.0874,-491.7126 325.5873,-481.7126 322.0874,-491.7126 329.0874,-491.7126"/>
</g>
<!-- r1 -->
<g id="node10" class="node">
<title>r1</title>
<polygon fill="#ffffff" stroke="#0000ff" points="573.2169,-581.3645 483.9577,-581.3645 483.9577,-517.3645 573.2169,-517.3645 573.2169,-581.3645"/>
<text text-anchor="middle" x="528.5873" y="-562.8645" font-family="Times,serif" font-size="15.00" fill="#000000">Exemples :</text>
<text text-anchor="middle" x="528.5873" y="-544.8645" font-family="Times,serif" font-size="15.00" fill="#000000">“un alien”</text>
<text text-anchor="middle" x="528.5873" y="-526.8645" font-family="Times,serif" font-size="15.00" fill="#000000">“un aliéné”</text>
</g>
<!-- d1&#45;&gt;r1 -->
<g id="edge10" class="edge">
<title>d1-&gt;r1</title>
<path fill="none" stroke="#0000ff" stroke-dasharray="5,2" d="M429.0697,-549.3645C447.3405,-549.3645 465.6113,-549.3645 483.8821,-549.3645"/>
</g>
<!-- r3 -->
<g id="node11" class="node">
<title>r3</title>
<polygon fill="#ffffff" stroke="#0000ff" points="619.1763,-380.1547 475.9982,-380.1547 475.9982,-316.1547 619.1763,-316.1547 619.1763,-380.1547"/>
<text text-anchor="middle" x="547.5873" y="-361.6547" font-family="Times,serif" font-size="15.00" fill="#000000">Exemples :</text>
<text text-anchor="middle" x="547.5873" y="-343.6547" font-family="Times,serif" font-size="15.00" fill="#000000">“aliéner un bien”</text>
<text text-anchor="middle" x="547.5873" y="-325.6547" font-family="Times,serif" font-size="15.00" fill="#000000">“droits inaliénables”</text>
</g>
<!-- d2&#45;&gt;r3 -->
<g id="edge11" class="edge">
<title>d2-&gt;r3</title>
<path fill="none" stroke="#0000ff" stroke-dasharray="5,2" d="M421.1166,-348.1547C439.3955,-348.1547 457.6745,-348.1547 475.9535,-348.1547"/>
</g>
<!-- d1a&#45;&gt;d2 -->
<!-- d4 -->
<g id="node9" class="node">
<title>d4</title>
<polygon fill="#ffffff" stroke="#7f7f7f" points="542.4929,-123.3002 290.6816,-123.3002 290.6816,.1002 542.4929,.1002 542.4929,-123.3002"/>
<text text-anchor="middle" x="416.5873" y="-104.8" font-family="Times,serif" font-size="16.00" fill="#000000">Il y a dépossession de soi quand :</text>
<text text-anchor="middle" x="416.5873" y="-85.6" font-family="Times,serif" font-size="16.00" fill="#000000">(1) un être humain possède</text>
<text text-anchor="middle" x="416.5873" y="-66.4" font-family="Times,serif" font-size="16.00" fill="#000000">d'ordinaire une certaine capacité,</text>
<text text-anchor="middle" x="416.5873" y="-47.2" font-family="Times,serif" font-size="16.00" fill="#000000">(2) qui est perdue, ou dont l'exercice</text>
<text text-anchor="middle" x="416.5873" y="-28" font-family="Times,serif" font-size="16.00" fill="#000000">est rendu plus difficile, à cause</text>
<text text-anchor="middle" x="416.5873" y="-8.8" font-family="Times,serif" font-size="16.00" fill="#000000">d'un certain changement social</text>
</g>
<!-- d3&#45;&gt;d4 -->
<g id="edge9" class="edge">
<title>d3-&gt;d4</title>
<path fill="none" stroke="#000000" d="M416.5873,-167.2443C416.5873,-156.6684 416.5873,-145.0333 416.5873,-133.4688"/>
<polygon fill="#000000" stroke="#000000" points="420.0874,-133.3526 416.5873,-123.3527 413.0874,-133.3527 420.0874,-133.3526"/>
</g>
</g>
</svg>