<?xml version="1.0" encoding="UTF-8" standalone="no"?><!DOCTYPE svg PUBLIC "-//W3C//DTD SVG 1.1//EN" "http://www.w3.org/Graphics/SVG/1.1/DTD/svg11.dtd"><!-- Generated by graphviz version 2.40.1 (20161225.0304)
 --><!-- Title: G Pages: 1 --><svg xmlns="http://www.w3.org/2000/svg" xmlns:xlink="http://www.w3.org/1999/xlink" width="552pt" height="495pt" viewBox="0.00 0.00 552.20 494.55">
<g id="remarques+objections_graph0" class="graph" transform="scale(1 1) rotate(0) translate(21.6 472.9537)">
<title>G</title>
<polygon fill="#ffffff" stroke="transparent" points="-21.6,21.6 -21.6,-472.9537 530.6,-472.9537 530.6,21.6 -21.6,21.6"/>
<g id="remarques+objections_clust1" class="cluster">
<title>cluster_0</title>
<path fill="#e5e5e5" stroke="#7f7f7f" d="M91,-8C91,-8 489,-8 489,-8 495,-8 501,-14 501,-20 501,-20 501,-431.3537 501,-431.3537 501,-437.3537 495,-443.3537 489,-443.3537 489,-443.3537 91,-443.3537 91,-443.3537 85,-443.3537 79,-437.3537 79,-431.3537 79,-431.3537 79,-20 79,-20 79,-14 85,-8 91,-8"/>
</g>
<!-- 0 -->
<!-- PL1 -->
<g id="remarques+objections_node2_remarques+objections" class="node">
<title>PL1</title>
<polygon fill="#e0e0e0" stroke="transparent" points="434,-209.7537 146,-209.7537 146,-208.7537 434,-208.7537 434,-209.7537"/>
<polyline fill="none" stroke="#000000" points="146,-208.7537 434,-208.7537 "/>
</g>
<!-- C -->
<g id="remarques+objections_node5_remarques+objections" class="node">
<title>C</title>
<ellipse fill="#000000" stroke="#000000" cx="290" cy="-94.3769" rx="121.8676" ry="61.254"/>
<text text-anchor="middle" x="290" y="-110.5769" font-family="Times,serif" font-size="18.00" fill="#ffffff">Les transformations</text>
<text text-anchor="middle" x="290" y="-88.9769" font-family="Times,serif" font-size="18.00" fill="#ffffff">techniques menacent</text>
<text text-anchor="middle" x="290" y="-67.3769" font-family="Times,serif" font-size="18.00" fill="#ffffff">l'être humain</text>
</g>
<!-- PL1&#45;&gt;C -->
<g id="remarques+objections_edge3" class="edge">
<title>PL1-&gt;C</title>
<path fill="none" stroke="#000000" d="M290.1162,-208.3415C292.364,-190.6922 294.0961,-177.0686 295.3125,-166.1159"/>
<polygon fill="#000000" stroke="#000000" points="298.811,-166.3099 296.357,-156.0032 291.848,-165.5906 298.811,-166.3099"/>
<text text-anchor="middle" x="264.3328" y="-197.1385" font-family="Times,serif" font-size="10.00" fill="#666666">par</text>
<text text-anchor="middle" x="264.3328" y="-185.1385" font-family="Times,serif" font-size="10.00" fill="#666666">conséquent …</text>
</g>
<!-- p1 -->
<g id="remarques+objections_node3_remarques+objections" class="node">
<title>p1</title>
<path fill="#ffffff" stroke="#000000" d="M463.7197,-323.7537C463.7197,-323.7537 286.2803,-323.7537 286.2803,-323.7537 280.2803,-323.7537 274.2803,-317.7537 274.2803,-311.7537 274.2803,-311.7537 274.2803,-229.7537 274.2803,-229.7537 274.2803,-223.7537 280.2803,-217.7537 286.2803,-217.7537 286.2803,-217.7537 463.7197,-217.7537 463.7197,-217.7537 469.7197,-217.7537 475.7197,-223.7537 475.7197,-229.7537 475.7197,-229.7537 475.7197,-311.7537 475.7197,-311.7537 475.7197,-317.7537 469.7197,-323.7537 463.7197,-323.7537"/>
<text text-anchor="middle" x="375" y="-300.1537" font-family="Times,serif" font-size="14.00" fill="#000000">Les transformations techniques</text>
<text text-anchor="middle" x="375" y="-283.3537" font-family="Times,serif" font-size="14.00" fill="#000000">ont la puissance de produire des</text>
<text text-anchor="middle" x="375" y="-266.5537" font-family="Times,serif" font-size="14.00" fill="#000000">changements importants dans</text>
<text text-anchor="middle" x="375" y="-249.7537" font-family="Times,serif" font-size="14.00" fill="#000000">les manières d'agir, de désirer,</text>
<text text-anchor="middle" x="375" y="-232.9537" font-family="Times,serif" font-size="14.00" fill="#000000">voire de penser des individus</text>
</g>
<!-- p1&#45;&gt;PL1 -->
<!-- p2 -->
<g id="remarques+objections_node4_remarques+objections" class="node">
<title>p2</title>
<path fill="#ffffff" stroke="#000000" d="M243.8389,-315.454C243.8389,-315.454 116.1611,-315.454 116.1611,-315.454 110.1611,-315.454 104.1611,-309.454 104.1611,-303.454 104.1611,-303.454 104.1611,-238.0535 104.1611,-238.0535 104.1611,-232.0535 110.1611,-226.0535 116.1611,-226.0535 116.1611,-226.0535 243.8389,-226.0535 243.8389,-226.0535 249.8389,-226.0535 255.8389,-232.0535 255.8389,-238.0535 255.8389,-238.0535 255.8389,-303.454 255.8389,-303.454 255.8389,-309.454 249.8389,-315.454 243.8389,-315.454"/>
<text text-anchor="middle" x="180" y="-291.7537" font-family="Times,serif" font-size="14.00" fill="#000000">Nous ne sommes pas</text>
<text text-anchor="middle" x="180" y="-274.9537" font-family="Times,serif" font-size="14.00" fill="#000000">toujours capables de</text>
<text text-anchor="middle" x="180" y="-258.1537" font-family="Times,serif" font-size="14.00" fill="#000000">maîtriser la puissance</text>
<text text-anchor="middle" x="180" y="-241.3537" font-family="Times,serif" font-size="14.00" fill="#000000">de la technique</text>
</g>
<!-- p2&#45;&gt;PL1 -->
<!-- r1 -->
<g id="remarques+objections_node6_remarques+objections" class="node">
<title>r1</title>
<polygon fill="#ffffff" stroke="#0000ff" points="446.5916,-418.1556 303.4084,-418.1556 303.4084,-376.9518 446.5916,-376.9518 446.5916,-418.1556"/>
<text text-anchor="middle" x="375" y="-401.7537" font-family="Times,serif" font-size="14.00" fill="#000000">= thèse du</text>
<text text-anchor="middle" x="375" y="-384.9537" font-family="Times,serif" font-size="14.00" fill="#000000">déterminisme technique</text>
</g>
<!-- r1&#45;&gt;p1 -->
<g id="remarques+objections_edge4" class="edge">
<title>r1-&gt;p1</title>
<path fill="none" stroke="#0000ff" stroke-dasharray="5,2" d="M383.1922,-376.6832C389.6847,-358.607 390.8582,-347.3444 386.7127,-323.8856"/>
</g>
<!-- r2 -->
<g id="remarques+objections_node7_remarques+objections" class="node">
<title>r2</title>
<polygon fill="#ffffff" stroke="#0000ff" points="250.9726,-418.1556 109.0274,-418.1556 109.0274,-376.9518 250.9726,-376.9518 250.9726,-418.1556"/>
<text text-anchor="middle" x="180" y="-401.7537" font-family="Times,serif" font-size="14.00" fill="#000000">= thèse de l'autonomie</text>
<text text-anchor="middle" x="180" y="-384.9537" font-family="Times,serif" font-size="14.00" fill="#000000">de la technique</text>
</g>
<!-- r2&#45;&gt;p2 -->
<g id="remarques+objections_edge5" class="edge">
<title>r2-&gt;p2</title>
<path fill="none" stroke="#0000ff" stroke-dasharray="5,2" d="M173.3339,-376.9336C168.1142,-358.7471 167.8764,-346.8848 172.6206,-315.4272"/>
</g>
</g>
</svg>