<?xml version="1.0" encoding="UTF-8" standalone="no"?><!DOCTYPE svg PUBLIC "-//W3C//DTD SVG 1.1//EN" "http://www.w3.org/Graphics/SVG/1.1/DTD/svg11.dtd"><!-- Generated by graphviz version 2.40.1 (20161225.0304)
 --><!-- Title: G Pages: 1 --><svg xmlns="http://www.w3.org/2000/svg" xmlns:xlink="http://www.w3.org/1999/xlink" width="601pt" height="418pt" viewBox="0.00 0.00 601.05 417.58">
<g id="graph0" class="graph" transform="scale(1 1) rotate(0) translate(21.6 395.9801)">
<title>G</title>
<polygon fill="#fafafa" stroke="transparent" points="-21.6,21.6 -21.6,-395.9801 579.452,-395.9801 579.452,21.6 -21.6,21.6"/>
<!-- a1 -->
<g id="node1" class="node">
<title>a1</title>
<ellipse fill="#000000" stroke="#000000" cx="263.6488" cy="-338.1763" rx="82.5223" ry="36.4089"/>
<text text-anchor="middle" x="263.6488" y="-343.5763" font-family="Times,serif" font-size="18.00" fill="#ffffff">Les différents</text>
<text text-anchor="middle" x="263.6488" y="-321.9763" font-family="Times,serif" font-size="18.00" fill="#ffffff">types de peur</text>
</g>
<!-- b1 -->
<g id="node2" class="node">
<title>b1</title>
<ellipse fill="#8b0000" stroke="#000000" cx="122.6488" cy="-220.5862" rx="73.9584" ry="46.2727"/>
<text text-anchor="middle" x="122.6488" y="-234.9862" font-family="Times,serif" font-size="16.00" fill="#ffffff">Les peurs</text>
<text text-anchor="middle" x="122.6488" y="-215.7862" font-family="Times,serif" font-size="16.00" fill="#ffffff">sans véritable</text>
<text text-anchor="middle" x="122.6488" y="-196.5862" font-family="Times,serif" font-size="16.00" fill="#ffffff">fondement</text>
</g>
<!-- a1&#45;&gt;b1 -->
<g id="edge1" class="edge">
<title>a1-&gt;b1:n</title>
<path fill="none" stroke="#000000" d="M185.3146,-326.7427C156.4102,-318.1883 129.2844,-303.2377 123.6965,-277.1121"/>
<polygon fill="#000000" stroke="#000000" points="127.1581,-276.5597 122.6488,-266.9724 120.1952,-277.2792 127.1581,-276.5597"/>
</g>
<!-- b2 -->
<g id="node3" class="node">
<title>b2</title>
<ellipse fill="#8b0000" stroke="#000000" cx="405.6488" cy="-220.5862" rx="97.1637" ry="46.2727"/>
<text text-anchor="middle" x="405.6488" y="-234.9862" font-family="Times,serif" font-size="16.00" fill="#ffffff">Les peurs qui</text>
<text text-anchor="middle" x="405.6488" y="-215.7862" font-family="Times,serif" font-size="16.00" fill="#ffffff">reposent sur un</text>
<text text-anchor="middle" x="405.6488" y="-196.5862" font-family="Times,serif" font-size="16.00" fill="#ffffff">fondement objectif</text>
</g>
<!-- a1&#45;&gt;b2 -->
<g id="edge2" class="edge">
<title>a1-&gt;b2:n</title>
<path fill="none" stroke="#000000" d="M342.1247,-326.8398C371.3735,-318.2719 398.911,-303.232 404.5849,-276.8345"/>
<polygon fill="#000000" stroke="#000000" points="408.0975,-276.8942 405.6488,-266.5862 401.1349,-276.1713 408.0975,-276.8942"/>
</g>
<!-- b1&#45;&gt;b2 -->
<!-- c1 -->
<g id="node4" class="node">
<title>c1</title>
<polygon fill="#ffffff" stroke="#7f7f7f" points="104.841,-129.8017 10.4566,-129.8017 10.4566,-82.9983 104.841,-82.9983 104.841,-129.8017"/>
<text text-anchor="middle" x="57.6488" y="-111.2" font-family="Times,serif" font-size="16.00" fill="#000000">La phobie</text>
<text text-anchor="middle" x="57.6488" y="-92" font-family="Times,serif" font-size="16.00" fill="#000000">irrationnelle</text>
</g>
<!-- b1&#45;&gt;c1 -->
<g id="edge4" class="edge">
<title>b1-&gt;c1</title>
<path fill="none" stroke="#000000" d="M97.704,-176.7654C90.5286,-164.1603 82.8331,-150.6415 76.1241,-138.8558"/>
<polygon fill="#000000" stroke="#000000" points="78.9728,-136.7851 70.9839,-129.826 72.8894,-140.2481 78.9728,-136.7851"/>
</g>
<!-- c2 -->
<g id="node5" class="node">
<title>c2</title>
<polygon fill="#ffffff" stroke="#7f7f7f" points="228.0544,-139.0012 125.2432,-139.0012 125.2432,-73.7988 228.0544,-73.7988 228.0544,-139.0012"/>
<text text-anchor="middle" x="176.6488" y="-120.8" font-family="Times,serif" font-size="16.00" fill="#000000">La simple</text>
<text text-anchor="middle" x="176.6488" y="-101.6" font-family="Times,serif" font-size="16.00" fill="#000000">appréhension</text>
<text text-anchor="middle" x="176.6488" y="-82.4" font-family="Times,serif" font-size="16.00" fill="#000000">à surmonter</text>
</g>
<!-- b1&#45;&gt;c2 -->
<g id="edge5" class="edge">
<title>b1-&gt;c2</title>
<path fill="none" stroke="#000000" d="M143.6812,-176.1119C147.9891,-167.0026 152.5104,-157.4421 156.776,-148.4223"/>
<polygon fill="#000000" stroke="#000000" points="159.9978,-149.7962 161.109,-139.2598 153.6698,-146.8036 159.9978,-149.7962"/>
</g>
<!-- c3 -->
<g id="node6" class="node">
<title>c3</title>
<polygon fill="#ffffff" stroke="#7f7f7f" points="405.6347,-139.0012 299.6629,-139.0012 299.6629,-73.7988 405.6347,-73.7988 405.6347,-139.0012"/>
<text text-anchor="middle" x="352.6488" y="-120.8" font-family="Times,serif" font-size="16.00" fill="#000000">L'inquiétude</text>
<text text-anchor="middle" x="352.6488" y="-101.6" font-family="Times,serif" font-size="16.00" fill="#000000">face à une</text>
<text text-anchor="middle" x="352.6488" y="-82.4" font-family="Times,serif" font-size="16.00" fill="#000000">menace réelle</text>
</g>
<!-- b2&#45;&gt;c3 -->
<g id="edge6" class="edge">
<title>b2-&gt;c3</title>
<path fill="none" stroke="#000000" d="M384.5495,-175.1287C380.4368,-166.2681 376.1429,-157.0171 372.0871,-148.2789"/>
<polygon fill="#000000" stroke="#000000" points="375.1842,-146.6382 367.7993,-139.0412 368.8348,-149.5853 375.1842,-146.6382"/>
</g>
<!-- c4 -->
<g id="node7" class="node">
<title>c4</title>
<polygon fill="#ffffff" stroke="#7f7f7f" points="558.0558,-139.0012 419.2418,-139.0012 419.2418,-73.7988 558.0558,-73.7988 558.0558,-139.0012"/>
<text text-anchor="middle" x="488.6488" y="-120.8" font-family="Times,serif" font-size="16.00" fill="#000000">La crainte d'un</text>
<text text-anchor="middle" x="488.6488" y="-101.6" font-family="Times,serif" font-size="16.00" fill="#000000">phénomène qu'on</text>
<text text-anchor="middle" x="488.6488" y="-82.4" font-family="Times,serif" font-size="16.00" fill="#000000">ne contrôle pas</text>
</g>
<!-- b2&#45;&gt;c4 -->
<g id="edge7" class="edge">
<title>b2-&gt;c4</title>
<path fill="none" stroke="#000000" d="M437.5014,-176.7654C444.5023,-167.134 451.891,-156.969 458.8092,-147.4514"/>
<polygon fill="#000000" stroke="#000000" points="461.6976,-149.4305 464.7462,-139.2838 456.0354,-145.3147 461.6976,-149.4305"/>
</g>
<!-- e1 -->
<g id="node8" class="node">
<title>e1</title>
<path fill="#fafafa" stroke="transparent" d="M89.4468,-65.4012C89.4468,-65.4012 11.8508,-65.4012 11.8508,-65.4012 5.8508,-65.4012 -.1492,-59.4012 -.1492,-53.4012 -.1492,-53.4012 -.1492,-12.1988 -.1492,-12.1988 -.1492,-6.1988 5.8508,-.1988 11.8508,-.1988 11.8508,-.1988 89.4468,-.1988 89.4468,-.1988 95.4468,-.1988 101.4468,-6.1988 101.4468,-12.1988 101.4468,-12.1988 101.4468,-53.4012 101.4468,-53.4012 101.4468,-59.4012 95.4468,-65.4012 89.4468,-65.4012"/>
<text text-anchor="middle" x="50.6488" y="-47.2" font-family="Times,serif" font-size="16.00" fill="#cd2626">Exemple :</text>
<text text-anchor="middle" x="50.6488" y="-28" font-family="Times,serif" font-size="16.00" fill="#cd2626">avoir peur</text>
<text text-anchor="middle" x="50.6488" y="-8.8" font-family="Times,serif" font-size="16.00" fill="#cd2626">des fantômes</text>
</g>
<!-- c1&#45;&gt;e1 -->
<!-- e2 -->
<g id="node9" class="node">
<title>e2</title>
<path fill="#fafafa" stroke="transparent" d="M252.0461,-65.4012C252.0461,-65.4012 127.2515,-65.4012 127.2515,-65.4012 121.2515,-65.4012 115.2515,-59.4012 115.2515,-53.4012 115.2515,-53.4012 115.2515,-12.1988 115.2515,-12.1988 115.2515,-6.1988 121.2515,-.1988 127.2515,-.1988 127.2515,-.1988 252.0461,-.1988 252.0461,-.1988 258.0461,-.1988 264.0461,-6.1988 264.0461,-12.1988 264.0461,-12.1988 264.0461,-53.4012 264.0461,-53.4012 264.0461,-59.4012 258.0461,-65.4012 252.0461,-65.4012"/>
<text text-anchor="middle" x="189.6488" y="-47.2" font-family="Times,serif" font-size="16.00" fill="#cd2626">Exemple :</text>
<text text-anchor="middle" x="189.6488" y="-28" font-family="Times,serif" font-size="16.00" fill="#cd2626">avoir peur de</text>
<text text-anchor="middle" x="189.6488" y="-8.8" font-family="Times,serif" font-size="16.00" fill="#cd2626">s'exprimer en public</text>
</g>
<!-- c2&#45;&gt;e2 -->
<!-- e3 -->
<g id="node10" class="node">
<title>e3</title>
<path fill="#fafafa" stroke="transparent" d="M406.1713,-65.4012C406.1713,-65.4012 299.1263,-65.4012 299.1263,-65.4012 293.1263,-65.4012 287.1263,-59.4012 287.1263,-53.4012 287.1263,-53.4012 287.1263,-12.1988 287.1263,-12.1988 287.1263,-6.1988 293.1263,-.1988 299.1263,-.1988 299.1263,-.1988 406.1713,-.1988 406.1713,-.1988 412.1713,-.1988 418.1713,-6.1988 418.1713,-12.1988 418.1713,-12.1988 418.1713,-53.4012 418.1713,-53.4012 418.1713,-59.4012 412.1713,-65.4012 406.1713,-65.4012"/>
<text text-anchor="middle" x="352.6488" y="-47.2" font-family="Times,serif" font-size="16.00" fill="#cd2626">Exemple :</text>
<text text-anchor="middle" x="352.6488" y="-28" font-family="Times,serif" font-size="16.00" fill="#cd2626">avoir peur de</text>
<text text-anchor="middle" x="352.6488" y="-8.8" font-family="Times,serif" font-size="16.00" fill="#cd2626">perdre son emploi</text>
</g>
<!-- c3&#45;&gt;e3 -->
<!-- e4 -->
<g id="node11" class="node">
<title>e4</title>
<path fill="#fafafa" stroke="transparent" d="M517.4678,-65.4012C517.4678,-65.4012 459.8298,-65.4012 459.8298,-65.4012 453.8298,-65.4012 447.8298,-59.4012 447.8298,-53.4012 447.8298,-53.4012 447.8298,-12.1988 447.8298,-12.1988 447.8298,-6.1988 453.8298,-.1988 459.8298,-.1988 459.8298,-.1988 517.4678,-.1988 517.4678,-.1988 523.4678,-.1988 529.4678,-6.1988 529.4678,-12.1988 529.4678,-12.1988 529.4678,-53.4012 529.4678,-53.4012 529.4678,-59.4012 523.4678,-65.4012 517.4678,-65.4012"/>
<text text-anchor="middle" x="488.6488" y="-47.2" font-family="Times,serif" font-size="16.00" fill="#cd2626">Exemple :</text>
<text text-anchor="middle" x="488.6488" y="-28" font-family="Times,serif" font-size="16.00" fill="#cd2626">avoir peur</text>
<text text-anchor="middle" x="488.6488" y="-8.8" font-family="Times,serif" font-size="16.00" fill="#cd2626">de la mort</text>
</g>
<!-- c4&#45;&gt;e4 -->
</g>
</svg>