<?xml version="1.0" encoding="UTF-8" standalone="no"?><!DOCTYPE svg PUBLIC "-//W3C//DTD SVG 1.1//EN" "http://www.w3.org/Graphics/SVG/1.1/DTD/svg11.dtd"><!-- Generated by graphviz version 2.40.1 (20161225.0304)
 --><!-- Title: G Pages: 1 --><svg xmlns="http://www.w3.org/2000/svg" xmlns:xlink="http://www.w3.org/1999/xlink" width="673pt" height="467pt" viewBox="0.00 0.00 673.00 467.38">
<g id="graph0" class="graph" transform="scale(1 1) rotate(0) translate(21.6 445.7801)">
<title>G</title>
<polygon fill="#fafafa" stroke="transparent" points="-21.6,21.6 -21.6,-445.7801 651.3968,-445.7801 651.3968,21.6 -21.6,21.6"/>
<!-- a1 -->
<g id="node1" class="node">
<title>a1</title>
<ellipse fill="#000000" stroke="#000000" cx="285.9632" cy="-387.9763" rx="79.1384" ry="36.4089"/>
<text text-anchor="middle" x="285.9632" y="-393.3763" font-family="Times,serif" font-size="18.00" fill="#ffffff">L'expérience</text>
<text text-anchor="middle" x="285.9632" y="-371.7763" font-family="Times,serif" font-size="18.00" fill="#ffffff">esthétique</text>
</g>
<!-- b1 -->
<g id="node2" class="node">
<title>b1</title>
<ellipse fill="#8b0000" stroke="#000000" cx="285.9632" cy="-270.3862" rx="112.6995" ry="46.2727"/>
<text text-anchor="middle" x="285.9632" y="-284.7862" font-family="Times,serif" font-size="16.00" fill="#ffffff">= une expérience plus</text>
<text text-anchor="middle" x="285.9632" y="-265.5862" font-family="Times,serif" font-size="16.00" fill="#ffffff">riche que l'expérience</text>
<text text-anchor="middle" x="285.9632" y="-246.3862" font-family="Times,serif" font-size="16.00" fill="#ffffff">ordinaire</text>
</g>
<!-- a1&#45;&gt;b1 -->
<g id="edge1" class="edge">
<title>a1-&gt;b1:n</title>
<path fill="none" stroke="#000000" d="M285.9632,-351.7531C285.9632,-343.7812 285.9632,-335.2122 285.9632,-326.8377"/>
<polygon fill="#000000" stroke="#000000" points="289.4633,-326.7724 285.9632,-316.7724 282.4633,-326.7724 289.4633,-326.7724"/>
</g>
<!-- c1 -->
<g id="node3" class="node">
<title>c1</title>
<polygon fill="#ffffff" stroke="#7f7f7f" points="199.0668,-189 16.8596,-189 16.8596,-85 199.0668,-85 199.0668,-189"/>
<text text-anchor="middle" x="107.9632" y="-170.6" font-family="Times,serif" font-size="16.00" fill="#000000">L'œuvre d'art nous</text>
<text text-anchor="middle" x="107.9632" y="-151.4" font-family="Times,serif" font-size="16.00" fill="#000000">apprend à voir autrement,</text>
<text text-anchor="middle" x="107.9632" y="-132.2" font-family="Times,serif" font-size="16.00" fill="#000000">à percevoir de manière</text>
<text text-anchor="middle" x="107.9632" y="-113" font-family="Times,serif" font-size="16.00" fill="#000000">plus intense et plus</text>
<text text-anchor="middle" x="107.9632" y="-93.8" font-family="Times,serif" font-size="16.00" fill="#000000">fine le monde</text>
</g>
<!-- b1&#45;&gt;c1 -->
<g id="edge2" class="edge">
<title>b1-&gt;c1</title>
<path fill="none" stroke="#000000" d="M231.5901,-229.6412C217.0506,-218.7458 201.0503,-206.7558 185.5225,-195.1199"/>
<polygon fill="#000000" stroke="#000000" points="187.5571,-192.2709 177.4557,-189.075 183.3593,-197.8726 187.5571,-192.2709"/>
</g>
<!-- c2 -->
<g id="node4" class="node">
<title>c2</title>
<polygon fill="#ffffff" stroke="#7f7f7f" points="355.9424,-189 215.984,-189 215.984,-85 355.9424,-85 355.9424,-189"/>
<text text-anchor="middle" x="285.9632" y="-170.6" font-family="Times,serif" font-size="16.00" fill="#000000">Les émotions</text>
<text text-anchor="middle" x="285.9632" y="-151.4" font-family="Times,serif" font-size="16.00" fill="#000000">auxquelles l'œuvre</text>
<text text-anchor="middle" x="285.9632" y="-132.2" font-family="Times,serif" font-size="16.00" fill="#000000">d'art nous conduit</text>
<text text-anchor="middle" x="285.9632" y="-113" font-family="Times,serif" font-size="16.00" fill="#000000">sont fortes, subtiles</text>
<text text-anchor="middle" x="285.9632" y="-93.8" font-family="Times,serif" font-size="16.00" fill="#000000">et profondes</text>
</g>
<!-- b1&#45;&gt;c2 -->
<g id="edge3" class="edge">
<title>b1-&gt;c2</title>
<path fill="none" stroke="#000000" d="M285.9632,-223.7342C285.9632,-215.9163 285.9632,-207.6935 285.9632,-199.5532"/>
<polygon fill="#000000" stroke="#000000" points="289.4633,-199.3229 285.9632,-189.323 282.4633,-199.323 289.4633,-199.3229"/>
</g>
<!-- c3 -->
<g id="node5" class="node">
<title>c3</title>
<polygon fill="#ffffff" stroke="#7f7f7f" points="629.6306,-189 370.2958,-189 370.2958,-85 629.6306,-85 629.6306,-189"/>
<text text-anchor="middle" x="499.9632" y="-170.6" font-family="Times,serif" font-size="16.00" fill="#000000">L'œuvre d'art nous questionne,</text>
<text text-anchor="middle" x="499.9632" y="-151.4" font-family="Times,serif" font-size="16.00" fill="#000000">enrichit notre imagination, nous</text>
<text text-anchor="middle" x="499.9632" y="-132.2" font-family="Times,serif" font-size="16.00" fill="#000000">permet de nous comprendre, et de</text>
<text text-anchor="middle" x="499.9632" y="-113" font-family="Times,serif" font-size="16.00" fill="#000000">comprendre le monde, par une pensée</text>
<text text-anchor="middle" x="499.9632" y="-93.8" font-family="Times,serif" font-size="16.00" fill="#000000">incarnée, concrète et plus vive</text>
</g>
<!-- b1&#45;&gt;c3 -->
<g id="edge4" class="edge">
<title>b1-&gt;c3</title>
<path fill="none" stroke="#000000" d="M348.1483,-231.6262C366.829,-219.9826 387.7339,-206.9525 407.9151,-194.3736"/>
<polygon fill="#000000" stroke="#000000" points="409.8761,-197.2755 416.5112,-189.0156 406.1734,-191.335 409.8761,-197.2755"/>
</g>
<!-- e1 -->
<g id="node6" class="node">
<title>e1</title>
<path fill="#fafafa" stroke="transparent" d="M175.8896,-69C175.8896,-69 12.0368,-69 12.0368,-69 6.0368,-69 .0368,-63 .0368,-57 .0368,-57 .0368,-20 .0368,-20 .0368,-14 6.0368,-8 12.0368,-8 12.0368,-8 175.8896,-8 175.8896,-8 181.8896,-8 187.8896,-14 187.8896,-20 187.8896,-20 187.8896,-57 187.8896,-57 187.8896,-63 181.8896,-69 175.8896,-69"/>
<text text-anchor="start" x="62.6408" y="-51.6" font-family="Times,serif" font-weight="bold" font-size="16.00" fill="#cd2626">Paul Klee</text>
<text text-anchor="start" x="8" y="-30.6" font-family="Times,serif" font-size="16.00" fill="#cd2626">« L'art ne reproduit pas le</text>
<text text-anchor="start" x="15.9752" y="-14.6" font-family="Times,serif" font-size="16.00" fill="#cd2626">visible, il rend visible »</text>
</g>
<!-- c1&#45;&gt;e1 -->
<!-- e2 -->
<g id="node7" class="node">
<title>e2</title>
<path fill="#fafafa" stroke="transparent" d="M379.9599,-77C379.9599,-77 213.9665,-77 213.9665,-77 207.9665,-77 201.9665,-71 201.9665,-65 201.9665,-65 201.9665,-12 201.9665,-12 201.9665,-6 207.9665,0 213.9665,0 213.9665,0 379.9599,0 379.9599,0 385.9599,0 391.9599,-6 391.9599,-12 391.9599,-12 391.9599,-65 391.9599,-65 391.9599,-71 385.9599,-77 379.9599,-77"/>
<text text-anchor="start" x="251.648" y="-59.6" font-family="Times,serif" font-weight="bold" font-size="16.00" fill="#cd2626">Schopenhauer</text>
<text text-anchor="start" x="210.2152" y="-38.6" font-family="Times,serif" font-size="16.00" fill="#cd2626">« La musique révèle tous</text>
<text text-anchor="start" x="218.9744" y="-22.6" font-family="Times,serif" font-size="16.00" fill="#cd2626">les mouvements les plus</text>
<text text-anchor="start" x="220.104" y="-6.6" font-family="Times,serif" font-size="16.00" fill="#cd2626">intimes de notre être »</text>
</g>
<!-- c2&#45;&gt;e2 -->
<!-- e3 -->
<g id="node8" class="node">
<title>e3</title>
<path fill="#fafafa" stroke="transparent" d="M571.3348,-69C571.3348,-69 428.5916,-69 428.5916,-69 422.5916,-69 416.5916,-63 416.5916,-57 416.5916,-57 416.5916,-20 416.5916,-20 416.5916,-14 422.5916,-8 428.5916,-8 428.5916,-8 571.3348,-8 571.3348,-8 577.3348,-8 583.3348,-14 583.3348,-20 583.3348,-20 583.3348,-57 583.3348,-57 583.3348,-63 577.3348,-69 571.3348,-69"/>
<text text-anchor="start" x="441.0912" y="-51.6" font-family="Times,serif" font-weight="bold" font-size="16.00" fill="#cd2626">Martha Nussbaum</text>
<text text-anchor="start" x="424.7776" y="-30.6" font-family="Times,serif" font-size="16.00" fill="#cd2626">« La littérature est une</text>
<text text-anchor="start" x="433.54" y="-14.6" font-family="Times,serif" font-size="16.00" fill="#cd2626">extension de la vie»</text>
</g>
<!-- c3&#45;&gt;e3 -->
</g>
</svg>