<?xml version="1.0" encoding="UTF-8" standalone="no"?><!DOCTYPE svg PUBLIC "-//W3C//DTD SVG 1.1//EN" "http://www.w3.org/Graphics/SVG/1.1/DTD/svg11.dtd"><!-- Generated by graphviz version 2.40.1 (20161225.0304)
 --><!-- Title: G Pages: 1 --><svg xmlns="http://www.w3.org/2000/svg" xmlns:xlink="http://www.w3.org/1999/xlink" width="545pt" height="439pt" viewBox="0.00 0.00 544.83 439.40">
<g id="graph0" class="graph" transform="scale(1 1) rotate(0) translate(21.6 417.8)">
<title>G</title>
<polygon fill="#fafafa" stroke="transparent" points="-21.6,21.6 -21.6,-417.8 523.2315,-417.8 523.2315,21.6 -21.6,21.6"/>
<!-- b1 -->
<g id="node1" class="node">
<title>b1</title>
<ellipse fill="#006400" stroke="#000000" cx="124.52" cy="-365.2" rx="27" ry="19.4695"/>
<text text-anchor="middle" x="124.52" y="-360.4" font-family="Times,serif" font-size="16.00" fill="#ffffff">A</text>
</g>
<!-- b2 -->
<g id="node2" class="node">
<title>b2</title>
<ellipse fill="#006400" stroke="#000000" cx="124.52" cy="-268.2" rx="27" ry="19.4695"/>
<text text-anchor="middle" x="124.52" y="-263.4" font-family="Times,serif" font-size="16.00" fill="#ffffff">R</text>
</g>
<!-- b1&#45;&gt;b2 -->
<g id="edge1" class="edge">
<title>b1-&gt;b2</title>
<path fill="none" stroke="#000000" d="M124.52,-345.5706C124.52,-331.807 124.52,-313.1663 124.52,-297.6305"/>
<polygon fill="#000000" stroke="#000000" points="124.52,-287.4692 129.0201,-297.4691 124.52,-292.4692 124.5201,-297.4692 124.5201,-297.4692 124.5201,-297.4692 124.52,-292.4692 120.0201,-297.4692 124.52,-287.4692 124.52,-287.4692"/>
</g>
<!-- c1 -->
<g id="node5" class="node">
<title>c1</title>
<polygon fill="#ffffff" stroke="#006400" points="337.8051,-390.9004 193.2349,-390.9004 193.2349,-339.4996 337.8051,-339.4996 337.8051,-390.9004"/>
<text text-anchor="middle" x="265.52" y="-376" font-family="Times,serif" font-size="12.00" fill="#000000">On formule par soi-même</text>
<text text-anchor="middle" x="265.52" y="-361.6" font-family="Times,serif" font-size="12.00" fill="#000000">l'argument, à partir de</text>
<text text-anchor="middle" x="265.52" y="-347.2" font-family="Times,serif" font-size="12.00" fill="#000000">l'analyse des notions </text>
</g>
<!-- b1&#45;&gt;c1 -->
<g id="edge4" class="edge">
<title>b1-&gt;c1</title>
<path fill="none" stroke="#006400" d="M151.7837,-365.2C165.5564,-365.2 179.3292,-365.2 193.1019,-365.2"/>
</g>
<!-- b3 -->
<g id="node3" class="node">
<title>b3</title>
<ellipse fill="#006400" stroke="#000000" cx="124.52" cy="-144.2" rx="27" ry="19.4695"/>
<text text-anchor="middle" x="124.52" y="-139.4" font-family="Times,serif" font-size="16.00" fill="#ffffff">E</text>
</g>
<!-- b2&#45;&gt;b3 -->
<g id="edge2" class="edge">
<title>b2-&gt;b3</title>
<path fill="none" stroke="#000000" d="M124.52,-248.825C124.52,-228.6235 124.52,-196.7202 124.52,-173.4501"/>
<polygon fill="#000000" stroke="#000000" points="124.52,-163.4389 129.0201,-173.4389 124.52,-168.4389 124.5201,-173.4389 124.5201,-173.4389 124.5201,-173.4389 124.52,-168.4389 120.0201,-173.439 124.52,-163.4389 124.52,-163.4389"/>
</g>
<!-- c2 -->
<g id="node6" class="node">
<title>c2</title>
<polygon fill="#ffffff" stroke="#006400" points="335.599,-293.9004 193.441,-293.9004 193.441,-242.4996 335.599,-242.4996 335.599,-293.9004"/>
<text text-anchor="middle" x="264.52" y="-279" font-family="Times,serif" font-size="12.00" fill="#000000">On analyse une référence</text>
<text text-anchor="middle" x="264.52" y="-264.6" font-family="Times,serif" font-size="12.00" fill="#000000">théorique à un auteur</text>
<text text-anchor="middle" x="264.52" y="-250.2" font-family="Times,serif" font-size="12.00" fill="#000000">(pas plus d'une référence)</text>
</g>
<!-- b2&#45;&gt;c2 -->
<g id="edge5" class="edge">
<title>b2-&gt;c2</title>
<path fill="none" stroke="#006400" d="M151.5903,-268.2C165.4124,-268.2 179.2346,-268.2 193.0567,-268.2"/>
</g>
<!-- b4 -->
<g id="node4" class="node">
<title>b4</title>
<ellipse fill="#006400" stroke="#000000" cx="124.52" cy="-25.6" rx="27" ry="19.4695"/>
<text text-anchor="middle" x="124.52" y="-20.8" font-family="Times,serif" font-size="16.00" fill="#ffffff">S</text>
</g>
<!-- b3&#45;&gt;b4 -->
<g id="edge3" class="edge">
<title>b3-&gt;b4</title>
<path fill="none" stroke="#000000" d="M124.52,-124.8809C124.52,-105.9279 124.52,-76.7756 124.52,-54.9563"/>
<polygon fill="#000000" stroke="#000000" points="124.52,-44.9108 129.0201,-54.9108 124.52,-49.9108 124.5201,-54.9108 124.5201,-54.9108 124.5201,-54.9108 124.52,-49.9108 120.0201,-54.9109 124.52,-44.9108 124.52,-44.9108"/>
</g>
<!-- c3 -->
<g id="node7" class="node">
<title>c3</title>
<polygon fill="#ffffff" stroke="#006400" points="334.4591,-169.9004 192.5809,-169.9004 192.5809,-118.4996 334.4591,-118.4996 334.4591,-169.9004"/>
<text text-anchor="middle" x="263.52" y="-155" font-family="Times,serif" font-size="12.00" fill="#000000">On analyse un exemple</text>
<text text-anchor="middle" x="263.52" y="-140.6" font-family="Times,serif" font-size="12.00" fill="#000000">concret et précis (pas plus</text>
<text text-anchor="middle" x="263.52" y="-126.2" font-family="Times,serif" font-size="12.00" fill="#000000">d'un exemple précis)</text>
</g>
<!-- b3&#45;&gt;c3 -->
<g id="edge6" class="edge">
<title>b3-&gt;c3</title>
<path fill="none" stroke="#006400" d="M151.6684,-144.2C165.3586,-144.2 179.0488,-144.2 192.7389,-144.2"/>
</g>
<!-- c4 -->
<g id="node8" class="node">
<title>c4</title>
<polygon fill="#ffffff" stroke="#006400" points="337.7802,-51.3004 179.2598,-51.3004 179.2598,.1004 337.7802,.1004 337.7802,-51.3004"/>
<text text-anchor="middle" x="258.52" y="-36.4" font-family="Times,serif" font-size="12.00" fill="#000000">On fait explicitement le lien</text>
<text text-anchor="middle" x="258.52" y="-22" font-family="Times,serif" font-size="12.00" fill="#000000">avec le sujet (en reprenant les</text>
<text text-anchor="middle" x="258.52" y="-7.6" font-family="Times,serif" font-size="12.00" fill="#000000">termes de la question posée)</text>
</g>
<!-- b4&#45;&gt;c4 -->
<g id="edge7" class="edge">
<title>b4-&gt;c4</title>
<path fill="none" stroke="#006400" d="M151.7387,-25.6C160.9153,-25.6 170.0918,-25.6 179.2683,-25.6"/>
</g>
<!-- d1 -->
<g id="node9" class="node">
<title>d1</title>
<path fill="#ffffff" stroke="#7f7f7f" d="M489.7431,-396.2C489.7431,-396.2 377.2969,-396.2 377.2969,-396.2 371.2969,-396.2 365.2969,-390.2 365.2969,-384.2 365.2969,-384.2 365.2969,-346.2 365.2969,-346.2 365.2969,-340.2 371.2969,-334.2 377.2969,-334.2 377.2969,-334.2 489.7431,-334.2 489.7431,-334.2 495.7431,-334.2 501.7431,-340.2 501.7431,-346.2 501.7431,-346.2 501.7431,-384.2 501.7431,-384.2 501.7431,-390.2 495.7431,-396.2 489.7431,-396.2"/>
<text text-anchor="middle" x="433.52" y="-384.1" font-family="Times,serif" font-size="9.00" fill="#000000">Attention, on ne passe pas trop</text>
<text text-anchor="middle" x="433.52" y="-373.3" font-family="Times,serif" font-size="9.00" fill="#000000">vite à la suite : on prend le temps</text>
<text text-anchor="middle" x="433.52" y="-362.5" font-family="Times,serif" font-size="9.00" fill="#000000">de construire son raisonnement</text>
<text text-anchor="middle" x="433.52" y="-351.7" font-family="Times,serif" font-size="9.00" fill="#000000">étape par étape, en expliquant </text>
<text text-anchor="middle" x="433.52" y="-340.9" font-family="Times,serif" font-size="9.00" fill="#000000">bien le sens de chaque étape</text>
</g>
<!-- c1&#45;&gt;d1 -->
<g id="edge8" class="edge">
<title>c1-&gt;d1</title>
<path fill="none" stroke="#006400" d="M337.7075,-365.2C346.9394,-365.2 356.1714,-365.2 365.4033,-365.2"/>
</g>
<!-- d2 -->
<g id="node10" class="node">
<title>d2</title>
<path fill="#ffffff" stroke="#7f7f7f" d="M477.6055,-299.2C477.6055,-299.2 375.4345,-299.2 375.4345,-299.2 369.4345,-299.2 363.4345,-293.2 363.4345,-287.2 363.4345,-287.2 363.4345,-249.2 363.4345,-249.2 363.4345,-243.2 369.4345,-237.2 375.4345,-237.2 375.4345,-237.2 477.6055,-237.2 477.6055,-237.2 483.6055,-237.2 489.6055,-243.2 489.6055,-249.2 489.6055,-249.2 489.6055,-287.2 489.6055,-287.2 489.6055,-293.2 483.6055,-299.2 477.6055,-299.2"/>
<text text-anchor="middle" x="426.52" y="-287.1" font-family="Times,serif" font-size="9.00" fill="#000000">– Si on n'a pas de référence,</text>
<text text-anchor="middle" x="426.52" y="-276.3" font-family="Times,serif" font-size="9.00" fill="#000000">on développe davantage</text>
<text text-anchor="middle" x="426.52" y="-265.5" font-family="Times,serif" font-size="9.00" fill="#000000">l'argument et l'exemple</text>
<text text-anchor="middle" x="426.52" y="-254.7" font-family="Times,serif" font-size="9.00" fill="#000000">– On montre bien l'intérêt de</text>
<text text-anchor="middle" x="426.52" y="-243.9" font-family="Times,serif" font-size="9.00" fill="#000000">la référence pour le sujet</text>
</g>
<!-- c2&#45;&gt;d2 -->
<g id="edge9" class="edge">
<title>c2-&gt;d2</title>
<path fill="none" stroke="#006400" d="M335.7114,-268.2C344.9342,-268.2 354.1569,-268.2 363.3796,-268.2"/>
</g>
<!-- d3 -->
<g id="node11" class="node">
<title>d3</title>
<path fill="#ffffff" stroke="#7f7f7f" d="M481.2428,-202.2C481.2428,-202.2 387.7972,-202.2 387.7972,-202.2 381.7972,-202.2 375.7972,-196.2 375.7972,-190.2 375.7972,-190.2 375.7972,-98.2 375.7972,-98.2 375.7972,-92.2 381.7972,-86.2 387.7972,-86.2 387.7972,-86.2 481.2428,-86.2 481.2428,-86.2 487.2428,-86.2 493.2428,-92.2 493.2428,-98.2 493.2428,-98.2 493.2428,-190.2 493.2428,-190.2 493.2428,-196.2 487.2428,-202.2 481.2428,-202.2"/>
<text text-anchor="middle" x="434.52" y="-190.1" font-family="Times,serif" font-size="9.00" fill="#000000">– Si on n'a pas d'exemple,</text>
<text text-anchor="middle" x="434.52" y="-179.3" font-family="Times,serif" font-size="9.00" fill="#000000">on développe davantage</text>
<text text-anchor="middle" x="434.52" y="-168.5" font-family="Times,serif" font-size="9.00" fill="#000000">l'argument et la référence</text>
<text text-anchor="middle" x="434.52" y="-157.7" font-family="Times,serif" font-size="9.00" fill="#000000">– Un exemple inventé est</text>
<text text-anchor="middle" x="434.52" y="-146.9" font-family="Times,serif" font-size="9.00" fill="#000000">acceptable, mais il vaut</text>
<text text-anchor="middle" x="434.52" y="-136.1" font-family="Times,serif" font-size="9.00" fill="#000000">mieux un exemple issu de</text>
<text text-anchor="middle" x="434.52" y="-125.3" font-family="Times,serif" font-size="9.00" fill="#000000">votre culture, et encore</text>
<text text-anchor="middle" x="434.52" y="-114.5" font-family="Times,serif" font-size="9.00" fill="#000000">mieux un exemple classique</text>
<text text-anchor="middle" x="434.52" y="-103.7" font-family="Times,serif" font-size="9.00" fill="#000000">– On montre bien l'intérêt</text>
<text text-anchor="middle" x="434.52" y="-92.9" font-family="Times,serif" font-size="9.00" fill="#000000">de l'exemple pour le sujet</text>
</g>
<!-- c3&#45;&gt;d3 -->
<g id="edge10" class="edge">
<title>c3-&gt;d3</title>
<path fill="none" stroke="#006400" d="M334.3247,-144.2C348.0233,-144.2 361.7218,-144.2 375.4204,-144.2"/>
</g>
<!-- e1 -->
<g id="node12" class="node">
<title>e1</title>
<path fill="#fafafa" stroke="transparent" d="M71.8921,-383.2C71.8921,-383.2 15.1479,-383.2 15.1479,-383.2 9.1479,-383.2 3.1479,-377.2 3.1479,-371.2 3.1479,-371.2 3.1479,-359.2 3.1479,-359.2 3.1479,-353.2 9.1479,-347.2 15.1479,-347.2 15.1479,-347.2 71.8921,-347.2 71.8921,-347.2 77.8921,-347.2 83.8921,-353.2 83.8921,-359.2 83.8921,-359.2 83.8921,-371.2 83.8921,-371.2 83.8921,-377.2 77.8921,-383.2 71.8921,-383.2"/>
<text text-anchor="middle" x="43.52" y="-360.4" font-family="Times,serif" font-size="16.00" fill="#cd2626">Argument</text>
</g>
<!-- e1&#45;&gt;b1 -->
<!-- e2 -->
<g id="node13" class="node">
<title>e2</title>
<path fill="#fafafa" stroke="transparent" d="M71.06,-286.2C71.06,-286.2 11.98,-286.2 11.98,-286.2 5.98,-286.2 -.02,-280.2 -.02,-274.2 -.02,-274.2 -.02,-262.2 -.02,-262.2 -.02,-256.2 5.98,-250.2 11.98,-250.2 11.98,-250.2 71.06,-250.2 71.06,-250.2 77.06,-250.2 83.06,-256.2 83.06,-262.2 83.06,-262.2 83.06,-274.2 83.06,-274.2 83.06,-280.2 77.06,-286.2 71.06,-286.2"/>
<text text-anchor="middle" x="41.52" y="-263.4" font-family="Times,serif" font-size="16.00" fill="#cd2626">Référence</text>
</g>
<!-- e2&#45;&gt;b2 -->
<!-- e3 -->
<g id="node14" class="node">
<title>e3</title>
<path fill="#fafafa" stroke="transparent" d="M71.8921,-162.2C71.8921,-162.2 23.1479,-162.2 23.1479,-162.2 17.1479,-162.2 11.1479,-156.2 11.1479,-150.2 11.1479,-150.2 11.1479,-138.2 11.1479,-138.2 11.1479,-132.2 17.1479,-126.2 23.1479,-126.2 23.1479,-126.2 71.8921,-126.2 71.8921,-126.2 77.8921,-126.2 83.8921,-132.2 83.8921,-138.2 83.8921,-138.2 83.8921,-150.2 83.8921,-150.2 83.8921,-156.2 77.8921,-162.2 71.8921,-162.2"/>
<text text-anchor="middle" x="47.52" y="-139.4" font-family="Times,serif" font-size="16.00" fill="#cd2626">Exemple</text>
</g>
<!-- e3&#45;&gt;b3 -->
<!-- e4 -->
<g id="node15" class="node">
<title>e4</title>
<path fill="#fafafa" stroke="transparent" d="M71.512,-43.6C71.512,-43.6 15.528,-43.6 15.528,-43.6 9.528,-43.6 3.528,-37.6 3.528,-31.6 3.528,-31.6 3.528,-19.6 3.528,-19.6 3.528,-13.6 9.528,-7.6 15.528,-7.6 15.528,-7.6 71.512,-7.6 71.512,-7.6 77.512,-7.6 83.512,-13.6 83.512,-19.6 83.512,-19.6 83.512,-31.6 83.512,-31.6 83.512,-37.6 77.512,-43.6 71.512,-43.6"/>
<text text-anchor="middle" x="43.52" y="-20.8" font-family="Times,serif" font-size="16.00" fill="#cd2626">Synthèse</text>
</g>
<!-- e4&#45;&gt;b4 -->
</g>
</svg>