<?xml version="1.0" encoding="UTF-8" standalone="no"?><!DOCTYPE svg PUBLIC "-//W3C//DTD SVG 1.1//EN" "http://www.w3.org/Graphics/SVG/1.1/DTD/svg11.dtd"><!-- Generated by graphviz version 2.40.1 (20161225.0304)
 --><!-- Title: G Pages: 1 --><svg xmlns="http://www.w3.org/2000/svg" xmlns:xlink="http://www.w3.org/1999/xlink" width="752pt" height="1090pt" viewBox="0.00 0.00 752.31 1090.00">
<g id="graph0" class="graph" transform="scale(1 1) rotate(0) translate(4 1086)">
<title>G</title>
<polygon fill="#ffffff" stroke="transparent" points="-4,4 -4,-1086 748.314,-1086 748.314,4 -4,4"/>
<text text-anchor="start" x="320.0553" y="-1038.4" font-family="Times,serif" font-weight="bold" font-size="14.00" fill="#000000">Branko Milanović</text>
<text text-anchor="start" x="284.482" y="-1024.4" font-family="Times,serif" font-weight="bold" font-size="14.00" fill="#000000">“</text>
<text text-anchor="start" x="294.982" y="-1024.4" font-family="Times,serif" font-weight="bold" font-style="italic" font-size="14.00" fill="#000000">The ‘crisis of capitalism’ is</text>
<text text-anchor="start" x="271.0595" y="-1010.4" font-family="Times,serif" font-weight="bold" font-style="italic" font-size="14.00" fill="#000000">not the one Europeans think it is   </text>
<text text-anchor="start" x="462.7545" y="-1010.4" font-family="Times,serif" font-weight="bold" font-size="14.00" fill="#000000">”</text>
<g id="clust1" class="cluster">
<title>cluster</title>
<path fill="#cdc9c9" stroke="#cdc9c9" d="M244.7716,-8C244.7716,-8 484.5592,-8 484.5592,-8 490.5592,-8 496.5592,-14 496.5592,-20 496.5592,-20 496.5592,-956 496.5592,-956 496.5592,-962 490.5592,-968 484.5592,-968 484.5592,-968 244.7716,-968 244.7716,-968 238.7716,-968 232.7716,-962 232.7716,-956 232.7716,-956 232.7716,-20 232.7716,-20 232.7716,-14 238.7716,-8 244.7716,-8"/>
</g>
<g id="clust2" class="cluster">
<title>cluster_1</title>
<path fill="#eee9e9" stroke="#cdc9c9" d="M262.7716,-141C262.7716,-141 466.5592,-141 466.5592,-141 472.5592,-141 478.5592,-147 478.5592,-153 478.5592,-153 478.5592,-567 478.5592,-567 478.5592,-573 472.5592,-579 466.5592,-579 466.5592,-579 262.7716,-579 262.7716,-579 256.7716,-579 250.7716,-573 250.7716,-567 250.7716,-567 250.7716,-153 250.7716,-153 250.7716,-147 256.7716,-141 262.7716,-141"/>
</g>
<g id="clust4" class="cluster">
<title>cluster_0</title>
<path fill="#eee9e9" stroke="#cdc9c9" d="M282.9881,-600C282.9881,-600 446.3427,-600 446.3427,-600 452.3427,-600 458.3427,-606 458.3427,-612 458.3427,-612 458.3427,-938 458.3427,-938 458.3427,-944 452.3427,-950 446.3427,-950 446.3427,-950 282.9881,-950 282.9881,-950 276.9881,-950 270.9881,-944 270.9881,-938 270.9881,-938 270.9881,-612 270.9881,-612 270.9881,-606 276.9881,-600 282.9881,-600"/>
</g>
<g id="clust6" class="cluster">
<title>cluster_2</title>
<path fill="#cdc9c9" stroke="#cdc9c9" d="M265.4427,-26C265.4427,-26 463.8881,-26 463.8881,-26 469.8881,-26 475.8881,-32 475.8881,-38 475.8881,-38 475.8881,-106 475.8881,-106 475.8881,-112 469.8881,-118 463.8881,-118 463.8881,-118 265.4427,-118 265.4427,-118 259.4427,-118 253.4427,-112 253.4427,-106 253.4427,-106 253.4427,-38 253.4427,-38 253.4427,-32 259.4427,-26 265.4427,-26"/>
</g>
<!-- d -->
<g id="node1" class="node">
<title>d</title>
<path fill="#ffffff" stroke="#000000" stroke-width=".4" d="M436.4531,-548.7002C436.4531,-548.7002 292.8777,-548.7002 292.8777,-548.7002 286.8777,-548.7002 280.8777,-542.7002 280.8777,-536.7002 280.8777,-536.7002 280.8777,-471.2998 280.8777,-471.2998 280.8777,-465.2998 286.8777,-459.2998 292.8777,-459.2998 292.8777,-459.2998 436.4531,-459.2998 436.4531,-459.2998 442.4531,-459.2998 448.4531,-465.2998 448.4531,-471.2998 448.4531,-471.2998 448.4531,-536.7002 448.4531,-536.7002 448.4531,-542.7002 442.4531,-548.7002 436.4531,-548.7002"/>
<text text-anchor="middle" x="364.6654" y="-525" font-family="Times,serif" font-size="14.00" fill="#000000">Cette expansion du</text>
<text text-anchor="middle" x="364.6654" y="-508.2" font-family="Times,serif" font-size="14.00" fill="#000000">capitalisme transforme</text>
<text text-anchor="middle" x="364.6654" y="-491.4" font-family="Times,serif" font-size="14.00" fill="#000000">la sphère du travail, mais</text>
<text text-anchor="middle" x="364.6654" y="-474.6" font-family="Times,serif" font-size="14.00" fill="#000000">aussi la sphère privée</text>
</g>
<!-- e -->
<g id="node2" class="node">
<title>e</title>
<path fill="#ffffff" stroke="#000000" stroke-width=".4" d="M434.561,-387.6014C434.561,-387.6014 294.7698,-387.6014 294.7698,-387.6014 288.7698,-387.6014 282.7698,-381.6014 282.7698,-375.6014 282.7698,-375.6014 282.7698,-344.3986 282.7698,-344.3986 282.7698,-338.3986 288.7698,-332.3986 294.7698,-332.3986 294.7698,-332.3986 434.561,-332.3986 434.561,-332.3986 440.561,-332.3986 446.561,-338.3986 446.561,-344.3986 446.561,-344.3986 446.561,-375.6014 446.561,-375.6014 446.561,-381.6014 440.561,-387.6014 434.561,-387.6014"/>
<text text-anchor="middle" x="364.6654" y="-364.2" font-family="Times,serif" font-size="14.00" fill="#000000">Pourquoi parle-t-on de</text>
<text text-anchor="middle" x="364.6654" y="-347.4" font-family="Times,serif" font-size="14.00" fill="#000000">“crise du capitalisme” ?</text>
</g>
<!-- e&#45;&gt;d -->
<g id="edge2" class="edge">
<title>e-&gt;d</title>
<path fill="none" stroke="#000000" stroke-width=".4" d="M364.6654,-397.8614C364.6654,-418.2677 364.6654,-438.6739 364.6654,-459.0802"/>
<polygon fill="#000000" stroke="#000000" stroke-width=".4" points="368.1655,-397.8437 364.6654,-387.8438 361.1655,-397.8438 368.1655,-397.8437"/>
</g>
<!-- e1 -->
<g id="node17" class="node">
<title>e1</title>
<path fill="#ffffff" stroke="#8b8989" stroke-width=".3" d="M706.0387,-477.7003C706.0387,-477.7003 579.8345,-477.7003 579.8345,-477.7003 573.8345,-477.7003 567.8345,-471.7003 567.8345,-465.7003 567.8345,-465.7003 567.8345,-424.2997 567.8345,-424.2997 567.8345,-418.2997 573.8345,-412.2997 579.8345,-412.2997 579.8345,-412.2997 706.0387,-412.2997 706.0387,-412.2997 712.0387,-412.2997 718.0387,-418.2997 718.0387,-424.2997 718.0387,-424.2997 718.0387,-465.7003 718.0387,-465.7003 718.0387,-471.7003 712.0387,-477.7003 706.0387,-477.7003"/>
<text text-anchor="middle" x="642.9366" y="-455.8" font-family="Times,serif" font-size="12.00" fill="#0d0d0d">Nous nous focalisons</text>
<text text-anchor="middle" x="642.9366" y="-441.4" font-family="Times,serif" font-size="12.00" fill="#0d0d0d">sur le mal-être des classes</text>
<text text-anchor="middle" x="642.9366" y="-427" font-family="Times,serif" font-size="12.00" fill="#0d0d0d">moyennes occidentales</text>
</g>
<!-- e&#45;&gt;e1 -->
<g id="edge23" class="edge">
<title>e-&gt;e1</title>
<path fill="none" stroke="#8b8989" stroke-width=".5" d="M446.6509,-385.0431C484.967,-396.747 530.282,-410.5888 567.7126,-422.0223"/>
</g>
<!-- e2 -->
<g id="node18" class="node">
<title>e2</title>
<path fill="#ffffff" stroke="#8b8989" stroke-width=".3" d="M712.2367,-394.5C712.2367,-394.5 573.6365,-394.5 573.6365,-394.5 567.6365,-394.5 561.6365,-388.5 561.6365,-382.5 561.6365,-382.5 561.6365,-337.5 561.6365,-337.5 561.6365,-331.5 567.6365,-325.5 573.6365,-325.5 573.6365,-325.5 712.2367,-325.5 712.2367,-325.5 718.2367,-325.5 724.2367,-331.5 724.2367,-337.5 724.2367,-337.5 724.2367,-382.5 724.2367,-382.5 724.2367,-388.5 718.2367,-394.5 712.2367,-394.5"/>
<text text-anchor="start" x="621.6096" y="-373.7" font-family="Times,serif" font-size="12.00" fill="#0d0d0d">Exemple</text>
<text text-anchor="start" x="585.7316" y="-358.5" font-family="Times,serif" font-size="10.00" fill="#0d0d0d">Sondage YouGov sur ce que</text>
<text text-anchor="start" x="572.5366" y="-348.5" font-family="Times,serif" font-size="10.00" fill="#0d0d0d">les gens pensent de la globalisation</text>
<text text-anchor="start" x="598.0936" y="-338.5" font-family="Times,serif" font-size="10.00" fill="#0d0d0d">(Asie ≠ USA, France)</text>
</g>
<!-- e&#45;&gt;e2 -->
<g id="edge24" class="edge">
<title>e-&gt;e2</title>
<path fill="none" stroke="#8b8989" stroke-width=".5" d="M446.6509,-360C482.8829,-360 525.373,-360 561.5371,-360"/>
</g>
<!-- e3 -->
<g id="node19" class="node">
<title>e3</title>
<path fill="#ffffff" stroke="#8b8989" stroke-width=".3" d="M718.5699,-307.601C718.5699,-307.601 567.3033,-307.601 567.3033,-307.601 561.3033,-307.601 555.3033,-301.601 555.3033,-295.601 555.3033,-295.601 555.3033,-240.399 555.3033,-240.399 555.3033,-234.399 561.3033,-228.399 567.3033,-228.399 567.3033,-228.399 718.5699,-228.399 718.5699,-228.399 724.5699,-228.399 730.5699,-234.399 730.5699,-240.399 730.5699,-240.399 730.5699,-295.601 730.5699,-295.601 730.5699,-301.601 724.5699,-307.601 718.5699,-307.601"/>
<text text-anchor="middle" x="642.9366" y="-286" font-family="Times,serif" font-size="12.00" fill="#0d0d0d">Le mal-être des classes</text>
<text text-anchor="middle" x="642.9366" y="-271.6" font-family="Times,serif" font-size="12.00" fill="#0d0d0d">moyennes occidentales est le</text>
<text text-anchor="middle" x="642.9366" y="-257.2" font-family="Times,serif" font-size="12.00" fill="#0d0d0d">produit de l'inégale distribution</text>
<text text-anchor="middle" x="642.9366" y="-242.8" font-family="Times,serif" font-size="12.00" fill="#0d0d0d">des gains de la globalisation</text>
</g>
<!-- e&#45;&gt;e3 -->
<g id="edge25" class="edge">
<title>e-&gt;e3</title>
<path fill="none" stroke="#8b8989" stroke-width=".5" d="M446.6509,-332.8946C480.7987,-321.6048 520.5055,-308.4773 555.236,-296.9949"/>
</g>
<!-- f -->
<g id="node3" class="node">
<title>f</title>
<path fill="#ffffff" stroke="#000000" stroke-width=".4" d="M426.3367,-260.7002C426.3367,-260.7002 302.9941,-260.7002 302.9941,-260.7002 296.9941,-260.7002 290.9941,-254.7002 290.9941,-248.7002 290.9941,-248.7002 290.9941,-183.2998 290.9941,-183.2998 290.9941,-177.2998 296.9941,-171.2998 302.9941,-171.2998 302.9941,-171.2998 426.3367,-171.2998 426.3367,-171.2998 432.3367,-171.2998 438.3367,-177.2998 438.3367,-183.2998 438.3367,-183.2998 438.3367,-248.7002 438.3367,-248.7002 438.3367,-254.7002 432.3367,-260.7002 426.3367,-260.7002"/>
<text text-anchor="middle" x="364.6654" y="-237" font-family="Times,serif" font-size="14.00" fill="#000000">Il y a une autre raison,</text>
<text text-anchor="middle" x="364.6654" y="-220.2" font-family="Times,serif" font-size="14.00" fill="#000000">plus générale, de la</text>
<text text-anchor="middle" x="364.6654" y="-203.4" font-family="Times,serif" font-size="14.00" fill="#000000">défiance vis-à-vis</text>
<text text-anchor="middle" x="364.6654" y="-186.6" font-family="Times,serif" font-size="14.00" fill="#000000">du capitalisme</text>
</g>
<!-- f&#45;&gt;e -->
<g id="edge1" class="edge">
<title>f-&gt;e</title>
<path fill="none" stroke="#000000" stroke-width=".4" d="M364.6654,-270.7535C364.6654,-291.1947 364.6654,-311.6359 364.6654,-332.0771"/>
<polygon fill="#000000" stroke="#000000" stroke-width=".4" points="368.1655,-270.7187 364.6654,-260.7188 361.1655,-270.7188 368.1655,-270.7187"/>
</g>
<!-- a -->
<g id="node4" class="node">
<title>a</title>
<path fill="#ffffff" stroke="#000000" stroke-width=".4" d="M411.6746,-929.6014C411.6746,-929.6014 317.6562,-929.6014 317.6562,-929.6014 311.6562,-929.6014 305.6562,-923.6014 305.6562,-917.6014 305.6562,-917.6014 305.6562,-886.3986 305.6562,-886.3986 305.6562,-880.3986 311.6562,-874.3986 317.6562,-874.3986 317.6562,-874.3986 411.6746,-874.3986 411.6746,-874.3986 417.6746,-874.3986 423.6746,-880.3986 423.6746,-886.3986 423.6746,-886.3986 423.6746,-917.6014 423.6746,-917.6014 423.6746,-923.6014 417.6746,-929.6014 411.6746,-929.6014"/>
<text text-anchor="middle" x="364.6654" y="-906.2" font-family="Times,serif" font-size="14.00" fill="#000000">Le capitalisme</text>
<text text-anchor="middle" x="364.6654" y="-889.4" font-family="Times,serif" font-size="14.00" fill="#000000">n'est pas en crise</text>
</g>
<!-- a1 -->
<g id="node8" class="node">
<title>a1</title>
<path fill="#ffffff" stroke="#8b8989" stroke-width=".3" d="M689.7328,-969.3004C689.7328,-969.3004 596.1404,-969.3004 596.1404,-969.3004 590.1404,-969.3004 584.1404,-963.3004 584.1404,-957.3004 584.1404,-957.3004 584.1404,-930.6996 584.1404,-930.6996 584.1404,-924.6996 590.1404,-918.6996 596.1404,-918.6996 596.1404,-918.6996 689.7328,-918.6996 689.7328,-918.6996 695.7328,-918.6996 701.7328,-924.6996 701.7328,-930.6996 701.7328,-930.6996 701.7328,-957.3004 701.7328,-957.3004 701.7328,-963.3004 695.7328,-969.3004 689.7328,-969.3004"/>
<text text-anchor="middle" x="642.9366" y="-947.6" font-family="Times,serif" font-size="12.00" fill="#0d0d0d">Géographiquement,</text>
<text text-anchor="middle" x="642.9366" y="-933.2" font-family="Times,serif" font-size="12.00" fill="#0d0d0d">il  s'est étendu</text>
</g>
<!-- a&#45;&gt;a1 -->
<g id="edge8" class="edge">
<title>a-&gt;a1</title>
<path fill="none" stroke="#8b8989" stroke-width=".5" d="M423.6796,-910.9071C470.9031,-918.0347 536.8064,-927.9816 584.0075,-935.1057"/>
</g>
<!-- a2 -->
<g id="node9" class="node">
<title>a2</title>
<path fill="#ffffff" stroke="#8b8989" stroke-width=".3" d="M695.8842,-900.3004C695.8842,-900.3004 589.989,-900.3004 589.989,-900.3004 583.989,-900.3004 577.989,-894.3004 577.989,-888.3004 577.989,-888.3004 577.989,-861.6996 577.989,-861.6996 577.989,-855.6996 583.989,-849.6996 589.989,-849.6996 589.989,-849.6996 695.8842,-849.6996 695.8842,-849.6996 701.8842,-849.6996 707.8842,-855.6996 707.8842,-861.6996 707.8842,-861.6996 707.8842,-888.3004 707.8842,-888.3004 707.8842,-894.3004 701.8842,-900.3004 695.8842,-900.3004"/>
<text text-anchor="middle" x="642.9366" y="-878.6" font-family="Times,serif" font-size="12.00" fill="#0d0d0d">De nouveaux marchés</text>
<text text-anchor="middle" x="642.9366" y="-864.2" font-family="Times,serif" font-size="12.00" fill="#0d0d0d">sont apparus</text>
</g>
<!-- a&#45;&gt;a2 -->
<g id="edge9" class="edge">
<title>a-&gt;a2</title>
<path fill="none" stroke="#8b8989" stroke-width=".5" d="M423.6796,-896.274C468.9887,-891.8778 531.4936,-885.8131 578.1771,-881.2835"/>
</g>
<!-- b -->
<g id="node5" class="node">
<title>b</title>
<path fill="#ffffff" stroke="#000000" stroke-width=".4" d="M419.4276,-802.6014C419.4276,-802.6014 309.9032,-802.6014 309.9032,-802.6014 303.9032,-802.6014 297.9032,-796.6014 297.9032,-790.6014 297.9032,-790.6014 297.9032,-759.3986 297.9032,-759.3986 297.9032,-753.3986 303.9032,-747.3986 309.9032,-747.3986 309.9032,-747.3986 419.4276,-747.3986 419.4276,-747.3986 425.4276,-747.3986 431.4276,-753.3986 431.4276,-759.3986 431.4276,-759.3986 431.4276,-790.6014 431.4276,-790.6014 431.4276,-796.6014 425.4276,-802.6014 419.4276,-802.6014"/>
<text text-anchor="middle" x="364.6654" y="-779.2" font-family="Times,serif" font-size="14.00" fill="#000000">Géographiquement,</text>
<text text-anchor="middle" x="364.6654" y="-762.4" font-family="Times,serif" font-size="14.00" fill="#000000">il s'est étendu</text>
</g>
<!-- b&#45;&gt;a -->
<g id="edge4" class="edge">
<title>b-&gt;a</title>
<path fill="none" stroke="#000000" stroke-width=".4" d="M364.6654,-812.8097C364.6654,-833.238 364.6654,-853.6664 364.6654,-874.0947"/>
<polygon fill="#000000" stroke="#000000" stroke-width=".4" points="368.1655,-812.7812 364.6654,-802.7813 361.1655,-812.7813 368.1655,-812.7812"/>
</g>
<!-- c -->
<g id="node6" class="node">
<title>c</title>
<path fill="#ffffff" stroke="#000000" stroke-width=".4" d="M426.5204,-675.6014C426.5204,-675.6014 302.8104,-675.6014 302.8104,-675.6014 296.8104,-675.6014 290.8104,-669.6014 290.8104,-663.6014 290.8104,-663.6014 290.8104,-632.3986 290.8104,-632.3986 290.8104,-626.3986 296.8104,-620.3986 302.8104,-620.3986 302.8104,-620.3986 426.5204,-620.3986 426.5204,-620.3986 432.5204,-620.3986 438.5204,-626.3986 438.5204,-632.3986 438.5204,-632.3986 438.5204,-663.6014 438.5204,-663.6014 438.5204,-669.6014 432.5204,-675.6014 426.5204,-675.6014"/>
<text text-anchor="middle" x="364.6654" y="-652.2" font-family="Times,serif" font-size="14.00" fill="#000000">De nouveaux marchés</text>
<text text-anchor="middle" x="364.6654" y="-635.4" font-family="Times,serif" font-size="14.00" fill="#000000">sont apparus</text>
</g>
<!-- c&#45;&gt;d -->
<g id="edge5" class="edge">
<title>c-&gt;d</title>
<path fill="none" stroke="#000000" stroke-width=".4" d="M364.6654,-620.0771C364.6654,-599.6359 364.6654,-579.1947 364.6654,-558.7535"/>
<polygon fill="#000000" stroke="#000000" stroke-width=".4" points="368.1655,-558.7187 364.6654,-548.7188 361.1655,-558.7188 368.1655,-558.7187"/>
</g>
<!-- c&#45;&gt;b -->
<g id="edge3" class="edge">
<title>c-&gt;b</title>
<path fill="none" stroke="#000000" stroke-width=".4" d="M364.6654,-685.8097C364.6654,-706.238 364.6654,-726.6664 364.6654,-747.0947"/>
<polygon fill="#000000" stroke="#000000" stroke-width=".4" points="368.1655,-685.7812 364.6654,-675.7813 361.1655,-685.7813 368.1655,-685.7812"/>
</g>
<!-- c1 -->
<g id="node12" class="node">
<title>c1</title>
<path fill="#ffffff" stroke="#8b8989" stroke-width=".3" d="M713.4256,-784.5C713.4256,-784.5 572.4476,-784.5 572.4476,-784.5 566.4476,-784.5 560.4476,-778.5 560.4476,-772.5 560.4476,-772.5 560.4476,-717.5 560.4476,-717.5 560.4476,-711.5 566.4476,-705.5 572.4476,-705.5 572.4476,-705.5 713.4256,-705.5 713.4256,-705.5 719.4256,-705.5 725.4256,-711.5 725.4256,-717.5 725.4256,-717.5 725.4256,-772.5 725.4256,-772.5 725.4256,-778.5 719.4256,-784.5 713.4256,-784.5"/>
<text text-anchor="start" x="602.4552" y="-763.7" font-family="Times,serif" font-size="12.00" fill="#0d0d0d">Quatre exemples</text>
<text text-anchor="start" x="591.9141" y="-748.5" font-family="Times,serif" font-size="10.00" fill="#0d0d0d">les données personnelles,</text>
<text text-anchor="start" x="574.9011" y="-738.5" font-family="Times,serif" font-size="10.00" fill="#0d0d0d">la location de sa maison (Airbnb),</text>
<text text-anchor="start" x="571.4421" y="-728.5" font-family="Times,serif" font-size="10.00" fill="#0d0d0d">de services de conduite (Über, Lyft)</text>
<text text-anchor="start" x="580.6116" y="-718.5" font-family="Times,serif" font-size="10.00" fill="#0d0d0d">d'espaces de travail (WeWork)</text>
</g>
<!-- c&#45;&gt;c1 -->
<g id="edge15" class="edge">
<title>c-&gt;c1</title>
<path fill="none" stroke="#8b8989" stroke-width=".5" d="M438.5064,-673.7396C476.0227,-686.817 521.73,-702.7497 560.4037,-716.2306"/>
</g>
<!-- c2 -->
<g id="node13" class="node">
<title>c2</title>
<path fill="#ffffff" stroke="#8b8989" stroke-width=".3" d="M711.5343,-687.601C711.5343,-687.601 574.3389,-687.601 574.3389,-687.601 568.3389,-687.601 562.3389,-681.601 562.3389,-675.601 562.3389,-675.601 562.3389,-620.399 562.3389,-620.399 562.3389,-614.399 568.3389,-608.399 574.3389,-608.399 574.3389,-608.399 711.5343,-608.399 711.5343,-608.399 717.5343,-608.399 723.5343,-614.399 723.5343,-620.399 723.5343,-620.399 723.5343,-675.601 723.5343,-675.601 723.5343,-681.601 717.5343,-687.601 711.5343,-687.601"/>
<text text-anchor="middle" x="642.9366" y="-666" font-family="Times,serif" font-size="12.00" fill="#0d0d0d">Un même principe général :</text>
<text text-anchor="middle" x="642.9366" y="-651.6" font-family="Times,serif" font-size="12.00" fill="#0d0d0d">transformer des biens ou des</text>
<text text-anchor="middle" x="642.9366" y="-637.2" font-family="Times,serif" font-size="12.00" fill="#0d0d0d">activités en produits qui ont</text>
<text text-anchor="middle" x="642.9366" y="-622.8" font-family="Times,serif" font-size="12.00" fill="#0d0d0d">une valeur d'échange</text>
</g>
<!-- c&#45;&gt;c2 -->
<g id="edge16" class="edge">
<title>c-&gt;c2</title>
<path fill="none" stroke="#8b8989" stroke-width=".5" d="M438.5064,-648C476.5057,-648 522.9084,-648 561.894,-648"/>
</g>
<!-- c3 -->
<g id="node14" class="node">
<title>c3</title>
<path fill="#ffffff" stroke="#8b8989" stroke-width=".3" d="M717.5175,-590.7003C717.5175,-590.7003 568.3557,-590.7003 568.3557,-590.7003 562.3557,-590.7003 556.3557,-584.7003 556.3557,-578.7003 556.3557,-578.7003 556.3557,-537.2997 556.3557,-537.2997 556.3557,-531.2997 562.3557,-525.2997 568.3557,-525.2997 568.3557,-525.2997 717.5175,-525.2997 717.5175,-525.2997 723.5175,-525.2997 729.5175,-531.2997 729.5175,-537.2997 729.5175,-537.2997 729.5175,-578.7003 729.5175,-578.7003 729.5175,-584.7003 723.5175,-590.7003 717.5175,-590.7003"/>
<text text-anchor="middle" x="642.9366" y="-568.8" font-family="Times,serif" font-size="12.00" fill="#0d0d0d">Cette expansion du capitalisme</text>
<text text-anchor="middle" x="642.9366" y="-554.4" font-family="Times,serif" font-size="12.00" fill="#0d0d0d">suit la même logique que </text>
<text text-anchor="middle" x="642.9366" y="-540" font-family="Times,serif" font-size="12.00" fill="#0d0d0d">celle du XVIIIe et XIXe siècle</text>
</g>
<!-- c&#45;&gt;c3 -->
<g id="edge17" class="edge">
<title>c-&gt;c3</title>
<path fill="none" stroke="#8b8989" stroke-width=".5" d="M438.5064,-624.1179C474.6541,-612.4269 518.406,-598.2764 556.1438,-586.071"/>
</g>
<!-- g -->
<g id="node7" class="node">
<title>g</title>
<path fill="#ffffff" stroke="#000000" stroke-width=".8" d="M446.1113,-99.6014C446.1113,-99.6014 283.2195,-99.6014 283.2195,-99.6014 277.2195,-99.6014 271.2195,-93.6014 271.2195,-87.6014 271.2195,-87.6014 271.2195,-56.3986 271.2195,-56.3986 271.2195,-50.3986 277.2195,-44.3986 283.2195,-44.3986 283.2195,-44.3986 446.1113,-44.3986 446.1113,-44.3986 452.1113,-44.3986 458.1113,-50.3986 458.1113,-56.3986 458.1113,-56.3986 458.1113,-87.6014 458.1113,-87.6014 458.1113,-93.6014 452.1113,-99.6014 446.1113,-99.6014"/>
<text text-anchor="middle" x="364.6654" y="-76.2" font-family="Times,serif" font-size="14.00" fill="#000000">Conclusion : il n'y a pas</text>
<text text-anchor="middle" x="364.6654" y="-59.4" font-family="Times,serif" font-size="14.00" fill="#000000">de crise en soi du capitalisme</text>
</g>
<!-- g&#45;&gt;f -->
<g id="edge6" class="edge">
<title>g-&gt;f</title>
<path fill="none" stroke="#000000" stroke-width=".4" d="M364.6654,-109.8614C364.6654,-130.2677 364.6654,-150.6739 364.6654,-171.0802"/>
<polygon fill="#000000" stroke="#000000" stroke-width=".4" points="368.1655,-109.8437 364.6654,-99.8438 361.1655,-109.8438 368.1655,-109.8437"/>
</g>
<!-- g1 -->
<g id="node23" class="node">
<title>g1</title>
<path fill="#ffffff" stroke="#8b8989" stroke-width=".3" d="M732.1915,-104.7003C732.1915,-104.7003 553.6817,-104.7003 553.6817,-104.7003 547.6817,-104.7003 541.6817,-98.7003 541.6817,-92.7003 541.6817,-92.7003 541.6817,-51.2997 541.6817,-51.2997 541.6817,-45.2997 547.6817,-39.2997 553.6817,-39.2997 553.6817,-39.2997 732.1915,-39.2997 732.1915,-39.2997 738.1915,-39.2997 744.1915,-45.2997 744.1915,-51.2997 744.1915,-51.2997 744.1915,-92.7003 744.1915,-92.7003 744.1915,-98.7003 738.1915,-104.7003 732.1915,-104.7003"/>
<text text-anchor="middle" x="642.9366" y="-82.8" font-family="Times,serif" font-size="12.00" fill="#0d0d0d">Le capitalisme, s'il n'est pas</text>
<text text-anchor="middle" x="642.9366" y="-68.4" font-family="Times,serif" font-size="12.00" fill="#0d0d0d">contrôlé, poursuivra sa conquête des</text>
<text text-anchor="middle" x="642.9366" y="-54" font-family="Times,serif" font-size="12.00" fill="#0d0d0d">sphères autrefois non marchandes</text>
</g>
<!-- g&#45;&gt;g1 -->
<g id="edge31" class="edge">
<title>g-&gt;g1</title>
<path fill="none" stroke="#8b8989" stroke-width=".5" d="M458.0998,-72C484.9414,-72 514.3358,-72 541.6287,-72"/>
</g>
<!-- a1&#45;&gt;a2 -->
<!-- b1 -->
<g id="node10" class="node">
<title>b1</title>
<path fill="#ffffff" stroke="#8b8989" stroke-width=".3" d="M170.8582,-839.3004C170.8582,-839.3004 16.9134,-839.3004 16.9134,-839.3004 10.9134,-839.3004 4.9134,-833.3004 4.9134,-827.3004 4.9134,-827.3004 4.9134,-800.6996 4.9134,-800.6996 4.9134,-794.6996 10.9134,-788.6996 16.9134,-788.6996 16.9134,-788.6996 170.8582,-788.6996 170.8582,-788.6996 176.8582,-788.6996 182.8582,-794.6996 182.8582,-800.6996 182.8582,-800.6996 182.8582,-827.3004 182.8582,-827.3004 182.8582,-833.3004 176.8582,-839.3004 170.8582,-839.3004"/>
<text text-anchor="middle" x="93.8858" y="-817.6" font-family="Times,serif" font-size="12.00" fill="#0d0d0d">Le capitalisme est maintenant</text>
<text text-anchor="middle" x="93.8858" y="-803.2" font-family="Times,serif" font-size="12.00" fill="#0d0d0d">le mode dominant de production</text>
</g>
<!-- b1&#45;&gt;b -->
<g id="edge11" class="edge">
<title>b1-&gt;b</title>
<path fill="none" stroke="#8b8989" stroke-width=".5" d="M182.9242,-801.1759C220.3813,-795.781 263.2213,-789.6108 297.8974,-784.6165"/>
</g>
<!-- b2 -->
<g id="node11" class="node">
<title>b2</title>
<path fill="#ffffff" stroke="#8b8989" stroke-width=".3" d="M151.5099,-770.5C151.5099,-770.5 36.2617,-770.5 36.2617,-770.5 30.2617,-770.5 24.2617,-764.5 24.2617,-758.5 24.2617,-758.5 24.2617,-713.5 24.2617,-713.5 24.2617,-707.5 30.2617,-701.5 36.2617,-701.5 36.2617,-701.5 151.5099,-701.5 151.5099,-701.5 157.5099,-701.5 163.5099,-707.5 163.5099,-713.5 163.5099,-713.5 163.5099,-758.5 163.5099,-758.5 163.5099,-764.5 157.5099,-770.5 151.5099,-770.5"/>
<text text-anchor="start" x="57.0638" y="-749.7" font-family="Times,serif" font-size="12.00" fill="#0d0d0d">Trois exemples</text>
<text text-anchor="start" x="35.3238" y="-734.5" font-family="Times,serif" font-size="10.00" fill="#0d0d0d">Suède : secteur privé = 70%</text>
<text text-anchor="start" x="39.4888" y="-724.5" font-family="Times,serif" font-size="10.00" fill="#0d0d0d">USA : secteur privé = 85%</text>
<text text-anchor="start" x="37.5438" y="-714.5" font-family="Times,serif" font-size="10.00" fill="#0d0d0d">Chine : secteur privé = 80%</text>
</g>
<!-- b1&#45;&gt;b2 -->
<!-- b2&#45;&gt;b -->
<g id="edge12" class="edge">
<title>b2-&gt;b</title>
<path fill="none" stroke="#8b8989" stroke-width=".5" d="M163.6183,-746.0435C204.8302,-751.9792 256.7514,-759.4573 297.5056,-765.3271"/>
</g>
<!-- c1&#45;&gt;c2 -->
<!-- c2&#45;&gt;c3 -->
<!-- d1 -->
<g id="node15" class="node">
<title>d1</title>
<path fill="#ffffff" stroke="#8b8989" stroke-width=".3" d="M175.6575,-585.7003C175.6575,-585.7003 12.1141,-585.7003 12.1141,-585.7003 6.1141,-585.7003 .1141,-579.7003 .1141,-573.7003 .1141,-573.7003 .1141,-532.2997 .1141,-532.2997 .1141,-526.2997 6.1141,-520.2997 12.1141,-520.2997 12.1141,-520.2997 175.6575,-520.2997 175.6575,-520.2997 181.6575,-520.2997 187.6575,-526.2997 187.6575,-532.2997 187.6575,-532.2997 187.6575,-573.7003 187.6575,-573.7003 187.6575,-579.7003 181.6575,-585.7003 175.6575,-585.7003"/>
<text text-anchor="middle" x="93.8858" y="-563.8" font-family="Times,serif" font-size="12.00" fill="#0d0d0d">Les nouveaux marchés conduisent</text>
<text text-anchor="middle" x="93.8858" y="-549.4" font-family="Times,serif" font-size="12.00" fill="#0d0d0d">souvent à une économie des</text>
<text text-anchor="middle" x="93.8858" y="-535" font-family="Times,serif" font-size="12.00" fill="#0d0d0d">petits boulots (“gig economy”)</text>
</g>
<!-- d1&#45;&gt;d -->
<g id="edge19" class="edge">
<title>d1-&gt;d</title>
<path fill="none" stroke="#8b8989" stroke-width=".5" d="M187.8314,-535.9997C218.0758,-530.5267 251.3738,-524.5011 280.8405,-519.1689"/>
</g>
<!-- d2 -->
<g id="node16" class="node">
<title>d2</title>
<path fill="#ffffff" stroke="#8b8989" stroke-width=".3" d="M158.863,-502C158.863,-502 28.9086,-502 28.9086,-502 22.9086,-502 16.9086,-496 16.9086,-490 16.9086,-490 16.9086,-420 16.9086,-420 16.9086,-414 22.9086,-408 28.9086,-408 28.9086,-408 158.863,-408 158.863,-408 164.863,-408 170.863,-414 170.863,-420 170.863,-420 170.863,-490 170.863,-490 170.863,-496 164.863,-502 158.863,-502"/>
<text text-anchor="middle" x="93.8858" y="-480.2" font-family="Times,serif" font-size="12.00" fill="#0d0d0d">Exemple de la famille :</text>
<text text-anchor="middle" x="93.8858" y="-465.8" font-family="Times,serif" font-size="12.00" fill="#0d0d0d">une telle institution sociale,</text>
<text text-anchor="middle" x="93.8858" y="-451.4" font-family="Times,serif" font-size="12.00" fill="#0d0d0d">fondée sur un échange non</text>
<text text-anchor="middle" x="93.8858" y="-437" font-family="Times,serif" font-size="12.00" fill="#0d0d0d">marchand, est-elle amenée</text>
<text text-anchor="middle" x="93.8858" y="-422.6" font-family="Times,serif" font-size="12.00" fill="#0d0d0d">à  disparaître ?</text>
</g>
<!-- d1&#45;&gt;d2 -->
<!-- d2&#45;&gt;d -->
<g id="edge20" class="edge">
<title>d2-&gt;d</title>
<path fill="none" stroke="#8b8989" stroke-width=".5" d="M171.118,-468.9759C205.3517,-475.1708 245.7104,-482.474 280.691,-488.8041"/>
</g>
<!-- e1&#45;&gt;e2 -->
<!-- e2&#45;&gt;e3 -->
<!-- f1 -->
<g id="node20" class="node">
<title>f1</title>
<path fill="#ffffff" stroke="#8b8989" stroke-width=".3" d="M161.1592,-340.7003C161.1592,-340.7003 26.6124,-340.7003 26.6124,-340.7003 20.6124,-340.7003 14.6124,-334.7003 14.6124,-328.7003 14.6124,-328.7003 14.6124,-287.2997 14.6124,-287.2997 14.6124,-281.2997 20.6124,-275.2997 26.6124,-275.2997 26.6124,-275.2997 161.1592,-275.2997 161.1592,-275.2997 167.1592,-275.2997 173.1592,-281.2997 173.1592,-287.2997 173.1592,-287.2997 173.1592,-328.7003 173.1592,-328.7003 173.1592,-334.7003 167.1592,-340.7003 161.1592,-340.7003"/>
<text text-anchor="middle" x="93.8858" y="-318.8" font-family="Times,serif" font-size="12.00" fill="#0d0d0d">La politique est elle aussi</text>
<text text-anchor="middle" x="93.8858" y="-304.4" font-family="Times,serif" font-size="12.00" fill="#0d0d0d">devenue un marché où des</text>
<text text-anchor="middle" x="93.8858" y="-290" font-family="Times,serif" font-size="12.00" fill="#0d0d0d">transactions peuvent se faire</text>
</g>
<!-- f1&#45;&gt;f -->
<g id="edge28" class="edge">
<title>f1-&gt;f</title>
<path fill="none" stroke="#8b8989" stroke-width=".5" d="M173.299,-281.0186C210.4397,-268.3997 254.4015,-253.4632 290.8176,-241.0905"/>
</g>
<!-- f2 -->
<g id="node21" class="node">
<title>f2</title>
<path fill="#ffffff" stroke="#8b8989" stroke-width=".3" d="M162.8468,-257.5C162.8468,-257.5 24.9248,-257.5 24.9248,-257.5 18.9248,-257.5 12.9248,-251.5 12.9248,-245.5 12.9248,-245.5 12.9248,-186.5 12.9248,-186.5 12.9248,-180.5 18.9248,-174.5 24.9248,-174.5 24.9248,-174.5 162.8468,-174.5 162.8468,-174.5 168.8468,-174.5 174.8468,-180.5 174.8468,-186.5 174.8468,-186.5 174.8468,-245.5 174.8468,-245.5 174.8468,-251.5 168.8468,-257.5 162.8468,-257.5"/>
<text text-anchor="start" x="37.0736" y="-236.7" font-family="Times,serif" font-size="12.00" fill="#0d0d0d">Les connexions entre la</text>
<text text-anchor="start" x="33.5636" y="-224.7" font-family="Times,serif" font-size="12.00" fill="#0d0d0d">politique et le monde des</text>
<text text-anchor="start" x="34.5746" y="-212.7" font-family="Times,serif" font-size="12.00" fill="#0d0d0d">affaires sont importantes</text>
<text text-anchor="start" x="27.9963" y="-197.5" font-family="Times,serif" font-size="10.00" fill="#0d0d0d">Exemples : Matteo Salvini, José </text>
<text text-anchor="start" x="23.9053" y="-187.5" font-family="Times,serif" font-size="10.00" fill="#0d0d0d">Manuel Barroso et Goldman Sachs</text>
</g>
<!-- f1&#45;&gt;f2 -->
<!-- f2&#45;&gt;f -->
<g id="edge29" class="edge">
<title>f2-&gt;f</title>
<path fill="none" stroke="#8b8989" stroke-width=".5" d="M175.1286,-216C211.8929,-216 255.0347,-216 290.8638,-216"/>
</g>
<!-- f3 -->
<g id="node22" class="node">
<title>f3</title>
<path fill="#ffffff" stroke="#8b8989" stroke-width=".3" d="M157.8329,-156.601C157.8329,-156.601 29.9387,-156.601 29.9387,-156.601 23.9387,-156.601 17.9387,-150.601 17.9387,-144.601 17.9387,-144.601 17.9387,-89.399 17.9387,-89.399 17.9387,-83.399 23.9387,-77.399 29.9387,-77.399 29.9387,-77.399 157.8329,-77.399 157.8329,-77.399 163.8329,-77.399 169.8329,-83.399 169.8329,-89.399 169.8329,-89.399 169.8329,-144.601 169.8329,-144.601 169.8329,-150.601 163.8329,-156.601 157.8329,-156.601"/>
<text text-anchor="middle" x="93.8858" y="-135" font-family="Times,serif" font-size="12.00" fill="#0d0d0d">Cela crée un climat de</text>
<text text-anchor="middle" x="93.8858" y="-120.6" font-family="Times,serif" font-size="12.00" fill="#0d0d0d">cynisme généralisé et de</text>
<text text-anchor="middle" x="93.8858" y="-106.2" font-family="Times,serif" font-size="12.00" fill="#0d0d0d">désenchantement vis-à-vis</text>
<text text-anchor="middle" x="93.8858" y="-91.8" font-family="Times,serif" font-size="12.00" fill="#0d0d0d">de la politique</text>
</g>
<!-- f2&#45;&gt;f3 -->
<!-- f3&#45;&gt;f -->
<g id="edge30" class="edge">
<title>f3-&gt;f</title>
<path fill="none" stroke="#8b8989" stroke-width=".5" d="M169.6731,-144.7087C207.5358,-158.5517 253.1684,-175.2355 290.7673,-188.9821"/>
</g>
</g>
</svg>