<?xml version="1.0" encoding="UTF-8" standalone="no"?><!DOCTYPE svg PUBLIC "-//W3C//DTD SVG 1.1//EN" "http://www.w3.org/Graphics/SVG/1.1/DTD/svg11.dtd"><!-- Generated by graphviz version 2.40.1 (20161225.0304)
 --><!-- Title: G Pages: 1 --><svg xmlns="http://www.w3.org/2000/svg" xmlns:xlink="http://www.w3.org/1999/xlink" width="795pt" height="576pt" viewBox="0.00 0.00 794.71 575.81">
<g id="remarques+objections_graph0" class="graph" transform="scale(1 1) rotate(0) translate(21.6 554.2067)">
<title>G</title>
<polygon fill="#ffffff" stroke="transparent" points="-21.6,21.6 -21.6,-554.2067 773.1141,-554.2067 773.1141,21.6 -21.6,21.6"/>
<g id="remarques+objections_clust4" class="cluster">
<title>cluster_0</title>
<path fill="#e5e5e5" stroke="#7f7f7f" d="M280,-8C280,-8 506,-8 506,-8 512,-8 518,-14 518,-20 518,-20 518,-280.4067 518,-280.4067 518,-286.4067 512,-292.4067 506,-292.4067 506,-292.4067 280,-292.4067 280,-292.4067 274,-292.4067 268,-286.4067 268,-280.4067 268,-280.4067 268,-20 268,-20 268,-14 274,-8 280,-8"/>
</g>
<!-- 0 -->
<!-- o2 -->
<g id="remarques+objections_node4_remarques+objections" class="node">
<title>o2</title>
<path fill="#ffffff" stroke="#ee0000" d="M195.6853,-275.9069C195.6853,-275.9069 100.3147,-275.9069 100.3147,-275.9069 94.3147,-275.9069 88.3147,-269.9069 88.3147,-263.9069 88.3147,-263.9069 88.3147,-198.5065 88.3147,-198.5065 88.3147,-192.5065 94.3147,-186.5065 100.3147,-186.5065 100.3147,-186.5065 195.6853,-186.5065 195.6853,-186.5065 201.6853,-186.5065 207.6853,-192.5065 207.6853,-198.5065 207.6853,-198.5065 207.6853,-263.9069 207.6853,-263.9069 207.6853,-269.9069 201.6853,-275.9069 195.6853,-275.9069"/>
<text text-anchor="middle" x="148" y="-252.2067" font-family="Times,serif" font-size="14.00" fill="#000000">La diversité</text>
<text text-anchor="middle" x="148" y="-235.4067" font-family="Times,serif" font-size="14.00" fill="#000000">des croyances</text>
<text text-anchor="middle" x="148" y="-218.6067" font-family="Times,serif" font-size="14.00" fill="#000000">morales n'est pas</text>
<text text-anchor="middle" x="148" y="-201.8067" font-family="Times,serif" font-size="14.00" fill="#000000">si importante</text>
</g>
<!-- 0&#45;&gt;o2 -->
<!-- C -->
<g id="remarques+objections_node2_remarques+objections" class="node">
<title>C</title>
<ellipse fill="#000000" stroke="#000000" cx="393" cy="-79.1034" rx="100.0046" ry="46.207"/>
<text text-anchor="middle" x="393" y="-84.5034" font-family="Times,serif" font-size="18.00" fill="#ffffff">Il n'y a pas de</text>
<text text-anchor="middle" x="393" y="-62.9034" font-family="Times,serif" font-size="18.00" fill="#ffffff">vérité en morale</text>
</g>
<!-- o1 -->
<g id="remarques+objections_node3_remarques+objections" class="node">
<title>o1</title>
<path fill="#ffffff" stroke="#ee0000" d="M739.5282,-115.5045C739.5282,-115.5045 612.4718,-115.5045 612.4718,-115.5045 606.4718,-115.5045 600.4718,-109.5045 600.4718,-103.5045 600.4718,-103.5045 600.4718,-54.7023 600.4718,-54.7023 600.4718,-48.7023 606.4718,-42.7023 612.4718,-42.7023 612.4718,-42.7023 739.5282,-42.7023 739.5282,-42.7023 745.5282,-42.7023 751.5282,-48.7023 751.5282,-54.7023 751.5282,-54.7023 751.5282,-103.5045 751.5282,-103.5045 751.5282,-109.5045 745.5282,-115.5045 739.5282,-115.5045"/>
<text text-anchor="middle" x="676" y="-91.7034" font-family="Times,serif" font-size="14.00" fill="#000000">La diversité des</text>
<text text-anchor="middle" x="676" y="-74.9034" font-family="Times,serif" font-size="14.00" fill="#000000">croyances n'implique</text>
<text text-anchor="middle" x="676" y="-58.1034" font-family="Times,serif" font-size="14.00" fill="#000000">pas l'absence de vérité</text>
</g>
<!-- C&#45;&gt;o1 -->
<g id="remarques+objections_edge1" class="edge">
<title>C:e-&gt;o1:w</title>
<path fill="none" stroke="#cd0000" stroke-width=".8" d="M493,-79.1034C554.8188,-64.7128 560.3729,-63.4199 590.3357,-75.2247"/>
<polygon fill="#cd0000" stroke="#cd0000" stroke-width=".8" points="589.4159,-78.6268 600,-79.1034 592.0232,-72.1305 589.4159,-78.6268"/>
<text text-anchor="middle" x="532.1107" y="-70.3398" font-family="Times,serif" font-size="10.00" fill="#666666">objection !</text>
</g>
<!-- p1 -->
<g id="remarques+objections_node5_remarques+objections" class="node">
<title>p1</title>
<path fill="#ffffff" stroke="#000000" d="M459.3065,-267.6078C459.3065,-267.6078 326.6935,-267.6078 326.6935,-267.6078 320.6935,-267.6078 314.6935,-261.6078 314.6935,-255.6078 314.6935,-255.6078 314.6935,-206.8056 314.6935,-206.8056 314.6935,-200.8056 320.6935,-194.8056 326.6935,-194.8056 326.6935,-194.8056 459.3065,-194.8056 459.3065,-194.8056 465.3065,-194.8056 471.3065,-200.8056 471.3065,-206.8056 471.3065,-206.8056 471.3065,-255.6078 471.3065,-255.6078 471.3065,-261.6078 465.3065,-267.6078 459.3065,-267.6078"/>
<text text-anchor="middle" x="393" y="-243.8067" font-family="Times,serif" font-size="14.00" fill="#000000">Les croyances morales</text>
<text text-anchor="middle" x="393" y="-227.0067" font-family="Times,serif" font-size="14.00" fill="#000000">sont différentes selon la</text>
<text text-anchor="middle" x="393" y="-210.2067" font-family="Times,serif" font-size="14.00" fill="#000000">culture des individus</text>
</g>
<!-- o2&#45;&gt;p1 -->
<g id="remarques+objections_edge3" class="edge">
<title>o2-&gt;p1</title>
<path fill="none" stroke="#cd0000" stroke-width=".8" d="M218.0421,-220.0684C240.6464,-218.7488 266.9636,-220.1147 314.6634,-224.1662"/>
<polygon fill="#cd0000" stroke="#cd0000" stroke-width=".8" points="217.5513,-216.5959 207.8541,-220.8636 218.0961,-223.5747 217.5513,-216.5959"/>
<text text-anchor="middle" x="235.3749" y="-223.1012" font-family="Times,serif" font-size="10.00" fill="#666666">objection !</text>
</g>
<!-- p1&#45;&gt;C -->
<g id="remarques+objections_edge8" class="edge">
<title>p1-&gt;C</title>
<path fill="none" stroke="#000000" d="M394.5912,-194.6596C395.7718,-166.9031 396.4041,-149.2832 396.488,-135.6672"/>
<polygon fill="#000000" stroke="#000000" points="399.9872,-135.4712 396.4377,-125.4886 392.9873,-135.5058 399.9872,-135.4712"/>
<text text-anchor="middle" x="366.8713" y="-174.6366" font-family="Times,serif" font-size="10.00" fill="#666666">par</text>
<text text-anchor="middle" x="366.8713" y="-162.6366" font-family="Times,serif" font-size="10.00" fill="#666666">conséquent …</text>
</g>
<!-- o3 -->
<g id="remarques+objections_node6_remarques+objections" class="node">
<title>o3</title>
<path fill="#ffffff" stroke="#ee0000" d="M723.5636,-284.2067C723.5636,-284.2067 590.4364,-284.2067 590.4364,-284.2067 584.4364,-284.2067 578.4364,-278.2067 578.4364,-272.2067 578.4364,-272.2067 578.4364,-190.2067 578.4364,-190.2067 578.4364,-184.2067 584.4364,-178.2067 590.4364,-178.2067 590.4364,-178.2067 723.5636,-178.2067 723.5636,-178.2067 729.5636,-178.2067 735.5636,-184.2067 735.5636,-190.2067 735.5636,-190.2067 735.5636,-272.2067 735.5636,-272.2067 735.5636,-278.2067 729.5636,-284.2067 723.5636,-284.2067"/>
<text text-anchor="middle" x="657" y="-260.6067" font-family="Times,serif" font-size="14.00" fill="#000000">Le relativisme culturel</text>
<text text-anchor="middle" x="657" y="-243.8067" font-family="Times,serif" font-size="14.00" fill="#000000">peut conduire à une</text>
<text text-anchor="middle" x="657" y="-227.0067" font-family="Times,serif" font-size="14.00" fill="#000000">conception stéréotypée,</text>
<text text-anchor="middle" x="657" y="-210.2067" font-family="Times,serif" font-size="14.00" fill="#000000">trop homogène et trop</text>
<text text-anchor="middle" x="657" y="-193.4067" font-family="Times,serif" font-size="14.00" fill="#000000">figée d'une culture</text>
</g>
<!-- p1&#45;&gt;o3 -->
<g id="remarques+objections_edge4" class="edge">
<title>p1-&gt;o3</title>
<path fill="none" stroke="#cd0000" stroke-width=".8" d="M471.5218,-226.1156C517.4484,-223.2656 545.7728,-221.9485 568.4181,-222.1643"/>
<polygon fill="#cd0000" stroke="#cd0000" stroke-width=".8" points="568.396,-225.6645 578.466,-222.3713 568.5402,-218.666 568.396,-225.6645"/>
<text text-anchor="middle" x="507.2243" y="-225.9884" font-family="Times,serif" font-size="10.00" fill="#666666">objection !</text>
</g>
<!-- j1 -->
<g id="remarques+objections_node7_remarques+objections" class="node">
<title>j1</title>
<path fill="#ffffff" stroke="#008b00" d="M212.0684,-426.707C212.0684,-426.707 83.9316,-426.707 83.9316,-426.707 77.9316,-426.707 71.9316,-420.707 71.9316,-414.707 71.9316,-414.707 71.9316,-357.3065 71.9316,-357.3065 71.9316,-351.3065 77.9316,-345.3065 83.9316,-345.3065 83.9316,-345.3065 212.0684,-345.3065 212.0684,-345.3065 218.0684,-345.3065 224.0684,-351.3065 224.0684,-357.3065 224.0684,-357.3065 224.0684,-414.707 224.0684,-414.707 224.0684,-420.707 218.0684,-426.707 212.0684,-426.707"/>
<text text-anchor="middle" x="148" y="-407.0067" font-family="Times,serif" font-size="14.00" fill="#000000">Beaucoup de désaccords</text>
<text text-anchor="middle" x="148" y="-390.2067" font-family="Times,serif" font-size="14.00" fill="#000000">moraux sont en fait</text>
<text text-anchor="middle" x="148" y="-373.4067" font-family="Times,serif" font-size="14.00" fill="#000000">des désaccords</text>
<text text-anchor="middle" x="148" y="-356.6067" font-family="Times,serif" font-size="14.00" fill="#000000">non fondamentaux</text>
</g>
<!-- j1&#45;&gt;o2 -->
<g id="remarques+objections_edge5" class="edge">
<title>j1-&gt;o2</title>
<path fill="none" stroke="#008b00" stroke-width=".8" d="M131.6136,-345.3906C123.843,-322.9892 123.1011,-308.7768 129.3877,-285.5775"/>
<polygon fill="#008b00" stroke="#008b00" stroke-width=".8" points="132.7926,-286.4052 132.2628,-275.8237 126.0782,-284.426 132.7926,-286.4052"/>
<text text-anchor="middle" x="96.1336" y="-325.1143" font-family="Times,serif" font-size="10.00" fill="#666666">par</text>
<text text-anchor="middle" x="96.1336" y="-313.1143" font-family="Times,serif" font-size="10.00" fill="#666666">conséquent …</text>
</g>
<!-- j2 -->
<g id="remarques+objections_node8_remarques+objections" class="node">
<title>j2</title>
<path fill="#ffffff" stroke="#008b00" d="M347.7794,-418.408C347.7794,-418.408 254.2206,-418.408 254.2206,-418.408 248.2206,-418.408 242.2206,-412.408 242.2206,-406.408 242.2206,-406.408 242.2206,-365.6055 242.2206,-365.6055 242.2206,-359.6055 248.2206,-353.6055 254.2206,-353.6055 254.2206,-353.6055 347.7794,-353.6055 347.7794,-353.6055 353.7794,-353.6055 359.7794,-359.6055 359.7794,-365.6055 359.7794,-365.6055 359.7794,-406.408 359.7794,-406.408 359.7794,-412.408 353.7794,-418.408 347.7794,-418.408"/>
<text text-anchor="middle" x="301" y="-398.6067" font-family="Times,serif" font-size="14.00" fill="#000000">Il y a beaucoup de</text>
<text text-anchor="middle" x="301" y="-381.8067" font-family="Times,serif" font-size="14.00" fill="#000000">croyances morales</text>
<text text-anchor="middle" x="301" y="-365.0067" font-family="Times,serif" font-size="14.00" fill="#000000">qui sont partagées</text>
</g>
<!-- j2&#45;&gt;o2 -->
<g id="remarques+objections_edge6" class="edge">
<title>j2:s-&gt;o2</title>
<path fill="none" stroke="#008b00" stroke-width=".8" d="M301,-354.0067C227.4454,-319.0823 200.8726,-306.4653 181.4112,-284.1552"/>
<polygon fill="#008b00" stroke="#008b00" stroke-width=".8" points="184.0054,-281.795 175.0263,-276.1713 178.5385,-286.167 184.0054,-281.795"/>
<text text-anchor="middle" x="191.8203" y="-329.3431" font-family="Times,serif" font-size="10.00" fill="#666666">par</text>
<text text-anchor="middle" x="191.8203" y="-317.3431" font-family="Times,serif" font-size="10.00" fill="#666666">conséquent …</text>
</g>
<!-- r1 -->
<g id="remarques+objections_node9_remarques+objections" class="node">
<title>r1</title>
<polygon fill="#ffffff" stroke="#00008b" stroke-width=".8" points="215.9893,-532.6067 80.0107,-532.6067 80.0107,-452.6067 215.9893,-452.6067 215.9893,-532.6067"/>
<text text-anchor="middle" x="148" y="-515.7067" font-family="Times,serif" font-size="11.00" fill="#000000">Déf. : « Désaccord moral</text>
<text text-anchor="middle" x="148" y="-502.5067" font-family="Times,serif" font-size="11.00" fill="#000000">non fondamental »</text>
<text text-anchor="middle" x="148" y="-489.3067" font-family="Times,serif" font-size="11.00" fill="#000000">= désaccord qui a sa source</text>
<text text-anchor="middle" x="148" y="-476.1067" font-family="Times,serif" font-size="11.00" fill="#000000">dans un désaccord sur</text>
<text text-anchor="middle" x="148" y="-462.9067" font-family="Times,serif" font-size="11.00" fill="#000000">des croyances non morales</text>
</g>
<!-- r1&#45;&gt;j1 -->
<g id="remarques+objections_edge7" class="edge">
<title>r1-&gt;j1</title>
<path fill="none" stroke="#00008b" stroke-width=".8" stroke-dasharray="5,2" d="M135.3609,-452.3511C134.9586,-445.2543 135.8471,-437.5253 138.0262,-426.9296"/>
</g>
</g>
</svg>