<?xml version="1.0" encoding="UTF-8" standalone="no"?><!DOCTYPE svg PUBLIC "-//W3C//DTD SVG 1.1//EN" "http://www.w3.org/Graphics/SVG/1.1/DTD/svg11.dtd"><!-- Generated by graphviz version 2.40.1 (20161225.0304)
 --><!-- Title: G Pages: 1 --><svg xmlns="http://www.w3.org/2000/svg" xmlns:xlink="http://www.w3.org/1999/xlink" width="708pt" height="576pt" viewBox="0.00 0.00 708.14 575.88">
<g id="graph0" class="graph" transform="scale(1 1) rotate(0) translate(21.6 554.2801)">
<title>G</title>
<polygon fill="#fafafa" stroke="transparent" points="-21.6,21.6 -21.6,-554.2801 686.5397,-554.2801 686.5397,21.6 -21.6,21.6"/>
<!-- a1 -->
<g id="node1" class="node">
<title>a1</title>
<ellipse fill="#000000" stroke="#000000" cx="223.3232" cy="-481.2027" rx="103.6085" ry="51.4548"/>
<text text-anchor="middle" x="223.3232" y="-497.4027" font-family="Times,serif" font-size="18.00" fill="#ffffff">L'utilisateur</text>
<text text-anchor="middle" x="223.3232" y="-475.8027" font-family="Times,serif" font-size="18.00" fill="#ffffff">lambda n'a pas de</text>
<text text-anchor="middle" x="223.3232" y="-454.2027" font-family="Times,serif" font-size="18.00" fill="#ffffff">culture technique</text>
</g>
<!-- b0 -->
<g id="node2" class="node">
<title>b0</title>
<ellipse fill="#8b0000" stroke="#000000" cx="109.3232" cy="-334.7627" rx="109.1468" ry="46.2727"/>
<text text-anchor="middle" x="109.3232" y="-349.1627" font-family="Times,serif" font-size="16.00" fill="#ffffff">Nous avons un</text>
<text text-anchor="middle" x="109.3232" y="-329.9627" font-family="Times,serif" font-size="16.00" fill="#ffffff">rapport magique avec</text>
<text text-anchor="middle" x="109.3232" y="-310.7627" font-family="Times,serif" font-size="16.00" fill="#ffffff">les objets techniques</text>
</g>
<!-- a1&#45;&gt;b0 -->
<g id="edge1" class="edge">
<title>a1-&gt;b0</title>
<path fill="none" stroke="#000000" d="M185.6794,-432.8469C174.2974,-418.226 161.7469,-402.1041 150.1663,-387.2281"/>
<polygon fill="#000000" stroke="#000000" points="152.7507,-384.8502 143.846,-379.1093 147.2271,-389.1502 152.7507,-384.8502"/>
</g>
<!-- b1 -->
<g id="node3" class="node">
<title>b1</title>
<ellipse fill="#8b0000" stroke="#000000" cx="337.3232" cy="-334.7627" rx="105.2065" ry="59.9253"/>
<text text-anchor="middle" x="337.3232" y="-358.7627" font-family="Times,serif" font-size="16.00" fill="#ffffff">C'est une forme</text>
<text text-anchor="middle" x="337.3232" y="-339.5627" font-family="Times,serif" font-size="16.00" fill="#ffffff">d'aliénation, de</text>
<text text-anchor="middle" x="337.3232" y="-320.3627" font-family="Times,serif" font-size="16.00" fill="#ffffff">dépossession de tout</text>
<text text-anchor="middle" x="337.3232" y="-301.1627" font-family="Times,serif" font-size="16.00" fill="#ffffff">savoir technique</text>
</g>
<!-- a1&#45;&gt;b1 -->
<g id="edge2" class="edge">
<title>a1-&gt;b1</title>
<path fill="none" stroke="#000000" d="M260.967,-432.8469C269.7143,-421.6105 279.1517,-409.4875 288.3087,-397.7249"/>
<polygon fill="#000000" stroke="#000000" points="291.2103,-399.6953 294.5913,-389.6544 285.6867,-395.3953 291.2103,-399.6953"/>
</g>
<!-- r0 -->
<g id="node10" class="node">
<title>r0</title>
<polygon fill="#ffffff" stroke="#0000ff" points="519.8882,-513.2027 382.7582,-513.2027 382.7582,-449.2027 519.8882,-449.2027 519.8882,-513.2027"/>
<text text-anchor="middle" x="451.3232" y="-494.7027" font-family="Times,serif" font-size="15.00" fill="#000000">Exemple :</text>
<text text-anchor="middle" x="451.3232" y="-476.7027" font-family="Times,serif" font-size="15.00" fill="#000000">Comment fonctionne</text>
<text text-anchor="middle" x="451.3232" y="-458.7027" font-family="Times,serif" font-size="15.00" fill="#000000">un réfrigérateur ?</text>
</g>
<!-- a1&#45;&gt;r0 -->
<g id="edge10" class="edge">
<title>a1-&gt;r0</title>
<path fill="none" stroke="#0000ff" stroke-dasharray="5,2" d="M327.081,-481.2027C345.5232,-481.2027 363.9654,-481.2027 382.4076,-481.2027"/>
</g>
<!-- c0 -->
<g id="node4" class="node">
<title>c0</title>
<polygon fill="#ffffff" stroke="#7f7f7f" points="205.2864,-239.7002 13.36,-239.7002 13.36,-155.0998 205.2864,-155.0998 205.2864,-239.7002"/>
<text text-anchor="middle" x="109.3232" y="-221.4" font-family="Times,serif" font-size="16.00" fill="#000000">Nous appuyons sur des</text>
<text text-anchor="middle" x="109.3232" y="-202.2" font-family="Times,serif" font-size="16.00" fill="#000000">boutons, et cela déclenche</text>
<text text-anchor="middle" x="109.3232" y="-183" font-family="Times,serif" font-size="16.00" fill="#000000">des processus, dont nous</text>
<text text-anchor="middle" x="109.3232" y="-163.8" font-family="Times,serif" font-size="16.00" fill="#000000">ignorons le fonctionnement</text>
</g>
<!-- b0&#45;&gt;c0 -->
<g id="edge3" class="edge">
<title>b0-&gt;c0</title>
<path fill="none" stroke="#000000" d="M109.3232,-288.2579C109.3232,-276.0967 109.3232,-262.8963 109.3232,-250.4235"/>
<polygon fill="#000000" stroke="#000000" points="112.8233,-250.1564 109.3232,-240.1564 105.8233,-250.1564 112.8233,-250.1564"/>
</g>
<!-- c1 -->
<g id="node5" class="node">
<title>c1</title>
<polygon fill="#ffffff" stroke="#7f7f7f" points="439.3008,-230.0012 235.3456,-230.0012 235.3456,-164.7988 439.3008,-164.7988 439.3008,-230.0012"/>
<text text-anchor="middle" x="337.3232" y="-211.8" font-family="Times,serif" font-size="16.00" fill="#000000">Nous ne savons</text>
<text text-anchor="middle" x="337.3232" y="-192.6" font-family="Times,serif" font-size="16.00" fill="#000000">pas agir sur les objets</text>
<text text-anchor="middle" x="337.3232" y="-173.4" font-family="Times,serif" font-size="16.00" fill="#000000">techniques que nous utilisons</text>
</g>
<!-- b1&#45;&gt;c1 -->
<g id="edge4" class="edge">
<title>b1-&gt;c1</title>
<path fill="none" stroke="#000000" d="M337.3232,-274.5134C337.3232,-262.9325 337.3232,-251.0268 337.3232,-240.1404"/>
<polygon fill="#000000" stroke="#000000" points="340.8233,-240.0591 337.3232,-230.0592 333.8233,-240.0592 340.8233,-240.0591"/>
</g>
<!-- r1 -->
<g id="node11" class="node">
<title>r1</title>
<polygon fill="#ffffff" stroke="#0000ff" points="665.0564,-366.7627 497.5901,-366.7627 497.5901,-302.7627 665.0564,-302.7627 665.0564,-366.7627"/>
<text text-anchor="middle" x="581.3232" y="-348.2627" font-family="Times,serif" font-size="15.00" fill="#000000">Exemples :</text>
<text text-anchor="middle" x="581.3232" y="-330.2627" font-family="Times,serif" font-size="15.00" fill="#000000">les voitures électroniques,</text>
<text text-anchor="middle" x="581.3232" y="-312.2627" font-family="Times,serif" font-size="15.00" fill="#000000">les logiciels propriétaires</text>
</g>
<!-- b1&#45;&gt;r1 -->
<g id="edge11" class="edge">
<title>b1-&gt;r1</title>
<path fill="none" stroke="#0000ff" stroke-dasharray="5,2" d="M442.6435,-334.7627C460.9717,-334.7627 479.2998,-334.7627 497.6279,-334.7627"/>
</g>
<!-- d1 -->
<g id="node6" class="node">
<title>d1</title>
<path fill="#ffffff" stroke="#7f7f7f" d="M281.7464,-120.2017C281.7464,-120.2017 188.9001,-120.2017 188.9001,-120.2017 182.9001,-120.2017 176.9001,-114.2017 176.9001,-108.2017 176.9001,-108.2017 176.9001,-85.3983 176.9001,-85.3983 176.9001,-79.3983 182.9001,-73.3983 188.9001,-73.3983 188.9001,-73.3983 281.7464,-73.3983 281.7464,-73.3983 287.7464,-73.3983 293.7464,-79.3983 293.7464,-85.3983 293.7464,-85.3983 293.7464,-108.2017 293.7464,-108.2017 293.7464,-114.2017 287.7464,-120.2017 281.7464,-120.2017"/>
<text text-anchor="middle" x="235.3232" y="-101.6" font-family="Times,serif" font-size="16.00" fill="#000000">Nous ne savons</text>
<text text-anchor="middle" x="235.3232" y="-82.4" font-family="Times,serif" font-size="16.00" fill="#000000">pas réparer</text>
</g>
<!-- c1&#45;&gt;d1 -->
<g id="edge5" class="edge">
<title>c1-&gt;d1</title>
<path fill="none" stroke="#000000" d="M304.2068,-164.7381C291.9709,-152.6702 278.1626,-139.0514 266.139,-127.1928"/>
<polygon fill="#000000" stroke="#000000" points="268.4908,-124.5964 258.9133,-120.0663 263.5753,-129.5803 268.4908,-124.5964"/>
</g>
<!-- d2 -->
<g id="node7" class="node">
<title>d2</title>
<path fill="#ffffff" stroke="#7f7f7f" d="M475.4381,-120.2017C475.4381,-120.2017 337.2084,-120.2017 337.2084,-120.2017 331.2084,-120.2017 325.2084,-114.2017 325.2084,-108.2017 325.2084,-108.2017 325.2084,-85.3983 325.2084,-85.3983 325.2084,-79.3983 331.2084,-73.3983 337.2084,-73.3983 337.2084,-73.3983 475.4381,-73.3983 475.4381,-73.3983 481.4381,-73.3983 487.4381,-79.3983 487.4381,-85.3983 487.4381,-85.3983 487.4381,-108.2017 487.4381,-108.2017 487.4381,-114.2017 481.4381,-120.2017 475.4381,-120.2017"/>
<text text-anchor="middle" x="406.3232" y="-101.6" font-family="Times,serif" font-size="16.00" fill="#000000">Nous ne savons pas</text>
<text text-anchor="middle" x="406.3232" y="-82.4" font-family="Times,serif" font-size="16.00" fill="#000000">faire des modifications</text>
</g>
<!-- c1&#45;&gt;d2 -->
<g id="edge6" class="edge">
<title>c1-&gt;d2</title>
<path fill="none" stroke="#000000" d="M359.7256,-164.7381C367.6904,-153.1256 376.6402,-140.077 384.5514,-128.5427"/>
<polygon fill="#000000" stroke="#000000" points="387.5953,-130.2926 390.3653,-120.0663 381.8227,-126.3332 387.5953,-130.2926"/>
</g>
<!-- r2 -->
<g id="node12" class="node">
<title>r2</title>
<polygon fill="#ffffff" stroke="#0000ff" points="637.783,-238.4 494.8635,-238.4 494.8635,-156.4 637.783,-156.4 637.783,-238.4"/>
<text text-anchor="middle" x="566.3232" y="-219.9" font-family="Times,serif" font-size="15.00" fill="#000000">Nous jetons et</text>
<text text-anchor="middle" x="566.3232" y="-201.9" font-family="Times,serif" font-size="15.00" fill="#000000">remplaçons très vite</text>
<text text-anchor="middle" x="566.3232" y="-183.9" font-family="Times,serif" font-size="15.00" fill="#000000">les objets que nous</text>
<text text-anchor="middle" x="566.3232" y="-165.9" font-family="Times,serif" font-size="15.00" fill="#000000">utilisons</text>
</g>
<!-- c1&#45;&gt;r2 -->
<g id="edge12" class="edge">
<title>c1-&gt;r2</title>
<path fill="none" stroke="#0000ff" stroke-dasharray="5,2" d="M439.7471,-197.4C458.0413,-197.4 476.3355,-197.4 494.6297,-197.4"/>
</g>
<!-- VIDE1 -->
<!-- d1&#45;&gt;VIDE1 -->
<!-- VIDE1&#45;&gt;d2 -->
<!-- e1 -->
<g id="node9" class="node">
<title>e1</title>
<path fill="#fafafa" stroke="transparent" d="M410.844,-65.4012C410.844,-65.4012 207.8024,-65.4012 207.8024,-65.4012 201.8024,-65.4012 195.8024,-59.4012 195.8024,-53.4012 195.8024,-53.4012 195.8024,-12.1988 195.8024,-12.1988 195.8024,-6.1988 201.8024,-.1988 207.8024,-.1988 207.8024,-.1988 410.844,-.1988 410.844,-.1988 416.844,-.1988 422.844,-6.1988 422.844,-12.1988 422.844,-12.1988 422.844,-53.4012 422.844,-53.4012 422.844,-59.4012 416.844,-65.4012 410.844,-65.4012"/>
<text text-anchor="middle" x="309.3232" y="-47.2" font-family="Times,serif" font-size="16.00" fill="#cd2626">Contre cette tendance : la culture</text>
<text text-anchor="middle" x="309.3232" y="-28" font-family="Times,serif" font-size="16.00" fill="#cd2626">geek, le hacking, les forums de</text>
<text text-anchor="middle" x="309.3232" y="-8.8" font-family="Times,serif" font-size="16.00" fill="#cd2626">bricolage, les “Repair Cafés”</text>
</g>
<!-- VIDE1&#45;&gt;e1 -->
</g>
</svg>