<?xml version="1.0" encoding="UTF-8" standalone="no"?><!DOCTYPE svg PUBLIC "-//W3C//DTD SVG 1.1//EN" "http://www.w3.org/Graphics/SVG/1.1/DTD/svg11.dtd"><!-- Generated by graphviz version 2.40.1 (20161225.0304)
 --><!-- Title: G Pages: 1 --><svg xmlns="http://www.w3.org/2000/svg" xmlns:xlink="http://www.w3.org/1999/xlink" width="621pt" height="459pt" viewBox="0.00 0.00 621.03 459.37">
<g id="graph0" class="graph" transform="scale(1 1) rotate(0) translate(21.6 437.7743)">
<title>G</title>
<polygon fill="#fafafa" stroke="transparent" points="-21.6,21.6 -21.6,-437.7743 599.4336,-437.7743 599.4336,21.6 -21.6,21.6"/>
<!-- a1 -->
<g id="node1" class="node">
<title>a1</title>
<ellipse fill="#000000" stroke="#000000" cx="289.204" cy="-364.6969" rx="107.578" ry="51.4548"/>
<text text-anchor="middle" x="289.204" y="-380.8969" font-family="Times,serif" font-size="18.00" fill="#ffffff">Qu'est-ce qui</text>
<text text-anchor="middle" x="289.204" y="-359.2969" font-family="Times,serif" font-size="18.00" fill="#ffffff">fait la valeur d'une</text>
<text text-anchor="middle" x="289.204" y="-337.6969" font-family="Times,serif" font-size="18.00" fill="#ffffff">œuvre d'art ?</text>
</g>
<!-- b1 -->
<g id="node2" class="node">
<title>b1</title>
<ellipse fill="#8b0000" stroke="#000000" cx="82.204" cy="-245.4098" rx="61.6747" ry="32.6206"/>
<text text-anchor="middle" x="82.204" y="-250.2098" font-family="Times,serif" font-size="16.00" fill="#ffffff">Première</text>
<text text-anchor="middle" x="82.204" y="-231.0098" font-family="Times,serif" font-size="16.00" fill="#ffffff">hypothèse</text>
</g>
<!-- a1&#45;&gt;b1 -->
<g id="edge1" class="edge">
<title>a1-&gt;b1:n</title>
<path fill="none" stroke="#000000" d="M192.0681,-342.0148C145.219,-328.5288 96.6245,-309.8198 84.8747,-288.0687"/>
<polygon fill="#000000" stroke="#000000" points="88.1992,-286.955 82.204,-278.2195 81.4431,-288.787 88.1992,-286.955"/>
</g>
<!-- b2 -->
<g id="node3" class="node">
<title>b2</title>
<ellipse fill="#8b0000" stroke="#000000" cx="289.204" cy="-245.4098" rx="62.4153" ry="32.6206"/>
<text text-anchor="middle" x="289.204" y="-250.2098" font-family="Times,serif" font-size="16.00" fill="#ffffff">Deuxième</text>
<text text-anchor="middle" x="289.204" y="-231.0098" font-family="Times,serif" font-size="16.00" fill="#ffffff">hypothèse</text>
</g>
<!-- a1&#45;&gt;b2 -->
<g id="edge2" class="edge">
<title>a1-&gt;b2:n</title>
<path fill="none" stroke="#000000" d="M289.204,-313.0242C289.204,-304.9665 289.204,-296.5998 289.204,-288.4281"/>
<polygon fill="#000000" stroke="#000000" points="292.7041,-288.2195 289.204,-278.2195 285.7041,-288.2195 292.7041,-288.2195"/>
</g>
<!-- b3 -->
<g id="node4" class="node">
<title>b3</title>
<ellipse fill="#8b0000" stroke="#000000" cx="496.204" cy="-245.4098" rx="61.6747" ry="32.6206"/>
<text text-anchor="middle" x="496.204" y="-250.2098" font-family="Times,serif" font-size="16.00" fill="#ffffff">Troisième</text>
<text text-anchor="middle" x="496.204" y="-231.0098" font-family="Times,serif" font-size="16.00" fill="#ffffff">hypothèse</text>
</g>
<!-- a1&#45;&gt;b3 -->
<g id="edge3" class="edge">
<title>a1-&gt;b3:n</title>
<path fill="none" stroke="#000000" d="M386.3399,-342.0148C433.189,-328.5288 481.7835,-309.8198 493.5333,-288.0687"/>
<polygon fill="#000000" stroke="#000000" points="496.9649,-288.787 496.204,-278.2195 490.2088,-286.955 496.9649,-288.787"/>
</g>
<!-- b1&#45;&gt;b2 -->
<!-- c1 -->
<g id="node5" class="node">
<title>c1</title>
<polygon fill="#ffffff" stroke="#7f7f7f" points="143.5569,-158.2012 10.8511,-158.2012 10.8511,-92.9988 143.5569,-92.9988 143.5569,-158.2012"/>
<text text-anchor="middle" x="77.204" y="-140" font-family="Times,serif" font-size="16.00" fill="#000000">C’est la beauté</text>
<text text-anchor="middle" x="77.204" y="-120.8" font-family="Times,serif" font-size="16.00" fill="#000000">de l’œuvre qui en</text>
<text text-anchor="middle" x="77.204" y="-101.6" font-family="Times,serif" font-size="16.00" fill="#000000">fait la valeur</text>
<text text-anchor="start" x="5.4512" y="-163.2" font-family="Times,serif" font-size="16.00" fill="#006400">I</text>
</g>
<!-- b1&#45;&gt;c1 -->
<g id="edge4" class="edge">
<title>b1-&gt;c1</title>
<path fill="none" stroke="#000000" d="M80.8245,-212.3541C80.2616,-198.8661 79.6032,-183.0884 79.0033,-168.7139"/>
<polygon fill="#000000" stroke="#000000" points="82.493,-168.3932 78.579,-158.5478 75.4991,-168.6851 82.493,-168.3932"/>
</g>
<!-- b2&#45;&gt;b3 -->
<!-- c2 -->
<g id="node6" class="node">
<title>c2</title>
<polygon fill="#ffffff" stroke="#7f7f7f" points="351.3769,-167.9002 227.0311,-167.9002 227.0311,-83.2998 351.3769,-83.2998 351.3769,-167.9002"/>
<text text-anchor="middle" x="289.204" y="-149.6" font-family="Times,serif" font-size="16.00" fill="#000000">C'est le génie de</text>
<text text-anchor="middle" x="289.204" y="-130.4" font-family="Times,serif" font-size="16.00" fill="#000000">l'artiste que</text>
<text text-anchor="middle" x="289.204" y="-111.2" font-family="Times,serif" font-size="16.00" fill="#000000">nous admirons</text>
<text text-anchor="middle" x="289.204" y="-92" font-family="Times,serif" font-size="16.00" fill="#000000">dans une œuvre</text>
<text text-anchor="start" x="216.4648" y="-172.8" font-family="Times,serif" font-size="16.00" fill="#006400">II</text>
</g>
<!-- b2&#45;&gt;c2 -->
<g id="edge5" class="edge">
<title>b2-&gt;c2</title>
<path fill="none" stroke="#000000" d="M289.204,-212.3541C289.204,-201.747 289.204,-189.7239 289.204,-178.0808"/>
<polygon fill="#000000" stroke="#000000" points="292.7041,-177.9919 289.204,-167.9919 285.7041,-177.9919 292.7041,-177.9919"/>
</g>
<!-- c3 -->
<g id="node7" class="node">
<title>c3</title>
<polygon fill="#ffffff" stroke="#7f7f7f" points="573.3269,-177.6 435.0811,-177.6 435.0811,-73.6 573.3269,-73.6 573.3269,-177.6"/>
<text text-anchor="middle" x="504.204" y="-159.2" font-family="Times,serif" font-size="16.00" fill="#000000">La valeur d’une</text>
<text text-anchor="middle" x="504.204" y="-140" font-family="Times,serif" font-size="16.00" fill="#000000">œuvre se situe dans</text>
<text text-anchor="middle" x="504.204" y="-120.8" font-family="Times,serif" font-size="16.00" fill="#000000">l’expérience à</text>
<text text-anchor="middle" x="504.204" y="-101.6" font-family="Times,serif" font-size="16.00" fill="#000000">laquelle elle</text>
<text text-anchor="middle" x="504.204" y="-82.4" font-family="Times,serif" font-size="16.00" fill="#000000">nous conduit</text>
<text text-anchor="start" x="418.9136" y="-182.4" font-family="Times,serif" font-size="16.00" fill="#006400">III</text>
</g>
<!-- b3&#45;&gt;c3 -->
<g id="edge6" class="edge">
<title>b3-&gt;c3</title>
<path fill="none" stroke="#000000" d="M498.4112,-212.3541C498.9176,-204.7708 499.4722,-196.4637 500.0314,-188.0892"/>
<polygon fill="#000000" stroke="#000000" points="503.5387,-188.0958 500.7128,-177.8848 496.5543,-187.6294 503.5387,-188.0958"/>
</g>
<!-- c1&#45;&gt;c2 -->
<!-- e1 -->
<g id="node8" class="node">
<title>e1</title>
<path fill="#fafafa" stroke="transparent" d="M142.6125,-65.4012C142.6125,-65.4012 11.7955,-65.4012 11.7955,-65.4012 5.7955,-65.4012 -.2045,-59.4012 -.2045,-53.4012 -.2045,-53.4012 -.2045,-12.1988 -.2045,-12.1988 -.2045,-6.1988 5.7955,-.1988 11.7955,-.1988 11.7955,-.1988 142.6125,-.1988 142.6125,-.1988 148.6125,-.1988 154.6125,-6.1988 154.6125,-12.1988 154.6125,-12.1988 154.6125,-53.4012 154.6125,-53.4012 154.6125,-59.4012 148.6125,-65.4012 142.6125,-65.4012"/>
<text text-anchor="middle" x="77.204" y="-47.2" font-family="Times,serif" font-size="16.00" fill="#cd2626">=  point de vue de</text>
<text text-anchor="middle" x="77.204" y="-28" font-family="Times,serif" font-size="16.00" fill="#cd2626">l'œuvre et de ses</text>
<text text-anchor="middle" x="77.204" y="-8.8" font-family="Times,serif" font-size="16.00" fill="#cd2626">qualités intrinsèques</text>
</g>
<!-- c1&#45;&gt;e1 -->
<!-- c2&#45;&gt;c3 -->
<!-- e2 -->
<g id="node9" class="node">
<title>e2</title>
<path fill="#fafafa" stroke="transparent" d="M336.3238,-65.4012C336.3238,-65.4012 242.0842,-65.4012 242.0842,-65.4012 236.0842,-65.4012 230.0842,-59.4012 230.0842,-53.4012 230.0842,-53.4012 230.0842,-12.1988 230.0842,-12.1988 230.0842,-6.1988 236.0842,-.1988 242.0842,-.1988 242.0842,-.1988 336.3238,-.1988 336.3238,-.1988 342.3238,-.1988 348.3238,-6.1988 348.3238,-12.1988 348.3238,-12.1988 348.3238,-53.4012 348.3238,-53.4012 348.3238,-59.4012 342.3238,-65.4012 336.3238,-65.4012"/>
<text text-anchor="middle" x="289.204" y="-47.2" font-family="Times,serif" font-size="16.00" fill="#cd2626">=  point de vue</text>
<text text-anchor="middle" x="289.204" y="-28" font-family="Times,serif" font-size="16.00" fill="#cd2626">de l'artiste et de</text>
<text text-anchor="middle" x="289.204" y="-8.8" font-family="Times,serif" font-size="16.00" fill="#cd2626">la création</text>
</g>
<!-- c2&#45;&gt;e2 -->
<!-- e3 -->
<g id="node10" class="node">
<title>e3</title>
<path fill="#fafafa" stroke="transparent" d="M565.9634,-65.4012C565.9634,-65.4012 442.4446,-65.4012 442.4446,-65.4012 436.4446,-65.4012 430.4446,-59.4012 430.4446,-53.4012 430.4446,-53.4012 430.4446,-12.1988 430.4446,-12.1988 430.4446,-6.1988 436.4446,-.1988 442.4446,-.1988 442.4446,-.1988 565.9634,-.1988 565.9634,-.1988 571.9634,-.1988 577.9634,-6.1988 577.9634,-12.1988 577.9634,-12.1988 577.9634,-53.4012 577.9634,-53.4012 577.9634,-59.4012 571.9634,-65.4012 565.9634,-65.4012"/>
<text text-anchor="middle" x="504.204" y="-47.2" font-family="Times,serif" font-size="16.00" fill="#cd2626">=  point de vue du</text>
<text text-anchor="middle" x="504.204" y="-28" font-family="Times,serif" font-size="16.00" fill="#cd2626">spectateur et de la</text>
<text text-anchor="middle" x="504.204" y="-8.8" font-family="Times,serif" font-size="16.00" fill="#cd2626">réception de l'œuvre</text>
</g>
<!-- c3&#45;&gt;e3 -->
</g>
</svg>