<?xml version="1.0" encoding="UTF-8" standalone="no"?>
<!DOCTYPE svg PUBLIC "-//W3C//DTD SVG 1.1//EN"
 "http://www.w3.org/Graphics/SVG/1.1/DTD/svg11.dtd">
<!-- Generated by graphviz version 2.40.1 (20161225.0304)
 -->
<!-- Title: G Pages: 1 -->
<svg width="828pt" height="394pt"
 viewBox="0.00 0.00 828.19 393.63" xmlns="http://www.w3.org/2000/svg" xmlns:xlink="http://www.w3.org/1999/xlink">
<g id="graph0" class="graph" transform="scale(1 1) rotate(0) translate(21.6 372.0321)">
<title>G</title>
<polygon fill="#fafafa" stroke="transparent" points="-21.6,21.6 -21.6,-372.0321 806.5872,-372.0321 806.5872,21.6 -21.6,21.6"/>
<!-- a1 -->
<g id="node1" class="node">
<title>a1</title>
<ellipse fill="#050505" stroke="#000000" cx="366.9936" cy="-319.6023" rx="98.1404" ry="30.6606"/>
<text text-anchor="middle" x="366.9936" y="-314.2023" font-family="Times,serif" font-size="18.00" fill="#ffffff">Trois séquences</text>
</g>
<!-- b1 -->
<g id="node2" class="node">
<title>b1</title>
<ellipse fill="#8b0000" stroke="#000000" cx="123.9936" cy="-216.3862" rx="64.984" ry="46.2727"/>
<text text-anchor="middle" x="123.9936" y="-230.7862" font-family="Times,serif" font-size="16.00" fill="#ffffff">Philosophie</text>
<text text-anchor="middle" x="123.9936" y="-211.5862" font-family="Times,serif" font-size="16.00" fill="#ffffff">morale et</text>
<text text-anchor="middle" x="123.9936" y="-192.3862" font-family="Times,serif" font-size="16.00" fill="#ffffff">politique</text>
<text text-anchor="start" x="42.3576" y="-267.5724" font-family="Times,serif" font-size="16.00" fill="#006400">S1</text>
</g>
<!-- a1&#45;&gt;b1 -->
<g id="edge1" class="edge">
<title>a1&#45;&gt;b1:n</title>
<path fill="none" stroke="#000000" d="M269.9059,-314.5636C209.624,-308.9781 140.9797,-297.2191 126.6849,-272.4847"/>
<polygon fill="#000000" stroke="#000000" points="130.037,-271.4746 123.9936,-262.7724 123.2912,-273.3439 130.037,-271.4746"/>
</g>
<!-- b2 -->
<g id="node3" class="node">
<title>b2</title>
<ellipse fill="#8b0000" stroke="#000000" cx="366.9936" cy="-216.3862" rx="67.4574" ry="32.6206"/>
<text text-anchor="middle" x="366.9936" y="-221.1862" font-family="Times,serif" font-size="16.00" fill="#ffffff">Philosophie</text>
<text text-anchor="middle" x="366.9936" y="-201.9862" font-family="Times,serif" font-size="16.00" fill="#ffffff">de la culture</text>
<text text-anchor="start" x="282.8709" y="-253.996" font-family="Times,serif" font-size="16.00" fill="#006400">S2</text>
</g>
<!-- a1&#45;&gt;b2 -->
<g id="edge2" class="edge">
<title>a1&#45;&gt;b2:n</title>
<path fill="none" stroke="#000000" d="M366.9936,-288.4931C366.9936,-279.4423 366.9936,-269.3352 366.9936,-259.4924"/>
<polygon fill="#000000" stroke="#000000" points="370.4937,-259.3862 366.9936,-249.3862 363.4937,-259.3862 370.4937,-259.3862"/>
</g>
<!-- b3 -->
<g id="node4" class="node">
<title>b3</title>
<ellipse fill="#8b0000" stroke="#000000" cx="603.9936" cy="-216.3862" rx="85.8553" ry="32.6206"/>
<text text-anchor="middle" x="603.9936" y="-221.1862" font-family="Times,serif" font-size="16.00" fill="#ffffff">Épistémologie</text>
<text text-anchor="middle" x="603.9936" y="-201.9862" font-family="Times,serif" font-size="16.00" fill="#ffffff">et métaphysique</text>
<text text-anchor="start" x="501.1716" y="-253.996" font-family="Times,serif" font-size="16.00" fill="#006400">S3</text>
</g>
<!-- a1&#45;&gt;b3 -->
<g id="edge3" class="edge">
<title>a1&#45;&gt;b3:n</title>
<path fill="none" stroke="#000000" d="M459.6422,-309.3572C518.8435,-300.4312 587.0939,-284.8115 601.3154,-259.2567"/>
<polygon fill="#000000" stroke="#000000" points="604.7528,-259.9538 603.9936,-249.3862 597.997,-258.1207 604.7528,-259.9538"/>
</g>
<!-- b1&#45;&gt;b2 -->
<!-- c1 -->
<g id="node5" class="node">
<title>c1</title>
<polygon fill="#ffffff" stroke="#7f7f7f" points="123.9808,-143.9002 .0064,-143.9002 .0064,-59.2998 123.9808,-59.2998 123.9808,-143.9002"/>
<text text-anchor="middle" x="61.9936" y="-125.6" font-family="Times,serif" font-size="16.00" fill="#000000">Chapitre 1 :</text>
<text text-anchor="middle" x="61.9936" y="-106.4" font-family="Times,serif" font-size="16.00" fill="#000000">Être libre, est&#45;ce</text>
<text text-anchor="middle" x="61.9936" y="-87.2" font-family="Times,serif" font-size="16.00" fill="#000000">faire tout ce</text>
<text text-anchor="middle" x="61.9936" y="-68" font-family="Times,serif" font-size="16.00" fill="#000000">qui nous plaît ?</text>
</g>
<!-- b1&#45;&gt;c1 -->
<g id="edge6" class="edge">
<title>b1&#45;&gt;c1</title>
<path fill="none" stroke="#000000" d="M100.5541,-172.9905C97.0177,-166.4433 93.3416,-159.6374 89.7255,-152.9425"/>
<polygon fill="#000000" stroke="#000000" points="92.6823,-151.052 84.8503,-143.9167 86.5233,-154.3787 92.6823,-151.052"/>
</g>
<!-- c2 -->
<g id="node6" class="node">
<title>c2</title>
<polygon fill="#ffffff" stroke="#7f7f7f" points="230.5339,-143.9002 131.4533,-143.9002 131.4533,-59.2998 230.5339,-59.2998 230.5339,-143.9002"/>
<text text-anchor="middle" x="180.9936" y="-125.6" font-family="Times,serif" font-size="16.00" fill="#000000">Chapitre 2 :</text>
<text text-anchor="middle" x="180.9936" y="-106.4" font-family="Times,serif" font-size="16.00" fill="#000000">Quelle est la</text>
<text text-anchor="middle" x="180.9936" y="-87.2" font-family="Times,serif" font-size="16.00" fill="#000000">finalité de</text>
<text text-anchor="middle" x="180.9936" y="-68" font-family="Times,serif" font-size="16.00" fill="#000000">la politique ?</text>
</g>
<!-- b1&#45;&gt;c2 -->
<g id="edge7" class="edge">
<title>b1&#45;&gt;c2</title>
<path fill="none" stroke="#000000" d="M145.7055,-172.663C148.8339,-166.363 152.0782,-159.8297 155.2753,-153.3913"/>
<polygon fill="#000000" stroke="#000000" points="158.594,-154.5776 159.9068,-144.0644 152.3244,-151.4642 158.594,-154.5776"/>
</g>
<!-- b2&#45;&gt;b3 -->
<!-- c3 -->
<g id="node7" class="node">
<title>c3</title>
<polygon fill="#ffffff" stroke="#7f7f7f" points="346.5323,-143.9002 251.4549,-143.9002 251.4549,-59.2998 346.5323,-59.2998 346.5323,-143.9002"/>
<text text-anchor="middle" x="298.9936" y="-125.6" font-family="Times,serif" font-size="16.00" fill="#000000">Chapitre 3 :</text>
<text text-anchor="middle" x="298.9936" y="-106.4" font-family="Times,serif" font-size="16.00" fill="#000000">Faut&#45;il avoir</text>
<text text-anchor="middle" x="298.9936" y="-87.2" font-family="Times,serif" font-size="16.00" fill="#000000">peur de la</text>
<text text-anchor="middle" x="298.9936" y="-68" font-family="Times,serif" font-size="16.00" fill="#000000">technique ?</text>
</g>
<!-- b2&#45;&gt;c3 -->
<g id="edge8" class="edge">
<title>b2&#45;&gt;c3</title>
<path fill="none" stroke="#000000" d="M348.2323,-184.7165C342.3386,-174.7678 335.6747,-163.5188 329.1969,-152.5841"/>
<polygon fill="#000000" stroke="#000000" points="332.1682,-150.7327 324.06,-143.9129 326.1456,-154.3005 332.1682,-150.7327"/>
</g>
<!-- c4 -->
<g id="node8" class="node">
<title>c4</title>
<polygon fill="#ffffff" stroke="#7f7f7f" points="493.9825,-143.9002 354.0047,-143.9002 354.0047,-59.2998 493.9825,-59.2998 493.9825,-143.9002"/>
<text text-anchor="middle" x="423.9936" y="-125.6" font-family="Times,serif" font-size="16.00" fill="#000000">Chapitre 4 :</text>
<text text-anchor="middle" x="423.9936" y="-106.4" font-family="Times,serif" font-size="16.00" fill="#000000">Peut&#45;on définir ce</text>
<text text-anchor="middle" x="423.9936" y="-87.2" font-family="Times,serif" font-size="16.00" fill="#000000">qui fait la valeur</text>
<text text-anchor="middle" x="423.9936" y="-68" font-family="Times,serif" font-size="16.00" fill="#000000">d&#39;une œuvre d&#39;art ?</text>
</g>
<!-- b2&#45;&gt;c4 -->
<g id="edge9" class="edge">
<title>b2&#45;&gt;c4</title>
<path fill="none" stroke="#000000" d="M382.8713,-184.4118C387.6611,-174.7661 393.047,-163.92 398.3042,-153.3332"/>
<polygon fill="#000000" stroke="#000000" points="401.5598,-154.6464 402.8727,-144.1332 395.2903,-151.533 401.5598,-154.6464"/>
</g>
<!-- c5 -->
<g id="node9" class="node">
<title>c5</title>
<polygon fill="#ffffff" stroke="#7f7f7f" points="645.9808,-143.9002 514.0064,-143.9002 514.0064,-59.2998 645.9808,-59.2998 645.9808,-143.9002"/>
<text text-anchor="middle" x="579.9936" y="-125.6" font-family="Times,serif" font-size="16.00" fill="#000000">Chapitre 5 :</text>
<text text-anchor="middle" x="579.9936" y="-106.4" font-family="Times,serif" font-size="16.00" fill="#000000">Comment peut&#45;on</text>
<text text-anchor="middle" x="579.9936" y="-87.2" font-family="Times,serif" font-size="16.00" fill="#000000">parvenir à</text>
<text text-anchor="middle" x="579.9936" y="-68" font-family="Times,serif" font-size="16.00" fill="#000000">la vérité ?</text>
</g>
<!-- b3&#45;&gt;c5 -->
<g id="edge10" class="edge">
<title>b3&#45;&gt;c5</title>
<path fill="none" stroke="#000000" d="M597.1162,-183.4931C595.1839,-174.2515 593.0335,-163.9665 590.9272,-153.8927"/>
<polygon fill="#000000" stroke="#000000" points="594.3179,-153.0078 588.8454,-143.9358 587.4661,-154.4405 594.3179,-153.0078"/>
</g>
<!-- c6 -->
<g id="node10" class="node">
<title>c6</title>
<polygon fill="#ffffff" stroke="#7f7f7f" points="784.9808,-143.9002 653.0064,-143.9002 653.0064,-59.2998 784.9808,-59.2998 784.9808,-143.9002"/>
<text text-anchor="middle" x="718.9936" y="-125.6" font-family="Times,serif" font-size="16.00" fill="#000000">Chapitre 6 :</text>
<text text-anchor="middle" x="718.9936" y="-106.4" font-family="Times,serif" font-size="16.00" fill="#000000">Comment peut&#45;on</text>
<text text-anchor="middle" x="718.9936" y="-87.2" font-family="Times,serif" font-size="16.00" fill="#000000">comprendre la</text>
<text text-anchor="middle" x="718.9936" y="-68" font-family="Times,serif" font-size="16.00" fill="#000000">foi religieuse ?</text>
</g>
<!-- b3&#45;&gt;c6 -->
<g id="edge11" class="edge">
<title>b3&#45;&gt;c6</title>
<path fill="none" stroke="#000000" d="M634.8115,-185.6256C645.3901,-175.0667 657.5168,-162.9625 669.21,-151.291"/>
<polygon fill="#000000" stroke="#000000" points="671.8118,-153.6392 676.4169,-144.0975 666.8667,-148.6848 671.8118,-153.6392"/>
</g>
<!-- e1 -->
<g id="node11" class="node">
<title>e1</title>
<path fill="#fafafa" stroke="transparent" d="M83.1309,-43.9005C83.1309,-43.9005 40.8563,-43.9005 40.8563,-43.9005 34.8563,-43.9005 28.8563,-37.9005 28.8563,-31.9005 28.8563,-31.9005 28.8563,-19.2995 28.8563,-19.2995 28.8563,-13.2995 34.8563,-7.2995 40.8563,-7.2995 40.8563,-7.2995 83.1309,-7.2995 83.1309,-7.2995 89.1309,-7.2995 95.1309,-13.2995 95.1309,-19.2995 95.1309,-19.2995 95.1309,-31.9005 95.1309,-31.9005 95.1309,-37.9005 89.1309,-43.9005 83.1309,-43.9005"/>
<text text-anchor="middle" x="61.9936" y="-29.2" font-family="Times,serif" font-size="12.00" fill="#cd2626">La liberté,</text>
<text text-anchor="middle" x="61.9936" y="-14.8" font-family="Times,serif" font-size="12.00" fill="#cd2626">la nature</text>
</g>
<!-- c1&#45;&gt;e1 -->
<!-- c2&#45;&gt;c3 -->
<!-- e2 -->
<g id="node12" class="node">
<title>e2</title>
<path fill="#fafafa" stroke="transparent" d="M201.976,-43.9005C201.976,-43.9005 160.0112,-43.9005 160.0112,-43.9005 154.0112,-43.9005 148.0112,-37.9005 148.0112,-31.9005 148.0112,-31.9005 148.0112,-19.2995 148.0112,-19.2995 148.0112,-13.2995 154.0112,-7.2995 160.0112,-7.2995 160.0112,-7.2995 201.976,-7.2995 201.976,-7.2995 207.976,-7.2995 213.976,-13.2995 213.976,-19.2995 213.976,-19.2995 213.976,-31.9005 213.976,-31.9005 213.976,-37.9005 207.976,-43.9005 201.976,-43.9005"/>
<text text-anchor="middle" x="180.9936" y="-29.2" font-family="Times,serif" font-size="12.00" fill="#cd2626">La justice,</text>
<text text-anchor="middle" x="180.9936" y="-14.8" font-family="Times,serif" font-size="12.00" fill="#cd2626">la liberté</text>
</g>
<!-- c2&#45;&gt;e2 -->
<!-- e3 -->
<g id="node13" class="node">
<title>e3</title>
<path fill="#fafafa" stroke="transparent" d="M327.8018,-51.3004C327.8018,-51.3004 270.1854,-51.3004 270.1854,-51.3004 264.1854,-51.3004 258.1854,-45.3004 258.1854,-39.3004 258.1854,-39.3004 258.1854,-11.8996 258.1854,-11.8996 258.1854,-5.8996 264.1854,.1004 270.1854,.1004 270.1854,.1004 327.8018,.1004 327.8018,.1004 333.8018,.1004 339.8018,-5.8996 339.8018,-11.8996 339.8018,-11.8996 339.8018,-39.3004 339.8018,-39.3004 339.8018,-45.3004 333.8018,-51.3004 327.8018,-51.3004"/>
<text text-anchor="middle" x="298.9936" y="-36.4" font-family="Times,serif" font-size="12.00" fill="#cd2626">La technique,</text>
<text text-anchor="middle" x="298.9936" y="-22" font-family="Times,serif" font-size="12.00" fill="#cd2626">la nature,</text>
<text text-anchor="middle" x="298.9936" y="-7.6" font-family="Times,serif" font-size="12.00" fill="#cd2626">la liberté</text>
</g>
<!-- c3&#45;&gt;e3 -->
<!-- c4&#45;&gt;c5 -->
<!-- e4 -->
<g id="node14" class="node">
<title>e4</title>
<path fill="#fafafa" stroke="transparent" d="M438.9936,-43.6C438.9936,-43.6 408.9936,-43.6 408.9936,-43.6 402.9936,-43.6 396.9936,-37.6 396.9936,-31.6 396.9936,-31.6 396.9936,-19.6 396.9936,-19.6 396.9936,-13.6 402.9936,-7.6 408.9936,-7.6 408.9936,-7.6 438.9936,-7.6 438.9936,-7.6 444.9936,-7.6 450.9936,-13.6 450.9936,-19.6 450.9936,-19.6 450.9936,-31.6 450.9936,-31.6 450.9936,-37.6 444.9936,-43.6 438.9936,-43.6"/>
<text text-anchor="middle" x="423.9936" y="-22" font-family="Times,serif" font-size="12.00" fill="#cd2626">L&#39;art</text>
</g>
<!-- c4&#45;&gt;e4 -->
<!-- e5 -->
<g id="node15" class="node">
<title>e5</title>
<path fill="#fafafa" stroke="transparent" d="M598.1239,-43.6C598.1239,-43.6 561.8633,-43.6 561.8633,-43.6 555.8633,-43.6 549.8633,-37.6 549.8633,-31.6 549.8633,-31.6 549.8633,-19.6 549.8633,-19.6 549.8633,-13.6 555.8633,-7.6 561.8633,-7.6 561.8633,-7.6 598.1239,-7.6 598.1239,-7.6 604.1239,-7.6 610.1239,-13.6 610.1239,-19.6 610.1239,-19.6 610.1239,-31.6 610.1239,-31.6 610.1239,-37.6 604.1239,-43.6 598.1239,-43.6"/>
<text text-anchor="middle" x="579.9936" y="-22" font-family="Times,serif" font-size="12.00" fill="#cd2626">La vérité</text>
</g>
<!-- c5&#45;&gt;e5 -->
<!-- e6 -->
<g id="node16" class="node">
<title>e6</title>
<path fill="#fafafa" stroke="transparent" d="M741.4772,-43.6C741.4772,-43.6 696.51,-43.6 696.51,-43.6 690.51,-43.6 684.51,-37.6 684.51,-31.6 684.51,-31.6 684.51,-19.6 684.51,-19.6 684.51,-13.6 690.51,-7.6 696.51,-7.6 696.51,-7.6 741.4772,-7.6 741.4772,-7.6 747.4772,-7.6 753.4772,-13.6 753.4772,-19.6 753.4772,-19.6 753.4772,-31.6 753.4772,-31.6 753.4772,-37.6 747.4772,-43.6 741.4772,-43.6"/>
<text text-anchor="middle" x="718.9936" y="-22" font-family="Times,serif" font-size="12.00" fill="#cd2626">La religion</text>
</g>
<!-- c6&#45;&gt;e6 -->
</g>
</svg>
