<?xml version="1.0" encoding="UTF-8" standalone="no"?>
<!DOCTYPE svg PUBLIC "-//W3C//DTD SVG 1.1//EN"
 "http://www.w3.org/Graphics/SVG/1.1/DTD/svg11.dtd">
<!-- Generated by graphviz version 2.40.1 (20161225.0304)
 -->
<!-- Title: G Pages: 1 -->
<svg width="928pt" height="718pt"
 viewBox="0.00 0.00 928.21 718.40" xmlns="http://www.w3.org/2000/svg" xmlns:xlink="http://www.w3.org/1999/xlink">
<g id="graph0" class="graph" transform="scale(1 1) rotate(0) translate(21.6 696.8)">
<title>G</title>
<polygon fill="#fafafa" stroke="transparent" points="-21.6,21.6 -21.6,-696.8 906.6097,-696.8 906.6097,21.6 -21.6,21.6"/>
<!-- a1 -->
<g id="node1" class="node">
<title>a1</title>
<ellipse fill="#050505" stroke="#000000" cx="94.702" cy="-399.6" rx="94.9044" ry="51.4548"/>
<text text-anchor="middle" x="94.702" y="-415.8" font-family="Times,serif" font-size="18.00" fill="#ffffff">Être libre, est&#45;ce</text>
<text text-anchor="middle" x="94.702" y="-394.2" font-family="Times,serif" font-size="18.00" fill="#ffffff">faire tout ce qui</text>
<text text-anchor="middle" x="94.702" y="-372.6" font-family="Times,serif" font-size="18.00" fill="#ffffff">nous plaît ?</text>
</g>
<!-- p1 -->
<g id="node2" class="node">
<title>p1</title>
<path fill="#fafafa" stroke="#006400" d="M294.1916,-629.2019C294.1916,-629.2019 239.0915,-629.2019 239.0915,-629.2019 233.0915,-629.2019 227.0915,-623.2019 227.0915,-617.2019 227.0915,-617.2019 227.0915,-599.9981 227.0915,-599.9981 227.0915,-593.9981 233.0915,-587.9981 239.0915,-587.9981 239.0915,-587.9981 294.1916,-587.9981 294.1916,-587.9981 300.1916,-587.9981 306.1916,-593.9981 306.1916,-599.9981 306.1916,-599.9981 306.1916,-617.2019 306.1916,-617.2019 306.1916,-623.2019 300.1916,-629.2019 294.1916,-629.2019"/>
<text text-anchor="middle" x="266.6415" y="-612.8" font-family="Times,serif" font-size="14.00" fill="#006400">I – Liberté</text>
<text text-anchor="middle" x="266.6415" y="-596" font-family="Times,serif" font-size="14.00" fill="#006400">et désirs</text>
</g>
<!-- a1&#45;&gt;p1 -->
<g id="edge1" class="edge">
<title>a1&#45;&gt;p1:w</title>
<path fill="none" stroke="#000000" d="M103.8441,-450.9948C118.1523,-512.8778 152.2998,-608.6 226.6415,-608.6"/>
</g>
<!-- p2 -->
<g id="node3" class="node">
<title>p2</title>
<path fill="#fafafa" stroke="#006400" d="M306.1178,-420.2019C306.1178,-420.2019 227.1652,-420.2019 227.1652,-420.2019 221.1652,-420.2019 215.1652,-414.2019 215.1652,-408.2019 215.1652,-408.2019 215.1652,-390.9981 215.1652,-390.9981 215.1652,-384.9981 221.1652,-378.9981 227.1652,-378.9981 227.1652,-378.9981 306.1178,-378.9981 306.1178,-378.9981 312.1178,-378.9981 318.1178,-384.9981 318.1178,-390.9981 318.1178,-390.9981 318.1178,-408.2019 318.1178,-408.2019 318.1178,-414.2019 312.1178,-420.2019 306.1178,-420.2019"/>
<text text-anchor="middle" x="266.6415" y="-403.8" font-family="Times,serif" font-size="14.00" fill="#006400">II – La liberté</text>
<text text-anchor="middle" x="266.6415" y="-387" font-family="Times,serif" font-size="14.00" fill="#006400">et les autres</text>
</g>
<!-- a1&#45;&gt;p2 -->
<g id="edge2" class="edge">
<title>a1&#45;&gt;p2:w</title>
<path fill="none" stroke="#000000" d="M189.4411,-399.6C198.2981,-399.6 207.138,-399.6 215.6415,-399.6"/>
</g>
<!-- p3 -->
<g id="node4" class="node">
<title>p3</title>
<path fill="#fafafa" stroke="#006400" d="M306.1178,-211.2019C306.1178,-211.2019 227.1652,-211.2019 227.1652,-211.2019 221.1652,-211.2019 215.1652,-205.2019 215.1652,-199.2019 215.1652,-199.2019 215.1652,-181.9981 215.1652,-181.9981 215.1652,-175.9981 221.1652,-169.9981 227.1652,-169.9981 227.1652,-169.9981 306.1178,-169.9981 306.1178,-169.9981 312.1178,-169.9981 318.1178,-175.9981 318.1178,-181.9981 318.1178,-181.9981 318.1178,-199.2019 318.1178,-199.2019 318.1178,-205.2019 312.1178,-211.2019 306.1178,-211.2019"/>
<text text-anchor="middle" x="266.6415" y="-194.8" font-family="Times,serif" font-size="14.00" fill="#006400">III – Liberté et</text>
<text text-anchor="middle" x="266.6415" y="-178" font-family="Times,serif" font-size="14.00" fill="#006400">devoir moral</text>
</g>
<!-- a1&#45;&gt;p3 -->
<g id="edge3" class="edge">
<title>a1&#45;&gt;p3:w</title>
<path fill="none" stroke="#000000" d="M101.6758,-348.2052C113.2973,-286.3222 143.0121,-190.6 215.6415,-190.6"/>
</g>
<!-- p1&#45;&gt;p2 -->
<!-- b1 -->
<g id="node5" class="node">
<title>b1</title>
<ellipse fill="#8b0000" stroke="#000000" cx="461.9976" cy="-608.6" rx="118.2371" ry="46.2727"/>
<text text-anchor="middle" x="461.9976" y="-623" font-family="Times,serif" font-size="16.00" fill="#ffffff">Faire tout ce qui</text>
<text text-anchor="middle" x="461.9976" y="-603.8" font-family="Times,serif" font-size="16.00" fill="#ffffff">nous plaît, est&#45;ce être</text>
<text text-anchor="middle" x="461.9976" y="-584.6" font-family="Times,serif" font-size="16.00" fill="#ffffff">esclave de ses désirs ?</text>
</g>
<!-- p1&#45;&gt;b1 -->
<g id="edge6" class="edge">
<title>p1&#45;&gt;b1:w</title>
<path fill="none" stroke="#000000" d="M306.3922,-608.6C315.1669,-608.6 324.591,-608.6 333.7762,-608.6"/>
<polygon fill="#000000" stroke="#000000" points="333.9977,-612.1001 343.9976,-608.6 333.9976,-605.1001 333.9977,-612.1001"/>
</g>
<!-- p2&#45;&gt;p3 -->
<!-- b2 -->
<g id="node6" class="node">
<title>b2</title>
<ellipse fill="#8b0000" stroke="#000000" cx="461.9976" cy="-474.6" rx="103.5047" ry="46.2727"/>
<text text-anchor="middle" x="461.9976" y="-489" font-family="Times,serif" font-size="16.00" fill="#ffffff">La liberté des autres</text>
<text text-anchor="middle" x="461.9976" y="-469.8" font-family="Times,serif" font-size="16.00" fill="#ffffff">est&#45;elle un obstacle</text>
<text text-anchor="middle" x="461.9976" y="-450.6" font-family="Times,serif" font-size="16.00" fill="#ffffff">à ma liberté ?</text>
</g>
<!-- p2&#45;&gt;b2 -->
<g id="edge7" class="edge">
<title>p2&#45;&gt;b2:w</title>
<path fill="none" stroke="#000000" d="M279.6634,-420.4917C293.7055,-440.4297 318.0844,-468.2173 347.744,-473.656"/>
<polygon fill="#000000" stroke="#000000" points="347.7188,-477.1684 357.9976,-474.6 348.3607,-470.1979 347.7188,-477.1684"/>
</g>
<!-- b3 -->
<g id="node7" class="node">
<title>b3</title>
<ellipse fill="#8b0000" stroke="#000000" cx="461.9976" cy="-326.6" rx="114.0934" ry="59.9253"/>
<text text-anchor="middle" x="461.9976" y="-350.6" font-family="Times,serif" font-size="16.00" fill="#ffffff">Quelles sont</text>
<text text-anchor="middle" x="461.9976" y="-331.4" font-family="Times,serif" font-size="16.00" fill="#ffffff">les règles sociales qui</text>
<text text-anchor="middle" x="461.9976" y="-312.2" font-family="Times,serif" font-size="16.00" fill="#ffffff">ne portent pas atteinte</text>
<text text-anchor="middle" x="461.9976" y="-293" font-family="Times,serif" font-size="16.00" fill="#ffffff">à ma liberté ?</text>
</g>
<!-- p2&#45;&gt;b3 -->
<g id="edge8" class="edge">
<title>p2&#45;&gt;b3:w</title>
<path fill="none" stroke="#000000" d="M278.0569,-378.8764C290.1546,-359.6549 311.1939,-333.2054 337.9058,-327.6495"/>
<polygon fill="#000000" stroke="#000000" points="338.4133,-331.1157 347.9976,-326.6 337.6892,-324.1532 338.4133,-331.1157"/>
</g>
<!-- b4 -->
<g id="node8" class="node">
<title>b4</title>
<ellipse fill="#8b0000" stroke="#000000" cx="461.9976" cy="-192.6" rx="77.073" ry="32.6206"/>
<text text-anchor="middle" x="461.9976" y="-197.4" font-family="Times,serif" font-size="16.00" fill="#ffffff">Quel est notre</text>
<text text-anchor="middle" x="461.9976" y="-178.2" font-family="Times,serif" font-size="16.00" fill="#ffffff">devoir moral ?</text>
</g>
<!-- p3&#45;&gt;b4 -->
<g id="edge9" class="edge">
<title>p3&#45;&gt;b4:w</title>
<path fill="none" stroke="#000000" d="M318.0513,-191.8553C335.4397,-192.1959 355.2132,-192.4942 373.99,-192.5771"/>
<polygon fill="#000000" stroke="#000000" points="373.9896,-196.077 383.9976,-192.6 374.0057,-189.0771 373.9896,-196.077"/>
</g>
<!-- b5 -->
<g id="node9" class="node">
<title>b5</title>
<ellipse fill="#8b0000" stroke="#000000" cx="461.9976" cy="-71.6" rx="95.392" ry="46.2727"/>
<text text-anchor="middle" x="461.9976" y="-86" font-family="Times,serif" font-size="16.00" fill="#ffffff">Quels devoirs</text>
<text text-anchor="middle" x="461.9976" y="-66.8" font-family="Times,serif" font-size="16.00" fill="#ffffff">avons&#45;nous envers</text>
<text text-anchor="middle" x="461.9976" y="-47.6" font-family="Times,serif" font-size="16.00" fill="#ffffff">la nature ?</text>
</g>
<!-- p3&#45;&gt;b5 -->
<g id="edge10" class="edge">
<title>p3&#45;&gt;b5:w</title>
<path fill="none" stroke="#000000" d="M273.2379,-169.8718C284.6933,-138.1082 311.3983,-80.2337 355.9107,-72.4696"/>
<polygon fill="#000000" stroke="#000000" points="356.3352,-75.9461 365.9976,-71.6 355.7339,-68.9719 356.3352,-75.9461"/>
</g>
<!-- b1&#45;&gt;b2 -->
<!-- c1 -->
<g id="node10" class="node">
<title>c1</title>
<polygon fill="#ffffff" stroke="#7f7f7f" points="710.638,-663.6 632.2183,-663.6 632.2183,-627.6 710.638,-627.6 710.638,-663.6"/>
<text text-anchor="middle" x="671.4281" y="-640.8" font-family="Times,serif" font-size="16.00" fill="#000000">Calliclès</text>
</g>
<!-- b1&#45;&gt;c1 -->
<g id="edge15" class="edge">
<title>b1&#45;&gt;c1</title>
<path fill="none" stroke="#000000" d="M569.7803,-627.6419C588.0323,-630.8665 606.16,-634.0691 621.9426,-636.8574"/>
<polygon fill="#000000" stroke="#000000" points="621.4968,-640.3328 631.9532,-638.626 622.7147,-633.4395 621.4968,-640.3328"/>
</g>
<!-- c2 -->
<g id="node11" class="node">
<title>c2</title>
<polygon fill="#ffffff" stroke="#7f7f7f" points="699.8179,-606.6 643.0384,-606.6 643.0384,-570.6 699.8179,-570.6 699.8179,-606.6"/>
<text text-anchor="middle" x="671.4281" y="-583.8" font-family="Times,serif" font-size="16.00" fill="#000000">Platon</text>
</g>
<!-- b1&#45;&gt;c2 -->
<g id="edge16" class="edge">
<title>b1&#45;&gt;c2</title>
<path fill="none" stroke="#000000" d="M576.8227,-597.6345C596.9862,-595.709 616.6451,-593.8316 632.7712,-592.2916"/>
<polygon fill="#000000" stroke="#000000" points="633.2061,-595.7661 642.8281,-591.3312 632.5406,-588.7978 633.2061,-595.7661"/>
</g>
<!-- b2&#45;&gt;b3 -->
<!-- c3 -->
<g id="node12" class="node">
<title>c3</title>
<polygon fill="#ffffff" stroke="#7f7f7f" points="703.8035,-528.6 639.0528,-528.6 639.0528,-492.6 703.8035,-492.6 703.8035,-528.6"/>
<text text-anchor="middle" x="671.4281" y="-505.8" font-family="Times,serif" font-size="16.00" fill="#000000">Hobbes</text>
</g>
<!-- b2&#45;&gt;c3 -->
<g id="edge17" class="edge">
<title>b2&#45;&gt;c3</title>
<path fill="none" stroke="#000000" d="M558.7434,-491.2301C583.2032,-495.4346 608.2462,-499.7394 628.4928,-503.2196"/>
<polygon fill="#000000" stroke="#000000" points="628.1663,-506.7148 638.6147,-504.9595 629.3522,-499.816 628.1663,-506.7148"/>
</g>
<!-- c4 -->
<g id="node13" class="node">
<title>c4</title>
<polygon fill="#ffffff" stroke="#7f7f7f" points="707.0274,-470.6 635.8289,-470.6 635.8289,-434.6 707.0274,-434.6 707.0274,-470.6"/>
<text text-anchor="middle" x="671.4281" y="-447.8" font-family="Times,serif" font-size="16.00" fill="#000000">Honneth</text>
</g>
<!-- b2&#45;&gt;c4 -->
<g id="edge18" class="edge">
<title>b2&#45;&gt;c4</title>
<path fill="none" stroke="#000000" d="M563.0322,-463.9866C584.9941,-461.6796 607.1722,-459.3499 625.696,-457.404"/>
<polygon fill="#000000" stroke="#000000" points="626.2882,-460.8612 635.8678,-456.3355 625.5568,-453.8995 626.2882,-460.8612"/>
</g>
<!-- b3&#45;&gt;b4 -->
<!-- c5 -->
<g id="node14" class="node">
<title>c5</title>
<polygon fill="#ffffff" stroke="#7f7f7f" points="704.9753,-392.6 637.881,-392.6 637.881,-356.6 704.9753,-356.6 704.9753,-392.6"/>
<text text-anchor="middle" x="671.4281" y="-369.8" font-family="Times,serif" font-size="16.00" fill="#000000">Spinoza</text>
</g>
<!-- b3&#45;&gt;c5 -->
<g id="edge19" class="edge">
<title>b3&#45;&gt;c5</title>
<path fill="none" stroke="#000000" d="M566.7129,-350.6C588.3555,-355.5603 609.9981,-360.5207 627.9426,-364.6334"/>
<polygon fill="#000000" stroke="#000000" points="627.2503,-368.0654 637.7795,-366.888 628.8142,-361.2423 627.2503,-368.0654"/>
</g>
<!-- c6 -->
<g id="node15" class="node">
<title>c6</title>
<polygon fill="#ffffff" stroke="#7f7f7f" points="698.4281,-335.6 644.4281,-335.6 644.4281,-299.6 698.4281,-299.6 698.4281,-335.6"/>
<text text-anchor="middle" x="671.4281" y="-312.8" font-family="Times,serif" font-size="16.00" fill="#000000">Mill</text>
</g>
<!-- b3&#45;&gt;c6 -->
<g id="edge20" class="edge">
<title>b3&#45;&gt;c6</title>
<path fill="none" stroke="#000000" d="M575.9058,-321.7049C596.84,-320.8053 617.2802,-319.9269 633.8454,-319.2151"/>
<polygon fill="#000000" stroke="#000000" points="634.2973,-322.699 644.1377,-318.7728 633.9967,-315.7054 634.2973,-322.699"/>
</g>
<!-- b4&#45;&gt;b5 -->
<!-- c7 -->
<g id="node16" class="node">
<title>c7</title>
<polygon fill="#ffffff" stroke="#7f7f7f" points="708.1965,-243.6 634.6598,-243.6 634.6598,-207.6 708.1965,-207.6 708.1965,-243.6"/>
<text text-anchor="middle" x="671.4281" y="-220.8" font-family="Times,serif" font-size="16.00" fill="#000000">Bentham</text>
</g>
<!-- b4&#45;&gt;c7 -->
<g id="edge21" class="edge">
<title>b4&#45;&gt;c7</title>
<path fill="none" stroke="#000000" d="M534.6585,-204.0492C564.3831,-208.7329 597.9214,-214.0175 624.3472,-218.1814"/>
<polygon fill="#000000" stroke="#000000" points="624.0463,-221.6771 634.4692,-219.7764 625.1359,-214.7625 624.0463,-221.6771"/>
</g>
<!-- c8 -->
<g id="node17" class="node">
<title>c8</title>
<polygon fill="#ffffff" stroke="#7f7f7f" points="698.4281,-189.6 644.4281,-189.6 644.4281,-153.6 698.4281,-153.6 698.4281,-189.6"/>
<text text-anchor="middle" x="671.4281" y="-166.8" font-family="Times,serif" font-size="16.00" fill="#000000">Kant</text>
</g>
<!-- b4&#45;&gt;c8 -->
<g id="edge22" class="edge">
<title>b4&#45;&gt;c8</title>
<path fill="none" stroke="#000000" d="M537.311,-185.0482C570.2324,-181.7471 607.373,-178.0229 634.2083,-175.3321"/>
<polygon fill="#000000" stroke="#000000" points="634.7153,-178.7989 644.3162,-174.3186 634.0169,-171.8338 634.7153,-178.7989"/>
</g>
<!-- c9 -->
<g id="node18" class="node">
<title>c9</title>
<polygon fill="#ffffff" stroke="#7f7f7f" points="711.2295,-112.0017 631.6268,-112.0017 631.6268,-65.1983 711.2295,-65.1983 711.2295,-112.0017"/>
<text text-anchor="middle" x="671.4281" y="-93.4" font-family="Times,serif" font-size="16.00" fill="#000000">L&#39;éthique</text>
<text text-anchor="middle" x="671.4281" y="-74.2" font-family="Times,serif" font-size="16.00" fill="#000000">animale</text>
</g>
<!-- b5&#45;&gt;c9 -->
<g id="edge23" class="edge">
<title>b5&#45;&gt;c9</title>
<path fill="none" stroke="#000000" d="M555.9922,-79.2298C578.5751,-81.0629 601.8301,-82.9505 621.4965,-84.5469"/>
<polygon fill="#000000" stroke="#000000" points="621.4771,-88.0568 631.7275,-85.3774 622.0435,-81.0797 621.4771,-88.0568"/>
</g>
<!-- c10 -->
<g id="node19" class="node">
<title>c10</title>
<polygon fill="#ffffff" stroke="#7f7f7f" points="736.5527,-51.0017 606.3036,-51.0017 606.3036,-4.1983 736.5527,-4.1983 736.5527,-51.0017"/>
<text text-anchor="middle" x="671.4281" y="-32.4" font-family="Times,serif" font-size="16.00" fill="#000000">L&#39;éthique</text>
<text text-anchor="middle" x="671.4281" y="-13.2" font-family="Times,serif" font-size="16.00" fill="#000000">environnementale</text>
</g>
<!-- b5&#45;&gt;c10 -->
<g id="edge24" class="edge">
<title>b5&#45;&gt;c10</title>
<path fill="none" stroke="#000000" d="M549.6016,-53.195C565.1407,-49.9303 581.1966,-46.5571 596.3501,-43.3734"/>
<polygon fill="#000000" stroke="#000000" points="597.0966,-46.7931 606.1633,-41.3117 595.6573,-39.9426 597.0966,-46.7931"/>
</g>
<!-- e1 -->
<g id="node20" class="node">
<title>e1</title>
<path fill="#fafafa" stroke="transparent" d="M873.1448,-675.3004C873.1448,-675.3004 756.6051,-675.3004 756.6051,-675.3004 750.6051,-675.3004 744.6051,-669.3004 744.6051,-663.3004 744.6051,-663.3004 744.6051,-635.8996 744.6051,-635.8996 744.6051,-629.8996 750.6051,-623.8996 756.6051,-623.8996 756.6051,-623.8996 873.1448,-623.8996 873.1448,-623.8996 879.1448,-623.8996 885.1448,-629.8996 885.1448,-635.8996 885.1448,-635.8996 885.1448,-663.3004 885.1448,-663.3004 885.1448,-669.3004 879.1448,-675.3004 873.1448,-675.3004"/>
<text text-anchor="middle" x="814.8749" y="-660.4" font-family="Times,serif" font-size="12.00" fill="#cd2626">Réprimer ses désirs, c&#39;est</text>
<text text-anchor="middle" x="814.8749" y="-646" font-family="Times,serif" font-size="12.00" fill="#cd2626">être faible et soumis aux</text>
<text text-anchor="middle" x="814.8749" y="-631.6" font-family="Times,serif" font-size="12.00" fill="#cd2626">conventions sociales</text>
</g>
<!-- c1&#45;&gt;e1 -->
<!-- c2&#45;&gt;c3 -->
<!-- e2 -->
<g id="node21" class="node">
<title>e2</title>
<path fill="#fafafa" stroke="transparent" d="M872.3189,-610.3004C872.3189,-610.3004 757.431,-610.3004 757.431,-610.3004 751.431,-610.3004 745.431,-604.3004 745.431,-598.3004 745.431,-598.3004 745.431,-570.8996 745.431,-570.8996 745.431,-564.8996 751.431,-558.8996 757.431,-558.8996 757.431,-558.8996 872.3189,-558.8996 872.3189,-558.8996 878.3189,-558.8996 884.3189,-564.8996 884.3189,-570.8996 884.3189,-570.8996 884.3189,-598.3004 884.3189,-598.3004 884.3189,-604.3004 878.3189,-610.3004 872.3189,-610.3004"/>
<text text-anchor="middle" x="814.8749" y="-595.4" font-family="Times,serif" font-size="12.00" fill="#cd2626">L&#39;image du cocher</text>
<text text-anchor="middle" x="814.8749" y="-581" font-family="Times,serif" font-size="12.00" fill="#cd2626">et des deux chevaux,</text>
<text text-anchor="middle" x="814.8749" y="-566.6" font-family="Times,serif" font-size="12.00" fill="#cd2626">l&#39;image du tonneau percé</text>
</g>
<!-- c2&#45;&gt;e2 -->
<!-- e3 -->
<g id="node22" class="node">
<title>e3</title>
<path fill="#fafafa" stroke="transparent" d="M854.507,-539.3004C854.507,-539.3004 775.2429,-539.3004 775.2429,-539.3004 769.2429,-539.3004 763.2429,-533.3004 763.2429,-527.3004 763.2429,-527.3004 763.2429,-499.8996 763.2429,-499.8996 763.2429,-493.8996 769.2429,-487.8996 775.2429,-487.8996 775.2429,-487.8996 854.507,-487.8996 854.507,-487.8996 860.507,-487.8996 866.507,-493.8996 866.507,-499.8996 866.507,-499.8996 866.507,-527.3004 866.507,-527.3004 866.507,-533.3004 860.507,-539.3004 854.507,-539.3004"/>
<text text-anchor="middle" x="814.8749" y="-524.4" font-family="Times,serif" font-size="12.00" fill="#cd2626">La nécessité</text>
<text text-anchor="middle" x="814.8749" y="-510" font-family="Times,serif" font-size="12.00" fill="#cd2626">d&#39;un dépassement</text>
<text text-anchor="middle" x="814.8749" y="-495.6" font-family="Times,serif" font-size="12.00" fill="#cd2626">de l&#39;état de nature</text>
</g>
<!-- c3&#45;&gt;e3 -->
<!-- c4&#45;&gt;c5 -->
<!-- e4 -->
<g id="node23" class="node">
<title>e4</title>
<path fill="#fafafa" stroke="transparent" d="M872.6428,-474.3004C872.6428,-474.3004 757.1071,-474.3004 757.1071,-474.3004 751.1071,-474.3004 745.1071,-468.3004 745.1071,-462.3004 745.1071,-462.3004 745.1071,-434.8996 745.1071,-434.8996 745.1071,-428.8996 751.1071,-422.8996 757.1071,-422.8996 757.1071,-422.8996 872.6428,-422.8996 872.6428,-422.8996 878.6428,-422.8996 884.6428,-428.8996 884.6428,-434.8996 884.6428,-434.8996 884.6428,-462.3004 884.6428,-462.3004 884.6428,-468.3004 878.6428,-474.3004 872.6428,-474.3004"/>
<text text-anchor="middle" x="814.8749" y="-459.4" font-family="Times,serif" font-size="12.00" fill="#cd2626">Il y a une condition</text>
<text text-anchor="middle" x="814.8749" y="-445" font-family="Times,serif" font-size="12.00" fill="#cd2626">sociale de la liberté : la</text>
<text text-anchor="middle" x="814.8749" y="-430.6" font-family="Times,serif" font-size="12.00" fill="#cd2626">reconnaissance des autres</text>
</g>
<!-- c4&#45;&gt;e4 -->
<!-- e5 -->
<g id="node24" class="node">
<title>e5</title>
<path fill="#fafafa" stroke="transparent" d="M866.6729,-403.3004C866.6729,-403.3004 763.077,-403.3004 763.077,-403.3004 757.077,-403.3004 751.077,-397.3004 751.077,-391.3004 751.077,-391.3004 751.077,-363.8996 751.077,-363.8996 751.077,-357.8996 757.077,-351.8996 763.077,-351.8996 763.077,-351.8996 866.6729,-351.8996 866.6729,-351.8996 872.6729,-351.8996 878.6729,-357.8996 878.6729,-363.8996 878.6729,-363.8996 878.6729,-391.3004 878.6729,-391.3004 878.6729,-397.3004 872.6729,-403.3004 866.6729,-403.3004"/>
<text text-anchor="middle" x="814.8749" y="-388.4" font-family="Times,serif" font-size="12.00" fill="#cd2626">Une règle qui est dans</text>
<text text-anchor="middle" x="814.8749" y="-374" font-family="Times,serif" font-size="12.00" fill="#cd2626">mon intérêt n&#39;est pas</text>
<text text-anchor="middle" x="814.8749" y="-359.6" font-family="Times,serif" font-size="12.00" fill="#cd2626">contraire à ma liberté</text>
</g>
<!-- c5&#45;&gt;e5 -->
<!-- c6&#45;&gt;c7 -->
<!-- e6 -->
<g id="node25" class="node">
<title>e6</title>
<path fill="#fafafa" stroke="transparent" d="M871.5182,-338.3004C871.5182,-338.3004 758.2317,-338.3004 758.2317,-338.3004 752.2317,-338.3004 746.2317,-332.3004 746.2317,-326.3004 746.2317,-326.3004 746.2317,-298.8996 746.2317,-298.8996 746.2317,-292.8996 752.2317,-286.8996 758.2317,-286.8996 758.2317,-286.8996 871.5182,-286.8996 871.5182,-286.8996 877.5182,-286.8996 883.5182,-292.8996 883.5182,-298.8996 883.5182,-298.8996 883.5182,-326.3004 883.5182,-326.3004 883.5182,-332.3004 877.5182,-338.3004 871.5182,-338.3004"/>
<text text-anchor="middle" x="814.8749" y="-323.4" font-family="Times,serif" font-size="12.00" fill="#cd2626">La contrainte n&#39;est</text>
<text text-anchor="middle" x="814.8749" y="-309" font-family="Times,serif" font-size="12.00" fill="#cd2626">légitime que dans le cas</text>
<text text-anchor="middle" x="814.8749" y="-294.6" font-family="Times,serif" font-size="12.00" fill="#cd2626">où nous nuisons à autrui</text>
</g>
<!-- c6&#45;&gt;e6 -->
<!-- e7 -->
<g id="node26" class="node">
<title>e7</title>
<path fill="#fafafa" stroke="transparent" d="M858.517,-253.3004C858.517,-253.3004 771.2329,-253.3004 771.2329,-253.3004 765.2329,-253.3004 759.2329,-247.3004 759.2329,-241.3004 759.2329,-241.3004 759.2329,-213.8996 759.2329,-213.8996 759.2329,-207.8996 765.2329,-201.8996 771.2329,-201.8996 771.2329,-201.8996 858.517,-201.8996 858.517,-201.8996 864.517,-201.8996 870.517,-207.8996 870.517,-213.8996 870.517,-213.8996 870.517,-241.3004 870.517,-241.3004 870.517,-247.3004 864.517,-253.3004 858.517,-253.3004"/>
<text text-anchor="middle" x="814.8749" y="-238.4" font-family="Times,serif" font-size="12.00" fill="#cd2626">Le calcul objectif</text>
<text text-anchor="middle" x="814.8749" y="-224" font-family="Times,serif" font-size="12.00" fill="#cd2626">et global de l&#39;utilité</text>
<text text-anchor="middle" x="814.8749" y="-209.6" font-family="Times,serif" font-size="12.00" fill="#cd2626">des conséquences</text>
</g>
<!-- c7&#45;&gt;e7 -->
<!-- c8&#45;&gt;c9 -->
<!-- e8 -->
<g id="node27" class="node">
<title>e8</title>
<path fill="#fafafa" stroke="transparent" d="M841.0215,-187.9005C841.0215,-187.9005 788.7284,-187.9005 788.7284,-187.9005 782.7284,-187.9005 776.7284,-181.9005 776.7284,-175.9005 776.7284,-175.9005 776.7284,-163.2995 776.7284,-163.2995 776.7284,-157.2995 782.7284,-151.2995 788.7284,-151.2995 788.7284,-151.2995 841.0215,-151.2995 841.0215,-151.2995 847.0215,-151.2995 853.0215,-157.2995 853.0215,-163.2995 853.0215,-163.2995 853.0215,-175.9005 853.0215,-175.9005 853.0215,-181.9005 847.0215,-187.9005 841.0215,-187.9005"/>
<text text-anchor="middle" x="814.8749" y="-173.2" font-family="Times,serif" font-size="12.00" fill="#cd2626">Le respect</text>
<text text-anchor="middle" x="814.8749" y="-158.8" font-family="Times,serif" font-size="12.00" fill="#cd2626">de la dignité</text>
</g>
<!-- c8&#45;&gt;e8 -->
<!-- e9 -->
<g id="node28" class="node">
<title>e9</title>
<path fill="#fafafa" stroke="transparent" d="M850.0344,-116.3004C850.0344,-116.3004 779.7155,-116.3004 779.7155,-116.3004 773.7155,-116.3004 767.7155,-110.3004 767.7155,-104.3004 767.7155,-104.3004 767.7155,-76.8996 767.7155,-76.8996 767.7155,-70.8996 773.7155,-64.8996 779.7155,-64.8996 779.7155,-64.8996 850.0344,-64.8996 850.0344,-64.8996 856.0344,-64.8996 862.0344,-70.8996 862.0344,-76.8996 862.0344,-76.8996 862.0344,-104.3004 862.0344,-104.3004 862.0344,-110.3004 856.0344,-116.3004 850.0344,-116.3004"/>
<text text-anchor="middle" x="814.8749" y="-101.4" font-family="Times,serif" font-size="12.00" fill="#cd2626">L&#39;antispécisme,</text>
<text text-anchor="middle" x="814.8749" y="-87" font-family="Times,serif" font-size="12.00" fill="#cd2626">le welfarisme,</text>
<text text-anchor="middle" x="814.8749" y="-72.6" font-family="Times,serif" font-size="12.00" fill="#cd2626">l&#39;abolitionnisme</text>
</g>
<!-- c9&#45;&gt;e9 -->
<!-- e10 -->
<g id="node29" class="node">
<title>e10</title>
<path fill="#fafafa" stroke="transparent" d="M862.0079,-51.3004C862.0079,-51.3004 767.742,-51.3004 767.742,-51.3004 761.742,-51.3004 755.742,-45.3004 755.742,-39.3004 755.742,-39.3004 755.742,-11.8996 755.742,-11.8996 755.742,-5.8996 761.742,.1004 767.742,.1004 767.742,.1004 862.0079,.1004 862.0079,.1004 868.0079,.1004 874.0079,-5.8996 874.0079,-11.8996 874.0079,-11.8996 874.0079,-39.3004 874.0079,-39.3004 874.0079,-45.3004 868.0079,-51.3004 862.0079,-51.3004"/>
<text text-anchor="middle" x="814.8749" y="-36.4" font-family="Times,serif" font-size="12.00" fill="#cd2626">Valeur instrumentale</text>
<text text-anchor="middle" x="814.8749" y="-22" font-family="Times,serif" font-size="12.00" fill="#cd2626">et valeur intrinsèque</text>
<text text-anchor="middle" x="814.8749" y="-7.6" font-family="Times,serif" font-size="12.00" fill="#cd2626">de la nature</text>
</g>
<!-- c10&#45;&gt;e10 -->
</g>
</svg>
