<?xml version="1.0" encoding="UTF-8" standalone="no"?>
<!DOCTYPE svg PUBLIC "-//W3C//DTD SVG 1.1//EN"
 "http://www.w3.org/Graphics/SVG/1.1/DTD/svg11.dtd">
<!-- Generated by graphviz version 2.40.1 (20161225.0304)
 -->
<!-- Title: G Pages: 1 -->
<svg width="738pt" height="707pt"
 viewBox="0.00 0.00 738.45 707.40" xmlns="http://www.w3.org/2000/svg" xmlns:xlink="http://www.w3.org/1999/xlink">
<g id="graph0" class="graph" transform="scale(1 1) rotate(0) translate(21.6 685.8)">
<title>G</title>
<polygon fill="#fafafa" stroke="transparent" points="-21.6,21.6 -21.6,-685.8 716.8487,-685.8 716.8487,21.6 -21.6,21.6"/>
<!-- a1 -->
<g id="node1" class="node">
<title>a1</title>
<ellipse fill="#050505" stroke="#000000" cx="95.7787" cy="-340.2" rx="95.558" ry="51.4548"/>
<text text-anchor="middle" x="95.7787" y="-356.4" font-family="Times,serif" font-size="18.00" fill="#ffffff">Comment</text>
<text text-anchor="middle" x="95.7787" y="-334.8" font-family="Times,serif" font-size="18.00" fill="#ffffff">peut&#45;on parvenir</text>
<text text-anchor="middle" x="95.7787" y="-313.2" font-family="Times,serif" font-size="18.00" fill="#ffffff">à la vérité ?</text>
</g>
<!-- b1 -->
<g id="node2" class="node">
<title>b1</title>
<ellipse fill="#8b0000" stroke="#000000" cx="374.5323" cy="-589.2" rx="99.4747" ry="32.6206"/>
<text text-anchor="middle" x="374.5323" y="-594" font-family="Times,serif" font-size="16.00" fill="#ffffff">À quoi bon</text>
<text text-anchor="middle" x="374.5323" y="-574.8" font-family="Times,serif" font-size="16.00" fill="#ffffff">chercher la vérité ?</text>
</g>
<!-- a1&#45;&gt;b1 -->
<g id="edge1" class="edge">
<title>a1&#45;&gt;b1:w</title>
<path fill="none" stroke="#000000" d="M108.0884,-391.491C128.2574,-461.8199 175.4231,-580.4879 265.5127,-588.7449"/>
<polygon fill="#000000" stroke="#000000" points="265.3838,-592.2425 275.5323,-589.2 265.7015,-585.2497 265.3838,-592.2425"/>
<text text-anchor="start" x="222.6108" y="-583.4" font-family="Times,serif" font-size="14.00" fill="#006400">I</text>
</g>
<!-- b2 -->
<g id="node3" class="node">
<title>b2</title>
<ellipse fill="#8b0000" stroke="#000000" cx="374.5323" cy="-491.2" rx="116.4156" ry="32.6206"/>
<text text-anchor="middle" x="374.5323" y="-496" font-family="Times,serif" font-size="16.00" fill="#ffffff">Peut&#45;on dire « à</text>
<text text-anchor="middle" x="374.5323" y="-476.8" font-family="Times,serif" font-size="16.00" fill="#ffffff">chacun sa vérité ! » ?</text>
</g>
<!-- a1&#45;&gt;b2 -->
<g id="edge2" class="edge">
<title>a1&#45;&gt;b2:w</title>
<path fill="none" stroke="#000000" d="M122.5595,-390.0615C148.646,-431.5533 192.496,-484.7676 248.3442,-490.6627"/>
<polygon fill="#000000" stroke="#000000" points="248.3618,-494.1684 258.5323,-491.2 248.7306,-487.1781 248.3618,-494.1684"/>
<text text-anchor="start" x="220.2805" y="-491.4" font-family="Times,serif" font-size="14.00" fill="#006400">II</text>
</g>
<!-- b3 -->
<g id="node4" class="node">
<title>b3</title>
<ellipse fill="#8b0000" stroke="#000000" cx="374.5323" cy="-398.2" rx="73.4249" ry="32.6206"/>
<text text-anchor="middle" x="374.5323" y="-403" font-family="Times,serif" font-size="16.00" fill="#ffffff">Faut&#45;il douter</text>
<text text-anchor="middle" x="374.5323" y="-383.8" font-family="Times,serif" font-size="16.00" fill="#ffffff">de tout ?</text>
</g>
<!-- a1&#45;&gt;b3 -->
<g id="edge3" class="edge">
<title>a1&#45;&gt;b3:w</title>
<path fill="none" stroke="#000000" d="M171.1608,-372.2536C206.332,-384.6456 249.409,-396.2856 290.4324,-397.987"/>
<polygon fill="#000000" stroke="#000000" points="290.4607,-401.4883 300.5323,-398.2 290.6084,-394.4898 290.4607,-401.4883"/>
<text text-anchor="start" x="217.9502" y="-394.4" font-family="Times,serif" font-size="14.00" fill="#006400">III</text>
</g>
<!-- b4 -->
<g id="node5" class="node">
<title>b4</title>
<ellipse fill="#8b0000" stroke="#000000" cx="374.5323" cy="-305.2" rx="115.0918" ry="32.6206"/>
<text text-anchor="middle" x="374.5323" y="-310" font-family="Times,serif" font-size="16.00" fill="#ffffff">Y a&#45;t&#45;il un fondement</text>
<text text-anchor="middle" x="374.5323" y="-290.8" font-family="Times,serif" font-size="16.00" fill="#ffffff">de nos connaissances ?</text>
</g>
<!-- a1&#45;&gt;b4 -->
<g id="edge4" class="edge">
<title>a1&#45;&gt;b4:w</title>
<path fill="none" stroke="#000000" d="M179.6192,-315.2296C201.7716,-310.3031 226.0048,-306.349 249.2748,-305.4114"/>
<polygon fill="#000000" stroke="#000000" points="249.6066,-308.9054 259.5323,-305.2 249.4623,-301.9069 249.6066,-308.9054"/>
<text text-anchor="start" x="217.5575" y="-313.4" font-family="Times,serif" font-size="14.00" fill="#006400">IV</text>
</g>
<!-- b5 -->
<g id="node6" class="node">
<title>b5</title>
<ellipse fill="#8b0000" stroke="#000000" cx="374.5323" cy="-198.2" rx="107.013" ry="46.2727"/>
<text text-anchor="middle" x="374.5323" y="-212.6" font-family="Times,serif" font-size="16.00" fill="#ffffff">L&#39;expérience est&#45;elle</text>
<text text-anchor="middle" x="374.5323" y="-193.4" font-family="Times,serif" font-size="16.00" fill="#ffffff">le fondement de</text>
<text text-anchor="middle" x="374.5323" y="-174.2" font-family="Times,serif" font-size="16.00" fill="#ffffff">la science ?</text>
</g>
<!-- a1&#45;&gt;b5 -->
<g id="edge5" class="edge">
<title>a1&#45;&gt;b5:w</title>
<path fill="none" stroke="#000000" d="M126.8832,-291.3317C155.5295,-252.5827 201.9277,-204.0618 257.4371,-198.6896"/>
<polygon fill="#000000" stroke="#000000" points="257.7136,-202.1804 267.5323,-198.2 257.3745,-195.1886 257.7136,-202.1804"/>
<text text-anchor="start" x="219.8878" y="-214.4" font-family="Times,serif" font-size="14.00" fill="#006400">V</text>
</g>
<!-- b6 -->
<g id="node7" class="node">
<title>b6</title>
<ellipse fill="#8b0000" stroke="#000000" cx="374.5323" cy="-87.2" rx="106.0574" ry="32.6206"/>
<text text-anchor="middle" x="374.5323" y="-92" font-family="Times,serif" font-size="16.00" fill="#ffffff">Y a&#45;t&#45;il une méthode</text>
<text text-anchor="middle" x="374.5323" y="-72.8" font-family="Times,serif" font-size="16.00" fill="#ffffff">scientifique ?</text>
</g>
<!-- a1&#45;&gt;b6 -->
<g id="edge6" class="edge">
<title>a1&#45;&gt;b6:w</title>
<path fill="none" stroke="#000000" d="M106.4732,-289.0017C124.5947,-217.6733 168.4992,-96.1245 258.5086,-87.6662"/>
<polygon fill="#000000" stroke="#000000" points="258.7058,-91.161 268.5323,-87.2 258.3805,-84.1685 258.7058,-91.161"/>
<text text-anchor="start" x="217.5575" y="-104.4" font-family="Times,serif" font-size="14.00" fill="#006400">VI</text>
</g>
<!-- b1&#45;&gt;b2 -->
<!-- c1 -->
<g id="node8" class="node">
<title>c1</title>
<polygon fill="#ffffff" stroke="#7f7f7f" points="647.884,-664.2 591.1046,-664.2 591.1046,-628.2 647.884,-628.2 647.884,-664.2"/>
<text text-anchor="middle" x="619.4943" y="-641.4" font-family="Times,serif" font-size="16.00" fill="#000000">Platon</text>
</g>
<!-- b1&#45;&gt;c1 -->
<g id="edge12" class="edge">
<title>b1&#45;&gt;c1</title>
<path fill="none" stroke="#000000" d="M455.7609,-608.101C498.0423,-617.9394 547.7499,-629.5059 581.2109,-637.2919"/>
<polygon fill="#000000" stroke="#000000" points="580.5144,-640.7232 591.0475,-639.5807 582.1009,-633.9054 580.5144,-640.7232"/>
</g>
<!-- c2 -->
<g id="node9" class="node">
<title>c2</title>
<polygon fill="#ffffff" stroke="#7f7f7f" points="659.0696,-621.2 579.9191,-621.2 579.9191,-585.2 659.0696,-585.2 659.0696,-621.2"/>
<text text-anchor="middle" x="619.4943" y="-598.4" font-family="Times,serif" font-size="16.00" fill="#000000">Nietzsche</text>
</g>
<!-- b1&#45;&gt;c2 -->
<g id="edge13" class="edge">
<title>b1&#45;&gt;c2</title>
<path fill="none" stroke="#000000" d="M472.4039,-594.7935C505.7273,-596.698 541.5857,-598.7474 569.5545,-600.3459"/>
<polygon fill="#000000" stroke="#000000" points="569.6823,-603.8588 579.8658,-600.9352 570.0818,-596.8702 569.6823,-603.8588"/>
</g>
<!-- b2&#45;&gt;b3 -->
<!-- c3 -->
<g id="node10" class="node">
<title>c3</title>
<polygon fill="#ffffff" stroke="#7f7f7f" points="673.4591,-557.2 565.5295,-557.2 565.5295,-521.2 673.4591,-521.2 673.4591,-557.2"/>
<text text-anchor="middle" x="619.4943" y="-534.4" font-family="Times,serif" font-size="16.00" fill="#000000">Le relativisme</text>
</g>
<!-- b2&#45;&gt;c3 -->
<g id="edge14" class="edge">
<title>b2&#45;&gt;c3</title>
<path fill="none" stroke="#000000" d="M470.2935,-509.9643C498.8432,-515.5586 529.4291,-521.5518 555.429,-526.6465"/>
<polygon fill="#000000" stroke="#000000" points="555.0386,-530.1365 565.525,-528.6248 556.3847,-523.2671 555.0386,-530.1365"/>
</g>
<!-- c4 -->
<g id="node11" class="node">
<title>c4</title>
<polygon fill="#ffffff" stroke="#7f7f7f" points="673.0824,-514.6017 565.9063,-514.6017 565.9063,-467.7983 673.0824,-467.7983 673.0824,-514.6017"/>
<text text-anchor="middle" x="619.4943" y="-496" font-family="Times,serif" font-size="16.00" fill="#000000">Les limites</text>
<text text-anchor="middle" x="619.4943" y="-476.8" font-family="Times,serif" font-size="16.00" fill="#000000">du relativisme</text>
</g>
<!-- b2&#45;&gt;c4 -->
<g id="edge15" class="edge">
<title>b2&#45;&gt;c4</title>
<path fill="none" stroke="#000000" d="M490.9154,-491.2C513.2012,-491.2 535.7569,-491.2 555.6214,-491.2"/>
<polygon fill="#000000" stroke="#000000" points="555.7483,-494.7001 565.7482,-491.2 555.7482,-487.7001 555.7483,-494.7001"/>
</g>
<!-- b3&#45;&gt;b4 -->
<!-- c5 -->
<g id="node12" class="node">
<title>c5</title>
<polygon fill="#ffffff" stroke="#7f7f7f" points="675.0122,-440.2 563.9765,-440.2 563.9765,-404.2 675.0122,-404.2 675.0122,-440.2"/>
<text text-anchor="middle" x="619.4943" y="-417.4" font-family="Times,serif" font-size="16.00" fill="#000000">Le scepticisme</text>
</g>
<!-- b3&#45;&gt;c5 -->
<g id="edge16" class="edge">
<title>b3&#45;&gt;c5</title>
<path fill="none" stroke="#000000" d="M446.3738,-405.2386C480.2777,-408.5603 520.4648,-412.4976 553.5813,-415.7422"/>
<polygon fill="#000000" stroke="#000000" points="553.3235,-419.2336 563.6171,-416.7255 554.0061,-412.267 553.3235,-419.2336"/>
</g>
<!-- c6 -->
<g id="node13" class="node">
<title>c6</title>
<polygon fill="#ffffff" stroke="#7f7f7f" points="674.6349,-397.6017 564.3538,-397.6017 564.3538,-350.7983 674.6349,-350.7983 674.6349,-397.6017"/>
<text text-anchor="middle" x="619.4943" y="-379" font-family="Times,serif" font-size="16.00" fill="#000000">Les limites</text>
<text text-anchor="middle" x="619.4943" y="-359.8" font-family="Times,serif" font-size="16.00" fill="#000000">du scepticisme</text>
</g>
<!-- b3&#45;&gt;c6 -->
<g id="edge17" class="edge">
<title>b3&#45;&gt;c6</title>
<path fill="none" stroke="#000000" d="M446.3738,-391.1614C480.4057,-387.8271 520.7681,-383.8726 553.9559,-380.6211"/>
<polygon fill="#000000" stroke="#000000" points="554.3993,-384.0945 564.0103,-379.636 553.7167,-377.1279 554.3993,-384.0945"/>
</g>
<!-- b4&#45;&gt;b5 -->
<!-- c7 -->
<g id="node14" class="node">
<title>c7</title>
<polygon fill="#ffffff" stroke="#7f7f7f" points="689.4591,-323.2 549.5295,-323.2 549.5295,-287.2 689.4591,-287.2 689.4591,-323.2"/>
<text text-anchor="middle" x="619.4943" y="-300.4" font-family="Times,serif" font-size="16.00" fill="#000000">Le fondationalisme</text>
</g>
<!-- b4&#45;&gt;c7 -->
<g id="edge18" class="edge">
<title>b4&#45;&gt;c7</title>
<path fill="none" stroke="#000000" d="M489.8404,-305.2C506.5347,-305.2 523.4074,-305.2 539.2122,-305.2"/>
<polygon fill="#000000" stroke="#000000" points="539.4313,-308.7001 549.4313,-305.2 539.4313,-301.7001 539.4313,-308.7001"/>
</g>
<!-- c8 -->
<g id="node15" class="node">
<title>c8</title>
<polygon fill="#ffffff" stroke="#7f7f7f" points="681.2715,-280.2 557.7172,-280.2 557.7172,-244.2 681.2715,-244.2 681.2715,-280.2"/>
<text text-anchor="middle" x="619.4943" y="-257.4" font-family="Times,serif" font-size="16.00" fill="#000000">Le cohérentisme</text>
</g>
<!-- b4&#45;&gt;c8 -->
<g id="edge19" class="edge">
<title>b4&#45;&gt;c8</title>
<path fill="none" stroke="#000000" d="M472.7563,-287.958C497.7969,-283.5625 524.2466,-278.9195 547.6892,-274.8045"/>
<polygon fill="#000000" stroke="#000000" points="548.2949,-278.2518 557.5391,-273.0755 547.0846,-271.3572 548.2949,-278.2518"/>
</g>
<!-- b5&#45;&gt;b6 -->
<!-- c9 -->
<g id="node16" class="node">
<title>c9</title>
<polygon fill="#ffffff" stroke="#7f7f7f" points="668.635,-216.2 570.3537,-216.2 570.3537,-180.2 668.635,-180.2 668.635,-216.2"/>
<text text-anchor="middle" x="619.4943" y="-193.4" font-family="Times,serif" font-size="16.00" fill="#000000">L&#39;empirisme</text>
</g>
<!-- b5&#45;&gt;c9 -->
<g id="edge20" class="edge">
<title>b5&#45;&gt;c9</title>
<path fill="none" stroke="#000000" d="M481.9762,-198.2C508.7395,-198.2 536.4752,-198.2 559.9675,-198.2"/>
<polygon fill="#000000" stroke="#000000" points="560.1011,-201.7001 570.1011,-198.2 560.1011,-194.7001 560.1011,-201.7001"/>
</g>
<!-- c10 -->
<g id="node17" class="node">
<title>c10</title>
<polygon fill="#ffffff" stroke="#7f7f7f" points="675.9095,-173.6017 563.0792,-173.6017 563.0792,-126.7983 675.9095,-126.7983 675.9095,-173.6017"/>
<text text-anchor="middle" x="619.4943" y="-155" font-family="Times,serif" font-size="16.00" fill="#000000">Les limites</text>
<text text-anchor="middle" x="619.4943" y="-135.8" font-family="Times,serif" font-size="16.00" fill="#000000">de l&#39;empirisme</text>
</g>
<!-- b5&#45;&gt;c10 -->
<g id="edge21" class="edge">
<title>b5&#45;&gt;c10</title>
<path fill="none" stroke="#000000" d="M472.4039,-179.0222C499.4602,-173.7205 528.1877,-168.0914 553.0065,-163.2282"/>
<polygon fill="#000000" stroke="#000000" points="553.8875,-166.6222 563.0278,-161.2645 552.5414,-159.7529 553.8875,-166.6222"/>
</g>
<!-- c11 -->
<g id="node18" class="node">
<title>c11</title>
<polygon fill="#ffffff" stroke="#7f7f7f" points="695.0039,-99.6017 543.9847,-99.6017 543.9847,-52.7983 695.0039,-52.7983 695.0039,-99.6017"/>
<text text-anchor="middle" x="619.4943" y="-81" font-family="Times,serif" font-size="16.00" fill="#000000">Le falsificationnisme</text>
<text text-anchor="middle" x="619.4943" y="-61.8" font-family="Times,serif" font-size="16.00" fill="#000000">de Popper</text>
</g>
<!-- b6&#45;&gt;c11 -->
<g id="edge22" class="edge">
<title>b6&#45;&gt;c11</title>
<path fill="none" stroke="#000000" d="M479.4843,-82.4871C497.504,-81.678 516.0405,-80.8456 533.4902,-80.062"/>
<polygon fill="#000000" stroke="#000000" points="533.7936,-83.552 543.6265,-79.6068 533.4795,-76.5591 533.7936,-83.552"/>
</g>
<!-- c12 -->
<g id="node19" class="node">
<title>c12</title>
<polygon fill="#ffffff" stroke="#7f7f7f" points="684.6269,-46.6017 554.3618,-46.6017 554.3618,.2017 684.6269,.2017 684.6269,-46.6017"/>
<text text-anchor="middle" x="619.4943" y="-28" font-family="Times,serif" font-size="16.00" fill="#000000">Les limites du</text>
<text text-anchor="middle" x="619.4943" y="-8.8" font-family="Times,serif" font-size="16.00" fill="#000000">falsificationnisme</text>
</g>
<!-- b6&#45;&gt;c12 -->
<g id="edge23" class="edge">
<title>b6&#45;&gt;c12</title>
<path fill="none" stroke="#000000" d="M455.7609,-65.9778C484.4146,-58.4916 516.4788,-50.1144 544.5857,-42.771"/>
<polygon fill="#000000" stroke="#000000" points="545.5599,-46.1341 554.3504,-40.2198 543.7904,-39.3614 545.5599,-46.1341"/>
</g>
<!-- c2&#45;&gt;c3 -->
<!-- c4&#45;&gt;c5 -->
<!-- c6&#45;&gt;c7 -->
<!-- c8&#45;&gt;c9 -->
<!-- c10&#45;&gt;c11 -->
</g>
</svg>
