<?xml version="1.0" encoding="UTF-8" standalone="no"?>
<!DOCTYPE svg PUBLIC "-//W3C//DTD SVG 1.1//EN"
 "http://www.w3.org/Graphics/SVG/1.1/DTD/svg11.dtd">
<!-- Generated by graphviz version 2.40.1 (20161225.0304)
 -->
<!-- Title: G Pages: 1 -->
<svg width="957pt" height="692pt"
 viewBox="0.00 0.00 957.35 692.00" xmlns="http://www.w3.org/2000/svg" xmlns:xlink="http://www.w3.org/1999/xlink">
<g id="graph0" class="graph" transform="scale(1 1) rotate(0) translate(21.6 670.4)">
<title>G</title>
<polygon fill="#fafafa" stroke="transparent" points="-21.6,21.6 -21.6,-670.4 935.7509,-670.4 935.7509,21.6 -21.6,21.6"/>
<!-- a1 -->
<g id="node1" class="node">
<title>a1</title>
<ellipse fill="#050505" stroke="#000000" cx="99.3286" cy="-328.4" rx="99.1574" ry="66.5027"/>
<text text-anchor="middle" x="99.3286" y="-355.4" font-family="Times,serif" font-size="18.00" fill="#ffffff">Le langage</text>
<text text-anchor="middle" x="99.3286" y="-333.8" font-family="Times,serif" font-size="18.00" fill="#ffffff">n&#39;est&#45;il qu&#39;un</text>
<text text-anchor="middle" x="99.3286" y="-312.2" font-family="Times,serif" font-size="18.00" fill="#ffffff">simple moyen de</text>
<text text-anchor="middle" x="99.3286" y="-290.6" font-family="Times,serif" font-size="18.00" fill="#ffffff">communication ?</text>
</g>
<!-- p1 -->
<g id="node2" class="node">
<title>p1</title>
<path fill="#fafafa" stroke="#006400" d="M323.7509,-555.8014C323.7509,-555.8014 244.5572,-555.8014 244.5572,-555.8014 238.5572,-555.8014 232.5572,-549.8014 232.5572,-543.8014 232.5572,-543.8014 232.5572,-508.9986 232.5572,-508.9986 232.5572,-502.9986 238.5572,-496.9986 244.5572,-496.9986 244.5572,-496.9986 323.7509,-496.9986 323.7509,-496.9986 329.7509,-496.9986 335.7509,-502.9986 335.7509,-508.9986 335.7509,-508.9986 335.7509,-543.8014 335.7509,-543.8014 335.7509,-549.8014 329.7509,-555.8014 323.7509,-555.8014"/>
<text text-anchor="middle" x="284.154" y="-539" font-family="Times,serif" font-size="14.00" fill="#006400">I – Un moyen</text>
<text text-anchor="middle" x="284.154" y="-522.2" font-family="Times,serif" font-size="14.00" fill="#006400">complexe de</text>
<text text-anchor="middle" x="284.154" y="-505.4" font-family="Times,serif" font-size="14.00" fill="#006400">communication</text>
</g>
<!-- a1&#45;&gt;p1 -->
<g id="edge1" class="edge">
<title>a1&#45;&gt;p1:w</title>
<path fill="none" stroke="#000000" d="M114.4845,-394.6064C132.0451,-452.1664 167.2701,-526.4 232.154,-526.4"/>
</g>
<!-- p2 -->
<g id="node3" class="node">
<title>p2</title>
<path fill="#fafafa" stroke="#006400" d="M328.4656,-357.8014C328.4656,-357.8014 239.8425,-357.8014 239.8425,-357.8014 233.8425,-357.8014 227.8425,-351.8014 227.8425,-345.8014 227.8425,-345.8014 227.8425,-310.9986 227.8425,-310.9986 227.8425,-304.9986 233.8425,-298.9986 239.8425,-298.9986 239.8425,-298.9986 328.4656,-298.9986 328.4656,-298.9986 334.4656,-298.9986 340.4656,-304.9986 340.4656,-310.9986 340.4656,-310.9986 340.4656,-345.8014 340.4656,-345.8014 340.4656,-351.8014 334.4656,-357.8014 328.4656,-357.8014"/>
<text text-anchor="middle" x="284.154" y="-341" font-family="Times,serif" font-size="14.00" fill="#006400">II – Un</text>
<text text-anchor="middle" x="284.154" y="-324.2" font-family="Times,serif" font-size="14.00" fill="#006400">obstacle à la</text>
<text text-anchor="middle" x="284.154" y="-307.4" font-family="Times,serif" font-size="14.00" fill="#006400">communication ?</text>
</g>
<!-- a1&#45;&gt;p2 -->
<g id="edge2" class="edge">
<title>a1&#45;&gt;p2:w</title>
<path fill="none" stroke="#000000" d="M198.8474,-328.4C208.7488,-328.4 218.6487,-328.4 228.154,-328.4"/>
</g>
<!-- p3 -->
<g id="node4" class="node">
<title>p3</title>
<path fill="#fafafa" stroke="#006400" d="M331.6478,-187.8014C331.6478,-187.8014 236.6602,-187.8014 236.6602,-187.8014 230.6602,-187.8014 224.6602,-181.8014 224.6602,-175.8014 224.6602,-175.8014 224.6602,-140.9986 224.6602,-140.9986 224.6602,-134.9986 230.6602,-128.9986 236.6602,-128.9986 236.6602,-128.9986 331.6478,-128.9986 331.6478,-128.9986 337.6478,-128.9986 343.6478,-134.9986 343.6478,-140.9986 343.6478,-140.9986 343.6478,-175.8014 343.6478,-175.8014 343.6478,-181.8014 337.6478,-187.8014 331.6478,-187.8014"/>
<text text-anchor="middle" x="284.154" y="-171" font-family="Times,serif" font-size="14.00" fill="#006400">III – Un élément</text>
<text text-anchor="middle" x="284.154" y="-154.2" font-family="Times,serif" font-size="14.00" fill="#006400">constitutif de la</text>
<text text-anchor="middle" x="284.154" y="-137.4" font-family="Times,serif" font-size="14.00" fill="#006400">subjectivité</text>
</g>
<!-- a1&#45;&gt;p3 -->
<g id="edge3" class="edge">
<title>a1&#45;&gt;p3:w</title>
<path fill="none" stroke="#000000" d="M118.7896,-262.6736C137.4741,-214.8356 170.994,-158.4 225.154,-158.4"/>
</g>
<!-- p1&#45;&gt;p2 -->
<!-- b1 -->
<g id="node5" class="node">
<title>b1</title>
<ellipse fill="#8b0000" stroke="#000000" cx="488.7243" cy="-570.4" rx="101.3528" ry="32.6206"/>
<text text-anchor="middle" x="488.7243" y="-575.2" font-family="Times,serif" font-size="16.00" fill="#ffffff">Les animaux ont&#45;ils</text>
<text text-anchor="middle" x="488.7243" y="-556" font-family="Times,serif" font-size="16.00" fill="#ffffff">un langage ?</text>
</g>
<!-- p1&#45;&gt;b1 -->
<g id="edge6" class="edge">
<title>p1&#45;&gt;b1:w</title>
<path fill="none" stroke="#000000" d="M331.1549,-555.6262C345.3628,-562.3563 361.5028,-568.0714 377.6708,-569.8372"/>
<polygon fill="#000000" stroke="#000000" points="377.5443,-573.3355 387.7243,-570.4 377.9356,-566.3464 377.5443,-573.3355"/>
</g>
<!-- b2 -->
<g id="node6" class="node">
<title>b2</title>
<ellipse fill="#8b0000" stroke="#000000" cx="488.7243" cy="-449.4" rx="101.5545" ry="46.2727"/>
<text text-anchor="middle" x="488.7243" y="-463.8" font-family="Times,serif" font-size="16.00" fill="#ffffff">Qu&#39;est&#45;ce qui fait</text>
<text text-anchor="middle" x="488.7243" y="-444.6" font-family="Times,serif" font-size="16.00" fill="#ffffff">le sens d&#39;un énoncé</text>
<text text-anchor="middle" x="488.7243" y="-425.4" font-family="Times,serif" font-size="16.00" fill="#ffffff">linguistique ?</text>
</g>
<!-- p1&#45;&gt;b2 -->
<g id="edge7" class="edge">
<title>p1&#45;&gt;b2:w</title>
<path fill="none" stroke="#000000" d="M305.9213,-496.85C322.6629,-477.4258 347.7403,-454.7839 376.4325,-450.2239"/>
<polygon fill="#000000" stroke="#000000" points="377.0355,-453.6869 386.7243,-449.4 376.4769,-446.7092 377.0355,-453.6869"/>
</g>
<!-- p2&#45;&gt;p3 -->
<!-- b3 -->
<g id="node7" class="node">
<title>b3</title>
<ellipse fill="#8b0000" stroke="#000000" cx="488.7243" cy="-328.4" rx="105.6048" ry="32.6206"/>
<text text-anchor="middle" x="488.7243" y="-333.2" font-family="Times,serif" font-size="16.00" fill="#ffffff">Le langage permet&#45;il</text>
<text text-anchor="middle" x="488.7243" y="-314" font-family="Times,serif" font-size="16.00" fill="#ffffff">de tout exprimer ?</text>
</g>
<!-- p2&#45;&gt;b3 -->
<g id="edge8" class="edge">
<title>p2&#45;&gt;b3:w</title>
<path fill="none" stroke="#000000" d="M340.7094,-328.4C351.1287,-328.4 362.0716,-328.4 372.6817,-328.4"/>
<polygon fill="#000000" stroke="#000000" points="372.7243,-331.9001 382.7243,-328.4 372.7243,-324.9001 372.7243,-331.9001"/>
</g>
<!-- b4 -->
<g id="node8" class="node">
<title>b4</title>
<ellipse fill="#8b0000" stroke="#000000" cx="488.7243" cy="-207.4" rx="92.0854" ry="46.2727"/>
<text text-anchor="middle" x="488.7243" y="-221.8" font-family="Times,serif" font-size="16.00" fill="#ffffff">La parole</text>
<text text-anchor="middle" x="488.7243" y="-202.6" font-family="Times,serif" font-size="16.00" fill="#ffffff">est&#45;elle ce qui fait</text>
<text text-anchor="middle" x="488.7243" y="-183.4" font-family="Times,serif" font-size="16.00" fill="#ffffff">de moi un sujet ?</text>
</g>
<!-- p3&#45;&gt;b4 -->
<g id="edge9" class="edge">
<title>p3&#45;&gt;b4:w</title>
<path fill="none" stroke="#000000" d="M328.5462,-187.6111C345.7285,-196.629 366.1783,-204.762 386.6735,-206.8711"/>
<polygon fill="#000000" stroke="#000000" points="386.5542,-210.3695 396.7243,-207.4 386.9221,-203.3792 386.5542,-210.3695"/>
</g>
<!-- b5 -->
<g id="node9" class="node">
<title>b5</title>
<ellipse fill="#8b0000" stroke="#000000" cx="488.7243" cy="-73.4" rx="119.1468" ry="46.2727"/>
<text text-anchor="middle" x="488.7243" y="-87.8" font-family="Times,serif" font-size="16.00" fill="#ffffff">Sommes&#45;nous</text>
<text text-anchor="middle" x="488.7243" y="-68.6" font-family="Times,serif" font-size="16.00" fill="#ffffff">prisonniers de la langue</text>
<text text-anchor="middle" x="488.7243" y="-49.4" font-family="Times,serif" font-size="16.00" fill="#ffffff">que nous parlons ?</text>
</g>
<!-- p3&#45;&gt;b5 -->
<g id="edge10" class="edge">
<title>p3&#45;&gt;b5:w</title>
<path fill="none" stroke="#000000" d="M298.4465,-129.1478C311.2368,-107.1536 332.2088,-79.8998 359.7223,-74.3956"/>
<polygon fill="#000000" stroke="#000000" points="360.1202,-77.8734 369.7243,-73.4 359.4268,-70.9078 360.1202,-77.8734"/>
</g>
<!-- b1&#45;&gt;b2 -->
<!-- c1 -->
<g id="node10" class="node">
<title>c1</title>
<polygon fill="#ffffff" stroke="#7f7f7f" points="739.1519,-644.4 653.5107,-644.4 653.5107,-608.4 739.1519,-608.4 739.1519,-644.4"/>
<text text-anchor="middle" x="696.3313" y="-621.6" font-family="Times,serif" font-size="16.00" fill="#000000">Montaigne</text>
</g>
<!-- b1&#45;&gt;c1 -->
<g id="edge15" class="edge">
<title>b1&#45;&gt;c1</title>
<path fill="none" stroke="#000000" d="M566.6202,-591.4117C592.393,-598.3636 620.4421,-605.9296 643.8427,-612.2417"/>
<polygon fill="#000000" stroke="#000000" points="643.0003,-615.6395 653.5667,-614.8647 644.8233,-608.881 643.0003,-615.6395"/>
</g>
<!-- c2 -->
<g id="node11" class="node">
<title>c2</title>
<polygon fill="#ffffff" stroke="#7f7f7f" points="739.9241,-587.4 652.7385,-587.4 652.7385,-551.4 739.9241,-551.4 739.9241,-587.4"/>
<text text-anchor="middle" x="696.3313" y="-564.6" font-family="Times,serif" font-size="16.00" fill="#000000">Benveniste</text>
</g>
<!-- b1&#45;&gt;c2 -->
<g id="edge16" class="edge">
<title>b1&#45;&gt;c2</title>
<path fill="none" stroke="#000000" d="M590.0951,-569.9117C608.164,-569.8247 626.3313,-569.7372 642.4054,-569.6598"/>
<polygon fill="#000000" stroke="#000000" points="642.661,-573.1587 652.644,-569.6104 642.6272,-566.1587 642.661,-573.1587"/>
</g>
<!-- b2&#45;&gt;b3 -->
<!-- c3 -->
<g id="node12" class="node">
<title>c3</title>
<polygon fill="#ffffff" stroke="#7f7f7f" points="741.5299,-509.8017 651.1327,-509.8017 651.1327,-462.9983 741.5299,-462.9983 741.5299,-509.8017"/>
<text text-anchor="middle" x="696.3313" y="-491.2" font-family="Times,serif" font-size="16.00" fill="#000000">Le modèle</text>
<text text-anchor="middle" x="696.3313" y="-472" font-family="Times,serif" font-size="16.00" fill="#000000">du code</text>
</g>
<!-- b2&#45;&gt;c3 -->
<g id="edge17" class="edge">
<title>b2&#45;&gt;c3</title>
<path fill="none" stroke="#000000" d="M583.718,-466.3299C603.3534,-469.8294 623.4123,-473.4043 641.0571,-476.549"/>
<polygon fill="#000000" stroke="#000000" points="640.6867,-480.038 651.1457,-478.347 641.915,-473.1466 640.6867,-480.038"/>
</g>
<!-- c4 -->
<g id="node13" class="node">
<title>c4</title>
<polygon fill="#ffffff" stroke="#7f7f7f" points="749.3188,-449.8017 643.3438,-449.8017 643.3438,-402.9983 749.3188,-402.9983 749.3188,-449.8017"/>
<text text-anchor="middle" x="696.3313" y="-431.2" font-family="Times,serif" font-size="16.00" fill="#000000">Le modèle</text>
<text text-anchor="middle" x="696.3313" y="-412" font-family="Times,serif" font-size="16.00" fill="#000000">de l&#39;inférence</text>
</g>
<!-- b2&#45;&gt;c4 -->
<g id="edge18" class="edge">
<title>b2&#45;&gt;c4</title>
<path fill="none" stroke="#000000" d="M587.6636,-438.4389C603.1267,-436.7258 618.7341,-434.9967 633.1091,-433.4042"/>
<polygon fill="#000000" stroke="#000000" points="633.7851,-436.8508 643.3389,-432.2708 633.0142,-429.8933 633.7851,-436.8508"/>
</g>
<!-- b3&#45;&gt;b4 -->
<!-- c5 -->
<g id="node14" class="node">
<title>c5</title>
<polygon fill="#ffffff" stroke="#7f7f7f" points="731.1536,-361.4 661.509,-361.4 661.509,-325.4 731.1536,-325.4 731.1536,-361.4"/>
<text text-anchor="middle" x="696.3313" y="-338.6" font-family="Times,serif" font-size="16.00" fill="#000000">Bergson</text>
</g>
<!-- b3&#45;&gt;c5 -->
<g id="edge19" class="edge">
<title>b3&#45;&gt;c5</title>
<path fill="none" stroke="#000000" d="M591.6155,-335.8341C612.3869,-337.3349 633.207,-338.8391 650.7486,-340.1066"/>
<polygon fill="#000000" stroke="#000000" points="650.991,-343.6331 661.2173,-340.8629 651.4956,-336.6513 650.991,-343.6331"/>
</g>
<!-- c6 -->
<g id="node15" class="node">
<title>c6</title>
<polygon fill="#ffffff" stroke="#7f7f7f" points="724.3057,-308.4 668.3569,-308.4 668.3569,-272.4 724.3057,-272.4 724.3057,-308.4"/>
<text text-anchor="middle" x="696.3313" y="-285.6" font-family="Times,serif" font-size="16.00" fill="#000000">Searle</text>
</g>
<!-- b3&#45;&gt;c6 -->
<g id="edge20" class="edge">
<title>b3&#45;&gt;c6</title>
<path fill="none" stroke="#000000" d="M579.7838,-311.7326C607.2472,-306.7058 635.9189,-301.4578 657.952,-297.4249"/>
<polygon fill="#000000" stroke="#000000" points="658.6832,-300.8493 667.8896,-295.6059 657.4228,-293.9637 658.6832,-300.8493"/>
</g>
<!-- b4&#45;&gt;b5 -->
<!-- c7 -->
<g id="node16" class="node">
<title>c7</title>
<polygon fill="#ffffff" stroke="#7f7f7f" points="739.9241,-230.4 652.7385,-230.4 652.7385,-194.4 739.9241,-194.4 739.9241,-230.4"/>
<text text-anchor="middle" x="696.3313" y="-207.6" font-family="Times,serif" font-size="16.00" fill="#000000">Benveniste</text>
</g>
<!-- b4&#45;&gt;c7 -->
<g id="edge21" class="edge">
<title>b4&#45;&gt;c7</title>
<path fill="none" stroke="#000000" d="M580.6904,-209.6149C601.8298,-210.124 623.6327,-210.6491 642.5305,-211.1043"/>
<polygon fill="#000000" stroke="#000000" points="642.6264,-214.6075 652.7078,-211.3494 642.795,-207.6095 642.6264,-214.6075"/>
</g>
<!-- c8 -->
<g id="node17" class="node">
<title>c8</title>
<polygon fill="#ffffff" stroke="#7f7f7f" points="724.3233,-176.4 668.3393,-176.4 668.3393,-140.4 724.3233,-140.4 724.3233,-176.4"/>
<text text-anchor="middle" x="696.3313" y="-153.6" font-family="Times,serif" font-size="16.00" fill="#000000">Butler</text>
</g>
<!-- b4&#45;&gt;c8 -->
<g id="edge22" class="edge">
<title>b4&#45;&gt;c8</title>
<path fill="none" stroke="#000000" d="M572.2686,-187.6816C602.0424,-180.6543 634.1299,-173.081 658.2118,-167.3971"/>
<polygon fill="#000000" stroke="#000000" points="659.0838,-170.7875 668.0124,-165.0839 657.4758,-163.9747 659.0838,-170.7875"/>
</g>
<!-- c9 -->
<g id="node18" class="node">
<title>c9</title>
<polygon fill="#ffffff" stroke="#7f7f7f" points="758.8985,-98.8017 633.7641,-98.8017 633.7641,-51.9983 758.8985,-51.9983 758.8985,-98.8017"/>
<text text-anchor="middle" x="696.3313" y="-80.2" font-family="Times,serif" font-size="16.00" fill="#000000">Le déterminisme</text>
<text text-anchor="middle" x="696.3313" y="-61" font-family="Times,serif" font-size="16.00" fill="#000000">linguistique</text>
</g>
<!-- b5&#45;&gt;c9 -->
<g id="edge23" class="edge">
<title>b5&#45;&gt;c9</title>
<path fill="none" stroke="#000000" d="M607.9862,-74.5489C613.1908,-74.5991 618.3424,-74.6487 623.387,-74.6973"/>
<polygon fill="#000000" stroke="#000000" points="623.541,-78.1988 633.5742,-74.7954 623.6085,-71.1992 623.541,-78.1988"/>
</g>
<!-- c10 -->
<g id="node19" class="node">
<title>c10</title>
<polygon fill="#ffffff" stroke="#7f7f7f" points="723.5333,-37.4 669.1293,-37.4 669.1293,-1.4 723.5333,-1.4 723.5333,-37.4"/>
<text text-anchor="middle" x="696.3313" y="-14.6" font-family="Times,serif" font-size="16.00" fill="#000000">Hegel</text>
</g>
<!-- b5&#45;&gt;c10 -->
<g id="edge24" class="edge">
<title>b5&#45;&gt;c10</title>
<path fill="none" stroke="#000000" d="M587.9674,-47.5862C613.3574,-40.9821 639.1119,-34.2832 659.1392,-29.0739"/>
<polygon fill="#000000" stroke="#000000" points="660.2609,-32.3987 669.0578,-26.494 658.4987,-25.6241 660.2609,-32.3987"/>
</g>
<!-- e1 -->
<g id="node20" class="node">
<title>e1</title>
<path fill="#fafafa" stroke="transparent" d="M879.3188,-648.7005C879.3188,-648.7005 801.697,-648.7005 801.697,-648.7005 795.697,-648.7005 789.697,-642.7005 789.697,-636.7005 789.697,-636.7005 789.697,-624.0995 789.697,-624.0995 789.697,-618.0995 795.697,-612.0995 801.697,-612.0995 801.697,-612.0995 879.3188,-612.0995 879.3188,-612.0995 885.3188,-612.0995 891.3188,-618.0995 891.3188,-624.0995 891.3188,-624.0995 891.3188,-636.7005 891.3188,-636.7005 891.3188,-642.7005 885.3188,-648.7005 879.3188,-648.7005"/>
<text text-anchor="middle" x="840.5079" y="-634" font-family="Times,serif" font-size="12.00" fill="#cd2626">Un idiome propre</text>
<text text-anchor="middle" x="840.5079" y="-619.6" font-family="Times,serif" font-size="12.00" fill="#cd2626">à chaque espèce</text>
</g>
<!-- c1&#45;&gt;e1 -->
<!-- c2&#45;&gt;c3 -->
<!-- e2 -->
<g id="node21" class="node">
<title>e2</title>
<path fill="#fafafa" stroke="transparent" d="M899.9787,-598.0012C899.9787,-598.0012 781.0371,-598.0012 781.0371,-598.0012 775.0371,-598.0012 769.0371,-592.0012 769.0371,-586.0012 769.0371,-586.0012 769.0371,-544.7988 769.0371,-544.7988 769.0371,-538.7988 775.0371,-532.7988 781.0371,-532.7988 781.0371,-532.7988 899.9787,-532.7988 899.9787,-532.7988 905.9787,-532.7988 911.9787,-538.7988 911.9787,-544.7988 911.9787,-544.7988 911.9787,-586.0012 911.9787,-586.0012 911.9787,-592.0012 905.9787,-598.0012 899.9787,-598.0012"/>
<text text-anchor="middle" x="840.5079" y="-583.4" font-family="Times,serif" font-size="12.00" fill="#cd2626">Le langage comme</text>
<text text-anchor="middle" x="840.5079" y="-569" font-family="Times,serif" font-size="12.00" fill="#cd2626">système articulé</text>
<text text-anchor="middle" x="840.5079" y="-554.6" font-family="Times,serif" font-size="12.00" fill="#cd2626">(phonèmes, morphèmes,</text>
<text text-anchor="middle" x="840.5079" y="-540.2" font-family="Times,serif" font-size="12.00" fill="#cd2626">syntaxe)</text>
</g>
<!-- c2&#45;&gt;e2 -->
<!-- e3 -->
<g id="node22" class="node">
<title>e3</title>
<path fill="#fafafa" stroke="transparent" d="M874.3084,-504.7005C874.3084,-504.7005 806.7074,-504.7005 806.7074,-504.7005 800.7074,-504.7005 794.7074,-498.7005 794.7074,-492.7005 794.7074,-492.7005 794.7074,-480.0995 794.7074,-480.0995 794.7074,-474.0995 800.7074,-468.0995 806.7074,-468.0995 806.7074,-468.0995 874.3084,-468.0995 874.3084,-468.0995 880.3084,-468.0995 886.3084,-474.0995 886.3084,-480.0995 886.3084,-480.0995 886.3084,-492.7005 886.3084,-492.7005 886.3084,-498.7005 880.3084,-504.7005 874.3084,-504.7005"/>
<text text-anchor="middle" x="840.5079" y="-490" font-family="Times,serif" font-size="12.00" fill="#cd2626">Indices, icônes,</text>
<text text-anchor="middle" x="840.5079" y="-475.6" font-family="Times,serif" font-size="12.00" fill="#cd2626">symboles</text>
</g>
<!-- c3&#45;&gt;e3 -->
<!-- c4&#45;&gt;c5 -->
<!-- e4 -->
<g id="node23" class="node">
<title>e4</title>
<path fill="#fafafa" stroke="transparent" d="M890.3219,-452.1004C890.3219,-452.1004 790.6939,-452.1004 790.6939,-452.1004 784.6939,-452.1004 778.6939,-446.1004 778.6939,-440.1004 778.6939,-440.1004 778.6939,-412.6996 778.6939,-412.6996 778.6939,-406.6996 784.6939,-400.6996 790.6939,-400.6996 790.6939,-400.6996 890.3219,-400.6996 890.3219,-400.6996 896.3219,-400.6996 902.3219,-406.6996 902.3219,-412.6996 902.3219,-412.6996 902.3219,-440.1004 902.3219,-440.1004 902.3219,-446.1004 896.3219,-452.1004 890.3219,-452.1004"/>
<text text-anchor="middle" x="840.5079" y="-437.2" font-family="Times,serif" font-size="12.00" fill="#cd2626">L&#39;interprétation,</text>
<text text-anchor="middle" x="840.5079" y="-422.8" font-family="Times,serif" font-size="12.00" fill="#cd2626">en contexte, de</text>
<text text-anchor="middle" x="840.5079" y="-408.4" font-family="Times,serif" font-size="12.00" fill="#cd2626">l&#39;intention du locuteur</text>
</g>
<!-- c4&#45;&gt;e4 -->
<!-- e5 -->
<g id="node24" class="node">
<title>e5</title>
<path fill="#fafafa" stroke="transparent" d="M889.9399,-371.1004C889.9399,-371.1004 791.0759,-371.1004 791.0759,-371.1004 785.0759,-371.1004 779.0759,-365.1004 779.0759,-359.1004 779.0759,-359.1004 779.0759,-331.6996 779.0759,-331.6996 779.0759,-325.6996 785.0759,-319.6996 791.0759,-319.6996 791.0759,-319.6996 889.9399,-319.6996 889.9399,-319.6996 895.9399,-319.6996 901.9399,-325.6996 901.9399,-331.6996 901.9399,-331.6996 901.9399,-359.1004 901.9399,-359.1004 901.9399,-365.1004 895.9399,-371.1004 889.9399,-371.1004"/>
<text text-anchor="middle" x="840.5079" y="-356.2" font-family="Times,serif" font-size="12.00" fill="#cd2626">Le langage comme</text>
<text text-anchor="middle" x="840.5079" y="-341.8" font-family="Times,serif" font-size="12.00" fill="#cd2626">ensemble d&#39;étiquettes</text>
<text text-anchor="middle" x="840.5079" y="-327.4" font-family="Times,serif" font-size="12.00" fill="#cd2626">générales et abstraites</text>
</g>
<!-- c5&#45;&gt;e5 -->
<!-- c6&#45;&gt;c7 -->
<!-- e6 -->
<g id="node25" class="node">
<title>e6</title>
<path fill="#fafafa" stroke="transparent" d="M873.8137,-305.7005C873.8137,-305.7005 807.2021,-305.7005 807.2021,-305.7005 801.2021,-305.7005 795.2021,-299.7005 795.2021,-293.7005 795.2021,-293.7005 795.2021,-281.0995 795.2021,-281.0995 795.2021,-275.0995 801.2021,-269.0995 807.2021,-269.0995 807.2021,-269.0995 873.8137,-269.0995 873.8137,-269.0995 879.8137,-269.0995 885.8137,-275.0995 885.8137,-281.0995 885.8137,-281.0995 885.8137,-293.7005 885.8137,-293.7005 885.8137,-299.7005 879.8137,-305.7005 873.8137,-305.7005"/>
<text text-anchor="middle" x="840.5079" y="-291" font-family="Times,serif" font-size="12.00" fill="#cd2626">Le principe</text>
<text text-anchor="middle" x="840.5079" y="-276.6" font-family="Times,serif" font-size="12.00" fill="#cd2626">d&#39;exprimabilité</text>
</g>
<!-- c6&#45;&gt;e6 -->
<!-- e7 -->
<g id="node26" class="node">
<title>e7</title>
<path fill="#fafafa" stroke="transparent" d="M902.2942,-240.1004C902.2942,-240.1004 778.7216,-240.1004 778.7216,-240.1004 772.7216,-240.1004 766.7216,-234.1004 766.7216,-228.1004 766.7216,-228.1004 766.7216,-200.6996 766.7216,-200.6996 766.7216,-194.6996 772.7216,-188.6996 778.7216,-188.6996 778.7216,-188.6996 902.2942,-188.6996 902.2942,-188.6996 908.2942,-188.6996 914.2942,-194.6996 914.2942,-200.6996 914.2942,-200.6996 914.2942,-228.1004 914.2942,-228.1004 914.2942,-234.1004 908.2942,-240.1004 902.2942,-240.1004"/>
<text text-anchor="middle" x="840.5079" y="-225.2" font-family="Times,serif" font-size="12.00" fill="#cd2626">Le langage rend possible le</text>
<text text-anchor="middle" x="840.5079" y="-210.8" font-family="Times,serif" font-size="12.00" fill="#cd2626">dialogue, qui est constitutif</text>
<text text-anchor="middle" x="840.5079" y="-196.4" font-family="Times,serif" font-size="12.00" fill="#cd2626">de la personne</text>
</g>
<!-- c7&#45;&gt;e7 -->
<!-- c8&#45;&gt;c9 -->
<!-- e8 -->
<g id="node27" class="node">
<title>e8</title>
<path fill="#fafafa" stroke="transparent" d="M878.1593,-174.7005C878.1593,-174.7005 802.8565,-174.7005 802.8565,-174.7005 796.8565,-174.7005 790.8565,-168.7005 790.8565,-162.7005 790.8565,-162.7005 790.8565,-150.0995 790.8565,-150.0995 790.8565,-144.0995 796.8565,-138.0995 802.8565,-138.0995 802.8565,-138.0995 878.1593,-138.0995 878.1593,-138.0995 884.1593,-138.0995 890.1593,-144.0995 890.1593,-150.0995 890.1593,-150.0995 890.1593,-162.7005 890.1593,-162.7005 890.1593,-168.7005 884.1593,-174.7005 878.1593,-174.7005"/>
<text text-anchor="middle" x="840.5079" y="-160" font-family="Times,serif" font-size="12.00" fill="#cd2626">Discours violents</text>
<text text-anchor="middle" x="840.5079" y="-145.6" font-family="Times,serif" font-size="12.00" fill="#cd2626">et invisibilisation</text>
</g>
<!-- c8&#45;&gt;e8 -->
<!-- e9 -->
<g id="node28" class="node">
<title>e9</title>
<path fill="#fafafa" stroke="transparent" d="M875.4731,-102.1004C875.4731,-102.1004 805.5427,-102.1004 805.5427,-102.1004 799.5427,-102.1004 793.5427,-96.1004 793.5427,-90.1004 793.5427,-90.1004 793.5427,-62.6996 793.5427,-62.6996 793.5427,-56.6996 799.5427,-50.6996 805.5427,-50.6996 805.5427,-50.6996 875.4731,-50.6996 875.4731,-50.6996 881.4731,-50.6996 887.4731,-56.6996 887.4731,-62.6996 887.4731,-62.6996 887.4731,-90.1004 887.4731,-90.1004 887.4731,-96.1004 881.4731,-102.1004 875.4731,-102.1004"/>
<text text-anchor="middle" x="840.5079" y="-87.2" font-family="Times,serif" font-size="12.00" fill="#cd2626">L&#39;hypothèse</text>
<text text-anchor="middle" x="840.5079" y="-72.8" font-family="Times,serif" font-size="12.00" fill="#cd2626">de Sapir&#45;Whorf,</text>
<text text-anchor="middle" x="840.5079" y="-58.4" font-family="Times,serif" font-size="12.00" fill="#cd2626">la novlangue</text>
</g>
<!-- c9&#45;&gt;e9 -->
<!-- e10 -->
<g id="node29" class="node">
<title>e10</title>
<path fill="#fafafa" stroke="transparent" d="M889.4871,-36.7005C889.4871,-36.7005 791.5287,-36.7005 791.5287,-36.7005 785.5287,-36.7005 779.5287,-30.7005 779.5287,-24.7005 779.5287,-24.7005 779.5287,-12.0995 779.5287,-12.0995 779.5287,-6.0995 785.5287,-.0995 791.5287,-.0995 791.5287,-.0995 889.4871,-.0995 889.4871,-.0995 895.4871,-.0995 901.4871,-6.0995 901.4871,-12.0995 901.4871,-12.0995 901.4871,-24.7005 901.4871,-24.7005 901.4871,-30.7005 895.4871,-36.7005 889.4871,-36.7005"/>
<text text-anchor="middle" x="840.5079" y="-22" font-family="Times,serif" font-size="12.00" fill="#cd2626">« C&#39;est dans les mots</text>
<text text-anchor="middle" x="840.5079" y="-7.6" font-family="Times,serif" font-size="12.00" fill="#cd2626">que nous pensons »</text>
</g>
<!-- c10&#45;&gt;e10 -->
</g>
</svg>
