<?xml version="1.0" encoding="UTF-8" standalone="no"?>
<!DOCTYPE svg PUBLIC "-//W3C//DTD SVG 1.1//EN"
 "http://www.w3.org/Graphics/SVG/1.1/DTD/svg11.dtd">
<!-- Generated by graphviz version 2.40.1 (20161225.0304)
 -->
<!-- Title: G Pages: 1 -->
<svg width="845pt" height="550pt"
 viewBox="0.00 0.00 845.22 550.40" xmlns="http://www.w3.org/2000/svg" xmlns:xlink="http://www.w3.org/1999/xlink">
<g id="graph0" class="graph" transform="scale(1 1) rotate(0) translate(21.6 528.8)">
<title>G</title>
<polygon fill="#fafafa" stroke="transparent" points="-21.6,21.6 -21.6,-528.8 823.615,-528.8 823.615,21.6 -21.6,21.6"/>
<!-- a1 -->
<g id="node1" class="node">
<title>a1</title>
<ellipse fill="#050505" stroke="#000000" cx="80.238" cy="-276.6" rx="80.4766" ry="51.4548"/>
<text text-anchor="middle" x="80.238" y="-292.8" font-family="Times,serif" font-size="18.00" fill="#ffffff">Le bonheur</text>
<text text-anchor="middle" x="80.238" y="-271.2" font-family="Times,serif" font-size="18.00" fill="#ffffff">n&#39;est&#45;il qu&#39;un</text>
<text text-anchor="middle" x="80.238" y="-249.6" font-family="Times,serif" font-size="18.00" fill="#ffffff">idéal ?</text>
</g>
<!-- p1 -->
<g id="node2" class="node">
<title>p1</title>
<polygon fill="#fafafa" stroke="transparent" points="292.2488,-436.2019 198.5503,-436.2019 198.5503,-394.9981 292.2488,-394.9981 292.2488,-436.2019"/>
<text text-anchor="middle" x="245.3995" y="-419.8" font-family="Times,serif" font-size="14.00" fill="#006400">I – Un idéal</text>
<text text-anchor="middle" x="245.3995" y="-403" font-family="Times,serif" font-size="14.00" fill="#006400">inaccessible ?</text>
</g>
<!-- a1&#45;&gt;p1 -->
<g id="edge1" class="edge">
<title>a1&#45;&gt;p1:w</title>
<path fill="none" stroke="#000000" d="M99.0605,-326.7822C117.6267,-366.5971 150.2565,-415.6 198.3995,-415.6"/>
</g>
<!-- p2 -->
<g id="node3" class="node">
<title>p2</title>
<polygon fill="#fafafa" stroke="transparent" points="304.2468,-297.2019 186.5522,-297.2019 186.5522,-255.9981 304.2468,-255.9981 304.2468,-297.2019"/>
<text text-anchor="middle" x="245.3995" y="-280.8" font-family="Times,serif" font-size="14.00" fill="#006400">II – Les obstacles</text>
<text text-anchor="middle" x="245.3995" y="-264" font-family="Times,serif" font-size="14.00" fill="#006400">au bonheur</text>
</g>
<!-- a1&#45;&gt;p2 -->
<g id="edge2" class="edge">
<title>a1&#45;&gt;p2:w</title>
<path fill="none" stroke="#000000" d="M160.5787,-276.6C169.3189,-276.6 178.0838,-276.6 186.4759,-276.6"/>
</g>
<!-- p3 -->
<g id="node4" class="node">
<title>p3</title>
<polygon fill="#fafafa" stroke="transparent" points="300.4795,-158.0014 190.3195,-158.0014 190.3195,-99.1986 300.4795,-99.1986 300.4795,-158.0014"/>
<text text-anchor="middle" x="245.3995" y="-141.2" font-family="Times,serif" font-size="14.00" fill="#006400">III – Plaisir</text>
<text text-anchor="middle" x="245.3995" y="-124.4" font-family="Times,serif" font-size="14.00" fill="#006400">d&#39;exister ou sens</text>
<text text-anchor="middle" x="245.3995" y="-107.6" font-family="Times,serif" font-size="14.00" fill="#006400">de la vie ?</text>
</g>
<!-- a1&#45;&gt;p3 -->
<g id="edge3" class="edge">
<title>a1&#45;&gt;p3:w</title>
<path fill="none" stroke="#000000" d="M94.9655,-225.6668C110.8398,-182.8557 140.7516,-128.6 190.3995,-128.6"/>
</g>
<!-- p1&#45;&gt;p2 -->
<!-- b1 -->
<g id="node5" class="node">
<title>b1</title>
<ellipse fill="#8b0000" stroke="#000000" cx="433.0403" cy="-434.6" rx="97.9131" ry="32.6206"/>
<text text-anchor="middle" x="433.0403" y="-439.4" font-family="Times,serif" font-size="16.00" fill="#ffffff">Peut&#45;on savoir ce</text>
<text text-anchor="middle" x="433.0403" y="-420.2" font-family="Times,serif" font-size="16.00" fill="#ffffff">qu&#39;est le bonheur ?</text>
</g>
<!-- p1&#45;&gt;b1 -->
<g id="edge6" class="edge">
<title>p1&#45;&gt;b1:w</title>
<path fill="none" stroke="#000000" d="M292.4585,-429.4082C302.7763,-431.6412 313.8705,-433.4714 324.7315,-434.2269"/>
<polygon fill="#000000" stroke="#000000" points="324.9202,-437.7359 335.0403,-434.6 325.1734,-430.7405 324.9202,-437.7359"/>
</g>
<!-- p2&#45;&gt;p3 -->
<!-- b2 -->
<g id="node6" class="node">
<title>b2</title>
<ellipse fill="#8b0000" stroke="#000000" cx="433.0403" cy="-313.6" rx="96.4327" ry="46.2727"/>
<text text-anchor="middle" x="433.0403" y="-328" font-family="Times,serif" font-size="16.00" fill="#ffffff">Que pouvons&#45;nous</text>
<text text-anchor="middle" x="433.0403" y="-308.8" font-family="Times,serif" font-size="16.00" fill="#ffffff">face au tragique</text>
<text text-anchor="middle" x="433.0403" y="-289.6" font-family="Times,serif" font-size="16.00" fill="#ffffff">de l&#39;existence ?</text>
</g>
<!-- p2&#45;&gt;b2 -->
<g id="edge7" class="edge">
<title>p2&#45;&gt;b2:w</title>
<path fill="none" stroke="#000000" d="M278.5357,-297.2636C292.3021,-304.2822 308.9496,-310.8796 325.6559,-312.9401"/>
<polygon fill="#000000" stroke="#000000" points="325.8384,-316.4587 336.0403,-313.6 326.2824,-309.4728 325.8384,-316.4587"/>
</g>
<!-- b3 -->
<g id="node7" class="node">
<title>b3</title>
<ellipse fill="#8b0000" stroke="#000000" cx="433.0403" cy="-192.6" rx="74.088" ry="32.6206"/>
<text text-anchor="middle" x="433.0403" y="-197.4" font-family="Times,serif" font-size="16.00" fill="#ffffff">Le désir est&#45;il</text>
<text text-anchor="middle" x="433.0403" y="-178.2" font-family="Times,serif" font-size="16.00" fill="#ffffff">insatiable ?</text>
</g>
<!-- p2&#45;&gt;b3 -->
<g id="edge8" class="edge">
<title>p2&#45;&gt;b3:w</title>
<path fill="none" stroke="#000000" d="M259.9345,-255.8359C277.6505,-233.0017 309.9487,-198.8029 347.7739,-193.3458"/>
<polygon fill="#000000" stroke="#000000" points="348.3202,-196.8154 358.0403,-192.6 347.8129,-189.8338 348.3202,-196.8154"/>
</g>
<!-- b4 -->
<g id="node8" class="node">
<title>b4</title>
<ellipse fill="#8b0000" stroke="#000000" cx="433.0403" cy="-71.6" rx="102.9348" ry="46.2727"/>
<text text-anchor="middle" x="433.0403" y="-86" font-family="Times,serif" font-size="16.00" fill="#ffffff">Le simple plaisir</text>
<text text-anchor="middle" x="433.0403" y="-66.8" font-family="Times,serif" font-size="16.00" fill="#ffffff">d&#39;exister suffit&#45;il</text>
<text text-anchor="middle" x="433.0403" y="-47.6" font-family="Times,serif" font-size="16.00" fill="#ffffff">pour être heureux ?</text>
</g>
<!-- p3&#45;&gt;b4 -->
<g id="edge9" class="edge">
<title>p3&#45;&gt;b4:w</title>
<path fill="none" stroke="#000000" d="M271.9174,-99.0982C285.007,-87.3087 301.9231,-75.7481 320.2921,-72.4993"/>
<polygon fill="#000000" stroke="#000000" points="320.6756,-75.979 330.3231,-71.6 320.0505,-69.007 320.6756,-75.979"/>
</g>
<!-- b1&#45;&gt;b2 -->
<!-- c1 -->
<g id="node9" class="node">
<title>c1</title>
<polygon fill="#ffffff" stroke="#7f7f7f" points="642.0726,-498.6 588.0726,-498.6 588.0726,-462.6 642.0726,-462.6 642.0726,-498.6"/>
<text text-anchor="middle" x="615.0726" y="-475.8" font-family="Times,serif" font-size="16.00" fill="#000000">Kant</text>
</g>
<!-- b1&#45;&gt;c1 -->
<g id="edge13" class="edge">
<title>b1&#45;&gt;c1</title>
<path fill="none" stroke="#000000" d="M511.2948,-454.3751C534.4923,-460.2372 558.8181,-466.3843 578.0828,-471.2526"/>
<polygon fill="#000000" stroke="#000000" points="577.3907,-474.6876 587.9435,-473.7444 579.1057,-467.901 577.3907,-474.6876"/>
</g>
<!-- c2 -->
<g id="node10" class="node">
<title>c2</title>
<polygon fill="#ffffff" stroke="#7f7f7f" points="667.2664,-448.0017 562.8788,-448.0017 562.8788,-401.1983 667.2664,-401.1983 667.2664,-448.0017"/>
<text text-anchor="middle" x="615.0726" y="-429.4" font-family="Times,serif" font-size="16.00" fill="#000000">Les sagesses</text>
<text text-anchor="middle" x="615.0726" y="-410.2" font-family="Times,serif" font-size="16.00" fill="#000000">eudémonistes</text>
</g>
<!-- b1&#45;&gt;c2 -->
<g id="edge14" class="edge">
<title>b1&#45;&gt;c2</title>
<path fill="none" stroke="#000000" d="M529.6529,-429.2926C537.4922,-428.8619 545.2759,-428.4343 552.7703,-428.0226"/>
<polygon fill="#000000" stroke="#000000" points="552.9956,-431.5156 562.7885,-427.4722 552.6115,-424.5261 552.9956,-431.5156"/>
</g>
<!-- b2&#45;&gt;b3 -->
<!-- c3 -->
<g id="node11" class="node">
<title>c3</title>
<polygon fill="#ffffff" stroke="#7f7f7f" points="643.4432,-359.6 586.7021,-359.6 586.7021,-323.6 643.4432,-323.6 643.4432,-359.6"/>
<text text-anchor="middle" x="615.0726" y="-336.8" font-family="Times,serif" font-size="16.00" fill="#000000">Pascal</text>
</g>
<!-- b2&#45;&gt;c3 -->
<g id="edge15" class="edge">
<title>b2&#45;&gt;c3</title>
<path fill="none" stroke="#000000" d="M525.123,-327.7641C543.3218,-330.5634 561.4638,-333.354 576.6379,-335.688"/>
<polygon fill="#000000" stroke="#000000" points="576.2173,-339.1644 586.6332,-337.2255 577.2816,-332.2458 576.2173,-339.1644"/>
</g>
<!-- c4 -->
<g id="node12" class="node">
<title>c4</title>
<polygon fill="#ffffff" stroke="#7f7f7f" points="652.2697,-305.6 577.8756,-305.6 577.8756,-269.6 652.2697,-269.6 652.2697,-305.6"/>
<text text-anchor="middle" x="615.0726" y="-282.8" font-family="Times,serif" font-size="16.00" fill="#000000">Épictète</text>
</g>
<!-- b2&#45;&gt;c4 -->
<g id="edge16" class="edge">
<title>b2&#45;&gt;c4</title>
<path fill="none" stroke="#000000" d="M525.6563,-300.3715C540.2099,-298.2928 554.7089,-296.2219 567.6643,-294.3714"/>
<polygon fill="#000000" stroke="#000000" points="568.2903,-297.8176 577.6949,-292.9387 567.3005,-290.8879 568.2903,-297.8176"/>
</g>
<!-- b3&#45;&gt;b4 -->
<!-- c5 -->
<g id="node13" class="node">
<title>c5</title>
<polygon fill="#ffffff" stroke="#7f7f7f" points="668.2037,-227.6 561.9416,-227.6 561.9416,-191.6 668.2037,-191.6 668.2037,-227.6"/>
<text text-anchor="middle" x="615.0726" y="-204.8" font-family="Times,serif" font-size="16.00" fill="#000000">Schopenhauer</text>
</g>
<!-- b3&#45;&gt;c5 -->
<g id="edge17" class="edge">
<title>b3&#45;&gt;c5</title>
<path fill="none" stroke="#000000" d="M505.769,-199.3921C520.9763,-200.8123 536.8939,-202.2989 551.7278,-203.6842"/>
<polygon fill="#000000" stroke="#000000" points="551.5201,-207.18 561.8023,-204.6251 552.1711,-200.2103 551.5201,-207.18"/>
</g>
<!-- c6 -->
<g id="node14" class="node">
<title>c6</title>
<polygon fill="#ffffff" stroke="#7f7f7f" points="647.8773,-177.6 582.2679,-177.6 582.2679,-141.6 647.8773,-141.6 647.8773,-177.6"/>
<text text-anchor="middle" x="615.0726" y="-154.8" font-family="Times,serif" font-size="16.00" fill="#000000">Épicure</text>
</g>
<!-- b3&#45;&gt;c6 -->
<g id="edge18" class="edge">
<title>b3&#45;&gt;c6</title>
<path fill="none" stroke="#000000" d="M501.8589,-180.1241C525.566,-175.8263 551.4129,-171.1406 572.4172,-167.3329"/>
<polygon fill="#000000" stroke="#000000" points="573.0935,-170.7674 582.3088,-165.5396 571.8448,-163.8796 573.0935,-170.7674"/>
</g>
<!-- c7 -->
<g id="node15" class="node">
<title>c7</title>
<polygon fill="#ffffff" stroke="#7f7f7f" points="647.8773,-99.6 582.2679,-99.6 582.2679,-63.6 647.8773,-63.6 647.8773,-99.6"/>
<text text-anchor="middle" x="615.0726" y="-76.8" font-family="Times,serif" font-size="16.00" fill="#000000">Épicure</text>
</g>
<!-- b4&#45;&gt;c7 -->
<g id="edge19" class="edge">
<title>b4&#45;&gt;c7</title>
<path fill="none" stroke="#000000" d="M535.2306,-77.2139C548.1278,-77.9224 560.7211,-78.6142 571.9534,-79.2312"/>
<polygon fill="#000000" stroke="#000000" points="572.094,-82.7441 582.271,-79.798 572.478,-75.7547 572.094,-82.7441"/>
</g>
<!-- c8 -->
<g id="node16" class="node">
<title>c8</title>
<polygon fill="#ffffff" stroke="#7f7f7f" points="650.2518,-47.6 579.8935,-47.6 579.8935,-11.6 650.2518,-11.6 650.2518,-47.6"/>
<text text-anchor="middle" x="615.0726" y="-24.8" font-family="Times,serif" font-size="16.00" fill="#000000">J.S. Mill</text>
</g>
<!-- b4&#45;&gt;c8 -->
<g id="edge20" class="edge">
<title>b4&#45;&gt;c8</title>
<path fill="none" stroke="#000000" d="M524.5897,-50.477C540.252,-46.8632 555.8933,-43.2543 569.6582,-40.0784"/>
<polygon fill="#000000" stroke="#000000" points="570.8307,-43.3999 579.7878,-37.7412 569.2569,-36.5791 570.8307,-43.3999"/>
</g>
<!-- e1 -->
<g id="node17" class="node">
<title>e1</title>
<path fill="#fafafa" stroke="transparent" d="M775.3411,-507.3004C775.3411,-507.3004 703.0617,-507.3004 703.0617,-507.3004 697.0617,-507.3004 691.0617,-501.3004 691.0617,-495.3004 691.0617,-495.3004 691.0617,-467.8996 691.0617,-467.8996 691.0617,-461.8996 697.0617,-455.8996 703.0617,-455.8996 703.0617,-455.8996 775.3411,-455.8996 775.3411,-455.8996 781.3411,-455.8996 787.3411,-461.8996 787.3411,-467.8996 787.3411,-467.8996 787.3411,-495.3004 787.3411,-495.3004 787.3411,-501.3004 781.3411,-507.3004 775.3411,-507.3004"/>
<text text-anchor="middle" x="739.2014" y="-492.4" font-family="Times,serif" font-size="12.00" fill="#cd2626">Un idéal, non de</text>
<text text-anchor="middle" x="739.2014" y="-478" font-family="Times,serif" font-size="12.00" fill="#cd2626">la raison, mais</text>
<text text-anchor="middle" x="739.2014" y="-463.6" font-family="Times,serif" font-size="12.00" fill="#cd2626">de l&#39;imagination</text>
</g>
<!-- c1&#45;&gt;e1 -->
<!-- c2&#45;&gt;c3 -->
<!-- e2 -->
<g id="node18" class="node">
<title>e2</title>
<path fill="#fafafa" stroke="transparent" d="M774.1614,-441.9005C774.1614,-441.9005 704.2415,-441.9005 704.2415,-441.9005 698.2415,-441.9005 692.2415,-435.9005 692.2415,-429.9005 692.2415,-429.9005 692.2415,-417.2995 692.2415,-417.2995 692.2415,-411.2995 698.2415,-405.2995 704.2415,-405.2995 704.2415,-405.2995 774.1614,-405.2995 774.1614,-405.2995 780.1614,-405.2995 786.1614,-411.2995 786.1614,-417.2995 786.1614,-417.2995 786.1614,-429.9005 786.1614,-429.9005 786.1614,-435.9005 780.1614,-441.9005 774.1614,-441.9005"/>
<text text-anchor="middle" x="739.2014" y="-427.2" font-family="Times,serif" font-size="12.00" fill="#cd2626">La réflexion sur</text>
<text text-anchor="middle" x="739.2014" y="-412.8" font-family="Times,serif" font-size="12.00" fill="#cd2626">la vie bonne</text>
</g>
<!-- c2&#45;&gt;e2 -->
<!-- e3 -->
<g id="node19" class="node">
<title>e3</title>
<path fill="#fafafa" stroke="transparent" d="M770.1842,-361.9005C770.1842,-361.9005 708.2186,-361.9005 708.2186,-361.9005 702.2186,-361.9005 696.2186,-355.9005 696.2186,-349.9005 696.2186,-349.9005 696.2186,-337.2995 696.2186,-337.2995 696.2186,-331.2995 702.2186,-325.2995 708.2186,-325.2995 708.2186,-325.2995 770.1842,-325.2995 770.1842,-325.2995 776.1842,-325.2995 782.1842,-331.2995 782.1842,-337.2995 782.1842,-337.2995 782.1842,-349.9005 782.1842,-349.9005 782.1842,-355.9005 776.1842,-361.9005 770.1842,-361.9005"/>
<text text-anchor="middle" x="739.2014" y="-347.2" font-family="Times,serif" font-size="12.00" fill="#cd2626">Vanité et</text>
<text text-anchor="middle" x="739.2014" y="-332.8" font-family="Times,serif" font-size="12.00" fill="#cd2626">divertissement</text>
</g>
<!-- c3&#45;&gt;e3 -->
<!-- c4&#45;&gt;c5 -->
<!-- e4 -->
<g id="node20" class="node">
<title>e4</title>
<path fill="#fafafa" stroke="transparent" d="M783.0107,-311.3004C783.0107,-311.3004 695.3922,-311.3004 695.3922,-311.3004 689.3922,-311.3004 683.3922,-305.3004 683.3922,-299.3004 683.3922,-299.3004 683.3922,-271.8996 683.3922,-271.8996 683.3922,-265.8996 689.3922,-259.8996 695.3922,-259.8996 695.3922,-259.8996 783.0107,-259.8996 783.0107,-259.8996 789.0107,-259.8996 795.0107,-265.8996 795.0107,-271.8996 795.0107,-271.8996 795.0107,-299.3004 795.0107,-299.3004 795.0107,-305.3004 789.0107,-311.3004 783.0107,-311.3004"/>
<text text-anchor="middle" x="739.2014" y="-296.4" font-family="Times,serif" font-size="12.00" fill="#cd2626">Ce qui dépend</text>
<text text-anchor="middle" x="739.2014" y="-282" font-family="Times,serif" font-size="12.00" fill="#cd2626">de nous ≠ ce qui ne</text>
<text text-anchor="middle" x="739.2014" y="-267.6" font-family="Times,serif" font-size="12.00" fill="#cd2626">dépend pas de nous</text>
</g>
<!-- c4&#45;&gt;e4 -->
<!-- e5 -->
<g id="node21" class="node">
<title>e5</title>
<path fill="#fafafa" stroke="transparent" d="M773.5136,-228.9005C773.5136,-228.9005 704.8893,-228.9005 704.8893,-228.9005 698.8893,-228.9005 692.8893,-222.9005 692.8893,-216.9005 692.8893,-216.9005 692.8893,-204.2995 692.8893,-204.2995 692.8893,-198.2995 698.8893,-192.2995 704.8893,-192.2995 704.8893,-192.2995 773.5136,-192.2995 773.5136,-192.2995 779.5136,-192.2995 785.5136,-198.2995 785.5136,-204.2995 785.5136,-204.2995 785.5136,-216.9005 785.5136,-216.9005 785.5136,-222.9005 779.5136,-228.9005 773.5136,-228.9005"/>
<text text-anchor="middle" x="739.2014" y="-214.2" font-family="Times,serif" font-size="12.00" fill="#cd2626">Le désir</text>
<text text-anchor="middle" x="739.2014" y="-199.8" font-family="Times,serif" font-size="12.00" fill="#cd2626">comme manque</text>
</g>
<!-- c5&#45;&gt;e5 -->
<!-- c6&#45;&gt;c7 -->
<!-- e6 -->
<g id="node22" class="node">
<title>e6</title>
<path fill="#fafafa" stroke="transparent" d="M771.6707,-177.9005C771.6707,-177.9005 706.7322,-177.9005 706.7322,-177.9005 700.7322,-177.9005 694.7322,-171.9005 694.7322,-165.9005 694.7322,-165.9005 694.7322,-153.2995 694.7322,-153.2995 694.7322,-147.2995 700.7322,-141.2995 706.7322,-141.2995 706.7322,-141.2995 771.6707,-141.2995 771.6707,-141.2995 777.6707,-141.2995 783.6707,-147.2995 783.6707,-153.2995 783.6707,-153.2995 783.6707,-165.9005 783.6707,-165.9005 783.6707,-171.9005 777.6707,-177.9005 771.6707,-177.9005"/>
<text text-anchor="middle" x="739.2014" y="-163.2" font-family="Times,serif" font-size="12.00" fill="#cd2626">Désir vain</text>
<text text-anchor="middle" x="739.2014" y="-148.8" font-family="Times,serif" font-size="12.00" fill="#cd2626">≠ désir naturel</text>
</g>
<!-- c6&#45;&gt;e6 -->
<!-- e7 -->
<g id="node23" class="node">
<title>e7</title>
<path fill="#fafafa" stroke="transparent" d="M758.6874,-101.9005C758.6874,-101.9005 719.7154,-101.9005 719.7154,-101.9005 713.7154,-101.9005 707.7154,-95.9005 707.7154,-89.9005 707.7154,-89.9005 707.7154,-77.2995 707.7154,-77.2995 707.7154,-71.2995 713.7154,-65.2995 719.7154,-65.2995 719.7154,-65.2995 758.6874,-65.2995 758.6874,-65.2995 764.6874,-65.2995 770.6874,-71.2995 770.6874,-77.2995 770.6874,-77.2995 770.6874,-89.9005 770.6874,-89.9005 770.6874,-95.9005 764.6874,-101.9005 758.6874,-101.9005"/>
<text text-anchor="middle" x="739.2014" y="-87.2" font-family="Times,serif" font-size="12.00" fill="#cd2626">Aponie et</text>
<text text-anchor="middle" x="739.2014" y="-72.8" font-family="Times,serif" font-size="12.00" fill="#cd2626">ataraxie</text>
</g>
<!-- c7&#45;&gt;e7 -->
<!-- e8 -->
<g id="node24" class="node">
<title>e8</title>
<path fill="#fafafa" stroke="transparent" d="M789.8292,-51.3004C789.8292,-51.3004 688.5737,-51.3004 688.5737,-51.3004 682.5737,-51.3004 676.5737,-45.3004 676.5737,-39.3004 676.5737,-39.3004 676.5737,-11.8996 676.5737,-11.8996 676.5737,-5.8996 682.5737,.1004 688.5737,.1004 688.5737,.1004 789.8292,.1004 789.8292,.1004 795.8292,.1004 801.8292,-5.8996 801.8292,-11.8996 801.8292,-11.8996 801.8292,-39.3004 801.8292,-39.3004 801.8292,-45.3004 795.8292,-51.3004 789.8292,-51.3004"/>
<text text-anchor="middle" x="739.2014" y="-36.4" font-family="Times,serif" font-size="12.00" fill="#cd2626">« Il vaut mieux être</text>
<text text-anchor="middle" x="739.2014" y="-22" font-family="Times,serif" font-size="12.00" fill="#cd2626">un homme insatisfait</text>
<text text-anchor="middle" x="739.2014" y="-7.6" font-family="Times,serif" font-size="12.00" fill="#cd2626">qu&#39;un porc satisfait »</text>
</g>
<!-- c8&#45;&gt;e8 -->
</g>
</svg>
