<?xml version="1.0" encoding="UTF-8" standalone="no"?>
<!DOCTYPE svg PUBLIC "-//W3C//DTD SVG 1.1//EN"
 "http://www.w3.org/Graphics/SVG/1.1/DTD/svg11.dtd">
<!-- Generated by graphviz version 2.40.1 (20161225.0304)
 -->
<!-- Title: G Pages: 1 -->
<svg width="811pt" height="537pt"
 viewBox="0.00 0.00 810.66 537.20" xmlns="http://www.w3.org/2000/svg" xmlns:xlink="http://www.w3.org/1999/xlink">
<g id="graph0" class="graph" transform="scale(1 1) rotate(0) translate(21.6 515.6)">
<title>G</title>
<polygon fill="#fafafa" stroke="transparent" points="-21.6,21.6 -21.6,-515.6 789.0626,-515.6 789.0626,21.6 -21.6,21.6"/>
<!-- a1 -->
<g id="node1" class="node">
<title>a1</title>
<ellipse fill="#050505" stroke="#000000" cx="53.3706" cy="-237.4" rx="53.2415" ry="36.4089"/>
<text text-anchor="middle" x="53.3706" y="-242.8" font-family="Times,serif" font-size="18.00" fill="#ffffff">Qui</text>
<text text-anchor="middle" x="53.3706" y="-221.2" font-family="Times,serif" font-size="18.00" fill="#ffffff">suis&#45;je ?</text>
</g>
<!-- p1 -->
<g id="node2" class="node">
<title>p1</title>
<path fill="#fafafa" stroke="#006400" d="M228.8398,-381.0019C228.8398,-381.0019 157.9925,-381.0019 157.9925,-381.0019 151.9925,-381.0019 145.9925,-375.0019 145.9925,-369.0019 145.9925,-369.0019 145.9925,-351.7981 145.9925,-351.7981 145.9925,-345.7981 151.9925,-339.7981 157.9925,-339.7981 157.9925,-339.7981 228.8398,-339.7981 228.8398,-339.7981 234.8398,-339.7981 240.8398,-345.7981 240.8398,-351.7981 240.8398,-351.7981 240.8398,-369.0019 240.8398,-369.0019 240.8398,-375.0019 234.8398,-381.0019 228.8398,-381.0019"/>
<text text-anchor="middle" x="193.4162" y="-364.6" font-family="Times,serif" font-size="14.00" fill="#006400">I – Le moi en</text>
<text text-anchor="middle" x="193.4162" y="-347.8" font-family="Times,serif" font-size="14.00" fill="#006400">tant que tel</text>
</g>
<!-- a1&#45;&gt;p1 -->
<g id="edge1" class="edge">
<title>a1&#45;&gt;p1:w</title>
<path fill="none" stroke="#000000" d="M63.5357,-272.9767C76.3538,-309.3033 102.2361,-360.4 146.4162,-360.4"/>
</g>
<!-- p2 -->
<g id="node3" class="node">
<title>p2</title>
<path fill="#fafafa" stroke="#006400" d="M242.2667,-143.8014C242.2667,-143.8014 144.5657,-143.8014 144.5657,-143.8014 138.5657,-143.8014 132.5657,-137.8014 132.5657,-131.8014 132.5657,-131.8014 132.5657,-96.9986 132.5657,-96.9986 132.5657,-90.9986 138.5657,-84.9986 144.5657,-84.9986 144.5657,-84.9986 242.2667,-84.9986 242.2667,-84.9986 248.2667,-84.9986 254.2667,-90.9986 254.2667,-96.9986 254.2667,-96.9986 254.2667,-131.8014 254.2667,-131.8014 254.2667,-137.8014 248.2667,-143.8014 242.2667,-143.8014"/>
<text text-anchor="middle" x="193.4162" y="-127" font-family="Times,serif" font-size="14.00" fill="#006400">II – Le moi dans</text>
<text text-anchor="middle" x="193.4162" y="-110.2" font-family="Times,serif" font-size="14.00" fill="#006400">son rapport aux</text>
<text text-anchor="middle" x="193.4162" y="-93.4" font-family="Times,serif" font-size="14.00" fill="#006400">autres et au monde</text>
</g>
<!-- a1&#45;&gt;p2 -->
<g id="edge2" class="edge">
<title>a1&#45;&gt;p2:w</title>
<path fill="none" stroke="#000000" d="M60.5189,-201.4927C70.0836,-165.1875 90.9349,-114.4 132.7412,-114.4"/>
</g>
<!-- p1&#45;&gt;p2 -->
<!-- b1 -->
<g id="node4" class="node">
<title>b1</title>
<ellipse fill="#8b0000" stroke="#000000" cx="386.5905" cy="-423.4" rx="106.4987" ry="46.2727"/>
<text text-anchor="middle" x="386.5905" y="-437.8" font-family="Times,serif" font-size="16.00" fill="#ffffff">Le corps et l&#39;esprit</text>
<text text-anchor="middle" x="386.5905" y="-418.6" font-family="Times,serif" font-size="16.00" fill="#ffffff">sont&#45;ils deux réalités</text>
<text text-anchor="middle" x="386.5905" y="-399.4" font-family="Times,serif" font-size="16.00" fill="#ffffff">distinctes ?</text>
</g>
<!-- p1&#45;&gt;b1 -->
<g id="edge4" class="edge">
<title>p1&#45;&gt;b1:w</title>
<path fill="none" stroke="#000000" d="M208.8748,-381.0286C222.7319,-397.2489 244.7184,-417.8527 269.9039,-422.459"/>
<polygon fill="#000000" stroke="#000000" points="269.8116,-425.9653 280.0912,-423.4 270.4555,-418.9949 269.8116,-425.9653"/>
</g>
<!-- b2 -->
<g id="node5" class="node">
<title>b2</title>
<ellipse fill="#8b0000" stroke="#000000" cx="386.5905" cy="-302.4" rx="78.2923" ry="32.6206"/>
<text text-anchor="middle" x="386.5905" y="-307.2" font-family="Times,serif" font-size="16.00" fill="#ffffff">Y a&#45;t&#45;il une</text>
<text text-anchor="middle" x="386.5905" y="-288" font-family="Times,serif" font-size="16.00" fill="#ffffff">unité du Moi ?</text>
</g>
<!-- p1&#45;&gt;b2 -->
<g id="edge5" class="edge">
<title>p1&#45;&gt;b2:w</title>
<path fill="none" stroke="#000000" d="M217.4715,-339.7881C237.2049,-324.8103 266.7653,-306.5664 297.2352,-303.0151"/>
<polygon fill="#000000" stroke="#000000" points="297.8157,-306.4869 307.5905,-302.4 297.4005,-299.4992 297.8157,-306.4869"/>
</g>
<!-- b3 -->
<g id="node6" class="node">
<title>b3</title>
<ellipse fill="#8b0000" stroke="#000000" cx="386.5905" cy="-181.4" rx="104.8354" ry="46.2727"/>
<text text-anchor="middle" x="386.5905" y="-195.8" font-family="Times,serif" font-size="16.00" fill="#ffffff">Les autres</text>
<text text-anchor="middle" x="386.5905" y="-176.6" font-family="Times,serif" font-size="16.00" fill="#ffffff">m&#39;empêchent&#45;ils</text>
<text text-anchor="middle" x="386.5905" y="-157.4" font-family="Times,serif" font-size="16.00" fill="#ffffff">d&#39;être moi&#45;même ?</text>
</g>
<!-- p2&#45;&gt;b3 -->
<g id="edge6" class="edge">
<title>p2&#45;&gt;b3:w</title>
<path fill="none" stroke="#000000" d="M215.4362,-143.9822C229.4371,-159.6169 249.1115,-176.4058 271.4884,-180.4744"/>
<polygon fill="#000000" stroke="#000000" points="271.3128,-183.9729 281.5905,-181.4 271.9516,-177.0021 271.3128,-183.9729"/>
</g>
<!-- b4 -->
<g id="node7" class="node">
<title>b4</title>
<ellipse fill="#8b0000" stroke="#000000" cx="386.5905" cy="-47.4" rx="82.4539" ry="46.2727"/>
<text text-anchor="middle" x="386.5905" y="-61.8" font-family="Times,serif" font-size="16.00" fill="#ffffff">Mon identité se</text>
<text text-anchor="middle" x="386.5905" y="-42.6" font-family="Times,serif" font-size="16.00" fill="#ffffff">trouve&#45;t&#45;elle</text>
<text text-anchor="middle" x="386.5905" y="-23.4" font-family="Times,serif" font-size="16.00" fill="#ffffff">en moi ?</text>
</g>
<!-- p2&#45;&gt;b4 -->
<g id="edge7" class="edge">
<title>p2&#45;&gt;b4:w</title>
<path fill="none" stroke="#000000" d="M222.3697,-84.8178C240.8282,-68.8325 266.3277,-51.6407 293.5098,-48.0713"/>
<polygon fill="#000000" stroke="#000000" points="293.8452,-51.5568 303.5905,-47.4 293.38,-44.5722 293.8452,-51.5568"/>
</g>
<!-- b1&#45;&gt;b2 -->
<!-- c1 -->
<g id="node8" class="node">
<title>c1</title>
<polygon fill="#ffffff" stroke="#7f7f7f" points="639.5144,-485.4 519.2812,-485.4 519.2812,-449.4 639.5144,-449.4 639.5144,-485.4"/>
<text text-anchor="middle" x="579.3978" y="-462.6" font-family="Times,serif" font-size="16.00" fill="#000000">Le matérialisme</text>
</g>
<!-- b1&#45;&gt;c1 -->
<g id="edge11" class="edge">
<title>b1&#45;&gt;c1</title>
<path fill="none" stroke="#000000" d="M481.0173,-444.9489C490.5467,-447.1235 500.1019,-449.3041 509.3102,-451.4055"/>
<polygon fill="#000000" stroke="#000000" points="508.6203,-454.838 519.1484,-453.6506 510.1777,-448.0134 508.6203,-454.838"/>
</g>
<!-- c2 -->
<g id="node9" class="node">
<title>c2</title>
<polygon fill="#ffffff" stroke="#7f7f7f" points="639.1373,-434.8017 519.6583,-434.8017 519.6583,-387.9983 639.1373,-387.9983 639.1373,-434.8017"/>
<text text-anchor="middle" x="579.3978" y="-416.2" font-family="Times,serif" font-size="16.00" fill="#000000">Les difficultés</text>
<text text-anchor="middle" x="579.3978" y="-397" font-family="Times,serif" font-size="16.00" fill="#000000">du matérialisme</text>
</g>
<!-- b1&#45;&gt;c2 -->
<g id="edge12" class="edge">
<title>b1&#45;&gt;c2</title>
<path fill="none" stroke="#000000" d="M492.0202,-416.8382C497.8446,-416.4757 503.6247,-416.116 509.2744,-415.7644"/>
<polygon fill="#000000" stroke="#000000" points="509.5212,-419.2559 519.2844,-415.1414 509.0863,-412.2694 509.5212,-419.2559"/>
</g>
<!-- b2&#45;&gt;b3 -->
<!-- c3 -->
<g id="node10" class="node">
<title>c3</title>
<polygon fill="#ffffff" stroke="#7f7f7f" points="606.9971,-346.4 551.7985,-346.4 551.7985,-310.4 606.9971,-310.4 606.9971,-346.4"/>
<text text-anchor="middle" x="579.3978" y="-323.6" font-family="Times,serif" font-size="16.00" fill="#000000">Hume</text>
</g>
<!-- b2&#45;&gt;c3 -->
<g id="edge13" class="edge">
<title>b2&#45;&gt;c3</title>
<path fill="none" stroke="#000000" d="M461.4108,-312.4895C488.9491,-316.203 518.9644,-320.2506 541.8294,-323.3339"/>
<polygon fill="#000000" stroke="#000000" points="541.4192,-326.8102 551.7973,-324.6781 542.3547,-319.873 541.4192,-326.8102"/>
</g>
<!-- c4 -->
<g id="node11" class="node">
<title>c4</title>
<polygon fill="#ffffff" stroke="#7f7f7f" points="609.77,-292.4 549.0257,-292.4 549.0257,-256.4 609.77,-256.4 609.77,-292.4"/>
<text text-anchor="middle" x="579.3978" y="-269.6" font-family="Times,serif" font-size="16.00" fill="#000000">Ricœur</text>
</g>
<!-- b2&#45;&gt;c4 -->
<g id="edge14" class="edge">
<title>b2&#45;&gt;c4</title>
<path fill="none" stroke="#000000" d="M460.8591,-291.6145C487.3533,-287.767 516.2055,-283.577 538.8112,-280.2941"/>
<polygon fill="#000000" stroke="#000000" points="539.3339,-283.755 548.7271,-278.8541 538.3279,-276.8277 539.3339,-283.755"/>
</g>
<!-- b3&#45;&gt;b4 -->
<!-- c5 -->
<g id="node12" class="node">
<title>c5</title>
<polygon fill="#ffffff" stroke="#7f7f7f" points="618.9731,-214.4 539.8226,-214.4 539.8226,-178.4 618.9731,-178.4 618.9731,-214.4"/>
<text text-anchor="middle" x="579.3978" y="-191.6" font-family="Times,serif" font-size="16.00" fill="#000000">Nietzsche</text>
</g>
<!-- b3&#45;&gt;c5 -->
<g id="edge15" class="edge">
<title>b3&#45;&gt;c5</title>
<path fill="none" stroke="#000000" d="M490.0494,-189.4489C503.8682,-190.524 517.4926,-191.5839 529.7788,-192.5397"/>
<polygon fill="#000000" stroke="#000000" points="529.5179,-196.0299 539.7593,-193.3162 530.061,-189.051 529.5179,-196.0299"/>
</g>
<!-- c6 -->
<g id="node13" class="node">
<title>c6</title>
<polygon fill="#ffffff" stroke="#7f7f7f" points="614.9971,-164.4 543.7986,-164.4 543.7986,-128.4 614.9971,-128.4 614.9971,-164.4"/>
<text text-anchor="middle" x="579.3978" y="-141.6" font-family="Times,serif" font-size="16.00" fill="#000000">Honneth</text>
</g>
<!-- b3&#45;&gt;c6 -->
<g id="edge16" class="edge">
<title>b3&#45;&gt;c6</title>
<path fill="none" stroke="#000000" d="M483.8414,-163.7462C501.1789,-160.599 518.4798,-157.4584 533.5009,-154.7316"/>
<polygon fill="#000000" stroke="#000000" points="534.2943,-158.1449 543.5083,-152.915 533.044,-151.2574 534.2943,-158.1449"/>
</g>
<!-- c7 -->
<g id="node14" class="node">
<title>c7</title>
<polygon fill="#ffffff" stroke="#7f7f7f" points="607.377,-86.4 551.4186,-86.4 551.4186,-50.4 607.377,-50.4 607.377,-86.4"/>
<text text-anchor="middle" x="579.3978" y="-63.6" font-family="Times,serif" font-size="16.00" fill="#000000">Locke</text>
</g>
<!-- b4&#45;&gt;c7 -->
<g id="edge17" class="edge">
<title>b4&#45;&gt;c7</title>
<path fill="none" stroke="#000000" d="M467.7994,-56.245C493.1552,-59.0067 519.9497,-61.9251 540.927,-64.2099"/>
<polygon fill="#000000" stroke="#000000" points="540.7059,-67.7064 551.0262,-65.3098 541.4639,-60.7476 540.7059,-67.7064"/>
</g>
<!-- c8 -->
<g id="node15" class="node">
<title>c8</title>
<polygon fill="#ffffff" stroke="#7f7f7f" points="606.5966,-36.4 552.1991,-36.4 552.1991,-.4 606.5966,-.4 606.5966,-36.4"/>
<text text-anchor="middle" x="579.3978" y="-13.6" font-family="Times,serif" font-size="16.00" fill="#000000">Sartre</text>
</g>
<!-- b4&#45;&gt;c8 -->
<g id="edge18" class="edge">
<title>b4&#45;&gt;c8</title>
<path fill="none" stroke="#000000" d="M466.4044,-35.3953C492.5792,-31.4583 520.4364,-27.2683 541.9416,-24.0338"/>
<polygon fill="#000000" stroke="#000000" points="542.5851,-27.4764 551.9532,-22.5279 541.5439,-20.5543 542.5851,-27.4764"/>
</g>
<!-- e1 -->
<g id="node16" class="node">
<title>e1</title>
<path fill="#fafafa" stroke="transparent" d="M743.7191,-494.1004C743.7191,-494.1004 671.4493,-494.1004 671.4493,-494.1004 665.4493,-494.1004 659.4493,-488.1004 659.4493,-482.1004 659.4493,-482.1004 659.4493,-454.6996 659.4493,-454.6996 659.4493,-448.6996 665.4493,-442.6996 671.4493,-442.6996 671.4493,-442.6996 743.7191,-442.6996 743.7191,-442.6996 749.7191,-442.6996 755.7191,-448.6996 755.7191,-454.6996 755.7191,-454.6996 755.7191,-482.1004 755.7191,-482.1004 755.7191,-488.1004 749.7191,-494.1004 743.7191,-494.1004"/>
<text text-anchor="middle" x="707.5842" y="-479.2" font-family="Times,serif" font-size="12.00" fill="#cd2626">Une conception</text>
<text text-anchor="middle" x="707.5842" y="-464.8" font-family="Times,serif" font-size="12.00" fill="#cd2626">non&#45;mystérieuse</text>
<text text-anchor="middle" x="707.5842" y="-450.4" font-family="Times,serif" font-size="12.00" fill="#cd2626">de l&#39;esprit</text>
</g>
<!-- c1&#45;&gt;e1 -->
<!-- c2&#45;&gt;c3 -->
<!-- e2 -->
<g id="node17" class="node">
<title>e2</title>
<path fill="#fafafa" stroke="transparent" d="M746.0618,-428.7005C746.0618,-428.7005 669.1067,-428.7005 669.1067,-428.7005 663.1067,-428.7005 657.1067,-422.7005 657.1067,-416.7005 657.1067,-416.7005 657.1067,-404.0995 657.1067,-404.0995 657.1067,-398.0995 663.1067,-392.0995 669.1067,-392.0995 669.1067,-392.0995 746.0618,-392.0995 746.0618,-392.0995 752.0618,-392.0995 758.0618,-398.0995 758.0618,-404.0995 758.0618,-404.0995 758.0618,-416.7005 758.0618,-416.7005 758.0618,-422.7005 752.0618,-428.7005 746.0618,-428.7005"/>
<text text-anchor="middle" x="707.5842" y="-414" font-family="Times,serif" font-size="12.00" fill="#cd2626">L&#39;intentionnalité,</text>
<text text-anchor="middle" x="707.5842" y="-399.6" font-family="Times,serif" font-size="12.00" fill="#cd2626">les qualia</text>
</g>
<!-- c2&#45;&gt;e2 -->
<!-- e3 -->
<g id="node18" class="node">
<title>e3</title>
<path fill="#fafafa" stroke="transparent" d="M731.3965,-356.1004C731.3965,-356.1004 683.7719,-356.1004 683.7719,-356.1004 677.7719,-356.1004 671.7719,-350.1004 671.7719,-344.1004 671.7719,-344.1004 671.7719,-316.6996 671.7719,-316.6996 671.7719,-310.6996 677.7719,-304.6996 683.7719,-304.6996 683.7719,-304.6996 731.3965,-304.6996 731.3965,-304.6996 737.3965,-304.6996 743.3965,-310.6996 743.3965,-316.6996 743.3965,-316.6996 743.3965,-344.1004 743.3965,-344.1004 743.3965,-350.1004 737.3965,-356.1004 731.3965,-356.1004"/>
<text text-anchor="middle" x="707.5842" y="-341.2" font-family="Times,serif" font-size="12.00" fill="#cd2626">Un flux de</text>
<text text-anchor="middle" x="707.5842" y="-326.8" font-family="Times,serif" font-size="12.00" fill="#cd2626">perceptions</text>
<text text-anchor="middle" x="707.5842" y="-312.4" font-family="Times,serif" font-size="12.00" fill="#cd2626">multiples</text>
</g>
<!-- c3&#45;&gt;e3 -->
<!-- c4&#45;&gt;c5 -->
<!-- e4 -->
<g id="node19" class="node">
<title>e4</title>
<path fill="#fafafa" stroke="transparent" d="M727.7296,-290.7005C727.7296,-290.7005 687.4389,-290.7005 687.4389,-290.7005 681.4389,-290.7005 675.4389,-284.7005 675.4389,-278.7005 675.4389,-278.7005 675.4389,-266.0995 675.4389,-266.0995 675.4389,-260.0995 681.4389,-254.0995 687.4389,-254.0995 687.4389,-254.0995 727.7296,-254.0995 727.7296,-254.0995 733.7296,-254.0995 739.7296,-260.0995 739.7296,-266.0995 739.7296,-266.0995 739.7296,-278.7005 739.7296,-278.7005 739.7296,-284.7005 733.7296,-290.7005 727.7296,-290.7005"/>
<text text-anchor="middle" x="707.5842" y="-276" font-family="Times,serif" font-size="12.00" fill="#cd2626">L&#39;identité</text>
<text text-anchor="middle" x="707.5842" y="-261.6" font-family="Times,serif" font-size="12.00" fill="#cd2626">narrative</text>
</g>
<!-- c4&#45;&gt;e4 -->
<!-- e5 -->
<g id="node20" class="node">
<title>e5</title>
<path fill="#fafafa" stroke="transparent" d="M732.0506,-214.7005C732.0506,-214.7005 683.1178,-214.7005 683.1178,-214.7005 677.1178,-214.7005 671.1178,-208.7005 671.1178,-202.7005 671.1178,-202.7005 671.1178,-190.0995 671.1178,-190.0995 671.1178,-184.0995 677.1178,-178.0995 683.1178,-178.0995 683.1178,-178.0995 732.0506,-178.0995 732.0506,-178.0995 738.0506,-178.0995 744.0506,-184.0995 744.0506,-190.0995 744.0506,-190.0995 744.0506,-202.7005 744.0506,-202.7005 744.0506,-208.7005 738.0506,-214.7005 732.0506,-214.7005"/>
<text text-anchor="middle" x="707.5842" y="-200" font-family="Times,serif" font-size="12.00" fill="#cd2626">Le dressage</text>
<text text-anchor="middle" x="707.5842" y="-185.6" font-family="Times,serif" font-size="12.00" fill="#cd2626">social</text>
</g>
<!-- c5&#45;&gt;e5 -->
<!-- c6&#45;&gt;c7 -->
<!-- e6 -->
<g id="node21" class="node">
<title>e6</title>
<path fill="#fafafa" stroke="transparent" d="M745.8702,-163.7005C745.8702,-163.7005 669.2982,-163.7005 669.2982,-163.7005 663.2982,-163.7005 657.2982,-157.7005 657.2982,-151.7005 657.2982,-151.7005 657.2982,-139.0995 657.2982,-139.0995 657.2982,-133.0995 663.2982,-127.0995 669.2982,-127.0995 669.2982,-127.0995 745.8702,-127.0995 745.8702,-127.0995 751.8702,-127.0995 757.8702,-133.0995 757.8702,-139.0995 757.8702,-139.0995 757.8702,-151.7005 757.8702,-151.7005 757.8702,-157.7005 751.8702,-163.7005 745.8702,-163.7005"/>
<text text-anchor="middle" x="707.5842" y="-149" font-family="Times,serif" font-size="12.00" fill="#cd2626">L&#39;importance de</text>
<text text-anchor="middle" x="707.5842" y="-134.6" font-family="Times,serif" font-size="12.00" fill="#cd2626">la reconnaissance</text>
</g>
<!-- c6&#45;&gt;e6 -->
<!-- e7 -->
<g id="node22" class="node">
<title>e7</title>
<path fill="#fafafa" stroke="transparent" d="M731.5618,-87.7005C731.5618,-87.7005 683.6066,-87.7005 683.6066,-87.7005 677.6066,-87.7005 671.6066,-81.7005 671.6066,-75.7005 671.6066,-75.7005 671.6066,-63.0995 671.6066,-63.0995 671.6066,-57.0995 677.6066,-51.0995 683.6066,-51.0995 683.6066,-51.0995 731.5618,-51.0995 731.5618,-51.0995 737.5618,-51.0995 743.5618,-57.0995 743.5618,-63.0995 743.5618,-63.0995 743.5618,-75.7005 743.5618,-75.7005 743.5618,-81.7005 737.5618,-87.7005 731.5618,-87.7005"/>
<text text-anchor="middle" x="707.5842" y="-73" font-family="Times,serif" font-size="12.00" fill="#cd2626">L&#39;identité</text>
<text text-anchor="middle" x="707.5842" y="-58.6" font-family="Times,serif" font-size="12.00" fill="#cd2626">mémorielle</text>
</g>
<!-- c7&#45;&gt;e7 -->
<!-- e8 -->
<g id="node23" class="node">
<title>e8</title>
<path fill="#fafafa" stroke="transparent" d="M755.3413,-36.7005C755.3413,-36.7005 659.8272,-36.7005 659.8272,-36.7005 653.8272,-36.7005 647.8272,-30.7005 647.8272,-24.7005 647.8272,-24.7005 647.8272,-12.0995 647.8272,-12.0995 647.8272,-6.0995 653.8272,-.0995 659.8272,-.0995 659.8272,-.0995 755.3413,-.0995 755.3413,-.0995 761.3413,-.0995 767.3413,-6.0995 767.3413,-12.0995 767.3413,-12.0995 767.3413,-24.7005 767.3413,-24.7005 767.3413,-30.7005 761.3413,-36.7005 755.3413,-36.7005"/>
<text text-anchor="middle" x="707.5842" y="-22" font-family="Times,serif" font-size="12.00" fill="#cd2626">« L&#39;existence</text>
<text text-anchor="middle" x="707.5842" y="-7.6" font-family="Times,serif" font-size="12.00" fill="#cd2626">précèdel&#39;essence »</text>
</g>
<!-- c8&#45;&gt;e8 -->
</g>
</svg>
