<?xml version="1.0" encoding="UTF-8" standalone="no"?>
<!DOCTYPE svg PUBLIC "-//W3C//DTD SVG 1.1//EN"
 "http://www.w3.org/Graphics/SVG/1.1/DTD/svg11.dtd">
<!-- Generated by graphviz version 2.40.1 (20161225.0304)
 -->
<!-- Title: G Pages: 1 -->
<svg width="1020pt" height="731pt"
 viewBox="0.00 0.00 1020.19 730.59" xmlns="http://www.w3.org/2000/svg" xmlns:xlink="http://www.w3.org/1999/xlink">
<g id="graph0" class="graph" transform="scale(1 1) rotate(0) translate(21.6 708.9862)">
<title>G</title>
<polygon fill="#fafafa" stroke="transparent" points="-21.6,21.6 -21.6,-708.9862 998.5874,-708.9862 998.5874,21.6 -21.6,21.6"/>
<!-- a1 -->
<g id="node1" class="node">
<title>a1</title>
<ellipse fill="#050505" stroke="#000000" cx="81.9944" cy="-335.3862" rx="81.9888" ry="51.4548"/>
<text text-anchor="middle" x="81.9944" y="-351.5862" font-family="Times,serif" font-size="18.00" fill="#ffffff">Faut&#45;il</text>
<text text-anchor="middle" x="81.9944" y="-329.9862" font-family="Times,serif" font-size="18.00" fill="#ffffff">avoir peur de</text>
<text text-anchor="middle" x="81.9944" y="-308.3862" font-family="Times,serif" font-size="18.00" fill="#ffffff">la technique ?</text>
</g>
<!-- p1 -->
<g id="node2" class="node">
<title>p1</title>
<path fill="#fafafa" stroke="#006400" d="M319.7471,-649.7876C319.7471,-649.7876 203.9343,-649.7876 203.9343,-649.7876 197.9343,-649.7876 191.9343,-643.7876 191.9343,-637.7876 191.9343,-637.7876 191.9343,-602.9848 191.9343,-602.9848 191.9343,-596.9848 197.9343,-590.9848 203.9343,-590.9848 203.9343,-590.9848 319.7471,-590.9848 319.7471,-590.9848 325.7471,-590.9848 331.7471,-596.9848 331.7471,-602.9848 331.7471,-602.9848 331.7471,-637.7876 331.7471,-637.7876 331.7471,-643.7876 325.7471,-649.7876 319.7471,-649.7876"/>
<text text-anchor="middle" x="261.8407" y="-632.9862" font-family="Times,serif" font-size="14.00" fill="#006400">I – Ce que représente</text>
<text text-anchor="middle" x="261.8407" y="-616.1862" font-family="Times,serif" font-size="14.00" fill="#006400">la technique pour</text>
<text text-anchor="middle" x="261.8407" y="-599.3862" font-family="Times,serif" font-size="14.00" fill="#006400">les êtres humains</text>
</g>
<!-- a1&#45;&gt;p1 -->
<g id="edge1" class="edge">
<title>a1&#45;&gt;p1:w</title>
<path fill="none" stroke="#000000" d="M90.8901,-386.6676C106.5971,-468.7209 142.3267,-620.3862 191.8407,-620.3862"/>
</g>
<!-- p2 -->
<g id="node3" class="node">
<title>p2</title>
<path fill="#fafafa" stroke="#006400" d="M321.5448,-381.3862C321.5448,-381.3862 202.1366,-381.3862 202.1366,-381.3862 196.1366,-381.3862 190.1366,-375.3862 190.1366,-369.3862 190.1366,-369.3862 190.1366,-301.3862 190.1366,-301.3862 190.1366,-295.3862 196.1366,-289.3862 202.1366,-289.3862 202.1366,-289.3862 321.5448,-289.3862 321.5448,-289.3862 327.5448,-289.3862 333.5448,-295.3862 333.5448,-301.3862 333.5448,-301.3862 333.5448,-369.3862 333.5448,-369.3862 333.5448,-375.3862 327.5448,-381.3862 321.5448,-381.3862"/>
<text text-anchor="middle" x="261.8407" y="-364.7862" font-family="Times,serif" font-size="14.00" fill="#006400">II – Les problèmes</text>
<text text-anchor="middle" x="261.8407" y="-347.9862" font-family="Times,serif" font-size="14.00" fill="#006400">spécifiques que posent</text>
<text text-anchor="middle" x="261.8407" y="-331.1862" font-family="Times,serif" font-size="14.00" fill="#006400">les technologies</text>
<text text-anchor="middle" x="261.8407" y="-314.3862" font-family="Times,serif" font-size="14.00" fill="#006400">modernes et</text>
<text text-anchor="middle" x="261.8407" y="-297.5862" font-family="Times,serif" font-size="14.00" fill="#006400">contemporaines</text>
</g>
<!-- a1&#45;&gt;p2 -->
<g id="edge2" class="edge">
<title>a1&#45;&gt;p2:w</title>
<path fill="none" stroke="#000000" d="M164.2493,-335.3862C172.9396,-335.3862 181.6455,-335.3862 189.9888,-335.3862"/>
</g>
<!-- p3 -->
<g id="node4" class="node">
<title>p3</title>
<path fill="#fafafa" stroke="#006400" d="M303.2973,-79.9881C303.2973,-79.9881 220.3841,-79.9881 220.3841,-79.9881 214.3841,-79.9881 208.3841,-73.9881 208.3841,-67.9881 208.3841,-67.9881 208.3841,-50.7843 208.3841,-50.7843 208.3841,-44.7843 214.3841,-38.7843 220.3841,-38.7843 220.3841,-38.7843 303.2973,-38.7843 303.2973,-38.7843 309.2973,-38.7843 315.2973,-44.7843 315.2973,-50.7843 315.2973,-50.7843 315.2973,-67.9881 315.2973,-67.9881 315.2973,-73.9881 309.2973,-79.9881 303.2973,-79.9881"/>
<text text-anchor="middle" x="261.8407" y="-63.5862" font-family="Times,serif" font-size="14.00" fill="#006400">III – Contrôler</text>
<text text-anchor="middle" x="261.8407" y="-46.7862" font-family="Times,serif" font-size="14.00" fill="#006400">la technique ?</text>
</g>
<!-- a1&#45;&gt;p3 -->
<g id="edge3" class="edge">
<title>a1&#45;&gt;p3:w</title>
<path fill="none" stroke="#000000" d="M94.3433,-284.4419C115.179,-204.6933 159.8631,-59.3862 208.8407,-59.3862"/>
</g>
<!-- p1&#45;&gt;p2 -->
<!-- b1 -->
<g id="node5" class="node">
<title>b1</title>
<ellipse fill="#8b0000" stroke="#000000" cx="491.6478" cy="-625.3862" rx="103.2175" ry="46.2727"/>
<text text-anchor="middle" x="491.6478" y="-639.7862" font-family="Times,serif" font-size="16.00" fill="#ffffff">La technique</text>
<text text-anchor="middle" x="491.6478" y="-620.5862" font-family="Times,serif" font-size="16.00" fill="#ffffff">est&#45;elle le propre</text>
<text text-anchor="middle" x="491.6478" y="-601.3862" font-family="Times,serif" font-size="16.00" fill="#ffffff">des êtres humains ?</text>
</g>
<!-- p1&#45;&gt;b1 -->
<g id="edge6" class="edge">
<title>p1&#45;&gt;b1:w</title>
<path fill="none" stroke="#000000" d="M331.6931,-624.1502C346.4879,-624.7274 362.2029,-625.1826 377.3073,-625.333"/>
<polygon fill="#000000" stroke="#000000" points="377.6299,-628.8346 387.6478,-625.3862 377.666,-621.8347 377.6299,-628.8346"/>
</g>
<!-- p2&#45;&gt;p3 -->
<!-- b2 -->
<g id="node6" class="node">
<title>b2</title>
<ellipse fill="#8b0000" stroke="#000000" cx="491.6478" cy="-505.3862" rx="108.255" ry="46.2727"/>
<text text-anchor="middle" x="491.6478" y="-519.7862" font-family="Times,serif" font-size="16.00" fill="#ffffff">La technologie</text>
<text text-anchor="middle" x="491.6478" y="-500.5862" font-family="Times,serif" font-size="16.00" fill="#ffffff">permet&#45;elle de</text>
<text text-anchor="middle" x="491.6478" y="-481.3862" font-family="Times,serif" font-size="16.00" fill="#ffffff">maîtriser la nature ?</text>
</g>
<!-- p2&#45;&gt;b2 -->
<g id="edge7" class="edge">
<title>p2&#45;&gt;b2:w</title>
<path fill="none" stroke="#000000" d="M273.1507,-381.3907C287.7297,-428.8852 317.9531,-497.1179 372.5484,-504.695"/>
<polygon fill="#000000" stroke="#000000" points="372.4321,-508.1951 382.6478,-505.3862 372.9101,-501.2115 372.4321,-508.1951"/>
</g>
<!-- b3 -->
<g id="node7" class="node">
<title>b3</title>
<ellipse fill="#8b0000" stroke="#000000" cx="491.6478" cy="-392.3862" rx="98.9379" ry="46.2727"/>
<text text-anchor="middle" x="491.6478" y="-406.7862" font-family="Times,serif" font-size="16.00" fill="#ffffff">Les machines</text>
<text text-anchor="middle" x="491.6478" y="-387.5862" font-family="Times,serif" font-size="16.00" fill="#ffffff">nous libèrent&#45;elles</text>
<text text-anchor="middle" x="491.6478" y="-368.3862" font-family="Times,serif" font-size="16.00" fill="#ffffff">du travail ?</text>
</g>
<!-- p2&#45;&gt;b3 -->
<g id="edge8" class="edge">
<title>p2&#45;&gt;b3:w</title>
<path fill="none" stroke="#000000" d="M333.8634,-379.0222C349.1907,-385.4218 365.7703,-390.387 382.3419,-391.9047"/>
<polygon fill="#000000" stroke="#000000" points="382.4953,-395.4156 392.6478,-392.3862 382.8221,-388.4232 382.4953,-395.4156"/>
</g>
<!-- b4 -->
<g id="node8" class="node">
<title>b4</title>
<ellipse fill="#8b0000" stroke="#000000" cx="491.6478" cy="-279.3862" rx="131.9104" ry="46.2727"/>
<text text-anchor="middle" x="491.6478" y="-293.7862" font-family="Times,serif" font-size="16.00" fill="#ffffff">Vivons&#45;nous sous</text>
<text text-anchor="middle" x="491.6478" y="-274.5862" font-family="Times,serif" font-size="16.00" fill="#ffffff">l&#39;emprise des technologies</text>
<text text-anchor="middle" x="491.6478" y="-255.3862" font-family="Times,serif" font-size="16.00" fill="#ffffff">de l&#39;information ?</text>
</g>
<!-- p2&#45;&gt;b4 -->
<g id="edge9" class="edge">
<title>p2&#45;&gt;b4:w</title>
<path fill="none" stroke="#000000" d="M320.8464,-289.269C329.9963,-284.864 339.7304,-281.5074 349.6821,-280.1045"/>
<polygon fill="#000000" stroke="#000000" points="349.9688,-283.593 359.6926,-279.3862 349.4677,-276.6109 349.9688,-283.593"/>
</g>
<!-- b5 -->
<g id="node9" class="node">
<title>b5</title>
<ellipse fill="#8b0000" stroke="#000000" cx="491.6478" cy="-166.3862" rx="121.0324" ry="46.2727"/>
<text text-anchor="middle" x="491.6478" y="-180.7862" font-family="Times,serif" font-size="16.00" fill="#ffffff">La technologie peut&#45;elle</text>
<text text-anchor="middle" x="491.6478" y="-161.5862" font-family="Times,serif" font-size="16.00" fill="#ffffff">améliorer les capacités</text>
<text text-anchor="middle" x="491.6478" y="-142.3862" font-family="Times,serif" font-size="16.00" fill="#ffffff">des êtres humains ?</text>
</g>
<!-- p2&#45;&gt;b5 -->
<g id="edge10" class="edge">
<title>p2&#45;&gt;b5:w</title>
<path fill="none" stroke="#000000" d="M270.7909,-289.2062C282.7406,-242.1003 308.7335,-174.8373 360.6497,-167.1166"/>
<polygon fill="#000000" stroke="#000000" points="360.9294,-170.6056 370.6478,-166.3862 360.4193,-163.6242 360.9294,-170.6056"/>
</g>
<!-- b6 -->
<g id="node10" class="node">
<title>b6</title>
<ellipse fill="#8b0000" stroke="#000000" cx="491.6478" cy="-46.3862" rx="92.4139" ry="46.2727"/>
<text text-anchor="middle" x="491.6478" y="-60.7862" font-family="Times,serif" font-size="16.00" fill="#ffffff">Peut&#45;on contrôler</text>
<text text-anchor="middle" x="491.6478" y="-41.5862" font-family="Times,serif" font-size="16.00" fill="#ffffff">le développement</text>
<text text-anchor="middle" x="491.6478" y="-22.3862" font-family="Times,serif" font-size="16.00" fill="#ffffff">technologique ?</text>
</g>
<!-- p3&#45;&gt;b6 -->
<g id="edge11" class="edge">
<title>p3&#45;&gt;b6:w</title>
<path fill="none" stroke="#000000" d="M315.3316,-51.9371C337.4985,-49.3842 363.7734,-47.0309 388.5206,-46.4984"/>
<polygon fill="#000000" stroke="#000000" points="388.6872,-49.9968 398.6478,-46.3862 388.6096,-42.9973 388.6872,-49.9968"/>
</g>
<!-- b1&#45;&gt;b2 -->
<!-- c1 -->
<g id="node11" class="node">
<title>c1</title>
<polygon fill="#ffffff" stroke="#7f7f7f" points="755.2957,-687.3862 685.651,-687.3862 685.651,-651.3862 755.2957,-651.3862 755.2957,-687.3862"/>
<text text-anchor="middle" x="720.4734" y="-664.5862" font-family="Times,serif" font-size="16.00" fill="#000000">Bergson</text>
</g>
<!-- b1&#45;&gt;c1 -->
<g id="edge17" class="edge">
<title>b1&#45;&gt;c1</title>
<path fill="none" stroke="#000000" d="M586.7025,-643.6639C617.4605,-649.5782 650.1409,-655.8622 675.5007,-660.7386"/>
<polygon fill="#000000" stroke="#000000" points="675.0607,-664.218 685.5417,-662.6693 676.3825,-657.3439 675.0607,-664.218"/>
</g>
<!-- c2 -->
<g id="node12" class="node">
<title>c2</title>
<polygon fill="#ffffff" stroke="#7f7f7f" points="773.232,-643.9874 667.7147,-643.9874 667.7147,-578.785 773.232,-578.785 773.232,-643.9874"/>
<text text-anchor="middle" x="720.4734" y="-625.7862" font-family="Times,serif" font-size="16.00" fill="#000000">Les limites de</text>
<text text-anchor="middle" x="720.4734" y="-606.5862" font-family="Times,serif" font-size="16.00" fill="#000000">la conception</text>
<text text-anchor="middle" x="720.4734" y="-587.3862" font-family="Times,serif" font-size="16.00" fill="#000000">de Bergson</text>
</g>
<!-- b1&#45;&gt;c2 -->
<g id="edge18" class="edge">
<title>b1&#45;&gt;c2</title>
<path fill="none" stroke="#000000" d="M594.3471,-619.1029C615.8974,-617.7844 638.0079,-616.4316 657.5771,-615.2343"/>
<polygon fill="#000000" stroke="#000000" points="657.7949,-618.7276 667.5624,-614.6234 657.3673,-611.7407 657.7949,-618.7276"/>
</g>
<!-- b2&#45;&gt;b3 -->
<!-- c3 -->
<g id="node13" class="node">
<title>c3</title>
<polygon fill="#ffffff" stroke="#7f7f7f" points="759.6512,-544.3862 681.2956,-544.3862 681.2956,-508.3862 759.6512,-508.3862 759.6512,-544.3862"/>
<text text-anchor="middle" x="720.4734" y="-521.5862" font-family="Times,serif" font-size="16.00" fill="#000000">Descartes</text>
</g>
<!-- b2&#45;&gt;c3 -->
<g id="edge19" class="edge">
<title>b2&#45;&gt;c3</title>
<path fill="none" stroke="#000000" d="M597.6874,-515.1178C623.3066,-517.4689 649.4886,-519.8717 671.0585,-521.8513"/>
<polygon fill="#000000" stroke="#000000" points="670.9762,-525.3583 681.2542,-522.7869 671.616,-518.3876 670.9762,-525.3583"/>
</g>
<!-- c4 -->
<g id="node14" class="node">
<title>c4</title>
<polygon fill="#ffffff" stroke="#7f7f7f" points="747.4734,-495.3862 693.4734,-495.3862 693.4734,-459.3862 747.4734,-459.3862 747.4734,-495.3862"/>
<text text-anchor="middle" x="720.4734" y="-472.5862" font-family="Times,serif" font-size="16.00" fill="#000000">Jonas</text>
</g>
<!-- b2&#45;&gt;c4 -->
<g id="edge20" class="edge">
<title>b2&#45;&gt;c4</title>
<path fill="none" stroke="#000000" d="M596.0163,-492.6153C627.2302,-488.7958 659.449,-484.8534 683.2832,-481.9369"/>
<polygon fill="#000000" stroke="#000000" points="683.7822,-485.4021 693.2831,-480.7133 682.932,-478.4539 683.7822,-485.4021"/>
</g>
<!-- b3&#45;&gt;b4 -->
<!-- c5 -->
<g id="node15" class="node">
<title>c5</title>
<polygon fill="#ffffff" stroke="#7f7f7f" points="747.4734,-430.3862 693.4734,-430.3862 693.4734,-394.3862 747.4734,-394.3862 747.4734,-430.3862"/>
<text text-anchor="middle" x="720.4734" y="-407.5862" font-family="Times,serif" font-size="16.00" fill="#000000">Marx</text>
</g>
<!-- b3&#45;&gt;c5 -->
<g id="edge21" class="edge">
<title>b3&#45;&gt;c5</title>
<path fill="none" stroke="#000000" d="M589.0222,-400.897C622.3787,-403.8125 657.7115,-406.9006 683.3354,-409.1402"/>
<polygon fill="#000000" stroke="#000000" points="683.0763,-412.6309 693.3431,-410.0149 683.6859,-405.6574 683.0763,-412.6309"/>
</g>
<!-- c6 -->
<g id="node16" class="node">
<title>c6</title>
<polygon fill="#ffffff" stroke="#7f7f7f" points="755.6576,-373.7879 685.2891,-373.7879 685.2891,-326.9845 755.6576,-326.9845 755.6576,-373.7879"/>
<text text-anchor="middle" x="720.4734" y="-355.1862" font-family="Times,serif" font-size="16.00" fill="#000000">John</text>
<text text-anchor="middle" x="720.4734" y="-335.9862" font-family="Times,serif" font-size="16.00" fill="#000000">Danaher</text>
</g>
<!-- b3&#45;&gt;c6 -->
<g id="edge22" class="edge">
<title>b3&#45;&gt;c6</title>
<path fill="none" stroke="#000000" d="M584.0603,-375.4243C615.4875,-369.6559 649.2161,-363.4652 675.2724,-358.6827"/>
<polygon fill="#000000" stroke="#000000" points="676.0161,-362.1047 685.2199,-356.8568 674.7523,-355.2197 676.0161,-362.1047"/>
</g>
<!-- b4&#45;&gt;b5 -->
<!-- c7 -->
<g id="node17" class="node">
<title>c7</title>
<polygon fill="#ffffff" stroke="#7f7f7f" points="754.881,-306.3862 686.0657,-306.3862 686.0657,-270.3862 754.881,-270.3862 754.881,-306.3862"/>
<text text-anchor="middle" x="720.4734" y="-283.5862" font-family="Times,serif" font-size="16.00" fill="#000000">Deleuze</text>
</g>
<!-- b4&#45;&gt;c7 -->
<g id="edge23" class="edge">
<title>b4&#45;&gt;c7</title>
<path fill="none" stroke="#000000" d="M623.0989,-284.5563C642.036,-285.3012 660.3362,-286.0209 675.8611,-286.6315"/>
<polygon fill="#000000" stroke="#000000" points="676.0096,-290.14 686.1395,-287.0358 676.2848,-283.1454 676.0096,-290.14"/>
</g>
<!-- c8 -->
<g id="node18" class="node">
<title>c8</title>
<polygon fill="#ffffff" stroke="#7f7f7f" points="748.0727,-258.3862 692.8741,-258.3862 692.8741,-222.3862 748.0727,-222.3862 748.0727,-258.3862"/>
<text text-anchor="middle" x="720.4734" y="-235.5862" font-family="Times,serif" font-size="16.00" fill="#000000">Puech</text>
</g>
<!-- b4&#45;&gt;c8 -->
<g id="edge24" class="edge">
<title>b4&#45;&gt;c8</title>
<path fill="none" stroke="#000000" d="M610.4172,-259.1437C636.7356,-254.6581 662.7462,-250.225 682.8677,-246.7955"/>
<polygon fill="#000000" stroke="#000000" points="683.5538,-250.2292 692.8236,-245.0987 682.3777,-243.3287 683.5538,-250.2292"/>
</g>
<!-- b5&#45;&gt;b6 -->
<!-- c9 -->
<g id="node19" class="node">
<title>c9</title>
<polygon fill="#ffffff" stroke="#7f7f7f" points="789.6463,-200.3862 651.3005,-200.3862 651.3005,-164.3862 789.6463,-164.3862 789.6463,-200.3862"/>
<text text-anchor="middle" x="720.4734" y="-177.5862" font-family="Times,serif" font-size="16.00" fill="#000000">Matthew Crawford</text>
</g>
<!-- b5&#45;&gt;c9 -->
<g id="edge25" class="edge">
<title>b5&#45;&gt;c9</title>
<path fill="none" stroke="#000000" d="M611.087,-174.7377C621.3013,-175.4519 631.462,-176.1623 641.2427,-176.8462"/>
<polygon fill="#000000" stroke="#000000" points="641.0642,-180.3422 651.284,-177.5483 641.5525,-173.3592 641.0642,-180.3422"/>
</g>
<!-- c10 -->
<g id="node20" class="node">
<title>c10</title>
<polygon fill="#ffffff" stroke="#7f7f7f" points="791.2144,-153.3862 649.7323,-153.3862 649.7323,-117.3862 791.2144,-117.3862 791.2144,-153.3862"/>
<text text-anchor="middle" x="720.4734" y="-130.5862" font-family="Times,serif" font-size="16.00" fill="#000000">Le transhumanisme</text>
</g>
<!-- b5&#45;&gt;c10 -->
<g id="edge26" class="edge">
<title>b5&#45;&gt;c10</title>
<path fill="none" stroke="#000000" d="M606.0606,-150.8862C617.3219,-149.3606 628.5831,-147.835 639.408,-146.3685"/>
<polygon fill="#000000" stroke="#000000" points="640.199,-149.7934 649.6386,-144.9825 639.2592,-142.8567 640.199,-149.7934"/>
</g>
<!-- c11 -->
<g id="node21" class="node">
<title>c11</title>
<polygon fill="#ffffff" stroke="#7f7f7f" points="747.4734,-82.3862 693.4734,-82.3862 693.4734,-46.3862 747.4734,-46.3862 747.4734,-82.3862"/>
<text text-anchor="middle" x="720.4734" y="-59.5862" font-family="Times,serif" font-size="16.00" fill="#000000">Ellul</text>
</g>
<!-- b6&#45;&gt;c11 -->
<g id="edge27" class="edge">
<title>b6&#45;&gt;c11</title>
<path fill="none" stroke="#000000" d="M583.0722,-53.5779C618.0197,-56.3269 655.9519,-59.3108 683.0889,-61.4454"/>
<polygon fill="#000000" stroke="#000000" points="683.0491,-64.953 693.2928,-62.2481 683.5981,-57.9746 683.0491,-64.953"/>
</g>
<!-- c12 -->
<g id="node22" class="node">
<title>c12</title>
<polygon fill="#ffffff" stroke="#7f7f7f" points="758.0028,-39.3862 682.9439,-39.3862 682.9439,-3.3862 758.0028,-3.3862 758.0028,-39.3862"/>
<text text-anchor="middle" x="720.4734" y="-16.5862" font-family="Times,serif" font-size="16.00" fill="#000000">Feenberg</text>
</g>
<!-- b6&#45;&gt;c12 -->
<g id="edge28" class="edge">
<title>b6&#45;&gt;c12</title>
<path fill="none" stroke="#000000" d="M581.7572,-36.5414C612.7825,-33.1518 646.3075,-29.4891 672.6266,-26.6136"/>
<polygon fill="#000000" stroke="#000000" points="673.1433,-30.0781 682.704,-25.5126 672.383,-23.1195 673.1433,-30.0781"/>
</g>
<!-- e1 -->
<g id="node23" class="node">
<title>e1</title>
<path fill="#fafafa" stroke="transparent" d="M928.2946,-687.3862C928.2946,-687.3862 848.0365,-687.3862 848.0365,-687.3862 842.0365,-687.3862 836.0365,-681.3862 836.0365,-675.3862 836.0365,-675.3862 836.0365,-663.3862 836.0365,-663.3862 836.0365,-657.3862 842.0365,-651.3862 848.0365,-651.3862 848.0365,-651.3862 928.2946,-651.3862 928.2946,-651.3862 934.2946,-651.3862 940.2946,-657.3862 940.2946,-663.3862 940.2946,-663.3862 940.2946,-675.3862 940.2946,-675.3862 940.2946,-681.3862 934.2946,-687.3862 928.2946,-687.3862"/>
<text text-anchor="start" x="843.8514" y="-671.5862" font-family="Times,serif" font-size="12.00" fill="#cd2626">L&#39;être humain est</text>
<text text-anchor="start" x="853.1766" y="-659.5862" font-family="Times,serif" font-size="12.00" fill="#cd2626">un </text>
<text text-anchor="start" x="868.1766" y="-659.5862" font-family="Times,serif" font-style="italic" font-size="12.00" fill="#cd2626">homo faber</text>
</g>
<!-- c1&#45;&gt;e1 -->
<!-- c2&#45;&gt;c3 -->
<!-- e2 -->
<g id="node24" class="node">
<title>e2</title>
<path fill="#fafafa" stroke="transparent" d="M946.624,-643.9874C946.624,-643.9874 829.7072,-643.9874 829.7072,-643.9874 823.7072,-643.9874 817.7072,-637.9874 817.7072,-631.9874 817.7072,-631.9874 817.7072,-590.785 817.7072,-590.785 817.7072,-584.785 823.7072,-578.785 829.7072,-578.785 829.7072,-578.785 946.624,-578.785 946.624,-578.785 952.624,-578.785 958.624,-584.785 958.624,-590.785 958.624,-590.785 958.624,-631.9874 958.624,-631.9874 958.624,-637.9874 952.624,-643.9874 946.624,-643.9874"/>
<text text-anchor="middle" x="888.1656" y="-629.3862" font-family="Times,serif" font-size="12.00" fill="#cd2626">Les connaissances</text>
<text text-anchor="middle" x="888.1656" y="-614.9862" font-family="Times,serif" font-size="12.00" fill="#cd2626">contemporaines sur les</text>
<text text-anchor="middle" x="888.1656" y="-600.5862" font-family="Times,serif" font-size="12.00" fill="#cd2626">techniques préhistoriques</text>
<text text-anchor="middle" x="888.1656" y="-586.1862" font-family="Times,serif" font-size="12.00" fill="#cd2626">et les techniques animales</text>
</g>
<!-- c2&#45;&gt;e2 -->
<!-- e3 -->
<g id="node25" class="node">
<title>e3</title>
<path fill="#fafafa" stroke="transparent" d="M934.29,-561.0866C934.29,-561.0866 842.0411,-561.0866 842.0411,-561.0866 836.0411,-561.0866 830.0411,-555.0866 830.0411,-549.0866 830.0411,-549.0866 830.0411,-521.6858 830.0411,-521.6858 830.0411,-515.6858 836.0411,-509.6858 842.0411,-509.6858 842.0411,-509.6858 934.29,-509.6858 934.29,-509.6858 940.29,-509.6858 946.29,-515.6858 946.29,-521.6858 946.29,-521.6858 946.29,-549.0866 946.29,-549.0866 946.29,-555.0866 940.29,-561.0866 934.29,-561.0866"/>
<text text-anchor="middle" x="888.1656" y="-546.1862" font-family="Times,serif" font-size="12.00" fill="#cd2626">Une maîtrise</text>
<text text-anchor="middle" x="888.1656" y="-531.7862" font-family="Times,serif" font-size="12.00" fill="#cd2626">théorique et pratique</text>
<text text-anchor="middle" x="888.1656" y="-517.3862" font-family="Times,serif" font-size="12.00" fill="#cd2626">de la nature</text>
</g>
<!-- c3&#45;&gt;e3 -->
<!-- c4&#45;&gt;c5 -->
<!-- e4 -->
<g id="node26" class="node">
<title>e4</title>
<path fill="#fafafa" stroke="transparent" d="M950.6138,-503.0866C950.6138,-503.0866 825.7173,-503.0866 825.7173,-503.0866 819.7173,-503.0866 813.7173,-497.0866 813.7173,-491.0866 813.7173,-491.0866 813.7173,-463.6858 813.7173,-463.6858 813.7173,-457.6858 819.7173,-451.6858 825.7173,-451.6858 825.7173,-451.6858 950.6138,-451.6858 950.6138,-451.6858 956.6138,-451.6858 962.6138,-457.6858 962.6138,-463.6858 962.6138,-463.6858 962.6138,-491.0866 962.6138,-491.0866 962.6138,-497.0866 956.6138,-503.0866 950.6138,-503.0866"/>
<text text-anchor="middle" x="888.1656" y="-488.1862" font-family="Times,serif" font-size="12.00" fill="#cd2626">Le principe</text>
<text text-anchor="middle" x="888.1656" y="-473.7862" font-family="Times,serif" font-size="12.00" fill="#cd2626">de responsabilité,</text>
<text text-anchor="middle" x="888.1656" y="-459.3862" font-family="Times,serif" font-size="12.00" fill="#cd2626">l&#39;éthique environnementale</text>
</g>
<!-- c4&#45;&gt;e4 -->
<!-- e5 -->
<g id="node27" class="node">
<title>e5</title>
<path fill="#fafafa" stroke="transparent" d="M964.8095,-444.9874C964.8095,-444.9874 811.5216,-444.9874 811.5216,-444.9874 805.5216,-444.9874 799.5216,-438.9874 799.5216,-432.9874 799.5216,-432.9874 799.5216,-391.785 799.5216,-391.785 799.5216,-385.785 805.5216,-379.785 811.5216,-379.785 811.5216,-379.785 964.8095,-379.785 964.8095,-379.785 970.8095,-379.785 976.8095,-385.785 976.8095,-391.785 976.8095,-391.785 976.8095,-432.9874 976.8095,-432.9874 976.8095,-438.9874 970.8095,-444.9874 964.8095,-444.9874"/>
<text text-anchor="middle" x="888.1656" y="-430.3862" font-family="Times,serif" font-size="12.00" fill="#cd2626">La transformation du travail</text>
<text text-anchor="middle" x="888.1656" y="-415.9862" font-family="Times,serif" font-size="12.00" fill="#cd2626">en opération parcellaire et</text>
<text text-anchor="middle" x="888.1656" y="-401.5862" font-family="Times,serif" font-size="12.00" fill="#cd2626">insignifiante, les machines</text>
<text text-anchor="middle" x="888.1656" y="-387.1862" font-family="Times,serif" font-size="12.00" fill="#cd2626">comme instrument de domination</text>
</g>
<!-- c5&#45;&gt;e5 -->
<!-- c6&#45;&gt;c7 -->
<!-- e6 -->
<g id="node28" class="node">
<title>e6</title>
<path fill="#fafafa" stroke="transparent" d="M951.9466,-373.0866C951.9466,-373.0866 824.3845,-373.0866 824.3845,-373.0866 818.3845,-373.0866 812.3845,-367.0866 812.3845,-361.0866 812.3845,-361.0866 812.3845,-333.6858 812.3845,-333.6858 812.3845,-327.6858 818.3845,-321.6858 824.3845,-321.6858 824.3845,-321.6858 951.9466,-321.6858 951.9466,-321.6858 957.9466,-321.6858 963.9466,-327.6858 963.9466,-333.6858 963.9466,-333.6858 963.9466,-361.0866 963.9466,-361.0866 963.9466,-367.0866 957.9466,-373.0866 951.9466,-373.0866"/>
<text text-anchor="middle" x="888.1656" y="-358.1862" font-family="Times,serif" font-size="12.00" fill="#cd2626">L&#39;avènement des machines</text>
<text text-anchor="middle" x="888.1656" y="-343.7862" font-family="Times,serif" font-size="12.00" fill="#cd2626">intelligentes et la possibilité</text>
<text text-anchor="middle" x="888.1656" y="-329.3862" font-family="Times,serif" font-size="12.00" fill="#cd2626">d&#39;une société sans travail</text>
</g>
<!-- c6&#45;&gt;e6 -->
<!-- e7 -->
<g id="node29" class="node">
<title>e7</title>
<path fill="#fafafa" stroke="transparent" d="M911.3061,-309.6867C911.3061,-309.6867 865.025,-309.6867 865.025,-309.6867 859.025,-309.6867 853.025,-303.6867 853.025,-297.6867 853.025,-297.6867 853.025,-285.0857 853.025,-285.0857 853.025,-279.0857 859.025,-273.0857 865.025,-273.0857 865.025,-273.0857 911.3061,-273.0857 911.3061,-273.0857 917.3061,-273.0857 923.3061,-279.0857 923.3061,-285.0857 923.3061,-285.0857 923.3061,-297.6867 923.3061,-297.6867 923.3061,-303.6867 917.3061,-309.6867 911.3061,-309.6867"/>
<text text-anchor="middle" x="888.1656" y="-294.9862" font-family="Times,serif" font-size="12.00" fill="#cd2626">La société</text>
<text text-anchor="middle" x="888.1656" y="-280.5862" font-family="Times,serif" font-size="12.00" fill="#cd2626">de contrôle</text>
</g>
<!-- c7&#45;&gt;e7 -->
<!-- c8&#45;&gt;c9 -->
<!-- e8 -->
<g id="node30" class="node">
<title>e8</title>
<path fill="#fafafa" stroke="transparent" d="M948.1252,-266.0866C948.1252,-266.0866 828.206,-266.0866 828.206,-266.0866 822.206,-266.0866 816.206,-260.0866 816.206,-254.0866 816.206,-254.0866 816.206,-226.6858 816.206,-226.6858 816.206,-220.6858 822.206,-214.6858 828.206,-214.6858 828.206,-214.6858 948.1252,-214.6858 948.1252,-214.6858 954.1252,-214.6858 960.1252,-220.6858 960.1252,-226.6858 960.1252,-226.6858 960.1252,-254.0866 960.1252,-254.0866 960.1252,-260.0866 954.1252,-266.0866 948.1252,-266.0866"/>
<text text-anchor="middle" x="888.1656" y="-251.1862" font-family="Times,serif" font-size="12.00" fill="#cd2626">Sagesse technologique</text>
<text text-anchor="middle" x="888.1656" y="-236.7862" font-family="Times,serif" font-size="12.00" fill="#cd2626">et réappropriation</text>
<text text-anchor="middle" x="888.1656" y="-222.3862" font-family="Times,serif" font-size="12.00" fill="#cd2626">culturelle des technologies</text>
</g>
<!-- c8&#45;&gt;e8 -->
<!-- e9 -->
<g id="node31" class="node">
<title>e9</title>
<path fill="#fafafa" stroke="transparent" d="M924.6416,-208.0866C924.6416,-208.0866 851.6896,-208.0866 851.6896,-208.0866 845.6896,-208.0866 839.6896,-202.0866 839.6896,-196.0866 839.6896,-196.0866 839.6896,-168.6858 839.6896,-168.6858 839.6896,-162.6858 845.6896,-156.6858 851.6896,-156.6858 851.6896,-156.6858 924.6416,-156.6858 924.6416,-156.6858 930.6416,-156.6858 936.6416,-162.6858 936.6416,-168.6858 936.6416,-168.6858 936.6416,-196.0866 936.6416,-196.0866 936.6416,-202.0866 930.6416,-208.0866 924.6416,-208.0866"/>
<text text-anchor="middle" x="888.1656" y="-193.1862" font-family="Times,serif" font-size="12.00" fill="#cd2626">Les technologies</text>
<text text-anchor="middle" x="888.1656" y="-178.7862" font-family="Times,serif" font-size="12.00" fill="#cd2626">de captation de</text>
<text text-anchor="middle" x="888.1656" y="-164.3862" font-family="Times,serif" font-size="12.00" fill="#cd2626">l&#39;attention</text>
</g>
<!-- c9&#45;&gt;e9 -->
<!-- c10&#45;&gt;c11 -->
<!-- e10 -->
<g id="node32" class="node">
<title>e10</title>
<path fill="#fafafa" stroke="transparent" d="M932.9645,-149.6867C932.9645,-149.6867 843.3666,-149.6867 843.3666,-149.6867 837.3666,-149.6867 831.3666,-143.6867 831.3666,-137.6867 831.3666,-137.6867 831.3666,-125.0857 831.3666,-125.0857 831.3666,-119.0857 837.3666,-113.0857 843.3666,-113.0857 843.3666,-113.0857 932.9645,-113.0857 932.9645,-113.0857 938.9645,-113.0857 944.9645,-119.0857 944.9645,-125.0857 944.9645,-125.0857 944.9645,-137.6867 944.9645,-137.6867 944.9645,-143.6867 938.9645,-149.6867 932.9645,-149.6867"/>
<text text-anchor="middle" x="888.1656" y="-134.9862" font-family="Times,serif" font-size="12.00" fill="#cd2626">L&#39;humain augmenté</text>
<text text-anchor="middle" x="888.1656" y="-120.5862" font-family="Times,serif" font-size="12.00" fill="#cd2626">par la technologie</text>
</g>
<!-- c10&#45;&gt;e10 -->
<!-- e11 -->
<g id="node33" class="node">
<title>e11</title>
<path fill="#fafafa" stroke="transparent" d="M922.4765,-83.6867C922.4765,-83.6867 853.8546,-83.6867 853.8546,-83.6867 847.8546,-83.6867 841.8546,-77.6867 841.8546,-71.6867 841.8546,-71.6867 841.8546,-59.0857 841.8546,-59.0857 841.8546,-53.0857 847.8546,-47.0857 853.8546,-47.0857 853.8546,-47.0857 922.4765,-47.0857 922.4765,-47.0857 928.4765,-47.0857 934.4765,-53.0857 934.4765,-59.0857 934.4765,-59.0857 934.4765,-71.6867 934.4765,-71.6867 934.4765,-77.6867 928.4765,-83.6867 922.4765,-83.6867"/>
<text text-anchor="middle" x="888.1656" y="-68.9862" font-family="Times,serif" font-size="12.00" fill="#cd2626">L&#39;autonomie de</text>
<text text-anchor="middle" x="888.1656" y="-54.5862" font-family="Times,serif" font-size="12.00" fill="#cd2626">la technique</text>
</g>
<!-- c11&#45;&gt;e11 -->
<!-- e12 -->
<g id="node34" class="node">
<title>e12</title>
<path fill="#fafafa" stroke="transparent" d="M917.1245,-39.6867C917.1245,-39.6867 859.2067,-39.6867 859.2067,-39.6867 853.2067,-39.6867 847.2067,-33.6867 847.2067,-27.6867 847.2067,-27.6867 847.2067,-15.0857 847.2067,-15.0857 847.2067,-9.0857 853.2067,-3.0857 859.2067,-3.0857 859.2067,-3.0857 917.1245,-3.0857 917.1245,-3.0857 923.1245,-3.0857 929.1245,-9.0857 929.1245,-15.0857 929.1245,-15.0857 929.1245,-27.6867 929.1245,-27.6867 929.1245,-33.6867 923.1245,-39.6867 917.1245,-39.6867"/>
<text text-anchor="middle" x="888.1656" y="-24.9862" font-family="Times,serif" font-size="12.00" fill="#cd2626">Démocratiser</text>
<text text-anchor="middle" x="888.1656" y="-10.5862" font-family="Times,serif" font-size="12.00" fill="#cd2626">la technique</text>
</g>
<!-- c12&#45;&gt;e12 -->
</g>
</svg>
