<?xml version="1.0" encoding="UTF-8" standalone="no"?>
<!DOCTYPE svg PUBLIC "-//W3C//DTD SVG 1.1//EN"
 "http://www.w3.org/Graphics/SVG/1.1/DTD/svg11.dtd">
<!-- Generated by graphviz version 2.40.1 (20161225.0304)
 -->
<!-- Title: G Pages: 1 -->
<svg width="884pt" height="476pt"
 viewBox="0.00 0.00 883.66 476.36" xmlns="http://www.w3.org/2000/svg" xmlns:xlink="http://www.w3.org/1999/xlink">
<g id="graph0" class="graph" transform="scale(1 1) rotate(0) translate(21.6 454.7627)">
<title>G</title>
<polygon fill="#fafafa" stroke="transparent" points="-21.6,21.6 -21.6,-454.7627 862.0599,-454.7627 862.0599,21.6 -21.6,21.6"/>
<!-- a1 -->
<g id="node1" class="node">
<title>a1</title>
<ellipse fill="#050505" stroke="#000000" cx="96.8453" cy="-291.9627" rx="96.6909" ry="66.5027"/>
<text text-anchor="middle" x="96.8453" y="-318.9627" font-family="Times,serif" font-size="18.00" fill="#ffffff">Comment</text>
<text text-anchor="middle" x="96.8453" y="-297.3627" font-family="Times,serif" font-size="18.00" fill="#ffffff">peut&#45;on savoir</text>
<text text-anchor="middle" x="96.8453" y="-275.7627" font-family="Times,serif" font-size="18.00" fill="#ffffff">ce qui est bien et</text>
<text text-anchor="middle" x="96.8453" y="-254.1627" font-family="Times,serif" font-size="18.00" fill="#ffffff">ce qui est mal ?</text>
</g>
<!-- p1 -->
<g id="node2" class="node">
<title>p1</title>
<path fill="#fafafa" stroke="#006400" d="M315.9697,-403.5646C315.9697,-403.5646 244.3711,-403.5646 244.3711,-403.5646 238.3711,-403.5646 232.3711,-397.5646 232.3711,-391.5646 232.3711,-391.5646 232.3711,-374.3608 232.3711,-374.3608 232.3711,-368.3608 238.3711,-362.3608 244.3711,-362.3608 244.3711,-362.3608 315.9697,-362.3608 315.9697,-362.3608 321.9697,-362.3608 327.9697,-368.3608 327.9697,-374.3608 327.9697,-374.3608 327.9697,-391.5646 327.9697,-391.5646 327.9697,-397.5646 321.9697,-403.5646 315.9697,-403.5646"/>
<text text-anchor="middle" x="280.1704" y="-387.1627" font-family="Times,serif" font-size="14.00" fill="#006400">I – La morale</text>
<text text-anchor="middle" x="280.1704" y="-370.3627" font-family="Times,serif" font-size="14.00" fill="#006400">et les mœurs</text>
</g>
<!-- a1&#45;&gt;p1 -->
<g id="edge1" class="edge">
<title>a1&#45;&gt;p1:w</title>
<path fill="none" stroke="#000000" d="M149.5783,-348.0399C172.731,-366.7666 201.5936,-382.9627 232.1704,-382.9627"/>
</g>
<!-- p2 -->
<g id="node3" class="node">
<title>p2</title>
<path fill="#fafafa" stroke="#006400" d="M328.6298,-222.5646C328.6298,-222.5646 231.711,-222.5646 231.711,-222.5646 225.711,-222.5646 219.711,-216.5646 219.711,-210.5646 219.711,-210.5646 219.711,-193.3608 219.711,-193.3608 219.711,-187.3608 225.711,-181.3608 231.711,-181.3608 231.711,-181.3608 328.6298,-181.3608 328.6298,-181.3608 334.6298,-181.3608 340.6298,-187.3608 340.6298,-193.3608 340.6298,-193.3608 340.6298,-210.5646 340.6298,-210.5646 340.6298,-216.5646 334.6298,-222.5646 328.6298,-222.5646"/>
<text text-anchor="middle" x="280.1704" y="-206.1627" font-family="Times,serif" font-size="14.00" fill="#006400">II – Le fondement</text>
<text text-anchor="middle" x="280.1704" y="-189.3627" font-family="Times,serif" font-size="14.00" fill="#006400">de la morale</text>
</g>
<!-- a1&#45;&gt;p2 -->
<g id="edge2" class="edge">
<title>a1&#45;&gt;p2:w</title>
<path fill="none" stroke="#000000" d="M146.493,-234.4547C167.0823,-216.8162 192.6044,-201.9627 220.1704,-201.9627"/>
</g>
<!-- p1&#45;&gt;p2 -->
<!-- b1 -->
<g id="node4" class="node">
<title>b1</title>
<ellipse fill="#8b0000" stroke="#000000" cx="470.011" cy="-382.9627" rx="69.9785" ry="46.2727"/>
<text text-anchor="middle" x="470.011" y="-397.3627" font-family="Times,serif" font-size="16.00" fill="#ffffff">La morale se</text>
<text text-anchor="middle" x="470.011" y="-378.1627" font-family="Times,serif" font-size="16.00" fill="#ffffff">réduit&#45;elle</text>
<text text-anchor="middle" x="470.011" y="-358.9627" font-family="Times,serif" font-size="16.00" fill="#ffffff">aux mœurs ?</text>
</g>
<!-- p1&#45;&gt;b1 -->
<g id="edge4" class="edge">
<title>p1&#45;&gt;b1:w</title>
<path fill="none" stroke="#000000" d="M327.9892,-382.9627C346.8476,-382.9627 368.9664,-382.9627 389.8677,-382.9627"/>
<polygon fill="#000000" stroke="#000000" points="390.011,-386.4628 400.011,-382.9627 390.011,-379.4628 390.011,-386.4628"/>
</g>
<!-- b2 -->
<g id="node5" class="node">
<title>b2</title>
<ellipse fill="#8b0000" stroke="#000000" cx="470.011" cy="-220.9627" rx="81.266" ry="59.9253"/>
<text text-anchor="middle" x="470.011" y="-244.9627" font-family="Times,serif" font-size="16.00" fill="#ffffff">Est&#45;ce le cœur</text>
<text text-anchor="middle" x="470.011" y="-225.7627" font-family="Times,serif" font-size="16.00" fill="#ffffff">ou la raison qui</text>
<text text-anchor="middle" x="470.011" y="-206.5627" font-family="Times,serif" font-size="16.00" fill="#ffffff">indique le bien</text>
<text text-anchor="middle" x="470.011" y="-187.3627" font-family="Times,serif" font-size="16.00" fill="#ffffff">et le mal ?</text>
</g>
<!-- p2&#45;&gt;b2 -->
<g id="edge5" class="edge">
<title>p2&#45;&gt;b2:w</title>
<path fill="none" stroke="#000000" d="M340.8669,-216.4599C352.8161,-218.4916 365.4706,-220.097 377.7777,-220.7022"/>
<polygon fill="#000000" stroke="#000000" points="377.9251,-224.207 388.011,-220.9627 378.1033,-217.2093 377.9251,-224.207"/>
</g>
<!-- b3 -->
<g id="node6" class="node">
<title>b3</title>
<ellipse fill="#8b0000" stroke="#000000" cx="470.011" cy="-59.9627" rx="103.222" ry="59.9253"/>
<text text-anchor="middle" x="470.011" y="-83.9627" font-family="Times,serif" font-size="16.00" fill="#ffffff">Comment la</text>
<text text-anchor="middle" x="470.011" y="-64.7627" font-family="Times,serif" font-size="16.00" fill="#ffffff">réflexion peut&#45;elle</text>
<text text-anchor="middle" x="470.011" y="-45.5627" font-family="Times,serif" font-size="16.00" fill="#ffffff">nous aider à saisir</text>
<text text-anchor="middle" x="470.011" y="-26.3627" font-family="Times,serif" font-size="16.00" fill="#ffffff">notre devoir moral ?</text>
</g>
<!-- p2&#45;&gt;b3 -->
<g id="edge6" class="edge">
<title>p2&#45;&gt;b3:w</title>
<path fill="none" stroke="#000000" d="M283.025,-181.3146C289.3351,-144.3927 307.9688,-70.0424 356.533,-60.8928"/>
<polygon fill="#000000" stroke="#000000" points="357.0126,-64.3636 366.6501,-59.9627 356.3716,-57.393 357.0126,-64.3636"/>
</g>
<!-- b1&#45;&gt;b2 -->
<!-- c1 -->
<g id="node7" class="node">
<title>c1</title>
<polygon fill="#ffffff" stroke="#7f7f7f" points="713.3191,-433.3644 605.3895,-433.3644 605.3895,-386.5609 713.3191,-386.5609 713.3191,-433.3644"/>
<text text-anchor="middle" x="659.3543" y="-414.7627" font-family="Times,serif" font-size="16.00" fill="#000000">Le relativisme</text>
<text text-anchor="middle" x="659.3543" y="-395.5627" font-family="Times,serif" font-size="16.00" fill="#000000">culturel</text>
</g>
<!-- b1&#45;&gt;c1 -->
<g id="edge9" class="edge">
<title>b1&#45;&gt;c1</title>
<path fill="none" stroke="#000000" d="M538.3683,-392.7103C556.9586,-395.3612 577.0195,-398.2219 595.3586,-400.837"/>
<polygon fill="#000000" stroke="#000000" points="594.9555,-404.3148 605.3495,-402.2617 595.9438,-397.3849 594.9555,-404.3148"/>
</g>
<!-- c2 -->
<g id="node8" class="node">
<title>c2</title>
<polygon fill="#ffffff" stroke="#7f7f7f" points="719.3191,-373.3644 599.3895,-373.3644 599.3895,-326.5609 719.3191,-326.5609 719.3191,-373.3644"/>
<text text-anchor="middle" x="659.3543" y="-354.7627" font-family="Times,serif" font-size="16.00" fill="#000000">L&#39;universalisme</text>
<text text-anchor="middle" x="659.3543" y="-335.5627" font-family="Times,serif" font-size="16.00" fill="#000000">moral</text>
</g>
<!-- b1&#45;&gt;c2 -->
<g id="edge10" class="edge">
<title>b1&#45;&gt;c2</title>
<path fill="none" stroke="#000000" d="M537.5664,-371.1887C554.277,-368.2762 572.2186,-365.1492 589.0564,-362.2146"/>
<polygon fill="#000000" stroke="#000000" points="590.1263,-365.581 599.3768,-360.4159 588.9244,-358.685 590.1263,-365.581"/>
</g>
<!-- b2&#45;&gt;b3 -->
<!-- c3 -->
<g id="node9" class="node">
<title>c3</title>
<polygon fill="#ffffff" stroke="#7f7f7f" points="698.175,-256.9627 620.5336,-256.9627 620.5336,-220.9627 698.175,-220.9627 698.175,-256.9627"/>
<text text-anchor="middle" x="659.3543" y="-234.1627" font-family="Times,serif" font-size="16.00" fill="#000000">Rousseau</text>
</g>
<!-- b2&#45;&gt;c3 -->
<g id="edge11" class="edge">
<title>b2&#45;&gt;c3</title>
<path fill="none" stroke="#000000" d="M550.8588,-228.6485C571.1186,-230.5745 592.2415,-232.5826 610.4082,-234.3096"/>
<polygon fill="#000000" stroke="#000000" points="610.1657,-237.8022 620.4521,-235.2644 610.8283,-230.8336 610.1657,-237.8022"/>
</g>
<!-- c4 -->
<g id="node10" class="node">
<title>c4</title>
<polygon fill="#ffffff" stroke="#7f7f7f" points="686.3543,-206.9627 632.3543,-206.9627 632.3543,-170.9627 686.3543,-170.9627 686.3543,-206.9627"/>
<text text-anchor="middle" x="659.3543" y="-184.1627" font-family="Times,serif" font-size="16.00" fill="#000000">Kant</text>
</g>
<!-- b2&#45;&gt;c4 -->
<g id="edge12" class="edge">
<title>b2&#45;&gt;c4</title>
<path fill="none" stroke="#000000" d="M549.4866,-207.5309C574.7668,-203.2584 601.5313,-198.735 622.3143,-195.2226"/>
<polygon fill="#000000" stroke="#000000" points="623.023,-198.6525 632.2999,-193.535 621.8565,-191.7504 623.023,-198.6525"/>
</g>
<!-- c5 -->
<g id="node11" class="node">
<title>c5</title>
<polygon fill="#ffffff" stroke="#7f7f7f" points="696.1227,-100.9627 622.5859,-100.9627 622.5859,-64.9627 696.1227,-64.9627 696.1227,-100.9627"/>
<text text-anchor="middle" x="659.3543" y="-78.1627" font-family="Times,serif" font-size="16.00" fill="#000000">Bentham</text>
</g>
<!-- b3&#45;&gt;c5 -->
<g id="edge13" class="edge">
<title>b3&#45;&gt;c5</title>
<path fill="none" stroke="#000000" d="M571.3344,-72.2707C585.6223,-74.0062 599.7071,-75.7172 612.2785,-77.2442"/>
<polygon fill="#000000" stroke="#000000" points="612.1047,-80.7488 622.4538,-78.4803 612.9489,-73.7999 612.1047,-80.7488"/>
</g>
<!-- c6 -->
<g id="node12" class="node">
<title>c6</title>
<polygon fill="#ffffff" stroke="#7f7f7f" points="686.3543,-48.9627 632.3543,-48.9627 632.3543,-12.9627 686.3543,-12.9627 686.3543,-48.9627"/>
<text text-anchor="middle" x="659.3543" y="-26.1627" font-family="Times,serif" font-size="16.00" fill="#000000">Kant</text>
</g>
<!-- b3&#45;&gt;c6 -->
<g id="edge14" class="edge">
<title>b3&#45;&gt;c6</title>
<path fill="none" stroke="#000000" d="M569.95,-44.6559C588.5856,-41.8017 606.9481,-38.9892 622.1373,-36.6628"/>
<polygon fill="#000000" stroke="#000000" points="622.7555,-40.1091 632.1103,-35.1354 621.6957,-33.1898 622.7555,-40.1091"/>
</g>
<!-- e1 -->
<g id="node13" class="node">
<title>e1</title>
<path fill="#fafafa" stroke="transparent" d="M820.0366,-428.2632C820.0366,-428.2632 747.76,-428.2632 747.76,-428.2632 741.76,-428.2632 735.76,-422.2632 735.76,-416.2632 735.76,-416.2632 735.76,-403.6621 735.76,-403.6621 735.76,-397.6621 741.76,-391.6621 747.76,-391.6621 747.76,-391.6621 820.0366,-391.6621 820.0366,-391.6621 826.0366,-391.6621 832.0366,-397.6621 832.0366,-403.6621 832.0366,-403.6621 832.0366,-416.2632 832.0366,-416.2632 832.0366,-422.2632 826.0366,-428.2632 820.0366,-428.2632"/>
<text text-anchor="middle" x="783.8983" y="-413.5627" font-family="Times,serif" font-size="12.00" fill="#cd2626">La critique de</text>
<text text-anchor="middle" x="783.8983" y="-399.1627" font-family="Times,serif" font-size="12.00" fill="#cd2626">l&#39;ethnocentrisme</text>
</g>
<!-- c1&#45;&gt;e1 -->
<!-- c2&#45;&gt;c3 -->
<!-- e2 -->
<g id="node14" class="node">
<title>e2</title>
<path fill="#fafafa" stroke="transparent" d="M826.7096,-375.663C826.7096,-375.663 741.0871,-375.663 741.0871,-375.663 735.0871,-375.663 729.0871,-369.663 729.0871,-363.663 729.0871,-363.663 729.0871,-336.2623 729.0871,-336.2623 729.0871,-330.2623 735.0871,-324.2623 741.0871,-324.2623 741.0871,-324.2623 826.7096,-324.2623 826.7096,-324.2623 832.7096,-324.2623 838.7096,-330.2623 838.7096,-336.2623 838.7096,-336.2623 838.7096,-363.663 838.7096,-363.663 838.7096,-369.663 832.7096,-375.663 826.7096,-375.663"/>
<text text-anchor="middle" x="783.8983" y="-360.7627" font-family="Times,serif" font-size="12.00" fill="#cd2626">Les traditions</text>
<text text-anchor="middle" x="783.8983" y="-346.3627" font-family="Times,serif" font-size="12.00" fill="#cd2626">violentes, l&#39;horizon</text>
<text text-anchor="middle" x="783.8983" y="-331.9627" font-family="Times,serif" font-size="12.00" fill="#cd2626">des droits humains</text>
</g>
<!-- c2&#45;&gt;e2 -->
<!-- e3 -->
<g id="node15" class="node">
<title>e3</title>
<path fill="#fafafa" stroke="transparent" d="M798.8983,-256.9627C798.8983,-256.9627 768.8983,-256.9627 768.8983,-256.9627 762.8983,-256.9627 756.8983,-250.9627 756.8983,-244.9627 756.8983,-244.9627 756.8983,-232.9627 756.8983,-232.9627 756.8983,-226.9627 762.8983,-220.9627 768.8983,-220.9627 768.8983,-220.9627 798.8983,-220.9627 798.8983,-220.9627 804.8983,-220.9627 810.8983,-226.9627 810.8983,-232.9627 810.8983,-232.9627 810.8983,-244.9627 810.8983,-244.9627 810.8983,-250.9627 804.8983,-256.9627 798.8983,-256.9627"/>
<text text-anchor="middle" x="783.8983" y="-235.3627" font-family="Times,serif" font-size="12.00" fill="#cd2626">La pitié</text>
</g>
<!-- c3&#45;&gt;e3 -->
<!-- c4&#45;&gt;c5 -->
<!-- e4 -->
<g id="node16" class="node">
<title>e4</title>
<path fill="#fafafa" stroke="transparent" d="M827.5257,-207.2632C827.5257,-207.2632 740.2709,-207.2632 740.2709,-207.2632 734.2709,-207.2632 728.2709,-201.2632 728.2709,-195.2632 728.2709,-195.2632 728.2709,-182.6621 728.2709,-182.6621 728.2709,-176.6621 734.2709,-170.6621 740.2709,-170.6621 740.2709,-170.6621 827.5257,-170.6621 827.5257,-170.6621 833.5257,-170.6621 839.5257,-176.6621 839.5257,-182.6621 839.5257,-182.6621 839.5257,-195.2632 839.5257,-195.2632 839.5257,-201.2632 833.5257,-207.2632 827.5257,-207.2632"/>
<text text-anchor="middle" x="783.8983" y="-192.5627" font-family="Times,serif" font-size="12.00" fill="#cd2626">L&#39;action par devoir,</text>
<text text-anchor="middle" x="783.8983" y="-178.1627" font-family="Times,serif" font-size="12.00" fill="#cd2626">l&#39;universalisation</text>
</g>
<!-- c4&#45;&gt;e4 -->
<!-- e5 -->
<g id="node17" class="node">
<title>e5</title>
<path fill="#fafafa" stroke="transparent" d="M827.5404,-110.663C827.5404,-110.663 740.2562,-110.663 740.2562,-110.663 734.2562,-110.663 728.2562,-104.663 728.2562,-98.663 728.2562,-98.663 728.2562,-71.2623 728.2562,-71.2623 728.2562,-65.2623 734.2562,-59.2623 740.2562,-59.2623 740.2562,-59.2623 827.5404,-59.2623 827.5404,-59.2623 833.5404,-59.2623 839.5404,-65.2623 839.5404,-71.2623 839.5404,-71.2623 839.5404,-98.663 839.5404,-98.663 839.5404,-104.663 833.5404,-110.663 827.5404,-110.663"/>
<text text-anchor="middle" x="783.8983" y="-95.7627" font-family="Times,serif" font-size="12.00" fill="#cd2626">Le calcul objectif</text>
<text text-anchor="middle" x="783.8983" y="-81.3627" font-family="Times,serif" font-size="12.00" fill="#cd2626">et global de l&#39;utilité</text>
<text text-anchor="middle" x="783.8983" y="-66.9627" font-family="Times,serif" font-size="12.00" fill="#cd2626">des conséquences</text>
</g>
<!-- c5&#45;&gt;e5 -->
<!-- e6 -->
<g id="node18" class="node">
<title>e6</title>
<path fill="#fafafa" stroke="transparent" d="M828.5216,-45.2632C828.5216,-45.2632 739.275,-45.2632 739.275,-45.2632 733.275,-45.2632 727.275,-39.2632 727.275,-33.2632 727.275,-33.2632 727.275,-20.6621 727.275,-20.6621 727.275,-14.6621 733.275,-8.6621 739.275,-8.6621 739.275,-8.6621 828.5216,-8.6621 828.5216,-8.6621 834.5216,-8.6621 840.5216,-14.6621 840.5216,-20.6621 840.5216,-20.6621 840.5216,-33.2632 840.5216,-33.2632 840.5216,-39.2632 834.5216,-45.2632 828.5216,-45.2632"/>
<text text-anchor="middle" x="783.8983" y="-30.5627" font-family="Times,serif" font-size="12.00" fill="#cd2626">Le principe du</text>
<text text-anchor="middle" x="783.8983" y="-16.1627" font-family="Times,serif" font-size="12.00" fill="#cd2626">respect de la dignité</text>
</g>
<!-- c6&#45;&gt;e6 -->
</g>
</svg>
