<?xml version="1.0" encoding="UTF-8" standalone="no"?>
<!DOCTYPE svg PUBLIC "-//W3C//DTD SVG 1.1//EN"
 "http://www.w3.org/Graphics/SVG/1.1/DTD/svg11.dtd">
<!-- Generated by graphviz version 2.40.1 (20161225.0304)
 -->
<!-- Title: G Pages: 1 -->
<svg width="796pt" height="596pt"
 viewBox="0.00 0.00 795.89 595.59" xmlns="http://www.w3.org/2000/svg" xmlns:xlink="http://www.w3.org/1999/xlink">
<g id="graph0" class="graph" transform="scale(1 1) rotate(0) translate(21.6 573.9862)">
<title>G</title>
<polygon fill="#fafafa" stroke="transparent" points="-21.6,21.6 -21.6,-573.9862 774.2884,-573.9862 774.2884,21.6 -21.6,21.6"/>
<!-- a1 -->
<g id="node1" class="node">
<title>a1</title>
<ellipse fill="#050505" stroke="#000000" cx="108.5258" cy="-260" rx="108.5515" ry="36.4089"/>
<text text-anchor="middle" x="108.5258" y="-265.4" font-family="Times,serif" font-size="18.00" fill="#ffffff">Le libre arbitre</text>
<text text-anchor="middle" x="108.5258" y="-243.8" font-family="Times,serif" font-size="18.00" fill="#ffffff">est&#45;il une illusion ?</text>
</g>
<!-- b1 -->
<g id="node2" class="node">
<title>b1</title>
<ellipse fill="#8b0000" stroke="#000000" cx="425.9936" cy="-506" rx="122.0706" ry="46.2727"/>
<text text-anchor="middle" x="425.9936" y="-520.4" font-family="Times,serif" font-size="16.00" fill="#ffffff">L&#39;expérience d&#39;agir par</text>
<text text-anchor="middle" x="425.9936" y="-501.2" font-family="Times,serif" font-size="16.00" fill="#ffffff">soi&#45;même est&#45;elle une</text>
<text text-anchor="middle" x="425.9936" y="-482" font-family="Times,serif" font-size="16.00" fill="#ffffff">preuve de notre liberté ?</text>
</g>
<!-- a1&#45;&gt;b1 -->
<g id="edge1" class="edge">
<title>a1&#45;&gt;b1:w</title>
<path fill="none" stroke="#000000" d="M118.7462,-296.2981C139.7807,-362.5219 194.4874,-496.9702 293.912,-505.567"/>
<polygon fill="#000000" stroke="#000000" points="293.8526,-509.0676 303.9936,-506 294.153,-502.074 293.8526,-509.0676"/>
<text text-anchor="start" x="248.1048" y="-500.2" font-family="Times,serif" font-size="14.00" fill="#006400">I</text>
</g>
<!-- b2 -->
<g id="node3" class="node">
<title>b2</title>
<ellipse fill="#8b0000" stroke="#000000" cx="425.9936" cy="-358" rx="142.3499" ry="46.2727"/>
<text text-anchor="middle" x="425.9936" y="-372.4" font-family="Times,serif" font-size="16.00" fill="#ffffff">Notre capacité d&#39;envisager</text>
<text text-anchor="middle" x="425.9936" y="-353.2" font-family="Times,serif" font-size="16.00" fill="#ffffff">plusieurs possibilités est&#45;elle</text>
<text text-anchor="middle" x="425.9936" y="-334" font-family="Times,serif" font-size="16.00" fill="#ffffff">une preuve de notre liberté ?</text>
</g>
<!-- a1&#45;&gt;b2 -->
<g id="edge2" class="edge">
<title>a1&#45;&gt;b2:w</title>
<path fill="none" stroke="#000000" d="M144.3046,-294.2756C175.5905,-320.7697 223.7615,-353.5951 273.9363,-357.5948"/>
<polygon fill="#000000" stroke="#000000" points="273.8607,-361.0945 283.9936,-358 274.1426,-354.1002 273.8607,-361.0945"/>
<text text-anchor="start" x="245.7745" y="-359.2" font-family="Times,serif" font-size="14.00" fill="#006400">II</text>
</g>
<!-- b3 -->
<g id="node4" class="node">
<title>b3</title>
<ellipse fill="#8b0000" stroke="#000000" cx="425.9936" cy="-210" rx="122.0706" ry="46.2727"/>
<text text-anchor="middle" x="425.9936" y="-224.4" font-family="Times,serif" font-size="16.00" fill="#ffffff">Notre responsabilité</text>
<text text-anchor="middle" x="425.9936" y="-205.2" font-family="Times,serif" font-size="16.00" fill="#ffffff">morale est&#45;elle une</text>
<text text-anchor="middle" x="425.9936" y="-186" font-family="Times,serif" font-size="16.00" fill="#ffffff">preuve de notre liberté ?</text>
</g>
<!-- a1&#45;&gt;b3 -->
<g id="edge3" class="edge">
<title>a1&#45;&gt;b3:w</title>
<path fill="none" stroke="#000000" d="M179.8213,-232.6593C213.3841,-221.9439 254.5432,-211.8071 293.5848,-210.2161"/>
<polygon fill="#000000" stroke="#000000" points="294.0684,-213.7069 303.9936,-210 293.923,-206.7084 294.0684,-213.7069"/>
<text text-anchor="start" x="243.4442" y="-221.2" font-family="Times,serif" font-size="14.00" fill="#006400">III</text>
</g>
<!-- b4 -->
<g id="node5" class="node">
<title>b4</title>
<ellipse fill="#8b0000" stroke="#000000" cx="425.9936" cy="-62" rx="129.3871" ry="46.2727"/>
<text text-anchor="middle" x="425.9936" y="-76.4" font-family="Times,serif" font-size="16.00" fill="#ffffff">Sommes&#45;nous déterminés</text>
<text text-anchor="middle" x="425.9936" y="-57.2" font-family="Times,serif" font-size="16.00" fill="#ffffff">par des facteurs dont nous</text>
<text text-anchor="middle" x="425.9936" y="-38" font-family="Times,serif" font-size="16.00" fill="#ffffff">n&#39;avons pas conscience ?</text>
</g>
<!-- a1&#45;&gt;b4 -->
<g id="edge4" class="edge">
<title>a1&#45;&gt;b4:w</title>
<path fill="none" stroke="#000000" d="M123.1604,-223.6837C147.8741,-168.7557 203.3807,-70.0936 285.8082,-62.4694"/>
<polygon fill="#000000" stroke="#000000" points="286.1653,-65.9568 295.9936,-62 285.843,-58.9642 286.1653,-65.9568"/>
<text text-anchor="start" x="243.0515" y="-79.2" font-family="Times,serif" font-size="14.00" fill="#006400">IV</text>
</g>
<!-- b1&#45;&gt;b2 -->
<!-- c1 -->
<g id="node6" class="node">
<title>c1</title>
<polygon fill="#ffffff" stroke="#7f7f7f" points="721.7508,-541 652.1061,-541 652.1061,-505 721.7508,-505 721.7508,-541"/>
<text text-anchor="middle" x="686.9284" y="-518.2" font-family="Times,serif" font-size="16.00" fill="#000000">Bergson</text>
</g>
<!-- b1&#45;&gt;c1 -->
<g id="edge8" class="edge">
<title>b1&#45;&gt;c1</title>
<path fill="none" stroke="#000000" d="M546.5316,-513.8531C580.6006,-516.0727 615.5778,-518.3515 642.0985,-520.0793"/>
<polygon fill="#000000" stroke="#000000" points="641.9844,-523.5792 652.1908,-520.7368 642.4396,-516.594 641.9844,-523.5792"/>
</g>
<!-- c2 -->
<g id="node7" class="node">
<title>c2</title>
<polygon fill="#ffffff" stroke="#7f7f7f" points="720.4755,-491 653.3813,-491 653.3813,-455 720.4755,-455 720.4755,-491"/>
<text text-anchor="middle" x="686.9284" y="-468.2" font-family="Times,serif" font-size="16.00" fill="#000000">Spinoza</text>
</g>
<!-- b1&#45;&gt;c2 -->
<g id="edge9" class="edge">
<title>b1&#45;&gt;c2</title>
<path fill="none" stroke="#000000" d="M541.963,-491.3335C577.9295,-486.7849 615.3841,-482.0481 643.2108,-478.5289"/>
<polygon fill="#000000" stroke="#000000" points="643.8993,-481.9698 653.3811,-477.2427 643.021,-475.0251 643.8993,-481.9698"/>
</g>
<!-- b2&#45;&gt;b3 -->
<!-- c3 -->
<g id="node8" class="node">
<title>c3</title>
<polygon fill="#ffffff" stroke="#7f7f7f" points="749.2973,-399 624.5595,-399 624.5595,-363 749.2973,-363 749.2973,-399"/>
<text text-anchor="middle" x="686.9284" y="-376.2" font-family="Times,serif" font-size="16.00" fill="#000000">Thomas d&#39;Aquin</text>
</g>
<!-- b2&#45;&gt;c3 -->
<g id="edge10" class="edge">
<title>b2&#45;&gt;c3</title>
<path fill="none" stroke="#000000" d="M563.3383,-370.1062C580.863,-371.6509 598.2218,-373.181 614.1451,-374.5845"/>
<polygon fill="#000000" stroke="#000000" points="614.1204,-378.0959 624.3891,-375.4875 614.7351,-371.1229 614.1204,-378.0959"/>
</g>
<!-- c4 -->
<g id="node9" class="node">
<title>c4</title>
<polygon fill="#ffffff" stroke="#7f7f7f" points="730.5069,-349 643.35,-349 643.35,-313 730.5069,-313 730.5069,-349"/>
<text text-anchor="middle" x="686.9284" y="-326.2" font-family="Times,serif" font-size="16.00" fill="#000000">D&#39;Holbach</text>
</g>
<!-- b2&#45;&gt;c4 -->
<g id="edge11" class="edge">
<title>b2&#45;&gt;c4</title>
<path fill="none" stroke="#000000" d="M561.8109,-343.9464C587.0235,-341.3376 611.9692,-338.7563 632.8734,-336.5933"/>
<polygon fill="#000000" stroke="#000000" points="633.5178,-340.0454 643.1044,-335.5347 632.7972,-333.0826 633.5178,-340.0454"/>
</g>
<!-- b3&#45;&gt;b4 -->
<!-- c5 -->
<g id="node10" class="node">
<title>c5</title>
<polygon fill="#ffffff" stroke="#7f7f7f" points="749.2973,-257 624.5595,-257 624.5595,-221 749.2973,-221 749.2973,-257"/>
<text text-anchor="middle" x="686.9284" y="-234.2" font-family="Times,serif" font-size="16.00" fill="#000000">Thomas d&#39;Aquin</text>
</g>
<!-- b3&#45;&gt;c5 -->
<g id="edge12" class="edge">
<title>b3&#45;&gt;c5</title>
<path fill="none" stroke="#000000" d="M543.4843,-223.0578C567.5404,-225.7314 592.1908,-228.471 614.1205,-230.9082"/>
<polygon fill="#000000" stroke="#000000" points="613.9963,-234.4159 624.3217,-232.042 614.7695,-227.4587 613.9963,-234.4159"/>
</g>
<!-- c6 -->
<g id="node11" class="node">
<title>c6</title>
<polygon fill="#ffffff" stroke="#7f7f7f" points="714.5277,-207 659.3291,-207 659.3291,-171 714.5277,-171 714.5277,-207"/>
<text text-anchor="middle" x="686.9284" y="-184.2" font-family="Times,serif" font-size="16.00" fill="#000000">Hume</text>
</g>
<!-- b3&#45;&gt;c6 -->
<g id="edge13" class="edge">
<title>b3&#45;&gt;c6</title>
<path fill="none" stroke="#000000" d="M545.3882,-200.3911C582.8242,-197.3783 621.4849,-194.2669 648.922,-192.0588"/>
<polygon fill="#000000" stroke="#000000" points="649.5388,-195.5205 659.2258,-191.2295 648.9772,-188.5431 649.5388,-195.5205"/>
</g>
<!-- c7 -->
<g id="node12" class="node">
<title>c7</title>
<polygon fill="#ffffff" stroke="#7f7f7f" points="752.4493,-115.6012 621.4075,-115.6012 621.4075,-50.3988 752.4493,-50.3988 752.4493,-115.6012"/>
<text text-anchor="middle" x="686.9284" y="-97.4" font-family="Times,serif" font-size="16.00" fill="#000000">Le déterminisme</text>
<text text-anchor="middle" x="686.9284" y="-78.2" font-family="Times,serif" font-size="16.00" fill="#000000">(biologique,</text>
<text text-anchor="middle" x="686.9284" y="-59" font-family="Times,serif" font-size="16.00" fill="#000000">psychique, social)</text>
</g>
<!-- b4&#45;&gt;c7 -->
<g id="edge14" class="edge">
<title>b4&#45;&gt;c7</title>
<path fill="none" stroke="#000000" d="M552.6392,-72.1924C572.6886,-73.806 592.8585,-75.4293 611.2527,-76.9096"/>
<polygon fill="#000000" stroke="#000000" points="611.0284,-80.4028 621.277,-77.7164 611.59,-73.4254 611.0284,-80.4028"/>
</g>
<!-- c8 -->
<g id="node13" class="node">
<title>c8</title>
<polygon fill="#ffffff" stroke="#7f7f7f" points="714.1272,-36 659.7297,-36 659.7297,0 714.1272,0 714.1272,-36"/>
<text text-anchor="middle" x="686.9284" y="-13.2" font-family="Times,serif" font-size="16.00" fill="#000000">Sartre</text>
</g>
<!-- b4&#45;&gt;c8 -->
<g id="edge15" class="edge">
<title>b4&#45;&gt;c8</title>
<path fill="none" stroke="#000000" d="M543.4843,-42.1882C581.8675,-35.7158 621.7638,-28.9883 649.7072,-24.2764"/>
<polygon fill="#000000" stroke="#000000" points="650.5246,-27.6881 659.8034,-22.5739 649.3606,-20.7855 650.5246,-27.6881"/>
</g>
<!-- c2&#45;&gt;c3 -->
<!-- c4&#45;&gt;c5 -->
<!-- c6&#45;&gt;c7 -->
</g>
</svg>
