<?xml version="1.0" encoding="UTF-8" standalone="no"?>
<!DOCTYPE svg PUBLIC "-//W3C//DTD SVG 1.1//EN"
 "http://www.w3.org/Graphics/SVG/1.1/DTD/svg11.dtd">
<!-- Generated by graphviz version 2.40.1 (20161225.0304)
 -->
<!-- Title: G Pages: 1 -->
<svg width="648pt" height="593pt"
 viewBox="0.00 0.00 647.87 593.20" xmlns="http://www.w3.org/2000/svg" xmlns:xlink="http://www.w3.org/1999/xlink">
<g id="graph0" class="graph" transform="scale(1 1) rotate(0) translate(21.6 571.6)">
<title>G</title>
<polygon fill="#fafafa" stroke="transparent" points="-21.6,21.6 -21.6,-571.6 626.2657,-571.6 626.2657,21.6 -21.6,21.6"/>
<!-- a1 -->
<g id="node1" class="node">
<title>a1</title>
<ellipse fill="#050505" stroke="#000000" cx="75.6419" cy="-259" rx="75.7841" ry="20.861"/>
<text text-anchor="middle" x="75.6419" y="-253.6" font-family="Times,serif" font-size="18.00" fill="#ffffff">Qui suis&#45;je ?</text>
</g>
<!-- b1 -->
<g id="node2" class="node">
<title>b1</title>
<ellipse fill="#8b0000" stroke="#000000" cx="324.5503" cy="-483" rx="106.4987" ry="46.2727"/>
<text text-anchor="middle" x="324.5503" y="-497.4" font-family="Times,serif" font-size="16.00" fill="#ffffff">Le corps et l&#39;esprit</text>
<text text-anchor="middle" x="324.5503" y="-478.2" font-family="Times,serif" font-size="16.00" fill="#ffffff">sont&#45;ils deux réalités</text>
<text text-anchor="middle" x="324.5503" y="-459" font-family="Times,serif" font-size="16.00" fill="#ffffff">distinctes ?</text>
</g>
<!-- a1&#45;&gt;b1 -->
<g id="edge1" class="edge">
<title>a1&#45;&gt;b1:w</title>
<path fill="none" stroke="#000000" d="M78.7431,-280.0734C87.9148,-333.8203 119.9923,-472.4844 207.9247,-482.4348"/>
<polygon fill="#000000" stroke="#000000" points="207.8715,-485.9372 218.051,-483 208.2616,-478.9481 207.8715,-485.9372"/>
<text text-anchor="start" x="182.3371" y="-482.2" font-family="Times,serif" font-size="14.00" fill="#006400">I</text>
</g>
<!-- b2 -->
<g id="node3" class="node">
<title>b2</title>
<ellipse fill="#8b0000" stroke="#000000" cx="324.5503" cy="-348" rx="78.2923" ry="32.6206"/>
<text text-anchor="middle" x="324.5503" y="-352.8" font-family="Times,serif" font-size="16.00" fill="#ffffff">Y a&#45;t&#45;il une</text>
<text text-anchor="middle" x="324.5503" y="-333.6" font-family="Times,serif" font-size="16.00" fill="#ffffff">unité du Moi ?</text>
</g>
<!-- a1&#45;&gt;b2 -->
<g id="edge2" class="edge">
<title>a1&#45;&gt;b2:w</title>
<path fill="none" stroke="#000000" d="M97.358,-279.1955C126.2167,-303.9669 180.0546,-343.2326 235.5428,-347.6012"/>
<polygon fill="#000000" stroke="#000000" points="235.4189,-351.099 245.5503,-348 235.6977,-344.1045 235.4189,-351.099"/>
<text text-anchor="start" x="180.0068" y="-342.2" font-family="Times,serif" font-size="14.00" fill="#006400">II</text>
</g>
<!-- b3 -->
<g id="node4" class="node">
<title>b3</title>
<ellipse fill="#8b0000" stroke="#000000" cx="324.5503" cy="-213" rx="104.8354" ry="46.2727"/>
<text text-anchor="middle" x="324.5503" y="-227.4" font-family="Times,serif" font-size="16.00" fill="#ffffff">Les autres</text>
<text text-anchor="middle" x="324.5503" y="-208.2" font-family="Times,serif" font-size="16.00" fill="#ffffff">m&#39;empêchent&#45;ils</text>
<text text-anchor="middle" x="324.5503" y="-189" font-family="Times,serif" font-size="16.00" fill="#ffffff">d&#39;être moi&#45;même ?</text>
</g>
<!-- a1&#45;&gt;b3 -->
<g id="edge3" class="edge">
<title>a1&#45;&gt;b3:w</title>
<path fill="none" stroke="#000000" d="M111.8949,-240.5551C137.8397,-228.9073 174.2312,-215.6359 209.236,-213.3452"/>
<polygon fill="#000000" stroke="#000000" points="209.673,-216.8327 219.5503,-213 209.4388,-209.8366 209.673,-216.8327"/>
<text text-anchor="start" x="177.6765" y="-222.2" font-family="Times,serif" font-size="14.00" fill="#006400">III</text>
</g>
<!-- b4 -->
<g id="node5" class="node">
<title>b4</title>
<ellipse fill="#8b0000" stroke="#000000" cx="324.5503" cy="-65" rx="82.4539" ry="46.2727"/>
<text text-anchor="middle" x="324.5503" y="-79.4" font-family="Times,serif" font-size="16.00" fill="#ffffff">Mon identité se</text>
<text text-anchor="middle" x="324.5503" y="-60.2" font-family="Times,serif" font-size="16.00" fill="#ffffff">trouve&#45;t&#45;elle</text>
<text text-anchor="middle" x="324.5503" y="-41" font-family="Times,serif" font-size="16.00" fill="#ffffff">en moi ?</text>
</g>
<!-- a1&#45;&gt;b4 -->
<g id="edge4" class="edge">
<title>a1&#45;&gt;b4:w</title>
<path fill="none" stroke="#000000" d="M82.334,-237.8693C99.0602,-189.5037 147.4806,-74.2329 231.4134,-65.5227"/>
<polygon fill="#000000" stroke="#000000" points="231.7439,-69.0104 241.5503,-65 231.3833,-62.0197 231.7439,-69.0104"/>
<text text-anchor="start" x="177.2838" y="-91.2" font-family="Times,serif" font-size="14.00" fill="#006400">IV</text>
</g>
<!-- b1&#45;&gt;b2 -->
<!-- c1 -->
<g id="node6" class="node">
<title>c1</title>
<polygon fill="#ffffff" stroke="#7f7f7f" points="604.4743,-550 484.2411,-550 484.2411,-514 604.4743,-514 604.4743,-550"/>
<text text-anchor="middle" x="544.3577" y="-527.2" font-family="Times,serif" font-size="16.00" fill="#000000">Le matérialisme</text>
</g>
<!-- b1&#45;&gt;c1 -->
<g id="edge8" class="edge">
<title>b1&#45;&gt;c1</title>
<path fill="none" stroke="#000000" d="M419.3633,-504.1359C437.7208,-508.2282 456.6509,-512.4482 474.0522,-516.3273"/>
<polygon fill="#000000" stroke="#000000" points="473.5833,-519.8086 484.1053,-518.5684 475.1064,-512.9764 473.5833,-519.8086"/>
</g>
<!-- c2 -->
<g id="node7" class="node">
<title>c2</title>
<polygon fill="#ffffff" stroke="#7f7f7f" points="604.0971,-500.4017 484.6182,-500.4017 484.6182,-453.5983 604.0971,-453.5983 604.0971,-500.4017"/>
<text text-anchor="middle" x="544.3577" y="-481.8" font-family="Times,serif" font-size="16.00" fill="#000000">Les difficultés</text>
<text text-anchor="middle" x="544.3577" y="-462.6" font-family="Times,serif" font-size="16.00" fill="#000000">du matérialisme</text>
</g>
<!-- b1&#45;&gt;c2 -->
<g id="edge9" class="edge">
<title>b1&#45;&gt;c2</title>
<path fill="none" stroke="#000000" d="M430.9127,-480.0967C445.5832,-479.6962 460.3378,-479.2935 474.1296,-478.917"/>
<polygon fill="#000000" stroke="#000000" points="474.5706,-482.4064 484.4713,-478.6347 474.3795,-475.409 474.5706,-482.4064"/>
</g>
<!-- b2&#45;&gt;b3 -->
<!-- c3 -->
<g id="node8" class="node">
<title>c3</title>
<polygon fill="#ffffff" stroke="#7f7f7f" points="571.957,-398 516.7584,-398 516.7584,-362 571.957,-362 571.957,-398"/>
<text text-anchor="middle" x="544.3577" y="-375.2" font-family="Times,serif" font-size="16.00" fill="#000000">Hume</text>
</g>
<!-- b2&#45;&gt;c3 -->
<g id="edge10" class="edge">
<title>b2&#45;&gt;c3</title>
<path fill="none" stroke="#000000" d="M398.6606,-358.7891C435.0059,-364.0804 477.2139,-370.2251 506.8157,-374.5346"/>
<polygon fill="#000000" stroke="#000000" points="506.3303,-378.0007 516.7302,-375.9779 507.3388,-371.0737 506.3303,-378.0007"/>
</g>
<!-- c4 -->
<g id="node9" class="node">
<title>c4</title>
<polygon fill="#ffffff" stroke="#7f7f7f" points="574.7298,-348 513.9855,-348 513.9855,-312 574.7298,-312 574.7298,-348"/>
<text text-anchor="middle" x="544.3577" y="-325.2" font-family="Times,serif" font-size="16.00" fill="#000000">Ricœur</text>
</g>
<!-- b2&#45;&gt;c4 -->
<g id="edge11" class="edge">
<title>b2&#45;&gt;c4</title>
<path fill="none" stroke="#000000" d="M401.7371,-341.6792C436.1107,-338.8643 475.1824,-335.6648 503.7279,-333.3272"/>
<polygon fill="#000000" stroke="#000000" points="504.0593,-336.8118 513.7402,-332.5073 503.4879,-329.8352 504.0593,-336.8118"/>
</g>
<!-- b3&#45;&gt;b4 -->
<!-- c5 -->
<g id="node10" class="node">
<title>c5</title>
<polygon fill="#ffffff" stroke="#7f7f7f" points="583.9329,-256 504.7824,-256 504.7824,-220 583.9329,-220 583.9329,-256"/>
<text text-anchor="middle" x="544.3577" y="-233.2" font-family="Times,serif" font-size="16.00" fill="#000000">Nietzsche</text>
</g>
<!-- b3&#45;&gt;c5 -->
<g id="edge12" class="edge">
<title>b3&#45;&gt;c5</title>
<path fill="none" stroke="#000000" d="M426.4108,-224.5852C450.0315,-227.2717 474.1504,-230.0149 494.3717,-232.3148"/>
<polygon fill="#000000" stroke="#000000" points="494.2361,-235.8219 504.5676,-233.4744 495.0272,-228.8667 494.2361,-235.8219"/>
</g>
<!-- c6 -->
<g id="node11" class="node">
<title>c6</title>
<polygon fill="#ffffff" stroke="#7f7f7f" points="579.9569,-206 508.7584,-206 508.7584,-170 579.9569,-170 579.9569,-206"/>
<text text-anchor="middle" x="544.3577" y="-183.2" font-family="Times,serif" font-size="16.00" fill="#000000">Honneth</text>
</g>
<!-- b3&#45;&gt;c6 -->
<g id="edge13" class="edge">
<title>b3&#45;&gt;c6</title>
<path fill="none" stroke="#000000" d="M426.4108,-201.4148C451.677,-198.5411 477.5131,-195.6026 498.5395,-193.2112"/>
<polygon fill="#000000" stroke="#000000" points="499.2184,-196.6566 508.7588,-192.0489 498.4273,-189.7014 499.2184,-196.6566"/>
</g>
<!-- c7 -->
<g id="node12" class="node">
<title>c7</title>
<polygon fill="#ffffff" stroke="#7f7f7f" points="572.3369,-86 516.3785,-86 516.3785,-50 572.3369,-50 572.3369,-86"/>
<text text-anchor="middle" x="544.3577" y="-63.2" font-family="Times,serif" font-size="16.00" fill="#000000">Locke</text>
</g>
<!-- b4&#45;&gt;c7 -->
<g id="edge14" class="edge">
<title>b4&#45;&gt;c7</title>
<path fill="none" stroke="#000000" d="M407.0238,-66.1256C441.0075,-66.5894 478.7292,-67.1043 506.0266,-67.4768"/>
<polygon fill="#000000" stroke="#000000" points="506.2662,-70.9803 516.3131,-67.6172 506.3618,-63.981 506.2662,-70.9803"/>
</g>
<!-- c8 -->
<g id="node13" class="node">
<title>c8</title>
<polygon fill="#ffffff" stroke="#7f7f7f" points="571.5564,-36 517.1589,-36 517.1589,0 571.5564,0 571.5564,-36"/>
<text text-anchor="middle" x="544.3577" y="-13.2" font-family="Times,serif" font-size="16.00" fill="#000000">Sartre</text>
</g>
<!-- b4&#45;&gt;c8 -->
<g id="edge15" class="edge">
<title>b4&#45;&gt;c8</title>
<path fill="none" stroke="#000000" d="M401.7371,-48.4956C437.4328,-40.8631 478.1949,-32.1472 506.974,-25.9935"/>
<polygon fill="#000000" stroke="#000000" points="507.9561,-29.3627 517.0031,-23.849 506.4923,-22.5175 507.9561,-29.3627"/>
</g>
<!-- c2&#45;&gt;c3 -->
<!-- c4&#45;&gt;c5 -->
<!-- c6&#45;&gt;c7 -->
</g>
</svg>
