<?xml version="1.0" encoding="UTF-8" standalone="no"?>
<!DOCTYPE svg PUBLIC "-//W3C//DTD SVG 1.1//EN"
 "http://www.w3.org/Graphics/SVG/1.1/DTD/svg11.dtd">
<!-- Generated by graphviz version 2.40.1 (20161225.0304)
 -->
<!-- Title: G Pages: 1 -->
<svg width="1223pt" height="451pt"
 viewBox="0.00 0.00 1222.74 451.23" xmlns="http://www.w3.org/2000/svg" xmlns:xlink="http://www.w3.org/1999/xlink">
<g id="graph0" class="graph" transform="scale(1 1) rotate(0) translate(21.6 429.6321)">
<title>G</title>
<polygon fill="#fafafa" stroke="transparent" points="-21.6,21.6 -21.6,-429.6321 1201.1408,-429.6321 1201.1408,21.6 -21.6,21.6"/>
<!-- a1 -->
<g id="node1" class="node">
<title>a1</title>
<ellipse fill="#050505" stroke="#000000" cx="580.7704" cy="-377.2023" rx="95.9198" ry="30.6606"/>
<text text-anchor="middle" x="580.7704" y="-371.8023" font-family="Times,serif" font-size="18.00" fill="#ffffff">Cinq séquences</text>
</g>
<!-- b1 -->
<g id="node2" class="node">
<title>b1</title>
<ellipse fill="#8b0000" stroke="#000000" cx="97.7704" cy="-273.9862" rx="64.2184" ry="46.2727"/>
<text text-anchor="middle" x="97.7704" y="-288.3862" font-family="Times,serif" font-size="16.00" fill="#ffffff">Éthique et</text>
<text text-anchor="middle" x="97.7704" y="-269.1862" font-family="Times,serif" font-size="16.00" fill="#ffffff">philosophie</text>
<text text-anchor="middle" x="97.7704" y="-249.9862" font-family="Times,serif" font-size="16.00" fill="#ffffff">morale</text>
<text text-anchor="start" x="16.7669" y="-325.1724" font-family="Times,serif" font-size="16.00" fill="#006400">S1</text>
</g>
<!-- a1&#45;&gt;b1 -->
<g id="edge1" class="edge">
<title>a1&#45;&gt;b1:n</title>
<path fill="none" stroke="#000000" d="M484.7677,-375.3054C355.465,-371.5562 137.4443,-360.5837 102.5453,-328.9665"/>
<polygon fill="#000000" stroke="#000000" points="105.5555,-327.1725 97.7704,-319.9862 99.3749,-330.4589 105.5555,-327.1725"/>
</g>
<!-- b2 -->
<g id="node3" class="node">
<title>b2</title>
<ellipse fill="#8b0000" stroke="#000000" cx="337.7704" cy="-273.9862" rx="64.984" ry="32.6206"/>
<text text-anchor="middle" x="337.7704" y="-278.7862" font-family="Times,serif" font-size="16.00" fill="#ffffff">Philosophie</text>
<text text-anchor="middle" x="337.7704" y="-259.5862" font-family="Times,serif" font-size="16.00" fill="#ffffff">du sujet</text>
<text text-anchor="start" x="256.1344" y="-311.596" font-family="Times,serif" font-size="16.00" fill="#006400">S2</text>
</g>
<!-- a1&#45;&gt;b2 -->
<g id="edge2" class="edge">
<title>a1&#45;&gt;b2:n</title>
<path fill="none" stroke="#000000" d="M489.2488,-367.8512C427.6307,-359.2023 355.0403,-343.5459 340.4137,-316.8828"/>
<polygon fill="#000000" stroke="#000000" points="343.7324,-315.7444 337.7704,-306.9862 336.9695,-317.5507 343.7324,-315.7444"/>
</g>
<!-- b3 -->
<g id="node4" class="node">
<title>b3</title>
<ellipse fill="#8b0000" stroke="#000000" cx="580.7704" cy="-273.9862" rx="67.4574" ry="32.6206"/>
<text text-anchor="middle" x="580.7704" y="-278.7862" font-family="Times,serif" font-size="16.00" fill="#ffffff">Philosophie</text>
<text text-anchor="middle" x="580.7704" y="-259.5862" font-family="Times,serif" font-size="16.00" fill="#ffffff">de la culture</text>
<text text-anchor="start" x="496.6477" y="-311.596" font-family="Times,serif" font-size="16.00" fill="#006400">S3</text>
</g>
<!-- a1&#45;&gt;b3 -->
<g id="edge3" class="edge">
<title>a1&#45;&gt;b3:n</title>
<path fill="none" stroke="#000000" d="M580.7704,-346.0931C580.7704,-337.0423 580.7704,-326.9352 580.7704,-317.0924"/>
<polygon fill="#000000" stroke="#000000" points="584.2705,-316.9862 580.7704,-306.9862 577.2705,-316.9862 584.2705,-316.9862"/>
</g>
<!-- b4 -->
<g id="node5" class="node">
<title>b4</title>
<ellipse fill="#8b0000" stroke="#000000" cx="837.7704" cy="-273.9862" rx="64.984" ry="46.2727"/>
<text text-anchor="middle" x="837.7704" y="-288.3862" font-family="Times,serif" font-size="16.00" fill="#ffffff">Philosophie</text>
<text text-anchor="middle" x="837.7704" y="-269.1862" font-family="Times,serif" font-size="16.00" fill="#ffffff">sociale et</text>
<text text-anchor="middle" x="837.7704" y="-249.9862" font-family="Times,serif" font-size="16.00" fill="#ffffff">politique</text>
<text text-anchor="start" x="756.1344" y="-325.1724" font-family="Times,serif" font-size="16.00" fill="#006400">S4</text>
</g>
<!-- a1&#45;&gt;b4 -->
<g id="edge4" class="edge">
<title>a1&#45;&gt;b4:n</title>
<path fill="none" stroke="#000000" d="M670.2957,-365.757C733.1664,-356.6493 809.7857,-343.0336 831.6715,-328.3639"/>
<polygon fill="#000000" stroke="#000000" points="834.4859,-330.4453 837.7704,-320.3724 828.9213,-326.1985 834.4859,-330.4453"/>
</g>
<!-- b5 -->
<g id="node6" class="node">
<title>b5</title>
<ellipse fill="#8b0000" stroke="#000000" cx="1057.7704" cy="-273.9862" rx="85.8553" ry="32.6206"/>
<text text-anchor="middle" x="1057.7704" y="-278.7862" font-family="Times,serif" font-size="16.00" fill="#ffffff">Épistémologie</text>
<text text-anchor="middle" x="1057.7704" y="-259.5862" font-family="Times,serif" font-size="16.00" fill="#ffffff">et métaphysique</text>
<text text-anchor="start" x="954.9484" y="-311.596" font-family="Times,serif" font-size="16.00" fill="#006400">S5</text>
</g>
<!-- a1&#45;&gt;b5 -->
<g id="edge5" class="edge">
<title>a1&#45;&gt;b5:n</title>
<path fill="none" stroke="#000000" d="M675.8662,-372.6225C803.6056,-365.283 1018.6414,-348.3126 1053.0611,-316.0158"/>
<polygon fill="#000000" stroke="#000000" points="1056.2494,-317.4713 1057.7704,-306.9862 1050.0428,-314.2343 1056.2494,-317.4713"/>
</g>
<!-- b1&#45;&gt;b2 -->
<!-- c1 -->
<g id="node7" class="node">
<title>c1</title>
<polygon fill="#ffffff" stroke="#7f7f7f" points="91.3123,-182.4 .2285,-182.4 .2285,-78.4 91.3123,-78.4 91.3123,-182.4"/>
<text text-anchor="middle" x="45.7704" y="-164" font-family="Times,serif" font-size="16.00" fill="#000000">Chapitre 1 :</text>
<text text-anchor="middle" x="45.7704" y="-144.8" font-family="Times,serif" font-size="16.00" fill="#000000">Le bonheur</text>
<text text-anchor="middle" x="45.7704" y="-125.6" font-family="Times,serif" font-size="16.00" fill="#000000">n&#39;est&#45;il</text>
<text text-anchor="middle" x="45.7704" y="-106.4" font-family="Times,serif" font-size="16.00" fill="#000000">qu&#39;un</text>
<text text-anchor="middle" x="45.7704" y="-87.2" font-family="Times,serif" font-size="16.00" fill="#000000">idéal ?</text>
</g>
<!-- b1&#45;&gt;c1 -->
<g id="edge10" class="edge">
<title>b1&#45;&gt;c1</title>
<path fill="none" stroke="#000000" d="M81.4599,-228.9486C77.2531,-217.3322 72.6512,-204.6253 68.1925,-192.3135"/>
<polygon fill="#000000" stroke="#000000" points="71.3536,-190.7634 64.6576,-182.5528 64.772,-193.147 71.3536,-190.7634"/>
</g>
<!-- c2 -->
<g id="node8" class="node">
<title>c2</title>
<polygon fill="#ffffff" stroke="#7f7f7f" points="197.344,-192.1002 98.1968,-192.1002 98.1968,-68.6998 197.344,-68.6998 197.344,-192.1002"/>
<text text-anchor="middle" x="147.7704" y="-173.6" font-family="Times,serif" font-size="16.00" fill="#000000">Chapitre 2 :</text>
<text text-anchor="middle" x="147.7704" y="-154.4" font-family="Times,serif" font-size="16.00" fill="#000000">Comment</text>
<text text-anchor="middle" x="147.7704" y="-135.2" font-family="Times,serif" font-size="16.00" fill="#000000">peut&#45;on</text>
<text text-anchor="middle" x="147.7704" y="-116" font-family="Times,serif" font-size="16.00" fill="#000000">savoir ce qui</text>
<text text-anchor="middle" x="147.7704" y="-96.8" font-family="Times,serif" font-size="16.00" fill="#000000">est bien et ce</text>
<text text-anchor="middle" x="147.7704" y="-77.6" font-family="Times,serif" font-size="16.00" fill="#000000">qui est mal ?</text>
</g>
<!-- b1&#45;&gt;c2 -->
<g id="edge11" class="edge">
<title>b1&#45;&gt;c2</title>
<path fill="none" stroke="#000000" d="M113.4535,-228.9486C116.4718,-220.2808 119.7016,-211.0058 122.9279,-201.7409"/>
<polygon fill="#000000" stroke="#000000" points="126.2964,-202.7102 126.2797,-192.1154 119.6857,-200.4082 126.2964,-202.7102"/>
</g>
<!-- b2&#45;&gt;b3 -->
<!-- c3 -->
<g id="node9" class="node">
<title>c3</title>
<polygon fill="#ffffff" stroke="#7f7f7f" points="309.3123,-182.4 218.2285,-182.4 218.2285,-78.4 309.3123,-78.4 309.3123,-182.4"/>
<text text-anchor="middle" x="263.7704" y="-164" font-family="Times,serif" font-size="16.00" fill="#000000">Chapitre 3 :</text>
<text text-anchor="middle" x="263.7704" y="-144.8" font-family="Times,serif" font-size="16.00" fill="#000000">Le libre</text>
<text text-anchor="middle" x="263.7704" y="-125.6" font-family="Times,serif" font-size="16.00" fill="#000000">arbitre</text>
<text text-anchor="middle" x="263.7704" y="-106.4" font-family="Times,serif" font-size="16.00" fill="#000000">est&#45;il une</text>
<text text-anchor="middle" x="263.7704" y="-87.2" font-family="Times,serif" font-size="16.00" fill="#000000">illusion ?</text>
</g>
<!-- b2&#45;&gt;c3 -->
<g id="edge12" class="edge">
<title>b2&#45;&gt;c3</title>
<path fill="none" stroke="#000000" d="M321.3474,-242.1198C313.6604,-227.2042 304.2359,-208.9173 295.2549,-191.491"/>
<polygon fill="#000000" stroke="#000000" points="298.3026,-189.7646 290.6104,-182.479 292.0804,-192.9714 298.3026,-189.7646"/>
</g>
<!-- c4 -->
<g id="node10" class="node">
<title>c4</title>
<polygon fill="#ffffff" stroke="#7f7f7f" points="408.3123,-163.0012 317.2285,-163.0012 317.2285,-97.7988 408.3123,-97.7988 408.3123,-163.0012"/>
<text text-anchor="middle" x="362.7704" y="-144.8" font-family="Times,serif" font-size="16.00" fill="#000000">Chapitre 4 :</text>
<text text-anchor="middle" x="362.7704" y="-125.6" font-family="Times,serif" font-size="16.00" fill="#000000">Qui</text>
<text text-anchor="middle" x="362.7704" y="-106.4" font-family="Times,serif" font-size="16.00" fill="#000000">suis&#45;je ?</text>
</g>
<!-- b2&#45;&gt;c4 -->
<g id="edge13" class="edge">
<title>b2&#45;&gt;c4</title>
<path fill="none" stroke="#000000" d="M343.5059,-241.0446C347.0153,-220.8883 351.5428,-194.8852 355.3267,-173.1524"/>
<polygon fill="#000000" stroke="#000000" points="358.7943,-173.6405 357.0616,-163.1883 351.8981,-172.4397 358.7943,-173.6405"/>
</g>
<!-- b3&#45;&gt;b4 -->
<!-- c5 -->
<g id="node11" class="node">
<title>c5</title>
<polygon fill="#ffffff" stroke="#7f7f7f" points="528.3296,-192.1002 429.2112,-192.1002 429.2112,-68.6998 528.3296,-68.6998 528.3296,-192.1002"/>
<text text-anchor="middle" x="478.7704" y="-173.6" font-family="Times,serif" font-size="16.00" fill="#000000">Chapitre 5 :</text>
<text text-anchor="middle" x="478.7704" y="-154.4" font-family="Times,serif" font-size="16.00" fill="#000000">Peut&#45;on</text>
<text text-anchor="middle" x="478.7704" y="-135.2" font-family="Times,serif" font-size="16.00" fill="#000000">définir ce</text>
<text text-anchor="middle" x="478.7704" y="-116" font-family="Times,serif" font-size="16.00" fill="#000000">qui fait la</text>
<text text-anchor="middle" x="478.7704" y="-96.8" font-family="Times,serif" font-size="16.00" fill="#000000">valeur d&#39;une</text>
<text text-anchor="middle" x="478.7704" y="-77.6" font-family="Times,serif" font-size="16.00" fill="#000000">œuvre d&#39;art ?</text>
</g>
<!-- b3&#45;&gt;c5 -->
<g id="edge14" class="edge">
<title>b3&#45;&gt;c5</title>
<path fill="none" stroke="#000000" d="M558.6379,-242.8301C549.7393,-230.3035 539.0923,-215.3157 528.5173,-200.4291"/>
<polygon fill="#000000" stroke="#000000" points="531.3058,-198.3109 522.6612,-192.1854 525.5991,-202.3648 531.3058,-198.3109"/>
</g>
<!-- c6 -->
<g id="node12" class="node">
<title>c6</title>
<polygon fill="#ffffff" stroke="#7f7f7f" points="626.3123,-182.4 535.2285,-182.4 535.2285,-78.4 626.3123,-78.4 626.3123,-182.4"/>
<text text-anchor="middle" x="580.7704" y="-164" font-family="Times,serif" font-size="16.00" fill="#000000">Chapitre 6 :</text>
<text text-anchor="middle" x="580.7704" y="-144.8" font-family="Times,serif" font-size="16.00" fill="#000000">Faut&#45;il</text>
<text text-anchor="middle" x="580.7704" y="-125.6" font-family="Times,serif" font-size="16.00" fill="#000000">avoir peur</text>
<text text-anchor="middle" x="580.7704" y="-106.4" font-family="Times,serif" font-size="16.00" fill="#000000">de la</text>
<text text-anchor="middle" x="580.7704" y="-87.2" font-family="Times,serif" font-size="16.00" fill="#000000">technique ?</text>
</g>
<!-- b3&#45;&gt;c6 -->
<g id="edge15" class="edge">
<title>b3&#45;&gt;c6</title>
<path fill="none" stroke="#000000" d="M580.7704,-241.0446C580.7704,-226.7145 580.7704,-209.429 580.7704,-192.8238"/>
<polygon fill="#000000" stroke="#000000" points="584.2705,-192.6052 580.7704,-182.6052 577.2705,-192.6052 584.2705,-192.6052"/>
</g>
<!-- c7 -->
<g id="node13" class="node">
<title>c7</title>
<polygon fill="#ffffff" stroke="#7f7f7f" points="725.3123,-201.8006 634.2285,-201.8006 634.2285,-58.9994 725.3123,-58.9994 725.3123,-201.8006"/>
<text text-anchor="middle" x="679.7704" y="-183.2" font-family="Times,serif" font-size="16.00" fill="#000000">Chapitre 7 :</text>
<text text-anchor="middle" x="679.7704" y="-164" font-family="Times,serif" font-size="16.00" fill="#000000">Le langage</text>
<text text-anchor="middle" x="679.7704" y="-144.8" font-family="Times,serif" font-size="16.00" fill="#000000">est&#45;il un</text>
<text text-anchor="middle" x="679.7704" y="-125.6" font-family="Times,serif" font-size="16.00" fill="#000000">simple</text>
<text text-anchor="middle" x="679.7704" y="-106.4" font-family="Times,serif" font-size="16.00" fill="#000000">moyen de</text>
<text text-anchor="middle" x="679.7704" y="-87.2" font-family="Times,serif" font-size="16.00" fill="#000000">communi&#45;</text>
<text text-anchor="middle" x="679.7704" y="-68" font-family="Times,serif" font-size="16.00" fill="#000000">cation ?</text>
</g>
<!-- b3&#45;&gt;c7 -->
<g id="edge16" class="edge">
<title>b3&#45;&gt;c7</title>
<path fill="none" stroke="#000000" d="M602.2519,-242.8301C610.0225,-231.56 619.1666,-218.2977 628.3976,-204.9093"/>
<polygon fill="#000000" stroke="#000000" points="631.3501,-206.7931 634.145,-196.5735 625.5871,-202.8196 631.3501,-206.7931"/>
</g>
<!-- b4&#45;&gt;b5 -->
<!-- c8 -->
<g id="node14" class="node">
<title>c8</title>
<polygon fill="#ffffff" stroke="#7f7f7f" points="853.2915,-201.8006 746.2493,-201.8006 746.2493,-58.9994 853.2915,-58.9994 853.2915,-201.8006"/>
<text text-anchor="middle" x="799.7704" y="-183.2" font-family="Times,serif" font-size="16.00" fill="#000000">Chapitre 8 :</text>
<text text-anchor="middle" x="799.7704" y="-164" font-family="Times,serif" font-size="16.00" fill="#000000">Étude d&#39;une</text>
<text text-anchor="middle" x="799.7704" y="-144.8" font-family="Times,serif" font-size="16.00" fill="#000000">œuvre suivie</text>
<text text-anchor="middle" x="799.7704" y="-125.6" font-family="Times,serif" font-size="16.00" fill="#000000">(Rousseau,</text>
<text text-anchor="middle" x="799.7704" y="-106.4" font-family="Times,serif" font-size="16.00" fill="#000000">Discours sur</text>
<text text-anchor="middle" x="799.7704" y="-87.2" font-family="Times,serif" font-size="16.00" fill="#000000">l&#39;économie</text>
<text text-anchor="middle" x="799.7704" y="-68" font-family="Times,serif" font-size="16.00" fill="#000000">politique, I&#45;II)</text>
</g>
<!-- b4&#45;&gt;c8 -->
<g id="edge17" class="edge">
<title>b4&#45;&gt;c8</title>
<path fill="none" stroke="#000000" d="M825.6425,-228.1599C824.2093,-222.7443 822.7157,-217.1009 821.2013,-211.3784"/>
<polygon fill="#000000" stroke="#000000" points="824.5817,-210.471 818.6397,-201.6993 817.8147,-212.262 824.5817,-210.471"/>
</g>
<!-- c9 -->
<g id="node15" class="node">
<title>c9</title>
<polygon fill="#ffffff" stroke="#7f7f7f" points="952.3123,-182.4 861.2285,-182.4 861.2285,-78.4 952.3123,-78.4 952.3123,-182.4"/>
<text text-anchor="middle" x="906.7704" y="-164" font-family="Times,serif" font-size="16.00" fill="#000000">Chapitre 9 :</text>
<text text-anchor="middle" x="906.7704" y="-144.8" font-family="Times,serif" font-size="16.00" fill="#000000">Quelle est</text>
<text text-anchor="middle" x="906.7704" y="-125.6" font-family="Times,serif" font-size="16.00" fill="#000000">la finalité</text>
<text text-anchor="middle" x="906.7704" y="-106.4" font-family="Times,serif" font-size="16.00" fill="#000000">de la</text>
<text text-anchor="middle" x="906.7704" y="-87.2" font-family="Times,serif" font-size="16.00" fill="#000000">politique ?</text>
</g>
<!-- b4&#45;&gt;c9 -->
<g id="edge18" class="edge">
<title>b4&#45;&gt;c9</title>
<path fill="none" stroke="#000000" d="M858.8476,-230.1254C864.6518,-218.047 871.0566,-204.719 877.2434,-191.8444"/>
<polygon fill="#000000" stroke="#000000" points="880.5215,-193.1035 881.6982,-182.5742 874.2122,-190.0716 880.5215,-193.1035"/>
</g>
<!-- c10 -->
<g id="node16" class="node">
<title>c10</title>
<polygon fill="#ffffff" stroke="#7f7f7f" points="1072.3123,-182.4 973.2285,-182.4 973.2285,-78.4 1072.3123,-78.4 1072.3123,-182.4"/>
<text text-anchor="middle" x="1022.7704" y="-164" font-family="Times,serif" font-size="16.00" fill="#000000">Chapitre 10 :</text>
<text text-anchor="middle" x="1022.7704" y="-144.8" font-family="Times,serif" font-size="16.00" fill="#000000">Comment</text>
<text text-anchor="middle" x="1022.7704" y="-125.6" font-family="Times,serif" font-size="16.00" fill="#000000">peut&#45;on</text>
<text text-anchor="middle" x="1022.7704" y="-106.4" font-family="Times,serif" font-size="16.00" fill="#000000">parvenir à</text>
<text text-anchor="middle" x="1022.7704" y="-87.2" font-family="Times,serif" font-size="16.00" fill="#000000">la vérité ?</text>
</g>
<!-- b5&#45;&gt;c10 -->
<g id="edge19" class="edge">
<title>b5&#45;&gt;c10</title>
<path fill="none" stroke="#000000" d="M1049.7407,-241.0446C1046.2147,-226.5793 1041.9546,-209.1026 1037.8721,-192.3541"/>
<polygon fill="#000000" stroke="#000000" points="1041.2645,-191.4918 1035.4957,-182.6052 1034.4636,-193.1496 1041.2645,-191.4918"/>
</g>
<!-- c11 -->
<g id="node17" class="node">
<title>c11</title>
<polygon fill="#ffffff" stroke="#7f7f7f" points="1179.3123,-192.1002 1080.2285,-192.1002 1080.2285,-68.6998 1179.3123,-68.6998 1179.3123,-192.1002"/>
<text text-anchor="middle" x="1129.7704" y="-173.6" font-family="Times,serif" font-size="16.00" fill="#000000">Chapitre 11 :</text>
<text text-anchor="middle" x="1129.7704" y="-154.4" font-family="Times,serif" font-size="16.00" fill="#000000">Comment</text>
<text text-anchor="middle" x="1129.7704" y="-135.2" font-family="Times,serif" font-size="16.00" fill="#000000">peut&#45;on</text>
<text text-anchor="middle" x="1129.7704" y="-116" font-family="Times,serif" font-size="16.00" fill="#000000">comprendre</text>
<text text-anchor="middle" x="1129.7704" y="-96.8" font-family="Times,serif" font-size="16.00" fill="#000000">la foi</text>
<text text-anchor="middle" x="1129.7704" y="-77.6" font-family="Times,serif" font-size="16.00" fill="#000000">religieuse ?</text>
</g>
<!-- b5&#45;&gt;c11 -->
<g id="edge20" class="edge">
<title>b5&#45;&gt;c11</title>
<path fill="none" stroke="#000000" d="M1074.1083,-241.4043C1080.0985,-229.4584 1087.1363,-215.4232 1094.1547,-201.4268"/>
<polygon fill="#000000" stroke="#000000" points="1097.3989,-202.7651 1098.7527,-192.2571 1091.1415,-199.6273 1097.3989,-202.7651"/>
</g>
<!-- e1 -->
<g id="node18" class="node">
<title>e1</title>
<path fill="#fafafa" stroke="transparent" d="M70.7496,-43.9005C70.7496,-43.9005 20.7912,-43.9005 20.7912,-43.9005 14.7912,-43.9005 8.7912,-37.9005 8.7912,-31.9005 8.7912,-31.9005 8.7912,-19.2995 8.7912,-19.2995 8.7912,-13.2995 14.7912,-7.2995 20.7912,-7.2995 20.7912,-7.2995 70.7496,-7.2995 70.7496,-7.2995 76.7496,-7.2995 82.7496,-13.2995 82.7496,-19.2995 82.7496,-19.2995 82.7496,-31.9005 82.7496,-31.9005 82.7496,-37.9005 76.7496,-43.9005 70.7496,-43.9005"/>
<text text-anchor="middle" x="45.7704" y="-29.2" font-family="Times,serif" font-size="12.00" fill="#cd2626">Le bonheur,</text>
<text text-anchor="middle" x="45.7704" y="-14.8" font-family="Times,serif" font-size="12.00" fill="#cd2626">le temps</text>
</g>
<!-- c1&#45;&gt;e1 -->
<!-- c2&#45;&gt;c3 -->
<!-- e2 -->
<g id="node19" class="node">
<title>e2</title>
<path fill="#fafafa" stroke="transparent" d="M168.5852,-43.9005C168.5852,-43.9005 126.9556,-43.9005 126.9556,-43.9005 120.9556,-43.9005 114.9556,-37.9005 114.9556,-31.9005 114.9556,-31.9005 114.9556,-19.2995 114.9556,-19.2995 114.9556,-13.2995 120.9556,-7.2995 126.9556,-7.2995 126.9556,-7.2995 168.5852,-7.2995 168.5852,-7.2995 174.5852,-7.2995 180.5852,-13.2995 180.5852,-19.2995 180.5852,-19.2995 180.5852,-31.9005 180.5852,-31.9005 180.5852,-37.9005 174.5852,-43.9005 168.5852,-43.9005"/>
<text text-anchor="middle" x="147.7704" y="-29.2" font-family="Times,serif" font-size="12.00" fill="#cd2626">Le devoir,</text>
<text text-anchor="middle" x="147.7704" y="-14.8" font-family="Times,serif" font-size="12.00" fill="#cd2626">la nature</text>
</g>
<!-- c2&#45;&gt;e2 -->
<!-- e3 -->
<g id="node20" class="node">
<title>e3</title>
<path fill="#fafafa" stroke="transparent" d="M290.7516,-43.9005C290.7516,-43.9005 236.7892,-43.9005 236.7892,-43.9005 230.7892,-43.9005 224.7892,-37.9005 224.7892,-31.9005 224.7892,-31.9005 224.7892,-19.2995 224.7892,-19.2995 224.7892,-13.2995 230.7892,-7.2995 236.7892,-7.2995 236.7892,-7.2995 290.7516,-7.2995 290.7516,-7.2995 296.7516,-7.2995 302.7516,-13.2995 302.7516,-19.2995 302.7516,-19.2995 302.7516,-31.9005 302.7516,-31.9005 302.7516,-37.9005 296.7516,-43.9005 290.7516,-43.9005"/>
<text text-anchor="middle" x="263.7704" y="-29.2" font-family="Times,serif" font-size="12.00" fill="#cd2626">La liberté,</text>
<text text-anchor="middle" x="263.7704" y="-14.8" font-family="Times,serif" font-size="12.00" fill="#cd2626">l&#39;inconscient</text>
</g>
<!-- c3&#45;&gt;e3 -->
<!-- c4&#45;&gt;c5 -->
<!-- e4 -->
<g id="node21" class="node">
<title>e4</title>
<path fill="#fafafa" stroke="transparent" d="M393.0641,-43.6C393.0641,-43.6 332.4767,-43.6 332.4767,-43.6 326.4767,-43.6 320.4767,-37.6 320.4767,-31.6 320.4767,-31.6 320.4767,-19.6 320.4767,-19.6 320.4767,-13.6 326.4767,-7.6 332.4767,-7.6 332.4767,-7.6 393.0641,-7.6 393.0641,-7.6 399.0641,-7.6 405.0641,-13.6 405.0641,-19.6 405.0641,-19.6 405.0641,-31.6 405.0641,-31.6 405.0641,-37.6 399.0641,-43.6 393.0641,-43.6"/>
<text text-anchor="middle" x="362.7704" y="-22" font-family="Times,serif" font-size="12.00" fill="#cd2626">La conscience</text>
</g>
<!-- c4&#45;&gt;e4 -->
<!-- e5 -->
<g id="node22" class="node">
<title>e5</title>
<path fill="#fafafa" stroke="transparent" d="M493.7704,-43.6C493.7704,-43.6 463.7704,-43.6 463.7704,-43.6 457.7704,-43.6 451.7704,-37.6 451.7704,-31.6 451.7704,-31.6 451.7704,-19.6 451.7704,-19.6 451.7704,-13.6 457.7704,-7.6 463.7704,-7.6 463.7704,-7.6 493.7704,-7.6 493.7704,-7.6 499.7704,-7.6 505.7704,-13.6 505.7704,-19.6 505.7704,-19.6 505.7704,-31.6 505.7704,-31.6 505.7704,-37.6 499.7704,-43.6 493.7704,-43.6"/>
<text text-anchor="middle" x="478.7704" y="-22" font-family="Times,serif" font-size="12.00" fill="#cd2626">L&#39;art</text>
</g>
<!-- c5&#45;&gt;e5 -->
<!-- e6 -->
<g id="node23" class="node">
<title>e6</title>
<path fill="#fafafa" stroke="transparent" d="M609.5786,-51.3004C609.5786,-51.3004 551.9622,-51.3004 551.9622,-51.3004 545.9622,-51.3004 539.9622,-45.3004 539.9622,-39.3004 539.9622,-39.3004 539.9622,-11.8996 539.9622,-11.8996 539.9622,-5.8996 545.9622,.1004 551.9622,.1004 551.9622,.1004 609.5786,.1004 609.5786,.1004 615.5786,.1004 621.5786,-5.8996 621.5786,-11.8996 621.5786,-11.8996 621.5786,-39.3004 621.5786,-39.3004 621.5786,-45.3004 615.5786,-51.3004 609.5786,-51.3004"/>
<text text-anchor="middle" x="580.7704" y="-36.4" font-family="Times,serif" font-size="12.00" fill="#cd2626">La technique,</text>
<text text-anchor="middle" x="580.7704" y="-22" font-family="Times,serif" font-size="12.00" fill="#cd2626">le travail,</text>
<text text-anchor="middle" x="580.7704" y="-7.6" font-family="Times,serif" font-size="12.00" fill="#cd2626">la nature</text>
</g>
<!-- c6&#45;&gt;e6 -->
<!-- c7&#45;&gt;c8 -->
<!-- e7 -->
<g id="node24" class="node">
<title>e7</title>
<path fill="#fafafa" stroke="transparent" d="M702.2432,-43.6C702.2432,-43.6 657.2976,-43.6 657.2976,-43.6 651.2976,-43.6 645.2976,-37.6 645.2976,-31.6 645.2976,-31.6 645.2976,-19.6 645.2976,-19.6 645.2976,-13.6 651.2976,-7.6 657.2976,-7.6 657.2976,-7.6 702.2432,-7.6 702.2432,-7.6 708.2432,-7.6 714.2432,-13.6 714.2432,-19.6 714.2432,-19.6 714.2432,-31.6 714.2432,-31.6 714.2432,-37.6 708.2432,-43.6 702.2432,-43.6"/>
<text text-anchor="middle" x="679.7704" y="-22" font-family="Times,serif" font-size="12.00" fill="#cd2626">Le langage</text>
</g>
<!-- c7&#45;&gt;e7 -->
<!-- e8 -->
<g id="node25" class="node">
<title>e8</title>
<path fill="#fafafa" stroke="transparent" d="M818.7568,-51.3004C818.7568,-51.3004 780.784,-51.3004 780.784,-51.3004 774.784,-51.3004 768.784,-45.3004 768.784,-39.3004 768.784,-39.3004 768.784,-11.8996 768.784,-11.8996 768.784,-5.8996 774.784,.1004 780.784,.1004 780.784,.1004 818.7568,.1004 818.7568,.1004 824.7568,.1004 830.7568,-5.8996 830.7568,-11.8996 830.7568,-11.8996 830.7568,-39.3004 830.7568,-39.3004 830.7568,-45.3004 824.7568,-51.3004 818.7568,-51.3004"/>
<text text-anchor="middle" x="799.7704" y="-36.4" font-family="Times,serif" font-size="12.00" fill="#cd2626">L’État,</text>
<text text-anchor="middle" x="799.7704" y="-22" font-family="Times,serif" font-size="12.00" fill="#cd2626">la justice,</text>
<text text-anchor="middle" x="799.7704" y="-7.6" font-family="Times,serif" font-size="12.00" fill="#cd2626">la liberté</text>
</g>
<!-- c8&#45;&gt;e8 -->
<!-- c9&#45;&gt;c10 -->
<!-- e9 -->
<g id="node26" class="node">
<title>e9</title>
<path fill="#fafafa" stroke="transparent" d="M925.7568,-51.3004C925.7568,-51.3004 887.784,-51.3004 887.784,-51.3004 881.784,-51.3004 875.784,-45.3004 875.784,-39.3004 875.784,-39.3004 875.784,-11.8996 875.784,-11.8996 875.784,-5.8996 881.784,.1004 887.784,.1004 887.784,.1004 925.7568,.1004 925.7568,.1004 931.7568,.1004 937.7568,-5.8996 937.7568,-11.8996 937.7568,-11.8996 937.7568,-39.3004 937.7568,-39.3004 937.7568,-45.3004 931.7568,-51.3004 925.7568,-51.3004"/>
<text text-anchor="middle" x="906.7704" y="-36.4" font-family="Times,serif" font-size="12.00" fill="#cd2626">L’État,</text>
<text text-anchor="middle" x="906.7704" y="-22" font-family="Times,serif" font-size="12.00" fill="#cd2626">la justice,</text>
<text text-anchor="middle" x="906.7704" y="-7.6" font-family="Times,serif" font-size="12.00" fill="#cd2626">la liberté</text>
</g>
<!-- c9&#45;&gt;e9 -->
<!-- e10 -->
<g id="node27" class="node">
<title>e10</title>
<path fill="#fafafa" stroke="transparent" d="M1042.4007,-51.3004C1042.4007,-51.3004 1003.1401,-51.3004 1003.1401,-51.3004 997.1401,-51.3004 991.1401,-45.3004 991.1401,-39.3004 991.1401,-39.3004 991.1401,-11.8996 991.1401,-11.8996 991.1401,-5.8996 997.1401,.1004 1003.1401,.1004 1003.1401,.1004 1042.4007,.1004 1042.4007,.1004 1048.4007,.1004 1054.4007,-5.8996 1054.4007,-11.8996 1054.4007,-11.8996 1054.4007,-39.3004 1054.4007,-39.3004 1054.4007,-45.3004 1048.4007,-51.3004 1042.4007,-51.3004"/>
<text text-anchor="middle" x="1022.7704" y="-36.4" font-family="Times,serif" font-size="12.00" fill="#cd2626">La vérité,</text>
<text text-anchor="middle" x="1022.7704" y="-22" font-family="Times,serif" font-size="12.00" fill="#cd2626">la raison,</text>
<text text-anchor="middle" x="1022.7704" y="-7.6" font-family="Times,serif" font-size="12.00" fill="#cd2626">la science</text>
</g>
<!-- c10&#45;&gt;e10 -->
<!-- e11 -->
<g id="node28" class="node">
<title>e11</title>
<path fill="#fafafa" stroke="transparent" d="M1153.754,-43.9005C1153.754,-43.9005 1105.7868,-43.9005 1105.7868,-43.9005 1099.7868,-43.9005 1093.7868,-37.9005 1093.7868,-31.9005 1093.7868,-31.9005 1093.7868,-19.2995 1093.7868,-19.2995 1093.7868,-13.2995 1099.7868,-7.2995 1105.7868,-7.2995 1105.7868,-7.2995 1153.754,-7.2995 1153.754,-7.2995 1159.754,-7.2995 1165.754,-13.2995 1165.754,-19.2995 1165.754,-19.2995 1165.754,-31.9005 1165.754,-31.9005 1165.754,-37.9005 1159.754,-43.9005 1153.754,-43.9005"/>
<text text-anchor="middle" x="1129.7704" y="-29.2" font-family="Times,serif" font-size="12.00" fill="#cd2626">La religion,</text>
<text text-anchor="middle" x="1129.7704" y="-14.8" font-family="Times,serif" font-size="12.00" fill="#cd2626">la raison</text>
</g>
<!-- c11&#45;&gt;e11 -->
</g>
</svg>
