<?xml version="1.0" encoding="UTF-8" standalone="no"?>
<!DOCTYPE svg PUBLIC "-//W3C//DTD SVG 1.1//EN"
 "http://www.w3.org/Graphics/SVG/1.1/DTD/svg11.dtd">
<!-- Generated by graphviz version 2.40.1 (20161225.0304)
 -->
<!-- Title: G Pages: 1 -->
<svg width="742pt" height="468pt"
 viewBox="0.00 0.00 742.43 468.36" xmlns="http://www.w3.org/2000/svg" xmlns:xlink="http://www.w3.org/1999/xlink">
<g id="graph0" class="graph" transform="scale(1 1) rotate(0) translate(21.6 446.7627)">
<title>G</title>
<polygon fill="#fafafa" stroke="transparent" points="-21.6,21.6 -21.6,-446.7627 720.825,-446.7627 720.825,21.6 -21.6,21.6"/>
<!-- a1 -->
<g id="node1" class="node">
<title>a1</title>
<ellipse fill="#050505" stroke="#000000" cx="118.7603" cy="-221.9627" rx="118.521" ry="51.4548"/>
<text text-anchor="middle" x="118.7603" y="-238.1627" font-family="Times,serif" font-size="18.00" fill="#ffffff">Comment peut&#45;on</text>
<text text-anchor="middle" x="118.7603" y="-216.5627" font-family="Times,serif" font-size="18.00" fill="#ffffff">savoir ce qui est bien</text>
<text text-anchor="middle" x="118.7603" y="-194.9627" font-family="Times,serif" font-size="18.00" fill="#ffffff">et ce qui est mal ?</text>
</g>
<!-- b1 -->
<g id="node2" class="node">
<title>b1</title>
<ellipse fill="#8b0000" stroke="#000000" cx="414.8813" cy="-356.9627" rx="107.9905" ry="32.6206"/>
<text text-anchor="middle" x="414.8813" y="-361.7627" font-family="Times,serif" font-size="16.00" fill="#ffffff">La morale est&#45;elle</text>
<text text-anchor="middle" x="414.8813" y="-342.5627" font-family="Times,serif" font-size="16.00" fill="#ffffff">relative à la culture ?</text>
</g>
<!-- a1&#45;&gt;b1 -->
<g id="edge1" class="edge">
<title>a1&#45;&gt;b1:w</title>
<path fill="none" stroke="#000000" d="M156.7642,-271.0826C189.3214,-307.4962 239.8473,-351.6345 296.5949,-356.5178"/>
<polygon fill="#000000" stroke="#000000" points="296.7394,-360.0272 306.8813,-356.9627 297.0419,-353.0337 296.7394,-360.0272"/>
<text text-anchor="start" x="268.1812" y="-357.1627" font-family="Times,serif" font-size="14.00" fill="#006400">I</text>
</g>
<!-- b2 -->
<g id="node3" class="node">
<title>b2</title>
<ellipse fill="#8b0000" stroke="#000000" cx="414.8813" cy="-221.9627" rx="104.0138" ry="46.2727"/>
<text text-anchor="middle" x="414.8813" y="-236.3627" font-family="Times,serif" font-size="16.00" fill="#ffffff">Est&#45;ce le cœur ou</text>
<text text-anchor="middle" x="414.8813" y="-217.1627" font-family="Times,serif" font-size="16.00" fill="#ffffff">la raison qui indique</text>
<text text-anchor="middle" x="414.8813" y="-197.9627" font-family="Times,serif" font-size="16.00" fill="#ffffff">le bien et le mal ?</text>
</g>
<!-- a1&#45;&gt;b2 -->
<g id="edge2" class="edge">
<title>a1&#45;&gt;b2:w</title>
<path fill="none" stroke="#000000" d="M237.643,-221.9627C258.4684,-221.9627 280.099,-221.9627 300.8008,-221.9627"/>
<polygon fill="#000000" stroke="#000000" points="300.8813,-225.4628 310.8813,-221.9627 300.8813,-218.4628 300.8813,-225.4628"/>
<text text-anchor="start" x="265.8509" y="-227.1627" font-family="Times,serif" font-size="14.00" fill="#006400">II</text>
</g>
<!-- b3 -->
<g id="node4" class="node">
<title>b3</title>
<ellipse fill="#8b0000" stroke="#000000" cx="414.8813" cy="-59.9627" rx="111.258" ry="59.9253"/>
<text text-anchor="middle" x="414.8813" y="-83.9627" font-family="Times,serif" font-size="16.00" fill="#ffffff">Comment la réflexion</text>
<text text-anchor="middle" x="414.8813" y="-64.7627" font-family="Times,serif" font-size="16.00" fill="#ffffff">peut&#45;elle nous aider à</text>
<text text-anchor="middle" x="414.8813" y="-45.5627" font-family="Times,serif" font-size="16.00" fill="#ffffff">saisir ce qui est bien</text>
<text text-anchor="middle" x="414.8813" y="-26.3627" font-family="Times,serif" font-size="16.00" fill="#ffffff">et ce qui est mal ?</text>
</g>
<!-- a1&#45;&gt;b3 -->
<g id="edge3" class="edge">
<title>a1&#45;&gt;b3:w</title>
<path fill="none" stroke="#000000" d="M147.8275,-171.5929C177.8532,-126.4523 229.2612,-66.4276 293.1439,-60.4478"/>
<polygon fill="#000000" stroke="#000000" points="293.6771,-63.9268 303.5024,-59.9627 293.3495,-56.9344 293.6771,-63.9268"/>
<text text-anchor="start" x="263.5206" y="-72.1627" font-family="Times,serif" font-size="14.00" fill="#006400">III</text>
</g>
<!-- b1&#45;&gt;b2 -->
<!-- c1 -->
<g id="node5" class="node">
<title>c1</title>
<polygon fill="#ffffff" stroke="#7f7f7f" points="693.2074,-425.3644 585.2778,-425.3644 585.2778,-378.5609 693.2074,-378.5609 693.2074,-425.3644"/>
<text text-anchor="middle" x="639.2426" y="-406.7627" font-family="Times,serif" font-size="16.00" fill="#000000">Le relativisme</text>
<text text-anchor="middle" x="639.2426" y="-387.5627" font-family="Times,serif" font-size="16.00" fill="#000000">culturel</text>
</g>
<!-- b1&#45;&gt;c1 -->
<g id="edge6" class="edge">
<title>b1&#45;&gt;c1</title>
<path fill="none" stroke="#000000" d="M505.1678,-375.0714C528.7152,-379.7942 553.6017,-384.7857 575.4565,-389.1691"/>
<polygon fill="#000000" stroke="#000000" points="574.7758,-392.6022 585.2689,-391.1372 576.1525,-385.7389 574.7758,-392.6022"/>
</g>
<!-- c2 -->
<g id="node6" class="node">
<title>c2</title>
<polygon fill="#ffffff" stroke="#7f7f7f" points="699.2074,-365.3644 579.2778,-365.3644 579.2778,-318.5609 699.2074,-318.5609 699.2074,-365.3644"/>
<text text-anchor="middle" x="639.2426" y="-346.7627" font-family="Times,serif" font-size="16.00" fill="#000000">L&#39;universalisme</text>
<text text-anchor="middle" x="639.2426" y="-327.5627" font-family="Times,serif" font-size="16.00" fill="#000000">moral</text>
</g>
<!-- b1&#45;&gt;c2 -->
<g id="edge7" class="edge">
<title>b1&#45;&gt;c2</title>
<path fill="none" stroke="#000000" d="M520.1641,-349.9238C536.7884,-348.8124 553.6155,-347.6874 569.1776,-346.647"/>
<polygon fill="#000000" stroke="#000000" points="569.4624,-350.1358 579.2066,-345.9765 568.9954,-343.1514 569.4624,-350.1358"/>
</g>
<!-- b2&#45;&gt;b3 -->
<!-- c3 -->
<g id="node7" class="node">
<title>c3</title>
<polygon fill="#ffffff" stroke="#7f7f7f" points="678.0633,-262.9627 600.422,-262.9627 600.422,-226.9627 678.0633,-226.9627 678.0633,-262.9627"/>
<text text-anchor="middle" x="639.2426" y="-240.1627" font-family="Times,serif" font-size="16.00" fill="#000000">Rousseau</text>
</g>
<!-- b2&#45;&gt;c3 -->
<g id="edge8" class="edge">
<title>b2&#45;&gt;c3</title>
<path fill="none" stroke="#000000" d="M516.5587,-232.3859C542.2824,-235.0229 568.7491,-237.7361 590.4848,-239.9643"/>
<polygon fill="#000000" stroke="#000000" points="590.1292,-243.4461 600.434,-240.9843 590.8431,-236.4826 590.1292,-243.4461"/>
</g>
<!-- c4 -->
<g id="node8" class="node">
<title>c4</title>
<polygon fill="#ffffff" stroke="#7f7f7f" points="666.2426,-212.9627 612.2426,-212.9627 612.2426,-176.9627 666.2426,-176.9627 666.2426,-212.9627"/>
<text text-anchor="middle" x="639.2426" y="-190.1627" font-family="Times,serif" font-size="16.00" fill="#000000">Kant</text>
</g>
<!-- b2&#45;&gt;c4 -->
<g id="edge9" class="edge">
<title>b2&#45;&gt;c4</title>
<path fill="none" stroke="#000000" d="M515.577,-209.8448C546.4259,-206.1324 578.4455,-202.2791 602.1725,-199.4237"/>
<polygon fill="#000000" stroke="#000000" points="602.6204,-202.8952 612.1306,-198.2254 601.784,-195.9453 602.6204,-202.8952"/>
</g>
<!-- c5 -->
<g id="node9" class="node">
<title>c5</title>
<polygon fill="#ffffff" stroke="#7f7f7f" points="676.011,-92.9627 602.4743,-92.9627 602.4743,-56.9627 676.011,-56.9627 676.011,-92.9627"/>
<text text-anchor="middle" x="639.2426" y="-70.1627" font-family="Times,serif" font-size="16.00" fill="#000000">Bentham</text>
</g>
<!-- b3&#45;&gt;c5 -->
<g id="edge10" class="edge">
<title>b3&#45;&gt;c5</title>
<path fill="none" stroke="#000000" d="M525.4187,-67.3528C548.9525,-68.9262 572.5826,-70.506 592.1653,-71.8152"/>
<polygon fill="#000000" stroke="#000000" points="592.0961,-75.3183 602.3073,-72.4933 592.5631,-68.3339 592.0961,-75.3183"/>
</g>
<!-- c6 -->
<g id="node10" class="node">
<title>c6</title>
<polygon fill="#ffffff" stroke="#7f7f7f" points="666.2426,-42.9627 612.2426,-42.9627 612.2426,-6.9627 666.2426,-6.9627 666.2426,-42.9627"/>
<text text-anchor="middle" x="639.2426" y="-20.1627" font-family="Times,serif" font-size="16.00" fill="#000000">Kant</text>
</g>
<!-- b3&#45;&gt;c6 -->
<g id="edge11" class="edge">
<title>b3&#45;&gt;c6</title>
<path fill="none" stroke="#000000" d="M522.1336,-43.2315C550.9228,-38.7404 580.1456,-34.1817 602.1983,-30.7415"/>
<polygon fill="#000000" stroke="#000000" points="602.7651,-34.1955 612.1061,-29.1959 601.6861,-27.2792 602.7651,-34.1955"/>
</g>
<!-- c2&#45;&gt;c3 -->
<!-- c4&#45;&gt;c5 -->
</g>
</svg>
