<?xml version="1.0" encoding="UTF-8" standalone="no"?>
<!DOCTYPE svg PUBLIC "-//W3C//DTD SVG 1.1//EN"
 "http://www.w3.org/Graphics/SVG/1.1/DTD/svg11.dtd">
<!-- Generated by graphviz version 2.40.1 (20161225.0304)
 -->
<!-- Title: G Pages: 1 -->
<svg width="826pt" height="579pt"
 viewBox="0.00 0.00 825.66 578.80" xmlns="http://www.w3.org/2000/svg" xmlns:xlink="http://www.w3.org/1999/xlink">
<g id="graph0" class="graph" transform="scale(1 1) rotate(0) translate(21.6 557.2)">
<title>G</title>
<polygon fill="#fafafa" stroke="transparent" points="-21.6,21.6 -21.6,-557.2 804.0614,-557.2 804.0614,21.6 -21.6,21.6"/>
<!-- a1 -->
<g id="node1" class="node">
<title>a1</title>
<ellipse fill="#050505" stroke="#000000" cx="53.3706" cy="-279" rx="53.2415" ry="36.4089"/>
<text text-anchor="middle" x="53.3706" y="-284.4" font-family="Times,serif" font-size="18.00" fill="#ffffff">Qui</text>
<text text-anchor="middle" x="53.3706" y="-262.8" font-family="Times,serif" font-size="18.00" fill="#ffffff">suis&#45;je ?</text>
</g>
<!-- p1 -->
<g id="node2" class="node">
<title>p1</title>
<path fill="#fafafa" stroke="#006400" d="M228.8398,-422.6019C228.8398,-422.6019 157.9925,-422.6019 157.9925,-422.6019 151.9925,-422.6019 145.9925,-416.6019 145.9925,-410.6019 145.9925,-410.6019 145.9925,-393.3981 145.9925,-393.3981 145.9925,-387.3981 151.9925,-381.3981 157.9925,-381.3981 157.9925,-381.3981 228.8398,-381.3981 228.8398,-381.3981 234.8398,-381.3981 240.8398,-387.3981 240.8398,-393.3981 240.8398,-393.3981 240.8398,-410.6019 240.8398,-410.6019 240.8398,-416.6019 234.8398,-422.6019 228.8398,-422.6019"/>
<text text-anchor="middle" x="193.4162" y="-406.2" font-family="Times,serif" font-size="14.00" fill="#006400">I – Le moi en</text>
<text text-anchor="middle" x="193.4162" y="-389.4" font-family="Times,serif" font-size="14.00" fill="#006400">tant que tel</text>
</g>
<!-- a1&#45;&gt;p1 -->
<g id="edge1" class="edge">
<title>a1&#45;&gt;p1:w</title>
<path fill="none" stroke="#000000" d="M63.5357,-314.5767C76.3538,-350.9033 102.2361,-402 146.4162,-402"/>
</g>
<!-- p2 -->
<g id="node3" class="node">
<title>p2</title>
<path fill="#fafafa" stroke="#006400" d="M242.2667,-185.4014C242.2667,-185.4014 144.5657,-185.4014 144.5657,-185.4014 138.5657,-185.4014 132.5657,-179.4014 132.5657,-173.4014 132.5657,-173.4014 132.5657,-138.5986 132.5657,-138.5986 132.5657,-132.5986 138.5657,-126.5986 144.5657,-126.5986 144.5657,-126.5986 242.2667,-126.5986 242.2667,-126.5986 248.2667,-126.5986 254.2667,-132.5986 254.2667,-138.5986 254.2667,-138.5986 254.2667,-173.4014 254.2667,-173.4014 254.2667,-179.4014 248.2667,-185.4014 242.2667,-185.4014"/>
<text text-anchor="middle" x="193.4162" y="-168.6" font-family="Times,serif" font-size="14.00" fill="#006400">II – Le moi dans</text>
<text text-anchor="middle" x="193.4162" y="-151.8" font-family="Times,serif" font-size="14.00" fill="#006400">son rapport aux</text>
<text text-anchor="middle" x="193.4162" y="-135" font-family="Times,serif" font-size="14.00" fill="#006400">autres et au monde</text>
</g>
<!-- a1&#45;&gt;p2 -->
<g id="edge2" class="edge">
<title>a1&#45;&gt;p2:w</title>
<path fill="none" stroke="#000000" d="M60.5189,-243.0927C70.0836,-206.7875 90.9349,-156 132.7412,-156"/>
</g>
<!-- p1&#45;&gt;p2 -->
<!-- b1 -->
<g id="node4" class="node">
<title>b1</title>
<ellipse fill="#8b0000" stroke="#000000" cx="386.5905" cy="-465" rx="106.4987" ry="46.2727"/>
<text text-anchor="middle" x="386.5905" y="-479.4" font-family="Times,serif" font-size="16.00" fill="#ffffff">Le corps et l&#39;esprit</text>
<text text-anchor="middle" x="386.5905" y="-460.2" font-family="Times,serif" font-size="16.00" fill="#ffffff">sont&#45;ils deux réalités</text>
<text text-anchor="middle" x="386.5905" y="-441" font-family="Times,serif" font-size="16.00" fill="#ffffff">distinctes ?</text>
</g>
<!-- p1&#45;&gt;b1 -->
<g id="edge4" class="edge">
<title>p1&#45;&gt;b1:w</title>
<path fill="none" stroke="#000000" d="M208.8748,-422.6286C222.7319,-438.8489 244.7184,-459.4527 269.9039,-464.059"/>
<polygon fill="#000000" stroke="#000000" points="269.8116,-467.5653 280.0912,-465 270.4555,-460.5949 269.8116,-467.5653"/>
</g>
<!-- b2 -->
<g id="node5" class="node">
<title>b2</title>
<ellipse fill="#8b0000" stroke="#000000" cx="386.5905" cy="-344" rx="78.2923" ry="32.6206"/>
<text text-anchor="middle" x="386.5905" y="-348.8" font-family="Times,serif" font-size="16.00" fill="#ffffff">Y a&#45;t&#45;il une</text>
<text text-anchor="middle" x="386.5905" y="-329.6" font-family="Times,serif" font-size="16.00" fill="#ffffff">unité du Moi ?</text>
</g>
<!-- p1&#45;&gt;b2 -->
<g id="edge5" class="edge">
<title>p1&#45;&gt;b2:w</title>
<path fill="none" stroke="#000000" d="M217.4715,-381.3881C237.2049,-366.4103 266.7653,-348.1664 297.2352,-344.6151"/>
<polygon fill="#000000" stroke="#000000" points="297.8157,-348.0869 307.5905,-344 297.4005,-341.0992 297.8157,-348.0869"/>
</g>
<!-- b3 -->
<g id="node6" class="node">
<title>b3</title>
<ellipse fill="#8b0000" stroke="#000000" cx="386.5905" cy="-223" rx="104.8354" ry="46.2727"/>
<text text-anchor="middle" x="386.5905" y="-237.4" font-family="Times,serif" font-size="16.00" fill="#ffffff">Les autres</text>
<text text-anchor="middle" x="386.5905" y="-218.2" font-family="Times,serif" font-size="16.00" fill="#ffffff">m&#39;empêchent&#45;ils</text>
<text text-anchor="middle" x="386.5905" y="-199" font-family="Times,serif" font-size="16.00" fill="#ffffff">d&#39;être moi&#45;même ?</text>
</g>
<!-- p2&#45;&gt;b3 -->
<g id="edge6" class="edge">
<title>p2&#45;&gt;b3:w</title>
<path fill="none" stroke="#000000" d="M215.4362,-185.5822C229.4371,-201.2169 249.1115,-218.0058 271.4884,-222.0744"/>
<polygon fill="#000000" stroke="#000000" points="271.3128,-225.5729 281.5905,-223 271.9516,-218.6021 271.3128,-225.5729"/>
</g>
<!-- b4 -->
<g id="node7" class="node">
<title>b4</title>
<ellipse fill="#8b0000" stroke="#000000" cx="386.5905" cy="-89" rx="82.4539" ry="46.2727"/>
<text text-anchor="middle" x="386.5905" y="-103.4" font-family="Times,serif" font-size="16.00" fill="#ffffff">Mon identité se</text>
<text text-anchor="middle" x="386.5905" y="-84.2" font-family="Times,serif" font-size="16.00" fill="#ffffff">trouve&#45;t&#45;elle</text>
<text text-anchor="middle" x="386.5905" y="-65" font-family="Times,serif" font-size="16.00" fill="#ffffff">en moi ?</text>
</g>
<!-- p2&#45;&gt;b4 -->
<g id="edge7" class="edge">
<title>p2&#45;&gt;b4:w</title>
<path fill="none" stroke="#000000" d="M222.3697,-126.4178C240.8282,-110.4325 266.3277,-93.2407 293.5098,-89.6713"/>
<polygon fill="#000000" stroke="#000000" points="293.8452,-93.1568 303.5905,-89 293.38,-86.1722 293.8452,-93.1568"/>
</g>
<!-- b1&#45;&gt;b2 -->
<!-- c1 -->
<g id="node8" class="node">
<title>c1</title>
<polygon fill="#ffffff" stroke="#7f7f7f" points="639.5144,-527 519.2812,-527 519.2812,-491 639.5144,-491 639.5144,-527"/>
<text text-anchor="middle" x="579.3978" y="-504.2" font-family="Times,serif" font-size="16.00" fill="#000000">Le matérialisme</text>
</g>
<!-- b1&#45;&gt;c1 -->
<g id="edge11" class="edge">
<title>b1&#45;&gt;c1</title>
<path fill="none" stroke="#000000" d="M481.0173,-486.5489C490.5467,-488.7235 500.1019,-490.9041 509.3102,-493.0055"/>
<polygon fill="#000000" stroke="#000000" points="508.6203,-496.438 519.1484,-495.2506 510.1777,-489.6134 508.6203,-496.438"/>
</g>
<!-- c2 -->
<g id="node9" class="node">
<title>c2</title>
<polygon fill="#ffffff" stroke="#7f7f7f" points="639.1373,-476.4017 519.6583,-476.4017 519.6583,-429.5983 639.1373,-429.5983 639.1373,-476.4017"/>
<text text-anchor="middle" x="579.3978" y="-457.8" font-family="Times,serif" font-size="16.00" fill="#000000">Les difficultés</text>
<text text-anchor="middle" x="579.3978" y="-438.6" font-family="Times,serif" font-size="16.00" fill="#000000">du matérialisme</text>
</g>
<!-- b1&#45;&gt;c2 -->
<g id="edge12" class="edge">
<title>b1&#45;&gt;c2</title>
<path fill="none" stroke="#000000" d="M492.0202,-458.4382C497.8446,-458.0757 503.6247,-457.716 509.2744,-457.3644"/>
<polygon fill="#000000" stroke="#000000" points="509.5212,-460.8559 519.2844,-456.7414 509.0863,-453.8694 509.5212,-460.8559"/>
</g>
<!-- b2&#45;&gt;b3 -->
<!-- c3 -->
<g id="node10" class="node">
<title>c3</title>
<polygon fill="#ffffff" stroke="#7f7f7f" points="606.9971,-388 551.7985,-388 551.7985,-352 606.9971,-352 606.9971,-388"/>
<text text-anchor="middle" x="579.3978" y="-365.2" font-family="Times,serif" font-size="16.00" fill="#000000">Hume</text>
</g>
<!-- b2&#45;&gt;c3 -->
<g id="edge13" class="edge">
<title>b2&#45;&gt;c3</title>
<path fill="none" stroke="#000000" d="M461.4108,-354.0895C488.9491,-357.803 518.9644,-361.8506 541.8294,-364.9339"/>
<polygon fill="#000000" stroke="#000000" points="541.4192,-368.4102 551.7973,-366.2781 542.3547,-361.473 541.4192,-368.4102"/>
</g>
<!-- c4 -->
<g id="node11" class="node">
<title>c4</title>
<polygon fill="#ffffff" stroke="#7f7f7f" points="609.77,-334 549.0257,-334 549.0257,-298 609.77,-298 609.77,-334"/>
<text text-anchor="middle" x="579.3978" y="-311.2" font-family="Times,serif" font-size="16.00" fill="#000000">Ricœur</text>
</g>
<!-- b2&#45;&gt;c4 -->
<g id="edge14" class="edge">
<title>b2&#45;&gt;c4</title>
<path fill="none" stroke="#000000" d="M460.8591,-333.2145C487.3533,-329.367 516.2055,-325.177 538.8112,-321.8941"/>
<polygon fill="#000000" stroke="#000000" points="539.3339,-325.355 548.7271,-320.4541 538.3279,-318.4277 539.3339,-325.355"/>
</g>
<!-- b3&#45;&gt;b4 -->
<!-- c5 -->
<g id="node12" class="node">
<title>c5</title>
<polygon fill="#ffffff" stroke="#7f7f7f" points="618.9731,-256 539.8226,-256 539.8226,-220 618.9731,-220 618.9731,-256"/>
<text text-anchor="middle" x="579.3978" y="-233.2" font-family="Times,serif" font-size="16.00" fill="#000000">Nietzsche</text>
</g>
<!-- b3&#45;&gt;c5 -->
<g id="edge15" class="edge">
<title>b3&#45;&gt;c5</title>
<path fill="none" stroke="#000000" d="M490.0494,-231.0489C503.8682,-232.124 517.4926,-233.1839 529.7788,-234.1397"/>
<polygon fill="#000000" stroke="#000000" points="529.5179,-237.6299 539.7593,-234.9162 530.061,-230.651 529.5179,-237.6299"/>
</g>
<!-- c6 -->
<g id="node13" class="node">
<title>c6</title>
<polygon fill="#ffffff" stroke="#7f7f7f" points="614.9971,-206 543.7986,-206 543.7986,-170 614.9971,-170 614.9971,-206"/>
<text text-anchor="middle" x="579.3978" y="-183.2" font-family="Times,serif" font-size="16.00" fill="#000000">Honneth</text>
</g>
<!-- b3&#45;&gt;c6 -->
<g id="edge16" class="edge">
<title>b3&#45;&gt;c6</title>
<path fill="none" stroke="#000000" d="M483.8414,-205.3462C501.1789,-202.199 518.4798,-199.0584 533.5009,-196.3316"/>
<polygon fill="#000000" stroke="#000000" points="534.2943,-199.7449 543.5083,-194.515 533.044,-192.8574 534.2943,-199.7449"/>
</g>
<!-- c7 -->
<g id="node14" class="node">
<title>c7</title>
<polygon fill="#ffffff" stroke="#7f7f7f" points="607.377,-128 551.4186,-128 551.4186,-92 607.377,-92 607.377,-128"/>
<text text-anchor="middle" x="579.3978" y="-105.2" font-family="Times,serif" font-size="16.00" fill="#000000">Locke</text>
</g>
<!-- b4&#45;&gt;c7 -->
<g id="edge17" class="edge">
<title>b4&#45;&gt;c7</title>
<path fill="none" stroke="#000000" d="M467.7994,-97.845C493.1552,-100.6067 519.9497,-103.5251 540.927,-105.8099"/>
<polygon fill="#000000" stroke="#000000" points="540.7059,-109.3064 551.0262,-106.9098 541.4639,-102.3476 540.7059,-109.3064"/>
</g>
<!-- c8 -->
<g id="node15" class="node">
<title>c8</title>
<polygon fill="#ffffff" stroke="#7f7f7f" points="606.5966,-68 552.1991,-68 552.1991,-32 606.5966,-32 606.5966,-68"/>
<text text-anchor="middle" x="579.3978" y="-45.2" font-family="Times,serif" font-size="16.00" fill="#000000">Sartre</text>
</g>
<!-- b4&#45;&gt;c8 -->
<g id="edge18" class="edge">
<title>b4&#45;&gt;c8</title>
<path fill="none" stroke="#000000" d="M464.4569,-73.2496C491.3439,-67.8111 520.2301,-61.9681 542.3185,-57.5002"/>
<polygon fill="#000000" stroke="#000000" points="543.159,-60.9012 552.2666,-55.488 541.7711,-54.0401 543.159,-60.9012"/>
</g>
<!-- e1 -->
<g id="node16" class="node">
<title>e1</title>
<path fill="#fafafa" stroke="transparent" d="M751.2185,-535.7004C751.2185,-535.7004 678.9487,-535.7004 678.9487,-535.7004 672.9487,-535.7004 666.9487,-529.7004 666.9487,-523.7004 666.9487,-523.7004 666.9487,-496.2996 666.9487,-496.2996 666.9487,-490.2996 672.9487,-484.2996 678.9487,-484.2996 678.9487,-484.2996 751.2185,-484.2996 751.2185,-484.2996 757.2185,-484.2996 763.2185,-490.2996 763.2185,-496.2996 763.2185,-496.2996 763.2185,-523.7004 763.2185,-523.7004 763.2185,-529.7004 757.2185,-535.7004 751.2185,-535.7004"/>
<text text-anchor="middle" x="715.0836" y="-520.8" font-family="Times,serif" font-size="12.00" fill="#cd2626">Une conception</text>
<text text-anchor="middle" x="715.0836" y="-506.4" font-family="Times,serif" font-size="12.00" fill="#cd2626">non&#45;mystérieuse</text>
<text text-anchor="middle" x="715.0836" y="-492" font-family="Times,serif" font-size="12.00" fill="#cd2626">de l&#39;esprit</text>
</g>
<!-- c1&#45;&gt;e1 -->
<!-- c2&#45;&gt;c3 -->
<!-- e2 -->
<g id="node17" class="node">
<title>e2</title>
<path fill="#fafafa" stroke="transparent" d="M753.5612,-470.3005C753.5612,-470.3005 676.6061,-470.3005 676.6061,-470.3005 670.6061,-470.3005 664.6061,-464.3005 664.6061,-458.3005 664.6061,-458.3005 664.6061,-445.6995 664.6061,-445.6995 664.6061,-439.6995 670.6061,-433.6995 676.6061,-433.6995 676.6061,-433.6995 753.5612,-433.6995 753.5612,-433.6995 759.5612,-433.6995 765.5612,-439.6995 765.5612,-445.6995 765.5612,-445.6995 765.5612,-458.3005 765.5612,-458.3005 765.5612,-464.3005 759.5612,-470.3005 753.5612,-470.3005"/>
<text text-anchor="middle" x="715.0836" y="-455.6" font-family="Times,serif" font-size="12.00" fill="#cd2626">L&#39;intentionnalité,</text>
<text text-anchor="middle" x="715.0836" y="-441.2" font-family="Times,serif" font-size="12.00" fill="#cd2626">les qualia</text>
</g>
<!-- c2&#45;&gt;e2 -->
<!-- e3 -->
<g id="node18" class="node">
<title>e3</title>
<path fill="#fafafa" stroke="transparent" d="M738.8959,-397.7004C738.8959,-397.7004 691.2713,-397.7004 691.2713,-397.7004 685.2713,-397.7004 679.2713,-391.7004 679.2713,-385.7004 679.2713,-385.7004 679.2713,-358.2996 679.2713,-358.2996 679.2713,-352.2996 685.2713,-346.2996 691.2713,-346.2996 691.2713,-346.2996 738.8959,-346.2996 738.8959,-346.2996 744.8959,-346.2996 750.8959,-352.2996 750.8959,-358.2996 750.8959,-358.2996 750.8959,-385.7004 750.8959,-385.7004 750.8959,-391.7004 744.8959,-397.7004 738.8959,-397.7004"/>
<text text-anchor="middle" x="715.0836" y="-382.8" font-family="Times,serif" font-size="12.00" fill="#cd2626">Un flux de</text>
<text text-anchor="middle" x="715.0836" y="-368.4" font-family="Times,serif" font-size="12.00" fill="#cd2626">perceptions</text>
<text text-anchor="middle" x="715.0836" y="-354" font-family="Times,serif" font-size="12.00" fill="#cd2626">multiples</text>
</g>
<!-- c3&#45;&gt;e3 -->
<!-- c4&#45;&gt;c5 -->
<!-- e4 -->
<g id="node19" class="node">
<title>e4</title>
<path fill="#fafafa" stroke="transparent" d="M735.229,-332.3005C735.229,-332.3005 694.9383,-332.3005 694.9383,-332.3005 688.9383,-332.3005 682.9383,-326.3005 682.9383,-320.3005 682.9383,-320.3005 682.9383,-307.6995 682.9383,-307.6995 682.9383,-301.6995 688.9383,-295.6995 694.9383,-295.6995 694.9383,-295.6995 735.229,-295.6995 735.229,-295.6995 741.229,-295.6995 747.229,-301.6995 747.229,-307.6995 747.229,-307.6995 747.229,-320.3005 747.229,-320.3005 747.229,-326.3005 741.229,-332.3005 735.229,-332.3005"/>
<text text-anchor="middle" x="715.0836" y="-317.6" font-family="Times,serif" font-size="12.00" fill="#cd2626">L&#39;identité</text>
<text text-anchor="middle" x="715.0836" y="-303.2" font-family="Times,serif" font-size="12.00" fill="#cd2626">narrative</text>
</g>
<!-- c4&#45;&gt;e4 -->
<!-- e5 -->
<g id="node20" class="node">
<title>e5</title>
<path fill="#fafafa" stroke="transparent" d="M739.55,-257.3005C739.55,-257.3005 690.6172,-257.3005 690.6172,-257.3005 684.6172,-257.3005 678.6172,-251.3005 678.6172,-245.3005 678.6172,-245.3005 678.6172,-232.6995 678.6172,-232.6995 678.6172,-226.6995 684.6172,-220.6995 690.6172,-220.6995 690.6172,-220.6995 739.55,-220.6995 739.55,-220.6995 745.55,-220.6995 751.55,-226.6995 751.55,-232.6995 751.55,-232.6995 751.55,-245.3005 751.55,-245.3005 751.55,-251.3005 745.55,-257.3005 739.55,-257.3005"/>
<text text-anchor="middle" x="715.0836" y="-242.6" font-family="Times,serif" font-size="12.00" fill="#cd2626">Le dressage</text>
<text text-anchor="middle" x="715.0836" y="-228.2" font-family="Times,serif" font-size="12.00" fill="#cd2626">social</text>
</g>
<!-- c5&#45;&gt;e5 -->
<!-- c6&#45;&gt;c7 -->
<!-- e6 -->
<g id="node21" class="node">
<title>e6</title>
<path fill="#fafafa" stroke="transparent" d="M753.3696,-206.3005C753.3696,-206.3005 676.7976,-206.3005 676.7976,-206.3005 670.7976,-206.3005 664.7976,-200.3005 664.7976,-194.3005 664.7976,-194.3005 664.7976,-181.6995 664.7976,-181.6995 664.7976,-175.6995 670.7976,-169.6995 676.7976,-169.6995 676.7976,-169.6995 753.3696,-169.6995 753.3696,-169.6995 759.3696,-169.6995 765.3696,-175.6995 765.3696,-181.6995 765.3696,-181.6995 765.3696,-194.3005 765.3696,-194.3005 765.3696,-200.3005 759.3696,-206.3005 753.3696,-206.3005"/>
<text text-anchor="middle" x="715.0836" y="-191.6" font-family="Times,serif" font-size="12.00" fill="#cd2626">L&#39;importance de</text>
<text text-anchor="middle" x="715.0836" y="-177.2" font-family="Times,serif" font-size="12.00" fill="#cd2626">la reconnaissance</text>
</g>
<!-- c6&#45;&gt;e6 -->
<!-- e7 -->
<g id="node22" class="node">
<title>e7</title>
<path fill="#fafafa" stroke="transparent" d="M745.8867,-145.7004C745.8867,-145.7004 684.2806,-145.7004 684.2806,-145.7004 678.2806,-145.7004 672.2806,-139.7004 672.2806,-133.7004 672.2806,-133.7004 672.2806,-106.2996 672.2806,-106.2996 672.2806,-100.2996 678.2806,-94.2996 684.2806,-94.2996 684.2806,-94.2996 745.8867,-94.2996 745.8867,-94.2996 751.8867,-94.2996 757.8867,-100.2996 757.8867,-106.2996 757.8867,-106.2996 757.8867,-133.7004 757.8867,-133.7004 757.8867,-139.7004 751.8867,-145.7004 745.8867,-145.7004"/>
<text text-anchor="middle" x="715.0836" y="-130.8" font-family="Times,serif" font-size="12.00" fill="#cd2626">La conception</text>
<text text-anchor="middle" x="715.0836" y="-116.4" font-family="Times,serif" font-size="12.00" fill="#cd2626">mémorielle de</text>
<text text-anchor="middle" x="715.0836" y="-102" font-family="Times,serif" font-size="12.00" fill="#cd2626">l&#39;identité</text>
</g>
<!-- c7&#45;&gt;e7 -->
<!-- e8 -->
<g id="node23" class="node">
<title>e8</title>
<path fill="#fafafa" stroke="transparent" d="M770.3394,-80C770.3394,-80 659.8278,-80 659.8278,-80 653.8278,-80 647.8278,-74 647.8278,-68 647.8278,-68 647.8278,-12 647.8278,-12 647.8278,-6 653.8278,0 659.8278,0 659.8278,0 770.3394,0 770.3394,0 776.3394,0 782.3394,-6 782.3394,-12 782.3394,-12 782.3394,-68 782.3394,-68 782.3394,-74 776.3394,-80 770.3394,-80"/>
<text text-anchor="middle" x="715.0836" y="-65.2" font-family="Times,serif" font-size="12.00" fill="#cd2626">« L&#39;homme n&#39;est rien</text>
<text text-anchor="middle" x="715.0836" y="-50.8" font-family="Times,serif" font-size="12.00" fill="#cd2626">d&#39;autre que l&#39;ensemble</text>
<text text-anchor="middle" x="715.0836" y="-36.4" font-family="Times,serif" font-size="12.00" fill="#cd2626">de ses actes »,</text>
<text text-anchor="middle" x="715.0836" y="-22" font-family="Times,serif" font-size="12.00" fill="#cd2626">« L&#39;existence précède</text>
<text text-anchor="middle" x="715.0836" y="-7.6" font-family="Times,serif" font-size="12.00" fill="#cd2626">l&#39;essence »</text>
</g>
<!-- c8&#45;&gt;e8 -->
</g>
</svg>
