<?xml version="1.0" encoding="UTF-8" standalone="no"?>
<!DOCTYPE svg PUBLIC "-//W3C//DTD SVG 1.1//EN"
 "http://www.w3.org/Graphics/SVG/1.1/DTD/svg11.dtd">
<!-- Generated by graphviz version 2.40.1 (20161225.0304)
 -->
<!-- Title: G Pages: 1 -->
<svg width="636pt" height="565pt"
 viewBox="0.00 0.00 635.51 565.20" xmlns="http://www.w3.org/2000/svg" xmlns:xlink="http://www.w3.org/1999/xlink">
<g id="graph0" class="graph" transform="scale(1 1) rotate(0) translate(21.6 543.6)">
<title>G</title>
<polygon fill="#fafafa" stroke="transparent" points="-21.6,21.6 -21.6,-543.6 613.9078,-543.6 613.9078,21.6 -21.6,21.6"/>
<!-- a1 -->
<g id="node1" class="node">
<title>a1</title>
<ellipse fill="#050505" stroke="#000000" cx="80.238" cy="-245" rx="80.4766" ry="51.4548"/>
<text text-anchor="middle" x="80.238" y="-261.2" font-family="Times,serif" font-size="18.00" fill="#ffffff">Le bonheur</text>
<text text-anchor="middle" x="80.238" y="-239.6" font-family="Times,serif" font-size="18.00" fill="#ffffff">n&#39;est&#45;il qu&#39;un</text>
<text text-anchor="middle" x="80.238" y="-218" font-family="Times,serif" font-size="18.00" fill="#ffffff">idéal ?</text>
</g>
<!-- b1 -->
<g id="node2" class="node">
<title>b1</title>
<ellipse fill="#8b0000" stroke="#000000" cx="329.9603" cy="-455" rx="97.9131" ry="32.6206"/>
<text text-anchor="middle" x="329.9603" y="-459.8" font-family="Times,serif" font-size="16.00" fill="#ffffff">Peut&#45;on savoir ce</text>
<text text-anchor="middle" x="329.9603" y="-440.6" font-family="Times,serif" font-size="16.00" fill="#ffffff">qu&#39;est le bonheur ?</text>
</g>
<!-- a1&#45;&gt;b1 -->
<g id="edge1" class="edge">
<title>a1&#45;&gt;b1:w</title>
<path fill="none" stroke="#000000" d="M92.8766,-295.8351C110.8847,-355.1933 149.9744,-446.3542 221.6318,-454.4246"/>
<polygon fill="#000000" stroke="#000000" points="221.781,-457.9383 231.9603,-455 222.1704,-450.9491 221.781,-457.9383"/>
<text text-anchor="start" x="191.5292" y="-453.2" font-family="Times,serif" font-size="14.00" fill="#006400">I</text>
</g>
<!-- b2 -->
<g id="node3" class="node">
<title>b2</title>
<ellipse fill="#8b0000" stroke="#000000" cx="329.9603" cy="-334" rx="74.088" ry="32.6206"/>
<text text-anchor="middle" x="329.9603" y="-338.8" font-family="Times,serif" font-size="16.00" fill="#ffffff">Le désir est&#45;il</text>
<text text-anchor="middle" x="329.9603" y="-319.6" font-family="Times,serif" font-size="16.00" fill="#ffffff">insatiable ?</text>
</g>
<!-- a1&#45;&gt;b2 -->
<g id="edge2" class="edge">
<title>a1&#45;&gt;b2:w</title>
<path fill="none" stroke="#000000" d="M129.6389,-285.8532C160.457,-307.5134 202.2342,-330.3336 244.7309,-333.6017"/>
<polygon fill="#000000" stroke="#000000" points="244.8316,-337.1081 254.9603,-334 245.1041,-330.1135 244.8316,-337.1081"/>
<text text-anchor="start" x="189.1989" y="-328.2" font-family="Times,serif" font-size="14.00" fill="#006400">II</text>
</g>
<!-- b3 -->
<g id="node4" class="node">
<title>b3</title>
<ellipse fill="#8b0000" stroke="#000000" cx="329.9603" cy="-199" rx="96.4327" ry="46.2727"/>
<text text-anchor="middle" x="329.9603" y="-213.4" font-family="Times,serif" font-size="16.00" fill="#ffffff">Que pouvons&#45;nous</text>
<text text-anchor="middle" x="329.9603" y="-194.2" font-family="Times,serif" font-size="16.00" fill="#ffffff">face au tragique</text>
<text text-anchor="middle" x="329.9603" y="-175" font-family="Times,serif" font-size="16.00" fill="#ffffff">de l&#39;existence ?</text>
</g>
<!-- a1&#45;&gt;b3 -->
<g id="edge3" class="edge">
<title>a1&#45;&gt;b3:w</title>
<path fill="none" stroke="#000000" d="M146.6119,-215.8675C169.8795,-207.8083 196.7014,-200.8328 222.6729,-199.3086"/>
<polygon fill="#000000" stroke="#000000" points="223.0697,-202.7984 232.9603,-199 222.8598,-195.8015 223.0697,-202.7984"/>
<text text-anchor="start" x="186.8686" y="-209.2" font-family="Times,serif" font-size="14.00" fill="#006400">III</text>
</g>
<!-- b4 -->
<g id="node5" class="node">
<title>b4</title>
<ellipse fill="#8b0000" stroke="#000000" cx="329.9603" cy="-51" rx="102.9348" ry="46.2727"/>
<text text-anchor="middle" x="329.9603" y="-65.4" font-family="Times,serif" font-size="16.00" fill="#ffffff">Le simple plaisir</text>
<text text-anchor="middle" x="329.9603" y="-46.2" font-family="Times,serif" font-size="16.00" fill="#ffffff">d&#39;exister suffit&#45;il</text>
<text text-anchor="middle" x="329.9603" y="-27" font-family="Times,serif" font-size="16.00" fill="#ffffff">pour être heureux ?</text>
</g>
<!-- a1&#45;&gt;b4 -->
<g id="edge4" class="edge">
<title>a1&#45;&gt;b4:w</title>
<path fill="none" stroke="#000000" d="M94.4536,-194.2822C113.0733,-139.6084 151.3203,-59.3116 216.9228,-51.6004"/>
<polygon fill="#000000" stroke="#000000" points="217.4633,-55.075 227.2431,-51 217.0567,-48.0868 217.4633,-55.075"/>
<text text-anchor="start" x="186.4759" y="-65.2" font-family="Times,serif" font-size="14.00" fill="#006400">IV</text>
</g>
<!-- b1&#45;&gt;b2 -->
<!-- c1 -->
<g id="node6" class="node">
<title>c1</title>
<polygon fill="#ffffff" stroke="#7f7f7f" points="565.9926,-522 511.9926,-522 511.9926,-486 565.9926,-486 565.9926,-522"/>
<text text-anchor="middle" x="538.9926" y="-499.2" font-family="Times,serif" font-size="16.00" fill="#000000">Kant</text>
</g>
<!-- b1&#45;&gt;c1 -->
<g id="edge8" class="edge">
<title>b1&#45;&gt;c1</title>
<path fill="none" stroke="#000000" d="M410.1798,-473.8045C441.7515,-481.2054 476.4546,-489.3402 501.8784,-495.2999"/>
<polygon fill="#000000" stroke="#000000" points="501.2912,-498.7571 511.8261,-497.6318 502.8888,-491.9418 501.2912,-498.7571"/>
</g>
<!-- c2 -->
<g id="node7" class="node">
<title>c2</title>
<polygon fill="#ffffff" stroke="#7f7f7f" points="591.1864,-472.4017 486.7988,-472.4017 486.7988,-425.5983 591.1864,-425.5983 591.1864,-472.4017"/>
<text text-anchor="middle" x="538.9926" y="-453.8" font-family="Times,serif" font-size="16.00" fill="#000000">Les sagesses</text>
<text text-anchor="middle" x="538.9926" y="-434.6" font-family="Times,serif" font-size="16.00" fill="#000000">eudémonistes</text>
</g>
<!-- b1&#45;&gt;c2 -->
<g id="edge9" class="edge">
<title>b1&#45;&gt;c2</title>
<path fill="none" stroke="#000000" d="M427.4386,-452.202C444.0427,-451.7254 460.8847,-451.242 476.2782,-450.8001"/>
<polygon fill="#000000" stroke="#000000" points="476.7877,-454.287 486.6832,-450.5015 476.5868,-447.2899 476.7877,-454.287"/>
</g>
<!-- b2&#45;&gt;b3 -->
<!-- c3 -->
<g id="node8" class="node">
<title>c3</title>
<polygon fill="#ffffff" stroke="#7f7f7f" points="592.1237,-370 485.8616,-370 485.8616,-334 592.1237,-334 592.1237,-370"/>
<text text-anchor="middle" x="538.9926" y="-347.2" font-family="Times,serif" font-size="16.00" fill="#000000">Schopenhauer</text>
</g>
<!-- b2&#45;&gt;c3 -->
<g id="edge10" class="edge">
<title>b2&#45;&gt;c3</title>
<path fill="none" stroke="#000000" d="M403.0696,-340.2955C426.6538,-342.3264 452.59,-344.5598 475.4276,-346.5263"/>
<polygon fill="#000000" stroke="#000000" points="475.4195,-350.0385 485.6829,-347.4094 476.0201,-343.0643 475.4195,-350.0385"/>
</g>
<!-- c4 -->
<g id="node9" class="node">
<title>c4</title>
<polygon fill="#ffffff" stroke="#7f7f7f" points="571.7973,-320 506.1879,-320 506.1879,-284 571.7973,-284 571.7973,-320"/>
<text text-anchor="middle" x="538.9926" y="-297.2" font-family="Times,serif" font-size="16.00" fill="#000000">Épicure</text>
</g>
<!-- b2&#45;&gt;c4 -->
<g id="edge11" class="edge">
<title>b2&#45;&gt;c4</title>
<path fill="none" stroke="#000000" d="M400.4377,-323.2109C432.1771,-318.352 468.618,-312.7734 496.1598,-308.5571"/>
<polygon fill="#000000" stroke="#000000" points="496.8963,-311.9852 506.2514,-307.0122 495.8369,-305.0658 496.8963,-311.9852"/>
</g>
<!-- b3&#45;&gt;b4 -->
<!-- c5 -->
<g id="node10" class="node">
<title>c5</title>
<polygon fill="#ffffff" stroke="#7f7f7f" points="567.3632,-228 510.6221,-228 510.6221,-192 567.3632,-192 567.3632,-228"/>
<text text-anchor="middle" x="538.9926" y="-205.2" font-family="Times,serif" font-size="16.00" fill="#000000">Pascal</text>
</g>
<!-- b3&#45;&gt;c5 -->
<g id="edge12" class="edge">
<title>b3&#45;&gt;c5</title>
<path fill="none" stroke="#000000" d="M425.9114,-204.0493C452.1703,-205.4311 479.1551,-206.8511 500.1759,-207.9573"/>
<polygon fill="#000000" stroke="#000000" points="500.1171,-211.459 510.2873,-208.4894 500.4851,-204.4687 500.1171,-211.459"/>
</g>
<!-- c6 -->
<g id="node11" class="node">
<title>c6</title>
<polygon fill="#ffffff" stroke="#7f7f7f" points="576.1897,-178 501.7956,-178 501.7956,-142 576.1897,-142 576.1897,-178"/>
<text text-anchor="middle" x="538.9926" y="-155.2" font-family="Times,serif" font-size="16.00" fill="#000000">Épictète</text>
</g>
<!-- b3&#45;&gt;c6 -->
<g id="edge13" class="edge">
<title>b3&#45;&gt;c6</title>
<path fill="none" stroke="#000000" d="M420.1255,-182.1775C444.8146,-177.5712 470.5928,-172.7616 491.8076,-168.8035"/>
<polygon fill="#000000" stroke="#000000" points="492.6423,-172.2082 501.8307,-166.9334 491.3584,-165.327 492.6423,-172.2082"/>
</g>
<!-- c7 -->
<g id="node12" class="node">
<title>c7</title>
<polygon fill="#ffffff" stroke="#7f7f7f" points="571.7973,-86 506.1879,-86 506.1879,-50 571.7973,-50 571.7973,-86"/>
<text text-anchor="middle" x="538.9926" y="-63.2" font-family="Times,serif" font-size="16.00" fill="#000000">Épicure</text>
</g>
<!-- b4&#45;&gt;c7 -->
<g id="edge14" class="edge">
<title>b4&#45;&gt;c7</title>
<path fill="none" stroke="#000000" d="M431.1088,-59.2261C453.9701,-61.0854 477.0465,-62.9621 495.9568,-64.5"/>
<polygon fill="#000000" stroke="#000000" points="495.7551,-67.9951 506.006,-65.3173 496.3226,-61.0181 495.7551,-67.9951"/>
</g>
<!-- c8 -->
<g id="node13" class="node">
<title>c8</title>
<polygon fill="#ffffff" stroke="#7f7f7f" points="574.1718,-36 503.8135,-36 503.8135,0 574.1718,0 574.1718,-36"/>
<text text-anchor="middle" x="538.9926" y="-13.2" font-family="Times,serif" font-size="16.00" fill="#000000">J.S. Mill</text>
</g>
<!-- b4&#45;&gt;c8 -->
<g id="edge15" class="edge">
<title>b4&#45;&gt;c8</title>
<path fill="none" stroke="#000000" d="M427.133,-35.6593C450.2687,-32.0069 473.8867,-28.2783 493.4222,-25.1942"/>
<polygon fill="#000000" stroke="#000000" points="494.2013,-28.6147 503.5331,-23.598 493.1096,-21.7003 494.2013,-28.6147"/>
</g>
<!-- c2&#45;&gt;c3 -->
<!-- c4&#45;&gt;c5 -->
<!-- c6&#45;&gt;c7 -->
</g>
</svg>
