<?xml version="1.0" encoding="UTF-8" standalone="no"?>
<!DOCTYPE svg PUBLIC "-//W3C//DTD SVG 1.1//EN"
 "http://www.w3.org/Graphics/SVG/1.1/DTD/svg11.dtd">
<!-- Generated by graphviz version 2.40.1 (20161225.0304)
 -->
<!-- Title: G Pages: 1 -->
<svg width="843pt" height="550pt"
 viewBox="0.00 0.00 843.08 550.40" xmlns="http://www.w3.org/2000/svg" xmlns:xlink="http://www.w3.org/1999/xlink">
<g id="graph0" class="graph" transform="scale(1 1) rotate(0) translate(21.6 528.8)">
<title>G</title>
<polygon fill="#fafafa" stroke="transparent" points="-21.6,21.6 -21.6,-528.8 821.4758,-528.8 821.4758,21.6 -21.6,21.6"/>
<!-- a1 -->
<g id="node1" class="node">
<title>a1</title>
<ellipse fill="#050505" stroke="#000000" cx="80.238" cy="-270.6" rx="80.4766" ry="51.4548"/>
<text text-anchor="middle" x="80.238" y="-286.8" font-family="Times,serif" font-size="18.00" fill="#ffffff">Le bonheur</text>
<text text-anchor="middle" x="80.238" y="-265.2" font-family="Times,serif" font-size="18.00" fill="#ffffff">n&#39;est&#45;il qu&#39;un</text>
<text text-anchor="middle" x="80.238" y="-243.6" font-family="Times,serif" font-size="18.00" fill="#ffffff">idéal ?</text>
</g>
<!-- p1 -->
<g id="node2" class="node">
<title>p1</title>
<path fill="#fafafa" stroke="#006400" d="M284.766,-440.2019C284.766,-440.2019 203.8938,-440.2019 203.8938,-440.2019 197.8938,-440.2019 191.8938,-434.2019 191.8938,-428.2019 191.8938,-428.2019 191.8938,-410.9981 191.8938,-410.9981 191.8938,-404.9981 197.8938,-398.9981 203.8938,-398.9981 203.8938,-398.9981 284.766,-398.9981 284.766,-398.9981 290.766,-398.9981 296.766,-404.9981 296.766,-410.9981 296.766,-410.9981 296.766,-428.2019 296.766,-428.2019 296.766,-434.2019 290.766,-440.2019 284.766,-440.2019"/>
<text text-anchor="middle" x="244.3299" y="-423.8" font-family="Times,serif" font-size="14.00" fill="#006400">I – Un idéal</text>
<text text-anchor="middle" x="244.3299" y="-407" font-family="Times,serif" font-size="14.00" fill="#006400">indéfinissable ?</text>
</g>
<!-- a1&#45;&gt;p1 -->
<g id="edge1" class="edge">
<title>a1&#45;&gt;p1:w</title>
<path fill="none" stroke="#000000" d="M95.2269,-321.4606C111.4503,-364.6248 141.9934,-419.6 192.3299,-419.6"/>
</g>
<!-- p2 -->
<g id="node3" class="node">
<title>p2</title>
<path fill="#fafafa" stroke="#006400" d="M279.1792,-301.1C279.1792,-301.1 209.4807,-301.1 209.4807,-301.1 203.4807,-301.1 197.4807,-295.1 197.4807,-289.1 197.4807,-289.1 197.4807,-252.1 197.4807,-252.1 197.4807,-246.1 203.4807,-240.1 209.4807,-240.1 209.4807,-240.1 279.1792,-240.1 279.1792,-240.1 285.1792,-240.1 291.1792,-246.1 291.1792,-252.1 291.1792,-252.1 291.1792,-289.1 291.1792,-289.1 291.1792,-295.1 285.1792,-301.1 279.1792,-301.1"/>
<text text-anchor="start" x="206.5285" y="-285.5" font-family="Times,serif" font-size="14.00" fill="#006400">II – Un idéal</text>
<text text-anchor="start" x="205.6556" y="-271.5" font-family="Times,serif" font-size="14.00" fill="#006400">inaccessible ?</text>
<text text-anchor="start" x="210.3795" y="-257.2" font-family="Times,serif" font-size="11.00" fill="#006400">(= les obstacles</text>
<text text-anchor="start" x="217.9101" y="-246.2" font-family="Times,serif" font-size="11.00" fill="#006400">au bonheur)</text>
</g>
<!-- a1&#45;&gt;p2 -->
<g id="edge2" class="edge">
<title>a1&#45;&gt;p2:w</title>
<path fill="none" stroke="#000000" d="M160.5468,-270.6C172.8662,-270.6 185.4378,-270.6 197.3299,-270.6"/>
</g>
<!-- p3 -->
<g id="node4" class="node">
<title>p3</title>
<path fill="#fafafa" stroke="#006400" d="M290.0383,-143.0014C290.0383,-143.0014 198.6215,-143.0014 198.6215,-143.0014 192.6215,-143.0014 186.6215,-137.0014 186.6215,-131.0014 186.6215,-131.0014 186.6215,-96.1986 186.6215,-96.1986 186.6215,-90.1986 192.6215,-84.1986 198.6215,-84.1986 198.6215,-84.1986 290.0383,-84.1986 290.0383,-84.1986 296.0383,-84.1986 302.0383,-90.1986 302.0383,-96.1986 302.0383,-96.1986 302.0383,-131.0014 302.0383,-131.0014 302.0383,-137.0014 296.0383,-143.0014 290.0383,-143.0014"/>
<text text-anchor="middle" x="244.3299" y="-126.2" font-family="Times,serif" font-size="14.00" fill="#006400">III – Un idéal</text>
<text text-anchor="middle" x="244.3299" y="-109.4" font-family="Times,serif" font-size="14.00" fill="#006400">de satisfaction ou</text>
<text text-anchor="middle" x="244.3299" y="-92.6" font-family="Times,serif" font-size="14.00" fill="#006400">un idéal de sens ?</text>
</g>
<!-- a1&#45;&gt;p3 -->
<g id="edge3" class="edge">
<title>a1&#45;&gt;p3:w</title>
<path fill="none" stroke="#000000" d="M92.0307,-219.6266C106.0171,-173.7836 134.3122,-113.6 186.4759,-113.6"/>
</g>
<!-- p1&#45;&gt;p2 -->
<!-- b1 -->
<g id="node5" class="node">
<title>b1</title>
<ellipse fill="#8b0000" stroke="#000000" cx="430.9011" cy="-434.6" rx="97.9131" ry="32.6206"/>
<text text-anchor="middle" x="430.9011" y="-439.4" font-family="Times,serif" font-size="16.00" fill="#ffffff">Peut&#45;on savoir ce</text>
<text text-anchor="middle" x="430.9011" y="-420.2" font-family="Times,serif" font-size="16.00" fill="#ffffff">qu&#39;est le bonheur ?</text>
</g>
<!-- p1&#45;&gt;b1 -->
<g id="edge6" class="edge">
<title>p1&#45;&gt;b1:w</title>
<path fill="none" stroke="#000000" d="M297.0074,-431.492C305.4537,-432.8005 314.2585,-433.8336 322.8863,-434.3113"/>
<polygon fill="#000000" stroke="#000000" points="322.8043,-437.8103 332.9011,-434.6 323.0061,-430.8132 322.8043,-437.8103"/>
</g>
<!-- p2&#45;&gt;p3 -->
<!-- b2 -->
<g id="node6" class="node">
<title>b2</title>
<ellipse fill="#8b0000" stroke="#000000" cx="430.9011" cy="-313.6" rx="96.4327" ry="46.2727"/>
<text text-anchor="middle" x="430.9011" y="-328" font-family="Times,serif" font-size="16.00" fill="#ffffff">Que pouvons&#45;nous</text>
<text text-anchor="middle" x="430.9011" y="-308.8" font-family="Times,serif" font-size="16.00" fill="#ffffff">face au tragique</text>
<text text-anchor="middle" x="430.9011" y="-289.6" font-family="Times,serif" font-size="16.00" fill="#ffffff">de l&#39;existence ?</text>
</g>
<!-- p2&#45;&gt;b2 -->
<g id="edge7" class="edge">
<title>p2&#45;&gt;b2:w</title>
<path fill="none" stroke="#000000" d="M288.4306,-301.1626C299.3039,-306.6345 311.3598,-311.1477 323.599,-312.8604"/>
<polygon fill="#000000" stroke="#000000" points="323.6761,-316.3749 333.9011,-313.6 324.1774,-309.3929 323.6761,-316.3749"/>
</g>
<!-- b3 -->
<g id="node7" class="node">
<title>b3</title>
<ellipse fill="#8b0000" stroke="#000000" cx="430.9011" cy="-192.6" rx="74.088" ry="32.6206"/>
<text text-anchor="middle" x="430.9011" y="-197.4" font-family="Times,serif" font-size="16.00" fill="#ffffff">Le désir est&#45;il</text>
<text text-anchor="middle" x="430.9011" y="-178.2" font-family="Times,serif" font-size="16.00" fill="#ffffff">insatiable ?</text>
</g>
<!-- p2&#45;&gt;b3 -->
<g id="edge8" class="edge">
<title>p2&#45;&gt;b3:w</title>
<path fill="none" stroke="#000000" d="M269.3132,-239.7723C287.9422,-220.0991 315.3581,-197.5211 345.8869,-193.2989"/>
<polygon fill="#000000" stroke="#000000" points="346.169,-196.7878 355.9011,-192.6 345.6816,-189.8048 346.169,-196.7878"/>
</g>
<!-- b4 -->
<g id="node8" class="node">
<title>b4</title>
<ellipse fill="#8b0000" stroke="#000000" cx="430.9011" cy="-71.6" rx="102.9348" ry="46.2727"/>
<text text-anchor="middle" x="430.9011" y="-86" font-family="Times,serif" font-size="16.00" fill="#ffffff">Le simple plaisir</text>
<text text-anchor="middle" x="430.9011" y="-66.8" font-family="Times,serif" font-size="16.00" fill="#ffffff">d&#39;exister suffit&#45;il</text>
<text text-anchor="middle" x="430.9011" y="-47.6" font-family="Times,serif" font-size="16.00" fill="#ffffff">pour être heureux ?</text>
</g>
<!-- p3&#45;&gt;b4 -->
<g id="edge9" class="edge">
<title>p3&#45;&gt;b4:w</title>
<path fill="none" stroke="#000000" d="M284.6084,-84.2014C294.8381,-78.7421 306.2527,-74.1894 317.9057,-72.4067"/>
<polygon fill="#000000" stroke="#000000" points="318.4885,-75.8718 328.1839,-71.6 317.9407,-68.8933 318.4885,-75.8718"/>
</g>
<!-- b1&#45;&gt;b2 -->
<!-- c1 -->
<g id="node9" class="node">
<title>c1</title>
<polygon fill="#ffffff" stroke="#7f7f7f" points="639.9334,-498.6 585.9334,-498.6 585.9334,-462.6 639.9334,-462.6 639.9334,-498.6"/>
<text text-anchor="middle" x="612.9334" y="-475.8" font-family="Times,serif" font-size="16.00" fill="#000000">Kant</text>
</g>
<!-- b1&#45;&gt;c1 -->
<g id="edge13" class="edge">
<title>b1&#45;&gt;c1</title>
<path fill="none" stroke="#000000" d="M509.1556,-454.3751C532.3531,-460.2372 556.6789,-466.3843 575.9436,-471.2526"/>
<polygon fill="#000000" stroke="#000000" points="575.2515,-474.6876 585.8043,-473.7444 576.9665,-467.901 575.2515,-474.6876"/>
</g>
<!-- c2 -->
<g id="node10" class="node">
<title>c2</title>
<polygon fill="#ffffff" stroke="#7f7f7f" points="665.1272,-448.0017 560.7396,-448.0017 560.7396,-401.1983 665.1272,-401.1983 665.1272,-448.0017"/>
<text text-anchor="middle" x="612.9334" y="-429.4" font-family="Times,serif" font-size="16.00" fill="#000000">Les sagesses</text>
<text text-anchor="middle" x="612.9334" y="-410.2" font-family="Times,serif" font-size="16.00" fill="#000000">eudémonistes</text>
</g>
<!-- b1&#45;&gt;c2 -->
<g id="edge14" class="edge">
<title>b1&#45;&gt;c2</title>
<path fill="none" stroke="#000000" d="M527.5137,-429.2926C535.353,-428.8619 543.1367,-428.4343 550.6311,-428.0226"/>
<polygon fill="#000000" stroke="#000000" points="550.8564,-431.5156 560.6493,-427.4722 550.4723,-424.5261 550.8564,-431.5156"/>
</g>
<!-- b2&#45;&gt;b3 -->
<!-- c3 -->
<g id="node11" class="node">
<title>c3</title>
<polygon fill="#ffffff" stroke="#7f7f7f" points="641.304,-359.6 584.5629,-359.6 584.5629,-323.6 641.304,-323.6 641.304,-359.6"/>
<text text-anchor="middle" x="612.9334" y="-336.8" font-family="Times,serif" font-size="16.00" fill="#000000">Pascal</text>
</g>
<!-- b2&#45;&gt;c3 -->
<g id="edge15" class="edge">
<title>b2&#45;&gt;c3</title>
<path fill="none" stroke="#000000" d="M522.9838,-327.7641C541.1826,-330.5634 559.3246,-333.354 574.4987,-335.688"/>
<polygon fill="#000000" stroke="#000000" points="574.0781,-339.1644 584.494,-337.2255 575.1424,-332.2458 574.0781,-339.1644"/>
</g>
<!-- c4 -->
<g id="node12" class="node">
<title>c4</title>
<polygon fill="#ffffff" stroke="#7f7f7f" points="650.1305,-305.6 575.7364,-305.6 575.7364,-269.6 650.1305,-269.6 650.1305,-305.6"/>
<text text-anchor="middle" x="612.9334" y="-282.8" font-family="Times,serif" font-size="16.00" fill="#000000">Épictète</text>
</g>
<!-- b2&#45;&gt;c4 -->
<g id="edge16" class="edge">
<title>b2&#45;&gt;c4</title>
<path fill="none" stroke="#000000" d="M523.5171,-300.3715C538.0707,-298.2928 552.5697,-296.2219 565.5251,-294.3714"/>
<polygon fill="#000000" stroke="#000000" points="566.1511,-297.8176 575.5557,-292.9387 565.1613,-290.8879 566.1511,-297.8176"/>
</g>
<!-- b3&#45;&gt;b4 -->
<!-- c5 -->
<g id="node13" class="node">
<title>c5</title>
<polygon fill="#ffffff" stroke="#7f7f7f" points="666.0645,-227.6 559.8024,-227.6 559.8024,-191.6 666.0645,-191.6 666.0645,-227.6"/>
<text text-anchor="middle" x="612.9334" y="-204.8" font-family="Times,serif" font-size="16.00" fill="#000000">Schopenhauer</text>
</g>
<!-- b3&#45;&gt;c5 -->
<g id="edge17" class="edge">
<title>b3&#45;&gt;c5</title>
<path fill="none" stroke="#000000" d="M503.6298,-199.3921C518.8371,-200.8123 534.7547,-202.2989 549.5886,-203.6842"/>
<polygon fill="#000000" stroke="#000000" points="549.3809,-207.18 559.6631,-204.6251 550.0319,-200.2103 549.3809,-207.18"/>
</g>
<!-- c6 -->
<g id="node14" class="node">
<title>c6</title>
<polygon fill="#ffffff" stroke="#7f7f7f" points="645.7381,-177.6 580.1287,-177.6 580.1287,-141.6 645.7381,-141.6 645.7381,-177.6"/>
<text text-anchor="middle" x="612.9334" y="-154.8" font-family="Times,serif" font-size="16.00" fill="#000000">Épicure</text>
</g>
<!-- b3&#45;&gt;c6 -->
<g id="edge18" class="edge">
<title>b3&#45;&gt;c6</title>
<path fill="none" stroke="#000000" d="M499.7197,-180.1241C523.4268,-175.8263 549.2737,-171.1406 570.278,-167.3329"/>
<polygon fill="#000000" stroke="#000000" points="570.9543,-170.7674 580.1696,-165.5396 569.7056,-163.8796 570.9543,-170.7674"/>
</g>
<!-- c7 -->
<g id="node15" class="node">
<title>c7</title>
<polygon fill="#ffffff" stroke="#7f7f7f" points="645.7381,-99.6 580.1287,-99.6 580.1287,-63.6 645.7381,-63.6 645.7381,-99.6"/>
<text text-anchor="middle" x="612.9334" y="-76.8" font-family="Times,serif" font-size="16.00" fill="#000000">Épicure</text>
</g>
<!-- b4&#45;&gt;c7 -->
<g id="edge19" class="edge">
<title>b4&#45;&gt;c7</title>
<path fill="none" stroke="#000000" d="M533.0914,-77.2139C545.9886,-77.9224 558.5819,-78.6142 569.8142,-79.2312"/>
<polygon fill="#000000" stroke="#000000" points="569.9548,-82.7441 580.1318,-79.798 570.3388,-75.7547 569.9548,-82.7441"/>
</g>
<!-- c8 -->
<g id="node16" class="node">
<title>c8</title>
<polygon fill="#ffffff" stroke="#7f7f7f" points="648.1126,-47.6 577.7543,-47.6 577.7543,-11.6 648.1126,-11.6 648.1126,-47.6"/>
<text text-anchor="middle" x="612.9334" y="-24.8" font-family="Times,serif" font-size="16.00" fill="#000000">J.S. Mill</text>
</g>
<!-- b4&#45;&gt;c8 -->
<g id="edge20" class="edge">
<title>b4&#45;&gt;c8</title>
<path fill="none" stroke="#000000" d="M522.4505,-50.477C538.1128,-46.8632 553.7541,-43.2543 567.519,-40.0784"/>
<polygon fill="#000000" stroke="#000000" points="568.6915,-43.3999 577.6486,-37.7412 567.1177,-36.5791 568.6915,-43.3999"/>
</g>
<!-- e1 -->
<g id="node17" class="node">
<title>e1</title>
<path fill="#fafafa" stroke="transparent" d="M773.2019,-507.3004C773.2019,-507.3004 700.9225,-507.3004 700.9225,-507.3004 694.9225,-507.3004 688.9225,-501.3004 688.9225,-495.3004 688.9225,-495.3004 688.9225,-467.8996 688.9225,-467.8996 688.9225,-461.8996 694.9225,-455.8996 700.9225,-455.8996 700.9225,-455.8996 773.2019,-455.8996 773.2019,-455.8996 779.2019,-455.8996 785.2019,-461.8996 785.2019,-467.8996 785.2019,-467.8996 785.2019,-495.3004 785.2019,-495.3004 785.2019,-501.3004 779.2019,-507.3004 773.2019,-507.3004"/>
<text text-anchor="middle" x="737.0622" y="-492.4" font-family="Times,serif" font-size="12.00" fill="#cd2626">Un idéal, non de</text>
<text text-anchor="middle" x="737.0622" y="-478" font-family="Times,serif" font-size="12.00" fill="#cd2626">la raison, mais</text>
<text text-anchor="middle" x="737.0622" y="-463.6" font-family="Times,serif" font-size="12.00" fill="#cd2626">de l&#39;imagination</text>
</g>
<!-- c1&#45;&gt;e1 -->
<!-- c2&#45;&gt;c3 -->
<!-- e2 -->
<g id="node18" class="node">
<title>e2</title>
<path fill="#fafafa" stroke="transparent" d="M772.0222,-441.9005C772.0222,-441.9005 702.1023,-441.9005 702.1023,-441.9005 696.1023,-441.9005 690.1023,-435.9005 690.1023,-429.9005 690.1023,-429.9005 690.1023,-417.2995 690.1023,-417.2995 690.1023,-411.2995 696.1023,-405.2995 702.1023,-405.2995 702.1023,-405.2995 772.0222,-405.2995 772.0222,-405.2995 778.0222,-405.2995 784.0222,-411.2995 784.0222,-417.2995 784.0222,-417.2995 784.0222,-429.9005 784.0222,-429.9005 784.0222,-435.9005 778.0222,-441.9005 772.0222,-441.9005"/>
<text text-anchor="middle" x="737.0622" y="-427.2" font-family="Times,serif" font-size="12.00" fill="#cd2626">La réflexion sur</text>
<text text-anchor="middle" x="737.0622" y="-412.8" font-family="Times,serif" font-size="12.00" fill="#cd2626">la vie bonne</text>
</g>
<!-- c2&#45;&gt;e2 -->
<!-- e3 -->
<g id="node19" class="node">
<title>e3</title>
<path fill="#fafafa" stroke="transparent" d="M768.045,-361.9005C768.045,-361.9005 706.0794,-361.9005 706.0794,-361.9005 700.0794,-361.9005 694.0794,-355.9005 694.0794,-349.9005 694.0794,-349.9005 694.0794,-337.2995 694.0794,-337.2995 694.0794,-331.2995 700.0794,-325.2995 706.0794,-325.2995 706.0794,-325.2995 768.045,-325.2995 768.045,-325.2995 774.045,-325.2995 780.045,-331.2995 780.045,-337.2995 780.045,-337.2995 780.045,-349.9005 780.045,-349.9005 780.045,-355.9005 774.045,-361.9005 768.045,-361.9005"/>
<text text-anchor="middle" x="737.0622" y="-347.2" font-family="Times,serif" font-size="12.00" fill="#cd2626">Vanité et</text>
<text text-anchor="middle" x="737.0622" y="-332.8" font-family="Times,serif" font-size="12.00" fill="#cd2626">divertissement</text>
</g>
<!-- c3&#45;&gt;e3 -->
<!-- c4&#45;&gt;c5 -->
<!-- e4 -->
<g id="node20" class="node">
<title>e4</title>
<path fill="#fafafa" stroke="transparent" d="M780.8715,-311.3004C780.8715,-311.3004 693.253,-311.3004 693.253,-311.3004 687.253,-311.3004 681.253,-305.3004 681.253,-299.3004 681.253,-299.3004 681.253,-271.8996 681.253,-271.8996 681.253,-265.8996 687.253,-259.8996 693.253,-259.8996 693.253,-259.8996 780.8715,-259.8996 780.8715,-259.8996 786.8715,-259.8996 792.8715,-265.8996 792.8715,-271.8996 792.8715,-271.8996 792.8715,-299.3004 792.8715,-299.3004 792.8715,-305.3004 786.8715,-311.3004 780.8715,-311.3004"/>
<text text-anchor="middle" x="737.0622" y="-296.4" font-family="Times,serif" font-size="12.00" fill="#cd2626">Ce qui dépend</text>
<text text-anchor="middle" x="737.0622" y="-282" font-family="Times,serif" font-size="12.00" fill="#cd2626">de nous ≠ ce qui ne</text>
<text text-anchor="middle" x="737.0622" y="-267.6" font-family="Times,serif" font-size="12.00" fill="#cd2626">dépend pas de nous</text>
</g>
<!-- c4&#45;&gt;e4 -->
<!-- e5 -->
<g id="node21" class="node">
<title>e5</title>
<path fill="#fafafa" stroke="transparent" d="M771.3744,-228.9005C771.3744,-228.9005 702.7501,-228.9005 702.7501,-228.9005 696.7501,-228.9005 690.7501,-222.9005 690.7501,-216.9005 690.7501,-216.9005 690.7501,-204.2995 690.7501,-204.2995 690.7501,-198.2995 696.7501,-192.2995 702.7501,-192.2995 702.7501,-192.2995 771.3744,-192.2995 771.3744,-192.2995 777.3744,-192.2995 783.3744,-198.2995 783.3744,-204.2995 783.3744,-204.2995 783.3744,-216.9005 783.3744,-216.9005 783.3744,-222.9005 777.3744,-228.9005 771.3744,-228.9005"/>
<text text-anchor="middle" x="737.0622" y="-214.2" font-family="Times,serif" font-size="12.00" fill="#cd2626">Le désir</text>
<text text-anchor="middle" x="737.0622" y="-199.8" font-family="Times,serif" font-size="12.00" fill="#cd2626">comme manque</text>
</g>
<!-- c5&#45;&gt;e5 -->
<!-- c6&#45;&gt;c7 -->
<!-- e6 -->
<g id="node22" class="node">
<title>e6</title>
<path fill="#fafafa" stroke="transparent" d="M769.5315,-177.9005C769.5315,-177.9005 704.593,-177.9005 704.593,-177.9005 698.593,-177.9005 692.593,-171.9005 692.593,-165.9005 692.593,-165.9005 692.593,-153.2995 692.593,-153.2995 692.593,-147.2995 698.593,-141.2995 704.593,-141.2995 704.593,-141.2995 769.5315,-141.2995 769.5315,-141.2995 775.5315,-141.2995 781.5315,-147.2995 781.5315,-153.2995 781.5315,-153.2995 781.5315,-165.9005 781.5315,-165.9005 781.5315,-171.9005 775.5315,-177.9005 769.5315,-177.9005"/>
<text text-anchor="middle" x="737.0622" y="-163.2" font-family="Times,serif" font-size="12.00" fill="#cd2626">Désir vain</text>
<text text-anchor="middle" x="737.0622" y="-148.8" font-family="Times,serif" font-size="12.00" fill="#cd2626">≠ désir naturel</text>
</g>
<!-- c6&#45;&gt;e6 -->
<!-- e7 -->
<g id="node23" class="node">
<title>e7</title>
<path fill="#fafafa" stroke="transparent" d="M756.5482,-101.9005C756.5482,-101.9005 717.5762,-101.9005 717.5762,-101.9005 711.5762,-101.9005 705.5762,-95.9005 705.5762,-89.9005 705.5762,-89.9005 705.5762,-77.2995 705.5762,-77.2995 705.5762,-71.2995 711.5762,-65.2995 717.5762,-65.2995 717.5762,-65.2995 756.5482,-65.2995 756.5482,-65.2995 762.5482,-65.2995 768.5482,-71.2995 768.5482,-77.2995 768.5482,-77.2995 768.5482,-89.9005 768.5482,-89.9005 768.5482,-95.9005 762.5482,-101.9005 756.5482,-101.9005"/>
<text text-anchor="middle" x="737.0622" y="-87.2" font-family="Times,serif" font-size="12.00" fill="#cd2626">Aponie et</text>
<text text-anchor="middle" x="737.0622" y="-72.8" font-family="Times,serif" font-size="12.00" fill="#cd2626">ataraxie</text>
</g>
<!-- c7&#45;&gt;e7 -->
<!-- e8 -->
<g id="node24" class="node">
<title>e8</title>
<path fill="#fafafa" stroke="transparent" d="M787.69,-51.3004C787.69,-51.3004 686.4345,-51.3004 686.4345,-51.3004 680.4345,-51.3004 674.4345,-45.3004 674.4345,-39.3004 674.4345,-39.3004 674.4345,-11.8996 674.4345,-11.8996 674.4345,-5.8996 680.4345,.1004 686.4345,.1004 686.4345,.1004 787.69,.1004 787.69,.1004 793.69,.1004 799.69,-5.8996 799.69,-11.8996 799.69,-11.8996 799.69,-39.3004 799.69,-39.3004 799.69,-45.3004 793.69,-51.3004 787.69,-51.3004"/>
<text text-anchor="middle" x="737.0622" y="-36.4" font-family="Times,serif" font-size="12.00" fill="#cd2626">« Il vaut mieux être</text>
<text text-anchor="middle" x="737.0622" y="-22" font-family="Times,serif" font-size="12.00" fill="#cd2626">un homme insatisfait</text>
<text text-anchor="middle" x="737.0622" y="-7.6" font-family="Times,serif" font-size="12.00" fill="#cd2626">qu&#39;un porc satisfait »</text>
</g>
<!-- c8&#45;&gt;e8 -->
</g>
</svg>
