<?xml version="1.0" encoding="UTF-8" standalone="no"?>
<!DOCTYPE svg PUBLIC "-//W3C//DTD SVG 1.1//EN"
 "http://www.w3.org/Graphics/SVG/1.1/DTD/svg11.dtd">
<!-- Generated by graphviz version 2.40.1 (20161225.0304)
 -->
<!-- Title: G Pages: 1 -->
<svg width="1009pt" height="829pt"
 viewBox="0.00 0.00 1008.94 828.80" xmlns="http://www.w3.org/2000/svg" xmlns:xlink="http://www.w3.org/1999/xlink">
<g id="graph0" class="graph" transform="scale(1 1) rotate(0) translate(21.6 807.2)">
<title>G</title>
<polygon fill="#fafafa" stroke="transparent" points="-21.6,21.6 -21.6,-807.2 987.3357,-807.2 987.3357,21.6 -21.6,21.6"/>
<!-- a1 -->
<g id="node1" class="node">
<title>a1</title>
<ellipse fill="#050505" stroke="#000000" cx="95.7787" cy="-485.2" rx="95.558" ry="51.4548"/>
<text text-anchor="middle" x="95.7787" y="-501.4" font-family="Times,serif" font-size="18.00" fill="#ffffff">Comment</text>
<text text-anchor="middle" x="95.7787" y="-479.8" font-family="Times,serif" font-size="18.00" fill="#ffffff">peut&#45;on parvenir</text>
<text text-anchor="middle" x="95.7787" y="-458.2" font-family="Times,serif" font-size="18.00" fill="#ffffff">à la vérité ?</text>
</g>
<!-- p1 -->
<g id="node2" class="node">
<title>p1</title>
<path fill="#fafafa" stroke="#006400" d="M322.2959,-723.8019C322.2959,-723.8019 254.4777,-723.8019 254.4777,-723.8019 248.4777,-723.8019 242.4777,-717.8019 242.4777,-711.8019 242.4777,-711.8019 242.4777,-694.5981 242.4777,-694.5981 242.4777,-688.5981 248.4777,-682.5981 254.4777,-682.5981 254.4777,-682.5981 322.2959,-682.5981 322.2959,-682.5981 328.2959,-682.5981 334.2959,-688.5981 334.2959,-694.5981 334.2959,-694.5981 334.2959,-711.8019 334.2959,-711.8019 334.2959,-717.8019 328.2959,-723.8019 322.2959,-723.8019"/>
<text text-anchor="middle" x="288.3868" y="-707.4" font-family="Times,serif" font-size="14.00" fill="#006400">I – La valeur</text>
<text text-anchor="middle" x="288.3868" y="-690.6" font-family="Times,serif" font-size="14.00" fill="#006400">de la vérité</text>
</g>
<!-- a1&#45;&gt;p1 -->
<g id="edge1" class="edge">
<title>a1&#45;&gt;p1:w</title>
<path fill="none" stroke="#000000" d="M106.4787,-536.5869C123.2555,-601.0372 162.4556,-703.2 242.3868,-703.2"/>
</g>
<!-- p2 -->
<g id="node3" class="node">
<title>p2</title>
<path fill="#fafafa" stroke="#006400" d="M327.6664,-514.6014C327.6664,-514.6014 249.1072,-514.6014 249.1072,-514.6014 243.1072,-514.6014 237.1072,-508.6014 237.1072,-502.6014 237.1072,-502.6014 237.1072,-467.7986 237.1072,-467.7986 237.1072,-461.7986 243.1072,-455.7986 249.1072,-455.7986 249.1072,-455.7986 327.6664,-455.7986 327.6664,-455.7986 333.6664,-455.7986 339.6664,-461.7986 339.6664,-467.7986 339.6664,-467.7986 339.6664,-502.6014 339.6664,-502.6014 339.6664,-508.6014 333.6664,-514.6014 327.6664,-514.6014"/>
<text text-anchor="middle" x="288.3868" y="-497.8" font-family="Times,serif" font-size="14.00" fill="#006400">II – La vérité :</text>
<text text-anchor="middle" x="288.3868" y="-481" font-family="Times,serif" font-size="14.00" fill="#006400">impossible à</text>
<text text-anchor="middle" x="288.3868" y="-464.2" font-family="Times,serif" font-size="14.00" fill="#006400">atteindre ?</text>
</g>
<!-- a1&#45;&gt;p2 -->
<g id="edge2" class="edge">
<title>a1&#45;&gt;p2:w</title>
<path fill="none" stroke="#000000" d="M191.7568,-485.2C207.0208,-485.2 222.636,-485.2 237.3868,-485.2"/>
</g>
<!-- p3 -->
<g id="node4" class="node">
<title>p3</title>
<path fill="#fafafa" stroke="#006400" d="M338.0459,-315.8019C338.0459,-315.8019 238.7277,-315.8019 238.7277,-315.8019 232.7277,-315.8019 226.7277,-309.8019 226.7277,-303.8019 226.7277,-303.8019 226.7277,-286.5981 226.7277,-286.5981 226.7277,-280.5981 232.7277,-274.5981 238.7277,-274.5981 238.7277,-274.5981 338.0459,-274.5981 338.0459,-274.5981 344.0459,-274.5981 350.0459,-280.5981 350.0459,-286.5981 350.0459,-286.5981 350.0459,-303.8019 350.0459,-303.8019 350.0459,-309.8019 344.0459,-315.8019 338.0459,-315.8019"/>
<text text-anchor="middle" x="288.3868" y="-299.4" font-family="Times,serif" font-size="14.00" fill="#006400">III – La source de</text>
<text text-anchor="middle" x="288.3868" y="-282.6" font-family="Times,serif" font-size="14.00" fill="#006400">nos connaissances</text>
</g>
<!-- a1&#45;&gt;p3 -->
<g id="edge3" class="edge">
<title>a1&#45;&gt;p3:w</title>
<path fill="none" stroke="#000000" d="M107.4487,-434.0335C123.6695,-377.7584 158.9819,-295.2 226.5575,-295.2"/>
</g>
<!-- p1&#45;&gt;p2 -->
<!-- p1&#45;&gt;p2 -->
<!-- b1 -->
<g id="node5" class="node">
<title>b1</title>
<ellipse fill="#8b0000" stroke="#000000" cx="492.4237" cy="-709.2" rx="99.4747" ry="32.6206"/>
<text text-anchor="middle" x="492.4237" y="-714" font-family="Times,serif" font-size="16.00" fill="#ffffff">À quoi bon</text>
<text text-anchor="middle" x="492.4237" y="-694.8" font-family="Times,serif" font-size="16.00" fill="#ffffff">chercher la vérité ?</text>
</g>
<!-- p1&#45;&gt;b1 -->
<g id="edge7" class="edge">
<title>p1&#45;&gt;b1:w</title>
<path fill="none" stroke="#000000" d="M334.1108,-706.9488C349.3602,-707.9531 366.6886,-708.8379 383.2423,-709.1124"/>
<polygon fill="#000000" stroke="#000000" points="383.3939,-712.6137 393.4237,-709.2 383.4542,-705.614 383.3939,-712.6137"/>
</g>
<!-- p2&#45;&gt;p3 -->
<!-- b2 -->
<g id="node6" class="node">
<title>b2</title>
<ellipse fill="#8b0000" stroke="#000000" cx="492.4237" cy="-578.2" rx="116.4156" ry="32.6206"/>
<text text-anchor="middle" x="492.4237" y="-583" font-family="Times,serif" font-size="16.00" fill="#ffffff">Peut&#45;on dire « à</text>
<text text-anchor="middle" x="492.4237" y="-563.8" font-family="Times,serif" font-size="16.00" fill="#ffffff">chacun sa vérité ! » ?</text>
</g>
<!-- p2&#45;&gt;b2 -->
<g id="edge8" class="edge">
<title>p2&#45;&gt;b2:w</title>
<path fill="none" stroke="#000000" d="M301.2351,-514.6258C313.9761,-539.2111 335.9801,-571.1913 366.2916,-577.2029"/>
<polygon fill="#000000" stroke="#000000" points="366.129,-580.7038 376.4237,-578.2 366.8146,-573.7374 366.129,-580.7038"/>
</g>
<!-- b3 -->
<g id="node7" class="node">
<title>b3</title>
<ellipse fill="#8b0000" stroke="#000000" cx="492.4237" cy="-485.2" rx="73.4249" ry="32.6206"/>
<text text-anchor="middle" x="492.4237" y="-490" font-family="Times,serif" font-size="16.00" fill="#ffffff">Faut&#45;il douter</text>
<text text-anchor="middle" x="492.4237" y="-470.8" font-family="Times,serif" font-size="16.00" fill="#ffffff">de tout ?</text>
</g>
<!-- p2&#45;&gt;b3 -->
<g id="edge9" class="edge">
<title>p2&#45;&gt;b3:w</title>
<path fill="none" stroke="#000000" d="M339.6486,-485.2C360.4982,-485.2 385.0985,-485.2 408.2551,-485.2"/>
<polygon fill="#000000" stroke="#000000" points="408.4237,-488.7001 418.4237,-485.2 408.4237,-481.7001 408.4237,-488.7001"/>
</g>
<!-- b4 -->
<g id="node8" class="node">
<title>b4</title>
<ellipse fill="#8b0000" stroke="#000000" cx="492.4237" cy="-340.2" rx="91.9932" ry="46.2727"/>
<text text-anchor="middle" x="492.4237" y="-354.6" font-family="Times,serif" font-size="16.00" fill="#ffffff">Y a&#45;t&#45;il un</text>
<text text-anchor="middle" x="492.4237" y="-335.4" font-family="Times,serif" font-size="16.00" fill="#ffffff">fondement de nos</text>
<text text-anchor="middle" x="492.4237" y="-316.2" font-family="Times,serif" font-size="16.00" fill="#ffffff">connaissances ?</text>
</g>
<!-- p3&#45;&gt;b4 -->
<g id="edge10" class="edge">
<title>p3&#45;&gt;b4:w</title>
<path fill="none" stroke="#000000" d="M320.8492,-315.8561C339.8933,-326.2534 365.0716,-337.1793 390.1025,-339.6729"/>
<polygon fill="#000000" stroke="#000000" points="390.2582,-343.1853 400.4237,-340.2 390.6153,-336.1945 390.2582,-343.1853"/>
</g>
<!-- b5 -->
<g id="node9" class="node">
<title>b5</title>
<ellipse fill="#8b0000" stroke="#000000" cx="492.4237" cy="-220.2" rx="107.013" ry="46.2727"/>
<text text-anchor="middle" x="492.4237" y="-234.6" font-family="Times,serif" font-size="16.00" fill="#ffffff">L&#39;expérience est&#45;elle</text>
<text text-anchor="middle" x="492.4237" y="-215.4" font-family="Times,serif" font-size="16.00" fill="#ffffff">le fondement de</text>
<text text-anchor="middle" x="492.4237" y="-196.2" font-family="Times,serif" font-size="16.00" fill="#ffffff">la science ?</text>
</g>
<!-- p3&#45;&gt;b5 -->
<g id="edge11" class="edge">
<title>p3&#45;&gt;b5:w</title>
<path fill="none" stroke="#000000" d="M302.5239,-274.3083C317.757,-254.2836 344.0461,-226.3409 375.1601,-221.0744"/>
<polygon fill="#000000" stroke="#000000" points="375.7569,-224.5363 385.4237,-220.2 375.1627,-217.5615 375.7569,-224.5363"/>
</g>
<!-- b6 -->
<g id="node10" class="node">
<title>b6</title>
<ellipse fill="#8b0000" stroke="#000000" cx="492.4237" cy="-88.2" rx="71.8878" ry="46.2727"/>
<text text-anchor="middle" x="492.4237" y="-102.6" font-family="Times,serif" font-size="16.00" fill="#ffffff">Y a&#45;t&#45;il</text>
<text text-anchor="middle" x="492.4237" y="-83.4" font-family="Times,serif" font-size="16.00" fill="#ffffff">une méthode</text>
<text text-anchor="middle" x="492.4237" y="-64.2" font-family="Times,serif" font-size="16.00" fill="#ffffff">scientifique ?</text>
</g>
<!-- p3&#45;&gt;b6 -->
<g id="edge12" class="edge">
<title>p3&#45;&gt;b6:w</title>
<path fill="none" stroke="#000000" d="M291.4807,-274.5953C300.2691,-224.2823 330.1501,-98.547 410.3871,-88.8007"/>
<polygon fill="#000000" stroke="#000000" points="410.6507,-92.2913 420.4237,-88.2 410.2324,-85.3038 410.6507,-92.2913"/>
</g>
<!-- b1&#45;&gt;b2 -->
<!-- c1 -->
<g id="node11" class="node">
<title>c1</title>
<polygon fill="#ffffff" stroke="#7f7f7f" points="749.961,-783.2 670.8105,-783.2 670.8105,-747.2 749.961,-747.2 749.961,-783.2"/>
<text text-anchor="middle" x="710.3857" y="-760.4" font-family="Times,serif" font-size="16.00" fill="#000000">Nietzsche</text>
</g>
<!-- b1&#45;&gt;c1 -->
<g id="edge18" class="edge">
<title>b1&#45;&gt;c1</title>
<path fill="none" stroke="#000000" d="M570.8051,-729.3382C600.8904,-737.0678 634.3613,-745.6674 660.9839,-752.5074"/>
<polygon fill="#000000" stroke="#000000" points="660.2741,-755.9387 670.8306,-755.0373 662.0161,-749.1589 660.2741,-755.9387"/>
</g>
<!-- c2 -->
<g id="node12" class="node">
<title>c2</title>
<polygon fill="#ffffff" stroke="#7f7f7f" points="738.7754,-729.2 681.996,-729.2 681.996,-693.2 738.7754,-693.2 738.7754,-729.2"/>
<text text-anchor="middle" x="710.3857" y="-706.4" font-family="Times,serif" font-size="16.00" fill="#000000">Platon</text>
</g>
<!-- b1&#45;&gt;c2 -->
<g id="edge19" class="edge">
<title>b1&#45;&gt;c2</title>
<path fill="none" stroke="#000000" d="M591.8373,-710.1122C620.1396,-710.3719 649.3092,-710.6396 671.6316,-710.8444"/>
<polygon fill="#000000" stroke="#000000" points="671.6597,-714.3447 681.6914,-710.9367 671.724,-707.345 671.6597,-714.3447"/>
</g>
<!-- b2&#45;&gt;b3 -->
<!-- c3 -->
<g id="node13" class="node">
<title>c3</title>
<polygon fill="#ffffff" stroke="#7f7f7f" points="764.3505,-651.2 656.4209,-651.2 656.4209,-615.2 764.3505,-615.2 764.3505,-651.2"/>
<text text-anchor="middle" x="710.3857" y="-628.4" font-family="Times,serif" font-size="16.00" fill="#000000">Le relativisme</text>
</g>
<!-- b2&#45;&gt;c3 -->
<g id="edge20" class="edge">
<title>b2&#45;&gt;c3</title>
<path fill="none" stroke="#000000" d="M579.1944,-600.0955C601.6386,-605.759 625.3954,-611.7538 646.4352,-617.0629"/>
<polygon fill="#000000" stroke="#000000" points="645.6586,-620.4766 656.211,-619.5297 647.3713,-613.6893 645.6586,-620.4766"/>
</g>
<!-- c4 -->
<g id="node14" class="node">
<title>c4</title>
<polygon fill="#ffffff" stroke="#7f7f7f" points="763.9738,-601.6017 656.7977,-601.6017 656.7977,-554.7983 763.9738,-554.7983 763.9738,-601.6017"/>
<text text-anchor="middle" x="710.3857" y="-583" font-family="Times,serif" font-size="16.00" fill="#000000">Les limites</text>
<text text-anchor="middle" x="710.3857" y="-563.8" font-family="Times,serif" font-size="16.00" fill="#000000">du relativisme</text>
</g>
<!-- b2&#45;&gt;c4 -->
<g id="edge21" class="edge">
<title>b2&#45;&gt;c4</title>
<path fill="none" stroke="#000000" d="M608.7432,-578.2C621.6888,-578.2 634.4957,-578.2 646.4287,-578.2"/>
<polygon fill="#000000" stroke="#000000" points="646.6719,-581.7001 656.6719,-578.2 646.6719,-574.7001 646.6719,-581.7001"/>
</g>
<!-- b3&#45;&gt;b4 -->
<!-- c5 -->
<g id="node15" class="node">
<title>c5</title>
<polygon fill="#ffffff" stroke="#7f7f7f" points="765.9036,-513.2 654.8679,-513.2 654.8679,-477.2 765.9036,-477.2 765.9036,-513.2"/>
<text text-anchor="middle" x="710.3857" y="-490.4" font-family="Times,serif" font-size="16.00" fill="#000000">Le scepticisme</text>
</g>
<!-- b3&#45;&gt;c5 -->
<g id="edge22" class="edge">
<title>b3&#45;&gt;c5</title>
<path fill="none" stroke="#000000" d="M565.3049,-488.5438C590.9747,-489.7215 619.6568,-491.0374 644.6976,-492.1863"/>
<polygon fill="#000000" stroke="#000000" points="644.673,-495.6887 654.823,-492.6508 644.9939,-488.6961 644.673,-495.6887"/>
</g>
<!-- c6 -->
<g id="node16" class="node">
<title>c6</title>
<polygon fill="#ffffff" stroke="#7f7f7f" points="765.5263,-463.6017 655.2452,-463.6017 655.2452,-416.7983 765.5263,-416.7983 765.5263,-463.6017"/>
<text text-anchor="middle" x="710.3857" y="-445" font-family="Times,serif" font-size="16.00" fill="#000000">Les limites</text>
<text text-anchor="middle" x="710.3857" y="-425.8" font-family="Times,serif" font-size="16.00" fill="#000000">du scepticisme</text>
</g>
<!-- b3&#45;&gt;c6 -->
<g id="edge23" class="edge">
<title>b3&#45;&gt;c6</title>
<path fill="none" stroke="#000000" d="M559.0038,-471.454C586.4328,-465.7911 618.1071,-459.2517 645.3709,-453.6228"/>
<polygon fill="#000000" stroke="#000000" points="646.1141,-457.0433 655.1999,-451.5936 644.6987,-450.1879 646.1141,-457.0433"/>
</g>
<!-- b4&#45;&gt;b5 -->
<!-- c7 -->
<g id="node17" class="node">
<title>c7</title>
<polygon fill="#ffffff" stroke="#7f7f7f" points="780.3505,-375.2 640.4209,-375.2 640.4209,-339.2 780.3505,-339.2 780.3505,-375.2"/>
<text text-anchor="middle" x="710.3857" y="-352.4" font-family="Times,serif" font-size="16.00" fill="#000000">Le fondationalisme</text>
</g>
<!-- b4&#45;&gt;c7 -->
<g id="edge24" class="edge">
<title>b4&#45;&gt;c7</title>
<path fill="none" stroke="#000000" d="M583.2809,-347.2864C598.7509,-348.493 614.7221,-349.7387 629.9002,-350.9225"/>
<polygon fill="#000000" stroke="#000000" points="630.0235,-354.4427 640.2654,-351.731 630.5679,-347.4639 630.0235,-354.4427"/>
</g>
<!-- c8 -->
<g id="node18" class="node">
<title>c8</title>
<polygon fill="#ffffff" stroke="#7f7f7f" points="772.1629,-325.2 648.6086,-325.2 648.6086,-289.2 772.1629,-289.2 772.1629,-325.2"/>
<text text-anchor="middle" x="710.3857" y="-302.4" font-family="Times,serif" font-size="16.00" fill="#000000">Le cohérentisme</text>
</g>
<!-- b4&#45;&gt;c8 -->
<g id="edge25" class="edge">
<title>b4&#45;&gt;c8</title>
<path fill="none" stroke="#000000" d="M580.4489,-326.8728C599.6888,-323.9598 619.8343,-320.9097 638.363,-318.1044"/>
<polygon fill="#000000" stroke="#000000" points="639.111,-321.5312 648.4743,-316.5735 638.063,-314.61 639.111,-321.5312"/>
</g>
<!-- b5&#45;&gt;b6 -->
<!-- c9 -->
<g id="node19" class="node">
<title>c9</title>
<polygon fill="#ffffff" stroke="#7f7f7f" points="759.5264,-247.2 661.2451,-247.2 661.2451,-211.2 759.5264,-211.2 759.5264,-247.2"/>
<text text-anchor="middle" x="710.3857" y="-224.4" font-family="Times,serif" font-size="16.00" fill="#000000">L&#39;empirisme</text>
</g>
<!-- b5&#45;&gt;c9 -->
<g id="edge26" class="edge">
<title>b5&#45;&gt;c9</title>
<path fill="none" stroke="#000000" d="M599.4891,-224.6209C617.152,-225.3502 634.8819,-226.0823 650.8224,-226.7405"/>
<polygon fill="#000000" stroke="#000000" points="650.8845,-230.246 661.0204,-227.1616 651.1734,-223.2519 650.8845,-230.246"/>
</g>
<!-- c10 -->
<g id="node20" class="node">
<title>c10</title>
<polygon fill="#ffffff" stroke="#7f7f7f" points="766.8009,-196.6017 653.9706,-196.6017 653.9706,-149.7983 766.8009,-149.7983 766.8009,-196.6017"/>
<text text-anchor="middle" x="710.3857" y="-178" font-family="Times,serif" font-size="16.00" fill="#000000">Les limites</text>
<text text-anchor="middle" x="710.3857" y="-158.8" font-family="Times,serif" font-size="16.00" fill="#000000">de l&#39;empirisme</text>
</g>
<!-- b5&#45;&gt;c10 -->
<g id="edge27" class="edge">
<title>b5&#45;&gt;c10</title>
<path fill="none" stroke="#000000" d="M588.6595,-199.4483C607.3444,-195.4192 626.536,-191.2808 643.9967,-187.5157"/>
<polygon fill="#000000" stroke="#000000" points="645.0227,-190.875 654.0603,-185.3457 643.5472,-184.0323 645.0227,-190.875"/>
</g>
<!-- c11 -->
<g id="node21" class="node">
<title>c11</title>
<polygon fill="#ffffff" stroke="#7f7f7f" points="785.8953,-108.6017 634.8761,-108.6017 634.8761,-61.7983 785.8953,-61.7983 785.8953,-108.6017"/>
<text text-anchor="middle" x="710.3857" y="-90" font-family="Times,serif" font-size="16.00" fill="#000000">Le falsificationnisme</text>
<text text-anchor="middle" x="710.3857" y="-70.8" font-family="Times,serif" font-size="16.00" fill="#000000">de Popper</text>
</g>
<!-- b6&#45;&gt;c11 -->
<g id="edge28" class="edge">
<title>b6&#45;&gt;c11</title>
<path fill="none" stroke="#000000" d="M564.3967,-87.2094C583.7028,-86.9436 604.7671,-86.6537 624.7351,-86.3789"/>
<polygon fill="#000000" stroke="#000000" points="624.7973,-89.8785 634.7482,-86.2411 624.7009,-82.8791 624.7973,-89.8785"/>
</g>
<!-- c12 -->
<g id="node22" class="node">
<title>c12</title>
<polygon fill="#ffffff" stroke="#7f7f7f" points="775.5183,-46.6017 645.2532,-46.6017 645.2532,.2017 775.5183,.2017 775.5183,-46.6017"/>
<text text-anchor="middle" x="710.3857" y="-28" font-family="Times,serif" font-size="16.00" fill="#000000">Les limites du</text>
<text text-anchor="middle" x="710.3857" y="-8.8" font-family="Times,serif" font-size="16.00" fill="#000000">falsificationnisme</text>
</g>
<!-- b6&#45;&gt;c12 -->
<g id="edge29" class="edge">
<title>b6&#45;&gt;c12</title>
<path fill="none" stroke="#000000" d="M557.8195,-68.6979C582.1735,-61.4351 610.0043,-53.1355 635.1697,-45.6307"/>
<polygon fill="#000000" stroke="#000000" points="636.4534,-48.9003 645.0361,-42.6884 634.4529,-42.1922 636.4534,-48.9003"/>
</g>
<!-- e1 -->
<g id="node23" class="node">
<title>e1</title>
<path fill="#fafafa" stroke="transparent" d="M925.4139,-785.5005C925.4139,-785.5005 834.4619,-785.5005 834.4619,-785.5005 828.4619,-785.5005 822.4619,-779.5005 822.4619,-773.5005 822.4619,-773.5005 822.4619,-760.8995 822.4619,-760.8995 822.4619,-754.8995 828.4619,-748.8995 834.4619,-748.8995 834.4619,-748.8995 925.4139,-748.8995 925.4139,-748.8995 931.4139,-748.8995 937.4139,-754.8995 937.4139,-760.8995 937.4139,-760.8995 937.4139,-773.5005 937.4139,-773.5005 937.4139,-779.5005 931.4139,-785.5005 925.4139,-785.5005"/>
<text text-anchor="middle" x="879.9379" y="-770.8" font-family="Times,serif" font-size="12.00" fill="#cd2626">Les soupçons sur la</text>
<text text-anchor="middle" x="879.9379" y="-756.4" font-family="Times,serif" font-size="12.00" fill="#cd2626">volonté de vérité</text>
</g>
<!-- c1&#45;&gt;e1 -->
<!-- c2&#45;&gt;c3 -->
<!-- e2 -->
<g id="node24" class="node">
<title>e2</title>
<path fill="#fafafa" stroke="transparent" d="M931.2375,-734.9004C931.2375,-734.9004 828.6384,-734.9004 828.6384,-734.9004 822.6384,-734.9004 816.6384,-728.9004 816.6384,-722.9004 816.6384,-722.9004 816.6384,-695.4996 816.6384,-695.4996 816.6384,-689.4996 822.6384,-683.4996 828.6384,-683.4996 828.6384,-683.4996 931.2375,-683.4996 931.2375,-683.4996 937.2375,-683.4996 943.2375,-689.4996 943.2375,-695.4996 943.2375,-695.4996 943.2375,-722.9004 943.2375,-722.9004 943.2375,-728.9004 937.2375,-734.9004 931.2375,-734.9004"/>
<text text-anchor="middle" x="879.9379" y="-720" font-family="Times,serif" font-size="12.00" fill="#cd2626">Valeur intrinsèque</text>
<text text-anchor="middle" x="879.9379" y="-705.6" font-family="Times,serif" font-size="12.00" fill="#cd2626">≠ valeur instrumentale</text>
<text text-anchor="middle" x="879.9379" y="-691.2" font-family="Times,serif" font-size="12.00" fill="#cd2626">de la connaissance</text>
</g>
<!-- c2&#45;&gt;e2 -->
<!-- e3 -->
<g id="node25" class="node">
<title>e3</title>
<path fill="#fafafa" stroke="transparent" d="M953.534,-656.5005C953.534,-656.5005 806.3419,-656.5005 806.3419,-656.5005 800.3419,-656.5005 794.3419,-650.5005 794.3419,-644.5005 794.3419,-644.5005 794.3419,-631.8995 794.3419,-631.8995 794.3419,-625.8995 800.3419,-619.8995 806.3419,-619.8995 806.3419,-619.8995 953.534,-619.8995 953.534,-619.8995 959.534,-619.8995 965.534,-625.8995 965.534,-631.8995 965.534,-631.8995 965.534,-644.5005 965.534,-644.5005 965.534,-650.5005 959.534,-656.5005 953.534,-656.5005"/>
<text text-anchor="middle" x="879.9379" y="-641.8" font-family="Times,serif" font-size="12.00" fill="#cd2626">L&#39;argument de la tolérance,</text>
<text text-anchor="middle" x="879.9379" y="-627.4" font-family="Times,serif" font-size="12.00" fill="#cd2626">L&#39;argument du cadre conceptuel</text>
</g>
<!-- c3&#45;&gt;e3 -->
<!-- c4&#45;&gt;c5 -->
<!-- e4 -->
<g id="node26" class="node">
<title>e4</title>
<path fill="#fafafa" stroke="transparent" d="M951.7141,-605.8012C951.7141,-605.8012 808.1618,-605.8012 808.1618,-605.8012 802.1618,-605.8012 796.1618,-599.8012 796.1618,-593.8012 796.1618,-593.8012 796.1618,-552.5988 796.1618,-552.5988 796.1618,-546.5988 802.1618,-540.5988 808.1618,-540.5988 808.1618,-540.5988 951.7141,-540.5988 951.7141,-540.5988 957.7141,-540.5988 963.7141,-546.5988 963.7141,-552.5988 963.7141,-552.5988 963.7141,-593.8012 963.7141,-593.8012 963.7141,-599.8012 957.7141,-605.8012 951.7141,-605.8012"/>
<text text-anchor="middle" x="879.9379" y="-591.2" font-family="Times,serif" font-size="12.00" fill="#cd2626">L&#39;objection de l&#39;autoréfutation,</text>
<text text-anchor="middle" x="879.9379" y="-576.8" font-family="Times,serif" font-size="12.00" fill="#cd2626">La distinction vérité&#45;opinion,</text>
<text text-anchor="middle" x="879.9379" y="-562.4" font-family="Times,serif" font-size="12.00" fill="#cd2626">La compatibilité entre vérité</text>
<text text-anchor="middle" x="879.9379" y="-548" font-family="Times,serif" font-size="12.00" fill="#cd2626">et tolérance</text>
</g>
<!-- c4&#45;&gt;e4 -->
<!-- e5 -->
<g id="node27" class="node">
<title>e5</title>
<path fill="#fafafa" stroke="transparent" d="M945.8879,-521.5005C945.8879,-521.5005 813.9879,-521.5005 813.9879,-521.5005 807.9879,-521.5005 801.9879,-515.5005 801.9879,-509.5005 801.9879,-509.5005 801.9879,-496.8995 801.9879,-496.8995 801.9879,-490.8995 807.9879,-484.8995 813.9879,-484.8995 813.9879,-484.8995 945.8879,-484.8995 945.8879,-484.8995 951.8879,-484.8995 957.8879,-490.8995 957.8879,-496.8995 957.8879,-496.8995 957.8879,-509.5005 957.8879,-509.5005 957.8879,-515.5005 951.8879,-521.5005 945.8879,-521.5005"/>
<text text-anchor="middle" x="879.9379" y="-506.8" font-family="Times,serif" font-size="12.00" fill="#cd2626">L&#39;argument du doute radical,</text>
<text text-anchor="middle" x="879.9379" y="-492.4" font-family="Times,serif" font-size="12.00" fill="#cd2626">le trilemme d&#39;Agrippa</text>
</g>
<!-- c5&#45;&gt;e5 -->
<!-- c6&#45;&gt;c7 -->
<!-- e6 -->
<g id="node28" class="node">
<title>e6</title>
<path fill="#fafafa" stroke="transparent" d="M930.5648,-470.8012C930.5648,-470.8012 829.3111,-470.8012 829.3111,-470.8012 823.3111,-470.8012 817.3111,-464.8012 817.3111,-458.8012 817.3111,-458.8012 817.3111,-417.5988 817.3111,-417.5988 817.3111,-411.5988 823.3111,-405.5988 829.3111,-405.5988 829.3111,-405.5988 930.5648,-405.5988 930.5648,-405.5988 936.5648,-405.5988 942.5648,-411.5988 942.5648,-417.5988 942.5648,-417.5988 942.5648,-458.8012 942.5648,-458.8012 942.5648,-464.8012 936.5648,-470.8012 930.5648,-470.8012"/>
<text text-anchor="middle" x="879.9379" y="-456.2" font-family="Times,serif" font-size="12.00" fill="#cd2626">Doute philosophique</text>
<text text-anchor="middle" x="879.9379" y="-441.8" font-family="Times,serif" font-size="12.00" fill="#cd2626">≠ doute ordinaire,</text>
<text text-anchor="middle" x="879.9379" y="-427.4" font-family="Times,serif" font-size="12.00" fill="#cd2626"> doute raisonnable</text>
<text text-anchor="middle" x="879.9379" y="-413" font-family="Times,serif" font-size="12.00" fill="#cd2626">≠ doute déraisonnable</text>
</g>
<!-- c6&#45;&gt;e6 -->
<!-- e7 -->
<g id="node29" class="node">
<title>e7</title>
<path fill="#fafafa" stroke="transparent" d="M924.4159,-385.2C924.4159,-385.2 835.4599,-385.2 835.4599,-385.2 829.4599,-385.2 823.4599,-379.2 823.4599,-373.2 823.4599,-373.2 823.4599,-353.2 823.4599,-353.2 823.4599,-347.2 829.4599,-341.2 835.4599,-341.2 835.4599,-341.2 924.4159,-341.2 924.4159,-341.2 930.4159,-341.2 936.4159,-347.2 936.4159,-353.2 936.4159,-353.2 936.4159,-373.2 936.4159,-373.2 936.4159,-379.2 930.4159,-385.2 924.4159,-385.2"/>
<text text-anchor="start" x="842.4511" y="-371.4" font-family="Times,serif" font-size="12.00" fill="#cd2626">Le rationalisme</text>
<text text-anchor="start" x="846.2845" y="-359.4" font-family="Times,serif" font-size="12.00" fill="#cd2626">classique et la</text>
<text text-anchor="start" x="831.4489" y="-347.4" font-family="Times,serif" font-style="italic" font-size="12.00" fill="#cd2626">mathesis universalis</text>
</g>
<!-- c7&#45;&gt;e7 -->
<!-- c8&#45;&gt;c9 -->
<!-- e8 -->
<g id="node30" class="node">
<title>e8</title>
<path fill="#fafafa" stroke="transparent" d="M921.0626,-327.5005C921.0626,-327.5005 838.8133,-327.5005 838.8133,-327.5005 832.8133,-327.5005 826.8133,-321.5005 826.8133,-315.5005 826.8133,-315.5005 826.8133,-302.8995 826.8133,-302.8995 826.8133,-296.8995 832.8133,-290.8995 838.8133,-290.8995 838.8133,-290.8995 921.0626,-290.8995 921.0626,-290.8995 927.0626,-290.8995 933.0626,-296.8995 933.0626,-302.8995 933.0626,-302.8995 933.0626,-315.5005 933.0626,-315.5005 933.0626,-321.5005 927.0626,-327.5005 921.0626,-327.5005"/>
<text text-anchor="middle" x="879.9379" y="-312.8" font-family="Times,serif" font-size="12.00" fill="#cd2626">L&#39;image du radeau</text>
<text text-anchor="middle" x="879.9379" y="-298.4" font-family="Times,serif" font-size="12.00" fill="#cd2626">≠ la pyramide</text>
</g>
<!-- c8&#45;&gt;e8 -->
<!-- e9 -->
<g id="node31" class="node">
<title>e9</title>
<path fill="#fafafa" stroke="transparent" d="M910.4235,-276.8012C910.4235,-276.8012 849.4523,-276.8012 849.4523,-276.8012 843.4523,-276.8012 837.4523,-270.8012 837.4523,-264.8012 837.4523,-264.8012 837.4523,-223.5988 837.4523,-223.5988 837.4523,-217.5988 843.4523,-211.5988 849.4523,-211.5988 849.4523,-211.5988 910.4235,-211.5988 910.4235,-211.5988 916.4235,-211.5988 922.4235,-217.5988 922.4235,-223.5988 922.4235,-223.5988 922.4235,-264.8012 922.4235,-264.8012 922.4235,-270.8012 916.4235,-276.8012 910.4235,-276.8012"/>
<text text-anchor="middle" x="879.9379" y="-262.2" font-family="Times,serif" font-size="12.00" fill="#cd2626">Empirisme de</text>
<text text-anchor="middle" x="879.9379" y="-247.8" font-family="Times,serif" font-size="12.00" fill="#cd2626">la découverte,</text>
<text text-anchor="middle" x="879.9379" y="-233.4" font-family="Times,serif" font-size="12.00" fill="#cd2626">empirisme de</text>
<text text-anchor="middle" x="879.9379" y="-219" font-family="Times,serif" font-size="12.00" fill="#cd2626">la justification</text>
</g>
<!-- c9&#45;&gt;e9 -->
<!-- c10&#45;&gt;c11 -->
<!-- e10 -->
<g id="node32" class="node">
<title>e10</title>
<path fill="#fafafa" stroke="transparent" d="M935.2403,-197.2C935.2403,-197.2 824.6356,-197.2 824.6356,-197.2 818.6356,-197.2 812.6356,-191.2 812.6356,-185.2 812.6356,-185.2 812.6356,-129.2 812.6356,-129.2 812.6356,-123.2 818.6356,-117.2 824.6356,-117.2 824.6356,-117.2 935.2403,-117.2 935.2403,-117.2 941.2403,-117.2 947.2403,-123.2 947.2403,-129.2 947.2403,-129.2 947.2403,-185.2 947.2403,-185.2 947.2403,-191.2 941.2403,-197.2 935.2403,-197.2"/>
<text text-anchor="middle" x="879.9379" y="-182.4" font-family="Times,serif" font-size="12.00" fill="#cd2626">La théorie vient souvent</text>
<text text-anchor="middle" x="879.9379" y="-168" font-family="Times,serif" font-size="12.00" fill="#cd2626">avant l&#39;observation,</text>
<text text-anchor="middle" x="879.9379" y="-153.6" font-family="Times,serif" font-size="12.00" fill="#cd2626">l&#39;observation est</text>
<text text-anchor="middle" x="879.9379" y="-139.2" font-family="Times,serif" font-size="12.00" fill="#cd2626">chargée de théorie,</text>
<text text-anchor="middle" x="879.9379" y="-124.8" font-family="Times,serif" font-size="12.00" fill="#cd2626">la critique de l&#39;induction</text>
</g>
<!-- c10&#45;&gt;e10 -->
<!-- e11 -->
<g id="node33" class="node">
<title>e11</title>
<path fill="#fafafa" stroke="transparent" d="M941.2126,-102.9004C941.2126,-102.9004 818.6633,-102.9004 818.6633,-102.9004 812.6633,-102.9004 806.6633,-96.9004 806.6633,-90.9004 806.6633,-90.9004 806.6633,-63.4996 806.6633,-63.4996 806.6633,-57.4996 812.6633,-51.4996 818.6633,-51.4996 818.6633,-51.4996 941.2126,-51.4996 941.2126,-51.4996 947.2126,-51.4996 953.2126,-57.4996 953.2126,-63.4996 953.2126,-63.4996 953.2126,-90.9004 953.2126,-90.9004 953.2126,-96.9004 947.2126,-102.9004 941.2126,-102.9004"/>
<text text-anchor="middle" x="879.9379" y="-88" font-family="Times,serif" font-size="12.00" fill="#cd2626">La distinction</text>
<text text-anchor="middle" x="879.9379" y="-73.6" font-family="Times,serif" font-size="12.00" fill="#cd2626">sciences / pseudo&#45;sciences,</text>
<text text-anchor="middle" x="879.9379" y="-59.2" font-family="Times,serif" font-size="12.00" fill="#cd2626">le critère de la réfutabilité</text>
</g>
<!-- c11&#45;&gt;e11 -->
<!-- e12 -->
<g id="node34" class="node">
<title>e12</title>
<path fill="#fafafa" stroke="transparent" d="M906.0927,-37.5005C906.0927,-37.5005 853.7832,-37.5005 853.7832,-37.5005 847.7832,-37.5005 841.7832,-31.5005 841.7832,-25.5005 841.7832,-25.5005 841.7832,-12.8995 841.7832,-12.8995 841.7832,-6.8995 847.7832,-.8995 853.7832,-.8995 853.7832,-.8995 906.0927,-.8995 906.0927,-.8995 912.0927,-.8995 918.0927,-6.8995 918.0927,-12.8995 918.0927,-12.8995 918.0927,-25.5005 918.0927,-25.5005 918.0927,-31.5005 912.0927,-37.5005 906.0927,-37.5005"/>
<text text-anchor="middle" x="879.9379" y="-22.8" font-family="Times,serif" font-size="12.00" fill="#cd2626">La notion de</text>
<text text-anchor="middle" x="879.9379" y="-8.4" font-family="Times,serif" font-size="12.00" fill="#cd2626">paradigme</text>
</g>
<!-- c12&#45;&gt;e12 -->
</g>
</svg>
