<?xml version="1.0" encoding="UTF-8" standalone="no"?>
<!DOCTYPE svg PUBLIC "-//W3C//DTD SVG 1.1//EN"
 "http://www.w3.org/Graphics/SVG/1.1/DTD/svg11.dtd">
<!-- Generated by graphviz version 2.40.1 (20161225.0304)
 -->
<!-- Title: G Pages: 1 -->
<svg width="929pt" height="621pt"
 viewBox="0.00 0.00 929.21 620.76" xmlns="http://www.w3.org/2000/svg" xmlns:xlink="http://www.w3.org/1999/xlink">
<g id="graph0" class="graph" transform="scale(1 1) rotate(0) translate(21.6 599.1627)">
<title>G</title>
<polygon fill="#fafafa" stroke="transparent" points="-21.6,21.6 -21.6,-599.1627 907.6144,-599.1627 907.6144,21.6 -21.6,21.6"/>
<!-- a1 -->
<g id="node1" class="node">
<title>a1</title>
<ellipse fill="#050505" stroke="#000000" cx="103.581" cy="-293.6" rx="103.662" ry="51.4548"/>
<text text-anchor="middle" x="103.581" y="-309.8" font-family="Times,serif" font-size="18.00" fill="#ffffff">Comment peut&#45;on</text>
<text text-anchor="middle" x="103.581" y="-288.2" font-family="Times,serif" font-size="18.00" fill="#ffffff">comprendre la</text>
<text text-anchor="middle" x="103.581" y="-266.6" font-family="Times,serif" font-size="18.00" fill="#ffffff">foi religieuse ?</text>
</g>
<!-- p1 -->
<g id="node2" class="node">
<title>p1</title>
<path fill="#fafafa" stroke="#006400" d="M314.6904,-436.0014C314.6904,-436.0014 245.766,-436.0014 245.766,-436.0014 239.766,-436.0014 233.766,-430.0014 233.766,-424.0014 233.766,-424.0014 233.766,-389.1986 233.766,-389.1986 233.766,-383.1986 239.766,-377.1986 245.766,-377.1986 245.766,-377.1986 314.6904,-377.1986 314.6904,-377.1986 320.6904,-377.1986 326.6904,-383.1986 326.6904,-389.1986 326.6904,-389.1986 326.6904,-424.0014 326.6904,-424.0014 326.6904,-430.0014 320.6904,-436.0014 314.6904,-436.0014"/>
<text text-anchor="middle" x="280.2282" y="-419.2" font-family="Times,serif" font-size="14.00" fill="#006400">I – La source</text>
<text text-anchor="middle" x="280.2282" y="-402.4" font-family="Times,serif" font-size="14.00" fill="#006400">de la foi</text>
<text text-anchor="middle" x="280.2282" y="-385.6" font-family="Times,serif" font-size="14.00" fill="#006400">religieuse</text>
</g>
<!-- a1&#45;&gt;p1 -->
<g id="edge1" class="edge">
<title>a1&#45;&gt;p1:w</title>
<path fill="none" stroke="#000000" d="M134.3838,-342.8347C157.6092,-373.2859 192.5437,-406.6 234.2282,-406.6"/>
</g>
<!-- p2 -->
<g id="node3" class="node">
<title>p2</title>
<path fill="#fafafa" stroke="#006400" d="M315.3609,-210.0014C315.3609,-210.0014 245.0955,-210.0014 245.0955,-210.0014 239.0955,-210.0014 233.0955,-204.0014 233.0955,-198.0014 233.0955,-198.0014 233.0955,-163.1986 233.0955,-163.1986 233.0955,-157.1986 239.0955,-151.1986 245.0955,-151.1986 245.0955,-151.1986 315.3609,-151.1986 315.3609,-151.1986 321.3609,-151.1986 327.3609,-157.1986 327.3609,-163.1986 327.3609,-163.1986 327.3609,-198.0014 327.3609,-198.0014 327.3609,-204.0014 321.3609,-210.0014 315.3609,-210.0014"/>
<text text-anchor="middle" x="280.2282" y="-193.2" font-family="Times,serif" font-size="14.00" fill="#006400">II – La foi :</text>
<text text-anchor="middle" x="280.2282" y="-176.4" font-family="Times,serif" font-size="14.00" fill="#006400">rationnelle ou</text>
<text text-anchor="middle" x="280.2282" y="-159.6" font-family="Times,serif" font-size="14.00" fill="#006400">irrationnelle ?</text>
</g>
<!-- a1&#45;&gt;p2 -->
<g id="edge2" class="edge">
<title>a1&#45;&gt;p2:w</title>
<path fill="none" stroke="#000000" d="M134.0623,-244.3653C157.0705,-213.9141 191.7259,-180.6 233.2282,-180.6"/>
</g>
<!-- p1&#45;&gt;p2 -->
<!-- b1 -->
<g id="node4" class="node">
<title>b1</title>
<ellipse fill="#8b0000" stroke="#000000" cx="459.0087" cy="-517.6" rx="105.9288" ry="59.9253"/>
<text text-anchor="middle" x="459.0087" y="-541.6" font-family="Times,serif" font-size="16.00" fill="#ffffff">La foi religieuse</text>
<text text-anchor="middle" x="459.0087" y="-522.4" font-family="Times,serif" font-size="16.00" fill="#ffffff">est&#45;elle une affaire</text>
<text text-anchor="middle" x="459.0087" y="-503.2" font-family="Times,serif" font-size="16.00" fill="#ffffff">personnelle ou un</text>
<text text-anchor="middle" x="459.0087" y="-484" font-family="Times,serif" font-size="16.00" fill="#ffffff">phénomène social ?</text>
</g>
<!-- p1&#45;&gt;b1 -->
<g id="edge4" class="edge">
<title>p1&#45;&gt;b1:w</title>
<path fill="none" stroke="#000000" d="M286.2228,-436.0545C294.0624,-465.9844 310.7982,-508.9835 343.2261,-516.4684"/>
<polygon fill="#000000" stroke="#000000" points="342.9661,-519.9611 353.2945,-517.6 343.748,-513.0049 342.9661,-519.9611"/>
</g>
<!-- b2 -->
<g id="node5" class="node">
<title>b2</title>
<ellipse fill="#8b0000" stroke="#000000" cx="459.0087" cy="-369.6" rx="85.4004" ry="46.2727"/>
<text text-anchor="middle" x="459.0087" y="-384" font-family="Times,serif" font-size="16.00" fill="#ffffff">La foi religieuse</text>
<text text-anchor="middle" x="459.0087" y="-364.8" font-family="Times,serif" font-size="16.00" fill="#ffffff">est&#45;elle un</text>
<text text-anchor="middle" x="459.0087" y="-345.6" font-family="Times,serif" font-size="16.00" fill="#ffffff">refuge ?</text>
</g>
<!-- p1&#45;&gt;b2 -->
<g id="edge5" class="edge">
<title>p1&#45;&gt;b2:w</title>
<path fill="none" stroke="#000000" d="M326.9826,-380.1037C338.1687,-375.4704 350.4427,-371.6657 362.7194,-370.2228"/>
<polygon fill="#000000" stroke="#000000" points="363.2385,-373.6979 373.0087,-369.6 362.8154,-366.7107 363.2385,-373.6979"/>
</g>
<!-- b3 -->
<g id="node6" class="node">
<title>b3</title>
<ellipse fill="#8b0000" stroke="#000000" cx="459.0087" cy="-221.6" rx="84.5336" ry="59.9253"/>
<text text-anchor="middle" x="459.0087" y="-245.6" font-family="Times,serif" font-size="16.00" fill="#ffffff">Peut&#45;on prouver</text>
<text text-anchor="middle" x="459.0087" y="-226.4" font-family="Times,serif" font-size="16.00" fill="#ffffff">l&#39;existence ou</text>
<text text-anchor="middle" x="459.0087" y="-207.2" font-family="Times,serif" font-size="16.00" fill="#ffffff">l&#39;inexistence</text>
<text text-anchor="middle" x="459.0087" y="-188" font-family="Times,serif" font-size="16.00" fill="#ffffff">de Dieu ?</text>
</g>
<!-- p2&#45;&gt;b3 -->
<g id="edge6" class="edge">
<title>p2&#45;&gt;b3:w</title>
<path fill="none" stroke="#000000" d="M327.2128,-209.9607C338.6265,-215.1463 351.2068,-219.3952 363.8631,-220.957"/>
<polygon fill="#000000" stroke="#000000" points="363.8073,-224.4604 374.0087,-221.6 364.2501,-217.4744 363.8073,-224.4604"/>
</g>
<!-- b4 -->
<g id="node7" class="node">
<title>b4</title>
<ellipse fill="#8b0000" stroke="#000000" cx="459.0087" cy="-73.6" rx="97.2679" ry="46.2727"/>
<text text-anchor="middle" x="459.0087" y="-88" font-family="Times,serif" font-size="16.00" fill="#ffffff">Y a&#45;t&#45;il un conflit</text>
<text text-anchor="middle" x="459.0087" y="-68.8" font-family="Times,serif" font-size="16.00" fill="#ffffff">entre la raison et la</text>
<text text-anchor="middle" x="459.0087" y="-49.6" font-family="Times,serif" font-size="16.00" fill="#ffffff">foi religieuse ?</text>
</g>
<!-- p2&#45;&gt;b4 -->
<g id="edge7" class="edge">
<title>p2&#45;&gt;b4:w</title>
<path fill="none" stroke="#000000" d="M288.44,-151.3618C298.3569,-122.5274 317.944,-81.764 350.8659,-74.672"/>
<polygon fill="#000000" stroke="#000000" points="351.432,-78.1318 361.0087,-73.6 350.6962,-71.1706 351.432,-78.1318"/>
</g>
<!-- b1&#45;&gt;b2 -->
<!-- c1 -->
<g id="node8" class="node">
<title>c1</title>
<polygon fill="#ffffff" stroke="#7f7f7f" points="683.4812,-555.6 629.4812,-555.6 629.4812,-519.6 683.4812,-519.6 683.4812,-555.6"/>
<text text-anchor="middle" x="656.4812" y="-532.8" font-family="Times,serif" font-size="16.00" fill="#000000">Freud</text>
</g>
<!-- b1&#45;&gt;c1 -->
<g id="edge11" class="edge">
<title>b1&#45;&gt;c1</title>
<path fill="none" stroke="#000000" d="M563.2385,-528.1564C583.3173,-530.19 603.0923,-532.1928 619.2282,-533.827"/>
<polygon fill="#000000" stroke="#000000" points="618.9711,-537.3188 629.2729,-534.8443 619.6765,-530.3544 618.9711,-537.3188"/>
</g>
<!-- c2 -->
<g id="node9" class="node">
<title>c2</title>
<polygon fill="#ffffff" stroke="#7f7f7f" points="696.8533,-501.6 616.1091,-501.6 616.1091,-465.6 696.8533,-465.6 696.8533,-501.6"/>
<text text-anchor="middle" x="656.4812" y="-478.8" font-family="Times,serif" font-size="16.00" fill="#000000">Durkheim</text>
</g>
<!-- b1&#45;&gt;c2 -->
<g id="edge12" class="edge">
<title>b1&#45;&gt;c2</title>
<path fill="none" stroke="#000000" d="M560.3481,-500.1518C576.1982,-497.4228 591.9587,-494.7092 605.9945,-492.2926"/>
<polygon fill="#000000" stroke="#000000" points="606.6253,-495.7356 615.8864,-490.5894 605.4375,-488.8371 606.6253,-495.7356"/>
</g>
<!-- b2&#45;&gt;b3 -->
<!-- c3 -->
<g id="node10" class="node">
<title>c3</title>
<polygon fill="#ffffff" stroke="#7f7f7f" points="683.4812,-423.6 629.4812,-423.6 629.4812,-387.6 683.4812,-387.6 683.4812,-423.6"/>
<text text-anchor="middle" x="656.4812" y="-400.8" font-family="Times,serif" font-size="16.00" fill="#000000">Marx</text>
</g>
<!-- b2&#45;&gt;c3 -->
<g id="edge13" class="edge">
<title>b2&#45;&gt;c3</title>
<path fill="none" stroke="#000000" d="M540.1832,-384.3984C567.5498,-389.3875 596.7763,-394.7156 619.0846,-398.7824"/>
<polygon fill="#000000" stroke="#000000" points="618.6625,-402.2631 629.1281,-400.6134 619.918,-395.3766 618.6625,-402.2631"/>
</g>
<!-- c4 -->
<g id="node11" class="node">
<title>c4</title>
<polygon fill="#ffffff" stroke="#7f7f7f" points="691.3036,-373.6 621.6589,-373.6 621.6589,-337.6 691.3036,-337.6 691.3036,-373.6"/>
<text text-anchor="middle" x="656.4812" y="-350.8" font-family="Times,serif" font-size="16.00" fill="#000000">Bergson</text>
</g>
<!-- b2&#45;&gt;c4 -->
<g id="edge14" class="edge">
<title>b2&#45;&gt;c4</title>
<path fill="none" stroke="#000000" d="M543.9009,-363.5815C567.2235,-361.928 591.5976,-360.2 611.6781,-358.7764"/>
<polygon fill="#000000" stroke="#000000" points="612.0317,-362.2602 621.7591,-358.0617 611.5366,-355.2777 612.0317,-362.2602"/>
</g>
<!-- b3&#45;&gt;b4 -->
<!-- c5 -->
<g id="node12" class="node">
<title>c5</title>
<polygon fill="#ffffff" stroke="#7f7f7f" points="715.6058,-296.2012 597.3566,-296.2012 597.3566,-230.9988 715.6058,-230.9988 715.6058,-296.2012"/>
<text text-anchor="middle" x="656.4812" y="-278" font-family="Times,serif" font-size="16.00" fill="#000000">Les arguments</text>
<text text-anchor="middle" x="656.4812" y="-258.8" font-family="Times,serif" font-size="16.00" fill="#000000">pour l&#39;existence</text>
<text text-anchor="middle" x="656.4812" y="-239.6" font-family="Times,serif" font-size="16.00" fill="#000000">de Dieu</text>
</g>
<!-- b3&#45;&gt;c5 -->
<g id="edge15" class="edge">
<title>b3&#45;&gt;c5</title>
<path fill="none" stroke="#000000" d="M540.1832,-238.8648C555.8906,-242.2056 572.2107,-245.6767 587.4837,-248.9251"/>
<polygon fill="#000000" stroke="#000000" points="586.8428,-252.367 597.3521,-251.024 588.299,-245.5201 586.8428,-252.367"/>
</g>
<!-- c6 -->
<g id="node13" class="node">
<title>c6</title>
<polygon fill="#ffffff" stroke="#7f7f7f" points="721.2567,-216.2012 591.7058,-216.2012 591.7058,-150.9988 721.2567,-150.9988 721.2567,-216.2012"/>
<text text-anchor="middle" x="656.4812" y="-198" font-family="Times,serif" font-size="16.00" fill="#000000">Les arguments</text>
<text text-anchor="middle" x="656.4812" y="-178.8" font-family="Times,serif" font-size="16.00" fill="#000000">contre l&#39;existence</text>
<text text-anchor="middle" x="656.4812" y="-159.6" font-family="Times,serif" font-size="16.00" fill="#000000">de Dieu</text>
</g>
<!-- b3&#45;&gt;c6 -->
<g id="edge16" class="edge">
<title>b3&#45;&gt;c6</title>
<path fill="none" stroke="#000000" d="M540.7538,-205.8696C554.2822,-203.2663 568.2494,-200.5786 581.5979,-198.0099"/>
<polygon fill="#000000" stroke="#000000" points="582.5091,-201.3989 591.6675,-196.0722 581.1863,-194.525 582.5091,-201.3989"/>
</g>
<!-- c7 -->
<g id="node14" class="node">
<title>c7</title>
<polygon fill="#ffffff" stroke="#7f7f7f" points="716.0038,-109.0017 596.9587,-109.0017 596.9587,-62.1983 716.0038,-62.1983 716.0038,-109.0017"/>
<text text-anchor="middle" x="656.4812" y="-90.4" font-family="Times,serif" font-size="16.00" fill="#000000">Les conceptions</text>
<text text-anchor="middle" x="656.4812" y="-71.2" font-family="Times,serif" font-size="16.00" fill="#000000">conflictuelles</text>
</g>
<!-- b4&#45;&gt;c7 -->
<g id="edge17" class="edge">
<title>b4&#45;&gt;c7</title>
<path fill="none" stroke="#000000" d="M555.7202,-79.477C566.1643,-80.1116 576.6386,-80.7481 586.6754,-81.358"/>
<polygon fill="#000000" stroke="#000000" points="586.7629,-84.8697 596.9568,-81.9828 587.1875,-77.8826 586.7629,-84.8697"/>
</g>
<!-- c8 -->
<g id="node15" class="node">
<title>c8</title>
<polygon fill="#ffffff" stroke="#7f7f7f" points="721.9989,-49.0017 590.9636,-49.0017 590.9636,-2.1983 721.9989,-2.1983 721.9989,-49.0017"/>
<text text-anchor="middle" x="656.4812" y="-30.4" font-family="Times,serif" font-size="16.00" fill="#000000">Les conceptions</text>
<text text-anchor="middle" x="656.4812" y="-11.2" font-family="Times,serif" font-size="16.00" fill="#000000">non&#45;conflictuelles</text>
</g>
<!-- b4&#45;&gt;c8 -->
<g id="edge18" class="edge">
<title>b4&#45;&gt;c8</title>
<path fill="none" stroke="#000000" d="M545.9104,-52.4767C557.5951,-49.6364 569.504,-46.7417 580.97,-43.9546"/>
<polygon fill="#000000" stroke="#000000" points="582.0251,-47.3002 590.9154,-41.5372 580.3716,-40.4982 582.0251,-47.3002"/>
</g>
<!-- e1 -->
<g id="node16" class="node">
<title>e1</title>
<path fill="#fafafa" stroke="transparent" d="M859.4122,-565.3004C859.4122,-565.3004 756.8419,-565.3004 756.8419,-565.3004 750.8419,-565.3004 744.8419,-559.3004 744.8419,-553.3004 744.8419,-553.3004 744.8419,-525.8996 744.8419,-525.8996 744.8419,-519.8996 750.8419,-513.8996 756.8419,-513.8996 756.8419,-513.8996 859.4122,-513.8996 859.4122,-513.8996 865.4122,-513.8996 871.4122,-519.8996 871.4122,-525.8996 871.4122,-525.8996 871.4122,-553.3004 871.4122,-553.3004 871.4122,-559.3004 865.4122,-565.3004 859.4122,-565.3004"/>
<text text-anchor="middle" x="808.127" y="-550.4" font-family="Times,serif" font-size="12.00" fill="#cd2626">La foi comme réponse</text>
<text text-anchor="middle" x="808.127" y="-536" font-family="Times,serif" font-size="12.00" fill="#cd2626">à des besoins affectifs,</text>
<text text-anchor="middle" x="808.127" y="-521.6" font-family="Times,serif" font-size="12.00" fill="#cd2626">moraux et cognitifs</text>
</g>
<!-- c1&#45;&gt;e1 -->
<!-- c2&#45;&gt;c3 -->
<!-- e2 -->
<g id="node17" class="node">
<title>e2</title>
<path fill="#fafafa" stroke="transparent" d="M849.9343,-499.9005C849.9343,-499.9005 766.3198,-499.9005 766.3198,-499.9005 760.3198,-499.9005 754.3198,-493.9005 754.3198,-487.9005 754.3198,-487.9005 754.3198,-475.2995 754.3198,-475.2995 754.3198,-469.2995 760.3198,-463.2995 766.3198,-463.2995 766.3198,-463.2995 849.9343,-463.2995 849.9343,-463.2995 855.9343,-463.2995 861.9343,-469.2995 861.9343,-475.2995 861.9343,-475.2995 861.9343,-487.9005 861.9343,-487.9005 861.9343,-493.9005 855.9343,-499.9005 849.9343,-499.9005"/>
<text text-anchor="middle" x="808.127" y="-485.2" font-family="Times,serif" font-size="12.00" fill="#cd2626">La religion comme</text>
<text text-anchor="middle" x="808.127" y="-470.8" font-family="Times,serif" font-size="12.00" fill="#cd2626">institution sociale</text>
</g>
<!-- c2&#45;&gt;e2 -->
<!-- e3 -->
<g id="node18" class="node">
<title>e3</title>
<path fill="#fafafa" stroke="transparent" d="M853.2856,-423.9005C853.2856,-423.9005 762.9685,-423.9005 762.9685,-423.9005 756.9685,-423.9005 750.9685,-417.9005 750.9685,-411.9005 750.9685,-411.9005 750.9685,-399.2995 750.9685,-399.2995 750.9685,-393.2995 756.9685,-387.2995 762.9685,-387.2995 762.9685,-387.2995 853.2856,-387.2995 853.2856,-387.2995 859.2856,-387.2995 865.2856,-393.2995 865.2856,-399.2995 865.2856,-399.2995 865.2856,-411.9005 865.2856,-411.9005 865.2856,-417.9005 859.2856,-423.9005 853.2856,-423.9005"/>
<text text-anchor="middle" x="808.127" y="-409.2" font-family="Times,serif" font-size="12.00" fill="#cd2626">La religion comme</text>
<text text-anchor="middle" x="808.127" y="-394.8" font-family="Times,serif" font-size="12.00" fill="#cd2626">“opium du peuple”</text>
</g>
<!-- c3&#45;&gt;e3 -->
<!-- c4&#45;&gt;c5 -->
<!-- e4 -->
<g id="node19" class="node">
<title>e4</title>
<path fill="#fafafa" stroke="transparent" d="M837.938,-372.9005C837.938,-372.9005 778.3161,-372.9005 778.3161,-372.9005 772.3161,-372.9005 766.3161,-366.9005 766.3161,-360.9005 766.3161,-360.9005 766.3161,-348.2995 766.3161,-348.2995 766.3161,-342.2995 772.3161,-336.2995 778.3161,-336.2995 778.3161,-336.2995 837.938,-336.2995 837.938,-336.2995 843.938,-336.2995 849.938,-342.2995 849.938,-348.2995 849.938,-348.2995 849.938,-360.9005 849.938,-360.9005 849.938,-366.9005 843.938,-372.9005 837.938,-372.9005"/>
<text text-anchor="middle" x="808.127" y="-358.2" font-family="Times,serif" font-size="12.00" fill="#cd2626">La foi comme</text>
<text text-anchor="middle" x="808.127" y="-343.8" font-family="Times,serif" font-size="12.00" fill="#cd2626">élan intérieur</text>
</g>
<!-- c4&#45;&gt;e4 -->
<!-- e5 -->
<g id="node20" class="node">
<title>e5</title>
<path fill="#fafafa" stroke="transparent" d="M869.0954,-281.9005C869.0954,-281.9005 747.1586,-281.9005 747.1586,-281.9005 741.1586,-281.9005 735.1586,-275.9005 735.1586,-269.9005 735.1586,-269.9005 735.1586,-257.2995 735.1586,-257.2995 735.1586,-251.2995 741.1586,-245.2995 747.1586,-245.2995 747.1586,-245.2995 869.0954,-245.2995 869.0954,-245.2995 875.0954,-245.2995 881.0954,-251.2995 881.0954,-257.2995 881.0954,-257.2995 881.0954,-269.9005 881.0954,-269.9005 881.0954,-275.9005 875.0954,-281.9005 869.0954,-281.9005"/>
<text text-anchor="middle" x="808.127" y="-267.2" font-family="Times,serif" font-size="12.00" fill="#cd2626">L&#39;argument cosmologique,</text>
<text text-anchor="middle" x="808.127" y="-252.8" font-family="Times,serif" font-size="12.00" fill="#cd2626">l&#39;argument téléologique</text>
</g>
<!-- c5&#45;&gt;e5 -->
<!-- c6&#45;&gt;c7 -->
<!-- e6 -->
<g id="node21" class="node">
<title>e6</title>
<path fill="#fafafa" stroke="transparent" d="M860.2524,-201.9005C860.2524,-201.9005 756.0017,-201.9005 756.0017,-201.9005 750.0017,-201.9005 744.0017,-195.9005 744.0017,-189.9005 744.0017,-189.9005 744.0017,-177.2995 744.0017,-177.2995 744.0017,-171.2995 750.0017,-165.2995 756.0017,-165.2995 756.0017,-165.2995 860.2524,-165.2995 860.2524,-165.2995 866.2524,-165.2995 872.2524,-171.2995 872.2524,-177.2995 872.2524,-177.2995 872.2524,-189.9005 872.2524,-189.9005 872.2524,-195.9005 866.2524,-201.9005 860.2524,-201.9005"/>
<text text-anchor="middle" x="808.127" y="-187.2" font-family="Times,serif" font-size="12.00" fill="#cd2626">L&#39;argument naturaliste,</text>
<text text-anchor="middle" x="808.127" y="-172.8" font-family="Times,serif" font-size="12.00" fill="#cd2626">l&#39;argument du mal</text>
</g>
<!-- c6&#45;&gt;e6 -->
<!-- e7 -->
<g id="node22" class="node">
<title>e7</title>
<path fill="#fafafa" stroke="transparent" d="M857.7427,-103.9005C857.7427,-103.9005 758.5114,-103.9005 758.5114,-103.9005 752.5114,-103.9005 746.5114,-97.9005 746.5114,-91.9005 746.5114,-91.9005 746.5114,-79.2995 746.5114,-79.2995 746.5114,-73.2995 752.5114,-67.2995 758.5114,-67.2995 758.5114,-67.2995 857.7427,-67.2995 857.7427,-67.2995 863.7427,-67.2995 869.7427,-73.2995 869.7427,-79.2995 869.7427,-79.2995 869.7427,-91.9005 869.7427,-91.9005 869.7427,-97.9005 863.7427,-103.9005 857.7427,-103.9005"/>
<text text-anchor="middle" x="808.127" y="-89.2" font-family="Times,serif" font-size="12.00" fill="#cd2626">Le rationalisme athée,</text>
<text text-anchor="middle" x="808.127" y="-74.8" font-family="Times,serif" font-size="12.00" fill="#cd2626">le fidéisme</text>
</g>
<!-- c7&#45;&gt;e7 -->
<!-- e8 -->
<g id="node23" class="node">
<title>e8</title>
<path fill="#fafafa" stroke="transparent" d="M873.902,-51.3004C873.902,-51.3004 742.3521,-51.3004 742.3521,-51.3004 736.3521,-51.3004 730.3521,-45.3004 730.3521,-39.3004 730.3521,-39.3004 730.3521,-11.8996 730.3521,-11.8996 730.3521,-5.8996 736.3521,.1004 742.3521,.1004 742.3521,.1004 873.902,.1004 873.902,.1004 879.902,.1004 885.902,-5.8996 885.902,-11.8996 885.902,-11.8996 885.902,-39.3004 885.902,-39.3004 885.902,-45.3004 879.902,-51.3004 873.902,-51.3004"/>
<text text-anchor="middle" x="808.127" y="-36.4" font-family="Times,serif" font-size="12.00" fill="#cd2626">La théologie rationnelle,</text>
<text text-anchor="middle" x="808.127" y="-22" font-family="Times,serif" font-size="12.00" fill="#cd2626">le concordisme,</text>
<text text-anchor="middle" x="808.127" y="-7.6" font-family="Times,serif" font-size="12.00" fill="#cd2626">la séparation des magistères</text>
</g>
<!-- c8&#45;&gt;e8 -->
</g>
</svg>
