<?xml version="1.0" encoding="UTF-8" standalone="no"?>
<!DOCTYPE svg PUBLIC "-//W3C//DTD SVG 1.1//EN"
 "http://www.w3.org/Graphics/SVG/1.1/DTD/svg11.dtd">
<!-- Generated by graphviz version 2.40.1 (20161225.0304)
 -->
<!-- Title: G Pages: 1 -->
<svg width="954pt" height="662pt"
 viewBox="0.00 0.00 953.89 662.34" xmlns="http://www.w3.org/2000/svg" xmlns:xlink="http://www.w3.org/1999/xlink">
<g id="graph0" class="graph" transform="scale(1 1) rotate(0) translate(21.6 640.7391)">
<title>G</title>
<polygon fill="#fafafa" stroke="transparent" points="-21.6,21.6 -21.6,-640.7391 932.2864,-640.7391 932.2864,21.6 -21.6,21.6"/>
<!-- a1 -->
<g id="node1" class="node">
<title>a1</title>
<ellipse fill="#050505" stroke="#000000" cx="87.6405" cy="-240.5391" rx="87.7812" ry="51.4548"/>
<text text-anchor="middle" x="87.6405" y="-256.7391" font-family="Times,serif" font-size="18.00" fill="#ffffff">Le libre arbitre</text>
<text text-anchor="middle" x="87.6405" y="-235.1391" font-family="Times,serif" font-size="18.00" fill="#ffffff">est&#45;il une</text>
<text text-anchor="middle" x="87.6405" y="-213.5391" font-family="Times,serif" font-size="18.00" fill="#ffffff">illusion ?</text>
</g>
<!-- p1 -->
<g id="node2" class="node">
<title>p1</title>
<path fill="#fafafa" stroke="#006400" d="M319.2233,-421.5391C319.2233,-421.5391 215.9622,-421.5391 215.9622,-421.5391 209.9622,-421.5391 203.9622,-415.5391 203.9622,-409.5391 203.9622,-409.5391 203.9622,-371.5391 203.9622,-371.5391 203.9622,-365.5391 209.9622,-359.5391 215.9622,-359.5391 215.9622,-359.5391 319.2233,-359.5391 319.2233,-359.5391 325.2233,-359.5391 331.2233,-365.5391 331.2233,-371.5391 331.2233,-371.5391 331.2233,-409.5391 331.2233,-409.5391 331.2233,-415.5391 325.2233,-421.5391 319.2233,-421.5391"/>
<text text-anchor="middle" x="267.5928" y="-404.0391" font-family="Times,serif" font-size="15.00" fill="#006400">I – Les arguments</text>
<text text-anchor="middle" x="267.5928" y="-386.0391" font-family="Times,serif" font-size="15.00" fill="#006400">pour le libre</text>
<text text-anchor="middle" x="267.5928" y="-368.0391" font-family="Times,serif" font-size="15.00" fill="#006400">arbitre</text>
</g>
<!-- a1&#45;&gt;p1 -->
<g id="edge1" class="edge">
<title>a1&#45;&gt;p1:w</title>
<path fill="none" stroke="#000000" d="M103.3916,-291.3223C120.4199,-334.8384 152.2451,-390.5391 203.5928,-390.5391"/>
</g>
<!-- p2 -->
<g id="node3" class="node">
<title>p2</title>
<path fill="#fafafa" stroke="#006400" d="M321.7168,-121.5391C321.7168,-121.5391 213.4687,-121.5391 213.4687,-121.5391 207.4687,-121.5391 201.4687,-115.5391 201.4687,-109.5391 201.4687,-109.5391 201.4687,-71.5391 201.4687,-71.5391 201.4687,-65.5391 207.4687,-59.5391 213.4687,-59.5391 213.4687,-59.5391 321.7168,-59.5391 321.7168,-59.5391 327.7168,-59.5391 333.7168,-65.5391 333.7168,-71.5391 333.7168,-71.5391 333.7168,-109.5391 333.7168,-109.5391 333.7168,-115.5391 327.7168,-121.5391 321.7168,-121.5391"/>
<text text-anchor="middle" x="267.5928" y="-104.0391" font-family="Times,serif" font-size="15.00" fill="#006400">II – Les arguments</text>
<text text-anchor="middle" x="267.5928" y="-86.0391" font-family="Times,serif" font-size="15.00" fill="#006400">contre le libre</text>
<text text-anchor="middle" x="267.5928" y="-68.0391" font-family="Times,serif" font-size="15.00" fill="#006400">arbitre</text>
</g>
<!-- a1&#45;&gt;p2 -->
<g id="edge2" class="edge">
<title>a1&#45;&gt;p2:w</title>
<path fill="none" stroke="#000000" d="M102.8653,-189.7559C119.42,-146.2398 150.5746,-90.5391 201.5928,-90.5391"/>
</g>
<!-- p1&#45;&gt;p2 -->
<!-- b1 -->
<g id="node4" class="node">
<title>b1</title>
<ellipse fill="#8b0000" stroke="#000000" cx="481.9398" cy="-557.5391" rx="106.6167" ry="59.9253"/>
<text text-anchor="middle" x="481.9398" y="-581.5391" font-family="Times,serif" font-size="16.00" fill="#ffffff">L&#39;expérience</text>
<text text-anchor="middle" x="481.9398" y="-562.3391" font-family="Times,serif" font-size="16.00" fill="#ffffff">d&#39;agir par soi&#45;même</text>
<text text-anchor="middle" x="481.9398" y="-543.1391" font-family="Times,serif" font-size="16.00" fill="#ffffff">est&#45;elle une preuve</text>
<text text-anchor="middle" x="481.9398" y="-523.9391" font-family="Times,serif" font-size="16.00" fill="#ffffff">de notre liberté ?</text>
</g>
<!-- p1&#45;&gt;b1 -->
<g id="edge4" class="edge">
<title>p1&#45;&gt;b1:w</title>
<path fill="none" stroke="#000000" d="M272.9859,-421.5591C282.7947,-467.2132 308.0332,-548.0664 364.773,-556.7732"/>
<polygon fill="#000000" stroke="#000000" points="364.7051,-560.2779 374.9398,-557.5391 365.2311,-553.2977 364.7051,-560.2779"/>
</g>
<!-- b2 -->
<g id="node5" class="node">
<title>b2</title>
<ellipse fill="#8b0000" stroke="#000000" cx="481.9398" cy="-396.5391" rx="122.0706" ry="59.9253"/>
<text text-anchor="middle" x="481.9398" y="-420.5391" font-family="Times,serif" font-size="16.00" fill="#ffffff">Notre capacité</text>
<text text-anchor="middle" x="481.9398" y="-401.3391" font-family="Times,serif" font-size="16.00" fill="#ffffff">d&#39;envisager plusieurs</text>
<text text-anchor="middle" x="481.9398" y="-382.1391" font-family="Times,serif" font-size="16.00" fill="#ffffff">possibilités est&#45;elle une</text>
<text text-anchor="middle" x="481.9398" y="-362.9391" font-family="Times,serif" font-size="16.00" fill="#ffffff">preuve de notre liberté ?</text>
</g>
<!-- p1&#45;&gt;b2 -->
<g id="edge5" class="edge">
<title>p1&#45;&gt;b2:w</title>
<path fill="none" stroke="#000000" d="M331.6429,-395.7792C337.7168,-396.0755 343.8633,-396.304 349.9042,-396.43"/>
<polygon fill="#000000" stroke="#000000" points="349.9023,-399.9301 359.9398,-396.5391 349.9785,-392.9305 349.9023,-399.9301"/>
</g>
<!-- b3 -->
<g id="node6" class="node">
<title>b3</title>
<ellipse fill="#8b0000" stroke="#000000" cx="481.9398" cy="-248.5391" rx="122.0706" ry="46.2727"/>
<text text-anchor="middle" x="481.9398" y="-262.9391" font-family="Times,serif" font-size="16.00" fill="#ffffff">Notre responsabilité</text>
<text text-anchor="middle" x="481.9398" y="-243.7391" font-family="Times,serif" font-size="16.00" fill="#ffffff">morale est&#45;elle une</text>
<text text-anchor="middle" x="481.9398" y="-224.5391" font-family="Times,serif" font-size="16.00" fill="#ffffff">preuve de notre liberté ?</text>
</g>
<!-- p1&#45;&gt;b3 -->
<g id="edge6" class="edge">
<title>p1&#45;&gt;b3:w</title>
<path fill="none" stroke="#000000" d="M273.4263,-359.3766C282.6071,-320.3524 304.2984,-257.588 349.8528,-249.4242"/>
<polygon fill="#000000" stroke="#000000" points="350.2841,-252.8999 359.9398,-248.5391 349.6721,-245.9267 350.2841,-252.8999"/>
</g>
<!-- b4 -->
<g id="node7" class="node">
<title>b4</title>
<ellipse fill="#8b0000" stroke="#000000" cx="481.9398" cy="-73.5391" rx="89.4721" ry="73.5782"/>
<text text-anchor="middle" x="481.9398" y="-107.1391" font-family="Times,serif" font-size="16.00" fill="#ffffff">Sommes&#45;nous</text>
<text text-anchor="middle" x="481.9398" y="-87.9391" font-family="Times,serif" font-size="16.00" fill="#ffffff">déterminés par</text>
<text text-anchor="middle" x="481.9398" y="-68.7391" font-family="Times,serif" font-size="16.00" fill="#ffffff">des facteurs dont</text>
<text text-anchor="middle" x="481.9398" y="-49.5391" font-family="Times,serif" font-size="16.00" fill="#ffffff">nous n&#39;avons pas</text>
<text text-anchor="middle" x="481.9398" y="-30.3391" font-family="Times,serif" font-size="16.00" fill="#ffffff">conscience ?</text>
</g>
<!-- p2&#45;&gt;b4 -->
<g id="edge7" class="edge">
<title>p2&#45;&gt;b4:w</title>
<path fill="none" stroke="#000000" d="M333.8333,-78.0948C349.1871,-75.9683 365.6958,-74.265 381.5967,-73.7215"/>
<polygon fill="#000000" stroke="#000000" points="382.0032,-77.215 391.9398,-73.5391 381.8796,-70.2161 382.0032,-77.215"/>
</g>
<!-- b1&#45;&gt;b2 -->
<!-- c1 -->
<g id="node8" class="node">
<title>c1</title>
<polygon fill="#ffffff" stroke="#7f7f7f" points="721.0991,-606.5391 651.4544,-606.5391 651.4544,-570.5391 721.0991,-570.5391 721.0991,-606.5391"/>
<text text-anchor="middle" x="686.2768" y="-583.7391" font-family="Times,serif" font-size="16.00" fill="#000000">Bergson</text>
</g>
<!-- b1&#45;&gt;c1 -->
<g id="edge11" class="edge">
<title>b1&#45;&gt;c1</title>
<path fill="none" stroke="#000000" d="M585.3056,-573.2207C604.9795,-576.2055 624.5942,-579.1812 641.2311,-581.7052"/>
<polygon fill="#000000" stroke="#000000" points="640.7672,-585.1748 651.179,-583.2144 641.8172,-578.254 640.7672,-585.1748"/>
</g>
<!-- c2 -->
<g id="node9" class="node">
<title>c2</title>
<polygon fill="#ffffff" stroke="#7f7f7f" points="719.8239,-545.5391 652.7296,-545.5391 652.7296,-509.5391 719.8239,-509.5391 719.8239,-545.5391"/>
<text text-anchor="middle" x="686.2768" y="-522.7391" font-family="Times,serif" font-size="16.00" fill="#000000">Spinoza</text>
</g>
<!-- b1&#45;&gt;c2 -->
<g id="edge12" class="edge">
<title>b1&#45;&gt;c2</title>
<path fill="none" stroke="#000000" d="M585.3056,-542.3633C605.4713,-539.4027 625.5749,-536.4511 642.4733,-533.9702"/>
<polygon fill="#000000" stroke="#000000" points="643.1671,-537.4059 652.5526,-532.4904 642.1502,-530.4802 643.1671,-537.4059"/>
</g>
<!-- b2&#45;&gt;b3 -->
<!-- c3 -->
<g id="node10" class="node">
<title>c3</title>
<polygon fill="#ffffff" stroke="#7f7f7f" points="721.1007,-453.9408 651.4528,-453.9408 651.4528,-407.1374 721.1007,-407.1374 721.1007,-453.9408"/>
<text text-anchor="middle" x="686.2768" y="-435.3391" font-family="Times,serif" font-size="16.00" fill="#000000">Thomas</text>
<text text-anchor="middle" x="686.2768" y="-416.1391" font-family="Times,serif" font-size="16.00" fill="#000000">d&#39;Aquin</text>
</g>
<!-- b2&#45;&gt;c3 -->
<g id="edge13" class="edge">
<title>b2&#45;&gt;c3</title>
<path fill="none" stroke="#000000" d="M597.5431,-415.7745C613.0764,-418.3592 628.1881,-420.8736 641.4081,-423.0733"/>
<polygon fill="#000000" stroke="#000000" points="641.1378,-426.5764 651.5767,-424.7653 642.2868,-419.6713 641.1378,-426.5764"/>
</g>
<!-- c4 -->
<g id="node11" class="node">
<title>c4</title>
<polygon fill="#ffffff" stroke="#7f7f7f" points="729.8552,-393.5391 642.6983,-393.5391 642.6983,-357.5391 729.8552,-357.5391 729.8552,-393.5391"/>
<text text-anchor="middle" x="686.2768" y="-370.7391" font-family="Times,serif" font-size="16.00" fill="#000000">D&#39;Holbach</text>
</g>
<!-- b2&#45;&gt;c4 -->
<g id="edge14" class="edge">
<title>b2&#45;&gt;c4</title>
<path fill="none" stroke="#000000" d="M601.3947,-384.2626C612.1698,-383.1552 622.6807,-382.075 632.429,-381.0731"/>
<polygon fill="#000000" stroke="#000000" points="633.0944,-384.5233 642.6842,-380.0192 632.3787,-377.5599 633.0944,-384.5233"/>
</g>
<!-- b3&#45;&gt;b4 -->
<!-- c5 -->
<g id="node12" class="node">
<title>c5</title>
<polygon fill="#ffffff" stroke="#7f7f7f" points="721.1007,-301.9408 651.4528,-301.9408 651.4528,-255.1374 721.1007,-255.1374 721.1007,-301.9408"/>
<text text-anchor="middle" x="686.2768" y="-283.3391" font-family="Times,serif" font-size="16.00" fill="#000000">Thomas</text>
<text text-anchor="middle" x="686.2768" y="-264.1391" font-family="Times,serif" font-size="16.00" fill="#000000">d&#39;Aquin</text>
</g>
<!-- b3&#45;&gt;c5 -->
<g id="edge15" class="edge">
<title>b3&#45;&gt;c5</title>
<path fill="none" stroke="#000000" d="M596.0568,-265.2933C612.0835,-267.6463 627.7125,-269.9409 641.3371,-271.9412"/>
<polygon fill="#000000" stroke="#000000" points="640.9363,-275.4198 651.3387,-273.4096 641.9532,-268.4941 640.9363,-275.4198"/>
</g>
<!-- c6 -->
<g id="node13" class="node">
<title>c6</title>
<polygon fill="#ffffff" stroke="#7f7f7f" points="713.876,-236.5391 658.6775,-236.5391 658.6775,-200.5391 713.876,-200.5391 713.876,-236.5391"/>
<text text-anchor="middle" x="686.2768" y="-213.7391" font-family="Times,serif" font-size="16.00" fill="#000000">Hume</text>
</g>
<!-- b3&#45;&gt;c6 -->
<g id="edge16" class="edge">
<title>b3&#45;&gt;c6</title>
<path fill="none" stroke="#000000" d="M596.0568,-231.7849C615.0717,-228.9932 633.5268,-226.2837 648.7387,-224.0503"/>
<polygon fill="#000000" stroke="#000000" points="649.3335,-227.5006 658.719,-222.585 648.3166,-220.5748 649.3335,-227.5006"/>
</g>
<!-- c7 -->
<g id="node14" class="node">
<title>c7</title>
<polygon fill="#ffffff" stroke="#7f7f7f" points="742.3807,-131.1403 630.1729,-131.1403 630.1729,-65.9379 742.3807,-65.9379 742.3807,-131.1403"/>
<text text-anchor="middle" x="686.2768" y="-112.9391" font-family="Times,serif" font-size="16.00" fill="#000000">Les différentes</text>
<text text-anchor="middle" x="686.2768" y="-93.7391" font-family="Times,serif" font-size="16.00" fill="#000000">formes de</text>
<text text-anchor="middle" x="686.2768" y="-74.5391" font-family="Times,serif" font-size="16.00" fill="#000000">déterminisme</text>
</g>
<!-- b4&#45;&gt;c7 -->
<g id="edge17" class="edge">
<title>b4&#45;&gt;c7</title>
<path fill="none" stroke="#000000" d="M570.3765,-84.3591C587.0106,-86.3942 604.1393,-88.4898 619.9554,-90.4249"/>
<polygon fill="#000000" stroke="#000000" points="619.7899,-93.9307 630.1409,-91.6711 620.64,-86.9825 619.7899,-93.9307"/>
</g>
<!-- c8 -->
<g id="node15" class="node">
<title>c8</title>
<polygon fill="#ffffff" stroke="#7f7f7f" points="739.4333,-49.9408 633.1202,-49.9408 633.1202,-3.1374 739.4333,-3.1374 739.4333,-49.9408"/>
<text text-anchor="middle" x="686.2768" y="-31.3391" font-family="Times,serif" font-size="16.00" fill="#000000">Les limites du</text>
<text text-anchor="middle" x="686.2768" y="-12.1391" font-family="Times,serif" font-size="16.00" fill="#000000">déterminisme</text>
</g>
<!-- b4&#45;&gt;c8 -->
<g id="edge18" class="edge">
<title>b4&#45;&gt;c8</title>
<path fill="none" stroke="#000000" d="M568.0049,-53.7431C586.4224,-49.5068 605.556,-45.1059 622.9302,-41.1096"/>
<polygon fill="#000000" stroke="#000000" points="623.9768,-44.4603 632.9378,-38.8077 622.4077,-37.6385 623.9768,-44.4603"/>
</g>
<!-- e1 -->
<g id="node16" class="node">
<title>e1</title>
<path fill="#fafafa" stroke="transparent" d="M874.2849,-619.2395C874.2849,-619.2395 786.9798,-619.2395 786.9798,-619.2395 780.9798,-619.2395 774.9798,-613.2395 774.9798,-607.2395 774.9798,-607.2395 774.9798,-579.8387 774.9798,-579.8387 774.9798,-573.8387 780.9798,-567.8387 786.9798,-567.8387 786.9798,-567.8387 874.2849,-567.8387 874.2849,-567.8387 880.2849,-567.8387 886.2849,-573.8387 886.2849,-579.8387 886.2849,-579.8387 886.2849,-607.2395 886.2849,-607.2395 886.2849,-613.2395 880.2849,-619.2395 874.2849,-619.2395"/>
<text text-anchor="middle" x="830.6324" y="-604.3391" font-family="Times,serif" font-size="12.00" fill="#cd2626">« Agir librement,</text>
<text text-anchor="middle" x="830.6324" y="-589.9391" font-family="Times,serif" font-size="12.00" fill="#cd2626">c’est reprendre</text>
<text text-anchor="middle" x="830.6324" y="-575.5391" font-family="Times,serif" font-size="12.00" fill="#cd2626">possession de soi »</text>
</g>
<!-- c1&#45;&gt;e1 -->
<!-- c2&#45;&gt;c3 -->
<!-- e2 -->
<g id="node17" class="node">
<title>e2</title>
<path fill="#fafafa" stroke="transparent" d="M898.7404,-554.1403C898.7404,-554.1403 762.5243,-554.1403 762.5243,-554.1403 756.5243,-554.1403 750.5243,-548.1403 750.5243,-542.1403 750.5243,-542.1403 750.5243,-500.9379 750.5243,-500.9379 750.5243,-494.9379 756.5243,-488.9379 762.5243,-488.9379 762.5243,-488.9379 898.7404,-488.9379 898.7404,-488.9379 904.7404,-488.9379 910.7404,-494.9379 910.7404,-500.9379 910.7404,-500.9379 910.7404,-542.1403 910.7404,-542.1403 910.7404,-548.1403 904.7404,-554.1403 898.7404,-554.1403"/>
<text text-anchor="middle" x="830.6324" y="-539.5391" font-family="Times,serif" font-size="12.00" fill="#cd2626">« Les hommes sont</text>
<text text-anchor="middle" x="830.6324" y="-525.1391" font-family="Times,serif" font-size="12.00" fill="#cd2626">conscients de leurs</text>
<text text-anchor="middle" x="830.6324" y="-510.7391" font-family="Times,serif" font-size="12.00" fill="#cd2626">désirs et ignorants des</text>
<text text-anchor="middle" x="830.6324" y="-496.3391" font-family="Times,serif" font-size="12.00" fill="#cd2626">causes qui les déterminent »</text>
</g>
<!-- c2&#45;&gt;e2 -->
<!-- e3 -->
<g id="node18" class="node">
<title>e3</title>
<path fill="#fafafa" stroke="transparent" d="M895.415,-448.8396C895.415,-448.8396 765.8497,-448.8396 765.8497,-448.8396 759.8497,-448.8396 753.8497,-442.8396 753.8497,-436.8396 753.8497,-436.8396 753.8497,-424.2386 753.8497,-424.2386 753.8497,-418.2386 759.8497,-412.2386 765.8497,-412.2386 765.8497,-412.2386 895.415,-412.2386 895.415,-412.2386 901.415,-412.2386 907.415,-418.2386 907.415,-424.2386 907.415,-424.2386 907.415,-436.8396 907.415,-436.8396 907.415,-442.8396 901.415,-448.8396 895.415,-448.8396"/>
<text text-anchor="middle" x="830.6324" y="-434.1391" font-family="Times,serif" font-size="12.00" fill="#cd2626">La raison des êtres humains</text>
<text text-anchor="middle" x="830.6324" y="-419.7391" font-family="Times,serif" font-size="12.00" fill="#cd2626">≠ l&#39;instinct des animaux</text>
</g>
<!-- c3&#45;&gt;e3 -->
<!-- c4&#45;&gt;c5 -->
<!-- e4 -->
<g id="node19" class="node">
<title>e4</title>
<path fill="#fafafa" stroke="transparent" d="M861.0948,-393.8396C861.0948,-393.8396 800.1699,-393.8396 800.1699,-393.8396 794.1699,-393.8396 788.1699,-387.8396 788.1699,-381.8396 788.1699,-381.8396 788.1699,-369.2386 788.1699,-369.2386 788.1699,-363.2386 794.1699,-357.2386 800.1699,-357.2386 800.1699,-357.2386 861.0948,-357.2386 861.0948,-357.2386 867.0948,-357.2386 873.0948,-363.2386 873.0948,-369.2386 873.0948,-369.2386 873.0948,-381.8396 873.0948,-381.8396 873.0948,-387.8396 867.0948,-393.8396 861.0948,-393.8396"/>
<text text-anchor="middle" x="830.6324" y="-379.1391" font-family="Times,serif" font-size="12.00" fill="#cd2626">La mécanique</text>
<text text-anchor="middle" x="830.6324" y="-364.7391" font-family="Times,serif" font-size="12.00" fill="#cd2626">de la décision</text>
</g>
<!-- c4&#45;&gt;e4 -->
<!-- e5 -->
<g id="node20" class="node">
<title>e5</title>
<path fill="#fafafa" stroke="transparent" d="M886.2405,-306.2395C886.2405,-306.2395 775.0242,-306.2395 775.0242,-306.2395 769.0242,-306.2395 763.0242,-300.2395 763.0242,-294.2395 763.0242,-294.2395 763.0242,-266.8387 763.0242,-266.8387 763.0242,-260.8387 769.0242,-254.8387 775.0242,-254.8387 775.0242,-254.8387 886.2405,-254.8387 886.2405,-254.8387 892.2405,-254.8387 898.2405,-260.8387 898.2405,-266.8387 898.2405,-266.8387 898.2405,-294.2395 898.2405,-294.2395 898.2405,-300.2395 892.2405,-306.2395 886.2405,-306.2395"/>
<text text-anchor="middle" x="830.6324" y="-291.3391" font-family="Times,serif" font-size="12.00" fill="#cd2626">La responsabilité fondée</text>
<text text-anchor="middle" x="830.6324" y="-276.9391" font-family="Times,serif" font-size="12.00" fill="#cd2626">sur la possibilité du</text>
<text text-anchor="middle" x="830.6324" y="-262.5391" font-family="Times,serif" font-size="12.00" fill="#cd2626">choix d&#39;agir autrement</text>
</g>
<!-- c5&#45;&gt;e5 -->
<!-- c6&#45;&gt;c7 -->
<!-- e6 -->
<g id="node21" class="node">
<title>e6</title>
<path fill="#fafafa" stroke="transparent" d="M895.4018,-241.2395C895.4018,-241.2395 765.8629,-241.2395 765.8629,-241.2395 759.8629,-241.2395 753.8629,-235.2395 753.8629,-229.2395 753.8629,-229.2395 753.8629,-201.8387 753.8629,-201.8387 753.8629,-195.8387 759.8629,-189.8387 765.8629,-189.8387 765.8629,-189.8387 895.4018,-189.8387 895.4018,-189.8387 901.4018,-189.8387 907.4018,-195.8387 907.4018,-201.8387 907.4018,-201.8387 907.4018,-229.2395 907.4018,-229.2395 907.4018,-235.2395 901.4018,-241.2395 895.4018,-241.2395"/>
<text text-anchor="middle" x="830.6324" y="-226.3391" font-family="Times,serif" font-size="12.00" fill="#cd2626">La responsabilité fondée sur</text>
<text text-anchor="middle" x="830.6324" y="-211.9391" font-family="Times,serif" font-size="12.00" fill="#cd2626">l&#39;ancrage de l&#39;action dans</text>
<text text-anchor="middle" x="830.6324" y="-197.5391" font-family="Times,serif" font-size="12.00" fill="#cd2626">le caractère de l&#39;individu</text>
</g>
<!-- c6&#45;&gt;e6 -->
<!-- e7 -->
<g id="node22" class="node">
<title>e7</title>
<path fill="#fafafa" stroke="transparent" d="M888.2692,-148.5391C888.2692,-148.5391 772.9955,-148.5391 772.9955,-148.5391 766.9955,-148.5391 760.9955,-142.5391 760.9955,-136.5391 760.9955,-136.5391 760.9955,-66.5391 760.9955,-66.5391 760.9955,-60.5391 766.9955,-54.5391 772.9955,-54.5391 772.9955,-54.5391 888.2692,-54.5391 888.2692,-54.5391 894.2692,-54.5391 900.2692,-60.5391 900.2692,-66.5391 900.2692,-66.5391 900.2692,-136.5391 900.2692,-136.5391 900.2692,-142.5391 894.2692,-148.5391 888.2692,-148.5391"/>
<text text-anchor="start" x="769.064" y="-134.7391" font-family="Times,serif" font-size="12.00" fill="#cd2626">Déterminisme biologique</text>
<text text-anchor="start" x="785.9339" y="-124.5391" font-family="Times,serif" font-size="10.00" fill="#cd2626">(génétique, neuronal),</text>
<text text-anchor="start" x="770.402" y="-112.7391" font-family="Times,serif" font-size="12.00" fill="#cd2626">Déterminisme psychique</text>
<text text-anchor="start" x="787.0389" y="-102.5391" font-family="Times,serif" font-size="10.00" fill="#cd2626">(inconscient freudien,</text>
<text text-anchor="start" x="788.1439" y="-92.5391" font-family="Times,serif" font-size="10.00" fill="#cd2626">inconscient cognitif),</text>
<text text-anchor="start" x="779.2346" y="-80.7391" font-family="Times,serif" font-size="12.00" fill="#cd2626">Déterminisme social </text>
<text text-anchor="start" x="783.7049" y="-70.5391" font-family="Times,serif" font-size="10.00" fill="#cd2626">(la conception marxiste</text>
<text text-anchor="start" x="790.0959" y="-60.5391" font-family="Times,serif" font-size="10.00" fill="#cd2626">des classes sociales)</text>
</g>
<!-- c7&#45;&gt;e7 -->
<!-- e8 -->
<g id="node23" class="node">
<title>e8</title>
<path fill="#fafafa" stroke="transparent" d="M860.9382,-40.8396C860.9382,-40.8396 800.3265,-40.8396 800.3265,-40.8396 794.3265,-40.8396 788.3265,-34.8396 788.3265,-28.8396 788.3265,-28.8396 788.3265,-16.2386 788.3265,-16.2386 788.3265,-10.2386 794.3265,-4.2386 800.3265,-4.2386 800.3265,-4.2386 860.9382,-4.2386 860.9382,-4.2386 866.9382,-4.2386 872.9382,-10.2386 872.9382,-16.2386 872.9382,-16.2386 872.9382,-28.8396 872.9382,-28.8396 872.9382,-34.8396 866.9382,-40.8396 860.9382,-40.8396"/>
<text text-anchor="middle" x="830.6324" y="-26.1391" font-family="Times,serif" font-size="12.00" fill="#cd2626">Déterminisme</text>
<text text-anchor="middle" x="830.6324" y="-11.7391" font-family="Times,serif" font-size="12.00" fill="#cd2626">≠ fatalisme</text>
</g>
<!-- c8&#45;&gt;e8 -->
</g>
</svg>
