<?xml version="1.0" encoding="UTF-8" standalone="no"?>
<!DOCTYPE svg PUBLIC "-//W3C//DTD SVG 1.1//EN"
 "http://www.w3.org/Graphics/SVG/1.1/DTD/svg11.dtd">
<!-- Generated by graphviz version 2.40.1 (20161225.0304)
 -->
<!-- Title: G Pages: 1 -->
<svg width="675pt" height="474pt"
 viewBox="0.00 0.00 674.90 474.39" xmlns="http://www.w3.org/2000/svg" xmlns:xlink="http://www.w3.org/1999/xlink">
<g id="graph0" class="graph" transform="scale(1 1) rotate(0) translate(21.6 452.7862)">
<title>G</title>
<polygon fill="#fafafa" stroke="transparent" points="-21.6,21.6 -21.6,-452.7862 653.3,-452.7862 653.3,21.6 -21.6,21.6"/>
<!-- a1 -->
<g id="node1" class="node">
<title>a1</title>
<ellipse fill="#050505" stroke="#000000" cx="109.5567" cy="-194.3862" rx="109.6135" ry="51.4548"/>
<text text-anchor="middle" x="109.5567" y="-210.5862" font-family="Times,serif" font-size="18.00" fill="#ffffff">Peut&#45;on définir</text>
<text text-anchor="middle" x="109.5567" y="-188.9862" font-family="Times,serif" font-size="18.00" fill="#ffffff">ce qui fait la valeur</text>
<text text-anchor="middle" x="109.5567" y="-167.3862" font-family="Times,serif" font-size="18.00" fill="#ffffff">d&#39;une œuvre d&#39;art ?</text>
</g>
<!-- b1 -->
<g id="node2" class="node">
<title>b1</title>
<ellipse fill="#8b0000" stroke="#000000" cx="366.1376" cy="-342.3862" rx="81.0847" ry="46.2727"/>
<text text-anchor="middle" x="366.1376" y="-356.7862" font-family="Times,serif" font-size="16.00" fill="#ffffff">L&#39;artiste</text>
<text text-anchor="middle" x="366.1376" y="-337.5862" font-family="Times,serif" font-size="16.00" fill="#ffffff">n&#39;obéit&#45;il à</text>
<text text-anchor="middle" x="366.1376" y="-318.3862" font-family="Times,serif" font-size="16.00" fill="#ffffff">aucune règle ?</text>
</g>
<!-- a1&#45;&gt;b1 -->
<g id="edge1" class="edge">
<title>a1&#45;&gt;b1:w</title>
<path fill="none" stroke="#000000" d="M140.235,-244.0798C169.3353,-284.724 217.1503,-336.3734 274.9987,-341.901"/>
<polygon fill="#000000" stroke="#000000" points="274.9817,-345.4041 285.1376,-342.3862 275.3164,-338.4121 274.9817,-345.4041"/>
<text text-anchor="start" x="249.774" y="-342.5862" font-family="Times,serif" font-size="14.00" fill="#006400">I</text>
</g>
<!-- b2 -->
<g id="node3" class="node">
<title>b2</title>
<ellipse fill="#8b0000" stroke="#000000" cx="366.1376" cy="-194.3862" rx="74.3907" ry="46.2727"/>
<text text-anchor="middle" x="366.1376" y="-208.7862" font-family="Times,serif" font-size="16.00" fill="#ffffff">Qu&#39;est&#45;ce que</text>
<text text-anchor="middle" x="366.1376" y="-189.5862" font-family="Times,serif" font-size="16.00" fill="#ffffff">l&#39;art nous</text>
<text text-anchor="middle" x="366.1376" y="-170.3862" font-family="Times,serif" font-size="16.00" fill="#ffffff">apporte ?</text>
</g>
<!-- a1&#45;&gt;b2 -->
<g id="edge2" class="edge">
<title>a1&#45;&gt;b2:w</title>
<path fill="none" stroke="#000000" d="M219.5018,-194.3862C239.718,-194.3862 260.8138,-194.3862 280.9954,-194.3862"/>
<polygon fill="#000000" stroke="#000000" points="281.1376,-197.8863 291.1376,-194.3862 281.1376,-190.8863 281.1376,-197.8863"/>
<text text-anchor="start" x="247.4437" y="-199.5862" font-family="Times,serif" font-size="14.00" fill="#006400">II</text>
</g>
<!-- b3 -->
<g id="node4" class="node">
<title>b3</title>
<ellipse fill="#8b0000" stroke="#000000" cx="366.1376" cy="-46.3862" rx="58.5142" ry="46.2727"/>
<text text-anchor="middle" x="366.1376" y="-60.7862" font-family="Times,serif" font-size="16.00" fill="#ffffff">Les goûts</text>
<text text-anchor="middle" x="366.1376" y="-41.5862" font-family="Times,serif" font-size="16.00" fill="#ffffff">sont&#45;ils</text>
<text text-anchor="middle" x="366.1376" y="-22.3862" font-family="Times,serif" font-size="16.00" fill="#ffffff">relatifs ?</text>
</g>
<!-- a1&#45;&gt;b3 -->
<g id="edge3" class="edge">
<title>a1&#45;&gt;b3:w</title>
<path fill="none" stroke="#000000" d="M144.8197,-145.5153C178.5985,-104.5953 233.681,-52.0424 296.9201,-46.8106"/>
<polygon fill="#000000" stroke="#000000" points="297.2915,-50.2982 307.1376,-46.3862 297.0009,-43.3043 297.2915,-50.2982"/>
<text text-anchor="start" x="245.1134" y="-65.5862" font-family="Times,serif" font-size="14.00" fill="#006400">III</text>
</g>
<!-- b1&#45;&gt;b2 -->
<!-- c1 -->
<g id="node5" class="node">
<title>c1</title>
<polygon fill="#ffffff" stroke="#7f7f7f" points="631.4608,-430.9874 500.4191,-430.9874 500.4191,-365.785 631.4608,-365.785 631.4608,-430.9874"/>
<text text-anchor="middle" x="565.94" y="-412.7862" font-family="Times,serif" font-size="16.00" fill="#000000">L&#39;esthétique</text>
<text text-anchor="middle" x="565.94" y="-393.5862" font-family="Times,serif" font-size="16.00" fill="#000000">classique du Beau</text>
<text text-anchor="middle" x="565.94" y="-374.3862" font-family="Times,serif" font-size="16.00" fill="#000000">(Pythagore)</text>
</g>
<!-- b1&#45;&gt;c1 -->
<g id="edge6" class="edge">
<title>b1&#45;&gt;c1</title>
<path fill="none" stroke="#000000" d="M439.119,-362.8412C455.7996,-367.5164 473.5622,-372.4949 490.3498,-377.2"/>
<polygon fill="#000000" stroke="#000000" points="489.5322,-380.6057 500.1058,-379.9344 491.4214,-373.8654 489.5322,-380.6057"/>
</g>
<!-- c2 -->
<g id="node6" class="node">
<title>c2</title>
<polygon fill="#ffffff" stroke="#7f7f7f" points="614.512,-350.9874 517.3679,-350.9874 517.3679,-285.785 614.512,-285.785 614.512,-350.9874"/>
<text text-anchor="middle" x="565.94" y="-332.7862" font-family="Times,serif" font-size="16.00" fill="#000000">L&#39;esthétique</text>
<text text-anchor="middle" x="565.94" y="-313.5862" font-family="Times,serif" font-size="16.00" fill="#000000">du génie</text>
<text text-anchor="middle" x="565.94" y="-294.3862" font-family="Times,serif" font-size="16.00" fill="#000000">(Kant)</text>
</g>
<!-- b1&#45;&gt;c2 -->
<g id="edge7" class="edge">
<title>b1&#45;&gt;c2</title>
<path fill="none" stroke="#000000" d="M445.6789,-332.8318C466.1576,-330.3719 487.8282,-327.7689 507.0484,-325.4602"/>
<polygon fill="#000000" stroke="#000000" points="507.6415,-328.9142 517.1527,-324.2465 506.8066,-321.9642 507.6415,-328.9142"/>
</g>
<!-- b2&#45;&gt;b3 -->
<!-- c3 -->
<g id="node7" class="node">
<title>c3</title>
<polygon fill="#ffffff" stroke="#7f7f7f" points="594.3297,-230.3862 537.5502,-230.3862 537.5502,-194.3862 594.3297,-194.3862 594.3297,-230.3862"/>
<text text-anchor="middle" x="565.94" y="-207.5862" font-family="Times,serif" font-size="16.00" fill="#000000">Platon</text>
</g>
<!-- b2&#45;&gt;c3 -->
<g id="edge8" class="edge">
<title>b2&#45;&gt;c3</title>
<path fill="none" stroke="#000000" d="M439.969,-201.0376C469.5387,-203.7015 502.3848,-206.6606 527.1217,-208.8891"/>
<polygon fill="#000000" stroke="#000000" points="526.9198,-212.385 537.1935,-209.7965 527.5479,-205.4132 526.9198,-212.385"/>
</g>
<!-- c4 -->
<g id="node8" class="node">
<title>c4</title>
<polygon fill="#ffffff" stroke="#7f7f7f" points="600.7623,-180.3862 531.1176,-180.3862 531.1176,-144.3862 600.7623,-144.3862 600.7623,-180.3862"/>
<text text-anchor="middle" x="565.94" y="-157.5862" font-family="Times,serif" font-size="16.00" fill="#000000">Bergson</text>
</g>
<!-- b2&#45;&gt;c4 -->
<g id="edge9" class="edge">
<title>b2&#45;&gt;c4</title>
<path fill="none" stroke="#000000" d="M438.2708,-182.8335C465.9502,-178.4004 496.7188,-173.4725 521.114,-169.5654"/>
<polygon fill="#000000" stroke="#000000" points="521.8307,-172.9954 531.1513,-167.9579 520.7236,-166.0834 521.8307,-172.9954"/>
</g>
<!-- c5 -->
<g id="node9" class="node">
<title>c5</title>
<polygon fill="#ffffff" stroke="#7f7f7f" points="603.4869,-88.3862 528.393,-88.3862 528.393,-52.3862 603.4869,-52.3862 603.4869,-88.3862"/>
<text text-anchor="middle" x="565.94" y="-65.5862" font-family="Times,serif" font-size="16.00" fill="#000000">Bourdieu</text>
</g>
<!-- b3&#45;&gt;c5 -->
<g id="edge10" class="edge">
<title>b3&#45;&gt;c5</title>
<path fill="none" stroke="#000000" d="M424.4658,-53.3925C454.3184,-56.9784 490.1989,-61.2883 518.3555,-64.6704"/>
<polygon fill="#000000" stroke="#000000" points="518.008,-68.1538 528.3541,-65.8714 518.8429,-61.2037 518.008,-68.1538"/>
</g>
<!-- c6 -->
<g id="node10" class="node">
<title>c6</title>
<polygon fill="#ffffff" stroke="#7f7f7f" points="593.5392,-38.3862 538.3407,-38.3862 538.3407,-2.3862 593.5392,-2.3862 593.5392,-38.3862"/>
<text text-anchor="middle" x="565.94" y="-15.5862" font-family="Times,serif" font-size="16.00" fill="#000000">Hume</text>
</g>
<!-- b3&#45;&gt;c6 -->
<g id="edge11" class="edge">
<title>b3&#45;&gt;c6</title>
<path fill="none" stroke="#000000" d="M424.1971,-38.831C457.6503,-34.4778 498.7436,-29.1304 528.0542,-25.3162"/>
<polygon fill="#000000" stroke="#000000" points="528.819,-28.7463 538.2837,-23.9851 527.9157,-21.8048 528.819,-28.7463"/>
</g>
<!-- c2&#45;&gt;c3 -->
<!-- c4&#45;&gt;c5 -->
</g>
</svg>
