<?xml version="1.0" encoding="UTF-8" standalone="no"?>
<!DOCTYPE svg PUBLIC "-//W3C//DTD SVG 1.1//EN"
 "http://www.w3.org/Graphics/SVG/1.1/DTD/svg11.dtd">
<!-- Generated by graphviz version 2.40.1 (20161225.0304)
 -->
<!-- Title: G Pages: 1 -->
<svg width="987pt" height="618pt"
 viewBox="0.00 0.00 987.33 618.20" xmlns="http://www.w3.org/2000/svg" xmlns:xlink="http://www.w3.org/1999/xlink">
<g id="graph0" class="graph" transform="scale(1 1) rotate(0) translate(21.6 596.6)">
<title>G</title>
<polygon fill="#fafafa" stroke="transparent" points="-21.6,21.6 -21.6,-596.6 965.7266,-596.6 965.7266,21.6 -21.6,21.6"/>
<!-- a1 -->
<g id="node1" class="node">
<title>a1</title>
<ellipse fill="#050505" stroke="#000000" cx="87.6405" cy="-227.4" rx="87.7812" ry="51.4548"/>
<text text-anchor="middle" x="87.6405" y="-243.6" font-family="Times,serif" font-size="18.00" fill="#ffffff">Le libre arbitre</text>
<text text-anchor="middle" x="87.6405" y="-222" font-family="Times,serif" font-size="18.00" fill="#ffffff">est&#45;il une</text>
<text text-anchor="middle" x="87.6405" y="-200.4" font-family="Times,serif" font-size="18.00" fill="#ffffff">illusion ?</text>
</g>
<!-- p1 -->
<g id="node2" class="node">
<title>p1</title>
<path fill="#fafafa" stroke="#006400" d="M319.2233,-394.4C319.2233,-394.4 215.9622,-394.4 215.9622,-394.4 209.9622,-394.4 203.9622,-388.4 203.9622,-382.4 203.9622,-382.4 203.9622,-344.4 203.9622,-344.4 203.9622,-338.4 209.9622,-332.4 215.9622,-332.4 215.9622,-332.4 319.2233,-332.4 319.2233,-332.4 325.2233,-332.4 331.2233,-338.4 331.2233,-344.4 331.2233,-344.4 331.2233,-382.4 331.2233,-382.4 331.2233,-388.4 325.2233,-394.4 319.2233,-394.4"/>
<text text-anchor="middle" x="267.5928" y="-376.9" font-family="Times,serif" font-size="15.00" fill="#006400">I – Les arguments</text>
<text text-anchor="middle" x="267.5928" y="-358.9" font-family="Times,serif" font-size="15.00" fill="#006400">pour le libre</text>
<text text-anchor="middle" x="267.5928" y="-340.9" font-family="Times,serif" font-size="15.00" fill="#006400">arbitre</text>
</g>
<!-- a1&#45;&gt;p1 -->
<g id="edge1" class="edge">
<title>a1&#45;&gt;p1:w</title>
<path fill="none" stroke="#000000" d="M106.6952,-277.655C125.0295,-316.3963 156.8959,-363.4 203.5928,-363.4"/>
</g>
<!-- p2 -->
<g id="node3" class="node">
<title>p2</title>
<path fill="#fafafa" stroke="#006400" d="M321.7168,-122.4C321.7168,-122.4 213.4687,-122.4 213.4687,-122.4 207.4687,-122.4 201.4687,-116.4 201.4687,-110.4 201.4687,-110.4 201.4687,-72.4 201.4687,-72.4 201.4687,-66.4 207.4687,-60.4 213.4687,-60.4 213.4687,-60.4 321.7168,-60.4 321.7168,-60.4 327.7168,-60.4 333.7168,-66.4 333.7168,-72.4 333.7168,-72.4 333.7168,-110.4 333.7168,-110.4 333.7168,-116.4 327.7168,-122.4 321.7168,-122.4"/>
<text text-anchor="middle" x="267.5928" y="-104.9" font-family="Times,serif" font-size="15.00" fill="#006400">II – Les arguments</text>
<text text-anchor="middle" x="267.5928" y="-86.9" font-family="Times,serif" font-size="15.00" fill="#006400">contre le libre</text>
<text text-anchor="middle" x="267.5928" y="-68.9" font-family="Times,serif" font-size="15.00" fill="#006400">arbitre</text>
</g>
<!-- a1&#45;&gt;p2 -->
<g id="edge2" class="edge">
<title>a1&#45;&gt;p2:w</title>
<path fill="none" stroke="#000000" d="M106.3066,-176.7586C124.2064,-138.0919 155.3873,-91.4 201.5928,-91.4"/>
</g>
<!-- p1&#45;&gt;p2 -->
<!-- b1 -->
<g id="node4" class="node">
<title>b1</title>
<ellipse fill="#8b0000" stroke="#000000" cx="502.0794" cy="-500.4" rx="122.0706" ry="46.2727"/>
<text text-anchor="middle" x="502.0794" y="-514.8" font-family="Times,serif" font-size="16.00" fill="#ffffff">L&#39;expérience d&#39;agir par</text>
<text text-anchor="middle" x="502.0794" y="-495.6" font-family="Times,serif" font-size="16.00" fill="#ffffff">soi&#45;même est&#45;elle une</text>
<text text-anchor="middle" x="502.0794" y="-476.4" font-family="Times,serif" font-size="16.00" fill="#ffffff">preuve de notre liberté ?</text>
</g>
<!-- p1&#45;&gt;b1 -->
<g id="edge4" class="edge">
<title>p1&#45;&gt;b1:w</title>
<path fill="none" stroke="#000000" d="M277.5557,-394.4874C291.7116,-432.3029 321.4381,-492.0618 369.8144,-499.608"/>
<polygon fill="#000000" stroke="#000000" points="369.8397,-503.1203 380.0794,-500.4 370.3783,-496.1411 369.8397,-503.1203"/>
</g>
<!-- b2 -->
<g id="node5" class="node">
<title>b2</title>
<ellipse fill="#8b0000" stroke="#000000" cx="502.0794" cy="-366.4" rx="142.3499" ry="46.2727"/>
<text text-anchor="middle" x="502.0794" y="-380.8" font-family="Times,serif" font-size="16.00" fill="#ffffff">Notre capacité d&#39;envisager</text>
<text text-anchor="middle" x="502.0794" y="-361.6" font-family="Times,serif" font-size="16.00" fill="#ffffff">plusieurs possibilités est&#45;elle</text>
<text text-anchor="middle" x="502.0794" y="-342.4" font-family="Times,serif" font-size="16.00" fill="#ffffff">une preuve de notre liberté ?</text>
</g>
<!-- p1&#45;&gt;b2 -->
<g id="edge5" class="edge">
<title>p1&#45;&gt;b2:w</title>
<path fill="none" stroke="#000000" d="M331.2665,-366.0078C337.4498,-366.1604 343.7116,-366.2784 349.8634,-366.3436"/>
<polygon fill="#000000" stroke="#000000" points="350.0602,-369.8446 360.0794,-366.4 350.0989,-362.8447 350.0602,-369.8446"/>
</g>
<!-- b3 -->
<g id="node6" class="node">
<title>b3</title>
<ellipse fill="#8b0000" stroke="#000000" cx="502.0794" cy="-232.4" rx="122.0706" ry="46.2727"/>
<text text-anchor="middle" x="502.0794" y="-246.8" font-family="Times,serif" font-size="16.00" fill="#ffffff">Notre responsabilité</text>
<text text-anchor="middle" x="502.0794" y="-227.6" font-family="Times,serif" font-size="16.00" fill="#ffffff">morale est&#45;elle une</text>
<text text-anchor="middle" x="502.0794" y="-208.4" font-family="Times,serif" font-size="16.00" fill="#ffffff">preuve de notre liberté ?</text>
</g>
<!-- p1&#45;&gt;b3 -->
<g id="edge6" class="edge">
<title>p1&#45;&gt;b3:w</title>
<path fill="none" stroke="#000000" d="M278.4948,-332.3548C293.2664,-296.1888 323.2736,-240.4312 369.8813,-233.1853"/>
<polygon fill="#000000" stroke="#000000" points="370.3777,-236.6576 380.0794,-232.4 369.8401,-229.6782 370.3777,-236.6576"/>
</g>
<!-- b4 -->
<g id="node7" class="node">
<title>b4</title>
<ellipse fill="#8b0000" stroke="#000000" cx="502.0794" cy="-84.4" rx="129.3871" ry="46.2727"/>
<text text-anchor="middle" x="502.0794" y="-98.8" font-family="Times,serif" font-size="16.00" fill="#ffffff">Sommes&#45;nous déterminés</text>
<text text-anchor="middle" x="502.0794" y="-79.6" font-family="Times,serif" font-size="16.00" fill="#ffffff">par des facteurs dont nous</text>
<text text-anchor="middle" x="502.0794" y="-60.4" font-family="Times,serif" font-size="16.00" fill="#ffffff">n&#39;avons pas conscience ?</text>
</g>
<!-- p2&#45;&gt;b4 -->
<g id="edge7" class="edge">
<title>p2&#45;&gt;b4:w</title>
<path fill="none" stroke="#000000" d="M333.8771,-85.6193C343.0841,-85.0923 352.5526,-84.6874 361.7841,-84.5054"/>
<polygon fill="#000000" stroke="#000000" points="362.1158,-88.0023 372.0794,-84.4 362.044,-81.0027 362.1158,-88.0023"/>
</g>
<!-- b1&#45;&gt;b2 -->
<!-- c1 -->
<g id="node8" class="node">
<title>c1</title>
<polygon fill="#ffffff" stroke="#7f7f7f" points="761.3782,-563.4 691.7335,-563.4 691.7335,-527.4 761.3782,-527.4 761.3782,-563.4"/>
<text text-anchor="middle" x="726.5558" y="-540.6" font-family="Times,serif" font-size="16.00" fill="#000000">Bergson</text>
</g>
<!-- b1&#45;&gt;c1 -->
<g id="edge11" class="edge">
<title>b1&#45;&gt;c1</title>
<path fill="none" stroke="#000000" d="M610.0438,-522.0433C635.3141,-527.1091 660.8737,-532.2329 681.5886,-536.3856"/>
<polygon fill="#000000" stroke="#000000" points="681.1555,-539.8683 691.6484,-538.4022 682.5314,-533.0049 681.1555,-539.8683"/>
</g>
<!-- c2 -->
<g id="node9" class="node">
<title>c2</title>
<polygon fill="#ffffff" stroke="#7f7f7f" points="760.1029,-506.4 693.0087,-506.4 693.0087,-470.4 760.1029,-470.4 760.1029,-506.4"/>
<text text-anchor="middle" x="726.5558" y="-483.6" font-family="Times,serif" font-size="16.00" fill="#000000">Spinoza</text>
</g>
<!-- b1&#45;&gt;c2 -->
<g id="edge12" class="edge">
<title>b1&#45;&gt;c2</title>
<path fill="none" stroke="#000000" d="M623.1876,-493.9258C644.4519,-492.7891 665.2889,-491.6752 682.62,-490.7487"/>
<polygon fill="#000000" stroke="#000000" points="683.1316,-494.2265 692.9305,-490.1975 682.7579,-487.2364 683.1316,-494.2265"/>
</g>
<!-- b2&#45;&gt;b3 -->
<!-- c3 -->
<g id="node10" class="node">
<title>c3</title>
<polygon fill="#ffffff" stroke="#7f7f7f" points="761.3798,-428.8017 691.7319,-428.8017 691.7319,-381.9983 761.3798,-381.9983 761.3798,-428.8017"/>
<text text-anchor="middle" x="726.5558" y="-410.2" font-family="Times,serif" font-size="16.00" fill="#000000">Thomas</text>
<text text-anchor="middle" x="726.5558" y="-391" font-family="Times,serif" font-size="16.00" fill="#000000">d&#39;Aquin</text>
</g>
<!-- b2&#45;&gt;c3 -->
<g id="edge13" class="edge">
<title>b2&#45;&gt;c3</title>
<path fill="none" stroke="#000000" d="M627.7705,-388.2373C647.0011,-391.5784 665.6972,-394.8266 681.5566,-397.5819"/>
<polygon fill="#000000" stroke="#000000" points="681.0944,-401.054 691.5459,-399.3175 682.2926,-394.1573 681.0944,-401.054"/>
</g>
<!-- c4 -->
<g id="node11" class="node">
<title>c4</title>
<polygon fill="#ffffff" stroke="#7f7f7f" points="770.1343,-368.4 682.9774,-368.4 682.9774,-332.4 770.1343,-332.4 770.1343,-368.4"/>
<text text-anchor="middle" x="726.5558" y="-345.6" font-family="Times,serif" font-size="16.00" fill="#000000">D&#39;Holbach</text>
</g>
<!-- b2&#45;&gt;c4 -->
<g id="edge14" class="edge">
<title>b2&#45;&gt;c4</title>
<path fill="none" stroke="#000000" d="M641.0505,-356.4946C651.9846,-355.7152 662.5592,-354.9615 672.3257,-354.2654"/>
<polygon fill="#000000" stroke="#000000" points="672.8592,-357.7363 682.5851,-353.5341 672.3615,-350.754 672.8592,-357.7363"/>
</g>
<!-- b3&#45;&gt;b4 -->
<!-- c5 -->
<g id="node12" class="node">
<title>c5</title>
<polygon fill="#ffffff" stroke="#7f7f7f" points="761.3798,-290.8017 691.7319,-290.8017 691.7319,-243.9983 761.3798,-243.9983 761.3798,-290.8017"/>
<text text-anchor="middle" x="726.5558" y="-272.2" font-family="Times,serif" font-size="16.00" fill="#000000">Thomas</text>
<text text-anchor="middle" x="726.5558" y="-253" font-family="Times,serif" font-size="16.00" fill="#000000">d&#39;Aquin</text>
</g>
<!-- b3&#45;&gt;c5 -->
<g id="edge15" class="edge">
<title>b3&#45;&gt;c5</title>
<path fill="none" stroke="#000000" d="M615.3041,-250.0538C638.9487,-253.7404 662.535,-257.418 681.8652,-260.4319"/>
<polygon fill="#000000" stroke="#000000" points="681.4307,-263.9064 691.8506,-261.9888 682.5092,-256.9899 681.4307,-263.9064"/>
</g>
<!-- c6 -->
<g id="node13" class="node">
<title>c6</title>
<polygon fill="#ffffff" stroke="#7f7f7f" points="754.1551,-225.4 698.9565,-225.4 698.9565,-189.4 754.1551,-189.4 754.1551,-225.4"/>
<text text-anchor="middle" x="726.5558" y="-202.6" font-family="Times,serif" font-size="16.00" fill="#000000">Hume</text>
</g>
<!-- b3&#45;&gt;c6 -->
<g id="edge16" class="edge">
<title>b3&#45;&gt;c6</title>
<path fill="none" stroke="#000000" d="M619.2485,-219.3508C644.3631,-216.5538 669.1479,-213.7935 688.5599,-211.6316"/>
<polygon fill="#000000" stroke="#000000" points="689.2085,-215.0811 698.7596,-210.4957 688.4337,-208.1241 689.2085,-215.0811"/>
</g>
<!-- c7 -->
<g id="node14" class="node">
<title>c7</title>
<polygon fill="#ffffff" stroke="#7f7f7f" points="782.6597,-134.0012 670.4519,-134.0012 670.4519,-68.7988 782.6597,-68.7988 782.6597,-134.0012"/>
<text text-anchor="middle" x="726.5558" y="-115.8" font-family="Times,serif" font-size="16.00" fill="#000000">Les différentes</text>
<text text-anchor="middle" x="726.5558" y="-96.6" font-family="Times,serif" font-size="16.00" fill="#000000">formes de</text>
<text text-anchor="middle" x="726.5558" y="-77.4" font-family="Times,serif" font-size="16.00" fill="#000000">déterminisme</text>
</g>
<!-- b4&#45;&gt;c7 -->
<g id="edge17" class="edge">
<title>b4&#45;&gt;c7</title>
<path fill="none" stroke="#000000" d="M628.7502,-93.993C639.5263,-94.8091 650.122,-95.6115 660.1309,-96.3695"/>
<polygon fill="#000000" stroke="#000000" points="660.096,-99.8768 670.3318,-97.1421 660.6247,-92.8968 660.096,-99.8768"/>
</g>
<!-- c8 -->
<g id="node15" class="node">
<title>c8</title>
<polygon fill="#ffffff" stroke="#7f7f7f" points="779.7124,-49.8017 673.3993,-49.8017 673.3993,-2.9983 779.7124,-2.9983 779.7124,-49.8017"/>
<text text-anchor="middle" x="726.5558" y="-31.2" font-family="Times,serif" font-size="16.00" fill="#000000">Les limites du</text>
<text text-anchor="middle" x="726.5558" y="-12" font-family="Times,serif" font-size="16.00" fill="#000000">déterminisme</text>
</g>
<!-- b4&#45;&gt;c8 -->
<g id="edge18" class="edge">
<title>b4&#45;&gt;c8</title>
<path fill="none" stroke="#000000" d="M607.0879,-57.268C626.2605,-52.3142 645.7155,-47.2874 663.2028,-42.7691"/>
<polygon fill="#000000" stroke="#000000" points="664.4482,-46.0623 673.2547,-40.1719 662.697,-39.2849 664.4482,-46.0623"/>
</g>
<!-- e1 -->
<g id="node16" class="node">
<title>e1</title>
<path fill="#fafafa" stroke="transparent" d="M911.1446,-575.1004C911.1446,-575.1004 823.8395,-575.1004 823.8395,-575.1004 817.8395,-575.1004 811.8395,-569.1004 811.8395,-563.1004 811.8395,-563.1004 811.8395,-535.6996 811.8395,-535.6996 811.8395,-529.6996 817.8395,-523.6996 823.8395,-523.6996 823.8395,-523.6996 911.1446,-523.6996 911.1446,-523.6996 917.1446,-523.6996 923.1446,-529.6996 923.1446,-535.6996 923.1446,-535.6996 923.1446,-563.1004 923.1446,-563.1004 923.1446,-569.1004 917.1446,-575.1004 911.1446,-575.1004"/>
<text text-anchor="middle" x="867.492" y="-560.2" font-family="Times,serif" font-size="12.00" fill="#cd2626">« Agir librement,</text>
<text text-anchor="middle" x="867.492" y="-545.8" font-family="Times,serif" font-size="12.00" fill="#cd2626">c’est reprendre</text>
<text text-anchor="middle" x="867.492" y="-531.4" font-family="Times,serif" font-size="12.00" fill="#cd2626">possession de soi »</text>
</g>
<!-- c1&#45;&gt;e1 -->
<!-- c2&#45;&gt;c3 -->
<!-- e2 -->
<g id="node17" class="node">
<title>e2</title>
<path fill="#fafafa" stroke="transparent" d="M901.3082,-510.1004C901.3082,-510.1004 833.6759,-510.1004 833.6759,-510.1004 827.6759,-510.1004 821.6759,-504.1004 821.6759,-498.1004 821.6759,-498.1004 821.6759,-470.6996 821.6759,-470.6996 821.6759,-464.6996 827.6759,-458.6996 833.6759,-458.6996 833.6759,-458.6996 901.3082,-458.6996 901.3082,-458.6996 907.3082,-458.6996 913.3082,-464.6996 913.3082,-470.6996 913.3082,-470.6996 913.3082,-498.1004 913.3082,-498.1004 913.3082,-504.1004 907.3082,-510.1004 901.3082,-510.1004"/>
<text text-anchor="middle" x="867.492" y="-495.2" font-family="Times,serif" font-size="12.00" fill="#cd2626">Ignorance des</text>
<text text-anchor="middle" x="867.492" y="-480.8" font-family="Times,serif" font-size="12.00" fill="#cd2626">causes qui nous</text>
<text text-anchor="middle" x="867.492" y="-466.4" font-family="Times,serif" font-size="12.00" fill="#cd2626">déterminent</text>
</g>
<!-- c2&#45;&gt;e2 -->
<!-- e3 -->
<g id="node18" class="node">
<title>e3</title>
<path fill="#fafafa" stroke="transparent" d="M890.6552,-423.7005C890.6552,-423.7005 844.3288,-423.7005 844.3288,-423.7005 838.3288,-423.7005 832.3288,-417.7005 832.3288,-411.7005 832.3288,-411.7005 832.3288,-399.0995 832.3288,-399.0995 832.3288,-393.0995 838.3288,-387.0995 844.3288,-387.0995 844.3288,-387.0995 890.6552,-387.0995 890.6552,-387.0995 896.6552,-387.0995 902.6552,-393.0995 902.6552,-399.0995 902.6552,-399.0995 902.6552,-411.7005 902.6552,-411.7005 902.6552,-417.7005 896.6552,-423.7005 890.6552,-423.7005"/>
<text text-anchor="middle" x="867.492" y="-409" font-family="Times,serif" font-size="12.00" fill="#cd2626">La raison</text>
<text text-anchor="middle" x="867.492" y="-394.6" font-family="Times,serif" font-size="12.00" fill="#cd2626">≠ l&#39;instinct</text>
</g>
<!-- c3&#45;&gt;e3 -->
<!-- c4&#45;&gt;c5 -->
<!-- e4 -->
<g id="node19" class="node">
<title>e4</title>
<path fill="#fafafa" stroke="transparent" d="M897.9545,-368.7005C897.9545,-368.7005 837.0296,-368.7005 837.0296,-368.7005 831.0296,-368.7005 825.0296,-362.7005 825.0296,-356.7005 825.0296,-356.7005 825.0296,-344.0995 825.0296,-344.0995 825.0296,-338.0995 831.0296,-332.0995 837.0296,-332.0995 837.0296,-332.0995 897.9545,-332.0995 897.9545,-332.0995 903.9545,-332.0995 909.9545,-338.0995 909.9545,-344.0995 909.9545,-344.0995 909.9545,-356.7005 909.9545,-356.7005 909.9545,-362.7005 903.9545,-368.7005 897.9545,-368.7005"/>
<text text-anchor="middle" x="867.492" y="-354" font-family="Times,serif" font-size="12.00" fill="#cd2626">La mécanique</text>
<text text-anchor="middle" x="867.492" y="-339.6" font-family="Times,serif" font-size="12.00" fill="#cd2626">de la décision</text>
</g>
<!-- c4&#45;&gt;e4 -->
<!-- e5 -->
<g id="node20" class="node">
<title>e5</title>
<path fill="#fafafa" stroke="transparent" d="M923.1002,-296.1004C923.1002,-296.1004 811.8839,-296.1004 811.8839,-296.1004 805.8839,-296.1004 799.8839,-290.1004 799.8839,-284.1004 799.8839,-284.1004 799.8839,-256.6996 799.8839,-256.6996 799.8839,-250.6996 805.8839,-244.6996 811.8839,-244.6996 811.8839,-244.6996 923.1002,-244.6996 923.1002,-244.6996 929.1002,-244.6996 935.1002,-250.6996 935.1002,-256.6996 935.1002,-256.6996 935.1002,-284.1004 935.1002,-284.1004 935.1002,-290.1004 929.1002,-296.1004 923.1002,-296.1004"/>
<text text-anchor="middle" x="867.492" y="-281.2" font-family="Times,serif" font-size="12.00" fill="#cd2626">La responsabilité fondée</text>
<text text-anchor="middle" x="867.492" y="-266.8" font-family="Times,serif" font-size="12.00" fill="#cd2626">sur la possibilité du</text>
<text text-anchor="middle" x="867.492" y="-252.4" font-family="Times,serif" font-size="12.00" fill="#cd2626">choix d&#39;agir autrement</text>
</g>
<!-- c5&#45;&gt;e5 -->
<!-- c6&#45;&gt;c7 -->
<!-- e6 -->
<g id="node21" class="node">
<title>e6</title>
<path fill="#fafafa" stroke="transparent" d="M932.2615,-231.1004C932.2615,-231.1004 802.7226,-231.1004 802.7226,-231.1004 796.7226,-231.1004 790.7226,-225.1004 790.7226,-219.1004 790.7226,-219.1004 790.7226,-191.6996 790.7226,-191.6996 790.7226,-185.6996 796.7226,-179.6996 802.7226,-179.6996 802.7226,-179.6996 932.2615,-179.6996 932.2615,-179.6996 938.2615,-179.6996 944.2615,-185.6996 944.2615,-191.6996 944.2615,-191.6996 944.2615,-219.1004 944.2615,-219.1004 944.2615,-225.1004 938.2615,-231.1004 932.2615,-231.1004"/>
<text text-anchor="middle" x="867.492" y="-216.2" font-family="Times,serif" font-size="12.00" fill="#cd2626">La responsabilité fondée sur</text>
<text text-anchor="middle" x="867.492" y="-201.8" font-family="Times,serif" font-size="12.00" fill="#cd2626">l&#39;ancrage de l&#39;action dans</text>
<text text-anchor="middle" x="867.492" y="-187.4" font-family="Times,serif" font-size="12.00" fill="#cd2626">le caractère de l&#39;individu</text>
</g>
<!-- c6&#45;&gt;e6 -->
<!-- e7 -->
<g id="node22" class="node">
<title>e7</title>
<path fill="#fafafa" stroke="transparent" d="M928.6081,-159.7002C928.6081,-159.7002 806.376,-159.7002 806.376,-159.7002 800.376,-159.7002 794.376,-153.7002 794.376,-147.7002 794.376,-147.7002 794.376,-63.0998 794.376,-63.0998 794.376,-57.0998 800.376,-51.0998 806.376,-51.0998 806.376,-51.0998 928.6081,-51.0998 928.6081,-51.0998 934.6081,-51.0998 940.6081,-57.0998 940.6081,-63.0998 940.6081,-63.0998 940.6081,-147.7002 940.6081,-147.7002 940.6081,-153.7002 934.6081,-159.7002 928.6081,-159.7002"/>
<text text-anchor="middle" x="867.492" y="-145" font-family="Times,serif" font-size="12.00" fill="#cd2626">Déterminisme biologique</text>
<text text-anchor="middle" x="867.492" y="-130.6" font-family="Times,serif" font-size="12.00" fill="#cd2626">(génétique, neuronal),</text>
<text text-anchor="middle" x="867.492" y="-116.2" font-family="Times,serif" font-size="12.00" fill="#cd2626">déterminisme psychique</text>
<text text-anchor="middle" x="867.492" y="-101.8" font-family="Times,serif" font-size="12.00" fill="#cd2626">(inconscient freudien,</text>
<text text-anchor="middle" x="867.492" y="-87.4" font-family="Times,serif" font-size="12.00" fill="#cd2626">inconscient cognitif),</text>
<text text-anchor="middle" x="867.492" y="-73" font-family="Times,serif" font-size="12.00" fill="#cd2626">déterminisme social (Marx</text>
<text text-anchor="middle" x="867.492" y="-58.6" font-family="Times,serif" font-size="12.00" fill="#cd2626">sur les classes sociales)</text>
</g>
<!-- c7&#45;&gt;e7 -->
<!-- e8 -->
<g id="node23" class="node">
<title>e8</title>
<path fill="#fafafa" stroke="transparent" d="M897.7978,-36.7005C897.7978,-36.7005 837.1862,-36.7005 837.1862,-36.7005 831.1862,-36.7005 825.1862,-30.7005 825.1862,-24.7005 825.1862,-24.7005 825.1862,-12.0995 825.1862,-12.0995 825.1862,-6.0995 831.1862,-.0995 837.1862,-.0995 837.1862,-.0995 897.7978,-.0995 897.7978,-.0995 903.7978,-.0995 909.7978,-6.0995 909.7978,-12.0995 909.7978,-12.0995 909.7978,-24.7005 909.7978,-24.7005 909.7978,-30.7005 903.7978,-36.7005 897.7978,-36.7005"/>
<text text-anchor="middle" x="867.492" y="-22" font-family="Times,serif" font-size="12.00" fill="#cd2626">Déterminisme</text>
<text text-anchor="middle" x="867.492" y="-7.6" font-family="Times,serif" font-size="12.00" fill="#cd2626">≠ fatalisme</text>
</g>
<!-- c8&#45;&gt;e8 -->
</g>
</svg>
