<?xml version="1.0" encoding="UTF-8" standalone="no"?>
<!DOCTYPE svg PUBLIC "-//W3C//DTD SVG 1.1//EN"
 "http://www.w3.org/Graphics/SVG/1.1/DTD/svg11.dtd">
<!-- Generated by graphviz version 2.40.1 (20161225.0304)
 -->
<!-- Title: G Pages: 1 -->
<svg width="768pt" height="597pt"
 viewBox="0.00 0.00 767.54 596.59" xmlns="http://www.w3.org/2000/svg" xmlns:xlink="http://www.w3.org/1999/xlink">
<g id="graph0" class="graph" transform="scale(1 1) rotate(0) translate(21.6 574.9862)">
<title>G</title>
<polygon fill="#fafafa" stroke="transparent" points="-21.6,21.6 -21.6,-574.9862 745.9444,-574.9862 745.9444,21.6 -21.6,21.6"/>
<!-- a1 -->
<g id="node1" class="node">
<title>a1</title>
<ellipse fill="#050505" stroke="#000000" cx="115.9525" cy="-274.3862" rx="115.905" ry="51.4548"/>
<text text-anchor="middle" x="115.9525" y="-290.5862" font-family="Times,serif" font-size="18.00" fill="#ffffff">Le langage n&#39;est&#45;il</text>
<text text-anchor="middle" x="115.9525" y="-268.9862" font-family="Times,serif" font-size="18.00" fill="#ffffff">qu&#39;un simple moyen</text>
<text text-anchor="middle" x="115.9525" y="-247.3862" font-family="Times,serif" font-size="18.00" fill="#ffffff">de communication ?</text>
</g>
<!-- b1 -->
<g id="node2" class="node">
<title>b1</title>
<ellipse fill="#8b0000" stroke="#000000" cx="422.4747" cy="-516.3862" rx="101.3528" ry="32.6206"/>
<text text-anchor="middle" x="422.4747" y="-521.1862" font-family="Times,serif" font-size="16.00" fill="#ffffff">Les animaux ont&#45;ils</text>
<text text-anchor="middle" x="422.4747" y="-501.9862" font-family="Times,serif" font-size="16.00" fill="#ffffff">un langage ?</text>
</g>
<!-- a1&#45;&gt;b1 -->
<g id="edge1" class="edge">
<title>a1&#45;&gt;b1:w</title>
<path fill="none" stroke="#000000" d="M133.19,-325.4125C159.8439,-393.9858 217.9663,-508.2421 311.42,-515.9725"/>
<polygon fill="#000000" stroke="#000000" points="311.3392,-519.472 321.4747,-516.3862 311.6271,-512.4779 311.3392,-519.472"/>
<text text-anchor="start" x="262.9583" y="-509.5862" font-family="Times,serif" font-size="14.00" fill="#006400">I</text>
</g>
<!-- b2 -->
<g id="node3" class="node">
<title>b2</title>
<ellipse fill="#8b0000" stroke="#000000" cx="422.4747" cy="-395.3862" rx="101.5545" ry="46.2727"/>
<text text-anchor="middle" x="422.4747" y="-409.7862" font-family="Times,serif" font-size="16.00" fill="#ffffff">Qu&#39;est&#45;ce qui fait</text>
<text text-anchor="middle" x="422.4747" y="-390.5862" font-family="Times,serif" font-size="16.00" fill="#ffffff">le sens d&#39;un énoncé</text>
<text text-anchor="middle" x="422.4747" y="-371.3862" font-family="Times,serif" font-size="16.00" fill="#ffffff">linguistique ?</text>
</g>
<!-- a1&#45;&gt;b2 -->
<g id="edge2" class="edge">
<title>a1&#45;&gt;b2:w</title>
<path fill="none" stroke="#000000" d="M162.6281,-321.5144C199.1983,-353.5649 253.2719,-390.8856 310.194,-395.0105"/>
<polygon fill="#000000" stroke="#000000" points="310.3536,-398.5186 320.4747,-395.3862 310.6092,-391.5233 310.3536,-398.5186"/>
<text text-anchor="start" x="260.628" y="-391.5862" font-family="Times,serif" font-size="14.00" fill="#006400">II</text>
</g>
<!-- b3 -->
<g id="node4" class="node">
<title>b3</title>
<ellipse fill="#8b0000" stroke="#000000" cx="422.4747" cy="-274.3862" rx="105.6048" ry="32.6206"/>
<text text-anchor="middle" x="422.4747" y="-279.1862" font-family="Times,serif" font-size="16.00" fill="#ffffff">Le langage permet&#45;il</text>
<text text-anchor="middle" x="422.4747" y="-259.9862" font-family="Times,serif" font-size="16.00" fill="#ffffff">de tout exprimer ?</text>
</g>
<!-- a1&#45;&gt;b3 -->
<g id="edge3" class="edge">
<title>a1&#45;&gt;b3:w</title>
<path fill="none" stroke="#000000" d="M232.0599,-274.3862C256.3736,-274.3862 282.0465,-274.3862 306.4616,-274.3862"/>
<polygon fill="#000000" stroke="#000000" points="306.4748,-277.8863 316.4747,-274.3862 306.4747,-270.8863 306.4748,-277.8863"/>
<text text-anchor="start" x="258.2977" y="-278.5862" font-family="Times,serif" font-size="14.00" fill="#006400">III</text>
</g>
<!-- b4 -->
<g id="node5" class="node">
<title>b4</title>
<ellipse fill="#8b0000" stroke="#000000" cx="422.4747" cy="-167.3862" rx="123.6054" ry="32.6206"/>
<text text-anchor="middle" x="422.4747" y="-172.1862" font-family="Times,serif" font-size="16.00" fill="#ffffff">La parole est&#45;elle ce</text>
<text text-anchor="middle" x="422.4747" y="-152.9862" font-family="Times,serif" font-size="16.00" fill="#ffffff">qui fait de moi un sujet ?</text>
</g>
<!-- a1&#45;&gt;b4 -->
<g id="edge4" class="edge">
<title>a1&#45;&gt;b4:w</title>
<path fill="none" stroke="#000000" d="M163.9183,-227.4544C196.1596,-200.614 241.2749,-171.5344 288.5543,-167.7906"/>
<polygon fill="#000000" stroke="#000000" points="288.82,-171.2829 298.6722,-167.3862 288.5404,-164.2885 288.82,-171.2829"/>
<text text-anchor="start" x="257.905" y="-178.5862" font-family="Times,serif" font-size="14.00" fill="#006400">IV</text>
</g>
<!-- b5 -->
<g id="node6" class="node">
<title>b5</title>
<ellipse fill="#8b0000" stroke="#000000" cx="422.4747" cy="-46.3862" rx="119.1468" ry="46.2727"/>
<text text-anchor="middle" x="422.4747" y="-60.7862" font-family="Times,serif" font-size="16.00" fill="#ffffff">Sommes&#45;nous</text>
<text text-anchor="middle" x="422.4747" y="-41.5862" font-family="Times,serif" font-size="16.00" fill="#ffffff">prisonniers de la langue</text>
<text text-anchor="middle" x="422.4747" y="-22.3862" font-family="Times,serif" font-size="16.00" fill="#ffffff">que nous parlons ?</text>
</g>
<!-- a1&#45;&gt;b5 -->
<g id="edge5" class="edge">
<title>a1&#45;&gt;b5:w</title>
<path fill="none" stroke="#000000" d="M132.3744,-223.2186C156.5746,-158.5568 208.3591,-54.6739 293.2368,-46.8548"/>
<polygon fill="#000000" stroke="#000000" points="293.6452,-50.3399 303.4747,-46.3862 293.3251,-43.3472 293.6452,-50.3399"/>
<text text-anchor="start" x="260.2353" y="-60.5862" font-family="Times,serif" font-size="14.00" fill="#006400">V</text>
</g>
<!-- b1&#45;&gt;b2 -->
<!-- c1 -->
<g id="node7" class="node">
<title>c1</title>
<polygon fill="#ffffff" stroke="#7f7f7f" points="704.6314,-553.3862 618.9902,-553.3862 618.9902,-517.3862 704.6314,-517.3862 704.6314,-553.3862"/>
<text text-anchor="middle" x="661.8108" y="-530.5862" font-family="Times,serif" font-size="16.00" fill="#000000">Montaigne</text>
</g>
<!-- b1&#45;&gt;c1 -->
<g id="edge10" class="edge">
<title>b1&#45;&gt;c1</title>
<path fill="none" stroke="#000000" d="M520.858,-524.1965C550.8871,-526.5804 582.7638,-529.111 608.5931,-531.1614"/>
<polygon fill="#000000" stroke="#000000" points="608.6585,-534.6776 618.9042,-531.98 609.2126,-527.6995 608.6585,-534.6776"/>
</g>
<!-- c2 -->
<g id="node8" class="node">
<title>c2</title>
<polygon fill="#ffffff" stroke="#7f7f7f" points="705.4037,-510.3862 618.218,-510.3862 618.218,-474.3862 705.4037,-474.3862 705.4037,-510.3862"/>
<text text-anchor="middle" x="661.8108" y="-487.5862" font-family="Times,serif" font-size="16.00" fill="#000000">Benveniste</text>
</g>
<!-- b1&#45;&gt;c2 -->
<g id="edge11" class="edge">
<title>b1&#45;&gt;c2</title>
<path fill="none" stroke="#000000" d="M519.4769,-506.6591C549.6764,-503.6308 581.8749,-500.402 607.9949,-497.7827"/>
<polygon fill="#000000" stroke="#000000" points="608.4556,-501.2542 618.0565,-496.7738 607.7571,-494.2891 608.4556,-501.2542"/>
</g>
<!-- b2&#45;&gt;b3 -->
<!-- c3 -->
<g id="node9" class="node">
<title>c3</title>
<polygon fill="#ffffff" stroke="#7f7f7f" points="707.0095,-446.7879 616.6122,-446.7879 616.6122,-399.9845 707.0095,-399.9845 707.0095,-446.7879"/>
<text text-anchor="middle" x="661.8108" y="-428.1862" font-family="Times,serif" font-size="16.00" fill="#000000">Le modèle</text>
<text text-anchor="middle" x="661.8108" y="-408.9862" font-family="Times,serif" font-size="16.00" fill="#000000">du code</text>
</g>
<!-- b2&#45;&gt;c3 -->
<g id="edge12" class="edge">
<title>b2&#45;&gt;c3</title>
<path fill="none" stroke="#000000" d="M521.2037,-406.9365C550.289,-410.3392 581.0777,-413.9412 606.4059,-416.9044"/>
<polygon fill="#000000" stroke="#000000" points="606.2062,-420.4048 616.5452,-418.0906 607.0196,-413.4522 606.2062,-420.4048"/>
</g>
<!-- c4 -->
<g id="node10" class="node">
<title>c4</title>
<polygon fill="#ffffff" stroke="#7f7f7f" points="716.6121,-393.7879 607.0096,-393.7879 607.0096,-346.9845 716.6121,-346.9845 716.6121,-393.7879"/>
<text text-anchor="middle" x="661.8108" y="-375.1862" font-family="Times,serif" font-size="16.00" fill="#000000">Le modèle de</text>
<text text-anchor="middle" x="661.8108" y="-355.9862" font-family="Times,serif" font-size="16.00" fill="#000000">l&#39;inférence</text>
</g>
<!-- b2&#45;&gt;c4 -->
<g id="edge13" class="edge">
<title>b2&#45;&gt;c4</title>
<path fill="none" stroke="#000000" d="M521.8955,-385.0011C547.2915,-382.3484 573.9405,-379.5648 597.0867,-377.147"/>
<polygon fill="#000000" stroke="#000000" points="597.5346,-380.6194 607.1168,-376.0993 596.8073,-373.6572 597.5346,-380.6194"/>
</g>
<!-- b3&#45;&gt;b4 -->
<!-- c5 -->
<g id="node11" class="node">
<title>c5</title>
<polygon fill="#ffffff" stroke="#7f7f7f" points="696.6332,-319.3862 626.9885,-319.3862 626.9885,-283.3862 696.6332,-283.3862 696.6332,-319.3862"/>
<text text-anchor="middle" x="661.8108" y="-296.5862" font-family="Times,serif" font-size="16.00" fill="#000000">Bergson</text>
</g>
<!-- b3&#45;&gt;c5 -->
<g id="edge14" class="edge">
<title>b3&#45;&gt;c5</title>
<path fill="none" stroke="#000000" d="M521.8955,-285.6021C554.8896,-289.3242 589.9986,-293.2849 616.7936,-296.3077"/>
<polygon fill="#000000" stroke="#000000" points="616.671,-299.816 627.0003,-297.4592 617.4557,-292.8601 616.671,-299.816"/>
</g>
<!-- c6 -->
<g id="node12" class="node">
<title>c6</title>
<polygon fill="#ffffff" stroke="#7f7f7f" points="689.7852,-276.3862 633.8364,-276.3862 633.8364,-240.3862 689.7852,-240.3862 689.7852,-276.3862"/>
<text text-anchor="middle" x="661.8108" y="-253.5862" font-family="Times,serif" font-size="16.00" fill="#000000">Searle</text>
</g>
<!-- b3&#45;&gt;c6 -->
<g id="edge15" class="edge">
<title>b3&#45;&gt;c6</title>
<path fill="none" stroke="#000000" d="M525.7113,-267.4847C560.5585,-265.1551 597.3006,-262.6988 623.8138,-260.9264"/>
<polygon fill="#000000" stroke="#000000" points="624.0588,-264.4179 633.803,-260.2586 623.5918,-257.4335 624.0588,-264.4179"/>
</g>
<!-- b4&#45;&gt;b5 -->
<!-- c7 -->
<g id="node13" class="node">
<title>c7</title>
<polygon fill="#ffffff" stroke="#7f7f7f" points="705.4037,-212.3862 618.218,-212.3862 618.218,-176.3862 705.4037,-176.3862 705.4037,-212.3862"/>
<text text-anchor="middle" x="661.8108" y="-189.5862" font-family="Times,serif" font-size="16.00" fill="#000000">Benveniste</text>
</g>
<!-- b4&#45;&gt;c7 -->
<g id="edge16" class="edge">
<title>b4&#45;&gt;c7</title>
<path fill="none" stroke="#000000" d="M536.5352,-180.2536C561.4706,-183.0666 586.7315,-185.9163 607.9743,-188.3128"/>
<polygon fill="#000000" stroke="#000000" points="607.7315,-191.8075 618.0608,-189.4507 608.5162,-184.8516 607.7315,-191.8075"/>
</g>
<!-- c8 -->
<g id="node14" class="node">
<title>c8</title>
<polygon fill="#ffffff" stroke="#7f7f7f" points="689.8028,-169.3862 633.8188,-169.3862 633.8188,-133.3862 689.8028,-133.3862 689.8028,-169.3862"/>
<text text-anchor="middle" x="661.8108" y="-146.5862" font-family="Times,serif" font-size="16.00" fill="#000000">Butler</text>
</g>
<!-- b4&#45;&gt;c8 -->
<g id="edge17" class="edge">
<title>b4&#45;&gt;c8</title>
<path fill="none" stroke="#000000" d="M542.844,-159.3393C572.0544,-157.3866 601.209,-155.4375 623.346,-153.9576"/>
<polygon fill="#000000" stroke="#000000" points="623.8748,-157.4302 633.619,-153.2709 623.4078,-150.4458 623.8748,-157.4302"/>
</g>
<!-- c9 -->
<g id="node15" class="node">
<title>c9</title>
<polygon fill="#ffffff" stroke="#7f7f7f" points="724.3781,-91.7879 599.2436,-91.7879 599.2436,-44.9845 724.3781,-44.9845 724.3781,-91.7879"/>
<text text-anchor="middle" x="661.8108" y="-73.1862" font-family="Times,serif" font-size="16.00" fill="#000000">Le déterminisme</text>
<text text-anchor="middle" x="661.8108" y="-53.9862" font-family="Times,serif" font-size="16.00" fill="#000000">linguistique</text>
</g>
<!-- b5&#45;&gt;c9 -->
<g id="edge18" class="edge">
<title>b5&#45;&gt;c9</title>
<path fill="none" stroke="#000000" d="M538.6373,-57.064C555.7347,-58.6356 572.9277,-60.216 588.8184,-61.6767"/>
<polygon fill="#000000" stroke="#000000" points="588.7804,-65.1878 599.0588,-62.618 589.4212,-58.2172 588.7804,-65.1878"/>
</g>
<!-- c10 -->
<g id="node16" class="node">
<title>c10</title>
<polygon fill="#ffffff" stroke="#7f7f7f" points="689.0128,-38.3862 634.6089,-38.3862 634.6089,-2.3862 689.0128,-2.3862 689.0128,-38.3862"/>
<text text-anchor="middle" x="661.8108" y="-15.5862" font-family="Times,serif" font-size="16.00" fill="#000000">Hegel</text>
</g>
<!-- b5&#45;&gt;c10 -->
<g id="edge19" class="edge">
<title>b5&#45;&gt;c10</title>
<path fill="none" stroke="#000000" d="M537.2357,-33.9193C568.6545,-30.5061 600.5251,-27.0439 624.1649,-24.4758"/>
<polygon fill="#000000" stroke="#000000" points="624.8526,-27.9218 634.4161,-23.3622 624.0966,-20.9627 624.8526,-27.9218"/>
</g>
<!-- c2&#45;&gt;c3 -->
<!-- c4&#45;&gt;c5 -->
<!-- c6&#45;&gt;c7 -->
<!-- c8&#45;&gt;c9 -->
</g>
</svg>
