<?xml version="1.0" encoding="UTF-8" standalone="no"?>
<!DOCTYPE svg PUBLIC "-//W3C//DTD SVG 1.1//EN"
 "http://www.w3.org/Graphics/SVG/1.1/DTD/svg11.dtd">
<!-- Generated by graphviz version 2.40.1 (20161225.0304)
 -->
<!-- Title: G Pages: 1 -->
<svg width="858pt" height="762pt"
 viewBox="0.00 0.00 857.96 762.20" xmlns="http://www.w3.org/2000/svg" xmlns:xlink="http://www.w3.org/1999/xlink">
<g id="graph0" class="graph" transform="scale(1 1) rotate(0) translate(21.6 740.6)">
<title>G</title>
<polygon fill="#fafafa" stroke="transparent" points="-21.6,21.6 -21.6,-740.6 836.3593,-740.6 836.3593,21.6 -21.6,21.6"/>
<!-- a1 -->
<g id="node1" class="node">
<title>a1</title>
<ellipse fill="#050505" stroke="#000000" cx="100.3824" cy="-332" rx="100.265" ry="36.4089"/>
<text text-anchor="middle" x="100.3824" y="-337.4" font-family="Times,serif" font-size="18.00" fill="#ffffff">Faut&#45;il avoir peur</text>
<text text-anchor="middle" x="100.3824" y="-315.8" font-family="Times,serif" font-size="18.00" fill="#ffffff">de la technique ?</text>
</g>
<!-- b1 -->
<g id="node2" class="node">
<title>b1</title>
<ellipse fill="#8b0000" stroke="#000000" cx="434.3369" cy="-640" rx="134.0968" ry="37.1049"/>
<text text-anchor="middle" x="434.3369" y="-644.8" font-family="Times,serif" font-size="16.00" fill="#ffffff">La technique est&#45;elle le</text>
<text text-anchor="middle" x="434.3369" y="-625.6" font-family="Times,serif" font-size="16.00" fill="#ffffff">propre des êtres humains ?</text>
</g>
<!-- a1&#45;&gt;b1 -->
<g id="edge1" class="edge">
<title>a1&#45;&gt;b1:w</title>
<path fill="none" stroke="#000000" d="M106.2109,-368.2372C121.1639,-447.4283 168.5361,-629.6719 289.0028,-639.5792"/>
<polygon fill="#000000" stroke="#000000" points="289.2027,-643.0901 299.3369,-640 289.4876,-636.0959 289.2027,-643.0901"/>
<text text-anchor="start" x="231.8182" y="-629.2" font-family="Times,serif" font-size="14.00" fill="#006400">I</text>
</g>
<!-- b2 -->
<g id="node3" class="node">
<title>b2</title>
<ellipse fill="#8b0000" stroke="#000000" cx="434.3369" cy="-524" rx="122.9668" ry="37.1049"/>
<text text-anchor="middle" x="434.3369" y="-528.8" font-family="Times,serif" font-size="16.00" fill="#ffffff">La technique permet&#45;elle</text>
<text text-anchor="middle" x="434.3369" y="-509.6" font-family="Times,serif" font-size="16.00" fill="#ffffff">de maîtriser la nature ?</text>
</g>
<!-- a1&#45;&gt;b2 -->
<g id="edge2" class="edge">
<title>a1&#45;&gt;b2:w</title>
<path fill="none" stroke="#000000" d="M118.6662,-367.6638C148.8149,-421.1282 214.3681,-516.5803 301.2031,-523.591"/>
<polygon fill="#000000" stroke="#000000" points="301.2038,-527.0938 311.3369,-524 301.4862,-520.0995 301.2038,-527.0938"/>
<text text-anchor="start" x="229.4879" y="-508.2" font-family="Times,serif" font-size="14.00" fill="#006400">II</text>
</g>
<!-- b3 -->
<g id="node4" class="node">
<title>b3</title>
<ellipse fill="#8b0000" stroke="#000000" cx="434.3369" cy="-408" rx="127.1535" ry="37.1049"/>
<text text-anchor="middle" x="434.3369" y="-412.8" font-family="Times,serif" font-size="16.00" fill="#ffffff">Les machines nous</text>
<text text-anchor="middle" x="434.3369" y="-393.6" font-family="Times,serif" font-size="16.00" fill="#ffffff">libèrent&#45;elles du travail ?</text>
</g>
<!-- a1&#45;&gt;b3 -->
<g id="edge3" class="edge">
<title>a1&#45;&gt;b3:w</title>
<path fill="none" stroke="#000000" d="M152.9095,-362.9121C191.1624,-382.6792 245.1903,-405.0991 297.2919,-407.7415"/>
<polygon fill="#000000" stroke="#000000" points="297.2501,-411.2415 307.3369,-408 297.4302,-404.2438 297.2501,-411.2415"/>
<text text-anchor="start" x="227.1576" y="-403.2" font-family="Times,serif" font-size="14.00" fill="#006400">III</text>
</g>
<!-- b4 -->
<g id="node5" class="node">
<title>b4</title>
<ellipse fill="#8b0000" stroke="#000000" cx="434.3369" cy="-292" rx="154.2376" ry="37.1049"/>
<text text-anchor="middle" x="434.3369" y="-296.8" font-family="Times,serif" font-size="16.00" fill="#ffffff">Vivons&#45;nous sous l&#39;emprise des</text>
<text text-anchor="middle" x="434.3369" y="-277.6" font-family="Times,serif" font-size="16.00" fill="#ffffff">technologies de l&#39;information ?</text>
</g>
<!-- a1&#45;&gt;b4 -->
<g id="edge4" class="edge">
<title>a1&#45;&gt;b4:w</title>
<path fill="none" stroke="#000000" d="M175.3001,-307.6943C204.1776,-300.1362 237.9292,-293.4394 269.9939,-292.2035"/>
<polygon fill="#000000" stroke="#000000" points="270.4077,-295.6962 280.3369,-292 270.2699,-288.6975 270.4077,-295.6962"/>
<text text-anchor="start" x="226.7649" y="-301.2" font-family="Times,serif" font-size="14.00" fill="#006400">IV</text>
</g>
<!-- b5 -->
<g id="node6" class="node">
<title>b5</title>
<ellipse fill="#8b0000" stroke="#000000" cx="434.3369" cy="-176" rx="166.6098" ry="37.1049"/>
<text text-anchor="middle" x="434.3369" y="-180.8" font-family="Times,serif" font-size="16.00" fill="#ffffff">La technologie peut&#45;elle améliorer</text>
<text text-anchor="middle" x="434.3369" y="-161.6" font-family="Times,serif" font-size="16.00" fill="#ffffff">les capacités des êtres humains ?</text>
</g>
<!-- a1&#45;&gt;b5 -->
<g id="edge5" class="edge">
<title>a1&#45;&gt;b5:w</title>
<path fill="none" stroke="#000000" d="M118.4604,-296.2104C143.2899,-252.4028 192.3693,-183.1746 257.3932,-176.5185"/>
<polygon fill="#000000" stroke="#000000" points="257.7239,-180.0062 267.5321,-176 257.3663,-173.0154 257.7239,-180.0062"/>
<text text-anchor="start" x="229.0952" y="-189.2" font-family="Times,serif" font-size="14.00" fill="#006400">V</text>
</g>
<!-- b6 -->
<g id="node7" class="node">
<title>b6</title>
<ellipse fill="#8b0000" stroke="#000000" cx="434.3369" cy="-60" rx="154.6471" ry="37.1049"/>
<text text-anchor="middle" x="434.3369" y="-64.8" font-family="Times,serif" font-size="16.00" fill="#ffffff">Peut&#45;on contrôler le</text>
<text text-anchor="middle" x="434.3369" y="-45.6" font-family="Times,serif" font-size="16.00" fill="#ffffff">développement technologique ?</text>
</g>
<!-- a1&#45;&gt;b6 -->
<g id="edge6" class="edge">
<title>a1&#45;&gt;b6:w</title>
<path fill="none" stroke="#000000" d="M106.7147,-295.5991C121.444,-223.7978 164.9993,-70.0073 269.075,-60.4655"/>
<polygon fill="#000000" stroke="#000000" points="269.5058,-63.9497 279.3369,-60 269.1885,-56.9568 269.5058,-63.9497"/>
<text text-anchor="start" x="226.7649" y="-78.2" font-family="Times,serif" font-size="14.00" fill="#006400">VI</text>
</g>
<!-- b1&#45;&gt;b2 -->
<!-- c1 -->
<g id="node8" class="node">
<title>c1</title>
<polygon fill="#ffffff" stroke="#7f7f7f" points="768.2728,-719 700.6281,-719 700.6281,-683 768.2728,-683 768.2728,-719"/>
<text text-anchor="middle" x="734.4505" y="-696.2" font-family="Times,serif" font-size="16.00" fill="#000000">Bergson</text>
</g>
<!-- b1&#45;&gt;c1 -->
<g id="edge12" class="edge">
<title>b1&#45;&gt;c1</title>
<path fill="none" stroke="#000000" d="M542.6848,-662.0224C593.8544,-672.423 652.0529,-684.2522 690.7822,-692.1242"/>
<polygon fill="#000000" stroke="#000000" points="690.1828,-695.5738 700.6796,-694.1359 691.5772,-688.7141 690.1828,-695.5738"/>
</g>
<!-- c2 -->
<g id="node9" class="node">
<title>c2</title>
<polygon fill="#ffffff" stroke="#7f7f7f" points="814.5685,-675.6011 654.3324,-675.6011 654.3324,-604.3989 814.5685,-604.3989 814.5685,-675.6011"/>
<text text-anchor="middle" x="734.4505" y="-654.4" font-family="Times,serif" font-size="16.00" fill="#000000">Les connaissances</text>
<text text-anchor="middle" x="734.4505" y="-635.2" font-family="Times,serif" font-size="16.00" fill="#000000">contemporaines sur les</text>
<text text-anchor="middle" x="734.4505" y="-616" font-family="Times,serif" font-size="16.00" fill="#000000">techniques animales</text>
</g>
<!-- b1&#45;&gt;c2 -->
<g id="edge13" class="edge">
<title>b1&#45;&gt;c2</title>
<path fill="none" stroke="#000000" d="M569.0309,-640C594.2783,-640 620.112,-640 643.6325,-640"/>
<polygon fill="#000000" stroke="#000000" points="643.913,-643.5001 653.913,-640 643.913,-636.5001 643.913,-643.5001"/>
</g>
<!-- b2&#45;&gt;b3 -->
<!-- c3 -->
<g id="node10" class="node">
<title>c3</title>
<polygon fill="#ffffff" stroke="#7f7f7f" points="772.6283,-563 696.2726,-563 696.2726,-527 772.6283,-527 772.6283,-563"/>
<text text-anchor="middle" x="734.4505" y="-540.2" font-family="Times,serif" font-size="16.00" fill="#000000">Descartes</text>
</g>
<!-- b2&#45;&gt;c3 -->
<g id="edge14" class="edge">
<title>b2&#45;&gt;c3</title>
<path fill="none" stroke="#000000" d="M554.2435,-532.3903C600.3094,-535.6137 650.3293,-539.1137 685.956,-541.6067"/>
<polygon fill="#000000" stroke="#000000" points="685.8481,-545.1076 696.068,-542.3142 686.3368,-538.1247 685.8481,-545.1076"/>
</g>
<!-- c4 -->
<g id="node11" class="node">
<title>c4</title>
<polygon fill="#ffffff" stroke="#7f7f7f" points="761.4505,-520 707.4505,-520 707.4505,-484 761.4505,-484 761.4505,-520"/>
<text text-anchor="middle" x="734.4505" y="-497.2" font-family="Times,serif" font-size="16.00" fill="#000000">Jonas</text>
</g>
<!-- b2&#45;&gt;c4 -->
<g id="edge15" class="edge">
<title>b2&#45;&gt;c4</title>
<path fill="none" stroke="#000000" d="M554.2435,-515.2102C605.2904,-511.4682 661.1925,-507.3702 696.9846,-504.7465"/>
<polygon fill="#000000" stroke="#000000" points="697.7019,-508.2034 707.4192,-503.9815 697.1901,-501.2221 697.7019,-508.2034"/>
</g>
<!-- b3&#45;&gt;b4 -->
<!-- c5 -->
<g id="node12" class="node">
<title>c5</title>
<polygon fill="#ffffff" stroke="#7f7f7f" points="761.4505,-442 707.4505,-442 707.4505,-406 761.4505,-406 761.4505,-442"/>
<text text-anchor="middle" x="734.4505" y="-419.2" font-family="Times,serif" font-size="16.00" fill="#000000">Marx</text>
</g>
<!-- b3&#45;&gt;c5 -->
<g id="edge16" class="edge">
<title>b3&#45;&gt;c5</title>
<path fill="none" stroke="#000000" d="M559.4389,-414.6696C609.142,-417.3194 662.6034,-420.1696 697.1792,-422.013"/>
<polygon fill="#000000" stroke="#000000" points="697.106,-425.5139 707.2782,-422.5514 697.4787,-418.5239 697.106,-425.5139"/>
</g>
<!-- c6 -->
<g id="node13" class="node">
<title>c6</title>
<polygon fill="#ffffff" stroke="#7f7f7f" points="768.6347,-399 700.2662,-399 700.2662,-363 768.6347,-363 768.6347,-399"/>
<text text-anchor="middle" x="734.4505" y="-376.2" font-family="Times,serif" font-size="16.00" fill="#000000">Danaher</text>
</g>
<!-- b3&#45;&gt;c6 -->
<g id="edge17" class="edge">
<title>b3&#45;&gt;c6</title>
<path fill="none" stroke="#000000" d="M555.9719,-397.057C603.4426,-392.7862 654.8523,-388.1611 690.2486,-384.9767"/>
<polygon fill="#000000" stroke="#000000" points="690.5973,-388.4595 700.2434,-384.0775 689.97,-381.4877 690.5973,-388.4595"/>
</g>
<!-- b4&#45;&gt;b5 -->
<!-- c7 -->
<g id="node14" class="node">
<title>c7</title>
<polygon fill="#ffffff" stroke="#7f7f7f" points="767.8581,-321 701.0428,-321 701.0428,-285 767.8581,-285 767.8581,-321"/>
<text text-anchor="middle" x="734.4505" y="-298.2" font-family="Times,serif" font-size="16.00" fill="#000000">Deleuze</text>
</g>
<!-- b4&#45;&gt;c7 -->
<g id="edge18" class="edge">
<title>b4&#45;&gt;c7</title>
<path fill="none" stroke="#000000" d="M587.0313,-297.5967C625.1658,-298.9944 663.0732,-300.3838 690.8978,-301.4037"/>
<polygon fill="#000000" stroke="#000000" points="690.926,-304.907 701.0476,-301.7757 691.1825,-297.9117 690.926,-304.907"/>
</g>
<!-- c8 -->
<g id="node15" class="node">
<title>c8</title>
<polygon fill="#ffffff" stroke="#7f7f7f" points="761.4505,-278 707.4505,-278 707.4505,-242 761.4505,-242 761.4505,-278"/>
<text text-anchor="middle" x="734.4505" y="-255.2" font-family="Times,serif" font-size="16.00" fill="#000000">Puech</text>
</g>
<!-- b4&#45;&gt;c8 -->
<g id="edge19" class="edge">
<title>b4&#45;&gt;c8</title>
<path fill="none" stroke="#000000" d="M575.6057,-276.937C620.3488,-272.1662 666.1373,-267.284 696.9862,-263.9947"/>
<polygon fill="#000000" stroke="#000000" points="697.6761,-267.441 707.2486,-262.9004 696.9338,-260.4805 697.6761,-267.441"/>
</g>
<!-- b5&#45;&gt;b6 -->
<!-- c9 -->
<g id="node16" class="node">
<title>c9</title>
<polygon fill="#ffffff" stroke="#7f7f7f" points="804.1915,-200 664.7094,-200 664.7094,-164 804.1915,-164 804.1915,-200"/>
<text text-anchor="middle" x="734.4505" y="-177.2" font-family="Times,serif" font-size="16.00" fill="#000000">Le transhumanisme</text>
</g>
<!-- b5&#45;&gt;c9 -->
<g id="edge20" class="edge">
<title>b5&#45;&gt;c9</title>
<path fill="none" stroke="#000000" d="M600.6313,-179.3246C619.2225,-179.6963 637.4774,-180.0613 654.2363,-180.3963"/>
<polygon fill="#000000" stroke="#000000" points="654.3994,-183.9002 664.4674,-180.6009 654.5394,-176.9016 654.3994,-183.9002"/>
</g>
<!-- c10 -->
<g id="node17" class="node">
<title>c10</title>
<polygon fill="#ffffff" stroke="#7f7f7f" points="802.6234,-157 666.2775,-157 666.2775,-121 802.6234,-121 802.6234,-157"/>
<text text-anchor="middle" x="734.4505" y="-134.2" font-family="Times,serif" font-size="16.00" fill="#000000">Matthew Crawford</text>
</g>
<!-- b5&#45;&gt;c10 -->
<g id="edge21" class="edge">
<title>b5&#45;&gt;c10</title>
<path fill="none" stroke="#000000" d="M580.4375,-157.9877C606.5381,-154.7699 632.7984,-151.5323 656.0568,-148.6649"/>
<polygon fill="#000000" stroke="#000000" points="656.6783,-152.1149 666.1748,-147.4175 655.8217,-145.1675 656.6783,-152.1149"/>
</g>
<!-- c11 -->
<g id="node18" class="node">
<title>c11</title>
<polygon fill="#ffffff" stroke="#7f7f7f" points="761.4505,-79 707.4505,-79 707.4505,-43 761.4505,-43 761.4505,-79"/>
<text text-anchor="middle" x="734.4505" y="-56.2" font-family="Times,serif" font-size="16.00" fill="#000000">Ellul</text>
</g>
<!-- b6&#45;&gt;c11 -->
<g id="edge22" class="edge">
<title>b6&#45;&gt;c11</title>
<path fill="none" stroke="#000000" d="M589.2287,-60.5161C629.6431,-60.6508 669.5894,-60.7839 697.3251,-60.8763"/>
<polygon fill="#000000" stroke="#000000" points="697.321,-64.3762 707.3327,-60.9096 697.3444,-57.3762 697.321,-64.3762"/>
</g>
<!-- c12 -->
<g id="node19" class="node">
<title>c12</title>
<polygon fill="#ffffff" stroke="#7f7f7f" points="770.98,-36 697.9209,-36 697.9209,0 770.98,0 770.98,-36"/>
<text text-anchor="middle" x="734.4505" y="-13.2" font-family="Times,serif" font-size="16.00" fill="#000000">Feenberg</text>
</g>
<!-- b6&#45;&gt;c12 -->
<g id="edge23" class="edge">
<title>b6&#45;&gt;c12</title>
<path fill="none" stroke="#000000" d="M568.1561,-41.2724C610.8925,-35.2916 655.4067,-29.0619 687.6132,-24.5547"/>
<polygon fill="#000000" stroke="#000000" points="688.2011,-28.0066 697.6195,-23.1544 687.2309,-21.0742 688.2011,-28.0066"/>
</g>
<!-- c2&#45;&gt;c3 -->
<!-- c4&#45;&gt;c5 -->
<!-- c6&#45;&gt;c7 -->
<!-- c8&#45;&gt;c9 -->
<!-- c10&#45;&gt;c11 -->
</g>
</svg>
