<?xml version="1.0" encoding="UTF-8" standalone="no"?>
<!DOCTYPE svg PUBLIC "-//W3C//DTD SVG 1.1//EN"
 "http://www.w3.org/Graphics/SVG/1.1/DTD/svg11.dtd">
<!-- Generated by graphviz version 2.40.1 (20161225.0304)
 -->
<!-- Title: G Pages: 1 -->
<svg width="758pt" height="597pt"
 viewBox="0.00 0.00 758.09 596.59" xmlns="http://www.w3.org/2000/svg" xmlns:xlink="http://www.w3.org/1999/xlink">
<g id="graph0" class="graph" transform="scale(1 1) rotate(0) translate(21.6 574.9862)">
<title>G</title>
<polygon fill="#fafafa" stroke="transparent" points="-21.6,21.6 -21.6,-574.9862 736.4862,-574.9862 736.4862,21.6 -21.6,21.6"/>
<!-- a1 -->
<g id="node1" class="node">
<title>a1</title>
<ellipse fill="#050505" stroke="#000000" cx="115.9525" cy="-274.3862" rx="115.905" ry="51.4548"/>
<text text-anchor="middle" x="115.9525" y="-290.5862" font-family="Times,serif" font-size="18.00" fill="#ffffff">Le langage n&#39;est&#45;il</text>
<text text-anchor="middle" x="115.9525" y="-268.9862" font-family="Times,serif" font-size="18.00" fill="#ffffff">qu&#39;un simple moyen</text>
<text text-anchor="middle" x="115.9525" y="-247.3862" font-family="Times,serif" font-size="18.00" fill="#ffffff">de communication ?</text>
</g>
<!-- b1 -->
<g id="node2" class="node">
<title>b1</title>
<ellipse fill="#8b0000" stroke="#000000" cx="417.7456" cy="-516.3862" rx="101.3528" ry="32.6206"/>
<text text-anchor="middle" x="417.7456" y="-521.1862" font-family="Times,serif" font-size="16.00" fill="#ffffff">Les animaux ont&#45;ils</text>
<text text-anchor="middle" x="417.7456" y="-501.9862" font-family="Times,serif" font-size="16.00" fill="#ffffff">un langage ?</text>
</g>
<!-- a1&#45;&gt;b1 -->
<g id="edge1" class="edge">
<title>a1&#45;&gt;b1:w</title>
<path fill="none" stroke="#000000" d="M132.4427,-325.4125C158.0332,-393.9164 214.2077,-508.0111 306.5115,-515.9487"/>
<polygon fill="#000000" stroke="#000000" points="306.6052,-519.4558 316.7456,-516.3862 306.9042,-512.4622 306.6052,-519.4558"/>
<text text-anchor="start" x="262.9583" y="-511.5862" font-family="Times,serif" font-size="14.00" fill="#006400">I</text>
</g>
<!-- b2 -->
<g id="node3" class="node">
<title>b2</title>
<ellipse fill="#8b0000" stroke="#000000" cx="417.7456" cy="-395.3862" rx="101.5545" ry="46.2727"/>
<text text-anchor="middle" x="417.7456" y="-409.7862" font-family="Times,serif" font-size="16.00" fill="#ffffff">Qu&#39;est&#45;ce qui fait</text>
<text text-anchor="middle" x="417.7456" y="-390.5862" font-family="Times,serif" font-size="16.00" fill="#ffffff">le sens d&#39;un énoncé</text>
<text text-anchor="middle" x="417.7456" y="-371.3862" font-family="Times,serif" font-size="16.00" fill="#ffffff">linguistique ?</text>
</g>
<!-- a1&#45;&gt;b2 -->
<g id="edge2" class="edge">
<title>a1&#45;&gt;b2:w</title>
<path fill="none" stroke="#000000" d="M161.7353,-321.8613C197.3553,-353.8401 249.9594,-390.9157 305.6785,-395.0131"/>
<polygon fill="#000000" stroke="#000000" points="305.6228,-398.5133 315.7456,-395.3862 305.8821,-391.5181 305.6228,-398.5133"/>
<text text-anchor="start" x="260.628" y="-392.5862" font-family="Times,serif" font-size="14.00" fill="#006400">II</text>
</g>
<!-- b3 -->
<g id="node4" class="node">
<title>b3</title>
<ellipse fill="#8b0000" stroke="#000000" cx="417.7456" cy="-274.3862" rx="105.6048" ry="32.6206"/>
<text text-anchor="middle" x="417.7456" y="-279.1862" font-family="Times,serif" font-size="16.00" fill="#ffffff">Le langage permet&#45;il</text>
<text text-anchor="middle" x="417.7456" y="-259.9862" font-family="Times,serif" font-size="16.00" fill="#ffffff">de tout exprimer ?</text>
</g>
<!-- a1&#45;&gt;b3 -->
<g id="edge3" class="edge">
<title>a1&#45;&gt;b3:w</title>
<path fill="none" stroke="#000000" d="M231.9074,-274.3862C254.7764,-274.3862 278.7821,-274.3862 301.6669,-274.3862"/>
<polygon fill="#000000" stroke="#000000" points="301.7456,-277.8863 311.7456,-274.3862 301.7456,-270.8863 301.7456,-277.8863"/>
<text text-anchor="start" x="258.2977" y="-278.5862" font-family="Times,serif" font-size="14.00" fill="#006400">III</text>
</g>
<!-- b4 -->
<g id="node5" class="node">
<title>b4</title>
<ellipse fill="#8b0000" stroke="#000000" cx="417.7456" cy="-167.3862" rx="115.9039" ry="32.6206"/>
<text text-anchor="middle" x="417.7456" y="-172.1862" font-family="Times,serif" font-size="16.00" fill="#ffffff">La parole est&#45;elle ce</text>
<text text-anchor="middle" x="417.7456" y="-152.9862" font-family="Times,serif" font-size="16.00" fill="#ffffff">qui fait de moi un sujet</text>
</g>
<!-- a1&#45;&gt;b4 -->
<g id="edge4" class="edge">
<title>a1&#45;&gt;b4:w</title>
<path fill="none" stroke="#000000" d="M164.8624,-227.4544C197.7041,-200.614 243.5976,-171.5344 291.4977,-167.7906"/>
<polygon fill="#000000" stroke="#000000" points="291.8914,-171.2779 301.7456,-167.3862 291.6153,-164.2833 291.8914,-171.2779"/>
<text text-anchor="start" x="257.905" y="-178.5862" font-family="Times,serif" font-size="14.00" fill="#006400">IV</text>
</g>
<!-- b5 -->
<g id="node6" class="node">
<title>b5</title>
<ellipse fill="#8b0000" stroke="#000000" cx="417.7456" cy="-46.3862" rx="119.1468" ry="46.2727"/>
<text text-anchor="middle" x="417.7456" y="-60.7862" font-family="Times,serif" font-size="16.00" fill="#ffffff">Sommes&#45;nous</text>
<text text-anchor="middle" x="417.7456" y="-41.5862" font-family="Times,serif" font-size="16.00" fill="#ffffff">prisonniers de la langue</text>
<text text-anchor="middle" x="417.7456" y="-22.3862" font-family="Times,serif" font-size="16.00" fill="#ffffff">que nous parlons ?</text>
</g>
<!-- a1&#45;&gt;b5 -->
<g id="edge5" class="edge">
<title>a1&#45;&gt;b5:w</title>
<path fill="none" stroke="#000000" d="M131.5722,-223.2186C154.7239,-158.5568 204.6936,-54.6739 288.6169,-46.8548"/>
<polygon fill="#000000" stroke="#000000" points="288.9181,-50.3447 298.7456,-46.3862 288.5945,-43.3522 288.9181,-50.3447"/>
<text text-anchor="start" x="260.2353" y="-58.5862" font-family="Times,serif" font-size="14.00" fill="#006400">V</text>
</g>
<!-- b1&#45;&gt;b2 -->
<!-- c1 -->
<g id="node7" class="node">
<title>c1</title>
<polygon fill="#ffffff" stroke="#7f7f7f" points="695.1732,-553.3862 609.532,-553.3862 609.532,-517.3862 695.1732,-517.3862 695.1732,-553.3862"/>
<text text-anchor="middle" x="652.3526" y="-530.5862" font-family="Times,serif" font-size="16.00" fill="#000000">Montaigne</text>
</g>
<!-- b1&#45;&gt;c1 -->
<g id="edge10" class="edge">
<title>b1&#45;&gt;c1</title>
<path fill="none" stroke="#000000" d="M516.2203,-524.3613C544.7479,-526.6717 574.801,-529.1056 599.3917,-531.0971"/>
<polygon fill="#000000" stroke="#000000" points="599.3258,-534.6031 609.5757,-531.9219 599.8909,-527.626 599.3258,-534.6031"/>
</g>
<!-- c2 -->
<g id="node8" class="node">
<title>c2</title>
<polygon fill="#ffffff" stroke="#7f7f7f" points="695.9454,-510.3862 608.7597,-510.3862 608.7597,-474.3862 695.9454,-474.3862 695.9454,-510.3862"/>
<text text-anchor="middle" x="652.3526" y="-487.5862" font-family="Times,serif" font-size="16.00" fill="#000000">Benveniste</text>
</g>
<!-- b1&#45;&gt;c2 -->
<g id="edge11" class="edge">
<title>b1&#45;&gt;c2</title>
<path fill="none" stroke="#000000" d="M514.5237,-506.4859C543.2563,-503.5466 573.6845,-500.4338 598.6211,-497.8829"/>
<polygon fill="#000000" stroke="#000000" points="599.0048,-501.362 608.5966,-496.8624 598.2923,-494.3983 599.0048,-501.362"/>
</g>
<!-- b2&#45;&gt;b3 -->
<!-- c3 -->
<g id="node9" class="node">
<title>c3</title>
<polygon fill="#ffffff" stroke="#7f7f7f" points="697.5512,-446.7879 607.154,-446.7879 607.154,-399.9845 697.5512,-399.9845 697.5512,-446.7879"/>
<text text-anchor="middle" x="652.3526" y="-428.1862" font-family="Times,serif" font-size="16.00" fill="#000000">Le modèle</text>
<text text-anchor="middle" x="652.3526" y="-408.9862" font-family="Times,serif" font-size="16.00" fill="#000000">du code</text>
</g>
<!-- b2&#45;&gt;c3 -->
<g id="edge12" class="edge">
<title>b2&#45;&gt;c3</title>
<path fill="none" stroke="#000000" d="M516.2203,-407.139C543.8701,-410.439 572.9531,-413.91 597.1064,-416.7927"/>
<polygon fill="#000000" stroke="#000000" points="596.7932,-420.28 607.1375,-417.9899 597.6228,-413.3294 596.7932,-420.28"/>
</g>
<!-- c4 -->
<g id="node10" class="node">
<title>c4</title>
<polygon fill="#ffffff" stroke="#7f7f7f" points="707.1538,-393.7879 597.5514,-393.7879 597.5514,-346.9845 707.1538,-346.9845 707.1538,-393.7879"/>
<text text-anchor="middle" x="652.3526" y="-375.1862" font-family="Times,serif" font-size="16.00" fill="#000000">Le modèle de</text>
<text text-anchor="middle" x="652.3526" y="-355.9862" font-family="Times,serif" font-size="16.00" fill="#000000">l&#39;inférence</text>
</g>
<!-- b2&#45;&gt;c4 -->
<g id="edge13" class="edge">
<title>b2&#45;&gt;c4</title>
<path fill="none" stroke="#000000" d="M516.9,-384.8202C540.7592,-382.2777 565.6449,-379.6259 587.4793,-377.2992"/>
<polygon fill="#000000" stroke="#000000" points="588.0345,-380.7599 597.6073,-376.2199 587.2927,-373.7993 588.0345,-380.7599"/>
</g>
<!-- b3&#45;&gt;b4 -->
<!-- c5 -->
<g id="node11" class="node">
<title>c5</title>
<polygon fill="#ffffff" stroke="#7f7f7f" points="687.1749,-319.3862 617.5302,-319.3862 617.5302,-283.3862 687.1749,-283.3862 687.1749,-319.3862"/>
<text text-anchor="middle" x="652.3526" y="-296.5862" font-family="Times,serif" font-size="16.00" fill="#000000">Bergson</text>
</g>
<!-- b3&#45;&gt;c5 -->
<g id="edge14" class="edge">
<title>b3&#45;&gt;c5</title>
<path fill="none" stroke="#000000" d="M516.9,-285.7975C548.4454,-289.4279 581.7852,-293.2649 607.4947,-296.2237"/>
<polygon fill="#000000" stroke="#000000" points="607.3274,-299.7275 617.6621,-297.3938 608.1278,-292.7734 607.3274,-299.7275"/>
</g>
<!-- c6 -->
<g id="node12" class="node">
<title>c6</title>
<polygon fill="#ffffff" stroke="#7f7f7f" points="680.327,-276.3862 624.3782,-276.3862 624.3782,-240.3862 680.327,-240.3862 680.327,-276.3862"/>
<text text-anchor="middle" x="652.3526" y="-253.5862" font-family="Times,serif" font-size="16.00" fill="#000000">Searle</text>
</g>
<!-- b3&#45;&gt;c6 -->
<g id="edge15" class="edge">
<title>b3&#45;&gt;c6</title>
<path fill="none" stroke="#000000" d="M520.989,-267.3451C554.0122,-265.0929 588.5436,-262.7379 613.9104,-261.0079"/>
<polygon fill="#000000" stroke="#000000" points="614.451,-264.4793 624.1897,-260.3069 613.9747,-257.4955 614.451,-264.4793"/>
</g>
<!-- b4&#45;&gt;b5 -->
<!-- c7 -->
<g id="node13" class="node">
<title>c7</title>
<polygon fill="#ffffff" stroke="#7f7f7f" points="695.9454,-212.3862 608.7597,-212.3862 608.7597,-176.3862 695.9454,-176.3862 695.9454,-212.3862"/>
<text text-anchor="middle" x="652.3526" y="-189.5862" font-family="Times,serif" font-size="16.00" fill="#000000">Benveniste</text>
</g>
<!-- b4&#45;&gt;c7 -->
<g id="edge16" class="edge">
<title>b4&#45;&gt;c7</title>
<path fill="none" stroke="#000000" d="M525.4361,-179.7799C550.8094,-182.7 576.7865,-185.6896 598.5761,-188.1973"/>
<polygon fill="#000000" stroke="#000000" points="598.2599,-191.6839 608.5945,-189.3503 599.0602,-184.7298 598.2599,-191.6839"/>
</g>
<!-- c8 -->
<g id="node14" class="node">
<title>c8</title>
<polygon fill="#ffffff" stroke="#7f7f7f" points="680.3446,-169.3862 624.3606,-169.3862 624.3606,-133.3862 680.3446,-133.3862 680.3446,-169.3862"/>
<text text-anchor="middle" x="652.3526" y="-146.5862" font-family="Times,serif" font-size="16.00" fill="#000000">Butler</text>
</g>
<!-- b4&#45;&gt;c8 -->
<g id="edge17" class="edge">
<title>b4&#45;&gt;c8</title>
<path fill="none" stroke="#000000" d="M530.5824,-159.6908C560.7142,-157.6359 591.2396,-155.5541 614.1904,-153.9888"/>
<polygon fill="#000000" stroke="#000000" points="614.4351,-157.4804 624.1737,-153.308 613.9587,-150.4966 614.4351,-157.4804"/>
</g>
<!-- c9 -->
<g id="node15" class="node">
<title>c9</title>
<polygon fill="#ffffff" stroke="#7f7f7f" points="714.9198,-91.7879 589.7854,-91.7879 589.7854,-44.9845 714.9198,-44.9845 714.9198,-91.7879"/>
<text text-anchor="middle" x="652.3526" y="-73.1862" font-family="Times,serif" font-size="16.00" fill="#000000">Le déterminisme</text>
<text text-anchor="middle" x="652.3526" y="-53.9862" font-family="Times,serif" font-size="16.00" fill="#000000">linguistique</text>
</g>
<!-- b5&#45;&gt;c9 -->
<g id="edge18" class="edge">
<title>b5&#45;&gt;c9</title>
<path fill="none" stroke="#000000" d="M533.6745,-57.2573C549.1879,-58.7121 564.7334,-60.1698 579.2254,-61.5288"/>
<polygon fill="#000000" stroke="#000000" points="579.293,-65.0504 589.5762,-62.4994 579.9466,-58.081 579.293,-65.0504"/>
</g>
<!-- c10 -->
<g id="node16" class="node">
<title>c10</title>
<polygon fill="#ffffff" stroke="#7f7f7f" points="679.5546,-38.3862 625.1506,-38.3862 625.1506,-2.3862 679.5546,-2.3862 679.5546,-38.3862"/>
<text text-anchor="middle" x="652.3526" y="-15.5862" font-family="Times,serif" font-size="16.00" fill="#000000">Hegel</text>
</g>
<!-- b5&#45;&gt;c10 -->
<g id="edge19" class="edge">
<title>b5&#45;&gt;c10</title>
<path fill="none" stroke="#000000" d="M532.3,-33.6909C562.2231,-30.3747 592.3849,-27.032 614.991,-24.5267"/>
<polygon fill="#000000" stroke="#000000" points="615.5784,-27.9832 625.132,-23.4029 614.8073,-21.0258 615.5784,-27.9832"/>
</g>
<!-- c2&#45;&gt;c3 -->
<!-- c4&#45;&gt;c5 -->
<!-- c6&#45;&gt;c7 -->
<!-- c8&#45;&gt;c9 -->
</g>
</svg>
