<?xml version="1.0" encoding="UTF-8" standalone="no"?>
<!DOCTYPE svg PUBLIC "-//W3C//DTD SVG 1.1//EN"
 "http://www.w3.org/Graphics/SVG/1.1/DTD/svg11.dtd">
<!-- Generated by graphviz version 2.40.1 (20161225.0304)
 -->
<!-- Title: G Pages: 1 -->
<svg width="878pt" height="418pt"
 viewBox="0.00 0.00 878.08 417.63" xmlns="http://www.w3.org/2000/svg" xmlns:xlink="http://www.w3.org/1999/xlink">
<g id="graph0" class="graph" transform="scale(1 1) rotate(0) translate(21.6 396.0288)">
<title>G</title>
<polygon fill="#fafafa" stroke="transparent" points="-21.6,21.6 -21.6,-396.0288 856.4786,-396.0288 856.4786,21.6 -21.6,21.6"/>
<!-- a1 -->
<g id="node1" class="node">
<title>a1</title>
<ellipse fill="#050505" stroke="#000000" cx="75.8048" cy="-185.6288" rx="75.6101" ry="51.4548"/>
<text text-anchor="middle" x="75.8048" y="-201.8288" font-family="Times,serif" font-size="18.00" fill="#ffffff">Quelle est la</text>
<text text-anchor="middle" x="75.8048" y="-180.2288" font-family="Times,serif" font-size="18.00" fill="#ffffff">finalité de la</text>
<text text-anchor="middle" x="75.8048" y="-158.6288" font-family="Times,serif" font-size="18.00" fill="#ffffff">politique ?</text>
</g>
<!-- p1 -->
<g id="node2" class="node">
<title>p1</title>
<path fill="#fafafa" stroke="#006400" d="M268.8625,-349.0302C268.8625,-349.0302 192.9045,-349.0302 192.9045,-349.0302 186.9045,-349.0302 180.9045,-343.0302 180.9045,-337.0302 180.9045,-337.0302 180.9045,-302.2275 180.9045,-302.2275 180.9045,-296.2275 186.9045,-290.2275 192.9045,-290.2275 192.9045,-290.2275 268.8625,-290.2275 268.8625,-290.2275 274.8625,-290.2275 280.8625,-296.2275 280.8625,-302.2275 280.8625,-302.2275 280.8625,-337.0302 280.8625,-337.0302 280.8625,-343.0302 274.8625,-349.0302 268.8625,-349.0302"/>
<text text-anchor="middle" x="230.8835" y="-332.2288" font-family="Times,serif" font-size="14.00" fill="#006400">I – Le pouvoir</text>
<text text-anchor="middle" x="230.8835" y="-315.4288" font-family="Times,serif" font-size="14.00" fill="#006400">ou l&#39;intérêt</text>
<text text-anchor="middle" x="230.8835" y="-298.6288" font-family="Times,serif" font-size="14.00" fill="#006400">général ?</text>
</g>
<!-- a1&#45;&gt;p1 -->
<g id="edge1" class="edge">
<title>a1&#45;&gt;p1:w</title>
<path fill="none" stroke="#000000" d="M92.2835,-235.9067C108.2739,-273.9298 136.6859,-319.6288 180.8835,-319.6288"/>
</g>
<!-- p2 -->
<g id="node3" class="node">
<title>p2</title>
<path fill="#fafafa" stroke="#006400" d="M271.9323,-206.2308C271.9323,-206.2308 189.8348,-206.2308 189.8348,-206.2308 183.8348,-206.2308 177.8348,-200.2308 177.8348,-194.2308 177.8348,-194.2308 177.8348,-177.0269 177.8348,-177.0269 177.8348,-171.0269 183.8348,-165.0269 189.8348,-165.0269 189.8348,-165.0269 271.9323,-165.0269 271.9323,-165.0269 277.9323,-165.0269 283.9323,-171.0269 283.9323,-177.0269 283.9323,-177.0269 283.9323,-194.2308 283.9323,-194.2308 283.9323,-200.2308 277.9323,-206.2308 271.9323,-206.2308"/>
<text text-anchor="middle" x="230.8835" y="-189.8288" font-family="Times,serif" font-size="14.00" fill="#006400">II – La sécurité</text>
<text text-anchor="middle" x="230.8835" y="-173.0288" font-family="Times,serif" font-size="14.00" fill="#006400">ou la liberté ?</text>
</g>
<!-- a1&#45;&gt;p2 -->
<g id="edge2" class="edge">
<title>a1&#45;&gt;p2:w</title>
<path fill="none" stroke="#000000" d="M151.6162,-185.6288C160.4717,-185.6288 169.377,-185.6288 177.8835,-185.6288"/>
</g>
<!-- p3 -->
<g id="node4" class="node">
<title>p3</title>
<path fill="#fafafa" stroke="#006400" d="M267.9249,-81.2308C267.9249,-81.2308 193.8421,-81.2308 193.8421,-81.2308 187.8421,-81.2308 181.8421,-75.2308 181.8421,-69.2308 181.8421,-69.2308 181.8421,-52.0269 181.8421,-52.0269 181.8421,-46.0269 187.8421,-40.0269 193.8421,-40.0269 193.8421,-40.0269 267.9249,-40.0269 267.9249,-40.0269 273.9249,-40.0269 279.9249,-46.0269 279.9249,-52.0269 279.9249,-52.0269 279.9249,-69.2308 279.9249,-69.2308 279.9249,-75.2308 273.9249,-81.2308 267.9249,-81.2308"/>
<text text-anchor="middle" x="230.8835" y="-64.8288" font-family="Times,serif" font-size="14.00" fill="#006400">III – Politique</text>
<text text-anchor="middle" x="230.8835" y="-48.0288" font-family="Times,serif" font-size="14.00" fill="#006400">et morale</text>
</g>
<!-- a1&#45;&gt;p3 -->
<g id="edge3" class="edge">
<title>a1&#45;&gt;p3:w</title>
<path fill="none" stroke="#000000" d="M95.0628,-135.5068C112.0624,-100.7309 140.6129,-60.6288 181.8835,-60.6288"/>
</g>
<!-- p1&#45;&gt;p2 -->
<!-- b1 -->
<g id="node5" class="node">
<title>b1</title>
<ellipse fill="#8b0000" stroke="#000000" cx="422.4584" cy="-319.6288" rx="112.1024" ry="37.1049"/>
<text text-anchor="middle" x="422.4584" y="-324.4288" font-family="Times,serif" font-size="16.00" fill="#ffffff">L&#39;État est&#45;il au service</text>
<text text-anchor="middle" x="422.4584" y="-305.2288" font-family="Times,serif" font-size="16.00" fill="#ffffff">de l&#39;intérêt général ?</text>
</g>
<!-- p1&#45;&gt;b1 -->
<g id="edge6" class="edge">
<title>p1&#45;&gt;b1:w</title>
<path fill="none" stroke="#000000" d="M280.973,-319.6288C287.39,-319.6288 293.9777,-319.6288 300.4426,-319.6288"/>
<polygon fill="#000000" stroke="#000000" points="300.4585,-323.1289 310.4584,-319.6288 300.4584,-316.1289 300.4585,-323.1289"/>
</g>
<!-- p2&#45;&gt;p3 -->
<!-- b2 -->
<g id="node6" class="node">
<title>b2</title>
<ellipse fill="#8b0000" stroke="#000000" cx="422.4584" cy="-191.6288" rx="102.1491" ry="49.4302"/>
<text text-anchor="middle" x="422.4584" y="-206.0288" font-family="Times,serif" font-size="16.00" fill="#ffffff">La raison d&#39;être</text>
<text text-anchor="middle" x="422.4584" y="-186.8288" font-family="Times,serif" font-size="16.00" fill="#ffffff">de l&#39;État est&#45;elle de</text>
<text text-anchor="middle" x="422.4584" y="-167.6288" font-family="Times,serif" font-size="16.00" fill="#ffffff">garantir la sécurité ?</text>
</g>
<!-- p2&#45;&gt;b2 -->
<g id="edge7" class="edge">
<title>p2&#45;&gt;b2:w</title>
<path fill="none" stroke="#000000" d="M284.3679,-190.3856C292.9013,-190.909 301.7735,-191.3223 310.4296,-191.5134"/>
<polygon fill="#000000" stroke="#000000" points="310.4188,-195.0134 320.4584,-191.6288 310.4994,-188.0138 310.4188,-195.0134"/>
</g>
<!-- b3 -->
<g id="node7" class="node">
<title>b3</title>
<ellipse fill="#8b0000" stroke="#000000" cx="422.4584" cy="-50.6288" rx="105.3333" ry="50.758"/>
<text text-anchor="middle" x="422.4584" y="-65.0288" font-family="Times,serif" font-size="16.00" fill="#ffffff">La politique doit&#45;elle</text>
<text text-anchor="middle" x="422.4584" y="-45.8288" font-family="Times,serif" font-size="16.00" fill="#ffffff">être guidée par</text>
<text text-anchor="middle" x="422.4584" y="-26.6288" font-family="Times,serif" font-size="16.00" fill="#ffffff">un idéal moral ?</text>
</g>
<!-- p3&#45;&gt;b3 -->
<g id="edge8" class="edge">
<title>p3&#45;&gt;b3:w</title>
<path fill="none" stroke="#000000" d="M280.0935,-52.898C288.6289,-51.9515 297.5763,-51.1934 306.3217,-50.8418"/>
<polygon fill="#000000" stroke="#000000" points="306.5342,-54.3382 316.4584,-50.6288 306.3871,-47.3397 306.5342,-54.3382"/>
</g>
<!-- b1&#45;&gt;b2 -->
<!-- c1 -->
<g id="node8" class="node">
<title>c1</title>
<polygon fill="#ffffff" stroke="#7f7f7f" points="632.8666,-357.6288 578.8666,-357.6288 578.8666,-321.6288 632.8666,-321.6288 632.8666,-357.6288"/>
<text text-anchor="middle" x="605.8666" y="-334.8288" font-family="Times,serif" font-size="16.00" fill="#000000">Marx</text>
</g>
<!-- b1&#45;&gt;c1 -->
<g id="edge11" class="edge">
<title>b1&#45;&gt;c1</title>
<path fill="none" stroke="#000000" d="M529.1477,-331.2629C543.1456,-332.7893 556.6646,-334.2635 568.3524,-335.5381"/>
<polygon fill="#000000" stroke="#000000" points="568.2119,-339.0434 578.5324,-336.6481 568.9708,-332.0846 568.2119,-339.0434"/>
</g>
<!-- c2 -->
<g id="node9" class="node">
<title>c2</title>
<polygon fill="#ffffff" stroke="#7f7f7f" points="644.6873,-305.6288 567.046,-305.6288 567.046,-269.6288 644.6873,-269.6288 644.6873,-305.6288"/>
<text text-anchor="middle" x="605.8666" y="-282.8288" font-family="Times,serif" font-size="16.00" fill="#000000">Rousseau</text>
</g>
<!-- b1&#45;&gt;c2 -->
<g id="edge12" class="edge">
<title>b1&#45;&gt;c2</title>
<path fill="none" stroke="#000000" d="M521.9455,-302.2709C534.0706,-300.1554 546.0129,-298.0718 556.9164,-296.1694"/>
<polygon fill="#000000" stroke="#000000" points="557.7743,-299.5727 567.0239,-294.4059 556.5711,-292.6768 557.7743,-299.5727"/>
</g>
<!-- b2&#45;&gt;b3 -->
<!-- c3 -->
<g id="node10" class="node">
<title>c3</title>
<polygon fill="#ffffff" stroke="#7f7f7f" points="638.242,-227.6288 573.4913,-227.6288 573.4913,-191.6288 638.242,-191.6288 638.242,-227.6288"/>
<text text-anchor="middle" x="605.8666" y="-204.8288" font-family="Times,serif" font-size="16.00" fill="#000000">Hobbes</text>
</g>
<!-- b2&#45;&gt;c3 -->
<g id="edge13" class="edge">
<title>b2&#45;&gt;c3</title>
<path fill="none" stroke="#000000" d="M522.7486,-201.4715C536.8493,-202.8554 550.6769,-204.2124 562.8821,-205.4103"/>
<polygon fill="#000000" stroke="#000000" points="562.8622,-208.925 573.1562,-206.4186 563.5459,-201.9585 562.8622,-208.925"/>
</g>
<!-- c4 -->
<g id="node11" class="node">
<title>c4</title>
<polygon fill="#ffffff" stroke="#7f7f7f" points="633.8458,-174.6288 577.8874,-174.6288 577.8874,-138.6288 633.8458,-138.6288 633.8458,-174.6288"/>
<text text-anchor="middle" x="605.8666" y="-151.8288" font-family="Times,serif" font-size="16.00" fill="#000000">Locke</text>
</g>
<!-- b2&#45;&gt;c4 -->
<g id="edge14" class="edge">
<title>b2&#45;&gt;c4</title>
<path fill="none" stroke="#000000" d="M517.3859,-173.5137C535.1106,-170.1313 552.6745,-166.7796 567.4247,-163.9648"/>
<polygon fill="#000000" stroke="#000000" points="568.4632,-167.3298 577.6298,-162.0173 567.151,-160.4539 568.4632,-167.3298"/>
</g>
<!-- c5 -->
<g id="node12" class="node">
<title>c5</title>
<polygon fill="#ffffff" stroke="#7f7f7f" points="647.3928,-96.6288 564.3405,-96.6288 564.3405,-60.6288 647.3928,-60.6288 647.3928,-96.6288"/>
<text text-anchor="middle" x="605.8666" y="-73.8288" font-family="Times,serif" font-size="16.00" fill="#000000">Machiavel</text>
</g>
<!-- b3&#45;&gt;c5 -->
<g id="edge15" class="edge">
<title>b3&#45;&gt;c5</title>
<path fill="none" stroke="#000000" d="M523.0162,-65.9805C533.791,-67.6254 544.4012,-69.2452 554.2444,-70.7479"/>
<polygon fill="#000000" stroke="#000000" points="553.7855,-74.2184 564.1992,-72.2677 554.842,-67.2985 553.7855,-74.2184"/>
</g>
<!-- c6 -->
<g id="node13" class="node">
<title>c6</title>
<polygon fill="#ffffff" stroke="#7f7f7f" points="651.0813,-43.6288 560.652,-43.6288 560.652,-7.6288 651.0813,-7.6288 651.0813,-43.6288"/>
<text text-anchor="middle" x="605.8666" y="-20.8288" font-family="Times,serif" font-size="16.00" fill="#000000">John Rawls</text>
</g>
<!-- b3&#45;&gt;c6 -->
<g id="edge16" class="edge">
<title>b3&#45;&gt;c6</title>
<path fill="none" stroke="#000000" d="M524.0858,-36.7762C533.1346,-35.5428 542.053,-34.3272 550.483,-33.1781"/>
<polygon fill="#000000" stroke="#000000" points="551.0638,-36.6314 560.4994,-31.8128 550.1183,-29.6955 551.0638,-36.6314"/>
</g>
<!-- e1 -->
<g id="node14" class="node">
<title>e1</title>
<path fill="#fafafa" stroke="transparent" d="M822.8311,-374.2301C822.8311,-374.2301 671.0214,-374.2301 671.0214,-374.2301 665.0214,-374.2301 659.0214,-368.2301 659.0214,-362.2301 659.0214,-362.2301 659.0214,-321.0276 659.0214,-321.0276 659.0214,-315.0276 665.0214,-309.0276 671.0214,-309.0276 671.0214,-309.0276 822.8311,-309.0276 822.8311,-309.0276 828.8311,-309.0276 834.8311,-315.0276 834.8311,-321.0276 834.8311,-321.0276 834.8311,-362.2301 834.8311,-362.2301 834.8311,-368.2301 828.8311,-374.2301 822.8311,-374.2301"/>
<text text-anchor="middle" x="746.9262" y="-359.6288" font-family="Times,serif" font-size="12.00" fill="#cd2626">L&#39;idéologie de l&#39;intérêt général,</text>
<text text-anchor="middle" x="746.9262" y="-345.2288" font-family="Times,serif" font-size="12.00" fill="#cd2626">l&#39;État comme moyen de</text>
<text text-anchor="middle" x="746.9262" y="-330.8288" font-family="Times,serif" font-size="12.00" fill="#cd2626">domination au service d&#39;une</text>
<text text-anchor="middle" x="746.9262" y="-316.4288" font-family="Times,serif" font-size="12.00" fill="#cd2626">classe sociale particulière</text>
</g>
<!-- c1&#45;&gt;e1 -->
<!-- c2&#45;&gt;c3 -->
<!-- e2 -->
<g id="node15" class="node">
<title>e2</title>
<path fill="#fafafa" stroke="transparent" d="M769.4087,-294.9294C769.4087,-294.9294 724.4437,-294.9294 724.4437,-294.9294 718.4437,-294.9294 712.4437,-288.9294 712.4437,-282.9294 712.4437,-282.9294 712.4437,-270.3283 712.4437,-270.3283 712.4437,-264.3283 718.4437,-258.3283 724.4437,-258.3283 724.4437,-258.3283 769.4087,-258.3283 769.4087,-258.3283 775.4087,-258.3283 781.4087,-264.3283 781.4087,-270.3283 781.4087,-270.3283 781.4087,-282.9294 781.4087,-282.9294 781.4087,-288.9294 775.4087,-294.9294 769.4087,-294.9294"/>
<text text-anchor="middle" x="746.9262" y="-280.2288" font-family="Times,serif" font-size="12.00" fill="#cd2626">La volonté</text>
<text text-anchor="middle" x="746.9262" y="-265.8288" font-family="Times,serif" font-size="12.00" fill="#cd2626">générale</text>
</g>
<!-- c2&#45;&gt;e2 -->
<!-- e3 -->
<g id="node16" class="node">
<title>e3</title>
<path fill="#fafafa" stroke="transparent" d="M791.9074,-240.3292C791.9074,-240.3292 701.945,-240.3292 701.945,-240.3292 695.945,-240.3292 689.945,-234.3292 689.945,-228.3292 689.945,-228.3292 689.945,-200.9285 689.945,-200.9285 689.945,-194.9285 695.945,-188.9285 701.945,-188.9285 701.945,-188.9285 791.9074,-188.9285 791.9074,-188.9285 797.9074,-188.9285 803.9074,-194.9285 803.9074,-200.9285 803.9074,-200.9285 803.9074,-228.3292 803.9074,-228.3292 803.9074,-234.3292 797.9074,-240.3292 791.9074,-240.3292"/>
<text text-anchor="middle" x="746.9262" y="-225.4288" font-family="Times,serif" font-size="12.00" fill="#cd2626">L&#39;État&#45;Léviathan</text>
<text text-anchor="middle" x="746.9262" y="-211.0288" font-family="Times,serif" font-size="12.00" fill="#cd2626">comme condition de</text>
<text text-anchor="middle" x="746.9262" y="-196.6288" font-family="Times,serif" font-size="12.00" fill="#cd2626">l&#39;ordre social</text>
</g>
<!-- c3&#45;&gt;e3 -->
<!-- c4&#45;&gt;c5 -->
<!-- e4 -->
<g id="node17" class="node">
<title>e4</title>
<path fill="#fafafa" stroke="transparent" d="M787.8854,-175.3292C787.8854,-175.3292 705.967,-175.3292 705.967,-175.3292 699.967,-175.3292 693.967,-169.3292 693.967,-163.3292 693.967,-163.3292 693.967,-135.9285 693.967,-135.9285 693.967,-129.9285 699.967,-123.9285 705.967,-123.9285 705.967,-123.9285 787.8854,-123.9285 787.8854,-123.9285 793.8854,-123.9285 799.8854,-129.9285 799.8854,-135.9285 799.8854,-135.9285 799.8854,-163.3292 799.8854,-163.3292 799.8854,-169.3292 793.8854,-175.3292 787.8854,-175.3292"/>
<text text-anchor="middle" x="746.9262" y="-160.4288" font-family="Times,serif" font-size="12.00" fill="#cd2626">L&#39;État de droit</text>
<text text-anchor="middle" x="746.9262" y="-146.0288" font-family="Times,serif" font-size="12.00" fill="#cd2626">contre le pouvoir</text>
<text text-anchor="middle" x="746.9262" y="-131.6288" font-family="Times,serif" font-size="12.00" fill="#cd2626">absolu et arbitraire</text>
</g>
<!-- c4&#45;&gt;e4 -->
<!-- e5 -->
<g id="node18" class="node">
<title>e5</title>
<path fill="#fafafa" stroke="transparent" d="M794.2232,-107.3292C794.2232,-107.3292 699.6293,-107.3292 699.6293,-107.3292 693.6293,-107.3292 687.6293,-101.3292 687.6293,-95.3292 687.6293,-95.3292 687.6293,-67.9285 687.6293,-67.9285 687.6293,-61.9285 693.6293,-55.9285 699.6293,-55.9285 699.6293,-55.9285 794.2232,-55.9285 794.2232,-55.9285 800.2232,-55.9285 806.2232,-61.9285 806.2232,-67.9285 806.2232,-67.9285 806.2232,-95.3292 806.2232,-95.3292 806.2232,-101.3292 800.2232,-107.3292 794.2232,-107.3292"/>
<text text-anchor="middle" x="746.9262" y="-92.4288" font-family="Times,serif" font-size="12.00" fill="#cd2626">Le réalisme politique</text>
<text text-anchor="middle" x="746.9262" y="-78.0288" font-family="Times,serif" font-size="12.00" fill="#cd2626">contre l&#39;idéalisme</text>
<text text-anchor="middle" x="746.9262" y="-63.6288" font-family="Times,serif" font-size="12.00" fill="#cd2626">politique</text>
</g>
<!-- c5&#45;&gt;e5 -->
<!-- e6 -->
<g id="node19" class="node">
<title>e6</title>
<path fill="#fafafa" stroke="transparent" d="M805.2334,-41.9294C805.2334,-41.9294 688.6191,-41.9294 688.6191,-41.9294 682.6191,-41.9294 676.6191,-35.9294 676.6191,-29.9294 676.6191,-29.9294 676.6191,-17.3283 676.6191,-17.3283 676.6191,-11.3283 682.6191,-5.3283 688.6191,-5.3283 688.6191,-5.3283 805.2334,-5.3283 805.2334,-5.3283 811.2334,-5.3283 817.2334,-11.3283 817.2334,-17.3283 817.2334,-17.3283 817.2334,-29.9294 817.2334,-29.9294 817.2334,-35.9294 811.2334,-41.9294 805.2334,-41.9294"/>
<text text-anchor="middle" x="746.9262" y="-27.2288" font-family="Times,serif" font-size="12.00" fill="#cd2626">Les principes de justice</text>
<text text-anchor="middle" x="746.9262" y="-12.8288" font-family="Times,serif" font-size="12.00" fill="#cd2626">≠ les conceptions du bien</text>
</g>
<!-- c6&#45;&gt;e6 -->
</g>
</svg>
