<?xml version="1.0" encoding="UTF-8" standalone="no"?>
<!DOCTYPE svg PUBLIC "-//W3C//DTD SVG 1.1//EN"
 "http://www.w3.org/Graphics/SVG/1.1/DTD/svg11.dtd">
<!-- Generated by graphviz version 2.40.1 (20161225.0304)
 -->
<!-- Title: G Pages: 1 -->
<svg width="1018pt" height="719pt"
 viewBox="0.00 0.00 1017.87 718.96" xmlns="http://www.w3.org/2000/svg" xmlns:xlink="http://www.w3.org/1999/xlink">
<g id="graph0" class="graph" transform="scale(1 1) rotate(0) translate(21.6 697.3627)">
<title>G</title>
<polygon fill="#fafafa" stroke="transparent" points="-21.6,21.6 -21.6,-697.3627 996.2747,-697.3627 996.2747,21.6 -21.6,21.6"/>
<!-- a1 -->
<g id="node1" class="node">
<title>a1</title>
<ellipse fill="#050505" stroke="#000000" cx="75.8048" cy="-312.9627" rx="75.6101" ry="51.4548"/>
<text text-anchor="middle" x="75.8048" y="-329.1627" font-family="Times,serif" font-size="18.00" fill="#ffffff">Quelle est la</text>
<text text-anchor="middle" x="75.8048" y="-307.5627" font-family="Times,serif" font-size="18.00" fill="#ffffff">finalité de la</text>
<text text-anchor="middle" x="75.8048" y="-285.9627" font-family="Times,serif" font-size="18.00" fill="#ffffff">politique ?</text>
</g>
<!-- p1 -->
<g id="node2" class="node">
<title>p1</title>
<path fill="#fafafa" stroke="#006400" d="M267.6155,-525.364C267.6155,-525.364 192.2335,-525.364 192.2335,-525.364 186.2335,-525.364 180.2335,-519.364 180.2335,-513.364 180.2335,-513.364 180.2335,-478.5613 180.2335,-478.5613 180.2335,-472.5613 186.2335,-466.5613 192.2335,-466.5613 192.2335,-466.5613 267.6155,-466.5613 267.6155,-466.5613 273.6155,-466.5613 279.6155,-472.5613 279.6155,-478.5613 279.6155,-478.5613 279.6155,-513.364 279.6155,-513.364 279.6155,-519.364 273.6155,-525.364 267.6155,-525.364"/>
<text text-anchor="middle" x="229.9245" y="-508.5627" font-family="Times,serif" font-size="14.00" fill="#006400">I – Défendre</text>
<text text-anchor="middle" x="229.9245" y="-491.7627" font-family="Times,serif" font-size="14.00" fill="#006400">un certain bien</text>
<text text-anchor="middle" x="229.9245" y="-474.9627" font-family="Times,serif" font-size="14.00" fill="#006400">commun ?</text>
</g>
<!-- a1&#45;&gt;p1 -->
<g id="edge1" class="edge">
<title>a1&#45;&gt;p1:w</title>
<path fill="none" stroke="#000000" d="M82.7685,-364.4254C93.3258,-418.5522 119.0634,-495.9627 179.9245,-495.9627"/>
</g>
<!-- p2 -->
<g id="node3" class="node">
<title>p2</title>
<path fill="#fafafa" stroke="#006400" d="M270.055,-159.364C270.055,-159.364 189.7941,-159.364 189.7941,-159.364 183.7941,-159.364 177.7941,-153.364 177.7941,-147.364 177.7941,-147.364 177.7941,-112.5613 177.7941,-112.5613 177.7941,-106.5613 183.7941,-100.5613 189.7941,-100.5613 189.7941,-100.5613 270.055,-100.5613 270.055,-100.5613 276.055,-100.5613 282.055,-106.5613 282.055,-112.5613 282.055,-112.5613 282.055,-147.364 282.055,-147.364 282.055,-153.364 276.055,-159.364 270.055,-159.364"/>
<text text-anchor="middle" x="229.9245" y="-142.5627" font-family="Times,serif" font-size="14.00" fill="#006400">II – Comment</text>
<text text-anchor="middle" x="229.9245" y="-125.7627" font-family="Times,serif" font-size="14.00" fill="#006400">garantir la</text>
<text text-anchor="middle" x="229.9245" y="-108.9627" font-family="Times,serif" font-size="14.00" fill="#006400">justice sociale ?</text>
</g>
<!-- a1&#45;&gt;p2 -->
<g id="edge2" class="edge">
<title>a1&#45;&gt;p2:w</title>
<path fill="none" stroke="#000000" d="M82.3101,-261.5C92.3703,-207.3731 117.3472,-129.9627 177.9245,-129.9627"/>
</g>
<!-- p1&#45;&gt;p2 -->
<!-- b1 -->
<g id="node4" class="node">
<title>b1</title>
<ellipse fill="#8b0000" stroke="#000000" cx="451.1927" cy="-623.9627" rx="112.1024" ry="37.1049"/>
<text text-anchor="middle" x="451.1927" y="-628.7627" font-family="Times,serif" font-size="16.00" fill="#ffffff">L&#39;État est&#45;il au service</text>
<text text-anchor="middle" x="451.1927" y="-609.5627" font-family="Times,serif" font-size="16.00" fill="#ffffff">de l&#39;intérêt général ?</text>
</g>
<!-- p1&#45;&gt;b1 -->
<g id="edge4" class="edge">
<title>p1&#45;&gt;b1:w</title>
<path fill="none" stroke="#000000" d="M240.0728,-525.3284C254.2168,-560.6089 283.3958,-615.9834 329.172,-623.1823"/>
<polygon fill="#000000" stroke="#000000" points="328.9511,-626.6756 339.1927,-623.9627 329.4946,-619.6967 328.9511,-626.6756"/>
</g>
<!-- b2 -->
<g id="node5" class="node">
<title>b2</title>
<ellipse fill="#8b0000" stroke="#000000" cx="451.1927" cy="-495.9627" rx="102.1491" ry="49.4302"/>
<text text-anchor="middle" x="451.1927" y="-510.3627" font-family="Times,serif" font-size="16.00" fill="#ffffff">La raison d&#39;être</text>
<text text-anchor="middle" x="451.1927" y="-491.1627" font-family="Times,serif" font-size="16.00" fill="#ffffff">de l&#39;État est&#45;elle de</text>
<text text-anchor="middle" x="451.1927" y="-471.9627" font-family="Times,serif" font-size="16.00" fill="#ffffff">garantir la sécurité ?</text>
</g>
<!-- p1&#45;&gt;b2 -->
<g id="edge5" class="edge">
<title>p1&#45;&gt;b2:w</title>
<path fill="none" stroke="#000000" d="M279.5387,-495.9627C297.8663,-495.9627 319.0667,-495.9627 339.1364,-495.9627"/>
<polygon fill="#000000" stroke="#000000" points="339.1927,-499.4628 349.1927,-495.9627 339.1926,-492.4628 339.1927,-499.4628"/>
</g>
<!-- b3 -->
<g id="node6" class="node">
<title>b3</title>
<ellipse fill="#8b0000" stroke="#000000" cx="451.1927" cy="-354.9627" rx="105.3333" ry="50.758"/>
<text text-anchor="middle" x="451.1927" y="-369.3627" font-family="Times,serif" font-size="16.00" fill="#ffffff">La politique doit&#45;elle</text>
<text text-anchor="middle" x="451.1927" y="-350.1627" font-family="Times,serif" font-size="16.00" fill="#ffffff">être guidée par</text>
<text text-anchor="middle" x="451.1927" y="-330.9627" font-family="Times,serif" font-size="16.00" fill="#ffffff">un idéal moral ?</text>
</g>
<!-- p1&#45;&gt;b3 -->
<g id="edge6" class="edge">
<title>p1&#45;&gt;b3:w</title>
<path fill="none" stroke="#000000" d="M239.0722,-466.7474C253.1323,-427.9482 283.9253,-363.391 335.0529,-355.7157"/>
<polygon fill="#000000" stroke="#000000" points="335.4794,-359.1938 345.1927,-354.9627 334.9609,-352.213 335.4794,-359.1938"/>
</g>
<!-- b4 -->
<g id="node7" class="node">
<title>b4</title>
<ellipse fill="#8b0000" stroke="#000000" cx="451.1927" cy="-211.9627" rx="131.7543" ry="50.758"/>
<text text-anchor="middle" x="451.1927" y="-226.3627" font-family="Times,serif" font-size="16.00" fill="#ffffff">L&#39;économie doit&#45;elle être</text>
<text text-anchor="middle" x="451.1927" y="-207.1627" font-family="Times,serif" font-size="16.00" fill="#ffffff">organisée selon le principe</text>
<text text-anchor="middle" x="451.1927" y="-187.9627" font-family="Times,serif" font-size="16.00" fill="#ffffff">de la libre concurrence ?</text>
</g>
<!-- p2&#45;&gt;b4 -->
<g id="edge7" class="edge">
<title>p2&#45;&gt;b4:w</title>
<path fill="none" stroke="#000000" d="M246.3151,-159.5665C260.0464,-180.4855 281.7538,-205.7038 308.9353,-210.9701"/>
<polygon fill="#000000" stroke="#000000" points="308.902,-214.4831 319.1927,-211.9627 309.5763,-207.5157 308.902,-214.4831"/>
</g>
<!-- b5 -->
<g id="node8" class="node">
<title>b5</title>
<ellipse fill="#8b0000" stroke="#000000" cx="451.1927" cy="-59.9627" rx="142.9065" ry="59.9253"/>
<text text-anchor="middle" x="451.1927" y="-83.9627" font-family="Times,serif" font-size="16.00" fill="#ffffff">Faut&#45;il prendre en</text>
<text text-anchor="middle" x="451.1927" y="-64.7627" font-family="Times,serif" font-size="16.00" fill="#ffffff">compte les particularités des</text>
<text text-anchor="middle" x="451.1927" y="-45.5627" font-family="Times,serif" font-size="16.00" fill="#ffffff">individus pour que la société</text>
<text text-anchor="middle" x="451.1927" y="-26.3627" font-family="Times,serif" font-size="16.00" fill="#ffffff">soit plus inclusive ?</text>
</g>
<!-- p2&#45;&gt;b5 -->
<g id="edge8" class="edge">
<title>p2&#45;&gt;b5:w</title>
<path fill="none" stroke="#000000" d="M247.2781,-100.6819C259.2477,-84.0477 276.8278,-65.642 298.1736,-61.0464"/>
<polygon fill="#000000" stroke="#000000" points="298.6716,-64.5131 308.2394,-59.9627 297.9222,-57.5533 298.6716,-64.5131"/>
</g>
<!-- b1&#45;&gt;b2 -->
<!-- c1 -->
<g id="node9" class="node">
<title>c1</title>
<polygon fill="#ffffff" stroke="#7f7f7f" points="732.4579,-660.9627 678.4579,-660.9627 678.4579,-624.9627 732.4579,-624.9627 732.4579,-660.9627"/>
<text text-anchor="middle" x="705.4579" y="-638.1627" font-family="Times,serif" font-size="16.00" fill="#000000">Marx</text>
</g>
<!-- b1&#45;&gt;c1 -->
<g id="edge13" class="edge">
<title>b1&#45;&gt;c1</title>
<path fill="none" stroke="#000000" d="M560.8689,-632.1582C599.2454,-635.0259 639.785,-638.0552 668.1406,-640.1741"/>
<polygon fill="#000000" stroke="#000000" points="668.1486,-643.6844 678.3816,-640.9394 668.6703,-636.7038 668.1486,-643.6844"/>
</g>
<!-- c2 -->
<g id="node10" class="node">
<title>c2</title>
<polygon fill="#ffffff" stroke="#7f7f7f" points="744.2786,-609.9627 666.6372,-609.9627 666.6372,-573.9627 744.2786,-573.9627 744.2786,-609.9627"/>
<text text-anchor="middle" x="705.4579" y="-587.1627" font-family="Times,serif" font-size="16.00" fill="#000000">Rousseau</text>
</g>
<!-- b1&#45;&gt;c2 -->
<g id="edge14" class="edge">
<title>b1&#45;&gt;c2</title>
<path fill="none" stroke="#000000" d="M556.4475,-610.716C591.1257,-606.3517 628.0431,-601.7055 656.4564,-598.1296"/>
<polygon fill="#000000" stroke="#000000" points="657.0352,-601.5845 666.5198,-596.8631 656.161,-594.6393 657.0352,-601.5845"/>
</g>
<!-- b2&#45;&gt;b3 -->
<!-- c3 -->
<g id="node11" class="node">
<title>c3</title>
<polygon fill="#ffffff" stroke="#7f7f7f" points="737.8332,-531.9627 673.0826,-531.9627 673.0826,-495.9627 737.8332,-495.9627 737.8332,-531.9627"/>
<text text-anchor="middle" x="705.4579" y="-509.1627" font-family="Times,serif" font-size="16.00" fill="#000000">Hobbes</text>
</g>
<!-- b2&#45;&gt;c3 -->
<g id="edge15" class="edge">
<title>b2&#45;&gt;c3</title>
<path fill="none" stroke="#000000" d="M552.4156,-503.1285C590.8193,-505.8471 632.517,-508.799 662.6752,-510.934"/>
<polygon fill="#000000" stroke="#000000" points="662.6147,-514.4384 672.837,-511.6533 663.1091,-507.4558 662.6147,-514.4384"/>
</g>
<!-- c4 -->
<g id="node12" class="node">
<title>c4</title>
<polygon fill="#ffffff" stroke="#7f7f7f" points="733.4371,-479.9627 677.4787,-479.9627 677.4787,-443.9627 733.4371,-443.9627 733.4371,-479.9627"/>
<text text-anchor="middle" x="705.4579" y="-457.1627" font-family="Times,serif" font-size="16.00" fill="#000000">Locke</text>
</g>
<!-- b2&#45;&gt;c4 -->
<g id="edge16" class="edge">
<title>b2&#45;&gt;c4</title>
<path fill="none" stroke="#000000" d="M549.8622,-482.7687C590.9988,-477.268 636.3265,-471.2068 667.3934,-467.0526"/>
<polygon fill="#000000" stroke="#000000" points="667.9079,-470.515 677.3558,-465.7204 666.9801,-463.5768 667.9079,-470.515"/>
</g>
<!-- b3&#45;&gt;b4 -->
<!-- c5 -->
<g id="node13" class="node">
<title>c5</title>
<polygon fill="#ffffff" stroke="#7f7f7f" points="746.984,-401.9627 663.9318,-401.9627 663.9318,-365.9627 746.984,-365.9627 746.984,-401.9627"/>
<text text-anchor="middle" x="705.4579" y="-379.1627" font-family="Times,serif" font-size="16.00" fill="#000000">Machiavel</text>
</g>
<!-- b3&#45;&gt;c5 -->
<g id="edge17" class="edge">
<title>b3&#45;&gt;c5</title>
<path fill="none" stroke="#000000" d="M553.8792,-366.6745C588.1273,-370.5806 624.8351,-374.7673 653.5484,-378.0422"/>
<polygon fill="#000000" stroke="#000000" points="653.4137,-381.5494 663.7459,-379.2052 654.207,-374.5945 653.4137,-381.5494"/>
</g>
<!-- c6 -->
<g id="node14" class="node">
<title>c6</title>
<polygon fill="#ffffff" stroke="#7f7f7f" points="750.6726,-348.9627 660.2432,-348.9627 660.2432,-312.9627 750.6726,-312.9627 750.6726,-348.9627"/>
<text text-anchor="middle" x="705.4579" y="-326.1627" font-family="Times,serif" font-size="16.00" fill="#000000">John Rawls</text>
</g>
<!-- b3&#45;&gt;c6 -->
<g id="edge18" class="edge">
<title>b3&#45;&gt;c6</title>
<path fill="none" stroke="#000000" d="M554.9788,-345.1663C587.4895,-342.0976 622.1095,-338.8299 649.9366,-336.2033"/>
<polygon fill="#000000" stroke="#000000" points="650.6237,-339.6541 660.2505,-335.2298 649.9658,-332.6851 650.6237,-339.6541"/>
</g>
<!-- b4&#45;&gt;b5 -->
<!-- c7 -->
<g id="node15" class="node">
<title>c7</title>
<polygon fill="#ffffff" stroke="#7f7f7f" points="760.0251,-271.3644 650.8907,-271.3644 650.8907,-224.5609 760.0251,-224.5609 760.0251,-271.3644"/>
<text text-anchor="middle" x="705.4579" y="-252.7627" font-family="Times,serif" font-size="16.00" fill="#000000">Le libéralisme</text>
<text text-anchor="middle" x="705.4579" y="-233.5627" font-family="Times,serif" font-size="16.00" fill="#000000">économique</text>
</g>
<!-- b4&#45;&gt;c7 -->
<g id="edge19" class="edge">
<title>b4&#45;&gt;c7</title>
<path fill="none" stroke="#000000" d="M574.9735,-229.4881C597.7705,-232.7158 620.7112,-235.9638 640.861,-238.8167"/>
<polygon fill="#000000" stroke="#000000" points="640.4288,-242.2904 650.8208,-240.2269 641.4102,-235.3595 640.4288,-242.2904"/>
</g>
<!-- c8 -->
<g id="node16" class="node">
<title>c8</title>
<polygon fill="#ffffff" stroke="#7f7f7f" points="757.8731,-208.9627 653.0427,-208.9627 653.0427,-172.9627 757.8731,-172.9627 757.8731,-208.9627"/>
<text text-anchor="middle" x="705.4579" y="-186.1627" font-family="Times,serif" font-size="16.00" fill="#000000">Le socialisme</text>
</g>
<!-- b4&#45;&gt;c8 -->
<g id="edge20" class="edge">
<title>b4&#45;&gt;c8</title>
<path fill="none" stroke="#000000" d="M580.1875,-201.3089C602.0698,-199.5016 623.8785,-197.7004 643.0198,-196.1195"/>
<polygon fill="#000000" stroke="#000000" points="643.3887,-199.601 653.0666,-195.2897 642.8124,-192.6248 643.3887,-199.601"/>
</g>
<!-- c9 -->
<g id="node17" class="node">
<title>c9</title>
<polygon fill="#ffffff" stroke="#7f7f7f" points="765.4227,-131.3644 645.4931,-131.3644 645.4931,-84.5609 765.4227,-84.5609 765.4227,-131.3644"/>
<text text-anchor="middle" x="705.4579" y="-112.7627" font-family="Times,serif" font-size="16.00" fill="#000000">L&#39;universalisme</text>
<text text-anchor="middle" x="705.4579" y="-93.5627" font-family="Times,serif" font-size="16.00" fill="#000000">républicain</text>
</g>
<!-- b5&#45;&gt;c9 -->
<g id="edge21" class="edge">
<title>b5&#45;&gt;c9</title>
<path fill="none" stroke="#000000" d="M581.6771,-84.5954C600.1556,-88.0838 618.5397,-91.5543 635.2663,-94.7119"/>
<polygon fill="#000000" stroke="#000000" points="634.9771,-98.2191 645.4528,-96.6349 636.2757,-91.3406 634.9771,-98.2191"/>
</g>
<!-- c10 -->
<g id="node18" class="node">
<title>c10</title>
<polygon fill="#ffffff" stroke="#7f7f7f" points="790.5823,-70.5639 620.3335,-70.5639 620.3335,-5.3614 790.5823,-5.3614 790.5823,-70.5639"/>
<text text-anchor="middle" x="705.4579" y="-52.3627" font-family="Times,serif" font-size="16.00" fill="#000000">Les mouvements</text>
<text text-anchor="middle" x="705.4579" y="-33.1627" font-family="Times,serif" font-size="16.00" fill="#000000">contemporains pour une</text>
<text text-anchor="middle" x="705.4579" y="-13.9627" font-family="Times,serif" font-size="16.00" fill="#000000">société plus inclusive</text>
</g>
<!-- b5&#45;&gt;c10 -->
<g id="edge22" class="edge">
<title>b5&#45;&gt;c10</title>
<path fill="none" stroke="#000000" d="M591.341,-47.8365C597.61,-47.2941 603.8363,-46.7553 609.958,-46.2257"/>
<polygon fill="#000000" stroke="#000000" points="610.4899,-49.6928 620.151,-45.3437 609.8865,-42.7189 610.4899,-49.6928"/>
</g>
<!-- e1 -->
<g id="node19" class="node">
<title>e1</title>
<path fill="#fafafa" stroke="transparent" d="M962.6271,-675.5639C962.6271,-675.5639 810.8175,-675.5639 810.8175,-675.5639 804.8175,-675.5639 798.8175,-669.5639 798.8175,-663.5639 798.8175,-663.5639 798.8175,-622.3614 798.8175,-622.3614 798.8175,-616.3614 804.8175,-610.3614 810.8175,-610.3614 810.8175,-610.3614 962.6271,-610.3614 962.6271,-610.3614 968.6271,-610.3614 974.6271,-616.3614 974.6271,-622.3614 974.6271,-622.3614 974.6271,-663.5639 974.6271,-663.5639 974.6271,-669.5639 968.6271,-675.5639 962.6271,-675.5639"/>
<text text-anchor="middle" x="886.7223" y="-660.9627" font-family="Times,serif" font-size="12.00" fill="#cd2626">L&#39;idéologie de l&#39;intérêt général,</text>
<text text-anchor="middle" x="886.7223" y="-646.5627" font-family="Times,serif" font-size="12.00" fill="#cd2626">l&#39;État comme moyen de</text>
<text text-anchor="middle" x="886.7223" y="-632.1627" font-family="Times,serif" font-size="12.00" fill="#cd2626">domination au service d&#39;une</text>
<text text-anchor="middle" x="886.7223" y="-617.7627" font-family="Times,serif" font-size="12.00" fill="#cd2626">classe sociale particulière</text>
</g>
<!-- c1&#45;&gt;e1 -->
<!-- c2&#45;&gt;c3 -->
<!-- e2 -->
<g id="node20" class="node">
<title>e2</title>
<path fill="#fafafa" stroke="transparent" d="M909.2048,-596.2632C909.2048,-596.2632 864.2398,-596.2632 864.2398,-596.2632 858.2398,-596.2632 852.2398,-590.2632 852.2398,-584.2632 852.2398,-584.2632 852.2398,-571.6621 852.2398,-571.6621 852.2398,-565.6621 858.2398,-559.6621 864.2398,-559.6621 864.2398,-559.6621 909.2048,-559.6621 909.2048,-559.6621 915.2048,-559.6621 921.2048,-565.6621 921.2048,-571.6621 921.2048,-571.6621 921.2048,-584.2632 921.2048,-584.2632 921.2048,-590.2632 915.2048,-596.2632 909.2048,-596.2632"/>
<text text-anchor="middle" x="886.7223" y="-581.5627" font-family="Times,serif" font-size="12.00" fill="#cd2626">La volonté</text>
<text text-anchor="middle" x="886.7223" y="-567.1627" font-family="Times,serif" font-size="12.00" fill="#cd2626">générale</text>
</g>
<!-- c2&#45;&gt;e2 -->
<!-- e3 -->
<g id="node21" class="node">
<title>e3</title>
<path fill="#fafafa" stroke="transparent" d="M931.7035,-544.663C931.7035,-544.663 841.7411,-544.663 841.7411,-544.663 835.7411,-544.663 829.7411,-538.663 829.7411,-532.663 829.7411,-532.663 829.7411,-505.2623 829.7411,-505.2623 829.7411,-499.2623 835.7411,-493.2623 841.7411,-493.2623 841.7411,-493.2623 931.7035,-493.2623 931.7035,-493.2623 937.7035,-493.2623 943.7035,-499.2623 943.7035,-505.2623 943.7035,-505.2623 943.7035,-532.663 943.7035,-532.663 943.7035,-538.663 937.7035,-544.663 931.7035,-544.663"/>
<text text-anchor="middle" x="886.7223" y="-529.7627" font-family="Times,serif" font-size="12.00" fill="#cd2626">L&#39;État&#45;Léviathan</text>
<text text-anchor="middle" x="886.7223" y="-515.3627" font-family="Times,serif" font-size="12.00" fill="#cd2626">comme condition de</text>
<text text-anchor="middle" x="886.7223" y="-500.9627" font-family="Times,serif" font-size="12.00" fill="#cd2626">l&#39;ordre social</text>
</g>
<!-- c3&#45;&gt;e3 -->
<!-- c4&#45;&gt;c5 -->
<!-- e4 -->
<g id="node22" class="node">
<title>e4</title>
<path fill="#fafafa" stroke="transparent" d="M927.6815,-479.663C927.6815,-479.663 845.7631,-479.663 845.7631,-479.663 839.7631,-479.663 833.7631,-473.663 833.7631,-467.663 833.7631,-467.663 833.7631,-440.2623 833.7631,-440.2623 833.7631,-434.2623 839.7631,-428.2623 845.7631,-428.2623 845.7631,-428.2623 927.6815,-428.2623 927.6815,-428.2623 933.6815,-428.2623 939.6815,-434.2623 939.6815,-440.2623 939.6815,-440.2623 939.6815,-467.663 939.6815,-467.663 939.6815,-473.663 933.6815,-479.663 927.6815,-479.663"/>
<text text-anchor="middle" x="886.7223" y="-464.7627" font-family="Times,serif" font-size="12.00" fill="#cd2626">L&#39;État de droit</text>
<text text-anchor="middle" x="886.7223" y="-450.3627" font-family="Times,serif" font-size="12.00" fill="#cd2626">contre le pouvoir</text>
<text text-anchor="middle" x="886.7223" y="-435.9627" font-family="Times,serif" font-size="12.00" fill="#cd2626">absolu et arbitraire</text>
</g>
<!-- c4&#45;&gt;e4 -->
<!-- e5 -->
<g id="node23" class="node">
<title>e5</title>
<path fill="#fafafa" stroke="transparent" d="M934.0193,-413.663C934.0193,-413.663 839.4253,-413.663 839.4253,-413.663 833.4253,-413.663 827.4253,-407.663 827.4253,-401.663 827.4253,-401.663 827.4253,-374.2623 827.4253,-374.2623 827.4253,-368.2623 833.4253,-362.2623 839.4253,-362.2623 839.4253,-362.2623 934.0193,-362.2623 934.0193,-362.2623 940.0193,-362.2623 946.0193,-368.2623 946.0193,-374.2623 946.0193,-374.2623 946.0193,-401.663 946.0193,-401.663 946.0193,-407.663 940.0193,-413.663 934.0193,-413.663"/>
<text text-anchor="middle" x="886.7223" y="-398.7627" font-family="Times,serif" font-size="12.00" fill="#cd2626">Le réalisme politique</text>
<text text-anchor="middle" x="886.7223" y="-384.3627" font-family="Times,serif" font-size="12.00" fill="#cd2626">contre l&#39;idéalisme</text>
<text text-anchor="middle" x="886.7223" y="-369.9627" font-family="Times,serif" font-size="12.00" fill="#cd2626">politique</text>
</g>
<!-- c5&#45;&gt;e5 -->
<!-- c6&#45;&gt;c7 -->
<!-- e6 -->
<g id="node24" class="node">
<title>e6</title>
<path fill="#fafafa" stroke="transparent" d="M945.0294,-348.2632C945.0294,-348.2632 828.4152,-348.2632 828.4152,-348.2632 822.4152,-348.2632 816.4152,-342.2632 816.4152,-336.2632 816.4152,-336.2632 816.4152,-323.6621 816.4152,-323.6621 816.4152,-317.6621 822.4152,-311.6621 828.4152,-311.6621 828.4152,-311.6621 945.0294,-311.6621 945.0294,-311.6621 951.0294,-311.6621 957.0294,-317.6621 957.0294,-323.6621 957.0294,-323.6621 957.0294,-336.2632 957.0294,-336.2632 957.0294,-342.2632 951.0294,-348.2632 945.0294,-348.2632"/>
<text text-anchor="middle" x="886.7223" y="-333.5627" font-family="Times,serif" font-size="12.00" fill="#cd2626">Les principes de justice</text>
<text text-anchor="middle" x="886.7223" y="-319.1627" font-family="Times,serif" font-size="12.00" fill="#cd2626">≠ les conceptions du bien</text>
</g>
<!-- c6&#45;&gt;e6 -->
<!-- e7 -->
<g id="node25" class="node">
<title>e7</title>
<path fill="#fafafa" stroke="transparent" d="M940.3468,-291.5639C940.3468,-291.5639 833.0978,-291.5639 833.0978,-291.5639 827.0978,-291.5639 821.0978,-285.5639 821.0978,-279.5639 821.0978,-279.5639 821.0978,-238.3614 821.0978,-238.3614 821.0978,-232.3614 827.0978,-226.3614 833.0978,-226.3614 833.0978,-226.3614 940.3468,-226.3614 940.3468,-226.3614 946.3468,-226.3614 952.3468,-232.3614 952.3468,-238.3614 952.3468,-238.3614 952.3468,-279.5639 952.3468,-279.5639 952.3468,-285.5639 946.3468,-291.5639 940.3468,-291.5639"/>
<text text-anchor="middle" x="886.7223" y="-276.9627" font-family="Times,serif" font-size="12.00" fill="#cd2626">L&#39;argument moral</text>
<text text-anchor="middle" x="886.7223" y="-262.5627" font-family="Times,serif" font-size="12.00" fill="#cd2626">de l&#39;autonomie,</text>
<text text-anchor="middle" x="886.7223" y="-248.1627" font-family="Times,serif" font-size="12.00" fill="#cd2626">l&#39;argument économique</text>
<text text-anchor="middle" x="886.7223" y="-233.7627" font-family="Times,serif" font-size="12.00" fill="#cd2626">de l&#39;efficacité</text>
</g>
<!-- c7&#45;&gt;e7 -->
<!-- c8&#45;&gt;c9 -->
<!-- e8 -->
<g id="node26" class="node">
<title>e8</title>
<path fill="#fafafa" stroke="transparent" d="M945.3572,-212.663C945.3572,-212.663 828.0874,-212.663 828.0874,-212.663 822.0874,-212.663 816.0874,-206.663 816.0874,-200.663 816.0874,-200.663 816.0874,-173.2623 816.0874,-173.2623 816.0874,-167.2623 822.0874,-161.2623 828.0874,-161.2623 828.0874,-161.2623 945.3572,-161.2623 945.3572,-161.2623 951.3572,-161.2623 957.3572,-167.2623 957.3572,-173.2623 957.3572,-173.2623 957.3572,-200.663 957.3572,-200.663 957.3572,-206.663 951.3572,-212.663 945.3572,-212.663"/>
<text text-anchor="middle" x="886.7223" y="-197.7627" font-family="Times,serif" font-size="12.00" fill="#cd2626">Les limites du libéralisme</text>
<text text-anchor="middle" x="886.7223" y="-183.3627" font-family="Times,serif" font-size="12.00" fill="#cd2626">économique, la défense</text>
<text text-anchor="middle" x="886.7223" y="-168.9627" font-family="Times,serif" font-size="12.00" fill="#cd2626">de l&#39;État&#45;social</text>
</g>
<!-- c8&#45;&gt;e8 -->
<!-- e9 -->
<g id="node27" class="node">
<title>e9</title>
<path fill="#fafafa" stroke="transparent" d="M939.6959,-133.663C939.6959,-133.663 833.7487,-133.663 833.7487,-133.663 827.7487,-133.663 821.7487,-127.663 821.7487,-121.663 821.7487,-121.663 821.7487,-94.2623 821.7487,-94.2623 821.7487,-88.2623 827.7487,-82.2623 833.7487,-82.2623 833.7487,-82.2623 939.6959,-82.2623 939.6959,-82.2623 945.6959,-82.2623 951.6959,-88.2623 951.6959,-94.2623 951.6959,-94.2623 951.6959,-121.663 951.6959,-121.663 951.6959,-127.663 945.6959,-133.663 939.6959,-133.663"/>
<text text-anchor="middle" x="886.7223" y="-118.7627" font-family="Times,serif" font-size="12.00" fill="#cd2626">La conception politique</text>
<text text-anchor="middle" x="886.7223" y="-104.3627" font-family="Times,serif" font-size="12.00" fill="#cd2626">de la nation, la figure</text>
<text text-anchor="middle" x="886.7223" y="-89.9627" font-family="Times,serif" font-size="12.00" fill="#cd2626">du citoyen abstrait</text>
</g>
<!-- c9&#45;&gt;e9 -->
<!-- e10 -->
<g id="node28" class="node">
<title>e10</title>
<path fill="#fafafa" stroke="transparent" d="M931.0395,-56.2632C931.0395,-56.2632 842.4051,-56.2632 842.4051,-56.2632 836.4051,-56.2632 830.4051,-50.2632 830.4051,-44.2632 830.4051,-44.2632 830.4051,-31.6621 830.4051,-31.6621 830.4051,-25.6621 836.4051,-19.6621 842.4051,-19.6621 842.4051,-19.6621 931.0395,-19.6621 931.0395,-19.6621 937.0395,-19.6621 943.0395,-25.6621 943.0395,-31.6621 943.0395,-31.6621 943.0395,-44.2632 943.0395,-44.2632 943.0395,-50.2632 937.0395,-56.2632 931.0395,-56.2632"/>
<text text-anchor="middle" x="886.7223" y="-41.5627" font-family="Times,serif" font-size="12.00" fill="#cd2626">Le féminisme,</text>
<text text-anchor="middle" x="886.7223" y="-27.1627" font-family="Times,serif" font-size="12.00" fill="#cd2626">le multiculturalisme</text>
</g>
<!-- c10&#45;&gt;e10 -->
</g>
</svg>
