<?xml version="1.0" encoding="UTF-8" standalone="no"?>
<!DOCTYPE svg PUBLIC "-//W3C//DTD SVG 1.1//EN"
 "http://www.w3.org/Graphics/SVG/1.1/DTD/svg11.dtd">
<!-- Generated by graphviz version 2.40.1 (20161225.0304)
 -->
<!-- Title: G Pages: 1 -->
<svg width="820pt" height="474pt"
 viewBox="0.00 0.00 819.83 473.80" xmlns="http://www.w3.org/2000/svg" xmlns:xlink="http://www.w3.org/1999/xlink">
<g id="graph0" class="graph" transform="scale(1 1) rotate(0) translate(21.6 452.2)">
<title>G</title>
<polygon fill="#fafafa" stroke="transparent" points="-21.6,21.6 -21.6,-452.2 798.2341,-452.2 798.2341,21.6 -21.6,21.6"/>
<!-- a1 -->
<g id="node1" class="node">
<title>a1</title>
<ellipse fill="#050505" stroke="#000000" cx="88.8904" cy="-209.8" rx="88.7809" ry="66.5027"/>
<text text-anchor="middle" x="88.8904" y="-236.8" font-family="Times,serif" font-size="18.00" fill="#ffffff">Peut&#45;on définir</text>
<text text-anchor="middle" x="88.8904" y="-215.2" font-family="Times,serif" font-size="18.00" fill="#ffffff">ce qui fait la</text>
<text text-anchor="middle" x="88.8904" y="-193.6" font-family="Times,serif" font-size="18.00" fill="#ffffff">valeur d&#39;une</text>
<text text-anchor="middle" x="88.8904" y="-172" font-family="Times,serif" font-size="18.00" fill="#ffffff">œuvre d&#39;art ?</text>
</g>
<!-- p1 -->
<g id="node2" class="node">
<title>p1</title>
<path fill="#fafafa" stroke="#006400" d="M285.4214,-397.5003C285.4214,-397.5003 215.9004,-397.5003 215.9004,-397.5003 209.9004,-397.5003 203.9004,-391.5003 203.9004,-385.5003 203.9004,-385.5003 203.9004,-334.0997 203.9004,-334.0997 203.9004,-328.0997 209.9004,-322.0997 215.9004,-322.0997 215.9004,-322.0997 285.4214,-322.0997 285.4214,-322.0997 291.4214,-322.0997 297.4214,-328.0997 297.4214,-334.0997 297.4214,-334.0997 297.4214,-385.5003 297.4214,-385.5003 297.4214,-391.5003 291.4214,-397.5003 285.4214,-397.5003"/>
<text text-anchor="middle" x="250.6609" y="-380.8" font-family="Times,serif" font-size="14.00" fill="#006400">L&#39;art du point</text>
<text text-anchor="middle" x="250.6609" y="-364" font-family="Times,serif" font-size="14.00" fill="#006400">de vue de</text>
<text text-anchor="middle" x="250.6609" y="-347.2" font-family="Times,serif" font-size="14.00" fill="#006400">l&#39;œuvre et</text>
<text text-anchor="middle" x="250.6609" y="-330.4" font-family="Times,serif" font-size="14.00" fill="#006400">de l&#39;artiste</text>
</g>
<!-- a1&#45;&gt;p1 -->
<g id="edge1" class="edge">
<title>a1&#45;&gt;p1:w</title>
<path fill="none" stroke="#000000" d="M110.1847,-274.7198C128.0166,-315.259 158.0209,-359.8 203.7808,-359.8"/>
</g>
<!-- p2 -->
<g id="node3" class="node">
<title>p2</title>
<path fill="#fafafa" stroke="#006400" d="M281.3715,-239.2014C281.3715,-239.2014 219.9502,-239.2014 219.9502,-239.2014 213.9502,-239.2014 207.9502,-233.2014 207.9502,-227.2014 207.9502,-227.2014 207.9502,-192.3986 207.9502,-192.3986 207.9502,-186.3986 213.9502,-180.3986 219.9502,-180.3986 219.9502,-180.3986 281.3715,-180.3986 281.3715,-180.3986 287.3715,-180.3986 293.3715,-186.3986 293.3715,-192.3986 293.3715,-192.3986 293.3715,-227.2014 293.3715,-227.2014 293.3715,-233.2014 287.3715,-239.2014 281.3715,-239.2014"/>
<text text-anchor="middle" x="250.6609" y="-222.4" font-family="Times,serif" font-size="14.00" fill="#006400">L&#39;art du</text>
<text text-anchor="middle" x="250.6609" y="-205.6" font-family="Times,serif" font-size="14.00" fill="#006400">point de vue</text>
<text text-anchor="middle" x="250.6609" y="-188.8" font-family="Times,serif" font-size="14.00" fill="#006400">du public</text>
</g>
<!-- a1&#45;&gt;p2 -->
<g id="edge2" class="edge">
<title>a1&#45;&gt;p2:w</title>
<path fill="none" stroke="#000000" d="M178.0645,-209.8C188.049,-209.8 198.0726,-209.8 207.6609,-209.8"/>
</g>
<!-- p3 -->
<g id="node4" class="node">
<title>p3</title>
<path fill="#fafafa" stroke="#006400" d="M275.2079,-97.2014C275.2079,-97.2014 226.1139,-97.2014 226.1139,-97.2014 220.1139,-97.2014 214.1139,-91.2014 214.1139,-85.2014 214.1139,-85.2014 214.1139,-50.3986 214.1139,-50.3986 214.1139,-44.3986 220.1139,-38.3986 226.1139,-38.3986 226.1139,-38.3986 275.2079,-38.3986 275.2079,-38.3986 281.2079,-38.3986 287.2079,-44.3986 287.2079,-50.3986 287.2079,-50.3986 287.2079,-85.2014 287.2079,-85.2014 287.2079,-91.2014 281.2079,-97.2014 275.2079,-97.2014"/>
<text text-anchor="middle" x="250.6609" y="-80.4" font-family="Times,serif" font-size="14.00" fill="#006400">Les</text>
<text text-anchor="middle" x="250.6609" y="-63.6" font-family="Times,serif" font-size="14.00" fill="#006400">jugements</text>
<text text-anchor="middle" x="250.6609" y="-46.8" font-family="Times,serif" font-size="14.00" fill="#006400">de goût</text>
</g>
<!-- a1&#45;&gt;p3 -->
<g id="edge3" class="edge">
<title>a1&#45;&gt;p3:w</title>
<path fill="none" stroke="#000000" d="M115.7877,-145.8619C136.3669,-108.1714 168.8651,-67.8 213.6609,-67.8"/>
</g>
<!-- p1&#45;&gt;p2 -->
<!-- b1 -->
<g id="node5" class="node">
<title>b1</title>
<ellipse fill="#8b0000" stroke="#000000" cx="404.5833" cy="-359.8" rx="81.0847" ry="46.2727"/>
<text text-anchor="middle" x="404.5833" y="-374.2" font-family="Times,serif" font-size="16.00" fill="#ffffff">L&#39;artiste</text>
<text text-anchor="middle" x="404.5833" y="-355" font-family="Times,serif" font-size="16.00" fill="#ffffff">n&#39;obéit&#45;il à</text>
<text text-anchor="middle" x="404.5833" y="-335.8" font-family="Times,serif" font-size="16.00" fill="#ffffff">aucune règle ?</text>
</g>
<!-- p1&#45;&gt;b1 -->
<g id="edge6" class="edge">
<title>p1&#45;&gt;b1:w</title>
<path fill="none" stroke="#000000" d="M297.7337,-359.8C302.8398,-359.8 308.0497,-359.8 313.189,-359.8"/>
<polygon fill="#000000" stroke="#000000" points="313.5834,-363.3001 323.5833,-359.8 313.5833,-356.3001 313.5834,-363.3001"/>
</g>
<!-- p2&#45;&gt;p3 -->
<!-- b2 -->
<g id="node6" class="node">
<title>b2</title>
<ellipse fill="#8b0000" stroke="#000000" cx="404.5833" cy="-211.8" rx="74.3907" ry="46.2727"/>
<text text-anchor="middle" x="404.5833" y="-226.2" font-family="Times,serif" font-size="16.00" fill="#ffffff">Qu&#39;est&#45;ce que</text>
<text text-anchor="middle" x="404.5833" y="-207" font-family="Times,serif" font-size="16.00" fill="#ffffff">l&#39;art nous</text>
<text text-anchor="middle" x="404.5833" y="-187.8" font-family="Times,serif" font-size="16.00" fill="#ffffff">apporte ?</text>
</g>
<!-- p2&#45;&gt;b2 -->
<g id="edge7" class="edge">
<title>p2&#45;&gt;b2:w</title>
<path fill="none" stroke="#000000" d="M293.6644,-211.285C302.0408,-211.4967 310.9133,-211.6701 319.5674,-211.7509"/>
<polygon fill="#000000" stroke="#000000" points="319.5663,-215.2509 329.5833,-211.8 319.6006,-208.251 319.5663,-215.2509"/>
</g>
<!-- b3 -->
<g id="node7" class="node">
<title>b3</title>
<ellipse fill="#8b0000" stroke="#000000" cx="404.5833" cy="-63.8" rx="58.5142" ry="46.2727"/>
<text text-anchor="middle" x="404.5833" y="-78.2" font-family="Times,serif" font-size="16.00" fill="#ffffff">Les goûts</text>
<text text-anchor="middle" x="404.5833" y="-59" font-family="Times,serif" font-size="16.00" fill="#ffffff">sont&#45;ils</text>
<text text-anchor="middle" x="404.5833" y="-39.8" font-family="Times,serif" font-size="16.00" fill="#ffffff">relatifs ?</text>
</g>
<!-- p3&#45;&gt;b3 -->
<g id="edge8" class="edge">
<title>p3&#45;&gt;b3:w</title>
<path fill="none" stroke="#000000" d="M287.6101,-65.5196C302.1491,-64.7757 319.244,-64.0846 335.557,-63.869"/>
<polygon fill="#000000" stroke="#000000" points="335.6077,-67.3688 345.5833,-63.8 335.5595,-60.369 335.6077,-67.3688"/>
</g>
<!-- b1&#45;&gt;b2 -->
<!-- c1 -->
<g id="node8" class="node">
<title>c1</title>
<polygon fill="#ffffff" stroke="#7f7f7f" points="608.7337,-427.4012 511.5897,-427.4012 511.5897,-362.1988 608.7337,-362.1988 608.7337,-427.4012"/>
<text text-anchor="middle" x="560.1617" y="-409.2" font-family="Times,serif" font-size="16.00" fill="#000000">L&#39;esthétique</text>
<text text-anchor="middle" x="560.1617" y="-390" font-family="Times,serif" font-size="16.00" fill="#000000">classique</text>
<text text-anchor="middle" x="560.1617" y="-370.8" font-family="Times,serif" font-size="16.00" fill="#000000">du Beau</text>
</g>
<!-- b1&#45;&gt;c1 -->
<g id="edge11" class="edge">
<title>b1&#45;&gt;c1</title>
<path fill="none" stroke="#000000" d="M480.0938,-376.7874C487.2721,-378.4023 494.4763,-380.023 501.4616,-381.5944"/>
<polygon fill="#000000" stroke="#000000" points="500.9864,-385.0749 511.5108,-383.8551 502.5228,-378.2456 500.9864,-385.0749"/>
</g>
<!-- c2 -->
<g id="node9" class="node">
<title>c2</title>
<polygon fill="#ffffff" stroke="#7f7f7f" points="608.7337,-343.2017 511.5897,-343.2017 511.5897,-296.3983 608.7337,-296.3983 608.7337,-343.2017"/>
<text text-anchor="middle" x="560.1617" y="-324.6" font-family="Times,serif" font-size="16.00" fill="#000000">L&#39;esthétique</text>
<text text-anchor="middle" x="560.1617" y="-305.4" font-family="Times,serif" font-size="16.00" fill="#000000">du génie</text>
</g>
<!-- b1&#45;&gt;c2 -->
<g id="edge12" class="edge">
<title>b1&#45;&gt;c2</title>
<path fill="none" stroke="#000000" d="M478.7273,-340.7372C486.4546,-338.7505 494.23,-336.7514 501.7475,-334.8186"/>
<polygon fill="#000000" stroke="#000000" points="502.6424,-338.2024 511.4559,-332.3225 500.8993,-331.4229 502.6424,-338.2024"/>
</g>
<!-- b2&#45;&gt;b3 -->
<!-- c3 -->
<g id="node10" class="node">
<title>c3</title>
<polygon fill="#ffffff" stroke="#7f7f7f" points="588.5514,-254.8 531.772,-254.8 531.772,-218.8 588.5514,-218.8 588.5514,-254.8"/>
<text text-anchor="middle" x="560.1617" y="-232" font-family="Times,serif" font-size="16.00" fill="#000000">Platon</text>
</g>
<!-- b2&#45;&gt;c3 -->
<g id="edge13" class="edge">
<title>b2&#45;&gt;c3</title>
<path fill="none" stroke="#000000" d="M476.907,-223.4217C492.336,-225.901 508.0532,-228.4266 521.6146,-230.6058"/>
<polygon fill="#000000" stroke="#000000" points="521.0956,-234.0673 531.5243,-232.1982 522.2063,-227.1559 521.0956,-234.0673"/>
</g>
<!-- c4 -->
<g id="node11" class="node">
<title>c4</title>
<polygon fill="#ffffff" stroke="#7f7f7f" points="594.984,-196.8 525.3394,-196.8 525.3394,-160.8 594.984,-160.8 594.984,-196.8"/>
<text text-anchor="middle" x="560.1617" y="-174" font-family="Times,serif" font-size="16.00" fill="#000000">Bergson</text>
</g>
<!-- b2&#45;&gt;c4 -->
<g id="edge14" class="edge">
<title>b2&#45;&gt;c4</title>
<path fill="none" stroke="#000000" d="M475.0893,-196.8449C488.6565,-193.9671 502.5219,-191.0261 515.0151,-188.3761"/>
<polygon fill="#000000" stroke="#000000" points="516.0938,-191.7253 525.1499,-186.2264 514.6413,-184.8776 516.0938,-191.7253"/>
</g>
<!-- c5 -->
<g id="node12" class="node">
<title>c5</title>
<polygon fill="#ffffff" stroke="#7f7f7f" points="597.7087,-118.8 522.6147,-118.8 522.6147,-82.8 597.7087,-82.8 597.7087,-118.8"/>
<text text-anchor="middle" x="560.1617" y="-96" font-family="Times,serif" font-size="16.00" fill="#000000">Bourdieu</text>
</g>
<!-- b3&#45;&gt;c5 -->
<g id="edge15" class="edge">
<title>b3&#45;&gt;c5</title>
<path fill="none" stroke="#000000" d="M461.1908,-77.2625C478.0269,-81.2665 496.2961,-85.6113 512.5017,-89.4654"/>
<polygon fill="#000000" stroke="#000000" points="511.7556,-92.8855 522.2941,-91.7942 513.3753,-86.0754 511.7556,-92.8855"/>
</g>
<!-- c6 -->
<g id="node13" class="node">
<title>c6</title>
<polygon fill="#ffffff" stroke="#7f7f7f" points="587.761,-52.8 532.5624,-52.8 532.5624,-16.8 587.761,-16.8 587.761,-52.8"/>
<text text-anchor="middle" x="560.1617" y="-30" font-family="Times,serif" font-size="16.00" fill="#000000">Hume</text>
</g>
<!-- b3&#45;&gt;c6 -->
<g id="edge16" class="edge">
<title>b3&#45;&gt;c6</title>
<path fill="none" stroke="#000000" d="M462.073,-53.0839C482.2826,-49.3168 504.4576,-45.1833 522.6032,-41.801"/>
<polygon fill="#000000" stroke="#000000" points="523.3136,-45.2289 532.5029,-39.9556 522.0308,-38.3474 523.3136,-45.2289"/>
</g>
<!-- e1 -->
<g id="node14" class="node">
<title>e1</title>
<path fill="#fafafa" stroke="transparent" d="M729.9861,-430.4012C729.9861,-430.4012 663.3457,-430.4012 663.3457,-430.4012 657.3457,-430.4012 651.3457,-424.4012 651.3457,-418.4012 651.3457,-418.4012 651.3457,-377.1988 651.3457,-377.1988 651.3457,-371.1988 657.3457,-365.1988 663.3457,-365.1988 663.3457,-365.1988 729.9861,-365.1988 729.9861,-365.1988 735.9861,-365.1988 741.9861,-371.1988 741.9861,-377.1988 741.9861,-377.1988 741.9861,-418.4012 741.9861,-418.4012 741.9861,-424.4012 735.9861,-430.4012 729.9861,-430.4012"/>
<text text-anchor="middle" x="696.6659" y="-415.8" font-family="Times,serif" font-size="12.00" fill="#cd2626">L&#39;harmonie</text>
<text text-anchor="middle" x="696.6659" y="-401.4" font-family="Times,serif" font-size="12.00" fill="#cd2626">comme respect</text>
<text text-anchor="middle" x="696.6659" y="-387" font-family="Times,serif" font-size="12.00" fill="#cd2626">des proportions</text>
<text text-anchor="middle" x="696.6659" y="-372.6" font-family="Times,serif" font-size="12.00" fill="#cd2626">(Pythagore)</text>
</g>
<!-- c1&#45;&gt;e1 -->
<!-- c2&#45;&gt;c3 -->
<!-- e2 -->
<g id="node15" class="node">
<title>e2</title>
<path fill="#fafafa" stroke="transparent" d="M764.6023,-350.4012C764.6023,-350.4012 628.7295,-350.4012 628.7295,-350.4012 622.7295,-350.4012 616.7295,-344.4012 616.7295,-338.4012 616.7295,-338.4012 616.7295,-297.1988 616.7295,-297.1988 616.7295,-291.1988 622.7295,-285.1988 628.7295,-285.1988 628.7295,-285.1988 764.6023,-285.1988 764.6023,-285.1988 770.6023,-285.1988 776.6023,-291.1988 776.6023,-297.1988 776.6023,-297.1988 776.6023,-338.4012 776.6023,-338.4012 776.6023,-344.4012 770.6023,-350.4012 764.6023,-350.4012"/>
<text text-anchor="middle" x="696.6659" y="-335.8" font-family="Times,serif" font-size="12.00" fill="#cd2626">Le génie :</text>
<text text-anchor="middle" x="696.6659" y="-321.4" font-family="Times,serif" font-size="12.00" fill="#cd2626">maîtrise parfaite des règles,</text>
<text text-anchor="middle" x="696.6659" y="-307" font-family="Times,serif" font-size="12.00" fill="#cd2626">invention de règles (Kant)</text>
<text text-anchor="middle" x="696.6659" y="-292.6" font-family="Times,serif" font-size="12.00" fill="#cd2626">ou dépassement des règles ?</text>
</g>
<!-- c2&#45;&gt;e2 -->
<!-- e3 -->
<g id="node16" class="node">
<title>e3</title>
<path fill="#fafafa" stroke="transparent" d="M740.2873,-266.5004C740.2873,-266.5004 653.0445,-266.5004 653.0445,-266.5004 647.0445,-266.5004 641.0445,-260.5004 641.0445,-254.5004 641.0445,-254.5004 641.0445,-227.0996 641.0445,-227.0996 641.0445,-221.0996 647.0445,-215.0996 653.0445,-215.0996 653.0445,-215.0996 740.2873,-215.0996 740.2873,-215.0996 746.2873,-215.0996 752.2873,-221.0996 752.2873,-227.0996 752.2873,-227.0996 752.2873,-254.5004 752.2873,-254.5004 752.2873,-260.5004 746.2873,-266.5004 740.2873,-266.5004"/>
<text text-anchor="middle" x="696.6659" y="-251.6" font-family="Times,serif" font-size="12.00" fill="#cd2626">La séduction stérile</text>
<text text-anchor="middle" x="696.6659" y="-237.2" font-family="Times,serif" font-size="12.00" fill="#cd2626">voire dangereuse</text>
<text text-anchor="middle" x="696.6659" y="-222.8" font-family="Times,serif" font-size="12.00" fill="#cd2626">des apparence</text>
</g>
<!-- c3&#45;&gt;e3 -->
<!-- c4&#45;&gt;c5 -->
<!-- e4 -->
<g id="node17" class="node">
<title>e4</title>
<path fill="#fafafa" stroke="transparent" d="M726.7947,-201.5004C726.7947,-201.5004 666.5371,-201.5004 666.5371,-201.5004 660.5371,-201.5004 654.5371,-195.5004 654.5371,-189.5004 654.5371,-189.5004 654.5371,-162.0996 654.5371,-162.0996 654.5371,-156.0996 660.5371,-150.0996 666.5371,-150.0996 666.5371,-150.0996 726.7947,-150.0996 726.7947,-150.0996 732.7947,-150.0996 738.7947,-156.0996 738.7947,-162.0996 738.7947,-162.0996 738.7947,-189.5004 738.7947,-189.5004 738.7947,-195.5004 732.7947,-201.5004 726.7947,-201.5004"/>
<text text-anchor="middle" x="696.6659" y="-186.6" font-family="Times,serif" font-size="12.00" fill="#cd2626">La richesse de</text>
<text text-anchor="middle" x="696.6659" y="-172.2" font-family="Times,serif" font-size="12.00" fill="#cd2626">l&#39;expérience</text>
<text text-anchor="middle" x="696.6659" y="-157.8" font-family="Times,serif" font-size="12.00" fill="#cd2626">esthétique</text>
</g>
<!-- c4&#45;&gt;e4 -->
<!-- e5 -->
<g id="node18" class="node">
<title>e5</title>
<path fill="#fafafa" stroke="transparent" d="M741.8124,-130.5004C741.8124,-130.5004 651.5194,-130.5004 651.5194,-130.5004 645.5194,-130.5004 639.5194,-124.5004 639.5194,-118.5004 639.5194,-118.5004 639.5194,-91.0996 639.5194,-91.0996 639.5194,-85.0996 645.5194,-79.0996 651.5194,-79.0996 651.5194,-79.0996 741.8124,-79.0996 741.8124,-79.0996 747.8124,-79.0996 753.8124,-85.0996 753.8124,-91.0996 753.8124,-91.0996 753.8124,-118.5004 753.8124,-118.5004 753.8124,-124.5004 747.8124,-130.5004 741.8124,-130.5004"/>
<text text-anchor="middle" x="696.6659" y="-115.6" font-family="Times,serif" font-size="12.00" fill="#cd2626">L&#39;espace</text>
<text text-anchor="middle" x="696.6659" y="-101.2" font-family="Times,serif" font-size="12.00" fill="#cd2626">social des goûts,</text>
<text text-anchor="middle" x="696.6659" y="-86.8" font-family="Times,serif" font-size="12.00" fill="#cd2626">la distinction sociale</text>
</g>
<!-- c5&#45;&gt;e5 -->
<!-- e6 -->
<g id="node19" class="node">
<title>e6</title>
<path fill="#fafafa" stroke="transparent" d="M753.1203,-65.4012C753.1203,-65.4012 640.2115,-65.4012 640.2115,-65.4012 634.2115,-65.4012 628.2115,-59.4012 628.2115,-53.4012 628.2115,-53.4012 628.2115,-12.1988 628.2115,-12.1988 628.2115,-6.1988 634.2115,-.1988 640.2115,-.1988 640.2115,-.1988 753.1203,-.1988 753.1203,-.1988 759.1203,-.1988 765.1203,-6.1988 765.1203,-12.1988 765.1203,-12.1988 765.1203,-53.4012 765.1203,-53.4012 765.1203,-59.4012 759.1203,-65.4012 753.1203,-65.4012"/>
<text text-anchor="middle" x="696.6659" y="-50.8" font-family="Times,serif" font-size="12.00" fill="#cd2626">L&#39;éducation du goût par</text>
<text text-anchor="middle" x="696.6659" y="-36.4" font-family="Times,serif" font-size="12.00" fill="#cd2626">l&#39;expérience, la pratique</text>
<text text-anchor="middle" x="696.6659" y="-22" font-family="Times,serif" font-size="12.00" fill="#cd2626">et les connaissances</text>
<text text-anchor="middle" x="696.6659" y="-7.6" font-family="Times,serif" font-size="12.00" fill="#cd2626">artistiques</text>
</g>
<!-- c6&#45;&gt;e6 -->
</g>
</svg>
