<?xml version="1.0" encoding="UTF-8" standalone="no"?>
<!DOCTYPE svg PUBLIC "-//W3C//DTD SVG 1.1//EN"
 "http://www.w3.org/Graphics/SVG/1.1/DTD/svg11.dtd">
<!-- Generated by graphviz version 2.40.1 (20161225.0304)
 -->
<!-- Title: G Pages: 1 -->
<svg width="1009pt" height="720pt"
 viewBox="0.00 0.00 1008.94 719.80" xmlns="http://www.w3.org/2000/svg" xmlns:xlink="http://www.w3.org/1999/xlink">
<g id="graph0" class="graph" transform="scale(1 1) rotate(0) translate(21.6 698.2)">
<title>G</title>
<polygon fill="#fafafa" stroke="transparent" points="-21.6,21.6 -21.6,-698.2 987.3357,-698.2 987.3357,21.6 -21.6,21.6"/>
<!-- a1 -->
<g id="node1" class="node">
<title>a1</title>
<ellipse fill="#050505" stroke="#000000" cx="95.7787" cy="-395.2" rx="95.558" ry="51.4548"/>
<text text-anchor="middle" x="95.7787" y="-411.4" font-family="Times,serif" font-size="18.00" fill="#ffffff">Comment</text>
<text text-anchor="middle" x="95.7787" y="-389.8" font-family="Times,serif" font-size="18.00" fill="#ffffff">peut&#45;on parvenir</text>
<text text-anchor="middle" x="95.7787" y="-368.2" font-family="Times,serif" font-size="18.00" fill="#ffffff">à la vérité ?</text>
</g>
<!-- p1 -->
<g id="node2" class="node">
<title>p1</title>
<path fill="#fafafa" stroke="#006400" d="M322.2959,-633.8019C322.2959,-633.8019 254.4777,-633.8019 254.4777,-633.8019 248.4777,-633.8019 242.4777,-627.8019 242.4777,-621.8019 242.4777,-621.8019 242.4777,-604.5981 242.4777,-604.5981 242.4777,-598.5981 248.4777,-592.5981 254.4777,-592.5981 254.4777,-592.5981 322.2959,-592.5981 322.2959,-592.5981 328.2959,-592.5981 334.2959,-598.5981 334.2959,-604.5981 334.2959,-604.5981 334.2959,-621.8019 334.2959,-621.8019 334.2959,-627.8019 328.2959,-633.8019 322.2959,-633.8019"/>
<text text-anchor="middle" x="288.3868" y="-617.4" font-family="Times,serif" font-size="14.00" fill="#006400">I – La valeur</text>
<text text-anchor="middle" x="288.3868" y="-600.6" font-family="Times,serif" font-size="14.00" fill="#006400">de la vérité</text>
</g>
<!-- a1&#45;&gt;p1 -->
<g id="edge1" class="edge">
<title>a1&#45;&gt;p1:w</title>
<path fill="none" stroke="#000000" d="M106.4787,-446.5869C123.2555,-511.0372 162.4556,-613.2 242.3868,-613.2"/>
</g>
<!-- p2 -->
<g id="node3" class="node">
<title>p2</title>
<path fill="#fafafa" stroke="#006400" d="M327.6664,-424.6014C327.6664,-424.6014 249.1072,-424.6014 249.1072,-424.6014 243.1072,-424.6014 237.1072,-418.6014 237.1072,-412.6014 237.1072,-412.6014 237.1072,-377.7986 237.1072,-377.7986 237.1072,-371.7986 243.1072,-365.7986 249.1072,-365.7986 249.1072,-365.7986 327.6664,-365.7986 327.6664,-365.7986 333.6664,-365.7986 339.6664,-371.7986 339.6664,-377.7986 339.6664,-377.7986 339.6664,-412.6014 339.6664,-412.6014 339.6664,-418.6014 333.6664,-424.6014 327.6664,-424.6014"/>
<text text-anchor="middle" x="288.3868" y="-407.8" font-family="Times,serif" font-size="14.00" fill="#006400">II – La vérité :</text>
<text text-anchor="middle" x="288.3868" y="-391" font-family="Times,serif" font-size="14.00" fill="#006400">impossible à</text>
<text text-anchor="middle" x="288.3868" y="-374.2" font-family="Times,serif" font-size="14.00" fill="#006400">atteindre ?</text>
</g>
<!-- a1&#45;&gt;p2 -->
<g id="edge2" class="edge">
<title>a1&#45;&gt;p2:w</title>
<path fill="none" stroke="#000000" d="M191.7568,-395.2C207.0208,-395.2 222.636,-395.2 237.3868,-395.2"/>
</g>
<!-- p3 -->
<g id="node4" class="node">
<title>p3</title>
<path fill="#fafafa" stroke="#006400" d="M338.0459,-225.8019C338.0459,-225.8019 238.7277,-225.8019 238.7277,-225.8019 232.7277,-225.8019 226.7277,-219.8019 226.7277,-213.8019 226.7277,-213.8019 226.7277,-196.5981 226.7277,-196.5981 226.7277,-190.5981 232.7277,-184.5981 238.7277,-184.5981 238.7277,-184.5981 338.0459,-184.5981 338.0459,-184.5981 344.0459,-184.5981 350.0459,-190.5981 350.0459,-196.5981 350.0459,-196.5981 350.0459,-213.8019 350.0459,-213.8019 350.0459,-219.8019 344.0459,-225.8019 338.0459,-225.8019"/>
<text text-anchor="middle" x="288.3868" y="-209.4" font-family="Times,serif" font-size="14.00" fill="#006400">III – La source de</text>
<text text-anchor="middle" x="288.3868" y="-192.6" font-family="Times,serif" font-size="14.00" fill="#006400">nos connaissances</text>
</g>
<!-- a1&#45;&gt;p3 -->
<g id="edge3" class="edge">
<title>a1&#45;&gt;p3:w</title>
<path fill="none" stroke="#000000" d="M107.4487,-344.0335C123.6695,-287.7584 158.9819,-205.2 226.5575,-205.2"/>
</g>
<!-- p1&#45;&gt;p2 -->
<!-- p1&#45;&gt;p2 -->
<!-- b1 -->
<g id="node5" class="node">
<title>b1</title>
<ellipse fill="#8b0000" stroke="#000000" cx="492.4237" cy="-613.2" rx="99.4747" ry="32.6206"/>
<text text-anchor="middle" x="492.4237" y="-618" font-family="Times,serif" font-size="16.00" fill="#ffffff">À quoi bon</text>
<text text-anchor="middle" x="492.4237" y="-598.8" font-family="Times,serif" font-size="16.00" fill="#ffffff">chercher la vérité ?</text>
</g>
<!-- p1&#45;&gt;b1 -->
<g id="edge7" class="edge">
<title>p1&#45;&gt;b1:w</title>
<path fill="none" stroke="#000000" d="M334.1432,-613.2C349.3963,-613.2 366.7218,-613.2 383.2564,-613.2"/>
<polygon fill="#000000" stroke="#000000" points="383.4237,-616.7001 393.4237,-613.2 383.4237,-609.7001 383.4237,-616.7001"/>
</g>
<!-- p2&#45;&gt;p3 -->
<!-- b2 -->
<g id="node6" class="node">
<title>b2</title>
<ellipse fill="#8b0000" stroke="#000000" cx="492.4237" cy="-464.2" rx="116.4156" ry="32.6206"/>
<text text-anchor="middle" x="492.4237" y="-469" font-family="Times,serif" font-size="16.00" fill="#ffffff">Peut&#45;on dire « à</text>
<text text-anchor="middle" x="492.4237" y="-449.8" font-family="Times,serif" font-size="16.00" fill="#ffffff">chacun sa vérité ! » ?</text>
</g>
<!-- p2&#45;&gt;b2 -->
<g id="edge8" class="edge">
<title>p2&#45;&gt;b2:w</title>
<path fill="none" stroke="#000000" d="M309.146,-424.4622C323.1203,-440.9174 343.1854,-459.0003 366.3265,-463.2639"/>
<polygon fill="#000000" stroke="#000000" points="366.1433,-466.7618 376.4237,-464.2 366.7896,-459.7917 366.1433,-466.7618"/>
</g>
<!-- b3 -->
<g id="node7" class="node">
<title>b3</title>
<ellipse fill="#8b0000" stroke="#000000" cx="492.4237" cy="-371.2" rx="73.4249" ry="32.6206"/>
<text text-anchor="middle" x="492.4237" y="-376" font-family="Times,serif" font-size="16.00" fill="#ffffff">Faut&#45;il douter</text>
<text text-anchor="middle" x="492.4237" y="-356.8" font-family="Times,serif" font-size="16.00" fill="#ffffff">de tout ?</text>
</g>
<!-- p2&#45;&gt;b3 -->
<g id="edge9" class="edge">
<title>p2&#45;&gt;b3:w</title>
<path fill="none" stroke="#000000" d="M339.561,-381.3086C360.2852,-376.6853 384.7995,-372.4462 408.1499,-371.4301"/>
<polygon fill="#000000" stroke="#000000" points="408.5046,-374.9232 418.4237,-371.2 408.3478,-367.9249 408.5046,-374.9232"/>
</g>
<!-- b5 -->
<g id="node8" class="node">
<title>b5</title>
<ellipse fill="#8b0000" stroke="#000000" cx="492.4237" cy="-205.2" rx="107.013" ry="46.2727"/>
<text text-anchor="middle" x="492.4237" y="-219.6" font-family="Times,serif" font-size="16.00" fill="#ffffff">L&#39;expérience est&#45;elle</text>
<text text-anchor="middle" x="492.4237" y="-200.4" font-family="Times,serif" font-size="16.00" fill="#ffffff">le fondement de</text>
<text text-anchor="middle" x="492.4237" y="-181.2" font-family="Times,serif" font-size="16.00" fill="#ffffff">la science ?</text>
</g>
<!-- p3&#45;&gt;b5 -->
<g id="edge10" class="edge">
<title>p3&#45;&gt;b5:w</title>
<path fill="none" stroke="#000000" d="M350.2463,-205.2C358.5535,-205.2 367.0811,-205.2 375.4032,-205.2"/>
<polygon fill="#000000" stroke="#000000" points="375.4238,-208.7001 385.4237,-205.2 375.4237,-201.7001 375.4238,-208.7001"/>
</g>
<!-- b6 -->
<g id="node9" class="node">
<title>b6</title>
<ellipse fill="#8b0000" stroke="#000000" cx="492.4237" cy="-85.2" rx="71.8878" ry="46.2727"/>
<text text-anchor="middle" x="492.4237" y="-99.6" font-family="Times,serif" font-size="16.00" fill="#ffffff">Y a&#45;t&#45;il</text>
<text text-anchor="middle" x="492.4237" y="-80.4" font-family="Times,serif" font-size="16.00" fill="#ffffff">une méthode</text>
<text text-anchor="middle" x="492.4237" y="-61.2" font-family="Times,serif" font-size="16.00" fill="#ffffff">scientifique ?</text>
</g>
<!-- p3&#45;&gt;b6 -->
<g id="edge11" class="edge">
<title>p3&#45;&gt;b6:w</title>
<path fill="none" stroke="#000000" d="M298.9066,-184.5713C316.9235,-152.2718 356.9648,-92.7188 410.3104,-85.8508"/>
<polygon fill="#000000" stroke="#000000" points="410.6692,-89.3351 420.4237,-85.2 410.2196,-82.3495 410.6692,-89.3351"/>
</g>
<!-- b1&#45;&gt;b2 -->
<!-- c1 -->
<g id="node10" class="node">
<title>c1</title>
<polygon fill="#ffffff" stroke="#7f7f7f" points="749.961,-674.2 670.8105,-674.2 670.8105,-638.2 749.961,-638.2 749.961,-674.2"/>
<text text-anchor="middle" x="710.3857" y="-651.4" font-family="Times,serif" font-size="16.00" fill="#000000">Nietzsche</text>
</g>
<!-- b1&#45;&gt;c1 -->
<g id="edge16" class="edge">
<title>b1&#45;&gt;c1</title>
<path fill="none" stroke="#000000" d="M577.9425,-630.0713C605.91,-635.5888 636.0416,-641.5332 660.4882,-646.3561"/>
<polygon fill="#000000" stroke="#000000" points="660.106,-649.8481 670.5943,-648.3499 661.4609,-642.9805 660.106,-649.8481"/>
</g>
<!-- c2 -->
<g id="node11" class="node">
<title>c2</title>
<polygon fill="#ffffff" stroke="#7f7f7f" points="738.7754,-620.2 681.996,-620.2 681.996,-584.2 738.7754,-584.2 738.7754,-620.2"/>
<text text-anchor="middle" x="710.3857" y="-597.4" font-family="Times,serif" font-size="16.00" fill="#000000">Platon</text>
</g>
<!-- b1&#45;&gt;c2 -->
<g id="edge17" class="edge">
<title>b1&#45;&gt;c2</title>
<path fill="none" stroke="#000000" d="M590.5652,-608.247C619.2435,-606.7997 648.933,-605.3014 671.5841,-604.1582"/>
<polygon fill="#000000" stroke="#000000" points="671.9734,-607.6431 681.7843,-603.6434 671.6205,-600.652 671.9734,-607.6431"/>
</g>
<!-- b2&#45;&gt;b3 -->
<!-- c3 -->
<g id="node12" class="node">
<title>c3</title>
<polygon fill="#ffffff" stroke="#7f7f7f" points="764.3505,-542.2 656.4209,-542.2 656.4209,-506.2 764.3505,-506.2 764.3505,-542.2"/>
<text text-anchor="middle" x="710.3857" y="-519.4" font-family="Times,serif" font-size="16.00" fill="#000000">Le relativisme</text>
</g>
<!-- b2&#45;&gt;c3 -->
<g id="edge18" class="edge">
<title>b2&#45;&gt;c3</title>
<path fill="none" stroke="#000000" d="M575.7588,-487.1403C599.2077,-493.5952 624.3361,-500.5125 646.4584,-506.6022"/>
<polygon fill="#000000" stroke="#000000" points="645.824,-510.0577 656.3943,-509.3374 647.6819,-503.3088 645.824,-510.0577"/>
</g>
<!-- c4 -->
<g id="node13" class="node">
<title>c4</title>
<polygon fill="#ffffff" stroke="#7f7f7f" points="763.9738,-487.6017 656.7977,-487.6017 656.7977,-440.7983 763.9738,-440.7983 763.9738,-487.6017"/>
<text text-anchor="middle" x="710.3857" y="-469" font-family="Times,serif" font-size="16.00" fill="#000000">Les limites</text>
<text text-anchor="middle" x="710.3857" y="-449.8" font-family="Times,serif" font-size="16.00" fill="#000000">du relativisme</text>
</g>
<!-- b2&#45;&gt;c4 -->
<g id="edge19" class="edge">
<title>b2&#45;&gt;c4</title>
<path fill="none" stroke="#000000" d="M608.7432,-464.2C621.6888,-464.2 634.4957,-464.2 646.4287,-464.2"/>
<polygon fill="#000000" stroke="#000000" points="646.6719,-467.7001 656.6719,-464.2 646.6719,-460.7001 646.6719,-467.7001"/>
</g>
<!-- b3&#45;&gt;b5 -->
<!-- c5 -->
<g id="node14" class="node">
<title>c5</title>
<polygon fill="#ffffff" stroke="#7f7f7f" points="765.9036,-399.2 654.8679,-399.2 654.8679,-363.2 765.9036,-363.2 765.9036,-399.2"/>
<text text-anchor="middle" x="710.3857" y="-376.4" font-family="Times,serif" font-size="16.00" fill="#000000">Le scepticisme</text>
</g>
<!-- b3&#45;&gt;c5 -->
<g id="edge20" class="edge">
<title>b3&#45;&gt;c5</title>
<path fill="none" stroke="#000000" d="M565.3049,-374.5438C590.9747,-375.7215 619.6568,-377.0374 644.6976,-378.1863"/>
<polygon fill="#000000" stroke="#000000" points="644.673,-381.6887 654.823,-378.6508 644.9939,-374.6961 644.673,-381.6887"/>
</g>
<!-- c6 -->
<g id="node15" class="node">
<title>c6</title>
<polygon fill="#ffffff" stroke="#7f7f7f" points="765.5263,-349.6017 655.2452,-349.6017 655.2452,-302.7983 765.5263,-302.7983 765.5263,-349.6017"/>
<text text-anchor="middle" x="710.3857" y="-331" font-family="Times,serif" font-size="16.00" fill="#000000">Les limites</text>
<text text-anchor="middle" x="710.3857" y="-311.8" font-family="Times,serif" font-size="16.00" fill="#000000">du scepticisme</text>
</g>
<!-- b3&#45;&gt;c6 -->
<g id="edge21" class="edge">
<title>b3&#45;&gt;c6</title>
<path fill="none" stroke="#000000" d="M559.0038,-357.454C586.4328,-351.7911 618.1071,-345.2517 645.3709,-339.6228"/>
<polygon fill="#000000" stroke="#000000" points="646.1141,-343.0433 655.1999,-337.5936 644.6987,-336.1879 646.1141,-343.0433"/>
</g>
<!-- b5&#45;&gt;b6 -->
<!-- c9 -->
<g id="node16" class="node">
<title>c9</title>
<polygon fill="#ffffff" stroke="#7f7f7f" points="759.5264,-261.2 661.2451,-261.2 661.2451,-225.2 759.5264,-225.2 759.5264,-261.2"/>
<text text-anchor="middle" x="710.3857" y="-238.4" font-family="Times,serif" font-size="16.00" fill="#000000">L&#39;empirisme</text>
</g>
<!-- b5&#45;&gt;c9 -->
<g id="edge22" class="edge">
<title>b5&#45;&gt;c9</title>
<path fill="none" stroke="#000000" d="M592.1555,-222.5875C612.3955,-226.1162 633.064,-229.7196 651.3416,-232.9061"/>
<polygon fill="#000000" stroke="#000000" points="650.7794,-236.3608 661.232,-234.6304 651.9817,-229.4648 650.7794,-236.3608"/>
</g>
<!-- c10 -->
<g id="node17" class="node">
<title>c10</title>
<polygon fill="#ffffff" stroke="#7f7f7f" points="766.8009,-194.6017 653.9706,-194.6017 653.9706,-147.7983 766.8009,-147.7983 766.8009,-194.6017"/>
<text text-anchor="middle" x="710.3857" y="-176" font-family="Times,serif" font-size="16.00" fill="#000000">Les limites</text>
<text text-anchor="middle" x="710.3857" y="-156.8" font-family="Times,serif" font-size="16.00" fill="#000000">de l&#39;empirisme</text>
</g>
<!-- b5&#45;&gt;c10 -->
<g id="edge23" class="edge">
<title>b5&#45;&gt;c10</title>
<path fill="none" stroke="#000000" d="M593.4291,-189.4441C610.5111,-186.7795 627.8558,-184.0739 643.7725,-181.591"/>
<polygon fill="#000000" stroke="#000000" points="644.6677,-184.9938 654.0088,-179.9943 643.5888,-178.0774 644.6677,-184.9938"/>
</g>
<!-- c11 -->
<g id="node18" class="node">
<title>c11</title>
<polygon fill="#ffffff" stroke="#7f7f7f" points="785.8953,-106.6017 634.8761,-106.6017 634.8761,-59.7983 785.8953,-59.7983 785.8953,-106.6017"/>
<text text-anchor="middle" x="710.3857" y="-88" font-family="Times,serif" font-size="16.00" fill="#000000">Le falsificationnisme</text>
<text text-anchor="middle" x="710.3857" y="-68.8" font-family="Times,serif" font-size="16.00" fill="#000000">de Popper</text>
</g>
<!-- b6&#45;&gt;c11 -->
<g id="edge24" class="edge">
<title>b6&#45;&gt;c11</title>
<path fill="none" stroke="#000000" d="M564.3967,-84.5396C583.7028,-84.3624 604.7671,-84.1691 624.7351,-83.9859"/>
<polygon fill="#000000" stroke="#000000" points="624.7808,-87.4858 634.7482,-83.894 624.7165,-80.486 624.7808,-87.4858"/>
</g>
<!-- c12 -->
<g id="node19" class="node">
<title>c12</title>
<polygon fill="#ffffff" stroke="#7f7f7f" points="775.5183,-46.6017 645.2532,-46.6017 645.2532,.2017 775.5183,.2017 775.5183,-46.6017"/>
<text text-anchor="middle" x="710.3857" y="-28" font-family="Times,serif" font-size="16.00" fill="#000000">Les limites du</text>
<text text-anchor="middle" x="710.3857" y="-8.8" font-family="Times,serif" font-size="16.00" fill="#000000">falsificationnisme</text>
</g>
<!-- b6&#45;&gt;c12 -->
<g id="edge25" class="edge">
<title>b6&#45;&gt;c12</title>
<path fill="none" stroke="#000000" d="M558.411,-66.4297C582.6353,-59.539 610.2349,-51.6882 635.2065,-44.585"/>
<polygon fill="#000000" stroke="#000000" points="636.3372,-47.9023 644.998,-41.7997 634.422,-41.1694 636.3372,-47.9023"/>
</g>
<!-- e1 -->
<g id="node20" class="node">
<title>e1</title>
<path fill="#fafafa" stroke="transparent" d="M925.4139,-676.5005C925.4139,-676.5005 834.4619,-676.5005 834.4619,-676.5005 828.4619,-676.5005 822.4619,-670.5005 822.4619,-664.5005 822.4619,-664.5005 822.4619,-651.8995 822.4619,-651.8995 822.4619,-645.8995 828.4619,-639.8995 834.4619,-639.8995 834.4619,-639.8995 925.4139,-639.8995 925.4139,-639.8995 931.4139,-639.8995 937.4139,-645.8995 937.4139,-651.8995 937.4139,-651.8995 937.4139,-664.5005 937.4139,-664.5005 937.4139,-670.5005 931.4139,-676.5005 925.4139,-676.5005"/>
<text text-anchor="middle" x="879.9379" y="-661.8" font-family="Times,serif" font-size="12.00" fill="#cd2626">Les soupçons sur la</text>
<text text-anchor="middle" x="879.9379" y="-647.4" font-family="Times,serif" font-size="12.00" fill="#cd2626">volonté de vérité</text>
</g>
<!-- c1&#45;&gt;e1 -->
<!-- c2&#45;&gt;c3 -->
<!-- e2 -->
<g id="node21" class="node">
<title>e2</title>
<path fill="#fafafa" stroke="transparent" d="M931.2375,-625.9004C931.2375,-625.9004 828.6384,-625.9004 828.6384,-625.9004 822.6384,-625.9004 816.6384,-619.9004 816.6384,-613.9004 816.6384,-613.9004 816.6384,-586.4996 816.6384,-586.4996 816.6384,-580.4996 822.6384,-574.4996 828.6384,-574.4996 828.6384,-574.4996 931.2375,-574.4996 931.2375,-574.4996 937.2375,-574.4996 943.2375,-580.4996 943.2375,-586.4996 943.2375,-586.4996 943.2375,-613.9004 943.2375,-613.9004 943.2375,-619.9004 937.2375,-625.9004 931.2375,-625.9004"/>
<text text-anchor="middle" x="879.9379" y="-611" font-family="Times,serif" font-size="12.00" fill="#cd2626">Valeur intrinsèque</text>
<text text-anchor="middle" x="879.9379" y="-596.6" font-family="Times,serif" font-size="12.00" fill="#cd2626">≠ valeur instrumentale</text>
<text text-anchor="middle" x="879.9379" y="-582.2" font-family="Times,serif" font-size="12.00" fill="#cd2626">de la connaissance</text>
</g>
<!-- c2&#45;&gt;e2 -->
<!-- e3 -->
<g id="node22" class="node">
<title>e3</title>
<path fill="#fafafa" stroke="transparent" d="M953.534,-545.5005C953.534,-545.5005 806.3419,-545.5005 806.3419,-545.5005 800.3419,-545.5005 794.3419,-539.5005 794.3419,-533.5005 794.3419,-533.5005 794.3419,-520.8995 794.3419,-520.8995 794.3419,-514.8995 800.3419,-508.8995 806.3419,-508.8995 806.3419,-508.8995 953.534,-508.8995 953.534,-508.8995 959.534,-508.8995 965.534,-514.8995 965.534,-520.8995 965.534,-520.8995 965.534,-533.5005 965.534,-533.5005 965.534,-539.5005 959.534,-545.5005 953.534,-545.5005"/>
<text text-anchor="middle" x="879.9379" y="-530.8" font-family="Times,serif" font-size="12.00" fill="#cd2626">L&#39;argument de la tolérance,</text>
<text text-anchor="middle" x="879.9379" y="-516.4" font-family="Times,serif" font-size="12.00" fill="#cd2626">L&#39;argument du cadre conceptuel</text>
</g>
<!-- c3&#45;&gt;e3 -->
<!-- c4&#45;&gt;c5 -->
<!-- e4 -->
<g id="node23" class="node">
<title>e4</title>
<path fill="#fafafa" stroke="transparent" d="M951.7141,-494.8012C951.7141,-494.8012 808.1618,-494.8012 808.1618,-494.8012 802.1618,-494.8012 796.1618,-488.8012 796.1618,-482.8012 796.1618,-482.8012 796.1618,-441.5988 796.1618,-441.5988 796.1618,-435.5988 802.1618,-429.5988 808.1618,-429.5988 808.1618,-429.5988 951.7141,-429.5988 951.7141,-429.5988 957.7141,-429.5988 963.7141,-435.5988 963.7141,-441.5988 963.7141,-441.5988 963.7141,-482.8012 963.7141,-482.8012 963.7141,-488.8012 957.7141,-494.8012 951.7141,-494.8012"/>
<text text-anchor="middle" x="879.9379" y="-480.2" font-family="Times,serif" font-size="12.00" fill="#cd2626">L&#39;objection de l&#39;autoréfutation,</text>
<text text-anchor="middle" x="879.9379" y="-465.8" font-family="Times,serif" font-size="12.00" fill="#cd2626">La distinction vérité&#45;opinion,</text>
<text text-anchor="middle" x="879.9379" y="-451.4" font-family="Times,serif" font-size="12.00" fill="#cd2626">La compatibilité entre vérité</text>
<text text-anchor="middle" x="879.9379" y="-437" font-family="Times,serif" font-size="12.00" fill="#cd2626">et tolérance</text>
</g>
<!-- c4&#45;&gt;e4 -->
<!-- e5 -->
<g id="node24" class="node">
<title>e5</title>
<path fill="#fafafa" stroke="transparent" d="M945.8879,-410.5005C945.8879,-410.5005 813.9879,-410.5005 813.9879,-410.5005 807.9879,-410.5005 801.9879,-404.5005 801.9879,-398.5005 801.9879,-398.5005 801.9879,-385.8995 801.9879,-385.8995 801.9879,-379.8995 807.9879,-373.8995 813.9879,-373.8995 813.9879,-373.8995 945.8879,-373.8995 945.8879,-373.8995 951.8879,-373.8995 957.8879,-379.8995 957.8879,-385.8995 957.8879,-385.8995 957.8879,-398.5005 957.8879,-398.5005 957.8879,-404.5005 951.8879,-410.5005 945.8879,-410.5005"/>
<text text-anchor="middle" x="879.9379" y="-395.8" font-family="Times,serif" font-size="12.00" fill="#cd2626">L&#39;argument du doute radical,</text>
<text text-anchor="middle" x="879.9379" y="-381.4" font-family="Times,serif" font-size="12.00" fill="#cd2626">le trilemme d&#39;Agrippa</text>
</g>
<!-- c5&#45;&gt;e5 -->
<!-- c6&#45;&gt;c9 -->
<!-- e6 -->
<g id="node25" class="node">
<title>e6</title>
<path fill="#fafafa" stroke="transparent" d="M930.5648,-359.8012C930.5648,-359.8012 829.3111,-359.8012 829.3111,-359.8012 823.3111,-359.8012 817.3111,-353.8012 817.3111,-347.8012 817.3111,-347.8012 817.3111,-306.5988 817.3111,-306.5988 817.3111,-300.5988 823.3111,-294.5988 829.3111,-294.5988 829.3111,-294.5988 930.5648,-294.5988 930.5648,-294.5988 936.5648,-294.5988 942.5648,-300.5988 942.5648,-306.5988 942.5648,-306.5988 942.5648,-347.8012 942.5648,-347.8012 942.5648,-353.8012 936.5648,-359.8012 930.5648,-359.8012"/>
<text text-anchor="middle" x="879.9379" y="-345.2" font-family="Times,serif" font-size="12.00" fill="#cd2626">Doute philosophique</text>
<text text-anchor="middle" x="879.9379" y="-330.8" font-family="Times,serif" font-size="12.00" fill="#cd2626">≠ doute ordinaire,</text>
<text text-anchor="middle" x="879.9379" y="-316.4" font-family="Times,serif" font-size="12.00" fill="#cd2626"> doute raisonnable</text>
<text text-anchor="middle" x="879.9379" y="-302" font-family="Times,serif" font-size="12.00" fill="#cd2626">≠ doute déraisonnable</text>
</g>
<!-- c6&#45;&gt;e6 -->
<!-- e9 -->
<g id="node26" class="node">
<title>e9</title>
<path fill="#fafafa" stroke="transparent" d="M910.4235,-279.8012C910.4235,-279.8012 849.4523,-279.8012 849.4523,-279.8012 843.4523,-279.8012 837.4523,-273.8012 837.4523,-267.8012 837.4523,-267.8012 837.4523,-226.5988 837.4523,-226.5988 837.4523,-220.5988 843.4523,-214.5988 849.4523,-214.5988 849.4523,-214.5988 910.4235,-214.5988 910.4235,-214.5988 916.4235,-214.5988 922.4235,-220.5988 922.4235,-226.5988 922.4235,-226.5988 922.4235,-267.8012 922.4235,-267.8012 922.4235,-273.8012 916.4235,-279.8012 910.4235,-279.8012"/>
<text text-anchor="middle" x="879.9379" y="-265.2" font-family="Times,serif" font-size="12.00" fill="#cd2626">Empirisme de</text>
<text text-anchor="middle" x="879.9379" y="-250.8" font-family="Times,serif" font-size="12.00" fill="#cd2626">la découverte,</text>
<text text-anchor="middle" x="879.9379" y="-236.4" font-family="Times,serif" font-size="12.00" fill="#cd2626">empirisme de</text>
<text text-anchor="middle" x="879.9379" y="-222" font-family="Times,serif" font-size="12.00" fill="#cd2626">la justification</text>
</g>
<!-- c9&#45;&gt;e9 -->
<!-- c10&#45;&gt;c11 -->
<!-- e10 -->
<g id="node27" class="node">
<title>e10</title>
<path fill="#fafafa" stroke="transparent" d="M935.2403,-200.2C935.2403,-200.2 824.6356,-200.2 824.6356,-200.2 818.6356,-200.2 812.6356,-194.2 812.6356,-188.2 812.6356,-188.2 812.6356,-132.2 812.6356,-132.2 812.6356,-126.2 818.6356,-120.2 824.6356,-120.2 824.6356,-120.2 935.2403,-120.2 935.2403,-120.2 941.2403,-120.2 947.2403,-126.2 947.2403,-132.2 947.2403,-132.2 947.2403,-188.2 947.2403,-188.2 947.2403,-194.2 941.2403,-200.2 935.2403,-200.2"/>
<text text-anchor="middle" x="879.9379" y="-185.4" font-family="Times,serif" font-size="12.00" fill="#cd2626">La théorie vient souvent</text>
<text text-anchor="middle" x="879.9379" y="-171" font-family="Times,serif" font-size="12.00" fill="#cd2626">avant l&#39;observation,</text>
<text text-anchor="middle" x="879.9379" y="-156.6" font-family="Times,serif" font-size="12.00" fill="#cd2626">l&#39;observation est</text>
<text text-anchor="middle" x="879.9379" y="-142.2" font-family="Times,serif" font-size="12.00" fill="#cd2626">chargée de théorie,</text>
<text text-anchor="middle" x="879.9379" y="-127.8" font-family="Times,serif" font-size="12.00" fill="#cd2626">la critique de l&#39;induction</text>
</g>
<!-- c10&#45;&gt;e10 -->
<!-- e11 -->
<g id="node28" class="node">
<title>e11</title>
<path fill="#fafafa" stroke="transparent" d="M941.2126,-105.9004C941.2126,-105.9004 818.6633,-105.9004 818.6633,-105.9004 812.6633,-105.9004 806.6633,-99.9004 806.6633,-93.9004 806.6633,-93.9004 806.6633,-66.4996 806.6633,-66.4996 806.6633,-60.4996 812.6633,-54.4996 818.6633,-54.4996 818.6633,-54.4996 941.2126,-54.4996 941.2126,-54.4996 947.2126,-54.4996 953.2126,-60.4996 953.2126,-66.4996 953.2126,-66.4996 953.2126,-93.9004 953.2126,-93.9004 953.2126,-99.9004 947.2126,-105.9004 941.2126,-105.9004"/>
<text text-anchor="middle" x="879.9379" y="-91" font-family="Times,serif" font-size="12.00" fill="#cd2626">La distinction</text>
<text text-anchor="middle" x="879.9379" y="-76.6" font-family="Times,serif" font-size="12.00" fill="#cd2626">sciences / pseudo&#45;sciences,</text>
<text text-anchor="middle" x="879.9379" y="-62.2" font-family="Times,serif" font-size="12.00" fill="#cd2626">le critère de la réfutabilité</text>
</g>
<!-- c11&#45;&gt;e11 -->
<!-- e12 -->
<g id="node29" class="node">
<title>e12</title>
<path fill="#fafafa" stroke="transparent" d="M906.0927,-40.5005C906.0927,-40.5005 853.7832,-40.5005 853.7832,-40.5005 847.7832,-40.5005 841.7832,-34.5005 841.7832,-28.5005 841.7832,-28.5005 841.7832,-15.8995 841.7832,-15.8995 841.7832,-9.8995 847.7832,-3.8995 853.7832,-3.8995 853.7832,-3.8995 906.0927,-3.8995 906.0927,-3.8995 912.0927,-3.8995 918.0927,-9.8995 918.0927,-15.8995 918.0927,-15.8995 918.0927,-28.5005 918.0927,-28.5005 918.0927,-34.5005 912.0927,-40.5005 906.0927,-40.5005"/>
<text text-anchor="middle" x="879.9379" y="-25.8" font-family="Times,serif" font-size="12.00" fill="#cd2626">La notion de</text>
<text text-anchor="middle" x="879.9379" y="-11.4" font-family="Times,serif" font-size="12.00" fill="#cd2626">paradigme</text>
</g>
<!-- c12&#45;&gt;e12 -->
</g>
</svg>
