<?xml version="1.0" encoding="UTF-8" standalone="no"?>
<!DOCTYPE svg PUBLIC "-//W3C//DTD SVG 1.1//EN"
 "http://www.w3.org/Graphics/SVG/1.1/DTD/svg11.dtd">
<!-- Generated by graphviz version 2.40.1 (20161225.0304)
 -->
<!-- Title: G Pages: 1 -->
<svg width="577pt" height="485pt"
 viewBox="0.00 0.00 576.82 485.40" xmlns="http://www.w3.org/2000/svg" xmlns:xlink="http://www.w3.org/1999/xlink">
<g id="graph0" class="graph" transform="scale(1 1) rotate(0) translate(21.6 463.796)">
<title>G</title>
<polygon fill="#fafafa" stroke="transparent" points="-21.6,21.6 -21.6,-463.796 555.2182,-463.796 555.2182,21.6 -21.6,21.6"/>
<!-- a1 -->
<g id="node1" class="node">
<title>a1</title>
<ellipse fill="#050505" stroke="#000000" cx="80.238" cy="-231.3862" rx="80.4766" ry="51.4548"/>
<text text-anchor="middle" x="80.238" y="-247.5862" font-family="Times,serif" font-size="18.00" fill="#ffffff">Le bonheur</text>
<text text-anchor="middle" x="80.238" y="-225.9862" font-family="Times,serif" font-size="18.00" fill="#ffffff">n&#39;est&#45;il qu&#39;un</text>
<text text-anchor="middle" x="80.238" y="-204.3862" font-family="Times,serif" font-size="18.00" fill="#ffffff">idéal ?</text>
</g>
<!-- p1 -->
<g id="node2" class="node">
<title>p1</title>
<path fill="#fafafa" stroke="#006400" d="M284.766,-428.9881C284.766,-428.9881 203.8938,-428.9881 203.8938,-428.9881 197.8938,-428.9881 191.8938,-422.9881 191.8938,-416.9881 191.8938,-416.9881 191.8938,-399.7843 191.8938,-399.7843 191.8938,-393.7843 197.8938,-387.7843 203.8938,-387.7843 203.8938,-387.7843 284.766,-387.7843 284.766,-387.7843 290.766,-387.7843 296.766,-393.7843 296.766,-399.7843 296.766,-399.7843 296.766,-416.9881 296.766,-416.9881 296.766,-422.9881 290.766,-428.9881 284.766,-428.9881"/>
<text text-anchor="middle" x="244.3299" y="-412.5862" font-family="Times,serif" font-size="14.00" fill="#006400">I – Un idéal</text>
<text text-anchor="middle" x="244.3299" y="-395.7862" font-family="Times,serif" font-size="14.00" fill="#006400">indéfinissable ?</text>
</g>
<!-- a1&#45;&gt;p1 -->
<g id="edge1" class="edge">
<title>a1&#45;&gt;p1:w</title>
<path fill="none" stroke="#000000" d="M89.9093,-282.5819C103.0975,-334.8568 132.3146,-408.3862 192.3299,-408.3862"/>
</g>
<!-- p2 -->
<g id="node3" class="node">
<title>p2</title>
<path fill="#fafafa" stroke="#006400" d="M279.1792,-261.8862C279.1792,-261.8862 209.4807,-261.8862 209.4807,-261.8862 203.4807,-261.8862 197.4807,-255.8862 197.4807,-249.8862 197.4807,-249.8862 197.4807,-212.8862 197.4807,-212.8862 197.4807,-206.8862 203.4807,-200.8862 209.4807,-200.8862 209.4807,-200.8862 279.1792,-200.8862 279.1792,-200.8862 285.1792,-200.8862 291.1792,-206.8862 291.1792,-212.8862 291.1792,-212.8862 291.1792,-249.8862 291.1792,-249.8862 291.1792,-255.8862 285.1792,-261.8862 279.1792,-261.8862"/>
<text text-anchor="start" x="206.5285" y="-246.2862" font-family="Times,serif" font-size="14.00" fill="#006400">II – Un idéal</text>
<text text-anchor="start" x="205.6556" y="-232.2862" font-family="Times,serif" font-size="14.00" fill="#006400">inaccessible ?</text>
<text text-anchor="start" x="210.3795" y="-217.9862" font-family="Times,serif" font-size="11.00" fill="#006400">(= les obstacles</text>
<text text-anchor="start" x="217.9101" y="-206.9862" font-family="Times,serif" font-size="11.00" fill="#006400">au bonheur)</text>
</g>
<!-- a1&#45;&gt;p2 -->
<g id="edge2" class="edge">
<title>a1&#45;&gt;p2:w</title>
<path fill="none" stroke="#000000" d="M160.5468,-231.3862C172.8662,-231.3862 185.4378,-231.3862 197.3299,-231.3862"/>
</g>
<!-- p3 -->
<g id="node4" class="node">
<title>p3</title>
<path fill="#fafafa" stroke="#006400" d="M290.0383,-75.7876C290.0383,-75.7876 198.6215,-75.7876 198.6215,-75.7876 192.6215,-75.7876 186.6215,-69.7876 186.6215,-63.7876 186.6215,-63.7876 186.6215,-28.9848 186.6215,-28.9848 186.6215,-22.9848 192.6215,-16.9848 198.6215,-16.9848 198.6215,-16.9848 290.0383,-16.9848 290.0383,-16.9848 296.0383,-16.9848 302.0383,-22.9848 302.0383,-28.9848 302.0383,-28.9848 302.0383,-63.7876 302.0383,-63.7876 302.0383,-69.7876 296.0383,-75.7876 290.0383,-75.7876"/>
<text text-anchor="middle" x="244.3299" y="-58.9862" font-family="Times,serif" font-size="14.00" fill="#006400">III – Un idéal</text>
<text text-anchor="middle" x="244.3299" y="-42.1862" font-family="Times,serif" font-size="14.00" fill="#006400">de satisfaction ou</text>
<text text-anchor="middle" x="244.3299" y="-25.3862" font-family="Times,serif" font-size="14.00" fill="#006400">un idéal de sens ?</text>
</g>
<!-- a1&#45;&gt;p3 -->
<g id="edge3" class="edge">
<title>a1&#45;&gt;p3:w</title>
<path fill="none" stroke="#000000" d="M87.4039,-179.8534C98.2595,-125.1134 124.6238,-46.3862 186.4759,-46.3862"/>
</g>
<!-- p1&#45;&gt;p2 -->
<!-- b1 -->
<g id="node5" class="node">
<title>b1</title>
<ellipse fill="#8b0000" stroke="#000000" cx="430.9011" cy="-409.3862" rx="97.9131" ry="32.6206"/>
<text text-anchor="middle" x="430.9011" y="-414.1862" font-family="Times,serif" font-size="16.00" fill="#ffffff">Peut&#45;on savoir ce</text>
<text text-anchor="middle" x="430.9011" y="-394.9862" font-family="Times,serif" font-size="16.00" fill="#ffffff">qu&#39;est le bonheur ?</text>
</g>
<!-- p1&#45;&gt;b1 -->
<g id="edge6" class="edge">
<title>p1&#45;&gt;b1:w</title>
<path fill="none" stroke="#000000" d="M296.7835,-409.1741C305.3195,-409.2632 314.2058,-409.3338 322.8686,-409.3665"/>
<polygon fill="#000000" stroke="#000000" points="322.8942,-412.8664 332.9011,-409.3862 322.908,-405.8664 322.8942,-412.8664"/>
</g>
<!-- p2&#45;&gt;p3 -->
<!-- b2 -->
<g id="node6" class="node">
<title>b2</title>
<ellipse fill="#8b0000" stroke="#000000" cx="430.9011" cy="-288.3862" rx="96.4327" ry="46.2727"/>
<text text-anchor="middle" x="430.9011" y="-302.7862" font-family="Times,serif" font-size="16.00" fill="#ffffff">Que pouvons&#45;nous</text>
<text text-anchor="middle" x="430.9011" y="-283.5862" font-family="Times,serif" font-size="16.00" fill="#ffffff">face au tragique</text>
<text text-anchor="middle" x="430.9011" y="-264.3862" font-family="Times,serif" font-size="16.00" fill="#ffffff">de l&#39;existence ?</text>
</g>
<!-- p2&#45;&gt;b2 -->
<g id="edge7" class="edge">
<title>p2&#45;&gt;b2:w</title>
<path fill="none" stroke="#000000" d="M273.7785,-261.8886C287.5431,-273.3762 305.0141,-284.4278 323.714,-287.5285"/>
<polygon fill="#000000" stroke="#000000" points="323.6426,-291.0348 333.9011,-288.3862 324.23,-284.0595 323.6426,-291.0348"/>
</g>
<!-- b3 -->
<g id="node7" class="node">
<title>b3</title>
<ellipse fill="#8b0000" stroke="#000000" cx="430.9011" cy="-167.3862" rx="74.088" ry="32.6206"/>
<text text-anchor="middle" x="430.9011" y="-172.1862" font-family="Times,serif" font-size="16.00" fill="#ffffff">Le désir est&#45;il</text>
<text text-anchor="middle" x="430.9011" y="-152.9862" font-family="Times,serif" font-size="16.00" fill="#ffffff">insatiable ?</text>
</g>
<!-- p2&#45;&gt;b3 -->
<g id="edge8" class="edge">
<title>p2&#45;&gt;b3:w</title>
<path fill="none" stroke="#000000" d="M276.7543,-200.8857C295.23,-186.3335 319.7956,-171.3669 345.5799,-168.059"/>
<polygon fill="#000000" stroke="#000000" points="346.1499,-171.5294 355.9011,-167.3862 345.6945,-164.5442 346.1499,-171.5294"/>
</g>
<!-- b4 -->
<g id="node8" class="node">
<title>b4</title>
<ellipse fill="#8b0000" stroke="#000000" cx="430.9011" cy="-46.3862" rx="102.9348" ry="46.2727"/>
<text text-anchor="middle" x="430.9011" y="-60.7862" font-family="Times,serif" font-size="16.00" fill="#ffffff">Le simple plaisir</text>
<text text-anchor="middle" x="430.9011" y="-41.5862" font-family="Times,serif" font-size="16.00" fill="#ffffff">d&#39;exister suffit&#45;il</text>
<text text-anchor="middle" x="430.9011" y="-22.3862" font-family="Times,serif" font-size="16.00" fill="#ffffff">pour être heureux ?</text>
</g>
<!-- p3&#45;&gt;b4 -->
<g id="edge9" class="edge">
<title>p3&#45;&gt;b4:w</title>
<path fill="none" stroke="#000000" d="M302.0684,-46.3862C307.4004,-46.3862 312.7963,-46.3862 318.1088,-46.3862"/>
<polygon fill="#000000" stroke="#000000" points="318.1839,-49.8863 328.1839,-46.3862 318.1839,-42.8863 318.1839,-49.8863"/>
</g>
<!-- b1&#45;&gt;b2 -->
<!-- b2&#45;&gt;b3 -->
<!-- b3&#45;&gt;b4 -->
</g>
</svg>
