<?xml version="1.0" encoding="UTF-8" standalone="no"?>
<!DOCTYPE svg PUBLIC "-//W3C//DTD SVG 1.1//EN"
 "http://www.w3.org/Graphics/SVG/1.1/DTD/svg11.dtd">
<!-- Generated by graphviz version 2.40.1 (20161225.0304)
 -->
<!-- Title: G Pages: 1 -->
<svg width="858pt" height="874pt"
 viewBox="0.00 0.00 857.96 874.20" xmlns="http://www.w3.org/2000/svg" xmlns:xlink="http://www.w3.org/1999/xlink">
<g id="graph0" class="graph" transform="scale(1 1) rotate(0) translate(21.6 852.6)">
<title>G</title>
<polygon fill="#fafafa" stroke="transparent" points="-21.6,21.6 -21.6,-852.6 836.3593,-852.6 836.3593,21.6 -21.6,21.6"/>
<!-- a1 -->
<g id="node1" class="node">
<title>a1</title>
<ellipse fill="#050505" stroke="#000000" cx="100.3824" cy="-381" rx="100.265" ry="36.4089"/>
<text text-anchor="middle" x="100.3824" y="-386.4" font-family="Times,serif" font-size="18.00" fill="#ffffff">Faut&#45;il avoir peur</text>
<text text-anchor="middle" x="100.3824" y="-364.8" font-family="Times,serif" font-size="18.00" fill="#ffffff">de la technique ?</text>
</g>
<!-- b1 -->
<g id="node2" class="node">
<title>b1</title>
<ellipse fill="#8b0000" stroke="#000000" cx="434.3369" cy="-729" rx="134.0968" ry="37.1049"/>
<text text-anchor="middle" x="434.3369" y="-733.8" font-family="Times,serif" font-size="16.00" fill="#ffffff">La technique est&#45;elle le</text>
<text text-anchor="middle" x="434.3369" y="-714.6" font-family="Times,serif" font-size="16.00" fill="#ffffff">propre des êtres humains ?</text>
</g>
<!-- a1&#45;&gt;b1 -->
<g id="edge1" class="edge">
<title>a1&#45;&gt;b1:w</title>
<path fill="none" stroke="#000000" d="M103.9785,-417.2573C114.7461,-504.2127 154.8204,-718.2099 289.0794,-728.6071"/>
<polygon fill="#000000" stroke="#000000" points="289.2102,-732.1146 299.3369,-729 289.4782,-725.1197 289.2102,-732.1146"/>
<text text-anchor="start" x="231.8182" y="-718.2" font-family="Times,serif" font-size="14.00" fill="#006400">I</text>
</g>
<!-- b2 -->
<g id="node3" class="node">
<title>b2</title>
<ellipse fill="#8b0000" stroke="#000000" cx="434.3369" cy="-596" rx="122.9668" ry="37.1049"/>
<text text-anchor="middle" x="434.3369" y="-600.8" font-family="Times,serif" font-size="16.00" fill="#ffffff">La technique permet&#45;elle</text>
<text text-anchor="middle" x="434.3369" y="-581.6" font-family="Times,serif" font-size="16.00" fill="#ffffff">de maîtriser la nature ?</text>
</g>
<!-- a1&#45;&gt;b2 -->
<g id="edge2" class="edge">
<title>a1&#45;&gt;b2:w</title>
<path fill="none" stroke="#000000" d="M115.6311,-416.9862C143.2832,-476.0994 207.6402,-588.0128 301.2851,-595.5941"/>
<polygon fill="#000000" stroke="#000000" points="301.2037,-599.0935 311.3369,-596 301.4863,-592.0992 301.2037,-599.0935"/>
<text text-anchor="start" x="229.4879" y="-580.2" font-family="Times,serif" font-size="14.00" fill="#006400">II</text>
</g>
<!-- b3 -->
<g id="node4" class="node">
<title>b3</title>
<ellipse fill="#8b0000" stroke="#000000" cx="434.3369" cy="-466" rx="127.1535" ry="37.1049"/>
<text text-anchor="middle" x="434.3369" y="-470.8" font-family="Times,serif" font-size="16.00" fill="#ffffff">Les machines nous</text>
<text text-anchor="middle" x="434.3369" y="-451.6" font-family="Times,serif" font-size="16.00" fill="#ffffff">libèrent&#45;elles du travail ?</text>
</g>
<!-- a1&#45;&gt;b3 -->
<g id="edge3" class="edge">
<title>a1&#45;&gt;b3:w</title>
<path fill="none" stroke="#000000" d="M148.2913,-413.1349C186.4729,-435.795 242.428,-462.6418 297.14,-465.7102"/>
<polygon fill="#000000" stroke="#000000" points="297.2414,-469.2144 307.3369,-466 297.4404,-462.2172 297.2414,-469.2144"/>
<text text-anchor="start" x="227.1576" y="-460.2" font-family="Times,serif" font-size="14.00" fill="#006400">III</text>
</g>
<!-- b4 -->
<g id="node5" class="node">
<title>b4</title>
<ellipse fill="#8b0000" stroke="#000000" cx="434.3369" cy="-336" rx="154.2376" ry="37.1049"/>
<text text-anchor="middle" x="434.3369" y="-340.8" font-family="Times,serif" font-size="16.00" fill="#ffffff">Vivons&#45;nous sous l&#39;emprise des</text>
<text text-anchor="middle" x="434.3369" y="-321.6" font-family="Times,serif" font-size="16.00" fill="#ffffff">technologies de l&#39;information ?</text>
</g>
<!-- a1&#45;&gt;b4 -->
<g id="edge4" class="edge">
<title>a1&#45;&gt;b4:w</title>
<path fill="none" stroke="#000000" d="M170.7451,-354.9536C200.6254,-345.8962 236.3527,-337.6252 270.3326,-336.2122"/>
<polygon fill="#000000" stroke="#000000" points="270.4133,-339.7113 280.3369,-336 270.2649,-332.7129 270.4133,-339.7113"/>
<text text-anchor="start" x="226.7649" y="-346.2" font-family="Times,serif" font-size="14.00" fill="#006400">IV</text>
</g>
<!-- b5 -->
<g id="node6" class="node">
<title>b5</title>
<ellipse fill="#8b0000" stroke="#000000" cx="434.3369" cy="-206" rx="166.6098" ry="37.1049"/>
<text text-anchor="middle" x="434.3369" y="-210.8" font-family="Times,serif" font-size="16.00" fill="#ffffff">La technologie peut&#45;elle améliorer</text>
<text text-anchor="middle" x="434.3369" y="-191.6" font-family="Times,serif" font-size="16.00" fill="#ffffff">les capacités des êtres humains ?</text>
</g>
<!-- a1&#45;&gt;b5 -->
<g id="edge5" class="edge">
<title>a1&#45;&gt;b5:w</title>
<path fill="none" stroke="#000000" d="M115.2368,-345.1638C138.0566,-296.2652 186.6488,-213.8289 257.4018,-206.5212"/>
<polygon fill="#000000" stroke="#000000" points="257.7252,-210.0093 267.5321,-206 257.3654,-203.0186 257.7252,-210.0093"/>
<text text-anchor="start" x="229.0952" y="-219.2" font-family="Times,serif" font-size="14.00" fill="#006400">V</text>
</g>
<!-- b6 -->
<g id="node7" class="node">
<title>b6</title>
<ellipse fill="#8b0000" stroke="#000000" cx="434.3369" cy="-73" rx="154.6471" ry="37.1049"/>
<text text-anchor="middle" x="434.3369" y="-77.8" font-family="Times,serif" font-size="16.00" fill="#ffffff">Peut&#45;on contrôler le</text>
<text text-anchor="middle" x="434.3369" y="-58.6" font-family="Times,serif" font-size="16.00" fill="#ffffff">développement technologique ?</text>
</g>
<!-- a1&#45;&gt;b6 -->
<g id="edge6" class="edge">
<title>a1&#45;&gt;b6:w</title>
<path fill="none" stroke="#000000" d="M104.3591,-344.7628C115.2021,-265.5717 152.7463,-83.3281 269.3171,-73.4208"/>
<polygon fill="#000000" stroke="#000000" points="269.4926,-76.9166 279.3369,-73 269.1988,-69.9228 269.4926,-76.9166"/>
<text text-anchor="start" x="226.7649" y="-90.2" font-family="Times,serif" font-size="14.00" fill="#006400">VI</text>
</g>
<!-- b1&#45;&gt;b2 -->
<!-- c1 -->
<g id="node8" class="node">
<title>c1</title>
<polygon fill="#ffffff" stroke="#7f7f7f" points="768.2728,-831 700.6281,-831 700.6281,-795 768.2728,-795 768.2728,-831"/>
<text text-anchor="middle" x="734.4505" y="-808.2" font-family="Times,serif" font-size="16.00" fill="#000000">Bergson</text>
</g>
<!-- b1&#45;&gt;c1 -->
<g id="edge12" class="edge">
<title>b1&#45;&gt;c1</title>
<path fill="none" stroke="#000000" d="M528.8827,-755.4628C583.1232,-770.6444 648.6281,-788.9788 690.8854,-800.8064"/>
<polygon fill="#000000" stroke="#000000" points="690.0093,-804.1956 700.5826,-803.5206 691.8961,-797.4547 690.0093,-804.1956"/>
</g>
<!-- c2 -->
<g id="node9" class="node">
<title>c2</title>
<polygon fill="#ffffff" stroke="#7f7f7f" points="814.5685,-780.6011 654.3324,-780.6011 654.3324,-709.3989 814.5685,-709.3989 814.5685,-780.6011"/>
<text text-anchor="middle" x="734.4505" y="-759.4" font-family="Times,serif" font-size="16.00" fill="#000000">Les connaissances</text>
<text text-anchor="middle" x="734.4505" y="-740.2" font-family="Times,serif" font-size="16.00" fill="#000000">contemporaines sur les</text>
<text text-anchor="middle" x="734.4505" y="-721" font-family="Times,serif" font-size="16.00" fill="#000000">techniques animales</text>
</g>
<!-- b1&#45;&gt;c2 -->
<g id="edge13" class="edge">
<title>b1&#45;&gt;c2</title>
<path fill="none" stroke="#000000" d="M566.4078,-736.0411C592.5522,-737.435 619.4356,-738.8682 643.8215,-740.1683"/>
<polygon fill="#000000" stroke="#000000" points="643.9381,-743.6794 654.1103,-740.7168 644.3108,-736.6893 643.9381,-743.6794"/>
</g>
<!-- b2&#45;&gt;b3 -->
<!-- c3 -->
<g id="node10" class="node">
<title>c3</title>
<polygon fill="#ffffff" stroke="#7f7f7f" points="772.6283,-654 696.2726,-654 696.2726,-618 772.6283,-618 772.6283,-654"/>
<text text-anchor="middle" x="734.4505" y="-631.2" font-family="Times,serif" font-size="16.00" fill="#000000">Descartes</text>
</g>
<!-- b2&#45;&gt;c3 -->
<g id="edge14" class="edge">
<title>b2&#45;&gt;c3</title>
<path fill="none" stroke="#000000" d="M546.9419,-611.0083C594.9839,-617.4115 648.4973,-624.5439 686.0188,-629.5449"/>
<polygon fill="#000000" stroke="#000000" points="685.7851,-633.0446 696.1599,-630.8965 686.71,-626.106 685.7851,-633.0446"/>
</g>
<!-- c4 -->
<g id="node11" class="node">
<title>c4</title>
<polygon fill="#ffffff" stroke="#7f7f7f" points="761.4505,-604 707.4505,-604 707.4505,-568 761.4505,-568 761.4505,-604"/>
<text text-anchor="middle" x="734.4505" y="-581.2" font-family="Times,serif" font-size="16.00" fill="#000000">Jonas</text>
</g>
<!-- b2&#45;&gt;c4 -->
<g id="edge15" class="edge">
<title>b2&#45;&gt;c4</title>
<path fill="none" stroke="#000000" d="M556.8374,-591.9182C607.2188,-590.2395 661.8919,-588.4177 697.0755,-587.2454"/>
<polygon fill="#000000" stroke="#000000" points="697.4647,-590.7344 707.3425,-586.9033 697.2315,-583.7383 697.4647,-590.7344"/>
</g>
<!-- b3&#45;&gt;b4 -->
<!-- c5 -->
<g id="node12" class="node">
<title>c5</title>
<polygon fill="#ffffff" stroke="#7f7f7f" points="761.4505,-512 707.4505,-512 707.4505,-476 761.4505,-476 761.4505,-512"/>
<text text-anchor="middle" x="734.4505" y="-489.2" font-family="Times,serif" font-size="16.00" fill="#000000">Marx</text>
</g>
<!-- b3&#45;&gt;c5 -->
<g id="edge16" class="edge">
<title>b3&#45;&gt;c5</title>
<path fill="none" stroke="#000000" d="M555.5395,-477.308C606.2552,-482.0396 661.5407,-487.1977 697.0285,-490.5086"/>
<polygon fill="#000000" stroke="#000000" points="697.0974,-494.0302 707.3793,-491.4743 697.7477,-487.0604 697.0974,-494.0302"/>
</g>
<!-- c6 -->
<g id="node13" class="node">
<title>c6</title>
<polygon fill="#ffffff" stroke="#7f7f7f" points="768.6347,-462 700.2662,-462 700.2662,-426 768.6347,-426 768.6347,-462"/>
<text text-anchor="middle" x="734.4505" y="-439.2" font-family="Times,serif" font-size="16.00" fill="#000000">Danaher</text>
</g>
<!-- b3&#45;&gt;c6 -->
<g id="edge17" class="edge">
<title>b3&#45;&gt;c6</title>
<path fill="none" stroke="#000000" d="M557.7038,-456.9565C604.5883,-453.5196 655.0646,-449.8194 690.0226,-447.2568"/>
<polygon fill="#000000" stroke="#000000" points="690.6349,-450.7214 700.3523,-446.4996 690.1231,-443.7401 690.6349,-450.7214"/>
</g>
<!-- b4&#45;&gt;b5 -->
<!-- c7 -->
<g id="node14" class="node">
<title>c7</title>
<polygon fill="#ffffff" stroke="#7f7f7f" points="767.8581,-370 701.0428,-370 701.0428,-334 767.8581,-334 767.8581,-370"/>
<text text-anchor="middle" x="734.4505" y="-347.2" font-family="Times,serif" font-size="16.00" fill="#000000">Deleuze</text>
</g>
<!-- b4&#45;&gt;c7 -->
<g id="edge18" class="edge">
<title>b4&#45;&gt;c7</title>
<path fill="none" stroke="#000000" d="M584.8333,-344.0234C623.6092,-346.0907 662.346,-348.1559 690.6865,-349.6668"/>
<polygon fill="#000000" stroke="#000000" points="690.8454,-353.1802 701.0176,-350.2176 691.2182,-346.1901 690.8454,-353.1802"/>
</g>
<!-- c8 -->
<g id="node15" class="node">
<title>c8</title>
<polygon fill="#ffffff" stroke="#7f7f7f" points="761.4505,-320 707.4505,-320 707.4505,-284 761.4505,-284 761.4505,-320"/>
<text text-anchor="middle" x="734.4505" y="-297.2" font-family="Times,serif" font-size="16.00" fill="#000000">Puech</text>
</g>
<!-- b4&#45;&gt;c8 -->
<g id="edge19" class="edge">
<title>b4&#45;&gt;c8</title>
<path fill="none" stroke="#000000" d="M573.8505,-320.1944C619.3714,-315.0374 666.1927,-309.733 697.4469,-306.1922"/>
<polygon fill="#000000" stroke="#000000" points="697.8825,-309.6653 707.4249,-305.0617 697.0945,-302.7098 697.8825,-309.6653"/>
</g>
<!-- b5&#45;&gt;b6 -->
<!-- c9 -->
<g id="node16" class="node">
<title>c9</title>
<polygon fill="#ffffff" stroke="#7f7f7f" points="804.1915,-228 664.7094,-228 664.7094,-192 804.1915,-192 804.1915,-228"/>
<text text-anchor="middle" x="734.4505" y="-205.2" font-family="Times,serif" font-size="16.00" fill="#000000">Le transhumanisme</text>
</g>
<!-- b5&#45;&gt;c9 -->
<g id="edge20" class="edge">
<title>b5&#45;&gt;c9</title>
<path fill="none" stroke="#000000" d="M601.0685,-208.2222C619.5036,-208.468 637.5988,-208.7091 654.2224,-208.9307"/>
<polygon fill="#000000" stroke="#000000" points="654.327,-212.4323 664.3728,-209.066 654.4203,-205.4329 654.327,-212.4323"/>
</g>
<!-- c10 -->
<g id="node17" class="node">
<title>c10</title>
<polygon fill="#ffffff" stroke="#7f7f7f" points="802.6234,-178 666.2775,-178 666.2775,-142 802.6234,-142 802.6234,-178"/>
<text text-anchor="middle" x="734.4505" y="-155.2" font-family="Times,serif" font-size="16.00" fill="#000000">Matthew Crawford</text>
</g>
<!-- b5&#45;&gt;c10 -->
<g id="edge21" class="edge">
<title>b5&#45;&gt;c10</title>
<path fill="none" stroke="#000000" d="M571.6583,-184.952C600.5446,-180.5245 630.0649,-175.9997 655.8959,-172.0405"/>
<polygon fill="#000000" stroke="#000000" points="656.6232,-175.47 665.9774,-170.4952 655.5626,-168.5508 656.6232,-175.47"/>
</g>
<!-- c11 -->
<g id="node18" class="node">
<title>c11</title>
<polygon fill="#ffffff" stroke="#7f7f7f" points="761.4505,-86 707.4505,-86 707.4505,-50 761.4505,-50 761.4505,-86"/>
<text text-anchor="middle" x="734.4505" y="-63.2" font-family="Times,serif" font-size="16.00" fill="#000000">Ellul</text>
</g>
<!-- b6&#45;&gt;c11 -->
<g id="edge22" class="edge">
<title>b6&#45;&gt;c11</title>
<path fill="none" stroke="#000000" d="M588.7893,-70.4268C629.2876,-69.7521 669.3586,-69.0845 697.1895,-68.6208"/>
<polygon fill="#000000" stroke="#000000" points="697.2917,-72.1197 707.232,-68.4535 697.175,-65.1206 697.2917,-72.1197"/>
</g>
<!-- c12 -->
<g id="node19" class="node">
<title>c12</title>
<polygon fill="#ffffff" stroke="#7f7f7f" points="770.98,-36 697.9209,-36 697.9209,0 770.98,0 770.98,-36"/>
<text text-anchor="middle" x="734.4505" y="-13.2" font-family="Times,serif" font-size="16.00" fill="#000000">Feenberg</text>
</g>
<!-- b6&#45;&gt;c12 -->
<g id="edge23" class="edge">
<title>b6&#45;&gt;c12</title>
<path fill="none" stroke="#000000" d="M557.2705,-50.4707C603.2382,-42.0465 652.7185,-32.9785 687.6749,-26.5723"/>
<polygon fill="#000000" stroke="#000000" points="688.3796,-30.0015 697.5849,-24.7561 687.1177,-23.1162 688.3796,-30.0015"/>
</g>
<!-- c2&#45;&gt;c3 -->
<!-- c4&#45;&gt;c5 -->
<!-- c6&#45;&gt;c7 -->
<!-- c8&#45;&gt;c9 -->
<!-- c10&#45;&gt;c11 -->
</g>
</svg>
