<?xml version="1.0" encoding="UTF-8" standalone="no"?>
<!DOCTYPE svg PUBLIC "-//W3C//DTD SVG 1.1//EN"
 "http://www.w3.org/Graphics/SVG/1.1/DTD/svg11.dtd">
<!-- Generated by graphviz version 2.40.1 (20161225.0304)
 -->
<!-- Title: G Pages: 1 -->
<svg width="814pt" height="474pt"
 viewBox="0.00 0.00 813.98 473.80" xmlns="http://www.w3.org/2000/svg" xmlns:xlink="http://www.w3.org/1999/xlink">
<g id="graph0" class="graph" transform="scale(1 1) rotate(0) translate(21.6 452.2)">
<title>G</title>
<polygon fill="#fafafa" stroke="transparent" points="-21.6,21.6 -21.6,-452.2 792.3807,-452.2 792.3807,21.6 -21.6,21.6"/>
<!-- a1 -->
<g id="node1" class="node">
<title>a1</title>
<ellipse fill="#050505" stroke="#000000" cx="88.8904" cy="-263.8" rx="88.7809" ry="66.5027"/>
<text text-anchor="middle" x="88.8904" y="-290.8" font-family="Times,serif" font-size="18.00" fill="#ffffff">Peut&#45;on définir</text>
<text text-anchor="middle" x="88.8904" y="-269.2" font-family="Times,serif" font-size="18.00" fill="#ffffff">ce qui fait la</text>
<text text-anchor="middle" x="88.8904" y="-247.6" font-family="Times,serif" font-size="18.00" fill="#ffffff">valeur d&#39;une</text>
<text text-anchor="middle" x="88.8904" y="-226" font-family="Times,serif" font-size="18.00" fill="#ffffff">œuvre d&#39;art ?</text>
</g>
<!-- p1 -->
<g id="node2" class="node">
<title>p1</title>
<path fill="#fafafa" stroke="#006400" d="M279.641,-397.5003C279.641,-397.5003 215.8273,-397.5003 215.8273,-397.5003 209.8273,-397.5003 203.8273,-391.5003 203.8273,-385.5003 203.8273,-385.5003 203.8273,-334.0997 203.8273,-334.0997 203.8273,-328.0997 209.8273,-322.0997 215.8273,-322.0997 215.8273,-322.0997 279.641,-322.0997 279.641,-322.0997 285.641,-322.0997 291.641,-328.0997 291.641,-334.0997 291.641,-334.0997 291.641,-385.5003 291.641,-385.5003 291.641,-391.5003 285.641,-397.5003 279.641,-397.5003"/>
<text text-anchor="middle" x="247.7342" y="-380.8" font-family="Times,serif" font-size="14.00" fill="#006400">L&#39;art du</text>
<text text-anchor="middle" x="247.7342" y="-364" font-family="Times,serif" font-size="14.00" fill="#006400">point de vue</text>
<text text-anchor="middle" x="247.7342" y="-347.2" font-family="Times,serif" font-size="14.00" fill="#006400">de l&#39;œuvre et</text>
<text text-anchor="middle" x="247.7342" y="-330.4" font-family="Times,serif" font-size="14.00" fill="#006400">de l&#39;artiste</text>
</g>
<!-- a1&#45;&gt;p1 -->
<g id="edge1" class="edge">
<title>a1&#45;&gt;p1:w</title>
<path fill="none" stroke="#000000" d="M131.2739,-322.6839C150.6443,-342.5555 175.5785,-359.8 203.7808,-359.8"/>
</g>
<!-- p2 -->
<g id="node3" class="node">
<title>p2</title>
<path fill="#fafafa" stroke="#006400" d="M278.4448,-197.2014C278.4448,-197.2014 217.0235,-197.2014 217.0235,-197.2014 211.0235,-197.2014 205.0235,-191.2014 205.0235,-185.2014 205.0235,-185.2014 205.0235,-150.3986 205.0235,-150.3986 205.0235,-144.3986 211.0235,-138.3986 217.0235,-138.3986 217.0235,-138.3986 278.4448,-138.3986 278.4448,-138.3986 284.4448,-138.3986 290.4448,-144.3986 290.4448,-150.3986 290.4448,-150.3986 290.4448,-185.2014 290.4448,-185.2014 290.4448,-191.2014 284.4448,-197.2014 278.4448,-197.2014"/>
<text text-anchor="middle" x="247.7342" y="-180.4" font-family="Times,serif" font-size="14.00" fill="#006400">L&#39;art du</text>
<text text-anchor="middle" x="247.7342" y="-163.6" font-family="Times,serif" font-size="14.00" fill="#006400">point de vue</text>
<text text-anchor="middle" x="247.7342" y="-146.8" font-family="Times,serif" font-size="14.00" fill="#006400">du public</text>
</g>
<!-- a1&#45;&gt;p2 -->
<g id="edge2" class="edge">
<title>a1&#45;&gt;p2:w</title>
<path fill="none" stroke="#000000" d="M131.4513,-205.191C151.0358,-185.2038 176.2632,-167.8 204.7342,-167.8"/>
</g>
<!-- p1&#45;&gt;p2 -->
<!-- b1 -->
<g id="node4" class="node">
<title>b1</title>
<ellipse fill="#8b0000" stroke="#000000" cx="398.7299" cy="-359.8" rx="81.0847" ry="46.2727"/>
<text text-anchor="middle" x="398.7299" y="-374.2" font-family="Times,serif" font-size="16.00" fill="#ffffff">L&#39;artiste</text>
<text text-anchor="middle" x="398.7299" y="-355" font-family="Times,serif" font-size="16.00" fill="#ffffff">n&#39;obéit&#45;il à</text>
<text text-anchor="middle" x="398.7299" y="-335.8" font-family="Times,serif" font-size="16.00" fill="#ffffff">aucune règle ?</text>
</g>
<!-- p1&#45;&gt;b1 -->
<g id="edge4" class="edge">
<title>p1&#45;&gt;b1:w</title>
<path fill="none" stroke="#000000" d="M291.7939,-359.8C297.0353,-359.8 302.4061,-359.8 307.6997,-359.8"/>
<polygon fill="#000000" stroke="#000000" points="307.73,-363.3001 317.7299,-359.8 307.7299,-356.3001 307.73,-363.3001"/>
</g>
<!-- b2 -->
<g id="node5" class="node">
<title>b2</title>
<ellipse fill="#8b0000" stroke="#000000" cx="398.7299" cy="-211.8" rx="74.3907" ry="46.2727"/>
<text text-anchor="middle" x="398.7299" y="-226.2" font-family="Times,serif" font-size="16.00" fill="#ffffff">Qu&#39;est&#45;ce que</text>
<text text-anchor="middle" x="398.7299" y="-207" font-family="Times,serif" font-size="16.00" fill="#ffffff">l&#39;art nous</text>
<text text-anchor="middle" x="398.7299" y="-187.8" font-family="Times,serif" font-size="16.00" fill="#ffffff">apporte ?</text>
</g>
<!-- p2&#45;&gt;b2 -->
<g id="edge5" class="edge">
<title>p2&#45;&gt;b2:w</title>
<path fill="none" stroke="#000000" d="M281.3943,-197.1486C291.0296,-203.3911 302.0569,-208.7418 313.5423,-210.8459"/>
<polygon fill="#000000" stroke="#000000" points="313.4471,-214.3522 323.7299,-211.8 314.0999,-207.3827 313.4471,-214.3522"/>
</g>
<!-- b3 -->
<g id="node6" class="node">
<title>b3</title>
<ellipse fill="#8b0000" stroke="#000000" cx="398.7299" cy="-63.8" rx="58.5142" ry="46.2727"/>
<text text-anchor="middle" x="398.7299" y="-78.2" font-family="Times,serif" font-size="16.00" fill="#ffffff">Les goûts</text>
<text text-anchor="middle" x="398.7299" y="-59" font-family="Times,serif" font-size="16.00" fill="#ffffff">sont&#45;ils</text>
<text text-anchor="middle" x="398.7299" y="-39.8" font-family="Times,serif" font-size="16.00" fill="#ffffff">relatifs ?</text>
</g>
<!-- p2&#45;&gt;b3 -->
<g id="edge6" class="edge">
<title>p2&#45;&gt;b3:w</title>
<path fill="none" stroke="#000000" d="M258.8878,-138.5534C271.5596,-110.4363 295.076,-71.2635 329.6767,-64.7384"/>
<polygon fill="#000000" stroke="#000000" points="330.0985,-68.2143 339.7299,-63.8 329.4479,-61.2446 330.0985,-68.2143"/>
</g>
<!-- b1&#45;&gt;b2 -->
<!-- c1 -->
<g id="node7" class="node">
<title>c1</title>
<polygon fill="#ffffff" stroke="#7f7f7f" points="602.8803,-427.4012 505.7363,-427.4012 505.7363,-362.1988 602.8803,-362.1988 602.8803,-427.4012"/>
<text text-anchor="middle" x="554.3083" y="-409.2" font-family="Times,serif" font-size="16.00" fill="#000000">L&#39;esthétique</text>
<text text-anchor="middle" x="554.3083" y="-390" font-family="Times,serif" font-size="16.00" fill="#000000">classique</text>
<text text-anchor="middle" x="554.3083" y="-370.8" font-family="Times,serif" font-size="16.00" fill="#000000">du Beau</text>
</g>
<!-- b1&#45;&gt;c1 -->
<g id="edge9" class="edge">
<title>b1&#45;&gt;c1</title>
<path fill="none" stroke="#000000" d="M474.2404,-376.7874C481.4187,-378.4023 488.6229,-380.023 495.6082,-381.5944"/>
<polygon fill="#000000" stroke="#000000" points="495.133,-385.0749 505.6574,-383.8551 496.6694,-378.2456 495.133,-385.0749"/>
</g>
<!-- c2 -->
<g id="node8" class="node">
<title>c2</title>
<polygon fill="#ffffff" stroke="#7f7f7f" points="602.8803,-343.2017 505.7363,-343.2017 505.7363,-296.3983 602.8803,-296.3983 602.8803,-343.2017"/>
<text text-anchor="middle" x="554.3083" y="-324.6" font-family="Times,serif" font-size="16.00" fill="#000000">L&#39;esthétique</text>
<text text-anchor="middle" x="554.3083" y="-305.4" font-family="Times,serif" font-size="16.00" fill="#000000">du génie</text>
</g>
<!-- b1&#45;&gt;c2 -->
<g id="edge10" class="edge">
<title>b1&#45;&gt;c2</title>
<path fill="none" stroke="#000000" d="M472.8739,-340.7372C480.6012,-338.7505 488.3766,-336.7514 495.8941,-334.8186"/>
<polygon fill="#000000" stroke="#000000" points="496.789,-338.2024 505.6025,-332.3225 495.0459,-331.4229 496.789,-338.2024"/>
</g>
<!-- b2&#45;&gt;b3 -->
<!-- c3 -->
<g id="node9" class="node">
<title>c3</title>
<polygon fill="#ffffff" stroke="#7f7f7f" points="582.698,-254.8 525.9186,-254.8 525.9186,-218.8 582.698,-218.8 582.698,-254.8"/>
<text text-anchor="middle" x="554.3083" y="-232" font-family="Times,serif" font-size="16.00" fill="#000000">Platon</text>
</g>
<!-- b2&#45;&gt;c3 -->
<g id="edge11" class="edge">
<title>b2&#45;&gt;c3</title>
<path fill="none" stroke="#000000" d="M471.0536,-223.4217C486.4826,-225.901 502.1998,-228.4266 515.7612,-230.6058"/>
<polygon fill="#000000" stroke="#000000" points="515.2422,-234.0673 525.6709,-232.1982 516.3529,-227.1559 515.2422,-234.0673"/>
</g>
<!-- c4 -->
<g id="node10" class="node">
<title>c4</title>
<polygon fill="#ffffff" stroke="#7f7f7f" points="589.1306,-196.8 519.486,-196.8 519.486,-160.8 589.1306,-160.8 589.1306,-196.8"/>
<text text-anchor="middle" x="554.3083" y="-174" font-family="Times,serif" font-size="16.00" fill="#000000">Bergson</text>
</g>
<!-- b2&#45;&gt;c4 -->
<g id="edge12" class="edge">
<title>b2&#45;&gt;c4</title>
<path fill="none" stroke="#000000" d="M469.2359,-196.8449C482.8031,-193.9671 496.6685,-191.0261 509.1617,-188.3761"/>
<polygon fill="#000000" stroke="#000000" points="510.2404,-191.7253 519.2965,-186.2264 508.7879,-184.8776 510.2404,-191.7253"/>
</g>
<!-- c5 -->
<g id="node11" class="node">
<title>c5</title>
<polygon fill="#ffffff" stroke="#7f7f7f" points="591.8553,-118.8 516.7613,-118.8 516.7613,-82.8 591.8553,-82.8 591.8553,-118.8"/>
<text text-anchor="middle" x="554.3083" y="-96" font-family="Times,serif" font-size="16.00" fill="#000000">Bourdieu</text>
</g>
<!-- b3&#45;&gt;c5 -->
<g id="edge13" class="edge">
<title>b3&#45;&gt;c5</title>
<path fill="none" stroke="#000000" d="M455.3374,-77.2625C472.1735,-81.2665 490.4427,-85.6113 506.6483,-89.4654"/>
<polygon fill="#000000" stroke="#000000" points="505.9022,-92.8855 516.4407,-91.7942 507.5219,-86.0754 505.9022,-92.8855"/>
</g>
<!-- c6 -->
<g id="node12" class="node">
<title>c6</title>
<polygon fill="#ffffff" stroke="#7f7f7f" points="581.9076,-52.8 526.709,-52.8 526.709,-16.8 581.9076,-16.8 581.9076,-52.8"/>
<text text-anchor="middle" x="554.3083" y="-30" font-family="Times,serif" font-size="16.00" fill="#000000">Hume</text>
</g>
<!-- b3&#45;&gt;c6 -->
<g id="edge14" class="edge">
<title>b3&#45;&gt;c6</title>
<path fill="none" stroke="#000000" d="M456.2196,-53.0839C476.4292,-49.3168 498.6042,-45.1833 516.7498,-41.801"/>
<polygon fill="#000000" stroke="#000000" points="517.4602,-45.2289 526.6495,-39.9556 516.1774,-38.3474 517.4602,-45.2289"/>
</g>
<!-- e1 -->
<g id="node13" class="node">
<title>e1</title>
<path fill="#fafafa" stroke="transparent" d="M724.1327,-430.4012C724.1327,-430.4012 657.4923,-430.4012 657.4923,-430.4012 651.4923,-430.4012 645.4923,-424.4012 645.4923,-418.4012 645.4923,-418.4012 645.4923,-377.1988 645.4923,-377.1988 645.4923,-371.1988 651.4923,-365.1988 657.4923,-365.1988 657.4923,-365.1988 724.1327,-365.1988 724.1327,-365.1988 730.1327,-365.1988 736.1327,-371.1988 736.1327,-377.1988 736.1327,-377.1988 736.1327,-418.4012 736.1327,-418.4012 736.1327,-424.4012 730.1327,-430.4012 724.1327,-430.4012"/>
<text text-anchor="middle" x="690.8125" y="-415.8" font-family="Times,serif" font-size="12.00" fill="#cd2626">L&#39;harmonie</text>
<text text-anchor="middle" x="690.8125" y="-401.4" font-family="Times,serif" font-size="12.00" fill="#cd2626">comme respect</text>
<text text-anchor="middle" x="690.8125" y="-387" font-family="Times,serif" font-size="12.00" fill="#cd2626">des proportions</text>
<text text-anchor="middle" x="690.8125" y="-372.6" font-family="Times,serif" font-size="12.00" fill="#cd2626">(Pythagore)</text>
</g>
<!-- c1&#45;&gt;e1 -->
<!-- c2&#45;&gt;c3 -->
<!-- e2 -->
<g id="node14" class="node">
<title>e2</title>
<path fill="#fafafa" stroke="transparent" d="M758.7489,-350.4012C758.7489,-350.4012 622.8761,-350.4012 622.8761,-350.4012 616.8761,-350.4012 610.8761,-344.4012 610.8761,-338.4012 610.8761,-338.4012 610.8761,-297.1988 610.8761,-297.1988 610.8761,-291.1988 616.8761,-285.1988 622.8761,-285.1988 622.8761,-285.1988 758.7489,-285.1988 758.7489,-285.1988 764.7489,-285.1988 770.7489,-291.1988 770.7489,-297.1988 770.7489,-297.1988 770.7489,-338.4012 770.7489,-338.4012 770.7489,-344.4012 764.7489,-350.4012 758.7489,-350.4012"/>
<text text-anchor="middle" x="690.8125" y="-335.8" font-family="Times,serif" font-size="12.00" fill="#cd2626">Le génie :</text>
<text text-anchor="middle" x="690.8125" y="-321.4" font-family="Times,serif" font-size="12.00" fill="#cd2626">maîtrise parfaite des règles,</text>
<text text-anchor="middle" x="690.8125" y="-307" font-family="Times,serif" font-size="12.00" fill="#cd2626">invention de règles (Kant)</text>
<text text-anchor="middle" x="690.8125" y="-292.6" font-family="Times,serif" font-size="12.00" fill="#cd2626">ou dépassement des règles ?</text>
</g>
<!-- c2&#45;&gt;e2 -->
<!-- e3 -->
<g id="node15" class="node">
<title>e3</title>
<path fill="#fafafa" stroke="transparent" d="M734.4339,-266.5004C734.4339,-266.5004 647.1911,-266.5004 647.1911,-266.5004 641.1911,-266.5004 635.1911,-260.5004 635.1911,-254.5004 635.1911,-254.5004 635.1911,-227.0996 635.1911,-227.0996 635.1911,-221.0996 641.1911,-215.0996 647.1911,-215.0996 647.1911,-215.0996 734.4339,-215.0996 734.4339,-215.0996 740.4339,-215.0996 746.4339,-221.0996 746.4339,-227.0996 746.4339,-227.0996 746.4339,-254.5004 746.4339,-254.5004 746.4339,-260.5004 740.4339,-266.5004 734.4339,-266.5004"/>
<text text-anchor="middle" x="690.8125" y="-251.6" font-family="Times,serif" font-size="12.00" fill="#cd2626">La séduction stérile</text>
<text text-anchor="middle" x="690.8125" y="-237.2" font-family="Times,serif" font-size="12.00" fill="#cd2626">voire dangereuse</text>
<text text-anchor="middle" x="690.8125" y="-222.8" font-family="Times,serif" font-size="12.00" fill="#cd2626">des apparence</text>
</g>
<!-- c3&#45;&gt;e3 -->
<!-- c4&#45;&gt;c5 -->
<!-- e4 -->
<g id="node16" class="node">
<title>e4</title>
<path fill="#fafafa" stroke="transparent" d="M720.9413,-201.5004C720.9413,-201.5004 660.6837,-201.5004 660.6837,-201.5004 654.6837,-201.5004 648.6837,-195.5004 648.6837,-189.5004 648.6837,-189.5004 648.6837,-162.0996 648.6837,-162.0996 648.6837,-156.0996 654.6837,-150.0996 660.6837,-150.0996 660.6837,-150.0996 720.9413,-150.0996 720.9413,-150.0996 726.9413,-150.0996 732.9413,-156.0996 732.9413,-162.0996 732.9413,-162.0996 732.9413,-189.5004 732.9413,-189.5004 732.9413,-195.5004 726.9413,-201.5004 720.9413,-201.5004"/>
<text text-anchor="middle" x="690.8125" y="-186.6" font-family="Times,serif" font-size="12.00" fill="#cd2626">La richesse de</text>
<text text-anchor="middle" x="690.8125" y="-172.2" font-family="Times,serif" font-size="12.00" fill="#cd2626">l&#39;expérience</text>
<text text-anchor="middle" x="690.8125" y="-157.8" font-family="Times,serif" font-size="12.00" fill="#cd2626">esthétique</text>
</g>
<!-- c4&#45;&gt;e4 -->
<!-- e5 -->
<g id="node17" class="node">
<title>e5</title>
<path fill="#fafafa" stroke="transparent" d="M735.959,-130.5004C735.959,-130.5004 645.666,-130.5004 645.666,-130.5004 639.666,-130.5004 633.666,-124.5004 633.666,-118.5004 633.666,-118.5004 633.666,-91.0996 633.666,-91.0996 633.666,-85.0996 639.666,-79.0996 645.666,-79.0996 645.666,-79.0996 735.959,-79.0996 735.959,-79.0996 741.959,-79.0996 747.959,-85.0996 747.959,-91.0996 747.959,-91.0996 747.959,-118.5004 747.959,-118.5004 747.959,-124.5004 741.959,-130.5004 735.959,-130.5004"/>
<text text-anchor="middle" x="690.8125" y="-115.6" font-family="Times,serif" font-size="12.00" fill="#cd2626">L&#39;espace</text>
<text text-anchor="middle" x="690.8125" y="-101.2" font-family="Times,serif" font-size="12.00" fill="#cd2626">social des goûts,</text>
<text text-anchor="middle" x="690.8125" y="-86.8" font-family="Times,serif" font-size="12.00" fill="#cd2626">la distinction sociale</text>
</g>
<!-- c5&#45;&gt;e5 -->
<!-- e6 -->
<g id="node18" class="node">
<title>e6</title>
<path fill="#fafafa" stroke="transparent" d="M747.2669,-65.4012C747.2669,-65.4012 634.3581,-65.4012 634.3581,-65.4012 628.3581,-65.4012 622.3581,-59.4012 622.3581,-53.4012 622.3581,-53.4012 622.3581,-12.1988 622.3581,-12.1988 622.3581,-6.1988 628.3581,-.1988 634.3581,-.1988 634.3581,-.1988 747.2669,-.1988 747.2669,-.1988 753.2669,-.1988 759.2669,-6.1988 759.2669,-12.1988 759.2669,-12.1988 759.2669,-53.4012 759.2669,-53.4012 759.2669,-59.4012 753.2669,-65.4012 747.2669,-65.4012"/>
<text text-anchor="middle" x="690.8125" y="-50.8" font-family="Times,serif" font-size="12.00" fill="#cd2626">L&#39;éducation du goût par</text>
<text text-anchor="middle" x="690.8125" y="-36.4" font-family="Times,serif" font-size="12.00" fill="#cd2626">l&#39;expérience, la pratique</text>
<text text-anchor="middle" x="690.8125" y="-22" font-family="Times,serif" font-size="12.00" fill="#cd2626">et les connaissances</text>
<text text-anchor="middle" x="690.8125" y="-7.6" font-family="Times,serif" font-size="12.00" fill="#cd2626">artistiques</text>
</g>
<!-- c6&#45;&gt;e6 -->
</g>
</svg>
