<?xml version="1.0" encoding="UTF-8" standalone="no"?>
<!DOCTYPE svg PUBLIC "-//W3C//DTD SVG 1.1//EN"
 "http://www.w3.org/Graphics/SVG/1.1/DTD/svg11.dtd">
<!-- Generated by graphviz version 2.40.1 (20161225.0304)
 -->
<!-- Title: G Pages: 1 -->
<svg width="782pt" height="610pt"
 viewBox="0.00 0.00 782.07 610.40" xmlns="http://www.w3.org/2000/svg" xmlns:xlink="http://www.w3.org/1999/xlink">
<g id="graph0" class="graph" transform="scale(1 1) rotate(0) translate(21.6 588.8)">
<title>G</title>
<polygon fill="#fafafa" stroke="transparent" points="-21.6,21.6 -21.6,-588.8 760.4651,-588.8 760.4651,21.6 -21.6,21.6"/>
<!-- a1 -->
<g id="node1" class="node">
<title>a1</title>
<ellipse fill="#050505" stroke="#000000" cx="103.581" cy="-301.2" rx="103.662" ry="51.4548"/>
<text text-anchor="middle" x="103.581" y="-317.4" font-family="Times,serif" font-size="18.00" fill="#ffffff">Comment peut&#45;on</text>
<text text-anchor="middle" x="103.581" y="-295.8" font-family="Times,serif" font-size="18.00" fill="#ffffff">comprendre la</text>
<text text-anchor="middle" x="103.581" y="-274.2" font-family="Times,serif" font-size="18.00" fill="#ffffff">foi religieuse ?</text>
</g>
<!-- b1 -->
<g id="node2" class="node">
<title>b1</title>
<ellipse fill="#8b0000" stroke="#000000" cx="403.0355" cy="-506.2" rx="129.2129" ry="46.2727"/>
<text text-anchor="middle" x="403.0355" y="-520.6" font-family="Times,serif" font-size="16.00" fill="#ffffff">La foi religieuse est&#45;elle</text>
<text text-anchor="middle" x="403.0355" y="-501.4" font-family="Times,serif" font-size="16.00" fill="#ffffff">une affaire personnelle ou</text>
<text text-anchor="middle" x="403.0355" y="-482.2" font-family="Times,serif" font-size="16.00" fill="#ffffff">un phénomène social ?</text>
</g>
<!-- a1&#45;&gt;b1 -->
<g id="edge1" class="edge">
<title>a1&#45;&gt;b1:w</title>
<path fill="none" stroke="#000000" d="M120.5673,-352.1376C143.3878,-410.2421 189.856,-498.2381 263.8957,-505.6929"/>
<polygon fill="#000000" stroke="#000000" points="263.8731,-509.1961 274.0355,-506.2 264.2228,-502.2048 263.8731,-509.1961"/>
<text text-anchor="start" x="238.2152" y="-506.4" font-family="Times,serif" font-size="14.00" fill="#006400">I</text>
</g>
<!-- b2 -->
<g id="node3" class="node">
<title>b2</title>
<ellipse fill="#8b0000" stroke="#000000" cx="403.0355" cy="-399.2" rx="97.8813" ry="32.6206"/>
<text text-anchor="middle" x="403.0355" y="-404" font-family="Times,serif" font-size="16.00" fill="#ffffff">La foi religieuse</text>
<text text-anchor="middle" x="403.0355" y="-384.8" font-family="Times,serif" font-size="16.00" fill="#ffffff">est&#45;elle un refuge ?</text>
</g>
<!-- a1&#45;&gt;b2 -->
<g id="edge2" class="edge">
<title>a1&#45;&gt;b2:w</title>
<path fill="none" stroke="#000000" d="M159.1613,-345.0405C195.3123,-369.4518 244.8607,-395.5903 294.7285,-398.8583"/>
<polygon fill="#000000" stroke="#000000" points="294.925,-402.3666 305.0355,-399.2 295.157,-395.3705 294.925,-402.3666"/>
<text text-anchor="start" x="235.8849" y="-393.4" font-family="Times,serif" font-size="14.00" fill="#006400">II</text>
</g>
<!-- b3 -->
<g id="node4" class="node">
<title>b3</title>
<ellipse fill="#8b0000" stroke="#000000" cx="403.0355" cy="-301.2" rx="106.4828" ry="32.6206"/>
<text text-anchor="middle" x="403.0355" y="-306" font-family="Times,serif" font-size="16.00" fill="#ffffff">Peut&#45;on prouver</text>
<text text-anchor="middle" x="403.0355" y="-286.8" font-family="Times,serif" font-size="16.00" fill="#ffffff">l&#39;existence de Dieu ?</text>
</g>
<!-- a1&#45;&gt;b3 -->
<g id="edge3" class="edge">
<title>a1&#45;&gt;b3:w</title>
<path fill="none" stroke="#000000" d="M207.4564,-301.2C232.7903,-301.2 260.0344,-301.2 285.8419,-301.2"/>
<polygon fill="#000000" stroke="#000000" points="286.0355,-304.7001 296.0355,-301.2 286.0355,-297.7001 286.0355,-304.7001"/>
<text text-anchor="start" x="233.5546" y="-305.4" font-family="Times,serif" font-size="14.00" fill="#006400">III</text>
</g>
<!-- b4 -->
<g id="node5" class="node">
<title>b4</title>
<ellipse fill="#8b0000" stroke="#000000" cx="403.0355" cy="-203.2" rx="115.0851" ry="32.6206"/>
<text text-anchor="middle" x="403.0355" y="-208" font-family="Times,serif" font-size="16.00" fill="#ffffff">Peut&#45;on prouver</text>
<text text-anchor="middle" x="403.0355" y="-188.8" font-family="Times,serif" font-size="16.00" fill="#ffffff">l&#39;inexistence de Dieu ?</text>
</g>
<!-- a1&#45;&gt;b4 -->
<g id="edge4" class="edge">
<title>a1&#45;&gt;b4:w</title>
<path fill="none" stroke="#000000" d="M155.0519,-256.5017C187.7069,-232.4221 232.2926,-206.9461 277.9679,-203.5756"/>
<polygon fill="#000000" stroke="#000000" points="278.173,-207.0705 288.0355,-203.2 277.9119,-200.0754 278.173,-207.0705"/>
<text text-anchor="start" x="233.1619" y="-218.4" font-family="Times,serif" font-size="14.00" fill="#006400">IV</text>
</g>
<!-- b5 -->
<g id="node6" class="node">
<title>b5</title>
<ellipse fill="#8b0000" stroke="#000000" cx="403.0355" cy="-86.2" rx="97.2679" ry="46.2727"/>
<text text-anchor="middle" x="403.0355" y="-100.6" font-family="Times,serif" font-size="16.00" fill="#ffffff">Y a&#45;t&#45;il un conflit</text>
<text text-anchor="middle" x="403.0355" y="-81.4" font-family="Times,serif" font-size="16.00" fill="#ffffff">entre la raison et la</text>
<text text-anchor="middle" x="403.0355" y="-62.2" font-family="Times,serif" font-size="16.00" fill="#ffffff">foi religieuse ?</text>
</g>
<!-- a1&#45;&gt;b5 -->
<g id="edge5" class="edge">
<title>a1&#45;&gt;b5:w</title>
<path fill="none" stroke="#000000" d="M124.3104,-250.5203C152.9407,-189.3777 210.7673,-93.8209 294.9165,-86.6308"/>
<polygon fill="#000000" stroke="#000000" points="295.1935,-90.1223 305.0355,-86.2 294.8956,-83.1286 295.1935,-90.1223"/>
<text text-anchor="start" x="235.4922" y="-113.4" font-family="Times,serif" font-size="14.00" fill="#006400">V</text>
</g>
<!-- b1&#45;&gt;b2 -->
<!-- c1 -->
<g id="node7" class="node">
<title>c1</title>
<polygon fill="#ffffff" stroke="#7f7f7f" points="689.0035,-567.2 635.0035,-567.2 635.0035,-531.2 689.0035,-531.2 689.0035,-567.2"/>
<text text-anchor="middle" x="662.0035" y="-544.4" font-family="Times,serif" font-size="16.00" fill="#000000">Freud</text>
</g>
<!-- b1&#45;&gt;c1 -->
<g id="edge10" class="edge">
<title>b1&#45;&gt;c1</title>
<path fill="none" stroke="#000000" d="M520.3962,-525.687C558.1324,-531.9529 597.2541,-538.4488 624.7895,-543.0209"/>
<polygon fill="#000000" stroke="#000000" points="624.3101,-546.4891 634.7484,-544.6745 625.4568,-539.5836 624.3101,-546.4891"/>
</g>
<!-- c2 -->
<g id="node8" class="node">
<title>c2</title>
<polygon fill="#ffffff" stroke="#7f7f7f" points="702.3756,-524.2 621.6314,-524.2 621.6314,-488.2 702.3756,-488.2 702.3756,-524.2"/>
<text text-anchor="middle" x="662.0035" y="-501.4" font-family="Times,serif" font-size="16.00" fill="#000000">Durkheim</text>
</g>
<!-- b1&#45;&gt;c2 -->
<g id="edge11" class="edge">
<title>b1&#45;&gt;c2</title>
<path fill="none" stroke="#000000" d="M532.5195,-506.2C560.5912,-506.2 588.6629,-506.2 611.4571,-506.2"/>
<polygon fill="#000000" stroke="#000000" points="611.5398,-509.7001 621.5397,-506.2 611.5397,-502.7001 611.5398,-509.7001"/>
</g>
<!-- b2&#45;&gt;b3 -->
<!-- c3 -->
<g id="node9" class="node">
<title>c3</title>
<polygon fill="#ffffff" stroke="#7f7f7f" points="689.0035,-460.2 635.0035,-460.2 635.0035,-424.2 689.0035,-424.2 689.0035,-460.2"/>
<text text-anchor="middle" x="662.0035" y="-437.4" font-family="Times,serif" font-size="16.00" fill="#000000">Marx</text>
</g>
<!-- b2&#45;&gt;c3 -->
<g id="edge12" class="edge">
<title>b2&#45;&gt;c3</title>
<path fill="none" stroke="#000000" d="M490.7103,-413.7578C536.3221,-421.3314 589.6876,-430.1924 624.5799,-435.9861"/>
<polygon fill="#000000" stroke="#000000" points="624.3482,-439.4954 634.7865,-437.6808 625.4949,-432.59 624.3482,-439.4954"/>
</g>
<!-- c4 -->
<g id="node10" class="node">
<title>c4</title>
<polygon fill="#ffffff" stroke="#7f7f7f" points="696.8258,-417.2 627.1811,-417.2 627.1811,-381.2 696.8258,-381.2 696.8258,-417.2"/>
<text text-anchor="middle" x="662.0035" y="-394.4" font-family="Times,serif" font-size="16.00" fill="#000000">Bergson</text>
</g>
<!-- b2&#45;&gt;c4 -->
<g id="edge13" class="edge">
<title>b2&#45;&gt;c4</title>
<path fill="none" stroke="#000000" d="M500.9402,-399.2C540.8328,-399.2 584.9843,-399.2 616.9567,-399.2"/>
<polygon fill="#000000" stroke="#000000" points="617.3089,-402.7001 627.3089,-399.2 617.3089,-395.7001 617.3089,-402.7001"/>
</g>
<!-- b3&#45;&gt;b4 -->
<!-- c5 -->
<g id="node11" class="node">
<title>c5</title>
<polygon fill="#ffffff" stroke="#7f7f7f" points="733.5755,-353.6017 590.4315,-353.6017 590.4315,-306.7983 733.5755,-306.7983 733.5755,-353.6017"/>
<text text-anchor="middle" x="662.0035" y="-335" font-family="Times,serif" font-size="16.00" fill="#000000">Les arguments pour</text>
<text text-anchor="middle" x="662.0035" y="-315.8" font-family="Times,serif" font-size="16.00" fill="#000000">l&#39;existence de Dieu</text>
</g>
<!-- b3&#45;&gt;c5 -->
<g id="edge14" class="edge">
<title>b3&#45;&gt;c5</title>
<path fill="none" stroke="#000000" d="M503.1593,-312.4122C528.6788,-315.2699 555.8045,-318.3075 580.2819,-321.0486"/>
<polygon fill="#000000" stroke="#000000" points="579.9098,-324.5287 590.2372,-322.1634 580.6889,-317.5722 579.9098,-324.5287"/>
</g>
<!-- c6 -->
<g id="node12" class="node">
<title>c6</title>
<polygon fill="#ffffff" stroke="#7f7f7f" points="715.5771,-300.6017 608.4299,-300.6017 608.4299,-253.7983 715.5771,-253.7983 715.5771,-300.6017"/>
<text text-anchor="middle" x="662.0035" y="-282" font-family="Times,serif" font-size="16.00" fill="#000000">Les limites de</text>
<text text-anchor="middle" x="662.0035" y="-262.8" font-family="Times,serif" font-size="16.00" fill="#000000">ces arguments</text>
</g>
<!-- b3&#45;&gt;c6 -->
<g id="edge15" class="edge">
<title>b3&#45;&gt;c6</title>
<path fill="none" stroke="#000000" d="M505.0148,-291.749C536.4037,-288.84 570.0534,-285.7215 598.1167,-283.1207"/>
<polygon fill="#000000" stroke="#000000" points="598.5542,-286.5953 608.1885,-282.1873 597.9082,-279.6252 598.5542,-286.5953"/>
</g>
<!-- b4&#45;&gt;b5 -->
<!-- c7 -->
<g id="node13" class="node">
<title>c7</title>
<polygon fill="#ffffff" stroke="#7f7f7f" points="738.7269,-226.6017 585.28,-226.6017 585.28,-179.7983 738.7269,-179.7983 738.7269,-226.6017"/>
<text text-anchor="middle" x="662.0035" y="-208" font-family="Times,serif" font-size="16.00" fill="#000000">Les arguments contre</text>
<text text-anchor="middle" x="662.0035" y="-188.8" font-family="Times,serif" font-size="16.00" fill="#000000">l&#39;existence de Dieu</text>
</g>
<!-- b4&#45;&gt;c7 -->
<g id="edge16" class="edge">
<title>b4&#45;&gt;c7</title>
<path fill="none" stroke="#000000" d="M518.5081,-203.2C537.4254,-203.2 556.7464,-203.2 574.8303,-203.2"/>
<polygon fill="#000000" stroke="#000000" points="575.0297,-206.7001 585.0296,-203.2 575.0296,-199.7001 575.0297,-206.7001"/>
</g>
<!-- c8 -->
<g id="node14" class="node">
<title>c8</title>
<polygon fill="#ffffff" stroke="#7f7f7f" points="715.5771,-173.6017 608.4299,-173.6017 608.4299,-126.7983 715.5771,-126.7983 715.5771,-173.6017"/>
<text text-anchor="middle" x="662.0035" y="-155" font-family="Times,serif" font-size="16.00" fill="#000000">Les limites de</text>
<text text-anchor="middle" x="662.0035" y="-135.8" font-family="Times,serif" font-size="16.00" fill="#000000">ces arguments</text>
</g>
<!-- b4&#45;&gt;c8 -->
<g id="edge17" class="edge">
<title>b4&#45;&gt;c8</title>
<path fill="none" stroke="#000000" d="M496.895,-183.9908C530.5778,-177.0974 567.748,-169.4902 598.2784,-163.2419"/>
<polygon fill="#000000" stroke="#000000" points="599.2678,-166.612 608.363,-161.178 597.8642,-159.7542 599.2678,-166.612"/>
</g>
<!-- c9 -->
<g id="node15" class="node">
<title>c9</title>
<polygon fill="#ffffff" stroke="#7f7f7f" points="721.526,-99.6017 602.4809,-99.6017 602.4809,-52.7983 721.526,-52.7983 721.526,-99.6017"/>
<text text-anchor="middle" x="662.0035" y="-81" font-family="Times,serif" font-size="16.00" fill="#000000">Les conceptions</text>
<text text-anchor="middle" x="662.0035" y="-61.8" font-family="Times,serif" font-size="16.00" fill="#000000">conflictuelles</text>
</g>
<!-- b5&#45;&gt;c9 -->
<g id="edge18" class="edge">
<title>b5&#45;&gt;c9</title>
<path fill="none" stroke="#000000" d="M500.2024,-82.4479C530.7524,-81.2682 563.8664,-79.9895 592.1322,-78.8981"/>
<polygon fill="#000000" stroke="#000000" points="592.4554,-82.3883 602.3129,-78.5049 592.1852,-75.3935 592.4554,-82.3883"/>
</g>
<!-- c10 -->
<g id="node16" class="node">
<title>c10</title>
<polygon fill="#ffffff" stroke="#7f7f7f" points="727.5212,-46.6017 596.4858,-46.6017 596.4858,.2017 727.5212,.2017 727.5212,-46.6017"/>
<text text-anchor="middle" x="662.0035" y="-28" font-family="Times,serif" font-size="16.00" fill="#000000">Les conceptions</text>
<text text-anchor="middle" x="662.0035" y="-8.8" font-family="Times,serif" font-size="16.00" fill="#000000">non&#45;conflictuelles</text>
</g>
<!-- b5&#45;&gt;c10 -->
<g id="edge19" class="edge">
<title>b5&#45;&gt;c10</title>
<path fill="none" stroke="#000000" d="M489.9885,-65.0467C521.1442,-57.4673 555.9956,-48.9889 586.1385,-41.6559"/>
<polygon fill="#000000" stroke="#000000" points="587.279,-44.9806 596.1683,-39.2159 585.6243,-38.179 587.279,-44.9806"/>
</g>
<!-- c2&#45;&gt;c3 -->
<!-- c4&#45;&gt;c5 -->
<!-- c6&#45;&gt;c7 -->
<!-- c8&#45;&gt;c9 -->
</g>
</svg>
