<?xml version="1.0" encoding="UTF-8" standalone="no"?>
<!DOCTYPE svg PUBLIC "-//W3C//DTD SVG 1.1//EN"
 "http://www.w3.org/Graphics/SVG/1.1/DTD/svg11.dtd">
<!-- Generated by graphviz version 2.40.1 (20161225.0304)
 -->
<!-- Title: G Pages: 1 -->
<svg width="868pt" height="502pt"
 viewBox="0.00 0.00 867.61 501.94" xmlns="http://www.w3.org/2000/svg" xmlns:xlink="http://www.w3.org/1999/xlink">
<g id="graph0" class="graph" transform="scale(1 1) rotate(0) translate(21.6 480.3391)">
<title>G</title>
<polygon fill="#fafafa" stroke="transparent" points="-21.6,21.6 -21.6,-480.3391 846.0103,-480.3391 846.0103,21.6 -21.6,21.6"/>
<!-- a1 -->
<g id="node1" class="node">
<title>a1</title>
<ellipse fill="#050505" stroke="#000000" cx="96.8453" cy="-319.5391" rx="96.6909" ry="66.5027"/>
<text text-anchor="middle" x="96.8453" y="-346.5391" font-family="Times,serif" font-size="18.00" fill="#ffffff">Comment</text>
<text text-anchor="middle" x="96.8453" y="-324.9391" font-family="Times,serif" font-size="18.00" fill="#ffffff">peut&#45;on savoir</text>
<text text-anchor="middle" x="96.8453" y="-303.3391" font-family="Times,serif" font-size="18.00" fill="#ffffff">ce qui est bien et</text>
<text text-anchor="middle" x="96.8453" y="-281.7391" font-family="Times,serif" font-size="18.00" fill="#ffffff">ce qui est mal ?</text>
</g>
<!-- p1 -->
<g id="node2" class="node">
<title>p1</title>
<path fill="#fafafa" stroke="#006400" d="M315.9697,-431.141C315.9697,-431.141 244.3711,-431.141 244.3711,-431.141 238.3711,-431.141 232.3711,-425.141 232.3711,-419.141 232.3711,-419.141 232.3711,-401.9372 232.3711,-401.9372 232.3711,-395.9372 238.3711,-389.9372 244.3711,-389.9372 244.3711,-389.9372 315.9697,-389.9372 315.9697,-389.9372 321.9697,-389.9372 327.9697,-395.9372 327.9697,-401.9372 327.9697,-401.9372 327.9697,-419.141 327.9697,-419.141 327.9697,-425.141 321.9697,-431.141 315.9697,-431.141"/>
<text text-anchor="middle" x="280.1704" y="-414.7391" font-family="Times,serif" font-size="14.00" fill="#006400">I – La morale</text>
<text text-anchor="middle" x="280.1704" y="-397.9391" font-family="Times,serif" font-size="14.00" fill="#006400">et les mœurs</text>
</g>
<!-- a1&#45;&gt;p1 -->
<g id="edge1" class="edge">
<title>a1&#45;&gt;p1:w</title>
<path fill="none" stroke="#000000" d="M149.5783,-375.6164C172.731,-394.3431 201.5936,-410.5391 232.1704,-410.5391"/>
</g>
<!-- p2 -->
<g id="node3" class="node">
<title>p2</title>
<path fill="#fafafa" stroke="#006400" d="M328.6298,-250.141C328.6298,-250.141 231.711,-250.141 231.711,-250.141 225.711,-250.141 219.711,-244.141 219.711,-238.141 219.711,-238.141 219.711,-220.9372 219.711,-220.9372 219.711,-214.9372 225.711,-208.9372 231.711,-208.9372 231.711,-208.9372 328.6298,-208.9372 328.6298,-208.9372 334.6298,-208.9372 340.6298,-214.9372 340.6298,-220.9372 340.6298,-220.9372 340.6298,-238.141 340.6298,-238.141 340.6298,-244.141 334.6298,-250.141 328.6298,-250.141"/>
<text text-anchor="middle" x="280.1704" y="-233.7391" font-family="Times,serif" font-size="14.00" fill="#006400">II – Le fondement</text>
<text text-anchor="middle" x="280.1704" y="-216.9391" font-family="Times,serif" font-size="14.00" fill="#006400">de la morale</text>
</g>
<!-- a1&#45;&gt;p2 -->
<g id="edge2" class="edge">
<title>a1&#45;&gt;p2:w</title>
<path fill="none" stroke="#000000" d="M146.493,-262.0312C167.0823,-244.3926 192.6044,-229.5391 220.1704,-229.5391"/>
</g>
<!-- p1&#45;&gt;p2 -->
<!-- b1 -->
<g id="node4" class="node">
<title>b1</title>
<ellipse fill="#8b0000" stroke="#000000" cx="461.9862" cy="-410.5391" rx="69.9785" ry="46.2727"/>
<text text-anchor="middle" x="461.9862" y="-424.9391" font-family="Times,serif" font-size="16.00" fill="#ffffff">La morale se</text>
<text text-anchor="middle" x="461.9862" y="-405.7391" font-family="Times,serif" font-size="16.00" fill="#ffffff">réduit&#45;elle</text>
<text text-anchor="middle" x="461.9862" y="-386.5391" font-family="Times,serif" font-size="16.00" fill="#ffffff">aux mœurs ?</text>
</g>
<!-- p1&#45;&gt;b1 -->
<g id="edge4" class="edge">
<title>p1&#45;&gt;b1:w</title>
<path fill="none" stroke="#000000" d="M328.0533,-410.5391C344.6744,-410.5391 363.6838,-410.5391 381.7658,-410.5391"/>
<polygon fill="#000000" stroke="#000000" points="381.9862,-414.0392 391.9862,-410.5391 381.9862,-407.0392 381.9862,-414.0392"/>
</g>
<!-- b2 -->
<g id="node5" class="node">
<title>b2</title>
<ellipse fill="#8b0000" stroke="#000000" cx="461.9862" cy="-248.5391" rx="81.266" ry="59.9253"/>
<text text-anchor="middle" x="461.9862" y="-272.5391" font-family="Times,serif" font-size="16.00" fill="#ffffff">Est&#45;ce le cœur</text>
<text text-anchor="middle" x="461.9862" y="-253.3391" font-family="Times,serif" font-size="16.00" fill="#ffffff">ou la raison qui</text>
<text text-anchor="middle" x="461.9862" y="-234.1391" font-family="Times,serif" font-size="16.00" fill="#ffffff">indique le bien</text>
<text text-anchor="middle" x="461.9862" y="-214.9391" font-family="Times,serif" font-size="16.00" fill="#ffffff">et le mal ?</text>
</g>
<!-- p2&#45;&gt;b2 -->
<g id="edge5" class="edge">
<title>p2&#45;&gt;b2:w</title>
<path fill="none" stroke="#000000" d="M340.7905,-244.8306C350.3317,-246.452 360.256,-247.7094 369.9676,-248.25"/>
<polygon fill="#000000" stroke="#000000" points="369.8894,-251.7491 379.9862,-248.5391 370.0913,-244.752 369.8894,-251.7491"/>
</g>
<!-- b3 -->
<g id="node6" class="node">
<title>b3</title>
<ellipse fill="#8b0000" stroke="#000000" cx="461.9862" cy="-73.5391" rx="95.1725" ry="73.5782"/>
<text text-anchor="middle" x="461.9862" y="-107.1391" font-family="Times,serif" font-size="16.00" fill="#ffffff">Comment la</text>
<text text-anchor="middle" x="461.9862" y="-87.9391" font-family="Times,serif" font-size="16.00" fill="#ffffff">réflexion peut&#45;elle</text>
<text text-anchor="middle" x="461.9862" y="-68.7391" font-family="Times,serif" font-size="16.00" fill="#ffffff">nous aider à saisir</text>
<text text-anchor="middle" x="461.9862" y="-49.5391" font-family="Times,serif" font-size="16.00" fill="#ffffff">ce qui est bien et</text>
<text text-anchor="middle" x="461.9862" y="-30.3391" font-family="Times,serif" font-size="16.00" fill="#ffffff">ce qui est mal ?</text>
</g>
<!-- p2&#45;&gt;b3 -->
<g id="edge6" class="edge">
<title>p2&#45;&gt;b3:w</title>
<path fill="none" stroke="#000000" d="M282.0732,-208.8235C286.935,-168.792 303.4644,-83.8955 356.6653,-74.4067"/>
<polygon fill="#000000" stroke="#000000" points="356.9906,-77.8917 366.6501,-73.5391 356.3846,-70.918 356.9906,-77.8917"/>
</g>
<!-- b1&#45;&gt;b2 -->
<!-- c1 -->
<g id="node7" class="node">
<title>c1</title>
<polygon fill="#ffffff" stroke="#7f7f7f" points="697.2695,-458.9408 589.3399,-458.9408 589.3399,-412.1374 697.2695,-412.1374 697.2695,-458.9408"/>
<text text-anchor="middle" x="643.3047" y="-440.3391" font-family="Times,serif" font-size="16.00" fill="#000000">Le relativisme</text>
<text text-anchor="middle" x="643.3047" y="-421.1391" font-family="Times,serif" font-size="16.00" fill="#000000">culturel</text>
</g>
<!-- b1&#45;&gt;c1 -->
<g id="edge9" class="edge">
<title>b1&#45;&gt;c1</title>
<path fill="none" stroke="#000000" d="M530.2766,-419.9549C546.2523,-422.1576 563.2164,-424.4966 579.0112,-426.6744"/>
<polygon fill="#000000" stroke="#000000" points="578.8152,-430.1804 589.1996,-428.0792 579.7714,-423.246 578.8152,-430.1804"/>
</g>
<!-- c2 -->
<g id="node8" class="node">
<title>c2</title>
<polygon fill="#ffffff" stroke="#7f7f7f" points="703.2695,-398.9408 583.3399,-398.9408 583.3399,-352.1374 703.2695,-352.1374 703.2695,-398.9408"/>
<text text-anchor="middle" x="643.3047" y="-380.3391" font-family="Times,serif" font-size="16.00" fill="#000000">L&#39;universalisme</text>
<text text-anchor="middle" x="643.3047" y="-361.1391" font-family="Times,serif" font-size="16.00" fill="#000000">moral</text>
</g>
<!-- b1&#45;&gt;c2 -->
<g id="edge10" class="edge">
<title>b1&#45;&gt;c2</title>
<path fill="none" stroke="#000000" d="M528.9873,-397.6058C543.4133,-394.8212 558.6985,-391.8707 573.2377,-389.0642"/>
<polygon fill="#000000" stroke="#000000" points="574.009,-392.48 583.1644,-387.148 572.6822,-385.6069 574.009,-392.48"/>
</g>
<!-- b2&#45;&gt;b3 -->
<!-- c3 -->
<g id="node9" class="node">
<title>c3</title>
<polygon fill="#ffffff" stroke="#7f7f7f" points="682.1253,-282.5391 604.484,-282.5391 604.484,-246.5391 682.1253,-246.5391 682.1253,-282.5391"/>
<text text-anchor="middle" x="643.3047" y="-259.7391" font-family="Times,serif" font-size="16.00" fill="#000000">Rousseau</text>
</g>
<!-- b2&#45;&gt;c3 -->
<g id="edge11" class="edge">
<title>b2&#45;&gt;c3</title>
<path fill="none" stroke="#000000" d="M542.8352,-255.6734C560.3429,-257.2183 578.3444,-258.8068 594.1866,-260.2048"/>
<polygon fill="#000000" stroke="#000000" points="593.9895,-263.7009 604.2585,-261.0936 594.6049,-256.728 593.9895,-263.7009"/>
</g>
<!-- c4 -->
<g id="node10" class="node">
<title>c4</title>
<polygon fill="#ffffff" stroke="#7f7f7f" points="670.3047,-232.5391 616.3047,-232.5391 616.3047,-196.5391 670.3047,-196.5391 670.3047,-232.5391"/>
<text text-anchor="middle" x="643.3047" y="-209.7391" font-family="Times,serif" font-size="16.00" fill="#000000">Kant</text>
</g>
<!-- b2&#45;&gt;c4 -->
<g id="edge12" class="edge">
<title>b2&#45;&gt;c4</title>
<path fill="none" stroke="#000000" d="M540.9877,-233.7251C563.6947,-229.4672 587.3939,-225.0232 606.2591,-221.4857"/>
<polygon fill="#000000" stroke="#000000" points="607.0218,-224.9038 616.2054,-219.6206 605.7316,-218.0237 607.0218,-224.9038"/>
</g>
<!-- c5 -->
<g id="node11" class="node">
<title>c5</title>
<polygon fill="#ffffff" stroke="#7f7f7f" points="680.073,-126.5391 606.5363,-126.5391 606.5363,-90.5391 680.073,-90.5391 680.073,-126.5391"/>
<text text-anchor="middle" x="643.3047" y="-103.7391" font-family="Times,serif" font-size="16.00" fill="#000000">Bentham</text>
</g>
<!-- b3&#45;&gt;c5 -->
<g id="edge13" class="edge">
<title>b3&#45;&gt;c5</title>
<path fill="none" stroke="#000000" d="M554.5045,-91.398C568.9717,-94.1906 583.3757,-96.971 596.2421,-99.4546"/>
<polygon fill="#000000" stroke="#000000" points="595.7208,-102.9185 606.2029,-101.3773 597.0475,-96.0454 595.7208,-102.9185"/>
</g>
<!-- c6 -->
<g id="node12" class="node">
<title>c6</title>
<polygon fill="#ffffff" stroke="#7f7f7f" points="670.3047,-74.5391 616.3047,-74.5391 616.3047,-38.5391 670.3047,-38.5391 670.3047,-74.5391"/>
<text text-anchor="middle" x="643.3047" y="-51.7391" font-family="Times,serif" font-size="16.00" fill="#000000">Kant</text>
</g>
<!-- b3&#45;&gt;c6 -->
<g id="edge14" class="edge">
<title>b3&#45;&gt;c6</title>
<path fill="none" stroke="#000000" d="M556.6283,-64.6657C574.1787,-63.0202 591.5297,-61.3934 606.0436,-60.0326"/>
<polygon fill="#000000" stroke="#000000" points="606.4433,-63.5106 616.0729,-59.0923 605.7898,-56.5412 606.4433,-63.5106"/>
</g>
<!-- e1 -->
<g id="node13" class="node">
<title>e1</title>
<path fill="#fafafa" stroke="transparent" d="M803.987,-453.8396C803.987,-453.8396 731.7104,-453.8396 731.7104,-453.8396 725.7104,-453.8396 719.7104,-447.8396 719.7104,-441.8396 719.7104,-441.8396 719.7104,-429.2386 719.7104,-429.2386 719.7104,-423.2386 725.7104,-417.2386 731.7104,-417.2386 731.7104,-417.2386 803.987,-417.2386 803.987,-417.2386 809.987,-417.2386 815.987,-423.2386 815.987,-429.2386 815.987,-429.2386 815.987,-441.8396 815.987,-441.8396 815.987,-447.8396 809.987,-453.8396 803.987,-453.8396"/>
<text text-anchor="middle" x="767.8487" y="-439.1391" font-family="Times,serif" font-size="12.00" fill="#cd2626">La critique de</text>
<text text-anchor="middle" x="767.8487" y="-424.7391" font-family="Times,serif" font-size="12.00" fill="#cd2626">l&#39;ethnocentrisme</text>
</g>
<!-- c1&#45;&gt;e1 -->
<!-- c2&#45;&gt;c3 -->
<!-- e2 -->
<g id="node14" class="node">
<title>e2</title>
<path fill="#fafafa" stroke="transparent" d="M810.6599,-401.2395C810.6599,-401.2395 725.0374,-401.2395 725.0374,-401.2395 719.0374,-401.2395 713.0374,-395.2395 713.0374,-389.2395 713.0374,-389.2395 713.0374,-361.8387 713.0374,-361.8387 713.0374,-355.8387 719.0374,-349.8387 725.0374,-349.8387 725.0374,-349.8387 810.6599,-349.8387 810.6599,-349.8387 816.6599,-349.8387 822.6599,-355.8387 822.6599,-361.8387 822.6599,-361.8387 822.6599,-389.2395 822.6599,-389.2395 822.6599,-395.2395 816.6599,-401.2395 810.6599,-401.2395"/>
<text text-anchor="middle" x="767.8487" y="-386.3391" font-family="Times,serif" font-size="12.00" fill="#cd2626">Les traditions</text>
<text text-anchor="middle" x="767.8487" y="-371.9391" font-family="Times,serif" font-size="12.00" fill="#cd2626">violentes, l&#39;horizon</text>
<text text-anchor="middle" x="767.8487" y="-357.5391" font-family="Times,serif" font-size="12.00" fill="#cd2626">des droits humains</text>
</g>
<!-- c2&#45;&gt;e2 -->
<!-- e3 -->
<g id="node15" class="node">
<title>e3</title>
<path fill="#fafafa" stroke="transparent" d="M782.8487,-282.5391C782.8487,-282.5391 752.8487,-282.5391 752.8487,-282.5391 746.8487,-282.5391 740.8487,-276.5391 740.8487,-270.5391 740.8487,-270.5391 740.8487,-258.5391 740.8487,-258.5391 740.8487,-252.5391 746.8487,-246.5391 752.8487,-246.5391 752.8487,-246.5391 782.8487,-246.5391 782.8487,-246.5391 788.8487,-246.5391 794.8487,-252.5391 794.8487,-258.5391 794.8487,-258.5391 794.8487,-270.5391 794.8487,-270.5391 794.8487,-276.5391 788.8487,-282.5391 782.8487,-282.5391"/>
<text text-anchor="middle" x="767.8487" y="-260.9391" font-family="Times,serif" font-size="12.00" fill="#cd2626">La pitié</text>
</g>
<!-- c3&#45;&gt;e3 -->
<!-- c4&#45;&gt;c5 -->
<!-- e4 -->
<g id="node16" class="node">
<title>e4</title>
<path fill="#fafafa" stroke="transparent" d="M811.4761,-232.8396C811.4761,-232.8396 724.2213,-232.8396 724.2213,-232.8396 718.2213,-232.8396 712.2213,-226.8396 712.2213,-220.8396 712.2213,-220.8396 712.2213,-208.2386 712.2213,-208.2386 712.2213,-202.2386 718.2213,-196.2386 724.2213,-196.2386 724.2213,-196.2386 811.4761,-196.2386 811.4761,-196.2386 817.4761,-196.2386 823.4761,-202.2386 823.4761,-208.2386 823.4761,-208.2386 823.4761,-220.8396 823.4761,-220.8396 823.4761,-226.8396 817.4761,-232.8396 811.4761,-232.8396"/>
<text text-anchor="middle" x="767.8487" y="-218.1391" font-family="Times,serif" font-size="12.00" fill="#cd2626">L&#39;action par devoir,</text>
<text text-anchor="middle" x="767.8487" y="-203.7391" font-family="Times,serif" font-size="12.00" fill="#cd2626">l&#39;universalisation</text>
</g>
<!-- c4&#45;&gt;e4 -->
<!-- e5 -->
<g id="node17" class="node">
<title>e5</title>
<path fill="#fafafa" stroke="transparent" d="M811.4908,-136.2395C811.4908,-136.2395 724.2066,-136.2395 724.2066,-136.2395 718.2066,-136.2395 712.2066,-130.2395 712.2066,-124.2395 712.2066,-124.2395 712.2066,-96.8387 712.2066,-96.8387 712.2066,-90.8387 718.2066,-84.8387 724.2066,-84.8387 724.2066,-84.8387 811.4908,-84.8387 811.4908,-84.8387 817.4908,-84.8387 823.4908,-90.8387 823.4908,-96.8387 823.4908,-96.8387 823.4908,-124.2395 823.4908,-124.2395 823.4908,-130.2395 817.4908,-136.2395 811.4908,-136.2395"/>
<text text-anchor="middle" x="767.8487" y="-121.3391" font-family="Times,serif" font-size="12.00" fill="#cd2626">Le calcul objectif</text>
<text text-anchor="middle" x="767.8487" y="-106.9391" font-family="Times,serif" font-size="12.00" fill="#cd2626">et global de l&#39;utilité</text>
<text text-anchor="middle" x="767.8487" y="-92.5391" font-family="Times,serif" font-size="12.00" fill="#cd2626">des conséquences</text>
</g>
<!-- c5&#45;&gt;e5 -->
<!-- e6 -->
<g id="node18" class="node">
<title>e6</title>
<path fill="#fafafa" stroke="transparent" d="M812.4719,-70.8396C812.4719,-70.8396 723.2254,-70.8396 723.2254,-70.8396 717.2254,-70.8396 711.2254,-64.8396 711.2254,-58.8396 711.2254,-58.8396 711.2254,-46.2386 711.2254,-46.2386 711.2254,-40.2386 717.2254,-34.2386 723.2254,-34.2386 723.2254,-34.2386 812.4719,-34.2386 812.4719,-34.2386 818.4719,-34.2386 824.4719,-40.2386 824.4719,-46.2386 824.4719,-46.2386 824.4719,-58.8396 824.4719,-58.8396 824.4719,-64.8396 818.4719,-70.8396 812.4719,-70.8396"/>
<text text-anchor="middle" x="767.8487" y="-56.1391" font-family="Times,serif" font-size="12.00" fill="#cd2626">Le principe du</text>
<text text-anchor="middle" x="767.8487" y="-41.7391" font-family="Times,serif" font-size="12.00" fill="#cd2626">respect de la dignité</text>
</g>
<!-- c6&#45;&gt;e6 -->
</g>
</svg>
