<?xml version="1.0" encoding="UTF-8" standalone="no"?>
<!DOCTYPE svg PUBLIC "-//W3C//DTD SVG 1.1//EN"
 "http://www.w3.org/Graphics/SVG/1.1/DTD/svg11.dtd">
<!-- Generated by graphviz version 2.40.1 (20161225.0304)
 -->
<!-- Title: G Pages: 1 -->
<svg width="771pt" height="656pt"
 viewBox="0.00 0.00 771.11 656.16" xmlns="http://www.w3.org/2000/svg" xmlns:xlink="http://www.w3.org/1999/xlink">
<g id="graph0" class="graph" transform="scale(1 1) rotate(0) translate(21.6 634.5627)">
<title>G</title>
<polygon fill="#fafafa" stroke="transparent" points="-21.6,21.6 -21.6,-634.5627 749.5073,-634.5627 749.5073,21.6 -21.6,21.6"/>
<!-- a1 -->
<g id="node1" class="node">
<title>a1</title>
<ellipse fill="#050505" stroke="#000000" cx="75.8048" cy="-326.9627" rx="75.6101" ry="51.4548"/>
<text text-anchor="middle" x="75.8048" y="-343.1627" font-family="Times,serif" font-size="18.00" fill="#ffffff">Quelle est la</text>
<text text-anchor="middle" x="75.8048" y="-321.5627" font-family="Times,serif" font-size="18.00" fill="#ffffff">finalité de la</text>
<text text-anchor="middle" x="75.8048" y="-299.9627" font-family="Times,serif" font-size="18.00" fill="#ffffff">politique ?</text>
</g>
<!-- b1 -->
<g id="node2" class="node">
<title>b1</title>
<ellipse fill="#8b0000" stroke="#000000" cx="361.3301" cy="-567.9627" rx="112.1024" ry="37.1049"/>
<text text-anchor="middle" x="361.3301" y="-572.7627" font-family="Times,serif" font-size="16.00" fill="#ffffff">L&#39;État est&#45;il au service</text>
<text text-anchor="middle" x="361.3301" y="-553.5627" font-family="Times,serif" font-size="16.00" fill="#ffffff">de l&#39;intérêt général ?</text>
</g>
<!-- a1&#45;&gt;b1 -->
<g id="edge1" class="edge">
<title>a1&#45;&gt;b1:w</title>
<path fill="none" stroke="#000000" d="M87.9827,-377.7781C107.552,-445.8609 152.8666,-559.1623 239.1685,-567.4777"/>
<polygon fill="#000000" stroke="#000000" points="239.1745,-570.9818 249.3301,-567.9627 239.5083,-563.9898 239.1745,-570.9818"/>
<text text-anchor="start" x="182.6629" y="-555.1627" font-family="Times,serif" font-size="14.00" fill="#006400">I</text>
</g>
<!-- b2 -->
<g id="node3" class="node">
<title>b2</title>
<ellipse fill="#8b0000" stroke="#000000" cx="361.3301" cy="-453.9627" rx="102.1491" ry="49.4302"/>
<text text-anchor="middle" x="361.3301" y="-468.3627" font-family="Times,serif" font-size="16.00" fill="#ffffff">La raison d&#39;être</text>
<text text-anchor="middle" x="361.3301" y="-449.1627" font-family="Times,serif" font-size="16.00" fill="#ffffff">de l&#39;État est&#45;elle de</text>
<text text-anchor="middle" x="361.3301" y="-429.9627" font-family="Times,serif" font-size="16.00" fill="#ffffff">garantir la sécurité ?</text>
</g>
<!-- a1&#45;&gt;b2 -->
<g id="edge2" class="edge">
<title>a1&#45;&gt;b2:w</title>
<path fill="none" stroke="#000000" d="M112.5678,-372.4539C144.441,-406.7599 194.0028,-448.7109 249.0006,-453.5093"/>
<polygon fill="#000000" stroke="#000000" points="249.1862,-457.0207 259.3301,-453.9627 249.4932,-450.0274 249.1862,-457.0207"/>
<text text-anchor="start" x="180.3326" y="-439.1627" font-family="Times,serif" font-size="14.00" fill="#006400">II</text>
</g>
<!-- b3 -->
<g id="node4" class="node">
<title>b3</title>
<ellipse fill="#8b0000" stroke="#000000" cx="361.3301" cy="-326.9627" rx="105.3333" ry="50.758"/>
<text text-anchor="middle" x="361.3301" y="-341.3627" font-family="Times,serif" font-size="16.00" fill="#ffffff">La politique doit&#45;elle</text>
<text text-anchor="middle" x="361.3301" y="-322.1627" font-family="Times,serif" font-size="16.00" fill="#ffffff">être guidée par</text>
<text text-anchor="middle" x="361.3301" y="-302.9627" font-family="Times,serif" font-size="16.00" fill="#ffffff">un idéal moral ?</text>
</g>
<!-- a1&#45;&gt;b3 -->
<g id="edge3" class="edge">
<title>a1&#45;&gt;b3:w</title>
<path fill="none" stroke="#000000" d="M151.8017,-326.9627C180.6468,-326.9627 214.0694,-326.9627 245.2823,-326.9627"/>
<polygon fill="#000000" stroke="#000000" points="245.3301,-330.4628 255.3301,-326.9627 245.33,-323.4628 245.3301,-330.4628"/>
<text text-anchor="start" x="178.0023" y="-331.1627" font-family="Times,serif" font-size="14.00" fill="#006400">III</text>
</g>
<!-- b4 -->
<g id="node5" class="node">
<title>b4</title>
<ellipse fill="#8b0000" stroke="#000000" cx="361.3301" cy="-197.9627" rx="131.7543" ry="50.758"/>
<text text-anchor="middle" x="361.3301" y="-212.3627" font-family="Times,serif" font-size="16.00" fill="#ffffff">L&#39;économie doit&#45;elle être</text>
<text text-anchor="middle" x="361.3301" y="-193.1627" font-family="Times,serif" font-size="16.00" fill="#ffffff">organisée selon le principe</text>
<text text-anchor="middle" x="361.3301" y="-173.9627" font-family="Times,serif" font-size="16.00" fill="#ffffff">de la libre concurrence ?</text>
</g>
<!-- a1&#45;&gt;b4 -->
<g id="edge4" class="edge">
<title>a1&#45;&gt;b4:w</title>
<path fill="none" stroke="#000000" d="M105.8406,-279.2943C131.3288,-244.9155 171.3518,-203.6773 219.3077,-198.5043"/>
<polygon fill="#000000" stroke="#000000" points="219.5335,-201.9973 229.3301,-197.9627 219.1557,-195.0075 219.5335,-201.9973"/>
<text text-anchor="start" x="177.6096" y="-216.1627" font-family="Times,serif" font-size="14.00" fill="#006400">IV</text>
</g>
<!-- b5 -->
<g id="node6" class="node">
<title>b5</title>
<ellipse fill="#8b0000" stroke="#000000" cx="361.3301" cy="-59.9627" rx="142.9065" ry="59.9253"/>
<text text-anchor="middle" x="361.3301" y="-83.9627" font-family="Times,serif" font-size="16.00" fill="#ffffff">Faut&#45;il prendre en</text>
<text text-anchor="middle" x="361.3301" y="-64.7627" font-family="Times,serif" font-size="16.00" fill="#ffffff">compte les particularités des</text>
<text text-anchor="middle" x="361.3301" y="-45.5627" font-family="Times,serif" font-size="16.00" fill="#ffffff">individus pour que la société</text>
<text text-anchor="middle" x="361.3301" y="-26.3627" font-family="Times,serif" font-size="16.00" fill="#ffffff">soit plus inclusive ?</text>
</g>
<!-- a1&#45;&gt;b5 -->
<g id="edge5" class="edge">
<title>a1&#45;&gt;b5:w</title>
<path fill="none" stroke="#000000" d="M80.3492,-275.4824C89.9751,-200.6987 119.4494,-69.8517 208.1497,-60.4935"/>
<polygon fill="#000000" stroke="#000000" points="208.5718,-63.9764 218.3768,-59.9627 208.2088,-56.9859 208.5718,-63.9764"/>
<text text-anchor="start" x="179.9399" y="-74.1627" font-family="Times,serif" font-size="14.00" fill="#006400">V</text>
</g>
<!-- b1&#45;&gt;b2 -->
<!-- c1 -->
<g id="node7" class="node">
<title>c1</title>
<polygon fill="#ffffff" stroke="#7f7f7f" points="669.5953,-612.9627 615.5953,-612.9627 615.5953,-576.9627 669.5953,-576.9627 669.5953,-612.9627"/>
<text text-anchor="middle" x="642.5953" y="-590.1627" font-family="Times,serif" font-size="16.00" fill="#000000">Marx</text>
</g>
<!-- b1&#45;&gt;c1 -->
<g id="edge10" class="edge">
<title>b1&#45;&gt;c1</title>
<path fill="none" stroke="#000000" d="M469.2701,-578.3243C517.2852,-582.9335 570.6828,-588.0594 605.3515,-591.3874"/>
<polygon fill="#000000" stroke="#000000" points="605.1941,-594.8883 615.4828,-592.36 605.863,-587.9204 605.1941,-594.8883"/>
</g>
<!-- c2 -->
<g id="node8" class="node">
<title>c2</title>
<polygon fill="#ffffff" stroke="#7f7f7f" points="681.416,-569.9627 603.7746,-569.9627 603.7746,-533.9627 681.416,-533.9627 681.416,-569.9627"/>
<text text-anchor="middle" x="642.5953" y="-547.1627" font-family="Times,serif" font-size="16.00" fill="#000000">Rousseau</text>
</g>
<!-- b1&#45;&gt;c2 -->
<g id="edge11" class="edge">
<title>b1&#45;&gt;c2</title>
<path fill="none" stroke="#000000" d="M472.0898,-561.662C514.3025,-559.2607 560.2798,-556.6452 593.8419,-554.736"/>
<polygon fill="#000000" stroke="#000000" points="594.0561,-558.2296 603.8412,-554.1672 593.6585,-551.2409 594.0561,-558.2296"/>
</g>
<!-- b2&#45;&gt;b3 -->
<!-- c3 -->
<g id="node9" class="node">
<title>c3</title>
<polygon fill="#ffffff" stroke="#7f7f7f" points="674.9706,-491.9627 610.22,-491.9627 610.22,-455.9627 674.9706,-455.9627 674.9706,-491.9627"/>
<text text-anchor="middle" x="642.5953" y="-469.1627" font-family="Times,serif" font-size="16.00" fill="#000000">Hobbes</text>
</g>
<!-- b2&#45;&gt;c3 -->
<g id="edge12" class="edge">
<title>b2&#45;&gt;c3</title>
<path fill="none" stroke="#000000" d="M462.4759,-461.1549C509.7789,-464.5184 563.5679,-468.3432 599.9548,-470.9306"/>
<polygon fill="#000000" stroke="#000000" points="599.9756,-474.4408 610.1987,-471.659 600.4722,-467.4585 599.9756,-474.4408"/>
</g>
<!-- c4 -->
<g id="node10" class="node">
<title>c4</title>
<polygon fill="#ffffff" stroke="#7f7f7f" points="670.5745,-448.9627 614.6161,-448.9627 614.6161,-412.9627 670.5745,-412.9627 670.5745,-448.9627"/>
<text text-anchor="middle" x="642.5953" y="-426.1627" font-family="Times,serif" font-size="16.00" fill="#000000">Locke</text>
</g>
<!-- b2&#45;&gt;c4 -->
<g id="edge13" class="edge">
<title>b2&#45;&gt;c4</title>
<path fill="none" stroke="#000000" d="M462.0788,-445.7241C511.4315,-441.6884 567.9282,-437.0684 604.3763,-434.088"/>
<polygon fill="#000000" stroke="#000000" points="604.8763,-437.5588 614.5577,-433.2554 604.3057,-430.5821 604.8763,-437.5588"/>
</g>
<!-- b3&#45;&gt;b4 -->
<!-- c5 -->
<g id="node11" class="node">
<title>c5</title>
<polygon fill="#ffffff" stroke="#7f7f7f" points="684.1214,-370.9627 601.0692,-370.9627 601.0692,-334.9627 684.1214,-334.9627 684.1214,-370.9627"/>
<text text-anchor="middle" x="642.5953" y="-348.1627" font-family="Times,serif" font-size="16.00" fill="#000000">Machiavel</text>
</g>
<!-- b3&#45;&gt;c5 -->
<g id="edge14" class="edge">
<title>b3&#45;&gt;c5</title>
<path fill="none" stroke="#000000" d="M464.8646,-336.5333C507.7763,-340.5001 555.651,-344.9256 590.8918,-348.1832"/>
<polygon fill="#000000" stroke="#000000" points="590.662,-351.6768 600.9417,-349.1122 591.3064,-344.7065 590.662,-351.6768"/>
</g>
<!-- c6 -->
<g id="node12" class="node">
<title>c6</title>
<polygon fill="#ffffff" stroke="#7f7f7f" points="687.81,-327.9627 597.3806,-327.9627 597.3806,-291.9627 687.81,-291.9627 687.81,-327.9627"/>
<text text-anchor="middle" x="642.5953" y="-305.1627" font-family="Times,serif" font-size="16.00" fill="#000000">John Rawls</text>
</g>
<!-- b3&#45;&gt;c6 -->
<g id="edge15" class="edge">
<title>b3&#45;&gt;c6</title>
<path fill="none" stroke="#000000" d="M466.0629,-320.6325C507.1107,-318.1515 552.5316,-315.4062 587.0208,-313.3216"/>
<polygon fill="#000000" stroke="#000000" points="587.5858,-316.794 597.3564,-312.6969 587.1634,-309.8067 587.5858,-316.794"/>
</g>
<!-- b4&#45;&gt;b5 -->
<!-- c7 -->
<g id="node13" class="node">
<title>c7</title>
<polygon fill="#ffffff" stroke="#7f7f7f" points="697.1625,-250.3644 588.0281,-250.3644 588.0281,-203.5609 697.1625,-203.5609 697.1625,-250.3644"/>
<text text-anchor="middle" x="642.5953" y="-231.7627" font-family="Times,serif" font-size="16.00" fill="#000000">Le libéralisme</text>
<text text-anchor="middle" x="642.5953" y="-212.5627" font-family="Times,serif" font-size="16.00" fill="#000000">économique</text>
</g>
<!-- b4&#45;&gt;c7 -->
<g id="edge16" class="edge">
<title>b4&#45;&gt;c7</title>
<path fill="none" stroke="#000000" d="M488.7955,-211.1051C519.5916,-214.2803 551.2372,-217.5431 577.7556,-220.2773"/>
<polygon fill="#000000" stroke="#000000" points="577.7248,-223.7926 588.031,-221.3368 578.4428,-216.8295 577.7248,-223.7926"/>
</g>
<!-- c8 -->
<g id="node14" class="node">
<title>c8</title>
<polygon fill="#ffffff" stroke="#7f7f7f" points="695.0105,-196.9627 590.1801,-196.9627 590.1801,-160.9627 695.0105,-160.9627 695.0105,-196.9627"/>
<text text-anchor="middle" x="642.5953" y="-174.1627" font-family="Times,serif" font-size="16.00" fill="#000000">Le socialisme</text>
</g>
<!-- b4&#45;&gt;c8 -->
<g id="edge17" class="edge">
<title>b4&#45;&gt;c8</title>
<path fill="none" stroke="#000000" d="M491.2596,-189.1857C522.1378,-187.0998 553.7082,-184.9672 579.9698,-183.1931"/>
<polygon fill="#000000" stroke="#000000" points="580.392,-186.6727 590.1334,-182.5066 579.9202,-179.6886 580.392,-186.6727"/>
</g>
<!-- c9 -->
<g id="node15" class="node">
<title>c9</title>
<polygon fill="#ffffff" stroke="#7f7f7f" points="702.5601,-119.3644 582.6305,-119.3644 582.6305,-72.5609 702.5601,-72.5609 702.5601,-119.3644"/>
<text text-anchor="middle" x="642.5953" y="-100.7627" font-family="Times,serif" font-size="16.00" fill="#000000">L&#39;universalisme</text>
<text text-anchor="middle" x="642.5953" y="-81.5627" font-family="Times,serif" font-size="16.00" fill="#000000">républicain</text>
</g>
<!-- b5&#45;&gt;c9 -->
<g id="edge18" class="edge">
<title>b5&#45;&gt;c9</title>
<path fill="none" stroke="#000000" d="M498.255,-77.4881C523.9393,-80.7755 549.7887,-84.0841 572.373,-86.9747"/>
<polygon fill="#000000" stroke="#000000" points="572.1441,-90.4739 582.5076,-88.2718 573.0329,-83.5305 572.1441,-90.4739"/>
</g>
<!-- c10 -->
<g id="node16" class="node">
<title>c10</title>
<polygon fill="#ffffff" stroke="#7f7f7f" points="727.7197,-65.5639 557.4709,-65.5639 557.4709,-.3614 727.7197,-.3614 727.7197,-65.5639"/>
<text text-anchor="middle" x="642.5953" y="-47.3627" font-family="Times,serif" font-size="16.00" fill="#000000">Les mouvements</text>
<text text-anchor="middle" x="642.5953" y="-28.1627" font-family="Times,serif" font-size="16.00" fill="#000000">contemporains pour une</text>
<text text-anchor="middle" x="642.5953" y="-8.9627" font-family="Times,serif" font-size="16.00" fill="#000000">société plus inclusive</text>
</g>
<!-- b5&#45;&gt;c10 -->
<g id="edge19" class="edge">
<title>b5&#45;&gt;c10</title>
<path fill="none" stroke="#000000" d="M500.7267,-46.5813C516.4397,-45.0729 532.1733,-43.5626 547.1428,-42.1256"/>
<polygon fill="#000000" stroke="#000000" points="547.7547,-45.583 557.3745,-41.1434 547.0858,-38.6151 547.7547,-45.583"/>
</g>
<!-- c2&#45;&gt;c3 -->
<!-- c4&#45;&gt;c5 -->
<!-- c6&#45;&gt;c7 -->
<!-- c8&#45;&gt;c9 -->
</g>
</svg>
