<?xml version="1.0" encoding="UTF-8" standalone="no"?>
<!DOCTYPE svg PUBLIC "-//W3C//DTD SVG 1.1//EN"
 "http://www.w3.org/Graphics/SVG/1.1/DTD/svg11.dtd">
<!-- Generated by graphviz version 2.40.1 (20161225.0304)
 -->
<!-- Title: G Pages: 1 -->
<svg width="1088pt" height="1376pt"
 viewBox="0.00 0.00 1088.00 1375.53" xmlns="http://www.w3.org/2000/svg" xmlns:xlink="http://www.w3.org/1999/xlink">
<g id="graph0" class="graph" transform="scale(1 1) rotate(0) translate(4 1371.5283)">
<title>G</title>
<polygon fill="#ffffff" stroke="transparent" points="-4,4 -4,-1371.5283 1084,-1371.5283 1084,4 -4,4"/>
<g id="clust1" class="cluster">
<title>cluster_0</title>
<path fill="#e5e5e5" stroke="#7f7f7f" d="M20,-8C20,-8 1060,-8 1060,-8 1066,-8 1072,-14 1072,-20 1072,-20 1072,-1347.5283 1072,-1347.5283 1072,-1353.5283 1066,-1359.5283 1060,-1359.5283 1060,-1359.5283 20,-1359.5283 20,-1359.5283 14,-1359.5283 8,-1353.5283 8,-1347.5283 8,-1347.5283 8,-20 8,-20 8,-14 14,-8 20,-8"/>
</g>
<g id="clust2" class="cluster">
<title>cluster_1</title>
<polygon fill="#bababa" stroke="#bababa" points="48,-1189.1283 48,-1319.5283 814,-1319.5283 814,-1189.1283 48,-1189.1283"/>
</g>
<g id="clust4" class="cluster">
<title>cluster_2</title>
<polygon fill="#bababa" stroke="#bababa" points="75,-949.9283 75,-1109.1283 1004,-1109.1283 1004,-949.9283 75,-949.9283"/>
</g>
<g id="clust6" class="cluster">
<title>cluster_3</title>
<polygon fill="#bababa" stroke="#bababa" points="48,-710.7283 48,-869.9283 1032,-869.9283 1032,-710.7283 48,-710.7283"/>
</g>
<g id="clust8" class="cluster">
<title>cluster_4</title>
<polygon fill="#bababa" stroke="#bababa" points="225,-442.7283 225,-630.7283 1011,-630.7283 1011,-442.7283 225,-442.7283"/>
</g>
<g id="clust10" class="cluster">
<title>cluster_5</title>
<polygon fill="#bababa" stroke="#bababa" points="470,-203.5283 470,-362.7283 950,-362.7283 950,-203.5283 470,-203.5283"/>
</g>
<!-- p1 -->
<g id="node1" class="node">
<title>p1</title>
<path fill="#ffffff" stroke="#000000" d="M195.1181,-1289.9295C195.1181,-1289.9295 74.8819,-1289.9295 74.8819,-1289.9295 68.8819,-1289.9295 62.8819,-1283.9295 62.8819,-1277.9295 62.8819,-1277.9295 62.8819,-1230.7272 62.8819,-1230.7272 62.8819,-1224.7272 68.8819,-1218.7272 74.8819,-1218.7272 74.8819,-1218.7272 195.1181,-1218.7272 195.1181,-1218.7272 201.1181,-1218.7272 207.1181,-1224.7272 207.1181,-1230.7272 207.1181,-1230.7272 207.1181,-1277.9295 207.1181,-1277.9295 207.1181,-1283.9295 201.1181,-1289.9295 195.1181,-1289.9295"/>
<text text-anchor="middle" x="135" y="-1261.5283" font-family="Times,serif" font-size="24.00" fill="#000000">(1) Le monde</text>
<text text-anchor="middle" x="135" y="-1232.7283" font-family="Times,serif" font-size="24.00" fill="#000000">existe</text>
</g>
<!-- p2 -->
<g id="node2" class="node">
<title>p2</title>
<path fill="#ffffff" stroke="#000000" d="M448.7537,-1289.9295C448.7537,-1289.9295 237.2463,-1289.9295 237.2463,-1289.9295 231.2463,-1289.9295 225.2463,-1283.9295 225.2463,-1277.9295 225.2463,-1277.9295 225.2463,-1230.7272 225.2463,-1230.7272 225.2463,-1224.7272 231.2463,-1218.7272 237.2463,-1218.7272 237.2463,-1218.7272 448.7537,-1218.7272 448.7537,-1218.7272 454.7537,-1218.7272 460.7537,-1224.7272 460.7537,-1230.7272 460.7537,-1230.7272 460.7537,-1277.9295 460.7537,-1277.9295 460.7537,-1283.9295 454.7537,-1289.9295 448.7537,-1289.9295"/>
<text text-anchor="middle" x="343" y="-1261.5283" font-family="Times,serif" font-size="24.00" fill="#000000">(2) Le monde aurait pu</text>
<text text-anchor="middle" x="343" y="-1232.7283" font-family="Times,serif" font-size="24.00" fill="#000000">ne pas exister</text>
</g>
<!-- p1&#45;&gt;p2 -->
<!-- p3 -->
<g id="node3" class="node">
<title>p3</title>
<path fill="#ffffff" stroke="#000000" d="M787.0523,-1304.7291C787.0523,-1304.7291 490.9477,-1304.7291 490.9477,-1304.7291 484.9477,-1304.7291 478.9477,-1298.7291 478.9477,-1292.7291 478.9477,-1292.7291 478.9477,-1215.9275 478.9477,-1215.9275 478.9477,-1209.9275 484.9477,-1203.9275 490.9477,-1203.9275 490.9477,-1203.9275 787.0523,-1203.9275 787.0523,-1203.9275 793.0523,-1203.9275 799.0523,-1209.9275 799.0523,-1215.9275 799.0523,-1215.9275 799.0523,-1292.7291 799.0523,-1292.7291 799.0523,-1298.7291 793.0523,-1304.7291 787.0523,-1304.7291"/>
<text text-anchor="middle" x="639" y="-1275.9283" font-family="Times,serif" font-size="24.00" fill="#000000">(3) Si X existe, et si X aurait pu</text>
<text text-anchor="middle" x="639" y="-1247.1283" font-family="Times,serif" font-size="24.00" fill="#000000">ne pas exister, cela signifie que</text>
<text text-anchor="middle" x="639" y="-1218.3283" font-family="Times,serif" font-size="24.00" fill="#000000">l&#39;existence de X est contingente</text>
</g>
<!-- p2&#45;&gt;p3 -->
<!-- p4 -->
<g id="node4" class="node">
<title>p4</title>
<path fill="#ffffff" stroke="#000000" d="M237.9176,-1079.9291C237.9176,-1079.9291 102.0824,-1079.9291 102.0824,-1079.9291 96.0824,-1079.9291 90.0824,-1073.9291 90.0824,-1067.9291 90.0824,-1067.9291 90.0824,-991.1275 90.0824,-991.1275 90.0824,-985.1275 96.0824,-979.1275 102.0824,-979.1275 102.0824,-979.1275 237.9176,-979.1275 237.9176,-979.1275 243.9176,-979.1275 249.9176,-985.1275 249.9176,-991.1275 249.9176,-991.1275 249.9176,-1067.9291 249.9176,-1067.9291 249.9176,-1073.9291 243.9176,-1079.9291 237.9176,-1079.9291"/>
<text text-anchor="middle" x="170" y="-1051.1283" font-family="Times,serif" font-size="24.00" fill="#000000">(4) L&#39;existence</text>
<text text-anchor="middle" x="170" y="-1022.3283" font-family="Times,serif" font-size="24.00" fill="#000000">du monde est</text>
<text text-anchor="middle" x="170" y="-993.5283" font-family="Times,serif" font-size="24.00" fill="#000000">contingente</text>
</g>
<!-- p2&#45;&gt;p4 -->
<g id="edge3" class="edge">
<title>p2:s&#45;&gt;p4:n</title>
<path fill="none" stroke="#000000" d="M336.1551,-1189.133C305.3744,-1133.841 180.8335,-1163.6004 170.6613,-1089.6141"/>
<polygon fill="#000000" stroke="#000000" points="174.1468,-1089.2779 170,-1079.5283 167.1618,-1089.7359 174.1468,-1089.2779"/>
<text text-anchor="middle" x="185.7544" y="-1150.8711" font-family="Times,serif" font-size="15.00" fill="#666666">Par conséquent … </text>
</g>
<!-- p5 -->
<g id="node5" class="node">
<title>p5</title>
<path fill="#ffffff" stroke="#000000" d="M642.0427,-1094.2285C642.0427,-1094.2285 279.9573,-1094.2285 279.9573,-1094.2285 273.9573,-1094.2285 267.9573,-1088.2285 267.9573,-1082.2285 267.9573,-1082.2285 267.9573,-976.8282 267.9573,-976.8282 267.9573,-970.8282 273.9573,-964.8282 279.9573,-964.8282 279.9573,-964.8282 642.0427,-964.8282 642.0427,-964.8282 648.0427,-964.8282 654.0427,-970.8282 654.0427,-976.8282 654.0427,-976.8282 654.0427,-1082.2285 654.0427,-1082.2285 654.0427,-1088.2285 648.0427,-1094.2285 642.0427,-1094.2285"/>
<text text-anchor="middle" x="461" y="-1065.5283" font-family="Times,serif" font-size="24.00" fill="#000000">(5) Si l&#39;existence de X est contingente,</text>
<text text-anchor="middle" x="461" y="-1036.7283" font-family="Times,serif" font-size="24.00" fill="#000000">il doit y avoir une explication</text>
<text text-anchor="middle" x="461" y="-1007.9283" font-family="Times,serif" font-size="24.00" fill="#000000">du fait que X existe alors que</text>
<text text-anchor="middle" x="461" y="-979.1283" font-family="Times,serif" font-size="24.00" fill="#000000">X aurait pu ne pas exister</text>
</g>
<!-- p4&#45;&gt;p5 -->
<!-- p6 -->
<g id="node6" class="node">
<title>p6</title>
<path fill="#ffffff" stroke="#000000" d="M977.0707,-1094.2285C977.0707,-1094.2285 684.9293,-1094.2285 684.9293,-1094.2285 678.9293,-1094.2285 672.9293,-1088.2285 672.9293,-1082.2285 672.9293,-1082.2285 672.9293,-976.8282 672.9293,-976.8282 672.9293,-970.8282 678.9293,-964.8282 684.9293,-964.8282 684.9293,-964.8282 977.0707,-964.8282 977.0707,-964.8282 983.0707,-964.8282 989.0707,-970.8282 989.0707,-976.8282 989.0707,-976.8282 989.0707,-1082.2285 989.0707,-1082.2285 989.0707,-1088.2285 983.0707,-1094.2285 977.0707,-1094.2285"/>
<text text-anchor="middle" x="831" y="-1065.5283" font-family="Times,serif" font-size="24.00" fill="#000000">(6) Si l&#39;existence de X est</text>
<text text-anchor="middle" x="831" y="-1036.7283" font-family="Times,serif" font-size="24.00" fill="#000000">contingente, alors on ne peut</text>
<text text-anchor="middle" x="831" y="-1007.9283" font-family="Times,serif" font-size="24.00" fill="#000000">pas trouver l&#39;explication du fait</text>
<text text-anchor="middle" x="831" y="-979.1283" font-family="Times,serif" font-size="24.00" fill="#000000">que X existe dans X lui&#45;même</text>
</g>
<!-- p5&#45;&gt;p6 -->
<!-- p7 -->
<g id="node7" class="node">
<title>p7</title>
<path fill="#ffffff" stroke="#000000" d="M384.9008,-855.0285C384.9008,-855.0285 75.0992,-855.0285 75.0992,-855.0285 69.0992,-855.0285 63.0992,-849.0285 63.0992,-843.0285 63.0992,-843.0285 63.0992,-737.6282 63.0992,-737.6282 63.0992,-731.6282 69.0992,-725.6282 75.0992,-725.6282 75.0992,-725.6282 384.9008,-725.6282 384.9008,-725.6282 390.9008,-725.6282 396.9008,-731.6282 396.9008,-737.6282 396.9008,-737.6282 396.9008,-843.0285 396.9008,-843.0285 396.9008,-849.0285 390.9008,-855.0285 384.9008,-855.0285"/>
<text text-anchor="middle" x="230" y="-826.3283" font-family="Times,serif" font-size="24.00" fill="#000000">(7) Il doit y avoir une explication</text>
<text text-anchor="middle" x="230" y="-797.5283" font-family="Times,serif" font-size="24.00" fill="#000000">du fait que le monde existe, et</text>
<text text-anchor="middle" x="230" y="-768.7283" font-family="Times,serif" font-size="24.00" fill="#000000">cette explication ne peut pas se</text>
<text text-anchor="middle" x="230" y="-739.9283" font-family="Times,serif" font-size="24.00" fill="#000000">trouver dans le monde lui&#45;même</text>
</g>
<!-- p5&#45;&gt;p7 -->
<g id="edge6" class="edge">
<title>p5:s&#45;&gt;p7:n</title>
<path fill="none" stroke="#000000" d="M459.5011,-949.9305C440.3328,-864.4938 243.5509,-957.0403 230.6627,-865.3106"/>
<polygon fill="#000000" stroke="#000000" points="234.1548,-865.0745 230,-855.3283 227.1702,-865.5382 234.1548,-865.0745"/>
<text text-anchor="middle" x="282.7764" y="-914.4819" font-family="Times,serif" font-size="15.00" fill="#666666">Par conséquent … </text>
</g>
<!-- p8 -->
<g id="node8" class="node">
<title>p8</title>
<path fill="#ffffff" stroke="#000000" d="M1005.4658,-855.0285C1005.4658,-855.0285 426.5342,-855.0285 426.5342,-855.0285 420.5342,-855.0285 414.5342,-849.0285 414.5342,-843.0285 414.5342,-843.0285 414.5342,-737.6282 414.5342,-737.6282 414.5342,-731.6282 420.5342,-725.6282 426.5342,-725.6282 426.5342,-725.6282 1005.4658,-725.6282 1005.4658,-725.6282 1011.4658,-725.6282 1017.4658,-731.6282 1017.4658,-737.6282 1017.4658,-737.6282 1017.4658,-843.0285 1017.4658,-843.0285 1017.4658,-849.0285 1011.4658,-855.0285 1005.4658,-855.0285"/>
<text text-anchor="middle" x="716" y="-826.3283" font-family="Times,serif" font-size="24.00" fill="#000000">(8) S&#39;il doit y avoir une explication du fait que X existe, et</text>
<text text-anchor="middle" x="716" y="-797.5283" font-family="Times,serif" font-size="24.00" fill="#000000">si cette explication ne peut pas se trouver dans X lui&#45;même,</text>
<text text-anchor="middle" x="716" y="-768.7283" font-family="Times,serif" font-size="24.00" fill="#000000">alors il existe une réalité différente de X, et qui n&#39;est pas</text>
<text text-anchor="middle" x="716" y="-739.9283" font-family="Times,serif" font-size="24.00" fill="#000000">dans X lui&#45;même, dont l&#39;existence explique l&#39;existence de X</text>
</g>
<!-- p7&#45;&gt;p8 -->
<!-- p9 -->
<g id="node9" class="node">
<title>p9</title>
<path fill="#ffffff" stroke="#000000" d="M577.904,-601.4285C577.904,-601.4285 252.096,-601.4285 252.096,-601.4285 246.096,-601.4285 240.096,-595.4285 240.096,-589.4285 240.096,-589.4285 240.096,-484.0282 240.096,-484.0282 240.096,-478.0282 246.096,-472.0282 252.096,-472.0282 252.096,-472.0282 577.904,-472.0282 577.904,-472.0282 583.904,-472.0282 589.904,-478.0282 589.904,-484.0282 589.904,-484.0282 589.904,-589.4285 589.904,-589.4285 589.904,-595.4285 583.904,-601.4285 577.904,-601.4285"/>
<text text-anchor="middle" x="415" y="-572.7283" font-family="Times,serif" font-size="24.00" fill="#000000">(9) Il existe une réalité différente</text>
<text text-anchor="middle" x="415" y="-543.9283" font-family="Times,serif" font-size="24.00" fill="#000000">du monde, et qui n&#39;est pas dans le</text>
<text text-anchor="middle" x="415" y="-515.1283" font-family="Times,serif" font-size="24.00" fill="#000000">monde lui&#45;même, dont l&#39;existence</text>
<text text-anchor="middle" x="415" y="-486.3283" font-family="Times,serif" font-size="24.00" fill="#000000">explique l&#39;existence du monde</text>
</g>
<!-- p8&#45;&gt;p9 -->
<g id="edge8" class="edge">
<title>p8:w&#45;&gt;p9:n</title>
<path fill="none" stroke="#000000" d="M410.788,-710.7297C411.6993,-672.4272 413.7645,-630.7676 414.6189,-611.7622"/>
<polygon fill="#000000" stroke="#000000" points="418.1179,-611.854 415,-601.7283 411.1229,-611.5883 418.1179,-611.854"/>
<text text-anchor="middle" x="352.8566" y="-658.4066" font-family="Times,serif" font-size="15.00" fill="#666666">Par conséquent … </text>
</g>
<!-- p10 -->
<g id="node10" class="node">
<title>p10</title>
<path fill="#ffffff" stroke="#000000" d="M984.0083,-615.7283C984.0083,-615.7283 619.9917,-615.7283 619.9917,-615.7283 613.9917,-615.7283 607.9917,-609.7283 607.9917,-603.7283 607.9917,-603.7283 607.9917,-469.7283 607.9917,-469.7283 607.9917,-463.7283 613.9917,-457.7283 619.9917,-457.7283 619.9917,-457.7283 984.0083,-457.7283 984.0083,-457.7283 990.0083,-457.7283 996.0083,-463.7283 996.0083,-469.7283 996.0083,-469.7283 996.0083,-603.7283 996.0083,-603.7283 996.0083,-609.7283 990.0083,-615.7283 984.0083,-615.7283"/>
<text text-anchor="middle" x="802" y="-587.1283" font-family="Times,serif" font-size="24.00" fill="#000000">(10) Le monde est la totalité</text>
<text text-anchor="middle" x="802" y="-558.3283" font-family="Times,serif" font-size="24.00" fill="#000000">des réalités contingentes : si X est</text>
<text text-anchor="middle" x="802" y="-529.5283" font-family="Times,serif" font-size="24.00" fill="#000000">une réalité différente du monde et</text>
<text text-anchor="middle" x="802" y="-500.7283" font-family="Times,serif" font-size="24.00" fill="#000000">n&#39;est pas dans le monde lui&#45;même,</text>
<text text-anchor="middle" x="802" y="-471.9283" font-family="Times,serif" font-size="24.00" fill="#000000">alors X est une réalité non&#45;contingente</text>
</g>
<!-- p9&#45;&gt;p10 -->
<!-- p11 -->
<g id="node11" class="node">
<title>p11</title>
<path fill="#ffffff" stroke="#000000" d="M719.0388,-347.8285C719.0388,-347.8285 496.9612,-347.8285 496.9612,-347.8285 490.9612,-347.8285 484.9612,-341.8285 484.9612,-335.8285 484.9612,-335.8285 484.9612,-230.4282 484.9612,-230.4282 484.9612,-224.4282 490.9612,-218.4282 496.9612,-218.4282 496.9612,-218.4282 719.0388,-218.4282 719.0388,-218.4282 725.0388,-218.4282 731.0388,-224.4282 731.0388,-230.4282 731.0388,-230.4282 731.0388,-335.8285 731.0388,-335.8285 731.0388,-341.8285 725.0388,-347.8285 719.0388,-347.8285"/>
<text text-anchor="middle" x="608" y="-319.1283" font-family="Times,serif" font-size="24.00" fill="#000000">(11) Il existe une réalité</text>
<text text-anchor="middle" x="608" y="-290.3283" font-family="Times,serif" font-size="24.00" fill="#000000">non&#45;contingente dont</text>
<text text-anchor="middle" x="608" y="-261.5283" font-family="Times,serif" font-size="24.00" fill="#000000">l&#39;existence explique</text>
<text text-anchor="middle" x="608" y="-232.7283" font-family="Times,serif" font-size="24.00" fill="#000000">l&#39;existence du monde</text>
</g>
<!-- p10&#45;&gt;p11 -->
<g id="edge10" class="edge">
<title>p10:w&#45;&gt;p11:n</title>
<path fill="none" stroke="#000000" d="M604.177,-442.7311C605.1943,-408.814 606.8708,-374.8036 607.6189,-358.1622"/>
<polygon fill="#000000" stroke="#000000" points="611.1179,-358.254 608,-348.1283 604.1229,-357.9883 611.1179,-358.254"/>
<text text-anchor="middle" x="546.1301" y="-398.3814" font-family="Times,serif" font-size="15.00" fill="#666666">Par conséquent … </text>
</g>
<!-- p12 -->
<g id="node12" class="node">
<title>p12</title>
<path fill="#ffffff" stroke="#000000" d="M922.8976,-318.7295C922.8976,-318.7295 761.1024,-318.7295 761.1024,-318.7295 755.1024,-318.7295 749.1024,-312.7295 749.1024,-306.7295 749.1024,-306.7295 749.1024,-259.5272 749.1024,-259.5272 749.1024,-253.5272 755.1024,-247.5272 761.1024,-247.5272 761.1024,-247.5272 922.8976,-247.5272 922.8976,-247.5272 928.8976,-247.5272 934.8976,-253.5272 934.8976,-259.5272 934.8976,-259.5272 934.8976,-306.7295 934.8976,-306.7295 934.8976,-312.7295 928.8976,-318.7295 922.8976,-318.7295"/>
<text text-anchor="middle" x="842" y="-290.3283" font-family="Times,serif" font-size="24.00" fill="#000000">(12) Cette réalité,</text>
<text text-anchor="middle" x="842" y="-261.5283" font-family="Times,serif" font-size="24.00" fill="#000000">c&#39;est Dieu</text>
</g>
<!-- p11&#45;&gt;p12 -->
<!-- C -->
<g id="node13" class="node">
<title>C</title>
<ellipse fill="#000000" stroke="#000000" cx="749" cy="-78.2642" rx="86.9238" ry="30.0302"/>
<text text-anchor="middle" x="749" y="-71.0642" font-family="Times,serif" font-size="24.00" fill="#ffffff">Dieu existe</text>
</g>
<!-- p12&#45;&gt;C -->
<g id="edge12" class="edge">
<title>p12:w&#45;&gt;C:n</title>
<path fill="none" stroke="#000000" d="M741.6819,-203.53C743.6013,-170.6254 747.0853,-136.0743 748.4401,-118.3467"/>
<polygon fill="#000000" stroke="#000000" points="751.94,-118.4429 749,-108.2642 744.9508,-118.0547 751.94,-118.4429"/>
<text text-anchor="middle" x="685.4152" y="-159.5717" font-family="Times,serif" font-size="15.00" fill="#666666">Par conséquent … </text>
</g>
</g>
</svg>
