<?xml version="1.0" encoding="UTF-8" standalone="no"?>
<!DOCTYPE svg PUBLIC "-//W3C//DTD SVG 1.1//EN"
 "http://www.w3.org/Graphics/SVG/1.1/DTD/svg11.dtd">
<!-- Generated by graphviz version 2.40.1 (20161225.0304)
 -->
<!-- Title: G Pages: 1 -->
<svg width="2014pt" height="1479pt"
 viewBox="0.00 0.00 2014.13 1478.93" xmlns="http://www.w3.org/2000/svg" xmlns:xlink="http://www.w3.org/1999/xlink">
<g id="graph0" class="graph" transform="scale(1 1) rotate(0) translate(4 1474.9283)">
<title>G</title>
<polygon fill="#ffffff" stroke="transparent" points="-4,4 -4,-1474.9283 2010.1304,-1474.9283 2010.1304,4 -4,4"/>
<g id="clust2" class="cluster">
<title>cluster_0</title>
<path fill="#e5e5e5" stroke="#7f7f7f" d="M569.8346,-8C569.8346,-8 1429.8346,-8 1429.8346,-8 1435.8346,-8 1441.8346,-14 1441.8346,-20 1441.8346,-20 1441.8346,-1396.9283 1441.8346,-1396.9283 1441.8346,-1402.9283 1435.8346,-1408.9283 1429.8346,-1408.9283 1429.8346,-1408.9283 569.8346,-1408.9283 569.8346,-1408.9283 563.8346,-1408.9283 557.8346,-1402.9283 557.8346,-1396.9283 557.8346,-1396.9283 557.8346,-20 557.8346,-20 557.8346,-14 563.8346,-8 569.8346,-8"/>
</g>
<g id="clust7" class="cluster">
<title>cluster_2</title>
<polygon fill="#bababa" stroke="#bababa" points="820.8346,-391.7283 820.8346,-550.9283 1315.8346,-550.9283 1315.8346,-391.7283 820.8346,-391.7283"/>
</g>
<g id="clust5" class="cluster">
<title>cluster_1</title>
<polygon fill="#bababa" stroke="#bababa" points="607.8346,-621.3283 607.8346,-751.7283 1072.8346,-751.7283 1072.8346,-621.3283 607.8346,-621.3283"/>
</g>
<g id="clust9" class="cluster">
<title>cluster_3</title>
<polygon fill="#bababa" stroke="#bababa" points="886.8346,-179.5283 886.8346,-338.7283 1398.8346,-338.7283 1398.8346,-179.5283 886.8346,-179.5283"/>
</g>
<!-- o2a1 -->
<g id="node1" class="node">
<title>o2a1</title>
<path fill="#ffffff" stroke="#cd0000" d="M505.5039,-1471.0284C505.5039,-1471.0284 12.1653,-1471.0284 12.1653,-1471.0284 6.1653,-1471.0284 .1653,-1465.0284 .1653,-1459.0284 .1653,-1459.0284 .1653,-1101.6283 .1653,-1101.6283 .1653,-1095.6283 6.1653,-1089.6283 12.1653,-1089.6283 12.1653,-1089.6283 505.5039,-1089.6283 505.5039,-1089.6283 511.5039,-1089.6283 517.5039,-1095.6283 517.5039,-1101.6283 517.5039,-1101.6283 517.5039,-1459.0284 517.5039,-1459.0284 517.5039,-1465.0284 511.5039,-1471.0284 505.5039,-1471.0284"/>
<text text-anchor="middle" x="258.8346" y="-1448.6283" font-family="Times,serif" font-size="17.00" fill="#000000">D&#39;après cet argument, un passé infini conduirait à ce type d&#39;absurdités : </text>
<text text-anchor="middle" x="258.8346" y="-1428.2283" font-family="Times,serif" font-size="17.00" fill="#000000">1/ Si le passé était infini, cela serait à la fois possible et impossible qu&#39;à</text>
<text text-anchor="middle" x="258.8346" y="-1407.8283" font-family="Times,serif" font-size="17.00" fill="#000000">chaque instant du temps un être immortel ait terminé de compter</text>
<text text-anchor="middle" x="258.8346" y="-1387.4283" font-family="Times,serif" font-size="17.00" fill="#000000">l&#39;ensemble des nombres entiers : ce serait possible car il avait</text>
<text text-anchor="middle" x="258.8346" y="-1367.0283" font-family="Times,serif" font-size="17.00" fill="#000000">suffisamment de temps (un temps infini) pour le faire, mais ce</text>
<text text-anchor="middle" x="258.8346" y="-1346.6283" font-family="Times,serif" font-size="17.00" fill="#000000">serait aussi impossible car il aurait déjà dû avoir fini l&#39;instant</text>
<text text-anchor="middle" x="258.8346" y="-1326.2283" font-family="Times,serif" font-size="17.00" fill="#000000">d&#39;avant (puisqu&#39;il disposait également d&#39;un temps infini)</text>
<text text-anchor="middle" x="258.8346" y="-1305.8283" font-family="Times,serif" font-size="17.00" fill="#000000">2/ un “hôtel d&#39;Hilbert” pourrait exister : il s&#39;agit d&#39;un hôtel avec une </text>
<text text-anchor="middle" x="258.8346" y="-1285.4283" font-family="Times,serif" font-size="17.00" fill="#000000">infinité de places, dans lequel on peut toujours trouver de la place à de</text>
<text text-anchor="middle" x="258.8346" y="-1265.0283" font-family="Times,serif" font-size="17.00" fill="#000000">nouveaux clients même quand l&#39;hôtel est plein, et dans lequel le départ</text>
<text text-anchor="middle" x="258.8346" y="-1244.6283" font-family="Times,serif" font-size="17.00" fill="#000000">de clients peut ne rien changer au nombre de places disponibles.</text>
<text text-anchor="middle" x="258.8346" y="-1224.2283" font-family="Times,serif" font-size="17.00" fill="#000000">Mais ces absurdités ne constituent&#45;elles pas seulement des paradoxes</text>
<text text-anchor="middle" x="258.8346" y="-1203.8283" font-family="Times,serif" font-size="17.00" fill="#000000">apparents ? Plusieurs auteurs ont proposé de résoudre ces paradoxes,</text>
<text text-anchor="middle" x="258.8346" y="-1183.4283" font-family="Times,serif" font-size="17.00" fill="#000000">soit en remettant en cause la possibilité du scénario imaginé, soit en</text>
<text text-anchor="middle" x="258.8346" y="-1163.0283" font-family="Times,serif" font-size="17.00" fill="#000000">soulignant que la prétendue impossibilité n&#39;était qu&#39;une pétition de</text>
<text text-anchor="middle" x="258.8346" y="-1142.6283" font-family="Times,serif" font-size="17.00" fill="#000000">principe et qu&#39;elle reposait simplement sur le refus d&#39;admettre</text>
<text text-anchor="middle" x="258.8346" y="-1122.2283" font-family="Times,serif" font-size="17.00" fill="#000000">l&#39;existence réelle d&#39;ensemble infinis et les propriétés,</text>
<text text-anchor="middle" x="258.8346" y="-1101.8283" font-family="Times,serif" font-size="17.00" fill="#000000">certes contre&#45;intuitives, de ces ensembles</text>
</g>
<!-- p2a1 -->
<g id="node5" class="node">
<title>p2a1</title>
<path fill="#ffffff" stroke="#000000" d="M938.0633,-1338.3283C938.0633,-1338.3283 609.6059,-1338.3283 609.6059,-1338.3283 603.6059,-1338.3283 597.6059,-1332.3283 597.6059,-1326.3283 597.6059,-1326.3283 597.6059,-1234.3283 597.6059,-1234.3283 597.6059,-1228.3283 603.6059,-1222.3283 609.6059,-1222.3283 609.6059,-1222.3283 938.0633,-1222.3283 938.0633,-1222.3283 944.0633,-1222.3283 950.0633,-1228.3283 950.0633,-1234.3283 950.0633,-1234.3283 950.0633,-1326.3283 950.0633,-1326.3283 950.0633,-1332.3283 944.0633,-1338.3283 938.0633,-1338.3283"/>
<text text-anchor="middle" x="773.8346" y="-1316.0283" font-family="Times,serif" font-size="17.00" fill="#000000">(2a1) Si le passé est infini, cela voudrait dire</text>
<text text-anchor="middle" x="773.8346" y="-1295.6283" font-family="Times,serif" font-size="17.00" fill="#000000">qu&#39;un ensemble infini pourrait réellement exister,</text>
<text text-anchor="middle" x="773.8346" y="-1275.2283" font-family="Times,serif" font-size="17.00" fill="#000000">alors que les ensembles infinis ne sont que des</text>
<text text-anchor="middle" x="773.8346" y="-1254.8283" font-family="Times,serif" font-size="17.00" fill="#000000">constructions mathématiques : l&#39;existence réelle</text>
<text text-anchor="middle" x="773.8346" y="-1234.4283" font-family="Times,serif" font-size="17.00" fill="#000000">d&#39;un ensemble infini conduirait à des absurdités</text>
</g>
<!-- o2a1&#45;&gt;p2a1 -->
<g id="edge16" class="edge">
<title>o2a1&#45;&gt;p2a1</title>
<path fill="none" stroke="#cd0000" stroke-width=".8" d="M526.0456,-1280.3283C550.2224,-1280.3283 574.2849,-1280.3283 597.379,-1280.3283"/>
<polygon fill="#cd0000" stroke="#cd0000" stroke-width=".8" points="525.8434,-1277.5284 517.8434,-1280.3283 525.8433,-1283.1284 525.8434,-1277.5284"/>
<text text-anchor="middle" x="557.6947" y="-1286.9283" font-family="Times,serif" font-size="12.00" fill="#8b0000"> Mais …</text>
</g>
<!-- o1 -->
<g id="node2" class="node">
<title>o1</title>
<path fill="#ffffff" stroke="#cd0000" d="M505.9006,-769.2285C505.9006,-769.2285 59.7686,-769.2285 59.7686,-769.2285 53.7686,-769.2285 47.7686,-763.2285 47.7686,-757.2285 47.7686,-757.2285 47.7686,-615.8282 47.7686,-615.8282 47.7686,-609.8282 53.7686,-603.8282 59.7686,-603.8282 59.7686,-603.8282 505.9006,-603.8282 505.9006,-603.8282 511.9006,-603.8282 517.9006,-609.8282 517.9006,-615.8282 517.9006,-615.8282 517.9006,-757.2285 517.9006,-757.2285 517.9006,-763.2285 511.9006,-769.2285 505.9006,-769.2285"/>
<text text-anchor="middle" x="282.8346" y="-745.9283" font-family="Times,serif" font-size="18.00" fill="#000000">1/ Le simple refus d&#39;accepter l&#39;apparition magique d&#39;une entité</text>
<text text-anchor="middle" x="282.8346" y="-724.3283" font-family="Times,serif" font-size="18.00" fill="#000000">sans cause explicative peut&#45;il vraiment justifier ce principe ?</text>
<text text-anchor="middle" x="282.8346" y="-702.7283" font-family="Times,serif" font-size="18.00" fill="#000000">L&#39;idée d&#39;un événement sans cause ne semble pas impossible.</text>
<text text-anchor="middle" x="282.8346" y="-681.1283" font-family="Times,serif" font-size="18.00" fill="#000000">2/ Il y a des phénomènes qui semblent être sans causes,</text>
<text text-anchor="middle" x="282.8346" y="-659.5283" font-family="Times,serif" font-size="18.00" fill="#000000">notamment dans le domaine de la physique quantique</text>
<text text-anchor="middle" x="282.8346" y="-637.9283" font-family="Times,serif" font-size="18.00" fill="#000000">3/ Si ce principe s&#39;applique aux événements dans le monde,</text>
<text text-anchor="middle" x="282.8346" y="-616.3283" font-family="Times,serif" font-size="18.00" fill="#000000">peut&#45;on appliquer ce principe au monde lui&#45;même ?</text>
</g>
<!-- p1 -->
<g id="node3" class="node">
<title>p1</title>
<path fill="#ffffff" stroke="#000000" d="M814.7754,-736.9291C814.7754,-736.9291 634.8938,-736.9291 634.8938,-736.9291 628.8938,-736.9291 622.8938,-730.9291 622.8938,-724.9291 622.8938,-724.9291 622.8938,-648.1275 622.8938,-648.1275 622.8938,-642.1275 628.8938,-636.1275 634.8938,-636.1275 634.8938,-636.1275 814.7754,-636.1275 814.7754,-636.1275 820.7754,-636.1275 826.7754,-642.1275 826.7754,-648.1275 826.7754,-648.1275 826.7754,-724.9291 826.7754,-724.9291 826.7754,-730.9291 820.7754,-736.9291 814.7754,-736.9291"/>
<text text-anchor="middle" x="724.8346" y="-708.1283" font-family="Times,serif" font-size="24.00" fill="#000000">(1) Tout ce qui a un</text>
<text text-anchor="middle" x="724.8346" y="-679.3283" font-family="Times,serif" font-size="24.00" fill="#000000">commencement</text>
<text text-anchor="middle" x="724.8346" y="-650.5283" font-family="Times,serif" font-size="24.00" fill="#000000">a une cause</text>
</g>
<!-- o1&#45;&gt;p1 -->
<g id="edge1" class="edge">
<title>o1&#45;&gt;p1</title>
<path fill="none" stroke="#cd0000" stroke-width=".8" d="M526.2534,-686.5283C560.2291,-686.5283 593.4907,-686.5283 622.7815,-686.5283"/>
<polygon fill="#cd0000" stroke="#cd0000" stroke-width=".8" points="526.07,-683.7284 518.07,-686.5283 526.0699,-689.3284 526.07,-683.7284"/>
<text text-anchor="middle" x="570.3659" y="-693.1283" font-family="Times,serif" font-size="12.00" fill="#8b0000"> Mais …</text>
</g>
<!-- p2 -->
<g id="node8" class="node">
<title>p2</title>
<path fill="#ffffff" stroke="#000000" d="M1045.781,-722.1295C1045.781,-722.1295 873.8882,-722.1295 873.8882,-722.1295 867.8882,-722.1295 861.8882,-716.1295 861.8882,-710.1295 861.8882,-710.1295 861.8882,-662.9272 861.8882,-662.9272 861.8882,-656.9272 867.8882,-650.9272 873.8882,-650.9272 873.8882,-650.9272 1045.781,-650.9272 1045.781,-650.9272 1051.781,-650.9272 1057.781,-656.9272 1057.781,-662.9272 1057.781,-662.9272 1057.781,-710.1295 1057.781,-710.1295 1057.781,-716.1295 1051.781,-722.1295 1045.781,-722.1295"/>
<text text-anchor="middle" x="959.8346" y="-693.7283" font-family="Times,serif" font-size="24.00" fill="#000000">(2) Le monde a</text>
<text text-anchor="middle" x="959.8346" y="-664.9283" font-family="Times,serif" font-size="24.00" fill="#000000">un commencement</text>
</g>
<!-- p1&#45;&gt;p2 -->
<!-- p2a2 -->
<g id="node4" class="node">
<title>p2a2</title>
<path fill="#ffffff" stroke="#000000" d="M1389.9726,-1369.0285C1389.9726,-1369.0285 979.6966,-1369.0285 979.6966,-1369.0285 973.6966,-1369.0285 967.6966,-1363.0285 967.6966,-1357.0285 967.6966,-1357.0285 967.6966,-1203.6282 967.6966,-1203.6282 967.6966,-1197.6282 973.6966,-1191.6282 979.6966,-1191.6282 979.6966,-1191.6282 1389.9726,-1191.6282 1389.9726,-1191.6282 1395.9726,-1191.6282 1401.9726,-1197.6282 1401.9726,-1203.6282 1401.9726,-1203.6282 1401.9726,-1357.0285 1401.9726,-1357.0285 1401.9726,-1363.0285 1395.9726,-1369.0285 1389.9726,-1369.0285"/>
<text text-anchor="middle" x="1184.8346" y="-1346.6283" font-family="Times,serif" font-size="17.00" fill="#000000">(2a2) Si le passé était infini, cela voudrait dire qu&#39;un</text>
<text text-anchor="middle" x="1184.8346" y="-1326.2283" font-family="Times,serif" font-size="17.00" fill="#000000">ensemble infini (la série des événements passés) pourrait</text>
<text text-anchor="middle" x="1184.8346" y="-1305.8283" font-family="Times,serif" font-size="17.00" fill="#000000">être constitué par une simple succession d&#39;éléments finis</text>
<text text-anchor="middle" x="1184.8346" y="-1285.4283" font-family="Times,serif" font-size="17.00" fill="#000000">(les différents événements), alors que c&#39;est impossible</text>
<text text-anchor="middle" x="1184.8346" y="-1265.0283" font-family="Times,serif" font-size="17.00" fill="#000000">(autrement dit : si le temps est une succession d&#39;événements, </text>
<text text-anchor="middle" x="1184.8346" y="-1244.6283" font-family="Times,serif" font-size="17.00" fill="#000000">et si une succession d&#39;événements ne peut pas constituer un</text>
<text text-anchor="middle" x="1184.8346" y="-1224.2283" font-family="Times,serif" font-size="17.00" fill="#000000">ensemble infini, alors, si le passé est infini, on ne peut</text>
<text text-anchor="middle" x="1184.8346" y="-1203.8283" font-family="Times,serif" font-size="17.00" fill="#000000">jamais atteindre le présent : le présent n&#39;existerait pas)</text>
</g>
<!-- p2b -->
<g id="node6" class="node">
<title>p2b</title>
<path fill="#ffffff" stroke="#000000" d="M1355.1978,-962.0286C1355.1978,-962.0286 1086.4714,-962.0286 1086.4714,-962.0286 1080.4714,-962.0286 1074.4714,-956.0286 1074.4714,-950.0286 1074.4714,-950.0286 1074.4714,-895.4281 1074.4714,-895.4281 1074.4714,-889.4281 1080.4714,-883.4281 1086.4714,-883.4281 1086.4714,-883.4281 1355.1978,-883.4281 1355.1978,-883.4281 1361.1978,-883.4281 1367.1978,-889.4281 1367.1978,-895.4281 1367.1978,-895.4281 1367.1978,-950.0286 1367.1978,-950.0286 1367.1978,-956.0286 1361.1978,-962.0286 1355.1978,-962.0286"/>
<text text-anchor="middle" x="1220.8346" y="-938.9283" font-family="Times,serif" font-size="18.00" fill="#000000">(2b) L&#39;hypothèse d&#39;un passé infini</text>
<text text-anchor="middle" x="1220.8346" y="-917.3283" font-family="Times,serif" font-size="18.00" fill="#000000">n&#39;est pas en accord avec les meilleures</text>
<text text-anchor="middle" x="1220.8346" y="-895.7283" font-family="Times,serif" font-size="18.00" fill="#000000">théories physiques contemporaines</text>
</g>
<!-- p2a2&#45;&gt;p2b -->
<!-- p2a -->
<g id="node7" class="node">
<title>p2a</title>
<path fill="#ffffff" stroke="#000000" d="M918.7746,-962.0286C918.7746,-962.0286 760.8946,-962.0286 760.8946,-962.0286 754.8946,-962.0286 748.8946,-956.0286 748.8946,-950.0286 748.8946,-950.0286 748.8946,-895.4281 748.8946,-895.4281 748.8946,-889.4281 754.8946,-883.4281 760.8946,-883.4281 760.8946,-883.4281 918.7746,-883.4281 918.7746,-883.4281 924.7746,-883.4281 930.7746,-889.4281 930.7746,-895.4281 930.7746,-895.4281 930.7746,-950.0286 930.7746,-950.0286 930.7746,-956.0286 924.7746,-962.0286 918.7746,-962.0286"/>
<text text-anchor="middle" x="839.8346" y="-938.9283" font-family="Times,serif" font-size="18.00" fill="#000000">(2a) L&#39;hypothèse d&#39;un</text>
<text text-anchor="middle" x="839.8346" y="-917.3283" font-family="Times,serif" font-size="18.00" fill="#000000">passé infini conduit à</text>
<text text-anchor="middle" x="839.8346" y="-895.7283" font-family="Times,serif" font-size="18.00" fill="#000000">des contradictions</text>
</g>
<!-- p2a2&#45;&gt;p2a -->
<g id="edge2" class="edge">
<title>p2a2&#45;&gt;p2a</title>
<path fill="none" stroke="#000000" d="M1099.1104,-1191.4734C1031.3097,-1121.1965 939.3251,-1025.8524 885.1059,-969.653"/>
<polygon fill="#000000" stroke="#000000" points="887.4989,-967.0925 878.0369,-962.3258 882.4612,-971.9527 887.4989,-967.0925"/>
<text text-anchor="middle" x="946.2373" y="-1096.2261" font-family="Times,serif" font-size="14.00" fill="#666666">Par</text>
<text text-anchor="middle" x="946.2373" y="-1079.4261" font-family="Times,serif" font-size="14.00" fill="#666666">conséquent …</text>
</g>
<!-- o2a2 -->
<g id="node16" class="node">
<title>o2a2</title>
<path fill="#ffffff" stroke="#cd0000" d="M1959.923,-1327.9292C1959.923,-1327.9292 1493.7462,-1327.9292 1493.7462,-1327.9292 1487.7462,-1327.9292 1481.7462,-1321.9292 1481.7462,-1315.9292 1481.7462,-1315.9292 1481.7462,-1244.7275 1481.7462,-1244.7275 1481.7462,-1238.7275 1487.7462,-1232.7275 1493.7462,-1232.7275 1493.7462,-1232.7275 1959.923,-1232.7275 1959.923,-1232.7275 1965.923,-1232.7275 1971.923,-1238.7275 1971.923,-1244.7275 1971.923,-1244.7275 1971.923,-1315.9292 1971.923,-1315.9292 1971.923,-1321.9292 1965.923,-1327.9292 1959.923,-1327.9292"/>
<text text-anchor="middle" x="1726.8346" y="-1305.8283" font-family="Times,serif" font-size="17.00" fill="#000000">Cet argument semble présupposer que le temps a un commencement :</text>
<text text-anchor="middle" x="1726.8346" y="-1285.4283" font-family="Times,serif" font-size="17.00" fill="#000000">si on commence à ajouter des événements à partir d&#39;un événement</text>
<text text-anchor="middle" x="1726.8346" y="-1265.0283" font-family="Times,serif" font-size="17.00" fill="#000000">donné, alors effectivement, on n&#39;aura jamais un ensemble infini,</text>
<text text-anchor="middle" x="1726.8346" y="-1244.6283" font-family="Times,serif" font-size="17.00" fill="#000000">mais on présuppose alors ce que l&#39;on voulait montrer !</text>
</g>
<!-- p2a2&#45;&gt;o2a2 -->
<g id="edge15" class="edge">
<title>p2a2&#45;&gt;o2a2</title>
<path fill="none" stroke="#cd0000" stroke-width=".8" d="M1402.1638,-1280.3283C1425.5807,-1280.3283 1449.5545,-1280.3283 1473.3476,-1280.3283"/>
<polygon fill="#cd0000" stroke="#cd0000" stroke-width=".8" points="1473.4086,-1283.1284 1481.4086,-1280.3283 1473.4085,-1277.5284 1473.4086,-1283.1284"/>
<text text-anchor="middle" x="1441.847" y="-1286.9283" font-family="Times,serif" font-size="12.00" fill="#8b0000"> Mais …</text>
</g>
<!-- p2a1&#45;&gt;p2a -->
<g id="edge3" class="edge">
<title>p2a1&#45;&gt;p2a</title>
<path fill="none" stroke="#000000" d="M784.5855,-1222.0778C797.4143,-1152.5695 818.6399,-1037.5651 830.7062,-972.1879"/>
<polygon fill="#000000" stroke="#000000" points="834.1882,-972.6051 832.5614,-962.136 827.3044,-971.3346 834.1882,-972.6051"/>
<text text-anchor="middle" x="767.9003" y="-1112.8435" font-family="Times,serif" font-size="14.00" fill="#666666">Par</text>
<text text-anchor="middle" x="767.9003" y="-1096.0435" font-family="Times,serif" font-size="14.00" fill="#666666">conséquent …</text>
</g>
<!-- p2b&#45;&gt;p2 -->
<g id="edge5" class="edge">
<title>p2b&#45;&gt;p2</title>
<path fill="none" stroke="#000000" stroke-dasharray="5,2" d="M1177.1491,-883.1938C1130.0391,-840.5601 1055.3049,-772.9271 1006.9157,-729.1359"/>
<polygon fill="#000000" stroke="#000000" points="1009.1471,-726.4348 999.384,-722.3198 1004.4501,-731.625 1009.1471,-726.4348"/>
<text text-anchor="middle" x="1049.3312" y="-840.5017" font-family="Times,serif" font-size="14.00" fill="#666666">Donc, il est</text>
<text text-anchor="middle" x="1049.3312" y="-823.7017" font-family="Times,serif" font-size="14.00" fill="#666666">justifié de</text>
<text text-anchor="middle" x="1049.3312" y="-806.9017" font-family="Times,serif" font-size="14.00" fill="#666666">penser que …</text>
</g>
<!-- o2b -->
<g id="node14" class="node">
<title>o2b</title>
<path fill="#ffffff" stroke="#cd0000" d="M1993.9264,-1059.4284C1993.9264,-1059.4284 1493.7428,-1059.4284 1493.7428,-1059.4284 1487.7428,-1059.4284 1481.7428,-1053.4284 1481.7428,-1047.4284 1481.7428,-1047.4284 1481.7428,-798.0283 1481.7428,-798.0283 1481.7428,-792.0283 1487.7428,-786.0283 1493.7428,-786.0283 1493.7428,-786.0283 1993.9264,-786.0283 1993.9264,-786.0283 1999.9264,-786.0283 2005.9264,-792.0283 2005.9264,-798.0283 2005.9264,-798.0283 2005.9264,-1047.4284 2005.9264,-1047.4284 2005.9264,-1053.4284 1999.9264,-1059.4284 1993.9264,-1059.4284"/>
<text text-anchor="middle" x="1743.8346" y="-1036.1283" font-family="Times,serif" font-size="18.00" fill="#000000">1/ La physique contemporaine affirme l&#39;existence de ce qui semble</text>
<text text-anchor="middle" x="1743.8346" y="-1014.5283" font-family="Times,serif" font-size="18.00" fill="#000000">être un commencement du monde : le Big Bang ; cependant il faut</text>
<text text-anchor="middle" x="1743.8346" y="-992.9283" font-family="Times,serif" font-size="18.00" fill="#000000">être prudent quand on interprète d&#39;un point de vue philosophique</text>
<text text-anchor="middle" x="1743.8346" y="-971.3283" font-family="Times,serif" font-size="18.00" fill="#000000">une théorie physique et il existe des modèles cosmologiques dans</text>
<text text-anchor="middle" x="1743.8346" y="-949.7283" font-family="Times,serif" font-size="18.00" fill="#000000">lesquels le Big Bang est compatible avec l&#39;idée d&#39;un passé infini</text>
<text text-anchor="middle" x="1743.8346" y="-928.1283" font-family="Times,serif" font-size="18.00" fill="#000000">2/ La physique contemporaine affirme la vérité du deuxième</text>
<text text-anchor="middle" x="1743.8346" y="-906.5283" font-family="Times,serif" font-size="18.00" fill="#000000">principe de la thermodynamique, selon lequel un système fermé</text>
<text text-anchor="middle" x="1743.8346" y="-884.9283" font-family="Times,serif" font-size="18.00" fill="#000000">qui évolue de manière irréversible se rapproche nécessairement de</text>
<text text-anchor="middle" x="1743.8346" y="-863.3283" font-family="Times,serif" font-size="18.00" fill="#000000">l&#39;état d&#39;équilibre thermodynamique : appliqué au monde, l&#39;hypothèse</text>
<text text-anchor="middle" x="1743.8346" y="-841.7283" font-family="Times,serif" font-size="18.00" fill="#000000">d&#39;un passé infini impliquerait que le monde devrait déjà avoir</text>
<text text-anchor="middle" x="1743.8346" y="-820.1283" font-family="Times,serif" font-size="18.00" fill="#000000">atteint cet état d&#39;équilibre, ce qui n&#39;est pas le cas ; mais peut&#45;on</text>
<text text-anchor="middle" x="1743.8346" y="-798.5283" font-family="Times,serif" font-size="18.00" fill="#000000">appliquer ce principe thermodynamique au monde lui&#45;même ?</text>
</g>
<!-- p2b&#45;&gt;o2b -->
<g id="edge13" class="edge">
<title>p2b&#45;&gt;o2b</title>
<path fill="none" stroke="#cd0000" stroke-width=".8" d="M1367.2147,-922.7283C1400.366,-922.7283 1436.6013,-922.7283 1473.0771,-922.7283"/>
<polygon fill="#cd0000" stroke="#cd0000" stroke-width=".8" points="1473.356,-925.5284 1481.356,-922.7283 1473.356,-919.9284 1473.356,-925.5284"/>
<text text-anchor="middle" x="1424.4025" y="-929.3283" font-family="Times,serif" font-size="12.00" fill="#8b0000"> Mais …</text>
</g>
<!-- p2a&#45;&gt;p2b -->
<!-- p2a&#45;&gt;p2 -->
<g id="edge4" class="edge">
<title>p2a&#45;&gt;p2</title>
<path fill="none" stroke="#000000" d="M859.9199,-883.1938C881.2231,-841.2619 914.8124,-775.147 937.0797,-731.3176"/>
<polygon fill="#000000" stroke="#000000" points="940.2419,-732.8206 941.651,-722.3198 934.0011,-729.6499 940.2419,-732.8206"/>
<text text-anchor="middle" x="860.1751" y="-823.5373" font-family="Times,serif" font-size="14.00" fill="#666666">Par</text>
<text text-anchor="middle" x="860.1751" y="-806.7373" font-family="Times,serif" font-size="14.00" fill="#666666">conséquent …</text>
</g>
<!-- p3 -->
<g id="node9" class="node">
<title>p3</title>
<path fill="#ffffff" stroke="#000000" d="M967.9527,-506.9295C967.9527,-506.9295 847.7165,-506.9295 847.7165,-506.9295 841.7165,-506.9295 835.7165,-500.9295 835.7165,-494.9295 835.7165,-494.9295 835.7165,-447.7272 835.7165,-447.7272 835.7165,-441.7272 841.7165,-435.7272 847.7165,-435.7272 847.7165,-435.7272 967.9527,-435.7272 967.9527,-435.7272 973.9527,-435.7272 979.9527,-441.7272 979.9527,-447.7272 979.9527,-447.7272 979.9527,-494.9295 979.9527,-494.9295 979.9527,-500.9295 973.9527,-506.9295 967.9527,-506.9295"/>
<text text-anchor="middle" x="907.8346" y="-478.5283" font-family="Times,serif" font-size="24.00" fill="#000000">(3) Le monde</text>
<text text-anchor="middle" x="907.8346" y="-449.7283" font-family="Times,serif" font-size="24.00" fill="#000000">a une cause</text>
</g>
<!-- p2&#45;&gt;p3 -->
<g id="edge8" class="edge">
<title>p2:w&#45;&gt;p3:n</title>
<path fill="none" stroke="#000000" d="M868.9915,-621.3302C882.3504,-582.12 904.7541,-565.1064 907.5461,-517.4616"/>
<polygon fill="#000000" stroke="#000000" points="911.0485,-517.4239 907.8346,-507.3283 904.0513,-517.2246 911.0485,-517.4239"/>
<text text-anchor="middle" x="851.049" y="-590.0543" font-family="Times,serif" font-size="15.00" fill="#666666">Par</text>
<text text-anchor="middle" x="851.049" y="-572.0543" font-family="Times,serif" font-size="15.00" fill="#666666">conséquent …</text>
</g>
<!-- p4 -->
<g id="node10" class="node">
<title>p4</title>
<path fill="#ffffff" stroke="#000000" d="M1288.5731,-536.0285C1288.5731,-536.0285 1027.0961,-536.0285 1027.0961,-536.0285 1021.0961,-536.0285 1015.0961,-530.0285 1015.0961,-524.0285 1015.0961,-524.0285 1015.0961,-418.6282 1015.0961,-418.6282 1015.0961,-412.6282 1021.0961,-406.6282 1027.0961,-406.6282 1027.0961,-406.6282 1288.5731,-406.6282 1288.5731,-406.6282 1294.5731,-406.6282 1300.5731,-412.6282 1300.5731,-418.6282 1300.5731,-418.6282 1300.5731,-524.0285 1300.5731,-524.0285 1300.5731,-530.0285 1294.5731,-536.0285 1288.5731,-536.0285"/>
<text text-anchor="middle" x="1157.8346" y="-507.3283" font-family="Times,serif" font-size="24.00" fill="#000000">(4) Si le monde a une cause,</text>
<text text-anchor="middle" x="1157.8346" y="-478.5283" font-family="Times,serif" font-size="24.00" fill="#000000">cette cause ne peut pas être</text>
<text text-anchor="middle" x="1157.8346" y="-449.7283" font-family="Times,serif" font-size="24.00" fill="#000000">une réalité dans le monde,</text>
<text text-anchor="middle" x="1157.8346" y="-420.9283" font-family="Times,serif" font-size="24.00" fill="#000000">ou le monde lui&#45;même</text>
</g>
<!-- p3&#45;&gt;p4 -->
<!-- p5 -->
<g id="node11" class="node">
<title>p5</title>
<path fill="#ffffff" stroke="#000000" d="M1161.9253,-323.8285C1161.9253,-323.8285 913.7439,-323.8285 913.7439,-323.8285 907.7439,-323.8285 901.7439,-317.8285 901.7439,-311.8285 901.7439,-311.8285 901.7439,-206.4282 901.7439,-206.4282 901.7439,-200.4282 907.7439,-194.4282 913.7439,-194.4282 913.7439,-194.4282 1161.9253,-194.4282 1161.9253,-194.4282 1167.9253,-194.4282 1173.9253,-200.4282 1173.9253,-206.4282 1173.9253,-206.4282 1173.9253,-311.8285 1173.9253,-311.8285 1173.9253,-317.8285 1167.9253,-323.8285 1161.9253,-323.8285"/>
<text text-anchor="middle" x="1037.8346" y="-295.1283" font-family="Times,serif" font-size="24.00" fill="#000000">(5) Il existe une réalité</text>
<text text-anchor="middle" x="1037.8346" y="-266.3283" font-family="Times,serif" font-size="24.00" fill="#000000">différente du monde, qui</text>
<text text-anchor="middle" x="1037.8346" y="-237.5283" font-family="Times,serif" font-size="24.00" fill="#000000">n&#39;est pas dans le monde, et</text>
<text text-anchor="middle" x="1037.8346" y="-208.7283" font-family="Times,serif" font-size="24.00" fill="#000000">qui est la cause du monde</text>
</g>
<!-- p4&#45;&gt;p5 -->
<g id="edge10" class="edge">
<title>p4:w&#45;&gt;p5:n</title>
<path fill="none" stroke="#000000" d="M1017.8782,-391.7325C1024.1002,-369.194 1034.946,-359.0016 1037.3526,-334.4533"/>
<polygon fill="#000000" stroke="#000000" points="1040.8644,-334.2807 1037.8346,-324.1283 1033.872,-333.9542 1040.8644,-334.2807"/>
<text text-anchor="middle" x="975.4491" y="-363.9586" font-family="Times,serif" font-size="15.00" fill="#666666">Par conséquent …</text>
</g>
<!-- p6 -->
<g id="node12" class="node">
<title>p6</title>
<path fill="#ffffff" stroke="#000000" d="M1371.7322,-294.7295C1371.7322,-294.7295 1221.937,-294.7295 1221.937,-294.7295 1215.937,-294.7295 1209.937,-288.7295 1209.937,-282.7295 1209.937,-282.7295 1209.937,-235.5272 1209.937,-235.5272 1209.937,-229.5272 1215.937,-223.5272 1221.937,-223.5272 1221.937,-223.5272 1371.7322,-223.5272 1371.7322,-223.5272 1377.7322,-223.5272 1383.7322,-229.5272 1383.7322,-235.5272 1383.7322,-235.5272 1383.7322,-282.7295 1383.7322,-282.7295 1383.7322,-288.7295 1377.7322,-294.7295 1371.7322,-294.7295"/>
<text text-anchor="middle" x="1296.8346" y="-266.3283" font-family="Times,serif" font-size="24.00" fill="#000000">(6) Cette réalité,</text>
<text text-anchor="middle" x="1296.8346" y="-237.5283" font-family="Times,serif" font-size="24.00" fill="#000000">c&#39;est Dieu</text>
</g>
<!-- p5&#45;&gt;p6 -->
<!-- C -->
<g id="node13" class="node">
<title>C</title>
<ellipse fill="#000000" stroke="#000000" cx="1209.8346" cy="-78.2642" rx="86.9238" ry="30.0302"/>
<text text-anchor="middle" x="1209.8346" y="-71.0642" font-family="Times,serif" font-size="24.00" fill="#ffffff">Dieu existe</text>
</g>
<!-- p6&#45;&gt;C -->
<g id="edge12" class="edge">
<title>p6:w&#45;&gt;C:n</title>
<path fill="none" stroke="#000000" d="M1207.8769,-179.5315C1209.0828,-173.6084 1209.8346,-167.7244 1209.8346,-162.0283 1209.8346,-162.0283 1209.8346,-162.0283 1209.8346,-126.0283 1209.8346,-122.8209 1209.8346,-120.5908 1209.8346,-118.5438"/>
<polygon fill="#000000" stroke="#000000" points="1213.3347,-118.2641 1209.8346,-108.2642 1206.3347,-118.2642 1213.3347,-118.2641"/>
<text text-anchor="middle" x="1166.2041" y="-148.5189" font-family="Times,serif" font-size="15.00" fill="#666666">Par</text>
<text text-anchor="middle" x="1166.2041" y="-130.5189" font-family="Times,serif" font-size="15.00" fill="#666666">conséquent …</text>
</g>
<!-- o6 -->
<g id="node15" class="node">
<title>o6</title>
<path fill="#ffffff" stroke="#cd0000" d="M1786.2566,-320.1283C1786.2566,-320.1283 1493.4126,-320.1283 1493.4126,-320.1283 1487.4126,-320.1283 1481.4126,-314.1283 1481.4126,-308.1283 1481.4126,-308.1283 1481.4126,-210.1283 1481.4126,-210.1283 1481.4126,-204.1283 1487.4126,-198.1283 1493.4126,-198.1283 1493.4126,-198.1283 1786.2566,-198.1283 1786.2566,-198.1283 1792.2566,-198.1283 1798.2566,-204.1283 1798.2566,-210.1283 1798.2566,-210.1283 1798.2566,-308.1283 1798.2566,-308.1283 1798.2566,-314.1283 1792.2566,-320.1283 1786.2566,-320.1283"/>
<text text-anchor="middle" x="1639.8346" y="-296.9283" font-family="Times,serif" font-size="18.00" fill="#000000">L&#39;argument prouve au mieux l&#39;existence</text>
<text text-anchor="middle" x="1639.8346" y="-275.3283" font-family="Times,serif" font-size="18.00" fill="#000000">d&#39;une réalité non matérielle, non spatiale,</text>
<text text-anchor="middle" x="1639.8346" y="-253.7283" font-family="Times,serif" font-size="18.00" fill="#000000">non temporelle qui est la cause du monde,</text>
<text text-anchor="middle" x="1639.8346" y="-232.1283" font-family="Times,serif" font-size="18.00" fill="#000000">mais, sans hypothèses supplémentaires,</text>
<text text-anchor="middle" x="1639.8346" y="-210.5283" font-family="Times,serif" font-size="18.00" fill="#000000">cela ne prouve pas l&#39;existence de Dieu</text>
</g>
<!-- p6&#45;&gt;o6 -->
<g id="edge14" class="edge">
<title>p6&#45;&gt;o6</title>
<path fill="none" stroke="#cd0000" stroke-width=".8" d="M1383.8314,-259.1283C1411.0689,-259.1283 1442.0975,-259.1283 1472.9281,-259.1283"/>
<polygon fill="#cd0000" stroke="#cd0000" stroke-width=".8" points="1473.1857,-261.9284 1481.1857,-259.1283 1473.1857,-256.3284 1473.1857,-261.9284"/>
<text text-anchor="middle" x="1432.5785" y="-265.7283" font-family="Times,serif" font-size="12.00" fill="#8b0000"> Mais …</text>
</g>
</g>
</svg>
