<?xml version="1.0" encoding="UTF-8" standalone="no"?>
<!DOCTYPE svg PUBLIC "-//W3C//DTD SVG 1.1//EN"
 "http://www.w3.org/Graphics/SVG/1.1/DTD/svg11.dtd">
<!-- Generated by graphviz version 2.40.1 (20161225.0304)
 -->
<!-- Title: G Pages: 1 -->
<svg width="2098pt" height="1635pt"
 viewBox="0.00 0.00 2098.10 1634.73" xmlns="http://www.w3.org/2000/svg" xmlns:xlink="http://www.w3.org/1999/xlink">
<g id="graph0" class="graph" transform="scale(1 1) rotate(0) translate(4 1630.7283)">
<title>G</title>
<polygon fill="#ffffff" stroke="transparent" points="-4,4 -4,-1630.7283 2094.101,-1630.7283 2094.101,4 -4,4"/>
<g id="clust3" class="cluster">
<title>cluster_0</title>
<path fill="#e5e5e5" stroke="#7f7f7f" d="M521.965,-8C521.965,-8 1579.965,-8 1579.965,-8 1585.965,-8 1591.965,-14 1591.965,-20 1591.965,-20 1591.965,-1606.7283 1591.965,-1606.7283 1591.965,-1612.7283 1585.965,-1618.7283 1579.965,-1618.7283 1579.965,-1618.7283 521.965,-1618.7283 521.965,-1618.7283 515.965,-1618.7283 509.965,-1612.7283 509.965,-1606.7283 509.965,-1606.7283 509.965,-20 509.965,-20 509.965,-14 515.965,-8 521.965,-8"/>
</g>
<g id="clust4" class="cluster">
<title>cluster_1</title>
<polygon fill="#bababa" stroke="#bababa" points="650.965,-1448.3283 650.965,-1578.7283 1450.965,-1578.7283 1450.965,-1448.3283 650.965,-1448.3283"/>
</g>
<g id="clust6" class="cluster">
<title>cluster_2</title>
<polygon fill="#bababa" stroke="#bababa" points="587.965,-1099.1283 587.965,-1258.3283 1551.965,-1258.3283 1551.965,-1099.1283 587.965,-1099.1283"/>
</g>
<g id="clust8" class="cluster">
<title>cluster_3</title>
<polygon fill="#bababa" stroke="#bababa" points="549.965,-801.5283 549.965,-960.7283 1551.965,-960.7283 1551.965,-801.5283 549.965,-801.5283"/>
</g>
<g id="clust10" class="cluster">
<title>cluster_4</title>
<polygon fill="#bababa" stroke="#bababa" points="746.965,-501.5283 746.965,-689.5283 1550.965,-689.5283 1550.965,-501.5283 746.965,-501.5283"/>
</g>
<g id="clust12" class="cluster">
<title>cluster_5</title>
<polygon fill="#bababa" stroke="#bababa" points="1009.965,-220.9283 1009.965,-380.1283 1507.965,-380.1283 1507.965,-220.9283 1009.965,-220.9283"/>
</g>
<!-- o1 -->
<g id="node1" class="node">
<title>o1</title>
<path fill="#ffffff" stroke="#cd0000" d="M457.895,-1293.7283C457.895,-1293.7283 12.035,-1293.7283 12.035,-1293.7283 6.035,-1293.7283 .035,-1287.7283 .035,-1281.7283 .035,-1281.7283 .035,-1075.7283 .035,-1075.7283 .035,-1069.7283 6.035,-1063.7283 12.035,-1063.7283 12.035,-1063.7283 457.895,-1063.7283 457.895,-1063.7283 463.895,-1063.7283 469.895,-1069.7283 469.895,-1075.7283 469.895,-1075.7283 469.895,-1281.7283 469.895,-1281.7283 469.895,-1287.7283 463.895,-1293.7283 457.895,-1293.7283"/>
<text text-anchor="middle" x="234.965" y="-1268.7283" font-family="Times,serif" font-size="20.00" fill="#000000">On pourrait penser que l&#39;existence du monde n&#39;est</text>
<text text-anchor="middle" x="234.965" y="-1244.7283" font-family="Times,serif" font-size="20.00" fill="#000000">pas contingente, soit parce que la contigence n&#39;est</text>
<text text-anchor="middle" x="234.965" y="-1220.7283" font-family="Times,serif" font-size="20.00" fill="#000000">qu&#39;une illusion de notre pensée ou le résultat d&#39;un</text>
<text text-anchor="middle" x="234.965" y="-1196.7283" font-family="Times,serif" font-size="20.00" fill="#000000">sophisme (peut&#45;on attribuer la contingence au tout du</text>
<text text-anchor="middle" x="234.965" y="-1172.7283" font-family="Times,serif" font-size="20.00" fill="#000000">monde à partir de la contingence de ses éléments ?), soit</text>
<text text-anchor="middle" x="234.965" y="-1148.7283" font-family="Times,serif" font-size="20.00" fill="#000000">parce que l&#39;argument tout entier serait autoréfutant</text>
<text text-anchor="middle" x="234.965" y="-1124.7283" font-family="Times,serif" font-size="20.00" fill="#000000">(si l&#39;existence du monde s&#39;explique par une réalité</text>
<text text-anchor="middle" x="234.965" y="-1100.7283" font-family="Times,serif" font-size="20.00" fill="#000000">dont l&#39;existence est nécessaire, peut&#45;elle vraiment être</text>
<text text-anchor="middle" x="234.965" y="-1076.7283" font-family="Times,serif" font-size="20.00" fill="#000000">contingente ?) ; mais ces objections semblent faibles</text>
</g>
<!-- p4 -->
<g id="node3" class="node">
<title>p4</title>
<path fill="#ffffff" stroke="#000000" d="M750.8826,-1229.1291C750.8826,-1229.1291 615.0474,-1229.1291 615.0474,-1229.1291 609.0474,-1229.1291 603.0474,-1223.1291 603.0474,-1217.1291 603.0474,-1217.1291 603.0474,-1140.3275 603.0474,-1140.3275 603.0474,-1134.3275 609.0474,-1128.3275 615.0474,-1128.3275 615.0474,-1128.3275 750.8826,-1128.3275 750.8826,-1128.3275 756.8826,-1128.3275 762.8826,-1134.3275 762.8826,-1140.3275 762.8826,-1140.3275 762.8826,-1217.1291 762.8826,-1217.1291 762.8826,-1223.1291 756.8826,-1229.1291 750.8826,-1229.1291"/>
<text text-anchor="middle" x="682.965" y="-1200.3283" font-family="Times,serif" font-size="24.00" fill="#000000">(4) L&#39;existence</text>
<text text-anchor="middle" x="682.965" y="-1171.5283" font-family="Times,serif" font-size="24.00" fill="#000000">du monde est</text>
<text text-anchor="middle" x="682.965" y="-1142.7283" font-family="Times,serif" font-size="24.00" fill="#000000">contingente</text>
</g>
<!-- o1&#45;&gt;p4 -->
<g id="edge1" class="edge">
<title>o1&#45;&gt;p4</title>
<path fill="none" stroke="#cd0000" stroke-width=".8" d="M478.2217,-1178.7283C523.1621,-1178.7283 567.061,-1178.7283 602.611,-1178.7283"/>
<polygon fill="#cd0000" stroke="#cd0000" stroke-width=".8" points="478.1172,-1175.9284 470.1172,-1178.7283 478.1171,-1181.5284 478.1172,-1175.9284"/>
<text text-anchor="middle" x="536.4681" y="-1185.9283" font-family="Times,serif" font-size="14.00" fill="#8b0000"> Mais …</text>
</g>
<!-- o11 -->
<g id="node2" class="node">
<title>o11</title>
<path fill="#ffffff" stroke="#cd0000" d="M457.637,-379.5283C457.637,-379.5283 84.293,-379.5283 84.293,-379.5283 78.293,-379.5283 72.293,-373.5283 72.293,-367.5283 72.293,-367.5283 72.293,-233.5283 72.293,-233.5283 72.293,-227.5283 78.293,-221.5283 84.293,-221.5283 84.293,-221.5283 457.637,-221.5283 457.637,-221.5283 463.637,-221.5283 469.637,-227.5283 469.637,-233.5283 469.637,-233.5283 469.637,-367.5283 469.637,-367.5283 469.637,-373.5283 463.637,-379.5283 457.637,-379.5283"/>
<text text-anchor="middle" x="270.965" y="-354.5283" font-family="Times,serif" font-size="20.00" fill="#000000">L&#39;existence d&#39;une réalité non&#45;contingente</text>
<text text-anchor="middle" x="270.965" y="-330.5283" font-family="Times,serif" font-size="20.00" fill="#000000">permet&#45;elle véritablement d&#39;expliquer</text>
<text text-anchor="middle" x="270.965" y="-306.5283" font-family="Times,serif" font-size="20.00" fill="#000000">l&#39;existence du monde ? On ne peut accepter une</text>
<text text-anchor="middle" x="270.965" y="-282.5283" font-family="Times,serif" font-size="20.00" fill="#000000">explication d&#39;un fait que si elle fournit une</text>
<text text-anchor="middle" x="270.965" y="-258.5283" font-family="Times,serif" font-size="20.00" fill="#000000">raison satisfaisante qui nous permet de mieux</text>
<text text-anchor="middle" x="270.965" y="-234.5283" font-family="Times,serif" font-size="20.00" fill="#000000">comprendre ce fait : est&#45;ce vraiment le cas ici ?</text>
</g>
<!-- p11 -->
<g id="node4" class="node">
<title>p11</title>
<path fill="#ffffff" stroke="#000000" d="M1259.0038,-365.2285C1259.0038,-365.2285 1036.9262,-365.2285 1036.9262,-365.2285 1030.9262,-365.2285 1024.9262,-359.2285 1024.9262,-353.2285 1024.9262,-353.2285 1024.9262,-247.8282 1024.9262,-247.8282 1024.9262,-241.8282 1030.9262,-235.8282 1036.9262,-235.8282 1036.9262,-235.8282 1259.0038,-235.8282 1259.0038,-235.8282 1265.0038,-235.8282 1271.0038,-241.8282 1271.0038,-247.8282 1271.0038,-247.8282 1271.0038,-353.2285 1271.0038,-353.2285 1271.0038,-359.2285 1265.0038,-365.2285 1259.0038,-365.2285"/>
<text text-anchor="middle" x="1147.965" y="-336.5283" font-family="Times,serif" font-size="24.00" fill="#000000">(11) Il existe une réalité</text>
<text text-anchor="middle" x="1147.965" y="-307.7283" font-family="Times,serif" font-size="24.00" fill="#000000">non&#45;contingente dont</text>
<text text-anchor="middle" x="1147.965" y="-278.9283" font-family="Times,serif" font-size="24.00" fill="#000000">l&#39;existence explique</text>
<text text-anchor="middle" x="1147.965" y="-250.1283" font-family="Times,serif" font-size="24.00" fill="#000000">l&#39;existence du monde</text>
</g>
<!-- o11&#45;&gt;p11 -->
<g id="edge2" class="edge">
<title>o11&#45;&gt;p11</title>
<path fill="none" stroke="#cd0000" stroke-width=".8" d="M477.7409,-300.5283C647.7349,-300.5283 882.9204,-300.5283 1024.7413,-300.5283"/>
<polygon fill="#cd0000" stroke="#cd0000" stroke-width=".8" points="477.6959,-297.7284 469.6958,-300.5283 477.6958,-303.3284 477.6959,-297.7284"/>
<text text-anchor="middle" x="747.1234" y="-307.7283" font-family="Times,serif" font-size="14.00" fill="#8b0000"> Mais …</text>
</g>
<!-- p5 -->
<g id="node8" class="node">
<title>p5</title>
<path fill="#ffffff" stroke="#000000" d="M1173.0077,-1243.4285C1173.0077,-1243.4285 810.9223,-1243.4285 810.9223,-1243.4285 804.9223,-1243.4285 798.9223,-1237.4285 798.9223,-1231.4285 798.9223,-1231.4285 798.9223,-1126.0282 798.9223,-1126.0282 798.9223,-1120.0282 804.9223,-1114.0282 810.9223,-1114.0282 810.9223,-1114.0282 1173.0077,-1114.0282 1173.0077,-1114.0282 1179.0077,-1114.0282 1185.0077,-1120.0282 1185.0077,-1126.0282 1185.0077,-1126.0282 1185.0077,-1231.4285 1185.0077,-1231.4285 1185.0077,-1237.4285 1179.0077,-1243.4285 1173.0077,-1243.4285"/>
<text text-anchor="middle" x="991.965" y="-1214.7283" font-family="Times,serif" font-size="24.00" fill="#000000">(5) Si l&#39;existence de X est contingente,</text>
<text text-anchor="middle" x="991.965" y="-1185.9283" font-family="Times,serif" font-size="24.00" fill="#000000">il doit y avoir une explication</text>
<text text-anchor="middle" x="991.965" y="-1157.1283" font-family="Times,serif" font-size="24.00" fill="#000000">du fait que X existe alors que</text>
<text text-anchor="middle" x="991.965" y="-1128.3283" font-family="Times,serif" font-size="24.00" fill="#000000">X aurait pu ne pas exister</text>
</g>
<!-- p4&#45;&gt;p5 -->
<!-- p12 -->
<g id="node14" class="node">
<title>p12</title>
<path fill="#ffffff" stroke="#000000" d="M1480.8626,-336.1295C1480.8626,-336.1295 1319.0674,-336.1295 1319.0674,-336.1295 1313.0674,-336.1295 1307.0674,-330.1295 1307.0674,-324.1295 1307.0674,-324.1295 1307.0674,-276.9272 1307.0674,-276.9272 1307.0674,-270.9272 1313.0674,-264.9272 1319.0674,-264.9272 1319.0674,-264.9272 1480.8626,-264.9272 1480.8626,-264.9272 1486.8626,-264.9272 1492.8626,-270.9272 1492.8626,-276.9272 1492.8626,-276.9272 1492.8626,-324.1295 1492.8626,-324.1295 1492.8626,-330.1295 1486.8626,-336.1295 1480.8626,-336.1295"/>
<text text-anchor="middle" x="1399.965" y="-307.7283" font-family="Times,serif" font-size="24.00" fill="#000000">(12) Cette réalité,</text>
<text text-anchor="middle" x="1399.965" y="-278.9283" font-family="Times,serif" font-size="24.00" fill="#000000">c&#39;est Dieu</text>
</g>
<!-- p11&#45;&gt;p12 -->
<!-- p1 -->
<g id="node5" class="node">
<title>p1</title>
<path fill="#ffffff" stroke="#000000" d="M798.0831,-1549.1295C798.0831,-1549.1295 677.8469,-1549.1295 677.8469,-1549.1295 671.8469,-1549.1295 665.8469,-1543.1295 665.8469,-1537.1295 665.8469,-1537.1295 665.8469,-1489.9272 665.8469,-1489.9272 665.8469,-1483.9272 671.8469,-1477.9272 677.8469,-1477.9272 677.8469,-1477.9272 798.0831,-1477.9272 798.0831,-1477.9272 804.0831,-1477.9272 810.0831,-1483.9272 810.0831,-1489.9272 810.0831,-1489.9272 810.0831,-1537.1295 810.0831,-1537.1295 810.0831,-1543.1295 804.0831,-1549.1295 798.0831,-1549.1295"/>
<text text-anchor="middle" x="737.965" y="-1520.7283" font-family="Times,serif" font-size="24.00" fill="#000000">(1) Le monde</text>
<text text-anchor="middle" x="737.965" y="-1491.9283" font-family="Times,serif" font-size="24.00" fill="#000000">existe</text>
</g>
<!-- p2 -->
<g id="node6" class="node">
<title>p2</title>
<path fill="#ffffff" stroke="#000000" d="M1068.7187,-1549.1295C1068.7187,-1549.1295 857.2113,-1549.1295 857.2113,-1549.1295 851.2113,-1549.1295 845.2113,-1543.1295 845.2113,-1537.1295 845.2113,-1537.1295 845.2113,-1489.9272 845.2113,-1489.9272 845.2113,-1483.9272 851.2113,-1477.9272 857.2113,-1477.9272 857.2113,-1477.9272 1068.7187,-1477.9272 1068.7187,-1477.9272 1074.7187,-1477.9272 1080.7187,-1483.9272 1080.7187,-1489.9272 1080.7187,-1489.9272 1080.7187,-1537.1295 1080.7187,-1537.1295 1080.7187,-1543.1295 1074.7187,-1549.1295 1068.7187,-1549.1295"/>
<text text-anchor="middle" x="962.965" y="-1520.7283" font-family="Times,serif" font-size="24.00" fill="#000000">(2) Le monde aurait pu</text>
<text text-anchor="middle" x="962.965" y="-1491.9283" font-family="Times,serif" font-size="24.00" fill="#000000">ne pas exister</text>
</g>
<!-- p1&#45;&gt;p2 -->
<!-- p2&#45;&gt;p4 -->
<g id="edge5" class="edge">
<title>p2:s&#45;&gt;p4:n</title>
<path fill="none" stroke="#000000" d="M959.6265,-1448.3326C928.7656,-1323.7856 694.1083,-1381.6541 683.3472,-1239.1161"/>
<polygon fill="#000000" stroke="#000000" points="686.8304,-1238.5929 682.965,-1228.7283 679.8351,-1238.8503 686.8304,-1238.5929"/>
<text text-anchor="middle" x="754.0302" y="-1354.9571" font-family="Times,serif" font-size="15.00" fill="#666666">Par conséquent … </text>
</g>
<!-- p3 -->
<g id="node7" class="node">
<title>p3</title>
<path fill="#ffffff" stroke="#000000" d="M1424.0173,-1563.9291C1424.0173,-1563.9291 1127.9127,-1563.9291 1127.9127,-1563.9291 1121.9127,-1563.9291 1115.9127,-1557.9291 1115.9127,-1551.9291 1115.9127,-1551.9291 1115.9127,-1475.1275 1115.9127,-1475.1275 1115.9127,-1469.1275 1121.9127,-1463.1275 1127.9127,-1463.1275 1127.9127,-1463.1275 1424.0173,-1463.1275 1424.0173,-1463.1275 1430.0173,-1463.1275 1436.0173,-1469.1275 1436.0173,-1475.1275 1436.0173,-1475.1275 1436.0173,-1551.9291 1436.0173,-1551.9291 1436.0173,-1557.9291 1430.0173,-1563.9291 1424.0173,-1563.9291"/>
<text text-anchor="middle" x="1275.965" y="-1535.1283" font-family="Times,serif" font-size="24.00" fill="#000000">(3) Si X existe, et si X aurait pu</text>
<text text-anchor="middle" x="1275.965" y="-1506.3283" font-family="Times,serif" font-size="24.00" fill="#000000">ne pas exister, cela signifie que</text>
<text text-anchor="middle" x="1275.965" y="-1477.5283" font-family="Times,serif" font-size="24.00" fill="#000000">l&#39;existence de X est contingente</text>
</g>
<!-- p2&#45;&gt;p3 -->
<!-- o5 -->
<g id="node16" class="node">
<title>o5</title>
<path fill="#ffffff" stroke="#cd0000" d="M2023.8132,-1604.5283C2023.8132,-1604.5283 1644.1168,-1604.5283 1644.1168,-1604.5283 1638.1168,-1604.5283 1632.1168,-1598.5283 1632.1168,-1592.5283 1632.1168,-1592.5283 1632.1168,-1434.5283 1632.1168,-1434.5283 1632.1168,-1428.5283 1638.1168,-1422.5283 1644.1168,-1422.5283 1644.1168,-1422.5283 2023.8132,-1422.5283 2023.8132,-1422.5283 2029.8132,-1422.5283 2035.8132,-1428.5283 2035.8132,-1434.5283 2035.8132,-1434.5283 2035.8132,-1592.5283 2035.8132,-1592.5283 2035.8132,-1598.5283 2029.8132,-1604.5283 2023.8132,-1604.5283"/>
<text text-anchor="middle" x="1833.965" y="-1579.5283" font-family="Times,serif" font-size="20.00" fill="#000000">Ce principe correspond à ce qu&#39;on appelle</text>
<text text-anchor="middle" x="1833.965" y="-1555.5283" font-family="Times,serif" font-size="20.00" fill="#000000">le principe de raison suffisante (PRS), or le</text>
<text text-anchor="middle" x="1833.965" y="-1531.5283" font-family="Times,serif" font-size="20.00" fill="#000000">PRS se heurte à deux objections majeures : </text>
<text text-anchor="middle" x="1833.965" y="-1507.5283" font-family="Times,serif" font-size="20.00" fill="#000000">1/ On ne peut pas prouver le PRS ;</text>
<text text-anchor="middle" x="1833.965" y="-1483.5283" font-family="Times,serif" font-size="20.00" fill="#000000">2/ Le PRS a pour domaine premier d&#39;application</text>
<text text-anchor="middle" x="1833.965" y="-1459.5283" font-family="Times,serif" font-size="20.00" fill="#000000">les phénomènes empiriques : peut&#45;on appliquer</text>
<text text-anchor="middle" x="1833.965" y="-1435.5283" font-family="Times,serif" font-size="20.00" fill="#000000">ce principe hors de ce domaine ?</text>
</g>
<!-- p3&#45;&gt;o5 -->
<!-- p6 -->
<g id="node9" class="node">
<title>p6</title>
<path fill="#ffffff" stroke="#000000" d="M1525.0357,-1243.4285C1525.0357,-1243.4285 1232.8943,-1243.4285 1232.8943,-1243.4285 1226.8943,-1243.4285 1220.8943,-1237.4285 1220.8943,-1231.4285 1220.8943,-1231.4285 1220.8943,-1126.0282 1220.8943,-1126.0282 1220.8943,-1120.0282 1226.8943,-1114.0282 1232.8943,-1114.0282 1232.8943,-1114.0282 1525.0357,-1114.0282 1525.0357,-1114.0282 1531.0357,-1114.0282 1537.0357,-1120.0282 1537.0357,-1126.0282 1537.0357,-1126.0282 1537.0357,-1231.4285 1537.0357,-1231.4285 1537.0357,-1237.4285 1531.0357,-1243.4285 1525.0357,-1243.4285"/>
<text text-anchor="middle" x="1378.965" y="-1214.7283" font-family="Times,serif" font-size="24.00" fill="#000000">(6) Si l&#39;existence de X est</text>
<text text-anchor="middle" x="1378.965" y="-1185.9283" font-family="Times,serif" font-size="24.00" fill="#000000">contingente, alors on ne peut</text>
<text text-anchor="middle" x="1378.965" y="-1157.1283" font-family="Times,serif" font-size="24.00" fill="#000000">pas trouver l&#39;explication du fait</text>
<text text-anchor="middle" x="1378.965" y="-1128.3283" font-family="Times,serif" font-size="24.00" fill="#000000">que X existe dans X lui&#45;même</text>
</g>
<!-- p5&#45;&gt;p6 -->
<!-- p7 -->
<g id="node10" class="node">
<title>p7</title>
<path fill="#ffffff" stroke="#000000" d="M886.8658,-945.8285C886.8658,-945.8285 577.0642,-945.8285 577.0642,-945.8285 571.0642,-945.8285 565.0642,-939.8285 565.0642,-933.8285 565.0642,-933.8285 565.0642,-828.4282 565.0642,-828.4282 565.0642,-822.4282 571.0642,-816.4282 577.0642,-816.4282 577.0642,-816.4282 886.8658,-816.4282 886.8658,-816.4282 892.8658,-816.4282 898.8658,-822.4282 898.8658,-828.4282 898.8658,-828.4282 898.8658,-933.8285 898.8658,-933.8285 898.8658,-939.8285 892.8658,-945.8285 886.8658,-945.8285"/>
<text text-anchor="middle" x="731.965" y="-917.1283" font-family="Times,serif" font-size="24.00" fill="#000000">(7) Il doit y avoir une explication</text>
<text text-anchor="middle" x="731.965" y="-888.3283" font-family="Times,serif" font-size="24.00" fill="#000000">du fait que le monde existe, et</text>
<text text-anchor="middle" x="731.965" y="-859.5283" font-family="Times,serif" font-size="24.00" fill="#000000">cette explication ne peut pas se</text>
<text text-anchor="middle" x="731.965" y="-830.7283" font-family="Times,serif" font-size="24.00" fill="#000000">trouver dans le monde lui&#45;même</text>
</g>
<!-- p5&#45;&gt;p7 -->
<g id="edge8" class="edge">
<title>p5:s&#45;&gt;p7:n</title>
<path fill="none" stroke="#000000" d="M990.8742,-1099.1331C973.123,-987.0649 744.5131,-1073.5689 732.4593,-956.1352"/>
<polygon fill="#000000" stroke="#000000" points="735.9542,-955.9434 731.965,-946.1283 728.9628,-956.2889 735.9542,-955.9434"/>
<text text-anchor="middle" x="799.4794" y="-1034.1255" font-family="Times,serif" font-size="15.00" fill="#666666">Par conséquent … </text>
</g>
<!-- o6 -->
<g id="node17" class="node">
<title>o6</title>
<path fill="#ffffff" stroke="#cd0000" d="M2078.2371,-1257.7283C2078.2371,-1257.7283 1643.6929,-1257.7283 1643.6929,-1257.7283 1637.6929,-1257.7283 1631.6929,-1251.7283 1631.6929,-1245.7283 1631.6929,-1245.7283 1631.6929,-1111.7283 1631.6929,-1111.7283 1631.6929,-1105.7283 1637.6929,-1099.7283 1643.6929,-1099.7283 1643.6929,-1099.7283 2078.2371,-1099.7283 2078.2371,-1099.7283 2084.2371,-1099.7283 2090.2371,-1105.7283 2090.2371,-1111.7283 2090.2371,-1111.7283 2090.2371,-1245.7283 2090.2371,-1245.7283 2090.2371,-1251.7283 2084.2371,-1257.7283 2078.2371,-1257.7283"/>
<text text-anchor="middle" x="1860.965" y="-1232.7283" font-family="Times,serif" font-size="20.00" fill="#000000">Quand on cherche à expliquer l&#39;existence d&#39;un tout,</text>
<text text-anchor="middle" x="1860.965" y="-1208.7283" font-family="Times,serif" font-size="20.00" fill="#000000">on peut l&#39;expliquer par l&#39;existence de ses éléments</text>
<text text-anchor="middle" x="1860.965" y="-1184.7283" font-family="Times,serif" font-size="20.00" fill="#000000">constitutifs, or le monde est justement un tout, dont</text>
<text text-anchor="middle" x="1860.965" y="-1160.7283" font-family="Times,serif" font-size="20.00" fill="#000000">on peut expliquer l&#39;existence en expliquant l&#39;existence</text>
<text text-anchor="middle" x="1860.965" y="-1136.7283" font-family="Times,serif" font-size="20.00" fill="#000000">de chaque réalité qui fait partie du monde : il n&#39;y aurait</text>
<text text-anchor="middle" x="1860.965" y="-1112.7283" font-family="Times,serif" font-size="20.00" fill="#000000">pas besoin de chercher une explication supplémentaire</text>
</g>
<!-- p6&#45;&gt;o6 -->
<g id="edge17" class="edge">
<title>p6&#45;&gt;o6</title>
<path fill="none" stroke="#cd0000" stroke-width=".8" d="M1537.1235,-1178.7283C1564.846,-1178.7283 1594.2335,-1178.7283 1623.5503,-1178.7283"/>
<polygon fill="#cd0000" stroke="#cd0000" stroke-width=".8" points="1623.8158,-1181.5284 1631.8158,-1178.7283 1623.8157,-1175.9284 1623.8158,-1181.5284"/>
<text text-anchor="middle" x="1584.5396" y="-1185.9283" font-family="Times,serif" font-size="14.00" fill="#8b0000"> Mais …</text>
</g>
<!-- p8 -->
<g id="node11" class="node">
<title>p8</title>
<path fill="#ffffff" stroke="#000000" d="M1525.4308,-945.8285C1525.4308,-945.8285 946.4992,-945.8285 946.4992,-945.8285 940.4992,-945.8285 934.4992,-939.8285 934.4992,-933.8285 934.4992,-933.8285 934.4992,-828.4282 934.4992,-828.4282 934.4992,-822.4282 940.4992,-816.4282 946.4992,-816.4282 946.4992,-816.4282 1525.4308,-816.4282 1525.4308,-816.4282 1531.4308,-816.4282 1537.4308,-822.4282 1537.4308,-828.4282 1537.4308,-828.4282 1537.4308,-933.8285 1537.4308,-933.8285 1537.4308,-939.8285 1531.4308,-945.8285 1525.4308,-945.8285"/>
<text text-anchor="middle" x="1235.965" y="-917.1283" font-family="Times,serif" font-size="24.00" fill="#000000">(8) S&#39;il doit y avoir une explication du fait que X existe, et</text>
<text text-anchor="middle" x="1235.965" y="-888.3283" font-family="Times,serif" font-size="24.00" fill="#000000">si cette explication ne peut pas se trouver dans X lui&#45;même,</text>
<text text-anchor="middle" x="1235.965" y="-859.5283" font-family="Times,serif" font-size="24.00" fill="#000000">alors il existe une réalité différente de X, et qui n&#39;est pas</text>
<text text-anchor="middle" x="1235.965" y="-830.7283" font-family="Times,serif" font-size="24.00" fill="#000000">dans X lui&#45;même, dont l&#39;existence explique l&#39;existence de X</text>
</g>
<!-- p7&#45;&gt;p8 -->
<!-- p9 -->
<g id="node12" class="node">
<title>p9</title>
<path fill="#ffffff" stroke="#000000" d="M1099.869,-660.2285C1099.869,-660.2285 774.061,-660.2285 774.061,-660.2285 768.061,-660.2285 762.061,-654.2285 762.061,-648.2285 762.061,-648.2285 762.061,-542.8282 762.061,-542.8282 762.061,-536.8282 768.061,-530.8282 774.061,-530.8282 774.061,-530.8282 1099.869,-530.8282 1099.869,-530.8282 1105.869,-530.8282 1111.869,-536.8282 1111.869,-542.8282 1111.869,-542.8282 1111.869,-648.2285 1111.869,-648.2285 1111.869,-654.2285 1105.869,-660.2285 1099.869,-660.2285"/>
<text text-anchor="middle" x="936.965" y="-631.5283" font-family="Times,serif" font-size="24.00" fill="#000000">(9) Il existe une réalité différente</text>
<text text-anchor="middle" x="936.965" y="-602.7283" font-family="Times,serif" font-size="24.00" fill="#000000">du monde, et qui n&#39;est pas dans le</text>
<text text-anchor="middle" x="936.965" y="-573.9283" font-family="Times,serif" font-size="24.00" fill="#000000">monde lui&#45;même, dont l&#39;existence</text>
<text text-anchor="middle" x="936.965" y="-545.1283" font-family="Times,serif" font-size="24.00" fill="#000000">explique l&#39;existence du monde</text>
</g>
<!-- p8&#45;&gt;p9 -->
<g id="edge10" class="edge">
<title>p8:w&#45;&gt;p9:n</title>
<path fill="none" stroke="#000000" d="M935.0849,-801.5297C935.6072,-747.3958 936.8214,-726.8566 936.9533,-670.7029"/>
<polygon fill="#000000" stroke="#000000" points="940.4534,-670.5324 936.965,-660.5283 933.4534,-670.5243 940.4534,-670.5324"/>
<text text-anchor="middle" x="876.4087" y="-735.5919" font-family="Times,serif" font-size="15.00" fill="#666666">Par conséquent … </text>
</g>
<!-- p10 -->
<g id="node13" class="node">
<title>p10</title>
<path fill="#ffffff" stroke="#000000" d="M1523.9733,-674.5283C1523.9733,-674.5283 1159.9567,-674.5283 1159.9567,-674.5283 1153.9567,-674.5283 1147.9567,-668.5283 1147.9567,-662.5283 1147.9567,-662.5283 1147.9567,-528.5283 1147.9567,-528.5283 1147.9567,-522.5283 1153.9567,-516.5283 1159.9567,-516.5283 1159.9567,-516.5283 1523.9733,-516.5283 1523.9733,-516.5283 1529.9733,-516.5283 1535.9733,-522.5283 1535.9733,-528.5283 1535.9733,-528.5283 1535.9733,-662.5283 1535.9733,-662.5283 1535.9733,-668.5283 1529.9733,-674.5283 1523.9733,-674.5283"/>
<text text-anchor="middle" x="1341.965" y="-645.9283" font-family="Times,serif" font-size="24.00" fill="#000000">(10) Le monde est la totalité</text>
<text text-anchor="middle" x="1341.965" y="-617.1283" font-family="Times,serif" font-size="24.00" fill="#000000">des réalités contingentes : si X est</text>
<text text-anchor="middle" x="1341.965" y="-588.3283" font-family="Times,serif" font-size="24.00" fill="#000000">une réalité différente du monde et</text>
<text text-anchor="middle" x="1341.965" y="-559.5283" font-family="Times,serif" font-size="24.00" fill="#000000">n&#39;est pas dans le monde lui&#45;même,</text>
<text text-anchor="middle" x="1341.965" y="-530.7283" font-family="Times,serif" font-size="24.00" fill="#000000">alors X est une réalité non&#45;contingente</text>
</g>
<!-- p9&#45;&gt;p10 -->
<!-- p10&#45;&gt;p11 -->
<g id="edge12" class="edge">
<title>p10:w&#45;&gt;p11:n</title>
<path fill="none" stroke="#000000" d="M1128.5712,-501.5314C1134.1484,-455.9388 1145.0252,-404.8627 1147.4694,-375.7671"/>
<polygon fill="#000000" stroke="#000000" points="1150.9774,-375.6859 1147.965,-365.5283 1143.9855,-375.3474 1150.9774,-375.6859"/>
<text text-anchor="middle" x="1079.3445" y="-436.8334" font-family="Times,serif" font-size="15.00" fill="#666666">Par conséquent … </text>
</g>
<!-- o10 -->
<g id="node18" class="node">
<title>o10</title>
<path fill="#ffffff" stroke="#cd0000" d="M2071.879,-698.5283C2071.879,-698.5283 1644.051,-698.5283 1644.051,-698.5283 1638.051,-698.5283 1632.051,-692.5283 1632.051,-686.5283 1632.051,-686.5283 1632.051,-504.5283 1632.051,-504.5283 1632.051,-498.5283 1638.051,-492.5283 1644.051,-492.5283 1644.051,-492.5283 2071.879,-492.5283 2071.879,-492.5283 2077.879,-492.5283 2083.879,-498.5283 2083.879,-504.5283 2083.879,-504.5283 2083.879,-686.5283 2083.879,-686.5283 2083.879,-692.5283 2077.879,-698.5283 2071.879,-698.5283"/>
<text text-anchor="middle" x="1857.965" y="-673.5283" font-family="Times,serif" font-size="20.00" fill="#000000">On pourrait s&#39;interroger sur la possibilité même</text>
<text text-anchor="middle" x="1857.965" y="-649.5283" font-family="Times,serif" font-size="20.00" fill="#000000">de définir le monde comme totalité, et il y a une</text>
<text text-anchor="middle" x="1857.965" y="-625.5283" font-family="Times,serif" font-size="20.00" fill="#000000">ambiguïté : si on entend par “réalités contingentes”</text>
<text text-anchor="middle" x="1857.965" y="-601.5283" font-family="Times,serif" font-size="20.00" fill="#000000">seulement celles qui existent maintenant, alors il</text>
<text text-anchor="middle" x="1857.965" y="-577.5283" font-family="Times,serif" font-size="20.00" fill="#000000">est possible de trouver dans un état antérieur du</text>
<text text-anchor="middle" x="1857.965" y="-553.5283" font-family="Times,serif" font-size="20.00" fill="#000000">monde actuel, une réalité différente du monde actuel</text>
<text text-anchor="middle" x="1857.965" y="-529.5283" font-family="Times,serif" font-size="20.00" fill="#000000">et qui en explique l&#39;existence, tout en étant</text>
<text text-anchor="middle" x="1857.965" y="-505.5283" font-family="Times,serif" font-size="20.00" fill="#000000">elle&#45;même une réalité contingente</text>
</g>
<!-- p10&#45;&gt;o10 -->
<g id="edge18" class="edge">
<title>p10&#45;&gt;o10</title>
<path fill="none" stroke="#cd0000" stroke-width=".8" d="M1536.3072,-595.5283C1564.7707,-595.5283 1594.3369,-595.5283 1623.4986,-595.5283"/>
<polygon fill="#cd0000" stroke="#cd0000" stroke-width=".8" points="1623.7118,-598.3284 1631.7117,-595.5283 1623.7117,-592.7284 1623.7118,-598.3284"/>
<text text-anchor="middle" x="1584.1135" y="-602.7283" font-family="Times,serif" font-size="14.00" fill="#8b0000"> Mais …</text>
</g>
<!-- C -->
<g id="node15" class="node">
<title>C</title>
<ellipse fill="#000000" stroke="#000000" cx="1306.965" cy="-78.2642" rx="86.9238" ry="30.0302"/>
<text text-anchor="middle" x="1306.965" y="-71.0642" font-family="Times,serif" font-size="24.00" fill="#ffffff">Dieu existe</text>
</g>
<!-- p12&#45;&gt;C -->
<g id="edge14" class="edge">
<title>p12:w&#45;&gt;C:n</title>
<path fill="none" stroke="#000000" d="M1290.8793,-220.9295C1295.4739,-183.9124 1304.1337,-142.7821 1306.407,-118.4417"/>
<polygon fill="#000000" stroke="#000000" points="1309.9122,-118.4408 1306.965,-108.2642 1302.9227,-118.0575 1309.9122,-118.4408"/>
<text text-anchor="middle" x="1239.7119" y="-169.0114" font-family="Times,serif" font-size="15.00" fill="#666666">Par conséquent … </text>
</g>
<!-- o12 -->
<g id="node19" class="node">
<title>o12</title>
<path fill="#ffffff" stroke="#cd0000" d="M2035.639,-367.5283C2035.639,-367.5283 1644.291,-367.5283 1644.291,-367.5283 1638.291,-367.5283 1632.291,-361.5283 1632.291,-355.5283 1632.291,-355.5283 1632.291,-245.5283 1632.291,-245.5283 1632.291,-239.5283 1638.291,-233.5283 1644.291,-233.5283 1644.291,-233.5283 2035.639,-233.5283 2035.639,-233.5283 2041.639,-233.5283 2047.639,-239.5283 2047.639,-245.5283 2047.639,-245.5283 2047.639,-355.5283 2047.639,-355.5283 2047.639,-361.5283 2041.639,-367.5283 2035.639,-367.5283"/>
<text text-anchor="middle" x="1839.965" y="-342.5283" font-family="Times,serif" font-size="20.00" fill="#000000">Cette identification est&#45;elle légitime ?</text>
<text text-anchor="middle" x="1839.965" y="-318.5283" font-family="Times,serif" font-size="20.00" fill="#000000">L&#39;argument ne prouve au mieux que l&#39;existence</text>
<text text-anchor="middle" x="1839.965" y="-294.5283" font-family="Times,serif" font-size="20.00" fill="#000000">d&#39;un être nécessaire, et non l&#39;existence d&#39;un être</text>
<text text-anchor="middle" x="1839.965" y="-270.5283" font-family="Times,serif" font-size="20.00" fill="#000000">personnel, parfait, tout&#45;puissant, omniscient, </text>
<text text-anchor="middle" x="1839.965" y="-246.5283" font-family="Times,serif" font-size="20.00" fill="#000000">bienveillant, et libre créateur du monde</text>
</g>
<!-- p12&#45;&gt;o12 -->
<g id="edge19" class="edge">
<title>p12&#45;&gt;o12</title>
<path fill="none" stroke="#cd0000" stroke-width=".8" d="M1493.0087,-300.5283C1531.5111,-300.5283 1577.9005,-300.5283 1624.0501,-300.5283"/>
<polygon fill="#cd0000" stroke="#cd0000" stroke-width=".8" points="1624.0556,-303.3284 1632.0556,-300.5283 1624.0555,-297.7284 1624.0556,-303.3284"/>
<text text-anchor="middle" x="1562.6459" y="-307.7283" font-family="Times,serif" font-size="14.00" fill="#8b0000"> Mais …</text>
</g>
<!-- o5&#45;&gt;p5 -->
<g id="edge15" class="edge">
<title>o5&#45;&gt;p5</title>
<path fill="none" stroke="#cd0000" stroke-width=".8" d="M1624.667,-1447.8187C1502.6362,-1407.4733 1346.7036,-1352.3975 1211.965,-1293.7283 1177.5875,-1278.7593 1141.1673,-1260.6828 1108.0632,-1243.3397"/>
<polygon fill="#cd0000" stroke="#cd0000" stroke-width=".8" points="1623.8124,-1450.4851 1632.2869,-1450.3334 1625.5674,-1445.1672 1623.8124,-1450.4851"/>
<text text-anchor="middle" x="1417.4622" y="-1353.9283" font-family="Times,serif" font-size="14.00" fill="#8b0000"> Mais …</text>
</g>
</g>
</svg>
