<?xml version="1.0" encoding="UTF-8" standalone="no"?>
<!DOCTYPE svg PUBLIC "-//W3C//DTD SVG 1.1//EN"
 "http://www.w3.org/Graphics/SVG/1.1/DTD/svg11.dtd">
<!-- Generated by graphviz version 2.40.1 (20161225.0304)
 -->
<!-- Title: G Pages: 1 -->
<svg width="1684pt" height="1188pt"
 viewBox="0.00 0.00 1684.10 1187.73" xmlns="http://www.w3.org/2000/svg" xmlns:xlink="http://www.w3.org/1999/xlink">
<g id="graph0" class="graph" transform="scale(1 1) rotate(0) translate(4 1183.7283)">
<title>G</title>
<polygon fill="#ffffff" stroke="transparent" points="-4,4 -4,-1183.7283 1680.0985,-1183.7283 1680.0985,4 -4,4"/>
<g id="clust2" class="cluster">
<title>cluster_0</title>
<path fill="#e5e5e5" stroke="#7f7f7f" d="M522.033,-8C522.033,-8 1120.033,-8 1120.033,-8 1126.033,-8 1132.033,-14 1132.033,-20 1132.033,-20 1132.033,-1124.9283 1132.033,-1124.9283 1132.033,-1130.9283 1126.033,-1136.9283 1120.033,-1136.9283 1120.033,-1136.9283 522.033,-1136.9283 522.033,-1136.9283 516.033,-1136.9283 510.033,-1130.9283 510.033,-1124.9283 510.033,-1124.9283 510.033,-20 510.033,-20 510.033,-14 516.033,-8 522.033,-8"/>
</g>
<g id="clust4" class="cluster">
<title>cluster_1</title>
<polygon fill="#bababa" stroke="#bababa" points="550.033,-743.3283 550.033,-873.7283 1015.033,-873.7283 1015.033,-743.3283 550.033,-743.3283"/>
</g>
<g id="clust6" class="cluster">
<title>cluster_2</title>
<polygon fill="#bababa" stroke="#bababa" points="573.033,-463.7283 573.033,-622.9283 1068.033,-622.9283 1068.033,-463.7283 573.033,-463.7283"/>
</g>
<g id="clust8" class="cluster">
<title>cluster_3</title>
<polygon fill="#bababa" stroke="#bababa" points="580.033,-211.5283 580.033,-370.7283 1092.033,-370.7283 1092.033,-211.5283 580.033,-211.5283"/>
</g>
<!-- o2a -->
<g id="node1" class="node">
<title>o2a</title>
<path fill="#ffffff" stroke="#cd0000" d="M458.033,-1071.9283C458.033,-1071.9283 428.033,-1071.9283 428.033,-1071.9283 422.033,-1071.9283 416.033,-1065.9283 416.033,-1059.9283 416.033,-1059.9283 416.033,-1047.9283 416.033,-1047.9283 416.033,-1041.9283 422.033,-1035.9283 428.033,-1035.9283 428.033,-1035.9283 458.033,-1035.9283 458.033,-1035.9283 464.033,-1035.9283 470.033,-1041.9283 470.033,-1047.9283 470.033,-1047.9283 470.033,-1059.9283 470.033,-1059.9283 470.033,-1065.9283 464.033,-1071.9283 458.033,-1071.9283"/>
</g>
<!-- p2a -->
<g id="node5" class="node">
<title>p2a</title>
<path fill="#ffffff" stroke="#000000" d="M738.1334,-1096.9283C738.1334,-1096.9283 561.9326,-1096.9283 561.9326,-1096.9283 555.9326,-1096.9283 549.9326,-1090.9283 549.9326,-1084.9283 549.9326,-1084.9283 549.9326,-1022.9283 549.9326,-1022.9283 549.9326,-1016.9283 555.9326,-1010.9283 561.9326,-1010.9283 561.9326,-1010.9283 738.1334,-1010.9283 738.1334,-1010.9283 744.1334,-1010.9283 750.1334,-1016.9283 750.1334,-1022.9283 750.1334,-1022.9283 750.1334,-1084.9283 750.1334,-1084.9283 750.1334,-1090.9283 744.1334,-1096.9283 738.1334,-1096.9283"/>
<text text-anchor="middle" x="650.033" y="-1071.9283" font-family="Times,serif" font-size="20.00" fill="#000000">(2a) L&#39;hypothèse d&#39;un</text>
<text text-anchor="middle" x="650.033" y="-1047.9283" font-family="Times,serif" font-size="20.00" fill="#000000">passé infini conduit </text>
<text text-anchor="middle" x="650.033" y="-1023.9283" font-family="Times,serif" font-size="20.00" fill="#000000">à des contradictions</text>
</g>
<!-- o2a&#45;&gt;p2a -->
<g id="edge12" class="edge">
<title>o2a&#45;&gt;p2a</title>
<path fill="none" stroke="#cd0000" stroke-width=".8" d="M478.2302,-1053.9283C498.1252,-1053.9283 524.1031,-1053.9283 549.8111,-1053.9283"/>
<polygon fill="#cd0000" stroke="#cd0000" stroke-width=".8" points="478.0947,-1051.1284 470.0946,-1053.9283 478.0946,-1056.7284 478.0947,-1051.1284"/>
<text text-anchor="middle" x="509.883" y="-1060.5283" font-family="Times,serif" font-size="12.00" fill="#8b0000"> Mais …</text>
</g>
<!-- o1 -->
<g id="node2" class="node">
<title>o1</title>
<path fill="#ffffff" stroke="#cd0000" d="M458.099,-891.2285C458.099,-891.2285 11.967,-891.2285 11.967,-891.2285 5.967,-891.2285 -.033,-885.2285 -.033,-879.2285 -.033,-879.2285 -.033,-737.8282 -.033,-737.8282 -.033,-731.8282 5.967,-725.8282 11.967,-725.8282 11.967,-725.8282 458.099,-725.8282 458.099,-725.8282 464.099,-725.8282 470.099,-731.8282 470.099,-737.8282 470.099,-737.8282 470.099,-879.2285 470.099,-879.2285 470.099,-885.2285 464.099,-891.2285 458.099,-891.2285"/>
<text text-anchor="middle" x="235.033" y="-867.9283" font-family="Times,serif" font-size="18.00" fill="#000000">1/ Le simple refus d&#39;accepter l&#39;apparition magique d&#39;une entité</text>
<text text-anchor="middle" x="235.033" y="-846.3283" font-family="Times,serif" font-size="18.00" fill="#000000">sans cause explicative peut&#45;il vraiment justifier ce principe ?</text>
<text text-anchor="middle" x="235.033" y="-824.7283" font-family="Times,serif" font-size="18.00" fill="#000000">L&#39;idée d&#39;un événement sans cause ne semble pas impossible.</text>
<text text-anchor="middle" x="235.033" y="-803.1283" font-family="Times,serif" font-size="18.00" fill="#000000">2/ Si ce principe s&#39;applique aux événements dans le monde,</text>
<text text-anchor="middle" x="235.033" y="-781.5283" font-family="Times,serif" font-size="18.00" fill="#000000">peut&#45;on appliquer ce principe au monde lui&#45;même ?</text>
<text text-anchor="middle" x="235.033" y="-759.9283" font-family="Times,serif" font-size="18.00" fill="#000000">3/ Il y a des phénomènes qui semblent être sans causes,</text>
<text text-anchor="middle" x="235.033" y="-738.3283" font-family="Times,serif" font-size="18.00" fill="#000000">notamment dans le domaine de la physique quantique</text>
</g>
<!-- p1 -->
<g id="node3" class="node">
<title>p1</title>
<path fill="#ffffff" stroke="#000000" d="M756.9738,-858.9291C756.9738,-858.9291 577.0922,-858.9291 577.0922,-858.9291 571.0922,-858.9291 565.0922,-852.9291 565.0922,-846.9291 565.0922,-846.9291 565.0922,-770.1275 565.0922,-770.1275 565.0922,-764.1275 571.0922,-758.1275 577.0922,-758.1275 577.0922,-758.1275 756.9738,-758.1275 756.9738,-758.1275 762.9738,-758.1275 768.9738,-764.1275 768.9738,-770.1275 768.9738,-770.1275 768.9738,-846.9291 768.9738,-846.9291 768.9738,-852.9291 762.9738,-858.9291 756.9738,-858.9291"/>
<text text-anchor="middle" x="667.033" y="-830.1283" font-family="Times,serif" font-size="24.00" fill="#000000">(1) Tout ce qui a un</text>
<text text-anchor="middle" x="667.033" y="-801.3283" font-family="Times,serif" font-size="24.00" fill="#000000">commencement</text>
<text text-anchor="middle" x="667.033" y="-772.5283" font-family="Times,serif" font-size="24.00" fill="#000000">a une cause</text>
</g>
<!-- o1&#45;&gt;p1 -->
<g id="edge1" class="edge">
<title>o1&#45;&gt;p1</title>
<path fill="none" stroke="#cd0000" stroke-width=".8" d="M478.4692,-808.5283C508.8414,-808.5283 538.4781,-808.5283 564.9244,-808.5283"/>
<polygon fill="#cd0000" stroke="#cd0000" stroke-width=".8" points="478.311,-805.7284 470.311,-808.5283 478.3109,-811.3284 478.311,-805.7284"/>
<text text-anchor="middle" x="517.5643" y="-815.1283" font-family="Times,serif" font-size="12.00" fill="#8b0000"> Mais …</text>
</g>
<!-- p2 -->
<g id="node6" class="node">
<title>p2</title>
<path fill="#ffffff" stroke="#000000" d="M987.9794,-844.1295C987.9794,-844.1295 816.0866,-844.1295 816.0866,-844.1295 810.0866,-844.1295 804.0866,-838.1295 804.0866,-832.1295 804.0866,-832.1295 804.0866,-784.9272 804.0866,-784.9272 804.0866,-778.9272 810.0866,-772.9272 816.0866,-772.9272 816.0866,-772.9272 987.9794,-772.9272 987.9794,-772.9272 993.9794,-772.9272 999.9794,-778.9272 999.9794,-784.9272 999.9794,-784.9272 999.9794,-832.1295 999.9794,-832.1295 999.9794,-838.1295 993.9794,-844.1295 987.9794,-844.1295"/>
<text text-anchor="middle" x="902.033" y="-815.7283" font-family="Times,serif" font-size="24.00" fill="#000000">(2) Le monde a</text>
<text text-anchor="middle" x="902.033" y="-786.9283" font-family="Times,serif" font-size="24.00" fill="#000000">un commencement</text>
</g>
<!-- p1&#45;&gt;p2 -->
<!-- p2b -->
<g id="node4" class="node">
<title>p2b</title>
<path fill="#ffffff" stroke="#000000" d="M1079.881,-1096.9283C1079.881,-1096.9283 780.185,-1096.9283 780.185,-1096.9283 774.185,-1096.9283 768.185,-1090.9283 768.185,-1084.9283 768.185,-1084.9283 768.185,-1022.9283 768.185,-1022.9283 768.185,-1016.9283 774.185,-1010.9283 780.185,-1010.9283 780.185,-1010.9283 1079.881,-1010.9283 1079.881,-1010.9283 1085.881,-1010.9283 1091.881,-1016.9283 1091.881,-1022.9283 1091.881,-1022.9283 1091.881,-1084.9283 1091.881,-1084.9283 1091.881,-1090.9283 1085.881,-1096.9283 1079.881,-1096.9283"/>
<text text-anchor="middle" x="930.033" y="-1071.9283" font-family="Times,serif" font-size="20.00" fill="#000000">(2b) L&#39;hypothèse d&#39;un passé infini</text>
<text text-anchor="middle" x="930.033" y="-1047.9283" font-family="Times,serif" font-size="20.00" fill="#000000">n&#39;est pas en accord avec les meilleures</text>
<text text-anchor="middle" x="930.033" y="-1023.9283" font-family="Times,serif" font-size="20.00" fill="#000000">théories physiques contemporaines</text>
</g>
<!-- p2b&#45;&gt;p2 -->
<g id="edge3" class="edge">
<title>p2b&#45;&gt;p2</title>
<path fill="none" stroke="#000000" stroke-dasharray="5,2" d="M925.1237,-1010.9021C920.1183,-967.0329 912.3814,-899.2247 907.263,-854.3654"/>
<polygon fill="#000000" stroke="#000000" points="910.7282,-853.8611 906.1171,-844.3224 903.7734,-854.6547 910.7282,-853.8611"/>
<text text-anchor="middle" x="876.7238" y="-965.2184" font-family="Times,serif" font-size="14.00" fill="#666666">Donc, il est</text>
<text text-anchor="middle" x="876.7238" y="-948.4184" font-family="Times,serif" font-size="14.00" fill="#666666">justifié de</text>
<text text-anchor="middle" x="876.7238" y="-931.6184" font-family="Times,serif" font-size="14.00" fill="#666666">penser que …</text>
</g>
<!-- o2b -->
<g id="node12" class="node">
<title>o2b</title>
<path fill="#ffffff" stroke="#cd0000" d="M1664.164,-1179.5287C1664.164,-1179.5287 1183.902,-1179.5287 1183.902,-1179.5287 1177.902,-1179.5287 1171.902,-1173.5287 1171.902,-1167.5287 1171.902,-1167.5287 1171.902,-940.328 1171.902,-940.328 1171.902,-934.328 1177.902,-928.328 1183.902,-928.328 1183.902,-928.328 1664.164,-928.328 1664.164,-928.328 1670.164,-928.328 1676.164,-934.328 1676.164,-940.328 1676.164,-940.328 1676.164,-1167.5287 1676.164,-1167.5287 1676.164,-1173.5287 1670.164,-1179.5287 1664.164,-1179.5287"/>
<text text-anchor="middle" x="1424.033" y="-1156.5283" font-family="Times,serif" font-size="18.00" fill="#000000">1/ La physique contemporaine affirme l&#39;existence de ce qui</text>
<text text-anchor="middle" x="1424.033" y="-1134.9283" font-family="Times,serif" font-size="18.00" fill="#000000">semble être un commencement du monde : le Big Bang ;</text>
<text text-anchor="middle" x="1424.033" y="-1113.3283" font-family="Times,serif" font-size="18.00" fill="#000000">cependant il existe des modèles cosmologiques dans lesquels le</text>
<text text-anchor="middle" x="1424.033" y="-1091.7283" font-family="Times,serif" font-size="18.00" fill="#000000">Big Bang n&#39;est pas incompatible avec l&#39;idée d&#39;un passé infini</text>
<text text-anchor="middle" x="1424.033" y="-1070.1283" font-family="Times,serif" font-size="18.00" fill="#000000">2/ La physique contemporaine affirme la vérité du deuxième</text>
<text text-anchor="middle" x="1424.033" y="-1048.5283" font-family="Times,serif" font-size="18.00" fill="#000000">principe de la thermodynamique, selon lequel l&#39;entropie d&#39;un</text>
<text text-anchor="middle" x="1424.033" y="-1026.9283" font-family="Times,serif" font-size="18.00" fill="#000000">système fermé qui évolue de manière irréversible augmente</text>
<text text-anchor="middle" x="1424.033" y="-1005.3283" font-family="Times,serif" font-size="18.00" fill="#000000">nécessairement (jusqu&#39;à sa valeur maximale) : appliqué au monde,</text>
<text text-anchor="middle" x="1424.033" y="-983.7283" font-family="Times,serif" font-size="18.00" fill="#000000">l&#39;hypothèse d&#39;un passé infini impliquerait que l&#39;entropie du monde</text>
<text text-anchor="middle" x="1424.033" y="-962.1283" font-family="Times,serif" font-size="18.00" fill="#000000">devrait être maximale, ce qui n&#39;est pas le cas ; mais peut&#45;on</text>
<text text-anchor="middle" x="1424.033" y="-940.5283" font-family="Times,serif" font-size="18.00" fill="#000000">appliquer ce principe thermodynamique au monde lui&#45;même ?</text>
</g>
<!-- p2b&#45;&gt;o2b -->
<g id="edge10" class="edge">
<title>p2b&#45;&gt;o2b</title>
<path fill="none" stroke="#cd0000" stroke-width=".8" d="M1092.1291,-1053.9283C1115.1278,-1053.9283 1139.2446,-1053.9283 1163.536,-1053.9283"/>
<polygon fill="#cd0000" stroke="#cd0000" stroke-width=".8" points="1163.7793,-1056.7284 1171.7792,-1053.9283 1163.7792,-1051.1284 1163.7793,-1056.7284"/>
<text text-anchor="middle" x="1131.9623" y="-1060.5283" font-family="Times,serif" font-size="12.00" fill="#8b0000"> Mais …</text>
</g>
<!-- p2a&#45;&gt;p2 -->
<g id="edge2" class="edge">
<title>p2a&#45;&gt;p2</title>
<path fill="none" stroke="#000000" d="M684.5042,-1010.7655C705.1874,-985.7506 732.5472,-954.1561 759.033,-928.1283 786.8716,-900.7712 820.2156,-872.6479 847.7002,-850.5511"/>
<polygon fill="#000000" stroke="#000000" points="850.0318,-853.1682 855.6573,-844.1901 845.6609,-847.7005 850.0318,-853.1682"/>
<text text-anchor="middle" x="724.2611" y="-943.3487" font-family="Times,serif" font-size="14.00" fill="#666666">Par</text>
<text text-anchor="middle" x="724.2611" y="-926.5487" font-family="Times,serif" font-size="14.00" fill="#666666">conséquent …</text>
</g>
<!-- p3 -->
<g id="node7" class="node">
<title>p3</title>
<path fill="#ffffff" stroke="#000000" d="M720.1511,-578.9295C720.1511,-578.9295 599.9149,-578.9295 599.9149,-578.9295 593.9149,-578.9295 587.9149,-572.9295 587.9149,-566.9295 587.9149,-566.9295 587.9149,-519.7272 587.9149,-519.7272 587.9149,-513.7272 593.9149,-507.7272 599.9149,-507.7272 599.9149,-507.7272 720.1511,-507.7272 720.1511,-507.7272 726.1511,-507.7272 732.1511,-513.7272 732.1511,-519.7272 732.1511,-519.7272 732.1511,-566.9295 732.1511,-566.9295 732.1511,-572.9295 726.1511,-578.9295 720.1511,-578.9295"/>
<text text-anchor="middle" x="660.033" y="-550.5283" font-family="Times,serif" font-size="24.00" fill="#000000">(3) Le monde</text>
<text text-anchor="middle" x="660.033" y="-521.7283" font-family="Times,serif" font-size="24.00" fill="#000000">a une cause</text>
</g>
<!-- p2&#45;&gt;p3 -->
<g id="edge5" class="edge">
<title>p2:w&#45;&gt;p3:n</title>
<path fill="none" stroke="#000000" d="M783.5198,-743.3295C782.639,-737.3219 780.9778,-731.4314 778.033,-725.9283 740.2666,-655.3515 666.7102,-662.1976 660.4587,-589.6013"/>
<polygon fill="#000000" stroke="#000000" points="663.9441,-589.1748 660.033,-579.3283 656.9501,-589.4647 663.9441,-589.1748"/>
<text text-anchor="middle" x="674.9451" y="-688.471" font-family="Times,serif" font-size="15.00" fill="#666666">Par</text>
<text text-anchor="middle" x="674.9451" y="-670.471" font-family="Times,serif" font-size="15.00" fill="#666666">conséquent …</text>
</g>
<!-- p4 -->
<g id="node8" class="node">
<title>p4</title>
<path fill="#ffffff" stroke="#000000" d="M1040.7715,-608.0285C1040.7715,-608.0285 779.2945,-608.0285 779.2945,-608.0285 773.2945,-608.0285 767.2945,-602.0285 767.2945,-596.0285 767.2945,-596.0285 767.2945,-490.6282 767.2945,-490.6282 767.2945,-484.6282 773.2945,-478.6282 779.2945,-478.6282 779.2945,-478.6282 1040.7715,-478.6282 1040.7715,-478.6282 1046.7715,-478.6282 1052.7715,-484.6282 1052.7715,-490.6282 1052.7715,-490.6282 1052.7715,-596.0285 1052.7715,-596.0285 1052.7715,-602.0285 1046.7715,-608.0285 1040.7715,-608.0285"/>
<text text-anchor="middle" x="910.033" y="-579.3283" font-family="Times,serif" font-size="24.00" fill="#000000">(4) Si le monde a une cause,</text>
<text text-anchor="middle" x="910.033" y="-550.5283" font-family="Times,serif" font-size="24.00" fill="#000000">cette cause ne peut pas être</text>
<text text-anchor="middle" x="910.033" y="-521.7283" font-family="Times,serif" font-size="24.00" fill="#000000">une réalité dans le monde,</text>
<text text-anchor="middle" x="910.033" y="-492.9283" font-family="Times,serif" font-size="24.00" fill="#000000">ou le monde lui&#45;même</text>
</g>
<!-- p3&#45;&gt;p4 -->
<!-- p5 -->
<g id="node9" class="node">
<title>p5</title>
<path fill="#ffffff" stroke="#000000" d="M855.1237,-355.8285C855.1237,-355.8285 606.9423,-355.8285 606.9423,-355.8285 600.9423,-355.8285 594.9423,-349.8285 594.9423,-343.8285 594.9423,-343.8285 594.9423,-238.4282 594.9423,-238.4282 594.9423,-232.4282 600.9423,-226.4282 606.9423,-226.4282 606.9423,-226.4282 855.1237,-226.4282 855.1237,-226.4282 861.1237,-226.4282 867.1237,-232.4282 867.1237,-238.4282 867.1237,-238.4282 867.1237,-343.8285 867.1237,-343.8285 867.1237,-349.8285 861.1237,-355.8285 855.1237,-355.8285"/>
<text text-anchor="middle" x="731.033" y="-327.1283" font-family="Times,serif" font-size="24.00" fill="#000000">(5) Il existe une réalité</text>
<text text-anchor="middle" x="731.033" y="-298.3283" font-family="Times,serif" font-size="24.00" fill="#000000">différente du monde, qui</text>
<text text-anchor="middle" x="731.033" y="-269.5283" font-family="Times,serif" font-size="24.00" fill="#000000">n&#39;est pas dans le monde, et</text>
<text text-anchor="middle" x="731.033" y="-240.7283" font-family="Times,serif" font-size="24.00" fill="#000000">qui est la cause du monde</text>
</g>
<!-- p4&#45;&gt;p5 -->
<g id="edge7" class="edge">
<title>p4:w&#45;&gt;p5:n</title>
<path fill="none" stroke="#000000" d="M741.9812,-463.7287C736.3732,-426.4501 732.6457,-385.9661 731.4491,-366.1881"/>
<polygon fill="#000000" stroke="#000000" points="734.9434,-365.9751 731.033,-356.1283 727.9494,-366.2645 734.9434,-365.9751"/>
<text text-anchor="middle" x="691.4199" y="-430.7946" font-family="Times,serif" font-size="15.00" fill="#666666">Par</text>
<text text-anchor="middle" x="691.4199" y="-412.7946" font-family="Times,serif" font-size="15.00" fill="#666666">conséquent …</text>
</g>
<!-- p6 -->
<g id="node10" class="node">
<title>p6</title>
<path fill="#ffffff" stroke="#000000" d="M1064.9306,-326.7295C1064.9306,-326.7295 915.1354,-326.7295 915.1354,-326.7295 909.1354,-326.7295 903.1354,-320.7295 903.1354,-314.7295 903.1354,-314.7295 903.1354,-267.5272 903.1354,-267.5272 903.1354,-261.5272 909.1354,-255.5272 915.1354,-255.5272 915.1354,-255.5272 1064.9306,-255.5272 1064.9306,-255.5272 1070.9306,-255.5272 1076.9306,-261.5272 1076.9306,-267.5272 1076.9306,-267.5272 1076.9306,-314.7295 1076.9306,-314.7295 1076.9306,-320.7295 1070.9306,-326.7295 1064.9306,-326.7295"/>
<text text-anchor="middle" x="990.033" y="-298.3283" font-family="Times,serif" font-size="24.00" fill="#000000">(6) Cette réalité,</text>
<text text-anchor="middle" x="990.033" y="-269.5283" font-family="Times,serif" font-size="24.00" fill="#000000">c&#39;est Dieu</text>
</g>
<!-- p5&#45;&gt;p6 -->
<!-- C -->
<g id="node11" class="node">
<title>C</title>
<ellipse fill="#000000" stroke="#000000" cx="903.033" cy="-78.2642" rx="86.9238" ry="30.0302"/>
<text text-anchor="middle" x="903.033" y="-71.0642" font-family="Times,serif" font-size="24.00" fill="#ffffff">Dieu existe</text>
</g>
<!-- p6&#45;&gt;C -->
<g id="edge9" class="edge">
<title>p6:w&#45;&gt;C:n</title>
<path fill="none" stroke="#000000" d="M888.2298,-211.5316C892.679,-177.5249 900.3473,-140.5922 902.4727,-118.2579"/>
<polygon fill="#000000" stroke="#000000" points="905.9676,-118.4445 903.033,-108.2642 898.9786,-118.0525 905.9676,-118.4445"/>
<text text-anchor="middle" x="852.7203" y="-182.2558" font-family="Times,serif" font-size="15.00" fill="#666666">Par</text>
<text text-anchor="middle" x="852.7203" y="-164.2558" font-family="Times,serif" font-size="15.00" fill="#666666">conséquent …</text>
</g>
<!-- o6 -->
<g id="node13" class="node">
<title>o6</title>
<path fill="#ffffff" stroke="#cd0000" d="M1476.455,-352.1283C1476.455,-352.1283 1183.611,-352.1283 1183.611,-352.1283 1177.611,-352.1283 1171.611,-346.1283 1171.611,-340.1283 1171.611,-340.1283 1171.611,-242.1283 1171.611,-242.1283 1171.611,-236.1283 1177.611,-230.1283 1183.611,-230.1283 1183.611,-230.1283 1476.455,-230.1283 1476.455,-230.1283 1482.455,-230.1283 1488.455,-236.1283 1488.455,-242.1283 1488.455,-242.1283 1488.455,-340.1283 1488.455,-340.1283 1488.455,-346.1283 1482.455,-352.1283 1476.455,-352.1283"/>
<text text-anchor="middle" x="1330.033" y="-328.9283" font-family="Times,serif" font-size="18.00" fill="#000000">L&#39;argument prouve au mieux l&#39;existence</text>
<text text-anchor="middle" x="1330.033" y="-307.3283" font-family="Times,serif" font-size="18.00" fill="#000000">d&#39;une réalité non matérielle, non spatiale,</text>
<text text-anchor="middle" x="1330.033" y="-285.7283" font-family="Times,serif" font-size="18.00" fill="#000000">non temporelle qui est la cause du monde,</text>
<text text-anchor="middle" x="1330.033" y="-264.1283" font-family="Times,serif" font-size="18.00" fill="#000000">mais, sans hypothèses supplémentaires,</text>
<text text-anchor="middle" x="1330.033" y="-242.5283" font-family="Times,serif" font-size="18.00" fill="#000000">cela ne prouve pas l&#39;existence de Dieu</text>
</g>
<!-- p6&#45;&gt;o6 -->
<g id="edge11" class="edge">
<title>p6&#45;&gt;o6</title>
<path fill="none" stroke="#cd0000" stroke-width=".8" d="M1077.1499,-291.1283C1103.6097,-291.1283 1133.6161,-291.1283 1163.4807,-291.1283"/>
<polygon fill="#cd0000" stroke="#cd0000" stroke-width=".8" points="1163.4809,-293.9284 1171.4809,-291.1283 1163.4808,-288.3284 1163.4809,-293.9284"/>
<text text-anchor="middle" x="1124.2769" y="-297.7283" font-family="Times,serif" font-size="12.00" fill="#8b0000"> Mais …</text>
</g>
</g>
</svg>
