<?xml version="1.0" encoding="UTF-8" standalone="no"?>
<!DOCTYPE svg PUBLIC "-//W3C//DTD SVG 1.1//EN"
 "http://www.w3.org/Graphics/SVG/1.1/DTD/svg11.dtd">
<!-- Generated by graphviz version 2.40.1 (20161225.0304)
 -->
<!-- Title: G Pages: 1 -->
<svg width="2279pt" height="1229pt"
 viewBox="0.00 0.00 2279.31 1228.93" xmlns="http://www.w3.org/2000/svg" xmlns:xlink="http://www.w3.org/1999/xlink">
<g id="graph0" class="graph" transform="scale(1 1) rotate(0) translate(4 1224.9283)">
<title>G</title>
<polygon fill="#ffffff" stroke="transparent" points="-4,4 -4,-1224.9283 2275.309,-1224.9283 2275.309,4 -4,4"/>
<g id="clust4" class="cluster">
<title>cluster_0</title>
<path fill="#e5e5e5" stroke="#7f7f7f" d="M619.722,-8C619.722,-8 1803.722,-8 1803.722,-8 1809.722,-8 1815.722,-14 1815.722,-20 1815.722,-20 1815.722,-1200.9283 1815.722,-1200.9283 1815.722,-1206.9283 1809.722,-1212.9283 1803.722,-1212.9283 1803.722,-1212.9283 619.722,-1212.9283 619.722,-1212.9283 613.722,-1212.9283 607.722,-1206.9283 607.722,-1200.9283 607.722,-1200.9283 607.722,-20 607.722,-20 607.722,-14 613.722,-8 619.722,-8"/>
</g>
<g id="clust5" class="cluster">
<title>cluster_2arg</title>
<polygon fill="#bababa" stroke="#bababa" points="1103.722,-734.7283 1103.722,-1172.9283 1775.722,-1172.9283 1775.722,-734.7283 1103.722,-734.7283"/>
</g>
<g id="clust7" class="cluster">
<title>cluster_1</title>
<polygon fill="#bababa" stroke="#bababa" points="647.722,-777.9283 647.722,-1172.9283 1063.722,-1172.9283 1063.722,-777.9283 647.722,-777.9283"/>
</g>
<g id="clust8" class="cluster">
<title>cluster_2</title>
<polygon fill="#bababa" stroke="#bababa" points="900.722,-482.5283 900.722,-641.7283 1609.722,-641.7283 1609.722,-482.5283 900.722,-482.5283"/>
</g>
<g id="clust10" class="cluster">
<title>cluster_3</title>
<polygon fill="#bababa" stroke="#bababa" points="954.722,-220.9283 954.722,-380.1283 1596.722,-380.1283 1596.722,-220.9283 954.722,-220.9283"/>
</g>
<!-- o1 -->
<g id="node1" class="node">
<title>o1</title>
<path fill="#ffffff" stroke="#cd0000" d="M555.6662,-1184.3283C555.6662,-1184.3283 11.7778,-1184.3283 11.7778,-1184.3283 5.7778,-1184.3283 -.2222,-1178.3283 -.2222,-1172.3283 -.2222,-1172.3283 -.2222,-1014.3283 -.2222,-1014.3283 -.2222,-1008.3283 5.7778,-1002.3283 11.7778,-1002.3283 11.7778,-1002.3283 555.6662,-1002.3283 555.6662,-1002.3283 561.6662,-1002.3283 567.6662,-1008.3283 567.6662,-1014.3283 567.6662,-1014.3283 567.6662,-1172.3283 567.6662,-1172.3283 567.6662,-1178.3283 561.6662,-1184.3283 555.6662,-1184.3283"/>
<text text-anchor="middle" x="283.722" y="-1159.3283" font-family="Times,serif" font-size="20.00" fill="#000000">On pourrait penser que l&#39;existence du monde n&#39;est pas contingente,</text>
<text text-anchor="middle" x="283.722" y="-1135.3283" font-family="Times,serif" font-size="20.00" fill="#000000">soit parce que la contigence n&#39;est qu&#39;une illusion de notre pensée ou</text>
<text text-anchor="middle" x="283.722" y="-1111.3283" font-family="Times,serif" font-size="20.00" fill="#000000">le résultat d&#39;un sophisme (peut&#45;on attribuer la contingence au tout du</text>
<text text-anchor="middle" x="283.722" y="-1087.3283" font-family="Times,serif" font-size="20.00" fill="#000000">monde en raison de la contingence de ses éléments ?), soit parce que</text>
<text text-anchor="middle" x="283.722" y="-1063.3283" font-family="Times,serif" font-size="20.00" fill="#000000">l&#39;argument tout entier serait autoréfutant (si l&#39;existence du monde</text>
<text text-anchor="middle" x="283.722" y="-1039.3283" font-family="Times,serif" font-size="20.00" fill="#000000">s&#39;explique par une réalité dont l&#39;existence est nécessaire, peut&#45;elle</text>
<text text-anchor="middle" x="283.722" y="-1015.3283" font-family="Times,serif" font-size="20.00" fill="#000000">vraiment être contingente ?) ; mais ces objections semblent faibles</text>
</g>
<!-- p1 -->
<g id="node4" class="node">
<title>p1</title>
<path fill="#ffffff" stroke="#000000" d="M964.8415,-1158.0285C964.8415,-1158.0285 746.6025,-1158.0285 746.6025,-1158.0285 740.6025,-1158.0285 734.6025,-1152.0285 734.6025,-1146.0285 734.6025,-1146.0285 734.6025,-1040.6282 734.6025,-1040.6282 734.6025,-1034.6282 740.6025,-1028.6282 746.6025,-1028.6282 746.6025,-1028.6282 964.8415,-1028.6282 964.8415,-1028.6282 970.8415,-1028.6282 976.8415,-1034.6282 976.8415,-1040.6282 976.8415,-1040.6282 976.8415,-1146.0285 976.8415,-1146.0285 976.8415,-1152.0285 970.8415,-1158.0285 964.8415,-1158.0285"/>
<text text-anchor="middle" x="855.722" y="-1129.3283" font-family="Times,serif" font-size="24.00" fill="#000000">(1) L&#39;existence du</text>
<text text-anchor="middle" x="855.722" y="-1100.5283" font-family="Times,serif" font-size="24.00" fill="#000000">monde est contingente :</text>
<text text-anchor="middle" x="855.722" y="-1071.7283" font-family="Times,serif" font-size="24.00" fill="#000000">le monde existe, mais il</text>
<text text-anchor="middle" x="855.722" y="-1042.9283" font-family="Times,serif" font-size="24.00" fill="#000000">aurait pu ne pas exister</text>
</g>
<!-- o1&#45;&gt;p1 -->
<g id="edge1" class="edge">
<title>o1&#45;&gt;p1</title>
<path fill="none" stroke="#cd0000" stroke-width=".8" d="M575.8954,-1093.3283C631.926,-1093.3283 687.6405,-1093.3283 734.4316,-1093.3283"/>
<polygon fill="#cd0000" stroke="#cd0000" stroke-width=".8" points="575.6273,-1090.5284 567.6273,-1093.3283 575.6273,-1096.1284 575.6273,-1090.5284"/>
<text text-anchor="middle" x="650.9282" y="-1100.5283" font-family="Times,serif" font-size="14.00" fill="#8b0000"> Mais …</text>
</g>
<!-- o2 -->
<g id="node2" class="node">
<title>o2</title>
<path fill="#ffffff" stroke="#cd0000" d="M556.1402,-924.5283C556.1402,-924.5283 35.3038,-924.5283 35.3038,-924.5283 29.3038,-924.5283 23.3038,-918.5283 23.3038,-912.5283 23.3038,-912.5283 23.3038,-802.5283 23.3038,-802.5283 23.3038,-796.5283 29.3038,-790.5283 35.3038,-790.5283 35.3038,-790.5283 556.1402,-790.5283 556.1402,-790.5283 562.1402,-790.5283 568.1402,-796.5283 568.1402,-802.5283 568.1402,-802.5283 568.1402,-912.5283 568.1402,-912.5283 568.1402,-918.5283 562.1402,-924.5283 556.1402,-924.5283"/>
<text text-anchor="middle" x="295.722" y="-899.5283" font-family="Times,serif" font-size="20.00" fill="#000000">Ce principe correspond à ce qu&#39;on appelle le principe de raison </text>
<text text-anchor="middle" x="295.722" y="-875.5283" font-family="Times,serif" font-size="20.00" fill="#000000">suffisante (PRS), or le PRS se heurte à deux objections majeures :</text>
<text text-anchor="middle" x="295.722" y="-851.5283" font-family="Times,serif" font-size="20.00" fill="#000000">1/ Il n&#39;y a pas de preuve de la vérité du PRS ; 2/ Le PRS a pour</text>
<text text-anchor="middle" x="295.722" y="-827.5283" font-family="Times,serif" font-size="20.00" fill="#000000">domaine premier d&#39;application les phénomènes empiriques :</text>
<text text-anchor="middle" x="295.722" y="-803.5283" font-family="Times,serif" font-size="20.00" fill="#000000">peut&#45;on appliquer ce principe hors de ce domaine ?</text>
</g>
<!-- p2 -->
<g id="node5" class="node">
<title>p2</title>
<path fill="#ffffff" stroke="#000000" d="M1036.7647,-922.2285C1036.7647,-922.2285 674.6793,-922.2285 674.6793,-922.2285 668.6793,-922.2285 662.6793,-916.2285 662.6793,-910.2285 662.6793,-910.2285 662.6793,-804.8282 662.6793,-804.8282 662.6793,-798.8282 668.6793,-792.8282 674.6793,-792.8282 674.6793,-792.8282 1036.7647,-792.8282 1036.7647,-792.8282 1042.7647,-792.8282 1048.7647,-798.8282 1048.7647,-804.8282 1048.7647,-804.8282 1048.7647,-910.2285 1048.7647,-910.2285 1048.7647,-916.2285 1042.7647,-922.2285 1036.7647,-922.2285"/>
<text text-anchor="middle" x="855.722" y="-893.5283" font-family="Times,serif" font-size="24.00" fill="#000000">(2) Si l&#39;existence de X est contingente,</text>
<text text-anchor="middle" x="855.722" y="-864.7283" font-family="Times,serif" font-size="24.00" fill="#000000">il doit y avoir une explication</text>
<text text-anchor="middle" x="855.722" y="-835.9283" font-family="Times,serif" font-size="24.00" fill="#000000">du fait que X existe alors que</text>
<text text-anchor="middle" x="855.722" y="-807.1283" font-family="Times,serif" font-size="24.00" fill="#000000">X aurait pu ne pas exister</text>
</g>
<!-- o2&#45;&gt;p2 -->
<g id="edge2" class="edge">
<title>o2&#45;&gt;p2</title>
<path fill="none" stroke="#cd0000" stroke-width=".8" d="M576.5528,-857.5283C605.6738,-857.5283 634.7827,-857.5283 662.6197,-857.5283"/>
<polygon fill="#cd0000" stroke="#cd0000" stroke-width=".8" points="576.34,-854.7284 568.3399,-857.5283 576.3399,-860.3284 576.34,-854.7284"/>
<text text-anchor="middle" x="615.1909" y="-864.7283" font-family="Times,serif" font-size="14.00" fill="#8b0000"> Mais …</text>
</g>
<!-- o5 -->
<g id="node3" class="node">
<title>o5</title>
<path fill="#ffffff" stroke="#cd0000" d="M555.394,-379.5283C555.394,-379.5283 182.05,-379.5283 182.05,-379.5283 176.05,-379.5283 170.05,-373.5283 170.05,-367.5283 170.05,-367.5283 170.05,-233.5283 170.05,-233.5283 170.05,-227.5283 176.05,-221.5283 182.05,-221.5283 182.05,-221.5283 555.394,-221.5283 555.394,-221.5283 561.394,-221.5283 567.394,-227.5283 567.394,-233.5283 567.394,-233.5283 567.394,-367.5283 567.394,-367.5283 567.394,-373.5283 561.394,-379.5283 555.394,-379.5283"/>
<text text-anchor="middle" x="368.722" y="-354.5283" font-family="Times,serif" font-size="20.00" fill="#000000">L&#39;existence d&#39;une réalité non&#45;contingente</text>
<text text-anchor="middle" x="368.722" y="-330.5283" font-family="Times,serif" font-size="20.00" fill="#000000">permet&#45;elle véritablement d&#39;expliquer</text>
<text text-anchor="middle" x="368.722" y="-306.5283" font-family="Times,serif" font-size="20.00" fill="#000000">l&#39;existence du monde ? On ne peut accepter une</text>
<text text-anchor="middle" x="368.722" y="-282.5283" font-family="Times,serif" font-size="20.00" fill="#000000">explication d&#39;un fait que si elle fournit une</text>
<text text-anchor="middle" x="368.722" y="-258.5283" font-family="Times,serif" font-size="20.00" fill="#000000">raison satisfaisante qui nous permet de mieux</text>
<text text-anchor="middle" x="368.722" y="-234.5283" font-family="Times,serif" font-size="20.00" fill="#000000">comprendre ce fait : est&#45;ce vraiment le cas ici ?</text>
</g>
<!-- p5 -->
<g id="node6" class="node">
<title>p5</title>
<path fill="#ffffff" stroke="#000000" d="M1360.2199,-365.2285C1360.2199,-365.2285 981.2241,-365.2285 981.2241,-365.2285 975.2241,-365.2285 969.2241,-359.2285 969.2241,-353.2285 969.2241,-353.2285 969.2241,-247.8282 969.2241,-247.8282 969.2241,-241.8282 975.2241,-235.8282 981.2241,-235.8282 981.2241,-235.8282 1360.2199,-235.8282 1360.2199,-235.8282 1366.2199,-235.8282 1372.2199,-241.8282 1372.2199,-247.8282 1372.2199,-247.8282 1372.2199,-353.2285 1372.2199,-353.2285 1372.2199,-359.2285 1366.2199,-365.2285 1360.2199,-365.2285"/>
<text text-anchor="middle" x="1170.722" y="-336.5283" font-family="Times,serif" font-size="24.00" fill="#000000">(7) Il existe une réalité non&#45;contingente,</text>
<text text-anchor="middle" x="1170.722" y="-307.7283" font-family="Times,serif" font-size="24.00" fill="#000000">différente du monde, et qui n&#39;est pas</text>
<text text-anchor="middle" x="1170.722" y="-278.9283" font-family="Times,serif" font-size="24.00" fill="#000000">dans le monde, et dont l&#39;existence</text>
<text text-anchor="middle" x="1170.722" y="-250.1283" font-family="Times,serif" font-size="24.00" fill="#000000">explique l&#39;existence du monde</text>
</g>
<!-- o5&#45;&gt;p5 -->
<g id="edge3" class="edge">
<title>o5&#45;&gt;p5</title>
<path fill="none" stroke="#cd0000" stroke-width=".8" d="M575.7872,-300.5283C696.9657,-300.5283 849.2663,-300.5283 969.4353,-300.5283"/>
<polygon fill="#cd0000" stroke="#cd0000" stroke-width=".8" points="575.4843,-297.7284 567.4842,-300.5283 575.4842,-303.3284 575.4843,-297.7284"/>
<text text-anchor="middle" x="768.3906" y="-307.7283" font-family="Times,serif" font-size="14.00" fill="#8b0000"> Mais …</text>
</g>
<!-- p1&#45;&gt;p2 -->
<!-- a1 -->
<g id="node7" class="node">
<title>a1</title>
<path fill="#ffffff" stroke="#000000" d="M1710.191,-1158.0285C1710.191,-1158.0285 1169.253,-1158.0285 1169.253,-1158.0285 1163.253,-1158.0285 1157.253,-1152.0285 1157.253,-1146.0285 1157.253,-1146.0285 1157.253,-1040.6282 1157.253,-1040.6282 1157.253,-1034.6282 1163.253,-1028.6282 1169.253,-1028.6282 1169.253,-1028.6282 1710.191,-1028.6282 1710.191,-1028.6282 1716.191,-1028.6282 1722.191,-1034.6282 1722.191,-1040.6282 1722.191,-1040.6282 1722.191,-1146.0285 1722.191,-1146.0285 1722.191,-1152.0285 1716.191,-1158.0285 1710.191,-1158.0285"/>
<text text-anchor="middle" x="1439.722" y="-1129.3283" font-family="Times,serif" font-size="24.00" fill="#000000">(4) S&#39;il y a une explication de l&#39;existence du monde,</text>
<text text-anchor="middle" x="1439.722" y="-1100.5283" font-family="Times,serif" font-size="24.00" fill="#000000">on ne peut pas trouver cette explication dans le monde</text>
<text text-anchor="middle" x="1439.722" y="-1071.7283" font-family="Times,serif" font-size="24.00" fill="#000000">lui&#45;même : l&#39;explication doit se trouver dans une réalité </text>
<text text-anchor="middle" x="1439.722" y="-1042.9283" font-family="Times,serif" font-size="24.00" fill="#000000">différente du monde et qui n&#39;est pas dans le monde</text>
</g>
<!-- p1&#45;&gt;a1 -->
<!-- p3 -->
<g id="node10" class="node">
<title>p3</title>
<path fill="#ffffff" stroke="#000000" d="M1123.4918,-612.5291C1123.4918,-612.5291 927.9522,-612.5291 927.9522,-612.5291 921.9522,-612.5291 915.9522,-606.5291 915.9522,-600.5291 915.9522,-600.5291 915.9522,-523.7275 915.9522,-523.7275 915.9522,-517.7275 921.9522,-511.7275 927.9522,-511.7275 927.9522,-511.7275 1123.4918,-511.7275 1123.4918,-511.7275 1129.4918,-511.7275 1135.4918,-517.7275 1135.4918,-523.7275 1135.4918,-523.7275 1135.4918,-600.5291 1135.4918,-600.5291 1135.4918,-606.5291 1129.4918,-612.5291 1123.4918,-612.5291"/>
<text text-anchor="middle" x="1025.722" y="-583.7283" font-family="Times,serif" font-size="24.00" fill="#000000">(3) Il doit y avoir</text>
<text text-anchor="middle" x="1025.722" y="-554.9283" font-family="Times,serif" font-size="24.00" fill="#000000">une explication de</text>
<text text-anchor="middle" x="1025.722" y="-526.1283" font-family="Times,serif" font-size="24.00" fill="#000000">l&#39;existence du monde</text>
</g>
<!-- p2&#45;&gt;p3 -->
<g id="edge8" class="edge">
<title>p2:s&#45;&gt;p3</title>
<path fill="none" stroke="#000000" d="M856.4596,-777.9309C862.802,-714.8443 908.9298,-658.6444 951.429,-619.4224"/>
<polygon fill="#000000" stroke="#000000" points="953.9524,-621.8593 959.0214,-612.5558 949.257,-616.6676 953.9524,-621.8593"/>
<text text-anchor="middle" x="835.943" y="-689.8512" font-family="Times,serif" font-size="15.00" fill="#666666">Par conséquent … </text>
</g>
<!-- p6 -->
<g id="node11" class="node">
<title>p6</title>
<path fill="#ffffff" stroke="#000000" d="M1569.6196,-336.1295C1569.6196,-336.1295 1419.8244,-336.1295 1419.8244,-336.1295 1413.8244,-336.1295 1407.8244,-330.1295 1407.8244,-324.1295 1407.8244,-324.1295 1407.8244,-276.9272 1407.8244,-276.9272 1407.8244,-270.9272 1413.8244,-264.9272 1419.8244,-264.9272 1419.8244,-264.9272 1569.6196,-264.9272 1569.6196,-264.9272 1575.6196,-264.9272 1581.6196,-270.9272 1581.6196,-276.9272 1581.6196,-276.9272 1581.6196,-324.1295 1581.6196,-324.1295 1581.6196,-330.1295 1575.6196,-336.1295 1569.6196,-336.1295"/>
<text text-anchor="middle" x="1494.722" y="-307.7283" font-family="Times,serif" font-size="24.00" fill="#000000">(8) Cette réalité,</text>
<text text-anchor="middle" x="1494.722" y="-278.9283" font-family="Times,serif" font-size="24.00" fill="#000000">c&#39;est Dieu</text>
</g>
<!-- p5&#45;&gt;p6 -->
<!-- a2 -->
<g id="node8" class="node">
<title>a2</title>
<path fill="#ffffff" stroke="#000000" d="M1748.3629,-965.1287C1748.3629,-965.1287 1131.0811,-965.1287 1131.0811,-965.1287 1125.0811,-965.1287 1119.0811,-959.1287 1119.0811,-953.1287 1119.0811,-953.1287 1119.0811,-761.928 1119.0811,-761.928 1119.0811,-755.928 1125.0811,-749.928 1131.0811,-749.928 1131.0811,-749.928 1748.3629,-749.928 1748.3629,-749.928 1754.3629,-749.928 1760.3629,-755.928 1760.3629,-761.928 1760.3629,-761.928 1760.3629,-953.1287 1760.3629,-953.1287 1760.3629,-959.1287 1754.3629,-965.1287 1748.3629,-965.1287"/>
<text text-anchor="middle" x="1439.722" y="-936.7283" font-family="Times,serif" font-size="24.00" fill="#000000">(5) S&#39;il y a une explication de l&#39;existence du monde, elle ne peut</text>
<text text-anchor="middle" x="1439.722" y="-907.9283" font-family="Times,serif" font-size="24.00" fill="#000000">se trouver que dans une réalité non&#45;contingente, car sinon la</text>
<text text-anchor="middle" x="1439.722" y="-879.1283" font-family="Times,serif" font-size="24.00" fill="#000000">contingence de cette réalité conduirait, d&#39;après (2), à rechercher</text>
<text text-anchor="middle" x="1439.722" y="-850.3283" font-family="Times,serif" font-size="24.00" fill="#000000">à nouveau une explication de son existence, ce qui nous</text>
<text text-anchor="middle" x="1439.722" y="-821.5283" font-family="Times,serif" font-size="24.00" fill="#000000">mènerait à une régression à l&#39;infini dans l&#39;explication si on</text>
<text text-anchor="middle" x="1439.722" y="-792.7283" font-family="Times,serif" font-size="24.00" fill="#000000">ne pose pas l&#39;existence d&#39;une réalité non&#45;contingente ; or il ne</text>
<text text-anchor="middle" x="1439.722" y="-763.9283" font-family="Times,serif" font-size="24.00" fill="#000000">peut pas y avoir de régression à l&#39;infini dans l&#39;explication</text>
</g>
<!-- a1&#45;&gt;a2 -->
<!-- o3 -->
<g id="node13" class="node">
<title>o3</title>
<path fill="#ffffff" stroke="#cd0000" d="M2241.4561,-1184.3283C2241.4561,-1184.3283 1867.9879,-1184.3283 1867.9879,-1184.3283 1861.9879,-1184.3283 1855.9879,-1178.3283 1855.9879,-1172.3283 1855.9879,-1172.3283 1855.9879,-1014.3283 1855.9879,-1014.3283 1855.9879,-1008.3283 1861.9879,-1002.3283 1867.9879,-1002.3283 1867.9879,-1002.3283 2241.4561,-1002.3283 2241.4561,-1002.3283 2247.4561,-1002.3283 2253.4561,-1008.3283 2253.4561,-1014.3283 2253.4561,-1014.3283 2253.4561,-1172.3283 2253.4561,-1172.3283 2253.4561,-1178.3283 2247.4561,-1184.3283 2241.4561,-1184.3283"/>
<text text-anchor="middle" x="2054.722" y="-1159.3283" font-family="Times,serif" font-size="20.00" fill="#000000">Quand on cherche à expliquer l&#39;existence d&#39;un</text>
<text text-anchor="middle" x="2054.722" y="-1135.3283" font-family="Times,serif" font-size="20.00" fill="#000000">tout, on peut l&#39;expliquer par l&#39;existence de ses</text>
<text text-anchor="middle" x="2054.722" y="-1111.3283" font-family="Times,serif" font-size="20.00" fill="#000000">éléments constitutifs, or le monde est justement</text>
<text text-anchor="middle" x="2054.722" y="-1087.3283" font-family="Times,serif" font-size="20.00" fill="#000000">un tout, dont on peut expliquer l&#39;existence en</text>
<text text-anchor="middle" x="2054.722" y="-1063.3283" font-family="Times,serif" font-size="20.00" fill="#000000">expliquant l&#39;existence de chaque réalité qui fait</text>
<text text-anchor="middle" x="2054.722" y="-1039.3283" font-family="Times,serif" font-size="20.00" fill="#000000">partie du monde : il n&#39;y aurait pas besoin de</text>
<text text-anchor="middle" x="2054.722" y="-1015.3283" font-family="Times,serif" font-size="20.00" fill="#000000">chercher une explication supplémentaire</text>
</g>
<!-- a1&#45;&gt;o3 -->
<g id="edge13" class="edge">
<title>a1&#45;&gt;o3</title>
<path fill="none" stroke="#cd0000" stroke-width=".8" d="M1722.0225,-1093.3283C1764.3552,-1093.3283 1807.3291,-1093.3283 1847.7061,-1093.3283"/>
<polygon fill="#cd0000" stroke="#cd0000" stroke-width=".8" points="1847.7459,-1096.1284 1855.7459,-1093.3283 1847.7458,-1090.5284 1847.7459,-1096.1284"/>
<text text-anchor="middle" x="1789.0307" y="-1100.5283" font-family="Times,serif" font-size="14.00" fill="#8b0000"> Mais …</text>
</g>
<!-- p4 -->
<g id="node9" class="node">
<title>p4</title>
<path fill="#ffffff" stroke="#000000" d="M1582.5988,-626.8285C1582.5988,-626.8285 1182.8452,-626.8285 1182.8452,-626.8285 1176.8452,-626.8285 1170.8452,-620.8285 1170.8452,-614.8285 1170.8452,-614.8285 1170.8452,-509.4282 1170.8452,-509.4282 1170.8452,-503.4282 1176.8452,-497.4282 1182.8452,-497.4282 1182.8452,-497.4282 1582.5988,-497.4282 1582.5988,-497.4282 1588.5988,-497.4282 1594.5988,-503.4282 1594.5988,-509.4282 1594.5988,-509.4282 1594.5988,-614.8285 1594.5988,-614.8285 1594.5988,-620.8285 1588.5988,-626.8285 1582.5988,-626.8285"/>
<text text-anchor="middle" x="1382.722" y="-598.1283" font-family="Times,serif" font-size="24.00" fill="#000000">(6) S&#39;il y a une explication de l&#39;existence</text>
<text text-anchor="middle" x="1382.722" y="-569.3283" font-family="Times,serif" font-size="24.00" fill="#000000">du monde, elle ne peut se trouver que dans</text>
<text text-anchor="middle" x="1382.722" y="-540.5283" font-family="Times,serif" font-size="24.00" fill="#000000">une réalité non&#45;contingente différente du</text>
<text text-anchor="middle" x="1382.722" y="-511.7283" font-family="Times,serif" font-size="24.00" fill="#000000">monde et qui n&#39;est pas dans le monde</text>
</g>
<!-- a2&#45;&gt;p4 -->
<g id="edge5" class="edge">
<title>a2:s&#45;&gt;p4</title>
<path fill="none" stroke="#000000" d="M1439.2012,-734.7312C1436.8843,-700.969 1427.1536,-666.1962 1416.4049,-636.7883"/>
<polygon fill="#000000" stroke="#000000" points="1419.5243,-635.1401 1412.7243,-627.0154 1412.9735,-637.6073 1419.5243,-635.1401"/>
<text text-anchor="middle" x="1372.5182" y="-684.3625" font-family="Times,serif" font-size="15.00" fill="#666666">Par conséquent … </text>
</g>
<!-- o7 -->
<g id="node14" class="node">
<title>o7</title>
<path fill="#ffffff" stroke="#cd0000" d="M2230.134,-912.5283C2230.134,-912.5283 1867.31,-912.5283 1867.31,-912.5283 1861.31,-912.5283 1855.31,-906.5283 1855.31,-900.5283 1855.31,-900.5283 1855.31,-814.5283 1855.31,-814.5283 1855.31,-808.5283 1861.31,-802.5283 1867.31,-802.5283 1867.31,-802.5283 2230.134,-802.5283 2230.134,-802.5283 2236.134,-802.5283 2242.134,-808.5283 2242.134,-814.5283 2242.134,-814.5283 2242.134,-900.5283 2242.134,-900.5283 2242.134,-906.5283 2236.134,-912.5283 2230.134,-912.5283"/>
<text text-anchor="middle" x="2048.722" y="-887.5283" font-family="Times,serif" font-size="20.00" fill="#000000">A&#45;t&#45;on vraiment le droit d&#39;affirmer</text>
<text text-anchor="middle" x="2048.722" y="-863.5283" font-family="Times,serif" font-size="20.00" fill="#000000">l&#39;existence d&#39;une réalité non&#45;contingente</text>
<text text-anchor="middle" x="2048.722" y="-839.5283" font-family="Times,serif" font-size="20.00" fill="#000000">simplement à partir de la difficulté à admettre</text>
<text text-anchor="middle" x="2048.722" y="-815.5283" font-family="Times,serif" font-size="20.00" fill="#000000">une régression à l&#39;infini dans l&#39;explication ?</text>
</g>
<!-- a2&#45;&gt;o7 -->
<g id="edge14" class="edge">
<title>a2&#45;&gt;o7</title>
<path fill="none" stroke="#cd0000" stroke-width=".8" d="M1760.7185,-857.5283C1790.0278,-857.5283 1819.1327,-857.5283 1846.9428,-857.5283"/>
<polygon fill="#cd0000" stroke="#cd0000" stroke-width=".8" points="1847.1395,-860.3284 1855.1395,-857.5283 1847.1394,-854.7284 1847.1395,-860.3284"/>
<text text-anchor="middle" x="1807.9042" y="-864.7283" font-family="Times,serif" font-size="14.00" fill="#8b0000"> Mais …</text>
</g>
<!-- p4&#45;&gt;p5 -->
<g id="edge10" class="edge">
<title>p4:w&#45;&gt;p5</title>
<path fill="none" stroke="#000000" d="M1145.0686,-482.531C1146.0911,-448.4743 1151.2323,-408.9183 1156.6467,-375.3994"/>
<polygon fill="#000000" stroke="#000000" points="1160.1559,-375.6304 1158.3332,-365.1935 1153.2496,-374.489 1160.1559,-375.6304"/>
<text text-anchor="middle" x="1092.4368" y="-428.1095" font-family="Times,serif" font-size="15.00" fill="#666666">Par conséquent … </text>
</g>
<!-- p3&#45;&gt;p4 -->
<!-- C -->
<g id="node12" class="node">
<title>C</title>
<ellipse fill="#000000" stroke="#000000" cx="1407.722" cy="-78.2642" rx="86.9238" ry="30.0302"/>
<text text-anchor="middle" x="1407.722" y="-71.0642" font-family="Times,serif" font-size="24.00" fill="#ffffff">Dieu existe</text>
</g>
<!-- p6&#45;&gt;C -->
<g id="edge12" class="edge">
<title>p6:w&#45;&gt;C</title>
<path fill="none" stroke="#000000" d="M1386.4623,-220.9302C1388.4833,-186.3666 1394.5575,-147.3661 1399.6982,-118.8884"/>
<polygon fill="#000000" stroke="#000000" points="1403.2049,-119.1722 1401.5779,-108.703 1396.3211,-117.9017 1403.2049,-119.1722"/>
<text text-anchor="middle" x="1334.934" y="-169.2417" font-family="Times,serif" font-size="15.00" fill="#666666">Par conséquent … </text>
</g>
<!-- o6 -->
<g id="node15" class="node">
<title>o6</title>
<path fill="#ffffff" stroke="#cd0000" d="M2259.396,-367.5283C2259.396,-367.5283 1868.048,-367.5283 1868.048,-367.5283 1862.048,-367.5283 1856.048,-361.5283 1856.048,-355.5283 1856.048,-355.5283 1856.048,-245.5283 1856.048,-245.5283 1856.048,-239.5283 1862.048,-233.5283 1868.048,-233.5283 1868.048,-233.5283 2259.396,-233.5283 2259.396,-233.5283 2265.396,-233.5283 2271.396,-239.5283 2271.396,-245.5283 2271.396,-245.5283 2271.396,-355.5283 2271.396,-355.5283 2271.396,-361.5283 2265.396,-367.5283 2259.396,-367.5283"/>
<text text-anchor="middle" x="2063.722" y="-342.5283" font-family="Times,serif" font-size="20.00" fill="#000000">Cette identification est&#45;elle légitime ?</text>
<text text-anchor="middle" x="2063.722" y="-318.5283" font-family="Times,serif" font-size="20.00" fill="#000000">L&#39;argument ne prouve au mieux que l&#39;existence</text>
<text text-anchor="middle" x="2063.722" y="-294.5283" font-family="Times,serif" font-size="20.00" fill="#000000">d&#39;un être nécessaire, et non l&#39;existence d&#39;un être</text>
<text text-anchor="middle" x="2063.722" y="-270.5283" font-family="Times,serif" font-size="20.00" fill="#000000">personnel, parfait, tout&#45;puissant, omniscient, </text>
<text text-anchor="middle" x="2063.722" y="-246.5283" font-family="Times,serif" font-size="20.00" fill="#000000">bienveillant, et libre créateur du monde</text>
</g>
<!-- p6&#45;&gt;o6 -->
<g id="edge15" class="edge">
<title>p6&#45;&gt;o6</title>
<path fill="none" stroke="#cd0000" stroke-width=".8" d="M1581.7602,-300.5283C1652.4695,-300.5283 1755.2903,-300.5283 1847.8173,-300.5283"/>
<polygon fill="#cd0000" stroke="#cd0000" stroke-width=".8" points="1847.8803,-303.3284 1855.8803,-300.5283 1847.8803,-297.7284 1847.8803,-303.3284"/>
<text text-anchor="middle" x="1718.9029" y="-307.7283" font-family="Times,serif" font-size="14.00" fill="#8b0000"> Mais …</text>
</g>
</g>
</svg>
