<?xml version="1.0" encoding="UTF-8" standalone="no"?><!DOCTYPE svg PUBLIC "-//W3C//DTD SVG 1.1//EN" "http://www.w3.org/Graphics/SVG/1.1/DTD/svg11.dtd"><!-- Generated by graphviz version 2.40.1 (20161225.0304)
 --><!-- Title: G Pages: 1 --><svg xmlns="http://www.w3.org/2000/svg" xmlns:xlink="http://www.w3.org/1999/xlink" width="1356pt" height="864pt" viewBox="0.00 0.00 1356.26 864.21">
<g id="remarques+objections_graph0" class="graph" transform="scale(1 1) rotate(0) translate(4 860.2067)">
<title>G</title>
<polygon fill="#ffffff" stroke="transparent" points="-4,4 -4,-860.2067 1352.2564,-860.2067 1352.2564,4 -4,4"/>
<g id="remarques+objections_clust3" class="cluster">
<title>cluster_0</title>
<path fill="#e5e5e5" stroke="#7f7f7f" d="M307.0898,-8C307.0898,-8 1030.0898,-8 1030.0898,-8 1036.0898,-8 1042.0898,-14 1042.0898,-20 1042.0898,-20 1042.0898,-755.2067 1042.0898,-755.2067 1042.0898,-761.2067 1036.0898,-767.2067 1030.0898,-767.2067 1030.0898,-767.2067 307.0898,-767.2067 307.0898,-767.2067 301.0898,-767.2067 295.0898,-761.2067 295.0898,-755.2067 295.0898,-755.2067 295.0898,-20 295.0898,-20 295.0898,-14 301.0898,-8 307.0898,-8"/>
</g>
<!-- 0 -->
<!-- o1 -->
<g id="remarques+objections_node2_remarques+objections" class="node">
<title>o1</title>
<path fill="none" stroke="#ee0000" stroke-width=".8" d="M184.2695,-570.6078C184.2695,-570.6078 11.9101,-570.6078 11.9101,-570.6078 5.9101,-570.6078 -.0899,-564.6078 -.0899,-558.6078 -.0899,-558.6078 -.0899,-509.8056 -.0899,-509.8056 -.0899,-503.8056 5.9101,-497.8056 11.9101,-497.8056 11.9101,-497.8056 184.2695,-497.8056 184.2695,-497.8056 190.2695,-497.8056 196.2695,-503.8056 196.2695,-509.8056 196.2695,-509.8056 196.2695,-558.6078 196.2695,-558.6078 196.2695,-564.6078 190.2695,-570.6078 184.2695,-570.6078"/>
<text text-anchor="middle" x="98.0898" y="-546.8067" font-family="Times,serif" font-size="14.00" fill="#000000">Ne peut-on pas distinguer des</text>
<text text-anchor="middle" x="98.0898" y="-530.0067" font-family="Times,serif" font-size="14.00" fill="#000000">degrés d'objectivité dans les</text>
<text text-anchor="middle" x="98.0898" y="-513.2067" font-family="Times,serif" font-size="14.00" fill="#000000">descriptions que nous faisons ?</text>
</g>
<!-- 0&#45;&gt;o1 -->
<!-- r1 -->
<g id="remarques+objections_node7_remarques+objections" class="node">
<title>r1</title>
<polygon fill="#ffffff" stroke="#00008b" stroke-width=".3" points="270.5529,-746.6067 109.6267,-746.6067 109.6267,-648.6067 270.5529,-648.6067 270.5529,-746.6067"/>
<text text-anchor="middle" x="190.0898" y="-727.0067" font-family="Times,serif" font-size="14.00" fill="#00008b">= thèse de la dépendance</text>
<text text-anchor="middle" x="190.0898" y="-710.2067" font-family="Times,serif" font-size="14.00" fill="#00008b">conceptuelle des faits :</text>
<text text-anchor="middle" x="190.0898" y="-693.4067" font-family="Times,serif" font-size="14.00" fill="#00008b">on ne peut pas parler d'un</text>
<text text-anchor="middle" x="190.0898" y="-676.6067" font-family="Times,serif" font-size="14.00" fill="#00008b">fait sans un ensemble de</text>
<text text-anchor="middle" x="190.0898" y="-659.8067" font-family="Times,serif" font-size="14.00" fill="#00008b">concepts pour le décrire</text>
</g>
<!-- 0&#45;&gt;r1 -->
<!-- p4 -->
<g id="remarques+objections_node4_remarques+objections" class="node">
<title>p4</title>
<path fill="#ffffff" stroke="#000000" d="M568.391,-578.9069C568.391,-578.9069 331.7886,-578.9069 331.7886,-578.9069 325.7886,-578.9069 319.7886,-572.9069 319.7886,-566.9069 319.7886,-566.9069 319.7886,-501.5065 319.7886,-501.5065 319.7886,-495.5065 325.7886,-489.5065 331.7886,-489.5065 331.7886,-489.5065 568.391,-489.5065 568.391,-489.5065 574.391,-489.5065 580.391,-495.5065 580.391,-501.5065 580.391,-501.5065 580.391,-566.9069 580.391,-566.9069 580.391,-572.9069 574.391,-578.9069 568.391,-578.9069"/>
<text text-anchor="middle" x="450.0898" y="-555.2067" font-family="Times,serif" font-size="14.00" fill="#000000">Il n’y a pas de description neutre et</text>
<text text-anchor="middle" x="450.0898" y="-538.4067" font-family="Times,serif" font-size="14.00" fill="#000000">objective du monde : toute description est</text>
<text text-anchor="middle" x="450.0898" y="-521.6067" font-family="Times,serif" font-size="14.00" fill="#000000">l’expression d’un engagement subjectif</text>
<text text-anchor="middle" x="450.0898" y="-504.8067" font-family="Times,serif" font-size="14.00" fill="#000000">envers un système particulier de concepts</text>
</g>
<!-- o1&#45;&gt;p4 -->
<g id="remarques+objections_edge2" class="edge">
<title>o1-&gt;p4</title>
<path fill="none" stroke="#ee0000" stroke-width=".8" d="M206.9643,-547.523C234.5739,-548.3097 267.5148,-546.9867 319.8543,-543.554"/>
<polygon fill="#ee0000" stroke="#ee0000" stroke-width=".8" points="206.7436,-544.0118 196.6144,-547.1182 206.4699,-551.0064 206.7436,-544.0118"/>
<text text-anchor="middle" x="232.5602" y="-550.1227" font-family="Times,serif" font-size="10.00" fill="#666666">objection !</text>
</g>
<!-- o2 -->
<g id="remarques+objections_node3_remarques+objections" class="node">
<title>o2</title>
<path fill="none" stroke="#ee0000" stroke-width=".8" d="M1336.4232,-595.5069C1336.4232,-595.5069 1113.7564,-595.5069 1113.7564,-595.5069 1107.7564,-595.5069 1101.7564,-589.5069 1101.7564,-583.5069 1101.7564,-583.5069 1101.7564,-484.9066 1101.7564,-484.9066 1101.7564,-478.9066 1107.7564,-472.9066 1113.7564,-472.9066 1113.7564,-472.9066 1336.4232,-472.9066 1336.4232,-472.9066 1342.4232,-472.9066 1348.4232,-478.9066 1348.4232,-484.9066 1348.4232,-484.9066 1348.4232,-583.5069 1348.4232,-583.5069 1348.4232,-589.5069 1342.4232,-595.5069 1336.4232,-595.5069"/>
<text text-anchor="middle" x="1225.0898" y="-572.0067" font-family="Times,serif" font-size="14.00" fill="#000000">Peut-on vraiment mettre sur le même</text>
<text text-anchor="middle" x="1225.0898" y="-555.2067" font-family="Times,serif" font-size="14.00" fill="#000000">plan tous les systèmes de concepts ?</text>
<text text-anchor="middle" x="1225.0898" y="-538.4067" font-family="Times,serif" font-size="14.00" fill="#000000">Est-il vraiment impossible de comparer</text>
<text text-anchor="middle" x="1225.0898" y="-521.6067" font-family="Times,serif" font-size="14.00" fill="#000000">les différents systèmes de concepts ?</text>
<text text-anchor="middle" x="1225.0898" y="-504.8067" font-family="Times,serif" font-size="14.00" fill="#000000">N'y a-t-il pas des concepts qui sont plus</text>
<text text-anchor="middle" x="1225.0898" y="-488.0067" font-family="Times,serif" font-size="14.00" fill="#000000">clairs, plus précis, plus adéquats ?</text>
</g>
<!-- p7 -->
<g id="remarques+objections_node6_remarques+objections" class="node">
<title>p7</title>
<path fill="#ffffff" stroke="#000000" d="M982.5338,-578.9069C982.5338,-578.9069 781.6458,-578.9069 781.6458,-578.9069 775.6458,-578.9069 769.6458,-572.9069 769.6458,-566.9069 769.6458,-566.9069 769.6458,-501.5065 769.6458,-501.5065 769.6458,-495.5065 775.6458,-489.5065 781.6458,-489.5065 781.6458,-489.5065 982.5338,-489.5065 982.5338,-489.5065 988.5338,-489.5065 994.5338,-495.5065 994.5338,-501.5065 994.5338,-501.5065 994.5338,-566.9069 994.5338,-566.9069 994.5338,-572.9069 988.5338,-578.9069 982.5338,-578.9069"/>
<text text-anchor="middle" x="882.0898" y="-555.2067" font-family="Times,serif" font-size="14.00" fill="#000000">On ne peut pas hiérarchiser les</text>
<text text-anchor="middle" x="882.0898" y="-538.4067" font-family="Times,serif" font-size="14.00" fill="#000000">différents systèmes de concepts :</text>
<text text-anchor="middle" x="882.0898" y="-521.6067" font-family="Times,serif" font-size="14.00" fill="#000000">aucun système de concepts n’est</text>
<text text-anchor="middle" x="882.0898" y="-504.8067" font-family="Times,serif" font-size="14.00" fill="#000000">objectivement meilleur qu’un autre</text>
</g>
<!-- o2&#45;&gt;p7 -->
<g id="remarques+objections_edge4" class="edge">
<title>o2:w-&gt;p7:e</title>
<path fill="none" stroke="#ee0000" stroke-width=".8" d="M994.0898,-534.2067C1060.3984,-539.4346 1067.91,-540.0269 1091.922,-535.9834"/>
<polygon fill="#ee0000" stroke="#ee0000" stroke-width=".8" points="1092.8415,-539.3758 1102.0898,-534.2067 1091.6366,-532.4803 1092.8415,-539.3758"/>
<text text-anchor="middle" x="1037.3644" y="-541.5723" font-family="Times,serif" font-size="10.00" fill="#666666">objection !</text>
</g>
<!-- p3 -->
<g id="remarques+objections_node8_remarques+objections" class="node">
<title>p3</title>
<path fill="#ffffff" stroke="#000000" d="M739.8817,-570.6078C739.8817,-570.6078 610.2979,-570.6078 610.2979,-570.6078 604.2979,-570.6078 598.2979,-564.6078 598.2979,-558.6078 598.2979,-558.6078 598.2979,-509.8056 598.2979,-509.8056 598.2979,-503.8056 604.2979,-497.8056 610.2979,-497.8056 610.2979,-497.8056 739.8817,-497.8056 739.8817,-497.8056 745.8817,-497.8056 751.8817,-503.8056 751.8817,-509.8056 751.8817,-509.8056 751.8817,-558.6078 751.8817,-558.6078 751.8817,-564.6078 745.8817,-570.6078 739.8817,-570.6078"/>
<text text-anchor="middle" x="675.0898" y="-546.8067" font-family="Times,serif" font-size="14.00" fill="#000000">Toute description du</text>
<text text-anchor="middle" x="675.0898" y="-530.0067" font-family="Times,serif" font-size="14.00" fill="#000000">monde est relative à un</text>
<text text-anchor="middle" x="675.0898" y="-513.2067" font-family="Times,serif" font-size="14.00" fill="#000000">système de concepts</text>
</g>
<!-- p4&#45;&gt;p3 -->
<!-- PL2 -->
<g id="remarques+objections_node10_remarques+objections" class="node">
<title>PL2</title>
<polygon fill="#e0e0e0" stroke="transparent" points="659.0898,-464.8067 371.0898,-464.8067 371.0898,-463.8067 659.0898,-463.8067 659.0898,-464.8067"/>
<polyline fill="none" stroke="#000000" points="371.0898,-463.8067 659.0898,-463.8067 "/>
</g>
<!-- p4&#45;&gt;PL2 -->
<!-- d -->
<!-- d&#45;&gt;o2 -->
<!-- PL3 -->
<g id="remarques+objections_node11_remarques+objections" class="node">
<title>PL3</title>
<polygon fill="#e0e0e0" stroke="transparent" points="965.0898,-464.8067 677.0898,-464.8067 677.0898,-463.8067 965.0898,-463.8067 965.0898,-464.8067"/>
<polyline fill="none" stroke="#000000" points="677.0898,-463.8067 965.0898,-463.8067 "/>
</g>
<!-- p7&#45;&gt;PL3 -->
<!-- r1&#45;&gt;p3 -->
<g id="remarques+objections_edge6" class="edge">
<title>r1-&gt;p3:n</title>
<path fill="none" stroke="#00008b" stroke-width=".65" stroke-dasharray="5,2" d="M270.6414,-697.3374C367.9328,-694.2341 417.2793,-674.3084 675.0898,-570.2067"/>
</g>
<!-- p3&#45;&gt;p7 -->
<!-- p3&#45;&gt;PL2 -->
<!-- p3&#45;&gt;PL3 -->
<!-- PL1 -->
<g id="remarques+objections_node9_remarques+objections" class="node">
<title>PL1</title>
<polygon fill="#e0e0e0" stroke="transparent" points="918.0898,-179.2067 594.0898,-179.2067 594.0898,-178.2067 918.0898,-178.2067 918.0898,-179.2067"/>
<polyline fill="none" stroke="#000000" points="594.0898,-178.2067 918.0898,-178.2067 "/>
</g>
<!-- C -->
<g id="remarques+objections_node15_remarques+objections" class="node">
<title>C</title>
<ellipse fill="#000000" stroke="#000000" cx="756.0898" cy="-79.1034" rx="75.9821" ry="46.207"/>
<text text-anchor="middle" x="756.0898" y="-84.5034" font-family="Times,serif" font-size="18.00" fill="#ffffff">La vérité</text>
<text text-anchor="middle" x="756.0898" y="-62.9034" font-family="Times,serif" font-size="18.00" fill="#ffffff">n'existe pas</text>
</g>
<!-- PL1&#45;&gt;C -->
<g id="remarques+objections_edge9" class="edge">
<title>PL1-&gt;C</title>
<path fill="none" stroke="#000000" d="M756.1512,-177.9011C757.5539,-159.5082 758.5768,-146.0664 759.22,-135.6455"/>
<polygon fill="#000000" stroke="#000000" points="762.7271,-135.6054 759.7689,-125.4319 755.7372,-135.2297 762.7271,-135.6054"/>
<text text-anchor="middle" x="729.0247" y="-166.8518" font-family="Times,serif" font-size="10.00" fill="#666666">par</text>
<text text-anchor="middle" x="729.0247" y="-154.8518" font-family="Times,serif" font-size="10.00" fill="#666666">conséquent …</text>
</g>
<!-- p8 -->
<g id="remarques+objections_node16_remarques+objections" class="node">
<title>p8</title>
<path fill="#ffffff" stroke="#000000" d="M648.6986,-411.0078C648.6986,-411.0078 411.481,-411.0078 411.481,-411.0078 405.481,-411.0078 399.481,-405.0078 399.481,-399.0078 399.481,-399.0078 399.481,-350.2056 399.481,-350.2056 399.481,-344.2056 405.481,-338.2056 411.481,-338.2056 411.481,-338.2056 648.6986,-338.2056 648.6986,-338.2056 654.6986,-338.2056 660.6986,-344.2056 660.6986,-350.2056 660.6986,-350.2056 660.6986,-399.0078 660.6986,-399.0078 660.6986,-405.0078 654.6986,-411.0078 648.6986,-411.0078"/>
<text text-anchor="middle" x="530.0898" y="-387.2067" font-family="Times,serif" font-size="14.00" fill="#000000">On ne peut pas dire que certaines</text>
<text text-anchor="middle" x="530.0898" y="-370.4067" font-family="Times,serif" font-size="14.00" fill="#000000">descriptions sont objectivement meilleures</text>
<text text-anchor="middle" x="530.0898" y="-353.6067" font-family="Times,serif" font-size="14.00" fill="#000000">en les comparant au monde lui-même</text>
</g>
<!-- PL2&#45;&gt;p8 -->
<g id="remarques+objections_edge13" class="edge">
<title>PL2-&gt;p8</title>
<path fill="none" stroke="#000000" d="M514.9654,-463.7711C510.0188,-442.4767 507.4169,-431.1434 508.6943,-420.5937"/>
<polygon fill="#000000" stroke="#000000" points="512.1001,-421.4 511.0021,-410.8623 505.289,-419.7848 512.1001,-421.4"/>
<text text-anchor="middle" x="480.3072" y="-428.5183" font-family="Times,serif" font-size="10.00" fill="#666666">par</text>
<text text-anchor="middle" x="480.3072" y="-416.5183" font-family="Times,serif" font-size="10.00" fill="#666666">conséquent …</text>
</g>
<!-- p9 -->
<g id="remarques+objections_node17_remarques+objections" class="node">
<title>p9</title>
<path fill="#ffffff" stroke="#000000" d="M934.6986,-411.0078C934.6986,-411.0078 697.481,-411.0078 697.481,-411.0078 691.481,-411.0078 685.481,-405.0078 685.481,-399.0078 685.481,-399.0078 685.481,-350.2056 685.481,-350.2056 685.481,-344.2056 691.481,-338.2056 697.481,-338.2056 697.481,-338.2056 934.6986,-338.2056 934.6986,-338.2056 940.6986,-338.2056 946.6986,-344.2056 946.6986,-350.2056 946.6986,-350.2056 946.6986,-399.0078 946.6986,-399.0078 946.6986,-405.0078 940.6986,-411.0078 934.6986,-411.0078"/>
<text text-anchor="middle" x="816.0898" y="-387.2067" font-family="Times,serif" font-size="14.00" fill="#000000">On ne peut pas dire que certaines</text>
<text text-anchor="middle" x="816.0898" y="-370.4067" font-family="Times,serif" font-size="14.00" fill="#000000">descriptions sont objectivement meilleures</text>
<text text-anchor="middle" x="816.0898" y="-353.6067" font-family="Times,serif" font-size="14.00" fill="#000000">en comparant les descriptions entre elles</text>
</g>
<!-- PL3&#45;&gt;p9 -->
<g id="remarques+objections_edge16" class="edge">
<title>PL3-&gt;p9</title>
<path fill="none" stroke="#000000" d="M821.27,-463.7707C828.3599,-442.6764 832.1376,-431.349 832.107,-420.889"/>
<polygon fill="#000000" stroke="#000000" points="835.5668,-420.3447 830.8946,-410.8357 828.6171,-421.1829 835.5668,-420.3447"/>
<text text-anchor="middle" x="800.3567" y="-429.0253" font-family="Times,serif" font-size="10.00" fill="#666666">par</text>
<text text-anchor="middle" x="800.3567" y="-417.0253" font-family="Times,serif" font-size="10.00" fill="#666666">conséquent …</text>
</g>
<!-- PL4 -->
<g id="remarques+objections_node12_remarques+objections" class="node">
<title>PL4</title>
<polygon fill="#e0e0e0" stroke="transparent" points="837.0898,-330.4067 477.0898,-330.4067 477.0898,-329.4067 837.0898,-329.4067 837.0898,-330.4067"/>
<polyline fill="none" stroke="#000000" points="477.0898,-329.4067 837.0898,-329.4067 "/>
</g>
<!-- p5 -->
<g id="remarques+objections_node14_remarques+objections" class="node">
<title>p5</title>
<path fill="#ffffff" stroke="#000000" d="M748.9007,-268.2078C748.9007,-268.2078 565.2789,-268.2078 565.2789,-268.2078 559.2789,-268.2078 553.2789,-262.2078 553.2789,-256.2078 553.2789,-256.2078 553.2789,-207.4056 553.2789,-207.4056 553.2789,-201.4056 559.2789,-195.4056 565.2789,-195.4056 565.2789,-195.4056 748.9007,-195.4056 748.9007,-195.4056 754.9007,-195.4056 760.9007,-201.4056 760.9007,-207.4056 760.9007,-207.4056 760.9007,-256.2078 760.9007,-256.2078 760.9007,-262.2078 754.9007,-268.2078 748.9007,-268.2078"/>
<text text-anchor="middle" x="657.0898" y="-244.4067" font-family="Times,serif" font-size="14.00" fill="#000000">On ne peut pas dire que certaines</text>
<text text-anchor="middle" x="657.0898" y="-227.6067" font-family="Times,serif" font-size="14.00" fill="#000000">descriptions sont objectivement</text>
<text text-anchor="middle" x="657.0898" y="-210.8067" font-family="Times,serif" font-size="14.00" fill="#000000">meilleures que d'autres</text>
</g>
<!-- PL4&#45;&gt;p5 -->
<g id="remarques+objections_edge19" class="edge">
<title>PL4-&gt;p5</title>
<path fill="none" stroke="#000000" d="M657.0635,-329.1067C656.2734,-305.0932 655.7644,-289.5779 655.5367,-278.2417"/>
<polygon fill="#000000" stroke="#000000" points="659.0351,-278.0911 655.4027,-268.1385 652.0357,-278.1841 659.0351,-278.0911"/>
<text text-anchor="middle" x="626.9903" y="-313.5324" font-family="Times,serif" font-size="10.00" fill="#666666">par</text>
<text text-anchor="middle" x="626.9903" y="-301.5324" font-family="Times,serif" font-size="10.00" fill="#666666">conséquent …</text>
</g>
<!-- p1 -->
<g id="remarques+objections_node13_remarques+objections" class="node">
<title>p1</title>
<path fill="#ffffff" stroke="#000000" d="M1004.9465,-276.5069C1004.9465,-276.5069 791.2331,-276.5069 791.2331,-276.5069 785.2331,-276.5069 779.2331,-270.5069 779.2331,-264.5069 779.2331,-264.5069 779.2331,-199.1065 779.2331,-199.1065 779.2331,-193.1065 785.2331,-187.1065 791.2331,-187.1065 791.2331,-187.1065 1004.9465,-187.1065 1004.9465,-187.1065 1010.9465,-187.1065 1016.9465,-193.1065 1016.9465,-199.1065 1016.9465,-199.1065 1016.9465,-264.5069 1016.9465,-264.5069 1016.9465,-270.5069 1010.9465,-276.5069 1004.9465,-276.5069"/>
<text text-anchor="middle" x="898.0898" y="-252.8067" font-family="Times,serif" font-size="14.00" fill="#000000">Si la vérité existe, cela signifie que</text>
<text text-anchor="middle" x="898.0898" y="-236.0067" font-family="Times,serif" font-size="14.00" fill="#000000">certaines descriptions correspondent à</text>
<text text-anchor="middle" x="898.0898" y="-219.2067" font-family="Times,serif" font-size="14.00" fill="#000000">la réalité et sont donc objectivement</text>
<text text-anchor="middle" x="898.0898" y="-202.4067" font-family="Times,serif" font-size="14.00" fill="#000000">meilleures que d'autres</text>
</g>
<!-- p1&#45;&gt;PL1 -->
<!-- p5&#45;&gt;PL1 -->
<!-- p5&#45;&gt;p1 -->
<!-- p8&#45;&gt;PL4 -->
<!-- p9&#45;&gt;PL4 -->
<!-- p6 -->
<g id="remarques+objections_node18_remarques+objections" class="node">
<title>p6</title>
<path fill="#ffffff" stroke="#000000" d="M790.4378,-742.3069C790.4378,-742.3069 559.7418,-742.3069 559.7418,-742.3069 553.7418,-742.3069 547.7418,-736.3069 547.7418,-730.3069 547.7418,-730.3069 547.7418,-664.9065 547.7418,-664.9065 547.7418,-658.9065 553.7418,-652.9065 559.7418,-652.9065 559.7418,-652.9065 790.4378,-652.9065 790.4378,-652.9065 796.4378,-652.9065 802.4378,-658.9065 802.4378,-664.9065 802.4378,-664.9065 802.4378,-730.3069 802.4378,-730.3069 802.4378,-736.3069 796.4378,-742.3069 790.4378,-742.3069"/>
<text text-anchor="middle" x="675.0898" y="-718.6067" font-family="Times,serif" font-size="14.00" fill="#000000">Pour décrire le monde, nous avons</text>
<text text-anchor="middle" x="675.0898" y="-701.8067" font-family="Times,serif" font-size="14.00" fill="#000000">besoin de concepts afin de faire des</text>
<text text-anchor="middle" x="675.0898" y="-685.0067" font-family="Times,serif" font-size="14.00" fill="#000000">différences dans ce que nous percevons</text>
<text text-anchor="middle" x="675.0898" y="-668.2067" font-family="Times,serif" font-size="14.00" fill="#000000">et d'identifier des objets et des propriétés</text>
</g>
<!-- p6&#45;&gt;p3 -->
<g id="remarques+objections_edge22" class="edge">
<title>p6-&gt;p3</title>
<path fill="none" stroke="#000000" d="M675.2093,-652.8613C675.2258,-636.8113 675.2083,-617.7611 675.157,-580.8076"/>
<polygon fill="#000000" stroke="#000000" points="678.6566,-580.4564 675.1424,-570.4614 671.6566,-580.4663 678.6566,-580.4564"/>
<text text-anchor="middle" x="646.1089" y="-626.2967" font-family="Times,serif" font-size="10.00" fill="#666666">par</text>
<text text-anchor="middle" x="646.1089" y="-614.2967" font-family="Times,serif" font-size="10.00" fill="#666666">conséquent …</text>
</g>
<!-- vide1 -->
<!-- vide1&#45;&gt;p5 -->
</g>
</svg>