<?xml version="1.0" encoding="UTF-8" standalone="no"?>
<!DOCTYPE svg PUBLIC "-//W3C//DTD SVG 1.1//EN"
 "http://www.w3.org/Graphics/SVG/1.1/DTD/svg11.dtd">
<!-- Generated by graphviz version 2.40.1 (20161225.0304)
 -->
<!-- Title: G Pages: 1 -->
<svg width="2062pt" height="1459pt"
 viewBox="0.00 0.00 2062.09 1458.53" xmlns="http://www.w3.org/2000/svg" xmlns:xlink="http://www.w3.org/1999/xlink">
<g id="graph0" class="graph" transform="scale(1 1) rotate(0) translate(4 1454.5283)">
<title>G</title>
<polygon fill="#ffffff" stroke="transparent" points="-4,4 -4,-1454.5283 2058.0851,-1454.5283 2058.0851,4 -4,4"/>
<g id="clust2" class="cluster">
<title>cluster_0</title>
<path fill="#e5e5e5" stroke="#7f7f7f" d="M617.7893,-8C617.7893,-8 1477.7893,-8 1477.7893,-8 1483.7893,-8 1489.7893,-14 1489.7893,-20 1489.7893,-20 1489.7893,-1386.7283 1489.7893,-1386.7283 1489.7893,-1392.7283 1483.7893,-1398.7283 1477.7893,-1398.7283 1477.7893,-1398.7283 617.7893,-1398.7283 617.7893,-1398.7283 611.7893,-1398.7283 605.7893,-1392.7283 605.7893,-1386.7283 605.7893,-1386.7283 605.7893,-20 605.7893,-20 605.7893,-14 611.7893,-8 617.7893,-8"/>
</g>
<g id="clust7" class="cluster">
<title>cluster_2</title>
<polygon fill="#bababa" stroke="#bababa" points="868.7893,-391.7283 868.7893,-550.9283 1363.7893,-550.9283 1363.7893,-391.7283 868.7893,-391.7283"/>
</g>
<g id="clust5" class="cluster">
<title>cluster_1</title>
<polygon fill="#bababa" stroke="#bababa" points="655.7893,-621.3283 655.7893,-751.7283 1120.7893,-751.7283 1120.7893,-621.3283 655.7893,-621.3283"/>
</g>
<g id="clust9" class="cluster">
<title>cluster_3</title>
<polygon fill="#bababa" stroke="#bababa" points="934.7893,-179.5283 934.7893,-338.7283 1446.7893,-338.7283 1446.7893,-179.5283 934.7893,-179.5283"/>
</g>
<!-- o2a1 -->
<g id="node1" class="node">
<title>o2a1</title>
<path fill="#ffffff" stroke="#cd0000" d="M553.3681,-1450.4284C553.3681,-1450.4284 12.2105,-1450.4284 12.2105,-1450.4284 6.2105,-1450.4284 .2105,-1444.4284 .2105,-1438.4284 .2105,-1438.4284 .2105,-1101.8283 .2105,-1101.8283 .2105,-1095.8283 6.2105,-1089.8283 12.2105,-1089.8283 12.2105,-1089.8283 553.3681,-1089.8283 553.3681,-1089.8283 559.3681,-1089.8283 565.3681,-1095.8283 565.3681,-1101.8283 565.3681,-1101.8283 565.3681,-1438.4284 565.3681,-1438.4284 565.3681,-1444.4284 559.3681,-1450.4284 553.3681,-1450.4284"/>
<text text-anchor="middle" x="282.7893" y="-1428.2283" font-family="Times,serif" font-size="17.00" fill="#000000">D&#39;après cet argument, un passé infini conduirait à ce type d&#39;absurdités : </text>
<text text-anchor="middle" x="282.7893" y="-1407.8283" font-family="Times,serif" font-size="17.00" fill="#000000">1/ Si le passé était infini, cela serait à la fois possible et impossible qu&#39;à</text>
<text text-anchor="middle" x="282.7893" y="-1387.4283" font-family="Times,serif" font-size="17.00" fill="#000000">chaque instant du temps un être immortel ait terminé de compter</text>
<text text-anchor="middle" x="282.7893" y="-1367.0283" font-family="Times,serif" font-size="17.00" fill="#000000">l&#39;ensemble des nombres entiers : ce serait possible car il avait</text>
<text text-anchor="middle" x="282.7893" y="-1346.6283" font-family="Times,serif" font-size="17.00" fill="#000000">suffisamment de temps (un temps infini) pour le faire, mais ce</text>
<text text-anchor="middle" x="282.7893" y="-1326.2283" font-family="Times,serif" font-size="17.00" fill="#000000">serait aussi impossible car il aurait déjà dû avoir fini l&#39;instant</text>
<text text-anchor="middle" x="282.7893" y="-1305.8283" font-family="Times,serif" font-size="17.00" fill="#000000">d&#39;avant (puisqu&#39;il disposait également d&#39;un temps infini)</text>
<text text-anchor="middle" x="282.7893" y="-1285.4283" font-family="Times,serif" font-size="17.00" fill="#000000">2/ un “hôtel d&#39;Hilbert” pourrait exister : il s&#39;agit d&#39;un hôtel avec une </text>
<text text-anchor="middle" x="282.7893" y="-1265.0283" font-family="Times,serif" font-size="17.00" fill="#000000">infinité de places, dans lequel on peut toujours trouver de la place à de</text>
<text text-anchor="middle" x="282.7893" y="-1244.6283" font-family="Times,serif" font-size="17.00" fill="#000000">nouveaux clients même quand l&#39;hôtel est plein, et dans lequel le départ</text>
<text text-anchor="middle" x="282.7893" y="-1224.2283" font-family="Times,serif" font-size="17.00" fill="#000000">de clients peut ne rien changer au nombre de places disponibles.</text>
<text text-anchor="middle" x="282.7893" y="-1203.8283" font-family="Times,serif" font-size="17.00" fill="#000000">Mais ces absurdités ne constituent&#45;elles pas seulement des paradoxes apparents ?</text>
<text text-anchor="middle" x="282.7893" y="-1183.4283" font-family="Times,serif" font-size="17.00" fill="#000000">Plusieurs auteurs ont proposé de résoudre ces paradoxes, soit en remettant</text>
<text text-anchor="middle" x="282.7893" y="-1163.0283" font-family="Times,serif" font-size="17.00" fill="#000000">en cause la possibilité du scénario imaginé, soit en soulignant que la</text>
<text text-anchor="middle" x="282.7893" y="-1142.6283" font-family="Times,serif" font-size="17.00" fill="#000000">prétendue impossibilité n&#39;était qu&#39;une pétition de principe et qu&#39;elle</text>
<text text-anchor="middle" x="282.7893" y="-1122.2283" font-family="Times,serif" font-size="17.00" fill="#000000">reposait simplement sur le refus d&#39;admettre l&#39;existence réelle d&#39;ensembles</text>
<text text-anchor="middle" x="282.7893" y="-1101.8283" font-family="Times,serif" font-size="17.00" fill="#000000">infinis et les propriétés, certes contre&#45;intuitives, de ces ensembles</text>
</g>
<!-- p2a1 -->
<g id="node5" class="node">
<title>p2a1</title>
<path fill="#ffffff" stroke="#000000" d="M986.018,-1328.1283C986.018,-1328.1283 657.5606,-1328.1283 657.5606,-1328.1283 651.5606,-1328.1283 645.5606,-1322.1283 645.5606,-1316.1283 645.5606,-1316.1283 645.5606,-1224.1283 645.5606,-1224.1283 645.5606,-1218.1283 651.5606,-1212.1283 657.5606,-1212.1283 657.5606,-1212.1283 986.018,-1212.1283 986.018,-1212.1283 992.018,-1212.1283 998.018,-1218.1283 998.018,-1224.1283 998.018,-1224.1283 998.018,-1316.1283 998.018,-1316.1283 998.018,-1322.1283 992.018,-1328.1283 986.018,-1328.1283"/>
<text text-anchor="middle" x="821.7893" y="-1305.8283" font-family="Times,serif" font-size="17.00" fill="#000000">(2a1) Si le passé est infini, cela voudrait dire</text>
<text text-anchor="middle" x="821.7893" y="-1285.4283" font-family="Times,serif" font-size="17.00" fill="#000000">qu&#39;un ensemble infini pourrait réellement exister,</text>
<text text-anchor="middle" x="821.7893" y="-1265.0283" font-family="Times,serif" font-size="17.00" fill="#000000">alors que les ensembles infinis ne sont que des</text>
<text text-anchor="middle" x="821.7893" y="-1244.6283" font-family="Times,serif" font-size="17.00" fill="#000000">constructions mathématiques : l&#39;existence réelle</text>
<text text-anchor="middle" x="821.7893" y="-1224.2283" font-family="Times,serif" font-size="17.00" fill="#000000">d&#39;un ensemble infini conduirait à des absurdités</text>
</g>
<!-- o2a1&#45;&gt;p2a1 -->
<g id="edge16" class="edge">
<title>o2a1&#45;&gt;p2a1</title>
<path fill="none" stroke="#cd0000" stroke-width=".8" d="M573.9861,-1270.1283C598.376,-1270.1283 622.5274,-1270.1283 645.6342,-1270.1283"/>
<polygon fill="#cd0000" stroke="#cd0000" stroke-width=".8" points="573.7068,-1267.3284 565.7067,-1270.1283 573.7067,-1272.9284 573.7068,-1267.3284"/>
<text text-anchor="middle" x="605.6268" y="-1276.7283" font-family="Times,serif" font-size="12.00" fill="#8b0000"> Mais …</text>
</g>
<!-- o1 -->
<g id="node2" class="node">
<title>o1</title>
<path fill="#ffffff" stroke="#cd0000" d="M553.8553,-769.2285C553.8553,-769.2285 107.7233,-769.2285 107.7233,-769.2285 101.7233,-769.2285 95.7233,-763.2285 95.7233,-757.2285 95.7233,-757.2285 95.7233,-615.8282 95.7233,-615.8282 95.7233,-609.8282 101.7233,-603.8282 107.7233,-603.8282 107.7233,-603.8282 553.8553,-603.8282 553.8553,-603.8282 559.8553,-603.8282 565.8553,-609.8282 565.8553,-615.8282 565.8553,-615.8282 565.8553,-757.2285 565.8553,-757.2285 565.8553,-763.2285 559.8553,-769.2285 553.8553,-769.2285"/>
<text text-anchor="middle" x="330.7893" y="-745.9283" font-family="Times,serif" font-size="18.00" fill="#000000">1/ Le simple refus d&#39;accepter l&#39;apparition magique d&#39;une entité</text>
<text text-anchor="middle" x="330.7893" y="-724.3283" font-family="Times,serif" font-size="18.00" fill="#000000">sans cause explicative peut&#45;il vraiment justifier ce principe ?</text>
<text text-anchor="middle" x="330.7893" y="-702.7283" font-family="Times,serif" font-size="18.00" fill="#000000">L&#39;idée d&#39;un événement sans cause ne semble pas impossible.</text>
<text text-anchor="middle" x="330.7893" y="-681.1283" font-family="Times,serif" font-size="18.00" fill="#000000">2/ Il y a des phénomènes qui semblent être sans causes,</text>
<text text-anchor="middle" x="330.7893" y="-659.5283" font-family="Times,serif" font-size="18.00" fill="#000000">notamment dans le domaine de la physique quantique</text>
<text text-anchor="middle" x="330.7893" y="-637.9283" font-family="Times,serif" font-size="18.00" fill="#000000">3/ Si ce principe s&#39;applique aux événements dans le monde,</text>
<text text-anchor="middle" x="330.7893" y="-616.3283" font-family="Times,serif" font-size="18.00" fill="#000000">peut&#45;on appliquer ce principe au monde lui&#45;même ?</text>
</g>
<!-- p1 -->
<g id="node3" class="node">
<title>p1</title>
<path fill="#ffffff" stroke="#000000" d="M862.7301,-736.9291C862.7301,-736.9291 682.8485,-736.9291 682.8485,-736.9291 676.8485,-736.9291 670.8485,-730.9291 670.8485,-724.9291 670.8485,-724.9291 670.8485,-648.1275 670.8485,-648.1275 670.8485,-642.1275 676.8485,-636.1275 682.8485,-636.1275 682.8485,-636.1275 862.7301,-636.1275 862.7301,-636.1275 868.7301,-636.1275 874.7301,-642.1275 874.7301,-648.1275 874.7301,-648.1275 874.7301,-724.9291 874.7301,-724.9291 874.7301,-730.9291 868.7301,-736.9291 862.7301,-736.9291"/>
<text text-anchor="middle" x="772.7893" y="-708.1283" font-family="Times,serif" font-size="24.00" fill="#000000">(1) Tout ce qui a un</text>
<text text-anchor="middle" x="772.7893" y="-679.3283" font-family="Times,serif" font-size="24.00" fill="#000000">commencement</text>
<text text-anchor="middle" x="772.7893" y="-650.5283" font-family="Times,serif" font-size="24.00" fill="#000000">a une cause</text>
</g>
<!-- o1&#45;&gt;p1 -->
<g id="edge1" class="edge">
<title>o1&#45;&gt;p1</title>
<path fill="none" stroke="#cd0000" stroke-width=".8" d="M574.2081,-686.5283C608.1838,-686.5283 641.4454,-686.5283 670.7362,-686.5283"/>
<polygon fill="#cd0000" stroke="#cd0000" stroke-width=".8" points="574.0247,-683.7284 566.0247,-686.5283 574.0246,-689.3284 574.0247,-683.7284"/>
<text text-anchor="middle" x="618.3206" y="-693.1283" font-family="Times,serif" font-size="12.00" fill="#8b0000"> Mais …</text>
</g>
<!-- p2 -->
<g id="node8" class="node">
<title>p2</title>
<path fill="#ffffff" stroke="#000000" d="M1093.7357,-722.1295C1093.7357,-722.1295 921.8429,-722.1295 921.8429,-722.1295 915.8429,-722.1295 909.8429,-716.1295 909.8429,-710.1295 909.8429,-710.1295 909.8429,-662.9272 909.8429,-662.9272 909.8429,-656.9272 915.8429,-650.9272 921.8429,-650.9272 921.8429,-650.9272 1093.7357,-650.9272 1093.7357,-650.9272 1099.7357,-650.9272 1105.7357,-656.9272 1105.7357,-662.9272 1105.7357,-662.9272 1105.7357,-710.1295 1105.7357,-710.1295 1105.7357,-716.1295 1099.7357,-722.1295 1093.7357,-722.1295"/>
<text text-anchor="middle" x="1007.7893" y="-693.7283" font-family="Times,serif" font-size="24.00" fill="#000000">(2) Le monde a</text>
<text text-anchor="middle" x="1007.7893" y="-664.9283" font-family="Times,serif" font-size="24.00" fill="#000000">un commencement</text>
</g>
<!-- p1&#45;&gt;p2 -->
<!-- p2a2 -->
<g id="node4" class="node">
<title>p2a2</title>
<path fill="#ffffff" stroke="#000000" d="M1437.9273,-1358.8285C1437.9273,-1358.8285 1027.6513,-1358.8285 1027.6513,-1358.8285 1021.6513,-1358.8285 1015.6513,-1352.8285 1015.6513,-1346.8285 1015.6513,-1346.8285 1015.6513,-1193.4282 1015.6513,-1193.4282 1015.6513,-1187.4282 1021.6513,-1181.4282 1027.6513,-1181.4282 1027.6513,-1181.4282 1437.9273,-1181.4282 1437.9273,-1181.4282 1443.9273,-1181.4282 1449.9273,-1187.4282 1449.9273,-1193.4282 1449.9273,-1193.4282 1449.9273,-1346.8285 1449.9273,-1346.8285 1449.9273,-1352.8285 1443.9273,-1358.8285 1437.9273,-1358.8285"/>
<text text-anchor="middle" x="1232.7893" y="-1336.4283" font-family="Times,serif" font-size="17.00" fill="#000000">(2a2) Si le passé était infini, cela voudrait dire qu&#39;un</text>
<text text-anchor="middle" x="1232.7893" y="-1316.0283" font-family="Times,serif" font-size="17.00" fill="#000000">ensemble infini (la série des événements passés) pourrait</text>
<text text-anchor="middle" x="1232.7893" y="-1295.6283" font-family="Times,serif" font-size="17.00" fill="#000000">être constitué par une simple succession d&#39;éléments finis</text>
<text text-anchor="middle" x="1232.7893" y="-1275.2283" font-family="Times,serif" font-size="17.00" fill="#000000">(les différents événements), alors que c&#39;est impossible</text>
<text text-anchor="middle" x="1232.7893" y="-1254.8283" font-family="Times,serif" font-size="17.00" fill="#000000">(autrement dit : si le temps est une succession d&#39;événements, </text>
<text text-anchor="middle" x="1232.7893" y="-1234.4283" font-family="Times,serif" font-size="17.00" fill="#000000">et si une succession d&#39;événements ne peut pas constituer un</text>
<text text-anchor="middle" x="1232.7893" y="-1214.0283" font-family="Times,serif" font-size="17.00" fill="#000000">ensemble infini, alors, si le passé est infini, on ne peut</text>
<text text-anchor="middle" x="1232.7893" y="-1193.6283" font-family="Times,serif" font-size="17.00" fill="#000000">jamais atteindre le présent : le présent n&#39;existerait pas)</text>
</g>
<!-- p2b -->
<g id="node6" class="node">
<title>p2b</title>
<path fill="#ffffff" stroke="#000000" d="M1403.1525,-962.0286C1403.1525,-962.0286 1134.4261,-962.0286 1134.4261,-962.0286 1128.4261,-962.0286 1122.4261,-956.0286 1122.4261,-950.0286 1122.4261,-950.0286 1122.4261,-895.4281 1122.4261,-895.4281 1122.4261,-889.4281 1128.4261,-883.4281 1134.4261,-883.4281 1134.4261,-883.4281 1403.1525,-883.4281 1403.1525,-883.4281 1409.1525,-883.4281 1415.1525,-889.4281 1415.1525,-895.4281 1415.1525,-895.4281 1415.1525,-950.0286 1415.1525,-950.0286 1415.1525,-956.0286 1409.1525,-962.0286 1403.1525,-962.0286"/>
<text text-anchor="middle" x="1268.7893" y="-938.9283" font-family="Times,serif" font-size="18.00" fill="#000000">(2b) L&#39;hypothèse d&#39;un passé infini</text>
<text text-anchor="middle" x="1268.7893" y="-917.3283" font-family="Times,serif" font-size="18.00" fill="#000000">n&#39;est pas en accord avec les meilleures</text>
<text text-anchor="middle" x="1268.7893" y="-895.7283" font-family="Times,serif" font-size="18.00" fill="#000000">théories physiques contemporaines</text>
</g>
<!-- p2a2&#45;&gt;p2b -->
<!-- p2a -->
<g id="node7" class="node">
<title>p2a</title>
<path fill="#ffffff" stroke="#000000" d="M966.7293,-962.0286C966.7293,-962.0286 808.8493,-962.0286 808.8493,-962.0286 802.8493,-962.0286 796.8493,-956.0286 796.8493,-950.0286 796.8493,-950.0286 796.8493,-895.4281 796.8493,-895.4281 796.8493,-889.4281 802.8493,-883.4281 808.8493,-883.4281 808.8493,-883.4281 966.7293,-883.4281 966.7293,-883.4281 972.7293,-883.4281 978.7293,-889.4281 978.7293,-895.4281 978.7293,-895.4281 978.7293,-950.0286 978.7293,-950.0286 978.7293,-956.0286 972.7293,-962.0286 966.7293,-962.0286"/>
<text text-anchor="middle" x="887.7893" y="-938.9283" font-family="Times,serif" font-size="18.00" fill="#000000">(2a) L&#39;hypothèse d&#39;un</text>
<text text-anchor="middle" x="887.7893" y="-917.3283" font-family="Times,serif" font-size="18.00" fill="#000000">passé infini conduit à</text>
<text text-anchor="middle" x="887.7893" y="-895.7283" font-family="Times,serif" font-size="18.00" fill="#000000">des contradictions</text>
</g>
<!-- p2a2&#45;&gt;p2a -->
<g id="edge2" class="edge">
<title>p2a2&#45;&gt;p2a</title>
<path fill="none" stroke="#000000" d="M1144.3912,-1181.1153C1077.4635,-1113.722 988.1728,-1023.8102 934.4954,-969.7593"/>
<polygon fill="#000000" stroke="#000000" points="936.6936,-967.0059 927.1636,-962.3766 931.7267,-971.9384 936.6936,-967.0059"/>
<text text-anchor="middle" x="993.6979" y="-1091.3788" font-family="Times,serif" font-size="14.00" fill="#666666">Par</text>
<text text-anchor="middle" x="993.6979" y="-1074.5788" font-family="Times,serif" font-size="14.00" fill="#666666">conséquent …</text>
</g>
<!-- o2a2 -->
<g id="node16" class="node">
<title>o2a2</title>
<path fill="#ffffff" stroke="#cd0000" d="M2007.8777,-1317.7292C2007.8777,-1317.7292 1541.7009,-1317.7292 1541.7009,-1317.7292 1535.7009,-1317.7292 1529.7009,-1311.7292 1529.7009,-1305.7292 1529.7009,-1305.7292 1529.7009,-1234.5275 1529.7009,-1234.5275 1529.7009,-1228.5275 1535.7009,-1222.5275 1541.7009,-1222.5275 1541.7009,-1222.5275 2007.8777,-1222.5275 2007.8777,-1222.5275 2013.8777,-1222.5275 2019.8777,-1228.5275 2019.8777,-1234.5275 2019.8777,-1234.5275 2019.8777,-1305.7292 2019.8777,-1305.7292 2019.8777,-1311.7292 2013.8777,-1317.7292 2007.8777,-1317.7292"/>
<text text-anchor="middle" x="1774.7893" y="-1295.6283" font-family="Times,serif" font-size="17.00" fill="#000000">Cet argument semble présupposer que le temps a un commencement :</text>
<text text-anchor="middle" x="1774.7893" y="-1275.2283" font-family="Times,serif" font-size="17.00" fill="#000000">si on commence à ajouter des événements à partir d&#39;un événement</text>
<text text-anchor="middle" x="1774.7893" y="-1254.8283" font-family="Times,serif" font-size="17.00" fill="#000000">donné, alors effectivement, on n&#39;aura jamais un ensemble infini,</text>
<text text-anchor="middle" x="1774.7893" y="-1234.4283" font-family="Times,serif" font-size="17.00" fill="#000000">mais on présuppose alors ce que l&#39;on voulait montrer !</text>
</g>
<!-- p2a2&#45;&gt;o2a2 -->
<g id="edge15" class="edge">
<title>p2a2&#45;&gt;o2a2</title>
<path fill="none" stroke="#cd0000" stroke-width=".8" d="M1450.1185,-1270.1283C1473.5354,-1270.1283 1497.5092,-1270.1283 1521.3023,-1270.1283"/>
<polygon fill="#cd0000" stroke="#cd0000" stroke-width=".8" points="1521.3633,-1272.9284 1529.3633,-1270.1283 1521.3632,-1267.3284 1521.3633,-1272.9284"/>
<text text-anchor="middle" x="1489.8017" y="-1276.7283" font-family="Times,serif" font-size="12.00" fill="#8b0000"> Mais …</text>
</g>
<!-- p2a1&#45;&gt;p2a -->
<g id="edge3" class="edge">
<title>p2a1&#45;&gt;p2a</title>
<path fill="none" stroke="#000000" d="M832.8362,-1211.9814C845.5936,-1144.8311 866.3619,-1035.5142 878.3808,-972.2514"/>
<polygon fill="#000000" stroke="#000000" points="881.8758,-972.6068 880.3038,-962.1293 874.9988,-971.3003 881.8758,-972.6068"/>
<text text-anchor="middle" x="815.8434" y="-1108.0808" font-family="Times,serif" font-size="14.00" fill="#666666">Par</text>
<text text-anchor="middle" x="815.8434" y="-1091.2808" font-family="Times,serif" font-size="14.00" fill="#666666">conséquent …</text>
</g>
<!-- p2b&#45;&gt;p2 -->
<g id="edge5" class="edge">
<title>p2b&#45;&gt;p2</title>
<path fill="none" stroke="#000000" stroke-dasharray="5,2" d="M1225.1038,-883.1938C1177.9938,-840.5601 1103.2596,-772.9271 1054.8704,-729.1359"/>
<polygon fill="#000000" stroke="#000000" points="1057.1018,-726.4348 1047.3387,-722.3198 1052.4048,-731.625 1057.1018,-726.4348"/>
<text text-anchor="middle" x="1097.2859" y="-840.5017" font-family="Times,serif" font-size="14.00" fill="#666666">Donc, il est</text>
<text text-anchor="middle" x="1097.2859" y="-823.7017" font-family="Times,serif" font-size="14.00" fill="#666666">justifié de</text>
<text text-anchor="middle" x="1097.2859" y="-806.9017" font-family="Times,serif" font-size="14.00" fill="#666666">penser que …</text>
</g>
<!-- o2b -->
<g id="node14" class="node">
<title>o2b</title>
<path fill="#ffffff" stroke="#cd0000" d="M2041.8811,-1059.4284C2041.8811,-1059.4284 1541.6975,-1059.4284 1541.6975,-1059.4284 1535.6975,-1059.4284 1529.6975,-1053.4284 1529.6975,-1047.4284 1529.6975,-1047.4284 1529.6975,-798.0283 1529.6975,-798.0283 1529.6975,-792.0283 1535.6975,-786.0283 1541.6975,-786.0283 1541.6975,-786.0283 2041.8811,-786.0283 2041.8811,-786.0283 2047.8811,-786.0283 2053.8811,-792.0283 2053.8811,-798.0283 2053.8811,-798.0283 2053.8811,-1047.4284 2053.8811,-1047.4284 2053.8811,-1053.4284 2047.8811,-1059.4284 2041.8811,-1059.4284"/>
<text text-anchor="middle" x="1791.7893" y="-1036.1283" font-family="Times,serif" font-size="18.00" fill="#000000">1/ La physique contemporaine affirme l&#39;existence de ce qui semble</text>
<text text-anchor="middle" x="1791.7893" y="-1014.5283" font-family="Times,serif" font-size="18.00" fill="#000000">être un commencement du monde : le Big Bang ; cependant il faut</text>
<text text-anchor="middle" x="1791.7893" y="-992.9283" font-family="Times,serif" font-size="18.00" fill="#000000">être prudent quand on interprète d&#39;un point de vue philosophique</text>
<text text-anchor="middle" x="1791.7893" y="-971.3283" font-family="Times,serif" font-size="18.00" fill="#000000">une théorie physique et il existe des modèles cosmologiques dans</text>
<text text-anchor="middle" x="1791.7893" y="-949.7283" font-family="Times,serif" font-size="18.00" fill="#000000">lesquels le Big Bang est compatible avec l&#39;idée d&#39;un passé infini</text>
<text text-anchor="middle" x="1791.7893" y="-928.1283" font-family="Times,serif" font-size="18.00" fill="#000000">2/ La physique contemporaine affirme la vérité du deuxième</text>
<text text-anchor="middle" x="1791.7893" y="-906.5283" font-family="Times,serif" font-size="18.00" fill="#000000">principe de la thermodynamique, selon lequel un système fermé</text>
<text text-anchor="middle" x="1791.7893" y="-884.9283" font-family="Times,serif" font-size="18.00" fill="#000000">qui évolue de manière irréversible se rapproche nécessairement de</text>
<text text-anchor="middle" x="1791.7893" y="-863.3283" font-family="Times,serif" font-size="18.00" fill="#000000">l&#39;état d&#39;équilibre thermodynamique : appliqué au monde, l&#39;hypothèse</text>
<text text-anchor="middle" x="1791.7893" y="-841.7283" font-family="Times,serif" font-size="18.00" fill="#000000">d&#39;un passé infini impliquerait que le monde devrait déjà avoir</text>
<text text-anchor="middle" x="1791.7893" y="-820.1283" font-family="Times,serif" font-size="18.00" fill="#000000">atteint cet état d&#39;équilibre, ce qui n&#39;est pas le cas ; mais peut&#45;on</text>
<text text-anchor="middle" x="1791.7893" y="-798.5283" font-family="Times,serif" font-size="18.00" fill="#000000">appliquer ce principe thermodynamique au monde lui&#45;même ?</text>
</g>
<!-- p2b&#45;&gt;o2b -->
<g id="edge13" class="edge">
<title>p2b&#45;&gt;o2b</title>
<path fill="none" stroke="#cd0000" stroke-width=".8" d="M1415.1694,-922.7283C1448.3207,-922.7283 1484.556,-922.7283 1521.0318,-922.7283"/>
<polygon fill="#cd0000" stroke="#cd0000" stroke-width=".8" points="1521.3107,-925.5284 1529.3107,-922.7283 1521.3107,-919.9284 1521.3107,-925.5284"/>
<text text-anchor="middle" x="1472.3572" y="-929.3283" font-family="Times,serif" font-size="12.00" fill="#8b0000"> Mais …</text>
</g>
<!-- p2a&#45;&gt;p2b -->
<!-- p2a&#45;&gt;p2 -->
<g id="edge4" class="edge">
<title>p2a&#45;&gt;p2</title>
<path fill="none" stroke="#000000" d="M907.8746,-883.1938C929.1778,-841.2619 962.7671,-775.147 985.0344,-731.3176"/>
<polygon fill="#000000" stroke="#000000" points="988.1966,-732.8206 989.6057,-722.3198 981.9558,-729.6499 988.1966,-732.8206"/>
<text text-anchor="middle" x="908.1298" y="-823.5373" font-family="Times,serif" font-size="14.00" fill="#666666">Par</text>
<text text-anchor="middle" x="908.1298" y="-806.7373" font-family="Times,serif" font-size="14.00" fill="#666666">conséquent …</text>
</g>
<!-- p3 -->
<g id="node9" class="node">
<title>p3</title>
<path fill="#ffffff" stroke="#000000" d="M1015.9074,-506.9295C1015.9074,-506.9295 895.6712,-506.9295 895.6712,-506.9295 889.6712,-506.9295 883.6712,-500.9295 883.6712,-494.9295 883.6712,-494.9295 883.6712,-447.7272 883.6712,-447.7272 883.6712,-441.7272 889.6712,-435.7272 895.6712,-435.7272 895.6712,-435.7272 1015.9074,-435.7272 1015.9074,-435.7272 1021.9074,-435.7272 1027.9074,-441.7272 1027.9074,-447.7272 1027.9074,-447.7272 1027.9074,-494.9295 1027.9074,-494.9295 1027.9074,-500.9295 1021.9074,-506.9295 1015.9074,-506.9295"/>
<text text-anchor="middle" x="955.7893" y="-478.5283" font-family="Times,serif" font-size="24.00" fill="#000000">(3) Le monde</text>
<text text-anchor="middle" x="955.7893" y="-449.7283" font-family="Times,serif" font-size="24.00" fill="#000000">a une cause</text>
</g>
<!-- p2&#45;&gt;p3 -->
<g id="edge8" class="edge">
<title>p2:w&#45;&gt;p3:n</title>
<path fill="none" stroke="#000000" d="M916.9462,-621.3302C930.3051,-582.12 952.7088,-565.1064 955.5008,-517.4616"/>
<polygon fill="#000000" stroke="#000000" points="959.0032,-517.4239 955.7893,-507.3283 952.006,-517.2246 959.0032,-517.4239"/>
<text text-anchor="middle" x="899.0037" y="-590.0543" font-family="Times,serif" font-size="15.00" fill="#666666">Par</text>
<text text-anchor="middle" x="899.0037" y="-572.0543" font-family="Times,serif" font-size="15.00" fill="#666666">conséquent …</text>
</g>
<!-- p4 -->
<g id="node10" class="node">
<title>p4</title>
<path fill="#ffffff" stroke="#000000" d="M1336.5278,-536.0285C1336.5278,-536.0285 1075.0508,-536.0285 1075.0508,-536.0285 1069.0508,-536.0285 1063.0508,-530.0285 1063.0508,-524.0285 1063.0508,-524.0285 1063.0508,-418.6282 1063.0508,-418.6282 1063.0508,-412.6282 1069.0508,-406.6282 1075.0508,-406.6282 1075.0508,-406.6282 1336.5278,-406.6282 1336.5278,-406.6282 1342.5278,-406.6282 1348.5278,-412.6282 1348.5278,-418.6282 1348.5278,-418.6282 1348.5278,-524.0285 1348.5278,-524.0285 1348.5278,-530.0285 1342.5278,-536.0285 1336.5278,-536.0285"/>
<text text-anchor="middle" x="1205.7893" y="-507.3283" font-family="Times,serif" font-size="24.00" fill="#000000">(4) Si le monde a une cause,</text>
<text text-anchor="middle" x="1205.7893" y="-478.5283" font-family="Times,serif" font-size="24.00" fill="#000000">cette cause ne peut pas être</text>
<text text-anchor="middle" x="1205.7893" y="-449.7283" font-family="Times,serif" font-size="24.00" fill="#000000">une réalité dans le monde,</text>
<text text-anchor="middle" x="1205.7893" y="-420.9283" font-family="Times,serif" font-size="24.00" fill="#000000">ou le monde lui&#45;même</text>
</g>
<!-- p3&#45;&gt;p4 -->
<!-- p5 -->
<g id="node11" class="node">
<title>p5</title>
<path fill="#ffffff" stroke="#000000" d="M1209.88,-323.8285C1209.88,-323.8285 961.6986,-323.8285 961.6986,-323.8285 955.6986,-323.8285 949.6986,-317.8285 949.6986,-311.8285 949.6986,-311.8285 949.6986,-206.4282 949.6986,-206.4282 949.6986,-200.4282 955.6986,-194.4282 961.6986,-194.4282 961.6986,-194.4282 1209.88,-194.4282 1209.88,-194.4282 1215.88,-194.4282 1221.88,-200.4282 1221.88,-206.4282 1221.88,-206.4282 1221.88,-311.8285 1221.88,-311.8285 1221.88,-317.8285 1215.88,-323.8285 1209.88,-323.8285"/>
<text text-anchor="middle" x="1085.7893" y="-295.1283" font-family="Times,serif" font-size="24.00" fill="#000000">(5) Il existe une réalité</text>
<text text-anchor="middle" x="1085.7893" y="-266.3283" font-family="Times,serif" font-size="24.00" fill="#000000">différente du monde, qui</text>
<text text-anchor="middle" x="1085.7893" y="-237.5283" font-family="Times,serif" font-size="24.00" fill="#000000">n&#39;est pas dans le monde, et</text>
<text text-anchor="middle" x="1085.7893" y="-208.7283" font-family="Times,serif" font-size="24.00" fill="#000000">qui est la cause du monde</text>
</g>
<!-- p4&#45;&gt;p5 -->
<g id="edge10" class="edge">
<title>p4:w&#45;&gt;p5:n</title>
<path fill="none" stroke="#000000" d="M1065.8329,-391.7325C1072.0549,-369.194 1082.9007,-359.0016 1085.3073,-334.4533"/>
<polygon fill="#000000" stroke="#000000" points="1088.8191,-334.2807 1085.7893,-324.1283 1081.8267,-333.9542 1088.8191,-334.2807"/>
<text text-anchor="middle" x="1023.4038" y="-363.9586" font-family="Times,serif" font-size="15.00" fill="#666666">Par conséquent …</text>
</g>
<!-- p6 -->
<g id="node12" class="node">
<title>p6</title>
<path fill="#ffffff" stroke="#000000" d="M1419.6869,-294.7295C1419.6869,-294.7295 1269.8917,-294.7295 1269.8917,-294.7295 1263.8917,-294.7295 1257.8917,-288.7295 1257.8917,-282.7295 1257.8917,-282.7295 1257.8917,-235.5272 1257.8917,-235.5272 1257.8917,-229.5272 1263.8917,-223.5272 1269.8917,-223.5272 1269.8917,-223.5272 1419.6869,-223.5272 1419.6869,-223.5272 1425.6869,-223.5272 1431.6869,-229.5272 1431.6869,-235.5272 1431.6869,-235.5272 1431.6869,-282.7295 1431.6869,-282.7295 1431.6869,-288.7295 1425.6869,-294.7295 1419.6869,-294.7295"/>
<text text-anchor="middle" x="1344.7893" y="-266.3283" font-family="Times,serif" font-size="24.00" fill="#000000">(6) Cette réalité,</text>
<text text-anchor="middle" x="1344.7893" y="-237.5283" font-family="Times,serif" font-size="24.00" fill="#000000">c&#39;est Dieu</text>
</g>
<!-- p5&#45;&gt;p6 -->
<!-- C -->
<g id="node13" class="node">
<title>C</title>
<ellipse fill="#000000" stroke="#000000" cx="1257.7893" cy="-78.2642" rx="86.9238" ry="30.0302"/>
<text text-anchor="middle" x="1257.7893" y="-71.0642" font-family="Times,serif" font-size="24.00" fill="#ffffff">Dieu existe</text>
</g>
<!-- p6&#45;&gt;C -->
<g id="edge12" class="edge">
<title>p6:w&#45;&gt;C:n</title>
<path fill="none" stroke="#000000" d="M1255.8316,-179.5315C1257.0375,-173.6084 1257.7893,-167.7244 1257.7893,-162.0283 1257.7893,-162.0283 1257.7893,-162.0283 1257.7893,-126.0283 1257.7893,-122.8209 1257.7893,-120.5908 1257.7893,-118.5438"/>
<polygon fill="#000000" stroke="#000000" points="1261.2894,-118.2641 1257.7893,-108.2642 1254.2894,-118.2642 1261.2894,-118.2641"/>
<text text-anchor="middle" x="1214.1588" y="-148.5189" font-family="Times,serif" font-size="15.00" fill="#666666">Par</text>
<text text-anchor="middle" x="1214.1588" y="-130.5189" font-family="Times,serif" font-size="15.00" fill="#666666">conséquent …</text>
</g>
<!-- o6 -->
<g id="node15" class="node">
<title>o6</title>
<path fill="#ffffff" stroke="#cd0000" d="M1834.2113,-320.1283C1834.2113,-320.1283 1541.3673,-320.1283 1541.3673,-320.1283 1535.3673,-320.1283 1529.3673,-314.1283 1529.3673,-308.1283 1529.3673,-308.1283 1529.3673,-210.1283 1529.3673,-210.1283 1529.3673,-204.1283 1535.3673,-198.1283 1541.3673,-198.1283 1541.3673,-198.1283 1834.2113,-198.1283 1834.2113,-198.1283 1840.2113,-198.1283 1846.2113,-204.1283 1846.2113,-210.1283 1846.2113,-210.1283 1846.2113,-308.1283 1846.2113,-308.1283 1846.2113,-314.1283 1840.2113,-320.1283 1834.2113,-320.1283"/>
<text text-anchor="middle" x="1687.7893" y="-296.9283" font-family="Times,serif" font-size="18.00" fill="#000000">L&#39;argument prouve au mieux l&#39;existence</text>
<text text-anchor="middle" x="1687.7893" y="-275.3283" font-family="Times,serif" font-size="18.00" fill="#000000">d&#39;une réalité non matérielle, non spatiale,</text>
<text text-anchor="middle" x="1687.7893" y="-253.7283" font-family="Times,serif" font-size="18.00" fill="#000000">non temporelle qui est la cause du monde,</text>
<text text-anchor="middle" x="1687.7893" y="-232.1283" font-family="Times,serif" font-size="18.00" fill="#000000">mais, sans hypothèses supplémentaires,</text>
<text text-anchor="middle" x="1687.7893" y="-210.5283" font-family="Times,serif" font-size="18.00" fill="#000000">cela ne prouve pas l&#39;existence de Dieu</text>
</g>
<!-- p6&#45;&gt;o6 -->
<g id="edge14" class="edge">
<title>p6&#45;&gt;o6</title>
<path fill="none" stroke="#cd0000" stroke-width=".8" d="M1431.7861,-259.1283C1459.0236,-259.1283 1490.0522,-259.1283 1520.8828,-259.1283"/>
<polygon fill="#cd0000" stroke="#cd0000" stroke-width=".8" points="1521.1404,-261.9284 1529.1404,-259.1283 1521.1404,-256.3284 1521.1404,-261.9284"/>
<text text-anchor="middle" x="1480.5332" y="-265.7283" font-family="Times,serif" font-size="12.00" fill="#8b0000"> Mais …</text>
</g>
</g>
</svg>
