<?xml version="1.0" encoding="UTF-8" standalone="no"?>
<!DOCTYPE svg PUBLIC "-//W3C//DTD SVG 1.1//EN"
 "http://www.w3.org/Graphics/SVG/1.1/DTD/svg11.dtd">
<!-- Generated by graphviz version 2.40.1 (20161225.0304)
 -->
<!-- Title: G Pages: 1 -->
<svg width="2287pt" height="1292pt"
 viewBox="0.00 0.00 2287.25 1291.53" xmlns="http://www.w3.org/2000/svg" xmlns:xlink="http://www.w3.org/1999/xlink">
<g id="graph0" class="graph" transform="scale(1 1) rotate(0) translate(4 1287.5283)">
<title>G</title>
<polygon fill="#ffffff" stroke="transparent" points="-4,4 -4,-1287.5283 2283.253,-1287.5283 2283.253,4 -4,4"/>
<g id="clust3" class="cluster">
<title>cluster_0</title>
<path fill="#e5e5e5" stroke="#7f7f7f" d="M619.722,-8C619.722,-8 1685.722,-8 1685.722,-8 1691.722,-8 1697.722,-14 1697.722,-20 1697.722,-20 1697.722,-1263.5283 1697.722,-1263.5283 1697.722,-1269.5283 1691.722,-1275.5283 1685.722,-1275.5283 1685.722,-1275.5283 619.722,-1275.5283 619.722,-1275.5283 613.722,-1275.5283 607.722,-1269.5283 607.722,-1263.5283 607.722,-1263.5283 607.722,-20 607.722,-20 607.722,-14 613.722,-8 619.722,-8"/>
</g>
<g id="clust4" class="cluster">
<title>cluster_2arg</title>
<polygon fill="#bababa" stroke="#bababa" points="985.722,-754.1283 985.722,-1235.5283 1657.722,-1235.5283 1657.722,-754.1283 985.722,-754.1283"/>
</g>
<g id="clust6" class="cluster">
<title>cluster_1</title>
<polygon fill="#bababa" stroke="#bababa" points="647.722,-782.9283 647.722,-1235.5283 945.722,-1235.5283 945.722,-782.9283 647.722,-782.9283"/>
</g>
<g id="clust7" class="cluster">
<title>cluster_2</title>
<polygon fill="#bababa" stroke="#bababa" points="839.722,-463.7283 839.722,-622.9283 1548.722,-622.9283 1548.722,-463.7283 839.722,-463.7283"/>
</g>
<g id="clust9" class="cluster">
<title>cluster_3</title>
<polygon fill="#bababa" stroke="#bababa" points="984.722,-211.5283 984.722,-370.7283 1626.722,-370.7283 1626.722,-211.5283 984.722,-211.5283"/>
</g>
<!-- o1 -->
<g id="node1" class="node">
<title>o1</title>
<path fill="#ffffff" stroke="#cd0000" d="M555.6662,-1246.9283C555.6662,-1246.9283 11.7778,-1246.9283 11.7778,-1246.9283 5.7778,-1246.9283 -.2222,-1240.9283 -.2222,-1234.9283 -.2222,-1234.9283 -.2222,-1076.9283 -.2222,-1076.9283 -.2222,-1070.9283 5.7778,-1064.9283 11.7778,-1064.9283 11.7778,-1064.9283 555.6662,-1064.9283 555.6662,-1064.9283 561.6662,-1064.9283 567.6662,-1070.9283 567.6662,-1076.9283 567.6662,-1076.9283 567.6662,-1234.9283 567.6662,-1234.9283 567.6662,-1240.9283 561.6662,-1246.9283 555.6662,-1246.9283"/>
<text text-anchor="middle" x="283.722" y="-1221.9283" font-family="Times,serif" font-size="20.00" fill="#000000">On pourrait penser que l&#39;existence du monde n&#39;est pas contingente,</text>
<text text-anchor="middle" x="283.722" y="-1197.9283" font-family="Times,serif" font-size="20.00" fill="#000000">soit parce que la contigence n&#39;est qu&#39;une illusion de notre pensée ou</text>
<text text-anchor="middle" x="283.722" y="-1173.9283" font-family="Times,serif" font-size="20.00" fill="#000000">le résultat d&#39;un sophisme (peut&#45;on attribuer la contingence au tout du</text>
<text text-anchor="middle" x="283.722" y="-1149.9283" font-family="Times,serif" font-size="20.00" fill="#000000">monde en raison de la contingence de ses éléments ?), soit parce que</text>
<text text-anchor="middle" x="283.722" y="-1125.9283" font-family="Times,serif" font-size="20.00" fill="#000000">l&#39;argument tout entier serait autoréfutant (si l&#39;existence du monde</text>
<text text-anchor="middle" x="283.722" y="-1101.9283" font-family="Times,serif" font-size="20.00" fill="#000000">s&#39;explique par une réalité dont l&#39;existence est nécessaire, peut&#45;elle</text>
<text text-anchor="middle" x="283.722" y="-1077.9283" font-family="Times,serif" font-size="20.00" fill="#000000">vraiment être contingente ?) ; mais ces objections semblent faibles</text>
</g>
<!-- p1 -->
<g id="node3" class="node">
<title>p1</title>
<path fill="#ffffff" stroke="#000000" d="M905.8415,-1220.6285C905.8415,-1220.6285 687.6025,-1220.6285 687.6025,-1220.6285 681.6025,-1220.6285 675.6025,-1214.6285 675.6025,-1208.6285 675.6025,-1208.6285 675.6025,-1103.2282 675.6025,-1103.2282 675.6025,-1097.2282 681.6025,-1091.2282 687.6025,-1091.2282 687.6025,-1091.2282 905.8415,-1091.2282 905.8415,-1091.2282 911.8415,-1091.2282 917.8415,-1097.2282 917.8415,-1103.2282 917.8415,-1103.2282 917.8415,-1208.6285 917.8415,-1208.6285 917.8415,-1214.6285 911.8415,-1220.6285 905.8415,-1220.6285"/>
<text text-anchor="middle" x="796.722" y="-1191.9283" font-family="Times,serif" font-size="24.00" fill="#000000">(1) L&#39;existence du</text>
<text text-anchor="middle" x="796.722" y="-1163.1283" font-family="Times,serif" font-size="24.00" fill="#000000">monde est contingente :</text>
<text text-anchor="middle" x="796.722" y="-1134.3283" font-family="Times,serif" font-size="24.00" fill="#000000">le monde existe, mais il</text>
<text text-anchor="middle" x="796.722" y="-1105.5283" font-family="Times,serif" font-size="24.00" fill="#000000">aurait pu ne pas exister</text>
</g>
<!-- o1&#45;&gt;p1 -->
<g id="edge1" class="edge">
<title>o1&#45;&gt;p1</title>
<path fill="none" stroke="#cd0000" stroke-width=".8" d="M576.0151,-1155.9283C610.9208,-1155.9283 644.9246,-1155.9283 675.3719,-1155.9283"/>
<polygon fill="#cd0000" stroke="#cd0000" stroke-width=".8" points="575.604,-1153.1284 567.604,-1155.9283 575.604,-1158.7284 575.604,-1153.1284"/>
<text text-anchor="middle" x="621.4282" y="-1163.1283" font-family="Times,serif" font-size="14.00" fill="#8b0000"> Mais …</text>
</g>
<!-- o2 -->
<g id="node2" class="node">
<title>o2</title>
<path fill="#ffffff" stroke="#cd0000" d="M556.1402,-943.9283C556.1402,-943.9283 35.3038,-943.9283 35.3038,-943.9283 29.3038,-943.9283 23.3038,-937.9283 23.3038,-931.9283 23.3038,-931.9283 23.3038,-821.9283 23.3038,-821.9283 23.3038,-815.9283 29.3038,-809.9283 35.3038,-809.9283 35.3038,-809.9283 556.1402,-809.9283 556.1402,-809.9283 562.1402,-809.9283 568.1402,-815.9283 568.1402,-821.9283 568.1402,-821.9283 568.1402,-931.9283 568.1402,-931.9283 568.1402,-937.9283 562.1402,-943.9283 556.1402,-943.9283"/>
<text text-anchor="middle" x="295.722" y="-918.9283" font-family="Times,serif" font-size="20.00" fill="#000000">Ce principe correspond à ce qu&#39;on appelle le principe de raison </text>
<text text-anchor="middle" x="295.722" y="-894.9283" font-family="Times,serif" font-size="20.00" fill="#000000">suffisante (PRS), or le PRS se heurte à deux objections majeures :</text>
<text text-anchor="middle" x="295.722" y="-870.9283" font-family="Times,serif" font-size="20.00" fill="#000000">1/ Il n&#39;y a pas de preuve de la vérité du PRS ; 2/ Le PRS a pour</text>
<text text-anchor="middle" x="295.722" y="-846.9283" font-family="Times,serif" font-size="20.00" fill="#000000">domaine premier d&#39;application les phénomènes empiriques :</text>
<text text-anchor="middle" x="295.722" y="-822.9283" font-family="Times,serif" font-size="20.00" fill="#000000">peut&#45;on appliquer ce principe hors de ce domaine ?</text>
</g>
<!-- p2 -->
<g id="node4" class="node">
<title>p2</title>
<path fill="#ffffff" stroke="#000000" d="M918.6828,-955.9283C918.6828,-955.9283 674.7612,-955.9283 674.7612,-955.9283 668.7612,-955.9283 662.7612,-949.9283 662.7612,-943.9283 662.7612,-943.9283 662.7612,-809.9283 662.7612,-809.9283 662.7612,-803.9283 668.7612,-797.9283 674.7612,-797.9283 674.7612,-797.9283 918.6828,-797.9283 918.6828,-797.9283 924.6828,-797.9283 930.6828,-803.9283 930.6828,-809.9283 930.6828,-809.9283 930.6828,-943.9283 930.6828,-943.9283 930.6828,-949.9283 924.6828,-955.9283 918.6828,-955.9283"/>
<text text-anchor="middle" x="796.722" y="-927.3283" font-family="Times,serif" font-size="24.00" fill="#000000">(2) Si l&#39;existence de X est</text>
<text text-anchor="middle" x="796.722" y="-898.5283" font-family="Times,serif" font-size="24.00" fill="#000000">contingente, il doit y avoir</text>
<text text-anchor="middle" x="796.722" y="-869.7283" font-family="Times,serif" font-size="24.00" fill="#000000">une explication du fait</text>
<text text-anchor="middle" x="796.722" y="-840.9283" font-family="Times,serif" font-size="24.00" fill="#000000">que X existe alors que X</text>
<text text-anchor="middle" x="796.722" y="-812.1283" font-family="Times,serif" font-size="24.00" fill="#000000">aurait pu ne pas exister</text>
</g>
<!-- o2&#45;&gt;p2 -->
<g id="edge2" class="edge">
<title>o2&#45;&gt;p2</title>
<path fill="none" stroke="#cd0000" stroke-width=".8" d="M576.2503,-876.9283C606.1822,-876.9283 635.5337,-876.9283 662.5622,-876.9283"/>
<polygon fill="#cd0000" stroke="#cd0000" stroke-width=".8" points="576.2134,-874.1284 568.2134,-876.9283 576.2134,-879.7284 576.2134,-874.1284"/>
<text text-anchor="middle" x="615.3363" y="-884.1283" font-family="Times,serif" font-size="14.00" fill="#8b0000"> Mais …</text>
</g>
<!-- p1&#45;&gt;p2 -->
<!-- p4 -->
<g id="node5" class="node">
<title>p4</title>
<path fill="#ffffff" stroke="#000000" d="M1592.191,-1220.6285C1592.191,-1220.6285 1051.253,-1220.6285 1051.253,-1220.6285 1045.253,-1220.6285 1039.253,-1214.6285 1039.253,-1208.6285 1039.253,-1208.6285 1039.253,-1103.2282 1039.253,-1103.2282 1039.253,-1097.2282 1045.253,-1091.2282 1051.253,-1091.2282 1051.253,-1091.2282 1592.191,-1091.2282 1592.191,-1091.2282 1598.191,-1091.2282 1604.191,-1097.2282 1604.191,-1103.2282 1604.191,-1103.2282 1604.191,-1208.6285 1604.191,-1208.6285 1604.191,-1214.6285 1598.191,-1220.6285 1592.191,-1220.6285"/>
<text text-anchor="middle" x="1321.722" y="-1191.9283" font-family="Times,serif" font-size="24.00" fill="#000000">(4) S&#39;il y a une explication de l&#39;existence du monde,</text>
<text text-anchor="middle" x="1321.722" y="-1163.1283" font-family="Times,serif" font-size="24.00" fill="#000000">on ne peut pas trouver cette explication dans le monde</text>
<text text-anchor="middle" x="1321.722" y="-1134.3283" font-family="Times,serif" font-size="24.00" fill="#000000">lui&#45;même : l&#39;explication doit se trouver dans une réalité </text>
<text text-anchor="middle" x="1321.722" y="-1105.5283" font-family="Times,serif" font-size="24.00" fill="#000000">différente du monde et qui n&#39;est pas dans le monde</text>
</g>
<!-- p1&#45;&gt;p4 -->
<!-- p3 -->
<g id="node8" class="node">
<title>p3</title>
<path fill="#ffffff" stroke="#000000" d="M1062.4918,-593.7291C1062.4918,-593.7291 866.9522,-593.7291 866.9522,-593.7291 860.9522,-593.7291 854.9522,-587.7291 854.9522,-581.7291 854.9522,-581.7291 854.9522,-504.9275 854.9522,-504.9275 854.9522,-498.9275 860.9522,-492.9275 866.9522,-492.9275 866.9522,-492.9275 1062.4918,-492.9275 1062.4918,-492.9275 1068.4918,-492.9275 1074.4918,-498.9275 1074.4918,-504.9275 1074.4918,-504.9275 1074.4918,-581.7291 1074.4918,-581.7291 1074.4918,-587.7291 1068.4918,-593.7291 1062.4918,-593.7291"/>
<text text-anchor="middle" x="964.722" y="-564.9283" font-family="Times,serif" font-size="24.00" fill="#000000">(3) Il doit y avoir</text>
<text text-anchor="middle" x="964.722" y="-536.1283" font-family="Times,serif" font-size="24.00" fill="#000000">une explication de</text>
<text text-anchor="middle" x="964.722" y="-507.3283" font-family="Times,serif" font-size="24.00" fill="#000000">l&#39;existence du monde</text>
</g>
<!-- p2&#45;&gt;p3 -->
<g id="edge7" class="edge">
<title>p2:s&#45;&gt;p3</title>
<path fill="none" stroke="#000000" d="M797.3969,-782.9314C803.8125,-711.1143 854.773,-645.1213 898.7873,-600.6587"/>
<polygon fill="#000000" stroke="#000000" points="901.3328,-603.0636 905.9638,-593.5344 896.4011,-598.0958 901.3328,-603.0636"/>
<text text-anchor="middle" x="778.6425" y="-682.7768" font-family="Times,serif" font-size="15.00" fill="#666666">Par conséquent … </text>
</g>
<!-- p5 -->
<g id="node6" class="node">
<title>p5</title>
<path fill="#ffffff" stroke="#000000" d="M1630.3629,-984.5287C1630.3629,-984.5287 1013.0811,-984.5287 1013.0811,-984.5287 1007.0811,-984.5287 1001.0811,-978.5287 1001.0811,-972.5287 1001.0811,-972.5287 1001.0811,-781.328 1001.0811,-781.328 1001.0811,-775.328 1007.0811,-769.328 1013.0811,-769.328 1013.0811,-769.328 1630.3629,-769.328 1630.3629,-769.328 1636.3629,-769.328 1642.3629,-775.328 1642.3629,-781.328 1642.3629,-781.328 1642.3629,-972.5287 1642.3629,-972.5287 1642.3629,-978.5287 1636.3629,-984.5287 1630.3629,-984.5287"/>
<text text-anchor="middle" x="1321.722" y="-956.1283" font-family="Times,serif" font-size="24.00" fill="#000000">(5) S&#39;il y a une explication de l&#39;existence du monde, elle ne peut</text>
<text text-anchor="middle" x="1321.722" y="-927.3283" font-family="Times,serif" font-size="24.00" fill="#000000">se trouver que dans une réalité non&#45;contingente, car sinon la</text>
<text text-anchor="middle" x="1321.722" y="-898.5283" font-family="Times,serif" font-size="24.00" fill="#000000">contingence de cette réalité conduirait, d&#39;après (2), à rechercher</text>
<text text-anchor="middle" x="1321.722" y="-869.7283" font-family="Times,serif" font-size="24.00" fill="#000000">à nouveau une explication de son existence, ce qui nous</text>
<text text-anchor="middle" x="1321.722" y="-840.9283" font-family="Times,serif" font-size="24.00" fill="#000000">mènerait à une régression à l&#39;infini dans l&#39;explication si on</text>
<text text-anchor="middle" x="1321.722" y="-812.1283" font-family="Times,serif" font-size="24.00" fill="#000000">ne pose pas l&#39;existence d&#39;une réalité non&#45;contingente ; or il ne</text>
<text text-anchor="middle" x="1321.722" y="-783.3283" font-family="Times,serif" font-size="24.00" fill="#000000">peut pas y avoir de régression à l&#39;infini dans l&#39;explication</text>
</g>
<!-- p4&#45;&gt;p5 -->
<!-- o4 -->
<g id="node12" class="node">
<title>o4</title>
<path fill="#ffffff" stroke="#cd0000" d="M2123.4561,-1246.9283C2123.4561,-1246.9283 1749.9879,-1246.9283 1749.9879,-1246.9283 1743.9879,-1246.9283 1737.9879,-1240.9283 1737.9879,-1234.9283 1737.9879,-1234.9283 1737.9879,-1076.9283 1737.9879,-1076.9283 1737.9879,-1070.9283 1743.9879,-1064.9283 1749.9879,-1064.9283 1749.9879,-1064.9283 2123.4561,-1064.9283 2123.4561,-1064.9283 2129.4561,-1064.9283 2135.4561,-1070.9283 2135.4561,-1076.9283 2135.4561,-1076.9283 2135.4561,-1234.9283 2135.4561,-1234.9283 2135.4561,-1240.9283 2129.4561,-1246.9283 2123.4561,-1246.9283"/>
<text text-anchor="middle" x="1936.722" y="-1221.9283" font-family="Times,serif" font-size="20.00" fill="#000000">Quand on cherche à expliquer l&#39;existence d&#39;un</text>
<text text-anchor="middle" x="1936.722" y="-1197.9283" font-family="Times,serif" font-size="20.00" fill="#000000">tout, on peut l&#39;expliquer par l&#39;existence de ses</text>
<text text-anchor="middle" x="1936.722" y="-1173.9283" font-family="Times,serif" font-size="20.00" fill="#000000">éléments constitutifs, or le monde est justement</text>
<text text-anchor="middle" x="1936.722" y="-1149.9283" font-family="Times,serif" font-size="20.00" fill="#000000">un tout, dont on peut expliquer l&#39;existence en</text>
<text text-anchor="middle" x="1936.722" y="-1125.9283" font-family="Times,serif" font-size="20.00" fill="#000000">expliquant l&#39;existence de chaque réalité qui fait</text>
<text text-anchor="middle" x="1936.722" y="-1101.9283" font-family="Times,serif" font-size="20.00" fill="#000000">partie du monde : il n&#39;y aurait pas besoin de</text>
<text text-anchor="middle" x="1936.722" y="-1077.9283" font-family="Times,serif" font-size="20.00" fill="#000000">chercher une explication supplémentaire</text>
</g>
<!-- p4&#45;&gt;o4 -->
<g id="edge12" class="edge">
<title>p4&#45;&gt;o4</title>
<path fill="none" stroke="#cd0000" stroke-width=".8" d="M1604.0225,-1155.9283C1646.3552,-1155.9283 1689.3291,-1155.9283 1729.7061,-1155.9283"/>
<polygon fill="#cd0000" stroke="#cd0000" stroke-width=".8" points="1729.7459,-1158.7284 1737.7459,-1155.9283 1729.7458,-1153.1284 1729.7459,-1158.7284"/>
<text text-anchor="middle" x="1671.0307" y="-1163.1283" font-family="Times,serif" font-size="14.00" fill="#8b0000"> Mais …</text>
</g>
<!-- p6 -->
<g id="node7" class="node">
<title>p6</title>
<path fill="#ffffff" stroke="#000000" d="M1521.5988,-608.0285C1521.5988,-608.0285 1121.8452,-608.0285 1121.8452,-608.0285 1115.8452,-608.0285 1109.8452,-602.0285 1109.8452,-596.0285 1109.8452,-596.0285 1109.8452,-490.6282 1109.8452,-490.6282 1109.8452,-484.6282 1115.8452,-478.6282 1121.8452,-478.6282 1121.8452,-478.6282 1521.5988,-478.6282 1521.5988,-478.6282 1527.5988,-478.6282 1533.5988,-484.6282 1533.5988,-490.6282 1533.5988,-490.6282 1533.5988,-596.0285 1533.5988,-596.0285 1533.5988,-602.0285 1527.5988,-608.0285 1521.5988,-608.0285"/>
<text text-anchor="middle" x="1321.722" y="-579.3283" font-family="Times,serif" font-size="24.00" fill="#000000">(6) S&#39;il y a une explication de l&#39;existence</text>
<text text-anchor="middle" x="1321.722" y="-550.5283" font-family="Times,serif" font-size="24.00" fill="#000000">du monde, elle ne peut se trouver que dans</text>
<text text-anchor="middle" x="1321.722" y="-521.7283" font-family="Times,serif" font-size="24.00" fill="#000000">une réalité non&#45;contingente différente du</text>
<text text-anchor="middle" x="1321.722" y="-492.9283" font-family="Times,serif" font-size="24.00" fill="#000000">monde et qui n&#39;est pas dans le monde</text>
</g>
<!-- p5&#45;&gt;p6 -->
<g id="edge4" class="edge">
<title>p5:s&#45;&gt;p6</title>
<path fill="none" stroke="#000000" d="M1321.722,-754.1297C1321.722,-707.7389 1321.722,-657.702 1321.722,-618.0239"/>
<polygon fill="#000000" stroke="#000000" points="1325.2221,-617.9964 1321.722,-607.9964 1318.2221,-617.9965 1325.2221,-617.9964"/>
<text text-anchor="middle" x="1264.3463" y="-685.3368" font-family="Times,serif" font-size="15.00" fill="#666666">Par conséquent … </text>
</g>
<!-- o7 -->
<g id="node13" class="node">
<title>o7</title>
<path fill="#ffffff" stroke="#cd0000" d="M2267.284,-1027.9283C2267.284,-1027.9283 1750.16,-1027.9283 1750.16,-1027.9283 1744.16,-1027.9283 1738.16,-1021.9283 1738.16,-1015.9283 1738.16,-1015.9283 1738.16,-737.9283 1738.16,-737.9283 1738.16,-731.9283 1744.16,-725.9283 1750.16,-725.9283 1750.16,-725.9283 2267.284,-725.9283 2267.284,-725.9283 2273.284,-725.9283 2279.284,-731.9283 2279.284,-737.9283 2279.284,-737.9283 2279.284,-1015.9283 2279.284,-1015.9283 2279.284,-1021.9283 2273.284,-1027.9283 2267.284,-1027.9283"/>
<text text-anchor="middle" x="2008.722" y="-1002.9283" font-family="Times,serif" font-size="20.00" fill="#000000">Il y a ici trois problèmes majeurs :</text>
<text text-anchor="middle" x="2008.722" y="-978.9283" font-family="Times,serif" font-size="20.00" fill="#000000">1/ Le concept même d&#39;une réalité non&#45;contingente a&#45;t&#45;il du</text>
<text text-anchor="middle" x="2008.722" y="-954.9283" font-family="Times,serif" font-size="20.00" fill="#000000">sens ? On peut toujours concevoir la non&#45;existence d&#39;une</text>
<text text-anchor="middle" x="2008.722" y="-930.9283" font-family="Times,serif" font-size="20.00" fill="#000000">réalité, il semble donc que toute réalité est contingente</text>
<text text-anchor="middle" x="2008.722" y="-906.9283" font-family="Times,serif" font-size="20.00" fill="#000000">2/ A&#45;t&#45;on vraiment le droit de postuler l&#39;existence d&#39;une réalité </text>
<text text-anchor="middle" x="2008.722" y="-882.9283" font-family="Times,serif" font-size="20.00" fill="#000000">non&#45;contingente simplement parce qu&#39;on refuse la possibilité</text>
<text text-anchor="middle" x="2008.722" y="-858.9283" font-family="Times,serif" font-size="20.00" fill="#000000">d&#39;une régression à l&#39;infini dans l&#39;explication ? Ne faut&#45;il pas</text>
<text text-anchor="middle" x="2008.722" y="-834.9283" font-family="Times,serif" font-size="20.00" fill="#000000">plutôt accepter la possibilité d&#39;une telle régression à l&#39;infini ? ;</text>
<text text-anchor="middle" x="2008.722" y="-810.9283" font-family="Times,serif" font-size="20.00" fill="#000000">3/ Postuler l&#39;existence d&#39;une réalité non&#45;contingente permet&#45;il</text>
<text text-anchor="middle" x="2008.722" y="-786.9283" font-family="Times,serif" font-size="20.00" fill="#000000">vraiment d&#39;expliquer l&#39;existence du monde ? Une explication doit</text>
<text text-anchor="middle" x="2008.722" y="-762.9283" font-family="Times,serif" font-size="20.00" fill="#000000">nous donner une compréhension précise du processus qui conduit</text>
<text text-anchor="middle" x="2008.722" y="-738.9283" font-family="Times,serif" font-size="20.00" fill="#000000">à l&#39;existence du fait qu&#39;on explique : est&#45;ce vraiment le cas ici ?</text>
</g>
<!-- p5&#45;&gt;o7 -->
<g id="edge13" class="edge">
<title>p5&#45;&gt;o7</title>
<path fill="none" stroke="#cd0000" stroke-width=".8" d="M1642.5938,-876.9283C1671.7461,-876.9283 1701.1168,-876.9283 1729.8609,-876.9283"/>
<polygon fill="#cd0000" stroke="#cd0000" stroke-width=".8" points="1729.951,-879.7284 1737.951,-876.9283 1729.9509,-874.1284 1729.951,-879.7284"/>
<text text-anchor="middle" x="1690.3667" y="-884.1283" font-family="Times,serif" font-size="14.00" fill="#8b0000"> Mais …</text>
</g>
<!-- p7 -->
<g id="node9" class="node">
<title>p7</title>
<path fill="#ffffff" stroke="#000000" d="M1390.2199,-355.8285C1390.2199,-355.8285 1011.2241,-355.8285 1011.2241,-355.8285 1005.2241,-355.8285 999.2241,-349.8285 999.2241,-343.8285 999.2241,-343.8285 999.2241,-238.4282 999.2241,-238.4282 999.2241,-232.4282 1005.2241,-226.4282 1011.2241,-226.4282 1011.2241,-226.4282 1390.2199,-226.4282 1390.2199,-226.4282 1396.2199,-226.4282 1402.2199,-232.4282 1402.2199,-238.4282 1402.2199,-238.4282 1402.2199,-343.8285 1402.2199,-343.8285 1402.2199,-349.8285 1396.2199,-355.8285 1390.2199,-355.8285"/>
<text text-anchor="middle" x="1200.722" y="-327.1283" font-family="Times,serif" font-size="24.00" fill="#000000">(7) Il existe une réalité non&#45;contingente,</text>
<text text-anchor="middle" x="1200.722" y="-298.3283" font-family="Times,serif" font-size="24.00" fill="#000000">différente du monde, et qui n&#39;est pas</text>
<text text-anchor="middle" x="1200.722" y="-269.5283" font-family="Times,serif" font-size="24.00" fill="#000000">dans le monde, et dont l&#39;existence</text>
<text text-anchor="middle" x="1200.722" y="-240.7283" font-family="Times,serif" font-size="24.00" fill="#000000">explique l&#39;existence du monde</text>
</g>
<!-- p6&#45;&gt;p7 -->
<g id="edge9" class="edge">
<title>p6:w&#45;&gt;p7</title>
<path fill="none" stroke="#000000" d="M1112.2513,-463.7319C1124.9259,-432.0233 1143.0091,-395.7527 1159.5271,-364.6708"/>
<polygon fill="#000000" stroke="#000000" points="1162.6692,-366.2171 1164.3009,-355.7486 1156.4972,-362.9147 1162.6692,-366.2171"/>
<text text-anchor="middle" x="1079.5754" y="-413.3158" font-family="Times,serif" font-size="15.00" fill="#666666">Par conséquent … </text>
</g>
<!-- p3&#45;&gt;p6 -->
<!-- p8 -->
<g id="node10" class="node">
<title>p8</title>
<path fill="#ffffff" stroke="#000000" d="M1599.6196,-326.7295C1599.6196,-326.7295 1449.8244,-326.7295 1449.8244,-326.7295 1443.8244,-326.7295 1437.8244,-320.7295 1437.8244,-314.7295 1437.8244,-314.7295 1437.8244,-267.5272 1437.8244,-267.5272 1437.8244,-261.5272 1443.8244,-255.5272 1449.8244,-255.5272 1449.8244,-255.5272 1599.6196,-255.5272 1599.6196,-255.5272 1605.6196,-255.5272 1611.6196,-261.5272 1611.6196,-267.5272 1611.6196,-267.5272 1611.6196,-314.7295 1611.6196,-314.7295 1611.6196,-320.7295 1605.6196,-326.7295 1599.6196,-326.7295"/>
<text text-anchor="middle" x="1524.722" y="-298.3283" font-family="Times,serif" font-size="24.00" fill="#000000">(8) Cette réalité,</text>
<text text-anchor="middle" x="1524.722" y="-269.5283" font-family="Times,serif" font-size="24.00" fill="#000000">c&#39;est Dieu</text>
</g>
<!-- p7&#45;&gt;p8 -->
<!-- C -->
<g id="node11" class="node">
<title>C</title>
<ellipse fill="#000000" stroke="#000000" cx="1437.722" cy="-78.2642" rx="86.9238" ry="30.0302"/>
<text text-anchor="middle" x="1437.722" y="-71.0642" font-family="Times,serif" font-size="24.00" fill="#ffffff">Dieu existe</text>
</g>
<!-- p8&#45;&gt;C -->
<g id="edge11" class="edge">
<title>p8:w&#45;&gt;C</title>
<path fill="none" stroke="#000000" d="M1417.5705,-211.5305C1419.6408,-180.0121 1425.0299,-145.1349 1429.7144,-118.9682"/>
<polygon fill="#000000" stroke="#000000" points="1433.2247,-119.2295 1431.5846,-108.7624 1426.3393,-117.9677 1433.2247,-119.2295"/>
<text text-anchor="middle" x="1365.7533" y="-164.3927" font-family="Times,serif" font-size="15.00" fill="#666666">Par conséquent … </text>
</g>
<!-- o8 -->
<g id="node14" class="node">
<title>o8</title>
<path fill="#ffffff" stroke="#cd0000" d="M2141.396,-358.1283C2141.396,-358.1283 1750.048,-358.1283 1750.048,-358.1283 1744.048,-358.1283 1738.048,-352.1283 1738.048,-346.1283 1738.048,-346.1283 1738.048,-236.1283 1738.048,-236.1283 1738.048,-230.1283 1744.048,-224.1283 1750.048,-224.1283 1750.048,-224.1283 2141.396,-224.1283 2141.396,-224.1283 2147.396,-224.1283 2153.396,-230.1283 2153.396,-236.1283 2153.396,-236.1283 2153.396,-346.1283 2153.396,-346.1283 2153.396,-352.1283 2147.396,-358.1283 2141.396,-358.1283"/>
<text text-anchor="middle" x="1945.722" y="-333.1283" font-family="Times,serif" font-size="20.00" fill="#000000">Cette identification est&#45;elle légitime ?</text>
<text text-anchor="middle" x="1945.722" y="-309.1283" font-family="Times,serif" font-size="20.00" fill="#000000">L&#39;argument ne prouve au mieux que l&#39;existence</text>
<text text-anchor="middle" x="1945.722" y="-285.1283" font-family="Times,serif" font-size="20.00" fill="#000000">d&#39;un être nécessaire, et non l&#39;existence d&#39;un être</text>
<text text-anchor="middle" x="1945.722" y="-261.1283" font-family="Times,serif" font-size="20.00" fill="#000000">personnel, parfait, tout&#45;puissant, omniscient, </text>
<text text-anchor="middle" x="1945.722" y="-237.1283" font-family="Times,serif" font-size="20.00" fill="#000000">bienveillant, et libre créateur du monde</text>
</g>
<!-- p8&#45;&gt;o8 -->
<g id="edge14" class="edge">
<title>p8&#45;&gt;o8</title>
<path fill="none" stroke="#cd0000" stroke-width=".8" d="M1611.6981,-291.1283C1646.4197,-291.1283 1688.0799,-291.1283 1730.0158,-291.1283"/>
<polygon fill="#cd0000" stroke="#cd0000" stroke-width=".8" points="1730.1257,-293.9284 1738.1256,-291.1283 1730.1256,-288.3284 1730.1257,-293.9284"/>
<text text-anchor="middle" x="1674.9029" y="-298.3283" font-family="Times,serif" font-size="14.00" fill="#8b0000"> Mais …</text>
</g>
</g>
</svg>
