<?xml version="1.0" encoding="UTF-8" standalone="no"?><!DOCTYPE svg PUBLIC "-//W3C//DTD SVG 1.1//EN" "http://www.w3.org/Graphics/SVG/1.1/DTD/svg11.dtd"><!-- Generated by graphviz version 2.40.1 (20161225.0304)
 --><!-- Title: G Pages: 1 --><svg xmlns="http://www.w3.org/2000/svg" xmlns:xlink="http://www.w3.org/1999/xlink" width="697pt" height="527pt" viewBox="0.00 0.00 697.00 526.81">
<g id="remarques+objections_graph0" class="graph" transform="scale(1 1) rotate(0) translate(4 522.8067)">
<title>G</title>
<polygon fill="#ffffff" stroke="transparent" points="-4,4 -4,-522.8067 693,-522.8067 693,4 -4,4"/>
<g id="remarques+objections_clust1" class="cluster">
<title>cluster_0</title>
<path fill="#e5e5e5" stroke="#7f7f7f" d="M91,-8C91,-8 669,-8 669,-8 675,-8 681,-14 681,-20 681,-20 681,-498.8067 681,-498.8067 681,-504.8067 675,-510.8067 669,-510.8067 669,-510.8067 91,-510.8067 91,-510.8067 85,-510.8067 79,-504.8067 79,-498.8067 79,-498.8067 79,-20 79,-20 79,-14 85,-8 91,-8"/>
</g>
<!-- 0 -->
<!-- PL1 -->
<g id="remarques+objections_node2_remarques+objections" class="node">
<title>PL1</title>
<polygon fill="#e0e0e0" stroke="transparent" points="560,-179.2067 200,-179.2067 200,-178.2067 560,-178.2067 560,-179.2067"/>
<polyline fill="none" stroke="#000000" points="200,-178.2067 560,-178.2067 "/>
</g>
<!-- C -->
<g id="remarques+objections_node7_remarques+objections" class="node">
<title>C</title>
<ellipse fill="#000000" stroke="#000000" cx="380" cy="-79.1034" rx="113.2089" ry="46.207"/>
<text text-anchor="middle" x="380" y="-84.5034" font-family="Times,serif" font-size="18.00" fill="#ffffff">Le bonheur semble</text>
<text text-anchor="middle" x="380" y="-62.9034" font-family="Times,serif" font-size="18.00" fill="#ffffff">être impossible</text>
</g>
<!-- PL1&#45;&gt;C -->
<g id="remarques+objections_edge3" class="edge">
<title>PL1-&gt;C</title>
<path fill="none" stroke="#000000" d="M380.061,-177.901C381.4546,-159.5056 382.4709,-146.062 383.1099,-135.6399"/>
<polygon fill="#000000" stroke="#000000" points="386.6171,-135.5979 383.6553,-125.4254 379.627,-135.2246 386.6171,-135.5979"/>
<text text-anchor="middle" x="352.9219" y="-166.8482" font-family="Times,serif" font-size="10.00" fill="#666666">par</text>
<text text-anchor="middle" x="352.9219" y="-154.8482" font-family="Times,serif" font-size="10.00" fill="#666666">conséquent …</text>
</g>
<!-- PL2 -->
<g id="remarques+objections_node3_remarques+objections" class="node">
<title>PL2</title>
<polygon fill="#e0e0e0" stroke="transparent" points="418,-296.8067 108,-296.8067 108,-295.8067 418,-295.8067 418,-296.8067"/>
<polyline fill="none" stroke="#000000" points="108,-295.8067 418,-295.8067 "/>
</g>
<!-- p2 -->
<g id="remarques+objections_node5_remarques+objections" class="node">
<title>p2</title>
<path fill="#ffffff" stroke="#000000" d="M376.5627,-242.6082C376.5627,-242.6082 191.4373,-242.6082 191.4373,-242.6082 185.4373,-242.6082 179.4373,-236.6082 179.4373,-230.6082 179.4373,-230.6082 179.4373,-199.4053 179.4373,-199.4053 179.4373,-193.4053 185.4373,-187.4053 191.4373,-187.4053 191.4373,-187.4053 376.5627,-187.4053 376.5627,-187.4053 382.5627,-187.4053 388.5627,-193.4053 388.5627,-199.4053 388.5627,-199.4053 388.5627,-230.6082 388.5627,-230.6082 388.5627,-236.6082 382.5627,-242.6082 376.5627,-242.6082"/>
<text text-anchor="middle" x="284" y="-219.2067" font-family="Times,serif" font-size="14.00" fill="#000000">On ne peut pas parvenir à un état</text>
<text text-anchor="middle" x="284" y="-202.4067" font-family="Times,serif" font-size="14.00" fill="#000000">de satisfaction profond et global</text>
</g>
<!-- PL2&#45;&gt;p2 -->
<g id="remarques+objections_edge7" class="edge">
<title>PL2-&gt;p2</title>
<path fill="none" stroke="#000000" d="M262.8542,-295.3408C259.5138,-273.2065 258.0587,-263.0561 261.8196,-251.9951"/>
<polygon fill="#000000" stroke="#000000" points="265.0986,-253.2377 266.0177,-242.6828 258.7171,-250.3608 265.0986,-253.2377"/>
<text text-anchor="middle" x="230.5603" y="-283.8926" font-family="Times,serif" font-size="10.00" fill="#666666">par</text>
<text text-anchor="middle" x="230.5603" y="-271.8926" font-family="Times,serif" font-size="10.00" fill="#666666">conséquent …</text>
</g>
<!-- PL3 -->
<g id="remarques+objections_node4_remarques+objections" class="node">
<title>PL3</title>
<polygon fill="#e0e0e0" stroke="transparent" points="652,-296.8067 436,-296.8067 436,-295.8067 652,-295.8067 652,-296.8067"/>
<polyline fill="none" stroke="#000000" points="436,-295.8067 652,-295.8067 "/>
</g>
<!-- p7 -->
<g id="remarques+objections_node6_remarques+objections" class="node">
<title>p7</title>
<path fill="#ffffff" stroke="#000000" d="M604.5627,-242.6082C604.5627,-242.6082 419.4373,-242.6082 419.4373,-242.6082 413.4373,-242.6082 407.4373,-236.6082 407.4373,-230.6082 407.4373,-230.6082 407.4373,-199.4053 407.4373,-199.4053 407.4373,-193.4053 413.4373,-187.4053 419.4373,-187.4053 419.4373,-187.4053 604.5627,-187.4053 604.5627,-187.4053 610.5627,-187.4053 616.5627,-193.4053 616.5627,-199.4053 616.5627,-199.4053 616.5627,-230.6082 616.5627,-230.6082 616.5627,-236.6082 610.5627,-242.6082 604.5627,-242.6082"/>
<text text-anchor="middle" x="512" y="-219.2067" font-family="Times,serif" font-size="14.00" fill="#000000">On ne peut pas parvenir à un état</text>
<text text-anchor="middle" x="512" y="-202.4067" font-family="Times,serif" font-size="14.00" fill="#000000">de satisfaction réel et durable</text>
</g>
<!-- PL3&#45;&gt;p7 -->
<g id="remarques+objections_edge10" class="edge">
<title>PL3-&gt;p7</title>
<path fill="none" stroke="#000000" d="M544.0342,-295.3531C544.8367,-272.9417 545.109,-262.9718 539.3764,-251.5347"/>
<polygon fill="#000000" stroke="#000000" points="542.2326,-249.4941 534.0627,-242.7485 536.2429,-253.1166 542.2326,-249.4941"/>
<text text-anchor="middle" x="515.0152" y="-283.7022" font-family="Times,serif" font-size="10.00" fill="#666666">par</text>
<text text-anchor="middle" x="515.0152" y="-271.7022" font-family="Times,serif" font-size="10.00" fill="#666666">conséquent …</text>
</g>
<!-- p2&#45;&gt;PL1 -->
<!-- p2&#45;&gt;p7 -->
<!-- p7&#45;&gt;PL1 -->
<!-- p3 -->
<g id="remarques+objections_node8_remarques+objections" class="node">
<title>p3</title>
<path fill="#ffffff" stroke="#000000" d="M494.0651,-377.4078C494.0651,-377.4078 335.9349,-377.4078 335.9349,-377.4078 329.9349,-377.4078 323.9349,-371.4078 323.9349,-365.4078 323.9349,-365.4078 323.9349,-316.6056 323.9349,-316.6056 323.9349,-310.6056 329.9349,-304.6056 335.9349,-304.6056 335.9349,-304.6056 494.0651,-304.6056 494.0651,-304.6056 500.0651,-304.6056 506.0651,-310.6056 506.0651,-316.6056 506.0651,-316.6056 506.0651,-365.4078 506.0651,-365.4078 506.0651,-371.4078 500.0651,-377.4078 494.0651,-377.4078"/>
<text text-anchor="middle" x="415" y="-353.6067" font-family="Times,serif" font-size="14.00" fill="#000000">Nous avons tendance à nous</text>
<text text-anchor="middle" x="415" y="-336.8067" font-family="Times,serif" font-size="14.00" fill="#000000">divertir pour ne pas penser</text>
<text text-anchor="middle" x="415" y="-320.0067" font-family="Times,serif" font-size="14.00" fill="#000000">au tragique de l'existence</text>
</g>
<!-- p3&#45;&gt;PL2 -->
<!-- p3&#45;&gt;PL3 -->
<!-- p6 -->
<g id="remarques+objections_node10_remarques+objections" class="node">
<title>p6</title>
<path fill="#ffffff" stroke="#000000" d="M643.6359,-377.4078C643.6359,-377.4078 536.3641,-377.4078 536.3641,-377.4078 530.3641,-377.4078 524.3641,-371.4078 524.3641,-365.4078 524.3641,-365.4078 524.3641,-316.6056 524.3641,-316.6056 524.3641,-310.6056 530.3641,-304.6056 536.3641,-304.6056 536.3641,-304.6056 643.6359,-304.6056 643.6359,-304.6056 649.6359,-304.6056 655.6359,-310.6056 655.6359,-316.6056 655.6359,-316.6056 655.6359,-365.4078 655.6359,-365.4078 655.6359,-371.4078 649.6359,-377.4078 643.6359,-377.4078"/>
<text text-anchor="middle" x="590" y="-353.6067" font-family="Times,serif" font-size="14.00" fill="#000000">Le divertissement</text>
<text text-anchor="middle" x="590" y="-336.8067" font-family="Times,serif" font-size="14.00" fill="#000000">n'est qu'un masque</text>
<text text-anchor="middle" x="590" y="-320.0067" font-family="Times,serif" font-size="14.00" fill="#000000">illusoire et fragile</text>
</g>
<!-- p3&#45;&gt;p6 -->
<!-- p4 -->
<g id="remarques+objections_node9_remarques+objections" class="node">
<title>p4</title>
<path fill="#ffffff" stroke="#000000" d="M293.7113,-377.4078C293.7113,-377.4078 116.2887,-377.4078 116.2887,-377.4078 110.2887,-377.4078 104.2887,-371.4078 104.2887,-365.4078 104.2887,-365.4078 104.2887,-316.6056 104.2887,-316.6056 104.2887,-310.6056 110.2887,-304.6056 116.2887,-304.6056 116.2887,-304.6056 293.7113,-304.6056 293.7113,-304.6056 299.7113,-304.6056 305.7113,-310.6056 305.7113,-316.6056 305.7113,-316.6056 305.7113,-365.4078 305.7113,-365.4078 305.7113,-371.4078 299.7113,-377.4078 293.7113,-377.4078"/>
<text text-anchor="middle" x="205" y="-353.6067" font-family="Times,serif" font-size="14.00" fill="#000000">Le divertissement ne permet</text>
<text text-anchor="middle" x="205" y="-336.8067" font-family="Times,serif" font-size="14.00" fill="#000000">d'atteindre que des satisfactions</text>
<text text-anchor="middle" x="205" y="-320.0067" font-family="Times,serif" font-size="14.00" fill="#000000">superficielles et partielles</text>
</g>
<!-- p4&#45;&gt;PL2 -->
<!-- p4&#45;&gt;p3 -->
<!-- p6&#45;&gt;PL3 -->
<!-- p5 -->
<g id="remarques+objections_node11_remarques+objections" class="node">
<title>p5</title>
<path fill="#ffffff" stroke="#000000" d="M485.9362,-485.6082C485.9362,-485.6082 344.0638,-485.6082 344.0638,-485.6082 338.0638,-485.6082 332.0638,-479.6082 332.0638,-473.6082 332.0638,-473.6082 332.0638,-442.4053 332.0638,-442.4053 332.0638,-436.4053 338.0638,-430.4053 344.0638,-430.4053 344.0638,-430.4053 485.9362,-430.4053 485.9362,-430.4053 491.9362,-430.4053 497.9362,-436.4053 497.9362,-442.4053 497.9362,-442.4053 497.9362,-473.6082 497.9362,-473.6082 497.9362,-479.6082 491.9362,-485.6082 485.9362,-485.6082"/>
<text text-anchor="middle" x="415" y="-462.2067" font-family="Times,serif" font-size="14.00" fill="#000000">Nous sommes confrontés</text>
<text text-anchor="middle" x="415" y="-445.4067" font-family="Times,serif" font-size="14.00" fill="#000000">au tragique de l'existence</text>
</g>
<!-- p5&#45;&gt;p3 -->
<g id="remarques+objections_edge13" class="edge">
<title>p5-&gt;p3</title>
<path fill="none" stroke="#000000" d="M421.7794,-430.2036C423.5063,-419.0281 423.217,-408.051 420.9113,-387.4526"/>
<polygon fill="#000000" stroke="#000000" points="424.3583,-386.7969 419.7101,-377.2762 417.4066,-387.6176 424.3583,-386.7969"/>
<text text-anchor="middle" x="393.3447" y="-418.5111" font-family="Times,serif" font-size="10.00" fill="#666666">par</text>
<text text-anchor="middle" x="393.3447" y="-406.5111" font-family="Times,serif" font-size="10.00" fill="#666666">conséquent …</text>
</g>
</g>
</svg>