<?xml version="1.0" encoding="UTF-8" standalone="no"?><!DOCTYPE svg PUBLIC "-//W3C//DTD SVG 1.1//EN" "http://www.w3.org/Graphics/SVG/1.1/DTD/svg11.dtd"><!-- Generated by graphviz version 2.40.1 (20161225.0304)
 --><!-- Title: G Pages: 1 --><svg xmlns="http://www.w3.org/2000/svg" xmlns:xlink="http://www.w3.org/1999/xlink" width="937pt" height="494pt" viewBox="0.00 0.00 937.20 494.35">
<g id="remarques+objections_graph0" class="graph" transform="scale(1 1) rotate(0) translate(21.6 472.7537)">
<title>G</title>
<polygon fill="#ffffff" stroke="transparent" points="-21.6,21.6 -21.6,-472.7537 915.6,-472.7537 915.6,21.6 -21.6,21.6"/>
<g id="remarques+objections_clust1" class="cluster">
<title>cluster_0</title>
<path fill="#e5e5e5" stroke="#7f7f7f" d="M91,-8C91,-8 874,-8 874,-8 880,-8 886,-14 886,-20 886,-20 886,-431.1537 886,-431.1537 886,-437.1537 880,-443.1537 874,-443.1537 874,-443.1537 91,-443.1537 91,-443.1537 85,-443.1537 79,-437.1537 79,-431.1537 79,-431.1537 79,-20 79,-20 79,-14 85,-8 91,-8"/>
</g>
<!-- 0 -->
<!-- PL1 -->
<g id="remarques+objections_node2_remarques+objections" class="node">
<title>PL1</title>
<polygon fill="#e0e0e0" stroke="transparent" points="373,-336.4537 121,-336.4537 121,-335.4537 373,-335.4537 373,-336.4537"/>
<polyline fill="none" stroke="#000000" points="121,-335.4537 373,-335.4537 "/>
</g>
<!-- p3 -->
<g id="remarques+objections_node6_remarques+objections" class="node">
<title>p3</title>
<path fill="#ffffff" stroke="#000000" d="M382.5827,-281.3548C382.5827,-281.3548 247.4173,-281.3548 247.4173,-281.3548 241.4173,-281.3548 235.4173,-275.3548 235.4173,-269.3548 235.4173,-269.3548 235.4173,-220.5526 235.4173,-220.5526 235.4173,-214.5526 241.4173,-208.5526 247.4173,-208.5526 247.4173,-208.5526 382.5827,-208.5526 382.5827,-208.5526 388.5827,-208.5526 394.5827,-214.5526 394.5827,-220.5526 394.5827,-220.5526 394.5827,-269.3548 394.5827,-269.3548 394.5827,-275.3548 388.5827,-281.3548 382.5827,-281.3548"/>
<text text-anchor="middle" x="315" y="-257.5537" font-family="Times,serif" font-size="14.00" fill="#000000">L'esprit et le</text>
<text text-anchor="middle" x="315" y="-240.7537" font-family="Times,serif" font-size="14.00" fill="#000000">monde physique sont</text>
<text text-anchor="middle" x="315" y="-223.9537" font-family="Times,serif" font-size="14.00" fill="#000000">concevables séparément</text>
</g>
<!-- PL1&#45;&gt;p3 -->
<g id="remarques+objections_edge3" class="edge">
<title>PL1-&gt;p3</title>
<path fill="none" stroke="#000000" d="M247.2986,-335.0879C254.8619,-313.1598 258.0202,-304.302 271.3339,-289.0296"/>
<polygon fill="#000000" stroke="#000000" points="274.0591,-291.2357 278.2179,-281.4912 268.89,-286.5154 274.0591,-291.2357"/>
<text text-anchor="middle" x="229.7258" y="-321.3968" font-family="Times,serif" font-size="10.00" fill="#666666">par</text>
<text text-anchor="middle" x="229.7258" y="-309.3968" font-family="Times,serif" font-size="10.00" fill="#666666">conséquent …</text>
</g>
<!-- vide1 -->
<!-- PL1&#45;&gt;vide1 -->
<!-- PL2 -->
<g id="remarques+objections_node3_remarques+objections" class="node">
<title>PL2</title>
<polygon fill="#e0e0e0" stroke="transparent" points="843,-336.4537 591,-336.4537 591,-335.4537 843,-335.4537 843,-336.4537"/>
<polyline fill="none" stroke="#000000" points="591,-335.4537 843,-335.4537 "/>
</g>
<!-- p6 -->
<g id="remarques+objections_node9_remarques+objections" class="node">
<title>p6</title>
<path fill="#ffffff" stroke="#000000" d="M731.7229,-281.3548C731.7229,-281.3548 576.2771,-281.3548 576.2771,-281.3548 570.2771,-281.3548 564.2771,-275.3548 564.2771,-269.3548 564.2771,-269.3548 564.2771,-220.5526 564.2771,-220.5526 564.2771,-214.5526 570.2771,-208.5526 576.2771,-208.5526 576.2771,-208.5526 731.7229,-208.5526 731.7229,-208.5526 737.7229,-208.5526 743.7229,-214.5526 743.7229,-220.5526 743.7229,-220.5526 743.7229,-269.3548 743.7229,-269.3548 743.7229,-275.3548 737.7229,-281.3548 731.7229,-281.3548"/>
<text text-anchor="middle" x="654" y="-257.5537" font-family="Times,serif" font-size="14.00" fill="#000000">L'esprit et le monde</text>
<text text-anchor="middle" x="654" y="-240.7537" font-family="Times,serif" font-size="14.00" fill="#000000">physique se caractérisent</text>
<text text-anchor="middle" x="654" y="-223.9537" font-family="Times,serif" font-size="14.00" fill="#000000">par des propriétés opposées</text>
</g>
<!-- PL2&#45;&gt;p6 -->
<g id="remarques+objections_edge6" class="edge">
<title>PL2-&gt;p6</title>
<path fill="none" stroke="#000000" d="M716.7642,-335.0307C711.0297,-312.5909 708.477,-303.0059 697.1746,-289.0412"/>
<polygon fill="#000000" stroke="#000000" points="699.6042,-286.5012 690.4034,-281.2481 694.3202,-291.0924 699.6042,-286.5012"/>
<text text-anchor="middle" x="678.7573" y="-320.984" font-family="Times,serif" font-size="10.00" fill="#666666">par</text>
<text text-anchor="middle" x="678.7573" y="-308.984" font-family="Times,serif" font-size="10.00" fill="#666666">conséquent …</text>
</g>
<!-- p1 -->
<g id="remarques+objections_node4_remarques+objections" class="node">
<title>p1</title>
<path fill="#ffffff" stroke="#000000" d="M239.951,-418.3548C239.951,-418.3548 116.049,-418.3548 116.049,-418.3548 110.049,-418.3548 104.049,-412.3548 104.049,-406.3548 104.049,-406.3548 104.049,-357.5526 104.049,-357.5526 104.049,-351.5526 110.049,-345.5526 116.049,-345.5526 116.049,-345.5526 239.951,-345.5526 239.951,-345.5526 245.951,-345.5526 251.951,-351.5526 251.951,-357.5526 251.951,-357.5526 251.951,-406.3548 251.951,-406.3548 251.951,-412.3548 245.951,-418.3548 239.951,-418.3548"/>
<text text-anchor="middle" x="178" y="-394.5537" font-family="Times,serif" font-size="14.00" fill="#000000">Il est possible de</text>
<text text-anchor="middle" x="178" y="-377.7537" font-family="Times,serif" font-size="14.00" fill="#000000">concevoir l'esprit sans</text>
<text text-anchor="middle" x="178" y="-360.9537" font-family="Times,serif" font-size="14.00" fill="#000000">le monde physique</text>
</g>
<!-- p1&#45;&gt;PL1 -->
<!-- p2 -->
<g id="remarques+objections_node5_remarques+objections" class="node">
<title>p2</title>
<path fill="#ffffff" stroke="#000000" d="M401.8061,-418.3548C401.8061,-418.3548 282.1939,-418.3548 282.1939,-418.3548 276.1939,-418.3548 270.1939,-412.3548 270.1939,-406.3548 270.1939,-406.3548 270.1939,-357.5526 270.1939,-357.5526 270.1939,-351.5526 276.1939,-345.5526 282.1939,-345.5526 282.1939,-345.5526 401.8061,-345.5526 401.8061,-345.5526 407.8061,-345.5526 413.8061,-351.5526 413.8061,-357.5526 413.8061,-357.5526 413.8061,-406.3548 413.8061,-406.3548 413.8061,-412.3548 407.8061,-418.3548 401.8061,-418.3548"/>
<text text-anchor="middle" x="342" y="-394.5537" font-family="Times,serif" font-size="14.00" fill="#000000">Il est possible de</text>
<text text-anchor="middle" x="342" y="-377.7537" font-family="Times,serif" font-size="14.00" fill="#000000">concevoir le monde</text>
<text text-anchor="middle" x="342" y="-360.9537" font-family="Times,serif" font-size="14.00" fill="#000000">physique sans l'esprit</text>
</g>
<!-- p1&#45;&gt;p2 -->
<!-- p2&#45;&gt;PL1 -->
<!-- p4 -->
<g id="remarques+objections_node7_remarques+objections" class="node">
<title>p4</title>
<path fill="#ffffff" stroke="#000000" d="M656.9643,-418.3548C656.9643,-418.3548 515.0357,-418.3548 515.0357,-418.3548 509.0357,-418.3548 503.0357,-412.3548 503.0357,-406.3548 503.0357,-406.3548 503.0357,-357.5526 503.0357,-357.5526 503.0357,-351.5526 509.0357,-345.5526 515.0357,-345.5526 515.0357,-345.5526 656.9643,-345.5526 656.9643,-345.5526 662.9643,-345.5526 668.9643,-351.5526 668.9643,-357.5526 668.9643,-357.5526 668.9643,-406.3548 668.9643,-406.3548 668.9643,-412.3548 662.9643,-418.3548 656.9643,-418.3548"/>
<text text-anchor="middle" x="586" y="-394.5537" font-family="Times,serif" font-size="14.00" fill="#000000">Les états mentaux ne</text>
<text text-anchor="middle" x="586" y="-377.7537" font-family="Times,serif" font-size="14.00" fill="#000000">sont pas localisables dans</text>
<text text-anchor="middle" x="586" y="-360.9537" font-family="Times,serif" font-size="14.00" fill="#000000">l'espace et pas divisibles</text>
</g>
<!-- p2&#45;&gt;p4 -->
<!-- C -->
<g id="remarques+objections_node10_remarques+objections" class="node">
<title>C</title>
<ellipse fill="#000000" stroke="#000000" cx="482" cy="-94.3769" rx="124.1518" ry="61.254"/>
<text text-anchor="middle" x="482" y="-110.5769" font-family="Times,serif" font-size="18.00" fill="#ffffff">Il y a une distinction</text>
<text text-anchor="middle" x="482" y="-88.9769" font-family="Times,serif" font-size="18.00" fill="#ffffff">radicale entre l'esprit</text>
<text text-anchor="middle" x="482" y="-67.3769" font-family="Times,serif" font-size="18.00" fill="#ffffff">et le monde physique</text>
</g>
<!-- p3&#45;&gt;C -->
<g id="remarques+objections_edge7" class="edge">
<title>p3-&gt;C</title>
<path fill="none" stroke="#000000" d="M333.3076,-208.3157C350.4769,-174.8005 362.4131,-155.6544 379.7441,-141.2945"/>
<polygon fill="#000000" stroke="#000000" points="382.2314,-143.8035 388.1248,-134.999 378.0272,-138.2067 382.2314,-143.8035"/>
<text text-anchor="middle" x="327.4637" y="-182.4958" font-family="Times,serif" font-size="10.00" fill="#666666">par</text>
<text text-anchor="middle" x="327.4637" y="-170.4958" font-family="Times,serif" font-size="10.00" fill="#666666">conséquent …</text>
</g>
<!-- p4&#45;&gt;PL2 -->
<!-- p5 -->
<g id="remarques+objections_node8_remarques+objections" class="node">
<title>p5</title>
<path fill="#ffffff" stroke="#000000" d="M848.64,-418.3548C848.64,-418.3548 699.36,-418.3548 699.36,-418.3548 693.36,-418.3548 687.36,-412.3548 687.36,-406.3548 687.36,-406.3548 687.36,-357.5526 687.36,-357.5526 687.36,-351.5526 693.36,-345.5526 699.36,-345.5526 699.36,-345.5526 848.64,-345.5526 848.64,-345.5526 854.64,-345.5526 860.64,-351.5526 860.64,-357.5526 860.64,-357.5526 860.64,-406.3548 860.64,-406.3548 860.64,-412.3548 854.64,-418.3548 848.64,-418.3548"/>
<text text-anchor="middle" x="774" y="-394.5537" font-family="Times,serif" font-size="14.00" fill="#000000">Les phénomènes</text>
<text text-anchor="middle" x="774" y="-377.7537" font-family="Times,serif" font-size="14.00" fill="#000000">physiques sont localisables</text>
<text text-anchor="middle" x="774" y="-360.9537" font-family="Times,serif" font-size="14.00" fill="#000000">dans l'espace et divisibles</text>
</g>
<!-- p4&#45;&gt;p5 -->
<!-- p5&#45;&gt;PL2 -->
<!-- p6&#45;&gt;C -->
<g id="remarques+objections_edge8" class="edge">
<title>p6-&gt;C</title>
<path fill="none" stroke="#000000" d="M636.5637,-208.6386C619.9096,-175.5268 607.5308,-158.6718 581.0178,-141.9571"/>
<polygon fill="#000000" stroke="#000000" points="582.6949,-138.882 572.3155,-136.7564 579.104,-144.8907 582.6949,-138.882"/>
<text text-anchor="middle" x="581.7938" y="-182.2146" font-family="Times,serif" font-size="10.00" fill="#666666">par</text>
<text text-anchor="middle" x="581.7938" y="-170.2146" font-family="Times,serif" font-size="10.00" fill="#666666">conséquent …</text>
</g>
<!-- vide1&#45;&gt;PL2 -->
<!-- vide1&#45;&gt;C -->
</g>
</svg>