<?xml version="1.0" encoding="UTF-8" standalone="no"?>
<!DOCTYPE svg PUBLIC "-//W3C//DTD SVG 1.1//EN"
 "http://www.w3.org/Graphics/SVG/1.1/DTD/svg11.dtd">
<!-- Generated by graphviz version 2.40.1 (20161225.0304)
 -->
<!-- Title: G Pages: 1 -->
<svg width="582pt" height="868pt"
 viewBox="0.00 0.00 582.00 868.33" xmlns="http://www.w3.org/2000/svg" xmlns:xlink="http://www.w3.org/1999/xlink">
<g id="graph0" class="graph" transform="scale(1 1) rotate(0) translate(4 864.3283)">
<title>G</title>
<polygon fill="#ffffff" stroke="transparent" points="-4,4 -4,-864.3283 578,-864.3283 578,4 -4,4"/>
<g id="clust1" class="cluster">
<title>cluster_0</title>
<path fill="#e5e5e5" stroke="#7f7f7f" d="M20,-8C20,-8 554,-8 554,-8 560,-8 566,-14 566,-20 566,-20 566,-840.3283 566,-840.3283 566,-846.3283 560,-852.3283 554,-852.3283 554,-852.3283 20,-852.3283 20,-852.3283 14,-852.3283 8,-846.3283 8,-840.3283 8,-840.3283 8,-20 8,-20 8,-14 14,-8 20,-8"/>
</g>
<g id="clust2" class="cluster">
<title>cluster_1</title>
<polygon fill="#bababa" stroke="#bababa" points="48,-681.9283 48,-812.3283 496,-812.3283 496,-681.9283 48,-681.9283"/>
</g>
<g id="clust4" class="cluster">
<title>cluster_2</title>
<polygon fill="#bababa" stroke="#bababa" points="48,-442.7283 48,-601.9283 526,-601.9283 526,-442.7283 48,-442.7283"/>
</g>
<g id="clust6" class="cluster">
<title>cluster_3</title>
<polygon fill="#bababa" stroke="#bababa" points="62,-203.5283 62,-362.7283 526,-362.7283 526,-203.5283 62,-203.5283"/>
</g>
<!-- p1 -->
<g id="node1" class="node">
<title>p1</title>
<path fill="#ffffff" stroke="#000000" d="M254.9408,-797.5291C254.9408,-797.5291 75.0592,-797.5291 75.0592,-797.5291 69.0592,-797.5291 63.0592,-791.5291 63.0592,-785.5291 63.0592,-785.5291 63.0592,-708.7275 63.0592,-708.7275 63.0592,-702.7275 69.0592,-696.7275 75.0592,-696.7275 75.0592,-696.7275 254.9408,-696.7275 254.9408,-696.7275 260.9408,-696.7275 266.9408,-702.7275 266.9408,-708.7275 266.9408,-708.7275 266.9408,-785.5291 266.9408,-785.5291 266.9408,-791.5291 260.9408,-797.5291 254.9408,-797.5291"/>
<text text-anchor="middle" x="165" y="-768.7283" font-family="Times,serif" font-size="24.00" fill="#000000">(1) Tout ce qui a un</text>
<text text-anchor="middle" x="165" y="-739.9283" font-family="Times,serif" font-size="24.00" fill="#000000">commencement</text>
<text text-anchor="middle" x="165" y="-711.1283" font-family="Times,serif" font-size="24.00" fill="#000000">a une cause</text>
</g>
<!-- p2 -->
<g id="node2" class="node">
<title>p2</title>
<path fill="#ffffff" stroke="#000000" d="M468.9464,-782.7295C468.9464,-782.7295 297.0536,-782.7295 297.0536,-782.7295 291.0536,-782.7295 285.0536,-776.7295 285.0536,-770.7295 285.0536,-770.7295 285.0536,-723.5272 285.0536,-723.5272 285.0536,-717.5272 291.0536,-711.5272 297.0536,-711.5272 297.0536,-711.5272 468.9464,-711.5272 468.9464,-711.5272 474.9464,-711.5272 480.9464,-717.5272 480.9464,-723.5272 480.9464,-723.5272 480.9464,-770.7295 480.9464,-770.7295 480.9464,-776.7295 474.9464,-782.7295 468.9464,-782.7295"/>
<text text-anchor="middle" x="383" y="-754.3283" font-family="Times,serif" font-size="24.00" fill="#000000">(2) Le monde a</text>
<text text-anchor="middle" x="383" y="-725.5283" font-family="Times,serif" font-size="24.00" fill="#000000">un commencement</text>
</g>
<!-- p1&#45;&gt;p2 -->
<!-- p3 -->
<g id="node3" class="node">
<title>p3</title>
<path fill="#ffffff" stroke="#000000" d="M195.1181,-557.9295C195.1181,-557.9295 74.8819,-557.9295 74.8819,-557.9295 68.8819,-557.9295 62.8819,-551.9295 62.8819,-545.9295 62.8819,-545.9295 62.8819,-498.7272 62.8819,-498.7272 62.8819,-492.7272 68.8819,-486.7272 74.8819,-486.7272 74.8819,-486.7272 195.1181,-486.7272 195.1181,-486.7272 201.1181,-486.7272 207.1181,-492.7272 207.1181,-498.7272 207.1181,-498.7272 207.1181,-545.9295 207.1181,-545.9295 207.1181,-551.9295 201.1181,-557.9295 195.1181,-557.9295"/>
<text text-anchor="middle" x="135" y="-529.5283" font-family="Times,serif" font-size="24.00" fill="#000000">(3) Le monde</text>
<text text-anchor="middle" x="135" y="-500.7283" font-family="Times,serif" font-size="24.00" fill="#000000">a une cause</text>
</g>
<!-- p2&#45;&gt;p3 -->
<g id="edge2" class="edge">
<title>p2:w&#45;&gt;p3:n</title>
<path fill="none" stroke="#000000" d="M276,-681.9283C238.1761,-611.7134 143.6064,-639.0155 135.5491,-568.4435"/>
<polygon fill="#000000" stroke="#000000" points="139.037,-568.1239 135,-558.3283 132.0473,-568.5034 139.037,-568.1239"/>
<text text-anchor="middle" x="150.96" y="-647.8119" font-family="Times,serif" font-size="15.00" fill="#666666">Par</text>
<text text-anchor="middle" x="150.96" y="-629.8119" font-family="Times,serif" font-size="15.00" fill="#666666">conséquent …</text>
</g>
<!-- p4 -->
<g id="node4" class="node">
<title>p4</title>
<path fill="#ffffff" stroke="#000000" d="M498.7385,-587.0285C498.7385,-587.0285 237.2615,-587.0285 237.2615,-587.0285 231.2615,-587.0285 225.2615,-581.0285 225.2615,-575.0285 225.2615,-575.0285 225.2615,-469.6282 225.2615,-469.6282 225.2615,-463.6282 231.2615,-457.6282 237.2615,-457.6282 237.2615,-457.6282 498.7385,-457.6282 498.7385,-457.6282 504.7385,-457.6282 510.7385,-463.6282 510.7385,-469.6282 510.7385,-469.6282 510.7385,-575.0285 510.7385,-575.0285 510.7385,-581.0285 504.7385,-587.0285 498.7385,-587.0285"/>
<text text-anchor="middle" x="368" y="-558.3283" font-family="Times,serif" font-size="24.00" fill="#000000">(4) Si le monde a une cause,</text>
<text text-anchor="middle" x="368" y="-529.5283" font-family="Times,serif" font-size="24.00" fill="#000000">cette cause ne peut pas être</text>
<text text-anchor="middle" x="368" y="-500.7283" font-family="Times,serif" font-size="24.00" fill="#000000">une réalité dans le monde,</text>
<text text-anchor="middle" x="368" y="-471.9283" font-family="Times,serif" font-size="24.00" fill="#000000">ou le monde lui&#45;même</text>
</g>
<!-- p3&#45;&gt;p4 -->
<!-- p5 -->
<g id="node5" class="node">
<title>p5</title>
<path fill="#ffffff" stroke="#000000" d="M341.2385,-347.8285C341.2385,-347.8285 88.7615,-347.8285 88.7615,-347.8285 82.7615,-347.8285 76.7615,-341.8285 76.7615,-335.8285 76.7615,-335.8285 76.7615,-230.4282 76.7615,-230.4282 76.7615,-224.4282 82.7615,-218.4282 88.7615,-218.4282 88.7615,-218.4282 341.2385,-218.4282 341.2385,-218.4282 347.2385,-218.4282 353.2385,-224.4282 353.2385,-230.4282 353.2385,-230.4282 353.2385,-335.8285 353.2385,-335.8285 353.2385,-341.8285 347.2385,-347.8285 341.2385,-347.8285"/>
<text text-anchor="middle" x="215" y="-319.1283" font-family="Times,serif" font-size="24.00" fill="#000000">Il existe une réalité</text>
<text text-anchor="middle" x="215" y="-290.3283" font-family="Times,serif" font-size="24.00" fill="#000000">différente du monde, et qui</text>
<text text-anchor="middle" x="215" y="-261.5283" font-family="Times,serif" font-size="24.00" fill="#000000">n&#39;est pas dans le monde,</text>
<text text-anchor="middle" x="215" y="-232.7283" font-family="Times,serif" font-size="24.00" fill="#000000">qui est la cause du monde</text>
</g>
<!-- p4&#45;&gt;p5 -->
<g id="edge4" class="edge">
<title>p4:w&#45;&gt;p5:n</title>
<path fill="none" stroke="#000000" d="M216.486,-442.7293C215.4221,-409.7721 215.1173,-375.3358 215.0321,-358.3967"/>
<polygon fill="#000000" stroke="#000000" points="218.5313,-358.1173 215,-348.1283 211.5314,-358.1393 218.5313,-358.1173"/>
<text text-anchor="middle" x="171.759" y="-416.8823" font-family="Times,serif" font-size="15.00" fill="#666666">Par</text>
<text text-anchor="middle" x="171.759" y="-398.8823" font-family="Times,serif" font-size="15.00" fill="#666666">conséquent …</text>
</g>
<!-- p6 -->
<g id="node6" class="node">
<title>p6</title>
<path fill="#ffffff" stroke="#000000" d="M498.9184,-318.7295C498.9184,-318.7295 383.0816,-318.7295 383.0816,-318.7295 377.0816,-318.7295 371.0816,-312.7295 371.0816,-306.7295 371.0816,-306.7295 371.0816,-259.5272 371.0816,-259.5272 371.0816,-253.5272 377.0816,-247.5272 383.0816,-247.5272 383.0816,-247.5272 498.9184,-247.5272 498.9184,-247.5272 504.9184,-247.5272 510.9184,-253.5272 510.9184,-259.5272 510.9184,-259.5272 510.9184,-306.7295 510.9184,-306.7295 510.9184,-312.7295 504.9184,-318.7295 498.9184,-318.7295"/>
<text text-anchor="middle" x="441" y="-290.3283" font-family="Times,serif" font-size="24.00" fill="#000000">Cette réalité,</text>
<text text-anchor="middle" x="441" y="-261.5283" font-family="Times,serif" font-size="24.00" fill="#000000">c&#39;est Dieu</text>
</g>
<!-- p5&#45;&gt;p6 -->
<!-- C -->
<g id="node7" class="node">
<title>C</title>
<ellipse fill="#000000" stroke="#000000" cx="371" cy="-78.2642" rx="86.9238" ry="30.0302"/>
<text text-anchor="middle" x="371" y="-71.0642" font-family="Times,serif" font-size="24.00" fill="#ffffff">Dieu existe</text>
</g>
<!-- p6&#45;&gt;C -->
<g id="edge6" class="edge">
<title>p6:w&#45;&gt;C:n</title>
<path fill="none" stroke="#000000" d="M363.6819,-203.53C365.6013,-170.6254 369.0853,-136.0743 370.4401,-118.3467"/>
<polygon fill="#000000" stroke="#000000" points="373.94,-118.4429 371,-108.2642 366.9508,-118.0547 373.94,-118.4429"/>
<text text-anchor="middle" x="323.6572" y="-177.5717" font-family="Times,serif" font-size="15.00" fill="#666666">Par</text>
<text text-anchor="middle" x="323.6572" y="-159.5717" font-family="Times,serif" font-size="15.00" fill="#666666">conséquent …</text>
</g>
</g>
</svg>
