<?xml version="1.0" encoding="UTF-8" standalone="no"?>
<!DOCTYPE svg PUBLIC "-//W3C//DTD SVG 1.1//EN"
 "http://www.w3.org/Graphics/SVG/1.1/DTD/svg11.dtd">
<!-- Generated by graphviz version 2.40.1 (20161225.0304)
 -->
<!-- Title: G Pages: 1 -->
<svg width="2002pt" height="1079pt"
 viewBox="0.00 0.00 2001.57 1078.59" xmlns="http://www.w3.org/2000/svg" xmlns:xlink="http://www.w3.org/1999/xlink">
<g id="graph0" class="graph" transform="scale(1 1) rotate(0) translate(4 1074.587)">
<title>G</title>
<polygon fill="#ffffff" stroke="transparent" points="-4,4 -4,-1074.587 1997.572,-1074.587 1997.572,4 -4,4"/>
<g id="clust3" class="cluster">
<title>cluster_0</title>
<path fill="#e5e5e5" stroke="#7f7f7f" d="M646.1699,-8C646.1699,-8 1401.1699,-8 1401.1699,-8 1407.1699,-8 1413.1699,-14 1413.1699,-20 1413.1699,-20 1413.1699,-1050.587 1413.1699,-1050.587 1413.1699,-1056.587 1407.1699,-1062.587 1401.1699,-1062.587 1401.1699,-1062.587 646.1699,-1062.587 646.1699,-1062.587 640.1699,-1062.587 634.1699,-1056.587 634.1699,-1050.587 634.1699,-1050.587 634.1699,-20 634.1699,-20 634.1699,-14 640.1699,-8 646.1699,-8"/>
</g>
<g id="clust4" class="cluster">
<title>cluster_1</title>
<polygon fill="#bababa" stroke="#bababa" points="674.1699,-863.387 674.1699,-1022.587 1373.1699,-1022.587 1373.1699,-863.387 674.1699,-863.387"/>
</g>
<g id="clust5" class="cluster">
<title>cluster_2</title>
<polygon fill="#bababa" stroke="#bababa" points="730.1699,-363.587 730.1699,-735.787 1223.1699,-735.787 1223.1699,-363.587 730.1699,-363.587"/>
</g>
<!-- o1 -->
<g id="node1" class="node">
<title>o1</title>
<path fill="#ffffff" stroke="#cd0000" d="M581.6989,-1025.6872C581.6989,-1025.6872 134.6409,-1025.6872 134.6409,-1025.6872 128.6409,-1025.6872 122.6409,-1019.6872 122.6409,-1013.6872 122.6409,-1013.6872 122.6409,-872.2869 122.6409,-872.2869 122.6409,-866.2869 128.6409,-860.2869 134.6409,-860.2869 134.6409,-860.2869 581.6989,-860.2869 581.6989,-860.2869 587.6989,-860.2869 593.6989,-866.2869 593.6989,-872.2869 593.6989,-872.2869 593.6989,-1013.6872 593.6989,-1013.6872 593.6989,-1019.6872 587.6989,-1025.6872 581.6989,-1025.6872"/>
<text text-anchor="middle" x="358.1699" y="-1002.387" font-family="Times,serif" font-size="18.00" fill="#000000">Si cette première prémisse formule une définition, alors la</text>
<text text-anchor="middle" x="358.1699" y="-980.787" font-family="Times,serif" font-size="18.00" fill="#000000">conclusion de cet argument n&#39;est pas que réellement Dieu</text>
<text text-anchor="middle" x="358.1699" y="-959.187" font-family="Times,serif" font-size="18.00" fill="#000000">existe, mais simplement que, la définition de Dieu inclut</text>
<text text-anchor="middle" x="358.1699" y="-937.587" font-family="Times,serif" font-size="18.00" fill="#000000">la propriété d&#39;exister, ce qui n&#39;est pas la même chose : on ne</text>
<text text-anchor="middle" x="358.1699" y="-915.987" font-family="Times,serif" font-size="18.00" fill="#000000">peut pas passer de l&#39;inconcevabilité de Dieu sans l&#39;existence</text>
<text text-anchor="middle" x="358.1699" y="-894.387" font-family="Times,serif" font-size="18.00" fill="#000000">(dans notre esprit) à l&#39;affirmation de son existence réelle (dans</text>
<text text-anchor="middle" x="358.1699" y="-872.787" font-family="Times,serif" font-size="18.00" fill="#000000">le monde), ce serait faire un saut illégitime de la pensée au réel</text>
</g>
<!-- p1 -->
<g id="node3" class="node">
<title>p1</title>
<path fill="#ffffff" stroke="#000000" d="M860.9397,-993.3878C860.9397,-993.3878 701.4001,-993.3878 701.4001,-993.3878 695.4001,-993.3878 689.4001,-987.3878 689.4001,-981.3878 689.4001,-981.3878 689.4001,-904.5862 689.4001,-904.5862 689.4001,-898.5862 695.4001,-892.5862 701.4001,-892.5862 701.4001,-892.5862 860.9397,-892.5862 860.9397,-892.5862 866.9397,-892.5862 872.9397,-898.5862 872.9397,-904.5862 872.9397,-904.5862 872.9397,-981.3878 872.9397,-981.3878 872.9397,-987.3878 866.9397,-993.3878 860.9397,-993.3878"/>
<text text-anchor="middle" x="781.1699" y="-964.587" font-family="Times,serif" font-size="24.00" fill="#000000">(P1) Dieu est, par</text>
<text text-anchor="middle" x="781.1699" y="-935.787" font-family="Times,serif" font-size="24.00" fill="#000000">définition, un</text>
<text text-anchor="middle" x="781.1699" y="-906.987" font-family="Times,serif" font-size="24.00" fill="#000000">être parfait</text>
</g>
<!-- o1&#45;&gt;p1 -->
<g id="edge1" class="edge">
<title>o1&#45;&gt;p1</title>
<path fill="none" stroke="#cd0000" stroke-width=".8" d="M602.0799,-942.987C632.9303,-942.987 662.8383,-942.987 689.0939,-942.987"/>
<polygon fill="#cd0000" stroke="#cd0000" stroke-width=".8" points="601.7887,-940.1871 593.7887,-942.987 601.7887,-945.7871 601.7887,-940.1871"/>
<text text-anchor="middle" x="641.6097" y="-950.187" font-family="Times,serif" font-size="14.00" fill="#8b0000"> Mais …</text>
</g>
<!-- o3 -->
<g id="node2" class="node">
<title>o3</title>
<path fill="#ffffff" stroke="#cd0000" d="M582.5098,-554.3874C582.5098,-554.3874 11.83,-554.3874 11.83,-554.3874 5.83,-554.3874 -.17,-548.3874 -.17,-542.3874 -.17,-542.3874 -.17,-315.1867 -.17,-315.1867 -.17,-309.1867 5.83,-303.1867 11.83,-303.1867 11.83,-303.1867 582.5098,-303.1867 582.5098,-303.1867 588.5098,-303.1867 594.5098,-309.1867 594.5098,-315.1867 594.5098,-315.1867 594.5098,-542.3874 594.5098,-542.3874 594.5098,-548.3874 588.5098,-554.3874 582.5098,-554.3874"/>
<text text-anchor="middle" x="297.1699" y="-531.387" font-family="Times,serif" font-size="18.00" fill="#000000">L&#39;existence est&#45;elle vraiment une propriété d&#39;une entité ?</text>
<text text-anchor="middle" x="297.1699" y="-509.787" font-family="Times,serif" font-size="18.00" fill="#000000">1/ D&#39;un point de vue épistémologique, une propriété est un moyen de distinguer</text>
<text text-anchor="middle" x="297.1699" y="-488.187" font-family="Times,serif" font-size="18.00" fill="#000000">parmi tout ce qui existe les entités qui possèdent cette propriété et celles qui</text>
<text text-anchor="middle" x="297.1699" y="-466.587" font-family="Times,serif" font-size="18.00" fill="#000000">ne la possèdent pas, or l&#39;existence n&#39;est pas une caractéristique distinctive.</text>
<text text-anchor="middle" x="297.1699" y="-444.987" font-family="Times,serif" font-size="18.00" fill="#000000">2/ D&#39;un point de vue logique, la structure d&#39;un jugement qui attribue une</text>
<text text-anchor="middle" x="297.1699" y="-423.387" font-family="Times,serif" font-size="18.00" fill="#000000">propriété à un objet (forme logique : Pa) n&#39;est pas la même que celle d&#39;un</text>
<text text-anchor="middle" x="297.1699" y="-401.787" font-family="Times,serif" font-size="18.00" fill="#000000">jugement d&#39;existence (∃x.Px) ; on peut concevoir l&#39;existence comme une</text>
<text text-anchor="middle" x="297.1699" y="-380.187" font-family="Times,serif" font-size="18.00" fill="#000000">propriété de second&#45;ordre, qui signifierait qu&#39;une propriété est instanciée,</text>
<text text-anchor="middle" x="297.1699" y="-358.587" font-family="Times,serif" font-size="18.00" fill="#000000">mais ce n&#39;est pas une propriété de premier&#45;ordre attribuable à une entité</text>
<text text-anchor="middle" x="297.1699" y="-336.987" font-family="Times,serif" font-size="18.00" fill="#000000">3/ Si l&#39;existence est une propriété, alors elle fait partie des propriétés du</text>
<text text-anchor="middle" x="297.1699" y="-315.387" font-family="Times,serif" font-size="18.00" fill="#000000">concept de “licorne existante”, ce qui signifierait que les licornes existent !</text>
</g>
<!-- p3 -->
<g id="node4" class="node">
<title>p3</title>
<path fill="#ffffff" stroke="#000000" d="M906.9293,-479.1878C906.9293,-479.1878 757.4105,-479.1878 757.4105,-479.1878 751.4105,-479.1878 745.4105,-473.1878 745.4105,-467.1878 745.4105,-467.1878 745.4105,-390.3862 745.4105,-390.3862 745.4105,-384.3862 751.4105,-378.3862 757.4105,-378.3862 757.4105,-378.3862 906.9293,-378.3862 906.9293,-378.3862 912.9293,-378.3862 918.9293,-384.3862 918.9293,-390.3862 918.9293,-390.3862 918.9293,-467.1878 918.9293,-467.1878 918.9293,-473.1878 912.9293,-479.1878 906.9293,-479.1878"/>
<text text-anchor="middle" x="832.1699" y="-450.387" font-family="Times,serif" font-size="24.00" fill="#000000">(P3) L&#39;existence</text>
<text text-anchor="middle" x="832.1699" y="-421.587" font-family="Times,serif" font-size="24.00" fill="#000000">est une</text>
<text text-anchor="middle" x="832.1699" y="-392.787" font-family="Times,serif" font-size="24.00" fill="#000000">propriété</text>
</g>
<!-- o3&#45;&gt;p3 -->
<g id="edge2" class="edge">
<title>o3&#45;&gt;p3</title>
<path fill="none" stroke="#cd0000" stroke-width=".8" d="M602.4677,-428.787C654.7891,-428.787 705.1418,-428.787 745.3006,-428.787"/>
<polygon fill="#cd0000" stroke="#cd0000" stroke-width=".8" points="602.3955,-425.9871 594.3955,-428.787 602.3955,-431.5871 602.3955,-425.9871"/>
<text text-anchor="middle" x="669.94" y="-435.987" font-family="Times,serif" font-size="14.00" fill="#8b0000"> Mais …</text>
</g>
<!-- p2 -->
<g id="node5" class="node">
<title>p2</title>
<path fill="#ffffff" stroke="#000000" d="M1345.9907,-1007.6872C1345.9907,-1007.6872 920.3491,-1007.6872 920.3491,-1007.6872 914.3491,-1007.6872 908.3491,-1001.6872 908.3491,-995.6872 908.3491,-995.6872 908.3491,-890.2869 908.3491,-890.2869 908.3491,-884.2869 914.3491,-878.2869 920.3491,-878.2869 920.3491,-878.2869 1345.9907,-878.2869 1345.9907,-878.2869 1351.9907,-878.2869 1357.9907,-884.2869 1357.9907,-890.2869 1357.9907,-890.2869 1357.9907,-995.6872 1357.9907,-995.6872 1357.9907,-1001.6872 1351.9907,-1007.6872 1345.9907,-1007.6872"/>
<text text-anchor="middle" x="1133.1699" y="-978.987" font-family="Times,serif" font-size="24.00" fill="#000000">(P2) Un être parfait est un être qui possède</text>
<text text-anchor="middle" x="1133.1699" y="-950.187" font-family="Times,serif" font-size="24.00" fill="#000000">à un degré absolu toutes les propriétés</text>
<text text-anchor="middle" x="1133.1699" y="-921.387" font-family="Times,serif" font-size="24.00" fill="#000000">qui sont telles que c&#39;est mieux d&#39;avoir</text>
<text text-anchor="middle" x="1133.1699" y="-892.587" font-family="Times,serif" font-size="24.00" fill="#000000">cette propriété que de ne pas l&#39;avoir</text>
</g>
<!-- p1&#45;&gt;p2 -->
<!-- p4 -->
<g id="node7" class="node">
<title>p4</title>
<path fill="#ffffff" stroke="#000000" d="M1195.938,-479.1878C1195.938,-479.1878 966.4018,-479.1878 966.4018,-479.1878 960.4018,-479.1878 954.4018,-473.1878 954.4018,-467.1878 954.4018,-467.1878 954.4018,-390.3862 954.4018,-390.3862 954.4018,-384.3862 960.4018,-378.3862 966.4018,-378.3862 966.4018,-378.3862 1195.938,-378.3862 1195.938,-378.3862 1201.938,-378.3862 1207.938,-384.3862 1207.938,-390.3862 1207.938,-390.3862 1207.938,-467.1878 1207.938,-467.1878 1207.938,-473.1878 1201.938,-479.1878 1195.938,-479.1878"/>
<text text-anchor="middle" x="1081.1699" y="-450.387" font-family="Times,serif" font-size="24.00" fill="#000000">(P4) C&#39;est mieux d&#39;avoir</text>
<text text-anchor="middle" x="1081.1699" y="-421.587" font-family="Times,serif" font-size="24.00" fill="#000000">la propriété d&#39;exister</text>
<text text-anchor="middle" x="1081.1699" y="-392.787" font-family="Times,serif" font-size="24.00" fill="#000000">que de ne pas exister</text>
</g>
<!-- p3&#45;&gt;p4 -->
<!-- l1 -->
<g id="node6" class="node">
<title>l1</title>
<path fill="#ffffff" stroke="#000000" d="M1055.223,-720.8872C1055.223,-720.8872 761.1168,-720.8872 761.1168,-720.8872 755.1168,-720.8872 749.1168,-714.8872 749.1168,-708.8872 749.1168,-708.8872 749.1168,-603.4869 749.1168,-603.4869 749.1168,-597.4869 755.1168,-591.4869 761.1168,-591.4869 761.1168,-591.4869 1055.223,-591.4869 1055.223,-591.4869 1061.223,-591.4869 1067.223,-597.4869 1067.223,-603.4869 1067.223,-603.4869 1067.223,-708.8872 1067.223,-708.8872 1067.223,-714.8872 1061.223,-720.8872 1055.223,-720.8872"/>
<text text-anchor="middle" x="908.1699" y="-692.187" font-family="Times,serif" font-size="24.00" fill="#000000">(L1) Si P est une propriété telle</text>
<text text-anchor="middle" x="908.1699" y="-663.387" font-family="Times,serif" font-size="24.00" fill="#000000">que c&#39;est mieux d&#39;avoir cette</text>
<text text-anchor="middle" x="908.1699" y="-634.587" font-family="Times,serif" font-size="24.00" fill="#000000">propriété que de ne pas l&#39;avoir,</text>
<text text-anchor="middle" x="908.1699" y="-605.787" font-family="Times,serif" font-size="24.00" fill="#000000">alors Dieu a la propriété P</text>
</g>
<!-- p2&#45;&gt;l1 -->
<g id="edge7" class="edge">
<title>p2:w&#45;&gt;l1</title>
<path fill="none" stroke="#000000" d="M894.0243,-863.3916C894.2941,-822.0092 897.6636,-771.7222 901.046,-731.0517"/>
<polygon fill="#000000" stroke="#000000" points="904.5486,-731.1682 901.9063,-720.9082 897.5737,-730.5766 904.5486,-731.1682"/>
<text text-anchor="middle" x="853.017" y="-814.6415" font-family="Times,serif" font-size="15.00" fill="#666666">Par</text>
<text text-anchor="middle" x="853.017" y="-796.6415" font-family="Times,serif" font-size="15.00" fill="#666666">conséquent …</text>
</g>
<!-- o2 -->
<g id="node10" class="node">
<title>o2</title>
<path fill="#ffffff" stroke="#cd0000" d="M1961.2093,-1047.3874C1961.2093,-1047.3874 1465.1305,-1047.3874 1465.1305,-1047.3874 1459.1305,-1047.3874 1453.1305,-1041.3874 1453.1305,-1035.3874 1453.1305,-1035.3874 1453.1305,-850.5867 1453.1305,-850.5867 1453.1305,-844.5867 1459.1305,-838.5867 1465.1305,-838.5867 1465.1305,-838.5867 1961.2093,-838.5867 1961.2093,-838.5867 1967.2093,-838.5867 1973.2093,-844.5867 1973.2093,-850.5867 1973.2093,-850.5867 1973.2093,-1035.3874 1973.2093,-1035.3874 1973.2093,-1041.3874 1967.2093,-1047.3874 1961.2093,-1047.3874"/>
<text text-anchor="middle" x="1713.1699" y="-1023.987" font-family="Times,serif" font-size="18.00" fill="#000000">1/ Y a&#45;t&#45;il vraiment un fondement objectif qui permet de hiérarchiser</text>
<text text-anchor="middle" x="1713.1699" y="-1002.387" font-family="Times,serif" font-size="18.00" fill="#000000">les propriétés et de reconnaître les propriétés telles que c&#39;est mieux</text>
<text text-anchor="middle" x="1713.1699" y="-980.787" font-family="Times,serif" font-size="18.00" fill="#000000">de les avoir ? On peut juger de la perfection de quelque chose quand</text>
<text text-anchor="middle" x="1713.1699" y="-959.187" font-family="Times,serif" font-size="18.00" fill="#000000">on en a un concept déterminé (on peut par exemple juger de la qualité</text>
<text text-anchor="middle" x="1713.1699" y="-937.587" font-family="Times,serif" font-size="18.00" fill="#000000">d&#39;un tournevis), mais comment cela est&#45;il possible quand on parle</text>
<text text-anchor="middle" x="1713.1699" y="-915.987" font-family="Times,serif" font-size="18.00" fill="#000000">simplement d&#39;un être qui n&#39;est pas défini par un concept déterminé ?</text>
<text text-anchor="middle" x="1713.1699" y="-894.387" font-family="Times,serif" font-size="18.00" fill="#000000">2/ Rien ne garantit l&#39;absence de contradiction entre toutes ces</text>
<text text-anchor="middle" x="1713.1699" y="-872.787" font-family="Times,serif" font-size="18.00" fill="#000000">propriétés : il est possible que l&#39;une de ces propriétés soit</text>
<text text-anchor="middle" x="1713.1699" y="-851.187" font-family="Times,serif" font-size="18.00" fill="#000000">en fait incompatible avec une autre</text>
</g>
<!-- p2&#45;&gt;o2 -->
<g id="edge10" class="edge">
<title>p2&#45;&gt;o2</title>
<path fill="none" stroke="#cd0000" stroke-width=".8" d="M1358.2432,-942.987C1386.6216,-942.987 1415.8744,-942.987 1444.8374,-942.987"/>
<polygon fill="#cd0000" stroke="#cd0000" stroke-width=".8" points="1444.9979,-945.7871 1452.9978,-942.987 1444.9978,-940.1871 1444.9979,-945.7871"/>
<text text-anchor="middle" x="1405.6152" y="-950.187" font-family="Times,serif" font-size="14.00" fill="#8b0000"> Mais …</text>
</g>
<!-- l1&#45;&gt;p3 -->
<!-- l1&#45;&gt;p4 -->
<!-- C -->
<g id="node8" class="node">
<title>C</title>
<ellipse fill="#000000" stroke="#000000" cx="1019.1699" cy="-118.9935" rx="166.1379" ry="70.987"/>
<text text-anchor="middle" x="1019.1699" y="-140.5935" font-family="Times,serif" font-size="24.00" fill="#ffffff">Dieu a la propriété</text>
<text text-anchor="middle" x="1019.1699" y="-111.7935" font-family="Times,serif" font-size="24.00" fill="#ffffff">d&#39;exister, c&#39;est&#45;à&#45;dire :</text>
<text text-anchor="middle" x="1019.1699" y="-82.9935" font-family="Times,serif" font-size="24.00" fill="#ffffff">Dieu existe</text>
</g>
<!-- p4&#45;&gt;C -->
<g id="edge8" class="edge">
<title>p4:w&#45;&gt;C:nw</title>
<path fill="none" stroke="#000000" d="M937.4669,-363.5887C934.4405,-304.2217 939.9019,-221.5949 949.5767,-192.9494"/>
<polygon fill="#000000" stroke="#000000" points="952.7206,-194.4888 954.1699,-183.9935 946.492,-191.2943 952.7206,-194.4888"/>
<text text-anchor="middle" x="895.13" y="-289.2253" font-family="Times,serif" font-size="15.00" fill="#666666">Par</text>
<text text-anchor="middle" x="895.13" y="-271.2253" font-family="Times,serif" font-size="15.00" fill="#666666">conséquent …</text>
</g>
<!-- o4 -->
<g id="node11" class="node">
<title>o4</title>
<path fill="#ffffff" stroke="#cd0000" d="M1981.4741,-533.1874C1981.4741,-533.1874 1464.8657,-533.1874 1464.8657,-533.1874 1458.8657,-533.1874 1452.8657,-527.1874 1452.8657,-521.1874 1452.8657,-521.1874 1452.8657,-336.3867 1452.8657,-336.3867 1452.8657,-330.3867 1458.8657,-324.3867 1464.8657,-324.3867 1464.8657,-324.3867 1981.4741,-324.3867 1981.4741,-324.3867 1987.4741,-324.3867 1993.4741,-330.3867 1993.4741,-336.3867 1993.4741,-336.3867 1993.4741,-521.1874 1993.4741,-521.1874 1993.4741,-527.1874 1987.4741,-533.1874 1981.4741,-533.1874"/>
<text text-anchor="middle" x="1723.1699" y="-509.787" font-family="Times,serif" font-size="18.00" fill="#000000">1/ Une telle affirmation a&#45;t&#45;elle vraiment du sens ? Peut&#45;on vraiment</text>
<text text-anchor="middle" x="1723.1699" y="-488.187" font-family="Times,serif" font-size="18.00" fill="#000000">comparer le degré de perfection d&#39;une entité qui existe et d&#39;une entité</text>
<text text-anchor="middle" x="1723.1699" y="-466.587" font-family="Times,serif" font-size="18.00" fill="#000000">qui n&#39;existe pas ? Cela semble aussi absurde que de vouloir comparer</text>
<text text-anchor="middle" x="1723.1699" y="-444.987" font-family="Times,serif" font-size="18.00" fill="#000000">le poids de bananes qui existent et de bananes qui n&#39;existent pas.</text>
<text text-anchor="middle" x="1723.1699" y="-423.387" font-family="Times,serif" font-size="18.00" fill="#000000">2/ Le fait d&#39;exister est&#45;il toujours mieux que le fait de ne pas exister ?</text>
<text text-anchor="middle" x="1723.1699" y="-401.787" font-family="Times,serif" font-size="18.00" fill="#000000">C&#39;est mieux que certaines choses n&#39;existent pas (p.ex. : le mal), mais</text>
<text text-anchor="middle" x="1723.1699" y="-380.187" font-family="Times,serif" font-size="18.00" fill="#000000">l&#39;objection ici ne semble pas très forte, car on pourrait affaiblir la</text>
<text text-anchor="middle" x="1723.1699" y="-358.587" font-family="Times,serif" font-size="18.00" fill="#000000">prémisse P4 en soutenant qu&#39;elle vaut ici seulement pour Dieu, défini</text>
<text text-anchor="middle" x="1723.1699" y="-336.987" font-family="Times,serif" font-size="18.00" fill="#000000">comme un être parfait, et dont l&#39;existence ne pourrait envelopper du mal</text>
</g>
<!-- p4&#45;&gt;o4 -->
<g id="edge11" class="edge">
<title>p4&#45;&gt;o4</title>
<path fill="none" stroke="#cd0000" stroke-width=".8" d="M1208.0084,-428.787C1275.6641,-428.787 1361.752,-428.787 1444.0953,-428.787"/>
<polygon fill="#cd0000" stroke="#cd0000" stroke-width=".8" points="1444.565,-431.5871 1452.565,-428.787 1444.565,-425.9871 1444.565,-431.5871"/>
<text text-anchor="middle" x="1330.2858" y="-435.987" font-family="Times,serif" font-size="14.00" fill="#8b0000"> Mais …</text>
</g>
<!-- vide1 -->
<!-- vide1&#45;&gt;C -->
</g>
</svg>