<?xml version="1.0" encoding="UTF-8" standalone="no"?>
<!DOCTYPE svg PUBLIC "-//W3C//DTD SVG 1.1//EN"
 "http://www.w3.org/Graphics/SVG/1.1/DTD/svg11.dtd">
<!-- Generated by graphviz version 2.40.1 (20161225.0304)
 -->
<!-- Title: G Pages: 1 -->
<svg width="2293pt" height="1481pt"
 viewBox="0.00 0.00 2293.46 1480.93" xmlns="http://www.w3.org/2000/svg" xmlns:xlink="http://www.w3.org/1999/xlink">
<g id="graph0" class="graph" transform="scale(1 1) rotate(0) translate(4 1476.9283)">
<title>G</title>
<polygon fill="#ffffff" stroke="transparent" points="-4,4 -4,-1476.9283 2289.457,-1476.9283 2289.457,4 -4,4"/>
<g id="clust3" class="cluster">
<title>cluster_0</title>
<path fill="#e5e5e5" stroke="#7f7f7f" d="M619.722,-8C619.722,-8 1677.722,-8 1677.722,-8 1683.722,-8 1689.722,-14 1689.722,-20 1689.722,-20 1689.722,-1452.9283 1689.722,-1452.9283 1689.722,-1458.9283 1683.722,-1464.9283 1677.722,-1464.9283 1677.722,-1464.9283 619.722,-1464.9283 619.722,-1464.9283 613.722,-1464.9283 607.722,-1458.9283 607.722,-1452.9283 607.722,-1452.9283 607.722,-20 607.722,-20 607.722,-14 613.722,-8 619.722,-8"/>
</g>
<g id="clust4" class="cluster">
<title>cluster_2</title>
<polygon fill="#bababa" stroke="#bababa" points="801.722,-1085.1283 801.722,-1424.9283 1495.722,-1424.9283 1495.722,-1085.1283 801.722,-1085.1283"/>
</g>
<g id="clust7" class="cluster">
<title>cluster_3</title>
<polygon fill="#bababa" stroke="#bababa" points="647.722,-821.1283 647.722,-980.3283 1649.722,-980.3283 1649.722,-821.1283 647.722,-821.1283"/>
</g>
<g id="clust9" class="cluster">
<title>cluster_4</title>
<polygon fill="#bababa" stroke="#bababa" points="668.722,-482.5283 668.722,-728.1283 1649.722,-728.1283 1649.722,-482.5283 668.722,-482.5283"/>
</g>
<g id="clust11" class="cluster">
<title>cluster_5</title>
<polygon fill="#bababa" stroke="#bababa" points="936.722,-220.9283 936.722,-380.1283 1410.722,-380.1283 1410.722,-220.9283 936.722,-220.9283"/>
</g>
<!-- o1 -->
<g id="node1" class="node">
<title>o1</title>
<path fill="#ffffff" stroke="#cd0000" d="M555.6662,-1436.3283C555.6662,-1436.3283 11.7778,-1436.3283 11.7778,-1436.3283 5.7778,-1436.3283 -.2222,-1430.3283 -.2222,-1424.3283 -.2222,-1424.3283 -.2222,-1266.3283 -.2222,-1266.3283 -.2222,-1260.3283 5.7778,-1254.3283 11.7778,-1254.3283 11.7778,-1254.3283 555.6662,-1254.3283 555.6662,-1254.3283 561.6662,-1254.3283 567.6662,-1260.3283 567.6662,-1266.3283 567.6662,-1266.3283 567.6662,-1424.3283 567.6662,-1424.3283 567.6662,-1430.3283 561.6662,-1436.3283 555.6662,-1436.3283"/>
<text text-anchor="middle" x="283.722" y="-1411.3283" font-family="Times,serif" font-size="20.00" fill="#000000">On pourrait penser que l&#39;existence du monde n&#39;est pas contingente,</text>
<text text-anchor="middle" x="283.722" y="-1387.3283" font-family="Times,serif" font-size="20.00" fill="#000000">soit parce que la contigence n&#39;est qu&#39;une illusion de notre pensée ou</text>
<text text-anchor="middle" x="283.722" y="-1363.3283" font-family="Times,serif" font-size="20.00" fill="#000000">le résultat d&#39;un sophisme (peut&#45;on attribuer la contingence au tout du</text>
<text text-anchor="middle" x="283.722" y="-1339.3283" font-family="Times,serif" font-size="20.00" fill="#000000">monde en raison de la contingence de ses éléments ?), soit parce que</text>
<text text-anchor="middle" x="283.722" y="-1315.3283" font-family="Times,serif" font-size="20.00" fill="#000000">l&#39;argument tout entier serait autoréfutant (si l&#39;existence du monde</text>
<text text-anchor="middle" x="283.722" y="-1291.3283" font-family="Times,serif" font-size="20.00" fill="#000000">s&#39;explique par une réalité dont l&#39;existence est nécessaire, peut&#45;elle</text>
<text text-anchor="middle" x="283.722" y="-1267.3283" font-family="Times,serif" font-size="20.00" fill="#000000">vraiment être contingente ?) ; mais ces objections semblent faibles</text>
</g>
<!-- p1 -->
<g id="node3" class="node">
<title>p1</title>
<path fill="#ffffff" stroke="#000000" d="M1046.8415,-1410.0285C1046.8415,-1410.0285 828.6025,-1410.0285 828.6025,-1410.0285 822.6025,-1410.0285 816.6025,-1404.0285 816.6025,-1398.0285 816.6025,-1398.0285 816.6025,-1292.6282 816.6025,-1292.6282 816.6025,-1286.6282 822.6025,-1280.6282 828.6025,-1280.6282 828.6025,-1280.6282 1046.8415,-1280.6282 1046.8415,-1280.6282 1052.8415,-1280.6282 1058.8415,-1286.6282 1058.8415,-1292.6282 1058.8415,-1292.6282 1058.8415,-1398.0285 1058.8415,-1398.0285 1058.8415,-1404.0285 1052.8415,-1410.0285 1046.8415,-1410.0285"/>
<text text-anchor="middle" x="937.722" y="-1381.3283" font-family="Times,serif" font-size="24.00" fill="#000000">(1) L&#39;existence du</text>
<text text-anchor="middle" x="937.722" y="-1352.5283" font-family="Times,serif" font-size="24.00" fill="#000000">monde est contingente :</text>
<text text-anchor="middle" x="937.722" y="-1323.7283" font-family="Times,serif" font-size="24.00" fill="#000000">le monde existe, mais il</text>
<text text-anchor="middle" x="937.722" y="-1294.9283" font-family="Times,serif" font-size="24.00" fill="#000000">aurait pu ne pas exister</text>
</g>
<!-- o1&#45;&gt;p1 -->
<g id="edge1" class="edge">
<title>o1&#45;&gt;p1</title>
<path fill="none" stroke="#cd0000" stroke-width=".8" d="M575.9103,-1345.3283C660.6262,-1345.3283 748.4944,-1345.3283 816.423,-1345.3283"/>
<polygon fill="#cd0000" stroke="#cd0000" stroke-width=".8" points="575.7227,-1342.5284 567.7227,-1345.3283 575.7226,-1348.1284 575.7227,-1342.5284"/>
<text text-anchor="middle" x="691.9282" y="-1352.5283" font-family="Times,serif" font-size="14.00" fill="#8b0000"> Mais …</text>
</g>
<!-- o8 -->
<g id="node2" class="node">
<title>o8</title>
<path fill="#ffffff" stroke="#cd0000" d="M555.394,-379.5283C555.394,-379.5283 182.05,-379.5283 182.05,-379.5283 176.05,-379.5283 170.05,-373.5283 170.05,-367.5283 170.05,-367.5283 170.05,-233.5283 170.05,-233.5283 170.05,-227.5283 176.05,-221.5283 182.05,-221.5283 182.05,-221.5283 555.394,-221.5283 555.394,-221.5283 561.394,-221.5283 567.394,-227.5283 567.394,-233.5283 567.394,-233.5283 567.394,-367.5283 567.394,-367.5283 567.394,-373.5283 561.394,-379.5283 555.394,-379.5283"/>
<text text-anchor="middle" x="368.722" y="-354.5283" font-family="Times,serif" font-size="20.00" fill="#000000">L&#39;existence d&#39;une réalité non&#45;contingente</text>
<text text-anchor="middle" x="368.722" y="-330.5283" font-family="Times,serif" font-size="20.00" fill="#000000">permet&#45;elle véritablement d&#39;expliquer</text>
<text text-anchor="middle" x="368.722" y="-306.5283" font-family="Times,serif" font-size="20.00" fill="#000000">l&#39;existence du monde ? On ne peut accepter une</text>
<text text-anchor="middle" x="368.722" y="-282.5283" font-family="Times,serif" font-size="20.00" fill="#000000">explication d&#39;un fait que si elle fournit une</text>
<text text-anchor="middle" x="368.722" y="-258.5283" font-family="Times,serif" font-size="20.00" fill="#000000">raison satisfaisante qui nous permet de mieux</text>
<text text-anchor="middle" x="368.722" y="-234.5283" font-family="Times,serif" font-size="20.00" fill="#000000">comprendre ce fait : est&#45;ce vraiment le cas ici ?</text>
</g>
<!-- p8 -->
<g id="node4" class="node">
<title>p8</title>
<path fill="#ffffff" stroke="#000000" d="M1173.7609,-365.2285C1173.7609,-365.2285 963.6831,-365.2285 963.6831,-365.2285 957.6831,-365.2285 951.6831,-359.2285 951.6831,-353.2285 951.6831,-353.2285 951.6831,-247.8282 951.6831,-247.8282 951.6831,-241.8282 957.6831,-235.8282 963.6831,-235.8282 963.6831,-235.8282 1173.7609,-235.8282 1173.7609,-235.8282 1179.7609,-235.8282 1185.7609,-241.8282 1185.7609,-247.8282 1185.7609,-247.8282 1185.7609,-353.2285 1185.7609,-353.2285 1185.7609,-359.2285 1179.7609,-365.2285 1173.7609,-365.2285"/>
<text text-anchor="middle" x="1068.722" y="-336.5283" font-family="Times,serif" font-size="24.00" fill="#000000">(8) Il existe une réalité</text>
<text text-anchor="middle" x="1068.722" y="-307.7283" font-family="Times,serif" font-size="24.00" fill="#000000">non&#45;contingente dont</text>
<text text-anchor="middle" x="1068.722" y="-278.9283" font-family="Times,serif" font-size="24.00" fill="#000000">l&#39;existence explique</text>
<text text-anchor="middle" x="1068.722" y="-250.1283" font-family="Times,serif" font-size="24.00" fill="#000000">l&#39;existence du monde</text>
</g>
<!-- o8&#45;&gt;p8 -->
<g id="edge2" class="edge">
<title>o8&#45;&gt;p8</title>
<path fill="none" stroke="#cd0000" stroke-width=".8" d="M575.4821,-300.5283C698.1894,-300.5283 849.2841,-300.5283 951.6686,-300.5283"/>
<polygon fill="#cd0000" stroke="#cd0000" stroke-width=".8" points="575.4415,-297.7284 567.4415,-300.5283 575.4415,-303.3284 575.4415,-297.7284"/>
<text text-anchor="middle" x="759.3804" y="-307.7283" font-family="Times,serif" font-size="14.00" fill="#8b0000"> Mais …</text>
</g>
<!-- p2 -->
<g id="node5" class="node">
<title>p2</title>
<path fill="#ffffff" stroke="#000000" d="M1468.7647,-1410.0285C1468.7647,-1410.0285 1106.6793,-1410.0285 1106.6793,-1410.0285 1100.6793,-1410.0285 1094.6793,-1404.0285 1094.6793,-1398.0285 1094.6793,-1398.0285 1094.6793,-1292.6282 1094.6793,-1292.6282 1094.6793,-1286.6282 1100.6793,-1280.6282 1106.6793,-1280.6282 1106.6793,-1280.6282 1468.7647,-1280.6282 1468.7647,-1280.6282 1474.7647,-1280.6282 1480.7647,-1286.6282 1480.7647,-1292.6282 1480.7647,-1292.6282 1480.7647,-1398.0285 1480.7647,-1398.0285 1480.7647,-1404.0285 1474.7647,-1410.0285 1468.7647,-1410.0285"/>
<text text-anchor="middle" x="1287.722" y="-1381.3283" font-family="Times,serif" font-size="24.00" fill="#000000">(2) Si l&#39;existence de X est contingente,</text>
<text text-anchor="middle" x="1287.722" y="-1352.5283" font-family="Times,serif" font-size="24.00" fill="#000000">il doit y avoir une explication</text>
<text text-anchor="middle" x="1287.722" y="-1323.7283" font-family="Times,serif" font-size="24.00" fill="#000000">du fait que X existe alors que</text>
<text text-anchor="middle" x="1287.722" y="-1294.9283" font-family="Times,serif" font-size="24.00" fill="#000000">X aurait pu ne pas exister</text>
</g>
<!-- p1&#45;&gt;p2 -->
<!-- p3 -->
<g id="node6" class="node">
<title>p3</title>
<path fill="#ffffff" stroke="#000000" d="M1356.4108,-1200.7291C1356.4108,-1200.7291 941.0332,-1200.7291 941.0332,-1200.7291 935.0332,-1200.7291 929.0332,-1194.7291 929.0332,-1188.7291 929.0332,-1188.7291 929.0332,-1111.9275 929.0332,-1111.9275 929.0332,-1105.9275 935.0332,-1099.9275 941.0332,-1099.9275 941.0332,-1099.9275 1356.4108,-1099.9275 1356.4108,-1099.9275 1362.4108,-1099.9275 1368.4108,-1105.9275 1368.4108,-1111.9275 1368.4108,-1111.9275 1368.4108,-1188.7291 1368.4108,-1188.7291 1368.4108,-1194.7291 1362.4108,-1200.7291 1356.4108,-1200.7291"/>
<text text-anchor="middle" x="1148.722" y="-1171.9283" font-family="Times,serif" font-size="24.00" fill="#000000">(3) Si l&#39;existence de X est contingente, alors</text>
<text text-anchor="middle" x="1148.722" y="-1143.1283" font-family="Times,serif" font-size="24.00" fill="#000000">on ne peut pas trouver l&#39;explication du</text>
<text text-anchor="middle" x="1148.722" y="-1114.3283" font-family="Times,serif" font-size="24.00" fill="#000000">fait que X existe dans X lui&#45;même</text>
</g>
<!-- p1&#45;&gt;p3 -->
<!-- p9 -->
<g id="node11" class="node">
<title>p9</title>
<path fill="#ffffff" stroke="#000000" d="M1383.6196,-336.1295C1383.6196,-336.1295 1233.8244,-336.1295 1233.8244,-336.1295 1227.8244,-336.1295 1221.8244,-330.1295 1221.8244,-324.1295 1221.8244,-324.1295 1221.8244,-276.9272 1221.8244,-276.9272 1221.8244,-270.9272 1227.8244,-264.9272 1233.8244,-264.9272 1233.8244,-264.9272 1383.6196,-264.9272 1383.6196,-264.9272 1389.6196,-264.9272 1395.6196,-270.9272 1395.6196,-276.9272 1395.6196,-276.9272 1395.6196,-324.1295 1395.6196,-324.1295 1395.6196,-330.1295 1389.6196,-336.1295 1383.6196,-336.1295"/>
<text text-anchor="middle" x="1308.722" y="-307.7283" font-family="Times,serif" font-size="24.00" fill="#000000">(9) Cette réalité,</text>
<text text-anchor="middle" x="1308.722" y="-278.9283" font-family="Times,serif" font-size="24.00" fill="#000000">c&#39;est Dieu</text>
</g>
<!-- p8&#45;&gt;p9 -->
<!-- p2&#45;&gt;p3 -->
<!-- p4 -->
<g id="node7" class="node">
<title>p4</title>
<path fill="#ffffff" stroke="#000000" d="M984.6228,-965.4285C984.6228,-965.4285 674.8212,-965.4285 674.8212,-965.4285 668.8212,-965.4285 662.8212,-959.4285 662.8212,-953.4285 662.8212,-953.4285 662.8212,-848.0282 662.8212,-848.0282 662.8212,-842.0282 668.8212,-836.0282 674.8212,-836.0282 674.8212,-836.0282 984.6228,-836.0282 984.6228,-836.0282 990.6228,-836.0282 996.6228,-842.0282 996.6228,-848.0282 996.6228,-848.0282 996.6228,-953.4285 996.6228,-953.4285 996.6228,-959.4285 990.6228,-965.4285 984.6228,-965.4285"/>
<text text-anchor="middle" x="829.722" y="-936.7283" font-family="Times,serif" font-size="24.00" fill="#000000">(4) Il doit y avoir une explication</text>
<text text-anchor="middle" x="829.722" y="-907.9283" font-family="Times,serif" font-size="24.00" fill="#000000">du fait que le monde existe, et</text>
<text text-anchor="middle" x="829.722" y="-879.1283" font-family="Times,serif" font-size="24.00" fill="#000000">cette explication ne peut pas se</text>
<text text-anchor="middle" x="829.722" y="-850.3283" font-family="Times,serif" font-size="24.00" fill="#000000">trouver dans le monde lui&#45;même</text>
</g>
<!-- p3&#45;&gt;p4 -->
<g id="edge6" class="edge">
<title>p3&#45;&gt;p4:n</title>
<path fill="none" stroke="#000000" d="M910.2723,-1085.1311C867.0135,-1059.5821 834.1156,-1024.304 830.1285,-975.7434"/>
<polygon fill="#000000" stroke="#000000" points="833.6248,-975.5781 829.722,-965.7283 826.6305,-975.8621 833.6248,-975.5781"/>
<text text-anchor="middle" x="794.2907" y="-1041.8628" font-family="Times,serif" font-size="15.00" fill="#666666">Par conséquent … </text>
</g>
<!-- o3 -->
<g id="node14" class="node">
<title>o3</title>
<path fill="#ffffff" stroke="#cd0000" d="M2273.6922,-1217.3283C2273.6922,-1217.3283 1741.7518,-1217.3283 1741.7518,-1217.3283 1735.7518,-1217.3283 1729.7518,-1211.3283 1729.7518,-1205.3283 1729.7518,-1205.3283 1729.7518,-1095.3283 1729.7518,-1095.3283 1729.7518,-1089.3283 1735.7518,-1083.3283 1741.7518,-1083.3283 1741.7518,-1083.3283 2273.6922,-1083.3283 2273.6922,-1083.3283 2279.6922,-1083.3283 2285.6922,-1089.3283 2285.6922,-1095.3283 2285.6922,-1095.3283 2285.6922,-1205.3283 2285.6922,-1205.3283 2285.6922,-1211.3283 2279.6922,-1217.3283 2273.6922,-1217.3283"/>
<text text-anchor="middle" x="2007.722" y="-1192.3283" font-family="Times,serif" font-size="20.00" fill="#000000">Quand on cherche à expliquer l&#39;existence d&#39;un tout, on peut </text>
<text text-anchor="middle" x="2007.722" y="-1168.3283" font-family="Times,serif" font-size="20.00" fill="#000000">l&#39;expliquer par l&#39;existence de ses éléments constitutifs, or le monde</text>
<text text-anchor="middle" x="2007.722" y="-1144.3283" font-family="Times,serif" font-size="20.00" fill="#000000">est justement un tout, dont on peut expliquer l&#39;existence en</text>
<text text-anchor="middle" x="2007.722" y="-1120.3283" font-family="Times,serif" font-size="20.00" fill="#000000">expliquant l&#39;existence de chaque réalité qui fait partie du monde :</text>
<text text-anchor="middle" x="2007.722" y="-1096.3283" font-family="Times,serif" font-size="20.00" fill="#000000">il n&#39;y aurait pas besoin de chercher une explication supplémentaire</text>
</g>
<!-- p3&#45;&gt;o3 -->
<g id="edge14" class="edge">
<title>p3&#45;&gt;o3</title>
<path fill="none" stroke="#cd0000" stroke-width=".8" d="M1368.5418,-1150.3283C1475.9442,-1150.3283 1606.527,-1150.3283 1721.5992,-1150.3283"/>
<polygon fill="#cd0000" stroke="#cd0000" stroke-width=".8" points="1721.8571,-1153.1284 1729.8571,-1150.3283 1721.8571,-1147.5284 1721.8571,-1153.1284"/>
<text text-anchor="middle" x="1549.1517" y="-1157.5283" font-family="Times,serif" font-size="14.00" fill="#8b0000"> Mais …</text>
</g>
<!-- p5 -->
<g id="node8" class="node">
<title>p5</title>
<path fill="#ffffff" stroke="#000000" d="M1623.1878,-965.4285C1623.1878,-965.4285 1044.2562,-965.4285 1044.2562,-965.4285 1038.2562,-965.4285 1032.2562,-959.4285 1032.2562,-953.4285 1032.2562,-953.4285 1032.2562,-848.0282 1032.2562,-848.0282 1032.2562,-842.0282 1038.2562,-836.0282 1044.2562,-836.0282 1044.2562,-836.0282 1623.1878,-836.0282 1623.1878,-836.0282 1629.1878,-836.0282 1635.1878,-842.0282 1635.1878,-848.0282 1635.1878,-848.0282 1635.1878,-953.4285 1635.1878,-953.4285 1635.1878,-959.4285 1629.1878,-965.4285 1623.1878,-965.4285"/>
<text text-anchor="middle" x="1333.722" y="-936.7283" font-family="Times,serif" font-size="24.00" fill="#000000">(5) S&#39;il doit y avoir une explication du fait que X existe, et</text>
<text text-anchor="middle" x="1333.722" y="-907.9283" font-family="Times,serif" font-size="24.00" fill="#000000">si cette explication ne peut pas se trouver dans X lui&#45;même,</text>
<text text-anchor="middle" x="1333.722" y="-879.1283" font-family="Times,serif" font-size="24.00" fill="#000000">alors il existe une réalité différente de X, et qui n&#39;est pas</text>
<text text-anchor="middle" x="1333.722" y="-850.3283" font-family="Times,serif" font-size="24.00" fill="#000000">dans X lui&#45;même, dont l&#39;existence explique l&#39;existence de X</text>
</g>
<!-- p4&#45;&gt;p5 -->
<!-- p6 -->
<g id="node9" class="node">
<title>p6</title>
<path fill="#ffffff" stroke="#000000" d="M1021.626,-670.0285C1021.626,-670.0285 695.818,-670.0285 695.818,-670.0285 689.818,-670.0285 683.818,-664.0285 683.818,-658.0285 683.818,-658.0285 683.818,-552.6282 683.818,-552.6282 683.818,-546.6282 689.818,-540.6282 695.818,-540.6282 695.818,-540.6282 1021.626,-540.6282 1021.626,-540.6282 1027.626,-540.6282 1033.626,-546.6282 1033.626,-552.6282 1033.626,-552.6282 1033.626,-658.0285 1033.626,-658.0285 1033.626,-664.0285 1027.626,-670.0285 1021.626,-670.0285"/>
<text text-anchor="middle" x="858.722" y="-641.3283" font-family="Times,serif" font-size="24.00" fill="#000000">(6) Il existe une réalité différente</text>
<text text-anchor="middle" x="858.722" y="-612.5283" font-family="Times,serif" font-size="24.00" fill="#000000">du monde, et qui n&#39;est pas dans le</text>
<text text-anchor="middle" x="858.722" y="-583.7283" font-family="Times,serif" font-size="24.00" fill="#000000">monde lui&#45;même, dont l&#39;existence</text>
<text text-anchor="middle" x="858.722" y="-554.9283" font-family="Times,serif" font-size="24.00" fill="#000000">explique l&#39;existence du monde</text>
</g>
<!-- p4&#45;&gt;p6 -->
<g id="edge8" class="edge">
<title>p4:e&#45;&gt;p6:n</title>
<path fill="none" stroke="#000000" d="M990.1506,-821.1314C953.4271,-750.8579 865.9919,-759.6318 859.1483,-680.5337"/>
<polygon fill="#000000" stroke="#000000" points="862.6364,-680.1735 858.722,-670.3283 855.6425,-680.4657 862.6364,-680.1735"/>
<text text-anchor="middle" x="853.532" y="-758.6176" font-family="Times,serif" font-size="15.00" fill="#666666">Par conséquent … </text>
</g>
<!-- p7 -->
<g id="node10" class="node">
<title>p7</title>
<path fill="#ffffff" stroke="#000000" d="M1622.3844,-712.9287C1622.3844,-712.9287 1081.0596,-712.9287 1081.0596,-712.9287 1075.0596,-712.9287 1069.0596,-706.9287 1069.0596,-700.9287 1069.0596,-700.9287 1069.0596,-509.728 1069.0596,-509.728 1069.0596,-503.728 1075.0596,-497.728 1081.0596,-497.728 1081.0596,-497.728 1622.3844,-497.728 1622.3844,-497.728 1628.3844,-497.728 1634.3844,-503.728 1634.3844,-509.728 1634.3844,-509.728 1634.3844,-700.9287 1634.3844,-700.9287 1634.3844,-706.9287 1628.3844,-712.9287 1622.3844,-712.9287"/>
<text text-anchor="middle" x="1351.722" y="-684.5283" font-family="Times,serif" font-size="24.00" fill="#000000">(7) Cette réalité est non&#45;contingente : soit parce que</text>
<text text-anchor="middle" x="1351.722" y="-655.7283" font-family="Times,serif" font-size="24.00" fill="#000000">le monde est lui&#45;même défini comme la totalité des</text>
<text text-anchor="middle" x="1351.722" y="-626.9283" font-family="Times,serif" font-size="24.00" fill="#000000">réalités contingentes, soit parce que la non&#45;contingence</text>
<text text-anchor="middle" x="1351.722" y="-598.1283" font-family="Times,serif" font-size="24.00" fill="#000000">de cette réalité conduirait à rechercher à nouveau une</text>
<text text-anchor="middle" x="1351.722" y="-569.3283" font-family="Times,serif" font-size="24.00" fill="#000000">explication de son existence, ce qui nous mènerait à une</text>
<text text-anchor="middle" x="1351.722" y="-540.5283" font-family="Times,serif" font-size="24.00" fill="#000000">régression à l&#39;infini dans l&#39;explication si on ne pose</text>
<text text-anchor="middle" x="1351.722" y="-511.7283" font-family="Times,serif" font-size="24.00" fill="#000000">pas l&#39;existence d&#39;une réalité non&#45;contingente</text>
</g>
<!-- p6&#45;&gt;p7 -->
<!-- p7&#45;&gt;p8 -->
<g id="edge10" class="edge">
<title>p7:w&#45;&gt;p8:n</title>
<path fill="none" stroke="#000000" d="M1051.9059,-482.5295C1057.9769,-442.0008 1066.1795,-400.9097 1068.2382,-375.8074"/>
<polygon fill="#000000" stroke="#000000" points="1071.7479,-375.6819 1068.722,-365.5283 1064.7556,-375.3527 1071.7479,-375.6819"/>
<text text-anchor="middle" x="1001.7401" y="-427.6671" font-family="Times,serif" font-size="15.00" fill="#666666">Par conséquent … </text>
</g>
<!-- o7 -->
<g id="node15" class="node">
<title>o7</title>
<path fill="#ffffff" stroke="#cd0000" d="M2163.4521,-660.3283C2163.4521,-660.3283 1741.9919,-660.3283 1741.9919,-660.3283 1735.9919,-660.3283 1729.9919,-654.3283 1729.9919,-648.3283 1729.9919,-648.3283 1729.9919,-562.3283 1729.9919,-562.3283 1729.9919,-556.3283 1735.9919,-550.3283 1741.9919,-550.3283 1741.9919,-550.3283 2163.4521,-550.3283 2163.4521,-550.3283 2169.4521,-550.3283 2175.4521,-556.3283 2175.4521,-562.3283 2175.4521,-562.3283 2175.4521,-648.3283 2175.4521,-648.3283 2175.4521,-654.3283 2169.4521,-660.3283 2163.4521,-660.3283"/>
<text text-anchor="middle" x="1952.722" y="-635.3283" font-family="Times,serif" font-size="20.00" fill="#000000">A&#45;t&#45;on vraiment le droit d&#39;affirmer l&#39;existence</text>
<text text-anchor="middle" x="1952.722" y="-611.3283" font-family="Times,serif" font-size="20.00" fill="#000000">d&#39;une réalité non&#45;contingente simplement à partir</text>
<text text-anchor="middle" x="1952.722" y="-587.3283" font-family="Times,serif" font-size="20.00" fill="#000000">d&#39;une définition du monde ou de la difficulté à</text>
<text text-anchor="middle" x="1952.722" y="-563.3283" font-family="Times,serif" font-size="20.00" fill="#000000">admettre une régression à l&#39;infini dans l&#39;explication ?</text>
</g>
<!-- p7&#45;&gt;o7 -->
<g id="edge15" class="edge">
<title>p7&#45;&gt;o7</title>
<path fill="none" stroke="#cd0000" stroke-width=".8" d="M1634.6235,-605.3283C1663.8441,-605.3283 1693.2873,-605.3283 1721.8429,-605.3283"/>
<polygon fill="#cd0000" stroke="#cd0000" stroke-width=".8" points="1721.8726,-608.1284 1729.8726,-605.3283 1721.8725,-602.5284 1721.8726,-608.1284"/>
<text text-anchor="middle" x="1682.2051" y="-612.5283" font-family="Times,serif" font-size="14.00" fill="#8b0000"> Mais …</text>
</g>
<!-- C -->
<g id="node12" class="node">
<title>C</title>
<ellipse fill="#000000" stroke="#000000" cx="1221.722" cy="-78.2642" rx="86.9238" ry="30.0302"/>
<text text-anchor="middle" x="1221.722" y="-71.0642" font-family="Times,serif" font-size="24.00" fill="#ffffff">Dieu existe</text>
</g>
<!-- p9&#45;&gt;C -->
<g id="edge12" class="edge">
<title>p9:w&#45;&gt;C:wn</title>
<path fill="none" stroke="#000000" d="M1200.4623,-220.9302C1202.4833,-186.3666 1208.5575,-147.3661 1213.6982,-118.8884"/>
<polygon fill="#000000" stroke="#000000" points="1217.2049,-119.1722 1215.5779,-108.703 1210.3211,-117.9017 1217.2049,-119.1722"/>
<text text-anchor="middle" x="1146.4372" y="-169.2417" font-family="Times,serif" font-size="15.00" fill="#666666">Par conséquent … </text>
</g>
<!-- o9 -->
<g id="node16" class="node">
<title>o9</title>
<path fill="#ffffff" stroke="#cd0000" d="M2133.396,-367.5283C2133.396,-367.5283 1742.048,-367.5283 1742.048,-367.5283 1736.048,-367.5283 1730.048,-361.5283 1730.048,-355.5283 1730.048,-355.5283 1730.048,-245.5283 1730.048,-245.5283 1730.048,-239.5283 1736.048,-233.5283 1742.048,-233.5283 1742.048,-233.5283 2133.396,-233.5283 2133.396,-233.5283 2139.396,-233.5283 2145.396,-239.5283 2145.396,-245.5283 2145.396,-245.5283 2145.396,-355.5283 2145.396,-355.5283 2145.396,-361.5283 2139.396,-367.5283 2133.396,-367.5283"/>
<text text-anchor="middle" x="1937.722" y="-342.5283" font-family="Times,serif" font-size="20.00" fill="#000000">Cette identification est&#45;elle légitime ?</text>
<text text-anchor="middle" x="1937.722" y="-318.5283" font-family="Times,serif" font-size="20.00" fill="#000000">L&#39;argument ne prouve au mieux que l&#39;existence</text>
<text text-anchor="middle" x="1937.722" y="-294.5283" font-family="Times,serif" font-size="20.00" fill="#000000">d&#39;un être nécessaire, et non l&#39;existence d&#39;un être</text>
<text text-anchor="middle" x="1937.722" y="-270.5283" font-family="Times,serif" font-size="20.00" fill="#000000">personnel, parfait, tout&#45;puissant, omniscient, </text>
<text text-anchor="middle" x="1937.722" y="-246.5283" font-family="Times,serif" font-size="20.00" fill="#000000">bienveillant, et libre créateur du monde</text>
</g>
<!-- p9&#45;&gt;o9 -->
<g id="edge16" class="edge">
<title>p9&#45;&gt;o9</title>
<path fill="none" stroke="#cd0000" stroke-width=".8" d="M1395.8513,-300.5283C1479.7618,-300.5283 1610.0621,-300.5283 1721.8599,-300.5283"/>
<polygon fill="#cd0000" stroke="#cd0000" stroke-width=".8" points="1721.8765,-303.3284 1729.8764,-300.5283 1721.8764,-297.7284 1721.8765,-303.3284"/>
<text text-anchor="middle" x="1562.9029" y="-307.7283" font-family="Times,serif" font-size="14.00" fill="#8b0000"> Mais …</text>
</g>
<!-- o2 -->
<g id="node13" class="node">
<title>o2</title>
<path fill="#ffffff" stroke="#cd0000" d="M2262.1402,-1412.3283C2262.1402,-1412.3283 1741.3038,-1412.3283 1741.3038,-1412.3283 1735.3038,-1412.3283 1729.3038,-1406.3283 1729.3038,-1400.3283 1729.3038,-1400.3283 1729.3038,-1290.3283 1729.3038,-1290.3283 1729.3038,-1284.3283 1735.3038,-1278.3283 1741.3038,-1278.3283 1741.3038,-1278.3283 2262.1402,-1278.3283 2262.1402,-1278.3283 2268.1402,-1278.3283 2274.1402,-1284.3283 2274.1402,-1290.3283 2274.1402,-1290.3283 2274.1402,-1400.3283 2274.1402,-1400.3283 2274.1402,-1406.3283 2268.1402,-1412.3283 2262.1402,-1412.3283"/>
<text text-anchor="middle" x="2001.722" y="-1387.3283" font-family="Times,serif" font-size="20.00" fill="#000000">Ce principe correspond à ce qu&#39;on appelle le principe de raison </text>
<text text-anchor="middle" x="2001.722" y="-1363.3283" font-family="Times,serif" font-size="20.00" fill="#000000">suffisante (PRS), or le PRS se heurte à deux objections majeures :</text>
<text text-anchor="middle" x="2001.722" y="-1339.3283" font-family="Times,serif" font-size="20.00" fill="#000000">1/ Il n&#39;y a pas de preuve de la vérité du PRS ; 2/ Le PRS a pour</text>
<text text-anchor="middle" x="2001.722" y="-1315.3283" font-family="Times,serif" font-size="20.00" fill="#000000">domaine premier d&#39;application les phénomènes empiriques :</text>
<text text-anchor="middle" x="2001.722" y="-1291.3283" font-family="Times,serif" font-size="20.00" fill="#000000">peut&#45;on appliquer ce principe hors de ce domaine ?</text>
</g>
<!-- o2&#45;&gt;p2 -->
<g id="edge13" class="edge">
<title>o2&#45;&gt;p2</title>
<path fill="none" stroke="#cd0000" stroke-width=".8" d="M1721.0153,-1345.3283C1640.6193,-1345.3283 1554.8081,-1345.3283 1480.9407,-1345.3283"/>
<polygon fill="#cd0000" stroke="#cd0000" stroke-width=".8" points="1721.2786,-1348.1284 1729.2786,-1345.3283 1721.2786,-1342.5284 1721.2786,-1348.1284"/>
<text text-anchor="middle" x="1605.2531" y="-1352.5283" font-family="Times,serif" font-size="14.00" fill="#8b0000"> Mais …</text>
</g>
</g>
</svg>
