<?xml version="1.0" encoding="UTF-8" standalone="no"?><!DOCTYPE svg PUBLIC "-//W3C//DTD SVG 1.1//EN" "http://www.w3.org/Graphics/SVG/1.1/DTD/svg11.dtd"><!-- Generated by graphviz version 2.40.1 (20161225.0304)
 --><!-- Title: G Pages: 1 --><svg xmlns="http://www.w3.org/2000/svg" xmlns:xlink="http://www.w3.org/1999/xlink" width="1084pt" height="610pt" viewBox="0.00 0.00 1083.75 610.21">
<g id="remarques+objections_graph0" class="graph" transform="scale(1 1) rotate(0) translate(4 606.2067)">
<title>G</title>
<polygon fill="#ffffff" stroke="transparent" points="-4,4 -4,-606.2067 1079.7501,-606.2067 1079.7501,4 -4,4"/>
<g id="remarques+objections_clust5" class="cluster">
<title>cluster_0</title>
<path fill="#e5e5e5" stroke="#7f7f7f" d="M297.1915,-8C297.1915,-8 719.1915,-8 719.1915,-8 725.1915,-8 731.1915,-14 731.1915,-20 731.1915,-20 731.1915,-447.8067 731.1915,-447.8067 731.1915,-453.8067 725.1915,-459.8067 719.1915,-459.8067 719.1915,-459.8067 297.1915,-459.8067 297.1915,-459.8067 291.1915,-459.8067 285.1915,-453.8067 285.1915,-447.8067 285.1915,-447.8067 285.1915,-20 285.1915,-20 285.1915,-14 291.1915,-8 297.1915,-8"/>
</g>
<!-- 0 -->
<!-- o2 -->
<g id="remarques+objections_node3_remarques+objections" class="node">
<title>o2</title>
<path fill="none" stroke="#ee0000" stroke-width=".8" d="M220.5042,-451.6067C220.5042,-451.6067 37.8788,-451.6067 37.8788,-451.6067 31.8788,-451.6067 25.8788,-445.6067 25.8788,-439.6067 25.8788,-439.6067 25.8788,-357.6067 25.8788,-357.6067 25.8788,-351.6067 31.8788,-345.6067 37.8788,-345.6067 37.8788,-345.6067 220.5042,-345.6067 220.5042,-345.6067 226.5042,-345.6067 232.5042,-351.6067 232.5042,-357.6067 232.5042,-357.6067 232.5042,-439.6067 232.5042,-439.6067 232.5042,-445.6067 226.5042,-451.6067 220.5042,-451.6067"/>
<text text-anchor="middle" x="129.1915" y="-428.0067" font-family="Times,serif" font-size="14.00" fill="#000000">L'appel à la tolérance n'a pas de</text>
<text text-anchor="middle" x="129.1915" y="-411.2067" font-family="Times,serif" font-size="14.00" fill="#000000">sens dans les cas où on a une</text>
<text text-anchor="middle" x="129.1915" y="-394.4067" font-family="Times,serif" font-size="14.00" fill="#000000">preuve de la vérité (est-ce être</text>
<text text-anchor="middle" x="129.1915" y="-377.6067" font-family="Times,serif" font-size="14.00" fill="#000000">intolérant de penser qu'il y a</text>
<text text-anchor="middle" x="129.1915" y="-360.8067" font-family="Times,serif" font-size="14.00" fill="#000000">des vérités mathématiques ?)</text>
</g>
<!-- 0&#45;&gt;o2 -->
<!-- o1 -->
<g id="remarques+objections_node2_remarques+objections" class="node">
<title>o1</title>
<path fill="none" stroke="#ee0000" stroke-width=".8" d="M610.8196,-602.3069C610.8196,-602.3069 421.5634,-602.3069 421.5634,-602.3069 415.5634,-602.3069 409.5634,-596.3069 409.5634,-590.3069 409.5634,-590.3069 409.5634,-524.9065 409.5634,-524.9065 409.5634,-518.9065 415.5634,-512.9065 421.5634,-512.9065 421.5634,-512.9065 610.8196,-512.9065 610.8196,-512.9065 616.8196,-512.9065 622.8196,-518.9065 622.8196,-524.9065 622.8196,-524.9065 622.8196,-590.3069 622.8196,-590.3069 622.8196,-596.3069 616.8196,-602.3069 610.8196,-602.3069"/>
<text text-anchor="middle" x="516.1915" y="-578.6067" font-family="Times,serif" font-size="14.00" fill="#000000">On peut croire que la vérité existe</text>
<text text-anchor="middle" x="516.1915" y="-561.8067" font-family="Times,serif" font-size="14.00" fill="#000000">et reconnaître la possibilité de</text>
<text text-anchor="middle" x="516.1915" y="-545.0067" font-family="Times,serif" font-size="14.00" fill="#000000">l'erreur et la nécessité d'une</text>
<text text-anchor="middle" x="516.1915" y="-528.2067" font-family="Times,serif" font-size="14.00" fill="#000000">forme d'humilité intellectuelle</text>
</g>
<!-- p1 -->
<g id="remarques+objections_node7_remarques+objections" class="node">
<title>p1</title>
<path fill="#ffffff" stroke="#000000" d="M607.994,-435.0078C607.994,-435.0078 424.389,-435.0078 424.389,-435.0078 418.389,-435.0078 412.389,-429.0078 412.389,-423.0078 412.389,-423.0078 412.389,-374.2056 412.389,-374.2056 412.389,-368.2056 418.389,-362.2056 424.389,-362.2056 424.389,-362.2056 607.994,-362.2056 607.994,-362.2056 613.994,-362.2056 619.994,-368.2056 619.994,-374.2056 619.994,-374.2056 619.994,-423.0078 619.994,-423.0078 619.994,-429.0078 613.994,-435.0078 607.994,-435.0078"/>
<text text-anchor="middle" x="516.1915" y="-411.2067" font-family="Times,serif" font-size="14.00" fill="#000000">Croire que la vérité existe, c’est</text>
<text text-anchor="middle" x="516.1915" y="-394.4067" font-family="Times,serif" font-size="14.00" fill="#000000">vouloir avoir raison et prétendre</text>
<text text-anchor="middle" x="516.1915" y="-377.6067" font-family="Times,serif" font-size="14.00" fill="#000000">que les autres ont tort</text>
</g>
<!-- o1&#45;&gt;p1 -->
<g id="remarques+objections_edge1" class="edge">
<title>o1-&gt;p1</title>
<path fill="none" stroke="#cd0000" stroke-width=".8" d="M513.2918,-502.3847C513.2767,-487.3467 513.8241,-467.8359 514.9338,-435.0338"/>
<polygon fill="#cd0000" stroke="#cd0000" stroke-width=".8" points="509.7949,-502.7084 513.4021,-512.6703 516.7945,-502.6333 509.7949,-502.7084"/>
<text text-anchor="middle" x="492.1658" y="-478.4979" font-family="Times,serif" font-size="10.00" fill="#666666">objection !</text>
</g>
<!-- o3 -->
<g id="remarques+objections_node4_remarques+objections" class="node">
<title>o3</title>
<path fill="none" stroke="#ee0000" stroke-width=".8" d="M190.5749,-275.9069C190.5749,-275.9069 11.8081,-275.9069 11.8081,-275.9069 5.8081,-275.9069 -.1919,-269.9069 -.1919,-263.9069 -.1919,-263.9069 -.1919,-198.5065 -.1919,-198.5065 -.1919,-192.5065 5.8081,-186.5065 11.8081,-186.5065 11.8081,-186.5065 190.5749,-186.5065 190.5749,-186.5065 196.5749,-186.5065 202.5749,-192.5065 202.5749,-198.5065 202.5749,-198.5065 202.5749,-263.9069 202.5749,-263.9069 202.5749,-269.9069 196.5749,-275.9069 190.5749,-275.9069"/>
<text text-anchor="middle" x="101.1915" y="-252.2067" font-family="Times,serif" font-size="14.00" fill="#000000">On peut croire que la vérité</text>
<text text-anchor="middle" x="101.1915" y="-235.4067" font-family="Times,serif" font-size="14.00" fill="#000000">existe et ne pas mépriser les</text>
<text text-anchor="middle" x="101.1915" y="-218.6067" font-family="Times,serif" font-size="14.00" fill="#000000">personnes qui ont des croyances</text>
<text text-anchor="middle" x="101.1915" y="-201.8067" font-family="Times,serif" font-size="14.00" fill="#000000">que l'on estime fausses</text>
</g>
<!-- o2&#45;&gt;o3 -->
<!-- o2&#45;&gt;p1 -->
<!-- p2 -->
<g id="remarques+objections_node8_remarques+objections" class="node">
<title>p2</title>
<path fill="#ffffff" stroke="#000000" d="M500.1545,-267.6078C500.1545,-267.6078 322.2285,-267.6078 322.2285,-267.6078 316.2285,-267.6078 310.2285,-261.6078 310.2285,-255.6078 310.2285,-255.6078 310.2285,-206.8056 310.2285,-206.8056 310.2285,-200.8056 316.2285,-194.8056 322.2285,-194.8056 322.2285,-194.8056 500.1545,-194.8056 500.1545,-194.8056 506.1545,-194.8056 512.1545,-200.8056 512.1545,-206.8056 512.1545,-206.8056 512.1545,-255.6078 512.1545,-255.6078 512.1545,-261.6078 506.1545,-267.6078 500.1545,-267.6078"/>
<text text-anchor="middle" x="411.1915" y="-243.8067" font-family="Times,serif" font-size="14.00" fill="#000000">Croire que la vérité existe, c'est</text>
<text text-anchor="middle" x="411.1915" y="-227.0067" font-family="Times,serif" font-size="14.00" fill="#000000">ne pas faire preuve de tolérance</text>
<text text-anchor="middle" x="411.1915" y="-210.2067" font-family="Times,serif" font-size="14.00" fill="#000000">envers les autres croyances</text>
</g>
<!-- o2&#45;&gt;p2 -->
<g id="remarques+objections_edge4" class="edge">
<title>o2-&gt;p2</title>
<path fill="none" stroke="#cd0000" stroke-width=".8" d="M189.8456,-338.957C218.3494,-316.0371 251.5147,-299.3954 325.6025,-267.5066"/>
<polygon fill="#cd0000" stroke="#cd0000" stroke-width=".8" points="187.3228,-336.5043 181.8996,-345.6059 191.8149,-341.8728 187.3228,-336.5043"/>
<text text-anchor="middle" x="219.0926" y="-309.6032" font-family="Times,serif" font-size="10.00" fill="#666666">objection !</text>
</g>
<!-- o3&#45;&gt;p2 -->
<g id="remarques+objections_edge5" class="edge">
<title>o3-&gt;p2</title>
<path fill="none" stroke="#cd0000" stroke-width=".8" d="M212.8816,-220.0106C236.684,-220.0812 266.2473,-221.5261 310.2281,-224.3453"/>
<polygon fill="#cd0000" stroke="#cd0000" stroke-width=".8" points="212.6446,-216.5118 202.665,-220.0696 212.6851,-223.5117 212.6446,-216.5118"/>
<text text-anchor="middle" x="232.373" y="-224.143" font-family="Times,serif" font-size="10.00" fill="#666666">objection !</text>
</g>
<!-- o4 -->
<g id="remarques+objections_node5_remarques+objections" class="node">
<title>o4</title>
<path fill="none" stroke="#ee0000" stroke-width=".8" d="M1063.8087,-459.9069C1063.8087,-459.9069 840.5743,-459.9069 840.5743,-459.9069 834.5743,-459.9069 828.5743,-453.9069 828.5743,-447.9069 828.5743,-447.9069 828.5743,-349.3066 828.5743,-349.3066 828.5743,-343.3066 834.5743,-337.3066 840.5743,-337.3066 840.5743,-337.3066 1063.8087,-337.3066 1063.8087,-337.3066 1069.8087,-337.3066 1075.8087,-343.3066 1075.8087,-349.3066 1075.8087,-349.3066 1075.8087,-447.9069 1075.8087,-447.9069 1075.8087,-453.9069 1069.8087,-459.9069 1063.8087,-459.9069"/>
<text text-anchor="middle" x="952.1915" y="-436.4067" font-family="Times,serif" font-size="14.00" fill="#000000">Le relativisme de la vérité est</text>
<text text-anchor="middle" x="952.1915" y="-419.6067" font-family="Times,serif" font-size="14.00" fill="#000000">parfois considéré comme un moyen de</text>
<text text-anchor="middle" x="952.1915" y="-402.8067" font-family="Times,serif" font-size="14.00" fill="#000000">lutter contre les discours des dominants,</text>
<text text-anchor="middle" x="952.1915" y="-386.0067" font-family="Times,serif" font-size="14.00" fill="#000000">qui prétendent représenter la vérité,</text>
<text text-anchor="middle" x="952.1915" y="-369.2067" font-family="Times,serif" font-size="14.00" fill="#000000">mais ne faut-il pas plutôt lutter contre</text>
<text text-anchor="middle" x="952.1915" y="-352.4067" font-family="Times,serif" font-size="14.00" fill="#000000">la domination avec les outils du savoir ?</text>
</g>
<!-- p3 -->
<g id="remarques+objections_node10_remarques+objections" class="node">
<title>p3</title>
<path fill="#ffffff" stroke="#000000" d="M693.7189,-267.6078C693.7189,-267.6078 542.6641,-267.6078 542.6641,-267.6078 536.6641,-267.6078 530.6641,-261.6078 530.6641,-255.6078 530.6641,-255.6078 530.6641,-206.8056 530.6641,-206.8056 530.6641,-200.8056 536.6641,-194.8056 542.6641,-194.8056 542.6641,-194.8056 693.7189,-194.8056 693.7189,-194.8056 699.7189,-194.8056 705.7189,-200.8056 705.7189,-206.8056 705.7189,-206.8056 705.7189,-255.6078 705.7189,-255.6078 705.7189,-261.6078 699.7189,-267.6078 693.7189,-267.6078"/>
<text text-anchor="middle" x="618.1915" y="-243.8067" font-family="Times,serif" font-size="14.00" fill="#000000">Croire que la vérité existe,</text>
<text text-anchor="middle" x="618.1915" y="-227.0067" font-family="Times,serif" font-size="14.00" fill="#000000">c'est chercher à dominer et</text>
<text text-anchor="middle" x="618.1915" y="-210.2067" font-family="Times,serif" font-size="14.00" fill="#000000">à empêcher la discussion</text>
</g>
<!-- o4&#45;&gt;p3 -->
<g id="remarques+objections_edge8" class="edge">
<title>o4-&gt;p3</title>
<path fill="none" stroke="#cd0000" stroke-width=".8" d="M866.1049,-331.7119C832.6651,-311.5694 790.7701,-294.5088 705.8862,-263.2221"/>
<polygon fill="#cd0000" stroke="#cd0000" stroke-width=".8" points="864.5556,-334.8708 874.8917,-337.198 868.2629,-328.9331 864.5556,-334.8708"/>
<text text-anchor="middle" x="783.7743" y="-304.65" font-family="Times,serif" font-size="10.00" fill="#666666">objection !</text>
</g>
<!-- o5 -->
<g id="remarques+objections_node6_remarques+objections" class="node">
<title>o5</title>
<path fill="none" stroke="#ee0000" stroke-width=".8" d="M1052.8043,-284.2067C1052.8043,-284.2067 825.5787,-284.2067 825.5787,-284.2067 819.5787,-284.2067 813.5787,-278.2067 813.5787,-272.2067 813.5787,-272.2067 813.5787,-190.2067 813.5787,-190.2067 813.5787,-184.2067 819.5787,-178.2067 825.5787,-178.2067 825.5787,-178.2067 1052.8043,-178.2067 1052.8043,-178.2067 1058.8043,-178.2067 1064.8043,-184.2067 1064.8043,-190.2067 1064.8043,-190.2067 1064.8043,-272.2067 1064.8043,-272.2067 1064.8043,-278.2067 1058.8043,-284.2067 1052.8043,-284.2067"/>
<text text-anchor="middle" x="939.1915" y="-260.6067" font-family="Times,serif" font-size="14.00" fill="#000000">C'est plutôt la croyance que la vérité</text>
<text text-anchor="middle" x="939.1915" y="-243.8067" font-family="Times,serif" font-size="14.00" fill="#000000">existe qui incite à la discussion pour la</text>
<text text-anchor="middle" x="939.1915" y="-227.0067" font-family="Times,serif" font-size="14.00" fill="#000000">rechercher, tandis que l'indifférence à la</text>
<text text-anchor="middle" x="939.1915" y="-210.2067" font-family="Times,serif" font-size="14.00" fill="#000000">vérité conduit chacun à rester dans sa</text>
<text text-anchor="middle" x="939.1915" y="-193.4067" font-family="Times,serif" font-size="14.00" fill="#000000">propre opinion sans véritable dialogue</text>
</g>
<!-- o5&#45;&gt;p3 -->
<g id="remarques+objections_edge9" class="edge">
<title>o5:w-&gt;p3:e</title>
<path fill="none" stroke="#cd0000" stroke-width=".8" d="M706.1915,-231.2067C771.7295,-225.5037 779.1537,-224.8577 803.0646,-229.2686"/>
<polygon fill="#cd0000" stroke="#cd0000" stroke-width=".8" points="802.7118,-232.7645 813.1915,-231.2067 804.0277,-225.8893 802.7118,-232.7645"/>
<text text-anchor="middle" x="748.7353" y="-229.4444" font-family="Times,serif" font-size="10.00" fill="#666666">objection !</text>
</g>
<!-- p1&#45;&gt;p2 -->
<g id="remarques+objections_edge10" class="edge">
<title>p1-&gt;p2</title>
<path fill="none" stroke="#000000" d="M473.3923,-362.2399C436.9882,-330.0499 426.451,-314.0603 418.9144,-277.8154"/>
<polygon fill="#000000" stroke="#000000" points="422.2733,-276.7475 416.9495,-267.5874 415.399,-278.0682 422.2733,-276.7475"/>
<text text-anchor="middle" x="406.0512" y="-336.254" font-family="Times,serif" font-size="10.00" fill="#666666">par</text>
<text text-anchor="middle" x="406.0512" y="-324.254" font-family="Times,serif" font-size="10.00" fill="#666666">conséquent …</text>
</g>
<!-- p1&#45;&gt;p3 -->
<g id="remarques+objections_edge11" class="edge">
<title>p1-&gt;p3</title>
<path fill="none" stroke="#000000" d="M561.905,-362.2369C593.5732,-335.1408 602.6379,-318.6659 610.5286,-277.6422"/>
<polygon fill="#000000" stroke="#000000" points="614.0105,-278.0578 612.3613,-267.5921 607.124,-276.8019 614.0105,-278.0578"/>
<text text-anchor="middle" x="568.7685" y="-335.0262" font-family="Times,serif" font-size="10.00" fill="#666666">par</text>
<text text-anchor="middle" x="568.7685" y="-323.0262" font-family="Times,serif" font-size="10.00" fill="#666666">conséquent …</text>
</g>
<!-- C -->
<g id="remarques+objections_node11_remarques+objections" class="node">
<title>C</title>
<ellipse fill="#000000" stroke="#000000" cx="508.1915" cy="-79.1034" rx="151.0512" ry="46.207"/>
<text text-anchor="middle" x="508.1915" y="-84.5034" font-family="Times,serif" font-size="18.00" fill="#ffffff">Croire que la vérité existe</text>
<text text-anchor="middle" x="508.1915" y="-62.9034" font-family="Times,serif" font-size="18.00" fill="#ffffff">est moralement critiquable</text>
</g>
<!-- p2&#45;&gt;C -->
<g id="remarques+objections_edge12" class="edge">
<title>p2-&gt;C</title>
<path fill="none" stroke="#000000" d="M421.9981,-194.5477C431.424,-163.3672 438.1468,-144.7689 447.3886,-130.5643"/>
<polygon fill="#000000" stroke="#000000" points="450.4213,-132.3475 453.5152,-122.2145 444.7775,-128.2064 450.4213,-132.3475"/>
<text text-anchor="middle" x="405.7224" y="-171.0692" font-family="Times,serif" font-size="10.00" fill="#666666">par</text>
<text text-anchor="middle" x="405.7224" y="-159.0692" font-family="Times,serif" font-size="10.00" fill="#666666">conséquent …</text>
</g>
<!-- d -->
<!-- d&#45;&gt;o4 -->
<!-- p3&#45;&gt;C -->
<g id="remarques+objections_edge13" class="edge">
<title>p3-&gt;C</title>
<path fill="none" stroke="#000000" d="M602.4839,-194.8436C588.9353,-163.8564 579.7696,-144.6299 570.1668,-130.4992"/>
<polygon fill="#000000" stroke="#000000" points="572.8553,-128.2486 564.0881,-122.2998 567.232,-132.4175 572.8553,-128.2486"/>
<text text-anchor="middle" x="555.6979" y="-171.2279" font-family="Times,serif" font-size="10.00" fill="#666666">par</text>
<text text-anchor="middle" x="555.6979" y="-159.2279" font-family="Times,serif" font-size="10.00" fill="#666666">conséquent …</text>
</g>
</g>
</svg>