<?xml version="1.0" encoding="UTF-8" standalone="no"?><!DOCTYPE svg PUBLIC "-//W3C//DTD SVG 1.1//EN" "http://www.w3.org/Graphics/SVG/1.1/DTD/svg11.dtd"><!-- Generated by graphviz version 2.40.1 (20161225.0304)
 --><!-- Title: G Pages: 1 --><svg xmlns="http://www.w3.org/2000/svg" xmlns:xlink="http://www.w3.org/1999/xlink" width="962pt" height="529pt" viewBox="0.00 0.00 961.86 528.71">
<g id="remarques+objections_graph0" class="graph" transform="scale(1 1) rotate(0) translate(21.6 507.1125)">
<title>G</title>
<polygon fill="#ffffff" stroke="transparent" points="-21.6,21.6 -21.6,-507.1125 940.2573,-507.1125 940.2573,21.6 -21.6,21.6"/>
<g id="remarques+objections_clust3" class="cluster">
<title>cluster_0</title>
<path fill="#e5e5e5" stroke="#7f7f7f" d="M278,-8C278,-8 703,-8 703,-8 709,-8 715,-14 715,-20 715,-20 715,-465.5125 715,-465.5125 715,-471.5125 709,-477.5125 703,-477.5125 703,-477.5125 278,-477.5125 278,-477.5125 272,-477.5125 266,-471.5125 266,-465.5125 266,-465.5125 266,-20 266,-20 266,-14 272,-8 278,-8"/>
</g>
<!-- 0 -->
<!-- o1 -->
<g id="remarques+objections_node2_remarques+objections" class="node">
<title>o1</title>
<path fill="#ffffff" stroke="#ee0000" d="M171.6007,-444.1125C171.6007,-444.1125 84.3993,-444.1125 84.3993,-444.1125 78.3993,-444.1125 72.3993,-438.1125 72.3993,-432.1125 72.3993,-432.1125 72.3993,-350.1125 72.3993,-350.1125 72.3993,-344.1125 78.3993,-338.1125 84.3993,-338.1125 84.3993,-338.1125 171.6007,-338.1125 171.6007,-338.1125 177.6007,-338.1125 183.6007,-344.1125 183.6007,-350.1125 183.6007,-350.1125 183.6007,-432.1125 183.6007,-432.1125 183.6007,-438.1125 177.6007,-444.1125 171.6007,-444.1125"/>
<text text-anchor="middle" x="128" y="-420.5125" font-family="Times,serif" font-size="14.00" fill="#000000">Les vertus</text>
<text text-anchor="middle" x="128" y="-403.7125" font-family="Times,serif" font-size="14.00" fill="#000000">théoriques de la</text>
<text text-anchor="middle" x="128" y="-386.9125" font-family="Times,serif" font-size="14.00" fill="#000000">psychanalyse</text>
<text text-anchor="middle" x="128" y="-370.1125" font-family="Times,serif" font-size="14.00" fill="#000000">sont très</text>
<text text-anchor="middle" x="128" y="-353.3125" font-family="Times,serif" font-size="14.00" fill="#000000">contestéees</text>
</g>
<!-- p1 -->
<g id="remarques+objections_node3_remarques+objections" class="node">
<title>p1</title>
<path fill="#ffffff" stroke="#000000" d="M465.0436,-452.4127C465.0436,-452.4127 302.9564,-452.4127 302.9564,-452.4127 296.9564,-452.4127 290.9564,-446.4127 290.9564,-440.4127 290.9564,-440.4127 290.9564,-341.8124 290.9564,-341.8124 290.9564,-335.8124 296.9564,-329.8124 302.9564,-329.8124 302.9564,-329.8124 465.0436,-329.8124 465.0436,-329.8124 471.0436,-329.8124 477.0436,-335.8124 477.0436,-341.8124 477.0436,-341.8124 477.0436,-440.4127 477.0436,-440.4127 477.0436,-446.4127 471.0436,-452.4127 465.0436,-452.4127"/>
<text text-anchor="middle" x="384" y="-428.9125" font-family="Times,serif" font-size="14.00" fill="#000000">L'hypothèse fondamentale</text>
<text text-anchor="middle" x="384" y="-412.1125" font-family="Times,serif" font-size="14.00" fill="#000000">de la psychanalyse permet de</text>
<text text-anchor="middle" x="384" y="-395.3125" font-family="Times,serif" font-size="14.00" fill="#000000">mieux comprendre certains</text>
<text text-anchor="middle" x="384" y="-378.5125" font-family="Times,serif" font-size="14.00" fill="#000000">troubles psychiques et le</text>
<text text-anchor="middle" x="384" y="-361.7125" font-family="Times,serif" font-size="14.00" fill="#000000">fonctionnement ordinaire</text>
<text text-anchor="middle" x="384" y="-344.9125" font-family="Times,serif" font-size="14.00" fill="#000000">de l'esprit humain</text>
</g>
<!-- o1&#45;&gt;p1 -->
<g id="remarques+objections_edge1" class="edge">
<title>o1-&gt;p1</title>
<path fill="none" stroke="#cd0000" stroke-width=".8" d="M193.7142,-410.9564C219.2559,-415.6737 244.0884,-414.4087 290.8055,-407.1615"/>
<polygon fill="#cd0000" stroke="#cd0000" stroke-width=".8" points="194.3527,-407.514 183.8432,-408.8556 192.8955,-414.3607 194.3527,-407.514"/>
<text text-anchor="middle" x="212.7524" y="-416.5475" font-family="Times,serif" font-size="10.00" fill="#666666">objection !</text>
</g>
<!-- o1b -->
<g id="remarques+objections_node4_remarques+objections" class="node">
<title>o1b</title>
<path fill="#ffffff" stroke="#ee0000" d="M222.9124,-276.8127C222.9124,-276.8127 111.0876,-276.8127 111.0876,-276.8127 105.0876,-276.8127 99.0876,-270.8127 99.0876,-264.8127 99.0876,-264.8127 99.0876,-199.4123 99.0876,-199.4123 99.0876,-193.4123 105.0876,-187.4123 111.0876,-187.4123 111.0876,-187.4123 222.9124,-187.4123 222.9124,-187.4123 228.9124,-187.4123 234.9124,-193.4123 234.9124,-199.4123 234.9124,-199.4123 234.9124,-264.8127 234.9124,-264.8127 234.9124,-270.8127 228.9124,-276.8127 222.9124,-276.8127"/>
<text text-anchor="middle" x="167" y="-253.1125" font-family="Times,serif" font-size="14.00" fill="#000000">Il existe d'autres</text>
<text text-anchor="middle" x="167" y="-236.3125" font-family="Times,serif" font-size="14.00" fill="#000000">modèles explicatifs</text>
<text text-anchor="middle" x="167" y="-219.5125" font-family="Times,serif" font-size="14.00" fill="#000000">plus rigoureux</text>
<text text-anchor="middle" x="167" y="-202.7125" font-family="Times,serif" font-size="14.00" fill="#000000">scientifiquement</text>
</g>
<!-- o1&#45;&gt;o1b -->
<!-- p1&#45;&gt;o1b -->
<g id="remarques+objections_edge2" class="edge">
<title>p1-&gt;o1b</title>
<path fill="none" stroke="#cd0000" stroke-width=".8" d="M290.9645,-354.4073C242.4043,-333.3662 222.4367,-317.999 199.9698,-285.5244"/>
<polygon fill="#cd0000" stroke="#cd0000" stroke-width=".8" points="202.6574,-283.2474 194.1851,-276.8857 196.841,-287.1422 202.6574,-283.2474"/>
<text text-anchor="middle" x="213.9978" y="-327.1299" font-family="Times,serif" font-size="10.00" fill="#666666">objection !</text>
</g>
<!-- p2 -->
<g id="remarques+objections_node6_remarques+objections" class="node">
<title>p2</title>
<path fill="#ffffff" stroke="#000000" d="M677.6144,-435.8127C677.6144,-435.8127 524.3856,-435.8127 524.3856,-435.8127 518.3856,-435.8127 512.3856,-429.8127 512.3856,-423.8127 512.3856,-423.8127 512.3856,-358.4123 512.3856,-358.4123 512.3856,-352.4123 518.3856,-346.4123 524.3856,-346.4123 524.3856,-346.4123 677.6144,-346.4123 677.6144,-346.4123 683.6144,-346.4123 689.6144,-352.4123 689.6144,-358.4123 689.6144,-358.4123 689.6144,-423.8127 689.6144,-423.8127 689.6144,-429.8127 683.6144,-435.8127 677.6144,-435.8127"/>
<text text-anchor="middle" x="601" y="-412.1125" font-family="Times,serif" font-size="14.00" fill="#000000">L'hypothèse fondamentale</text>
<text text-anchor="middle" x="601" y="-395.3125" font-family="Times,serif" font-size="14.00" fill="#000000">de la psychanalyse rend</text>
<text text-anchor="middle" x="601" y="-378.5125" font-family="Times,serif" font-size="14.00" fill="#000000">possible une pratique</text>
<text text-anchor="middle" x="601" y="-361.7125" font-family="Times,serif" font-size="14.00" fill="#000000">thérapeutique efficace</text>
</g>
<!-- p1&#45;&gt;p2 -->
<!-- C -->
<g id="remarques+objections_node8_remarques+objections" class="node">
<title>C</title>
<ellipse fill="#000000" stroke="#000000" cx="479" cy="-106.2563" rx="95.1557" ry="73.0133"/>
<text text-anchor="middle" x="479" y="-131.7563" font-family="Times,serif" font-size="17.00" fill="#ffffff">L'hypothèse</text>
<text text-anchor="middle" x="479" y="-111.3563" font-family="Times,serif" font-size="17.00" fill="#ffffff">fondamentale de</text>
<text text-anchor="middle" x="479" y="-90.9563" font-family="Times,serif" font-size="17.00" fill="#ffffff">la psychanalyse</text>
<text text-anchor="middle" x="479" y="-70.5563" font-family="Times,serif" font-size="17.00" fill="#ffffff">est justifiée</text>
</g>
<!-- p1&#45;&gt;C -->
<g id="remarques+objections_edge7" class="edge">
<title>p1-&gt;C</title>
<path fill="none" stroke="#000000" d="M379.4794,-329.5923C377.2272,-273.0499 386.211,-245.8959 429.1726,-179.939"/>
<polygon fill="#000000" stroke="#000000" points="432.3099,-181.5379 434.8733,-171.2579 426.4586,-177.6956 432.3099,-181.5379"/>
<text text-anchor="middle" x="363.7064" y="-259.0733" font-family="Times,serif" font-size="10.00" fill="#666666">par</text>
<text text-anchor="middle" x="363.7064" y="-247.0733" font-family="Times,serif" font-size="10.00" fill="#666666">conséquent …</text>
</g>
<!-- o2 -->
<g id="remarques+objections_node5_remarques+objections" class="node">
<title>o2</title>
<path fill="#ffffff" stroke="#ee0000" d="M906.815,-444.1125C906.815,-444.1125 809.185,-444.1125 809.185,-444.1125 803.185,-444.1125 797.185,-438.1125 797.185,-432.1125 797.185,-432.1125 797.185,-350.1125 797.185,-350.1125 797.185,-344.1125 803.185,-338.1125 809.185,-338.1125 809.185,-338.1125 906.815,-338.1125 906.815,-338.1125 912.815,-338.1125 918.815,-344.1125 918.815,-350.1125 918.815,-350.1125 918.815,-432.1125 918.815,-432.1125 918.815,-438.1125 912.815,-444.1125 906.815,-444.1125"/>
<text text-anchor="middle" x="858" y="-420.5125" font-family="Times,serif" font-size="14.00" fill="#000000">Les vertus</text>
<text text-anchor="middle" x="858" y="-403.7125" font-family="Times,serif" font-size="14.00" fill="#000000">thérapeutiques de</text>
<text text-anchor="middle" x="858" y="-386.9125" font-family="Times,serif" font-size="14.00" fill="#000000">la psychanalyse</text>
<text text-anchor="middle" x="858" y="-370.1125" font-family="Times,serif" font-size="14.00" fill="#000000">sont très</text>
<text text-anchor="middle" x="858" y="-353.3125" font-family="Times,serif" font-size="14.00" fill="#000000">contestées</text>
</g>
<!-- o2b -->
<g id="remarques+objections_node7_remarques+objections" class="node">
<title>o2b</title>
<path fill="#ffffff" stroke="#ee0000" d="M865.1008,-276.8127C865.1008,-276.8127 784.8992,-276.8127 784.8992,-276.8127 778.8992,-276.8127 772.8992,-270.8127 772.8992,-264.8127 772.8992,-264.8127 772.8992,-199.4123 772.8992,-199.4123 772.8992,-193.4123 778.8992,-187.4123 784.8992,-187.4123 784.8992,-187.4123 865.1008,-187.4123 865.1008,-187.4123 871.1008,-187.4123 877.1008,-193.4123 877.1008,-199.4123 877.1008,-199.4123 877.1008,-264.8127 877.1008,-264.8127 877.1008,-270.8127 871.1008,-276.8127 865.1008,-276.8127"/>
<text text-anchor="middle" x="825" y="-253.1125" font-family="Times,serif" font-size="14.00" fill="#000000">Il existe des</text>
<text text-anchor="middle" x="825" y="-236.3125" font-family="Times,serif" font-size="14.00" fill="#000000">pratiques</text>
<text text-anchor="middle" x="825" y="-219.5125" font-family="Times,serif" font-size="14.00" fill="#000000">thérapeutiques</text>
<text text-anchor="middle" x="825" y="-202.7125" font-family="Times,serif" font-size="14.00" fill="#000000">plus efficaces</text>
</g>
<!-- o2&#45;&gt;o2b -->
<!-- p2&#45;&gt;o2 -->
<g id="remarques+objections_edge4" class="edge">
<title>p2-&gt;o2</title>
<path fill="none" stroke="#cd0000" stroke-width=".8" d="M689.7449,-403.424C737.2895,-409.5159 763.2843,-411.1499 787.3871,-408.326"/>
<polygon fill="#cd0000" stroke="#cd0000" stroke-width=".8" points="787.8916,-411.7895 797.2932,-406.9049 786.8975,-404.8605 787.8916,-411.7895"/>
<text text-anchor="middle" x="725.8799" y="-412.2208" font-family="Times,serif" font-size="10.00" fill="#666666">objection !</text>
</g>
<!-- p2&#45;&gt;o2b -->
<g id="remarques+objections_edge6" class="edge">
<title>p2-&gt;o2b</title>
<path fill="none" stroke="#cd0000" stroke-width=".8" d="M689.7581,-355.2931C744.6862,-331.7063 766.4738,-316.6123 789.9063,-285.3194"/>
<polygon fill="#cd0000" stroke="#cd0000" stroke-width=".8" points="792.8986,-287.1543 795.9204,-276.9996 787.2255,-283.0535 792.8986,-287.1543"/>
<text text-anchor="middle" x="730.1657" y="-326.1649" font-family="Times,serif" font-size="10.00" fill="#666666">objection !</text>
</g>
<!-- p2&#45;&gt;C -->
<g id="remarques+objections_edge8" class="edge">
<title>p2-&gt;C</title>
<path fill="none" stroke="#000000" d="M601.0384,-346.263C600.2085,-271.6115 591.9408,-245.8023 536.463,-175.9717"/>
<polygon fill="#000000" stroke="#000000" points="539.1904,-173.7782 530.2087,-168.1586 533.7256,-178.1527 539.1904,-173.7782"/>
<text text-anchor="middle" x="555.6341" y="-263.3957" font-family="Times,serif" font-size="10.00" fill="#666666">par</text>
<text text-anchor="middle" x="555.6341" y="-251.3957" font-family="Times,serif" font-size="10.00" fill="#666666">conséquent …</text>
</g>
</g>
</svg>