<?xml version="1.0" encoding="UTF-8" standalone="no"?><!DOCTYPE svg PUBLIC "-//W3C//DTD SVG 1.1//EN" "http://www.w3.org/Graphics/SVG/1.1/DTD/svg11.dtd"><!-- Generated by graphviz version 2.40.1 (20161225.0304)
 --><!-- Title: G Pages: 1 --><svg xmlns="http://www.w3.org/2000/svg" xmlns:xlink="http://www.w3.org/1999/xlink" width="844pt" height="428pt" viewBox="0.00 0.00 844.26 428.00">
<g id="remarques+objections_graph0" class="graph" transform="scale(1 1) rotate(0) translate(21.6 406.4)">
<title>G</title>
<polygon fill="#ffffff" stroke="transparent" points="-21.6,21.6 -21.6,-406.4 822.665,-406.4 822.665,21.6 -21.6,21.6"/>
<g id="remarques+objections_clust4" class="cluster">
<title>cluster_0</title>
<path fill="#e5e5e5" stroke="#7f7f7f" d="M210.7605,-169.3C210.7605,-169.3 569.7605,-169.3 569.7605,-169.3 575.7605,-169.3 581.7605,-175.3 581.7605,-181.3 581.7605,-181.3 581.7605,-364.8 581.7605,-364.8 581.7605,-370.8 575.7605,-376.8 569.7605,-376.8 569.7605,-376.8 210.7605,-376.8 210.7605,-376.8 204.7605,-376.8 198.7605,-370.8 198.7605,-364.8 198.7605,-364.8 198.7605,-181.3 198.7605,-181.3 198.7605,-175.3 204.7605,-169.3 210.7605,-169.3"/>
</g>
<!-- 0 -->
<!-- o1 -->
<g id="remarques+objections_node2_remarques+objections" class="node">
<title>o1</title>
<path fill="#ffffff" stroke="#ee0000" d="M135.2823,-289C135.2823,-289 12.2387,-289 12.2387,-289 6.2387,-289 .2387,-283 .2387,-277 .2387,-277 .2387,-174 .2387,-174 .2387,-168 6.2387,-162 12.2387,-162 12.2387,-162 135.2823,-162 135.2823,-162 141.2823,-162 147.2823,-168 147.2823,-174 147.2823,-174 147.2823,-277 147.2823,-277 147.2823,-283 141.2823,-289 135.2823,-289"/>
<text text-anchor="start" x="14.2009" y="-268.2" font-family="Times,serif" font-size="12.00" fill="#000000">Une déduction peut aller</text>
<text text-anchor="start" x="20.6335" y="-256.2" font-family="Times,serif" font-size="12.00" fill="#000000">du général au général</text>
<text text-anchor="start" x="53.3485" y="-239" font-family="Times,serif" text-decoration="underline" font-size="10.00" fill="#000000">Exemple :</text>
<text text-anchor="start" x="11" y="-225" font-family="Times,serif" font-style="italic" font-size="10.00" fill="#000000">(1) </text>
<text text-anchor="start" x="25.158" y="-225" font-family="Times,serif" font-size="10.00" fill="#000000"> Tous les philosophes sont</text>
<text text-anchor="start" x="39.0515" y="-215" font-family="Times,serif" font-size="10.00" fill="#000000">des êtres vivants</text>
<text text-anchor="start" x="11" y="-205" font-family="Times,serif" font-style="italic" font-size="10.00" fill="#000000">(2) </text>
<text text-anchor="start" x="25.158" y="-205" font-family="Times,serif" font-size="10.00" fill="#000000"> Tous les êtres vivants sont</text>
<text text-anchor="start" x="38.4975" y="-195" font-family="Times,serif" font-size="10.00" fill="#000000">des êtres mortels</text>
<text text-anchor="start" x="11" y="-185" font-family="Times,serif" font-style="italic" font-size="10.00" fill="#000000">Donc : </text>
<text text-anchor="start" x="40.437" y="-185" font-family="Times,serif" font-size="10.00" fill="#000000"> Tous les philosophes</text>
<text text-anchor="start" x="27.6635" y="-175" font-family="Times,serif" font-size="10.00" fill="#000000"> sont des êtres mortels</text>
</g>
<!-- p1 -->
<g id="remarques+objections_node8_remarques+objections" class="node">
<title>p1</title>
<path fill="#ffffff" stroke="#000000" d="M360.2865,-261.9011C360.2865,-261.9011 231.2345,-261.9011 231.2345,-261.9011 225.2345,-261.9011 219.2345,-255.9011 219.2345,-249.9011 219.2345,-249.9011 219.2345,-201.0989 219.2345,-201.0989 219.2345,-195.0989 225.2345,-189.0989 231.2345,-189.0989 231.2345,-189.0989 360.2865,-189.0989 360.2865,-189.0989 366.2865,-189.0989 372.2865,-195.0989 372.2865,-201.0989 372.2865,-201.0989 372.2865,-249.9011 372.2865,-249.9011 372.2865,-255.9011 366.2865,-261.9011 360.2865,-261.9011"/>
<text text-anchor="middle" x="295.7605" y="-238.1" font-family="Times,serif" font-size="14.00" fill="#000000">Une déduction est un</text>
<text text-anchor="middle" x="295.7605" y="-221.3" font-family="Times,serif" font-size="14.00" fill="#000000">raisonnement qui va du</text>
<text text-anchor="middle" x="295.7605" y="-204.5" font-family="Times,serif" font-size="14.00" fill="#000000">général au particulier</text>
<text text-anchor="middle" x="215.7475" y="-265.9" font-family="Times,serif" font-size="14.00" fill="#000000">1</text>
</g>
<!-- o1&#45;&gt;p1 -->
<g id="remarques+objections_edge1" class="edge">
<title>o1-&gt;p1</title>
<path fill="none" stroke="#cd0000" stroke-width=".8" d="M157.6114,-230.5263C173.1365,-230.4064 192.2534,-229.8157 219.0678,-228.7542"/>
<polygon fill="#cd0000" stroke="#cd0000" stroke-width=".8" points="157.384,-227.0264 147.3867,-230.5341 157.3894,-234.0264 157.384,-227.0264"/>
<text text-anchor="start" x="156.6505" y="-215.0207" font-family="Times,serif" font-size="10.00" fill="#666666">C'est faux ! </text>
</g>
<!-- o2 -->
<g id="remarques+objections_node3_remarques+objections" class="node">
<title>o2</title>
<path fill="#ffffff" stroke="#ee0000" d="M200.3212,-117C200.3212,-117 79.1998,-117 79.1998,-117 73.1998,-117 67.1998,-111 67.1998,-105 67.1998,-105 67.1998,-22 67.1998,-22 67.1998,-16 73.1998,-10 79.1998,-10 79.1998,-10 200.3212,-10 200.3212,-10 206.3212,-10 212.3212,-16 212.3212,-22 212.3212,-22 212.3212,-105 212.3212,-105 212.3212,-111 206.3212,-117 200.3212,-117"/>
<text text-anchor="start" x="80.2009" y="-96.2" font-family="Times,serif" font-size="12.00" fill="#000000">Une déduction peut aller</text>
<text text-anchor="start" x="80.4607" y="-84.2" font-family="Times,serif" font-size="12.00" fill="#000000">du particulier au général</text>
<text text-anchor="start" x="119.3485" y="-67" font-family="Times,serif" text-decoration="underline" font-size="10.00" fill="#000000">Exemple :</text>
<text text-anchor="start" x="77.9805" y="-53" font-family="Times,serif" font-style="italic" font-size="10.00" fill="#000000">(1) </text>
<text text-anchor="start" x="92.1385" y="-53" font-family="Times,serif" font-size="10.00" fill="#000000"> Socrate est un philosophe</text>
<text text-anchor="start" x="77.9805" y="-43" font-family="Times,serif" font-style="italic" font-size="10.00" fill="#000000">(2) </text>
<text text-anchor="start" x="92.1385" y="-43" font-family="Times,serif" font-size="10.00" fill="#000000"> Socrate n'est pas allemand</text>
<text text-anchor="start" x="77.9805" y="-33" font-family="Times,serif" font-style="italic" font-size="10.00" fill="#000000">Donc : </text>
<text text-anchor="start" x="107.4175" y="-33" font-family="Times,serif" font-size="10.00" fill="#000000"> Tous les philosophes</text>
<text text-anchor="start" x="94.7715" y="-23" font-family="Times,serif" font-size="10.00" fill="#000000"> ne sont pas allemands</text>
</g>
<!-- o3 -->
<g id="remarques+objections_node4_remarques+objections" class="node">
<title>o3</title>
<path fill="#ffffff" stroke="#ee0000" d="M339.3716,-123C339.3716,-123 242.1494,-123 242.1494,-123 236.1494,-123 230.1494,-117 230.1494,-111 230.1494,-111 230.1494,-16 230.1494,-16 230.1494,-10 236.1494,-4 242.1494,-4 242.1494,-4 339.3716,-4 339.3716,-4 345.3716,-4 351.3716,-10 351.3716,-16 351.3716,-16 351.3716,-111 351.3716,-111 351.3716,-117 345.3716,-123 339.3716,-123"/>
<text text-anchor="start" x="243.3599" y="-102.2" font-family="Times,serif" font-size="12.00" fill="#000000">Une déduction peut</text>
<text text-anchor="start" x="244.9469" y="-90.2" font-family="Times,serif" font-size="12.00" fill="#000000">aller du particulier </text>
<text text-anchor="start" x="258.9425" y="-78.2" font-family="Times,serif" font-size="12.00" fill="#000000">au particulier</text>
<text text-anchor="start" x="270.3485" y="-61" font-family="Times,serif" text-decoration="underline" font-size="10.00" fill="#000000">Exemple :</text>
<text text-anchor="start" x="241.205" y="-47" font-family="Times,serif" font-style="italic" font-size="10.00" fill="#000000">(1) </text>
<text text-anchor="start" x="255.363" y="-47" font-family="Times,serif" font-size="10.00" fill="#000000"> Socrate pense</text>
<text text-anchor="start" x="241.205" y="-37" font-family="Times,serif" font-style="italic" font-size="10.00" fill="#000000">(2) </text>
<text text-anchor="start" x="255.363" y="-37" font-family="Times,serif" font-size="10.00" fill="#000000"> Si Socrate pense, </text>
<text text-anchor="start" x="241.205" y="-27" font-family="Times,serif" font-size="10.00" fill="#000000">alors Socrate réfléchit</text>
<text text-anchor="start" x="241.205" y="-17" font-family="Times,serif" font-style="italic" font-size="10.00" fill="#000000">Donc : </text>
<text text-anchor="start" x="270.642" y="-17" font-family="Times,serif" font-size="10.00" fill="#000000"> Socrate réfléchit</text>
</g>
<!-- o5 -->
<g id="remarques+objections_node6_remarques+objections" class="node">
<title>o5</title>
<path fill="#ffffff" stroke="#ee0000" d="M550.8607,-127C550.8607,-127 434.6603,-127 434.6603,-127 428.6603,-127 422.6603,-121 422.6603,-115 422.6603,-115 422.6603,-12 422.6603,-12 422.6603,-6 428.6603,0 434.6603,0 434.6603,0 550.8607,0 550.8607,0 556.8607,0 562.8607,-6 562.8607,-12 562.8607,-12 562.8607,-115 562.8607,-115 562.8607,-121 556.8607,-127 550.8607,-127"/>
<text text-anchor="start" x="434.6103" y="-106.2" font-family="Times,serif" font-size="12.00" fill="#000000">Une induction peut aller</text>
<text text-anchor="start" x="433.4607" y="-94.2" font-family="Times,serif" font-size="12.00" fill="#000000">du général au particulier</text>
<text text-anchor="start" x="472.3485" y="-77" font-family="Times,serif" text-decoration="underline" font-size="10.00" fill="#000000">Exemple :</text>
<text text-anchor="start" x="433.4607" y="-63" font-family="Times,serif" font-style="italic" font-size="10.00" fill="#000000">(1) </text>
<text text-anchor="start" x="447.6187" y="-63" font-family="Times,serif" font-size="10.00" fill="#000000"> La plupart des pommes</text>
<text text-anchor="start" x="441.3925" y="-53" font-family="Times,serif" font-size="10.00" fill="#000000">de ce panier sont pourries</text>
<text text-anchor="start" x="433.4607" y="-43" font-family="Times,serif" font-style="italic" font-size="10.00" fill="#000000">(2) </text>
<text text-anchor="start" x="447.6187" y="-43" font-family="Times,serif" font-size="10.00" fill="#000000"> Cette pomme provient</text>
<text text-anchor="start" x="468.609" y="-33" font-family="Times,serif" font-size="10.00" fill="#000000">de ce panier</text>
<text text-anchor="start" x="444.7215" y="-23" font-family="Times,serif" font-style="italic" font-size="10.00" fill="#000000">Donc (probablement) : </text>
<text text-anchor="start" x="538.2995" y="-23" font-family="Times,serif" font-size="10.00" fill="#000000"> </text>
<text text-anchor="start" x="444.583" y="-13" font-family="Times,serif" font-size="10.00" fill="#000000">cette pomme est pourrie</text>
</g>
<!-- o3&#45;&gt;o5 -->
<!-- o4 -->
<g id="remarques+objections_node5_remarques+objections" class="node">
<title>o4</title>
<path fill="#ffffff" stroke="#ee0000" d="M788.87,-289C788.87,-289 644.651,-289 644.651,-289 638.651,-289 632.651,-283 632.651,-277 632.651,-277 632.651,-174 632.651,-174 632.651,-168 638.651,-162 644.651,-162 644.651,-162 788.87,-162 788.87,-162 794.87,-162 800.87,-168 800.87,-174 800.87,-174 800.87,-277 800.87,-277 800.87,-283 794.87,-289 788.87,-289"/>
<text text-anchor="start" x="658.6103" y="-268.2" font-family="Times,serif" font-size="12.00" fill="#000000">Une induction peut aller</text>
<text text-anchor="start" x="651.2879" y="-256.2" font-family="Times,serif" font-size="12.00" fill="#000000">du particulier au particulier</text>
<text text-anchor="start" x="696.3485" y="-239" font-family="Times,serif" text-decoration="underline" font-size="10.00" fill="#000000">Exemple :</text>
<text text-anchor="start" x="643.456" y="-225" font-family="Times,serif" font-style="italic" font-size="10.00" fill="#000000">(1) </text>
<text text-anchor="start" x="657.614" y="-225" font-family="Times,serif" font-size="10.00" fill="#000000"> La première pomme est pourrie</text>
<text text-anchor="start" x="669.277" y="-215" font-family="Times,serif" font-style="italic" font-size="10.00" fill="#000000">(2) </text>
<text text-anchor="start" x="683.435" y="-215" font-family="Times,serif" font-size="10.00" fill="#000000"> La deuxième aussi</text>
<text text-anchor="start" x="701.7605" y="-205" font-family="Times,serif" font-size="10.00" fill="#000000">………</text>
<text text-anchor="start" x="669.277" y="-195" font-family="Times,serif" font-style="italic" font-size="10.00" fill="#000000">(9) </text>
<text text-anchor="start" x="683.435" y="-195" font-family="Times,serif" font-size="10.00" fill="#000000"> La neuvième aussi</text>
<text text-anchor="start" x="668.7215" y="-185" font-family="Times,serif" font-style="italic" font-size="10.00" fill="#000000">Donc (probablement) : </text>
<text text-anchor="start" x="762.2995" y="-185" font-family="Times,serif" font-size="10.00" fill="#000000"> </text>
<text text-anchor="start" x="655.109" y="-175" font-family="Times,serif" font-size="10.00" fill="#000000">la dixième pomme est pourrie</text>
</g>
<!-- o6 -->
<g id="remarques+objections_node7_remarques+objections" class="node">
<title>o6</title>
<path fill="#ffffff" stroke="#ee0000" d="M732.1705,-127C732.1705,-127 593.3505,-127 593.3505,-127 587.3505,-127 581.3505,-121 581.3505,-115 581.3505,-115 581.3505,-12 581.3505,-12 581.3505,-6 587.3505,0 593.3505,0 593.3505,0 732.1705,0 732.1705,0 738.1705,0 744.1705,-6 744.1705,-12 744.1705,-12 744.1705,-115 744.1705,-115 744.1705,-121 738.1705,-127 732.1705,-127"/>
<text text-anchor="start" x="604.6103" y="-106.2" font-family="Times,serif" font-size="12.00" fill="#000000">Une induction peut aller</text>
<text text-anchor="start" x="609.6335" y="-94.2" font-family="Times,serif" font-size="12.00" fill="#000000">du général au général</text>
<text text-anchor="start" x="642.3485" y="-77" font-family="Times,serif" text-decoration="underline" font-size="10.00" fill="#000000">Exemple :</text>
<text text-anchor="start" x="599.4445" y="-63" font-family="Times,serif" font-style="italic" font-size="10.00" fill="#000000">(1) </text>
<text text-anchor="start" x="613.6025" y="-63" font-family="Times,serif" font-size="10.00" fill="#000000"> Toutes les pommes que j'ai</text>
<text text-anchor="start" x="592.3055" y="-53" font-family="Times,serif" font-size="10.00" fill="#000000">mangées de ce panier sont pourries</text>
<text text-anchor="start" x="601.264" y="-43" font-family="Times,serif" font-style="italic" font-size="10.00" fill="#000000">(2) </text>
<text text-anchor="start" x="615.422" y="-43" font-family="Times,serif" font-size="10.00" fill="#000000"> J'ai déjà mangé beaucoup</text>
<text text-anchor="start" x="614.4465" y="-33" font-family="Times,serif" font-size="10.00" fill="#000000">de pommes de ce panier</text>
<text text-anchor="start" x="597.225" y="-23" font-family="Times,serif" font-style="italic" font-size="10.00" fill="#000000">Donc (probablement) : </text>
<text text-anchor="start" x="690.803" y="-23" font-family="Times,serif" font-size="10.00" fill="#000000">toutes les</text>
<text text-anchor="start" x="593.1995" y="-13" font-family="Times,serif" font-size="10.00" fill="#000000">pommes de ce panier sont pourries</text>
</g>
<!-- p1&#45;&gt;o2 -->
<g id="remarques+objections_edge2" class="edge">
<title>p1-&gt;o2</title>
<path fill="none" stroke="#cd0000" stroke-width=".8" d="M248.1351,-189.1298C209.68,-159.4472 189.8444,-142.6653 175.6585,-125.3154"/>
<polygon fill="#cd0000" stroke="#cd0000" stroke-width=".8" points="178.3479,-123.0705 169.4915,-117.2554 172.7885,-127.3242 178.3479,-123.0705"/>
<text text-anchor="start" x="149.7311" y="-154.5683" font-family="Times,serif" font-size="10.00" fill="#666666">C'est faux ! </text>
</g>
<!-- p1&#45;&gt;o3 -->
<g id="remarques+objections_edge3" class="edge">
<title>p1-&gt;o3</title>
<path fill="none" stroke="#cd0000" stroke-width=".8" d="M283.572,-189.2421C275.4372,-164.2006 271.3366,-148.1866 271.0393,-133.7245"/>
<polygon fill="#cd0000" stroke="#cd0000" stroke-width=".8" points="274.5522,-133.5045 271.4917,-123.3613 267.5588,-133.1991 274.5522,-133.5045"/>
<text text-anchor="start" x="221.2389" y="-159.0979" font-family="Times,serif" font-size="10.00" fill="#666666">C'est faux ! </text>
</g>
<!-- p2 -->
<g id="remarques+objections_node9_remarques+objections" class="node">
<title>p2</title>
<path fill="#ffffff" stroke="#000000" d="M549.2865,-261.9011C549.2865,-261.9011 420.2345,-261.9011 420.2345,-261.9011 414.2345,-261.9011 408.2345,-255.9011 408.2345,-249.9011 408.2345,-249.9011 408.2345,-201.0989 408.2345,-201.0989 408.2345,-195.0989 414.2345,-189.0989 420.2345,-189.0989 420.2345,-189.0989 549.2865,-189.0989 549.2865,-189.0989 555.2865,-189.0989 561.2865,-195.0989 561.2865,-201.0989 561.2865,-201.0989 561.2865,-249.9011 561.2865,-249.9011 561.2865,-255.9011 555.2865,-261.9011 549.2865,-261.9011"/>
<text text-anchor="middle" x="484.7605" y="-238.1" font-family="Times,serif" font-size="14.00" fill="#000000">Une induction est un</text>
<text text-anchor="middle" x="484.7605" y="-221.3" font-family="Times,serif" font-size="14.00" fill="#000000">raisonnement qui va du</text>
<text text-anchor="middle" x="484.7605" y="-204.5" font-family="Times,serif" font-size="14.00" fill="#000000">particulier au général</text>
<text text-anchor="middle" x="404.7475" y="-265.9" font-family="Times,serif" font-size="14.00" fill="#000000">2</text>
</g>
<!-- p1&#45;&gt;p2 -->
<!-- p2&#45;&gt;o4 -->
<g id="remarques+objections_edge4" class="edge">
<title>p2-&gt;o4</title>
<path fill="none" stroke="#cd0000" stroke-width=".8" d="M561.5028,-229.0138C587.362,-230.1285 606.5353,-230.8122 622.1769,-231.0648"/>
<polygon fill="#cd0000" stroke="#cd0000" stroke-width=".8" points="622.4446,-234.5676 632.4801,-231.1708 622.5167,-227.568 622.4446,-234.5676"/>
<text text-anchor="start" x="570.5512" y="-215.41" font-family="Times,serif" font-size="10.00" fill="#666666">C'est faux ! </text>
</g>
<!-- p2&#45;&gt;o5 -->
<g id="remarques+objections_edge5" class="edge">
<title>p2-&gt;o5</title>
<path fill="none" stroke="#cd0000" stroke-width=".8" d="M496.843,-189.2248C504.2702,-166.2614 508.5059,-150.7355 509.8099,-137.3857"/>
<polygon fill="#cd0000" stroke="#cd0000" stroke-width=".8" points="513.3211,-137.18 510.2321,-127.0455 506.3269,-136.8943 513.3211,-137.18"/>
<text text-anchor="start" x="452.791" y="-160.9142" font-family="Times,serif" font-size="10.00" fill="#666666">C'est faux ! </text>
</g>
<!-- p2&#45;&gt;o6 -->
<g id="remarques+objections_edge6" class="edge">
<title>p2-&gt;o6</title>
<path fill="none" stroke="#cd0000" stroke-width=".8" d="M536.9763,-189.1856C572.2789,-164.4129 593.7214,-148.5097 609.3971,-134.1102"/>
<polygon fill="#cd0000" stroke="#cd0000" stroke-width=".8" points="611.8771,-136.5812 616.6647,-127.1298 607.028,-131.5327 611.8771,-136.5812"/>
<text text-anchor="start" x="527.5502" y="-159.732" font-family="Times,serif" font-size="10.00" fill="#666666">C'est faux ! </text>
</g>
<!-- titre -->
<g id="remarques+objections_node10_remarques+objections" class="node">
<title>titre</title>
<polygon fill="none" stroke="transparent" points="493.0014,-356.7004 286.5196,-356.7004 286.5196,-306.0996 493.0014,-306.0996 493.0014,-356.7004"/>
<text text-anchor="start" x="297.6401" y="-325.2" font-family="Times,serif" font-weight="bold" font-size="24.00" fill="#000000">Deux idées fausses</text>
</g>
<!-- titre&#45;&gt;p1 -->
<!-- titre&#45;&gt;p2 -->
</g>
</svg>