<?xml version="1.0" encoding="UTF-8" standalone="no"?><!DOCTYPE svg PUBLIC "-//W3C//DTD SVG 1.1//EN" "http://www.w3.org/Graphics/SVG/1.1/DTD/svg11.dtd"><!-- Generated by graphviz version 2.40.1 (20161225.0304)
 --><!-- Title: G Pages: 1 --><svg xmlns="http://www.w3.org/2000/svg" xmlns:xlink="http://www.w3.org/1999/xlink" width="904pt" height="884pt" viewBox="0.00 0.00 904.20 883.95">
<g id="remarques+objections_graph0" class="graph" transform="scale(1 1) rotate(0) translate(21.6 862.3537)">
<title>G</title>
<polygon fill="#ffffff" stroke="transparent" points="-21.6,21.6 -21.6,-862.3537 882.6,-862.3537 882.6,21.6 -21.6,21.6"/>
<g id="remarques+objections_clust1" class="cluster">
<title>cluster_0</title>
<path fill="#e5e5e5" stroke="#7f7f7f" d="M91,-8C91,-8 841,-8 841,-8 847,-8 853,-14 853,-20 853,-20 853,-820.7537 853,-820.7537 853,-826.7537 847,-832.7537 841,-832.7537 841,-832.7537 91,-832.7537 91,-832.7537 85,-832.7537 79,-826.7537 79,-820.7537 79,-820.7537 79,-20 79,-20 79,-14 85,-8 91,-8"/>
</g>
<!-- 0 -->
<!-- PL1 -->
<g id="remarques+objections_node2_remarques+objections" class="node">
<title>PL1</title>
<polygon fill="#e0e0e0" stroke="transparent" points="392,-532.6537 104,-532.6537 104,-531.6537 392,-531.6537 392,-532.6537"/>
<polyline fill="none" stroke="#000000" points="104,-531.6537 392,-531.6537 "/>
</g>
<!-- p1 -->
<g id="remarques+objections_node3_remarques+objections" class="node">
<title>p1</title>
<path fill="#ffffff" stroke="#000000" d="M502.2752,-459.854C502.2752,-459.854 379.7248,-459.854 379.7248,-459.854 373.7248,-459.854 367.7248,-453.854 367.7248,-447.854 367.7248,-447.854 367.7248,-382.4535 367.7248,-382.4535 367.7248,-376.4535 373.7248,-370.4535 379.7248,-370.4535 379.7248,-370.4535 502.2752,-370.4535 502.2752,-370.4535 508.2752,-370.4535 514.2752,-376.4535 514.2752,-382.4535 514.2752,-382.4535 514.2752,-447.854 514.2752,-447.854 514.2752,-453.854 508.2752,-459.854 502.2752,-459.854"/>
<text text-anchor="middle" x="441" y="-436.1537" font-family="Times,serif" font-size="14.00" fill="#000000">La technique appelle</text>
<text text-anchor="middle" x="441" y="-419.3537" font-family="Times,serif" font-size="14.00" fill="#000000">la technique : il y a un</text>
<text text-anchor="middle" x="441" y="-402.5537" font-family="Times,serif" font-size="14.00" fill="#000000">auto-accroissement de</text>
<text text-anchor="middle" x="441" y="-385.7537" font-family="Times,serif" font-size="14.00" fill="#000000">la technique</text>
</g>
<!-- PL1&#45;&gt;p1 -->
<g id="remarques+objections_edge5" class="edge">
<title>PL1-&gt;p1</title>
<path fill="none" stroke="#000000" d="M249.0158,-531.5468C291.0148,-506.4545 302.5558,-499.5539 359.0321,-465.1406"/>
<polygon fill="#000000" stroke="#000000" points="360.982,-468.051 367.6996,-459.8581 357.339,-462.0736 360.982,-468.051"/>
<text text-anchor="middle" x="279.4534" y="-510.8313" font-family="Times,serif" font-size="10.00" fill="#666666">par</text>
<text text-anchor="middle" x="279.4534" y="-498.8313" font-family="Times,serif" font-size="10.00" fill="#666666">conséquent …</text>
</g>
<!-- vide1 -->
<!-- PL1&#45;&gt;vide1 -->
<!-- p2 -->
<g id="remarques+objections_node4_remarques+objections" class="node">
<title>p2</title>
<path fill="#ffffff" stroke="#000000" d="M489.9556,-299.5548C489.9556,-299.5548 304.0444,-299.5548 304.0444,-299.5548 298.0444,-299.5548 292.0444,-293.5548 292.0444,-287.5548 292.0444,-287.5548 292.0444,-238.7526 292.0444,-238.7526 292.0444,-232.7526 298.0444,-226.7526 304.0444,-226.7526 304.0444,-226.7526 489.9556,-226.7526 489.9556,-226.7526 495.9556,-226.7526 501.9556,-232.7526 501.9556,-238.7526 501.9556,-238.7526 501.9556,-287.5548 501.9556,-287.5548 501.9556,-293.5548 495.9556,-299.5548 489.9556,-299.5548"/>
<text text-anchor="middle" x="397" y="-275.7537" font-family="Times,serif" font-size="14.00" fill="#000000">La technique n'est pas un simple</text>
<text text-anchor="middle" x="397" y="-258.9537" font-family="Times,serif" font-size="14.00" fill="#000000">outil, un simple moyen : elle se</text>
<text text-anchor="middle" x="397" y="-242.1537" font-family="Times,serif" font-size="14.00" fill="#000000">développe de manière autonome</text>
</g>
<!-- p1&#45;&gt;p2 -->
<g id="remarques+objections_edge1" class="edge">
<title>p1-&gt;p2</title>
<path fill="none" stroke="#000000" d="M429.9287,-370.3206C422.4113,-340.0838 417.9193,-322.8187 413.7044,-309.0309"/>
<polygon fill="#000000" stroke="#000000" points="417.0263,-307.9276 410.645,-299.4701 410.3593,-310.0611 417.0263,-307.9276"/>
<text text-anchor="middle" x="391.4608" y="-348.3924" font-family="Times,serif" font-size="10.00" fill="#666666">par</text>
<text text-anchor="middle" x="391.4608" y="-336.3924" font-family="Times,serif" font-size="10.00" fill="#666666">conséquent …</text>
</g>
<!-- vide2 -->
<!-- p1&#45;&gt;vide2 -->
<!-- C -->
<g id="remarques+objections_node5_remarques+objections" class="node">
<title>C</title>
<ellipse fill="#000000" stroke="#000000" cx="397" cy="-94.3769" rx="174.3373" ry="61.254"/>
<text text-anchor="middle" x="397" y="-110.5769" font-family="Times,serif" font-size="18.00" fill="#ffffff">La question se pose de savoir</text>
<text text-anchor="middle" x="397" y="-88.9769" font-family="Times,serif" font-size="18.00" fill="#ffffff">si nous pouvons contrôler le</text>
<text text-anchor="middle" x="397" y="-67.3769" font-family="Times,serif" font-size="18.00" fill="#ffffff">développement de la technique</text>
</g>
<!-- p2&#45;&gt;C -->
<g id="remarques+objections_edge2" class="edge">
<title>p2-&gt;C</title>
<path fill="none" stroke="#000000" d="M395.582,-226.8571C394.5406,-199.7334 393.8942,-180.9938 393.6429,-166.439"/>
<polygon fill="#000000" stroke="#000000" points="397.1385,-166.0156 393.5278,-156.0551 390.139,-166.0933 397.1385,-166.0156"/>
<text text-anchor="middle" x="365.2141" y="-206.4721" font-family="Times,serif" font-size="10.00" fill="#666666">par</text>
<text text-anchor="middle" x="365.2141" y="-194.4721" font-family="Times,serif" font-size="10.00" fill="#666666">conséquent …</text>
</g>
<!-- r1 -->
<g id="remarques+objections_node13_remarques+objections" class="node">
<title>r1</title>
<polygon fill="#ffffff" stroke="#0000ff" points="828.2128,-317.4539 609.7872,-317.4539 609.7872,-208.8536 828.2128,-208.8536 828.2128,-317.4539"/>
<text text-anchor="middle" x="719" y="-300.9537" font-family="Times,serif" font-size="14.00" fill="#000000">Cette thèse s'oppose à la conception</text>
<text text-anchor="middle" x="719" y="-284.1537" font-family="Times,serif" font-size="14.00" fill="#000000">instrumentale de la technique,</text>
<text text-anchor="middle" x="719" y="-267.3537" font-family="Times,serif" font-size="14.00" fill="#000000">selon laquelle la technique n'est</text>
<text text-anchor="middle" x="719" y="-250.5537" font-family="Times,serif" font-size="14.00" fill="#000000">qu'un instrument, un simple moyen</text>
<text text-anchor="middle" x="719" y="-233.7537" font-family="Times,serif" font-size="14.00" fill="#000000">que nous contrôlons au service de</text>
<text text-anchor="middle" x="719" y="-216.9537" font-family="Times,serif" font-size="14.00" fill="#000000">finalités que nous choisissons</text>
</g>
<!-- p2&#45;&gt;r1 -->
<g id="remarques+objections_edge14" class="edge">
<title>p2-&gt;r1</title>
<path fill="none" stroke="#0000ff" stroke-dasharray="5,2" d="M502.1959,-237.8409C550.9694,-227.1231 581.0559,-223.4659 609.5324,-226.8694"/>
</g>
<!-- p3 -->
<g id="remarques+objections_node6_remarques+objections" class="node">
<title>p3</title>
<path fill="#ffffff" stroke="#000000" d="M233.8462,-665.5537C233.8462,-665.5537 116.1538,-665.5537 116.1538,-665.5537 110.1538,-665.5537 104.1538,-659.5537 104.1538,-653.5537 104.1538,-653.5537 104.1538,-571.5537 104.1538,-571.5537 104.1538,-565.5537 110.1538,-559.5537 116.1538,-559.5537 116.1538,-559.5537 233.8462,-559.5537 233.8462,-559.5537 239.8462,-559.5537 245.8462,-565.5537 245.8462,-571.5537 245.8462,-571.5537 245.8462,-653.5537 245.8462,-653.5537 245.8462,-659.5537 239.8462,-665.5537 233.8462,-665.5537"/>
<text text-anchor="middle" x="175" y="-641.9537" font-family="Times,serif" font-size="14.00" fill="#000000">Inventer un nouvel</text>
<text text-anchor="middle" x="175" y="-625.1537" font-family="Times,serif" font-size="14.00" fill="#000000">objet technique, c'est</text>
<text text-anchor="middle" x="175" y="-608.3537" font-family="Times,serif" font-size="14.00" fill="#000000">aussi inventer une</text>
<text text-anchor="middle" x="175" y="-591.5537" font-family="Times,serif" font-size="14.00" fill="#000000">nouvelle possibilité</text>
<text text-anchor="middle" x="175" y="-574.7537" font-family="Times,serif" font-size="14.00" fill="#000000">d'accidents</text>
</g>
<!-- p3&#45;&gt;PL1 -->
<!-- p4 -->
<g id="remarques+objections_node7_remarques+objections" class="node">
<title>p4</title>
<path fill="#ffffff" stroke="#000000" d="M402.1841,-665.5537C402.1841,-665.5537 275.8159,-665.5537 275.8159,-665.5537 269.8159,-665.5537 263.8159,-659.5537 263.8159,-653.5537 263.8159,-653.5537 263.8159,-571.5537 263.8159,-571.5537 263.8159,-565.5537 269.8159,-559.5537 275.8159,-559.5537 275.8159,-559.5537 402.1841,-559.5537 402.1841,-559.5537 408.1841,-559.5537 414.1841,-565.5537 414.1841,-571.5537 414.1841,-571.5537 414.1841,-653.5537 414.1841,-653.5537 414.1841,-659.5537 408.1841,-665.5537 402.1841,-665.5537"/>
<text text-anchor="middle" x="339" y="-641.9537" font-family="Times,serif" font-size="14.00" fill="#000000">Afin de réduire la</text>
<text text-anchor="middle" x="339" y="-625.1537" font-family="Times,serif" font-size="14.00" fill="#000000">probabilité de ces</text>
<text text-anchor="middle" x="339" y="-608.3537" font-family="Times,serif" font-size="14.00" fill="#000000">accidents, nous faisons</text>
<text text-anchor="middle" x="339" y="-591.5537" font-family="Times,serif" font-size="14.00" fill="#000000">généralement appel à</text>
<text text-anchor="middle" x="339" y="-574.7537" font-family="Times,serif" font-size="14.00" fill="#000000">plus de technique</text>
</g>
<!-- p3&#45;&gt;p4 -->
<!-- p4&#45;&gt;PL1 -->
<!-- p5 -->
<g id="remarques+objections_node8_remarques+objections" class="node">
<title>p5</title>
<path fill="#ffffff" stroke="#000000" d="M596.4776,-665.5537C596.4776,-665.5537 479.5224,-665.5537 479.5224,-665.5537 473.5224,-665.5537 467.5224,-659.5537 467.5224,-653.5537 467.5224,-653.5537 467.5224,-571.5537 467.5224,-571.5537 467.5224,-565.5537 473.5224,-559.5537 479.5224,-559.5537 479.5224,-559.5537 596.4776,-559.5537 596.4776,-559.5537 602.4776,-559.5537 608.4776,-565.5537 608.4776,-571.5537 608.4776,-571.5537 608.4776,-653.5537 608.4776,-653.5537 608.4776,-659.5537 602.4776,-665.5537 596.4776,-665.5537"/>
<text text-anchor="middle" x="538" y="-641.9537" font-family="Times,serif" font-size="14.00" fill="#000000">Un objet technique</text>
<text text-anchor="middle" x="538" y="-625.1537" font-family="Times,serif" font-size="14.00" fill="#000000">n'existe jamais tout</text>
<text text-anchor="middle" x="538" y="-608.3537" font-family="Times,serif" font-size="14.00" fill="#000000">seul : il s'inscrit dans</text>
<text text-anchor="middle" x="538" y="-591.5537" font-family="Times,serif" font-size="14.00" fill="#000000">un réseau d'objets</text>
<text text-anchor="middle" x="538" y="-574.7537" font-family="Times,serif" font-size="14.00" fill="#000000">techniques</text>
</g>
<!-- p4&#45;&gt;p5 -->
<!-- p5&#45;&gt;p1 -->
<g id="remarques+objections_edge6" class="edge">
<title>p5-&gt;p1</title>
<path fill="none" stroke="#000000" d="M515.5245,-559.406C506.1102,-538.9508 494.2168,-515.8408 469.4315,-468.8851"/>
<polygon fill="#000000" stroke="#000000" points="472.4166,-467.0427 464.6512,-459.8352 466.227,-470.3122 472.4166,-467.0427"/>
<text text-anchor="middle" x="461.5558" y="-524.3276" font-family="Times,serif" font-size="10.00" fill="#666666">par</text>
<text text-anchor="middle" x="461.5558" y="-512.3276" font-family="Times,serif" font-size="10.00" fill="#666666">conséquent …</text>
</g>
<!-- p7 -->
<g id="remarques+objections_node9_remarques+objections" class="node">
<title>p7</title>
<path fill="#ffffff" stroke="#000000" d="M815.8319,-665.5537C815.8319,-665.5537 674.1681,-665.5537 674.1681,-665.5537 668.1681,-665.5537 662.1681,-659.5537 662.1681,-653.5537 662.1681,-653.5537 662.1681,-571.5537 662.1681,-571.5537 662.1681,-565.5537 668.1681,-559.5537 674.1681,-559.5537 674.1681,-559.5537 815.8319,-559.5537 815.8319,-559.5537 821.8319,-559.5537 827.8319,-565.5537 827.8319,-571.5537 827.8319,-571.5537 827.8319,-653.5537 827.8319,-653.5537 827.8319,-659.5537 821.8319,-665.5537 815.8319,-665.5537"/>
<text text-anchor="middle" x="745" y="-641.9537" font-family="Times,serif" font-size="14.00" fill="#000000">Nous avons tendance</text>
<text text-anchor="middle" x="745" y="-625.1537" font-family="Times,serif" font-size="14.00" fill="#000000">à penser que s'il y a un</text>
<text text-anchor="middle" x="745" y="-608.3537" font-family="Times,serif" font-size="14.00" fill="#000000">problème, alors il doit</text>
<text text-anchor="middle" x="745" y="-591.5537" font-family="Times,serif" font-size="14.00" fill="#000000">y avoir une solution</text>
<text text-anchor="middle" x="745" y="-574.7537" font-family="Times,serif" font-size="14.00" fill="#000000">technique à ce problème</text>
</g>
<!-- p5&#45;&gt;p7 -->
<!-- p7&#45;&gt;p1 -->
<g id="remarques+objections_edge11" class="edge">
<title>p7-&gt;p1</title>
<path fill="none" stroke="#000000" d="M668.1757,-559.43C636.4239,-538.1952 599.3861,-514.6534 520.9378,-465.3475"/>
<polygon fill="#000000" stroke="#000000" points="522.5251,-462.2113 512.1958,-459.854 518.8006,-468.1382 522.5251,-462.2113"/>
<text text-anchor="middle" x="561.4335" y="-500.2147" font-family="Times,serif" font-size="10.00" fill="#666666">par</text>
<text text-anchor="middle" x="561.4335" y="-488.2147" font-family="Times,serif" font-size="10.00" fill="#666666">conséquent …</text>
</g>
<!-- p6 -->
<g id="remarques+objections_node10_remarques+objections" class="node">
<title>p6</title>
<path fill="#ffffff" stroke="#000000" d="M816.404,-807.854C816.404,-807.854 613.596,-807.854 613.596,-807.854 607.596,-807.854 601.596,-801.854 601.596,-795.854 601.596,-795.854 601.596,-730.4535 601.596,-730.4535 601.596,-724.4535 607.596,-718.4535 613.596,-718.4535 613.596,-718.4535 816.404,-718.4535 816.404,-718.4535 822.404,-718.4535 828.404,-724.4535 828.404,-730.4535 828.404,-730.4535 828.404,-795.854 828.404,-795.854 828.404,-801.854 822.404,-807.854 816.404,-807.854"/>
<text text-anchor="middle" x="715" y="-784.1537" font-family="Times,serif" font-size="14.00" fill="#000000">La technologie contemporaine</text>
<text text-anchor="middle" x="715" y="-767.3537" font-family="Times,serif" font-size="14.00" fill="#000000">a généré un univers technique</text>
<text text-anchor="middle" x="715" y="-750.5537" font-family="Times,serif" font-size="14.00" fill="#000000">qui nous fait croire au solutionnisme</text>
<text text-anchor="middle" x="715" y="-733.7537" font-family="Times,serif" font-size="14.00" fill="#000000">technologique</text>
</g>
<!-- p6&#45;&gt;p7 -->
<g id="remarques+objections_edge10" class="edge">
<title>p6-&gt;p7</title>
<path fill="none" stroke="#000000" d="M742.5735,-718.2855C747.6225,-706.1718 749.3987,-694.1451 749.1595,-675.8939"/>
<polygon fill="#000000" stroke="#000000" points="752.6536,-675.6402 748.8574,-665.7488 745.6567,-675.8486 752.6536,-675.6402"/>
<text text-anchor="middle" x="719.6126" y="-707.0724" font-family="Times,serif" font-size="10.00" fill="#666666">par</text>
<text text-anchor="middle" x="719.6126" y="-695.0724" font-family="Times,serif" font-size="10.00" fill="#666666">conséquent …</text>
</g>
</g>
</svg>
