<?xml version="1.0" encoding="UTF-8" standalone="no"?><!DOCTYPE svg PUBLIC "-//W3C//DTD SVG 1.1//EN" "http://www.w3.org/Graphics/SVG/1.1/DTD/svg11.dtd"><!-- Generated by graphviz version 2.40.1 (20161225.0304)
 --><!-- Title: G Pages: 1 --><svg xmlns="http://www.w3.org/2000/svg" xmlns:xlink="http://www.w3.org/1999/xlink" width="642pt" height="469pt" viewBox="0.00 0.00 642.00 468.61">
<g id="remarques+objections_graph0" class="graph" transform="scale(1 1) rotate(0) translate(4 464.6067)">
<title>G</title>
<polygon fill="#ffffff" stroke="transparent" points="-4,4 -4,-464.6067 638,-464.6067 638,4 -4,4"/>
<g id="remarques+objections_clust1" class="cluster">
<title>cluster_0</title>
<path fill="#e5e5e5" stroke="#7f7f7f" d="M91,-8C91,-8 614,-8 614,-8 620,-8 626,-14 626,-20 626,-20 626,-440.6067 626,-440.6067 626,-446.6067 620,-452.6067 614,-452.6067 614,-452.6067 91,-452.6067 91,-452.6067 85,-452.6067 79,-446.6067 79,-440.6067 79,-440.6067 79,-20 79,-20 79,-14 85,-8 91,-8"/>
</g>
<!-- 0 -->
<!-- PL1 -->
<g id="remarques+objections_node2_remarques+objections" class="node">
<title>PL1</title>
<polygon fill="#e0e0e0" stroke="transparent" points="472,-179.2067 184,-179.2067 184,-178.2067 472,-178.2067 472,-179.2067"/>
<polyline fill="none" stroke="#000000" points="184,-178.2067 472,-178.2067 "/>
</g>
<!-- C -->
<g id="remarques+objections_node6_remarques+objections" class="node">
<title>C</title>
<ellipse fill="#000000" stroke="#000000" cx="328" cy="-79.1034" rx="118.0883" ry="46.207"/>
<text text-anchor="middle" x="328" y="-84.5034" font-family="Times,serif" font-size="18.00" fill="#ffffff">Il est possible de</text>
<text text-anchor="middle" x="328" y="-62.9034" font-family="Times,serif" font-size="18.00" fill="#ffffff">parvenir au bonheur</text>
</g>
<!-- PL1&#45;&gt;C -->
<g id="remarques+objections_edge3" class="edge">
<title>PL1-&gt;C</title>
<path fill="none" stroke="#000000" d="M328.0251,-177.8942C328.5916,-159.541 329.0063,-146.0758 329.2693,-135.6295"/>
<polygon fill="#000000" stroke="#000000" points="332.7737,-135.4653 329.4952,-125.3905 325.7754,-135.3109 332.7737,-135.4653"/>
<text text-anchor="middle" x="299.7313" y="-166.8634" font-family="Times,serif" font-size="10.00" fill="#666666">par</text>
<text text-anchor="middle" x="299.7313" y="-154.8634" font-family="Times,serif" font-size="10.00" fill="#666666">conséquent …</text>
</g>
<!-- PL2 -->
<g id="remarques+objections_node3_remarques+objections" class="node">
<title>PL2</title>
<polygon fill="#e0e0e0" stroke="transparent" points="601,-296.8067 169,-296.8067 169,-295.8067 601,-295.8067 601,-296.8067"/>
<polyline fill="none" stroke="#000000" points="169,-295.8067 601,-295.8067 "/>
</g>
<!-- p2 -->
<g id="remarques+objections_node5_remarques+objections" class="node">
<title>p2</title>
<path fill="#ffffff" stroke="#000000" d="M482.0029,-242.6082C482.0029,-242.6082 335.9971,-242.6082 335.9971,-242.6082 329.9971,-242.6082 323.9971,-236.6082 323.9971,-230.6082 323.9971,-230.6082 323.9971,-199.4053 323.9971,-199.4053 323.9971,-193.4053 329.9971,-187.4053 335.9971,-187.4053 335.9971,-187.4053 482.0029,-187.4053 482.0029,-187.4053 488.0029,-187.4053 494.0029,-193.4053 494.0029,-199.4053 494.0029,-199.4053 494.0029,-230.6082 494.0029,-230.6082 494.0029,-236.6082 488.0029,-242.6082 482.0029,-242.6082"/>
<text text-anchor="middle" x="409" y="-219.2067" font-family="Times,serif" font-size="14.00" fill="#000000">Il est possible de retrouver</text>
<text text-anchor="middle" x="409" y="-202.4067" font-family="Times,serif" font-size="14.00" fill="#000000">le simple plaisir d'exister</text>
<text text-anchor="middle" x="320.2489" y="-247.0067" font-family="Times,serif" font-size="14.00" fill="#000000">5</text>
</g>
<!-- PL2&#45;&gt;p2 -->
<g id="remarques+objections_edge10" class="edge">
<title>PL2-&gt;p2</title>
<path fill="none" stroke="#000000" d="M385.6549,-295.4805C402.1547,-274.6628 408.7454,-266.2049 410.4868,-252.9672"/>
<polygon fill="#000000" stroke="#000000" points="413.9899,-252.9865 410.9798,-242.8283 406.9982,-252.6465 413.9899,-252.9865"/>
<text text-anchor="middle" x="374.61" y="-286.2322" font-family="Times,serif" font-size="10.00" fill="#666666">par</text>
<text text-anchor="middle" x="374.61" y="-274.2322" font-family="Times,serif" font-size="10.00" fill="#666666">conséquent …</text>
</g>
<!-- p1 -->
<g id="remarques+objections_node4_remarques+objections" class="node">
<title>p1</title>
<path fill="#ffffff" stroke="#000000" d="M293.7043,-242.6082C293.7043,-242.6082 116.2957,-242.6082 116.2957,-242.6082 110.2957,-242.6082 104.2957,-236.6082 104.2957,-230.6082 104.2957,-230.6082 104.2957,-199.4053 104.2957,-199.4053 104.2957,-193.4053 110.2957,-187.4053 116.2957,-187.4053 116.2957,-187.4053 293.7043,-187.4053 293.7043,-187.4053 299.7043,-187.4053 305.7043,-193.4053 305.7043,-199.4053 305.7043,-199.4053 305.7043,-230.6082 305.7043,-230.6082 305.7043,-236.6082 299.7043,-242.6082 293.7043,-242.6082"/>
<text text-anchor="middle" x="205" y="-219.2067" font-family="Times,serif" font-size="14.00" fill="#000000">Le bonheur consiste à retrouver</text>
<text text-anchor="middle" x="205" y="-202.4067" font-family="Times,serif" font-size="14.00" fill="#000000">le simple plaisir d'exister</text>
<text text-anchor="middle" x="100.8979" y="-247.0067" font-family="Times,serif" font-size="14.00" fill="#000000">4</text>
</g>
<!-- p1&#45;&gt;PL1 -->
<!-- p1&#45;&gt;p2 -->
<!-- p2&#45;&gt;PL1 -->
<!-- p4 -->
<g id="remarques+objections_node7_remarques+objections" class="node">
<title>p4</title>
<path fill="#ffffff" stroke="#000000" d="M259.7933,-427.5069C259.7933,-427.5069 116.2067,-427.5069 116.2067,-427.5069 110.2067,-427.5069 104.2067,-421.5069 104.2067,-415.5069 104.2067,-415.5069 104.2067,-316.9066 104.2067,-316.9066 104.2067,-310.9066 110.2067,-304.9066 116.2067,-304.9066 116.2067,-304.9066 259.7933,-304.9066 259.7933,-304.9066 265.7933,-304.9066 271.7933,-310.9066 271.7933,-316.9066 271.7933,-316.9066 271.7933,-415.5069 271.7933,-415.5069 271.7933,-421.5069 265.7933,-427.5069 259.7933,-427.5069"/>
<text text-anchor="middle" x="188" y="-404.0067" font-family="Times,serif" font-size="14.00" fill="#000000">Pour retrouver le simple</text>
<text text-anchor="middle" x="188" y="-387.2067" font-family="Times,serif" font-size="14.00" fill="#000000">plaisir d'exister, il faut</text>
<text text-anchor="middle" x="188" y="-370.4067" font-family="Times,serif" font-size="14.00" fill="#000000">supprimer les croyances</text>
<text text-anchor="middle" x="188" y="-353.6067" font-family="Times,serif" font-size="14.00" fill="#000000">fausses et les désirs vains</text>
<text text-anchor="middle" x="188" y="-336.8067" font-family="Times,serif" font-size="14.00" fill="#000000">qui peuvent troubler notre</text>
<text text-anchor="middle" x="188" y="-320.0067" font-family="Times,serif" font-size="14.00" fill="#000000">corps et notre âme</text>
<text text-anchor="middle" x="100.6034" y="-431.8067" font-family="Times,serif" font-size="14.00" fill="#000000">1</text>
</g>
<!-- p4&#45;&gt;PL2 -->
<!-- p5 -->
<g id="remarques+objections_node8_remarques+objections" class="node">
<title>p5</title>
<path fill="#ffffff" stroke="#000000" d="M452.6813,-419.2067C452.6813,-419.2067 319.3187,-419.2067 319.3187,-419.2067 313.3187,-419.2067 307.3187,-413.2067 307.3187,-407.2067 307.3187,-407.2067 307.3187,-325.2067 307.3187,-325.2067 307.3187,-319.2067 313.3187,-313.2067 319.3187,-313.2067 319.3187,-313.2067 452.6813,-313.2067 452.6813,-313.2067 458.6813,-313.2067 464.6813,-319.2067 464.6813,-325.2067 464.6813,-325.2067 464.6813,-407.2067 464.6813,-407.2067 464.6813,-413.2067 458.6813,-419.2067 452.6813,-419.2067"/>
<text text-anchor="middle" x="386" y="-395.6067" font-family="Times,serif" font-size="14.00" fill="#000000">Pour retrouver le simple</text>
<text text-anchor="middle" x="386" y="-378.8067" font-family="Times,serif" font-size="14.00" fill="#000000">plaisir d'exister, il ne</text>
<text text-anchor="middle" x="386" y="-362.0067" font-family="Times,serif" font-size="14.00" fill="#000000">faut pas supprimer les</text>
<text text-anchor="middle" x="386" y="-345.2067" font-family="Times,serif" font-size="14.00" fill="#000000">plaisirs, mais pratiquer</text>
<text text-anchor="middle" x="386" y="-328.4067" font-family="Times,serif" font-size="14.00" fill="#000000">la mesure des plaisirs</text>
<text text-anchor="middle" x="303.6595" y="-423.4067" font-family="Times,serif" font-size="14.00" fill="#000000">2</text>
</g>
<!-- p4&#45;&gt;p5 -->
<!-- p5&#45;&gt;PL2 -->
<!-- p6 -->
<g id="remarques+objections_node9_remarques+objections" class="node">
<title>p6</title>
<path fill="#ffffff" stroke="#000000" d="M589.4362,-402.6078C589.4362,-402.6078 512.5638,-402.6078 512.5638,-402.6078 506.5638,-402.6078 500.5638,-396.6078 500.5638,-390.6078 500.5638,-390.6078 500.5638,-341.8056 500.5638,-341.8056 500.5638,-335.8056 506.5638,-329.8056 512.5638,-329.8056 512.5638,-329.8056 589.4362,-329.8056 589.4362,-329.8056 595.4362,-329.8056 601.4362,-335.8056 601.4362,-341.8056 601.4362,-341.8056 601.4362,-390.6078 601.4362,-390.6078 601.4362,-396.6078 595.4362,-402.6078 589.4362,-402.6078"/>
<text text-anchor="middle" x="551" y="-378.8067" font-family="Times,serif" font-size="14.00" fill="#000000">Nous sommes</text>
<text text-anchor="middle" x="551" y="-362.0067" font-family="Times,serif" font-size="14.00" fill="#000000">capables de</text>
<text text-anchor="middle" x="551" y="-345.2067" font-family="Times,serif" font-size="14.00" fill="#000000">faire tout cela</text>
<text text-anchor="middle" x="497.0319" y="-406.6067" font-family="Times,serif" font-size="14.00" fill="#000000">3</text>
</g>
<!-- p5&#45;&gt;p6 -->
<!-- p6&#45;&gt;PL2 -->
</g>
</svg>