<?xml version="1.0" encoding="UTF-8" standalone="no"?><!DOCTYPE svg PUBLIC "-//W3C//DTD SVG 1.1//EN" "http://www.w3.org/Graphics/SVG/1.1/DTD/svg11.dtd"><!-- Generated by graphviz version 2.40.1 (20161225.0304)
 --><!-- Title: G Pages: 1 --><svg xmlns="http://www.w3.org/2000/svg" xmlns:xlink="http://www.w3.org/1999/xlink" width="492pt" height="359pt" viewBox="0.00 0.00 492.34 359.46">
<g id="remarques+objections_graph0" class="graph" transform="scale(1 1) rotate(0) translate(21.6 337.8597)">
<title>G</title>
<polygon fill="#ffffff" stroke="transparent" points="-21.6,21.6 -21.6,-337.8597 470.7376,-337.8597 470.7376,21.6 -21.6,21.6"/>
<text text-anchor="start" x="83.5198" y="-295.2597" font-family="Times,serif" font-weight="bold" font-size="20.00" fill="#000000">Forme générale d'un raisonnement</text>
<text text-anchor="start" x="218.7398" y="-275.2597" font-family="Times,serif" font-size="20.00" fill="#000000"> </text>
<g id="remarques+objections_clust2" class="cluster">
<title>cluster_0</title>
<path fill="#e5e5e5" stroke="#7f7f7f" d="M93.1376,-8C93.1376,-8 429.1376,-8 429.1376,-8 435.1376,-8 441.1376,-14 441.1376,-20 441.1376,-20 441.1376,-248.2597 441.1376,-248.2597 441.1376,-254.2597 435.1376,-260.2597 429.1376,-260.2597 429.1376,-260.2597 93.1376,-260.2597 93.1376,-260.2597 87.1376,-260.2597 81.1376,-254.2597 81.1376,-248.2597 81.1376,-248.2597 81.1376,-20 81.1376,-20 81.1376,-14 87.1376,-8 93.1376,-8"/>
</g>
<!-- r1 -->
<g id="remarques+objections_node1_remarques+objections" class="node">
<title>r1</title>
<polygon fill="#ffffff" stroke="transparent" stroke-width=".8" points="56.4135,-183.6597 -.1383,-183.6597 -.1383,-147.6597 56.4135,-147.6597 56.4135,-183.6597"/>
<text text-anchor="middle" x="28.1376" y="-162.3597" font-family="Times,serif" font-size="11.00" fill="#00008b">Inférence</text>
</g>
<!-- vide1 -->
<!-- r1&#45;&gt;vide1 -->
<g id="remarques+objections_edge1" class="edge">
<title>r1-&gt;vide1:w</title>
<path fill="none" stroke="#00008b" stroke-width=".8" d="M56.591,-167.9551C64.9528,-167.9151 76.2023,-167.3394 96.0423,-166.228"/>
<polygon fill="#00008b" stroke="#00008b" stroke-width=".8" points="96.3502,-169.7163 106.1376,-165.6597 95.9567,-162.7274 96.3502,-169.7163"/>
</g>
<!-- PL1 -->
<g id="remarques+objections_node3_remarques+objections" class="node">
<title>PL1</title>
<polygon fill="#e0e0e0" stroke="transparent" points="416.1376,-166.1597 128.1376,-166.1597 128.1376,-165.1597 416.1376,-165.1597 416.1376,-166.1597"/>
<polyline fill="none" stroke="#000000" points="128.1376,-165.1597 416.1376,-165.1597 "/>
</g>
<!-- vide1&#45;&gt;PL1 -->
<!-- C -->
<g id="remarques+objections_node7_remarques+objections" class="node">
<title>C</title>
<ellipse fill="#000000" stroke="#000000" cx="272.1376" cy="-63.8299" rx="73.5768" ry="30.6606"/>
<text text-anchor="middle" x="272.1376" y="-58.4299" font-family="Times,serif" font-size="18.00" fill="#ffffff">Conclusion</text>
</g>
<!-- PL1&#45;&gt;C -->
<g id="remarques+objections_edge5" class="edge">
<title>PL1-&gt;C</title>
<path fill="none" stroke="#000000" d="M272.3578,-164.9757C282.7282,-132.7524 287.3062,-118.405 286.0917,-104.6012"/>
<polygon fill="#000000" stroke="#000000" points="289.4622,-103.5842 284.1836,-94.398 282.5815,-104.871 289.4622,-103.5842"/>
<text text-anchor="middle" x="254.4955" y="-142.8265" font-family="Times,serif" font-size="10.00" fill="#666666">par</text>
<text text-anchor="middle" x="254.4955" y="-130.8265" font-family="Times,serif" font-size="10.00" fill="#666666">conséquent …</text>
</g>
<!-- p1 -->
<g id="remarques+objections_node4_remarques+objections" class="node">
<title>p1</title>
<path fill="#ffffff" stroke="#000000" d="M195.8618,-235.0615C195.8618,-235.0615 118.4134,-235.0615 118.4134,-235.0615 112.4134,-235.0615 106.4134,-229.0615 106.4134,-223.0615 106.4134,-223.0615 106.4134,-203.8579 106.4134,-203.8579 106.4134,-197.8579 112.4134,-191.8579 118.4134,-191.8579 118.4134,-191.8579 195.8618,-191.8579 195.8618,-191.8579 201.8618,-191.8579 207.8618,-197.8579 207.8618,-203.8579 207.8618,-203.8579 207.8618,-223.0615 207.8618,-223.0615 207.8618,-229.0615 201.8618,-235.0615 195.8618,-235.0615"/>
<text text-anchor="middle" x="157.1376" y="-208.0597" font-family="Times,serif" font-size="18.00" fill="#000000">Prémisse 1</text>
</g>
<!-- p1&#45;&gt;PL1 -->
<!-- p2 -->
<g id="remarques+objections_node5_remarques+objections" class="node">
<title>p2</title>
<path fill="#ffffff" stroke="#000000" d="M315.8618,-235.0615C315.8618,-235.0615 238.4134,-235.0615 238.4134,-235.0615 232.4134,-235.0615 226.4134,-229.0615 226.4134,-223.0615 226.4134,-223.0615 226.4134,-203.8579 226.4134,-203.8579 226.4134,-197.8579 232.4134,-191.8579 238.4134,-191.8579 238.4134,-191.8579 315.8618,-191.8579 315.8618,-191.8579 321.8618,-191.8579 327.8618,-197.8579 327.8618,-203.8579 327.8618,-203.8579 327.8618,-223.0615 327.8618,-223.0615 327.8618,-229.0615 321.8618,-235.0615 315.8618,-235.0615"/>
<text text-anchor="middle" x="277.1376" y="-208.0597" font-family="Times,serif" font-size="18.00" fill="#000000">Prémisse 2</text>
</g>
<!-- p1&#45;&gt;p2 -->
<!-- p2&#45;&gt;PL1 -->
<!-- p3 -->
<g id="remarques+objections_node6_remarques+objections" class="node">
<title>p3</title>
<path fill="#ffffff" stroke="#000000" d="M388.1376,-235.0615C388.1376,-235.0615 358.1376,-235.0615 358.1376,-235.0615 352.1376,-235.0615 346.1376,-229.0615 346.1376,-223.0615 346.1376,-223.0615 346.1376,-203.8579 346.1376,-203.8579 346.1376,-197.8579 352.1376,-191.8579 358.1376,-191.8579 358.1376,-191.8579 388.1376,-191.8579 388.1376,-191.8579 394.1376,-191.8579 400.1376,-197.8579 400.1376,-203.8579 400.1376,-203.8579 400.1376,-223.0615 400.1376,-223.0615 400.1376,-229.0615 394.1376,-235.0615 388.1376,-235.0615"/>
<text text-anchor="middle" x="373.1376" y="-208.0597" font-family="Times,serif" font-size="18.00" fill="#000000">…</text>
</g>
<!-- p2&#45;&gt;p3 -->
<!-- p3&#45;&gt;PL1 -->
</g>
</svg>