<?xml version="1.0" encoding="UTF-8" standalone="no"?><!DOCTYPE svg PUBLIC "-//W3C//DTD SVG 1.1//EN" "http://www.w3.org/Graphics/SVG/1.1/DTD/svg11.dtd"><!-- Generated by graphviz version 2.40.1 (20161225.0304)
 --><!-- Title: G Pages: 1 --><svg xmlns="http://www.w3.org/2000/svg" xmlns:xlink="http://www.w3.org/1999/xlink" width="877pt" height="903pt" viewBox="0.00 0.00 877.00 903.01">
<g id="remarques+objections_graph0" class="graph" transform="scale(1 1) rotate(0) translate(4 899.0067)">
<title>G</title>
<polygon fill="#ffffff" stroke="transparent" points="-4,4 -4,-899.0067 873,-899.0067 873,4 -4,4"/>
<g id="remarques+objections_clust1" class="cluster">
<title>cluster_0</title>
<path fill="#e5e5e5" stroke="#7f7f7f" d="M91,-8C91,-8 849,-8 849,-8 855,-8 861,-14 861,-20 861,-20 861,-875.0067 861,-875.0067 861,-881.0067 855,-887.0067 849,-887.0067 849,-887.0067 91,-887.0067 91,-887.0067 85,-887.0067 79,-881.0067 79,-875.0067 79,-875.0067 79,-20 79,-20 79,-14 85,-8 91,-8"/>
</g>
<!-- 0 -->
<!-- PL1 -->
<g id="remarques+objections_node2_remarques+objections" class="node">
<title>PL1</title>
<polygon fill="#e0e0e0" stroke="transparent" points="664,-304.6067 304,-304.6067 304,-303.6067 664,-303.6067 664,-304.6067"/>
<polyline fill="none" stroke="#000000" points="304,-303.6067 664,-303.6067 "/>
</g>
<!-- p4 -->
<g id="remarques+objections_node6_remarques+objections" class="node">
<title>p4</title>
<path fill="#ffffff" stroke="#000000" d="M541.9186,-250.8078C541.9186,-250.8078 426.0814,-250.8078 426.0814,-250.8078 420.0814,-250.8078 414.0814,-244.8078 414.0814,-238.8078 414.0814,-238.8078 414.0814,-190.0056 414.0814,-190.0056 414.0814,-184.0056 420.0814,-178.0056 426.0814,-178.0056 426.0814,-178.0056 541.9186,-178.0056 541.9186,-178.0056 547.9186,-178.0056 553.9186,-184.0056 553.9186,-190.0056 553.9186,-190.0056 553.9186,-238.8078 553.9186,-238.8078 553.9186,-244.8078 547.9186,-250.8078 541.9186,-250.8078"/>
<text text-anchor="middle" x="484" y="-227.0067" font-family="Times,serif" font-size="14.00" fill="#000000">On ne voit pas</text>
<text text-anchor="middle" x="484" y="-210.2067" font-family="Times,serif" font-size="14.00" fill="#000000">comment on pourrait</text>
<text text-anchor="middle" x="484" y="-193.4067" font-family="Times,serif" font-size="14.00" fill="#000000">atteindre le bonheur</text>
</g>
<!-- PL1&#45;&gt;p4 -->
<g id="remarques+objections_edge6" class="edge">
<title>PL1-&gt;p4</title>
<path fill="none" stroke="#000000" d="M484.0533,-303.3807C485.4585,-284.2224 486.424,-271.0243 486.9499,-261.1031"/>
<polygon fill="#000000" stroke="#000000" points="490.4595,-260.9339 487.3653,-250.8009 483.4652,-260.6518 490.4595,-260.9339"/>
<text text-anchor="middle" x="456.8772" y="-291.8578" font-family="Times,serif" font-size="10.00" fill="#666666">par</text>
<text text-anchor="middle" x="456.8772" y="-279.8578" font-family="Times,serif" font-size="10.00" fill="#666666">conséquent …</text>
</g>
<!-- p1 -->
<g id="remarques+objections_node3_remarques+objections" class="node">
<title>p1</title>
<path fill="#ffffff" stroke="#000000" d="M389.9713,-401.9069C389.9713,-401.9069 248.0287,-401.9069 248.0287,-401.9069 242.0287,-401.9069 236.0287,-395.9069 236.0287,-389.9069 236.0287,-389.9069 236.0287,-324.5065 236.0287,-324.5065 236.0287,-318.5065 242.0287,-312.5065 248.0287,-312.5065 248.0287,-312.5065 389.9713,-312.5065 389.9713,-312.5065 395.9713,-312.5065 401.9713,-318.5065 401.9713,-324.5065 401.9713,-324.5065 401.9713,-389.9069 401.9713,-389.9069 401.9713,-395.9069 395.9713,-401.9069 389.9713,-401.9069"/>
<text text-anchor="middle" x="319" y="-378.2067" font-family="Times,serif" font-size="14.00" fill="#000000">Pour pouvoir atteindre un</text>
<text text-anchor="middle" x="319" y="-361.4067" font-family="Times,serif" font-size="14.00" fill="#000000">objectif, il faut pouvoir</text>
<text text-anchor="middle" x="319" y="-344.6067" font-family="Times,serif" font-size="14.00" fill="#000000">définir cet objectif et</text>
<text text-anchor="middle" x="319" y="-327.8067" font-family="Times,serif" font-size="14.00" fill="#000000">la manière d'y parvenir</text>
</g>
<!-- p1&#45;&gt;PL1 -->
<!-- p2 -->
<g id="remarques+objections_node4_remarques+objections" class="node">
<title>p2</title>
<path fill="#ffffff" stroke="#000000" d="M536.9733,-401.9069C536.9733,-401.9069 431.0267,-401.9069 431.0267,-401.9069 425.0267,-401.9069 419.0267,-395.9069 419.0267,-389.9069 419.0267,-389.9069 419.0267,-324.5065 419.0267,-324.5065 419.0267,-318.5065 425.0267,-312.5065 431.0267,-312.5065 431.0267,-312.5065 536.9733,-312.5065 536.9733,-312.5065 542.9733,-312.5065 548.9733,-318.5065 548.9733,-324.5065 548.9733,-324.5065 548.9733,-389.9069 548.9733,-389.9069 548.9733,-395.9069 542.9733,-401.9069 536.9733,-401.9069"/>
<text text-anchor="middle" x="484" y="-378.2067" font-family="Times,serif" font-size="14.00" fill="#000000">On ne peut pas</text>
<text text-anchor="middle" x="484" y="-361.4067" font-family="Times,serif" font-size="14.00" fill="#000000">vraiment définir ce</text>
<text text-anchor="middle" x="484" y="-344.6067" font-family="Times,serif" font-size="14.00" fill="#000000">qu'est l'objectif</text>
<text text-anchor="middle" x="484" y="-327.8067" font-family="Times,serif" font-size="14.00" fill="#000000">du bonheur</text>
</g>
<!-- p1&#45;&gt;p2 -->
<!-- p2&#45;&gt;PL1 -->
<!-- p3 -->
<g id="remarques+objections_node5_remarques+objections" class="node">
<title>p3</title>
<path fill="#ffffff" stroke="#000000" d="M693.8877,-401.9069C693.8877,-401.9069 578.1123,-401.9069 578.1123,-401.9069 572.1123,-401.9069 566.1123,-395.9069 566.1123,-389.9069 566.1123,-389.9069 566.1123,-324.5065 566.1123,-324.5065 566.1123,-318.5065 572.1123,-312.5065 578.1123,-312.5065 578.1123,-312.5065 693.8877,-312.5065 693.8877,-312.5065 699.8877,-312.5065 705.8877,-318.5065 705.8877,-324.5065 705.8877,-324.5065 705.8877,-389.9069 705.8877,-389.9069 705.8877,-395.9069 699.8877,-401.9069 693.8877,-401.9069"/>
<text text-anchor="middle" x="636" y="-378.2067" font-family="Times,serif" font-size="14.00" fill="#000000">On ne peut pas</text>
<text text-anchor="middle" x="636" y="-361.4067" font-family="Times,serif" font-size="14.00" fill="#000000">vraiment définir la</text>
<text text-anchor="middle" x="636" y="-344.6067" font-family="Times,serif" font-size="14.00" fill="#000000">manière de parvenir</text>
<text text-anchor="middle" x="636" y="-327.8067" font-family="Times,serif" font-size="14.00" fill="#000000">au bonheur</text>
</g>
<!-- p2&#45;&gt;p3 -->
<!-- p3&#45;&gt;PL1 -->
<!-- C -->
<g id="remarques+objections_node7_remarques+objections" class="node">
<title>C</title>
<ellipse fill="#000000" stroke="#000000" cx="484" cy="-79.1034" rx="113.2089" ry="46.207"/>
<text text-anchor="middle" x="484" y="-84.5034" font-family="Times,serif" font-size="18.00" fill="#ffffff">Le bonheur semble</text>
<text text-anchor="middle" x="484" y="-62.9034" font-family="Times,serif" font-size="18.00" fill="#ffffff">être impossible</text>
</g>
<!-- p4&#45;&gt;C -->
<g id="remarques+objections_edge7" class="edge">
<title>p4-&gt;C</title>
<path fill="none" stroke="#000000" d="M485.6665,-178.1844C486.5057,-159.3583 487.0208,-146.0095 487.2117,-135.4282"/>
<polygon fill="#000000" stroke="#000000" points="490.7126,-135.3174 487.2934,-125.2895 483.7129,-135.261 490.7126,-135.3174"/>
<text text-anchor="middle" x="457.6655" y="-166.7689" font-family="Times,serif" font-size="10.00" fill="#666666">par</text>
<text text-anchor="middle" x="457.6655" y="-154.7689" font-family="Times,serif" font-size="10.00" fill="#666666">conséquent …</text>
</g>
<!-- p5 -->
<g id="remarques+objections_node8_remarques+objections" class="node">
<title>p5</title>
<path fill="#ffffff" stroke="#000000" d="M334.01,-586.0067C334.01,-586.0067 115.99,-586.0067 115.99,-586.0067 109.99,-586.0067 103.99,-580.0067 103.99,-574.0067 103.99,-574.0067 103.99,-492.0067 103.99,-492.0067 103.99,-486.0067 109.99,-480.0067 115.99,-480.0067 115.99,-480.0067 334.01,-480.0067 334.01,-480.0067 340.01,-480.0067 346.01,-486.0067 346.01,-492.0067 346.01,-492.0067 346.01,-574.0067 346.01,-574.0067 346.01,-580.0067 340.01,-586.0067 334.01,-586.0067"/>
<text text-anchor="middle" x="225" y="-562.4067" font-family="Times,serif" font-size="14.00" fill="#000000">Nous ne pouvons pas nous</text>
<text text-anchor="middle" x="225" y="-545.6067" font-family="Times,serif" font-size="14.00" fill="#000000">former un concept précis et clair</text>
<text text-anchor="middle" x="225" y="-528.8067" font-family="Times,serif" font-size="14.00" fill="#000000">du bonheur, nous ne pouvons nous</text>
<text text-anchor="middle" x="225" y="-512.0067" font-family="Times,serif" font-size="14.00" fill="#000000">faire qu'une image vague et confuse de</text>
<text text-anchor="middle" x="225" y="-495.2067" font-family="Times,serif" font-size="14.00" fill="#000000">ce que nous désirons véritablement</text>
</g>
<!-- p5&#45;&gt;p2 -->
<g id="remarques+objections_edge8" class="edge">
<title>p5-&gt;p2:n</title>
<path fill="none" stroke="#000000" d="M308.9254,-479.926C340.3758,-463.7917 384.7786,-444.6918 474.5852,-406.2378"/>
<polygon fill="#000000" stroke="#000000" points="476.1848,-409.3603 484,-402.2067 473.4296,-402.9253 476.1848,-409.3603"/>
<text text-anchor="middle" x="366.9323" y="-455.0151" font-family="Times,serif" font-size="10.00" fill="#666666">par</text>
<text text-anchor="middle" x="366.9323" y="-443.0151" font-family="Times,serif" font-size="10.00" fill="#666666">conséquent …</text>
</g>
<!-- p6 -->
<g id="remarques+objections_node9_remarques+objections" class="node">
<title>p6</title>
<path fill="#ffffff" stroke="#000000" d="M591.8778,-586.0067C591.8778,-586.0067 376.1222,-586.0067 376.1222,-586.0067 370.1222,-586.0067 364.1222,-580.0067 364.1222,-574.0067 364.1222,-574.0067 364.1222,-492.0067 364.1222,-492.0067 364.1222,-486.0067 370.1222,-480.0067 376.1222,-480.0067 376.1222,-480.0067 591.8778,-480.0067 591.8778,-480.0067 597.8778,-480.0067 603.8778,-486.0067 603.8778,-492.0067 603.8778,-492.0067 603.8778,-574.0067 603.8778,-574.0067 603.8778,-580.0067 597.8778,-586.0067 591.8778,-586.0067"/>
<text text-anchor="middle" x="484" y="-562.4067" font-family="Times,serif" font-size="14.00" fill="#000000">La représentation que nous nous</text>
<text text-anchor="middle" x="484" y="-545.6067" font-family="Times,serif" font-size="14.00" fill="#000000">faisons du bonheur est subjective et</text>
<text text-anchor="middle" x="484" y="-528.8067" font-family="Times,serif" font-size="14.00" fill="#000000">particulière : on ne peut pas prétendre</text>
<text text-anchor="middle" x="484" y="-512.0067" font-family="Times,serif" font-size="14.00" fill="#000000">parvenir à un savoir objectif et</text>
<text text-anchor="middle" x="484" y="-495.2067" font-family="Times,serif" font-size="14.00" fill="#000000">universel de ce qu'est le bonheur</text>
</g>
<!-- p5&#45;&gt;p6 -->
<!-- p6&#45;&gt;p2 -->
<g id="remarques+objections_edge9" class="edge">
<title>p6-&gt;p2</title>
<path fill="none" stroke="#000000" d="M503.7544,-479.8597C512.1847,-453.0759 512.5202,-436.8144 504.7608,-411.6207"/>
<polygon fill="#000000" stroke="#000000" points="508.0064,-410.2881 501.5359,-401.8987 501.3624,-412.4921 508.0064,-410.2881"/>
<text text-anchor="middle" x="481.1924" y="-455.6928" font-family="Times,serif" font-size="10.00" fill="#666666">par</text>
<text text-anchor="middle" x="481.1924" y="-443.6928" font-family="Times,serif" font-size="10.00" fill="#666666">conséquent …</text>
</g>
<!-- p7 -->
<g id="remarques+objections_node10_remarques+objections" class="node">
<title>p7</title>
<path fill="#ffffff" stroke="#000000" d="M823.7948,-611.4072C823.7948,-611.4072 634.2052,-611.4072 634.2052,-611.4072 628.2052,-611.4072 622.2052,-605.4072 622.2052,-599.4072 622.2052,-599.4072 622.2052,-466.6062 622.2052,-466.6062 622.2052,-460.6062 628.2052,-454.6062 634.2052,-454.6062 634.2052,-454.6062 823.7948,-454.6062 823.7948,-454.6062 829.7948,-454.6062 835.7948,-460.6062 835.7948,-466.6062 835.7948,-466.6062 835.7948,-599.4072 835.7948,-599.4072 835.7948,-605.4072 829.7948,-611.4072 823.7948,-611.4072"/>
<text text-anchor="middle" x="729" y="-587.6067" font-family="Times,serif" font-size="14.00" fill="#000000">Il n'y a pas de méthode</text>
<text text-anchor="middle" x="729" y="-570.8067" font-family="Times,serif" font-size="14.00" fill="#000000">infaillible pour parvenir au</text>
<text text-anchor="middle" x="729" y="-554.0067" font-family="Times,serif" font-size="14.00" fill="#000000">bonheur. Une déception</text>
<text text-anchor="middle" x="729" y="-537.2067" font-family="Times,serif" font-size="14.00" fill="#000000">profonde est toujours possible :</text>
<text text-anchor="middle" x="729" y="-520.4067" font-family="Times,serif" font-size="14.00" fill="#000000">nous pouvons nous rendre compte</text>
<text text-anchor="middle" x="729" y="-503.6067" font-family="Times,serif" font-size="14.00" fill="#000000">que ce à quoi nous sommes</text>
<text text-anchor="middle" x="729" y="-486.8067" font-family="Times,serif" font-size="14.00" fill="#000000">parvenus n'est finalement pas ce</text>
<text text-anchor="middle" x="729" y="-470.0067" font-family="Times,serif" font-size="14.00" fill="#000000">que nous désirons véritablement</text>
</g>
<!-- p7&#45;&gt;p3 -->
<g id="remarques+objections_edge11" class="edge">
<title>p7-&gt;p3</title>
<path fill="none" stroke="#000000" d="M716.8886,-454.6824C711.1755,-440.2941 702.0981,-427.2806 686.6114,-409.8857"/>
<polygon fill="#000000" stroke="#000000" points="688.8903,-407.1895 679.573,-402.1458 683.7114,-411.899 688.8903,-407.1895"/>
<text text-anchor="middle" x="671.6139" y="-441.8574" font-family="Times,serif" font-size="10.00" fill="#666666">par</text>
<text text-anchor="middle" x="671.6139" y="-429.8574" font-family="Times,serif" font-size="10.00" fill="#666666">conséquent …</text>
</g>
<!-- p8 -->
<g id="remarques+objections_node11_remarques+objections" class="node">
<title>p8</title>
<path fill="#ffffff" stroke="#000000" d="M550.8673,-736.8078C550.8673,-736.8078 417.1327,-736.8078 417.1327,-736.8078 411.1327,-736.8078 405.1327,-730.8078 405.1327,-724.8078 405.1327,-724.8078 405.1327,-676.0056 405.1327,-676.0056 405.1327,-670.0056 411.1327,-664.0056 417.1327,-664.0056 417.1327,-664.0056 550.8673,-664.0056 550.8673,-664.0056 556.8673,-664.0056 562.8673,-670.0056 562.8673,-676.0056 562.8673,-676.0056 562.8673,-724.8078 562.8673,-724.8078 562.8673,-730.8078 556.8673,-736.8078 550.8673,-736.8078"/>
<text text-anchor="middle" x="484" y="-713.0067" font-family="Times,serif" font-size="14.00" fill="#000000">Le bonheur est un idéal,</text>
<text text-anchor="middle" x="484" y="-696.2067" font-family="Times,serif" font-size="14.00" fill="#000000">non de la raison, mais</text>
<text text-anchor="middle" x="484" y="-679.4067" font-family="Times,serif" font-size="14.00" fill="#000000">de l'imagination</text>
</g>
<!-- p8&#45;&gt;p5 -->
<g id="remarques+objections_edge12" class="edge">
<title>p8-&gt;p5</title>
<path fill="none" stroke="#000000" d="M404.9378,-685.1604C341.6289,-670.6066 317.3796,-653.487 271.033,-594.2739"/>
<polygon fill="#000000" stroke="#000000" points="273.5437,-591.7998 264.6512,-586.0401 268.0109,-596.0881 273.5437,-591.7998"/>
<text text-anchor="middle" x="294.3019" y="-665.4238" font-family="Times,serif" font-size="10.00" fill="#666666">par</text>
<text text-anchor="middle" x="294.3019" y="-653.4238" font-family="Times,serif" font-size="10.00" fill="#666666">conséquent …</text>
</g>
<!-- p8&#45;&gt;p6 -->
<g id="remarques+objections_edge13" class="edge">
<title>p8-&gt;p6</title>
<path fill="none" stroke="#000000" d="M489.8416,-664.153C491.7037,-647.0649 491.4144,-630.5543 488.9737,-596.2938"/>
<polygon fill="#000000" stroke="#000000" points="492.4515,-595.8613 488.2283,-586.1446 485.4703,-596.3742 492.4515,-595.8613"/>
<text text-anchor="middle" x="461.5944" y="-639.9333" font-family="Times,serif" font-size="10.00" fill="#666666">par</text>
<text text-anchor="middle" x="461.5944" y="-627.9333" font-family="Times,serif" font-size="10.00" fill="#666666">conséquent …</text>
</g>
<!-- p8&#45;&gt;p7 -->
<g id="remarques+objections_edge14" class="edge">
<title>p8-&gt;p7</title>
<path fill="none" stroke="#000000" d="M562.8864,-679.5059C617.2296,-663.6975 643.0324,-650.2498 669.6489,-619.106"/>
<polygon fill="#000000" stroke="#000000" points="672.4453,-621.2156 676.0812,-611.2641 667.0331,-616.7762 672.4453,-621.2156"/>
<text text-anchor="middle" x="597.6752" y="-670.0026" font-family="Times,serif" font-size="10.00" fill="#666666">par</text>
<text text-anchor="middle" x="597.6752" y="-658.0026" font-family="Times,serif" font-size="10.00" fill="#666666">conséquent …</text>
</g>
<!-- p9 -->
<g id="remarques+objections_node12_remarques+objections" class="node">
<title>p9</title>
<path fill="#ffffff" stroke="#000000" d="M464.0126,-862.2078C464.0126,-862.2078 289.9874,-862.2078 289.9874,-862.2078 283.9874,-862.2078 277.9874,-856.2078 277.9874,-850.2078 277.9874,-850.2078 277.9874,-801.4056 277.9874,-801.4056 277.9874,-795.4056 283.9874,-789.4056 289.9874,-789.4056 289.9874,-789.4056 464.0126,-789.4056 464.0126,-789.4056 470.0126,-789.4056 476.0126,-795.4056 476.0126,-801.4056 476.0126,-801.4056 476.0126,-850.2078 476.0126,-850.2078 476.0126,-856.2078 470.0126,-862.2078 464.0126,-862.2078"/>
<text text-anchor="middle" x="377" y="-838.4067" font-family="Times,serif" font-size="14.00" fill="#000000">Le bonheur suppose de pouvoir</text>
<text text-anchor="middle" x="377" y="-821.6067" font-family="Times,serif" font-size="14.00" fill="#000000">faire un jugement général</text>
<text text-anchor="middle" x="377" y="-804.8067" font-family="Times,serif" font-size="14.00" fill="#000000">sur la vie dans son ensemble</text>
</g>
<!-- p9&#45;&gt;p8 -->
<g id="remarques+objections_edge15" class="edge">
<title>p9-&gt;p8</title>
<path fill="none" stroke="#000000" d="M428.9326,-789.2775C437.6412,-779.4015 446.2171,-766.2425 458.3467,-745.4797"/>
<polygon fill="#000000" stroke="#000000" points="461.391,-747.207 463.3736,-736.7993 455.3334,-743.699 461.391,-747.207"/>
<text text-anchor="middle" x="418.3372" y="-778.6147" font-family="Times,serif" font-size="10.00" fill="#666666">par</text>
<text text-anchor="middle" x="418.3372" y="-766.6147" font-family="Times,serif" font-size="10.00" fill="#666666">conséquent …</text>
</g>
<!-- p10 -->
<g id="remarques+objections_node13_remarques+objections" class="node">
<title>p10</title>
<path fill="#ffffff" stroke="#000000" d="M675.9487,-862.2078C675.9487,-862.2078 506.0513,-862.2078 506.0513,-862.2078 500.0513,-862.2078 494.0513,-856.2078 494.0513,-850.2078 494.0513,-850.2078 494.0513,-801.4056 494.0513,-801.4056 494.0513,-795.4056 500.0513,-789.4056 506.0513,-789.4056 506.0513,-789.4056 675.9487,-789.4056 675.9487,-789.4056 681.9487,-789.4056 687.9487,-795.4056 687.9487,-801.4056 687.9487,-801.4056 687.9487,-850.2078 687.9487,-850.2078 687.9487,-856.2078 681.9487,-862.2078 675.9487,-862.2078"/>
<text text-anchor="middle" x="591" y="-838.4067" font-family="Times,serif" font-size="14.00" fill="#000000">Le bonheur n'est pas la simple</text>
<text text-anchor="middle" x="591" y="-821.6067" font-family="Times,serif" font-size="14.00" fill="#000000">satisfaction de nos besoins :</text>
<text text-anchor="middle" x="591" y="-804.8067" font-family="Times,serif" font-size="14.00" fill="#000000">il est l'horizon de nos désirs</text>
</g>
<!-- p9&#45;&gt;p10 -->
<!-- p10&#45;&gt;p8 -->
<g id="remarques+objections_edge16" class="edge">
<title>p10-&gt;p8</title>
<path fill="none" stroke="#000000" d="M547.6527,-789.4645C538.7768,-779.4718 529.1115,-766.3353 514.5039,-745.1877"/>
<polygon fill="#000000" stroke="#000000" points="517.2044,-742.9377 508.6547,-736.6804 511.4362,-746.9036 517.2044,-742.9377"/>
<text text-anchor="middle" x="498.3466" y="-778.5892" font-family="Times,serif" font-size="10.00" fill="#666666">par</text>
<text text-anchor="middle" x="498.3466" y="-766.5892" font-family="Times,serif" font-size="10.00" fill="#666666">conséquent …</text>
</g>
</g>
</svg>