<?xml version="1.0" encoding="UTF-8" standalone="no"?><!DOCTYPE svg PUBLIC "-//W3C//DTD SVG 1.1//EN" "http://www.w3.org/Graphics/SVG/1.1/DTD/svg11.dtd"><!-- Generated by graphviz version 2.40.1 (20161225.0304)
 --><!-- Title: G Pages: 1 --><svg xmlns="http://www.w3.org/2000/svg" xmlns:xlink="http://www.w3.org/1999/xlink" width="833pt" height="550pt" viewBox="0.00 0.00 833.20 549.95">
<g id="remarques+objections_graph0" class="graph" transform="scale(1 1) rotate(0) translate(21.6 528.3537)">
<title>G</title>
<polygon fill="#ffffff" stroke="transparent" points="-21.6,21.6 -21.6,-528.3537 811.6,-528.3537 811.6,21.6 -21.6,21.6"/>
<g id="remarques+objections_clust1" class="cluster">
<title>cluster_0</title>
<path fill="#e5e5e5" stroke="#7f7f7f" d="M91,-8C91,-8 770,-8 770,-8 776,-8 782,-14 782,-20 782,-20 782,-486.7537 782,-486.7537 782,-492.7537 776,-498.7537 770,-498.7537 770,-498.7537 91,-498.7537 91,-498.7537 85,-498.7537 79,-492.7537 79,-486.7537 79,-486.7537 79,-20 79,-20 79,-14 85,-8 91,-8"/>
</g>
<!-- 0 -->
<!-- p1 -->
<g id="remarques+objections_node2_remarques+objections" class="node">
<title>p1</title>
<path fill="#ffffff" stroke="#000000" d="M535.3876,-473.7537C535.3876,-473.7537 284.6124,-473.7537 284.6124,-473.7537 278.6124,-473.7537 272.6124,-467.7537 272.6124,-461.7537 272.6124,-461.7537 272.6124,-379.7537 272.6124,-379.7537 272.6124,-373.7537 278.6124,-367.7537 284.6124,-367.7537 284.6124,-367.7537 535.3876,-367.7537 535.3876,-367.7537 541.3876,-367.7537 547.3876,-373.7537 547.3876,-379.7537 547.3876,-379.7537 547.3876,-461.7537 547.3876,-461.7537 547.3876,-467.7537 541.3876,-473.7537 535.3876,-473.7537"/>
<text text-anchor="middle" x="410" y="-450.1537" font-family="Times,serif" font-size="14.00" fill="#000000">Le matérialisme considère l'esprit</text>
<text text-anchor="middle" x="410" y="-433.3537" font-family="Times,serif" font-size="14.00" fill="#000000">comme un système de traitement</text>
<text text-anchor="middle" x="410" y="-416.5537" font-family="Times,serif" font-size="14.00" fill="#000000">de l'information qui se réalise dans un corps,</text>
<text text-anchor="middle" x="410" y="-399.7537" font-family="Times,serif" font-size="14.00" fill="#000000">principalement à travers des réseaux</text>
<text text-anchor="middle" x="410" y="-382.9537" font-family="Times,serif" font-size="14.00" fill="#000000">neuronaux dans le cerveau</text>
</g>
<!-- p2 -->
<g id="remarques+objections_node3_remarques+objections" class="node">
<title>p2</title>
<path fill="#ffffff" stroke="#000000" d="M219.7353,-306.454C219.7353,-306.454 116.2647,-306.454 116.2647,-306.454 110.2647,-306.454 104.2647,-300.454 104.2647,-294.454 104.2647,-294.454 104.2647,-229.0535 104.2647,-229.0535 104.2647,-223.0535 110.2647,-217.0535 116.2647,-217.0535 116.2647,-217.0535 219.7353,-217.0535 219.7353,-217.0535 225.7353,-217.0535 231.7353,-223.0535 231.7353,-229.0535 231.7353,-229.0535 231.7353,-294.454 231.7353,-294.454 231.7353,-300.454 225.7353,-306.454 219.7353,-306.454"/>
<text text-anchor="middle" x="168" y="-282.7537" font-family="Times,serif" font-size="14.00" fill="#000000">L'esprit n'est alors</text>
<text text-anchor="middle" x="168" y="-265.9537" font-family="Times,serif" font-size="14.00" fill="#000000">plus une entité</text>
<text text-anchor="middle" x="168" y="-249.1537" font-family="Times,serif" font-size="14.00" fill="#000000">immatérielle</text>
<text text-anchor="middle" x="168" y="-232.3537" font-family="Times,serif" font-size="14.00" fill="#000000">inobservable</text>
</g>
<!-- p1&#45;&gt;p2 -->
<g id="remarques+objections_edge1" class="edge">
<title>p1-&gt;p2</title>
<path fill="none" stroke="#000000" d="M272.3014,-378.5045C244.1108,-364.5718 226.5391,-346.8552 203.746,-314.9473"/>
<polygon fill="#000000" stroke="#000000" points="206.4408,-312.6945 197.829,-306.523 200.7126,-316.7179 206.4408,-312.6945"/>
<text text-anchor="middle" x="200.9149" y="-362.5065" font-family="Times,serif" font-size="10.00" fill="#666666">par</text>
<text text-anchor="middle" x="200.9149" y="-350.5065" font-family="Times,serif" font-size="10.00" fill="#666666">conséquent …</text>
</g>
<!-- p3 -->
<g id="remarques+objections_node4_remarques+objections" class="node">
<title>p3</title>
<path fill="#ffffff" stroke="#000000" d="M374.5674,-306.454C374.5674,-306.454 261.4326,-306.454 261.4326,-306.454 255.4326,-306.454 249.4326,-300.454 249.4326,-294.454 249.4326,-294.454 249.4326,-229.0535 249.4326,-229.0535 249.4326,-223.0535 255.4326,-217.0535 261.4326,-217.0535 261.4326,-217.0535 374.5674,-217.0535 374.5674,-217.0535 380.5674,-217.0535 386.5674,-223.0535 386.5674,-229.0535 386.5674,-229.0535 386.5674,-294.454 386.5674,-294.454 386.5674,-300.454 380.5674,-306.454 374.5674,-306.454"/>
<text text-anchor="middle" x="318" y="-282.7537" font-family="Times,serif" font-size="14.00" fill="#000000">On peut comprendre</text>
<text text-anchor="middle" x="318" y="-265.9537" font-family="Times,serif" font-size="14.00" fill="#000000">pourquoi l'esprit</text>
<text text-anchor="middle" x="318" y="-249.1537" font-family="Times,serif" font-size="14.00" fill="#000000">est lié à un corps</text>
<text text-anchor="middle" x="318" y="-232.3537" font-family="Times,serif" font-size="14.00" fill="#000000">déterminé</text>
</g>
<!-- p1&#45;&gt;p3 -->
<g id="remarques+objections_edge2" class="edge">
<title>p1-&gt;p3</title>
<path fill="none" stroke="#000000" d="M355.1034,-367.7032C347.9592,-355.491 342.0188,-340.0234 334.5595,-316.595"/>
<polygon fill="#000000" stroke="#000000" points="337.8311,-315.3302 331.5023,-306.8333 331.151,-317.4223 337.8311,-315.3302"/>
<text text-anchor="middle" x="312.579" y="-352.6896" font-family="Times,serif" font-size="10.00" fill="#666666">par</text>
<text text-anchor="middle" x="312.579" y="-340.6896" font-family="Times,serif" font-size="10.00" fill="#666666">conséquent …</text>
</g>
<!-- p4 -->
<g id="remarques+objections_node5_remarques+objections" class="node">
<title>p4</title>
<path fill="#ffffff" stroke="#000000" d="M589.7142,-314.7537C589.7142,-314.7537 416.2858,-314.7537 416.2858,-314.7537 410.2858,-314.7537 404.2858,-308.7537 404.2858,-302.7537 404.2858,-302.7537 404.2858,-220.7537 404.2858,-220.7537 404.2858,-214.7537 410.2858,-208.7537 416.2858,-208.7537 416.2858,-208.7537 589.7142,-208.7537 589.7142,-208.7537 595.7142,-208.7537 601.7142,-214.7537 601.7142,-220.7537 601.7142,-220.7537 601.7142,-302.7537 601.7142,-302.7537 601.7142,-308.7537 595.7142,-314.7537 589.7142,-314.7537"/>
<text text-anchor="middle" x="503" y="-291.1537" font-family="Times,serif" font-size="14.00" fill="#000000">On peut expliquer</text>
<text text-anchor="middle" x="503" y="-274.3537" font-family="Times,serif" font-size="14.00" fill="#000000">l'apparition de l'esprit au cours</text>
<text text-anchor="middle" x="503" y="-257.5537" font-family="Times,serif" font-size="14.00" fill="#000000">de l'évolution des espèces, et</text>
<text text-anchor="middle" x="503" y="-240.7537" font-family="Times,serif" font-size="14.00" fill="#000000">au cours du développement</text>
<text text-anchor="middle" x="503" y="-223.9537" font-family="Times,serif" font-size="14.00" fill="#000000">biologique d'un individu</text>
</g>
<!-- p1&#45;&gt;p4 -->
<g id="remarques+objections_edge3" class="edge">
<title>p1-&gt;p4</title>
<path fill="none" stroke="#000000" d="M470.0981,-367.5339C477.1788,-356.6178 482.2786,-343.6231 487.5987,-324.7862"/>
<polygon fill="#000000" stroke="#000000" points="490.9987,-325.6206 490.2377,-315.0532 484.2427,-323.7887 490.9987,-325.6206"/>
<text text-anchor="middle" x="453.1411" y="-356.935" font-family="Times,serif" font-size="10.00" fill="#666666">par</text>
<text text-anchor="middle" x="453.1411" y="-344.935" font-family="Times,serif" font-size="10.00" fill="#666666">conséquent …</text>
</g>
<!-- p5 -->
<g id="remarques+objections_node6_remarques+objections" class="node">
<title>p5</title>
<path fill="#ffffff" stroke="#000000" d="M744.5674,-306.454C744.5674,-306.454 631.4326,-306.454 631.4326,-306.454 625.4326,-306.454 619.4326,-300.454 619.4326,-294.454 619.4326,-294.454 619.4326,-229.0535 619.4326,-229.0535 619.4326,-223.0535 625.4326,-217.0535 631.4326,-217.0535 631.4326,-217.0535 744.5674,-217.0535 744.5674,-217.0535 750.5674,-217.0535 756.5674,-223.0535 756.5674,-229.0535 756.5674,-229.0535 756.5674,-294.454 756.5674,-294.454 756.5674,-300.454 750.5674,-306.454 744.5674,-306.454"/>
<text text-anchor="middle" x="688" y="-282.7537" font-family="Times,serif" font-size="14.00" fill="#000000">On peut comprendre</text>
<text text-anchor="middle" x="688" y="-265.9537" font-family="Times,serif" font-size="14.00" fill="#000000">comment l'esprit</text>
<text text-anchor="middle" x="688" y="-249.1537" font-family="Times,serif" font-size="14.00" fill="#000000">interagit avec le</text>
<text text-anchor="middle" x="688" y="-232.3537" font-family="Times,serif" font-size="14.00" fill="#000000">monde physique</text>
</g>
<!-- p1&#45;&gt;p5 -->
<g id="remarques+objections_edge4" class="edge">
<title>p1-&gt;p5</title>
<path fill="none" stroke="#000000" d="M547.4064,-383.9453C594.6942,-367.721 617.4754,-350.6066 647.3221,-314.5445"/>
<polygon fill="#000000" stroke="#000000" points="650.223,-316.5244 653.8097,-306.5552 644.7889,-312.1118 650.223,-316.5244"/>
<text text-anchor="middle" x="578.3743" y="-369.103" font-family="Times,serif" font-size="10.00" fill="#666666">par</text>
<text text-anchor="middle" x="578.3743" y="-357.103" font-family="Times,serif" font-size="10.00" fill="#666666">conséquent …</text>
</g>
<!-- C -->
<g id="remarques+objections_node7_remarques+objections" class="node">
<title>C</title>
<ellipse fill="#000000" stroke="#000000" cx="410" cy="-94.3769" rx="164.184" ry="61.254"/>
<text text-anchor="middle" x="410" y="-110.5769" font-family="Times,serif" font-size="18.00" fill="#ffffff">Le matérialisme permet</text>
<text text-anchor="middle" x="410" y="-88.9769" font-family="Times,serif" font-size="18.00" fill="#ffffff">de parvenir à une conception</text>
<text text-anchor="middle" x="410" y="-67.3769" font-family="Times,serif" font-size="18.00" fill="#ffffff">non-mystérieuse de l'esprit</text>
</g>
<!-- p2&#45;&gt;C -->
<g id="remarques+objections_edge5" class="edge">
<title>p2-&gt;C</title>
<path fill="none" stroke="#000000" d="M196.1516,-217.0534C222.8739,-176.2067 241.2863,-155.9824 276.5551,-138.9745"/>
<polygon fill="#000000" stroke="#000000" points="278.2563,-142.0455 285.9002,-134.7092 275.3497,-135.6774 278.2563,-142.0455"/>
<text text-anchor="middle" x="204.6412" y="-183.5006" font-family="Times,serif" font-size="10.00" fill="#666666">par</text>
<text text-anchor="middle" x="204.6412" y="-171.5006" font-family="Times,serif" font-size="10.00" fill="#666666">conséquent …</text>
</g>
<!-- p3&#45;&gt;C -->
<g id="remarques+objections_edge6" class="edge">
<title>p3-&gt;C</title>
<path fill="none" stroke="#000000" d="M329.9471,-217.1038C336.8047,-192.2273 342.2143,-174.9099 348.2468,-161.3841"/>
<polygon fill="#000000" stroke="#000000" points="351.5142,-162.6706 352.779,-152.1515 345.2305,-159.5859 351.5142,-162.6706"/>
<text text-anchor="middle" x="310.5969" y="-199.1357" font-family="Times,serif" font-size="10.00" fill="#666666">par</text>
<text text-anchor="middle" x="310.5969" y="-187.1357" font-family="Times,serif" font-size="10.00" fill="#666666">conséquent …</text>
</g>
<!-- p4&#45;&gt;C -->
<g id="remarques+objections_edge7" class="edge">
<title>p4-&gt;C</title>
<path fill="none" stroke="#000000" d="M492.1047,-208.397C487.3814,-187.3835 483.0105,-172.5447 477.0576,-160.3991"/>
<polygon fill="#000000" stroke="#000000" points="480.0763,-158.6256 472.1649,-151.5786 473.9549,-162.0212 480.0763,-158.6256"/>
<text text-anchor="middle" x="455.3835" y="-194.2518" font-family="Times,serif" font-size="10.00" fill="#666666">par</text>
<text text-anchor="middle" x="455.3835" y="-182.2518" font-family="Times,serif" font-size="10.00" fill="#666666">conséquent …</text>
</g>
<!-- p5&#45;&gt;C -->
<g id="remarques+objections_edge8" class="edge">
<title>p5-&gt;C</title>
<path fill="none" stroke="#000000" d="M655.0226,-216.7393C622.5457,-174.3753 600.2052,-155.4193 548.5567,-136.1228"/>
<polygon fill="#000000" stroke="#000000" points="549.5223,-132.7502 538.928,-132.6382 547.1402,-139.3324 549.5223,-132.7502"/>
<text text-anchor="middle" x="575.2964" y="-179.3537" font-family="Times,serif" font-size="10.00" fill="#666666">par</text>
<text text-anchor="middle" x="575.2964" y="-167.3537" font-family="Times,serif" font-size="10.00" fill="#666666">conséquent …</text>
</g>
</g>
</svg>