<?xml version="1.0" encoding="UTF-8" standalone="no"?>
<!DOCTYPE svg PUBLIC "-//W3C//DTD SVG 1.1//EN"
 "http://www.w3.org/Graphics/SVG/1.1/DTD/svg11.dtd">
<!-- Generated by graphviz version 2.40.1 (20161225.0304)
 -->
<!-- Title: G Pages: 1 -->
<svg width="1088pt" height="1122pt"
 viewBox="0.00 0.00 1088.00 1121.66" xmlns="http://www.w3.org/2000/svg" xmlns:xlink="http://www.w3.org/1999/xlink">
<g id="graph0" class="graph" transform="scale(1 1) rotate(0) translate(4 1117.6577)">
<title>G</title>
<polygon fill="#ffffff" stroke="transparent" points="-4,4 -4,-1117.6577 1084,-1117.6577 1084,4 -4,4"/>
<g id="clust1" class="cluster">
<title>cluster_0</title>
<path fill="#e5e5e5" stroke="#7f7f7f" d="M20,-8C20,-8 1060,-8 1060,-8 1066,-8 1072,-14 1072,-20 1072,-20 1072,-1093.6577 1072,-1093.6577 1072,-1099.6577 1066,-1105.6577 1060,-1105.6577 1060,-1105.6577 20,-1105.6577 20,-1105.6577 14,-1105.6577 8,-1099.6577 8,-1093.6577 8,-1093.6577 8,-20 8,-20 8,-14 14,-8 20,-8"/>
</g>
<g id="clust3" class="cluster">
<title>cluster_3</title>
<polygon fill="#bababa" stroke="#bababa" points="482,-454.6577 482,-865.4577 1032,-865.4577 1032,-454.6577 482,-454.6577"/>
</g>
<g id="clust6" class="cluster">
<title>cluster_1</title>
<polygon fill="#bababa" stroke="#bababa" points="48,-497.8577 48,-1001.8577 442,-1001.8577 442,-497.8577 48,-497.8577"/>
</g>
<g id="clust7" class="cluster">
<title>cluster_2</title>
<polygon fill="#bababa" stroke="#bababa" points="122,-244.2577 122,-374.6577 882,-374.6577 882,-244.2577 122,-244.2577"/>
</g>
<!-- vide1 -->
<!-- p1a -->
<g id="node2" class="node">
<title>p1a</title>
<path fill="#ffffff" stroke="#000000" d="M390.7577,-987.0585C390.7577,-987.0585 99.2423,-987.0585 99.2423,-987.0585 93.2423,-987.0585 87.2423,-981.0585 87.2423,-975.0585 87.2423,-975.0585 87.2423,-898.2569 87.2423,-898.2569 87.2423,-892.2569 93.2423,-886.2569 99.2423,-886.2569 99.2423,-886.2569 390.7577,-886.2569 390.7577,-886.2569 396.7577,-886.2569 402.7577,-892.2569 402.7577,-898.2569 402.7577,-898.2569 402.7577,-975.0585 402.7577,-975.0585 402.7577,-981.0585 396.7577,-987.0585 390.7577,-987.0585"/>
<text text-anchor="middle" x="245" y="-958.2577" font-family="Times,serif" font-size="24.00" fill="#000000">(1) Il est essentiel pour les</text>
<text text-anchor="middle" x="245" y="-929.4577" font-family="Times,serif" font-size="24.00" fill="#000000">êtres humains de pouvoir jouir</text>
<text text-anchor="middle" x="245" y="-900.6577" font-family="Times,serif" font-size="24.00" fill="#000000">des avantages de la société</text>
</g>
<!-- vide1&#45;&gt;p1a -->
<!-- vide2 -->
<!-- vide1&#45;&gt;vide2 -->
<!-- p2a1 -->
<g id="node4" class="node">
<title>p2a1</title>
<path fill="#ffffff" stroke="#000000" d="M953.7337,-972.2588C953.7337,-972.2588 590.2663,-972.2588 590.2663,-972.2588 584.2663,-972.2588 578.2663,-966.2588 578.2663,-960.2588 578.2663,-960.2588 578.2663,-913.0566 578.2663,-913.0566 578.2663,-907.0566 584.2663,-901.0566 590.2663,-901.0566 590.2663,-901.0566 953.7337,-901.0566 953.7337,-901.0566 959.7337,-901.0566 965.7337,-907.0566 965.7337,-913.0566 965.7337,-913.0566 965.7337,-960.2588 965.7337,-960.2588 965.7337,-966.2588 959.7337,-972.2588 953.7337,-972.2588"/>
<text text-anchor="middle" x="772" y="-943.8577" font-family="Times,serif" font-size="24.00" fill="#000000">(5) Il est impossible de transmettre nos</text>
<text text-anchor="middle" x="772" y="-915.0577" font-family="Times,serif" font-size="24.00" fill="#000000">idées directement à quelqu&#39;un d&#39;autre</text>
</g>
<!-- vide1&#45;&gt;p2a1 -->
<!-- p1a&#45;&gt;vide2 -->
<!-- p1b -->
<g id="node10" class="node">
<title>p1b</title>
<path fill="#ffffff" stroke="#000000" d="M414.9032,-821.8585C414.9032,-821.8585 75.0968,-821.8585 75.0968,-821.8585 69.0968,-821.8585 63.0968,-815.8585 63.0968,-809.8585 63.0968,-809.8585 63.0968,-733.0569 63.0968,-733.0569 63.0968,-727.0569 69.0968,-721.0569 75.0968,-721.0569 75.0968,-721.0569 414.9032,-721.0569 414.9032,-721.0569 420.9032,-721.0569 426.9032,-727.0569 426.9032,-733.0569 426.9032,-733.0569 426.9032,-809.8585 426.9032,-809.8585 426.9032,-815.8585 420.9032,-821.8585 414.9032,-821.8585"/>
<text text-anchor="middle" x="245" y="-793.0577" font-family="Times,serif" font-size="24.00" fill="#000000">(2) Pour pouvoir jouir des avantages</text>
<text text-anchor="middle" x="245" y="-764.2577" font-family="Times,serif" font-size="24.00" fill="#000000">de la société, il faut pouvoir</text>
<text text-anchor="middle" x="245" y="-735.4577" font-family="Times,serif" font-size="24.00" fill="#000000">communiquer avec les autres</text>
</g>
<!-- p1a&#45;&gt;p1b -->
<!-- vide2&#45;&gt;p2a1 -->
<!-- p2a -->
<g id="node5" class="node">
<title>p2a</title>
<path fill="#ffffff" stroke="#000000" d="M999.3048,-850.4577C999.3048,-850.4577 554.6952,-850.4577 554.6952,-850.4577 548.6952,-850.4577 542.6952,-844.4577 542.6952,-838.4577 542.6952,-838.4577 542.6952,-704.4577 542.6952,-704.4577 542.6952,-698.4577 548.6952,-692.4577 554.6952,-692.4577 554.6952,-692.4577 999.3048,-692.4577 999.3048,-692.4577 1005.3048,-692.4577 1011.3048,-698.4577 1011.3048,-704.4577 1011.3048,-704.4577 1011.3048,-838.4577 1011.3048,-838.4577 1011.3048,-844.4577 1005.3048,-850.4577 999.3048,-850.4577"/>
<text text-anchor="middle" x="777" y="-821.8577" font-family="Times,serif" font-size="24.00" fill="#000000">(6) Pour pouvoir transmettre nos idées, il</text>
<text text-anchor="middle" x="777" y="-793.0577" font-family="Times,serif" font-size="24.00" fill="#000000">faut qu&#39;il existe un moyen d&#39;accomplir un acte</text>
<text text-anchor="middle" x="777" y="-764.2577" font-family="Times,serif" font-size="24.00" fill="#000000">dans le monde extérieur, perceptible par autrui,</text>
<text text-anchor="middle" x="777" y="-735.4577" font-family="Times,serif" font-size="24.00" fill="#000000">et pouvant être associé, dans l&#39;esprit d&#39;autrui,</text>
<text text-anchor="middle" x="777" y="-706.6577" font-family="Times,serif" font-size="24.00" fill="#000000">aux idées que nous voulons transmettre</text>
</g>
<!-- p2a1&#45;&gt;p2a -->
<g id="edge4" class="edge">
<title>p2a1&#45;&gt;p2a</title>
<path fill="none" stroke="#000000" d="M773.0849,-900.8118C773.4455,-888.8994 773.8646,-875.0525 774.2918,-860.9359"/>
<polygon fill="#000000" stroke="#000000" points="777.7994,-860.7342 774.6037,-850.6329 770.8026,-860.5224 777.7994,-860.7342"/>
<text text-anchor="middle" x="727.7109" y="-880.4736" font-family="Times,serif" font-size="15.00" fill="#666666">Par conséquent</text>
</g>
<!-- p2c -->
<g id="node7" class="node">
<title>p2c</title>
<path fill="#ffffff" stroke="#000000" d="M1005.4184,-627.7578C1005.4184,-627.7578 808.5816,-627.7578 808.5816,-627.7578 802.5816,-627.7578 796.5816,-621.7578 796.5816,-615.7578 796.5816,-615.7578 796.5816,-510.3575 796.5816,-510.3575 796.5816,-504.3575 802.5816,-498.3575 808.5816,-498.3575 808.5816,-498.3575 1005.4184,-498.3575 1005.4184,-498.3575 1011.4184,-498.3575 1017.4184,-504.3575 1017.4184,-510.3575 1017.4184,-510.3575 1017.4184,-615.7578 1017.4184,-615.7578 1017.4184,-621.7578 1011.4184,-627.7578 1005.4184,-627.7578"/>
<text text-anchor="middle" x="907" y="-599.0577" font-family="Times,serif" font-size="24.00" fill="#000000">(8) Les signes du</text>
<text text-anchor="middle" x="907" y="-570.2577" font-family="Times,serif" font-size="24.00" fill="#000000">langage sont associés</text>
<text text-anchor="middle" x="907" y="-541.4577" font-family="Times,serif" font-size="24.00" fill="#000000">à des idées (par une</text>
<text text-anchor="middle" x="907" y="-512.6577" font-family="Times,serif" font-size="24.00" fill="#000000">institution arbitraire)</text>
</g>
<!-- p2a&#45;&gt;p2c -->
<!-- p2b -->
<g id="node6" class="node">
<title>p2b</title>
<path fill="#ffffff" stroke="#000000" d="M766.7473,-656.3578C766.7473,-656.3578 509.2527,-656.3578 509.2527,-656.3578 503.2527,-656.3578 497.2527,-650.3578 497.2527,-644.3578 497.2527,-644.3578 497.2527,-481.7576 497.2527,-481.7576 497.2527,-475.7576 503.2527,-469.7576 509.2527,-469.7576 509.2527,-469.7576 766.7473,-469.7576 766.7473,-469.7576 772.7473,-469.7576 778.7473,-475.7576 778.7473,-481.7576 778.7473,-481.7576 778.7473,-644.3578 778.7473,-644.3578 778.7473,-650.3578 772.7473,-656.3578 766.7473,-656.3578"/>
<text text-anchor="middle" x="638" y="-627.8577" font-family="Times,serif" font-size="24.00" fill="#000000">(7) Le langage est</text>
<text text-anchor="middle" x="638" y="-599.0577" font-family="Times,serif" font-size="24.00" fill="#000000">un ensemble de signes</text>
<text text-anchor="middle" x="638" y="-570.2577" font-family="Times,serif" font-size="24.00" fill="#000000">extérieurs et sensibles :</text>
<text text-anchor="middle" x="638" y="-541.4577" font-family="Times,serif" font-size="24.00" fill="#000000">l&#39;usage des mots est un acte</text>
<text text-anchor="middle" x="638" y="-512.6577" font-family="Times,serif" font-size="24.00" fill="#000000">dans le monde extérieur,</text>
<text text-anchor="middle" x="638" y="-483.8577" font-family="Times,serif" font-size="24.00" fill="#000000">perceptible par autrui</text>
</g>
<!-- p2b&#45;&gt;p2c -->
<!-- p2 -->
<g id="node8" class="node">
<title>p2</title>
<path fill="#ffffff" stroke="#000000" d="M854.9048,-359.8585C854.9048,-359.8585 591.0952,-359.8585 591.0952,-359.8585 585.0952,-359.8585 579.0952,-353.8585 579.0952,-347.8585 579.0952,-347.8585 579.0952,-271.0569 579.0952,-271.0569 579.0952,-265.0569 585.0952,-259.0569 591.0952,-259.0569 591.0952,-259.0569 854.9048,-259.0569 854.9048,-259.0569 860.9048,-259.0569 866.9048,-265.0569 866.9048,-271.0569 866.9048,-271.0569 866.9048,-347.8585 866.9048,-347.8585 866.9048,-353.8585 860.9048,-359.8585 854.9048,-359.8585"/>
<text text-anchor="middle" x="723" y="-331.0577" font-family="Times,serif" font-size="24.00" fill="#000000">(9) Le langage est un moyen</text>
<text text-anchor="middle" x="723" y="-302.2577" font-family="Times,serif" font-size="24.00" fill="#000000">qui permet de transmettre</text>
<text text-anchor="middle" x="723" y="-273.4577" font-family="Times,serif" font-size="24.00" fill="#000000">nos idées aux autres</text>
</g>
<!-- p2c&#45;&gt;p2 -->
<g id="edge7" class="edge">
<title>p2c:w&#45;&gt;p2</title>
<path fill="none" stroke="#000000" d="M788,-454.6577C780.4598,-425.3566 767.4704,-394.5444 755.0761,-368.8797"/>
<polygon fill="#000000" stroke="#000000" points="758.101,-367.0993 750.5479,-359.6695 751.8192,-370.1878 758.101,-367.0993"/>
<text text-anchor="middle" x="728.0983" y="-428.8189" font-family="Times,serif" font-size="15.00" fill="#666666">Par</text>
<text text-anchor="middle" x="728.0983" y="-410.8189" font-family="Times,serif" font-size="15.00" fill="#666666">conséquent …</text>
</g>
<!-- C -->
<g id="node12" class="node">
<title>C</title>
<ellipse fill="#000000" stroke="#000000" cx="579" cy="-98.6288" rx="227.6643" ry="50.758"/>
<text text-anchor="middle" x="579" y="-105.8288" font-family="Times,serif" font-size="24.00" fill="#ffffff">La fonction du langage est de</text>
<text text-anchor="middle" x="579" y="-77.0288" font-family="Times,serif" font-size="24.00" fill="#ffffff">transmettre nos idées aux autres</text>
</g>
<!-- p2&#45;&gt;C -->
<g id="edge14" class="edge">
<title>p2:w&#45;&gt;C</title>
<path fill="none" stroke="#000000" d="M537.7168,-244.2593C539.5116,-217.0238 547.7134,-185.5749 556.3392,-158.8874"/>
<polygon fill="#000000" stroke="#000000" points="559.7502,-159.7211 559.5795,-149.1276 553.1068,-157.5153 559.7502,-159.7211"/>
<text text-anchor="middle" x="502.0486" y="-218.7387" font-family="Times,serif" font-size="15.00" fill="#666666">Par</text>
<text text-anchor="middle" x="502.0486" y="-200.7387" font-family="Times,serif" font-size="15.00" fill="#666666">conséquent …</text>
</g>
<!-- p1c -->
<g id="node9" class="node">
<title>p1c</title>
<path fill="#ffffff" stroke="#000000" d="M394.2033,-613.4585C394.2033,-613.4585 95.7967,-613.4585 95.7967,-613.4585 89.7967,-613.4585 83.7967,-607.4585 83.7967,-601.4585 83.7967,-601.4585 83.7967,-524.6569 83.7967,-524.6569 83.7967,-518.6569 89.7967,-512.6569 95.7967,-512.6569 95.7967,-512.6569 394.2033,-512.6569 394.2033,-512.6569 400.2033,-512.6569 406.2033,-518.6569 406.2033,-524.6569 406.2033,-524.6569 406.2033,-601.4585 406.2033,-601.4585 406.2033,-607.4585 400.2033,-613.4585 394.2033,-613.4585"/>
<text text-anchor="middle" x="245" y="-584.6577" font-family="Times,serif" font-size="24.00" fill="#000000">(3) Pour pouvoir communiquer</text>
<text text-anchor="middle" x="245" y="-555.8577" font-family="Times,serif" font-size="24.00" fill="#000000">avec les autres, il faut pouvoir</text>
<text text-anchor="middle" x="245" y="-527.0577" font-family="Times,serif" font-size="24.00" fill="#000000">transmettre nos idées aux autres</text>
</g>
<!-- p1 -->
<g id="node11" class="node">
<title>p1</title>
<path fill="#ffffff" stroke="#000000" d="M513.0395,-359.8585C513.0395,-359.8585 148.9605,-359.8585 148.9605,-359.8585 142.9605,-359.8585 136.9605,-353.8585 136.9605,-347.8585 136.9605,-347.8585 136.9605,-271.0569 136.9605,-271.0569 136.9605,-265.0569 142.9605,-259.0569 148.9605,-259.0569 148.9605,-259.0569 513.0395,-259.0569 513.0395,-259.0569 519.0395,-259.0569 525.0395,-265.0569 525.0395,-271.0569 525.0395,-271.0569 525.0395,-347.8585 525.0395,-347.8585 525.0395,-353.8585 519.0395,-359.8585 513.0395,-359.8585"/>
<text text-anchor="middle" x="331" y="-331.0577" font-family="Times,serif" font-size="24.00" fill="#000000">(4) Les êtres humains ont dû inventer</text>
<text text-anchor="middle" x="331" y="-302.2577" font-family="Times,serif" font-size="24.00" fill="#000000">un moyen dont la fonction est de</text>
<text text-anchor="middle" x="331" y="-273.4577" font-family="Times,serif" font-size="24.00" fill="#000000">transmettre nos idées aux autres</text>
</g>
<!-- p1c&#45;&gt;p1 -->
<g id="edge10" class="edge">
<title>p1c:s&#45;&gt;p1</title>
<path fill="none" stroke="#000000" d="M245.6589,-497.8622C249.6455,-450.9799 271.0517,-403.7919 291.4257,-368.3681"/>
<polygon fill="#000000" stroke="#000000" points="294.4618,-370.1097 296.516,-359.7159 288.4285,-366.5601 294.4618,-370.1097"/>
<text text-anchor="middle" x="219.9605" y="-448.2221" font-family="Times,serif" font-size="15.00" fill="#666666">Par</text>
<text text-anchor="middle" x="219.9605" y="-430.2221" font-family="Times,serif" font-size="15.00" fill="#666666">conséquent …</text>
</g>
<!-- p1b&#45;&gt;p1c -->
<!-- p1&#45;&gt;p2 -->
</g>
</svg>
