<?xml version="1.0" encoding="UTF-8" standalone="no"?>
<!DOCTYPE svg PUBLIC "-//W3C//DTD SVG 1.1//EN"
 "http://www.w3.org/Graphics/SVG/1.1/DTD/svg11.dtd">
<!-- Generated by graphviz version 2.40.1 (20161225.0304)
 -->
<!-- Title: G Pages: 1 -->
<svg width="1881pt" height="1095pt"
 viewBox="0.00 0.00 1880.70 1094.66" xmlns="http://www.w3.org/2000/svg" xmlns:xlink="http://www.w3.org/1999/xlink">
<g id="graph0" class="graph" transform="scale(1 1) rotate(0) translate(4 1090.6577)">
<title>G</title>
<polygon fill="#ffffff" stroke="transparent" points="-4,4 -4,-1090.6577 1876.705,-1090.6577 1876.705,4 -4,4"/>
<text text-anchor="start" x="434.0917" y="-1054.8577" font-family="Times,serif" font-weight="bold" font-size="32.00" fill="#000000">Noter les élèves a&#45;t&#45;il vraiment un sens ? Examen critique de deux arguments</text>
<text text-anchor="start" x="516.9321" y="-1016.4577" font-family="Times,serif" font-size="28.00" fill="#000000">À partir de l&#39;article de Pierre Merle : « Faut&#45;il en finir avec les notes ? »</text>
<g id="clust3" class="cluster">
<title>cluster_0</title>
<path fill="#e5e5e5" stroke="#7f7f7f" d="M524.218,-8C524.218,-8 1336.218,-8 1336.218,-8 1342.218,-8 1348.218,-14 1348.218,-20 1348.218,-20 1348.218,-956.6577 1348.218,-956.6577 1348.218,-962.6577 1342.218,-968.6577 1336.218,-968.6577 1336.218,-968.6577 524.218,-968.6577 524.218,-968.6577 518.218,-968.6577 512.218,-962.6577 512.218,-956.6577 512.218,-956.6577 512.218,-20 512.218,-20 512.218,-14 518.218,-8 524.218,-8"/>
</g>
<g id="clust4" class="cluster">
<title>cluster_1</title>
<polygon fill="#bababa" stroke="#bababa" points="976.218,-268.6577 976.218,-928.6577 1308.218,-928.6577 1308.218,-268.6577 976.218,-268.6577"/>
<text text-anchor="start" x="1084.564" y="-890.0577" font-family="Times,serif" font-size="24.00" fill="#000000">Argument 2</text>
</g>
<g id="clust5" class="cluster">
<title>cluster_2</title>
<polygon fill="#bababa" stroke="#bababa" points="552.218,-268.6577 552.218,-928.6577 936.218,-928.6577 936.218,-268.6577 552.218,-268.6577"/>
<text text-anchor="start" x="686.564" y="-890.0577" font-family="Times,serif" font-size="24.00" fill="#000000">Argument 1</text>
</g>
<!-- ob2 -->
<g id="node1" class="node">
<title>ob2</title>
<path fill="#ffffff" stroke="#cd0000" d="M460.6542,-711.2577C460.6542,-711.2577 11.7818,-711.2577 11.7818,-711.2577 5.7818,-711.2577 -.2182,-705.2577 -.2182,-699.2577 -.2182,-699.2577 -.2182,-493.2577 -.2182,-493.2577 -.2182,-487.2577 5.7818,-481.2577 11.7818,-481.2577 11.7818,-481.2577 460.6542,-481.2577 460.6542,-481.2577 466.6542,-481.2577 472.6542,-487.2577 472.6542,-493.2577 472.6542,-493.2577 472.6542,-699.2577 472.6542,-699.2577 472.6542,-705.2577 466.6542,-711.2577 460.6542,-711.2577"/>
<text text-anchor="middle" x="236.218" y="-686.2577" font-family="Times,serif" font-size="20.00" fill="#000000">Les recherches sur les pratiques de notation des élèves</text>
<text text-anchor="middle" x="236.218" y="-662.2577" font-family="Times,serif" font-size="20.00" fill="#000000">montrent que les notes ne mesurent pas de façon précise</text>
<text text-anchor="middle" x="236.218" y="-638.2577" font-family="Times,serif" font-size="20.00" fill="#000000">les compétences des élèves et qu&#39;il existe des biais</text>
<text text-anchor="middle" x="236.218" y="-614.2577" font-family="Times,serif" font-size="20.00" fill="#000000">sociaux de notation. On peut cependant faire un bon</text>
<text text-anchor="middle" x="236.218" y="-590.2577" font-family="Times,serif" font-size="20.00" fill="#000000">usage d&#39;évaluations standardisées et centralisées, si</text>
<text text-anchor="middle" x="236.218" y="-566.2577" font-family="Times,serif" font-size="20.00" fill="#000000">celles&#45;ci ont pour finalité non pas de classer les élèves</text>
<text text-anchor="middle" x="236.218" y="-542.2577" font-family="Times,serif" font-size="20.00" fill="#000000">ou les établissements, mais d&#39;identifier les problèmes</text>
<text text-anchor="middle" x="236.218" y="-518.2577" font-family="Times,serif" font-size="20.00" fill="#000000">et de permettre une discussion collective afin</text>
<text text-anchor="middle" x="236.218" y="-494.2577" font-family="Times,serif" font-size="20.00" fill="#000000">de pouvoir élaborer des solutions appropriées</text>
</g>
<!-- pb2 -->
<g id="node3" class="node">
<title>pb2</title>
<path fill="#ffffff" stroke="#000000" d="M866.4141,-660.9578C866.4141,-660.9578 604.0219,-660.9578 604.0219,-660.9578 598.0219,-660.9578 592.0219,-654.9578 592.0219,-648.9578 592.0219,-648.9578 592.0219,-543.5575 592.0219,-543.5575 592.0219,-537.5575 598.0219,-531.5575 604.0219,-531.5575 604.0219,-531.5575 866.4141,-531.5575 866.4141,-531.5575 872.4141,-531.5575 878.4141,-537.5575 878.4141,-543.5575 878.4141,-543.5575 878.4141,-648.9578 878.4141,-648.9578 878.4141,-654.9578 872.4141,-660.9578 866.4141,-660.9578"/>
<text text-anchor="middle" x="735.218" y="-632.2577" font-family="Times,serif" font-size="24.00" fill="#000000">(A2) Noter les élèves</text>
<text text-anchor="middle" x="735.218" y="-603.4577" font-family="Times,serif" font-size="24.00" fill="#000000">permet d’évaluer de façon</text>
<text text-anchor="middle" x="735.218" y="-574.6577" font-family="Times,serif" font-size="24.00" fill="#000000">précise et objective les</text>
<text text-anchor="middle" x="735.218" y="-545.8577" font-family="Times,serif" font-size="24.00" fill="#000000">compétences des élèves</text>
</g>
<!-- ob2&#45;&gt;pb2 -->
<g id="edge1" class="edge">
<title>ob2&#45;&gt;pb2</title>
<path fill="none" stroke="#cd0000" stroke-width=".8" d="M480.701,-596.2577C518.8402,-596.2577 557.1358,-596.2577 592.021,-596.2577"/>
<polygon fill="#cd0000" stroke="#cd0000" stroke-width=".8" points="480.5662,-593.4578 472.5662,-596.2577 480.5662,-599.0578 480.5662,-593.4578"/>
<text text-anchor="middle" x="532.278" y="-603.4577" font-family="Times,serif" font-size="14.00" fill="#8b0000"> Mais …</text>
</g>
<!-- ob3 -->
<g id="node2" class="node">
<title>ob3</title>
<path fill="#ffffff" stroke="#cd0000" d="M460.094,-444.2577C460.094,-444.2577 32.342,-444.2577 32.342,-444.2577 26.342,-444.2577 20.342,-438.2577 20.342,-432.2577 20.342,-432.2577 20.342,-274.2577 20.342,-274.2577 20.342,-268.2577 26.342,-262.2577 32.342,-262.2577 32.342,-262.2577 460.094,-262.2577 460.094,-262.2577 466.094,-262.2577 472.094,-268.2577 472.094,-274.2577 472.094,-274.2577 472.094,-432.2577 472.094,-432.2577 472.094,-438.2577 466.094,-444.2577 460.094,-444.2577"/>
<text text-anchor="middle" x="246.218" y="-419.2577" font-family="Times,serif" font-size="20.00" fill="#000000">Il existe d&#39;autres pratiques pour évaluer de façon plus</text>
<text text-anchor="middle" x="246.218" y="-395.2577" font-family="Times,serif" font-size="20.00" fill="#000000">précise et objective les compétences des élèves : les</text>
<text text-anchor="middle" x="246.218" y="-371.2577" font-family="Times,serif" font-size="20.00" fill="#000000">conseils plutôt que les notes ; l&#39;évaluation formative</text>
<text text-anchor="middle" x="246.218" y="-347.2577" font-family="Times,serif" font-size="20.00" fill="#000000">pour entraîner plutôt que l&#39;évaluation sommative</text>
<text text-anchor="middle" x="246.218" y="-323.2577" font-family="Times,serif" font-size="20.00" fill="#000000">pour sélectionner ; l&#39;évaluation préparée, par contrat</text>
<text text-anchor="middle" x="246.218" y="-299.2577" font-family="Times,serif" font-size="20.00" fill="#000000">de confiance, et que l&#39;on peut repasser, plutôt qu&#39;une</text>
<text text-anchor="middle" x="246.218" y="-275.2577" font-family="Times,serif" font-size="20.00" fill="#000000">note qui fonctionne comme un couperet définitif</text>
</g>
<!-- pb3 -->
<g id="node4" class="node">
<title>pb3</title>
<path fill="#ffffff" stroke="#000000" d="M904.6084,-417.9578C904.6084,-417.9578 583.8276,-417.9578 583.8276,-417.9578 577.8276,-417.9578 571.8276,-411.9578 571.8276,-405.9578 571.8276,-405.9578 571.8276,-300.5575 571.8276,-300.5575 571.8276,-294.5575 577.8276,-288.5575 583.8276,-288.5575 583.8276,-288.5575 904.6084,-288.5575 904.6084,-288.5575 910.6084,-288.5575 916.6084,-294.5575 916.6084,-300.5575 916.6084,-300.5575 916.6084,-405.9578 916.6084,-405.9578 916.6084,-411.9578 910.6084,-417.9578 904.6084,-417.9578"/>
<text text-anchor="middle" x="744.218" y="-389.2577" font-family="Times,serif" font-size="24.00" fill="#000000">(A3) Si on ne note pas les élèves,</text>
<text text-anchor="middle" x="744.218" y="-360.4577" font-family="Times,serif" font-size="24.00" fill="#000000">alors on ne peut pas évaluer</text>
<text text-anchor="middle" x="744.218" y="-331.6577" font-family="Times,serif" font-size="24.00" fill="#000000">de façon précise et objective</text>
<text text-anchor="middle" x="744.218" y="-302.8577" font-family="Times,serif" font-size="24.00" fill="#000000">les compétences des élèves</text>
</g>
<!-- ob3&#45;&gt;pb3 -->
<g id="edge2" class="edge">
<title>ob3&#45;&gt;pb3</title>
<path fill="none" stroke="#cd0000" stroke-width=".8" d="M480.5046,-353.2577C511.2602,-353.2577 542.3163,-353.2577 571.7871,-353.2577"/>
<polygon fill="#cd0000" stroke="#cd0000" stroke-width=".8" points="480.268,-350.4578 472.268,-353.2577 480.268,-356.0578 480.268,-350.4578"/>
<text text-anchor="middle" x="521.9644" y="-360.4577" font-family="Times,serif" font-size="14.00" fill="#8b0000"> Mais …</text>
</g>
<!-- pb2&#45;&gt;pb3 -->
<!-- C -->
<g id="node9" class="node">
<title>C</title>
<ellipse fill="#000000" stroke="#000000" cx="944.218" cy="-98.6288" rx="90.0079" ry="50.758"/>
<text text-anchor="middle" x="944.218" y="-105.8288" font-family="Times,serif" font-size="24.00" fill="#ffffff">Il faut noter</text>
<text text-anchor="middle" x="944.218" y="-77.0288" font-family="Times,serif" font-size="24.00" fill="#ffffff">les élèves</text>
</g>
<!-- pb3&#45;&gt;C -->
<g id="edge8" class="edge">
<title>pb3:s&#45;&gt;C:en</title>
<path fill="none" stroke="#000000" d="M745.947,-268.6599C756.5857,-208.7741 814.3708,-163.7104 864.8338,-135.073"/>
<polygon fill="#000000" stroke="#000000" points="866.6521,-138.067 873.7055,-130.1613 863.2615,-131.9429 866.6521,-138.067"/>
<text text-anchor="middle" x="752.3573" y="-207.2317" font-family="Times,serif" font-size="15.00" fill="#666666">Par</text>
<text text-anchor="middle" x="752.3573" y="-189.2317" font-family="Times,serif" font-size="15.00" fill="#666666">conséquent …</text>
</g>
<!-- p1 -->
<g id="node5" class="node">
<title>p1</title>
<path fill="#ffffff" stroke="#000000" d="M1276.0612,-848.8585C1276.0612,-848.8585 1008.3748,-848.8585 1008.3748,-848.8585 1002.3748,-848.8585 996.3748,-842.8585 996.3748,-836.8585 996.3748,-836.8585 996.3748,-760.0569 996.3748,-760.0569 996.3748,-754.0569 1002.3748,-748.0569 1008.3748,-748.0569 1008.3748,-748.0569 1276.0612,-748.0569 1276.0612,-748.0569 1282.0612,-748.0569 1288.0612,-754.0569 1288.0612,-760.0569 1288.0612,-760.0569 1288.0612,-836.8585 1288.0612,-836.8585 1288.0612,-842.8585 1282.0612,-848.8585 1276.0612,-848.8585"/>
<text text-anchor="middle" x="1142.218" y="-820.0577" font-family="Times,serif" font-size="24.00" fill="#000000">(B1) Il est essentiel</text>
<text text-anchor="middle" x="1142.218" y="-791.2577" font-family="Times,serif" font-size="24.00" fill="#000000">de motiver les élèves à</text>
<text text-anchor="middle" x="1142.218" y="-762.4577" font-family="Times,serif" font-size="24.00" fill="#000000">améliorer leurs compétences</text>
</g>
<!-- p2 -->
<g id="node6" class="node">
<title>p2</title>
<path fill="#ffffff" stroke="#000000" d="M1245.4517,-660.9578C1245.4517,-660.9578 1040.9843,-660.9578 1040.9843,-660.9578 1034.9843,-660.9578 1028.9843,-654.9578 1028.9843,-648.9578 1028.9843,-648.9578 1028.9843,-543.5575 1028.9843,-543.5575 1028.9843,-537.5575 1034.9843,-531.5575 1040.9843,-531.5575 1040.9843,-531.5575 1245.4517,-531.5575 1245.4517,-531.5575 1251.4517,-531.5575 1257.4517,-537.5575 1257.4517,-543.5575 1257.4517,-543.5575 1257.4517,-648.9578 1257.4517,-648.9578 1257.4517,-654.9578 1251.4517,-660.9578 1245.4517,-660.9578"/>
<text text-anchor="middle" x="1143.218" y="-632.2577" font-family="Times,serif" font-size="24.00" fill="#000000">(B2) Noter les élèves</text>
<text text-anchor="middle" x="1143.218" y="-603.4577" font-family="Times,serif" font-size="24.00" fill="#000000">permet de motiver les</text>
<text text-anchor="middle" x="1143.218" y="-574.6577" font-family="Times,serif" font-size="24.00" fill="#000000">élèves à améliorer</text>
<text text-anchor="middle" x="1143.218" y="-545.8577" font-family="Times,serif" font-size="24.00" fill="#000000">leurs compétences</text>
</g>
<!-- p1&#45;&gt;p2 -->
<!-- p3 -->
<g id="node7" class="node">
<title>p3</title>
<path fill="#ffffff" stroke="#000000" d="M1274.7823,-417.9578C1274.7823,-417.9578 1011.6537,-417.9578 1011.6537,-417.9578 1005.6537,-417.9578 999.6537,-411.9578 999.6537,-405.9578 999.6537,-405.9578 999.6537,-300.5575 999.6537,-300.5575 999.6537,-294.5575 1005.6537,-288.5575 1011.6537,-288.5575 1011.6537,-288.5575 1274.7823,-288.5575 1274.7823,-288.5575 1280.7823,-288.5575 1286.7823,-294.5575 1286.7823,-300.5575 1286.7823,-300.5575 1286.7823,-405.9578 1286.7823,-405.9578 1286.7823,-411.9578 1280.7823,-417.9578 1274.7823,-417.9578"/>
<text text-anchor="middle" x="1143.218" y="-389.2577" font-family="Times,serif" font-size="24.00" fill="#000000">(B3) Si on ne note pas les</text>
<text text-anchor="middle" x="1143.218" y="-360.4577" font-family="Times,serif" font-size="24.00" fill="#000000">élèves, alors on ne peut pas</text>
<text text-anchor="middle" x="1143.218" y="-331.6577" font-family="Times,serif" font-size="24.00" fill="#000000">les motiver à améliorer</text>
<text text-anchor="middle" x="1143.218" y="-302.8577" font-family="Times,serif" font-size="24.00" fill="#000000">leurs compétences</text>
</g>
<!-- p2&#45;&gt;p3 -->
<!-- o2 -->
<g id="node10" class="node">
<title>o2</title>
<path fill="#ffffff" stroke="#cd0000" d="M1860.692,-711.2577C1860.692,-711.2577 1399.744,-711.2577 1399.744,-711.2577 1393.744,-711.2577 1387.744,-705.2577 1387.744,-699.2577 1387.744,-699.2577 1387.744,-493.2577 1387.744,-493.2577 1387.744,-487.2577 1393.744,-481.2577 1399.744,-481.2577 1399.744,-481.2577 1860.692,-481.2577 1860.692,-481.2577 1866.692,-481.2577 1872.692,-487.2577 1872.692,-493.2577 1872.692,-493.2577 1872.692,-699.2577 1872.692,-699.2577 1872.692,-705.2577 1866.692,-711.2577 1860.692,-711.2577"/>
<text text-anchor="middle" x="1630.218" y="-686.2577" font-family="Times,serif" font-size="20.00" fill="#000000">L&#39;appel à l&#39;esprit de compétition des élèves, ou du moins</text>
<text text-anchor="middle" x="1630.218" y="-662.2577" font-family="Times,serif" font-size="20.00" fill="#000000">à leur désir de se situer par rapport aux autres n&#39;a que</text>
<text text-anchor="middle" x="1630.218" y="-638.2577" font-family="Times,serif" font-size="20.00" fill="#000000">peu de pertinence : l&#39;argument n&#39;est valable que pour</text>
<text text-anchor="middle" x="1630.218" y="-614.2577" font-family="Times,serif" font-size="20.00" fill="#000000">quelques élèves, il masque les effets délétères du</text>
<text text-anchor="middle" x="1630.218" y="-590.2577" font-family="Times,serif" font-size="20.00" fill="#000000">classement et de la comparaison sociale sur un grand</text>
<text text-anchor="middle" x="1630.218" y="-566.2577" font-family="Times,serif" font-size="20.00" fill="#000000">nombre d&#39;élèves, notamment sur les plus fragiles, enfin</text>
<text text-anchor="middle" x="1630.218" y="-542.2577" font-family="Times,serif" font-size="20.00" fill="#000000">il néglige le fait que la focalisation sur la note peut</text>
<text text-anchor="middle" x="1630.218" y="-518.2577" font-family="Times,serif" font-size="20.00" fill="#000000">inciter à un apprentissage superficiel, à un désintérêt</text>
<text text-anchor="middle" x="1630.218" y="-494.2577" font-family="Times,serif" font-size="20.00" fill="#000000">pour le contenu enseigné, ou même à la triche</text>
</g>
<!-- p2&#45;&gt;o2 -->
<g id="edge9" class="edge">
<title>p2&#45;&gt;o2</title>
<path fill="none" stroke="#cd0000" stroke-width=".8" d="M1257.3979,-596.2577C1294.242,-596.2577 1336.6509,-596.2577 1379.3619,-596.2577"/>
<polygon fill="#cd0000" stroke="#cd0000" stroke-width=".8" points="1379.6223,-599.0578 1387.6223,-596.2577 1379.6222,-593.4578 1379.6223,-599.0578"/>
<text text-anchor="middle" x="1322.5329" y="-603.4577" font-family="Times,serif" font-size="14.00" fill="#8b0000"> Mais …</text>
</g>
<!-- p3&#45;&gt;C -->
<g id="edge7" class="edge">
<title>p3:s&#45;&gt;C:wn</title>
<path fill="none" stroke="#000000" d="M1141.4897,-268.6627C1130.9028,-209.0376 1073.6105,-164.0184 1023.4767,-135.3303"/>
<polygon fill="#000000" stroke="#000000" points="1025.0955,-132.2256 1014.658,-130.4066 1021.6831,-138.3375 1025.0955,-132.2256"/>
<text text-anchor="middle" x="1048.194" y="-207.4869" font-family="Times,serif" font-size="15.00" fill="#666666">Par</text>
<text text-anchor="middle" x="1048.194" y="-189.4869" font-family="Times,serif" font-size="15.00" fill="#666666">conséquent …</text>
</g>
<!-- o3 -->
<g id="node11" class="node">
<title>o3</title>
<path fill="#ffffff" stroke="#cd0000" d="M1744.3202,-396.2577C1744.3202,-396.2577 1400.1158,-396.2577 1400.1158,-396.2577 1394.1158,-396.2577 1388.1158,-390.2577 1388.1158,-384.2577 1388.1158,-384.2577 1388.1158,-322.2577 1388.1158,-322.2577 1388.1158,-316.2577 1394.1158,-310.2577 1400.1158,-310.2577 1400.1158,-310.2577 1744.3202,-310.2577 1744.3202,-310.2577 1750.3202,-310.2577 1756.3202,-316.2577 1756.3202,-322.2577 1756.3202,-322.2577 1756.3202,-384.2577 1756.3202,-384.2577 1756.3202,-390.2577 1750.3202,-396.2577 1744.3202,-396.2577"/>
<text text-anchor="middle" x="1572.218" y="-371.2577" font-family="Times,serif" font-size="20.00" fill="#000000">Il est possible de motiver les élèves par des</text>
<text text-anchor="middle" x="1572.218" y="-347.2577" font-family="Times,serif" font-size="20.00" fill="#000000">facteurs intrinsèques aux apprentissages</text>
<text text-anchor="middle" x="1572.218" y="-323.2577" font-family="Times,serif" font-size="20.00" fill="#000000">et non par des facteurs extrinsèques</text>
</g>
<!-- p3&#45;&gt;o3 -->
<g id="edge10" class="edge">
<title>p3&#45;&gt;o3</title>
<path fill="none" stroke="#cd0000" stroke-width=".8" d="M1286.9637,-353.2577C1316.6924,-353.2577 1348.4631,-353.2577 1379.6115,-353.2577"/>
<polygon fill="#cd0000" stroke="#cd0000" stroke-width=".8" points="1379.9452,-356.0578 1387.9452,-353.2577 1379.9451,-350.4578 1379.9452,-356.0578"/>
<text text-anchor="middle" x="1337.4585" y="-360.4577" font-family="Times,serif" font-size="14.00" fill="#8b0000"> Mais …</text>
</g>
<!-- pb1 -->
<g id="node8" class="node">
<title>pb1</title>
<path fill="#ffffff" stroke="#000000" d="M877.7496,-848.8585C877.7496,-848.8585 592.6864,-848.8585 592.6864,-848.8585 586.6864,-848.8585 580.6864,-842.8585 580.6864,-836.8585 580.6864,-836.8585 580.6864,-760.0569 580.6864,-760.0569 580.6864,-754.0569 586.6864,-748.0569 592.6864,-748.0569 592.6864,-748.0569 877.7496,-748.0569 877.7496,-748.0569 883.7496,-748.0569 889.7496,-754.0569 889.7496,-760.0569 889.7496,-760.0569 889.7496,-836.8585 889.7496,-836.8585 889.7496,-842.8585 883.7496,-848.8585 877.7496,-848.8585"/>
<text text-anchor="middle" x="735.218" y="-820.0577" font-family="Times,serif" font-size="24.00" fill="#000000">(A1) Il est essentiel d’évaluer</text>
<text text-anchor="middle" x="735.218" y="-791.2577" font-family="Times,serif" font-size="24.00" fill="#000000">de façon précise et objective</text>
<text text-anchor="middle" x="735.218" y="-762.4577" font-family="Times,serif" font-size="24.00" fill="#000000">les compétences des élèves</text>
</g>
<!-- pb1&#45;&gt;pb2 -->
</g>
</svg>
