<?xml version="1.0" encoding="UTF-8" standalone="no"?>
<!DOCTYPE svg PUBLIC "-//W3C//DTD SVG 1.1//EN"
 "http://www.w3.org/Graphics/SVG/1.1/DTD/svg11.dtd">
<!-- Generated by graphviz version 2.40.1 (20161225.0304)
 -->
<!-- Title: G Pages: 1 -->
<svg width="1138pt" height="840pt"
 viewBox="0.00 0.00 1138.02 839.59" xmlns="http://www.w3.org/2000/svg" xmlns:xlink="http://www.w3.org/1999/xlink">
<g id="graph0" class="graph" transform="scale(1 1) rotate(0) translate(4 835.587)">
<title>G</title>
<polygon fill="#ffffff" stroke="transparent" points="-4,4 -4,-835.587 1134.0163,-835.587 1134.0163,4 -4,4"/>
<text text-anchor="start" x="8" y="-805.187" font-family="Times,serif" font-weight="bold" font-size="26.00" fill="#000000">   Examen critique de la démarche de l&#39;altruisme efficace : quelques objections à prendre en compte</text>
<text text-anchor="start" x="67.8695" y="-783.187" font-family="Times,serif" font-size="16.00" fill="#000000">(à partir de : Iason Gabriel, </text>
<text text-anchor="start" x="247.3447" y="-783.187" font-family="Times,serif" font-style="italic" font-size="16.00" fill="#000000">“Effective Altruism and Its Critics”</text>
<text text-anchor="start" x="484.6151" y="-783.187" font-family="Times,serif" font-size="16.00" fill="#000000">et du travail de John Danaher : </text>
<text text-anchor="start" x="684.9895" y="-783.187" font-family="Times,serif" font-style="italic" font-size="16.00" fill="#000000">“The Philosophical Merits of Effective Altruism”)</text>
<g id="clust1" class="cluster">
<title>cluster_0</title>
<path fill="#e5e5e5" stroke="#7f7f7f" d="M278.0163,-272.4C278.0163,-272.4 1110.0163,-272.4 1110.0163,-272.4 1116.0163,-272.4 1122.0163,-278.4 1122.0163,-284.4 1122.0163,-284.4 1122.0163,-724.587 1122.0163,-724.587 1122.0163,-730.587 1116.0163,-736.587 1110.0163,-736.587 1110.0163,-736.587 278.0163,-736.587 278.0163,-736.587 272.0163,-736.587 266.0163,-730.587 266.0163,-724.587 266.0163,-724.587 266.0163,-284.4 266.0163,-284.4 266.0163,-278.4 272.0163,-272.4 278.0163,-272.4"/>
</g>
<!-- C -->
<g id="node1" class="node">
<title>C</title>
<ellipse fill="#000000" stroke="#000000" cx="678.0163" cy="-625.5935" rx="141.18" ry="70.987"/>
<text text-anchor="middle" x="678.0163" y="-647.1935" font-family="Times,serif" font-size="24.00" fill="#ffffff">Il faut adopter</text>
<text text-anchor="middle" x="678.0163" y="-618.3935" font-family="Times,serif" font-size="24.00" fill="#ffffff">la démarche de</text>
<text text-anchor="middle" x="678.0163" y="-589.5935" font-family="Times,serif" font-size="24.00" fill="#ffffff">l&#39;altruisme efficace</text>
</g>
<!-- p1 -->
<g id="node2" class="node">
<title>p1</title>
<path fill="#ffffff" stroke="#000000" d="M505.9587,-427.4008C505.9587,-427.4008 318.0739,-427.4008 318.0739,-427.4008 312.0739,-427.4008 306.0739,-421.4008 306.0739,-415.4008 306.0739,-415.4008 306.0739,-338.5992 306.0739,-338.5992 306.0739,-332.5992 312.0739,-326.5992 318.0739,-326.5992 318.0739,-326.5992 505.9587,-326.5992 505.9587,-326.5992 511.9587,-326.5992 517.9587,-332.5992 517.9587,-338.5992 517.9587,-338.5992 517.9587,-415.4008 517.9587,-415.4008 517.9587,-421.4008 511.9587,-427.4008 505.9587,-427.4008"/>
<text text-anchor="middle" x="412.0163" y="-398.6" font-family="Times,serif" font-size="24.00" fill="#000000">(1) Il faut évaluer</text>
<text text-anchor="middle" x="412.0163" y="-369.8" font-family="Times,serif" font-size="24.00" fill="#000000">l&#39;efficacité des</text>
<text text-anchor="middle" x="412.0163" y="-341" font-family="Times,serif" font-size="24.00" fill="#000000">actions humanitaires</text>
</g>
<!-- C&#45;&gt;p1 -->
<g id="edge1" class="edge">
<title>C&#45;&gt;p1</title>
<path fill="none" stroke="#000000" d="M610.8933,-562.8629C568.7306,-523.4593 514.7511,-473.0121 473.6707,-434.6199"/>
<polygon fill="#000000" stroke="#000000" points="475.8519,-431.8677 466.156,-427.5969 471.0723,-436.982 475.8519,-431.8677"/>
<text text-anchor="middle" x="494.8859" y="-517.7222" font-family="Times,serif" font-size="15.00" fill="#666666">Par</text>
<text text-anchor="middle" x="494.8859" y="-499.7222" font-family="Times,serif" font-size="15.00" fill="#666666">conséquent …</text>
</g>
<!-- p2 -->
<g id="node3" class="node">
<title>p2</title>
<path fill="#ffffff" stroke="#000000" d="M790.242,-441.7002C790.242,-441.7002 565.7906,-441.7002 565.7906,-441.7002 559.7906,-441.7002 553.7906,-435.7002 553.7906,-429.7002 553.7906,-429.7002 553.7906,-324.2998 553.7906,-324.2998 553.7906,-318.2998 559.7906,-312.2998 565.7906,-312.2998 565.7906,-312.2998 790.242,-312.2998 790.242,-312.2998 796.242,-312.2998 802.242,-318.2998 802.242,-324.2998 802.242,-324.2998 802.242,-429.7002 802.242,-429.7002 802.242,-435.7002 796.242,-441.7002 790.242,-441.7002"/>
<text text-anchor="middle" x="678.0163" y="-413" font-family="Times,serif" font-size="24.00" fill="#000000">(2) Il est possible</text>
<text text-anchor="middle" x="678.0163" y="-384.2" font-family="Times,serif" font-size="24.00" fill="#000000">d&#39;évaluer objectivement</text>
<text text-anchor="middle" x="678.0163" y="-355.4" font-family="Times,serif" font-size="24.00" fill="#000000">l&#39;efficacité des</text>
<text text-anchor="middle" x="678.0163" y="-326.6" font-family="Times,serif" font-size="24.00" fill="#000000">actions humanitaires</text>
</g>
<!-- C&#45;&gt;p2 -->
<g id="edge2" class="edge">
<title>C&#45;&gt;p2</title>
<path fill="none" stroke="#000000" d="M678.0163,-554.3566C678.0163,-522.3792 678.0163,-484.6337 678.0163,-452.2016"/>
<polygon fill="#000000" stroke="#000000" points="681.5164,-451.8724 678.0163,-441.8725 674.5164,-451.8725 681.5164,-451.8724"/>
<text text-anchor="middle" x="634.3858" y="-520.6211" font-family="Times,serif" font-size="15.00" fill="#666666">Par</text>
<text text-anchor="middle" x="634.3858" y="-502.6211" font-family="Times,serif" font-size="15.00" fill="#666666">conséquent …</text>
</g>
<!-- p3 -->
<g id="node4" class="node">
<title>p3</title>
<path fill="#ffffff" stroke="#000000" d="M1070.1158,-427.4008C1070.1158,-427.4008 849.9168,-427.4008 849.9168,-427.4008 843.9168,-427.4008 837.9168,-421.4008 837.9168,-415.4008 837.9168,-415.4008 837.9168,-338.5992 837.9168,-338.5992 837.9168,-332.5992 843.9168,-326.5992 849.9168,-326.5992 849.9168,-326.5992 1070.1158,-326.5992 1070.1158,-326.5992 1076.1158,-326.5992 1082.1158,-332.5992 1082.1158,-338.5992 1082.1158,-338.5992 1082.1158,-415.4008 1082.1158,-415.4008 1082.1158,-421.4008 1076.1158,-427.4008 1070.1158,-427.4008"/>
<text text-anchor="middle" x="960.0163" y="-398.6" font-family="Times,serif" font-size="24.00" fill="#000000">(3) Il faut accomplir</text>
<text text-anchor="middle" x="960.0163" y="-369.8" font-family="Times,serif" font-size="24.00" fill="#000000">les actions humanitaires</text>
<text text-anchor="middle" x="960.0163" y="-341" font-family="Times,serif" font-size="24.00" fill="#000000">les plus efficaces</text>
</g>
<!-- C&#45;&gt;p3 -->
<g id="edge3" class="edge">
<title>C&#45;&gt;p3</title>
<path fill="none" stroke="#000000" d="M748.0865,-563.824C793.0199,-524.2135 850.9481,-473.1477 894.8823,-434.418"/>
<polygon fill="#000000" stroke="#000000" points="897.4518,-436.8188 902.6387,-427.5805 892.8228,-431.5678 897.4518,-436.8188"/>
<text text-anchor="middle" x="781.8261" y="-518.1194" font-family="Times,serif" font-size="15.00" fill="#666666">Par</text>
<text text-anchor="middle" x="781.8261" y="-500.1194" font-family="Times,serif" font-size="15.00" fill="#666666">conséquent …</text>
</g>
<!-- p1&#45;&gt;p2 -->
<!-- o1 -->
<g id="node5" class="node">
<title>o1</title>
<path fill="#ffffff" stroke="#cd0000" d="M450.0489,-186.7001C450.0489,-186.7001 11.9837,-186.7001 11.9837,-186.7001 5.9837,-186.7001 -.0163,-180.7001 -.0163,-174.7001 -.0163,-174.7001 -.0163,-12.0999 -.0163,-12.0999 -.0163,-6.0999 5.9837,-.0999 11.9837,-.0999 11.9837,-.0999 450.0489,-.0999 450.0489,-.0999 456.0489,-.0999 462.0489,-6.0999 462.0489,-12.0999 462.0489,-12.0999 462.0489,-174.7001 462.0489,-174.7001 462.0489,-180.7001 456.0489,-186.7001 450.0489,-186.7001"/>
<text text-anchor="middle" x="231.0163" y="-163.6" font-family="Times,serif" font-size="18.00" fill="#000000">Vouloir toujours évaluer l&#39;efficacité des actions humanitaires</text>
<text text-anchor="middle" x="231.0163" y="-142" font-family="Times,serif" font-size="18.00" fill="#000000">peut être contre&#45;productif : la surévaluation de la démarche</text>
<text text-anchor="middle" x="231.0163" y="-120.4" font-family="Times,serif" font-size="18.00" fill="#000000">rationnelle peut conduire à mettre en doute l&#39;impact réel</text>
<text text-anchor="middle" x="231.0163" y="-98.8" font-family="Times,serif" font-size="18.00" fill="#000000">d&#39;un acte altruiste individuel, à négliger l&#39;importance des</text>
<text text-anchor="middle" x="231.0163" y="-77.2" font-family="Times,serif" font-size="18.00" fill="#000000">facteurs affectifs, et à véhiculer une conception de l&#39;altruisme</text>
<text text-anchor="middle" x="231.0163" y="-55.6" font-family="Times,serif" font-size="18.00" fill="#000000">qui cherche davantage à se rassurer sur l&#39;importance morale</text>
<text text-anchor="middle" x="231.0163" y="-34" font-family="Times,serif" font-size="18.00" fill="#000000">de son action, que sur la mise en œuvre politique et</text>
<text text-anchor="middle" x="231.0163" y="-12.4" font-family="Times,serif" font-size="18.00" fill="#000000">collective de changements systémiques essentiels</text>
</g>
<!-- p1&#45;&gt;o1 -->
<g id="edge6" class="edge">
<title>p1&#45;&gt;o1</title>
<path fill="none" stroke="#cd0000" stroke-width=".8" d="M379.8657,-326.6248C356.3856,-289.8349 323.7704,-238.7318 295.053,-193.736"/>
<polygon fill="#cd0000" stroke="#cd0000" stroke-width=".8" points="297.3272,-192.0947 290.663,-186.8575 292.6067,-195.1075 297.3272,-192.0947"/>
<text text-anchor="middle" x="361.7627" y="-229.2" font-family="Times,serif" font-size="18.00" fill="#8b0000"> &#160;Mais …</text>
</g>
<!-- p2&#45;&gt;p3 -->
<!-- o2 -->
<g id="node6" class="node">
<title>o2</title>
<path fill="#ffffff" stroke="#cd0000" d="M864.1365,-186.7001C864.1365,-186.7001 491.8961,-186.7001 491.8961,-186.7001 485.8961,-186.7001 479.8961,-180.7001 479.8961,-174.7001 479.8961,-174.7001 479.8961,-12.0999 479.8961,-12.0999 479.8961,-6.0999 485.8961,-.0999 491.8961,-.0999 491.8961,-.0999 864.1365,-.0999 864.1365,-.0999 870.1365,-.0999 876.1365,-6.0999 876.1365,-12.0999 876.1365,-12.0999 876.1365,-174.7001 876.1365,-174.7001 876.1365,-180.7001 870.1365,-186.7001 864.1365,-186.7001"/>
<text text-anchor="middle" x="678.0163" y="-163.6" font-family="Times,serif" font-size="18.00" fill="#000000">L&#39;évaluation des actions humanitaires en fonction de</text>
<text text-anchor="middle" x="678.0163" y="-142" font-family="Times,serif" font-size="18.00" fill="#000000">leur efficacité a tendance à créer un biais en faveur</text>
<text text-anchor="middle" x="678.0163" y="-120.4" font-family="Times,serif" font-size="18.00" fill="#000000">des actions quantifiables, ciblées et menées par des</text>
<text text-anchor="middle" x="678.0163" y="-98.8" font-family="Times,serif" font-size="18.00" fill="#000000">experts, ce qui peut conduire à ne pas prendre en</text>
<text text-anchor="middle" x="678.0163" y="-77.2" font-family="Times,serif" font-size="18.00" fill="#000000">compte des actions moins ou non quantifiables,</text>
<text text-anchor="middle" x="678.0163" y="-55.6" font-family="Times,serif" font-size="18.00" fill="#000000">d&#39;envergure plus importante, ou conduites</text>
<text text-anchor="middle" x="678.0163" y="-34" font-family="Times,serif" font-size="18.00" fill="#000000">par des associations locales avec un mode</text>
<text text-anchor="middle" x="678.0163" y="-12.4" font-family="Times,serif" font-size="18.00" fill="#000000">d&#39;organisation davantage participatif</text>
</g>
<!-- p2&#45;&gt;o2 -->
<g id="edge7" class="edge">
<title>p2&#45;&gt;o2</title>
<path fill="none" stroke="#cd0000" stroke-width=".8" d="M678.0163,-312.2919C678.0163,-277.6463 678.0163,-234.1793 678.0163,-195.1293"/>
<polygon fill="#cd0000" stroke="#cd0000" stroke-width=".8" points="680.8164,-194.8682 678.0163,-186.8682 675.2164,-194.8683 680.8164,-194.8682"/>
<text text-anchor="middle" x="711.7627" y="-229.2" font-family="Times,serif" font-size="18.00" fill="#8b0000"> &#160;Mais …</text>
</g>
<!-- o3 -->
<g id="node7" class="node">
<title>o3</title>
<path fill="#ffffff" stroke="#cd0000" d="M1103.4335,-165.0006C1103.4335,-165.0006 906.5991,-165.0006 906.5991,-165.0006 900.5991,-165.0006 894.5991,-159.0006 894.5991,-153.0006 894.5991,-153.0006 894.5991,-33.7994 894.5991,-33.7994 894.5991,-27.7994 900.5991,-21.7994 906.5991,-21.7994 906.5991,-21.7994 1103.4335,-21.7994 1103.4335,-21.7994 1109.4335,-21.7994 1115.4335,-27.7994 1115.4335,-33.7994 1115.4335,-33.7994 1115.4335,-153.0006 1115.4335,-153.0006 1115.4335,-159.0006 1109.4335,-165.0006 1103.4335,-165.0006"/>
<text text-anchor="middle" x="1005.0163" y="-142" font-family="Times,serif" font-size="18.00" fill="#000000">L&#39;efficacité n&#39;est pas la</text>
<text text-anchor="middle" x="1005.0163" y="-120.4" font-family="Times,serif" font-size="18.00" fill="#000000">seule valeur importante : il</text>
<text text-anchor="middle" x="1005.0163" y="-98.8" font-family="Times,serif" font-size="18.00" fill="#000000">faut aussi prendre en compte</text>
<text text-anchor="middle" x="1005.0163" y="-77.2" font-family="Times,serif" font-size="18.00" fill="#000000">les considérations d&#39;égalité,</text>
<text text-anchor="middle" x="1005.0163" y="-55.6" font-family="Times,serif" font-size="18.00" fill="#000000">la priorité des besoins,</text>
<text text-anchor="middle" x="1005.0163" y="-34" font-family="Times,serif" font-size="18.00" fill="#000000">et les droits humains</text>
</g>
<!-- p3&#45;&gt;o3 -->
<g id="edge8" class="edge">
<title>p3&#45;&gt;o3</title>
<path fill="none" stroke="#cd0000" stroke-width=".8" d="M968.0095,-326.6248C974.7562,-284.1057 984.5365,-222.4683 992.3484,-173.2361"/>
<polygon fill="#cd0000" stroke="#cd0000" stroke-width=".8" points="995.1455,-173.4746 993.6339,-165.1346 989.6147,-172.5969 995.1455,-173.4746"/>
<text text-anchor="middle" x="1017.7627" y="-229.2" font-family="Times,serif" font-size="18.00" fill="#8b0000"> &#160;Mais …</text>
</g>
</g>
</svg>
