<?xml version="1.0" encoding="UTF-8" standalone="no"?><!DOCTYPE svg PUBLIC "-//W3C//DTD SVG 1.1//EN" "http://www.w3.org/Graphics/SVG/1.1/DTD/svg11.dtd"><!-- Generated by graphviz version 2.40.1 (20161225.0304)
 --><!-- Title: G Pages: 1 --><svg xmlns="http://www.w3.org/2000/svg" xmlns:xlink="http://www.w3.org/1999/xlink" width="519pt" height="547pt" viewBox="0.00 0.00 519.20 546.90">
<g id="remarques+objections_graph0" class="graph" transform="scale(1 1) rotate(0) translate(21.6 525.3008)">
<title>G</title>
<polygon fill="#ffffff" stroke="transparent" points="-21.6,21.6 -21.6,-525.3008 497.6,-525.3008 497.6,21.6 -21.6,21.6"/>
<g id="remarques+objections_clust1" class="cluster">
<title>cluster_0</title>
<path fill="#e5e5e5" stroke="#7f7f7f" d="M91,-8C91,-8 456,-8 456,-8 462,-8 468,-14 468,-20 468,-20 468,-483.7008 468,-483.7008 468,-489.7008 462,-495.7008 456,-495.7008 456,-495.7008 91,-495.7008 91,-495.7008 85,-495.7008 79,-489.7008 79,-483.7008 79,-483.7008 79,-20 79,-20 79,-14 85,-8 91,-8"/>
</g>
<!-- 0 -->
<!-- p1 -->
<g id="remarques+objections_node2_remarques+objections" class="node">
<title>p1</title>
<path fill="#ffffff" stroke="#000000" d="M225.7566,-470.801C225.7566,-470.801 116.2434,-470.801 116.2434,-470.801 110.2434,-470.801 104.2434,-464.801 104.2434,-458.801 104.2434,-458.801 104.2434,-393.4005 104.2434,-393.4005 104.2434,-387.4005 110.2434,-381.4005 116.2434,-381.4005 116.2434,-381.4005 225.7566,-381.4005 225.7566,-381.4005 231.7566,-381.4005 237.7566,-387.4005 237.7566,-393.4005 237.7566,-393.4005 237.7566,-458.801 237.7566,-458.801 237.7566,-464.801 231.7566,-470.801 225.7566,-470.801"/>
<text text-anchor="middle" x="171" y="-447.1008" font-family="Times,serif" font-size="14.00" fill="#000000">Il n'y a pas de</text>
<text text-anchor="middle" x="171" y="-430.3008" font-family="Times,serif" font-size="14.00" fill="#000000">proximité spatiale</text>
<text text-anchor="middle" x="171" y="-413.5008" font-family="Times,serif" font-size="14.00" fill="#000000">entre un état mental</text>
<text text-anchor="middle" x="171" y="-396.7008" font-family="Times,serif" font-size="14.00" fill="#000000">et un état physique</text>
</g>
<!-- p2 -->
<g id="remarques+objections_node3_remarques+objections" class="node">
<title>p2</title>
<path fill="#ffffff" stroke="#000000" d="M430.7566,-470.801C430.7566,-470.801 321.2434,-470.801 321.2434,-470.801 315.2434,-470.801 309.2434,-464.801 309.2434,-458.801 309.2434,-458.801 309.2434,-393.4005 309.2434,-393.4005 309.2434,-387.4005 315.2434,-381.4005 321.2434,-381.4005 321.2434,-381.4005 430.7566,-381.4005 430.7566,-381.4005 436.7566,-381.4005 442.7566,-387.4005 442.7566,-393.4005 442.7566,-393.4005 442.7566,-458.801 442.7566,-458.801 442.7566,-464.801 436.7566,-470.801 430.7566,-470.801"/>
<text text-anchor="middle" x="376" y="-447.1008" font-family="Times,serif" font-size="14.00" fill="#000000">Il n'y a pas de</text>
<text text-anchor="middle" x="376" y="-430.3008" font-family="Times,serif" font-size="14.00" fill="#000000">transfert d'énergie</text>
<text text-anchor="middle" x="376" y="-413.5008" font-family="Times,serif" font-size="14.00" fill="#000000">entre un état mental</text>
<text text-anchor="middle" x="376" y="-396.7008" font-family="Times,serif" font-size="14.00" fill="#000000">et un état physique</text>
</g>
<!-- p1&#45;&gt;p2 -->
<!-- p3 -->
<g id="remarques+objections_node4_remarques+objections" class="node">
<title>p3</title>
<path fill="#ffffff" stroke="#000000" d="M336.3617,-328.601C336.3617,-328.601 209.6383,-328.601 209.6383,-328.601 203.6383,-328.601 197.6383,-322.601 197.6383,-316.601 197.6383,-316.601 197.6383,-251.2005 197.6383,-251.2005 197.6383,-245.2005 203.6383,-239.2005 209.6383,-239.2005 209.6383,-239.2005 336.3617,-239.2005 336.3617,-239.2005 342.3617,-239.2005 348.3617,-245.2005 348.3617,-251.2005 348.3617,-251.2005 348.3617,-316.601 348.3617,-316.601 348.3617,-322.601 342.3617,-328.601 336.3617,-328.601"/>
<text text-anchor="middle" x="273" y="-304.9008" font-family="Times,serif" font-size="14.00" fill="#000000">Il ne peut pas y avoir</text>
<text text-anchor="middle" x="273" y="-288.1008" font-family="Times,serif" font-size="14.00" fill="#000000">de rapport de causalité</text>
<text text-anchor="middle" x="273" y="-271.3008" font-family="Times,serif" font-size="14.00" fill="#000000">entre un état mental et </text>
<text text-anchor="middle" x="273" y="-254.5008" font-family="Times,serif" font-size="14.00" fill="#000000">un état physique</text>
</g>
<!-- p1&#45;&gt;p3 -->
<g id="remarques+objections_edge1" class="edge">
<title>p1-&gt;p3</title>
<path fill="none" stroke="#000000" d="M217.6778,-381.3555C225.1762,-370.9643 233.1053,-357.6212 244.0711,-337.6934"/>
<polygon fill="#000000" stroke="#000000" points="247.2402,-339.1928 248.9642,-328.7391 241.0975,-335.836 247.2402,-339.1928"/>
<text text-anchor="middle" x="205.0784" y="-370.3113" font-family="Times,serif" font-size="10.00" fill="#666666">par</text>
<text text-anchor="middle" x="205.0784" y="-358.3113" font-family="Times,serif" font-size="10.00" fill="#666666">conséquent …</text>
</g>
<!-- p2&#45;&gt;p3 -->
<g id="remarques+objections_edge2" class="edge">
<title>p2-&gt;p3</title>
<path fill="none" stroke="#000000" d="M345.7381,-381.1822C337.931,-370.2384 328.2934,-357.2374 313.0289,-336.9381"/>
<polygon fill="#000000" stroke="#000000" points="315.7057,-334.6743 306.8952,-328.7899 310.1131,-338.8843 315.7057,-334.6743"/>
<text text-anchor="middle" x="297.2845" y="-369.748" font-family="Times,serif" font-size="10.00" fill="#666666">par</text>
<text text-anchor="middle" x="297.2845" y="-357.748" font-family="Times,serif" font-size="10.00" fill="#666666">conséquent …</text>
</g>
<!-- C -->
<g id="remarques+objections_node5_remarques+objections" class="node">
<title>C</title>
<ellipse fill="#000000" stroke="#000000" cx="273" cy="-109.6504" rx="104.9273" ry="76.801"/>
<text text-anchor="middle" x="273" y="-136.6504" font-family="Times,serif" font-size="18.00" fill="#ffffff">L'interaction</text>
<text text-anchor="middle" x="273" y="-115.0504" font-family="Times,serif" font-size="18.00" fill="#ffffff">entre l'esprit et le</text>
<text text-anchor="middle" x="273" y="-93.4504" font-family="Times,serif" font-size="18.00" fill="#ffffff">monde physique </text>
<text text-anchor="middle" x="273" y="-71.8504" font-family="Times,serif" font-size="18.00" fill="#ffffff">pose problème</text>
</g>
<!-- p3&#45;&gt;C -->
<g id="remarques+objections_edge3" class="edge">
<title>p3-&gt;C</title>
<path fill="none" stroke="#000000" d="M280.0882,-239.1382C282.7718,-221.6231 284.6761,-207.8883 285.8011,-196.4505"/>
<polygon fill="#000000" stroke="#000000" points="289.3174,-196.3909 286.6409,-186.1397 282.3405,-195.8226 289.3174,-196.3909"/>
<text text-anchor="middle" x="254.8322" y="-227.5845" font-family="Times,serif" font-size="10.00" fill="#666666">par</text>
<text text-anchor="middle" x="254.8322" y="-215.5845" font-family="Times,serif" font-size="10.00" fill="#666666">conséquent …</text>
</g>
</g>
</svg>