<?xml version="1.0" encoding="UTF-8" standalone="no"?><!DOCTYPE svg PUBLIC "-//W3C//DTD SVG 1.1//EN" "http://www.w3.org/Graphics/SVG/1.1/DTD/svg11.dtd"><!-- Generated by graphviz version 2.40.1 (20161225.0304)
 --><!-- Title: G Pages: 1 --><svg xmlns="http://www.w3.org/2000/svg" xmlns:xlink="http://www.w3.org/1999/xlink" width="1019pt" height="538pt" viewBox="0.00 0.00 1019.08 538.21">
<g id="remarques+objections_graph0" class="graph" transform="scale(1 1) rotate(0) translate(21.6 516.6067)">
<title>G</title>
<polygon fill="#ffffff" stroke="transparent" points="-21.6,21.6 -21.6,-516.6067 997.4803,-516.6067 997.4803,21.6 -21.6,21.6"/>
<g id="remarques+objections_clust3" class="cluster">
<title>cluster_0</title>
<path fill="#e5e5e5" stroke="#7f7f7f" d="M394,-8C394,-8 720,-8 720,-8 726,-8 732,-14 732,-20 732,-20 732,-315.2067 732,-315.2067 732,-321.2067 726,-327.2067 720,-327.2067 720,-327.2067 394,-327.2067 394,-327.2067 388,-327.2067 382,-321.2067 382,-315.2067 382,-315.2067 382,-20 382,-20 382,-14 388,-8 394,-8"/>
</g>
<!-- 0 -->
<!-- o1 -->
<g id="remarques+objections_node2_remarques+objections" class="node">
<title>o1</title>
<path fill="#ffffff" stroke="#ee0000" d="M287.4198,-285.6078C287.4198,-285.6078 176.5802,-285.6078 176.5802,-285.6078 170.5802,-285.6078 164.5802,-279.6078 164.5802,-273.6078 164.5802,-273.6078 164.5802,-224.8056 164.5802,-224.8056 164.5802,-218.8056 170.5802,-212.8056 176.5802,-212.8056 176.5802,-212.8056 287.4198,-212.8056 287.4198,-212.8056 293.4198,-212.8056 299.4198,-218.8056 299.4198,-224.8056 299.4198,-224.8056 299.4198,-273.6078 299.4198,-273.6078 299.4198,-279.6078 293.4198,-285.6078 287.4198,-285.6078"/>
<text text-anchor="middle" x="232" y="-261.8067" font-family="Times,serif" font-size="14.00" fill="#000000">Tous les désaccords</text>
<text text-anchor="middle" x="232" y="-245.0067" font-family="Times,serif" font-size="14.00" fill="#000000">moraux ne sont</text>
<text text-anchor="middle" x="232" y="-228.2067" font-family="Times,serif" font-size="14.00" fill="#000000">pas irréductibles</text>
</g>
<!-- p2 -->
<g id="remarques+objections_node3_remarques+objections" class="node">
<title>p2</title>
<path fill="#ffffff" stroke="#000000" d="M520.7794,-302.2067C520.7794,-302.2067 419.2206,-302.2067 419.2206,-302.2067 413.2206,-302.2067 407.2206,-296.2067 407.2206,-290.2067 407.2206,-290.2067 407.2206,-208.2067 407.2206,-208.2067 407.2206,-202.2067 413.2206,-196.2067 419.2206,-196.2067 419.2206,-196.2067 520.7794,-196.2067 520.7794,-196.2067 526.7794,-196.2067 532.7794,-202.2067 532.7794,-208.2067 532.7794,-208.2067 532.7794,-290.2067 532.7794,-290.2067 532.7794,-296.2067 526.7794,-302.2067 520.7794,-302.2067"/>
<text text-anchor="middle" x="470" y="-278.6067" font-family="Times,serif" font-size="14.00" fill="#000000">La diversité des</text>
<text text-anchor="middle" x="470" y="-261.8067" font-family="Times,serif" font-size="14.00" fill="#000000">croyances morales</text>
<text text-anchor="middle" x="470" y="-245.0067" font-family="Times,serif" font-size="14.00" fill="#000000">conduit à des</text>
<text text-anchor="middle" x="470" y="-228.2067" font-family="Times,serif" font-size="14.00" fill="#000000">désaccords</text>
<text text-anchor="middle" x="470" y="-211.4067" font-family="Times,serif" font-size="14.00" fill="#000000">irréductibles</text>
</g>
<!-- o1&#45;&gt;p2 -->
<g id="remarques+objections_edge1" class="edge">
<title>o1-&gt;p2</title>
<path fill="none" stroke="#cd0000" stroke-width=".8" d="M309.6356,-249.6489C331.5284,-249.6638 359.3719,-249.5902 406.9,-249.4283"/>
<polygon fill="#cd0000" stroke="#cd0000" stroke-width=".8" points="309.6321,-246.149 299.6273,-249.6351 309.6224,-253.149 309.6321,-246.149"/>
<text text-anchor="middle" x="327.0867" y="-252.605" font-family="Times,serif" font-size="10.00" fill="#666666">objection !</text>
</g>
<!-- p3 -->
<g id="remarques+objections_node5_remarques+objections" class="node">
<title>p3</title>
<path fill="#ffffff" stroke="#000000" d="M695.0822,-302.2067C695.0822,-302.2067 562.9178,-302.2067 562.9178,-302.2067 556.9178,-302.2067 550.9178,-296.2067 550.9178,-290.2067 550.9178,-290.2067 550.9178,-208.2067 550.9178,-208.2067 550.9178,-202.2067 556.9178,-196.2067 562.9178,-196.2067 562.9178,-196.2067 695.0822,-196.2067 695.0822,-196.2067 701.0822,-196.2067 707.0822,-202.2067 707.0822,-208.2067 707.0822,-208.2067 707.0822,-290.2067 707.0822,-290.2067 707.0822,-296.2067 701.0822,-302.2067 695.0822,-302.2067"/>
<text text-anchor="middle" x="629" y="-278.6067" font-family="Times,serif" font-size="14.00" fill="#000000">S’il y avait une vérité</text>
<text text-anchor="middle" x="629" y="-261.8067" font-family="Times,serif" font-size="14.00" fill="#000000">en morale, on pourrait</text>
<text text-anchor="middle" x="629" y="-245.0067" font-family="Times,serif" font-size="14.00" fill="#000000">résoudre les désaccords</text>
<text text-anchor="middle" x="629" y="-228.2067" font-family="Times,serif" font-size="14.00" fill="#000000">en déterminant qui a</text>
<text text-anchor="middle" x="629" y="-211.4067" font-family="Times,serif" font-size="14.00" fill="#000000">tort et qui a raison</text>
</g>
<!-- p2&#45;&gt;p3 -->
<!-- PL1 -->
<g id="remarques+objections_node8_remarques+objections" class="node">
<title>PL1</title>
<polygon fill="#e0e0e0" stroke="transparent" points="701,-179.2067 413,-179.2067 413,-178.2067 701,-178.2067 701,-179.2067"/>
<polyline fill="none" stroke="#000000" points="413,-178.2067 701,-178.2067 "/>
</g>
<!-- p2&#45;&gt;PL1 -->
<!-- o2 -->
<g id="remarques+objections_node4_remarques+objections" class="node">
<title>o2</title>
<path fill="#ffffff" stroke="#ee0000" d="M963.7608,-302.2067C963.7608,-302.2067 826.2392,-302.2067 826.2392,-302.2067 820.2392,-302.2067 814.2392,-296.2067 814.2392,-290.2067 814.2392,-290.2067 814.2392,-208.2067 814.2392,-208.2067 814.2392,-202.2067 820.2392,-196.2067 826.2392,-196.2067 826.2392,-196.2067 963.7608,-196.2067 963.7608,-196.2067 969.7608,-196.2067 975.7608,-202.2067 975.7608,-208.2067 975.7608,-208.2067 975.7608,-290.2067 975.7608,-290.2067 975.7608,-296.2067 969.7608,-302.2067 963.7608,-302.2067"/>
<text text-anchor="middle" x="895" y="-278.6067" font-family="Times,serif" font-size="14.00" fill="#000000">Croire en l'existence</text>
<text text-anchor="middle" x="895" y="-261.8067" font-family="Times,serif" font-size="14.00" fill="#000000">d'une vérité en morale</text>
<text text-anchor="middle" x="895" y="-245.0067" font-family="Times,serif" font-size="14.00" fill="#000000">n'implique pas de croire</text>
<text text-anchor="middle" x="895" y="-228.2067" font-family="Times,serif" font-size="14.00" fill="#000000">qu'on peut résoudre tous</text>
<text text-anchor="middle" x="895" y="-211.4067" font-family="Times,serif" font-size="14.00" fill="#000000">les désaccords moraux</text>
</g>
<!-- p3&#45;&gt;o2 -->
<g id="remarques+objections_edge2" class="edge">
<title>p3-&gt;o2</title>
<path fill="none" stroke="#cd0000" stroke-width=".8" d="M707.1711,-249.3434C752.9006,-249.4202 781.5476,-249.4572 804.1761,-249.4546"/>
<polygon fill="#cd0000" stroke="#cd0000" stroke-width=".8" points="804.1906,-252.9547 814.1891,-249.4506 804.1877,-245.9547 804.1906,-252.9547"/>
<text text-anchor="middle" x="742.8605" y="-252.4288" font-family="Times,serif" font-size="10.00" fill="#666666">objection !</text>
</g>
<!-- p3&#45;&gt;PL1 -->
<!-- j1 -->
<g id="remarques+objections_node6_remarques+objections" class="node">
<title>j1</title>
<path fill="#ffffff" stroke="#008b00" d="M194.39,-494.9069C194.39,-494.9069 83.61,-494.9069 83.61,-494.9069 77.61,-494.9069 71.61,-488.9069 71.61,-482.9069 71.61,-482.9069 71.61,-392.3066 71.61,-392.3066 71.61,-386.3066 77.61,-380.3066 83.61,-380.3066 83.61,-380.3066 194.39,-380.3066 194.39,-380.3066 200.39,-380.3066 206.39,-386.3066 206.39,-392.3066 206.39,-392.3066 206.39,-482.9069 206.39,-482.9069 206.39,-488.9069 200.39,-494.9069 194.39,-494.9069"/>
<text text-anchor="middle" x="139" y="-475.4067" font-family="Times,serif" font-size="14.00" fill="#000000">Si le désaccord a</text>
<text text-anchor="middle" x="139" y="-458.6067" font-family="Times,serif" font-size="14.00" fill="#000000">pour fondement une</text>
<text text-anchor="middle" x="139" y="-441.8067" font-family="Times,serif" font-size="14.00" fill="#000000">croyance non morale,</text>
<text text-anchor="middle" x="139" y="-425.0067" font-family="Times,serif" font-size="14.00" fill="#000000">on peut chercher à </text>
<text text-anchor="middle" x="139" y="-408.2067" font-family="Times,serif" font-size="14.00" fill="#000000">montrer que cette</text>
<text text-anchor="middle" x="139" y="-391.4067" font-family="Times,serif" font-size="14.00" fill="#000000">croyance est fausse</text>
</g>
<!-- j1&#45;&gt;o1 -->
<g id="remarques+objections_edge3" class="edge">
<title>j1-&gt;o1</title>
<path fill="none" stroke="#008b00" stroke-width=".8" d="M145.7922,-380.1918C151.766,-354.0191 163.978,-334.5523 196.4012,-293.4848"/>
<polygon fill="#008b00" stroke="#008b00" stroke-width=".8" points="199.217,-295.567 202.6936,-285.5587 193.7346,-291.2145 199.217,-295.567"/>
<text text-anchor="middle" x="140.2392" y="-344.674" font-family="Times,serif" font-size="10.00" fill="#666666">par</text>
<text text-anchor="middle" x="140.2392" y="-332.674" font-family="Times,serif" font-size="10.00" fill="#666666">conséquent …</text>
</g>
<!-- j2 -->
<g id="remarques+objections_node7_remarques+objections" class="node">
<title>j2</title>
<path fill="#ffffff" stroke="#008b00" d="M413.9528,-486.6067C413.9528,-486.6067 236.0472,-486.6067 236.0472,-486.6067 230.0472,-486.6067 224.0472,-480.6067 224.0472,-474.6067 224.0472,-474.6067 224.0472,-400.6067 224.0472,-400.6067 224.0472,-394.6067 230.0472,-388.6067 236.0472,-388.6067 236.0472,-388.6067 413.9528,-388.6067 413.9528,-388.6067 419.9528,-388.6067 425.9528,-394.6067 425.9528,-400.6067 425.9528,-400.6067 425.9528,-474.6067 425.9528,-474.6067 425.9528,-480.6067 419.9528,-486.6067 413.9528,-486.6067"/>
<text text-anchor="middle" x="325" y="-467.0067" font-family="Times,serif" font-size="14.00" fill="#000000">Si le désaccord a pour fondement</text>
<text text-anchor="middle" x="325" y="-450.2067" font-family="Times,serif" font-size="14.00" fill="#000000">une croyance morale, on peut</text>
<text text-anchor="middle" x="325" y="-433.4067" font-family="Times,serif" font-size="14.00" fill="#000000">chercher à montrer que cette</text>
<text text-anchor="middle" x="325" y="-416.6067" font-family="Times,serif" font-size="14.00" fill="#000000">croyance manifeste un manque</text>
<text text-anchor="middle" x="325" y="-399.8067" font-family="Times,serif" font-size="14.00" fill="#000000">de sensibilité ou de rationalité</text>
</g>
<!-- j2&#45;&gt;o1 -->
<g id="remarques+objections_edge4" class="edge">
<title>j2-&gt;o1</title>
<path fill="none" stroke="#008b00" stroke-width=".8" d="M272.8796,-388.3244C247.0931,-360.628 240.3472,-341.1162 235.7883,-295.6468"/>
<polygon fill="#008b00" stroke="#008b00" stroke-width=".8" points="239.2589,-295.1684 234.8426,-285.5379 232.2894,-295.8205 239.2589,-295.1684"/>
<text text-anchor="middle" x="214.2582" y="-354.794" font-family="Times,serif" font-size="10.00" fill="#666666">par</text>
<text text-anchor="middle" x="214.2582" y="-342.794" font-family="Times,serif" font-size="10.00" fill="#666666">conséquent …</text>
</g>
<!-- C -->
<g id="remarques+objections_node9_remarques+objections" class="node">
<title>C</title>
<ellipse fill="#000000" stroke="#000000" cx="557" cy="-79.1034" rx="100.0046" ry="46.207"/>
<text text-anchor="middle" x="557" y="-84.5034" font-family="Times,serif" font-size="18.00" fill="#ffffff">Il n'y a pas de</text>
<text text-anchor="middle" x="557" y="-62.9034" font-family="Times,serif" font-size="18.00" fill="#ffffff">vérité en morale</text>
</g>
<!-- PL1&#45;&gt;C -->
<g id="remarques+objections_edge7" class="edge">
<title>PL1-&gt;C</title>
<path fill="none" stroke="#000000" d="M557.117,-177.9244C559.9022,-159.304 561.9012,-145.9083 563.1142,-135.5501"/>
<polygon fill="#000000" stroke="#000000" points="566.6169,-135.6959 564.122,-125.399 559.6511,-135.0043 566.6169,-135.6959"/>
<text text-anchor="middle" x="531.8941" y="-142.7053" font-family="Times,serif" font-size="10.00" fill="#666666">par</text>
<text text-anchor="middle" x="531.8941" y="-130.7053" font-family="Times,serif" font-size="10.00" fill="#666666">conséquent …</text>
</g>
</g>
</svg>