<?xml version="1.0" encoding="UTF-8" standalone="no"?><!DOCTYPE svg PUBLIC "-//W3C//DTD SVG 1.1//EN" "http://www.w3.org/Graphics/SVG/1.1/DTD/svg11.dtd"><!-- Generated by graphviz version 2.40.1 (20161225.0304)
 --><!-- Title: G Pages: 1 --><svg xmlns="http://www.w3.org/2000/svg" xmlns:xlink="http://www.w3.org/1999/xlink" width="982pt" height="629pt" viewBox="0.00 0.00 981.88 628.61">
<g id="remarques+objections_graph0" class="graph" transform="scale(1 1) rotate(0) translate(21.6 607.0067)">
<title>G</title>
<polygon fill="#ffffff" stroke="transparent" points="-21.6,21.6 -21.6,-607.0067 960.2846,-607.0067 960.2846,21.6 -21.6,21.6"/>
<g id="remarques+objections_clust3" class="cluster">
<title>cluster_0</title>
<path fill="#e5e5e5" stroke="#7f7f7f" d="M285.012,-8C285.012,-8 643.012,-8 643.012,-8 649.012,-8 655.012,-14 655.012,-20 655.012,-20 655.012,-565.4067 655.012,-565.4067 655.012,-571.4067 649.012,-577.4067 643.012,-577.4067 643.012,-577.4067 285.012,-577.4067 285.012,-577.4067 279.012,-577.4067 273.012,-571.4067 273.012,-565.4067 273.012,-565.4067 273.012,-20 273.012,-20 273.012,-14 279.012,-8 285.012,-8"/>
</g>
<!-- 0 -->
<!-- o2 -->
<g id="remarques+objections_node2_remarques+objections" class="node">
<title>o2</title>
<path fill="#ffffff" stroke="#ee0000" d="M202.036,-385.1069C202.036,-385.1069 11.988,-385.1069 11.988,-385.1069 5.988,-385.1069 -.012,-379.1069 -.012,-373.1069 -.012,-373.1069 -.012,-307.7065 -.012,-307.7065 -.012,-301.7065 5.988,-295.7065 11.988,-295.7065 11.988,-295.7065 202.036,-295.7065 202.036,-295.7065 208.036,-295.7065 214.036,-301.7065 214.036,-307.7065 214.036,-307.7065 214.036,-373.1069 214.036,-373.1069 214.036,-379.1069 208.036,-385.1069 202.036,-385.1069"/>
<text text-anchor="middle" x="107.012" y="-361.4067" font-family="Times,serif" font-size="14.00" fill="#000000">On peut croire à l'existence d'une</text>
<text text-anchor="middle" x="107.012" y="-344.6067" font-family="Times,serif" font-size="14.00" fill="#000000">vérité en morale et défendre</text>
<text text-anchor="middle" x="107.012" y="-327.8067" font-family="Times,serif" font-size="14.00" fill="#000000">justement l'existence d'un </text>
<text text-anchor="middle" x="107.012" y="-311.0067" font-family="Times,serif" font-size="14.00" fill="#000000">devoir moral de tolérance</text>
</g>
<!-- 0&#45;&gt;o2 -->
<!-- intolerance -->
<g id="remarques+objections_node3_remarques+objections" class="node">
<title>intolerance</title>
<path fill="#ffffff" stroke="#000000" d="M482.4467,-376.8078C482.4467,-376.8078 333.5773,-376.8078 333.5773,-376.8078 327.5773,-376.8078 321.5773,-370.8078 321.5773,-364.8078 321.5773,-364.8078 321.5773,-316.0056 321.5773,-316.0056 321.5773,-310.0056 327.5773,-304.0056 333.5773,-304.0056 333.5773,-304.0056 482.4467,-304.0056 482.4467,-304.0056 488.4467,-304.0056 494.4467,-310.0056 494.4467,-316.0056 494.4467,-316.0056 494.4467,-364.8078 494.4467,-364.8078 494.4467,-370.8078 488.4467,-376.8078 482.4467,-376.8078"/>
<text text-anchor="middle" x="408.012" y="-353.0067" font-family="Times,serif" font-size="14.00" fill="#000000">Croire à l'existence d'une </text>
<text text-anchor="middle" x="408.012" y="-336.2067" font-family="Times,serif" font-size="14.00" fill="#000000">vérité en morale nous </text>
<text text-anchor="middle" x="408.012" y="-319.4067" font-family="Times,serif" font-size="14.00" fill="#000000">conduit à l'intolérance</text>
</g>
<!-- o2&#45;&gt;intolerance -->
<g id="remarques+objections_edge2" class="edge">
<title>o2-&gt;intolerance</title>
<path fill="none" stroke="#cd0000" stroke-width=".8" d="M224.4951,-350.2383C248.2083,-349.8763 278.1007,-348.3929 321.6042,-345.788"/>
<polygon fill="#cd0000" stroke="#cd0000" stroke-width=".8" points="224.3192,-346.7396 214.3496,-350.3253 224.3793,-353.7393 224.3192,-346.7396"/>
<text text-anchor="middle" x="244.0133" y="-351.8586" font-family="Times,serif" font-size="10.00" fill="#666666">objection !</text>
</g>
<!-- intoleranceInacceptable -->
<g id="remarques+objections_node7_remarques+objections" class="node">
<title>intoleranceInacceptable</title>
<path fill="#ffffff" stroke="#000000" d="M617.9311,-368.0082C617.9311,-368.0082 524.0929,-368.0082 524.0929,-368.0082 518.0929,-368.0082 512.0929,-362.0082 512.0929,-356.0082 512.0929,-356.0082 512.0929,-324.8053 512.0929,-324.8053 512.0929,-318.8053 518.0929,-312.8053 524.0929,-312.8053 524.0929,-312.8053 617.9311,-312.8053 617.9311,-312.8053 623.9311,-312.8053 629.9311,-318.8053 629.9311,-324.8053 629.9311,-324.8053 629.9311,-356.0082 629.9311,-356.0082 629.9311,-362.0082 623.9311,-368.0082 617.9311,-368.0082"/>
<text text-anchor="middle" x="571.012" y="-344.6067" font-family="Times,serif" font-size="14.00" fill="#000000">L'intolérance est</text>
<text text-anchor="middle" x="571.012" y="-327.8067" font-family="Times,serif" font-size="14.00" fill="#000000">inacceptable</text>
</g>
<!-- intolerance&#45;&gt;intoleranceInacceptable -->
<!-- PL2 -->
<g id="remarques+objections_node9_remarques+objections" class="node">
<title>PL2</title>
<polygon fill="#e0e0e0" stroke="transparent" points="583.012,-287.8067 345.012,-287.8067 345.012,-286.8067 583.012,-286.8067 583.012,-287.8067"/>
<polyline fill="none" stroke="#000000" points="345.012,-286.8067 583.012,-286.8067 "/>
</g>
<!-- intolerance&#45;&gt;PL2 -->
<!-- o3 -->
<g id="remarques+objections_node4_remarques+objections" class="node">
<title>o3</title>
<path fill="#ffffff" stroke="#ee0000" d="M926.8575,-560.7069C926.8575,-560.7069 713.1665,-560.7069 713.1665,-560.7069 707.1665,-560.7069 701.1665,-554.7069 701.1665,-548.7069 701.1665,-548.7069 701.1665,-450.1066 701.1665,-450.1066 701.1665,-444.1066 707.1665,-438.1066 713.1665,-438.1066 713.1665,-438.1066 926.8575,-438.1066 926.8575,-438.1066 932.8575,-438.1066 938.8575,-444.1066 938.8575,-450.1066 938.8575,-450.1066 938.8575,-548.7069 938.8575,-548.7069 938.8575,-554.7069 932.8575,-560.7069 926.8575,-560.7069"/>
<text text-anchor="middle" x="820.012" y="-537.2067" font-family="Times,serif" font-size="14.00" fill="#000000">1°) La croyance en l'existence d'une</text>
<text text-anchor="middle" x="820.012" y="-520.4067" font-family="Times,serif" font-size="14.00" fill="#000000">vérité en morale ne conduit pas</text>
<text text-anchor="middle" x="820.012" y="-503.6067" font-family="Times,serif" font-size="14.00" fill="#000000">nécessairement à l'ethnocentrisme</text>
<text text-anchor="middle" x="820.012" y="-486.8067" font-family="Times,serif" font-size="14.00" fill="#000000">2°) On peut croire à l'existence d'une</text>
<text text-anchor="middle" x="820.012" y="-470.0067" font-family="Times,serif" font-size="14.00" fill="#000000">vérité en morale et accepter certaines</text>
<text text-anchor="middle" x="820.012" y="-453.2067" font-family="Times,serif" font-size="14.00" fill="#000000">formes de pluralité des valeurs</text>
</g>
<!-- p2 -->
<g id="remarques+objections_node5_remarques+objections" class="node">
<title>p2</title>
<path fill="#ffffff" stroke="#000000" d="M618.1668,-552.4067C618.1668,-552.4067 477.8572,-552.4067 477.8572,-552.4067 471.8572,-552.4067 465.8572,-546.4067 465.8572,-540.4067 465.8572,-540.4067 465.8572,-458.4067 465.8572,-458.4067 465.8572,-452.4067 471.8572,-446.4067 477.8572,-446.4067 477.8572,-446.4067 618.1668,-446.4067 618.1668,-446.4067 624.1668,-446.4067 630.1668,-452.4067 630.1668,-458.4067 630.1668,-458.4067 630.1668,-540.4067 630.1668,-540.4067 630.1668,-546.4067 624.1668,-552.4067 618.1668,-552.4067"/>
<text text-anchor="middle" x="548.012" y="-528.8067" font-family="Times,serif" font-size="14.00" fill="#000000">Croire à l'existence</text>
<text text-anchor="middle" x="548.012" y="-512.0067" font-family="Times,serif" font-size="14.00" fill="#000000">d'une vérité en morale</text>
<text text-anchor="middle" x="548.012" y="-495.2067" font-family="Times,serif" font-size="14.00" fill="#000000">conduit à ne pas accepter</text>
<text text-anchor="middle" x="548.012" y="-478.4067" font-family="Times,serif" font-size="14.00" fill="#000000">la diversité des</text>
<text text-anchor="middle" x="548.012" y="-461.6067" font-family="Times,serif" font-size="14.00" fill="#000000">croyances morales</text>
</g>
<!-- o3&#45;&gt;p2 -->
<g id="remarques+objections_edge3" class="edge">
<title>o3:w-&gt;p2:e</title>
<path fill="none" stroke="#cd0000" stroke-width=".8" d="M630.012,-499.4067C668.9202,-508.2582 674.3917,-509.503 691.488,-503.141"/>
<polygon fill="#cd0000" stroke="#cd0000" stroke-width=".8" points="692.9797,-506.3156 701.012,-499.4067 690.4244,-499.7986 692.9797,-506.3156"/>
<text text-anchor="middle" x="679.7395" y="-485.9825" font-family="Times,serif" font-size="10.00" fill="#666666">objection !</text>
</g>
<!-- PL1 -->
<g id="remarques+objections_node8_remarques+objections" class="node">
<title>PL1</title>
<polygon fill="#e0e0e0" stroke="transparent" points="622.012,-430.0067 298.012,-430.0067 298.012,-429.0067 622.012,-429.0067 622.012,-430.0067"/>
<polyline fill="none" stroke="#000000" points="298.012,-429.0067 622.012,-429.0067 "/>
</g>
<!-- p2&#45;&gt;PL1 -->
<!-- o1 -->
<g id="remarques+objections_node6_remarques+objections" class="node">
<title>o1</title>
<path fill="#ffffff" stroke="#ee0000" d="M899.0491,-385.1069C899.0491,-385.1069 712.9749,-385.1069 712.9749,-385.1069 706.9749,-385.1069 700.9749,-379.1069 700.9749,-373.1069 700.9749,-373.1069 700.9749,-307.7065 700.9749,-307.7065 700.9749,-301.7065 706.9749,-295.7065 712.9749,-295.7065 712.9749,-295.7065 899.0491,-295.7065 899.0491,-295.7065 905.0491,-295.7065 911.0491,-301.7065 911.0491,-307.7065 911.0491,-307.7065 911.0491,-373.1069 911.0491,-373.1069 911.0491,-379.1069 905.0491,-385.1069 899.0491,-385.1069"/>
<text text-anchor="middle" x="806.012" y="-361.4067" font-family="Times,serif" font-size="14.00" fill="#000000">Si l'intolérance est inacceptable,</text>
<text text-anchor="middle" x="806.012" y="-344.6067" font-family="Times,serif" font-size="14.00" fill="#000000">cela signifie qu'on reconnaît</text>
<text text-anchor="middle" x="806.012" y="-327.8067" font-family="Times,serif" font-size="14.00" fill="#000000">au moins une vérité morale, alors</text>
<text text-anchor="middle" x="806.012" y="-311.0067" font-family="Times,serif" font-size="14.00" fill="#000000">qu'on veut prouver le contraire !</text>
</g>
<!-- intoleranceInacceptable&#45;&gt;o1 -->
<g id="remarques+objections_edge4" class="edge">
<title>intoleranceInacceptable-&gt;o1</title>
<path fill="none" stroke="#cd0000" stroke-width=".8" d="M629.8384,-343.9673C654.9627,-345.4483 674.6074,-346.5113 690.7813,-347.1565"/>
<polygon fill="#cd0000" stroke="#cd0000" stroke-width=".8" points="690.8123,-350.6598 700.9313,-347.5203 691.0632,-343.6643 690.8123,-350.6598"/>
<text text-anchor="middle" x="675.8365" y="-324.9494" font-family="Times,serif" font-size="10.00" fill="#666666">objection !</text>
</g>
<!-- intoleranceInacceptable&#45;&gt;PL2 -->
<!-- PL1&#45;&gt;intolerance -->
<g id="remarques+objections_edge7" class="edge">
<title>PL1-&gt;intolerance</title>
<path fill="none" stroke="#000000" d="M459.2358,-428.9188C437.7279,-412.6264 430.3453,-406.8663 422.5078,-386.6561"/>
<polygon fill="#000000" stroke="#000000" points="425.7334,-385.281 419.0785,-377.037 419.1399,-387.6317 425.7334,-385.281"/>
<text text-anchor="middle" x="405.1512" y="-398.5529" font-family="Times,serif" font-size="10.00" fill="#666666">par</text>
<text text-anchor="middle" x="405.1512" y="-386.5529" font-family="Times,serif" font-size="10.00" fill="#666666">conséquent …</text>
</g>
<!-- La croyance en l&#39;existence d&#39;une
vérité en morale n&#39;est pas acceptable -->
<g id="remarques+objections_node11_remarques+objections" class="node">
<title>La croyance en l'existence d'une
vérité en morale n'est pas acceptable</title>
<path fill="#ffffff" stroke="#000000" d="M567.3364,-233.6082C567.3364,-233.6082 360.6876,-233.6082 360.6876,-233.6082 354.6876,-233.6082 348.6876,-227.6082 348.6876,-221.6082 348.6876,-221.6082 348.6876,-190.4053 348.6876,-190.4053 348.6876,-184.4053 354.6876,-178.4053 360.6876,-178.4053 360.6876,-178.4053 567.3364,-178.4053 567.3364,-178.4053 573.3364,-178.4053 579.3364,-184.4053 579.3364,-190.4053 579.3364,-190.4053 579.3364,-221.6082 579.3364,-221.6082 579.3364,-227.6082 573.3364,-233.6082 567.3364,-233.6082"/>
<text text-anchor="middle" x="464.012" y="-210.2067" font-family="Times,serif" font-size="14.00" fill="#000000">La croyance en l'existence d'une</text>
<text text-anchor="middle" x="464.012" y="-193.4067" font-family="Times,serif" font-size="14.00" fill="#000000">vérité en morale n'est pas acceptable</text>
</g>
<!-- PL2&#45;&gt;La croyance en l&#39;existence d&#39;une
vérité en morale n&#39;est pas acceptable -->
<g id="remarques+objections_edge11" class="edge">
<title>PL2-&gt;La croyance en l'existence d'une
vérité en morale n'est pas acceptable</title>
<path fill="none" stroke="#000000" d="M463.9902,-286.6437C463.323,-266.376 462.8977,-253.4131 462.7142,-243.9738"/>
<polygon fill="#000000" stroke="#000000" points="466.2139,-243.9167 462.6102,-233.9535 459.2142,-243.9893 466.2139,-243.9167"/>
<text text-anchor="middle" x="434.0641" y="-251.6001" font-family="Times,serif" font-size="10.00" fill="#666666">par</text>
<text text-anchor="middle" x="434.0641" y="-239.6001" font-family="Times,serif" font-size="10.00" fill="#666666">conséquent …</text>
</g>
<!-- p1 -->
<g id="remarques+objections_node10_remarques+objections" class="node">
<title>p1</title>
<path fill="#ffffff" stroke="#000000" d="M436.0038,-535.8078C436.0038,-535.8078 310.0202,-535.8078 310.0202,-535.8078 304.0202,-535.8078 298.0202,-529.8078 298.0202,-523.8078 298.0202,-523.8078 298.0202,-475.0056 298.0202,-475.0056 298.0202,-469.0056 304.0202,-463.0056 310.0202,-463.0056 310.0202,-463.0056 436.0038,-463.0056 436.0038,-463.0056 442.0038,-463.0056 448.0038,-469.0056 448.0038,-475.0056 448.0038,-475.0056 448.0038,-523.8078 448.0038,-523.8078 448.0038,-529.8078 442.0038,-535.8078 436.0038,-535.8078"/>
<text text-anchor="middle" x="373.012" y="-512.0067" font-family="Times,serif" font-size="14.00" fill="#000000">Les croyances morales</text>
<text text-anchor="middle" x="373.012" y="-495.2067" font-family="Times,serif" font-size="14.00" fill="#000000">sont différentes selon</text>
<text text-anchor="middle" x="373.012" y="-478.4067" font-family="Times,serif" font-size="14.00" fill="#000000">les individus</text>
</g>
<!-- p1&#45;&gt;PL1 -->
<!-- C -->
<g id="remarques+objections_node12_remarques+objections" class="node">
<title>C</title>
<ellipse fill="#000000" stroke="#000000" cx="464.012" cy="-79.1034" rx="100.0046" ry="46.207"/>
<text text-anchor="middle" x="464.012" y="-84.5034" font-family="Times,serif" font-size="18.00" fill="#ffffff">Il n'y a pas de</text>
<text text-anchor="middle" x="464.012" y="-62.9034" font-family="Times,serif" font-size="18.00" fill="#ffffff">vérité en morale</text>
</g>
<!-- La croyance en l&#39;existence d&#39;une
vérité en morale n&#39;est pas acceptable&#45;&gt;C -->
<g id="remarques+objections_edge12" class="edge">
<title>La croyance en l'existence d'une
vérité en morale n'est pas acceptable-&gt;C</title>
<path fill="none" stroke="#000000" d="M463.7325,-178.2371C463.5473,-159.4945 463.427,-146.0922 463.3718,-135.5673"/>
<polygon fill="#000000" stroke="#000000" points="466.8718,-135.5256 463.3378,-125.5375 459.8718,-135.5494 466.8718,-135.5256"/>
<text text-anchor="middle" x="434.3999" y="-166.8761" font-family="Times,serif" font-size="10.00" fill="#666666">par</text>
<text text-anchor="middle" x="434.3999" y="-154.8761" font-family="Times,serif" font-size="10.00" fill="#666666">conséquent …</text>
</g>
</g>
</svg>