<?xml version="1.0" encoding="UTF-8" standalone="no"?><!DOCTYPE svg PUBLIC "-//W3C//DTD SVG 1.1//EN" "http://www.w3.org/Graphics/SVG/1.1/DTD/svg11.dtd"><!-- Generated by graphviz version 2.40.1 (20161225.0304)
 --><!-- Title: G Pages: 1 --><svg xmlns="http://www.w3.org/2000/svg" xmlns:xlink="http://www.w3.org/1999/xlink" width="857pt" height="494pt" viewBox="0.00 0.00 857.17 494.38">
<g id="remarques+objections_graph0" class="graph" transform="scale(1 1) rotate(0) translate(21.6 472.7812)">
<title>G</title>
<polygon fill="#ffffff" stroke="transparent" points="-21.6,21.6 -21.6,-472.7812 835.5712,-472.7812 835.5712,21.6 -21.6,21.6"/>
<g id="remarques+objections_clust4" class="cluster">
<title>cluster_0</title>
<path fill="#e5e5e5" stroke="#7f7f7f" d="M238.9976,-8C238.9976,-8 526.9976,-8 526.9976,-8 532.9976,-8 538.9976,-14 538.9976,-20 538.9976,-20 538.9976,-431.1812 538.9976,-431.1812 538.9976,-437.1812 532.9976,-443.1812 526.9976,-443.1812 526.9976,-443.1812 238.9976,-443.1812 238.9976,-443.1812 232.9976,-443.1812 226.9976,-437.1812 226.9976,-431.1812 226.9976,-431.1812 226.9976,-20 226.9976,-20 226.9976,-14 232.9976,-8 238.9976,-8"/>
</g>
<!-- 0 -->
<!-- o2 -->
<g id="remarques+objections_node2_remarques+objections" class="node">
<title>o2</title>
<path fill="#ffffff" stroke="#ee0000" d="M189.9928,-147.4746C189.9928,-147.4746 12.0024,-147.4746 12.0024,-147.4746 6.0024,-147.4746 .0024,-141.4746 .0024,-135.4746 .0024,-135.4746 .0024,-36.8743 .0024,-36.8743 .0024,-30.8743 6.0024,-24.8743 12.0024,-24.8743 12.0024,-24.8743 189.9928,-24.8743 189.9928,-24.8743 195.9928,-24.8743 201.9928,-30.8743 201.9928,-36.8743 201.9928,-36.8743 201.9928,-135.4746 201.9928,-135.4746 201.9928,-141.4746 195.9928,-147.4746 189.9928,-147.4746"/>
<text text-anchor="middle" x="100.9976" y="-123.9744" font-family="Times,serif" font-size="14.00" fill="#000000">On ne peut alors plus</text>
<text text-anchor="middle" x="100.9976" y="-107.1744" font-family="Times,serif" font-size="14.00" fill="#000000">critiquer moralement une</text>
<text text-anchor="middle" x="100.9976" y="-90.3744" font-family="Times,serif" font-size="14.00" fill="#000000">pratique d'une autre culture,</text>
<text text-anchor="middle" x="100.9976" y="-73.5744" font-family="Times,serif" font-size="14.00" fill="#000000">mais n'est-il pas légitime de</text>
<text text-anchor="middle" x="100.9976" y="-56.7744" font-family="Times,serif" font-size="14.00" fill="#000000">critiquer moralement l'excision,</text>
<text text-anchor="middle" x="100.9976" y="-39.9744" font-family="Times,serif" font-size="14.00" fill="#000000">les “hyènes” du Malawi … ?</text>
</g>
<!-- p2 -->
<g id="remarques+objections_node3_remarques+objections" class="node">
<title>p2</title>
<ellipse fill="#474747" stroke="#000000" cx="438.9976" cy="-86.1744" rx="75.4382" ry="53.3494"/>
<text text-anchor="middle" x="438.9976" y="-107.1744" font-family="Times,serif" font-size="14.00" fill="#ffffff">Le bien et le mal</text>
<text text-anchor="middle" x="438.9976" y="-90.3744" font-family="Times,serif" font-size="14.00" fill="#ffffff">se définissent</text>
<text text-anchor="middle" x="438.9976" y="-73.5744" font-family="Times,serif" font-size="14.00" fill="#ffffff">par le code moral</text>
<text text-anchor="middle" x="438.9976" y="-56.7744" font-family="Times,serif" font-size="14.00" fill="#ffffff">de chaque culture</text>
</g>
<!-- o2&#45;&gt;p2 -->
<g id="remarques+objections_edge1" class="edge">
<title>o2-&gt;p2</title>
<path fill="none" stroke="#cd0000" stroke-width=".8" d="M212.3104,-51.2092C248.9095,-47.1255 289.1031,-53.4764 366.9176,-70.262"/>
<polygon fill="#cd0000" stroke="#cd0000" stroke-width=".8" points="211.4762,-47.7916 202.0547,-52.6378 212.4419,-54.7246 211.4762,-47.7916"/>
<text text-anchor="middle" x="252.6184" y="-55.9073" font-family="Times,serif" font-size="10.00" fill="#666666">objection !</text>
</g>
<!-- o3 -->
<g id="remarques+objections_node6_remarques+objections" class="node">
<title>o3</title>
<path fill="#ffffff" stroke="#ee0000" d="M800.3101,-122.5755C800.3101,-122.5755 633.6851,-122.5755 633.6851,-122.5755 627.6851,-122.5755 621.6851,-116.5755 621.6851,-110.5755 621.6851,-110.5755 621.6851,-61.7733 621.6851,-61.7733 621.6851,-55.7733 627.6851,-49.7733 633.6851,-49.7733 633.6851,-49.7733 800.3101,-49.7733 800.3101,-49.7733 806.3101,-49.7733 812.3101,-55.7733 812.3101,-61.7733 812.3101,-61.7733 812.3101,-110.5755 812.3101,-110.5755 812.3101,-116.5755 806.3101,-122.5755 800.3101,-122.5755"/>
<text text-anchor="middle" x="716.9976" y="-98.7744" font-family="Times,serif" font-size="14.00" fill="#000000">Il devient alors impossible</text>
<text text-anchor="middle" x="716.9976" y="-81.9744" font-family="Times,serif" font-size="14.00" fill="#000000">de critiquer moralement une</text>
<text text-anchor="middle" x="716.9976" y="-65.1744" font-family="Times,serif" font-size="14.00" fill="#000000">pratique de sa propre culture !</text>
</g>
<!-- p2&#45;&gt;o3 -->
<g id="remarques+objections_edge4" class="edge">
<title>p2-&gt;o3:w</title>
<path fill="none" stroke="#cd0000" stroke-width=".8" d="M510.9609,-69.9932C556.4185,-61.3817 570.9741,-65.511 612.6678,-82.3811"/>
<polygon fill="#cd0000" stroke="#cd0000" stroke-width=".8" points="611.4157,-85.6502 621.9976,-86.1744 614.0522,-79.1657 611.4157,-85.6502"/>
<text text-anchor="middle" x="546.8053" y="-70.4886" font-family="Times,serif" font-size="10.00" fill="#666666">objection !</text>
</g>
<!-- o1 -->
<g id="remarques+objections_node4_remarques+objections" class="node">
<title>o1</title>
<path fill="#ffffff" stroke="#ee0000" d="M801.9448,-291.378C801.9448,-291.378 602.0504,-291.378 602.0504,-291.378 596.0504,-291.378 590.0504,-285.378 590.0504,-279.378 590.0504,-279.378 590.0504,-213.9776 590.0504,-213.9776 590.0504,-207.9776 596.0504,-201.9776 602.0504,-201.9776 602.0504,-201.9776 801.9448,-201.9776 801.9448,-201.9776 807.9448,-201.9776 813.9448,-207.9776 813.9448,-213.9776 813.9448,-213.9776 813.9448,-279.378 813.9448,-279.378 813.9448,-285.378 807.9448,-291.378 801.9448,-291.378"/>
<text text-anchor="middle" x="701.9976" y="-267.6778" font-family="Times,serif" font-size="14.00" fill="#000000">Si un individu appartient à</text>
<text text-anchor="middle" x="701.9976" y="-250.8778" font-family="Times,serif" font-size="14.00" fill="#000000">deux cultures différentes, comment </text>
<text text-anchor="middle" x="701.9976" y="-234.0778" font-family="Times,serif" font-size="14.00" fill="#000000">le bien et le mal sont-ils définis </text>
<text text-anchor="middle" x="701.9976" y="-217.2778" font-family="Times,serif" font-size="14.00" fill="#000000">pour cet individu ?</text>
</g>
<!-- o1&#45;&gt;p2 -->
<g id="remarques+objections_edge2" class="edge">
<title>o1-&gt;p2</title>
<path fill="none" stroke="#cd0000" stroke-width=".8" d="M662.2169,-193.9246C627.3003,-151.8591 599.5205,-137.6135 508.1692,-108.0359"/>
<polygon fill="#cd0000" stroke="#cd0000" stroke-width=".8" points="659.5876,-196.2395 668.5987,-201.8119 665.0294,-191.8363 659.5876,-196.2395"/>
<text text-anchor="middle" x="584.8507" y="-149.3064" font-family="Times,serif" font-size="10.00" fill="#666666">objection !</text>
</g>
<!-- C -->
<g id="remarques+objections_node5_remarques+objections" class="node">
<title>C</title>
<ellipse fill="#000000" stroke="#000000" cx="382.9976" cy="-246.6778" rx="100.0046" ry="46.207"/>
<text text-anchor="middle" x="382.9976" y="-252.0778" font-family="Times,serif" font-size="18.00" fill="#ffffff">Il n'y a pas de</text>
<text text-anchor="middle" x="382.9976" y="-230.4778" font-family="Times,serif" font-size="18.00" fill="#ffffff">vérité en morale</text>
</g>
<!-- C&#45;&gt;p2 -->
<g id="remarques+objections_edge6" class="edge">
<title>C-&gt;p2</title>
<path fill="none" stroke="#000000" d="M395.1952,-200.9095C401.892,-176.0477 406.6275,-159.2942 410.9393,-146.2424"/>
<polygon fill="#000000" stroke="#000000" points="414.3539,-147.0793 414.3358,-136.4845 407.7429,-144.7781 414.3539,-147.0793"/>
<text text-anchor="middle" x="375.1138" y="-183.3145" font-family="Times,serif" font-size="10.00" fill="#666666">par</text>
<text text-anchor="middle" x="375.1138" y="-171.3145" font-family="Times,serif" font-size="10.00" fill="#666666">conséquent …</text>
</g>
<!-- C&#45;&gt;o1 -->
<!-- p1 -->
<g id="remarques+objections_node7_remarques+objections" class="node">
<title>p1</title>
<path fill="#ffffff" stroke="#000000" d="M447.2496,-418.3823C447.2496,-418.3823 318.7456,-418.3823 318.7456,-418.3823 312.7456,-418.3823 306.7456,-412.3823 306.7456,-406.3823 306.7456,-406.3823 306.7456,-357.58 306.7456,-357.58 306.7456,-351.58 312.7456,-345.58 318.7456,-345.58 318.7456,-345.58 447.2496,-345.58 447.2496,-345.58 453.2496,-345.58 459.2496,-351.58 459.2496,-357.58 459.2496,-357.58 459.2496,-406.3823 459.2496,-406.3823 459.2496,-412.3823 453.2496,-418.3823 447.2496,-418.3823"/>
<text text-anchor="middle" x="382.9976" y="-394.5812" font-family="Times,serif" font-size="14.00" fill="#000000">Les croyances morales</text>
<text text-anchor="middle" x="382.9976" y="-377.7812" font-family="Times,serif" font-size="14.00" fill="#000000">sont différentes selon</text>
<text text-anchor="middle" x="382.9976" y="-360.9812" font-family="Times,serif" font-size="14.00" fill="#000000">la culture des individus</text>
</g>
<!-- p1&#45;&gt;C -->
<g id="remarques+objections_edge5" class="edge">
<title>p1-&gt;C</title>
<path fill="none" stroke="#000000" d="M378.0324,-345.6462C377.385,-334.8611 377.6873,-322.8373 378.9393,-302.9017"/>
<polygon fill="#000000" stroke="#000000" points="382.4392,-303.0171 379.6055,-292.8082 375.4544,-302.5559 382.4392,-303.0171"/>
<text text-anchor="middle" x="348.9724" y="-334.1094" font-family="Times,serif" font-size="10.00" fill="#666666">par</text>
<text text-anchor="middle" x="348.9724" y="-322.1094" font-family="Times,serif" font-size="10.00" fill="#666666">conséquent …</text>
</g>
<!-- vide -->
<!-- vide&#45;&gt;p2 -->
</g>
</svg>