<?xml version="1.0" encoding="UTF-8" standalone="no"?>
<!DOCTYPE svg PUBLIC "-//W3C//DTD SVG 1.1//EN"
 "http://www.w3.org/Graphics/SVG/1.1/DTD/svg11.dtd">
<!-- Generated by graphviz version 2.40.1 (20161225.0304)
 -->
<!-- Title: G Pages: 1 -->
<svg width="590pt" height="1854pt"
 viewBox="0.00 0.00 590.00 1854.20" xmlns="http://www.w3.org/2000/svg" xmlns:xlink="http://www.w3.org/1999/xlink">
<g id="graph0" class="graph" transform="scale(1 1) rotate(0) translate(4 1850.2)">
<title>G</title>
<g id="a_graph0"><a xlink:href="https://theconversation.com/differencier-science-et-pseudoscience-pas-si-simple-142736">
<polygon fill="#ffffff" stroke="transparent" points="-4,4 -4,-1850.2 586,-1850.2 586,4 -4,4"/>
</a>
</g>
<g id="clust1" class="cluster">
<title>cluster_0</title>
<g id="a_clust1"><a xlink:href="https://theconversation.com/differencier-science-et-pseudoscience-pas-si-simple-142736" xlink:title="&#10;D&#39;après un article d&#39;Olivier Sartenaer :&#10;« Différencier science et pseudoscience : pas si simple »">
<polygon fill="#f5f5f5" stroke="#666666" stroke-width=".5" points="8,-8 8,-1730 574,-1730 574,-8 8,-8"/>
<text text-anchor="middle" x="291" y="-1697.4" font-family="Times,serif" font-size="14.00" fill="#000000">D&#39;après un article d&#39;Olivier Sartenaer :</text>
<text text-anchor="middle" x="291" y="-1680.6" font-family="Times,serif" font-size="14.00" fill="#000000">« Différencier science et pseudoscience : pas si simple »</text>
</a>
</g>
</g>
<!-- titre -->
<g id="node1" class="node">
<title>titre</title>
<path fill="#ffffff" stroke="#000000" stroke-width="1.1" d="M321.1599,-1846.3003C321.1599,-1846.3003 96.8401,-1846.3003 96.8401,-1846.3003 90.8401,-1846.3003 84.8401,-1840.3003 84.8401,-1834.3003 84.8401,-1834.3003 84.8401,-1786.8997 84.8401,-1786.8997 84.8401,-1780.8997 90.8401,-1774.8997 96.8401,-1774.8997 96.8401,-1774.8997 321.1599,-1774.8997 321.1599,-1774.8997 327.1599,-1774.8997 333.1599,-1780.8997 333.1599,-1786.8997 333.1599,-1786.8997 333.1599,-1834.3003 333.1599,-1834.3003 333.1599,-1840.3003 327.1599,-1846.3003 321.1599,-1846.3003"/>
<text text-anchor="middle" x="209" y="-1816" font-family="Times,serif" font-size="18.00" fill="#000000">Comment peut&#45;on différencier</text>
<text text-anchor="middle" x="209" y="-1794.4" font-family="Times,serif" font-size="18.00" fill="#000000">science et non&#45;science ?</text>
</g>
<!-- h1 -->
<g id="node2" class="node">
<title>h1</title>
<path fill="#ffffff" stroke="#008b00" stroke-width="1.1" d="M367.6154,-1642.3002C367.6154,-1642.3002 50.3846,-1642.3002 50.3846,-1642.3002 44.3846,-1642.3002 38.3846,-1636.3002 38.3846,-1630.3002 38.3846,-1630.3002 38.3846,-1561.6998 38.3846,-1561.6998 38.3846,-1555.6998 44.3846,-1549.6998 50.3846,-1549.6998 50.3846,-1549.6998 367.6154,-1549.6998 367.6154,-1549.6998 373.6154,-1549.6998 379.6154,-1555.6998 379.6154,-1561.6998 379.6154,-1561.6998 379.6154,-1630.3002 379.6154,-1630.3002 379.6154,-1636.3002 373.6154,-1642.3002 367.6154,-1642.3002"/>
<text text-anchor="middle" x="209" y="-1612.2" font-family="Times,serif" font-size="18.00" fill="#000000">Hypothèse 1 : La science est définie par la</text>
<text text-anchor="middle" x="209" y="-1590.6" font-family="Times,serif" font-size="18.00" fill="#000000">certitude de ses énoncés ; les affirmations</text>
<text text-anchor="middle" x="209" y="-1569" font-family="Times,serif" font-size="18.00" fill="#000000">incertaines ne sont que de simples opinions</text>
<text text-anchor="start" x="22.1988" y="-1646.9" font-family="Times,serif" font-size="15.00" fill="#000000">💬</text>
</g>
<!-- titre&#45;&gt;h1 -->
<g id="edge1" class="edge">
<title>titre&#45;&gt;h1</title>
<path fill="none" stroke="#000000" d="M209,-1774.6808C209,-1764.4881 209,-1752.7228 209,-1740.1933"/>
<polygon fill="#000000" stroke="#000000" points="212.5001,-1739.9964 209,-1729.9964 205.5001,-1739.9965 212.5001,-1739.9964"/>
</g>
<!-- o1 -->
<g id="node7" class="node">
<title>o1</title>
<path fill="#ffffff" stroke="#cd0000" stroke-width="1.1" d="M528.6422,-1513.6C528.6422,-1513.6 185.3578,-1513.6 185.3578,-1513.6 179.3578,-1513.6 173.3578,-1507.6 173.3578,-1501.6 173.3578,-1501.6 173.3578,-1389.6 173.3578,-1389.6 173.3578,-1383.6 179.3578,-1377.6 185.3578,-1377.6 185.3578,-1377.6 528.6422,-1377.6 528.6422,-1377.6 534.6422,-1377.6 540.6422,-1383.6 540.6422,-1389.6 540.6422,-1389.6 540.6422,-1501.6 540.6422,-1501.6 540.6422,-1507.6 534.6422,-1513.6 528.6422,-1513.6"/>
<text text-anchor="middle" x="357" y="-1483.4" font-family="Times,serif" font-size="18.00" fill="#000000">Objection : La science ne peut pas</text>
<text text-anchor="middle" x="357" y="-1461.8" font-family="Times,serif" font-size="18.00" fill="#000000">prétendre à la certitude ; aucun énoncé</text>
<text text-anchor="middle" x="357" y="-1440.2" font-family="Times,serif" font-size="18.00" fill="#000000">scientifique n&#39;est à l&#39;abri d&#39;une révision ; il</text>
<text text-anchor="middle" x="357" y="-1418.6" font-family="Times,serif" font-size="18.00" fill="#000000">faut adopter une épistémologie faillibiliste</text>
<text text-anchor="middle" x="357" y="-1397" font-family="Times,serif" font-size="18.00" fill="#000000">qui admet la possibilité d&#39;une remises en cause</text>
<text text-anchor="middle" x="165.6829" y="-1519" font-family="Times,serif" font-size="18.00" fill="#000000">⚡</text>
</g>
<!-- h1&#45;&gt;o1 -->
<!-- h1&#45;&gt;o1 -->
<g id="edge11" class="edge">
<title>h1&#45;&gt;o1:n</title>
<path fill="none" stroke="#cd0000" stroke-width=".8" d="M292.5156,-1549.5021C317.6935,-1535.4842 341.377,-1522.2982 351.6452,-1516.5813"/>
<polygon fill="#cd0000" stroke="#cd0000" stroke-width=".8" points="352.7793,-1518.3535 357,-1513.6 350.7362,-1514.6839 352.7793,-1518.3535"/>
<text text-anchor="start" x="279.0364" y="-1536.0417" font-family="Times,serif" font-size="10.00" fill="#cd0000">objection !</text>
</g>
<!-- h2 -->
<g id="node3" class="node">
<title>h2</title>
<path fill="#ffffff" stroke="#008b00" stroke-width="1.1" d="M335.6276,-1304.7003C335.6276,-1304.7003 62.3724,-1304.7003 62.3724,-1304.7003 56.3724,-1304.7003 50.3724,-1298.7003 50.3724,-1292.7003 50.3724,-1292.7003 50.3724,-1245.2997 50.3724,-1245.2997 50.3724,-1239.2997 56.3724,-1233.2997 62.3724,-1233.2997 62.3724,-1233.2997 335.6276,-1233.2997 335.6276,-1233.2997 341.6276,-1233.2997 347.6276,-1239.2997 347.6276,-1245.2997 347.6276,-1245.2997 347.6276,-1292.7003 347.6276,-1292.7003 347.6276,-1298.7003 341.6276,-1304.7003 335.6276,-1304.7003"/>
<text text-anchor="middle" x="199" y="-1274.4" font-family="Times,serif" font-size="18.00" fill="#000000">Hypothèse 2 : Ce qui caractérise la</text>
<text text-anchor="middle" x="199" y="-1252.8" font-family="Times,serif" font-size="18.00" fill="#000000">science, c&#39;est la méthode scientifique</text>
<text text-anchor="start" x="33.9428" y="-1309.1" font-family="Times,serif" font-size="15.00" fill="#000000">💬</text>
</g>
<!-- o2 -->
<g id="node8" class="node">
<title>o2</title>
<path fill="#ffffff" stroke="#cd0000" stroke-width="1.1" d="M503.8968,-1197.6007C503.8968,-1197.6007 206.1032,-1197.6007 206.1032,-1197.6007 200.1032,-1197.6007 194.1032,-1191.6007 194.1032,-1185.6007 194.1032,-1185.6007 194.1032,-1094.7993 194.1032,-1094.7993 194.1032,-1088.7993 200.1032,-1082.7993 206.1032,-1082.7993 206.1032,-1082.7993 503.8968,-1082.7993 503.8968,-1082.7993 509.8968,-1082.7993 515.8968,-1088.7993 515.8968,-1094.7993 515.8968,-1094.7993 515.8968,-1185.6007 515.8968,-1185.6007 515.8968,-1191.6007 509.8968,-1197.6007 503.8968,-1197.6007"/>
<text text-anchor="middle" x="355" y="-1167.2" font-family="Times,serif" font-size="18.00" fill="#000000">Objection : Il n&#39;existe pas de</text>
<text text-anchor="middle" x="355" y="-1145.6" font-family="Times,serif" font-size="18.00" fill="#000000">méthode unique partagée par toutes</text>
<text text-anchor="middle" x="355" y="-1124" font-family="Times,serif" font-size="18.00" fill="#000000">les disciplines scientifiques, et les</text>
<text text-anchor="middle" x="355" y="-1102.4" font-family="Times,serif" font-size="18.00" fill="#000000">méthodes évoluent au cours de l&#39;histoire</text>
<text text-anchor="middle" x="186.5555" y="-1202.8" font-family="Times,serif" font-size="18.00" fill="#000000">⚡</text>
</g>
<!-- h2&#45;&gt;o2 -->
<!-- h2&#45;&gt;o2 -->
<g id="edge12" class="edge">
<title>h2&#45;&gt;o2:n</title>
<path fill="none" stroke="#cd0000" stroke-width=".8" d="M276.543,-1233.3104C306.8244,-1219.3731 337.1977,-1205.3936 349.4062,-1199.7746"/>
<polygon fill="#cd0000" stroke="#cd0000" stroke-width=".8" points="350.4276,-1201.6163 355,-1197.2 348.6716,-1197.801 350.4276,-1201.6163"/>
<text text-anchor="start" x="269.9306" y="-1219.5425" font-family="Times,serif" font-size="10.00" fill="#cd0000">objection !</text>
</g>
<!-- h3 -->
<g id="node4" class="node">
<title>h3</title>
<path fill="#ffffff" stroke="#008b00" stroke-width="1.1" d="M329.4272,-1009.9002C329.4272,-1009.9002 74.5728,-1009.9002 74.5728,-1009.9002 68.5728,-1009.9002 62.5728,-1003.9002 62.5728,-997.9002 62.5728,-997.9002 62.5728,-929.2998 62.5728,-929.2998 62.5728,-923.2998 68.5728,-917.2998 74.5728,-917.2998 74.5728,-917.2998 329.4272,-917.2998 329.4272,-917.2998 335.4272,-917.2998 341.4272,-923.2998 341.4272,-929.2998 341.4272,-929.2998 341.4272,-997.9002 341.4272,-997.9002 341.4272,-1003.9002 335.4272,-1009.9002 329.4272,-1009.9002"/>
<text text-anchor="middle" x="202" y="-979.8" font-family="Times,serif" font-size="18.00" fill="#000000">Hypothèse 3 : Le fondement de la</text>
<text text-anchor="middle" x="202" y="-958.2" font-family="Times,serif" font-size="18.00" fill="#000000">scientificité, c&#39;est la testabilité</text>
<text text-anchor="middle" x="202" y="-936.6" font-family="Times,serif" font-size="18.00" fill="#000000">empirique des hypothèses</text>
<text text-anchor="start" x="46.2929" y="-1014.5" font-family="Times,serif" font-size="15.00" fill="#000000">💬</text>
</g>
<!-- o3 -->
<g id="node9" class="node">
<title>o3</title>
<path fill="#ffffff" stroke="#cd0000" stroke-width="1.1" d="M531.606,-844.4004C531.606,-844.4004 150.394,-844.4004 150.394,-844.4004 144.394,-844.4004 138.394,-838.4004 138.394,-832.4004 138.394,-832.4004 138.394,-633.5996 138.394,-633.5996 138.394,-627.5996 144.394,-621.5996 150.394,-621.5996 150.394,-621.5996 531.606,-621.5996 531.606,-621.5996 537.606,-621.5996 543.606,-627.5996 543.606,-633.5996 543.606,-633.5996 543.606,-832.4004 543.606,-832.4004 543.606,-838.4004 537.606,-844.4004 531.606,-844.4004"/>
<text text-anchor="middle" x="341" y="-814" font-family="Times,serif" font-size="18.00" fill="#000000">Objection : Ce critère est à la fois trop large, car il</text>
<text text-anchor="middle" x="341" y="-792.4" font-family="Times,serif" font-size="18.00" fill="#000000">conduit à inclure des énoncés pseudo&#45;scientifiques</text>
<text text-anchor="middle" x="341" y="-770.8" font-family="Times,serif" font-size="18.00" fill="#000000">mais testables, et trop étroit, car il conduit au</text>
<text text-anchor="middle" x="341" y="-749.2" font-family="Times,serif" font-size="18.00" fill="#000000">rejet de théories communément considérées</text>
<text text-anchor="middle" x="341" y="-727.6" font-family="Times,serif" font-size="18.00" fill="#000000">comme scientifiques mais plus spéculatives et</text>
<text text-anchor="middle" x="341" y="-706" font-family="Times,serif" font-size="18.00" fill="#000000">pas testables empiriquement (ou du moins pas</text>
<text text-anchor="middle" x="341" y="-684.4" font-family="Times,serif" font-size="18.00" fill="#000000">encore testables). De plus, ce critère ne prend pas</text>
<text text-anchor="middle" x="341" y="-662.8" font-family="Times,serif" font-size="18.00" fill="#000000">en compte le fait que les énoncés scientifiques</text>
<text text-anchor="middle" x="341" y="-641.2" font-family="Times,serif" font-size="18.00" fill="#000000">doivent nous permettre de mieux comprendre le réel</text>
<text text-anchor="middle" x="130.701" y="-849.6" font-family="Times,serif" font-size="18.00" fill="#000000">⚡</text>
</g>
<!-- h3&#45;&gt;o3 -->
<!-- h3&#45;&gt;o3 -->
<g id="edge13" class="edge">
<title>h3&#45;&gt;o3:n</title>
<path fill="none" stroke="#cd0000" stroke-width=".8" d="M256.139,-917.0171C287.5451,-889.9943 323.3564,-859.1811 336.1471,-848.1756"/>
<polygon fill="#cd0000" stroke="#cd0000" stroke-width=".8" points="337.8215,-849.5053 341,-844 335.0821,-846.3215 337.8215,-849.5053"/>
<text text-anchor="start" x="253.0991" y="-885.5963" font-family="Times,serif" font-size="10.00" fill="#cd0000">objection !</text>
</g>
<!-- h4 -->
<g id="node5" class="node">
<title>h4</title>
<path fill="#ffffff" stroke="#008b00" stroke-width="1.1" d="M327.0855,-548.9003C327.0855,-548.9003 72.9145,-548.9003 72.9145,-548.9003 66.9145,-548.9003 60.9145,-542.9003 60.9145,-536.9003 60.9145,-536.9003 60.9145,-489.4997 60.9145,-489.4997 60.9145,-483.4997 66.9145,-477.4997 72.9145,-477.4997 72.9145,-477.4997 327.0855,-477.4997 327.0855,-477.4997 333.0855,-477.4997 339.0855,-483.4997 339.0855,-489.4997 339.0855,-489.4997 339.0855,-536.9003 339.0855,-536.9003 339.0855,-542.9003 333.0855,-548.9003 327.0855,-548.9003"/>
<text text-anchor="middle" x="200" y="-518.6" font-family="Times,serif" font-size="18.00" fill="#000000">Hypothèse 4 : On ne peut pas</text>
<text text-anchor="middle" x="200" y="-497" font-family="Times,serif" font-size="18.00" fill="#000000">différencier science et non&#45;science</text>
<text text-anchor="start" x="44.4639" y="-553.3" font-family="Times,serif" font-size="15.00" fill="#000000">💬</text>
</g>
<!-- o4 -->
<g id="node10" class="node">
<title>o4</title>
<path fill="#ffffff" stroke="#cd0000" stroke-width="1.1" d="M526.075,-404.6C526.075,-404.6 185.925,-404.6 185.925,-404.6 179.925,-404.6 173.925,-398.6 173.925,-392.6 173.925,-392.6 173.925,-280.6 173.925,-280.6 173.925,-274.6 179.925,-268.6 185.925,-268.6 185.925,-268.6 526.075,-268.6 526.075,-268.6 532.075,-268.6 538.075,-274.6 538.075,-280.6 538.075,-280.6 538.075,-392.6 538.075,-392.6 538.075,-398.6 532.075,-404.6 526.075,-404.6"/>
<text text-anchor="middle" x="356" y="-374.4" font-family="Times,serif" font-size="18.00" fill="#000000">Objection : Il y a tout de même des cas clairs</text>
<text text-anchor="middle" x="356" y="-352.8" font-family="Times,serif" font-size="18.00" fill="#000000">d&#39;énoncés pseudoscientifiques et il est</text>
<text text-anchor="middle" x="356" y="-331.2" font-family="Times,serif" font-size="18.00" fill="#000000">moralement important de faire cette différence</text>
<text text-anchor="middle" x="356" y="-309.6" font-family="Times,serif" font-size="18.00" fill="#000000">quand la croyance en ces énoncés peut avoir</text>
<text text-anchor="middle" x="356" y="-288" font-family="Times,serif" font-size="18.00" fill="#000000">des conséquences négatives importantes</text>
<text text-anchor="middle" x="166.2165" y="-410" font-family="Times,serif" font-size="18.00" fill="#000000">⚡</text>
</g>
<!-- h4&#45;&gt;o4 -->
<!-- h4&#45;&gt;o4 -->
<g id="edge14" class="edge">
<title>h4&#45;&gt;o4:n</title>
<path fill="none" stroke="#cd0000" stroke-width=".8" d="M251.5126,-477.3393C288.787,-451.3906 335.219,-419.0668 350.702,-408.2882"/>
<polygon fill="#cd0000" stroke="#cd0000" stroke-width=".8" points="352.2755,-409.7516 356,-404.6 349.8759,-406.3046 352.2755,-409.7516"/>
<text text-anchor="start" x="258.0633" y="-445.8138" font-family="Times,serif" font-size="10.00" fill="#cd0000">objection !</text>
</g>
<!-- h5 -->
<g id="node6" class="node">
<title>h5</title>
<path fill="#ffffff" stroke="#008b00" stroke-width="1.1" d="M445.8816,-195.4005C445.8816,-195.4005 50.1184,-195.4005 50.1184,-195.4005 44.1184,-195.4005 38.1184,-189.4005 38.1184,-183.4005 38.1184,-183.4005 38.1184,-50.1995 38.1184,-50.1995 38.1184,-44.1995 44.1184,-38.1995 50.1184,-38.1995 50.1184,-38.1995 445.8816,-38.1995 445.8816,-38.1995 451.8816,-38.1995 457.8816,-44.1995 457.8816,-50.1995 457.8816,-50.1995 457.8816,-183.4005 457.8816,-183.4005 457.8816,-189.4005 451.8816,-195.4005 445.8816,-195.4005"/>
<text text-anchor="middle" x="248" y="-165.4" font-family="Times,serif" font-size="18.00" fill="#000000">Hypothèse 5 : On peut proposer une liste de critères,</text>
<text text-anchor="middle" x="248" y="-143.8" font-family="Times,serif" font-size="18.00" fill="#000000">qui ne seraient pas absolus et décontextualisés, qui</text>
<text text-anchor="middle" x="248" y="-122.2" font-family="Times,serif" font-size="18.00" fill="#000000">fonctionneraient plutôt comme des marqueurs de</text>
<text text-anchor="middle" x="248" y="-100.6" font-family="Times,serif" font-size="18.00" fill="#000000">scientificité, permettant de calculer un degré</text>
<text text-anchor="middle" x="248" y="-79" font-family="Times,serif" font-size="18.00" fill="#000000">de scientificité ou de situer des énoncés dans</text>
<text text-anchor="middle" x="248" y="-57.4" font-family="Times,serif" font-size="18.00" fill="#000000">un certain espace épistémologique</text>
<text text-anchor="start" x="21.8157" y="-200.1" font-family="Times,serif" font-size="15.00" fill="#000000">💬</text>
</g>
<!-- o1&#45;&gt;h2 -->
<!-- o2&#45;&gt;h3 -->
<!-- o3&#45;&gt;h3 -->
<!-- o3&#45;&gt;h4 -->
<!-- vide2 -->
<!-- o3&#45;&gt;vide2 -->
<!-- o4&#45;&gt;h4 -->
<!-- o4&#45;&gt;h5 -->
<!-- vide3 -->
<!-- o4&#45;&gt;vide3 -->
<!-- vide1 -->
<!-- vide1&#45;&gt;o1 -->
</g>
</svg>
