<?xml version="1.0" encoding="UTF-8" standalone="no"?>
<!DOCTYPE svg PUBLIC "-//W3C//DTD SVG 1.1//EN"
 "http://www.w3.org/Graphics/SVG/1.1/DTD/svg11.dtd">
<!-- Generated by graphviz version 2.40.1 (20161225.0304)
 -->
<!-- Title: G Pages: 1 -->
<svg width="347pt" height="190pt"
 viewBox="0.00 0.00 347.46 190.00" xmlns="http://www.w3.org/2000/svg" xmlns:xlink="http://www.w3.org/1999/xlink">
<g id="graph0" class="graph" transform="scale(1 1) rotate(0) translate(0 190)">
<title>G</title>
<polygon fill="#ffffff" stroke="transparent" points="0,0 0,-190 347.4574,-190 347.4574,0 0,0"/>
<text text-anchor="start" x="65.3777" y="-170.8" font-family="Times,serif" font-weight="bold" font-size="18.00" fill="#000000">Le déterminisme linguistique </text>
<text text-anchor="start" x="63.773" y="-152.8" font-family="Times,serif" font-weight="bold" font-size="18.00" fill="#000000">(l&#39;hypothèse de Sapir&#45;Whorf)</text>
<g id="clust1" class="cluster">
<title>cluster_0</title>
<polygon fill="none" stroke="#707070" stroke-width=".7" points="8,-8 8,-138 339.4574,-138 339.4574,-8 8,-8"/>
</g>
<!-- non2 -->
<g id="node1" class="node">
<title>non2</title>
<path fill="none" stroke="#ffffff" d="M121.791,-130C121.791,-130 38.114,-130 38.114,-130 32.114,-130 26.114,-124 26.114,-118 26.114,-118 26.114,-94 26.114,-94 26.114,-88 32.114,-82 38.114,-82 38.114,-82 121.791,-82 121.791,-82 127.791,-82 133.791,-88 133.791,-94 133.791,-94 133.791,-118 133.791,-118 133.791,-124 127.791,-130 121.791,-130"/>
<text text-anchor="start" x="37.468" y="-118" font-family="Times,serif" font-size="10.00" fill="#000000">❌  Ce n&#39;est pas une</text>
<text text-anchor="start" x="35.5315" y="-108" font-family="Times,serif" font-size="10.00" fill="#000000">thèse sur la nécessité</text>
<text text-anchor="start" x="34.2835" y="-98" font-family="Times,serif" font-size="10.00" fill="#000000">du </text>
<text text-anchor="start" x="46.7835" y="-98" font-family="Times,serif" font-weight="bold" font-size="10.00" fill="#000000">langage &#160;</text>
<text text-anchor="start" x="82.8795" y="-98" font-family="Times,serif" font-size="10.00" fill="#000000">en général</text>
<text text-anchor="start" x="39.686" y="-88" font-family="Times,serif" font-size="10.00" fill="#000000">pour pouvoir penser</text>
</g>
<!-- fleche -->
<g id="node3" class="node">
<title>fleche</title>
<polygon fill="#545454" stroke="#545454" stroke-width="5" points="166.905,-73.6667 151.905,-73.6667 151.905,-72.3333 166.905,-72.3333 166.905,-72 167.905,-73 166.905,-74 166.905,-73.6667"/>
</g>
<!-- non2&#45;&gt;fleche -->
<!-- non1 -->
<g id="node2" class="node">
<title>non1</title>
<path fill="none" stroke="#ffffff" d="M131.8575,-64C131.8575,-64 28.0475,-64 28.0475,-64 22.0475,-64 16.0475,-58 16.0475,-52 16.0475,-52 16.0475,-28 16.0475,-28 16.0475,-22 22.0475,-16 28.0475,-16 28.0475,-16 131.8575,-16 131.8575,-16 137.8575,-16 143.8575,-22 143.8575,-28 143.8575,-28 143.8575,-52 143.8575,-52 143.8575,-58 137.8575,-64 131.8575,-64"/>
<text text-anchor="start" x="24" y="-52" font-family="Times,serif" font-size="10.00" fill="#000000">❌  Ce n&#39;est pas une thèse</text>
<text text-anchor="start" x="35.3965" y="-42" font-family="Times,serif" font-size="10.00" fill="#000000">sur l&#39;effet de certaines</text>
<text text-anchor="start" x="36.3605" y="-32" font-family="Times,serif" font-weight="bold" font-size="10.00" fill="#000000">paroles &#160;</text>
<text text-anchor="start" x="70.2355" y="-32" font-family="Times,serif" font-size="10.00" fill="#000000">particulières</text>
<text text-anchor="start" x="49.9625" y="-22" font-family="Times,serif" font-size="10.00" fill="#000000">sur notre esprit</text>
</g>
<!-- non1&#45;&gt;fleche -->
<!-- oui1 -->
<g id="node4" class="node">
<title>oui1</title>
<path fill="none" stroke="#ffffff" d="M319.2343,-104.5C319.2343,-104.5 197.1281,-104.5 197.1281,-104.5 191.1281,-104.5 185.1281,-98.5 185.1281,-92.5 185.1281,-92.5 185.1281,-53.5 185.1281,-53.5 185.1281,-47.5 191.1281,-41.5 197.1281,-41.5 197.1281,-41.5 319.2343,-41.5 319.2343,-41.5 325.2343,-41.5 331.2343,-47.5 331.2343,-53.5 331.2343,-53.5 331.2343,-92.5 331.2343,-92.5 331.2343,-98.5 325.2343,-104.5 319.2343,-104.5"/>
<text text-anchor="start" x="201.7556" y="-91.6" font-family="Times,serif" font-size="11.00" fill="#000000">✅   C&#39;est l&#39;idée que les</text>
<text text-anchor="start" x="192.905" y="-80.6" font-family="Times,serif" font-size="11.00" fill="#000000">caractéristiques particulières</text>
<text text-anchor="start" x="201.8299" y="-69.6" font-family="Times,serif" font-size="11.00" fill="#000000">d&#39;une</text>
<text text-anchor="start" x="226.8747" y="-69.6" font-family="Times,serif" font-weight="bold" font-size="11.00" fill="#000000">langue </text>
<text text-anchor="start" x="262.6092" y="-69.6" font-family="Times,serif" font-size="11.00" fill="#000000">(sa syntaxe,</text>
<text text-anchor="start" x="204.4198" y="-58.6" font-family="Times,serif" font-size="11.00" fill="#000000">son lexique) ont un effet</text>
<text text-anchor="start" x="198.3175" y="-47.6" font-family="Times,serif" font-size="11.00" fill="#000000">sur les manières de penser</text>
</g>
<!-- fleche&#45;&gt;oui1 -->
</g>
</svg>
