<?xml version="1.0" encoding="UTF-8" standalone="no"?>
<!DOCTYPE svg PUBLIC "-//W3C//DTD SVG 1.1//EN"
 "http://www.w3.org/Graphics/SVG/1.1/DTD/svg11.dtd">
<!-- Generated by graphviz version 2.40.1 (20161225.0304)
 -->
<!-- Title: G Pages: 1 -->
<svg width="489pt" height="230pt"
 viewBox="0.00 0.00 488.82 230.00" xmlns="http://www.w3.org/2000/svg" xmlns:xlink="http://www.w3.org/1999/xlink">
<g id="graph0" class="graph" transform="scale(1 1) rotate(0) translate(4 226)">
<title>G</title>
<polygon fill="#ffffff" stroke="transparent" points="-4,4 -4,-226 484.8246,-226 484.8246,4 -4,4"/>
<text text-anchor="start" x="132.0613" y="-202.8" font-family="Times,serif" font-weight="bold" font-size="18.00" fill="#000000">Le déterminisme linguistique </text>
<text text-anchor="start" x="130.4566" y="-184.8" font-family="Times,serif" font-weight="bold" font-size="18.00" fill="#000000">(l&#39;hypothèse de Sapir&#45;Whorf)</text>
<g id="clust1" class="cluster">
<title>cluster_0</title>
<polygon fill="none" stroke="#707070" stroke-width=".7" points="8,-8 8,-170 472.8246,-170 472.8246,-8 8,-8"/>
</g>
<!-- non2 -->
<g id="node1" class="node">
<title>non2</title>
<path fill="none" stroke="#ffffff" d="M162.2068,-162C162.2068,-162 42.4602,-162 42.4602,-162 36.4602,-162 30.4602,-156 30.4602,-150 30.4602,-150 30.4602,-110 30.4602,-110 30.4602,-104 36.4602,-98 42.4602,-98 42.4602,-98 162.2068,-98 162.2068,-98 168.2068,-98 174.2068,-104 174.2068,-110 174.2068,-110 174.2068,-150 174.2068,-150 174.2068,-156 168.2068,-162 162.2068,-162"/>
<text text-anchor="start" x="42.8552" y="-146.4" font-family="Times,serif" font-size="14.00" fill="#000000">❌  Ce n&#39;est pas une</text>
<text text-anchor="start" x="40.1441" y="-132.4" font-family="Times,serif" font-size="14.00" fill="#000000">thèse sur la nécessité</text>
<text text-anchor="start" x="38.3969" y="-118.4" font-family="Times,serif" font-size="14.00" fill="#000000">du </text>
<text text-anchor="start" x="55.8969" y="-118.4" font-family="Times,serif" font-weight="bold" font-size="14.00" fill="#000000">langage &#160;</text>
<text text-anchor="start" x="106.4313" y="-118.4" font-family="Times,serif" font-size="14.00" fill="#000000">en général</text>
<text text-anchor="start" x="45.9604" y="-104.4" font-family="Times,serif" font-size="14.00" fill="#000000">pour pouvoir penser</text>
</g>
<!-- fleche -->
<g id="node3" class="node">
<title>fleche</title>
<polygon fill="#545454" stroke="#545454" stroke-width="5" points="245.667,-89.6667 224.667,-89.6667 224.667,-88.3333 245.667,-88.3333 245.667,-88 246.667,-89 245.667,-90 245.667,-89.6667"/>
</g>
<!-- non2&#45;&gt;fleche -->
<!-- non1 -->
<g id="node2" class="node">
<title>non1</title>
<path fill="none" stroke="#ffffff" d="M176.5008,-80C176.5008,-80 28.1662,-80 28.1662,-80 22.1662,-80 16.1662,-74 16.1662,-68 16.1662,-68 16.1662,-28 16.1662,-28 16.1662,-22 22.1662,-16 28.1662,-16 28.1662,-16 176.5008,-16 176.5008,-16 182.5008,-16 188.5008,-22 188.5008,-28 188.5008,-28 188.5008,-68 188.5008,-68 188.5008,-74 182.5008,-80 176.5008,-80"/>
<text text-anchor="start" x="24" y="-64.4" font-family="Times,serif" font-size="14.00" fill="#000000">❌  Ce n&#39;est pas une thèse</text>
<text text-anchor="start" x="39.9551" y="-50.4" font-family="Times,serif" font-size="14.00" fill="#000000">sur l&#39;effet de certaines</text>
<text text-anchor="start" x="41.3047" y="-36.4" font-family="Times,serif" font-weight="bold" font-size="14.00" fill="#000000">paroles &#160;</text>
<text text-anchor="start" x="88.7297" y="-36.4" font-family="Times,serif" font-size="14.00" fill="#000000">particulières</text>
<text text-anchor="start" x="60.3475" y="-22.4" font-family="Times,serif" font-size="14.00" fill="#000000">sur notre esprit</text>
</g>
<!-- non1&#45;&gt;fleche -->
<!-- oui1 -->
<g id="node4" class="node">
<title>oui1</title>
<path fill="none" stroke="#ffffff" d="M452.9035,-128C452.9035,-128 294.5881,-128 294.5881,-128 288.5881,-128 282.5881,-122 282.5881,-116 282.5881,-116 282.5881,-62 282.5881,-62 282.5881,-56 288.5881,-50 294.5881,-50 294.5881,-50 452.9035,-50 452.9035,-50 458.9035,-50 464.9035,-56 464.9035,-62 464.9035,-62 464.9035,-116 464.9035,-116 464.9035,-122 458.9035,-128 452.9035,-128"/>
<text text-anchor="start" x="301.9314" y="-112.4" font-family="Times,serif" font-size="14.00" fill="#000000">✅   C&#39;est l&#39;idée que les</text>
<text text-anchor="start" x="290.667" y="-98.4" font-family="Times,serif" font-size="14.00" fill="#000000">caractéristiques particulières</text>
<text text-anchor="start" x="302.0259" y="-84.4" font-family="Times,serif" font-size="14.00" fill="#000000">d&#39;une</text>
<text text-anchor="start" x="333.9011" y="-84.4" font-family="Times,serif" font-weight="bold" font-size="14.00" fill="#000000">langue </text>
<text text-anchor="start" x="379.3815" y="-84.4" font-family="Times,serif" font-size="14.00" fill="#000000">(sa syntaxe,</text>
<text text-anchor="start" x="305.3222" y="-70.4" font-family="Times,serif" font-size="14.00" fill="#000000">son lexique) ont un effet</text>
<text text-anchor="start" x="297.5557" y="-56.4" font-family="Times,serif" font-size="14.00" fill="#000000">sur les manières de penser</text>
</g>
<!-- fleche&#45;&gt;oui1 -->
</g>
</svg>
