<?xml version="1.0" encoding="UTF-8" standalone="no"?>
<!DOCTYPE svg PUBLIC "-//W3C//DTD SVG 1.1//EN"
 "http://www.w3.org/Graphics/SVG/1.1/DTD/svg11.dtd">
<!-- Generated by graphviz version 2.40.1 (20161225.0304)
 -->
<!-- Title: G Pages: 1 -->
<svg width="282pt" height="372pt"
 viewBox="0.00 0.00 282.18 372.02" xmlns="http://www.w3.org/2000/svg" xmlns:xlink="http://www.w3.org/1999/xlink">
<g id="graph0" class="graph" transform="scale(1 1) rotate(0) translate(21.6 350.4214)">
<title>G</title>
<polygon fill="#fafafa" stroke="transparent" points="-21.6,21.6 -21.6,-350.4214 260.5808,-350.4214 260.5808,21.6 -21.6,21.6"/>
<!-- a1 -->
<g id="node1" class="node">
<title>a1</title>
<ellipse fill="#000000" stroke="#000000" cx="121.5464" cy="-277.344" rx="93.8041" ry="51.4548"/>
<text text-anchor="middle" x="121.5464" y="-293.544" font-family="Times,serif" font-size="18.00" fill="#ffffff">À première vue</text>
<text text-anchor="middle" x="121.5464" y="-271.944" font-family="Times,serif" font-size="18.00" fill="#ffffff">les jugements</text>
<text text-anchor="middle" x="121.5464" y="-250.344" font-family="Times,serif" font-size="18.00" fill="#ffffff">moraux sont …</text>
</g>
<!-- b1 -->
<g id="node2" class="node">
<title>b1</title>
<ellipse fill="#8b0000" stroke="#000000" cx="59.5464" cy="-171.6333" rx="54.8407" ry="19.4695"/>
<text text-anchor="middle" x="59.5464" y="-166.8333" font-family="Times,serif" font-size="16.00" fill="#ffffff">subjectifs</text>
</g>
<!-- a1&#45;&gt;b1 -->
<g id="edge1" class="edge">
<title>a1&#45;&gt;b1:n</title>
<path fill="none" stroke="#000000" d="M74.5549,-232.6552C67.8668,-222.9898 62.5462,-212.2157 60.4786,-200.8087"/>
<polygon fill="#000000" stroke="#000000" points="63.9442,-200.2723 59.5464,-190.6333 56.9734,-200.9109 63.9442,-200.2723"/>
</g>
<!-- b2 -->
<g id="node3" class="node">
<title>b2</title>
<ellipse fill="#8b0000" stroke="#000000" cx="184.5464" cy="-171.6333" rx="42.9468" ry="19.4695"/>
<text text-anchor="middle" x="184.5464" y="-166.8333" font-family="Times,serif" font-size="16.00" fill="#ffffff"></text>
</g>
<!-- a1&#45;&gt;b2 -->
<g id="edge2" class="edge">
<title>a1&#45;&gt;b2:n</title>
<path fill="none" stroke="#000000" d="M169.2959,-232.7705C176.0918,-223.1035 181.4983,-212.3111 183.5992,-200.8573"/>
<polygon fill="#000000" stroke="#000000" points="187.1089,-200.9136 184.5464,-190.6333 180.1387,-200.2678 187.1089,-200.9136"/>
</g>
<!-- b1&#45;&gt;b2 -->
<!-- c1 -->
<g id="node4" class="node">
<title>c1</title>
<polygon fill="#ffffff" stroke="#7f7f7f" points="87.1392,-117.4 -.0464,-117.4 -.0464,-81.4 87.1392,-81.4 87.1392,-117.4"/>
<text text-anchor="middle" x="43.5464" y="-94.6" font-family="Times,serif" font-size="16.00" fill="#000000"></text>
</g>
<!-- b1&#45;&gt;c1 -->
<g id="edge4" class="edge">
<title>b1&#45;&gt;c1</title>
<path fill="none" stroke="#000000" d="M55.2587,-152.2761C53.5925,-144.7539 51.6503,-135.9855 49.832,-127.7768"/>
<polygon fill="#000000" stroke="#000000" points="53.2052,-126.8208 47.6253,-117.8144 46.3708,-128.3347 53.2052,-126.8208"/>
</g>
<!-- c2 -->
<g id="node5" class="node">
<title>c2</title>
<polygon fill="#ffffff" stroke="#7f7f7f" points="238.9153,-117.4 142.1775,-117.4 142.1775,-81.4 238.9153,-81.4 238.9153,-117.4"/>
<text text-anchor="middle" x="190.5464" y="-94.6" font-family="Times,serif" font-size="16.00" fill="#000000"></text>
</g>
<!-- b2&#45;&gt;c2 -->
<g id="edge5" class="edge">
<title>b2&#45;&gt;c2</title>
<path fill="none" stroke="#000000" d="M186.1543,-152.2761C186.7722,-144.8375 187.4913,-136.1802 188.1666,-128.0506"/>
<polygon fill="#000000" stroke="#000000" points="191.6769,-128.0698 189.0168,-117.8144 184.701,-127.4903 191.6769,-128.0698"/>
</g>
<!-- c1&#45;&gt;c2 -->
<!-- e1 -->
<g id="node6" class="node">
<title>e1</title>
<path fill="#ffffff" stroke="#7f7f7f" d="M206.059,-46.6017C206.059,-46.6017 27.0338,-46.6017 27.0338,-46.6017 21.0338,-46.6017 15.0338,-40.6017 15.0338,-34.6017 15.0338,-34.6017 15.0338,-11.7983 15.0338,-11.7983 15.0338,-5.7983 21.0338,.2017 27.0338,.2017 27.0338,.2017 206.059,.2017 206.059,.2017 212.059,.2017 218.059,-5.7983 218.059,-11.7983 218.059,-11.7983 218.059,-34.6017 218.059,-34.6017 218.059,-40.6017 212.059,-46.6017 206.059,-46.6017"/>
<text text-anchor="middle" x="116.5464" y="-28" font-family="Times,serif" font-size="16.00" fill="#000000"></text>
<text text-anchor="middle" x="116.5464" y="-8.8" font-family="Times,serif" font-size="16.00" fill="#000000"></text>
</g>
<!-- c1&#45;&gt;e1 -->
<g id="edge7" class="edge">
<title>c1&#45;&gt;e1</title>
<path fill="none" stroke="#000000" d="M60.8464,-81.3417C68.6978,-73.1461 78.2062,-63.2209 87.1276,-53.9084"/>
<polygon fill="#000000" stroke="#000000" points="89.7232,-56.2584 94.1137,-46.6161 84.6684,-51.4159 89.7232,-56.2584"/>
</g>
<!-- c2&#45;&gt;e1 -->
<g id="edge8" class="edge">
<title>c2&#45;&gt;e1</title>
<path fill="none" stroke="#000000" d="M173.0094,-81.3417C165.0505,-73.1461 155.4118,-63.2209 146.3682,-53.9084"/>
<polygon fill="#000000" stroke="#000000" points="148.7641,-51.3516 139.2864,-46.6161 143.7423,-56.2283 148.7641,-51.3516"/>
</g>
</g>
</svg>
