<?xml version="1.0" encoding="UTF-8" standalone="no"?><!DOCTYPE svg PUBLIC "-//W3C//DTD SVG 1.1//EN" "http://www.w3.org/Graphics/SVG/1.1/DTD/svg11.dtd"><!-- Generated by graphviz version 2.40.1 (20161225.0304)
 --><!-- Title: G Pages: 1 --><svg xmlns="http://www.w3.org/2000/svg" xmlns:xlink="http://www.w3.org/1999/xlink" width="339pt" height="410pt" viewBox="0.00 0.00 339.25 409.57">
<g id="graph0" class="graph" transform="scale(1 1) rotate(0) translate(21.6 387.9743)">
<title>G</title>
<polygon fill="#fafafa" stroke="transparent" points="-21.6,21.6 -21.6,-387.9743 317.6516,-387.9743 317.6516,21.6 -21.6,21.6"/>
<!-- a1 -->
<g id="node1" class="node">
<title>a1</title>
<ellipse fill="#000000" stroke="#000000" cx="148.0258" cy="-314.8969" rx="93.8041" ry="51.4548"/>
<text text-anchor="middle" x="148.0258" y="-331.0969" font-family="Times,serif" font-size="18.00" fill="#ffffff">À première vue</text>
<text text-anchor="middle" x="148.0258" y="-309.4969" font-family="Times,serif" font-size="18.00" fill="#ffffff">les jugements</text>
<text text-anchor="middle" x="148.0258" y="-287.8969" font-family="Times,serif" font-size="18.00" fill="#ffffff">moraux …</text>
</g>
<!-- b1 -->
<g id="node2" class="node">
<title>b1</title>
<ellipse fill="#8b0000" stroke="#000000" cx="67.0258" cy="-195.6098" rx="67.0516" ry="32.6206"/>
<text text-anchor="middle" x="67.0258" y="-200.4098" font-family="Times,serif" font-size="16.00" fill="#ffffff">= jugements</text>
<text text-anchor="middle" x="67.0258" y="-181.2098" font-family="Times,serif" font-size="16.00" fill="#ffffff">subjectifs</text>
</g>
<!-- a1&#45;&gt;b1 -->
<g id="edge1" class="edge">
<title>a1-&gt;b1:n</title>
<path fill="none" stroke="#000000" d="M88.7323,-274.9922C78.7932,-264.5667 70.7944,-252.3513 68.049,-238.6523"/>
<polygon fill="#000000" stroke="#000000" points="71.5035,-238.0216 67.0258,-228.4195 64.5382,-238.7182 71.5035,-238.0216"/>
</g>
<!-- b2 -->
<g id="node3" class="node">
<title>b2</title>
<ellipse fill="#8b0000" stroke="#000000" cx="229.0258" cy="-195.6098" rx="67.0516" ry="32.6206"/>
<text text-anchor="middle" x="229.0258" y="-200.4098" font-family="Times,serif" font-size="16.00" fill="#ffffff">= jugements</text>
<text text-anchor="middle" x="229.0258" y="-181.2098" font-family="Times,serif" font-size="16.00" fill="#ffffff">relatifs</text>
</g>
<!-- a1&#45;&gt;b2 -->
<g id="edge2" class="edge">
<title>a1-&gt;b2:n</title>
<path fill="none" stroke="#000000" d="M207.3193,-274.9922C217.2584,-264.5667 225.2572,-252.3513 228.0026,-238.6523"/>
<polygon fill="#000000" stroke="#000000" points="231.5134,-238.7182 229.0258,-228.4195 224.5481,-238.0216 231.5134,-238.7182"/>
</g>
<!-- b1&#45;&gt;b2 -->
<!-- c1 -->
<g id="node4" class="node">
<title>c1</title>
<polygon fill="#ffffff" stroke="#7f7f7f" points="122.3947,-128.0017 41.6569,-128.0017 41.6569,-81.1983 122.3947,-81.1983 122.3947,-128.0017"/>
<text text-anchor="middle" x="82.0258" y="-109.4" font-family="Times,serif" font-size="16.00" fill="#000000">≠ vérités</text>
<text text-anchor="middle" x="82.0258" y="-90.2" font-family="Times,serif" font-size="16.00" fill="#000000">objectives</text>
</g>
<!-- b1&#45;&gt;c1 -->
<g id="edge4" class="edge">
<title>b1-&gt;c1</title>
<path fill="none" stroke="#000000" d="M72.4411,-162.7531C73.7746,-154.6624 75.2037,-145.9921 76.5404,-137.8815"/>
<polygon fill="#000000" stroke="#000000" points="79.9973,-138.429 78.1702,-127.9929 73.0905,-137.2906 79.9973,-138.429"/>
</g>
<!-- c2 -->
<g id="node5" class="node">
<title>c2</title>
<polygon fill="#ffffff" stroke="#7f7f7f" points="270.4444,-128.0017 177.6073,-128.0017 177.6073,-81.1983 270.4444,-81.1983 270.4444,-128.0017"/>
<text text-anchor="middle" x="224.0258" y="-109.4" font-family="Times,serif" font-size="16.00" fill="#000000">≠ vérités</text>
<text text-anchor="middle" x="224.0258" y="-90.2" font-family="Times,serif" font-size="16.00" fill="#000000">universelles</text>
</g>
<!-- b2&#45;&gt;c2 -->
<g id="edge5" class="edge">
<title>b2-&gt;c2</title>
<path fill="none" stroke="#000000" d="M227.2207,-162.7531C226.7811,-154.7523 226.3104,-146.1847 225.8691,-138.152"/>
<polygon fill="#000000" stroke="#000000" points="229.3544,-137.7858 225.311,-127.9929 222.3649,-138.1699 229.3544,-137.7858"/>
</g>
<!-- c1&#45;&gt;c2 -->
<!-- e1 -->
<g id="node6" class="node">
<title>e1</title>
<path fill="#ffffff" stroke="#7f7f7f" d="M239.3691,-46.6017C239.3691,-46.6017 66.6825,-46.6017 66.6825,-46.6017 60.6825,-46.6017 54.6825,-40.6017 54.6825,-34.6017 54.6825,-34.6017 54.6825,-11.7983 54.6825,-11.7983 54.6825,-5.7983 60.6825,.2017 66.6825,.2017 66.6825,.2017 239.3691,.2017 239.3691,.2017 245.3691,.2017 251.3691,-5.7983 251.3691,-11.7983 251.3691,-11.7983 251.3691,-34.6017 251.3691,-34.6017 251.3691,-40.6017 245.3691,-46.6017 239.3691,-46.6017"/>
<text text-anchor="middle" x="153.0258" y="-28" font-family="Times,serif" font-size="16.00" fill="#000000">Donc : il ne peut pas y avoir</text>
<text text-anchor="middle" x="153.0258" y="-8.8" font-family="Times,serif" font-size="16.00" fill="#000000">de connaissance morale</text>
</g>
<!-- c1&#45;&gt;e1 -->
<g id="edge7" class="edge">
<title>c1-&gt;e1</title>
<path fill="none" stroke="#000000" d="M102.5619,-81.0557C109.9108,-72.6304 118.3069,-63.0045 126.1135,-54.0544"/>
<polygon fill="#000000" stroke="#000000" points="128.8454,-56.247 132.781,-46.4102 123.5701,-51.6457 128.8454,-56.247"/>
</g>
<!-- c2&#45;&gt;e1 -->
<g id="edge8" class="edge">
<title>c2-&gt;e1</title>
<path fill="none" stroke="#000000" d="M203.4897,-81.0557C196.1408,-72.6304 187.7447,-63.0045 179.9381,-54.0544"/>
<polygon fill="#000000" stroke="#000000" points="182.4815,-51.6457 173.2706,-46.4102 177.2062,-56.247 182.4815,-51.6457"/>
</g>
</g>
</svg>