<?xml version="1.0" encoding="UTF-8" standalone="no"?>
<!DOCTYPE svg PUBLIC "-//W3C//DTD SVG 1.1//EN"
 "http://www.w3.org/Graphics/SVG/1.1/DTD/svg11.dtd">
<!-- Generated by graphviz version 2.40.1 (20161225.0304)
 -->
<!-- Title: G Pages: 1 -->
<svg width="372pt" height="196pt"
 viewBox="0.00 0.00 371.88 195.68" xmlns="http://www.w3.org/2000/svg" xmlns:xlink="http://www.w3.org/1999/xlink">
<g id="graph0" class="graph" transform="scale(1 1) rotate(0) translate(21.6 174.0774)">
<title>G</title>
<polygon fill="#fafafa" stroke="transparent" points="-21.6,21.6 -21.6,-174.0774 350.276,-174.0774 350.276,21.6 -21.6,21.6"/>
<!-- a1 -->
<g id="node1" class="node">
<title>a1</title>
<ellipse fill="#7f7f7f" stroke="#7f7f7f" cx="54.0744" cy="-101" rx="54.149" ry="51.4548"/>
<text text-anchor="middle" x="54.0744" y="-117.2" font-family="Times,serif" font-size="18.00" fill="#ffffff">Idée</text>
<text text-anchor="middle" x="54.0744" y="-95.6" font-family="Times,serif" font-size="18.00" fill="#ffffff">vague et</text>
<text text-anchor="middle" x="54.0744" y="-74" font-family="Times,serif" font-size="18.00" fill="#ffffff">confuse</text>
</g>
<!-- b1 -->
<g id="node2" class="node">
<title>b1</title>
<ellipse fill="#0000cd" stroke="#0000cd" cx="276.7323" cy="-101" rx="51.8876" ry="51.4548"/>
<text text-anchor="middle" x="276.7323" y="-117.2" font-family="Times,serif" font-size="18.00" fill="#ffffff">Idée</text>
<text text-anchor="middle" x="276.7323" y="-95.6" font-family="Times,serif" font-size="18.00" fill="#ffffff">claire et</text>
<text text-anchor="middle" x="276.7323" y="-74" font-family="Times,serif" font-size="18.00" fill="#ffffff">précise</text>
</g>
<!-- a1&#45;&gt;b1 -->
<g id="edge1" class="edge">
<title>a1&#45;&gt;b1:w</title>
<path fill="none" stroke="#000000" d="M108.3956,-101C114.2196,-101 120.0571,-101 125.6489,-101 125.6489,-101 125.6489,-101 207.2885,-101 210.4482,-101 212.6452,-101 214.6617,-101"/>
<polygon fill="#000000" stroke="#000000" points="214.7885,-104.5001 224.7885,-101 214.7884,-97.5001 214.7885,-104.5001"/>
<text text-anchor="middle" x="166.4687" y="-105.2" font-family="Times,serif" font-size="14.00" fill="#000000">analyser</text>
</g>
<!-- e1 -->
<g id="node3" class="node">
<title>e1</title>
<path fill="#fafafa" stroke="transparent" d="M72.5193,-36C72.5193,-36 35.6296,-36 35.6296,-36 29.6296,-36 23.6296,-30 23.6296,-24 23.6296,-24 23.6296,-12 23.6296,-12 23.6296,-6 29.6296,0 35.6296,0 35.6296,0 72.5193,0 72.5193,0 78.5193,0 84.5193,-6 84.5193,-12 84.5193,-12 84.5193,-24 84.5193,-24 84.5193,-30 78.5193,-36 72.5193,-36"/>
<text text-anchor="middle" x="54.0744" y="-13.2" font-family="Times,serif" font-size="16.00" fill="#cd2626">Notion</text>
</g>
<!-- a1&#45;&gt;e1 -->
<!-- e2 -->
<g id="node4" class="node">
<title>e2</title>
<path fill="#fafafa" stroke="transparent" d="M299.5546,-36C299.5546,-36 253.9099,-36 253.9099,-36 247.9099,-36 241.9099,-30 241.9099,-24 241.9099,-24 241.9099,-12 241.9099,-12 241.9099,-6 247.9099,0 253.9099,0 253.9099,0 299.5546,0 299.5546,0 305.5546,0 311.5546,-6 311.5546,-12 311.5546,-12 311.5546,-24 311.5546,-24 311.5546,-30 305.5546,-36 299.5546,-36"/>
<text text-anchor="middle" x="276.7323" y="-13.2" font-family="Times,serif" font-size="16.00" fill="#cd2626">Concept</text>
</g>
<!-- b1&#45;&gt;e2 -->
</g>
</svg>
