<?xml version="1.0" encoding="UTF-8" standalone="no"?><!DOCTYPE svg PUBLIC "-//W3C//DTD SVG 1.1//EN" "http://www.w3.org/Graphics/SVG/1.1/DTD/svg11.dtd"><!-- Generated by graphviz version 2.40.1 (20161225.0304)
 --><!-- Title: G Pages: 1 --><svg xmlns="http://www.w3.org/2000/svg" xmlns:xlink="http://www.w3.org/1999/xlink" width="419pt" height="487pt" viewBox="0.00 0.00 418.88 487.50">
<g id="graph0" class="graph" transform="scale(1 1) rotate(0) translate(21.6 465.8997)">
<title>G</title>
<polygon fill="#fafafa" stroke="transparent" points="-21.6,21.6 -21.6,-465.8997 397.276,-465.8997 397.276,21.6 -21.6,21.6"/>
<!-- a1 -->
<g id="node1" class="node">
<title>a1</title>
<ellipse fill="#000000" stroke="#000000" cx="190.852" cy="-423.3694" rx="79.1384" ry="20.861"/>
<text text-anchor="middle" x="190.852" y="-417.9694" font-family="Times,serif" font-size="18.00" fill="#ffffff">L'expérience</text>
</g>
<!-- b2 -->
<g id="node2" class="node">
<title>b2</title>
<ellipse fill="#8b0000" stroke="#000000" cx="190.852" cy="-334.6293" rx="103.5934" ry="32.6206"/>
<text text-anchor="middle" x="190.852" y="-339.4293" font-family="Times,serif" font-size="16.00" fill="#ffffff">« faire l'expérience</text>
<text text-anchor="middle" x="190.852" y="-320.2293" font-family="Times,serif" font-size="16.00" fill="#ffffff">de quelque chose »</text>
</g>
<!-- a1&#45;&gt;b2 -->
<g id="edge1" class="edge">
<title>a1-&gt;b2</title>
<path fill="none" stroke="#000000" d="M190.852,-402.3392C190.852,-394.9788 190.852,-386.4204 190.852,-377.9152"/>
<polygon fill="#000000" stroke="#000000" points="194.3521,-377.6511 190.852,-367.6511 187.3521,-377.6512 194.3521,-377.6511"/>
</g>
<!-- c2 -->
<g id="node5" class="node">
<title>c2</title>
<polygon fill="#ffffff" stroke="#7f7f7f" points="367.1385,-267.0212 14.5655,-267.0212 14.5655,-220.2178 367.1385,-220.2178 367.1385,-267.0212"/>
<text text-anchor="middle" x="190.852" y="-248.4195" font-family="Times,serif" font-size="16.00" fill="#000000">= avoir une connaissance directe de quelque chose,</text>
<text text-anchor="middle" x="190.852" y="-229.2195" font-family="Times,serif" font-size="16.00" fill="#000000">parce qu'on l'a soi-même vécu, ressenti ou observé</text>
</g>
<!-- b2&#45;&gt;c2 -->
<g id="edge5" class="edge">
<title>b2-&gt;c2</title>
<path fill="none" stroke="#000000" d="M190.852,-301.7727C190.852,-293.7718 190.852,-285.2042 190.852,-277.1715"/>
<polygon fill="#000000" stroke="#000000" points="194.3521,-277.0124 190.852,-267.0124 187.3521,-277.0125 194.3521,-277.0124"/>
</g>
<!-- b1 -->
<g id="node3" class="node">
<title>b1</title>
<ellipse fill="#8b0000" stroke="#000000" cx="95.852" cy="-152.6098" rx="80.4948" ry="32.6206"/>
<text text-anchor="middle" x="95.852" y="-157.4098" font-family="Times,serif" font-size="16.00" fill="#ffffff">« avoir de</text>
<text text-anchor="middle" x="95.852" y="-138.2098" font-family="Times,serif" font-size="16.00" fill="#ffffff">l'expérience »</text>
</g>
<!-- c1 -->
<g id="node6" class="node">
<title>c1</title>
<polygon fill="#ffffff" stroke="#7f7f7f" points="183.5562,-84.7002 .1478,-84.7002 .1478,-.0998 183.5562,-.0998 183.5562,-84.7002"/>
<text text-anchor="middle" x="91.852" y="-66.4" font-family="Times,serif" font-size="16.00" fill="#000000">= avoir une connaissance</text>
<text text-anchor="middle" x="91.852" y="-47.2" font-family="Times,serif" font-size="16.00" fill="#000000">fondée sur la pratique, sur</text>
<text text-anchor="middle" x="91.852" y="-28" font-family="Times,serif" font-size="16.00" fill="#000000">le contact concret avec</text>
<text text-anchor="middle" x="91.852" y="-8.8" font-family="Times,serif" font-size="16.00" fill="#000000">les choses elles-mêmes</text>
</g>
<!-- b1&#45;&gt;c1 -->
<g id="edge4" class="edge">
<title>b1-&gt;c1</title>
<path fill="none" stroke="#000000" d="M94.6519,-119.5432C94.3705,-111.79 94.0638,-103.34 93.7599,-94.9682"/>
<polygon fill="#000000" stroke="#000000" points="97.2531,-94.7138 93.3926,-84.8474 90.2577,-94.9678 97.2531,-94.7138"/>
</g>
<!-- b3 -->
<g id="node4" class="node">
<title>b3</title>
<ellipse fill="#8b0000" stroke="#000000" cx="293.852" cy="-152.6098" rx="73.1735" ry="32.6206"/>
<text text-anchor="middle" x="293.852" y="-157.4098" font-family="Times,serif" font-size="16.00" fill="#ffffff">« faire une</text>
<text text-anchor="middle" x="293.852" y="-138.2098" font-family="Times,serif" font-size="16.00" fill="#ffffff">expérience »</text>
</g>
<!-- c3 -->
<g id="node7" class="node">
<title>c3</title>
<polygon fill="#ffffff" stroke="#7f7f7f" points="375.5004,-84.7002 220.2036,-84.7002 220.2036,-.0998 375.5004,-.0998 375.5004,-84.7002"/>
<text text-anchor="middle" x="297.852" y="-66.4" font-family="Times,serif" font-size="16.00" fill="#000000">= expérimenter</text>
<text text-anchor="middle" x="297.852" y="-47.2" font-family="Times,serif" font-size="16.00" fill="#000000">= agir afin de pouvoir</text>
<text text-anchor="middle" x="297.852" y="-28" font-family="Times,serif" font-size="16.00" fill="#000000">faire l'expérience</text>
<text text-anchor="middle" x="297.852" y="-8.8" font-family="Times,serif" font-size="16.00" fill="#000000">de quelque chose</text>
</g>
<!-- b3&#45;&gt;c3 -->
<g id="edge6" class="edge">
<title>b3-&gt;c3</title>
<path fill="none" stroke="#000000" d="M295.0521,-119.5432C295.3335,-111.79 295.6402,-103.34 295.9441,-94.9682"/>
<polygon fill="#000000" stroke="#000000" points="299.4463,-94.9678 296.3114,-84.8474 292.4509,-94.7138 299.4463,-94.9678"/>
</g>
<!-- c2&#45;&gt;b1 -->
<g id="edge2" class="edge">
<title>c2-&gt;b1</title>
<path fill="none" stroke="#000000" d="M166.3871,-220.1822C156.7388,-210.9392 145.4174,-200.0933 134.7036,-189.8295"/>
<polygon fill="#000000" stroke="#000000" points="137.0537,-187.234 127.4114,-182.8436 132.2113,-192.2888 137.0537,-187.234"/>
</g>
<!-- c2&#45;&gt;b3 -->
<g id="edge3" class="edge">
<title>c2-&gt;b3</title>
<path fill="none" stroke="#000000" d="M217.1098,-220.4184C227.9639,-210.8278 240.8054,-199.4812 252.8474,-188.841"/>
<polygon fill="#000000" stroke="#000000" points="255.4401,-191.2207 260.6164,-181.9764 250.8051,-185.975 255.4401,-191.2207"/>
</g>
</g>
</svg>