<?xml version="1.0" encoding="UTF-8" standalone="no"?><!DOCTYPE svg PUBLIC "-//W3C//DTD SVG 1.1//EN" "http://www.w3.org/Graphics/SVG/1.1/DTD/svg11.dtd"><!-- Generated by graphviz version 2.40.1 (20161225.0304)
 --><!-- Title: G Pages: 1 --><svg xmlns="http://www.w3.org/2000/svg" xmlns:xlink="http://www.w3.org/1999/xlink" width="376pt" height="441pt" viewBox="0.00 0.00 375.60 441.28">
<g id="graph0" class="graph" transform="scale(1 1) rotate(0) translate(21.6 419.6802)">
<title>G</title>
<polygon fill="#fafafa" stroke="transparent" points="-21.6,21.6 -21.6,-419.6802 353.9979,-419.6802 353.9979,21.6 -21.6,21.6"/>
<!-- a1 -->
<g id="node1" class="node">
<title>a1</title>
<ellipse fill="#000000" stroke="#000000" cx="171.5344" cy="-363.5734" rx="160.7271" ry="34.5136"/>
<text text-anchor="middle" x="171.5344" y="-368.6734" font-family="Times,serif" font-size="17.00" fill="#ffffff">Pour retrouver le simple plaisir</text>
<text text-anchor="middle" x="171.5344" y="-348.2734" font-family="Times,serif" font-size="17.00" fill="#ffffff">d'exister, il faut parvenir à …</text>
</g>
<!-- b1 -->
<g id="node2" class="node">
<title>b1</title>
<ellipse fill="#8b0000" stroke="#000000" cx="113.5344" cy="-274.8333" rx="48.2664" ry="19.4695"/>
<text text-anchor="middle" x="113.5344" y="-270.0333" font-family="Times,serif" font-size="16.00" fill="#ffffff">l'aponie</text>
</g>
<!-- a1&#45;&gt;b1 -->
<g id="edge1" class="edge">
<title>a1-&gt;b1:n</title>
<path fill="none" stroke="#000000" d="M128.7732,-330.0732C122.3212,-322.3673 117.0522,-313.5974 114.7642,-304.0509"/>
<polygon fill="#000000" stroke="#000000" points="118.2044,-303.3434 113.5344,-293.8333 111.2546,-304.1799 118.2044,-303.3434"/>
</g>
<!-- b2 -->
<g id="node3" class="node">
<title>b2</title>
<ellipse fill="#8b0000" stroke="#000000" cx="232.5344" cy="-274.8333" rx="54.0482" ry="19.4695"/>
<text text-anchor="middle" x="232.5344" y="-270.0333" font-family="Times,serif" font-size="16.00" fill="#ffffff">l'ataraxie</text>
</g>
<!-- a1&#45;&gt;b2 -->
<g id="edge2" class="edge">
<title>a1-&gt;b2:n</title>
<path fill="none" stroke="#000000" d="M216.8254,-330.2334C223.5634,-322.529 229.0307,-313.7138 231.3433,-304.0304"/>
<polygon fill="#000000" stroke="#000000" points="234.8225,-304.4114 232.5344,-294.0666 227.872,-303.5804 234.8225,-304.4114"/>
</g>
<!-- c1 -->
<g id="node4" class="node">
<title>c1</title>
<polygon fill="#ffffff" stroke="#7f7f7f" points="155.1032,-220.8017 -.0344,-220.8017 -.0344,-173.9983 155.1032,-173.9983 155.1032,-220.8017"/>
<text text-anchor="middle" x="77.5344" y="-202.2" font-family="Times,serif" font-size="16.00" fill="#000000">=  l'absence de</text>
<text text-anchor="middle" x="77.5344" y="-183" font-family="Times,serif" font-size="16.00" fill="#000000">troubles dans le corps</text>
</g>
<!-- b1&#45;&gt;c1 -->
<g id="edge3" class="edge">
<title>b1-&gt;c1</title>
<path fill="none" stroke="#000000" d="M104.6355,-255.6925C101.0269,-247.9306 96.756,-238.7442 92.6846,-229.987"/>
<polygon fill="#000000" stroke="#000000" points="95.7756,-228.3332 88.3859,-220.7408 89.428,-231.2843 95.7756,-228.3332"/>
</g>
<!-- c2 -->
<g id="node5" class="node">
<title>c2</title>
<polygon fill="#ffffff" stroke="#7f7f7f" points="316.052,-220.8017 169.0168,-220.8017 169.0168,-173.9983 316.052,-173.9983 316.052,-220.8017"/>
<text text-anchor="middle" x="242.5344" y="-202.2" font-family="Times,serif" font-size="16.00" fill="#000000">=  l'absence de</text>
<text text-anchor="middle" x="242.5344" y="-183" font-family="Times,serif" font-size="16.00" fill="#000000">troubles dans l'âme</text>
</g>
<!-- b2&#45;&gt;c2 -->
<g id="edge4" class="edge">
<title>b2-&gt;c2</title>
<path fill="none" stroke="#000000" d="M235.0578,-255.2936C236.0204,-247.8403 237.1467,-239.1184 238.2289,-230.7392"/>
<polygon fill="#000000" stroke="#000000" points="241.7032,-231.1626 239.5129,-220.7967 234.7608,-230.266 241.7032,-231.1626"/>
</g>
<!-- d1 -->
<g id="node6" class="node">
<title>d1</title>
<path fill="#ffffff" stroke="#7f7f7f" d="M302.9026,-139.0012C302.9026,-139.0012 16.1662,-139.0012 16.1662,-139.0012 10.1662,-139.0012 4.1662,-133.0012 4.1662,-127.0012 4.1662,-127.0012 4.1662,-85.7988 4.1662,-85.7988 4.1662,-79.7988 10.1662,-73.7988 16.1662,-73.7988 16.1662,-73.7988 302.9026,-73.7988 302.9026,-73.7988 308.9026,-73.7988 314.9026,-79.7988 314.9026,-85.7988 314.9026,-85.7988 314.9026,-127.0012 314.9026,-127.0012 314.9026,-133.0012 308.9026,-139.0012 302.9026,-139.0012"/>
<text text-anchor="middle" x="159.5344" y="-120.8" font-family="Times,serif" font-size="16.00" fill="#000000">L'hédonisme d'Épicure est un hédonisme</text>
<text text-anchor="middle" x="159.5344" y="-101.6" font-family="Times,serif" font-size="16.00" fill="#000000">soustractif : le plaisir d'exister se trouve</text>
<text text-anchor="middle" x="159.5344" y="-82.4" font-family="Times,serif" font-size="16.00" fill="#000000">une fois qu'on a supprimé ce qui nous trouble</text>
</g>
<!-- c1&#45;&gt;d1 -->
<g id="edge5" class="edge">
<title>c1-&gt;d1</title>
<path fill="none" stroke="#000000" d="M98.6514,-173.9652C106.215,-165.5715 114.9698,-155.8559 123.441,-146.4548"/>
<polygon fill="#000000" stroke="#000000" points="126.0518,-148.786 130.1459,-139.0141 120.8515,-144.1001 126.0518,-148.786"/>
</g>
<!-- c2&#45;&gt;d1 -->
<g id="edge6" class="edge">
<title>c2-&gt;d1</title>
<path fill="none" stroke="#000000" d="M221.1598,-173.9652C213.504,-165.5715 204.6425,-155.8559 196.0679,-146.4548"/>
<polygon fill="#000000" stroke="#000000" points="198.6062,-144.0439 189.2813,-139.0141 193.4343,-148.7611 198.6062,-144.0439"/>
</g>
<!-- e1 -->
<g id="node7" class="node">
<title>e1</title>
<path fill="#fafafa" stroke="transparent" d="M268.8665,-65.4012C268.8665,-65.4012 50.2023,-65.4012 50.2023,-65.4012 44.2023,-65.4012 38.2023,-59.4012 38.2023,-53.4012 38.2023,-53.4012 38.2023,-12.1988 38.2023,-12.1988 38.2023,-6.1988 44.2023,-.1988 50.2023,-.1988 50.2023,-.1988 268.8665,-.1988 268.8665,-.1988 274.8665,-.1988 280.8665,-6.1988 280.8665,-12.1988 280.8665,-12.1988 280.8665,-53.4012 280.8665,-53.4012 280.8665,-59.4012 274.8665,-65.4012 268.8665,-65.4012"/>
<text text-anchor="middle" x="159.5344" y="-47.2" font-family="Times,serif" font-size="16.00" fill="#cd2626">Ce n'est pas un hédonisme additif :</text>
<text text-anchor="middle" x="159.5344" y="-28" font-family="Times,serif" font-size="16.00" fill="#cd2626">il ne s'agit pas d'ajouter sans cesse</text>
<text text-anchor="middle" x="159.5344" y="-8.8" font-family="Times,serif" font-size="16.00" fill="#cd2626">de nouvelles expériences de plaisir</text>
</g>
<!-- d1&#45;&gt;e1 -->
</g>
</svg>