<?xml version="1.0" encoding="UTF-8" standalone="no"?><!DOCTYPE svg PUBLIC "-//W3C//DTD SVG 1.1//EN" "http://www.w3.org/Graphics/SVG/1.1/DTD/svg11.dtd"><!-- Generated by graphviz version 2.40.1 (20161225.0304)
 --><!-- Title: G Pages: 1 --><svg xmlns="http://www.w3.org/2000/svg" xmlns:xlink="http://www.w3.org/1999/xlink" width="1059pt" height="777pt" viewBox="0.00 0.00 1058.82 777.40">
<g id="graph0" class="graph" transform="scale(1 1) rotate(0) translate(21.6 755.8)">
<title>G</title>
<polygon fill="#fafafa" stroke="transparent" points="-21.6,21.6 -21.6,-755.8 1037.2171,-755.8 1037.2171,21.6 -21.6,21.6"/>
<!-- a0 -->
<g id="node1" class="node">
<title>a0</title>
<ellipse fill="#000000" stroke="#000000" cx="139.9828" cy="-322.4" rx="139.9656" ry="66.5027"/>
<text text-anchor="middle" x="139.9828" y="-349.4" font-family="Times,serif" font-size="18.00" fill="#ffffff">Certains auteurs ont tenu</text>
<text text-anchor="middle" x="139.9828" y="-327.8" font-family="Times,serif" font-size="18.00" fill="#ffffff">des propos, ou ont eu des</text>
<text text-anchor="middle" x="139.9828" y="-306.2" font-family="Times,serif" font-size="18.00" fill="#ffffff">attitudes moralement</text>
<text text-anchor="middle" x="139.9828" y="-284.6" font-family="Times,serif" font-size="18.00" fill="#ffffff">condamnables …</text>
</g>
<!-- a1 -->
<g id="node2" class="node">
<title>a1</title>
<ellipse fill="#000000" stroke="#000000" cx="397.6728" cy="-322.4" rx="82.9149" ry="36.4089"/>
<text text-anchor="middle" x="397.6728" y="-327.8" font-family="Times,serif" font-size="18.00" fill="#ffffff">… Que faut-il</text>
<text text-anchor="middle" x="397.6728" y="-306.2" font-family="Times,serif" font-size="18.00" fill="#ffffff">faire ?</text>
</g>
<!-- a0&#45;&gt;a1 -->
<g id="edge1" class="edge">
<title>a0-&gt;a1</title>
<path fill="none" stroke="#000000" d="M280.1391,-322.4C288.4392,-322.4 296.6762,-322.4 304.711,-322.4"/>
<polygon fill="#000000" stroke="#000000" points="304.7696,-325.9001 314.7696,-322.4 304.7696,-318.9001 304.7696,-325.9001"/>
</g>
<!-- b1 -->
<g id="node3" class="node">
<title>b1</title>
<ellipse fill="#8b0000" stroke="#000000" cx="573.8209" cy="-506.4" rx="58.382" ry="46.2727"/>
<text text-anchor="middle" x="573.8209" y="-520.8" font-family="Times,serif" font-size="16.00" fill="#ffffff">Différents</text>
<text text-anchor="middle" x="573.8209" y="-501.6" font-family="Times,serif" font-size="16.00" fill="#ffffff">aspects du</text>
<text text-anchor="middle" x="573.8209" y="-482.4" font-family="Times,serif" font-size="16.00" fill="#ffffff">problème</text>
</g>
<!-- a1&#45;&gt;b1 -->
<g id="edge2" class="edge">
<title>a1-&gt;b1:w</title>
<path fill="none" stroke="#000000" d="M403.9992,-358.7525C415.0619,-409.6527 442.9512,-496.9548 505.1074,-505.6902"/>
<polygon fill="#000000" stroke="#000000" points="505.1625,-509.2023 515.38,-506.4 505.6451,-502.2189 505.1625,-509.2023"/>
</g>
<!-- b2 -->
<g id="node4" class="node">
<title>b2</title>
<ellipse fill="#8b0000" stroke="#000000" cx="573.8209" cy="-182.4" rx="54.0799" ry="46.2727"/>
<text text-anchor="middle" x="573.8209" y="-196.8" font-family="Times,serif" font-size="16.00" fill="#ffffff">Quelques</text>
<text text-anchor="middle" x="573.8209" y="-177.6" font-family="Times,serif" font-size="16.00" fill="#ffffff">réponses</text>
<text text-anchor="middle" x="573.8209" y="-158.4" font-family="Times,serif" font-size="16.00" fill="#ffffff">possibles</text>
</g>
<!-- a1&#45;&gt;b2 -->
<g id="edge3" class="edge">
<title>a1-&gt;b2:w</title>
<path fill="none" stroke="#000000" d="M410.8863,-286.3465C427.5793,-247.4581 460.2374,-190.1262 509.7034,-183.1116"/>
<polygon fill="#000000" stroke="#000000" points="510.0912,-186.5931 519.8209,-182.4 509.6,-179.6104 510.0912,-186.5931"/>
</g>
<!-- c1 -->
<g id="node5" class="node">
<title>c1</title>
<polygon fill="#ffffff" stroke="#7f7f7f" points="962.3163,-734.0012 720.5627,-734.0012 720.5627,-668.7988 962.3163,-668.7988 962.3163,-734.0012"/>
<text text-anchor="middle" x="841.4395" y="-715.8" font-family="Times,serif" font-size="16.00" fill="#000000">Faut-il séparer l'auteur et l'œuvre ?</text>
<text text-anchor="middle" x="841.4395" y="-696.6" font-family="Times,serif" font-size="16.00" fill="#000000">Les défauts moraux d'un auteur</text>
<text text-anchor="middle" x="841.4395" y="-677.4" font-family="Times,serif" font-size="16.00" fill="#000000">condamnent-ils toute son œuvre ?</text>
</g>
<!-- b1&#45;&gt;c1 -->
<g id="edge4" class="edge">
<title>b1-&gt;c1</title>
<path fill="none" stroke="#000000" d="M589.5736,-551.3154C604.2575,-586.5729 629.6041,-634.1151 667.2619,-661.4 680.2659,-670.822 695.1313,-678.0692 710.574,-683.6358"/>
<polygon fill="#000000" stroke="#000000" points="709.6583,-687.0204 720.2523,-686.8891 711.8887,-680.3852 709.6583,-687.0204"/>
</g>
<!-- c2 -->
<g id="node6" class="node">
<title>c2</title>
<polygon fill="#ffffff" stroke="#7f7f7f" points="1014.7869,-654.4 668.0921,-654.4 668.0921,-598.4 1014.7869,-598.4 1014.7869,-654.4"/>
<text text-anchor="start" x="709.3803" y="-637" font-family="Times,serif" font-size="16.00" fill="#000000">La focalisation sur les défauts moraux de</text>
<text text-anchor="start" x="696.1571" y="-621" font-family="Times,serif" font-size="16.00" fill="#000000">l'auteur, conduit-elle à une simple attaque</text>
<text text-anchor="start" x="967.6195" y="-621" font-family="Times,serif" font-style="italic" font-size="16.00" fill="#000000">ad </text>
<text text-anchor="start" x="676.2659" y="-605" font-family="Times,serif" font-style="italic" font-size="16.00" fill="#000000">hominem</text>
<text text-anchor="start" x="736.7075" y="-605" font-family="Times,serif" font-size="16.00" fill="#000000">, sans discussion des idées elles-mêmes ?</text>
</g>
<!-- b1&#45;&gt;c2 -->
<g id="edge5" class="edge">
<title>b1-&gt;c2</title>
<path fill="none" stroke="#000000" d="M607.1528,-544.9942C623.6146,-561.7097 644.7565,-580.0185 667.2619,-591.4 669.2746,-592.4179 671.3144,-593.4061 673.3782,-594.3657"/>
<polygon fill="#000000" stroke="#000000" points="672.0063,-597.5858 682.5705,-598.3915 674.8145,-591.1737 672.0063,-597.5858"/>
</g>
<!-- c3 -->
<g id="node7" class="node">
<title>c3</title>
<polygon fill="#ffffff" stroke="#7f7f7f" points="991.9139,-584.0012 690.9651,-584.0012 690.9651,-518.7988 991.9139,-518.7988 991.9139,-584.0012"/>
<text text-anchor="middle" x="841.4395" y="-565.8" font-family="Times,serif" font-size="16.00" fill="#000000">Les affirmations moralement condamnables</text>
<text text-anchor="middle" x="841.4395" y="-546.6" font-family="Times,serif" font-size="16.00" fill="#000000">relèvent-elle des idées mineures de l'auteur</text>
<text text-anchor="middle" x="841.4395" y="-527.4" font-family="Times,serif" font-size="16.00" fill="#000000">et non des axes majeurs de sa pensée ?</text>
</g>
<!-- b1&#45;&gt;c3 -->
<g id="edge6" class="edge">
<title>b1-&gt;c3</title>
<path fill="none" stroke="#000000" d="M631.2318,-516.0536C646.3287,-518.5922 663.3767,-521.4588 681.0703,-524.434"/>
<polygon fill="#000000" stroke="#000000" points="680.5163,-527.8899 690.9582,-526.0966 681.6771,-520.9868 680.5163,-527.8899"/>
</g>
<!-- c4 -->
<g id="node8" class="node">
<title>c4</title>
<polygon fill="#ffffff" stroke="#7f7f7f" points="1011.7444,-504.7002 671.1346,-504.7002 671.1346,-420.0998 1011.7444,-420.0998 1011.7444,-504.7002"/>
<text text-anchor="middle" x="841.4395" y="-486.4" font-family="Times,serif" font-size="16.00" fill="#000000">Les propos ou attitudes moralement condamnables</text>
<text text-anchor="middle" x="841.4395" y="-467.2" font-family="Times,serif" font-size="16.00" fill="#000000">sont-ils fondés sur des croyances fausses que</text>
<text text-anchor="middle" x="841.4395" y="-448" font-family="Times,serif" font-size="16.00" fill="#000000">l'auteur aurait pu réviser s'il avait eu accès</text>
<text text-anchor="middle" x="841.4395" y="-428.8" font-family="Times,serif" font-size="16.00" fill="#000000">aux connaissances que nous avons ?</text>
</g>
<!-- b1&#45;&gt;c4 -->
<g id="edge7" class="edge">
<title>b1-&gt;c4</title>
<path fill="none" stroke="#000000" d="M631.2318,-496.9609C640.4847,-495.4396 650.4705,-493.7978 660.8887,-492.0849"/>
<polygon fill="#000000" stroke="#000000" points="661.7002,-495.4986 670.9999,-490.4225 660.5645,-488.5913 661.7002,-495.4986"/>
</g>
<!-- c5 -->
<g id="node9" class="node">
<title>c5</title>
<polygon fill="#ffffff" stroke="#7f7f7f" points="1015.7949,-406.0012 667.0841,-406.0012 667.0841,-340.7988 1015.7949,-340.7988 1015.7949,-406.0012"/>
<text text-anchor="middle" x="841.4395" y="-387.8" font-family="Times,serif" font-size="16.00" fill="#000000">Peut-on pardonner les fautes passées ? D'autres</text>
<text text-anchor="middle" x="841.4395" y="-368.6" font-family="Times,serif" font-size="16.00" fill="#000000">aspects de l'œuvre d'un auteur peuvent-il rattraper</text>
<text text-anchor="middle" x="841.4395" y="-349.4" font-family="Times,serif" font-size="16.00" fill="#000000">ses propos ou attitudes moralement condamnables ?</text>
</g>
<!-- b1&#45;&gt;c5 -->
<g id="edge8" class="edge">
<title>b1-&gt;c5</title>
<path fill="none" stroke="#000000" d="M604.5572,-466.7844C621.1824,-447.9373 643.2167,-426.6732 667.2619,-413.4 669.0444,-412.416 670.8501,-411.4562 672.6764,-410.5199"/>
<polygon fill="#000000" stroke="#000000" points="674.4866,-413.5326 681.9698,-406.0324 671.4427,-407.229 674.4866,-413.5326"/>
</g>
<!-- c6 -->
<g id="node10" class="node">
<title>c6</title>
<polygon fill="#ffffff" stroke="#7f7f7f" points="984.3275,-285.0012 698.5515,-285.0012 698.5515,-219.7988 984.3275,-219.7988 984.3275,-285.0012"/>
<text text-anchor="middle" x="841.4395" y="-266.8" font-family="Times,serif" font-size="16.00" fill="#000000">Se focaliser sur ce qui est intéressant dans</text>
<text text-anchor="middle" x="841.4395" y="-247.6" font-family="Times,serif" font-size="16.00" fill="#000000">l'œuvre et oublier l'existence des propos</text>
<text text-anchor="middle" x="841.4395" y="-228.4" font-family="Times,serif" font-size="16.00" fill="#000000">ou attitudes moralement condamnables</text>
</g>
<!-- b2&#45;&gt;c6 -->
<g id="edge9" class="edge">
<title>b2-&gt;c6</title>
<path fill="none" stroke="#000000" d="M624.5063,-199.5373C638.3048,-203.9657 653.2974,-208.5623 667.2619,-212.4 674.1522,-214.2936 681.2125,-216.1702 688.3564,-218.0176"/>
<polygon fill="#000000" stroke="#000000" points="687.5866,-221.4333 698.1418,-220.5175 689.3193,-214.6511 687.5866,-221.4333"/>
</g>
<!-- c7 -->
<g id="node11" class="node">
<title>c7</title>
<polygon fill="#ffffff" stroke="#7f7f7f" points="934.5559,-205.8017 748.3231,-205.8017 748.3231,-158.9983 934.5559,-158.9983 934.5559,-205.8017"/>
<text text-anchor="middle" x="841.4395" y="-187.2" font-family="Times,serif" font-size="16.00" fill="#000000">Boycotter et excommunier</text>
<text text-anchor="middle" x="841.4395" y="-168" font-family="Times,serif" font-size="16.00" fill="#000000">l'auteur et son œuvre</text>
</g>
<!-- b2&#45;&gt;c7 -->
<g id="edge10" class="edge">
<title>b2-&gt;c7</title>
<path fill="none" stroke="#000000" d="M627.9775,-182.4C659.4589,-182.4 700.1887,-182.4 737.6182,-182.4"/>
<polygon fill="#000000" stroke="#000000" points="738.0773,-185.9001 748.0773,-182.4 738.0773,-178.9001 738.0773,-185.9001"/>
</g>
<!-- c8 -->
<g id="node12" class="node">
<title>c8</title>
<polygon fill="#ffffff" stroke="#7f7f7f" points="922.1454,-145.8017 760.7336,-145.8017 760.7336,-98.9983 922.1454,-98.9983 922.1454,-145.8017"/>
<text text-anchor="middle" x="841.4395" y="-127.2" font-family="Times,serif" font-size="16.00" fill="#000000">Juger l'auteur d'après</text>
<text text-anchor="middle" x="841.4395" y="-108" font-family="Times,serif" font-size="16.00" fill="#000000">la morale de l'époque</text>
</g>
<!-- b2&#45;&gt;c8 -->
<g id="edge11" class="edge">
<title>b2-&gt;c8</title>
<path fill="none" stroke="#000000" d="M623.8853,-164.9015C637.8168,-160.423 653.0314,-155.8917 667.2619,-152.4 693.9508,-145.8514 723.2831,-140.2131 750.143,-135.6497"/>
<polygon fill="#000000" stroke="#000000" points="751.0181,-139.0521 760.3056,-133.9537 749.8658,-132.1476 751.0181,-139.0521"/>
</g>
<!-- c9 -->
<g id="node13" class="node">
<title>c9</title>
<polygon fill="#ffffff" stroke="#7f7f7f" points="1015.1123,-84.7002 667.7667,-84.7002 667.7667,-.0998 1015.1123,-.0998 1015.1123,-84.7002"/>
<text text-anchor="middle" x="841.4395" y="-66.4" font-family="Times,serif" font-size="16.00" fill="#000000">Montrer que l'œuvre ne peut être condamnée</text>
<text text-anchor="middle" x="841.4395" y="-47.2" font-family="Times,serif" font-size="16.00" fill="#000000">en raison des défauts moraux de l'auteur, dans la</text>
<text text-anchor="middle" x="841.4395" y="-28" font-family="Times,serif" font-size="16.00" fill="#000000">mesure où l'œuvre elle-même peut être mobilisée</text>
<text text-anchor="middle" x="841.4395" y="-8.8" font-family="Times,serif" font-size="16.00" fill="#000000">pour critiquer et pour dépasser ces défauts</text>
</g>
<!-- b2&#45;&gt;c9 -->
<g id="edge12" class="edge">
<title>b2-&gt;c9</title>
<path fill="none" stroke="#000000" d="M605.5118,-144.1659C622.2199,-126.1784 644.0431,-105.7898 667.2619,-92.4 668.9993,-91.3981 670.7582,-90.415 672.5364,-89.4506"/>
<polygon fill="#000000" stroke="#000000" points="674.2991,-92.4795 681.5787,-84.7816 671.0875,-86.2597 674.2991,-92.4795"/>
</g>
<!-- c5&#45;&gt;c6 -->
</g>
</svg>