<?xml version="1.0" encoding="UTF-8" standalone="no"?><!DOCTYPE svg PUBLIC "-//W3C//DTD SVG 1.1//EN" "http://www.w3.org/Graphics/SVG/1.1/DTD/svg11.dtd"><!-- Generated by graphviz version 2.40.1 (20161225.0304)
 --><!-- Title: G Pages: 1 --><svg xmlns="http://www.w3.org/2000/svg" xmlns:xlink="http://www.w3.org/1999/xlink" width="539pt" height="363pt" viewBox="0.00 0.00 539.44 363.18">
<g id="graph0" class="graph" transform="scale(1 1) rotate(0) translate(21.6 341.5801)">
<title>G</title>
<polygon fill="#fafafa" stroke="transparent" points="-21.6,21.6 -21.6,-341.5801 517.8416,-341.5801 517.8416,21.6 -21.6,21.6"/>
<!-- a1 -->
<g id="node1" class="node">
<title>a1</title>
<ellipse fill="#000000" stroke="#000000" cx="229.5168" cy="-283.7763" rx="135.262" ry="36.4089"/>
<text text-anchor="middle" x="229.5168" y="-289.1763" font-family="Times,serif" font-size="18.00" fill="#ffffff">Une axiomatique</text>
<text text-anchor="middle" x="229.5168" y="-267.5763" font-family="Times,serif" font-size="18.00" fill="#ffffff">= un modèle de rigueur</text>
</g>
<!-- b1 -->
<g id="node2" class="node">
<title>b1</title>
<ellipse fill="#8b0000" stroke="#000000" cx="134.5168" cy="-166.1862" rx="90.9018" ry="46.2727"/>
<text text-anchor="middle" x="134.5168" y="-180.5862" font-family="Times,serif" font-size="16.00" fill="#ffffff">Rigueur dans</text>
<text text-anchor="middle" x="134.5168" y="-161.3862" font-family="Times,serif" font-size="16.00" fill="#ffffff">le point de départ</text>
<text text-anchor="middle" x="134.5168" y="-142.1862" font-family="Times,serif" font-size="16.00" fill="#ffffff">du raisonnement</text>
</g>
<!-- a1&#45;&gt;b1 -->
<g id="edge1" class="edge">
<title>a1-&gt;b1:n</title>
<path fill="none" stroke="#000000" d="M157.5137,-252.9861C147.0587,-244.7527 138.7847,-234.6535 135.7593,-222.4396"/>
<polygon fill="#000000" stroke="#000000" points="139.1944,-221.6925 134.5168,-212.1862 132.2453,-222.5347 139.1944,-221.6925"/>
</g>
<!-- b2 -->
<g id="node3" class="node">
<title>b2</title>
<ellipse fill="#8b0000" stroke="#000000" cx="357.5168" cy="-166.1862" rx="86.3102" ry="46.2727"/>
<text text-anchor="middle" x="357.5168" y="-180.5862" font-family="Times,serif" font-size="16.00" fill="#ffffff">Rigueur dans</text>
<text text-anchor="middle" x="357.5168" y="-161.3862" font-family="Times,serif" font-size="16.00" fill="#ffffff">le cheminement</text>
<text text-anchor="middle" x="357.5168" y="-142.1862" font-family="Times,serif" font-size="16.00" fill="#ffffff">du raisonnement</text>
</g>
<!-- a1&#45;&gt;b2 -->
<g id="edge2" class="edge">
<title>a1-&gt;b2:n</title>
<path fill="none" stroke="#000000" d="M326.8576,-258.5158C341.5039,-249.8428 352.9181,-238.2397 356.409,-222.7374"/>
<polygon fill="#000000" stroke="#000000" points="359.9127,-222.8928 357.5168,-212.5724 352.9539,-222.1343 359.9127,-222.8928"/>
</g>
<!-- c1 -->
<g id="node4" class="node">
<title>c1</title>
<polygon fill="#ffffff" stroke="#7f7f7f" points="237.0504,-84.7002 -.0168,-84.7002 -.0168,-.0998 237.0504,-.0998 237.0504,-84.7002"/>
<text text-anchor="middle" x="118.5168" y="-66.4" font-family="Times,serif" font-size="16.00" fill="#000000">Tous les termes que l'on utilise</text>
<text text-anchor="middle" x="118.5168" y="-47.2" font-family="Times,serif" font-size="16.00" fill="#000000">doivent être explicitement définis</text>
<text text-anchor="middle" x="118.5168" y="-28" font-family="Times,serif" font-size="16.00" fill="#000000">à partir d'un petit nombre</text>
<text text-anchor="middle" x="118.5168" y="-8.8" font-family="Times,serif" font-size="16.00" fill="#000000">de notions fondamentales</text>
</g>
<!-- b1&#45;&gt;c1 -->
<g id="edge3" class="edge">
<title>b1-&gt;c1</title>
<path fill="none" stroke="#000000" d="M128.5135,-119.7406C127.4785,-111.7333 126.3959,-103.3575 125.3411,-95.1974"/>
<polygon fill="#000000" stroke="#000000" points="128.7788,-94.4893 124.0257,-85.0205 121.8366,-95.3867 128.7788,-94.4893"/>
</g>
<!-- c2 -->
<g id="node5" class="node">
<title>c2</title>
<polygon fill="#ffffff" stroke="#7f7f7f" points="496.4668,-84.7002 250.5668,-84.7002 250.5668,-.0998 496.4668,-.0998 496.4668,-84.7002"/>
<text text-anchor="middle" x="373.5168" y="-66.4" font-family="Times,serif" font-size="16.00" fill="#000000">Tout passage d'une étape à</text>
<text text-anchor="middle" x="373.5168" y="-47.2" font-family="Times,serif" font-size="16.00" fill="#000000">une autre doit être contrôlé : la</text>
<text text-anchor="middle" x="373.5168" y="-28" font-family="Times,serif" font-size="16.00" fill="#000000">règle qui autorise ce passage doit</text>
<text text-anchor="middle" x="373.5168" y="-8.8" font-family="Times,serif" font-size="16.00" fill="#000000">être indiquée de manière explicite</text>
</g>
<!-- b2&#45;&gt;c2 -->
<g id="edge4" class="edge">
<title>b2-&gt;c2</title>
<path fill="none" stroke="#000000" d="M363.5201,-119.7406C364.5551,-111.7333 365.6377,-103.3575 366.6925,-95.1974"/>
<polygon fill="#000000" stroke="#000000" points="370.197,-95.3867 368.0079,-85.0205 363.2548,-94.4893 370.197,-95.3867"/>
</g>
</g>
</svg>