<?xml version="1.0" encoding="UTF-8" standalone="no"?><!DOCTYPE svg PUBLIC "-//W3C//DTD SVG 1.1//EN" "http://www.w3.org/Graphics/SVG/1.1/DTD/svg11.dtd"><!-- Generated by graphviz version 2.40.1 (20161225.0304)
 --><!-- Title: G Pages: 1 --><svg xmlns="http://www.w3.org/2000/svg" xmlns:xlink="http://www.w3.org/1999/xlink" width="390pt" height="403pt" viewBox="0.00 0.00 390.22 403.21">
<g id="graph0" class="graph" transform="scale(1 1) rotate(0) translate(21.6 381.6077)">
<title>G</title>
<polygon fill="#fafafa" stroke="transparent" points="-21.6,21.6 -21.6,-381.6077 368.6168,-381.6077 368.6168,21.6 -21.6,21.6"/>
<!-- a1 -->
<g id="node1" class="node">
<title>a1</title>
<ellipse fill="#000000" stroke="#000000" cx="174.528" cy="-323.8039" rx="96.6884" ry="36.4089"/>
<text text-anchor="middle" x="174.528" y="-329.2039" font-family="Times,serif" font-size="18.00" fill="#ffffff">Le bien et le mal</text>
<text text-anchor="middle" x="174.528" y="-307.6039" font-family="Times,serif" font-size="18.00" fill="#ffffff">au sens moral</text>
</g>
<!-- b1 -->
<g id="node2" class="node">
<title>b1</title>
<path fill="#8b0000" stroke="#000000" d="M264.547,-252.4009C264.547,-252.4009 84.509,-252.4009 84.509,-252.4009 78.509,-252.4009 72.509,-246.4009 72.509,-240.4009 72.509,-240.4009 72.509,-179.1991 72.509,-179.1991 72.509,-173.1991 78.509,-167.1991 84.509,-167.1991 84.509,-167.1991 264.547,-167.1991 264.547,-167.1991 270.547,-167.1991 276.547,-173.1991 276.547,-179.1991 276.547,-179.1991 276.547,-240.4009 276.547,-240.4009 276.547,-246.4009 270.547,-252.4009 264.547,-252.4009"/>
<text text-anchor="middle" x="174.528" y="-224.2" font-family="Times,serif" font-size="16.00" fill="#ffffff">= des valeurs et des normes</text>
<text text-anchor="middle" x="174.528" y="-205" font-family="Times,serif" font-size="16.00" fill="#ffffff">qui indiquent ce que nous</text>
<text text-anchor="middle" x="174.528" y="-185.8" font-family="Times,serif" font-size="16.00" fill="#ffffff">devons ou devrions faire</text>
</g>
<!-- a1&#45;&gt;b1 -->
<g id="edge1" class="edge">
<title>a1-&gt;b1:n</title>
<path fill="none" stroke="#000000" d="M174.528,-287.5806C174.528,-279.6088 174.528,-271.0398 174.528,-262.6653"/>
<polygon fill="#000000" stroke="#000000" points="178.0281,-262.6 174.528,-252.6 171.0281,-262.6 178.0281,-262.6"/>
</g>
<!-- c1 -->
<g id="node3" class="node">
<title>c1</title>
<polygon fill="#ffffff" stroke="#7f7f7f" points="161.084,-131.8011 -.028,-131.8011 -.028,-60.5989 161.084,-60.5989 161.084,-131.8011"/>
<text text-anchor="middle" x="80.528" y="-110.6" font-family="Times,serif" font-size="16.00" fill="#000000">Le mal = ce que nous</text>
<text text-anchor="middle" x="80.528" y="-91.4" font-family="Times,serif" font-size="16.00" fill="#000000">ne devons pas faire, ou</text>
<text text-anchor="middle" x="80.528" y="-72.2" font-family="Times,serif" font-size="16.00" fill="#000000">ce qu'il faudrait éviter</text>
</g>
<!-- b1&#45;&gt;c1 -->
<g id="edge2" class="edge">
<title>b1-&gt;c1</title>
<path fill="none" stroke="#000000" d="M139.2584,-167.1764C131.8446,-158.2166 124.0147,-148.7542 116.5729,-139.7607"/>
<polygon fill="#000000" stroke="#000000" points="119.225,-137.4756 110.1533,-132.0024 113.8319,-141.9382 119.225,-137.4756"/>
</g>
<!-- c2 -->
<g id="node4" class="node">
<title>c2</title>
<polygon fill="#ffffff" stroke="#7f7f7f" points="347.0056,-131.8011 192.0504,-131.8011 192.0504,-60.5989 347.0056,-60.5989 347.0056,-131.8011"/>
<text text-anchor="middle" x="269.528" y="-110.6" font-family="Times,serif" font-size="16.00" fill="#000000">Le bien = ce que nous</text>
<text text-anchor="middle" x="269.528" y="-91.4" font-family="Times,serif" font-size="16.00" fill="#000000">devons faire, ou ce</text>
<text text-anchor="middle" x="269.528" y="-72.2" font-family="Times,serif" font-size="16.00" fill="#000000">qu'il faudrait viser </text>
</g>
<!-- b1&#45;&gt;c2 -->
<g id="edge3" class="edge">
<title>b1-&gt;c2</title>
<path fill="none" stroke="#000000" d="M210.1728,-167.1764C217.6655,-158.2166 225.5786,-148.7542 233.0996,-139.7607"/>
<polygon fill="#000000" stroke="#000000" points="235.8573,-141.9189 239.5876,-132.0024 230.4875,-137.4283 235.8573,-141.9189"/>
</g>
<!-- vide -->
<!-- c1&#45;&gt;vide -->
<!-- vide&#45;&gt;c2 -->
<!-- e1 -->
<g id="node6" class="node">
<title>e1</title>
<path fill="#fafafa" stroke="transparent" d="M282.5181,-52.6015C282.5181,-52.6015 70.5379,-52.6015 70.5379,-52.6015 64.5379,-52.6015 58.5379,-46.6015 58.5379,-40.6015 58.5379,-40.6015 58.5379,-11.7985 58.5379,-11.7985 58.5379,-5.7985 64.5379,.2015 70.5379,.2015 70.5379,.2015 282.5181,.2015 282.5181,.2015 288.5181,.2015 294.5181,-5.7985 294.5181,-11.7985 294.5181,-11.7985 294.5181,-40.6015 294.5181,-40.6015 294.5181,-46.6015 288.5181,-52.6015 282.5181,-52.6015"/>
<text text-anchor="middle" x="176.528" y="-31" font-family="Times,serif" font-size="16.00" fill="#cd2626">⇒  on peut définir le bien et le mal</text>
<text text-anchor="middle" x="176.528" y="-11.8" font-family="Times,serif" font-size="16.00" fill="#cd2626">à partir de la notion de devoir</text>
</g>
<!-- vide&#45;&gt;e1 -->
</g>
</svg>