<?xml version="1.0" encoding="UTF-8" standalone="no"?><!DOCTYPE svg PUBLIC "-//W3C//DTD SVG 1.1//EN" "http://www.w3.org/Graphics/SVG/1.1/DTD/svg11.dtd"><!-- Generated by graphviz version 2.40.1 (20161225.0304)
 --><!-- Title: G Pages: 1 --><svg xmlns="http://www.w3.org/2000/svg" xmlns:xlink="http://www.w3.org/1999/xlink" width="538pt" height="326pt" viewBox="0.00 0.00 537.62 325.67">
<g id="graph0" class="graph" transform="scale(1 1) rotate(0) translate(21.6 304.0743)">
<title>G</title>
<polygon fill="#fafafa" stroke="transparent" points="-21.6,21.6 -21.6,-304.0743 516.0241,-304.0743 516.0241,21.6 -21.6,21.6"/>
<!-- a1 -->
<g id="node1" class="node">
<title>a1</title>
<ellipse fill="#000000" stroke="#000000" cx="260.0239" cy="-259.8469" rx="53.1154" ry="22.7556"/>
<text text-anchor="middle" x="260.0239" y="-253.8469" font-family="Times,serif" font-size="20.00" fill="#ffffff">Le care</text>
</g>
<!-- b1 -->
<g id="node2" class="node">
<title>b1</title>
<ellipse fill="#8b0000" stroke="#000000" cx="104.0239" cy="-169.4098" rx="58.4046" ry="32.6206"/>
<text text-anchor="middle" x="104.0239" y="-174.2098" font-family="Times,serif" font-size="16.00" fill="#ffffff">dimension</text>
<text text-anchor="middle" x="104.0239" y="-155.0098" font-family="Times,serif" font-size="16.00" fill="#ffffff">perceptive</text>
</g>
<!-- a1&#45;&gt;b1 -->
<g id="edge1" class="edge">
<title>a1-&gt;b1:n</title>
<path fill="none" stroke="#000000" d="M210.2356,-251.2702C171.3579,-243.3325 121.6734,-230.0413 107.7799,-212.0517"/>
<polygon fill="#000000" stroke="#000000" points="110.8621,-210.312 104.0239,-202.2195 104.323,-212.8101 110.8621,-210.312"/>
</g>
<!-- b2 -->
<g id="node3" class="node">
<title>b2</title>
<ellipse fill="#8b0000" stroke="#000000" cx="260.0239" cy="-169.4098" rx="58.6694" ry="32.6206"/>
<text text-anchor="middle" x="260.0239" y="-174.2098" font-family="Times,serif" font-size="16.00" fill="#ffffff">dimension</text>
<text text-anchor="middle" x="260.0239" y="-155.0098" font-family="Times,serif" font-size="16.00" fill="#ffffff">évaluative</text>
</g>
<!-- a1&#45;&gt;b2 -->
<g id="edge2" class="edge">
<title>a1-&gt;b2:n</title>
<path fill="none" stroke="#000000" d="M260.0239,-237.1296C260.0239,-229.5887 260.0239,-220.9406 260.0239,-212.4367"/>
<polygon fill="#000000" stroke="#000000" points="263.5239,-212.2195 260.0239,-202.2195 256.5239,-212.2195 263.5239,-212.2195"/>
</g>
<!-- b3 -->
<g id="node4" class="node">
<title>b3</title>
<ellipse fill="#8b0000" stroke="#000000" cx="410.0239" cy="-169.4098" rx="58.4046" ry="32.6206"/>
<text text-anchor="middle" x="410.0239" y="-174.2098" font-family="Times,serif" font-size="16.00" fill="#ffffff">dimension</text>
<text text-anchor="middle" x="410.0239" y="-155.0098" font-family="Times,serif" font-size="16.00" fill="#ffffff">pratique</text>
</g>
<!-- a1&#45;&gt;b3 -->
<g id="edge3" class="edge">
<title>a1-&gt;b3:n</title>
<path fill="none" stroke="#000000" d="M309.1395,-250.6667C346.3922,-242.4728 393.3561,-229.084 406.4776,-211.6803"/>
<polygon fill="#000000" stroke="#000000" points="409.7912,-212.8118 410.0239,-202.2195 403.2366,-210.3548 409.7912,-212.8118"/>
</g>
<!-- c1 -->
<g id="node5" class="node">
<title>c1</title>
<polygon fill="#ffffff" stroke="#7f7f7f" points="156.0716,-101.4008 -.0239,-101.4008 -.0239,-.1992 156.0716,-.1992 156.0716,-101.4008"/>
<text text-anchor="middle" x="78.0239" y="-85.9" font-family="Times,serif" font-size="13.00" fill="#000000">Il s'agit d'être attentif aux</text>
<text text-anchor="middle" x="78.0239" y="-70.3" font-family="Times,serif" font-size="13.00" fill="#000000">autres dans leur situation</text>
<text text-anchor="middle" x="78.0239" y="-54.7" font-family="Times,serif" font-size="13.00" fill="#000000">singulière et concrète </text>
<text text-anchor="middle" x="78.0239" y="-39.1" font-family="Times,serif" font-size="13.00" fill="#000000">(être sensible aux détails,</text>
<text text-anchor="middle" x="78.0239" y="-23.5" font-family="Times,serif" font-size="13.00" fill="#000000">être sensible à la</text>
<text text-anchor="middle" x="78.0239" y="-7.9" font-family="Times,serif" font-size="13.00" fill="#000000">vulnérabilité des autres)</text>
</g>
<!-- b1&#45;&gt;c1 -->
<g id="edge4" class="edge">
<title>b1-&gt;c1</title>
<path fill="none" stroke="#000000" d="M96.8504,-136.6851C95.1249,-128.8135 93.2267,-120.1542 91.32,-111.4561"/>
<polygon fill="#000000" stroke="#000000" points="94.7326,-110.6777 89.1725,-101.6591 87.895,-112.1766 94.7326,-110.6777"/>
</g>
<!-- c2 -->
<g id="node6" class="node">
<title>c2</title>
<polygon fill="#ffffff" stroke="#7f7f7f" points="349.5683,-93.8 170.4794,-93.8 170.4794,-7.8 349.5683,-7.8 349.5683,-93.8"/>
<text text-anchor="middle" x="260.0239" y="-78.1" font-family="Times,serif" font-size="13.00" fill="#000000">Il s'agit de prendre en compte</text>
<text text-anchor="middle" x="260.0239" y="-62.5" font-family="Times,serif" font-size="13.00" fill="#000000">ce qui est important pour autrui</text>
<text text-anchor="middle" x="260.0239" y="-46.9" font-family="Times,serif" font-size="13.00" fill="#000000">(se mettre à la place d'autrui,</text>
<text text-anchor="middle" x="260.0239" y="-31.3" font-family="Times,serif" font-size="13.00" fill="#000000">ne pas être dans un rapport</text>
<text text-anchor="middle" x="260.0239" y="-15.7" font-family="Times,serif" font-size="13.00" fill="#000000">de possession, de domination)</text>
</g>
<!-- b2&#45;&gt;c2 -->
<g id="edge5" class="edge">
<title>b2-&gt;c2</title>
<path fill="none" stroke="#000000" d="M260.0239,-136.3703C260.0239,-126.294 260.0239,-114.95 260.0239,-103.8968"/>
<polygon fill="#000000" stroke="#000000" points="263.5239,-103.8724 260.0239,-93.8724 256.5239,-103.8725 263.5239,-103.8724"/>
</g>
<!-- c3 -->
<g id="node7" class="node">
<title>c3</title>
<polygon fill="#ffffff" stroke="#7f7f7f" points="494.3244,-93.8 363.7233,-93.8 363.7233,-7.8 494.3244,-7.8 494.3244,-93.8"/>
<text text-anchor="middle" x="429.0239" y="-78.1" font-family="Times,serif" font-size="13.00" fill="#000000">Il s'agit de prendre</text>
<text text-anchor="middle" x="429.0239" y="-62.5" font-family="Times,serif" font-size="13.00" fill="#000000">activement soin des</text>
<text text-anchor="middle" x="429.0239" y="-46.9" font-family="Times,serif" font-size="13.00" fill="#000000">autres et de prendre</text>
<text text-anchor="middle" x="429.0239" y="-31.3" font-family="Times,serif" font-size="13.00" fill="#000000">soin de la relation que</text>
<text text-anchor="middle" x="429.0239" y="-15.7" font-family="Times,serif" font-size="13.00" fill="#000000">l'on a avec les autres</text>
</g>
<!-- b3&#45;&gt;c3 -->
<g id="edge6" class="edge">
<title>b3-&gt;c3</title>
<path fill="none" stroke="#000000" d="M415.266,-136.6851C416.8806,-126.6054 418.7022,-115.2339 420.4788,-104.1434"/>
<polygon fill="#000000" stroke="#000000" points="423.9646,-104.5101 422.0905,-94.0823 417.0527,-103.4028 423.9646,-104.5101"/>
</g>
</g>
</svg>