<?xml version="1.0" encoding="UTF-8" standalone="no"?><!DOCTYPE svg PUBLIC "-//W3C//DTD SVG 1.1//EN" "http://www.w3.org/Graphics/SVG/1.1/DTD/svg11.dtd"><!-- Generated by graphviz version 2.40.1 (20161225.0304)
 --><!-- Title: G Pages: 1 --><svg xmlns="http://www.w3.org/2000/svg" xmlns:xlink="http://www.w3.org/1999/xlink" width="834pt" height="746pt" viewBox="0.00 0.00 833.76 745.75">
<g id="graph0" class="graph" transform="scale(1 1) rotate(0) translate(21.6 724.1526)">
<title>G</title>
<polygon fill="#fafafa" stroke="transparent" points="-21.6,21.6 -21.6,-724.1526 812.1612,-724.1526 812.1612,21.6 -21.6,21.6"/>
<!-- a1 -->
<g id="node1" class="node">
<title>a1</title>
<ellipse fill="#000000" stroke="#000000" cx="255.362" cy="-666.3487" rx="60.5801" ry="36.4089"/>
<text text-anchor="middle" x="255.362" y="-671.7487" font-family="Times,serif" font-size="18.00" fill="#ffffff">La foi</text>
<text text-anchor="middle" x="255.362" y="-650.1487" font-family="Times,serif" font-size="18.00" fill="#ffffff">religieuse</text>
</g>
<!-- b1 -->
<g id="node2" class="node">
<title>b1</title>
<ellipse fill="#8b0000" stroke="#000000" cx="103.362" cy="-548.7586" rx="103.2243" ry="46.2727"/>
<text text-anchor="middle" x="103.362" y="-563.1586" font-family="Times,serif" font-size="16.00" fill="#ffffff">… ne se caractérise</text>
<text text-anchor="middle" x="103.362" y="-543.9586" font-family="Times,serif" font-size="16.00" fill="#ffffff">pas par un ensemble</text>
<text text-anchor="middle" x="103.362" y="-524.7586" font-family="Times,serif" font-size="16.00" fill="#ffffff">de propositions…</text>
</g>
<!-- a1&#45;&gt;b1 -->
<g id="edge1" class="edge">
<title>a1-&gt;b1:n</title>
<path fill="none" stroke="#000000" d="M199.626,-651.343C162.6845,-639.9514 118.8524,-623.163 106.6536,-604.8437"/>
<polygon fill="#000000" stroke="#000000" points="109.8902,-603.4895 103.362,-595.1448 103.2615,-605.7392 109.8902,-603.4895"/>
</g>
<!-- b2 -->
<g id="node3" class="node">
<title>b2</title>
<ellipse fill="#8b0000" stroke="#000000" cx="408.362" cy="-548.7586" rx="104.2267" ry="46.2727"/>
<text text-anchor="middle" x="408.362" y="-563.1586" font-family="Times,serif" font-size="16.00" fill="#ffffff">… se caractérise par</text>
<text text-anchor="middle" x="408.362" y="-543.9586" font-family="Times,serif" font-size="16.00" fill="#ffffff">un ensemble de</text>
<text text-anchor="middle" x="408.362" y="-524.7586" font-family="Times,serif" font-size="16.00" fill="#ffffff">propositions …</text>
</g>
<!-- a1&#45;&gt;b2 -->
<g id="edge2" class="edge">
<title>a1-&gt;b2:n</title>
<path fill="none" stroke="#000000" d="M311.0314,-651.5352C348.4551,-640.1281 393.0784,-623.2115 405.1955,-604.6656"/>
<polygon fill="#000000" stroke="#000000" points="408.5272,-605.7384 408.362,-595.1448 401.8849,-603.5292 408.5272,-605.7384"/>
</g>
<!-- b1&#45;&gt;b2 -->
<!-- e1 -->
<g id="node11" class="node">
<title>e1</title>
<path fill="#fafafa" stroke="transparent" stroke-width=".8" d="M185.6366,-494.3724C185.6366,-494.3724 21.0875,-494.3724 21.0875,-494.3724 15.0875,-494.3724 9.0875,-488.3724 9.0875,-482.3724 9.0875,-482.3724 9.0875,-447.3724 9.0875,-447.3724 9.0875,-441.3724 15.0875,-435.3724 21.0875,-435.3724 21.0875,-435.3724 185.6366,-435.3724 185.6366,-435.3724 191.6366,-435.3724 197.6366,-441.3724 197.6366,-447.3724 197.6366,-447.3724 197.6366,-482.3724 197.6366,-482.3724 197.6366,-488.3724 191.6366,-494.3724 185.6366,-494.3724"/>
<text text-anchor="start" x="15.9748" y="-473.9724" font-family="Times,serif" font-size="16.00" fill="#cd2626">= Distinction des domaines</text>
<text text-anchor="start" x="17.3934" y="-456.5724" font-family="Times,serif" font-size="12.00" fill="#cd2626">(la foi est une manière de vivre, un</text>
<text text-anchor="start" x="22.8954" y="-444.5724" font-family="Times,serif" font-size="12.00" fill="#cd2626">ensemble de valeurs, une morale)</text>
</g>
<!-- b1&#45;&gt;e1 -->
<!-- bc1 -->
<g id="node4" class="node">
<title>bc1</title>
<ellipse fill="#c7c7c7" stroke="#7f7f7f" cx="408.362" cy="-362.9862" rx="112.8488" ry="46.2727"/>
<text text-anchor="middle" x="408.362" y="-377.3862" font-family="Times,serif" font-size="16.00" fill="#000000">… et les propositions</text>
<text text-anchor="middle" x="408.362" y="-358.1862" font-family="Times,serif" font-size="16.00" fill="#000000">qui caractérisent la foi</text>
<text text-anchor="middle" x="408.362" y="-338.9862" font-family="Times,serif" font-size="16.00" fill="#000000">religieuse sont …</text>
</g>
<!-- b2&#45;&gt;bc1 -->
<g id="edge4" class="edge">
<title>b2-&gt;bc1</title>
<path fill="none" stroke="#000000" d="M408.362,-502.3596C408.362,-477.3124 408.362,-446.1891 408.362,-419.7112"/>
<polygon fill="#000000" stroke="#000000" points="411.8621,-419.4375 408.362,-409.4376 404.8621,-419.4376 411.8621,-419.4375"/>
</g>
<!-- c1 -->
<g id="node5" class="node">
<title>c1</title>
<polygon fill="#ffffff" stroke="#666666" points="180.7561,-272.2013 13.968,-272.2013 13.968,-211.3987 180.7561,-211.3987 180.7561,-272.2013"/>
<text text-anchor="middle" x="97.362" y="-246.6" font-family="Times,serif" font-size="16.00" fill="#000000">… fausses, et la raison</text>
<text text-anchor="middle" x="97.362" y="-227.4" font-family="Times,serif" font-size="16.00" fill="#000000">peut le montrer</text>
</g>
<!-- bc1&#45;&gt;c1 -->
<g id="edge5" class="edge">
<title>bc1-&gt;c1:n</title>
<path fill="none" stroke="#000000" d="M298.7151,-351.6063C216.5213,-340.1859 115.5567,-318.8724 99.5453,-282.0477"/>
<polygon fill="#000000" stroke="#000000" points="102.869,-280.8512 97.362,-271.8 96.0226,-282.3098 102.869,-280.8512"/>
</g>
<!-- c2 -->
<g id="node6" class="node">
<title>c2</title>
<polygon fill="#ffffff" stroke="#666666" points="468.1111,-262.5005 348.613,-262.5005 348.613,-221.0995 468.1111,-221.0995 468.1111,-262.5005"/>
<text text-anchor="middle" x="408.362" y="-237" font-family="Times,serif" font-size="16.00" fill="#000000">… vraies, et …</text>
</g>
<!-- bc1&#45;&gt;c2 -->
<g id="edge8" class="edge">
<title>bc1-&gt;c2:n</title>
<path fill="none" stroke="#000000" d="M408.362,-316.5986C408.362,-302.8421 408.362,-287.5216 408.362,-272.8374"/>
<polygon fill="#000000" stroke="#000000" points="411.8621,-272.8 408.362,-262.8 404.8621,-272.8 411.8621,-272.8"/>
</g>
<!-- c3 -->
<g id="node7" class="node">
<title>c3</title>
<polygon fill="#ffffff" stroke="#666666" points="790.761,-281.401 635.9631,-281.401 635.9631,-202.199 790.761,-202.199 790.761,-281.401"/>
<text text-anchor="middle" x="713.362" y="-256.2" font-family="Times,serif" font-size="16.00" fill="#000000">… vraies ou fausses,</text>
<text text-anchor="middle" x="713.362" y="-237" font-family="Times,serif" font-size="16.00" fill="#000000">mais on ne peut</text>
<text text-anchor="middle" x="713.362" y="-217.8" font-family="Times,serif" font-size="16.00" fill="#000000">pas savoir…</text>
</g>
<!-- bc1&#45;&gt;c3 -->
<g id="edge9" class="edge">
<title>bc1-&gt;c3:n</title>
<path fill="none" stroke="#000000" d="M519.3368,-354.1262C599.3902,-344.8268 695.9691,-326.4677 711.2755,-291.4053"/>
<polygon fill="#000000" stroke="#000000" points="714.7039,-292.1095 713.362,-281.6 707.8572,-290.6525 714.7039,-292.1095"/>
</g>
<!-- c1&#45;&gt;c2 -->
<!-- e2 -->
<g id="node12" class="node">
<title>e2</title>
<path fill="#fafafa" stroke="transparent" stroke-width=".8" d="M154.1503,-194C154.1503,-194 40.5737,-194 40.5737,-194 34.5737,-194 28.5737,-188 28.5737,-182 28.5737,-182 28.5737,-170 28.5737,-170 28.5737,-164 34.5737,-158 40.5737,-158 40.5737,-158 154.1503,-158 154.1503,-158 160.1503,-158 166.1503,-164 166.1503,-170 166.1503,-170 166.1503,-182 166.1503,-182 166.1503,-188 160.1503,-194 154.1503,-194"/>
<text text-anchor="middle" x="97.362" y="-171.2" font-family="Times,serif" font-size="16.00" fill="#cd2626">Rationalisme athée</text>
</g>
<!-- c1&#45;&gt;e2 -->
<!-- c2&#45;&gt;c3 -->
<!-- d1 -->
<g id="node8" class="node">
<title>d1</title>
<path fill="#ffffff" stroke="#7f7f7f" stroke-width=".8" d="M294.5574,-122.6015C294.5574,-122.6015 198.1667,-122.6015 198.1667,-122.6015 192.1667,-122.6015 186.1667,-116.6015 186.1667,-110.6015 186.1667,-110.6015 186.1667,-81.7985 186.1667,-81.7985 186.1667,-75.7985 192.1667,-69.7985 198.1667,-69.7985 198.1667,-69.7985 294.5574,-69.7985 294.5574,-69.7985 300.5574,-69.7985 306.5574,-75.7985 306.5574,-81.7985 306.5574,-81.7985 306.5574,-110.6015 306.5574,-110.6015 306.5574,-116.6015 300.5574,-122.6015 294.5574,-122.6015"/>
<text text-anchor="middle" x="246.362" y="-101" font-family="Times,serif" font-size="16.00" fill="#000000">… la raison peut</text>
<text text-anchor="middle" x="246.362" y="-81.8" font-family="Times,serif" font-size="16.00" fill="#000000">le montrer</text>
</g>
<!-- c2&#45;&gt;d1 -->
<g id="edge10" class="edge">
<title>c2-&gt;d1</title>
<path fill="none" stroke="#000000" d="M385.1514,-220.9391C358.5355,-197.0177 314.5497,-157.4847 283.2321,-129.3376"/>
<polygon fill="#000000" stroke="#000000" points="285.3384,-126.5247 275.5613,-122.4433 280.6592,-131.731 285.3384,-126.5247"/>
</g>
<!-- d2 -->
<g id="node9" class="node">
<title>d2</title>
<path fill="#ffffff" stroke="#7f7f7f" stroke-width=".8" d="M484.5365,-131.8011C484.5365,-131.8011 332.1876,-131.8011 332.1876,-131.8011 326.1876,-131.8011 320.1876,-125.8011 320.1876,-119.8011 320.1876,-119.8011 320.1876,-72.5989 320.1876,-72.5989 320.1876,-66.5989 326.1876,-60.5989 332.1876,-60.5989 332.1876,-60.5989 484.5365,-60.5989 484.5365,-60.5989 490.5365,-60.5989 496.5365,-66.5989 496.5365,-72.5989 496.5365,-72.5989 496.5365,-119.8011 496.5365,-119.8011 496.5365,-125.8011 490.5365,-131.8011 484.5365,-131.8011"/>
<text text-anchor="middle" x="408.362" y="-110.6" font-family="Times,serif" font-size="16.00" fill="#000000">… la raison ne peut pas</text>
<text text-anchor="middle" x="408.362" y="-91.4" font-family="Times,serif" font-size="16.00" fill="#000000">le montrer, c'est un acte</text>
<text text-anchor="middle" x="408.362" y="-72.2" font-family="Times,serif" font-size="16.00" fill="#000000">de foi qui peut y parvenir</text>
</g>
<!-- c2&#45;&gt;d2 -->
<g id="edge11" class="edge">
<title>c2-&gt;d2</title>
<path fill="none" stroke="#000000" d="M408.362,-220.9391C408.362,-200.4609 408.362,-168.5419 408.362,-142.1192"/>
<polygon fill="#000000" stroke="#000000" points="411.8621,-141.927 408.362,-131.927 404.8621,-141.927 411.8621,-141.927"/>
</g>
<!-- d3 -->
<g id="node10" class="node">
<title>d3</title>
<path fill="#ffffff" stroke="#7f7f7f" stroke-width=".8" d="M626.5041,-122.6015C626.5041,-122.6015 522.2199,-122.6015 522.2199,-122.6015 516.2199,-122.6015 510.2199,-116.6015 510.2199,-110.6015 510.2199,-110.6015 510.2199,-81.7985 510.2199,-81.7985 510.2199,-75.7985 516.2199,-69.7985 522.2199,-69.7985 522.2199,-69.7985 626.5041,-69.7985 626.5041,-69.7985 632.5041,-69.7985 638.5041,-75.7985 638.5041,-81.7985 638.5041,-81.7985 638.5041,-110.6015 638.5041,-110.6015 638.5041,-116.6015 632.5041,-122.6015 626.5041,-122.6015"/>
<text text-anchor="middle" x="574.362" y="-101" font-family="Times,serif" font-size="16.00" fill="#000000">… la raison ne dit</text>
<text text-anchor="middle" x="574.362" y="-81.8" font-family="Times,serif" font-size="16.00" fill="#000000">pas le contraire</text>
</g>
<!-- c2&#45;&gt;d3 -->
<g id="edge12" class="edge">
<title>c2-&gt;d3</title>
<path fill="none" stroke="#000000" d="M432.1458,-220.9391C459.4188,-197.0177 504.4908,-157.4847 536.5816,-129.3376"/>
<polygon fill="#000000" stroke="#000000" points="539.2318,-131.6686 544.4418,-122.4433 534.616,-126.406 539.2318,-131.6686"/>
</g>
<!-- e6 -->
<g id="node16" class="node">
<title>e6</title>
<path fill="#fafafa" stroke="transparent" stroke-width=".8" d="M758.87,-194C758.87,-194 667.854,-194 667.854,-194 661.854,-194 655.854,-188 655.854,-182 655.854,-182 655.854,-170 655.854,-170 655.854,-164 661.854,-158 667.854,-158 667.854,-158 758.87,-158 758.87,-158 764.87,-158 770.87,-164 770.87,-170 770.87,-170 770.87,-182 770.87,-182 770.87,-188 764.87,-194 758.87,-194"/>
<text text-anchor="middle" x="713.362" y="-171.2" font-family="Times,serif" font-size="16.00" fill="#cd2626">= Agnosticisme</text>
</g>
<!-- c3&#45;&gt;e6 -->
<!-- d1&#45;&gt;d2 -->
<!-- e3 -->
<g id="node13" class="node">
<title>e3</title>
<path fill="#fafafa" stroke="transparent" stroke-width=".8" d="M282.8588,-52.6015C282.8588,-52.6015 209.8652,-52.6015 209.8652,-52.6015 203.8652,-52.6015 197.8652,-46.6015 197.8652,-40.6015 197.8652,-40.6015 197.8652,-11.7985 197.8652,-11.7985 197.8652,-5.7985 203.8652,.2015 209.8652,.2015 209.8652,.2015 282.8588,.2015 282.8588,.2015 288.8588,.2015 294.8588,-5.7985 294.8588,-11.7985 294.8588,-11.7985 294.8588,-40.6015 294.8588,-40.6015 294.8588,-46.6015 288.8588,-52.6015 282.8588,-52.6015"/>
<text text-anchor="middle" x="246.362" y="-31" font-family="Times,serif" font-size="16.00" fill="#cd2626">= Théologie </text>
<text text-anchor="middle" x="246.362" y="-11.8" font-family="Times,serif" font-size="16.00" fill="#cd2626">rationnelle</text>
</g>
<!-- d1&#45;&gt;e3 -->
<!-- d2&#45;&gt;d3 -->
<!-- e4 -->
<g id="node14" class="node">
<title>e4</title>
<path fill="#fafafa" stroke="transparent" stroke-width=".8" d="M439.6479,-44.2C439.6479,-44.2 377.0762,-44.2 377.0762,-44.2 371.0762,-44.2 365.0762,-38.2 365.0762,-32.2 365.0762,-32.2 365.0762,-20.2 365.0762,-20.2 365.0762,-14.2 371.0762,-8.2 377.0762,-8.2 377.0762,-8.2 439.6479,-8.2 439.6479,-8.2 445.6479,-8.2 451.6479,-14.2 451.6479,-20.2 451.6479,-20.2 451.6479,-32.2 451.6479,-32.2 451.6479,-38.2 445.6479,-44.2 439.6479,-44.2"/>
<text text-anchor="middle" x="408.362" y="-21.4" font-family="Times,serif" font-size="16.00" fill="#cd2626">= Fidéisme</text>
</g>
<!-- d2&#45;&gt;e4 -->
<!-- e5 -->
<g id="node15" class="node">
<title>e5</title>
<path fill="#fafafa" stroke="transparent" stroke-width=".8" d="M618.7018,-44.2C618.7018,-44.2 530.0223,-44.2 530.0223,-44.2 524.0223,-44.2 518.0223,-38.2 518.0223,-32.2 518.0223,-32.2 518.0223,-20.2 518.0223,-20.2 518.0223,-14.2 524.0223,-8.2 530.0223,-8.2 530.0223,-8.2 618.7018,-8.2 618.7018,-8.2 624.7018,-8.2 630.7018,-14.2 630.7018,-20.2 630.7018,-20.2 630.7018,-32.2 630.7018,-32.2 630.7018,-38.2 624.7018,-44.2 618.7018,-44.2"/>
<text text-anchor="middle" x="574.362" y="-21.4" font-family="Times,serif" font-size="16.00" fill="#cd2626">= Concordisme</text>
</g>
<!-- d3&#45;&gt;e5 -->
</g>
</svg>