<?xml version="1.0" encoding="UTF-8" standalone="no"?><!DOCTYPE svg PUBLIC "-//W3C//DTD SVG 1.1//EN" "http://www.w3.org/Graphics/SVG/1.1/DTD/svg11.dtd"><!-- Generated by graphviz version 2.40.1 (20161225.0304)
 --><!-- Title: G Pages: 1 --><svg xmlns="http://www.w3.org/2000/svg" xmlns:xlink="http://www.w3.org/1999/xlink" width="794pt" height="486pt" viewBox="0.00 0.00 794.25 486.41">
<g id="graph0" class="graph" transform="scale(1 1) rotate(0) translate(21.6 464.8076)">
<title>G</title>
<polygon fill="#fafafa" stroke="transparent" points="-21.6,21.6 -21.6,-464.8076 772.6496,-464.8076 772.6496,21.6 -21.6,21.6"/>
<!-- a1 -->
<g id="node1" class="node">
<title>a1</title>
<ellipse fill="#000000" stroke="#000000" cx="394.5032" cy="-391.7302" rx="81.0893" ry="51.4548"/>
<text text-anchor="middle" x="394.5032" y="-407.9302" font-family="Times,serif" font-size="18.00" fill="#ffffff">Les grandes</text>
<text text-anchor="middle" x="394.5032" y="-386.3302" font-family="Times,serif" font-size="18.00" fill="#ffffff">conceptions</text>
<text text-anchor="middle" x="394.5032" y="-364.7302" font-family="Times,serif" font-size="18.00" fill="#ffffff">de la sanction</text>
</g>
<!-- b1 -->
<g id="node2" class="node">
<title>b1</title>
<ellipse fill="#8b0000" stroke="#000000" cx="295.5032" cy="-262.8264" rx="84.5291" ry="42.3529"/>
<text text-anchor="start" x="243.7424" y="-275.4264" font-family="Times,serif" font-size="16.00" fill="#ffffff">Les conceptions</text>
<text text-anchor="start" x="250.5288" y="-259.4264" font-family="Times,serif" font-size="16.00" fill="#ffffff">rétrospectives</text>
<text text-anchor="start" x="243.8867" y="-239.1264" font-family="Times,serif" font-size="13.00" fill="#ffffff">(</text>
<text text-anchor="start" x="248.2144" y="-239.1264" font-family="Times,serif" font-style="italic" font-size="13.00" fill="#ffffff">backward-looking</text>
<text text-anchor="start" x="342.792" y="-239.1264" font-family="Times,serif" font-size="13.00" fill="#ffffff">)</text>
</g>
<!-- a1&#45;&gt;b1 -->
<g id="edge1" class="edge">
<title>a1-&gt;b1:n</title>
<path fill="none" stroke="#000000" d="M329.8508,-360.3421C313.8544,-348.5604 300.1944,-333.4199 296.4916,-314.8502"/>
<polygon fill="#000000" stroke="#000000" points="299.9677,-314.4347 295.5032,-304.8264 293.0014,-315.1216 299.9677,-314.4347"/>
</g>
<!-- b2 -->
<g id="node3" class="node">
<title>b2</title>
<ellipse fill="#8b0000" stroke="#000000" cx="493.5032" cy="-262.8264" rx="84.5291" ry="42.3529"/>
<text text-anchor="start" x="441.7424" y="-275.4264" font-family="Times,serif" font-size="16.00" fill="#ffffff">Les conceptions</text>
<text text-anchor="start" x="453.5176" y="-259.4264" font-family="Times,serif" font-size="16.00" fill="#ffffff">prospectives</text>
<text text-anchor="start" x="446.5797" y="-239.1264" font-family="Times,serif" font-size="13.00" fill="#ffffff">(</text>
<text text-anchor="start" x="450.9074" y="-239.1264" font-family="Times,serif" font-style="italic" font-size="13.00" fill="#ffffff">forward-looking</text>
<text text-anchor="start" x="536.099" y="-239.1264" font-family="Times,serif" font-size="13.00" fill="#ffffff">)</text>
</g>
<!-- a1&#45;&gt;b2 -->
<g id="edge2" class="edge">
<title>a1-&gt;b2:n</title>
<path fill="none" stroke="#000000" d="M459.1556,-360.3421C475.152,-348.5604 488.812,-333.4199 492.5148,-314.8502"/>
<polygon fill="#000000" stroke="#000000" points="496.005,-315.1216 493.5032,-304.8264 489.0387,-314.4347 496.005,-315.1216"/>
</g>
<!-- c1 -->
<g id="node4" class="node">
<title>c1</title>
<polygon fill="#ffffff" stroke="#7f7f7f" points="188.08,-185.2012 80.9264,-185.2012 80.9264,-119.9988 188.08,-119.9988 188.08,-185.2012"/>
<text text-anchor="middle" x="134.5032" y="-167" font-family="Times,serif" font-size="16.00" fill="#000000">La conception</text>
<text text-anchor="middle" x="134.5032" y="-147.8" font-family="Times,serif" font-size="16.00" fill="#000000">rétributive de</text>
<text text-anchor="middle" x="134.5032" y="-128.6" font-family="Times,serif" font-size="16.00" fill="#000000">la sanction</text>
</g>
<!-- b1&#45;&gt;c1 -->
<g id="edge3" class="edge">
<title>b1-&gt;c1</title>
<path fill="none" stroke="#000000" d="M245.4443,-228.5543C228.1509,-216.7146 208.6595,-203.37 190.8938,-191.2071"/>
<polygon fill="#000000" stroke="#000000" points="192.5571,-188.1041 182.3284,-185.3428 188.6026,-193.8801 192.5571,-188.1041"/>
</g>
<!-- c2 -->
<g id="node5" class="node">
<title>c2</title>
<polygon fill="#ffffff" stroke="#7f7f7f" points="350.2299,-185.2012 240.7765,-185.2012 240.7765,-119.9988 350.2299,-119.9988 350.2299,-185.2012"/>
<text text-anchor="middle" x="295.5032" y="-167" font-family="Times,serif" font-size="16.00" fill="#000000">La conception</text>
<text text-anchor="middle" x="295.5032" y="-147.8" font-family="Times,serif" font-size="16.00" fill="#000000">restaurative de</text>
<text text-anchor="middle" x="295.5032" y="-128.6" font-family="Times,serif" font-size="16.00" fill="#000000">la sanction</text>
</g>
<!-- b1&#45;&gt;c2 -->
<g id="edge4" class="edge">
<title>b1-&gt;c2</title>
<path fill="none" stroke="#000000" d="M295.5032,-220.21C295.5032,-212.1167 295.5032,-203.6439 295.5032,-195.5406"/>
<polygon fill="#000000" stroke="#000000" points="299.0033,-195.5304 295.5032,-185.5304 292.0033,-195.5304 299.0033,-195.5304"/>
</g>
<!-- c3 -->
<g id="node6" class="node">
<title>c3</title>
<polygon fill="#ffffff" stroke="#7f7f7f" points="547.08,-185.2012 439.9264,-185.2012 439.9264,-119.9988 547.08,-119.9988 547.08,-185.2012"/>
<text text-anchor="middle" x="493.5032" y="-167" font-family="Times,serif" font-size="16.00" fill="#000000">La conception</text>
<text text-anchor="middle" x="493.5032" y="-147.8" font-family="Times,serif" font-size="16.00" fill="#000000">dissuasive de</text>
<text text-anchor="middle" x="493.5032" y="-128.6" font-family="Times,serif" font-size="16.00" fill="#000000">la sanction</text>
</g>
<!-- b2&#45;&gt;c3 -->
<g id="edge5" class="edge">
<title>b2-&gt;c3</title>
<path fill="none" stroke="#000000" d="M493.5032,-220.21C493.5032,-212.1167 493.5032,-203.6439 493.5032,-195.5406"/>
<polygon fill="#000000" stroke="#000000" points="497.0033,-195.5304 493.5032,-185.5304 490.0033,-195.5304 497.0033,-195.5304"/>
</g>
<!-- c4 -->
<g id="node7" class="node">
<title>c4</title>
<polygon fill="#ffffff" stroke="#7f7f7f" points="708.623,-185.2012 588.3834,-185.2012 588.3834,-119.9988 708.623,-119.9988 708.623,-185.2012"/>
<text text-anchor="middle" x="648.5032" y="-167" font-family="Times,serif" font-size="16.00" fill="#000000">La conception</text>
<text text-anchor="middle" x="648.5032" y="-147.8" font-family="Times,serif" font-size="16.00" fill="#000000">réhabilitative de</text>
<text text-anchor="middle" x="648.5032" y="-128.6" font-family="Times,serif" font-size="16.00" fill="#000000">la sanction</text>
</g>
<!-- b2&#45;&gt;c4 -->
<g id="edge6" class="edge">
<title>b2-&gt;c4</title>
<path fill="none" stroke="#000000" d="M542.5462,-227.9501C558.8599,-216.3488 577.1272,-203.3582 593.839,-191.4738"/>
<polygon fill="#000000" stroke="#000000" points="596.2967,-194.0209 602.4178,-185.3731 592.2399,-188.3162 596.2967,-194.0209"/>
</g>
<!-- d1 -->
<g id="node8" class="node">
<title>d1</title>
<path fill="#ffffff" stroke="#7f7f7f" d="M177.0096,-84.7002C177.0096,-84.7002 11.9968,-84.7002 11.9968,-84.7002 5.9968,-84.7002 -.0032,-78.7002 -.0032,-72.7002 -.0032,-72.7002 -.0032,-12.0998 -.0032,-12.0998 -.0032,-6.0998 5.9968,-.0998 11.9968,-.0998 11.9968,-.0998 177.0096,-.0998 177.0096,-.0998 183.0096,-.0998 189.0096,-6.0998 189.0096,-12.0998 189.0096,-12.0998 189.0096,-72.7002 189.0096,-72.7002 189.0096,-78.7002 183.0096,-84.7002 177.0096,-84.7002"/>
<text text-anchor="middle" x="94.5032" y="-66.4" font-family="Times,serif" font-size="16.00" fill="#000000">C'est une conception</text>
<text text-anchor="middle" x="94.5032" y="-47.2" font-family="Times,serif" font-size="16.00" fill="#000000">focalisée sur ce qu'a fait le</text>
<text text-anchor="middle" x="94.5032" y="-28" font-family="Times,serif" font-size="16.00" fill="#000000">coupable, qui doit recevoir</text>
<text text-anchor="middle" x="94.5032" y="-8.8" font-family="Times,serif" font-size="16.00" fill="#000000">la sanction qu'il mérite</text>
</g>
<!-- c1&#45;&gt;d1 -->
<g id="edge7" class="edge">
<title>c1-&gt;d1</title>
<path fill="none" stroke="#000000" d="M122.6102,-119.8347C119.7323,-111.9061 116.5848,-103.2347 113.4707,-94.6555"/>
<polygon fill="#000000" stroke="#000000" points="116.6872,-93.2587 109.9852,-85.053 110.1073,-95.6471 116.6872,-93.2587"/>
</g>
<!-- d2 -->
<g id="node9" class="node">
<title>d2</title>
<path fill="#ffffff" stroke="#7f7f7f" d="M375.8924,-84.7002C375.8924,-84.7002 215.114,-84.7002 215.114,-84.7002 209.114,-84.7002 203.114,-78.7002 203.114,-72.7002 203.114,-72.7002 203.114,-12.0998 203.114,-12.0998 203.114,-6.0998 209.114,-.0998 215.114,-.0998 215.114,-.0998 375.8924,-.0998 375.8924,-.0998 381.8924,-.0998 387.8924,-6.0998 387.8924,-12.0998 387.8924,-12.0998 387.8924,-72.7002 387.8924,-72.7002 387.8924,-78.7002 381.8924,-84.7002 375.8924,-84.7002"/>
<text text-anchor="middle" x="295.5032" y="-66.4" font-family="Times,serif" font-size="16.00" fill="#000000">C'est une conception</text>
<text text-anchor="middle" x="295.5032" y="-47.2" font-family="Times,serif" font-size="16.00" fill="#000000">focalisée sur la victime,</text>
<text text-anchor="middle" x="295.5032" y="-28" font-family="Times,serif" font-size="16.00" fill="#000000">qui doit être restaurée</text>
<text text-anchor="middle" x="295.5032" y="-8.8" font-family="Times,serif" font-size="16.00" fill="#000000">dans ses droits et son être</text>
</g>
<!-- c2&#45;&gt;d2 -->
<g id="edge8" class="edge">
<title>c2-&gt;d2</title>
<path fill="none" stroke="#000000" d="M295.5032,-119.8347C295.5032,-112.0766 295.5032,-103.6073 295.5032,-95.2091"/>
<polygon fill="#000000" stroke="#000000" points="299.0033,-95.053 295.5032,-85.053 292.0033,-95.053 299.0033,-95.053"/>
</g>
<!-- d3 -->
<g id="node10" class="node">
<title>d3</title>
<path fill="#ffffff" stroke="#7f7f7f" d="M573.9117,-84.7002C573.9117,-84.7002 413.0947,-84.7002 413.0947,-84.7002 407.0947,-84.7002 401.0947,-78.7002 401.0947,-72.7002 401.0947,-72.7002 401.0947,-12.0998 401.0947,-12.0998 401.0947,-6.0998 407.0947,-.0998 413.0947,-.0998 413.0947,-.0998 573.9117,-.0998 573.9117,-.0998 579.9117,-.0998 585.9117,-6.0998 585.9117,-12.0998 585.9117,-12.0998 585.9117,-72.7002 585.9117,-72.7002 585.9117,-78.7002 579.9117,-84.7002 573.9117,-84.7002"/>
<text text-anchor="middle" x="493.5032" y="-66.4" font-family="Times,serif" font-size="16.00" fill="#000000">C'est une conception</text>
<text text-anchor="middle" x="493.5032" y="-47.2" font-family="Times,serif" font-size="16.00" fill="#000000">focalisée sur les futurs</text>
<text text-anchor="middle" x="493.5032" y="-28" font-family="Times,serif" font-size="16.00" fill="#000000">potentiels coupables, qu'il</text>
<text text-anchor="middle" x="493.5032" y="-8.8" font-family="Times,serif" font-size="16.00" fill="#000000">faut dissuader d'agir</text>
</g>
<!-- c3&#45;&gt;d3 -->
<g id="edge9" class="edge">
<title>c3-&gt;d3</title>
<path fill="none" stroke="#000000" d="M493.5032,-119.8347C493.5032,-112.0766 493.5032,-103.6073 493.5032,-95.2091"/>
<polygon fill="#000000" stroke="#000000" points="497.0033,-95.053 493.5032,-85.053 490.0033,-95.053 497.0033,-95.053"/>
</g>
<!-- d4 -->
<g id="node11" class="node">
<title>d4</title>
<path fill="#ffffff" stroke="#7f7f7f" d="M739.096,-84.7002C739.096,-84.7002 611.9104,-84.7002 611.9104,-84.7002 605.9104,-84.7002 599.9104,-78.7002 599.9104,-72.7002 599.9104,-72.7002 599.9104,-12.0998 599.9104,-12.0998 599.9104,-6.0998 605.9104,-.0998 611.9104,-.0998 611.9104,-.0998 739.096,-.0998 739.096,-.0998 745.096,-.0998 751.096,-6.0998 751.096,-12.0998 751.096,-12.0998 751.096,-72.7002 751.096,-72.7002 751.096,-78.7002 745.096,-84.7002 739.096,-84.7002"/>
<text text-anchor="middle" x="675.5032" y="-66.4" font-family="Times,serif" font-size="16.00" fill="#000000">C'est une conception</text>
<text text-anchor="middle" x="675.5032" y="-47.2" font-family="Times,serif" font-size="16.00" fill="#000000">focalisée sur le futur</text>
<text text-anchor="middle" x="675.5032" y="-28" font-family="Times,serif" font-size="16.00" fill="#000000">du coupable, qui doit</text>
<text text-anchor="middle" x="675.5032" y="-8.8" font-family="Times,serif" font-size="16.00" fill="#000000">pouvoir s'améliorer</text>
</g>
<!-- c4&#45;&gt;d4 -->
<g id="edge10" class="edge">
<title>c4-&gt;d4</title>
<path fill="none" stroke="#000000" d="M656.531,-119.8347C658.4527,-111.9913 660.5525,-103.4211 662.6323,-94.9323"/>
<polygon fill="#000000" stroke="#000000" points="666.0725,-95.5987 665.0528,-85.053 659.2736,-93.9328 666.0725,-95.5987"/>
</g>
</g>
</svg>