<?xml version="1.0" encoding="UTF-8" standalone="no"?>
<!DOCTYPE svg PUBLIC "-//W3C//DTD SVG 1.1//EN"
 "http://www.w3.org/Graphics/SVG/1.1/DTD/svg11.dtd">
<!-- Generated by graphviz version 2.40.1 (20161225.0304)
 -->
<!-- Title: G Pages: 1 -->
<svg width="660pt" height="633pt"
 viewBox="0.00 0.00 659.76 633.11" xmlns="http://www.w3.org/2000/svg" xmlns:xlink="http://www.w3.org/1999/xlink">
<g id="graph0" class="graph" transform="scale(1 1) rotate(0) translate(21.6 611.5055)">
<title>G</title>
<polygon fill="#fafafa" stroke="transparent" points="-21.6,21.6 -21.6,-611.5055 638.1616,-611.5055 638.1616,21.6 -21.6,21.6"/>
<!-- a1 -->
<g id="node1" class="node">
<title>a1</title>
<ellipse fill="#000000" stroke="#000000" cx="316.62" cy="-553.7016" rx="106.6288" ry="36.4089"/>
<text text-anchor="middle" x="316.62" y="-559.1016" font-family="Times,serif" font-size="18.00" fill="#ffffff">La connaissance</text>
<text text-anchor="middle" x="316.62" y="-537.5016" font-family="Times,serif" font-size="18.00" fill="#ffffff">des déterminismes</text>
</g>
<!-- b1 -->
<g id="node2" class="node">
<title>b1</title>
<ellipse fill="#8b0000" stroke="#000000" cx="316.62" cy="-422.5351" rx="127.0091" ry="59.9253"/>
<text text-anchor="middle" x="316.62" y="-446.5351" font-family="Times,serif" font-size="16.00" fill="#ffffff">= la connaissance des</text>
<text text-anchor="middle" x="316.62" y="-427.3351" font-family="Times,serif" font-size="16.00" fill="#ffffff">facteurs biologiques,</text>
<text text-anchor="middle" x="316.62" y="-408.1351" font-family="Times,serif" font-size="16.00" fill="#ffffff">psychiques et sociaux qui</text>
<text text-anchor="middle" x="316.62" y="-388.9351" font-family="Times,serif" font-size="16.00" fill="#ffffff">peuvent agir sur nous</text>
</g>
<!-- a1&#45;&gt;b1 -->
<g id="edge1" class="edge">
<title>a1&#45;&gt;b1:n</title>
<path fill="none" stroke="#000000" d="M316.62,-517.4784C316.62,-509.5065 316.62,-500.9375 316.62,-492.563"/>
<polygon fill="#000000" stroke="#000000" points="320.1201,-492.4977 316.62,-482.4977 313.1201,-492.4978 320.1201,-492.4977"/>
</g>
<!-- c1 -->
<g id="node3" class="node">
<title>c1</title>
<polygon fill="#ffffff" stroke="#7f7f7f" points="425.3697,-327.5724 207.8703,-327.5724 207.8703,-291.5724 425.3697,-291.5724 425.3697,-327.5724"/>
<text text-anchor="middle" x="316.62" y="-304.7724" font-family="Times,serif" font-size="16.00" fill="#000000">Or, parmi ces facteurs, il y a …</text>
</g>
<!-- b1&#45;&gt;c1 -->
<g id="edge2" class="edge">
<title>b1&#45;&gt;c1</title>
<path fill="none" stroke="#000000" d="M316.62,-362.4156C316.62,-353.8205 316.62,-345.3383 316.62,-337.7694"/>
<polygon fill="#000000" stroke="#000000" points="320.1201,-337.761 316.62,-327.761 313.1201,-337.761 320.1201,-337.761"/>
</g>
<!-- bc1 -->
<g id="node4" class="node">
<title>bc1</title>
<ellipse fill="#c7c7c7" stroke="#7f7f7f" cx="158.62" cy="-210.1862" rx="90.5193" ry="46.2727"/>
<text text-anchor="middle" x="158.62" y="-224.5862" font-family="Times,serif" font-size="16.00" fill="#000000">Ceux qui limitent</text>
<text text-anchor="middle" x="158.62" y="-205.3862" font-family="Times,serif" font-size="16.00" fill="#000000">notre capacité de</text>
<text text-anchor="middle" x="158.62" y="-186.1862" font-family="Times,serif" font-size="16.00" fill="#000000">faire des choix</text>
</g>
<!-- c1&#45;&gt;bc1 -->
<g id="edge3" class="edge">
<title>c1&#45;&gt;bc1</title>
<path fill="none" stroke="#000000" d="M287.6404,-291.3434C269.9445,-280.2123 246.5603,-265.503 224.5648,-251.6672"/>
<polygon fill="#000000" stroke="#000000" points="226.2237,-248.5759 215.8955,-246.214 222.4966,-254.5012 226.2237,-248.5759"/>
</g>
<!-- bc2 -->
<g id="node5" class="node">
<title>bc2</title>
<ellipse fill="#c7c7c7" stroke="#7f7f7f" cx="475.62" cy="-210.1862" rx="115.2658" ry="46.2727"/>
<text text-anchor="middle" x="475.62" y="-224.5862" font-family="Times,serif" font-size="16.00" fill="#000000">Ceux qui rendent</text>
<text text-anchor="middle" x="475.62" y="-205.3862" font-family="Times,serif" font-size="16.00" fill="#000000">possible notre capacité</text>
<text text-anchor="middle" x="475.62" y="-186.1862" font-family="Times,serif" font-size="16.00" fill="#000000">de faire des choix</text>
</g>
<!-- c1&#45;&gt;bc2 -->
<g id="edge4" class="edge">
<title>c1&#45;&gt;bc2</title>
<path fill="none" stroke="#000000" d="M345.7831,-291.3434C362.3302,-281.0003 383.8198,-267.5678 404.5382,-254.6174"/>
<polygon fill="#000000" stroke="#000000" points="406.4183,-257.5697 413.0429,-249.3013 402.708,-251.6339 406.4183,-257.5697"/>
</g>
<!-- bc1&#45;&gt;bc2 -->
<!-- d1 -->
<g id="node6" class="node">
<title>d1</title>
<path fill="#ffffff" stroke="#7f7f7f" d="M267.3601,-128.7002C267.3601,-128.7002 11.8799,-128.7002 11.8799,-128.7002 5.8799,-128.7002 -.1201,-122.7002 -.1201,-116.7002 -.1201,-116.7002 -.1201,-56.0998 -.1201,-56.0998 -.1201,-50.0998 5.8799,-44.0998 11.8799,-44.0998 11.8799,-44.0998 267.3601,-44.0998 267.3601,-44.0998 273.3601,-44.0998 279.3601,-50.0998 279.3601,-56.0998 279.3601,-56.0998 279.3601,-116.7002 279.3601,-116.7002 279.3601,-122.7002 273.3601,-128.7002 267.3601,-128.7002"/>
<text text-anchor="middle" x="139.62" y="-110.4" font-family="Times,serif" font-size="16.00" fill="#000000">La connaissance des déterminismes nous</text>
<text text-anchor="middle" x="139.62" y="-91.2" font-family="Times,serif" font-size="16.00" fill="#000000">permet de nous libérer de leur emprise</text>
<text text-anchor="middle" x="139.62" y="-72" font-family="Times,serif" font-size="16.00" fill="#000000">et nous donne accès à un répertoire</text>
<text text-anchor="middle" x="139.62" y="-52.8" font-family="Times,serif" font-size="16.00" fill="#000000">de possibilités d&#39;action plus vaste</text>
</g>
<!-- bc1&#45;&gt;d1 -->
<g id="edge6" class="edge">
<title>bc1&#45;&gt;d1</title>
<path fill="none" stroke="#000000" d="M151.491,-163.7406C150.2483,-155.6444 148.9478,-147.1714 147.6822,-138.9255"/>
<polygon fill="#000000" stroke="#000000" points="151.1385,-138.3737 146.1618,-129.0205 144.2196,-139.4358 151.1385,-138.3737"/>
</g>
<!-- d2 -->
<g id="node7" class="node">
<title>d2</title>
<path fill="#ffffff" stroke="#7f7f7f" d="M604.5032,-128.7002C604.5032,-128.7002 360.7368,-128.7002 360.7368,-128.7002 354.7368,-128.7002 348.7368,-122.7002 348.7368,-116.7002 348.7368,-116.7002 348.7368,-56.0998 348.7368,-56.0998 348.7368,-50.0998 354.7368,-44.0998 360.7368,-44.0998 360.7368,-44.0998 604.5032,-44.0998 604.5032,-44.0998 610.5032,-44.0998 616.5032,-50.0998 616.5032,-56.0998 616.5032,-56.0998 616.5032,-116.7002 616.5032,-116.7002 616.5032,-122.7002 610.5032,-128.7002 604.5032,-128.7002"/>
<text text-anchor="middle" x="482.62" y="-110.4" font-family="Times,serif" font-size="16.00" fill="#000000">La connaissance des déterminismes</text>
<text text-anchor="middle" x="482.62" y="-91.2" font-family="Times,serif" font-size="16.00" fill="#000000">nous permet de mieux comprendre les</text>
<text text-anchor="middle" x="482.62" y="-72" font-family="Times,serif" font-size="16.00" fill="#000000">conditions qui nous rendent capables</text>
<text text-anchor="middle" x="482.62" y="-52.8" font-family="Times,serif" font-size="16.00" fill="#000000">d&#39;exercer un contrôle sur nous&#45;mêmes</text>
</g>
<!-- bc2&#45;&gt;d2 -->
<g id="edge7" class="edge">
<title>bc2&#45;&gt;d2</title>
<path fill="none" stroke="#000000" d="M478.2465,-163.7406C478.6993,-155.7333 479.1729,-147.3575 479.6344,-139.1974"/>
<polygon fill="#000000" stroke="#000000" points="483.1396,-139.2022 480.2098,-129.0205 476.1507,-138.8069 483.1396,-139.2022"/>
</g>
<!-- d1&#45;&gt;d2 -->
<!-- e1 -->
<g id="node8" class="node">
<title>e1</title>
<path fill="#fafafa" stroke="transparent" d="M507.6856,-36C507.6856,-36 113.5544,-36 113.5544,-36 107.5544,-36 101.5544,-30 101.5544,-24 101.5544,-24 101.5544,-12 101.5544,-12 101.5544,-6 107.5544,0 113.5544,0 113.5544,0 507.6856,0 507.6856,0 513.6856,0 519.6856,-6 519.6856,-12 519.6856,-12 519.6856,-24 519.6856,-24 519.6856,-30 513.6856,-36 507.6856,-36"/>
<text text-anchor="middle" x="310.62" y="-13.2" font-family="Times,serif" font-size="16.00" fill="#cd2626">⇒ &#160;&#160;La connaissance des déterminismes augmente notre liberté</text>
</g>
<!-- d1&#45;&gt;e1 -->
<!-- d2&#45;&gt;e1 -->
</g>
</svg>
