<?xml version="1.0" encoding="UTF-8" standalone="no"?>
<!DOCTYPE svg PUBLIC "-//W3C//DTD SVG 1.1//EN"
 "http://www.w3.org/Graphics/SVG/1.1/DTD/svg11.dtd">
<!-- Generated by graphviz version 2.40.1 (20161225.0304)
 -->
<!-- Title: G Pages: 1 -->
<svg width="1073pt" height="780pt"
 viewBox="0.00 0.00 1072.56 780.09" xmlns="http://www.w3.org/2000/svg" xmlns:xlink="http://www.w3.org/1999/xlink">
<g id="graph0" class="graph" transform="scale(1 1) rotate(0) translate(21.6 758.4865)">
<title>G</title>
<polygon fill="#fafafa" stroke="transparent" points="-21.6,21.6 -21.6,-758.4865 1050.959,-758.4865 1050.959,21.6 -21.6,21.6"/>
<!-- a1 -->
<g id="node1" class="node">
<title>a1</title>
<ellipse fill="#000000" stroke="#000000" cx="507.7336" cy="-693.753" rx="141.2201" ry="43.2674"/>
<text text-anchor="start" x="424.3009" y="-705.053" font-family="Times,serif" font-size="18.00" fill="#ffffff">Cadre de référence des</text>
<text text-anchor="start" x="415.777" y="-687.053" font-family="Times,serif" font-size="18.00" fill="#ffffff">compétences numériques</text>
<text text-anchor="start" x="487.4032" y="-669.453" font-family="Times,serif" font-style="italic" font-size="12.00" fill="#ffffff">(CRCN)</text>
</g>
<!-- b1 -->
<g id="node2" class="node">
<title>b1</title>
<ellipse fill="#8b0000" stroke="#000000" cx="157.7336" cy="-582.8098" rx="69.5034" ry="32.6206"/>
<text text-anchor="middle" x="157.7336" y="-587.6098" font-family="Times,serif" font-size="16.00" fill="#ffffff">Informations</text>
<text text-anchor="middle" x="157.7336" y="-568.4098" font-family="Times,serif" font-size="16.00" fill="#ffffff">et données</text>
</g>
<!-- a1&#45;&gt;b1 -->
<g id="edge1" class="edge">
<title>a1&#45;&gt;b1:n</title>
<path fill="none" stroke="#000000" d="M377.4065,-676.6675C290.3353,-663.6401 187.4516,-644.5461 163.0912,-624.3352"/>
<polygon fill="#000000" stroke="#000000" points="165.9521,-622.3058 157.7336,-615.6195 159.9887,-625.9716 165.9521,-622.3058"/>
</g>
<!-- b2 -->
<g id="node3" class="node">
<title>b2</title>
<ellipse fill="#8b0000" stroke="#000000" cx="334.7336" cy="-582.8098" rx="84.4436" ry="32.6206"/>
<text text-anchor="middle" x="334.7336" y="-587.6098" font-family="Times,serif" font-size="16.00" fill="#ffffff">Communication</text>
<text text-anchor="middle" x="334.7336" y="-568.4098" font-family="Times,serif" font-size="16.00" fill="#ffffff">et collaboration</text>
</g>
<!-- a1&#45;&gt;b2 -->
<g id="edge2" class="edge">
<title>a1&#45;&gt;b2:n</title>
<path fill="none" stroke="#000000" d="M403.6049,-664.3699C373.5494,-653.2993 346.4594,-639.8391 337.6943,-625.3085"/>
<polygon fill="#000000" stroke="#000000" points="341.0032,-624.1601 334.7336,-615.6195 334.3088,-626.2058 341.0032,-624.1601"/>
</g>
<!-- b3 -->
<g id="node4" class="node">
<title>b3</title>
<ellipse fill="#8b0000" stroke="#000000" cx="507.7336" cy="-582.8098" rx="64.6166" ry="32.6206"/>
<text text-anchor="middle" x="507.7336" y="-587.6098" font-family="Times,serif" font-size="16.00" fill="#ffffff">Création de</text>
<text text-anchor="middle" x="507.7336" y="-568.4098" font-family="Times,serif" font-size="16.00" fill="#ffffff">contenus</text>
</g>
<!-- a1&#45;&gt;b3 -->
<g id="edge3" class="edge">
<title>a1&#45;&gt;b3:n</title>
<path fill="none" stroke="#000000" d="M507.7336,-650.3585C507.7336,-642.407 507.7336,-634.0291 507.7336,-625.8417"/>
<polygon fill="#000000" stroke="#000000" points="511.2337,-625.6195 507.7336,-615.6195 504.2337,-625.6195 511.2337,-625.6195"/>
</g>
<!-- b4 -->
<g id="node5" class="node">
<title>b4</title>
<ellipse fill="#8b0000" stroke="#000000" cx="680.7336" cy="-582.8098" rx="59.0903" ry="32.6206"/>
<text text-anchor="middle" x="680.7336" y="-587.6098" font-family="Times,serif" font-size="16.00" fill="#ffffff">Protection</text>
<text text-anchor="middle" x="680.7336" y="-568.4098" font-family="Times,serif" font-size="16.00" fill="#ffffff">et sécurité</text>
</g>
<!-- a1&#45;&gt;b4 -->
<g id="edge4" class="edge">
<title>a1&#45;&gt;b4:n</title>
<path fill="none" stroke="#000000" d="M611.8623,-664.3699C641.9178,-653.2993 669.0078,-639.8391 677.7729,-625.3085"/>
<polygon fill="#000000" stroke="#000000" points="681.1584,-626.2058 680.7336,-615.6195 674.464,-624.1601 681.1584,-626.2058"/>
</g>
<!-- b5 -->
<g id="node6" class="node">
<title>b5</title>
<ellipse fill="#8b0000" stroke="#000000" cx="880.7336" cy="-582.8098" rx="81.1323" ry="32.6206"/>
<text text-anchor="middle" x="880.7336" y="-587.6098" font-family="Times,serif" font-size="16.00" fill="#ffffff">Environnement</text>
<text text-anchor="middle" x="880.7336" y="-568.4098" font-family="Times,serif" font-size="16.00" fill="#ffffff">numérique</text>
</g>
<!-- a1&#45;&gt;b5 -->
<g id="edge5" class="edge">
<title>a1&#45;&gt;b5:n</title>
<path fill="none" stroke="#000000" d="M640.027,-678.3115C734.7138,-665.6154 849.8158,-646.2158 875.4925,-624.4171"/>
<polygon fill="#000000" stroke="#000000" points="878.6224,-626.0019 880.7336,-615.6195 872.6087,-622.4192 878.6224,-626.0019"/>
</g>
<!-- c1 -->
<g id="node7" class="node">
<title>c1</title>
<polygon fill="#ffffff" stroke="#7f7f7f" points="199.7013,-486.1002 -.2341,-486.1002 -.2341,-401.4998 199.7013,-401.4998 199.7013,-486.1002"/>
<text text-anchor="middle" x="99.7336" y="-467.8" font-family="Times,serif" font-size="16.00" fill="#000000">– 1.1 : Mener une recherche</text>
<text text-anchor="middle" x="99.7336" y="-448.6" font-family="Times,serif" font-size="16.00" fill="#000000">et une veille d’information</text>
<text text-anchor="middle" x="99.7336" y="-429.4" font-family="Times,serif" font-size="16.00" fill="#000000">– 1.2 : Gérer des données</text>
<text text-anchor="middle" x="99.7336" y="-410.2" font-family="Times,serif" font-size="16.00" fill="#000000">– 1.3 : Traiter des données</text>
</g>
<!-- b1&#45;&gt;c1 -->
<g id="edge6" class="edge">
<title>b1&#45;&gt;c1</title>
<path fill="none" stroke="#000000" d="M144.2815,-550.5687C137.4707,-534.2452 129.0355,-514.0283 121.3435,-495.5928"/>
<polygon fill="#000000" stroke="#000000" points="124.4821,-494.0258 117.4013,-486.1446 118.0219,-496.7212 124.4821,-494.0258"/>
</g>
<!-- c2 -->
<g id="node8" class="node">
<title>c2</title>
<polygon fill="#ffffff" stroke="#7f7f7f" points="401.8516,-495.8 219.6156,-495.8 219.6156,-391.8 401.8516,-391.8 401.8516,-495.8"/>
<text text-anchor="middle" x="310.7336" y="-477.4" font-family="Times,serif" font-size="16.00" fill="#000000">– 2.1 : Interagir</text>
<text text-anchor="middle" x="310.7336" y="-458.2" font-family="Times,serif" font-size="16.00" fill="#000000">– 2.2 : Partager et publier</text>
<text text-anchor="middle" x="310.7336" y="-439" font-family="Times,serif" font-size="16.00" fill="#000000">– 2.3 : Collaborer</text>
<text text-anchor="middle" x="310.7336" y="-419.8" font-family="Times,serif" font-size="16.00" fill="#000000">– 2.4 : S&#39;insérer dans</text>
<text text-anchor="middle" x="310.7336" y="-400.6" font-family="Times,serif" font-size="16.00" fill="#000000">le monde numérique</text>
</g>
<!-- b2&#45;&gt;c2 -->
<g id="edge7" class="edge">
<title>b2&#45;&gt;c2</title>
<path fill="none" stroke="#000000" d="M329.0459,-549.8664C326.7718,-536.6943 324.0748,-521.073 321.4594,-505.9247"/>
<polygon fill="#000000" stroke="#000000" points="324.9082,-505.3276 319.7578,-496.0689 318.0103,-506.5186 324.9082,-505.3276"/>
</g>
<!-- c3 -->
<g id="node9" class="node">
<title>c3</title>
<polygon fill="#ffffff" stroke="#7f7f7f" points="596.6744,-515.2006 418.7928,-515.2006 418.7928,-372.3994 596.6744,-372.3994 596.6744,-515.2006"/>
<text text-anchor="middle" x="507.7336" y="-496.6" font-family="Times,serif" font-size="16.00" fill="#000000">– 3.1 : Développer des</text>
<text text-anchor="middle" x="507.7336" y="-477.4" font-family="Times,serif" font-size="16.00" fill="#000000">documents textuels</text>
<text text-anchor="middle" x="507.7336" y="-458.2" font-family="Times,serif" font-size="16.00" fill="#000000">– 3.2 : Développer des</text>
<text text-anchor="middle" x="507.7336" y="-439" font-family="Times,serif" font-size="16.00" fill="#000000">documents multimédia</text>
<text text-anchor="middle" x="507.7336" y="-419.8" font-family="Times,serif" font-size="16.00" fill="#000000">– 3.3 : Adapter les</text>
<text text-anchor="middle" x="507.7336" y="-400.6" font-family="Times,serif" font-size="16.00" fill="#000000">documents à leur finalité</text>
<text text-anchor="middle" x="507.7336" y="-381.4" font-family="Times,serif" font-size="16.00" fill="#000000">– 3.4 : Programmer</text>
</g>
<!-- b3&#45;&gt;c3 -->
<g id="edge8" class="edge">
<title>b3&#45;&gt;c3</title>
<path fill="none" stroke="#000000" d="M507.7336,-549.8664C507.7336,-542.3068 507.7336,-533.9406 507.7336,-525.3201"/>
<polygon fill="#000000" stroke="#000000" points="511.2337,-525.1166 507.7336,-515.1167 504.2337,-525.1167 511.2337,-525.1166"/>
</g>
<!-- c4 -->
<g id="node10" class="node">
<title>c4</title>
<polygon fill="#ffffff" stroke="#7f7f7f" points="820.8809,-505.5002 610.5863,-505.5002 610.5863,-382.0998 820.8809,-382.0998 820.8809,-505.5002"/>
<text text-anchor="middle" x="715.7336" y="-487" font-family="Times,serif" font-size="16.00" fill="#000000">– 4.1 : Sécuriser</text>
<text text-anchor="middle" x="715.7336" y="-467.8" font-family="Times,serif" font-size="16.00" fill="#000000">l&#39;environnement numérique</text>
<text text-anchor="middle" x="715.7336" y="-448.6" font-family="Times,serif" font-size="16.00" fill="#000000">– 4.2 : Protéger les données</text>
<text text-anchor="middle" x="715.7336" y="-429.4" font-family="Times,serif" font-size="16.00" fill="#000000">personnelles et la vie privée</text>
<text text-anchor="middle" x="715.7336" y="-410.2" font-family="Times,serif" font-size="16.00" fill="#000000">– 4.3 : Protéger la santé, le</text>
<text text-anchor="middle" x="715.7336" y="-391" font-family="Times,serif" font-size="16.00" fill="#000000">bien&#45;être et l’environnement</text>
</g>
<!-- b4&#45;&gt;c4 -->
<g id="edge9" class="edge">
<title>b4&#45;&gt;c4</title>
<path fill="none" stroke="#000000" d="M688.9395,-550.2181C691.5861,-539.7069 694.6321,-527.6089 697.7001,-515.424"/>
<polygon fill="#000000" stroke="#000000" points="701.1103,-516.2139 700.1579,-505.6619 694.3222,-514.5047 701.1103,-516.2139"/>
</g>
<!-- c5 -->
<g id="node11" class="node">
<title>c5</title>
<polygon fill="#ffffff" stroke="#7f7f7f" points="1020.7335,-486.1002 834.7337,-486.1002 834.7337,-401.4998 1020.7335,-401.4998 1020.7335,-486.1002"/>
<text text-anchor="middle" x="927.7336" y="-467.8" font-family="Times,serif" font-size="16.00" fill="#000000">– 5.1 : Résoudre des</text>
<text text-anchor="middle" x="927.7336" y="-448.6" font-family="Times,serif" font-size="16.00" fill="#000000">problèmes techniques</text>
<text text-anchor="middle" x="927.7336" y="-429.4" font-family="Times,serif" font-size="16.00" fill="#000000">– 5.2 : Évoluer dans un</text>
<text text-anchor="middle" x="927.7336" y="-410.2" font-family="Times,serif" font-size="16.00" fill="#000000">environnement numérique</text>
</g>
<!-- b5&#45;&gt;c5 -->
<g id="edge10" class="edge">
<title>b5&#45;&gt;c5</title>
<path fill="none" stroke="#000000" d="M891.753,-550.2181C897.2268,-534.0287 903.9732,-514.0752 910.1394,-495.8374"/>
<polygon fill="#000000" stroke="#000000" points="913.5098,-496.7965 913.3972,-486.2022 906.8785,-494.5544 913.5098,-496.7965"/>
</g>
<!-- d1 -->
<g id="node12" class="node">
<title>d1</title>
<path fill="#ffffff" stroke="#7f7f7f" d="M165.8362,-265.2004C165.8362,-265.2004 23.631,-265.2004 23.631,-265.2004 17.631,-265.2004 11.631,-259.2004 11.631,-253.2004 11.631,-253.2004 11.631,-84.3996 11.631,-84.3996 11.631,-78.3996 17.631,-72.3996 23.631,-72.3996 23.631,-72.3996 165.8362,-72.3996 165.8362,-72.3996 171.8362,-72.3996 177.8362,-78.3996 177.8362,-84.3996 177.8362,-84.3996 177.8362,-253.2004 177.8362,-253.2004 177.8362,-259.2004 171.8362,-265.2004 165.8362,-265.2004"/>
<text text-anchor="middle" x="94.7336" y="-251.1" font-family="Times,serif" font-size="11.00" fill="#000000">– 1.1 : se tenir au courant</text>
<text text-anchor="middle" x="94.7336" y="-237.9" font-family="Times,serif" font-size="11.00" fill="#000000">de l’actualité d’un sujet</text>
<text text-anchor="middle" x="94.7336" y="-224.7" font-family="Times,serif" font-size="11.00" fill="#000000">tout en étant en mesure de</text>
<text text-anchor="middle" x="94.7336" y="-211.5" font-family="Times,serif" font-size="11.00" fill="#000000">vérifier les sources et</text>
<text text-anchor="middle" x="94.7336" y="-198.3" font-family="Times,serif" font-size="11.00" fill="#000000">la fiabilité de l’information</text>
<text text-anchor="middle" x="94.7336" y="-172.1" font-family="Times,serif" font-size="11.00" fill="#000000">– 1.2 : Stocker et organiser</text>
<text text-anchor="middle" x="94.7336" y="-158.9" font-family="Times,serif" font-size="11.00" fill="#000000">des données pour les retrouver,</text>
<text text-anchor="middle" x="94.7336" y="-145.7" font-family="Times,serif" font-size="11.00" fill="#000000">les conserver et en faciliter</text>
<text text-anchor="middle" x="94.7336" y="-132.5" font-family="Times,serif" font-size="11.00" fill="#000000">l&#39;accès et la gestion</text>
<text text-anchor="middle" x="94.7336" y="-106.3" font-family="Times,serif" font-size="11.00" fill="#000000">– 1.3 : Appliquer des traitements</text>
<text text-anchor="middle" x="94.7336" y="-93.1" font-family="Times,serif" font-size="11.00" fill="#000000">à des données pour les</text>
<text text-anchor="middle" x="94.7336" y="-79.9" font-family="Times,serif" font-size="11.00" fill="#000000">analyser et les interpréter </text>
</g>
<!-- c1&#45;&gt;d1 -->
<g id="edge11" class="edge">
<title>c1&#45;&gt;d1</title>
<path fill="none" stroke="#000000" d="M98.9633,-401.4339C98.3521,-367.8179 97.4704,-319.3219 96.6699,-275.2986"/>
<polygon fill="#000000" stroke="#000000" points="100.1658,-275.0363 96.4845,-265.1016 93.167,-275.1636 100.1658,-275.0363"/>
</g>
<!-- d2 -->
<g id="node13" class="node">
<title>d2</title>
<path fill="#ffffff" stroke="#7f7f7f" d="M397.9379,-337.7002C397.9379,-337.7002 203.5293,-337.7002 203.5293,-337.7002 197.5293,-337.7002 191.5293,-331.7002 191.5293,-325.7002 191.5293,-325.7002 191.5293,-11.8998 191.5293,-11.8998 191.5293,-5.8998 197.5293,.1002 203.5293,.1002 203.5293,.1002 397.9379,.1002 397.9379,.1002 403.9379,.1002 409.9379,-5.8998 409.9379,-11.8998 409.9379,-11.8998 409.9379,-325.7002 409.9379,-325.7002 409.9379,-331.7002 403.9379,-337.7002 397.9379,-337.7002"/>
<text text-anchor="middle" x="300.7336" y="-323.6" font-family="Times,serif" font-size="11.00" fill="#000000">– 2.1 : Interagir avec des individus et</text>
<text text-anchor="middle" x="300.7336" y="-310.4" font-family="Times,serif" font-size="11.00" fill="#000000">des petits groupes pour échanger dans</text>
<text text-anchor="middle" x="300.7336" y="-297.2" font-family="Times,serif" font-size="11.00" fill="#000000">divers contextes liés à la vie privée</text>
<text text-anchor="middle" x="300.7336" y="-284" font-family="Times,serif" font-size="11.00" fill="#000000">ou à une activité professionnelle,</text>
<text text-anchor="middle" x="300.7336" y="-270.8" font-family="Times,serif" font-size="11.00" fill="#000000">de façon ponctuelle et récurrente</text>
<text text-anchor="middle" x="300.7336" y="-244.6" font-family="Times,serif" font-size="11.00" fill="#000000">– 2.2 : Partager et publier des informations</text>
<text text-anchor="middle" x="300.7336" y="-231.4" font-family="Times,serif" font-size="11.00" fill="#000000">et des contenus pour communiquer ses</text>
<text text-anchor="middle" x="300.7336" y="-218.2" font-family="Times,serif" font-size="11.00" fill="#000000">propres productions ou opinions, relayer</text>
<text text-anchor="middle" x="300.7336" y="-205" font-family="Times,serif" font-size="11.00" fill="#000000">celles des autres en contexte de</text>
<text text-anchor="middle" x="300.7336" y="-191.8" font-family="Times,serif" font-size="11.00" fill="#000000">communication publique en apportant un</text>
<text text-anchor="middle" x="300.7336" y="-178.6" font-family="Times,serif" font-size="11.00" fill="#000000">regard critique sur la nature du contenu</text>
<text text-anchor="middle" x="300.7336" y="-152.4" font-family="Times,serif" font-size="11.00" fill="#000000">– 2.3 : Collaborer dans un groupe pour</text>
<text text-anchor="middle" x="300.7336" y="-139.2" font-family="Times,serif" font-size="11.00" fill="#000000">réaliser un projet, co&#45;produire des</text>
<text text-anchor="middle" x="300.7336" y="-126" font-family="Times,serif" font-size="11.00" fill="#000000">ressources, des connaissances, des</text>
<text text-anchor="middle" x="300.7336" y="-112.8" font-family="Times,serif" font-size="11.00" fill="#000000">données, et pour apprendre</text>
<text text-anchor="middle" x="300.7336" y="-86.6" font-family="Times,serif" font-size="11.00" fill="#000000">– 2.4 : Maîtriser les enjeux de la présence</text>
<text text-anchor="middle" x="300.7336" y="-73.4" font-family="Times,serif" font-size="11.00" fill="#000000">en ligne, développer des stratégies et des</text>
<text text-anchor="middle" x="300.7336" y="-60.2" font-family="Times,serif" font-size="11.00" fill="#000000">pratiques autonomes en respectant les règles,</text>
<text text-anchor="middle" x="300.7336" y="-47" font-family="Times,serif" font-size="11.00" fill="#000000">les droits et les valeurs qui leur sont liés,</text>
<text text-anchor="middle" x="300.7336" y="-33.8" font-family="Times,serif" font-size="11.00" fill="#000000">pour se positionner en tant qu&#39;acteur social,</text>
<text text-anchor="middle" x="300.7336" y="-20.6" font-family="Times,serif" font-size="11.00" fill="#000000">économique et citoyen dans le monde</text>
<text text-anchor="middle" x="300.7336" y="-7.4" font-family="Times,serif" font-size="11.00" fill="#000000">numérique, et répondre à des objectifs</text>
</g>
<!-- c2&#45;&gt;d2 -->
<g id="edge12" class="edge">
<title>c2&#45;&gt;d2</title>
<path fill="none" stroke="#000000" d="M308.8409,-391.7513C308.3625,-378.5947 307.8212,-363.7088 307.2508,-348.0227"/>
<polygon fill="#000000" stroke="#000000" points="310.7333,-347.4754 306.8721,-337.6092 303.7379,-347.7298 310.7333,-347.4754"/>
</g>
<!-- d3 -->
<g id="node14" class="node">
<title>d3</title>
<path fill="#ffffff" stroke="#7f7f7f" d="M598.0021,-304.7003C598.0021,-304.7003 435.4651,-304.7003 435.4651,-304.7003 429.4651,-304.7003 423.4651,-298.7003 423.4651,-292.7003 423.4651,-292.7003 423.4651,-44.8997 423.4651,-44.8997 423.4651,-38.8997 429.4651,-32.8997 435.4651,-32.8997 435.4651,-32.8997 598.0021,-32.8997 598.0021,-32.8997 604.0021,-32.8997 610.0021,-38.8997 610.0021,-44.8997 610.0021,-44.8997 610.0021,-292.7003 610.0021,-292.7003 610.0021,-298.7003 604.0021,-304.7003 598.0021,-304.7003"/>
<text text-anchor="middle" x="516.7336" y="-290.6" font-family="Times,serif" font-size="11.00" fill="#000000">– 3.1 : Produire des documents</text>
<text text-anchor="middle" x="516.7336" y="-277.4" font-family="Times,serif" font-size="11.00" fill="#000000">à contenu majoritairement textuel</text>
<text text-anchor="middle" x="516.7336" y="-264.2" font-family="Times,serif" font-size="11.00" fill="#000000">pour communiquer des idées, rendre</text>
<text text-anchor="middle" x="516.7336" y="-251" font-family="Times,serif" font-size="11.00" fill="#000000">compte et valoriser ses travaux</text>
<text text-anchor="middle" x="516.7336" y="-224.8" font-family="Times,serif" font-size="11.00" fill="#000000">– 3.2 : Développer des documents</text>
<text text-anchor="middle" x="516.7336" y="-211.6" font-family="Times,serif" font-size="11.00" fill="#000000">à contenu multimédia pour créer ses</text>
<text text-anchor="middle" x="516.7336" y="-198.4" font-family="Times,serif" font-size="11.00" fill="#000000">propres productions multimédia,</text>
<text text-anchor="middle" x="516.7336" y="-185.2" font-family="Times,serif" font-size="11.00" fill="#000000">enrichir ses créations textuelle</text>
<text text-anchor="middle" x="516.7336" y="-159" font-family="Times,serif" font-size="11.00" fill="#000000">– 3.3 : Adapter des documents de tous</text>
<text text-anchor="middle" x="516.7336" y="-145.8" font-family="Times,serif" font-size="11.00" fill="#000000">types en fonction de l’usage envisagé</text>
<text text-anchor="middle" x="516.7336" y="-132.6" font-family="Times,serif" font-size="11.00" fill="#000000">et maîtriser l’usage des licences</text>
<text text-anchor="middle" x="516.7336" y="-119.4" font-family="Times,serif" font-size="11.00" fill="#000000">pour permettre, faciliter et encadrer</text>
<text text-anchor="middle" x="516.7336" y="-106.2" font-family="Times,serif" font-size="11.00" fill="#000000">l’utilisation dans divers contextes</text>
<text text-anchor="middle" x="516.7336" y="-80" font-family="Times,serif" font-size="11.00" fill="#000000">– 3.4 : Écrire des programmes et </text>
<text text-anchor="middle" x="516.7336" y="-66.8" font-family="Times,serif" font-size="11.00" fill="#000000">des algorithmes pour répondre à</text>
<text text-anchor="middle" x="516.7336" y="-53.6" font-family="Times,serif" font-size="11.00" fill="#000000">un besoin et pour développer</text>
<text text-anchor="middle" x="516.7336" y="-40.4" font-family="Times,serif" font-size="11.00" fill="#000000">un contenu riche</text>
</g>
<!-- c3&#45;&gt;d3 -->
<g id="edge13" class="edge">
<title>c3&#45;&gt;d3</title>
<path fill="none" stroke="#000000" d="M510.0747,-372.2649C510.6562,-354.4984 511.3007,-334.8062 511.953,-314.8729"/>
<polygon fill="#000000" stroke="#000000" points="515.455,-314.8663 512.2841,-304.7572 508.4588,-314.6373 515.455,-314.8663"/>
</g>
<!-- d4 -->
<g id="node15" class="node">
<title>d4</title>
<path fill="#ffffff" stroke="#7f7f7f" d="M799.1747,-337.4002C799.1747,-337.4002 636.2925,-337.4002 636.2925,-337.4002 630.2925,-337.4002 624.2925,-331.4002 624.2925,-325.4002 624.2925,-325.4002 624.2925,-12.1998 624.2925,-12.1998 624.2925,-6.1998 630.2925,-.1998 636.2925,-.1998 636.2925,-.1998 799.1747,-.1998 799.1747,-.1998 805.1747,-.1998 811.1747,-6.1998 811.1747,-12.1998 811.1747,-12.1998 811.1747,-325.4002 811.1747,-325.4002 811.1747,-331.4002 805.1747,-337.4002 799.1747,-337.4002"/>
<text text-anchor="middle" x="717.7336" y="-323.7" font-family="Times,serif" font-size="11.00" fill="#000000">– 4.1. : Sécuriser les équipements,</text>
<text text-anchor="middle" x="717.7336" y="-310.5" font-family="Times,serif" font-size="11.00" fill="#000000">les communications et les données</text>
<text text-anchor="middle" x="717.7336" y="-297.3" font-family="Times,serif" font-size="11.00" fill="#000000">pour se prémunir contre les attaques,</text>
<text text-anchor="middle" x="717.7336" y="-284.1" font-family="Times,serif" font-size="11.00" fill="#000000">pièges, désagréments et incidents</text>
<text text-anchor="middle" x="717.7336" y="-270.9" font-family="Times,serif" font-size="11.00" fill="#000000">susceptibles de nuire au bon</text>
<text text-anchor="middle" x="717.7336" y="-257.7" font-family="Times,serif" font-size="11.00" fill="#000000">fonctionnement des matériels,</text>
<text text-anchor="middle" x="717.7336" y="-244.5" font-family="Times,serif" font-size="11.00" fill="#000000">logiciels, sites internet,</text>
<text text-anchor="middle" x="717.7336" y="-231.3" font-family="Times,serif" font-size="11.00" fill="#000000">et de compromettre les</text>
<text text-anchor="middle" x="717.7336" y="-218.1" font-family="Times,serif" font-size="11.00" fill="#000000">transactions et les données</text>
<text text-anchor="middle" x="717.7336" y="-191.9" font-family="Times,serif" font-size="11.00" fill="#000000">– 4.2 : Maîtriser ses traces et</text>
<text text-anchor="middle" x="717.7336" y="-178.7" font-family="Times,serif" font-size="11.00" fill="#000000">gérer les données personnelles</text>
<text text-anchor="middle" x="717.7336" y="-165.5" font-family="Times,serif" font-size="11.00" fill="#000000">pour protéger sa vie privée</text>
<text text-anchor="middle" x="717.7336" y="-152.3" font-family="Times,serif" font-size="11.00" fill="#000000">et celle des autres, et</text>
<text text-anchor="middle" x="717.7336" y="-139.1" font-family="Times,serif" font-size="11.00" fill="#000000">adopter une pratique éclairée</text>
<text text-anchor="middle" x="717.7336" y="-112.9" font-family="Times,serif" font-size="11.00" fill="#000000">– 4.3 : Prévenir et limiter les risques</text>
<text text-anchor="middle" x="717.7336" y="-99.7" font-family="Times,serif" font-size="11.00" fill="#000000">générés par le numérique sur la santé,</text>
<text text-anchor="middle" x="717.7336" y="-86.5" font-family="Times,serif" font-size="11.00" fill="#000000">le bien&#45;être et l’environnement mais </text>
<text text-anchor="middle" x="717.7336" y="-73.3" font-family="Times,serif" font-size="11.00" fill="#000000">aussi tirer parti de ses potentialités </text>
<text text-anchor="middle" x="717.7336" y="-60.1" font-family="Times,serif" font-size="11.00" fill="#000000">pour favoriser le développement</text>
<text text-anchor="middle" x="717.7336" y="-46.9" font-family="Times,serif" font-size="11.00" fill="#000000">personnel, le soin, l’inclusion</text>
<text text-anchor="middle" x="717.7336" y="-33.7" font-family="Times,serif" font-size="11.00" fill="#000000">dans la société et la qualité des</text>
<text text-anchor="middle" x="717.7336" y="-20.5" font-family="Times,serif" font-size="11.00" fill="#000000">conditions de vie, pour soi</text>
<text text-anchor="middle" x="717.7336" y="-7.3" font-family="Times,serif" font-size="11.00" fill="#000000">et pour les autres</text>
</g>
<!-- c4&#45;&gt;d4 -->
<g id="edge14" class="edge">
<title>c4&#45;&gt;d4</title>
<path fill="none" stroke="#000000" d="M716.1824,-382.0846C716.2603,-371.3831 716.3446,-359.7909 716.4323,-347.7296"/>
<polygon fill="#000000" stroke="#000000" points="719.9338,-347.5223 716.5067,-337.497 712.934,-347.4713 719.9338,-347.5223"/>
</g>
<!-- d5 -->
<g id="node16" class="node">
<title>d5</title>
<path fill="#ffffff" stroke="#7f7f7f" d="M1017.4846,-238.6001C1017.4846,-238.6001 837.9826,-238.6001 837.9826,-238.6001 831.9826,-238.6001 825.9826,-232.6001 825.9826,-226.6001 825.9826,-226.6001 825.9826,-110.9999 825.9826,-110.9999 825.9826,-104.9999 831.9826,-98.9999 837.9826,-98.9999 837.9826,-98.9999 1017.4846,-98.9999 1017.4846,-98.9999 1023.4846,-98.9999 1029.4846,-104.9999 1029.4846,-110.9999 1029.4846,-110.9999 1029.4846,-226.6001 1029.4846,-226.6001 1029.4846,-232.6001 1023.4846,-238.6001 1017.4846,-238.6001"/>
<text text-anchor="middle" x="927.7336" y="-224.8" font-family="Times,serif" font-size="11.00" fill="#000000">– 5.1 : Résoudre des problèmes</text>
<text text-anchor="middle" x="927.7336" y="-211.6" font-family="Times,serif" font-size="11.00" fill="#000000">techniques pour garantir et</text>
<text text-anchor="middle" x="927.7336" y="-198.4" font-family="Times,serif" font-size="11.00" fill="#000000">rétablir le bon fonctionnement</text>
<text text-anchor="middle" x="927.7336" y="-185.2" font-family="Times,serif" font-size="11.00" fill="#000000">d’un environnement informatique</text>
<text text-anchor="middle" x="927.7336" y="-159" font-family="Times,serif" font-size="11.00" fill="#000000">– 5.2 : Installer, configurer et enrichir</text>
<text text-anchor="middle" x="927.7336" y="-145.8" font-family="Times,serif" font-size="11.00" fill="#000000">un environnement numérique (matériels</text>
<text text-anchor="middle" x="927.7336" y="-132.6" font-family="Times,serif" font-size="11.00" fill="#000000">, outils, services) pour disposer d’un</text>
<text text-anchor="middle" x="927.7336" y="-119.4" font-family="Times,serif" font-size="11.00" fill="#000000">cadre adapté aux activités menées à</text>
<text text-anchor="middle" x="927.7336" y="-106.2" font-family="Times,serif" font-size="11.00" fill="#000000">leur contexte d’exercice ou à des valeurs</text>
</g>
<!-- c5&#45;&gt;d5 -->
<g id="edge15" class="edge">
<title>c5&#45;&gt;d5</title>
<path fill="none" stroke="#000000" d="M927.7336,-401.4339C927.7336,-360.91 927.7336,-298.7623 927.7336,-248.8937"/>
<polygon fill="#000000" stroke="#000000" points="931.2337,-248.7727 927.7336,-238.7728 924.2337,-248.7728 931.2337,-248.7727"/>
</g>
</g>
</svg>
