<?xml version="1.0" encoding="UTF-8" standalone="no"?>
<!DOCTYPE svg PUBLIC "-//W3C//DTD SVG 1.1//EN"
 "http://www.w3.org/Graphics/SVG/1.1/DTD/svg11.dtd">
<!-- Generated by graphviz version 2.40.1 (20161225.0304)
 -->
<!-- Title: G Pages: 1 -->
<svg width="818pt" height="484pt"
 viewBox="0.00 0.00 818.02 484.29" xmlns="http://www.w3.org/2000/svg" xmlns:xlink="http://www.w3.org/1999/xlink">
<g id="graph0" class="graph" transform="scale(1 1) rotate(0) translate(21.6 462.6865)">
<title>G</title>
<polygon fill="#fafafa" stroke="transparent" points="-21.6,21.6 -21.6,-462.6865 796.4174,-462.6865 796.4174,21.6 -21.6,21.6"/>
<!-- a1 -->
<g id="node1" class="node">
<title>a1</title>
<ellipse fill="#000000" stroke="#000000" cx="400.7513" cy="-397.953" rx="141.2201" ry="43.2674"/>
<text text-anchor="start" x="317.3186" y="-409.253" font-family="Times,serif" font-size="18.00" fill="#ffffff">Cadre de référence des</text>
<text text-anchor="start" x="308.7947" y="-391.253" font-family="Times,serif" font-size="18.00" fill="#ffffff">compétences numériques</text>
<text text-anchor="start" x="380.4209" y="-373.653" font-family="Times,serif" font-style="italic" font-size="12.00" fill="#ffffff">(CRCN)</text>
</g>
<!-- b1 -->
<g id="node2" class="node">
<title>b1</title>
<ellipse fill="#8b0000" stroke="#000000" cx="69.7513" cy="-287.0098" rx="69.5034" ry="32.6206"/>
<text text-anchor="middle" x="69.7513" y="-291.8098" font-family="Times,serif" font-size="16.00" fill="#ffffff">Informations</text>
<text text-anchor="middle" x="69.7513" y="-272.6098" font-family="Times,serif" font-size="16.00" fill="#ffffff">et données</text>
</g>
<!-- a1&#45;&gt;b1 -->
<g id="edge1" class="edge">
<title>a1&#45;&gt;b1:n</title>
<path fill="none" stroke="#000000" d="M261.3368,-390.1141C178.2974,-381.8015 86.2704,-364.717 71.731,-329.6561"/>
<polygon fill="#000000" stroke="#000000" points="75.1556,-328.9323 69.7513,-319.8195 68.2932,-330.3135 75.1556,-328.9323"/>
</g>
<!-- b2 -->
<g id="node3" class="node">
<title>b2</title>
<ellipse fill="#8b0000" stroke="#000000" cx="237.7513" cy="-287.0098" rx="84.4436" ry="32.6206"/>
<text text-anchor="middle" x="237.7513" y="-291.8098" font-family="Times,serif" font-size="16.00" fill="#ffffff">Communication</text>
<text text-anchor="middle" x="237.7513" y="-272.6098" font-family="Times,serif" font-size="16.00" fill="#ffffff">et collaboration</text>
</g>
<!-- a1&#45;&gt;b2 -->
<g id="edge2" class="edge">
<title>a1&#45;&gt;b2:n</title>
<path fill="none" stroke="#000000" d="M301.2381,-367.1697C273.6646,-356.1655 248.9868,-343.0753 240.702,-329.3797"/>
<polygon fill="#000000" stroke="#000000" points="244.0449,-328.3425 237.7513,-319.8195 237.3562,-330.407 244.0449,-328.3425"/>
</g>
<!-- b3 -->
<g id="node4" class="node">
<title>b3</title>
<ellipse fill="#8b0000" stroke="#000000" cx="400.7513" cy="-287.0098" rx="64.6166" ry="32.6206"/>
<text text-anchor="middle" x="400.7513" y="-291.8098" font-family="Times,serif" font-size="16.00" fill="#ffffff">Création de</text>
<text text-anchor="middle" x="400.7513" y="-272.6098" font-family="Times,serif" font-size="16.00" fill="#ffffff">contenus</text>
</g>
<!-- a1&#45;&gt;b3 -->
<g id="edge3" class="edge">
<title>a1&#45;&gt;b3:n</title>
<path fill="none" stroke="#000000" d="M400.7513,-354.5585C400.7513,-346.607 400.7513,-338.2291 400.7513,-330.0417"/>
<polygon fill="#000000" stroke="#000000" points="404.2514,-329.8195 400.7513,-319.8195 397.2514,-329.8195 404.2514,-329.8195"/>
</g>
<!-- b4 -->
<g id="node5" class="node">
<title>b4</title>
<ellipse fill="#8b0000" stroke="#000000" cx="539.7513" cy="-287.0098" rx="59.0903" ry="32.6206"/>
<text text-anchor="middle" x="539.7513" y="-291.8098" font-family="Times,serif" font-size="16.00" fill="#ffffff">Protection</text>
<text text-anchor="middle" x="539.7513" y="-272.6098" font-family="Times,serif" font-size="16.00" fill="#ffffff">et sécurité</text>
</g>
<!-- a1&#45;&gt;b4 -->
<g id="edge4" class="edge">
<title>a1&#45;&gt;b4:n</title>
<path fill="none" stroke="#000000" d="M507.162,-369.5584C523.0623,-359.8905 535.3316,-346.9923 538.7776,-329.8116"/>
<polygon fill="#000000" stroke="#000000" points="542.2648,-330.1119 539.7513,-319.8195 535.2978,-329.4329 542.2648,-330.1119"/>
</g>
<!-- b5 -->
<g id="node6" class="node">
<title>b5</title>
<ellipse fill="#8b0000" stroke="#000000" cx="693.7513" cy="-287.0098" rx="81.1323" ry="32.6206"/>
<text text-anchor="middle" x="693.7513" y="-291.8098" font-family="Times,serif" font-size="16.00" fill="#ffffff">Environnement</text>
<text text-anchor="middle" x="693.7513" y="-272.6098" font-family="Times,serif" font-size="16.00" fill="#ffffff">numérique</text>
</g>
<!-- a1&#45;&gt;b5 -->
<g id="edge5" class="edge">
<title>a1&#45;&gt;b5:n</title>
<path fill="none" stroke="#000000" d="M536.5298,-385.724C605.6886,-375.975 678.0509,-358.9322 691.5246,-329.7331"/>
<polygon fill="#000000" stroke="#000000" points="694.9747,-330.3435 693.7513,-319.8195 688.1448,-328.8094 694.9747,-330.3435"/>
</g>
<!-- c1 -->
<g id="node7" class="node">
<title>c1</title>
<polygon fill="#ffffff" stroke="#7f7f7f" points="126.5493,-190.2005 12.9533,-190.2005 12.9533,-28.9995 126.5493,-28.9995 126.5493,-190.2005"/>
<text text-anchor="middle" x="69.7513" y="-172" font-family="Times,serif" font-size="16.00" fill="#000000">– 1.1 : Mener</text>
<text text-anchor="middle" x="69.7513" y="-152.8" font-family="Times,serif" font-size="16.00" fill="#000000">une recherche</text>
<text text-anchor="middle" x="69.7513" y="-133.6" font-family="Times,serif" font-size="16.00" fill="#000000">et une veille</text>
<text text-anchor="middle" x="69.7513" y="-114.4" font-family="Times,serif" font-size="16.00" fill="#000000">d’information</text>
<text text-anchor="middle" x="69.7513" y="-95.2" font-family="Times,serif" font-size="16.00" fill="#000000">– 1.2 : Gérer</text>
<text text-anchor="middle" x="69.7513" y="-76" font-family="Times,serif" font-size="16.00" fill="#000000">des données</text>
<text text-anchor="middle" x="69.7513" y="-56.8" font-family="Times,serif" font-size="16.00" fill="#000000">– 1.3 : Traiter</text>
<text text-anchor="middle" x="69.7513" y="-37.6" font-family="Times,serif" font-size="16.00" fill="#000000">des données</text>
</g>
<!-- b1&#45;&gt;c1 -->
<g id="edge6" class="edge">
<title>b1&#45;&gt;c1</title>
<path fill="none" stroke="#000000" d="M69.7513,-254.0561C69.7513,-238.6964 69.7513,-219.5862 69.7513,-200.3479"/>
<polygon fill="#000000" stroke="#000000" points="73.2514,-200.2949 69.7513,-190.2949 66.2514,-200.295 73.2514,-200.2949"/>
</g>
<!-- c2 -->
<g id="node8" class="node">
<title>c2</title>
<polygon fill="#ffffff" stroke="#7f7f7f" points="305.945,-181.0006 167.5575,-181.0006 167.5575,-38.1994 305.945,-38.1994 305.945,-181.0006"/>
<text text-anchor="middle" x="236.7513" y="-162.4" font-family="Times,serif" font-size="16.00" fill="#000000">– 2.1 : Interagir</text>
<text text-anchor="middle" x="236.7513" y="-143.2" font-family="Times,serif" font-size="16.00" fill="#000000">– 2.2 : Partager</text>
<text text-anchor="middle" x="236.7513" y="-124" font-family="Times,serif" font-size="16.00" fill="#000000">et publier</text>
<text text-anchor="middle" x="236.7513" y="-104.8" font-family="Times,serif" font-size="16.00" fill="#000000">– 2.3 : Collaborer</text>
<text text-anchor="middle" x="236.7513" y="-85.6" font-family="Times,serif" font-size="16.00" fill="#000000">– 2.4 : S&#39;insérer</text>
<text text-anchor="middle" x="236.7513" y="-66.4" font-family="Times,serif" font-size="16.00" fill="#000000">dans le monde</text>
<text text-anchor="middle" x="236.7513" y="-47.2" font-family="Times,serif" font-size="16.00" fill="#000000">numérique</text>
</g>
<!-- b2&#45;&gt;c2 -->
<g id="edge7" class="edge">
<title>b2&#45;&gt;c2</title>
<path fill="none" stroke="#000000" d="M237.5655,-254.0561C237.4651,-236.2421 237.3363,-213.3834 237.2108,-191.1308"/>
<polygon fill="#000000" stroke="#000000" points="240.71,-190.9496 237.1536,-180.9695 233.7101,-190.9891 240.71,-190.9496"/>
</g>
<!-- c3 -->
<g id="node9" class="node">
<title>c3</title>
<polygon fill="#ffffff" stroke="#7f7f7f" points="469.4955,-209.6 320.0071,-209.6 320.0071,-9.6 469.4955,-9.6 469.4955,-209.6"/>
<text text-anchor="middle" x="394.7513" y="-191.2" font-family="Times,serif" font-size="16.00" fill="#000000">– 3.1 : Développer</text>
<text text-anchor="middle" x="394.7513" y="-172" font-family="Times,serif" font-size="16.00" fill="#000000">des documents</text>
<text text-anchor="middle" x="394.7513" y="-152.8" font-family="Times,serif" font-size="16.00" fill="#000000">textuels</text>
<text text-anchor="middle" x="394.7513" y="-133.6" font-family="Times,serif" font-size="16.00" fill="#000000">– 3.2 : Développer</text>
<text text-anchor="middle" x="394.7513" y="-114.4" font-family="Times,serif" font-size="16.00" fill="#000000">des documents</text>
<text text-anchor="middle" x="394.7513" y="-95.2" font-family="Times,serif" font-size="16.00" fill="#000000">multimédia</text>
<text text-anchor="middle" x="394.7513" y="-76" font-family="Times,serif" font-size="16.00" fill="#000000">– 3.3 : Adapter</text>
<text text-anchor="middle" x="394.7513" y="-56.8" font-family="Times,serif" font-size="16.00" fill="#000000">les documents</text>
<text text-anchor="middle" x="394.7513" y="-37.6" font-family="Times,serif" font-size="16.00" fill="#000000">à leur finalité</text>
<text text-anchor="middle" x="394.7513" y="-18.4" font-family="Times,serif" font-size="16.00" fill="#000000">– 3.4 : Programmer</text>
</g>
<!-- b3&#45;&gt;c3 -->
<g id="edge8" class="edge">
<title>b3&#45;&gt;c3</title>
<path fill="none" stroke="#000000" d="M399.6368,-254.0561C399.2945,-243.9353 398.8971,-232.1861 398.4798,-219.8449"/>
<polygon fill="#000000" stroke="#000000" points="401.9775,-219.7163 398.1414,-209.8403 394.9815,-219.9529 401.9775,-219.7163"/>
</g>
<!-- c4 -->
<g id="node10" class="node">
<title>c4</title>
<polygon fill="#ffffff" stroke="#7f7f7f" points="614.1503,-219.3001 483.3523,-219.3001 483.3523,.1001 614.1503,.1001 614.1503,-219.3001"/>
<text text-anchor="middle" x="548.7513" y="-200.8" font-family="Times,serif" font-size="16.00" fill="#000000">– 4.1 : Sécuriser</text>
<text text-anchor="middle" x="548.7513" y="-181.6" font-family="Times,serif" font-size="16.00" fill="#000000">l&#39;environnement</text>
<text text-anchor="middle" x="548.7513" y="-162.4" font-family="Times,serif" font-size="16.00" fill="#000000">numérique</text>
<text text-anchor="middle" x="548.7513" y="-143.2" font-family="Times,serif" font-size="16.00" fill="#000000">– 4.2 : Protéger</text>
<text text-anchor="middle" x="548.7513" y="-124" font-family="Times,serif" font-size="16.00" fill="#000000">les données</text>
<text text-anchor="middle" x="548.7513" y="-104.8" font-family="Times,serif" font-size="16.00" fill="#000000">personnelles</text>
<text text-anchor="middle" x="548.7513" y="-85.6" font-family="Times,serif" font-size="16.00" fill="#000000">et la vie privée</text>
<text text-anchor="middle" x="548.7513" y="-66.4" font-family="Times,serif" font-size="16.00" fill="#000000">– 4.3 : Protéger</text>
<text text-anchor="middle" x="548.7513" y="-47.2" font-family="Times,serif" font-size="16.00" fill="#000000">la santé, le</text>
<text text-anchor="middle" x="548.7513" y="-28" font-family="Times,serif" font-size="16.00" fill="#000000">bien&#45;être et</text>
<text text-anchor="middle" x="548.7513" y="-8.8" font-family="Times,serif" font-size="16.00" fill="#000000">l’environnement</text>
</g>
<!-- b4&#45;&gt;c4 -->
<g id="edge9" class="edge">
<title>b4&#45;&gt;c4</title>
<path fill="none" stroke="#000000" d="M541.423,-254.0561C541.7997,-246.6299 542.221,-238.327 542.6659,-229.5568"/>
<polygon fill="#000000" stroke="#000000" points="546.1659,-229.6427 543.1772,-219.4781 539.1749,-229.2879 546.1659,-229.6427"/>
</g>
<!-- c5 -->
<g id="node11" class="node">
<title>c5</title>
<polygon fill="#ffffff" stroke="#7f7f7f" points="759.5508,-181.0006 627.9517,-181.0006 627.9517,-38.1994 759.5508,-38.1994 759.5508,-181.0006"/>
<text text-anchor="middle" x="693.7513" y="-162.4" font-family="Times,serif" font-size="16.00" fill="#000000">– 5.1 : Résoudre</text>
<text text-anchor="middle" x="693.7513" y="-143.2" font-family="Times,serif" font-size="16.00" fill="#000000">des problèmes</text>
<text text-anchor="middle" x="693.7513" y="-124" font-family="Times,serif" font-size="16.00" fill="#000000">techniques</text>
<text text-anchor="middle" x="693.7513" y="-104.8" font-family="Times,serif" font-size="16.00" fill="#000000">– 5.2 : Évoluer</text>
<text text-anchor="middle" x="693.7513" y="-85.6" font-family="Times,serif" font-size="16.00" fill="#000000">dans un</text>
<text text-anchor="middle" x="693.7513" y="-66.4" font-family="Times,serif" font-size="16.00" fill="#000000">environnement</text>
<text text-anchor="middle" x="693.7513" y="-47.2" font-family="Times,serif" font-size="16.00" fill="#000000">numérique</text>
</g>
<!-- b5&#45;&gt;c5 -->
<g id="edge10" class="edge">
<title>b5&#45;&gt;c5</title>
<path fill="none" stroke="#000000" d="M693.7513,-254.0561C693.7513,-236.2421 693.7513,-213.3834 693.7513,-191.1308"/>
<polygon fill="#000000" stroke="#000000" points="697.2514,-190.9695 693.7513,-180.9695 690.2514,-190.9696 697.2514,-190.9695"/>
</g>
</g>
</svg>
