<?xml version="1.0" encoding="UTF-8" standalone="no"?>
<!DOCTYPE svg PUBLIC "-//W3C//DTD SVG 1.1//EN"
 "http://www.w3.org/Graphics/SVG/1.1/DTD/svg11.dtd">
<!-- Generated by graphviz version 2.40.1 (20161225.0304)
 -->
<!-- Title: G Pages: 1 -->
<svg width="1197pt" height="749pt"
 viewBox="0.00 0.00 1197.29 749.09" xmlns="http://www.w3.org/2000/svg" xmlns:xlink="http://www.w3.org/1999/xlink">
<g id="graph0" class="graph" transform="scale(1 1) rotate(0) translate(21.6 727.4865)">
<title>G</title>
<polygon fill="#fafafa" stroke="transparent" points="-21.6,21.6 -21.6,-727.4865 1175.6912,-727.4865 1175.6912,21.6 -21.6,21.6"/>
<!-- a1 -->
<g id="node1" class="node">
<title>a1</title>
<ellipse fill="#000000" stroke="#000000" cx="536.6492" cy="-662.753" rx="141.2201" ry="43.2674"/>
<text text-anchor="start" x="453.2165" y="-674.053" font-family="Times,serif" font-size="18.00" fill="#ffffff">Cadre de référence des</text>
<text text-anchor="start" x="444.6926" y="-656.053" font-family="Times,serif" font-size="18.00" fill="#ffffff">compétences numériques</text>
<text text-anchor="start" x="516.3188" y="-638.453" font-family="Times,serif" font-style="italic" font-size="12.00" fill="#ffffff">(CRCN)</text>
</g>
<!-- b1 -->
<g id="node2" class="node">
<title>b1</title>
<ellipse fill="#8b0000" stroke="#000000" cx="187.6492" cy="-551.8098" rx="69.5034" ry="32.6206"/>
<text text-anchor="middle" x="187.6492" y="-556.6098" font-family="Times,serif" font-size="16.00" fill="#ffffff">Informations</text>
<text text-anchor="middle" x="187.6492" y="-537.4098" font-family="Times,serif" font-size="16.00" fill="#ffffff">et données</text>
</g>
<!-- a1&#45;&gt;b1 -->
<g id="edge1" class="edge">
<title>a1&#45;&gt;b1:n</title>
<path fill="none" stroke="#000000" d="M406.6945,-645.6349C319.872,-632.59 217.2823,-613.4854 192.9915,-593.3148"/>
<polygon fill="#000000" stroke="#000000" points="195.8662,-591.3077 187.6492,-584.6195 189.902,-594.9721 195.8662,-591.3077"/>
</g>
<!-- b2 -->
<g id="node3" class="node">
<title>b2</title>
<ellipse fill="#8b0000" stroke="#000000" cx="364.6492" cy="-551.8098" rx="84.4436" ry="32.6206"/>
<text text-anchor="middle" x="364.6492" y="-556.6098" font-family="Times,serif" font-size="16.00" fill="#ffffff">Communication</text>
<text text-anchor="middle" x="364.6492" y="-537.4098" font-family="Times,serif" font-size="16.00" fill="#ffffff">et collaboration</text>
</g>
<!-- a1&#45;&gt;b2 -->
<g id="edge2" class="edge">
<title>a1&#45;&gt;b2:n</title>
<path fill="none" stroke="#000000" d="M433.1224,-633.2852C403.2407,-622.2026 376.3072,-608.7483 367.5928,-594.2684"/>
<polygon fill="#000000" stroke="#000000" points="370.9149,-593.163 364.6492,-584.6195 364.2195,-595.2056 370.9149,-593.163"/>
</g>
<!-- b3 -->
<g id="node4" class="node">
<title>b3</title>
<ellipse fill="#8b0000" stroke="#000000" cx="536.6492" cy="-551.8098" rx="64.6166" ry="32.6206"/>
<text text-anchor="middle" x="536.6492" y="-556.6098" font-family="Times,serif" font-size="16.00" fill="#ffffff">Création de</text>
<text text-anchor="middle" x="536.6492" y="-537.4098" font-family="Times,serif" font-size="16.00" fill="#ffffff">contenus</text>
</g>
<!-- a1&#45;&gt;b3 -->
<g id="edge3" class="edge">
<title>a1&#45;&gt;b3:n</title>
<path fill="none" stroke="#000000" d="M536.6492,-619.3585C536.6492,-611.407 536.6492,-603.0291 536.6492,-594.8417"/>
<polygon fill="#000000" stroke="#000000" points="540.1493,-594.6195 536.6492,-584.6195 533.1493,-594.6195 540.1493,-594.6195"/>
</g>
<!-- b4 -->
<g id="node5" class="node">
<title>b4</title>
<ellipse fill="#8b0000" stroke="#000000" cx="709.6492" cy="-551.8098" rx="59.0903" ry="32.6206"/>
<text text-anchor="middle" x="709.6492" y="-556.6098" font-family="Times,serif" font-size="16.00" fill="#ffffff">Protection</text>
<text text-anchor="middle" x="709.6492" y="-537.4098" font-family="Times,serif" font-size="16.00" fill="#ffffff">et sécurité</text>
</g>
<!-- a1&#45;&gt;b4 -->
<g id="edge4" class="edge">
<title>a1&#45;&gt;b4:n</title>
<path fill="none" stroke="#000000" d="M640.7779,-633.3699C670.8334,-622.2993 697.9234,-608.8391 706.6885,-594.3085"/>
<polygon fill="#000000" stroke="#000000" points="710.074,-595.2058 709.6492,-584.6195 703.3796,-593.1601 710.074,-595.2058"/>
</g>
<!-- b5 -->
<g id="node6" class="node">
<title>b5</title>
<ellipse fill="#8b0000" stroke="#000000" cx="909.6492" cy="-551.8098" rx="81.1323" ry="32.6206"/>
<text text-anchor="middle" x="909.6492" y="-556.6098" font-family="Times,serif" font-size="16.00" fill="#ffffff">Environnement</text>
<text text-anchor="middle" x="909.6492" y="-537.4098" font-family="Times,serif" font-size="16.00" fill="#ffffff">numérique</text>
</g>
<!-- a1&#45;&gt;b5 -->
<g id="edge5" class="edge">
<title>a1&#45;&gt;b5:n</title>
<path fill="none" stroke="#000000" d="M668.9426,-647.3115C763.6294,-634.6154 878.7314,-615.2158 904.4081,-593.4171"/>
<polygon fill="#000000" stroke="#000000" points="907.538,-595.0019 909.6492,-584.6195 901.5243,-591.4192 907.538,-595.0019"/>
</g>
<!-- c1 -->
<g id="node7" class="node">
<title>c1</title>
<polygon fill="#ffffff" stroke="#7f7f7f" points="211.6169,-455.1002 11.6815,-455.1002 11.6815,-370.4998 211.6169,-370.4998 211.6169,-455.1002"/>
<text text-anchor="middle" x="111.6492" y="-436.8" font-family="Times,serif" font-size="16.00" fill="#000000">– 1.1 : Mener une recherche</text>
<text text-anchor="middle" x="111.6492" y="-417.6" font-family="Times,serif" font-size="16.00" fill="#000000">et une veille d’information</text>
<text text-anchor="middle" x="111.6492" y="-398.4" font-family="Times,serif" font-size="16.00" fill="#000000">– 1.2 : Gérer des données</text>
<text text-anchor="middle" x="111.6492" y="-379.2" font-family="Times,serif" font-size="16.00" fill="#000000">– 1.3 : Traiter des données</text>
</g>
<!-- b1&#45;&gt;c1 -->
<g id="edge6" class="edge">
<title>b1&#45;&gt;c1</title>
<path fill="none" stroke="#000000" d="M170.2133,-519.9181C161.2123,-503.4546 150.0085,-482.962 139.8176,-464.3222"/>
<polygon fill="#000000" stroke="#000000" points="142.7785,-462.4417 134.9104,-455.3464 136.6365,-465.7997 142.7785,-462.4417"/>
</g>
<!-- c2 -->
<g id="node8" class="node">
<title>c2</title>
<polygon fill="#ffffff" stroke="#7f7f7f" points="407.7672,-464.8 225.5312,-464.8 225.5312,-360.8 407.7672,-360.8 407.7672,-464.8"/>
<text text-anchor="middle" x="316.6492" y="-446.4" font-family="Times,serif" font-size="16.00" fill="#000000">– 2.1 : Interagir</text>
<text text-anchor="middle" x="316.6492" y="-427.2" font-family="Times,serif" font-size="16.00" fill="#000000">– 2.2 : Partager et publier</text>
<text text-anchor="middle" x="316.6492" y="-408" font-family="Times,serif" font-size="16.00" fill="#000000">– 2.3 : Collaborer</text>
<text text-anchor="middle" x="316.6492" y="-388.8" font-family="Times,serif" font-size="16.00" fill="#000000">– 2.4 : S&#39;insérer dans</text>
<text text-anchor="middle" x="316.6492" y="-369.6" font-family="Times,serif" font-size="16.00" fill="#000000">le monde numérique</text>
</g>
<!-- b2&#45;&gt;c2 -->
<g id="edge7" class="edge">
<title>b2&#45;&gt;c2</title>
<path fill="none" stroke="#000000" d="M353.3953,-519.2181C348.783,-505.8606 343.2858,-489.9406 337.9666,-474.5361"/>
<polygon fill="#000000" stroke="#000000" points="341.2595,-473.3487 334.6872,-465.0388 334.6429,-475.6335 341.2595,-473.3487"/>
</g>
<!-- c3 -->
<g id="node9" class="node">
<title>c3</title>
<polygon fill="#ffffff" stroke="#7f7f7f" points="625.59,-484.2006 447.7084,-484.2006 447.7084,-341.3994 625.59,-341.3994 625.59,-484.2006"/>
<text text-anchor="middle" x="536.6492" y="-465.6" font-family="Times,serif" font-size="16.00" fill="#000000">– 3.1 : Développer des</text>
<text text-anchor="middle" x="536.6492" y="-446.4" font-family="Times,serif" font-size="16.00" fill="#000000">documents textuels</text>
<text text-anchor="middle" x="536.6492" y="-427.2" font-family="Times,serif" font-size="16.00" fill="#000000">– 3.2 : Développer des</text>
<text text-anchor="middle" x="536.6492" y="-408" font-family="Times,serif" font-size="16.00" fill="#000000">documents multimédia</text>
<text text-anchor="middle" x="536.6492" y="-388.8" font-family="Times,serif" font-size="16.00" fill="#000000">– 3.3 : Adapter les</text>
<text text-anchor="middle" x="536.6492" y="-369.6" font-family="Times,serif" font-size="16.00" fill="#000000">documents à leur finalité</text>
<text text-anchor="middle" x="536.6492" y="-350.4" font-family="Times,serif" font-size="16.00" fill="#000000">– 3.4 : Programmer</text>
</g>
<!-- b3&#45;&gt;c3 -->
<g id="edge8" class="edge">
<title>b3&#45;&gt;c3</title>
<path fill="none" stroke="#000000" d="M536.6492,-518.8664C536.6492,-511.3068 536.6492,-502.9406 536.6492,-494.3201"/>
<polygon fill="#000000" stroke="#000000" points="540.1493,-494.1166 536.6492,-484.1167 533.1493,-494.1167 540.1493,-494.1166"/>
</g>
<!-- c4 -->
<g id="node10" class="node">
<title>c4</title>
<polygon fill="#ffffff" stroke="#7f7f7f" points="867.7965,-474.5002 657.5019,-474.5002 657.5019,-351.0998 867.7965,-351.0998 867.7965,-474.5002"/>
<text text-anchor="middle" x="762.6492" y="-456" font-family="Times,serif" font-size="16.00" fill="#000000">– 4.1 : Sécuriser</text>
<text text-anchor="middle" x="762.6492" y="-436.8" font-family="Times,serif" font-size="16.00" fill="#000000">l&#39;environnement numérique</text>
<text text-anchor="middle" x="762.6492" y="-417.6" font-family="Times,serif" font-size="16.00" fill="#000000">– 4.2 : Protéger les données</text>
<text text-anchor="middle" x="762.6492" y="-398.4" font-family="Times,serif" font-size="16.00" fill="#000000">personnelles et la vie privée</text>
<text text-anchor="middle" x="762.6492" y="-379.2" font-family="Times,serif" font-size="16.00" fill="#000000">– 4.3 : Protéger la santé, le</text>
<text text-anchor="middle" x="762.6492" y="-360" font-family="Times,serif" font-size="16.00" fill="#000000">bien&#45;être et l’environnement</text>
</g>
<!-- b4&#45;&gt;c4 -->
<g id="edge9" class="edge">
<title>b4&#45;&gt;c4</title>
<path fill="none" stroke="#000000" d="M721.9417,-519.5687C726.0112,-508.8952 730.7153,-496.5572 735.4492,-484.1409"/>
<polygon fill="#000000" stroke="#000000" points="738.7728,-485.248 739.065,-474.6572 732.2321,-482.7542 738.7728,-485.248"/>
</g>
<!-- c5 -->
<g id="node11" class="node">
<title>c5</title>
<polygon fill="#ffffff" stroke="#7f7f7f" points="1093.6491,-455.1002 907.6493,-455.1002 907.6493,-370.4998 1093.6491,-370.4998 1093.6491,-455.1002"/>
<text text-anchor="middle" x="1000.6492" y="-436.8" font-family="Times,serif" font-size="16.00" fill="#000000">– 5.1 : Résoudre des</text>
<text text-anchor="middle" x="1000.6492" y="-417.6" font-family="Times,serif" font-size="16.00" fill="#000000">problèmes techniques</text>
<text text-anchor="middle" x="1000.6492" y="-398.4" font-family="Times,serif" font-size="16.00" fill="#000000">– 5.2 : Évoluer dans un</text>
<text text-anchor="middle" x="1000.6492" y="-379.2" font-family="Times,serif" font-size="16.00" fill="#000000">environnement numérique</text>
</g>
<!-- b5&#45;&gt;c5 -->
<g id="edge10" class="edge">
<title>b5&#45;&gt;c5</title>
<path fill="none" stroke="#000000" d="M930.5264,-519.9181C941.4019,-503.3049 954.9632,-482.5891 967.2537,-463.8143"/>
<polygon fill="#000000" stroke="#000000" points="970.2482,-465.6301 972.797,-455.3464 964.3916,-461.7961 970.2482,-465.6301"/>
</g>
<!-- d1 -->
<g id="node12" class="node">
<title>d1</title>
<path fill="#fafafa" stroke="transparent" d="M193.4478,-333.4002C193.4478,-333.4002 11.8506,-333.4002 11.8506,-333.4002 5.8506,-333.4002 -.1494,-327.4002 -.1494,-321.4002 -.1494,-321.4002 -.1494,-12.1998 -.1494,-12.1998 -.1494,-6.1998 5.8506,-.1998 11.8506,-.1998 11.8506,-.1998 193.4478,-.1998 193.4478,-.1998 199.4478,-.1998 205.4478,-6.1998 205.4478,-12.1998 205.4478,-12.1998 205.4478,-321.4002 205.4478,-321.4002 205.4478,-327.4002 199.4478,-333.4002 193.4478,-333.4002"/>
<text text-anchor="middle" x="102.6492" y="-314.3" font-family="Times,serif" font-size="17.00" fill="#cd2626">– 1.1 : Web et navigation,</text>
<text text-anchor="middle" x="102.6492" y="-293.9" font-family="Times,serif" font-size="17.00" fill="#cd2626">moteurs de recherche,</text>
<text text-anchor="middle" x="102.6492" y="-273.5" font-family="Times,serif" font-size="17.00" fill="#cd2626">sources et citations,</text>
<text text-anchor="middle" x="102.6492" y="-253.1" font-family="Times,serif" font-size="17.00" fill="#cd2626">recul critique,</text>
<text text-anchor="middle" x="102.6492" y="-232.7" font-family="Times,serif" font-size="17.00" fill="#cd2626">droits d&#39;auteurs</text>
<text text-anchor="middle" x="102.6492" y="-192.3" font-family="Times,serif" font-size="17.00" fill="#cd2626">– 1.2 : Dossiers et fichiers,</text>
<text text-anchor="middle" x="102.6492" y="-171.9" font-family="Times,serif" font-size="17.00" fill="#cd2626">stockage et compression,</text>
<text text-anchor="middle" x="102.6492" y="-151.5" font-family="Times,serif" font-size="17.00" fill="#cd2626">transfert et synchronisation,</text>
<text text-anchor="middle" x="102.6492" y="-131.1" font-family="Times,serif" font-size="17.00" fill="#cd2626">tags, indexation,</text>
<text text-anchor="middle" x="102.6492" y="-110.7" font-family="Times,serif" font-size="17.00" fill="#cd2626">structuration des données</text>
<text text-anchor="middle" x="102.6492" y="-70.3" font-family="Times,serif" font-size="17.00" fill="#cd2626">– 1.3 : Statistiques,</text>
<text text-anchor="middle" x="102.6492" y="-49.9" font-family="Times,serif" font-size="17.00" fill="#cd2626">représentations graphiques,</text>
<text text-anchor="middle" x="102.6492" y="-29.5" font-family="Times,serif" font-size="17.00" fill="#cd2626">collecte de données,</text>
<text text-anchor="middle" x="102.6492" y="-9.1" font-family="Times,serif" font-size="17.00" fill="#cd2626">algorithmes</text>
</g>
<!-- c1&#45;&gt;d1 -->
<!-- d2 -->
<g id="node13" class="node">
<title>d2</title>
<path fill="#fafafa" stroke="transparent" d="M386.0217,-293.1001C386.0217,-293.1001 231.2767,-293.1001 231.2767,-293.1001 225.2767,-293.1001 219.2767,-287.1001 219.2767,-281.1001 219.2767,-281.1001 219.2767,-52.4999 219.2767,-52.4999 219.2767,-46.4999 225.2767,-40.4999 231.2767,-40.4999 231.2767,-40.4999 386.0217,-40.4999 386.0217,-40.4999 392.0217,-40.4999 398.0217,-46.4999 398.0217,-52.4999 398.0217,-52.4999 398.0217,-281.1001 398.0217,-281.1001 398.0217,-287.1001 392.0217,-293.1001 386.0217,-293.1001"/>
<text text-anchor="middle" x="308.6492" y="-273.9" font-family="Times,serif" font-size="17.00" fill="#cd2626">– 2.1, 2.2, 2.3 et 2.4 :</text>
<text text-anchor="middle" x="308.6492" y="-253.5" font-family="Times,serif" font-size="17.00" fill="#cd2626">Applications pour</text>
<text text-anchor="middle" x="308.6492" y="-233.1" font-family="Times,serif" font-size="17.00" fill="#cd2626">l&#39;interaction, le partage,</text>
<text text-anchor="middle" x="308.6492" y="-212.7" font-family="Times,serif" font-size="17.00" fill="#cd2626">la collaboration,</text>
<text text-anchor="middle" x="308.6492" y="-192.3" font-family="Times,serif" font-size="17.00" fill="#cd2626">protocoles, rôles,</text>
<text text-anchor="middle" x="308.6492" y="-171.9" font-family="Times,serif" font-size="17.00" fill="#cd2626">vie privée et</text>
<text text-anchor="middle" x="308.6492" y="-151.5" font-family="Times,serif" font-size="17.00" fill="#cd2626">confidentialité,</text>
<text text-anchor="middle" x="308.6492" y="-131.1" font-family="Times,serif" font-size="17.00" fill="#cd2626">identité numérique,</text>
<text text-anchor="middle" x="308.6492" y="-110.7" font-family="Times,serif" font-size="17.00" fill="#cd2626">nétiquette, réseaux</text>
<text text-anchor="middle" x="308.6492" y="-90.3" font-family="Times,serif" font-size="17.00" fill="#cd2626">sociaux, droits</text>
<text text-anchor="middle" x="308.6492" y="-69.9" font-family="Times,serif" font-size="17.00" fill="#cd2626">d&#39;accès, révisions,</text>
<text text-anchor="middle" x="308.6492" y="-49.5" font-family="Times,serif" font-size="17.00" fill="#cd2626">droits d&#39;auteur</text>
</g>
<!-- c2&#45;&gt;d2 -->
<!-- d3 -->
<g id="node14" class="node">
<title>d3</title>
<path fill="#fafafa" stroke="transparent" d="M649.8311,-303.1001C649.8311,-303.1001 423.4673,-303.1001 423.4673,-303.1001 417.4673,-303.1001 411.4673,-297.1001 411.4673,-291.1001 411.4673,-291.1001 411.4673,-42.4999 411.4673,-42.4999 411.4673,-36.4999 417.4673,-30.4999 423.4673,-30.4999 423.4673,-30.4999 649.8311,-30.4999 649.8311,-30.4999 655.8311,-30.4999 661.8311,-36.4999 661.8311,-42.4999 661.8311,-42.4999 661.8311,-291.1001 661.8311,-291.1001 661.8311,-297.1001 655.8311,-303.1001 649.8311,-303.1001"/>
<text text-anchor="middle" x="536.6492" y="-283.9" font-family="Times,serif" font-size="17.00" fill="#cd2626">– 3.1, 3.2 et 3.3 :</text>
<text text-anchor="middle" x="536.6492" y="-263.5" font-family="Times,serif" font-size="17.00" fill="#cd2626">Applications d&#39;édition</text>
<text text-anchor="middle" x="536.6492" y="-243.1" font-family="Times,serif" font-size="17.00" fill="#cd2626">de document, chartes</text>
<text text-anchor="middle" x="536.6492" y="-222.7" font-family="Times,serif" font-size="17.00" fill="#cd2626">graphiques, interopérabilité,</text>
<text text-anchor="middle" x="536.6492" y="-202.3" font-family="Times,serif" font-size="17.00" fill="#cd2626">ergonomie, accessibilité,</text>
<text text-anchor="middle" x="536.6492" y="-181.9" font-family="Times,serif" font-size="17.00" fill="#cd2626">droits d&#39;auteur, licences</text>
<text text-anchor="middle" x="536.6492" y="-141.5" font-family="Times,serif" font-size="17.00" fill="#cd2626">– 3.4 : Algorithmes, programmes,</text>
<text text-anchor="middle" x="536.6492" y="-121.1" font-family="Times,serif" font-size="17.00" fill="#cd2626">langages de programmation,</text>
<text text-anchor="middle" x="536.6492" y="-100.7" font-family="Times,serif" font-size="17.00" fill="#cd2626">représentation et codage</text>
<text text-anchor="middle" x="536.6492" y="-80.3" font-family="Times,serif" font-size="17.00" fill="#cd2626">de l&#39;information, collecte</text>
<text text-anchor="middle" x="536.6492" y="-59.9" font-family="Times,serif" font-size="17.00" fill="#cd2626">et exploitation de données,</text>
<text text-anchor="middle" x="536.6492" y="-39.5" font-family="Times,serif" font-size="17.00" fill="#cd2626">intelligence artificielle</text>
</g>
<!-- c3&#45;&gt;d3 -->
<!-- d4 -->
<g id="node15" class="node">
<title>d4</title>
<path fill="#fafafa" stroke="transparent" d="M873.7042,-282.8C873.7042,-282.8 687.5942,-282.8 687.5942,-282.8 681.5942,-282.8 675.5942,-276.8 675.5942,-270.8 675.5942,-270.8 675.5942,-62.8 675.5942,-62.8 675.5942,-56.8 681.5942,-50.8 687.5942,-50.8 687.5942,-50.8 873.7042,-50.8 873.7042,-50.8 879.7042,-50.8 885.7042,-56.8 885.7042,-62.8 885.7042,-62.8 885.7042,-270.8 885.7042,-270.8 885.7042,-276.8 879.7042,-282.8 873.7042,-282.8"/>
<text text-anchor="middle" x="780.6492" y="-263.5" font-family="Times,serif" font-size="17.00" fill="#cd2626">– 4.1 et 4.2 :</text>
<text text-anchor="middle" x="780.6492" y="-243.1" font-family="Times,serif" font-size="17.00" fill="#cd2626">Attaques et menaces,</text>
<text text-anchor="middle" x="780.6492" y="-222.7" font-family="Times,serif" font-size="17.00" fill="#cd2626">chiffrement, logiciels de</text>
<text text-anchor="middle" x="780.6492" y="-202.3" font-family="Times,serif" font-size="17.00" fill="#cd2626">protection, authentification,</text>
<text text-anchor="middle" x="780.6492" y="-181.9" font-family="Times,serif" font-size="17.00" fill="#cd2626">big data, vie privée,</text>
<text text-anchor="middle" x="780.6492" y="-161.5" font-family="Times,serif" font-size="17.00" fill="#cd2626">confidentialité</text>
<text text-anchor="middle" x="780.6492" y="-121.1" font-family="Times,serif" font-size="17.00" fill="#cd2626">– 4.3 : Ergonomie du poste</text>
<text text-anchor="middle" x="780.6492" y="-100.7" font-family="Times,serif" font-size="17.00" fill="#cd2626">de travail, communications</text>
<text text-anchor="middle" x="780.6492" y="-80.3" font-family="Times,serif" font-size="17.00" fill="#cd2626">sans fil, capteurs, impact</text>
<text text-anchor="middle" x="780.6492" y="-59.9" font-family="Times,serif" font-size="17.00" fill="#cd2626">environnemental</text>
</g>
<!-- c4&#45;&gt;d4 -->
<!-- d5 -->
<g id="node16" class="node">
<title>d5</title>
<path fill="#fafafa" stroke="transparent" d="M1142.0332,-272.4004C1142.0332,-272.4004 911.2652,-272.4004 911.2652,-272.4004 905.2652,-272.4004 899.2652,-266.4004 899.2652,-260.4004 899.2652,-260.4004 899.2652,-73.1996 899.2652,-73.1996 899.2652,-67.1996 905.2652,-61.1996 911.2652,-61.1996 911.2652,-61.1996 1142.0332,-61.1996 1142.0332,-61.1996 1148.0332,-61.1996 1154.0332,-67.1996 1154.0332,-73.1996 1154.0332,-73.1996 1154.0332,-260.4004 1154.0332,-260.4004 1154.0332,-266.4004 1148.0332,-272.4004 1142.0332,-272.4004"/>
<text text-anchor="middle" x="1026.6492" y="-253.3" font-family="Times,serif" font-size="17.00" fill="#cd2626">– 5.1 : Pannes et support</text>
<text text-anchor="middle" x="1026.6492" y="-232.9" font-family="Times,serif" font-size="17.00" fill="#cd2626">informatique, administration</text>
<text text-anchor="middle" x="1026.6492" y="-212.5" font-family="Times,serif" font-size="17.00" fill="#cd2626">et configuration, maintenance</text>
<text text-anchor="middle" x="1026.6492" y="-192.1" font-family="Times,serif" font-size="17.00" fill="#cd2626">et mise à jour, sauvegardes</text>
<text text-anchor="middle" x="1026.6492" y="-171.7" font-family="Times,serif" font-size="17.00" fill="#cd2626">et restauration, interopérabilité</text>
<text text-anchor="middle" x="1026.6492" y="-131.3" font-family="Times,serif" font-size="17.00" fill="#cd2626">– 5.2 : Histoire de l&#39;informatique,</text>
<text text-anchor="middle" x="1026.6492" y="-110.9" font-family="Times,serif" font-size="17.00" fill="#cd2626">logiciels et matériels,</text>
<text text-anchor="middle" x="1026.6492" y="-90.5" font-family="Times,serif" font-size="17.00" fill="#cd2626">systèmes d&#39;exploitation,</text>
<text text-anchor="middle" x="1026.6492" y="-70.1" font-family="Times,serif" font-size="17.00" fill="#cd2626">réseau informatique</text>
</g>
<!-- c5&#45;&gt;d5 -->
</g>
</svg>
