<?xml version="1.0" encoding="UTF-8" standalone="no"?><!DOCTYPE svg PUBLIC "-//W3C//DTD SVG 1.1//EN" "http://www.w3.org/Graphics/SVG/1.1/DTD/svg11.dtd"><!-- Generated by graphviz version 2.40.1 (20161225.0304)
 --><!-- Title: G Pages: 1 --><svg xmlns="http://www.w3.org/2000/svg" xmlns:xlink="http://www.w3.org/1999/xlink" width="894pt" height="790pt" viewBox="0.00 0.00 893.58 790.38">
<g id="graph0" class="graph" transform="scale(1 1) rotate(0) translate(21.6 768.7801)">
<title>G</title>
<polygon fill="#fafafa" stroke="transparent" points="-21.6,21.6 -21.6,-768.7801 871.9808,-768.7801 871.9808,21.6 -21.6,21.6"/>
<!-- a1 -->
<g id="node1" class="node">
<title>a1</title>
<ellipse fill="#000000" stroke="#000000" cx="361.64" cy="-710.9763" rx="85.535" ry="36.4089"/>
<text text-anchor="middle" x="361.64" y="-716.3763" font-family="Times,serif" font-size="18.00" fill="#ffffff">Le relativisme</text>
<text text-anchor="middle" x="361.64" y="-694.7763" font-family="Times,serif" font-size="18.00" fill="#ffffff">de la vérité …</text>
</g>
<!-- b1 -->
<g id="node2" class="node">
<title>b1</title>
<ellipse fill="#8b0000" stroke="#000000" cx="361.64" cy="-593.3862" rx="125.6262" ry="46.2727"/>
<text text-anchor="middle" x="361.64" y="-607.7862" font-family="Times,serif" font-size="16.00" fill="#ffffff">… prétend souvent être</text>
<text text-anchor="middle" x="361.64" y="-588.5862" font-family="Times,serif" font-size="16.00" fill="#ffffff">le meilleur moyen de</text>
<text text-anchor="middle" x="361.64" y="-569.3862" font-family="Times,serif" font-size="16.00" fill="#ffffff">défendre plusieurs vertus</text>
</g>
<!-- a1&#45;&gt;b1 -->
<g id="edge1" class="edge">
<title>a1-&gt;b1:n</title>
<path fill="none" stroke="#000000" d="M361.64,-674.5566C361.64,-666.5415 361.64,-657.926 361.64,-649.5061"/>
<polygon fill="#000000" stroke="#000000" points="365.1401,-649.3862 361.64,-639.3862 358.1401,-649.3862 365.1401,-649.3862"/>
</g>
<!-- c1 -->
<g id="node3" class="node">
<title>c1</title>
<path fill="#c7c7c7" stroke="#7f7f7f" d="M124.7775,-512.2017C124.7775,-512.2017 50.5025,-512.2017 50.5025,-512.2017 44.5025,-512.2017 38.5025,-506.2017 38.5025,-500.2017 38.5025,-500.2017 38.5025,-477.3983 38.5025,-477.3983 38.5025,-471.3983 44.5025,-465.3983 50.5025,-465.3983 50.5025,-465.3983 124.7775,-465.3983 124.7775,-465.3983 130.7775,-465.3983 136.7775,-471.3983 136.7775,-477.3983 136.7775,-477.3983 136.7775,-500.2017 136.7775,-500.2017 136.7775,-506.2017 130.7775,-512.2017 124.7775,-512.2017"/>
<text text-anchor="middle" x="87.64" y="-493.6" font-family="Times,serif" font-size="16.00" fill="#000000">L'humilité</text>
<text text-anchor="middle" x="87.64" y="-474.4" font-family="Times,serif" font-size="16.00" fill="#000000">intellectuelle</text>
</g>
<!-- b1&#45;&gt;c1 -->
<g id="edge2" class="edge">
<title>b1-&gt;c1</title>
<path fill="none" stroke="#000000" d="M274.1913,-560.0069C232.4981,-544.0926 183.7287,-525.4772 146.5128,-511.2718"/>
<polygon fill="#000000" stroke="#000000" points="147.4166,-507.8706 136.8259,-507.5743 144.9203,-514.4103 147.4166,-507.8706"/>
</g>
<!-- c2 -->
<g id="node4" class="node">
<title>c2</title>
<path fill="#c7c7c7" stroke="#7f7f7f" d="M332.7488,-506.8C332.7488,-506.8 260.5312,-506.8 260.5312,-506.8 254.5312,-506.8 248.5312,-500.8 248.5312,-494.8 248.5312,-494.8 248.5312,-482.8 248.5312,-482.8 248.5312,-476.8 254.5312,-470.8 260.5312,-470.8 260.5312,-470.8 332.7488,-470.8 332.7488,-470.8 338.7488,-470.8 344.7488,-476.8 344.7488,-482.8 344.7488,-482.8 344.7488,-494.8 344.7488,-494.8 344.7488,-500.8 338.7488,-506.8 332.7488,-506.8"/>
<text text-anchor="middle" x="296.64" y="-484" font-family="Times,serif" font-size="16.00" fill="#000000">La tolérance</text>
</g>
<!-- b1&#45;&gt;c2 -->
<g id="edge3" class="edge">
<title>b1-&gt;c2</title>
<path fill="none" stroke="#000000" d="M333.5081,-548.1215C326.5731,-536.9629 319.3678,-525.3695 313.1865,-515.4236"/>
<polygon fill="#000000" stroke="#000000" points="316.086,-513.4583 307.8347,-506.8125 310.1407,-517.1533 316.086,-513.4583"/>
</g>
<!-- c3 -->
<g id="node5" class="node">
<title>c3</title>
<path fill="#c7c7c7" stroke="#7f7f7f" d="M583.2312,-506.8C583.2312,-506.8 468.0488,-506.8 468.0488,-506.8 462.0488,-506.8 456.0488,-500.8 456.0488,-494.8 456.0488,-494.8 456.0488,-482.8 456.0488,-482.8 456.0488,-476.8 462.0488,-470.8 468.0488,-470.8 468.0488,-470.8 583.2312,-470.8 583.2312,-470.8 589.2312,-470.8 595.2312,-476.8 595.2312,-482.8 595.2312,-482.8 595.2312,-494.8 595.2312,-494.8 595.2312,-500.8 589.2312,-506.8 583.2312,-506.8"/>
<text text-anchor="middle" x="525.64" y="-484" font-family="Times,serif" font-size="16.00" fill="#000000">La non-domination</text>
</g>
<!-- b1&#45;&gt;c3 -->
<g id="edge4" class="edge">
<title>b1-&gt;c3</title>
<path fill="none" stroke="#000000" d="M425.0467,-552.9504C446.523,-539.2546 469.7955,-524.4132 488.5414,-512.4585"/>
<polygon fill="#000000" stroke="#000000" points="490.5327,-515.3399 497.0822,-507.0119 486.7688,-509.4379 490.5327,-515.3399"/>
</g>
<!-- c4 -->
<g id="node6" class="node">
<title>c4</title>
<path fill="#c7c7c7" stroke="#7f7f7f" d="M787.0457,-512.2017C787.0457,-512.2017 718.2343,-512.2017 718.2343,-512.2017 712.2343,-512.2017 706.2343,-506.2017 706.2343,-500.2017 706.2343,-500.2017 706.2343,-477.3983 706.2343,-477.3983 706.2343,-471.3983 712.2343,-465.3983 718.2343,-465.3983 718.2343,-465.3983 787.0457,-465.3983 787.0457,-465.3983 793.0457,-465.3983 799.0457,-471.3983 799.0457,-477.3983 799.0457,-477.3983 799.0457,-500.2017 799.0457,-500.2017 799.0457,-506.2017 793.0457,-512.2017 787.0457,-512.2017"/>
<text text-anchor="middle" x="752.64" y="-493.6" font-family="Times,serif" font-size="16.00" fill="#000000">L'ouverture</text>
<text text-anchor="middle" x="752.64" y="-474.4" font-family="Times,serif" font-size="16.00" fill="#000000">aux autres</text>
</g>
<!-- b1&#45;&gt;c4 -->
<g id="edge5" class="edge">
<title>b1-&gt;c4</title>
<path fill="none" stroke="#000000" d="M463.6048,-566.1123C537.9804,-546.218 635.9864,-520.003 696.6272,-503.7825"/>
<polygon fill="#000000" stroke="#000000" points="697.641,-507.1345 706.3969,-501.1693 695.8321,-500.3722 697.641,-507.1345"/>
</g>
<!-- c1&#45;&gt;c2 -->
<!-- d1 -->
<g id="node7" class="node">
<title>d1</title>
<path fill="#ffffff" stroke="#ee0000" d="M156.3331,-403.5002C156.3331,-403.5002 18.9469,-403.5002 18.9469,-403.5002 12.9469,-403.5002 6.9469,-397.5002 6.9469,-391.5002 6.9469,-391.5002 6.9469,-330.8998 6.9469,-330.8998 6.9469,-324.8998 12.9469,-318.8998 18.9469,-318.8998 18.9469,-318.8998 156.3331,-318.8998 156.3331,-318.8998 162.3331,-318.8998 168.3331,-324.8998 168.3331,-330.8998 168.3331,-330.8998 168.3331,-391.5002 168.3331,-391.5002 168.3331,-397.5002 162.3331,-403.5002 156.3331,-403.5002"/>
<text text-anchor="middle" x="87.64" y="-385.2" font-family="Times,serif" font-size="16.00" fill="#000000">… croire qu'il y a des</text>
<text text-anchor="middle" x="87.64" y="-366" font-family="Times,serif" font-size="16.00" fill="#000000">vérités n'implique</text>
<text text-anchor="middle" x="87.64" y="-346.8" font-family="Times,serif" font-size="16.00" fill="#000000">pas nécessairement</text>
<text text-anchor="middle" x="87.64" y="-327.6" font-family="Times,serif" font-size="16.00" fill="#000000">une forme d'arrogance</text>
</g>
<!-- c1&#45;&gt;d1 -->
<g id="edge9" class="edge">
<title>c1-&gt;d1</title>
<path fill="none" stroke="#ee0000" d="M87.64,-465.5552C87.64,-459.8472 87.64,-453.7528 87.64,-448.1 87.64,-448.1 87.64,-448.1 87.64,-421.1 87.64,-418.7309 87.64,-416.3091 87.64,-413.8627"/>
<polygon fill="#ee0000" stroke="#ee0000" points="91.1401,-413.7395 87.64,-403.7395 84.1401,-413.7395 91.1401,-413.7395"/>
<text text-anchor="middle" x="61.3928" y="-416.1447" font-family="Times,serif" font-size="14.00" fill="#000000">Mais …  </text>
</g>
<!-- c2&#45;&gt;c3 -->
<!-- d2 -->
<g id="node8" class="node">
<title>d2</title>
<path fill="#ffffff" stroke="#ee0000" d="M369.9481,-403.5002C369.9481,-403.5002 223.3319,-403.5002 223.3319,-403.5002 217.3319,-403.5002 211.3319,-397.5002 211.3319,-391.5002 211.3319,-391.5002 211.3319,-330.8998 211.3319,-330.8998 211.3319,-324.8998 217.3319,-318.8998 223.3319,-318.8998 223.3319,-318.8998 369.9481,-318.8998 369.9481,-318.8998 375.9481,-318.8998 381.9481,-324.8998 381.9481,-330.8998 381.9481,-330.8998 381.9481,-391.5002 381.9481,-391.5002 381.9481,-397.5002 375.9481,-403.5002 369.9481,-403.5002"/>
<text text-anchor="middle" x="296.64" y="-385.2" font-family="Times,serif" font-size="16.00" fill="#000000">… croire qu'il y a</text>
<text text-anchor="middle" x="296.64" y="-366" font-family="Times,serif" font-size="16.00" fill="#000000">des vérités n'implique</text>
<text text-anchor="middle" x="296.64" y="-346.8" font-family="Times,serif" font-size="16.00" fill="#000000">pas nécessairement</text>
<text text-anchor="middle" x="296.64" y="-327.6" font-family="Times,serif" font-size="16.00" fill="#000000">une forme d'intolérance</text>
</g>
<!-- c2&#45;&gt;d2 -->
<g id="edge10" class="edge">
<title>c2-&gt;d2</title>
<path fill="none" stroke="#ee0000" d="M296.64,-470.5657C296.64,-463.5436 296.64,-455.4486 296.64,-448.1 296.64,-448.1 296.64,-448.1 296.64,-421.1 296.64,-418.7309 296.64,-416.3091 296.64,-413.8627"/>
<polygon fill="#ee0000" stroke="#ee0000" points="300.1401,-413.7395 296.64,-403.7395 293.1401,-413.7395 300.1401,-413.7395"/>
<text text-anchor="middle" x="270.3928" y="-416.1447" font-family="Times,serif" font-size="14.00" fill="#000000">Mais …  </text>
</g>
<!-- c3&#45;&gt;c4 -->
<!-- d3 -->
<g id="node9" class="node">
<title>d3</title>
<path fill="#ffffff" stroke="#ee0000" d="M600.4018,-403.5002C600.4018,-403.5002 450.8782,-403.5002 450.8782,-403.5002 444.8782,-403.5002 438.8782,-397.5002 438.8782,-391.5002 438.8782,-391.5002 438.8782,-330.8998 438.8782,-330.8998 438.8782,-324.8998 444.8782,-318.8998 450.8782,-318.8998 450.8782,-318.8998 600.4018,-318.8998 600.4018,-318.8998 606.4018,-318.8998 612.4018,-324.8998 612.4018,-330.8998 612.4018,-330.8998 612.4018,-391.5002 612.4018,-391.5002 612.4018,-397.5002 606.4018,-403.5002 600.4018,-403.5002"/>
<text text-anchor="middle" x="525.64" y="-385.2" font-family="Times,serif" font-size="16.00" fill="#000000">… la défense de la</text>
<text text-anchor="middle" x="525.64" y="-366" font-family="Times,serif" font-size="16.00" fill="#000000">non-domination suppose</text>
<text text-anchor="middle" x="525.64" y="-346.8" font-family="Times,serif" font-size="16.00" fill="#000000">plutôt le refus du</text>
<text text-anchor="middle" x="525.64" y="-327.6" font-family="Times,serif" font-size="16.00" fill="#000000">relativisme de la vérité</text>
</g>
<!-- c3&#45;&gt;d3 -->
<g id="edge11" class="edge">
<title>c3-&gt;d3</title>
<path fill="none" stroke="#ee0000" d="M525.64,-470.5657C525.64,-463.5436 525.64,-455.4486 525.64,-448.1 525.64,-448.1 525.64,-448.1 525.64,-421.1 525.64,-418.7309 525.64,-416.3091 525.64,-413.8627"/>
<polygon fill="#ee0000" stroke="#ee0000" points="529.1401,-413.7395 525.64,-403.7395 522.1401,-413.7395 529.1401,-413.7395"/>
<text text-anchor="middle" x="499.3928" y="-416.1447" font-family="Times,serif" font-size="14.00" fill="#000000">Mais …  </text>
</g>
<!-- d4 -->
<g id="node10" class="node">
<title>d4</title>
<path fill="#ffffff" stroke="#ee0000" d="M823.0084,-403.5002C823.0084,-403.5002 682.2716,-403.5002 682.2716,-403.5002 676.2716,-403.5002 670.2716,-397.5002 670.2716,-391.5002 670.2716,-391.5002 670.2716,-330.8998 670.2716,-330.8998 670.2716,-324.8998 676.2716,-318.8998 682.2716,-318.8998 682.2716,-318.8998 823.0084,-318.8998 823.0084,-318.8998 829.0084,-318.8998 835.0084,-324.8998 835.0084,-330.8998 835.0084,-330.8998 835.0084,-391.5002 835.0084,-391.5002 835.0084,-397.5002 829.0084,-403.5002 823.0084,-403.5002"/>
<text text-anchor="middle" x="752.64" y="-385.2" font-family="Times,serif" font-size="16.00" fill="#000000">… l'ouverture aux</text>
<text text-anchor="middle" x="752.64" y="-366" font-family="Times,serif" font-size="16.00" fill="#000000">autres suppose</text>
<text text-anchor="middle" x="752.64" y="-346.8" font-family="Times,serif" font-size="16.00" fill="#000000">plutôt le refus du</text>
<text text-anchor="middle" x="752.64" y="-327.6" font-family="Times,serif" font-size="16.00" fill="#000000">relativisme de la vérité</text>
</g>
<!-- c4&#45;&gt;d4 -->
<g id="edge12" class="edge">
<title>c4-&gt;d4</title>
<path fill="none" stroke="#ee0000" d="M752.64,-465.5552C752.64,-459.8472 752.64,-453.7528 752.64,-448.1 752.64,-448.1 752.64,-448.1 752.64,-421.1 752.64,-418.7309 752.64,-416.3091 752.64,-413.8627"/>
<polygon fill="#ee0000" stroke="#ee0000" points="756.1401,-413.7395 752.64,-403.7395 749.1401,-413.7395 756.1401,-413.7395"/>
<text text-anchor="middle" x="726.3928" y="-416.1447" font-family="Times,serif" font-size="14.00" fill="#000000">Mais …  </text>
</g>
<!-- e1 -->
<g id="node11" class="node">
<title>e1</title>
<path fill="#ffffff" stroke="#ee0000" stroke-width=".4" d="M163.4202,-272.9002C163.4202,-272.9002 11.8598,-272.9002 11.8598,-272.9002 5.8598,-272.9002 -.1402,-266.9002 -.1402,-260.9002 -.1402,-260.9002 -.1402,-200.2998 -.1402,-200.2998 -.1402,-194.2998 5.8598,-188.2998 11.8598,-188.2998 11.8598,-188.2998 163.4202,-188.2998 163.4202,-188.2998 169.4202,-188.2998 175.4202,-194.2998 175.4202,-200.2998 175.4202,-200.2998 175.4202,-260.9002 175.4202,-260.9002 175.4202,-266.9002 169.4202,-272.9002 163.4202,-272.9002"/>
<text text-anchor="middle" x="87.64" y="-254.6" font-family="Times,serif" font-size="16.00" fill="#000000">On peut reconnaître la</text>
<text text-anchor="middle" x="87.64" y="-235.4" font-family="Times,serif" font-size="16.00" fill="#000000">possibilité d'une erreur</text>
<text text-anchor="middle" x="87.64" y="-216.2" font-family="Times,serif" font-size="16.00" fill="#000000">ou d'une compréhension</text>
<text text-anchor="middle" x="87.64" y="-197" font-family="Times,serif" font-size="16.00" fill="#000000">partielle de la vérité !</text>
</g>
<!-- d1&#45;&gt;e1 -->
<!-- e2 -->
<g id="node12" class="node">
<title>e2</title>
<path fill="#ffffff" stroke="#ee0000" stroke-width=".4" d="M368.6351,-292.3002C368.6351,-292.3002 224.6449,-292.3002 224.6449,-292.3002 218.6449,-292.3002 212.6449,-286.3002 212.6449,-280.3002 212.6449,-280.3002 212.6449,-180.8998 212.6449,-180.8998 212.6449,-174.8998 218.6449,-168.8998 224.6449,-168.8998 224.6449,-168.8998 368.6351,-168.8998 368.6351,-168.8998 374.6351,-168.8998 380.6351,-174.8998 380.6351,-180.8998 380.6351,-180.8998 380.6351,-280.3002 380.6351,-280.3002 380.6351,-286.3002 374.6351,-292.3002 368.6351,-292.3002"/>
<text text-anchor="middle" x="296.64" y="-273.8" font-family="Times,serif" font-size="16.00" fill="#000000">La critique d'une</text>
<text text-anchor="middle" x="296.64" y="-254.6" font-family="Times,serif" font-size="16.00" fill="#000000">affirmation n'est pas de</text>
<text text-anchor="middle" x="296.64" y="-235.4" font-family="Times,serif" font-size="16.00" fill="#000000">l'intolérance s'il existe</text>
<text text-anchor="middle" x="296.64" y="-216.2" font-family="Times,serif" font-size="16.00" fill="#000000">une preuve objective</text>
<text text-anchor="middle" x="296.64" y="-197" font-family="Times,serif" font-size="16.00" fill="#000000">de la fausseté de</text>
<text text-anchor="middle" x="296.64" y="-177.8" font-family="Times,serif" font-size="16.00" fill="#000000">cette affirmation</text>
</g>
<!-- d2&#45;&gt;e2 -->
<!-- e3 -->
<g id="node14" class="node">
<title>e3</title>
<path fill="#ffffff" stroke="#ee0000" stroke-width=".4" d="M610.4587,-302.0006C610.4587,-302.0006 440.8213,-302.0006 440.8213,-302.0006 434.8213,-302.0006 428.8213,-296.0006 428.8213,-290.0006 428.8213,-290.0006 428.8213,-171.1994 428.8213,-171.1994 428.8213,-165.1994 434.8213,-159.1994 440.8213,-159.1994 440.8213,-159.1994 610.4587,-159.1994 610.4587,-159.1994 616.4587,-159.1994 622.4587,-165.1994 622.4587,-171.1994 622.4587,-171.1994 622.4587,-290.0006 622.4587,-290.0006 622.4587,-296.0006 616.4587,-302.0006 610.4587,-302.0006"/>
<text text-anchor="middle" x="525.64" y="-283.4" font-family="Times,serif" font-size="16.00" fill="#000000">Le relativisme empêche de</text>
<text text-anchor="middle" x="525.64" y="-264.2" font-family="Times,serif" font-size="16.00" fill="#000000">faire appel à des savoirs</text>
<text text-anchor="middle" x="525.64" y="-245" font-family="Times,serif" font-size="16.00" fill="#000000">critiques qui permettraient</text>
<text text-anchor="middle" x="525.64" y="-225.8" font-family="Times,serif" font-size="16.00" fill="#000000">de montrer la fausseté des</text>
<text text-anchor="middle" x="525.64" y="-206.6" font-family="Times,serif" font-size="16.00" fill="#000000">discours idéologiques que</text>
<text text-anchor="middle" x="525.64" y="-187.4" font-family="Times,serif" font-size="16.00" fill="#000000">les dominants utilisent pour</text>
<text text-anchor="middle" x="525.64" y="-168.2" font-family="Times,serif" font-size="16.00" fill="#000000">justifier leur pouvoir</text>
</g>
<!-- d3&#45;&gt;e3 -->
<!-- e4 -->
<g id="node15" class="node">
<title>e4</title>
<path fill="#ffffff" stroke="#ee0000" stroke-width=".4" d="M833.8129,-292.3002C833.8129,-292.3002 671.4671,-292.3002 671.4671,-292.3002 665.4671,-292.3002 659.4671,-286.3002 659.4671,-280.3002 659.4671,-280.3002 659.4671,-180.8998 659.4671,-180.8998 659.4671,-174.8998 665.4671,-168.8998 671.4671,-168.8998 671.4671,-168.8998 833.8129,-168.8998 833.8129,-168.8998 839.8129,-168.8998 845.8129,-174.8998 845.8129,-180.8998 845.8129,-180.8998 845.8129,-280.3002 845.8129,-280.3002 845.8129,-286.3002 839.8129,-292.3002 833.8129,-292.3002"/>
<text text-anchor="middle" x="752.64" y="-273.8" font-family="Times,serif" font-size="16.00" fill="#000000">Le relativisme conduit</text>
<text text-anchor="middle" x="752.64" y="-254.6" font-family="Times,serif" font-size="16.00" fill="#000000">chacun à rester dans son</text>
<text text-anchor="middle" x="752.64" y="-235.4" font-family="Times,serif" font-size="16.00" fill="#000000">opinion et à refuser le</text>
<text text-anchor="middle" x="752.64" y="-216.2" font-family="Times,serif" font-size="16.00" fill="#000000">dialogue, puisqu'on refuse</text>
<text text-anchor="middle" x="752.64" y="-197" font-family="Times,serif" font-size="16.00" fill="#000000">d'envisager la possibilité</text>
<text text-anchor="middle" x="752.64" y="-177.8" font-family="Times,serif" font-size="16.00" fill="#000000">qu'on se trompe</text>
</g>
<!-- d4&#45;&gt;e4 -->
<!-- e2a -->
<g id="node13" class="node">
<title>e2a</title>
<path fill="#ffffff" stroke="#ee0000" stroke-width=".4" d="M376.8001,-142.6006C376.8001,-142.6006 216.4799,-142.6006 216.4799,-142.6006 210.4799,-142.6006 204.4799,-136.6006 204.4799,-130.6006 204.4799,-130.6006 204.4799,-11.7994 204.4799,-11.7994 204.4799,-5.7994 210.4799,.2006 216.4799,.2006 216.4799,.2006 376.8001,.2006 376.8001,.2006 382.8001,.2006 388.8001,-5.7994 388.8001,-11.7994 388.8001,-11.7994 388.8001,-130.6006 388.8001,-130.6006 388.8001,-136.6006 382.8001,-142.6006 376.8001,-142.6006"/>
<text text-anchor="middle" x="296.64" y="-124" font-family="Times,serif" font-size="16.00" fill="#000000">S'il n'y a pas de</text>
<text text-anchor="middle" x="296.64" y="-104.8" font-family="Times,serif" font-size="16.00" fill="#000000">preuve objective, on peut</text>
<text text-anchor="middle" x="296.64" y="-85.6" font-family="Times,serif" font-size="16.00" fill="#000000">reconnaître la possibilité</text>
<text text-anchor="middle" x="296.64" y="-66.4" font-family="Times,serif" font-size="16.00" fill="#000000">de penser le contraire et</text>
<text text-anchor="middle" x="296.64" y="-47.2" font-family="Times,serif" font-size="16.00" fill="#000000">respecter son adversaire,</text>
<text text-anchor="middle" x="296.64" y="-28" font-family="Times,serif" font-size="16.00" fill="#000000">même si on la conviction</text>
<text text-anchor="middle" x="296.64" y="-8.8" font-family="Times,serif" font-size="16.00" fill="#000000">qu'il se trompe</text>
</g>
<!-- e2&#45;&gt;e2a -->
<!-- e4a -->
<g id="node16" class="node">
<title>e4a</title>
<path fill="#ffffff" stroke="#ee0000" stroke-width=".4" d="M838.6222,-142.6006C838.6222,-142.6006 666.6578,-142.6006 666.6578,-142.6006 660.6578,-142.6006 654.6578,-136.6006 654.6578,-130.6006 654.6578,-130.6006 654.6578,-11.7994 654.6578,-11.7994 654.6578,-5.7994 660.6578,.2006 666.6578,.2006 666.6578,.2006 838.6222,.2006 838.6222,.2006 844.6222,.2006 850.6222,-5.7994 850.6222,-11.7994 850.6222,-11.7994 850.6222,-130.6006 850.6222,-130.6006 850.6222,-136.6006 844.6222,-142.6006 838.6222,-142.6006"/>
<text text-anchor="middle" x="752.64" y="-124" font-family="Times,serif" font-size="16.00" fill="#000000">Le relativisme conduit à</text>
<text text-anchor="middle" x="752.64" y="-104.8" font-family="Times,serif" font-size="16.00" fill="#000000">ne pas prendre au sérieux</text>
<text text-anchor="middle" x="752.64" y="-85.6" font-family="Times,serif" font-size="16.00" fill="#000000">ce que disent les autres,</text>
<text text-anchor="middle" x="752.64" y="-66.4" font-family="Times,serif" font-size="16.00" fill="#000000">puisqu'on refuse d'entendre</text>
<text text-anchor="middle" x="752.64" y="-47.2" font-family="Times,serif" font-size="16.00" fill="#000000">les arguments d'autrui qui</text>
<text text-anchor="middle" x="752.64" y="-28" font-family="Times,serif" font-size="16.00" fill="#000000">pourraient nous inciter</text>
<text text-anchor="middle" x="752.64" y="-8.8" font-family="Times,serif" font-size="16.00" fill="#000000">à modifier nos croyances</text>
</g>
<!-- e4&#45;&gt;e4a -->
</g>
</svg>