<?xml version="1.0" encoding="UTF-8" standalone="no"?>
<!DOCTYPE svg PUBLIC "-//W3C//DTD SVG 1.1//EN"
 "http://www.w3.org/Graphics/SVG/1.1/DTD/svg11.dtd">
<!-- Generated by graphviz version 2.40.1 (20161225.0304)
 -->
<!-- Title: G Pages: 1 -->
<svg width="631pt" height="475pt"
 viewBox="0.00 0.00 631.42 475.18" xmlns="http://www.w3.org/2000/svg" xmlns:xlink="http://www.w3.org/1999/xlink">
<g id="graph0" class="graph" transform="scale(1 1) rotate(0) translate(21.6 453.5801)">
<title>G</title>
<polygon fill="#fafafa" stroke="transparent" points="-21.6,21.6 -21.6,-453.5801 609.8229,-453.5801 609.8229,21.6 -21.6,21.6"/>
<!-- a1 -->
<g id="node1" class="node">
<title>a1</title>
<ellipse fill="#000000" stroke="#000000" cx="235.4757" cy="-395.7763" rx="85.3761" ry="36.4089"/>
<text text-anchor="middle" x="235.4757" y="-401.1763" font-family="Times,serif" font-size="18.00" fill="#ffffff">Les jugements</text>
<text text-anchor="middle" x="235.4757" y="-379.5763" font-family="Times,serif" font-size="18.00" fill="#ffffff">esthétiques</text>
</g>
<!-- b1 -->
<g id="node2" class="node">
<title>b1</title>
<ellipse fill="#8b0000" stroke="#000000" cx="90.4757" cy="-278.1862" rx="90.4515" ry="32.6206"/>
<text text-anchor="middle" x="90.4757" y="-282.9862" font-family="Times,serif" font-size="16.00" fill="#ffffff">À première vue :</text>
<text text-anchor="middle" x="90.4757" y="-263.7862" font-family="Times,serif" font-size="16.00" fill="#ffffff">ils sont relatifs</text>
</g>
<!-- a1&#45;&gt;b1 -->
<g id="edge1" class="edge">
<title>a1&#45;&gt;b1:n</title>
<path fill="none" stroke="#000000" d="M158.7298,-380.0312C127.3456,-369.1401 97.0259,-351.0365 91.4034,-321.2671"/>
<polygon fill="#000000" stroke="#000000" points="94.8775,-320.8234 90.4757,-311.1862 87.9069,-321.4649 94.8775,-320.8234"/>
</g>
<!-- b2 -->
<g id="node3" class="node">
<title>b2</title>
<ellipse fill="#8b0000" stroke="#000000" cx="381.4757" cy="-278.1862" rx="117.4903" ry="46.2727"/>
<text text-anchor="middle" x="381.4757" y="-292.5862" font-family="Times,serif" font-size="16.00" fill="#ffffff">Mais : on peut les</text>
<text text-anchor="middle" x="381.4757" y="-273.3862" font-family="Times,serif" font-size="16.00" fill="#ffffff">discuter, les critiquer et</text>
<text text-anchor="middle" x="381.4757" y="-254.1862" font-family="Times,serif" font-size="16.00" fill="#ffffff">chercher à s&#39;améliorer</text>
</g>
<!-- a1&#45;&gt;b2 -->
<g id="edge2" class="edge">
<title>a1&#45;&gt;b2:n</title>
<path fill="none" stroke="#000000" d="M298.2402,-371.246C328.8459,-358.5357 361.9004,-343.4707 375.3072,-332.7301"/>
<polygon fill="#000000" stroke="#000000" points="378.236,-334.6598 381.4757,-324.5724 372.6525,-330.4377 378.236,-334.6598"/>
</g>
<!-- e1 -->
<g id="node7" class="node">
<title>e1</title>
<path fill="#fafafa" stroke="transparent" d="M442.8764,-428.3775C442.8764,-428.3775 346.0751,-428.3775 346.0751,-428.3775 340.0751,-428.3775 334.0751,-422.3775 334.0751,-416.3775 334.0751,-416.3775 334.0751,-375.1751 334.0751,-375.1751 334.0751,-369.1751 340.0751,-363.1751 346.0751,-363.1751 346.0751,-363.1751 442.8764,-363.1751 442.8764,-363.1751 448.8764,-363.1751 454.8764,-369.1751 454.8764,-375.1751 454.8764,-375.1751 454.8764,-416.3775 454.8764,-416.3775 454.8764,-422.3775 448.8764,-428.3775 442.8764,-428.3775"/>
<text text-anchor="middle" x="394.4757" y="-410.1763" font-family="Times,serif" font-size="16.00" fill="#cd2626">= les jugements</text>
<text text-anchor="middle" x="394.4757" y="-390.9763" font-family="Times,serif" font-size="16.00" fill="#cd2626">sur la valeur des</text>
<text text-anchor="middle" x="394.4757" y="-371.7763" font-family="Times,serif" font-size="16.00" fill="#cd2626">œuvres d&#39;art</text>
</g>
<!-- a1&#45;&gt;e1 -->
<!-- b1&#45;&gt;b2 -->
<!-- c1 -->
<g id="node4" class="node">
<title>c1</title>
<polygon fill="#ffffff" stroke="#7f7f7f" points="162.8715,-167.8012 18.08,-167.8012 18.08,-102.5988 162.8715,-102.5988 162.8715,-167.8012"/>
<text text-anchor="middle" x="90.4757" y="-149.6" font-family="Times,serif" font-size="16.00" fill="#000000">L&#39;expérience d&#39;une</text>
<text text-anchor="middle" x="90.4757" y="-130.4" font-family="Times,serif" font-size="16.00" fill="#000000">œuvre est subjective</text>
<text text-anchor="middle" x="90.4757" y="-111.2" font-family="Times,serif" font-size="16.00" fill="#000000">et particulière</text>
</g>
<!-- b1&#45;&gt;c1 -->
<g id="edge4" class="edge">
<title>b1&#45;&gt;c1</title>
<path fill="none" stroke="#000000" d="M90.4757,-245.0229C90.4757,-225.1715 90.4757,-199.7224 90.4757,-178.3218"/>
<polygon fill="#000000" stroke="#000000" points="93.9758,-178.1834 90.4757,-168.1835 86.9758,-178.1835 93.9758,-178.1834"/>
</g>
<!-- c2 -->
<g id="node5" class="node">
<title>c2</title>
<polygon fill="#ffffff" stroke="#7f7f7f" points="379.2881,-177.5002 245.6634,-177.5002 245.6634,-92.8998 379.2881,-92.8998 379.2881,-177.5002"/>
<text text-anchor="middle" x="312.4757" y="-159.2" font-family="Times,serif" font-size="16.00" fill="#000000">Les jugements qui</text>
<text text-anchor="middle" x="312.4757" y="-140" font-family="Times,serif" font-size="16.00" fill="#000000">ne reposent que</text>
<text text-anchor="middle" x="312.4757" y="-120.8" font-family="Times,serif" font-size="16.00" fill="#000000">sur des préjugés</text>
<text text-anchor="middle" x="312.4757" y="-101.6" font-family="Times,serif" font-size="16.00" fill="#000000">sont critiquables</text>
</g>
<!-- b2&#45;&gt;c2 -->
<g id="edge5" class="edge">
<title>b2&#45;&gt;c2</title>
<path fill="none" stroke="#000000" d="M359.454,-232.5513C352.4645,-218.0672 344.6852,-201.9466 337.5003,-187.0576"/>
<polygon fill="#000000" stroke="#000000" points="340.6142,-185.457 333.1159,-177.9719 334.3099,-188.4993 340.6142,-185.457"/>
</g>
<!-- c3 -->
<g id="node6" class="node">
<title>c3</title>
<polygon fill="#ffffff" stroke="#7f7f7f" points="588.4708,-196.9002 406.4807,-196.9002 406.4807,-73.4998 588.4708,-73.4998 588.4708,-196.9002"/>
<text text-anchor="middle" x="497.4757" y="-178.4" font-family="Times,serif" font-size="16.00" fill="#000000">L&#39;expérience répétée du</text>
<text text-anchor="middle" x="497.4757" y="-159.2" font-family="Times,serif" font-size="16.00" fill="#000000">contact avec des œuvres,</text>
<text text-anchor="middle" x="497.4757" y="-140" font-family="Times,serif" font-size="16.00" fill="#000000">la pratique artistique et</text>
<text text-anchor="middle" x="497.4757" y="-120.8" font-family="Times,serif" font-size="16.00" fill="#000000">certaines connaissances</text>
<text text-anchor="middle" x="497.4757" y="-101.6" font-family="Times,serif" font-size="16.00" fill="#000000">artistiques, permettent</text>
<text text-anchor="middle" x="497.4757" y="-82.4" font-family="Times,serif" font-size="16.00" fill="#000000">d&#39;améliorer son jugement</text>
</g>
<!-- b2&#45;&gt;c3 -->
<g id="edge6" class="edge">
<title>b2&#45;&gt;c3</title>
<path fill="none" stroke="#000000" d="M417.543,-233.7283C424.995,-224.5426 433.0135,-214.6587 440.9936,-204.8221"/>
<polygon fill="#000000" stroke="#000000" points="443.7917,-206.9285 447.3738,-196.9576 438.3556,-202.5184 443.7917,-206.9285"/>
</g>
<!-- c1&#45;&gt;c2 -->
<!-- e2 -->
<g id="node8" class="node">
<title>e2</title>
<path fill="#fafafa" stroke="transparent" d="M147.9965,-65.4012C147.9965,-65.4012 32.9549,-65.4012 32.9549,-65.4012 26.9549,-65.4012 20.9549,-59.4012 20.9549,-53.4012 20.9549,-53.4012 20.9549,-12.1988 20.9549,-12.1988 20.9549,-6.1988 26.9549,-.1988 32.9549,-.1988 32.9549,-.1988 147.9965,-.1988 147.9965,-.1988 153.9965,-.1988 159.9965,-6.1988 159.9965,-12.1988 159.9965,-12.1988 159.9965,-53.4012 159.9965,-53.4012 159.9965,-59.4012 153.9965,-65.4012 147.9965,-65.4012"/>
<text text-anchor="middle" x="90.4757" y="-47.2" font-family="Times,serif" font-size="16.00" fill="#cd2626">« des goûts et des</text>
<text text-anchor="middle" x="90.4757" y="-28" font-family="Times,serif" font-size="16.00" fill="#cd2626">couleurs, on ne</text>
<text text-anchor="middle" x="90.4757" y="-8.8" font-family="Times,serif" font-size="16.00" fill="#cd2626">discute pas »</text>
</g>
<!-- c1&#45;&gt;e2 -->
<!-- c2&#45;&gt;c3 -->
<!-- e3 -->
<g id="node9" class="node">
<title>e3</title>
<path fill="#fafafa" stroke="transparent" d="M528.2479,-56.2017C528.2479,-56.2017 280.7036,-56.2017 280.7036,-56.2017 274.7036,-56.2017 268.7036,-50.2017 268.7036,-44.2017 268.7036,-44.2017 268.7036,-21.3983 268.7036,-21.3983 268.7036,-15.3983 274.7036,-9.3983 280.7036,-9.3983 280.7036,-9.3983 528.2479,-9.3983 528.2479,-9.3983 534.2479,-9.3983 540.2479,-15.3983 540.2479,-21.3983 540.2479,-21.3983 540.2479,-44.2017 540.2479,-44.2017 540.2479,-50.2017 534.2479,-56.2017 528.2479,-56.2017"/>
<text text-anchor="middle" x="404.4757" y="-37.6" font-family="Times,serif" font-size="16.00" fill="#cd2626">Le goût peut s&#39;éduquer : nous pouvons</text>
<text text-anchor="middle" x="404.4757" y="-18.4" font-family="Times,serif" font-size="16.00" fill="#cd2626">apprendre à apprécier une œuvre d&#39;art</text>
</g>
<!-- c2&#45;&gt;e3 -->
<!-- c3&#45;&gt;e3 -->
</g>
</svg>
