<?xml version="1.0" encoding="UTF-8" standalone="no"?><!DOCTYPE svg PUBLIC "-//W3C//DTD SVG 1.1//EN" "http://www.w3.org/Graphics/SVG/1.1/DTD/svg11.dtd"><!-- Generated by graphviz version 2.40.1 (20161225.0304)
 --><!-- Title: G Pages: 1 --><svg xmlns="http://www.w3.org/2000/svg" xmlns:xlink="http://www.w3.org/1999/xlink" width="767pt" height="747pt" viewBox="0.00 0.00 766.81 746.73">
<g id="graph0" class="graph" transform="scale(1 1) rotate(0) translate(21.6 725.1272)">
<title>G</title>
<polygon fill="#fafafa" stroke="transparent" points="-21.6,21.6 -21.6,-725.1272 745.2134,-725.1272 745.2134,21.6 -21.6,21.6"/>
<!-- a1 -->
<g id="node1" class="node">
<title>a1</title>
<ellipse fill="#000000" stroke="#000000" cx="229.9776" cy="-652.0498" rx="83.6429" ry="51.4548"/>
<text text-anchor="middle" x="229.9776" y="-668.2498" font-family="Times,serif" font-size="18.00" fill="#ffffff">Parmi les</text>
<text text-anchor="middle" x="229.9776" y="-646.6498" font-family="Times,serif" font-size="18.00" fill="#ffffff">inférences, on</text>
<text text-anchor="middle" x="229.9776" y="-625.0498" font-family="Times,serif" font-size="18.00" fill="#ffffff">distingue …</text>
</g>
<!-- b1 -->
<g id="node2" class="node">
<title>b1</title>
<ellipse fill="#8b0000" stroke="#000000" cx="112.9776" cy="-519.1862" rx="73.9335" ry="46.2727"/>
<text text-anchor="middle" x="112.9776" y="-533.5862" font-family="Times,serif" font-size="16.00" fill="#ffffff">les inférences</text>
<text text-anchor="middle" x="112.9776" y="-514.3862" font-family="Times,serif" font-size="16.00" fill="#ffffff">logiquement</text>
<text text-anchor="middle" x="112.9776" y="-495.1862" font-family="Times,serif" font-size="16.00" fill="#ffffff">valides</text>
</g>
<!-- a1&#45;&gt;b1 -->
<g id="edge1" class="edge">
<title>a1-&gt;b1:n</title>
<path fill="none" stroke="#000000" d="M157.544,-625.9228C136.6941,-614.0762 118.3515,-597.6783 113.969,-575.6997"/>
<polygon fill="#000000" stroke="#000000" points="117.4353,-575.1838 112.9776,-565.5724 110.4686,-575.8659 117.4353,-575.1838"/>
</g>
<!-- b2 -->
<g id="node3" class="node">
<title>b2</title>
<ellipse fill="#8b0000" stroke="#000000" cx="347.9776" cy="-519.1862" rx="77.1023" ry="46.2727"/>
<text text-anchor="middle" x="347.9776" y="-533.5862" font-family="Times,serif" font-size="16.00" fill="#ffffff">les inférences</text>
<text text-anchor="middle" x="347.9776" y="-514.3862" font-family="Times,serif" font-size="16.00" fill="#ffffff">logiquement</text>
<text text-anchor="middle" x="347.9776" y="-495.1862" font-family="Times,serif" font-size="16.00" fill="#ffffff">non valides …</text>
</g>
<!-- a1&#45;&gt;b2 -->
<g id="edge2" class="edge">
<title>a1-&gt;b2:n</title>
<path fill="none" stroke="#000000" d="M302.6932,-626.2635C323.8459,-614.4309 342.5086,-597.9745 346.9686,-575.7973"/>
<polygon fill="#000000" stroke="#000000" points="350.4786,-575.8678 347.9776,-565.5724 343.5124,-575.1803 350.4786,-575.8678"/>
</g>
<!-- r1 -->
<g id="node14" class="node">
<title>r1</title>
<polygon fill="none" stroke="#0000ff" stroke-width=".6" stroke-dasharray="5,2" points="568.7626,-685.651 453.1926,-685.651 453.1926,-618.4486 568.7626,-618.4486 568.7626,-685.651"/>
<text text-anchor="middle" x="510.9776" y="-670.0498" font-family="Times,serif" font-size="12.00" fill="#000000">Une inférence est un</text>
<text text-anchor="middle" x="510.9776" y="-655.6498" font-family="Times,serif" font-size="12.00" fill="#000000">raisonnement qui à</text>
<text text-anchor="middle" x="510.9776" y="-641.2498" font-family="Times,serif" font-size="12.00" fill="#000000">partir de prémisses en</text>
<text text-anchor="middle" x="510.9776" y="-626.8498" font-family="Times,serif" font-size="12.00" fill="#000000">tire une conclusion</text>
</g>
<!-- a1&#45;&gt;r1 -->
<g id="edge16" class="edge">
<title>a1-&gt;r1</title>
<path fill="none" stroke="#0000ff" stroke-width=".6" stroke-dasharray="5,2" d="M313.6739,-652.0498C360.1739,-652.0498 406.6738,-652.0498 453.1738,-652.0498"/>
</g>
<!-- b1&#45;&gt;b2 -->
<!-- c1 -->
<g id="node4" class="node">
<title>c1</title>
<polygon fill="#ffffff" stroke="#7f7f7f" points="203.9328,-437.8 .0224,-437.8 .0224,-347.8 203.9328,-347.8 203.9328,-437.8"/>
<text text-anchor="start" x="11.8904" y="-420.4" font-family="Times,serif" font-size="16.00" fill="#000000">Si les prémisses sont vraies,</text>
<text text-anchor="start" x="8" y="-404.4" font-family="Times,serif" font-size="16.00" fill="#000000">alors il n'est pas possible que</text>
<text text-anchor="start" x="23.9976" y="-388.4" font-family="Times,serif" font-size="16.00" fill="#000000">la conclusion soit fausse</text>
<text text-anchor="start" x="18.3336" y="-367.1" font-family="Times,serif" font-size="13.00" fill="#000000">(la vérité des prémisses garantit</text>
<text text-anchor="start" x="33.9408" y="-354.1" font-family="Times,serif" font-size="13.00" fill="#000000">la vérité de la conclusion)</text>
</g>
<!-- b1&#45;&gt;c1 -->
<g id="edge4" class="edge">
<title>b1-&gt;c1</title>
<path fill="none" stroke="#000000" d="M108.9441,-472.8423C108.2379,-464.7284 107.4969,-456.2147 106.7725,-447.8916"/>
<polygon fill="#000000" stroke="#000000" points="110.2545,-447.5324 105.9006,-437.8736 103.2809,-448.1394 110.2545,-447.5324"/>
</g>
<!-- bc1 -->
<g id="node5" class="node">
<title>bc1</title>
<ellipse fill="#c7c7c7" stroke="#7f7f7f" cx="347.9776" cy="-392.8" rx="60.8985" ry="19.4695"/>
<text text-anchor="middle" x="347.9776" y="-388" font-family="Times,serif" font-size="16.00" fill="#000000">pertinentes</text>
</g>
<!-- b2&#45;&gt;bc1 -->
<g id="edge5" class="edge">
<title>b2-&gt;bc1</title>
<path fill="none" stroke="#000000" d="M347.9776,-472.4837C347.9776,-455.7349 347.9776,-437.3243 347.9776,-422.4229"/>
<polygon fill="#000000" stroke="#000000" points="351.4777,-422.2665 347.9776,-412.2665 344.4777,-422.2666 351.4777,-422.2665"/>
</g>
<!-- bc2 -->
<g id="node6" class="node">
<title>bc2</title>
<ellipse fill="#c7c7c7" stroke="#7f7f7f" cx="608.9776" cy="-392.8" rx="60.8985" ry="32.6206"/>
<text text-anchor="middle" x="608.9776" y="-397.6" font-family="Times,serif" font-size="16.00" fill="#000000">pas ou peu</text>
<text text-anchor="middle" x="608.9776" y="-378.4" font-family="Times,serif" font-size="16.00" fill="#000000">pertinentes</text>
</g>
<!-- b2&#45;&gt;bc2 -->
<g id="edge6" class="edge">
<title>b2-&gt;bc2</title>
<path fill="none" stroke="#000000" d="M408.184,-490.032C452.224,-468.7061 511.4878,-440.0083 554.2021,-419.3244"/>
<polygon fill="#000000" stroke="#000000" points="555.8499,-422.4153 563.3248,-414.9068 552.7991,-416.1151 555.8499,-422.4153"/>
</g>
<!-- c1&#45;&gt;bc1 -->
<!-- e1 -->
<g id="node10" class="node">
<title>e1</title>
<path fill="#fafafa" stroke="transparent" d="M146.7823,-326.8C146.7823,-326.8 57.1729,-326.8 57.1729,-326.8 51.1729,-326.8 45.1729,-320.8 45.1729,-314.8 45.1729,-314.8 45.1729,-302.8 45.1729,-302.8 45.1729,-296.8 51.1729,-290.8 57.1729,-290.8 57.1729,-290.8 146.7823,-290.8 146.7823,-290.8 152.7823,-290.8 158.7823,-296.8 158.7823,-302.8 158.7823,-302.8 158.7823,-314.8 158.7823,-314.8 158.7823,-320.8 152.7823,-326.8 146.7823,-326.8"/>
<text text-anchor="middle" x="101.9776" y="-304.3" font-family="Times,serif" font-size="15.00" fill="#cd2626">= une déduction</text>
</g>
<!-- c1&#45;&gt;e1 -->
<!-- bc1&#45;&gt;bc2 -->
<!-- c2 -->
<g id="node7" class="node">
<title>c2</title>
<polygon fill="#ffffff" stroke="#7f7f7f" points="463.7498,-269.8 232.2054,-269.8 232.2054,-163.8 463.7498,-163.8 463.7498,-269.8"/>
<text text-anchor="start" x="240.3416" y="-252.4" font-family="Times,serif" font-size="16.00" fill="#000000">Si les prémisses sont vraies, alors</text>
<text text-anchor="start" x="246.6712" y="-236.4" font-family="Times,serif" font-size="16.00" fill="#000000">la conclusion, est probablement</text>
<text text-anchor="start" x="255.7768" y="-220.4" font-family="Times,serif" font-size="16.00" fill="#000000">vraie mais il est possible que</text>
<text text-anchor="start" x="269.9976" y="-204.4" font-family="Times,serif" font-size="16.00" fill="#000000">la conclusion soit fausse</text>
<text text-anchor="start" x="256.5733" y="-183.1" font-family="Times,serif" font-size="13.00" fill="#000000">(la vérité des prémisses ne garantit</text>
<text text-anchor="start" x="269.6526" y="-170.1" font-family="Times,serif" font-size="13.00" fill="#000000">pas la vérité de la conclusion)</text>
</g>
<!-- bc1&#45;&gt;c2 -->
<g id="edge7" class="edge">
<title>bc1-&gt;c2</title>
<path fill="none" stroke="#000000" d="M347.9776,-373.2925C347.9776,-350.9064 347.9776,-313.0446 347.9776,-280.1703"/>
<polygon fill="#000000" stroke="#000000" points="351.4777,-280.1506 347.9776,-270.1507 344.4777,-280.1507 351.4777,-280.1506"/>
</g>
<!-- e2 -->
<g id="node11" class="node">
<title>e2</title>
<path fill="#fafafa" stroke="transparent" d="M711.7493,-339.8C711.7493,-339.8 506.2059,-339.8 506.2059,-339.8 500.2059,-339.8 494.2059,-333.8 494.2059,-327.8 494.2059,-327.8 494.2059,-289.8 494.2059,-289.8 494.2059,-283.8 500.2059,-277.8 506.2059,-277.8 506.2059,-277.8 711.7493,-277.8 711.7493,-277.8 717.7493,-277.8 723.7493,-283.8 723.7493,-289.8 723.7493,-289.8 723.7493,-327.8 723.7493,-327.8 723.7493,-333.8 717.7493,-339.8 711.7493,-339.8"/>
<text text-anchor="middle" x="608.9776" y="-322.3" font-family="Times,serif" font-size="15.00" fill="#cd2626">= raisonnement irrationnel, erreur</text>
<text text-anchor="middle" x="608.9776" y="-304.3" font-family="Times,serif" font-size="15.00" fill="#cd2626">de raisonnement, ou lien trop faible</text>
<text text-anchor="middle" x="608.9776" y="-286.3" font-family="Times,serif" font-size="15.00" fill="#cd2626">entre les prémisses et la conclusion</text>
</g>
<!-- bc2&#45;&gt;e2 -->
<!-- d1 -->
<g id="node8" class="node">
<title>d1</title>
<path fill="#ffffff" stroke="#7f7f7f" d="M327.0621,-128.7002C327.0621,-128.7002 168.8931,-128.7002 168.8931,-128.7002 162.8931,-128.7002 156.8931,-122.7002 156.8931,-116.7002 156.8931,-116.7002 156.8931,-56.0998 156.8931,-56.0998 156.8931,-50.0998 162.8931,-44.0998 168.8931,-44.0998 168.8931,-44.0998 327.0621,-44.0998 327.0621,-44.0998 333.0621,-44.0998 339.0621,-50.0998 339.0621,-56.0998 339.0621,-56.0998 339.0621,-116.7002 339.0621,-116.7002 339.0621,-122.7002 333.0621,-128.7002 327.0621,-128.7002"/>
<text text-anchor="middle" x="247.9776" y="-110.4" font-family="Times,serif" font-size="16.00" fill="#000000">La conclusion est </text>
<text text-anchor="middle" x="247.9776" y="-91.2" font-family="Times,serif" font-size="16.00" fill="#000000">probablement vraie, parce</text>
<text text-anchor="middle" x="247.9776" y="-72" font-family="Times,serif" font-size="16.00" fill="#000000">qu'on suppose l'existence</text>
<text text-anchor="middle" x="247.9776" y="-52.8" font-family="Times,serif" font-size="16.00" fill="#000000">de régularités statistiques</text>
</g>
<!-- c2&#45;&gt;d1 -->
<g id="edge10" class="edge">
<title>c2-&gt;d1</title>
<path fill="none" stroke="#000000" d="M307.3038,-163.7613C300.5142,-154.9077 293.4867,-145.7439 286.7464,-136.9546"/>
<polygon fill="#000000" stroke="#000000" points="289.5149,-134.813 280.6521,-129.0076 283.9602,-139.0728 289.5149,-134.813"/>
</g>
<!-- d2 -->
<g id="node9" class="node">
<title>d2</title>
<path fill="#ffffff" stroke="#7f7f7f" d="M533.3732,-128.7002C533.3732,-128.7002 364.582,-128.7002 364.582,-128.7002 358.582,-128.7002 352.582,-122.7002 352.582,-116.7002 352.582,-116.7002 352.582,-56.0998 352.582,-56.0998 352.582,-50.0998 358.582,-44.0998 364.582,-44.0998 364.582,-44.0998 533.3732,-44.0998 533.3732,-44.0998 539.3732,-44.0998 545.3732,-50.0998 545.3732,-56.0998 545.3732,-56.0998 545.3732,-116.7002 545.3732,-116.7002 545.3732,-122.7002 539.3732,-128.7002 533.3732,-128.7002"/>
<text text-anchor="middle" x="448.9776" y="-110.4" font-family="Times,serif" font-size="16.00" fill="#000000">La conclusion est</text>
<text text-anchor="middle" x="448.9776" y="-91.2" font-family="Times,serif" font-size="16.00" fill="#000000">probablement vraie, parce</text>
<text text-anchor="middle" x="448.9776" y="-72" font-family="Times,serif" font-size="16.00" fill="#000000">qu'elle constitue une bonne</text>
<text text-anchor="middle" x="448.9776" y="-52.8" font-family="Times,serif" font-size="16.00" fill="#000000">explication des prémisses</text>
</g>
<!-- c2&#45;&gt;d2 -->
<g id="edge11" class="edge">
<title>c2-&gt;d2</title>
<path fill="none" stroke="#000000" d="M389.0582,-163.7613C395.9156,-154.9077 403.0134,-145.7439 409.8211,-136.9546"/>
<polygon fill="#000000" stroke="#000000" points="412.6199,-139.0567 415.9763,-129.0076 407.0858,-134.7703 412.6199,-139.0567"/>
</g>
<!-- e3 -->
<g id="node12" class="node">
<title>e3</title>
<path fill="#fafafa" stroke="transparent" d="M307.323,-36C307.323,-36 188.6322,-36 188.6322,-36 182.6322,-36 176.6322,-30 176.6322,-24 176.6322,-24 176.6322,-12 176.6322,-12 176.6322,-6 182.6322,0 188.6322,0 188.6322,0 307.323,0 307.323,0 313.323,0 319.323,-6 319.323,-12 319.323,-12 319.323,-24 319.323,-24 319.323,-30 313.323,-36 307.323,-36"/>
<text text-anchor="middle" x="247.9776" y="-13.5" font-family="Times,serif" font-size="15.00" fill="#cd2626">= une induction forte</text>
</g>
<!-- d1&#45;&gt;e3 -->
<!-- e4 -->
<g id="node13" class="node">
<title>e4</title>
<path fill="#fafafa" stroke="transparent" d="M509.3127,-36C509.3127,-36 388.6425,-36 388.6425,-36 382.6425,-36 376.6425,-30 376.6425,-24 376.6425,-24 376.6425,-12 376.6425,-12 376.6425,-6 382.6425,0 388.6425,0 388.6425,0 509.3127,0 509.3127,0 515.3127,0 521.3127,-6 521.3127,-12 521.3127,-12 521.3127,-24 521.3127,-24 521.3127,-30 515.3127,-36 509.3127,-36"/>
<text text-anchor="middle" x="448.9776" y="-13.5" font-family="Times,serif" font-size="15.00" fill="#cd2626">= une abduction forte</text>
</g>
<!-- d2&#45;&gt;e4 -->
</g>
</svg>