<?xml version="1.0" encoding="UTF-8" standalone="no"?><!DOCTYPE svg PUBLIC "-//W3C//DTD SVG 1.1//EN" "http://www.w3.org/Graphics/SVG/1.1/DTD/svg11.dtd"><!-- Generated by graphviz version 2.40.1 (20161225.0304)
 --><!-- Title: G Pages: 1 --><svg xmlns="http://www.w3.org/2000/svg" xmlns:xlink="http://www.w3.org/1999/xlink" width="599pt" height="614pt" viewBox="0.00 0.00 599.38 613.73">
<g id="graph0" class="graph" transform="scale(1 1) rotate(0) translate(21.6 592.1272)">
<title>G</title>
<polygon fill="#fafafa" stroke="transparent" points="-21.6,21.6 -21.6,-592.1272 577.7752,-592.1272 577.7752,21.6 -21.6,21.6"/>
<!-- a1 -->
<g id="node1" class="node">
<title>a1</title>
<ellipse fill="#000000" stroke="#000000" cx="251.9776" cy="-519.0498" rx="83.6429" ry="51.4548"/>
<text text-anchor="middle" x="251.9776" y="-535.2498" font-family="Times,serif" font-size="18.00" fill="#ffffff">Parmi les</text>
<text text-anchor="middle" x="251.9776" y="-513.6498" font-family="Times,serif" font-size="18.00" fill="#ffffff">inférences, on</text>
<text text-anchor="middle" x="251.9776" y="-492.0498" font-family="Times,serif" font-size="18.00" fill="#ffffff">distingue …</text>
</g>
<!-- b1 -->
<g id="node2" class="node">
<title>b1</title>
<ellipse fill="#8b0000" stroke="#000000" cx="143.9776" cy="-386.1862" rx="73.9335" ry="46.2727"/>
<text text-anchor="middle" x="143.9776" y="-400.5862" font-family="Times,serif" font-size="16.00" fill="#ffffff">les inférences</text>
<text text-anchor="middle" x="143.9776" y="-381.3862" font-family="Times,serif" font-size="16.00" fill="#ffffff">logiquement</text>
<text text-anchor="middle" x="143.9776" y="-362.1862" font-family="Times,serif" font-size="16.00" fill="#ffffff">valides</text>
</g>
<!-- a1&#45;&gt;b1 -->
<g id="edge1" class="edge">
<title>a1-&gt;b1:n</title>
<path fill="none" stroke="#000000" d="M182.663,-490.015C164.5885,-478.2519 149.0094,-462.6441 144.9852,-442.7087"/>
<polygon fill="#000000" stroke="#000000" points="148.4497,-442.1771 143.9776,-432.5724 141.484,-442.8696 148.4497,-442.1771"/>
</g>
<!-- b2 -->
<g id="node3" class="node">
<title>b2</title>
<ellipse fill="#8b0000" stroke="#000000" cx="360.9776" cy="-386.1862" rx="73.9335" ry="46.2727"/>
<text text-anchor="middle" x="360.9776" y="-400.5862" font-family="Times,serif" font-size="16.00" fill="#ffffff">les inférences</text>
<text text-anchor="middle" x="360.9776" y="-381.3862" font-family="Times,serif" font-size="16.00" fill="#ffffff">logiquement</text>
<text text-anchor="middle" x="360.9776" y="-362.1862" font-family="Times,serif" font-size="16.00" fill="#ffffff">non valides</text>
</g>
<!-- a1&#45;&gt;b2 -->
<g id="edge2" class="edge">
<title>a1-&gt;b2:n</title>
<path fill="none" stroke="#000000" d="M312.5338,-483.393C332.3303,-470.0447 351.0475,-455.0309 358.063,-442.2595"/>
<polygon fill="#000000" stroke="#000000" points="361.4479,-443.1568 360.9776,-432.5724 354.7448,-441.1399 361.4479,-443.1568"/>
</g>
<!-- e1 -->
<g id="node8" class="node">
<title>e1</title>
<path fill="#fafafa" stroke="transparent" d="M468.0784,-554.4509C468.0784,-554.4509 361.8768,-554.4509 361.8768,-554.4509 355.8768,-554.4509 349.8768,-548.4509 349.8768,-542.4509 349.8768,-542.4509 349.8768,-495.6486 349.8768,-495.6486 349.8768,-489.6486 355.8768,-483.6486 361.8768,-483.6486 361.8768,-483.6486 468.0784,-483.6486 468.0784,-483.6486 474.0784,-483.6486 480.0784,-489.6486 480.0784,-495.6486 480.0784,-495.6486 480.0784,-542.4509 480.0784,-542.4509 480.0784,-548.4509 474.0784,-554.4509 468.0784,-554.4509"/>
<text text-anchor="middle" x="414.9776" y="-538.5498" font-family="Times,serif" font-size="13.00" fill="#cd2626">Une inférence est un</text>
<text text-anchor="middle" x="414.9776" y="-522.9498" font-family="Times,serif" font-size="13.00" fill="#cd2626">raisonnement qui à</text>
<text text-anchor="middle" x="414.9776" y="-507.3498" font-family="Times,serif" font-size="13.00" fill="#cd2626">partir de prémisses en</text>
<text text-anchor="middle" x="414.9776" y="-491.7498" font-family="Times,serif" font-size="13.00" fill="#cd2626">tire une conclusion</text>
</g>
<!-- a1&#45;&gt;e1 -->
<!-- b1&#45;&gt;b2 -->
<!-- c1 -->
<g id="node4" class="node">
<title>c1</title>
<polygon fill="#ffffff" stroke="#7f7f7f" points="203.9328,-296.8 .0224,-296.8 .0224,-206.8 203.9328,-206.8 203.9328,-296.8"/>
<text text-anchor="start" x="11.8904" y="-279.4" font-family="Times,serif" font-size="16.00" fill="#000000">Si les prémisses sont vraies,</text>
<text text-anchor="start" x="8" y="-263.4" font-family="Times,serif" font-size="16.00" fill="#000000">alors il n'est pas possible que</text>
<text text-anchor="start" x="23.9976" y="-247.4" font-family="Times,serif" font-size="16.00" fill="#000000">la conclusion soit fausse</text>
<text text-anchor="start" x="18.3336" y="-226.1" font-family="Times,serif" font-size="13.00" fill="#000000">(la vérité des prémisses garantit</text>
<text text-anchor="start" x="33.9408" y="-213.1" font-family="Times,serif" font-size="13.00" fill="#000000">la vérité de la conclusion)</text>
</g>
<!-- b1&#45;&gt;c1 -->
<g id="edge4" class="edge">
<title>b1-&gt;c1</title>
<path fill="none" stroke="#000000" d="M129.6411,-340.314C126.2592,-329.493 122.6201,-317.8491 119.128,-306.6757"/>
<polygon fill="#000000" stroke="#000000" points="122.431,-305.5109 116.1072,-297.0102 115.7497,-307.599 122.431,-305.5109"/>
</g>
<!-- c2 -->
<g id="node5" class="node">
<title>c2</title>
<polygon fill="#ffffff" stroke="#7f7f7f" points="490.7498,-304.8 259.2054,-304.8 259.2054,-198.8 490.7498,-198.8 490.7498,-304.8"/>
<text text-anchor="start" x="267.3416" y="-287.4" font-family="Times,serif" font-size="16.00" fill="#000000">Si les prémisses sont vraies, alors</text>
<text text-anchor="start" x="275.6712" y="-271.4" font-family="Times,serif" font-size="16.00" fill="#000000">la conclusion est probablement</text>
<text text-anchor="start" x="280.7768" y="-255.4" font-family="Times,serif" font-size="16.00" fill="#000000">vraie, mais il est possible que</text>
<text text-anchor="start" x="296.9976" y="-239.4" font-family="Times,serif" font-size="16.00" fill="#000000">la conclusion soit fausse</text>
<text text-anchor="start" x="283.5733" y="-218.1" font-family="Times,serif" font-size="13.00" fill="#000000">(la vérité des prémisses ne garantit</text>
<text text-anchor="start" x="296.6526" y="-205.1" font-family="Times,serif" font-size="13.00" fill="#000000">pas la vérité de la conclusion)</text>
</g>
<!-- b2&#45;&gt;c2 -->
<g id="edge5" class="edge">
<title>b2-&gt;c2</title>
<path fill="none" stroke="#000000" d="M365.8348,-339.5616C366.6456,-331.7794 367.4987,-323.5898 368.3447,-315.469"/>
<polygon fill="#000000" stroke="#000000" points="371.8537,-315.5642 369.4088,-305.2554 364.8913,-314.8388 371.8537,-315.5642"/>
</g>
<!-- c1&#45;&gt;c2 -->
<!-- e2 -->
<g id="node9" class="node">
<title>e2</title>
<path fill="#fafafa" stroke="transparent" d="M150.3028,-190.8C150.3028,-190.8 53.6524,-190.8 53.6524,-190.8 47.6524,-190.8 41.6524,-184.8 41.6524,-178.8 41.6524,-178.8 41.6524,-166.8 41.6524,-166.8 41.6524,-160.8 47.6524,-154.8 53.6524,-154.8 53.6524,-154.8 150.3028,-154.8 150.3028,-154.8 156.3028,-154.8 162.3028,-160.8 162.3028,-166.8 162.3028,-166.8 162.3028,-178.8 162.3028,-178.8 162.3028,-184.8 156.3028,-190.8 150.3028,-190.8"/>
<text text-anchor="middle" x="101.9776" y="-168" font-family="Times,serif" font-size="16.00" fill="#cd2626">= une déduction</text>
</g>
<!-- c1&#45;&gt;e2 -->
<!-- d1 -->
<g id="node6" class="node">
<title>d1</title>
<path fill="#ffffff" stroke="#7f7f7f" d="M338.0621,-128.7002C338.0621,-128.7002 179.8931,-128.7002 179.8931,-128.7002 173.8931,-128.7002 167.8931,-122.7002 167.8931,-116.7002 167.8931,-116.7002 167.8931,-56.0998 167.8931,-56.0998 167.8931,-50.0998 173.8931,-44.0998 179.8931,-44.0998 179.8931,-44.0998 338.0621,-44.0998 338.0621,-44.0998 344.0621,-44.0998 350.0621,-50.0998 350.0621,-56.0998 350.0621,-56.0998 350.0621,-116.7002 350.0621,-116.7002 350.0621,-122.7002 344.0621,-128.7002 338.0621,-128.7002"/>
<text text-anchor="middle" x="258.9776" y="-110.4" font-family="Times,serif" font-size="16.00" fill="#000000">La conclusion est</text>
<text text-anchor="middle" x="258.9776" y="-91.2" font-family="Times,serif" font-size="16.00" fill="#000000">probablement vraie, parce</text>
<text text-anchor="middle" x="258.9776" y="-72" font-family="Times,serif" font-size="16.00" fill="#000000">qu'on suppose l'existence</text>
<text text-anchor="middle" x="258.9776" y="-52.8" font-family="Times,serif" font-size="16.00" fill="#000000">de régularités statistiques</text>
</g>
<!-- c2&#45;&gt;d1 -->
<g id="edge7" class="edge">
<title>c2-&gt;d1</title>
<path fill="none" stroke="#000000" d="M337.636,-198.556C323.8471,-178.895 308.2664,-156.6791 294.631,-137.2368"/>
<polygon fill="#000000" stroke="#000000" points="297.325,-134.9825 288.7175,-128.805 291.5939,-139.0019 297.325,-134.9825"/>
</g>
<!-- d2 -->
<g id="node7" class="node">
<title>d2</title>
<path fill="#ffffff" stroke="#7f7f7f" d="M544.3732,-128.7002C544.3732,-128.7002 375.582,-128.7002 375.582,-128.7002 369.582,-128.7002 363.582,-122.7002 363.582,-116.7002 363.582,-116.7002 363.582,-56.0998 363.582,-56.0998 363.582,-50.0998 369.582,-44.0998 375.582,-44.0998 375.582,-44.0998 544.3732,-44.0998 544.3732,-44.0998 550.3732,-44.0998 556.3732,-50.0998 556.3732,-56.0998 556.3732,-56.0998 556.3732,-116.7002 556.3732,-116.7002 556.3732,-122.7002 550.3732,-128.7002 544.3732,-128.7002"/>
<text text-anchor="middle" x="459.9776" y="-110.4" font-family="Times,serif" font-size="16.00" fill="#000000">La conclusion est</text>
<text text-anchor="middle" x="459.9776" y="-91.2" font-family="Times,serif" font-size="16.00" fill="#000000">probablement vraie, parce</text>
<text text-anchor="middle" x="459.9776" y="-72" font-family="Times,serif" font-size="16.00" fill="#000000">qu'elle constitue une bonne</text>
<text text-anchor="middle" x="459.9776" y="-52.8" font-family="Times,serif" font-size="16.00" fill="#000000">explication des prémisses</text>
</g>
<!-- c2&#45;&gt;d2 -->
<g id="edge8" class="edge">
<title>c2-&gt;d2</title>
<path fill="none" stroke="#000000" d="M402.34,-198.556C412.3533,-179.0713 423.6561,-157.0774 433.5831,-137.7606"/>
<polygon fill="#000000" stroke="#000000" points="436.7276,-139.299 438.1854,-128.805 430.5016,-136.0994 436.7276,-139.299"/>
</g>
<!-- e3 -->
<g id="node10" class="node">
<title>e3</title>
<path fill="#fafafa" stroke="transparent" d="M305.0448,-36C305.0448,-36 212.9104,-36 212.9104,-36 206.9104,-36 200.9104,-30 200.9104,-24 200.9104,-24 200.9104,-12 200.9104,-12 200.9104,-6 206.9104,0 212.9104,0 212.9104,0 305.0448,0 305.0448,0 311.0448,0 317.0448,-6 317.0448,-12 317.0448,-12 317.0448,-24 317.0448,-24 317.0448,-30 311.0448,-36 305.0448,-36"/>
<text text-anchor="middle" x="258.9776" y="-13.2" font-family="Times,serif" font-size="16.00" fill="#cd2626">= une induction</text>
</g>
<!-- d1&#45;&gt;e3 -->
<!-- e4 -->
<g id="node11" class="node">
<title>e4</title>
<path fill="#fafafa" stroke="transparent" d="M507.7002,-36C507.7002,-36 412.255,-36 412.255,-36 406.255,-36 400.255,-30 400.255,-24 400.255,-24 400.255,-12 400.255,-12 400.255,-6 406.255,0 412.255,0 412.255,0 507.7002,0 507.7002,0 513.7002,0 519.7002,-6 519.7002,-12 519.7002,-12 519.7002,-24 519.7002,-24 519.7002,-30 513.7002,-36 507.7002,-36"/>
<text text-anchor="middle" x="459.9776" y="-13.2" font-family="Times,serif" font-size="16.00" fill="#cd2626">= une abduction</text>
</g>
<!-- d2&#45;&gt;e4 -->
</g>
</svg>