<?xml version="1.0" encoding="UTF-8" standalone="no"?><!DOCTYPE svg PUBLIC "-//W3C//DTD SVG 1.1//EN" "http://www.w3.org/Graphics/SVG/1.1/DTD/svg11.dtd"><!-- Generated by graphviz version 2.40.1 (20161225.0304)
 --><!-- Title: G Pages: 1 --><svg xmlns="http://www.w3.org/2000/svg" xmlns:xlink="http://www.w3.org/1999/xlink" width="508pt" height="253pt" viewBox="0.00 0.00 508.44 252.56">
<g id="graph0" class="graph" transform="scale(1 1) rotate(0) translate(21.6 230.9627)">
<title>G</title>
<polygon fill="#fafafa" stroke="transparent" points="-21.6,21.6 -21.6,-230.9627 486.8377,-230.9627 486.8377,21.6 -21.6,21.6"/>
<!-- a1 -->
<g id="node1" class="node">
<title>a1</title>
<ellipse fill="#000000" stroke="#000000" cx="42.0427" cy="-95.4" rx="42.0855" ry="36.4089"/>
<text text-anchor="middle" x="42.0427" y="-100.8" font-family="Times,serif" font-size="18.00" fill="#ffffff">La</text>
<text text-anchor="middle" x="42.0427" y="-79.2" font-family="Times,serif" font-size="18.00" fill="#ffffff">vérité</text>
</g>
<!-- b1 -->
<g id="node2" class="node">
<title>b1</title>
<ellipse fill="#8b0000" stroke="#000000" cx="202.1824" cy="-149.4" rx="83.194" ry="59.9253"/>
<text text-anchor="middle" x="202.1824" y="-173.4" font-family="Times,serif" font-size="16.00" fill="#ffffff">≠ l'authenticité</text>
<text text-anchor="middle" x="202.1824" y="-154.2" font-family="Times,serif" font-size="16.00" fill="#ffffff">d'une chose</text>
<text text-anchor="middle" x="202.1824" y="-135" font-family="Times,serif" font-size="16.00" fill="#ffffff">≠ la sincérité</text>
<text text-anchor="middle" x="202.1824" y="-115.8" font-family="Times,serif" font-size="16.00" fill="#ffffff">d'une personne</text>
</g>
<!-- a1&#45;&gt;b1 -->
<g id="edge1" class="edge">
<title>a1-&gt;b1:w</title>
<path fill="none" stroke="#000000" d="M67.2709,-124.6126C78.7121,-135.1493 93.2389,-145.2336 109.1283,-148.3888"/>
<polygon fill="#000000" stroke="#000000" points="108.8823,-151.8816 119.1824,-149.4 109.5829,-144.9167 108.8823,-151.8816"/>
</g>
<!-- b2 -->
<g id="node3" class="node">
<title>b2</title>
<ellipse fill="#8b0000" stroke="#000000" cx="202.1824" cy="-42.4" rx="41.276" ry="32.6206"/>
<text text-anchor="middle" x="202.1824" y="-47.2" font-family="Times,serif" font-size="16.00" fill="#ffffff">≠ la</text>
<text text-anchor="middle" x="202.1824" y="-28" font-family="Times,serif" font-size="16.00" fill="#ffffff">réalité</text>
</g>
<!-- a1&#45;&gt;b2 -->
<g id="edge2" class="edge">
<title>a1-&gt;b2:w</title>
<path fill="none" stroke="#000000" d="M74.4312,-71.9992C94.7577,-59.3541 122.2894,-45.7546 149.9846,-42.931"/>
<polygon fill="#000000" stroke="#000000" points="150.3779,-46.4154 160.1824,-42.4 150.0139,-39.4248 150.3779,-46.4154"/>
</g>
<!-- c1 -->
<g id="node4" class="node">
<title>c1</title>
<polygon fill="#ffffff" stroke="#7f7f7f" points="450.8385,-182.0012 334.6785,-182.0012 334.6785,-116.7988 450.8385,-116.7988 450.8385,-182.0012"/>
<text text-anchor="middle" x="392.7585" y="-163.8" font-family="Times,serif" font-size="16.00" fill="#000000">La vérité</text>
<text text-anchor="middle" x="392.7585" y="-144.6" font-family="Times,serif" font-size="16.00" fill="#000000">= une propriété</text>
<text text-anchor="middle" x="392.7585" y="-125.4" font-family="Times,serif" font-size="16.00" fill="#000000">des jugements</text>
</g>
<!-- b1&#45;&gt;c1 -->
<g id="edge3" class="edge">
<title>b1-&gt;c1</title>
<path fill="none" stroke="#000000" d="M285.4946,-149.4C298.4057,-149.4 311.6147,-149.4 324.1534,-149.4"/>
<polygon fill="#000000" stroke="#000000" points="324.5069,-152.9001 334.5069,-149.4 324.5068,-145.9001 324.5069,-152.9001"/>
</g>
<!-- c2 -->
<g id="node5" class="node">
<title>c2</title>
<polygon fill="#ffffff" stroke="#7f7f7f" points="465.2169,-84.7002 320.3001,-84.7002 320.3001,-.0998 465.2169,-.0998 465.2169,-84.7002"/>
<text text-anchor="middle" x="392.7585" y="-66.4" font-family="Times,serif" font-size="16.00" fill="#000000">La vérité</text>
<text text-anchor="middle" x="392.7585" y="-47.2" font-family="Times,serif" font-size="16.00" fill="#000000">= la correspondance</text>
<text text-anchor="middle" x="392.7585" y="-28" font-family="Times,serif" font-size="16.00" fill="#000000">des jugements</text>
<text text-anchor="middle" x="392.7585" y="-8.8" font-family="Times,serif" font-size="16.00" fill="#000000">avec la réalité</text>
</g>
<!-- b2&#45;&gt;c2 -->
<g id="edge4" class="edge">
<title>b2-&gt;c2</title>
<path fill="none" stroke="#000000" d="M243.5346,-42.4C262.9882,-42.4 286.9138,-42.4 309.8638,-42.4"/>
<polygon fill="#000000" stroke="#000000" points="309.9707,-45.9001 319.9706,-42.4 309.9706,-38.9001 309.9707,-45.9001"/>
</g>
</g>
</svg>