<?xml version="1.0" encoding="UTF-8" standalone="no"?><!DOCTYPE svg PUBLIC "-//W3C//DTD SVG 1.1//EN" "http://www.w3.org/Graphics/SVG/1.1/DTD/svg11.dtd"><!-- Generated by graphviz version 2.40.1 (20161225.0304)
 --><!-- Title: G Pages: 1 --><svg xmlns="http://www.w3.org/2000/svg" xmlns:xlink="http://www.w3.org/1999/xlink" width="645pt" height="398pt" viewBox="0.00 0.00 645.16 398.25">
<g id="graph0" class="graph" transform="scale(1 1) rotate(0) translate(21.6 376.6468)">
<title>G</title>
<polygon fill="#fafafa" stroke="transparent" points="-21.6,21.6 -21.6,-376.6468 623.5608,-376.6468 623.5608,21.6 -21.6,21.6"/>
<!-- a1 -->
<g id="node1" class="node">
<title>a1</title>
<ellipse fill="#000000" stroke="#000000" cx="316.8816" cy="-318.8429" rx="101.7342" ry="36.4089"/>
<text text-anchor="middle" x="316.8816" y="-324.2429" font-family="Times,serif" font-size="18.00" fill="#ffffff">La démonstration</text>
<text text-anchor="middle" x="316.8816" y="-302.6429" font-family="Times,serif" font-size="18.00" fill="#ffffff">au sens strict</text>
</g>
<!-- b1 -->
<g id="node2" class="node">
<title>b1</title>
<ellipse fill="#8b0000" stroke="#000000" cx="204.8816" cy="-214.8293" rx="85.0389" ry="32.6206"/>
<text text-anchor="middle" x="204.8816" y="-219.6293" font-family="Times,serif" font-size="16.00" fill="#ffffff">Inférence valide</text>
<text text-anchor="middle" x="204.8816" y="-200.4293" font-family="Times,serif" font-size="16.00" fill="#ffffff">(= déduction)</text>
</g>
<!-- a1&#45;&gt;b1 -->
<g id="edge1" class="edge">
<title>a1-&gt;b1:n</title>
<path fill="none" stroke="#000000" d="M239.0939,-295.4093C223.1177,-286.4161 209.9444,-274.2119 206.052,-257.7976"/>
<polygon fill="#000000" stroke="#000000" points="209.5032,-257.1727 204.8816,-247.639 202.5492,-257.9739 209.5032,-257.1727"/>
</g>
<!-- b2 -->
<g id="node3" class="node">
<title>b2</title>
<ellipse fill="#8b0000" stroke="#000000" cx="428.8816" cy="-214.8293" rx="57.1762" ry="32.6206"/>
<text text-anchor="middle" x="428.8816" y="-219.6293" font-family="Times,serif" font-size="16.00" fill="#ffffff">Prémisses</text>
<text text-anchor="middle" x="428.8816" y="-200.4293" font-family="Times,serif" font-size="16.00" fill="#ffffff">vraies</text>
</g>
<!-- a1&#45;&gt;b2 -->
<g id="edge2" class="edge">
<title>a1-&gt;b2:n</title>
<path fill="none" stroke="#000000" d="M394.6693,-295.4093C410.6455,-286.4161 423.8188,-274.2119 427.7112,-257.7976"/>
<polygon fill="#000000" stroke="#000000" points="431.214,-257.9739 428.8816,-247.639 424.26,-257.1727 431.214,-257.9739"/>
</g>
<!-- e1 -->
<g id="node6" class="node">
<title>e1</title>
<path fill="#fafafa" stroke="transparent" d="M345.8816,-236.8293C345.8816,-236.8293 315.8816,-236.8293 315.8816,-236.8293 309.8816,-236.8293 303.8816,-230.8293 303.8816,-224.8293 303.8816,-224.8293 303.8816,-204.8293 303.8816,-204.8293 303.8816,-198.8293 309.8816,-192.8293 315.8816,-192.8293 315.8816,-192.8293 345.8816,-192.8293 345.8816,-192.8293 351.8816,-192.8293 357.8816,-198.8293 357.8816,-204.8293 357.8816,-204.8293 357.8816,-224.8293 357.8816,-224.8293 357.8816,-230.8293 351.8816,-236.8293 345.8816,-236.8293"/>
<text text-anchor="middle" x="330.8816" y="-205.8293" font-family="Times,serif" font-size="30.00" fill="#8b1a1a">+</text>
</g>
<!-- b1&#45;&gt;e1 -->
<!-- e2 -->
<g id="node7" class="node">
<title>e2</title>
<path fill="#fafafa" stroke="transparent" d="M590.0401,-238.231C590.0401,-238.231 511.7231,-238.231 511.7231,-238.231 505.7231,-238.231 499.7231,-232.231 499.7231,-226.231 499.7231,-226.231 499.7231,-203.4275 499.7231,-203.4275 499.7231,-197.4275 505.7231,-191.4275 511.7231,-191.4275 511.7231,-191.4275 590.0401,-191.4275 590.0401,-191.4275 596.0401,-191.4275 602.0401,-197.4275 602.0401,-203.4275 602.0401,-203.4275 602.0401,-226.231 602.0401,-226.231 602.0401,-232.231 596.0401,-238.231 590.0401,-238.231"/>
<text text-anchor="middle" x="550.8816" y="-219.6293" font-family="Times,serif" font-size="16.00" fill="#cd2626">Point de</text>
<text text-anchor="middle" x="550.8816" y="-200.4293" font-family="Times,serif" font-size="16.00" fill="#cd2626">départ assuré</text>
</g>
<!-- b2&#45;&gt;e2 -->
<!-- line -->
<g id="node4" class="node">
<title>line</title>
<polygon fill="none" stroke="transparent" points="474.8816,-156.0195 186.8816,-156.0195 186.8816,-155.0195 474.8816,-155.0195 474.8816,-156.0195"/>
<polyline fill="none" stroke="#7f7f7f" points="186.8816,-155.0195 474.8816,-155.0195 "/>
</g>
<!-- c1 -->
<g id="node5" class="node">
<title>c1</title>
<ellipse fill="#c7c7c7" stroke="#7f7f7f" cx="330.8816" cy="-87.2098" rx="62.707" ry="32.6206"/>
<text text-anchor="middle" x="330.8816" y="-92.0098" font-family="Times,serif" font-size="16.00" fill="#000000">Conclusion</text>
<text text-anchor="middle" x="330.8816" y="-72.8098" font-family="Times,serif" font-size="16.00" fill="#000000">vraie</text>
</g>
<!-- line&#45;&gt;c1 -->
<g id="edge3" class="edge">
<title>line-&gt;c1</title>
<path fill="none" stroke="#000000" d="M330.8816,-154.7524C330.8816,-151.9353 330.8816,-141.7164 330.8816,-130.0493"/>
<polygon fill="#000000" stroke="#000000" points="334.3817,-130.0391 330.8816,-120.0391 327.3817,-130.0391 334.3817,-130.0391"/>
</g>
<!-- e4 -->
<g id="node9" class="node">
<title>e4</title>
<path fill="#fafafa" stroke="transparent" d="M375.0046,-46.6017C375.0046,-46.6017 286.7586,-46.6017 286.7586,-46.6017 280.7586,-46.6017 274.7586,-40.6017 274.7586,-34.6017 274.7586,-34.6017 274.7586,-11.7983 274.7586,-11.7983 274.7586,-5.7983 280.7586,.2017 286.7586,.2017 286.7586,.2017 375.0046,.2017 375.0046,.2017 381.0046,.2017 387.0046,-5.7983 387.0046,-11.7983 387.0046,-11.7983 387.0046,-34.6017 387.0046,-34.6017 387.0046,-40.6017 381.0046,-46.6017 375.0046,-46.6017"/>
<text text-anchor="middle" x="330.8816" y="-28" font-family="Times,serif" font-size="16.00" fill="#cd2626">Point d'arrivée</text>
<text text-anchor="middle" x="330.8816" y="-8.8" font-family="Times,serif" font-size="16.00" fill="#cd2626">assuré</text>
</g>
<!-- c1&#45;&gt;e4 -->
<!-- e1&#45;&gt;b2 -->
<!-- e1&#45;&gt;line -->
<!-- e3 -->
<g id="node8" class="node">
<title>e3</title>
<path fill="#fafafa" stroke="transparent" d="M93.6451,-238.231C93.6451,-238.231 12.1181,-238.231 12.1181,-238.231 6.1181,-238.231 .1181,-232.231 .1181,-226.231 .1181,-226.231 .1181,-203.4275 .1181,-203.4275 .1181,-197.4275 6.1181,-191.4275 12.1181,-191.4275 12.1181,-191.4275 93.6451,-191.4275 93.6451,-191.4275 99.6451,-191.4275 105.6451,-197.4275 105.6451,-203.4275 105.6451,-203.4275 105.6451,-226.231 105.6451,-226.231 105.6451,-232.231 99.6451,-238.231 93.6451,-238.231"/>
<text text-anchor="middle" x="52.8816" y="-219.6293" font-family="Times,serif" font-size="16.00" fill="#cd2626">Cheminement</text>
<text text-anchor="middle" x="52.8816" y="-200.4293" font-family="Times,serif" font-size="16.00" fill="#cd2626">assuré</text>
</g>
<!-- e3&#45;&gt;b1 -->
</g>
</svg>