<?xml version="1.0" encoding="UTF-8" standalone="no"?><!DOCTYPE svg PUBLIC "-//W3C//DTD SVG 1.1//EN" "http://www.w3.org/Graphics/SVG/1.1/DTD/svg11.dtd"><!-- Generated by graphviz version 2.40.1 (20161225.0304)
 --><!-- Title: G Pages: 1 --><svg xmlns="http://www.w3.org/2000/svg" xmlns:xlink="http://www.w3.org/1999/xlink" width="587pt" height="276pt" viewBox="0.00 0.00 586.76 276.44">
<g id="graph0" class="graph" transform="scale(1 1) rotate(0) translate(14.4 262.039)">
<title>G</title>
<polygon fill="#fafafa" stroke="transparent" points="-14.4,14.4 -14.4,-262.039 572.3608,-262.039 572.3608,14.4 -14.4,14.4"/>
<!-- b1 -->
<g id="node1" class="node">
<title>b1</title>
<ellipse fill="#8b0000" stroke="#000000" cx="181.8816" cy="-214.8293" rx="57.7462" ry="32.6206"/>
<text text-anchor="middle" x="181.8816" y="-219.6293" font-family="Times,serif" font-size="16.00" fill="#ffffff">Inférence</text>
<text text-anchor="middle" x="181.8816" y="-200.4293" font-family="Times,serif" font-size="16.00" fill="#ffffff">déductive</text>
</g>
<!-- e1 -->
<g id="node5" class="node">
<title>e1</title>
<path fill="#fafafa" stroke="transparent" d="M295.8816,-236.8293C295.8816,-236.8293 265.8816,-236.8293 265.8816,-236.8293 259.8816,-236.8293 253.8816,-230.8293 253.8816,-224.8293 253.8816,-224.8293 253.8816,-204.8293 253.8816,-204.8293 253.8816,-198.8293 259.8816,-192.8293 265.8816,-192.8293 265.8816,-192.8293 295.8816,-192.8293 295.8816,-192.8293 301.8816,-192.8293 307.8816,-198.8293 307.8816,-204.8293 307.8816,-204.8293 307.8816,-224.8293 307.8816,-224.8293 307.8816,-230.8293 301.8816,-236.8293 295.8816,-236.8293"/>
<text text-anchor="start" x="272.4231" y="-206.8293" font-family="Times,serif" font-weight="bold" font-size="30.00" fill="#8b1a1a">+</text>
</g>
<!-- b1&#45;&gt;e1 -->
<!-- b2 -->
<g id="node2" class="node">
<title>b2</title>
<ellipse fill="#8b0000" stroke="#000000" cx="381.8816" cy="-214.8293" rx="60.3331" ry="32.6206"/>
<text text-anchor="middle" x="381.8816" y="-219.6293" font-family="Times,serif" font-size="16.00" fill="#ffffff">Prémisses</text>
<text text-anchor="middle" x="381.8816" y="-200.4293" font-family="Times,serif" font-size="16.00" fill="#ffffff">vraies</text>
</g>
<!-- e2 -->
<g id="node6" class="node">
<title>e2</title>
<path fill="#fafafa" stroke="transparent" d="M546.0401,-238.231C546.0401,-238.231 467.7231,-238.231 467.7231,-238.231 461.7231,-238.231 455.7231,-232.231 455.7231,-226.231 455.7231,-226.231 455.7231,-203.4275 455.7231,-203.4275 455.7231,-197.4275 461.7231,-191.4275 467.7231,-191.4275 467.7231,-191.4275 546.0401,-191.4275 546.0401,-191.4275 552.0401,-191.4275 558.0401,-197.4275 558.0401,-203.4275 558.0401,-203.4275 558.0401,-226.231 558.0401,-226.231 558.0401,-232.231 552.0401,-238.231 546.0401,-238.231"/>
<text text-anchor="middle" x="506.8816" y="-219.6293" font-family="Times,serif" font-size="16.00" fill="#cd2626">Point de</text>
<text text-anchor="middle" x="506.8816" y="-200.4293" font-family="Times,serif" font-size="16.00" fill="#cd2626">départ assuré</text>
</g>
<!-- b2&#45;&gt;e2 -->
<!-- line -->
<g id="node3" class="node">
<title>line</title>
<polygon fill="none" stroke="transparent" points="424.8816,-156.0195 136.8816,-156.0195 136.8816,-155.0195 424.8816,-155.0195 424.8816,-156.0195"/>
<polyline fill="none" stroke="#7f7f7f" points="136.8816,-155.0195 424.8816,-155.0195 "/>
</g>
<!-- c1 -->
<g id="node4" class="node">
<title>c1</title>
<ellipse fill="#000000" stroke="#7f7f7f" cx="280.8816" cy="-87.2098" rx="65.864" ry="32.6206"/>
<text text-anchor="middle" x="280.8816" y="-92.0098" font-family="Times,serif" font-size="16.00" fill="#ffffff">Conclusion</text>
<text text-anchor="middle" x="280.8816" y="-72.8098" font-family="Times,serif" font-size="16.00" fill="#ffffff">vraie</text>
</g>
<!-- line&#45;&gt;c1 -->
<g id="edge1" class="edge">
<title>line-&gt;c1</title>
<path fill="none" stroke="#000000" d="M280.8816,-154.7524C280.8816,-151.9353 280.8816,-141.7164 280.8816,-130.0493"/>
<polygon fill="#000000" stroke="#000000" points="284.3817,-130.0391 280.8816,-120.0391 277.3817,-130.0391 284.3817,-130.0391"/>
</g>
<!-- e4 -->
<g id="node8" class="node">
<title>e4</title>
<path fill="#fafafa" stroke="transparent" d="M327.0046,-46.6017C327.0046,-46.6017 234.7586,-46.6017 234.7586,-46.6017 228.7586,-46.6017 222.7586,-40.6017 222.7586,-34.6017 222.7586,-34.6017 222.7586,-11.7983 222.7586,-11.7983 222.7586,-5.7983 228.7586,.2017 234.7586,.2017 234.7586,.2017 327.0046,.2017 327.0046,.2017 333.0046,.2017 339.0046,-5.7983 339.0046,-11.7983 339.0046,-11.7983 339.0046,-34.6017 339.0046,-34.6017 339.0046,-40.6017 333.0046,-46.6017 327.0046,-46.6017"/>
<text text-anchor="middle" x="280.8816" y="-28" font-family="Times,serif" font-size="16.00" fill="#cd2626">Point d'arrivée</text>
<text text-anchor="middle" x="280.8816" y="-8.8" font-family="Times,serif" font-size="16.00" fill="#cd2626">assuré</text>
</g>
<!-- c1&#45;&gt;e4 -->
<!-- e1&#45;&gt;b2 -->
<!-- e1&#45;&gt;line -->
<!-- e3 -->
<g id="node7" class="node">
<title>e3</title>
<path fill="#fafafa" stroke="transparent" d="M97.6451,-238.231C97.6451,-238.231 12.1181,-238.231 12.1181,-238.231 6.1181,-238.231 .1181,-232.231 .1181,-226.231 .1181,-226.231 .1181,-203.4275 .1181,-203.4275 .1181,-197.4275 6.1181,-191.4275 12.1181,-191.4275 12.1181,-191.4275 97.6451,-191.4275 97.6451,-191.4275 103.6451,-191.4275 109.6451,-197.4275 109.6451,-203.4275 109.6451,-203.4275 109.6451,-226.231 109.6451,-226.231 109.6451,-232.231 103.6451,-238.231 97.6451,-238.231"/>
<text text-anchor="middle" x="54.8816" y="-219.6293" font-family="Times,serif" font-size="16.00" fill="#cd2626">Cheminement</text>
<text text-anchor="middle" x="54.8816" y="-200.4293" font-family="Times,serif" font-size="16.00" fill="#cd2626">assuré</text>
</g>
<!-- e3&#45;&gt;b1 -->
</g>
</svg>