<?xml version="1.0" encoding="UTF-8" standalone="no"?><!DOCTYPE svg PUBLIC "-//W3C//DTD SVG 1.1//EN" "http://www.w3.org/Graphics/SVG/1.1/DTD/svg11.dtd"><!-- Generated by graphviz version 2.40.1 (20161225.0304)
 --><!-- Title: G Pages: 1 --><svg xmlns="http://www.w3.org/2000/svg" xmlns:xlink="http://www.w3.org/1999/xlink" width="467pt" height="306pt" viewBox="0.00 0.00 466.56 306.41">
<g id="graph0" class="graph" transform="scale(1 1) rotate(0) translate(21.6 284.8077)">
<title>G</title>
<polygon fill="#fafafa" stroke="transparent" points="-21.6,21.6 -21.6,-284.8077 444.9616,-284.8077 444.9616,21.6 -21.6,21.6"/>
<!-- a1 -->
<g id="node1" class="node">
<title>a1</title>
<ellipse fill="#000000" stroke="#000000" cx="207.8256" cy="-227.0039" rx="85.0193" ry="36.4089"/>
<text text-anchor="middle" x="207.8256" y="-232.4039" font-family="Times,serif" font-size="18.00" fill="#ffffff">La</text>
<text text-anchor="middle" x="207.8256" y="-210.8039" font-family="Times,serif" font-size="18.00" fill="#ffffff">démonstration</text>
</g>
<!-- b1 -->
<g id="node2" class="node">
<title>b1</title>
<path fill="#8b0000" stroke="#000000" d="M114.4008,-155.8C114.4008,-155.8 35.2504,-155.8 35.2504,-155.8 29.2504,-155.8 23.2504,-149.8 23.2504,-143.8 23.2504,-143.8 23.2504,-131.8 23.2504,-131.8 23.2504,-125.8 29.2504,-119.8 35.2504,-119.8 35.2504,-119.8 114.4008,-119.8 114.4008,-119.8 120.4008,-119.8 126.4008,-125.8 126.4008,-131.8 126.4008,-131.8 126.4008,-143.8 126.4008,-143.8 126.4008,-149.8 120.4008,-155.8 114.4008,-155.8"/>
<text text-anchor="middle" x="74.8256" y="-133" font-family="Times,serif" font-size="16.00" fill="#ffffff">Au sens large</text>
</g>
<!-- a1&#45;&gt;b1 -->
<g id="edge1" class="edge">
<title>a1-&gt;b1:n</title>
<path fill="none" stroke="#000000" d="M129.3055,-212.7416C103.9973,-203.8139 81.0918,-189.3544 75.9154,-165.9786"/>
<polygon fill="#000000" stroke="#000000" points="79.3704,-165.3705 74.8256,-155.8 72.4102,-166.1158 79.3704,-165.3705"/>
</g>
<!-- b2 -->
<g id="node3" class="node">
<title>b2</title>
<path fill="#8b0000" stroke="#000000" d="M252.5715,-155.8C252.5715,-155.8 163.0797,-155.8 163.0797,-155.8 157.0797,-155.8 151.0797,-149.8 151.0797,-143.8 151.0797,-143.8 151.0797,-131.8 151.0797,-131.8 151.0797,-125.8 157.0797,-119.8 163.0797,-119.8 163.0797,-119.8 252.5715,-119.8 252.5715,-119.8 258.5715,-119.8 264.5715,-125.8 264.5715,-131.8 264.5715,-131.8 264.5715,-143.8 264.5715,-143.8 264.5715,-149.8 258.5715,-155.8 252.5715,-155.8"/>
<text text-anchor="middle" x="207.8256" y="-133" font-family="Times,serif" font-size="16.00" fill="#ffffff">Au sens formel</text>
</g>
<!-- a1&#45;&gt;b2 -->
<g id="edge2" class="edge">
<title>a1-&gt;b2:n</title>
<path fill="none" stroke="#000000" d="M207.8256,-190.7806C207.8256,-182.8088 207.8256,-174.2398 207.8256,-165.8653"/>
<polygon fill="#000000" stroke="#000000" points="211.3257,-165.8 207.8256,-155.8 204.3257,-165.8 211.3257,-165.8"/>
</g>
<!-- b3 -->
<g id="node4" class="node">
<title>b3</title>
<path fill="#8b0000" stroke="#000000" d="M382.4136,-155.8C382.4136,-155.8 303.2376,-155.8 303.2376,-155.8 297.2376,-155.8 291.2376,-149.8 291.2376,-143.8 291.2376,-143.8 291.2376,-131.8 291.2376,-131.8 291.2376,-125.8 297.2376,-119.8 303.2376,-119.8 303.2376,-119.8 382.4136,-119.8 382.4136,-119.8 388.4136,-119.8 394.4136,-125.8 394.4136,-131.8 394.4136,-131.8 394.4136,-143.8 394.4136,-143.8 394.4136,-149.8 388.4136,-155.8 382.4136,-155.8"/>
<text text-anchor="middle" x="342.8256" y="-133" font-family="Times,serif" font-size="16.00" fill="#ffffff">Au sens strict</text>
</g>
<!-- a1&#45;&gt;b3 -->
<g id="edge3" class="edge">
<title>a1-&gt;b3:n</title>
<path fill="none" stroke="#000000" d="M286.7463,-213.3343C312.8269,-204.4567 336.5648,-189.8529 341.7702,-165.8597"/>
<polygon fill="#000000" stroke="#000000" points="345.263,-166.1106 342.8256,-155.8 338.3012,-165.3802 345.263,-166.1106"/>
</g>
<!-- c1 -->
<g id="node5" class="node">
<title>c1</title>
<polygon fill="#ffffff" stroke="#7f7f7f" points="127.4773,-75.0012 .1739,-75.0012 .1739,-9.7988 127.4773,-9.7988 127.4773,-75.0012"/>
<text text-anchor="middle" x="63.8256" y="-56.8" font-family="Times,serif" font-size="16.00" fill="#000000">= toute preuve de</text>
<text text-anchor="middle" x="63.8256" y="-37.6" font-family="Times,serif" font-size="16.00" fill="#000000">la vérité d'une</text>
<text text-anchor="middle" x="63.8256" y="-18.4" font-family="Times,serif" font-size="16.00" fill="#000000">affirmation</text>
</g>
<!-- b1&#45;&gt;c1 -->
<g id="edge4" class="edge">
<title>b1-&gt;c1</title>
<path fill="none" stroke="#000000" d="M72.7047,-119.4059C71.5731,-109.5922 70.13,-97.0764 68.7377,-85.0014"/>
<polygon fill="#000000" stroke="#000000" points="72.2106,-84.5643 67.5881,-75.0311 65.2567,-85.3662 72.2106,-84.5643"/>
</g>
<!-- c2 -->
<g id="node6" class="node">
<title>c2</title>
<polygon fill="#ffffff" stroke="#7f7f7f" points="274.0209,-75.0012 141.6303,-75.0012 141.6303,-9.7988 274.0209,-9.7988 274.0209,-75.0012"/>
<text text-anchor="middle" x="207.8256" y="-56.8" font-family="Times,serif" font-size="16.00" fill="#000000">= une forme de</text>
<text text-anchor="middle" x="207.8256" y="-37.6" font-family="Times,serif" font-size="16.00" fill="#000000">raisonnement : la</text>
<text text-anchor="middle" x="207.8256" y="-18.4" font-family="Times,serif" font-size="16.00" fill="#000000">déduction logique</text>
</g>
<!-- b2&#45;&gt;c2 -->
<g id="edge5" class="edge">
<title>b2-&gt;c2</title>
<path fill="none" stroke="#000000" d="M207.8256,-119.4059C207.8256,-109.6903 207.8256,-97.3264 207.8256,-85.3638"/>
<polygon fill="#000000" stroke="#000000" points="211.3257,-85.0311 207.8256,-75.0311 204.3257,-85.0311 211.3257,-85.0311"/>
</g>
<!-- c3 -->
<g id="node7" class="node">
<title>c3</title>
<polygon fill="#ffffff" stroke="#7f7f7f" points="423.3976,-84.7002 288.2536,-84.7002 288.2536,-.0998 423.3976,-.0998 423.3976,-84.7002"/>
<text text-anchor="middle" x="355.8256" y="-66.4" font-family="Times,serif" font-size="16.00" fill="#000000">= une déduction</text>
<text text-anchor="middle" x="355.8256" y="-47.2" font-family="Times,serif" font-size="16.00" fill="#000000">logique à partir de</text>
<text text-anchor="middle" x="355.8256" y="-28" font-family="Times,serif" font-size="16.00" fill="#000000">prémisses dont la</text>
<text text-anchor="middle" x="355.8256" y="-8.8" font-family="Times,serif" font-size="16.00" fill="#000000">vérité est certaine</text>
</g>
<!-- b3&#45;&gt;c3 -->
<g id="edge6" class="edge">
<title>b3-&gt;c3</title>
<path fill="none" stroke="#000000" d="M345.3321,-119.4059C346.3078,-112.2461 347.4794,-103.6481 348.6807,-94.8323"/>
<polygon fill="#000000" stroke="#000000" points="352.1585,-95.2325 350.0408,-84.8515 345.2226,-94.2873 352.1585,-95.2325"/>
</g>
</g>
</svg>