<?xml version="1.0" encoding="UTF-8" standalone="no"?>
<!DOCTYPE svg PUBLIC "-//W3C//DTD SVG 1.1//EN"
 "http://www.w3.org/Graphics/SVG/1.1/DTD/svg11.dtd">
<!-- Generated by graphviz version 2.40.1 (20161225.0304)
 -->
<!-- Title: G Pages: 1 -->
<svg width="347pt" height="331pt"
 viewBox="0.00 0.00 346.59 330.84" xmlns="http://www.w3.org/2000/svg" xmlns:xlink="http://www.w3.org/1999/xlink">
<g id="graph0" class="graph" transform="scale(1 1) rotate(0) translate(14.4 316.439)">
<title>G</title>
<polygon fill="#fafafa" stroke="transparent" points="-14.4,14.4 -14.4,-316.439 332.1893,-316.439 332.1893,14.4 -14.4,14.4"/>
<!-- b1 -->
<g id="node1" class="node">
<title>b1</title>
<ellipse fill="#8b0000" stroke="#000000" cx="57.623" cy="-214.8293" rx="57.7462" ry="32.6206"/>
<text text-anchor="middle" x="57.623" y="-219.6293" font-family="Times,serif" font-size="16.00" fill="#ffffff">Inférence&#13;</text>
<text text-anchor="middle" x="57.623" y="-200.4293" font-family="Times,serif" font-size="16.00" fill="#ffffff">déductive</text>
</g>
<!-- e1 -->
<g id="node5" class="node">
<title>e1</title>
<path fill="#fafafa" stroke="transparent" d="M171.623,-236.8293C171.623,-236.8293 141.623,-236.8293 141.623,-236.8293 135.623,-236.8293 129.623,-230.8293 129.623,-224.8293 129.623,-224.8293 129.623,-204.8293 129.623,-204.8293 129.623,-198.8293 135.623,-192.8293 141.623,-192.8293 141.623,-192.8293 171.623,-192.8293 171.623,-192.8293 177.623,-192.8293 183.623,-198.8293 183.623,-204.8293 183.623,-204.8293 183.623,-224.8293 183.623,-224.8293 183.623,-230.8293 177.623,-236.8293 171.623,-236.8293"/>
<text text-anchor="start" x="148.1645" y="-206.8293" font-family="Times,serif" font-weight="bold" font-size="30.00" fill="#8b1a1a">+</text>
</g>
<!-- b1&#45;&gt;e1 -->
<!-- b2 -->
<g id="node2" class="node">
<title>b2</title>
<ellipse fill="#8b0000" stroke="#000000" cx="257.623" cy="-214.8293" rx="60.3331" ry="32.6206"/>
<text text-anchor="middle" x="257.623" y="-219.6293" font-family="Times,serif" font-size="16.00" fill="#ffffff">Prémisses&#13;</text>
<text text-anchor="middle" x="257.623" y="-200.4293" font-family="Times,serif" font-size="16.00" fill="#ffffff">vraies</text>
</g>
<!-- line -->
<g id="node3" class="node">
<title>line</title>
<polygon fill="none" stroke="transparent" points="300.623,-156.0195 12.623,-156.0195 12.623,-155.0195 300.623,-155.0195 300.623,-156.0195"/>
<polyline fill="none" stroke="#7f7f7f" points="12.623,-155.0195 300.623,-155.0195 "/>
</g>
<!-- c1 -->
<g id="node4" class="node">
<title>c1</title>
<ellipse fill="#000000" stroke="#7f7f7f" cx="156.623" cy="-87.2098" rx="65.864" ry="32.6206"/>
<text text-anchor="middle" x="156.623" y="-92.0098" font-family="Times,serif" font-size="16.00" fill="#ffffff">Conclusion&#13;</text>
<text text-anchor="middle" x="156.623" y="-72.8098" font-family="Times,serif" font-size="16.00" fill="#ffffff">vraie</text>
</g>
<!-- line&#45;&gt;c1 -->
<g id="edge1" class="edge">
<title>line&#45;&gt;c1</title>
<path fill="none" stroke="#000000" d="M156.623,-154.7524C156.623,-151.9353 156.623,-141.7164 156.623,-130.0493"/>
<polygon fill="#000000" stroke="#000000" points="160.1231,-130.0391 156.623,-120.0391 153.1231,-130.0391 160.1231,-130.0391"/>
</g>
<!-- e4 -->
<g id="node8" class="node">
<title>e4</title>
<path fill="#fafafa" stroke="transparent" d="M202.746,-46.6017C202.746,-46.6017 110.5,-46.6017 110.5,-46.6017 104.5,-46.6017 98.5,-40.6017 98.5,-34.6017 98.5,-34.6017 98.5,-11.7983 98.5,-11.7983 98.5,-5.7983 104.5,.2017 110.5,.2017 110.5,.2017 202.746,.2017 202.746,.2017 208.746,.2017 214.746,-5.7983 214.746,-11.7983 214.746,-11.7983 214.746,-34.6017 214.746,-34.6017 214.746,-40.6017 208.746,-46.6017 202.746,-46.6017"/>
<text text-anchor="middle" x="156.623" y="-28" font-family="Times,serif" font-size="16.00" fill="#cd2626">Point d&#39;arrivée&#13;</text>
<text text-anchor="middle" x="156.623" y="-8.8" font-family="Times,serif" font-size="16.00" fill="#cd2626">assuré</text>
</g>
<!-- c1&#45;&gt;e4 -->
<!-- e1&#45;&gt;b2 -->
<!-- e1&#45;&gt;line -->
<!-- e2 -->
<g id="node6" class="node">
<title>e2</title>
<path fill="#fafafa" stroke="transparent" d="M296.7815,-302.2408C296.7815,-302.2408 218.4645,-302.2408 218.4645,-302.2408 212.4645,-302.2408 206.4645,-296.2408 206.4645,-290.2408 206.4645,-290.2408 206.4645,-267.4373 206.4645,-267.4373 206.4645,-261.4373 212.4645,-255.4373 218.4645,-255.4373 218.4645,-255.4373 296.7815,-255.4373 296.7815,-255.4373 302.7815,-255.4373 308.7815,-261.4373 308.7815,-267.4373 308.7815,-267.4373 308.7815,-290.2408 308.7815,-290.2408 308.7815,-296.2408 302.7815,-302.2408 296.7815,-302.2408"/>
<text text-anchor="middle" x="257.623" y="-283.639" font-family="Times,serif" font-size="16.00" fill="#cd2626">Point de&#13;</text>
<text text-anchor="middle" x="257.623" y="-264.439" font-family="Times,serif" font-size="16.00" fill="#cd2626">départ assuré</text>
</g>
<!-- e2&#45;&gt;b2 -->
<!-- e3 -->
<g id="node7" class="node">
<title>e3</title>
<path fill="#fafafa" stroke="transparent" d="M100.3864,-302.2408C100.3864,-302.2408 14.8595,-302.2408 14.8595,-302.2408 8.8595,-302.2408 2.8595,-296.2408 2.8595,-290.2408 2.8595,-290.2408 2.8595,-267.4373 2.8595,-267.4373 2.8595,-261.4373 8.8595,-255.4373 14.8595,-255.4373 14.8595,-255.4373 100.3864,-255.4373 100.3864,-255.4373 106.3864,-255.4373 112.3864,-261.4373 112.3864,-267.4373 112.3864,-267.4373 112.3864,-290.2408 112.3864,-290.2408 112.3864,-296.2408 106.3864,-302.2408 100.3864,-302.2408"/>
<text text-anchor="middle" x="57.623" y="-283.639" font-family="Times,serif" font-size="16.00" fill="#cd2626">Cheminement&#13;</text>
<text text-anchor="middle" x="57.623" y="-264.439" font-family="Times,serif" font-size="16.00" fill="#cd2626">assuré</text>
</g>
<!-- e3&#45;&gt;b1 -->
</g>
</svg>
