<?xml version="1.0" encoding="UTF-8" standalone="no"?><!DOCTYPE svg PUBLIC "-//W3C//DTD SVG 1.1//EN" "http://www.w3.org/Graphics/SVG/1.1/DTD/svg11.dtd"><!-- Generated by graphviz version 2.40.1 (20161225.0304)
 --><!-- Title: G Pages: 1 --><svg xmlns="http://www.w3.org/2000/svg" xmlns:xlink="http://www.w3.org/1999/xlink" width="642pt" height="601pt" viewBox="0.00 0.00 641.74 600.80">
<g id="graph0" class="graph" transform="scale(1 1) rotate(0) translate(21.6 579.2)">
<title>G</title>
<polygon fill="#fafafa" stroke="transparent" points="-21.6,21.6 -21.6,-579.2 620.1401,-579.2 620.1401,21.6 -21.6,21.6"/>
<!-- a1 -->
<g id="node1" class="node">
<title>a1</title>
<ellipse fill="#000000" stroke="#000000" cx="102.3044" cy="-366.4" rx="102.1091" ry="51.4548"/>
<text text-anchor="middle" x="102.3044" y="-382.6" font-family="Times,serif" font-size="18.00" fill="#ffffff">Si l'expérience</text>
<text text-anchor="middle" x="102.3044" y="-361" font-family="Times,serif" font-size="18.00" fill="#ffffff">est en désaccord</text>
<text text-anchor="middle" x="102.3044" y="-339.4" font-family="Times,serif" font-size="18.00" fill="#ffffff">avec la théorie …</text>
</g>
<!-- b1 -->
<g id="node2" class="node">
<title>b1</title>
<ellipse fill="#8b0000" stroke="#000000" cx="301.816" cy="-490.4" rx="58.7125" ry="32.6206"/>
<text text-anchor="middle" x="301.816" y="-495.2" font-family="Times,serif" font-size="16.00" fill="#ffffff">Première</text>
<text text-anchor="middle" x="301.816" y="-476" font-family="Times,serif" font-size="16.00" fill="#ffffff">possibilité</text>
</g>
<!-- a1&#45;&gt;b1 -->
<g id="edge1" class="edge">
<title>a1-&gt;b1:w</title>
<path fill="none" stroke="#000000" d="M131.7826,-415.7644C154.7692,-447.8451 189.9265,-484.6393 232.6872,-489.7896"/>
<polygon fill="#000000" stroke="#000000" points="232.6235,-493.292 242.816,-490.4 233.0447,-486.3047 232.6235,-493.292"/>
</g>
<!-- b2 -->
<g id="node3" class="node">
<title>b2</title>
<ellipse fill="#8b0000" stroke="#000000" cx="301.816" cy="-366.4" rx="62.4153" ry="32.6206"/>
<text text-anchor="middle" x="301.816" y="-371.2" font-family="Times,serif" font-size="16.00" fill="#ffffff">Deuxième</text>
<text text-anchor="middle" x="301.816" y="-352" font-family="Times,serif" font-size="16.00" fill="#ffffff">possibilité</text>
</g>
<!-- a1&#45;&gt;b2 -->
<g id="edge2" class="edge">
<title>a1-&gt;b2:w</title>
<path fill="none" stroke="#000000" d="M204.8037,-366.4C213.1051,-366.4 221.4359,-366.4 229.5926,-366.4"/>
<polygon fill="#000000" stroke="#000000" points="229.816,-369.9001 239.816,-366.4 229.816,-362.9001 229.816,-369.9001"/>
</g>
<!-- b3 -->
<g id="node4" class="node">
<title>b3</title>
<ellipse fill="#8b0000" stroke="#000000" cx="301.816" cy="-252.4" rx="61.6657" ry="32.6206"/>
<text text-anchor="middle" x="301.816" y="-257.2" font-family="Times,serif" font-size="16.00" fill="#ffffff">Troisième</text>
<text text-anchor="middle" x="301.816" y="-238" font-family="Times,serif" font-size="16.00" fill="#ffffff">possibilité</text>
</g>
<!-- a1&#45;&gt;b3 -->
<g id="edge3" class="edge">
<title>a1-&gt;b3:w</title>
<path fill="none" stroke="#000000" d="M134.6776,-317.3921C157.4182,-288.9081 190.6868,-257.7077 229.76,-253.0065"/>
<polygon fill="#000000" stroke="#000000" points="230.0449,-256.4958 239.816,-252.4 229.6234,-249.5085 230.0449,-256.4958"/>
</g>
<!-- c1 -->
<g id="node5" class="node">
<title>c1</title>
<polygon fill="#ffffff" stroke="#7f7f7f" points="587.3121,-557.8017 410.2513,-557.8017 410.2513,-510.9983 587.3121,-510.9983 587.3121,-557.8017"/>
<text text-anchor="middle" x="498.7817" y="-539.2" font-family="Times,serif" font-size="16.00" fill="#000000">La théorie est fausse :</text>
<text text-anchor="middle" x="498.7817" y="-520" font-family="Times,serif" font-size="16.00" fill="#000000">il faut changer de théorie</text>
</g>
<!-- b1&#45;&gt;c1 -->
<g id="edge4" class="edge">
<title>b1-&gt;c1</title>
<path fill="none" stroke="#000000" d="M356.4204,-502.598C370.0556,-505.644 385.1015,-509.0051 400.1519,-512.3672"/>
<polygon fill="#000000" stroke="#000000" points="399.5055,-515.809 410.028,-514.5734 401.0317,-508.9774 399.5055,-515.809"/>
</g>
<!-- c2 -->
<g id="node6" class="node">
<title>c2</title>
<polygon fill="#ffffff" stroke="#7f7f7f" points="590.6681,-389.8017 406.8953,-389.8017 406.8953,-342.9983 590.6681,-342.9983 590.6681,-389.8017"/>
<text text-anchor="middle" x="498.7817" y="-371.2" font-family="Times,serif" font-size="16.00" fill="#000000">L'expérience est faussée :</text>
<text text-anchor="middle" x="498.7817" y="-352" font-family="Times,serif" font-size="16.00" fill="#000000">il faut refaire l'expérience</text>
</g>
<!-- b2&#45;&gt;c2 -->
<g id="edge5" class="edge">
<title>b2-&gt;c2</title>
<path fill="none" stroke="#000000" d="M364.1372,-366.4C374.4919,-366.4 385.466,-366.4 396.5038,-366.4"/>
<polygon fill="#000000" stroke="#000000" points="396.6425,-369.9001 406.6425,-366.4 396.6424,-362.9001 396.6425,-369.9001"/>
</g>
<!-- c3 -->
<g id="node7" class="node">
<title>c3</title>
<polygon fill="#ffffff" stroke="#7f7f7f" points="598.2991,-202.4 399.2643,-202.4 399.2643,-98.4 598.2991,-98.4 598.2991,-202.4"/>
<text text-anchor="middle" x="498.7817" y="-184" font-family="Times,serif" font-size="16.00" fill="#000000">On peut sauver la théorie en</text>
<text text-anchor="middle" x="498.7817" y="-164.8" font-family="Times,serif" font-size="16.00" fill="#000000">ajoutant, en supprimant ou</text>
<text text-anchor="middle" x="498.7817" y="-145.6" font-family="Times,serif" font-size="16.00" fill="#000000">en modifiant une hypothèse</text>
<text text-anchor="middle" x="498.7817" y="-126.4" font-family="Times,serif" font-size="16.00" fill="#000000">secondaire, qui n'est pas au</text>
<text text-anchor="middle" x="498.7817" y="-107.2" font-family="Times,serif" font-size="16.00" fill="#000000">cœur de la théorie</text>
</g>
<!-- b3&#45;&gt;c3 -->
<g id="edge6" class="edge">
<title>b3-&gt;c3</title>
<path fill="none" stroke="#000000" d="M346.0189,-229.5092C359.2929,-222.6352 374.48,-214.7705 390.0122,-206.727"/>
<polygon fill="#000000" stroke="#000000" points="391.9149,-209.6832 399.1853,-201.9766 388.6959,-203.4672 391.9149,-209.6832"/>
</g>
<!-- e1 -->
<g id="node8" class="node">
<title>e1</title>
<path fill="#fafafa" stroke="transparent" d="M569.9013,-497.0012C569.9013,-497.0012 427.6621,-497.0012 427.6621,-497.0012 421.6621,-497.0012 415.6621,-491.0012 415.6621,-485.0012 415.6621,-485.0012 415.6621,-443.7988 415.6621,-443.7988 415.6621,-437.7988 421.6621,-431.7988 427.6621,-431.7988 427.6621,-431.7988 569.9013,-431.7988 569.9013,-431.7988 575.9013,-431.7988 581.9013,-437.7988 581.9013,-443.7988 581.9013,-443.7988 581.9013,-485.0012 581.9013,-485.0012 581.9013,-491.0012 575.9013,-497.0012 569.9013,-497.0012"/>
<text text-anchor="middle" x="498.7817" y="-478.8" font-family="Times,serif" font-size="16.00" fill="#cd2626">Exemple : les</text>
<text text-anchor="middle" x="498.7817" y="-459.6" font-family="Times,serif" font-size="16.00" fill="#cd2626">premières hypothèses</text>
<text text-anchor="middle" x="498.7817" y="-440.4" font-family="Times,serif" font-size="16.00" fill="#cd2626">de Semmelweis</text>
</g>
<!-- c1&#45;&gt;e1 -->
<!-- e2 -->
<g id="node9" class="node">
<title>e2</title>
<path fill="#fafafa" stroke="transparent" d="M563.5211,-328.7002C563.5211,-328.7002 434.0423,-328.7002 434.0423,-328.7002 428.0423,-328.7002 422.0423,-322.7002 422.0423,-316.7002 422.0423,-316.7002 422.0423,-256.0998 422.0423,-256.0998 422.0423,-250.0998 428.0423,-244.0998 434.0423,-244.0998 434.0423,-244.0998 563.5211,-244.0998 563.5211,-244.0998 569.5211,-244.0998 575.5211,-250.0998 575.5211,-256.0998 575.5211,-256.0998 575.5211,-316.7002 575.5211,-316.7002 575.5211,-322.7002 569.5211,-328.7002 563.5211,-328.7002"/>
<text text-anchor="middle" x="498.7817" y="-310.4" font-family="Times,serif" font-size="16.00" fill="#cd2626">Exemple : un</text>
<text text-anchor="middle" x="498.7817" y="-291.2" font-family="Times,serif" font-size="16.00" fill="#cd2626">dysfonctionnement</text>
<text text-anchor="middle" x="498.7817" y="-272" font-family="Times,serif" font-size="16.00" fill="#cd2626">technique d'un</text>
<text text-anchor="middle" x="498.7817" y="-252.8" font-family="Times,serif" font-size="16.00" fill="#cd2626">instrument de mesure</text>
</g>
<!-- c2&#45;&gt;e2 -->
<!-- e3 -->
<g id="node10" class="node">
<title>e3</title>
<path fill="#fafafa" stroke="transparent" d="M581.5523,-84.7002C581.5523,-84.7002 416.0111,-84.7002 416.0111,-84.7002 410.0111,-84.7002 404.0111,-78.7002 404.0111,-72.7002 404.0111,-72.7002 404.0111,-12.0998 404.0111,-12.0998 404.0111,-6.0998 410.0111,-.0998 416.0111,-.0998 416.0111,-.0998 581.5523,-.0998 581.5523,-.0998 587.5523,-.0998 593.5523,-6.0998 593.5523,-12.0998 593.5523,-12.0998 593.5523,-72.7002 593.5523,-72.7002 593.5523,-78.7002 587.5523,-84.7002 581.5523,-84.7002"/>
<text text-anchor="middle" x="498.7817" y="-66.4" font-family="Times,serif" font-size="16.00" fill="#cd2626">Exemple : l'ajout de</text>
<text text-anchor="middle" x="498.7817" y="-47.2" font-family="Times,serif" font-size="16.00" fill="#cd2626">l'hypothèse de l'existence</text>
<text text-anchor="middle" x="498.7817" y="-28" font-family="Times,serif" font-size="16.00" fill="#cd2626">de Neptune pour sauver</text>
<text text-anchor="middle" x="498.7817" y="-8.8" font-family="Times,serif" font-size="16.00" fill="#cd2626">la théorie de Newton</text>
</g>
<!-- c3&#45;&gt;e3 -->
<!-- e1&#45;&gt;c2 -->
<!-- e2&#45;&gt;c3 -->
</g>
</svg>