<?xml version="1.0" encoding="UTF-8" standalone="no"?><!DOCTYPE svg PUBLIC "-//W3C//DTD SVG 1.1//EN" "http://www.w3.org/Graphics/SVG/1.1/DTD/svg11.dtd"><!-- Generated by graphviz version 2.40.1 (20161225.0304)
 --><!-- Title: G Pages: 1 --><svg xmlns="http://www.w3.org/2000/svg" xmlns:xlink="http://www.w3.org/1999/xlink" width="403pt" height="347pt" viewBox="0.00 0.00 403.12 347.37">
<g id="graph0" class="graph" transform="scale(1 1) rotate(0) translate(21.6 325.7743)">
<title>G</title>
<polygon fill="#fafafa" stroke="transparent" points="-21.6,21.6 -21.6,-325.7743 381.5216,-325.7743 381.5216,21.6 -21.6,21.6"/>
<!-- a1 -->
<g id="node1" class="node">
<title>a1</title>
<ellipse fill="#000000" stroke="#000000" cx="172.4296" cy="-252.6969" rx="77.3019" ry="51.4548"/>
<text text-anchor="middle" x="172.4296" y="-268.8969" font-family="Times,serif" font-size="18.00" fill="#ffffff">Deux formes</text>
<text text-anchor="middle" x="172.4296" y="-247.2969" font-family="Times,serif" font-size="18.00" fill="#ffffff">de doute à</text>
<text text-anchor="middle" x="172.4296" y="-225.6969" font-family="Times,serif" font-size="18.00" fill="#ffffff">distinguer</text>
</g>
<!-- b1 -->
<g id="node2" class="node">
<title>b1</title>
<ellipse fill="#8b0000" stroke="#000000" cx="73.4296" cy="-133.4098" rx="51.4262" ry="32.6206"/>
<text text-anchor="middle" x="73.4296" y="-138.2098" font-family="Times,serif" font-size="16.00" fill="#ffffff">Le doute</text>
<text text-anchor="middle" x="73.4296" y="-119.0098" font-family="Times,serif" font-size="16.00" fill="#ffffff">radical</text>
</g>
<!-- a1&#45;&gt;b1 -->
<g id="edge1" class="edge">
<title>a1-&gt;b1:n</title>
<path fill="none" stroke="#000000" d="M109.4509,-222.7412C92.7479,-210.8628 78.2613,-195.3963 74.4227,-176.2433"/>
<polygon fill="#000000" stroke="#000000" points="77.8986,-175.8257 73.4296,-166.2195 70.9327,-176.5159 77.8986,-175.8257"/>
</g>
<!-- b2 -->
<g id="node3" class="node">
<title>b2</title>
<ellipse fill="#8b0000" stroke="#000000" cx="271.4296" cy="-133.4098" rx="63.424" ry="32.6206"/>
<text text-anchor="middle" x="271.4296" y="-138.2098" font-family="Times,serif" font-size="16.00" fill="#ffffff">Le doute</text>
<text text-anchor="middle" x="271.4296" y="-119.0098" font-family="Times,serif" font-size="16.00" fill="#ffffff">raisonnable</text>
</g>
<!-- a1&#45;&gt;b2 -->
<g id="edge2" class="edge">
<title>a1-&gt;b2:n</title>
<path fill="none" stroke="#000000" d="M235.4083,-222.7412C252.1113,-210.8628 266.5979,-195.3963 270.4365,-176.2433"/>
<polygon fill="#000000" stroke="#000000" points="273.9265,-176.5159 271.4296,-166.2195 266.9606,-175.8257 273.9265,-176.5159"/>
</g>
<!-- b1&#45;&gt;b2 -->
<!-- c1 -->
<g id="node4" class="node">
<title>c1</title>
<polygon fill="#ffffff" stroke="#7f7f7f" points="146.7889,-65.4012 .0703,-65.4012 .0703,-.1988 146.7889,-.1988 146.7889,-65.4012"/>
<text text-anchor="middle" x="73.4296" y="-47.2" font-family="Times,serif" font-size="16.00" fill="#000000">= douter, dès</text>
<text text-anchor="middle" x="73.4296" y="-28" font-family="Times,serif" font-size="16.00" fill="#000000">qu'il y a la moindre</text>
<text text-anchor="middle" x="73.4296" y="-8.8" font-family="Times,serif" font-size="16.00" fill="#000000">possibilité de douter</text>
</g>
<!-- b1&#45;&gt;c1 -->
<g id="edge4" class="edge">
<title>b1-&gt;c1</title>
<path fill="none" stroke="#000000" d="M73.4296,-100.4664C73.4296,-92.5685 73.4296,-84.0199 73.4296,-75.743"/>
<polygon fill="#000000" stroke="#000000" points="76.9297,-75.4738 73.4296,-65.4738 69.9297,-75.4738 76.9297,-75.4738"/>
</g>
<!-- c2 -->
<g id="node5" class="node">
<title>c2</title>
<polygon fill="#ffffff" stroke="#7f7f7f" points="359.9136,-65.4012 182.9456,-65.4012 182.9456,-.1988 359.9136,-.1988 359.9136,-65.4012"/>
<text text-anchor="middle" x="271.4296" y="-47.2" font-family="Times,serif" font-size="16.00" fill="#000000">= douter, mais seulement</text>
<text text-anchor="middle" x="271.4296" y="-28" font-family="Times,serif" font-size="16.00" fill="#000000">si on a une bonne</text>
<text text-anchor="middle" x="271.4296" y="-8.8" font-family="Times,serif" font-size="16.00" fill="#000000">raison de douter</text>
</g>
<!-- b2&#45;&gt;c2 -->
<g id="edge5" class="edge">
<title>b2-&gt;c2</title>
<path fill="none" stroke="#000000" d="M271.4296,-100.4664C271.4296,-92.5685 271.4296,-84.0199 271.4296,-75.743"/>
<polygon fill="#000000" stroke="#000000" points="274.9297,-75.4738 271.4296,-65.4738 267.9297,-75.4738 274.9297,-75.4738"/>
</g>
</g>
</svg>