<?xml version="1.0" encoding="UTF-8" standalone="no"?><!DOCTYPE svg PUBLIC "-//W3C//DTD SVG 1.1//EN" "http://www.w3.org/Graphics/SVG/1.1/DTD/svg11.dtd"><!-- Generated by graphviz version 2.40.1 (20161225.0304)
 --><!-- Title: G Pages: 1 --><svg xmlns="http://www.w3.org/2000/svg" xmlns:xlink="http://www.w3.org/1999/xlink" width="390pt" height="392pt" viewBox="0.00 0.00 389.70 392.17">
<g id="graph0" class="graph" transform="scale(1 1) rotate(0) translate(21.6 370.5743)">
<title>G</title>
<polygon fill="#fafafa" stroke="transparent" points="-21.6,21.6 -21.6,-370.5743 368.0977,-370.5743 368.0977,21.6 -21.6,21.6"/>
<!-- a1 -->
<g id="node1" class="node">
<title>a1</title>
<ellipse fill="#000000" stroke="#000000" cx="172.2881" cy="-297.4969" rx="77.3019" ry="51.4548"/>
<text text-anchor="middle" x="172.2881" y="-313.6969" font-family="Times,serif" font-size="18.00" fill="#ffffff">Deux formes</text>
<text text-anchor="middle" x="172.2881" y="-292.0969" font-family="Times,serif" font-size="18.00" fill="#ffffff">de morale de</text>
<text text-anchor="middle" x="172.2881" y="-270.4969" font-family="Times,serif" font-size="18.00" fill="#ffffff">la raison</text>
</g>
<!-- b1 -->
<g id="node2" class="node">
<title>b1</title>
<ellipse fill="#8b0000" stroke="#000000" cx="74.2881" cy="-178.2098" rx="74.0767" ry="32.6206"/>
<text text-anchor="middle" x="74.2881" y="-183.0098" font-family="Times,serif" font-size="16.00" fill="#ffffff">Morales des</text>
<text text-anchor="middle" x="74.2881" y="-163.8098" font-family="Times,serif" font-size="16.00" fill="#ffffff">conséquences</text>
</g>
<!-- a1&#45;&gt;b1 -->
<g id="edge1" class="edge">
<title>a1-&gt;b1:n</title>
<path fill="none" stroke="#000000" d="M109.6683,-267.198C93.3129,-255.3757 79.1565,-240.0626 75.3142,-221.2045"/>
<polygon fill="#000000" stroke="#000000" points="78.7729,-220.6183 74.2881,-211.0195 71.8082,-221.32 78.7729,-220.6183"/>
</g>
<!-- b2 -->
<g id="node3" class="node">
<title>b2</title>
<ellipse fill="#8b0000" stroke="#000000" cx="270.2881" cy="-178.2098" rx="66.0792" ry="32.6206"/>
<text text-anchor="middle" x="270.2881" y="-183.0098" font-family="Times,serif" font-size="16.00" fill="#ffffff">Morales des</text>
<text text-anchor="middle" x="270.2881" y="-163.8098" font-family="Times,serif" font-size="16.00" fill="#ffffff">principes</text>
</g>
<!-- a1&#45;&gt;b2 -->
<g id="edge2" class="edge">
<title>a1-&gt;b2:n</title>
<path fill="none" stroke="#000000" d="M234.9078,-267.198C251.2633,-255.3757 265.4196,-240.0626 269.2619,-221.2045"/>
<polygon fill="#000000" stroke="#000000" points="272.7679,-221.32 270.2881,-211.0195 265.8032,-220.6183 272.7679,-221.32"/>
</g>
<!-- b1&#45;&gt;b2 -->
<!-- c1 -->
<g id="node4" class="node">
<title>c1</title>
<polygon fill="#ffffff" stroke="#7f7f7f" points="140.6903,-110.4 7.8859,-110.4 7.8859,-54.4 140.6903,-54.4 140.6903,-110.4"/>
<text text-anchor="start" x="24.7721" y="-93" font-family="Times,serif" font-size="16.00" fill="#000000">Il faut réfléchir</text>
<text text-anchor="start" x="27.6473" y="-77" font-family="Times,serif" font-size="16.00" fill="#000000">à ce qui arrive</text>
<text text-anchor="start" x="16.0873" y="-61" font-family="Times,serif" font-style="italic" font-size="16.00" fill="#000000">après</text>
<text text-anchor="start" x="56.0649" y="-61" font-family="Times,serif" font-size="16.00" fill="#000000"> notre choix</text>
</g>
<!-- b1&#45;&gt;c1 -->
<g id="edge4" class="edge">
<title>b1-&gt;c1</title>
<path fill="none" stroke="#000000" d="M74.2881,-145.2375C74.2881,-137.321 74.2881,-128.8001 74.2881,-120.6659"/>
<polygon fill="#000000" stroke="#000000" points="77.7882,-120.644 74.2881,-110.644 70.7882,-120.6441 77.7882,-120.644"/>
</g>
<!-- c2 -->
<g id="node5" class="node">
<title>c2</title>
<polygon fill="#ffffff" stroke="#7f7f7f" points="346.7079,-110.4 193.8683,-110.4 193.8683,-54.4 346.7079,-54.4 346.7079,-110.4"/>
<text text-anchor="start" x="205.0065" y="-93" font-family="Times,serif" font-size="16.00" fill="#000000">Il faut réfléchir à ce</text>
<text text-anchor="start" x="202.0785" y="-77" font-family="Times,serif" font-size="16.00" fill="#000000">qui guide notre choix</text>
<text text-anchor="start" x="205.5481" y="-61" font-family="Times,serif" font-style="italic" font-size="16.00" fill="#000000">avant  </text>
<text text-anchor="start" x="248.1993" y="-61" font-family="Times,serif" font-size="16.00" fill="#000000"> de le réaliser</text>
</g>
<!-- b2&#45;&gt;c2 -->
<g id="edge5" class="edge">
<title>b2-&gt;c2</title>
<path fill="none" stroke="#000000" d="M270.2881,-145.2375C270.2881,-137.321 270.2881,-128.8001 270.2881,-120.6659"/>
<polygon fill="#000000" stroke="#000000" points="273.7882,-120.644 270.2881,-110.644 266.7882,-120.6441 273.7882,-120.644"/>
</g>
<!-- e1 -->
<g id="node6" class="node">
<title>e1</title>
<path fill="#fafafa" stroke="transparent" d="M132.0812,-46.6017C132.0812,-46.6017 16.495,-46.6017 16.495,-46.6017 10.495,-46.6017 4.495,-40.6017 4.495,-34.6017 4.495,-34.6017 4.495,-11.7983 4.495,-11.7983 4.495,-5.7983 10.495,.2017 16.495,.2017 16.495,.2017 132.0812,.2017 132.0812,.2017 138.0812,.2017 144.0812,-5.7983 144.0812,-11.7983 144.0812,-11.7983 144.0812,-34.6017 144.0812,-34.6017 144.0812,-40.6017 138.0812,-46.6017 132.0812,-46.6017"/>
<text text-anchor="middle" x="74.2881" y="-28" font-family="Times,serif" font-size="16.00" fill="#cd2626">Focalisation sur</text>
<text text-anchor="middle" x="74.2881" y="-8.8" font-family="Times,serif" font-size="16.00" fill="#cd2626">le résultat du choix</text>
</g>
<!-- c1&#45;&gt;e1 -->
<!-- e2 -->
<g id="node7" class="node">
<title>e2</title>
<path fill="#fafafa" stroke="transparent" d="M329.0323,-46.6017C329.0323,-46.6017 211.5438,-46.6017 211.5438,-46.6017 205.5438,-46.6017 199.5438,-40.6017 199.5438,-34.6017 199.5438,-34.6017 199.5438,-11.7983 199.5438,-11.7983 199.5438,-5.7983 205.5438,.2017 211.5438,.2017 211.5438,.2017 329.0323,.2017 329.0323,.2017 335.0323,.2017 341.0323,-5.7983 341.0323,-11.7983 341.0323,-11.7983 341.0323,-34.6017 341.0323,-34.6017 341.0323,-40.6017 335.0323,-46.6017 329.0323,-46.6017"/>
<text text-anchor="middle" x="270.2881" y="-28" font-family="Times,serif" font-size="16.00" fill="#cd2626">Focalisation sur</text>
<text text-anchor="middle" x="270.2881" y="-8.8" font-family="Times,serif" font-size="16.00" fill="#cd2626">les règles du choix</text>
</g>
<!-- c2&#45;&gt;e2 -->
</g>
</svg>