<?xml version="1.0" encoding="UTF-8" standalone="no"?>
<!DOCTYPE svg PUBLIC "-//W3C//DTD SVG 1.1//EN"
 "http://www.w3.org/Graphics/SVG/1.1/DTD/svg11.dtd">
<!-- Generated by graphviz version 2.40.1 (20161225.0304)
 -->
<!-- Title: G Pages: 1 -->
<svg width="501pt" height="430pt"
 viewBox="0.00 0.00 501.03 429.77" xmlns="http://www.w3.org/2000/svg" xmlns:xlink="http://www.w3.org/1999/xlink">
<g id="graph0" class="graph" transform="scale(1 1) rotate(0) translate(21.6 408.1743)">
<title>G</title>
<polygon fill="#fafafa" stroke="transparent" points="-21.6,21.6 -21.6,-408.1743 479.4344,-408.1743 479.4344,21.6 -21.6,21.6"/>
<!-- a1 -->
<g id="node1" class="node">
<title>a1</title>
<ellipse fill="#000000" stroke="#000000" cx="217.7512" cy="-335.0969" rx="81.9888" ry="51.4548"/>
<text text-anchor="middle" x="217.7512" y="-351.2969" font-family="Times,serif" font-size="18.00" fill="#ffffff">Deux formes</text>
<text text-anchor="middle" x="217.7512" y="-329.6969" font-family="Times,serif" font-size="18.00" fill="#ffffff">de morale des</text>
<text text-anchor="middle" x="217.7512" y="-308.0969" font-family="Times,serif" font-size="18.00" fill="#ffffff">principes</text>
</g>
<!-- b1 -->
<g id="node2" class="node">
<title>b1</title>
<ellipse fill="#8b0000" stroke="#000000" cx="95.7512" cy="-215.8098" rx="67.1354" ry="32.6206"/>
<text text-anchor="middle" x="95.7512" y="-220.6098" font-family="Times,serif" font-size="16.00" fill="#ffffff">Les morales</text>
<text text-anchor="middle" x="95.7512" y="-201.4098" font-family="Times,serif" font-size="16.00" fill="#ffffff">de l&#39;autorité</text>
</g>
<!-- a1&#45;&gt;b1 -->
<g id="edge1" class="edge">
<title>a1&#45;&gt;b1</title>
<path fill="none" stroke="#000000" d="M173.3613,-291.6941C160.1482,-278.7748 145.8097,-264.7551 133.094,-252.3222"/>
<polygon fill="#000000" stroke="#000000" points="135.4126,-249.6942 125.8156,-245.2056 130.5188,-254.6993 135.4126,-249.6942"/>
</g>
<!-- b2 -->
<g id="node3" class="node">
<title>b2</title>
<ellipse fill="#8b0000" stroke="#000000" cx="339.7512" cy="-215.8098" rx="79.4848" ry="32.6206"/>
<text text-anchor="middle" x="339.7512" y="-220.6098" font-family="Times,serif" font-size="16.00" fill="#ffffff">Les morales</text>
<text text-anchor="middle" x="339.7512" y="-201.4098" font-family="Times,serif" font-size="16.00" fill="#ffffff">de l&#39;autonomie</text>
</g>
<!-- a1&#45;&gt;b2 -->
<g id="edge2" class="edge">
<title>a1&#45;&gt;b2</title>
<path fill="none" stroke="#000000" d="M262.1411,-291.6941C275.0125,-279.1089 288.9518,-265.4795 301.4186,-253.29"/>
<polygon fill="#000000" stroke="#000000" points="303.8662,-255.7918 308.5695,-246.2981 298.9724,-250.7867 303.8662,-255.7918"/>
</g>
<!-- b1&#45;&gt;b2 -->
<!-- c1 -->
<g id="node4" class="node">
<title>c1</title>
<polygon fill="#ffffff" stroke="#7f7f7f" points="187.2543,-148 .2481,-148 .2481,-44 187.2543,-44 187.2543,-148"/>
<text text-anchor="middle" x="93.7512" y="-129.6" font-family="Times,serif" font-size="16.00" fill="#000000">La source des principes</text>
<text text-anchor="middle" x="93.7512" y="-110.4" font-family="Times,serif" font-size="16.00" fill="#000000">moraux se trouve dans une</text>
<text text-anchor="middle" x="93.7512" y="-91.2" font-family="Times,serif" font-size="16.00" fill="#000000">autorité extérieure, jugée</text>
<text text-anchor="middle" x="93.7512" y="-72" font-family="Times,serif" font-size="16.00" fill="#000000">supérieure : Dieu, la</text>
<text text-anchor="middle" x="93.7512" y="-52.8" font-family="Times,serif" font-size="16.00" fill="#000000">Nature, la Tradition …</text>
</g>
<!-- b1&#45;&gt;c1 -->
<g id="edge4" class="edge">
<title>b1&#45;&gt;c1</title>
<path fill="none" stroke="#000000" d="M95.1994,-182.7541C95.0728,-175.1708 94.9341,-166.8637 94.7943,-158.4892"/>
<polygon fill="#000000" stroke="#000000" points="98.2905,-158.225 94.624,-148.2848 91.2915,-158.3419 98.2905,-158.225"/>
</g>
<!-- c2 -->
<g id="node5" class="node">
<title>c2</title>
<polygon fill="#ffffff" stroke="#7f7f7f" points="451.8707,-148 229.6317,-148 229.6317,-44 451.8707,-44 451.8707,-148"/>
<text text-anchor="middle" x="340.7512" y="-129.6" font-family="Times,serif" font-size="16.00" fill="#000000">Nous pouvons par nous&#45;mêmes</text>
<text text-anchor="middle" x="340.7512" y="-110.4" font-family="Times,serif" font-size="16.00" fill="#000000">saisir ce que nous devons faire.</text>
<text text-anchor="middle" x="340.7512" y="-91.2" font-family="Times,serif" font-size="16.00" fill="#000000">Nous n&#39;avons pas besoin d&#39;une</text>
<text text-anchor="middle" x="340.7512" y="-72" font-family="Times,serif" font-size="16.00" fill="#000000">autorité extérieure : il suffit</text>
<text text-anchor="middle" x="340.7512" y="-52.8" font-family="Times,serif" font-size="16.00" fill="#000000">de faire usage de notre raison</text>
</g>
<!-- b2&#45;&gt;c2 -->
<g id="edge5" class="edge">
<title>b2&#45;&gt;c2</title>
<path fill="none" stroke="#000000" d="M340.0271,-182.7541C340.0904,-175.1708 340.1597,-166.8637 340.2296,-158.4892"/>
<polygon fill="#000000" stroke="#000000" points="343.7311,-158.3137 340.3148,-148.2848 336.7314,-158.2552 343.7311,-158.3137"/>
</g>
<!-- c1&#45;&gt;c2 -->
<!-- e1 -->
<g id="node6" class="node">
<title>e1</title>
<path fill="#fafafa" stroke="transparent" d="M445.9177,-36C445.9177,-36 235.5847,-36 235.5847,-36 229.5847,-36 223.5847,-30 223.5847,-24 223.5847,-24 223.5847,-12 223.5847,-12 223.5847,-6 229.5847,0 235.5847,0 235.5847,0 445.9177,0 445.9177,0 451.9177,0 457.9177,-6 457.9177,-12 457.9177,-12 457.9177,-24 457.9177,-24 457.9177,-30 451.9177,-36 445.9177,-36"/>
<text text-anchor="middle" x="340.7512" y="-13.2" font-family="Times,serif" font-size="16.00" fill="#cd2626">▻ La philosophie morale de Kant</text>
</g>
<!-- c2&#45;&gt;e1 -->
</g>
</svg>
