<?xml version="1.0" encoding="UTF-8" standalone="no"?><!DOCTYPE svg PUBLIC "-//W3C//DTD SVG 1.1//EN" "http://www.w3.org/Graphics/SVG/1.1/DTD/svg11.dtd"><!-- Generated by graphviz version 2.40.1 (20161225.0304)
 --><!-- Title: G Pages: 1 --><svg xmlns="http://www.w3.org/2000/svg" xmlns:xlink="http://www.w3.org/1999/xlink" width="715pt" height="552pt" viewBox="0.00 0.00 715.06 551.58">
<g id="graph0" class="graph" transform="scale(1 1) rotate(0) translate(28.8 522.7801)">
<title>G</title>
<polygon fill="#f7f7f7" stroke="transparent" points="-28.8,28.8 -28.8,-522.7801 686.2616,-522.7801 686.2616,28.8 -28.8,28.8"/>
<!-- a1 -->
<g id="node1" class="node">
<title>a1</title>
<ellipse fill="#000000" stroke="#000000" cx="321.1795" cy="-453" rx="111.2439" ry="41.0911"/>
<text text-anchor="middle" x="321.1795" y="-465.6" font-family="Times,serif" font-size="14.00" fill="#ffffff">Une théorie scientifique</text>
<text text-anchor="middle" x="321.1795" y="-448.8" font-family="Times,serif" font-size="14.00" fill="#ffffff">est un ensemble de</text>
<text text-anchor="middle" x="321.1795" y="-432" font-family="Times,serif" font-size="14.00" fill="#ffffff">lois générales</text>
</g>
<!-- b1 -->
<g id="node2" class="node">
<title>b1</title>
<ellipse fill="#8b0000" stroke="#000000" cx="185.1795" cy="-335" rx="100.8183" ry="41.0911"/>
<text text-anchor="middle" x="185.1795" y="-347.6" font-family="Times,serif" font-size="14.00" fill="#ffffff">Pour découvrir une</text>
<text text-anchor="middle" x="185.1795" y="-330.8" font-family="Times,serif" font-size="14.00" fill="#ffffff">loi générale, il faut</text>
<text text-anchor="middle" x="185.1795" y="-314" font-family="Times,serif" font-size="14.00" fill="#ffffff">partir de l'expérience</text>
</g>
<!-- a1&#45;&gt;b1 -->
<g id="edge1" class="edge">
<title>a1-&gt;b1:n</title>
<path fill="none" stroke="#000000" d="M227.4652,-430.5264C207.1288,-420.5977 190.3908,-406.3853 186.1942,-386.1012"/>
<polygon fill="#000000" stroke="#000000" points="189.6615,-385.6001 185.1795,-376 182.6966,-386.2998 189.6615,-385.6001"/>
</g>
<!-- b2 -->
<g id="node3" class="node">
<title>b2</title>
<ellipse fill="#8b0000" stroke="#000000" cx="459.1795" cy="-335" rx="100.8183" ry="41.0911"/>
<text text-anchor="middle" x="459.1795" y="-347.6" font-family="Times,serif" font-size="14.00" fill="#ffffff">Pour justifier une</text>
<text text-anchor="middle" x="459.1795" y="-330.8" font-family="Times,serif" font-size="14.00" fill="#ffffff">loi générale, il faut</text>
<text text-anchor="middle" x="459.1795" y="-314" font-family="Times,serif" font-size="14.00" fill="#ffffff">partir de l'expérience</text>
</g>
<!-- a1&#45;&gt;b2 -->
<g id="edge2" class="edge">
<title>a1-&gt;b2:n</title>
<path fill="none" stroke="#000000" d="M415.894,-431.0484C436.7766,-421.0937 453.9922,-406.7105 458.1968,-385.9789"/>
<polygon fill="#000000" stroke="#000000" points="461.6825,-386.2949 459.1795,-376 454.7162,-385.6088 461.6825,-386.2949"/>
</g>
<!-- r1 -->
<g id="node12" class="node">
<title>r1</title>
<polygon fill="#f7f7f7" stroke="#000000" points="652.0106,-490 504.3484,-490 504.3484,-416 652.0106,-416 652.0106,-490"/>
<text text-anchor="middle" x="578.1795" y="-474" font-family="Times,serif" font-size="10.00" fill="#000000">La science ne consiste pas en une</text>
<text text-anchor="middle" x="578.1795" y="-462" font-family="Times,serif" font-size="10.00" fill="#000000">simple compilation de faits :</text>
<text text-anchor="middle" x="578.1795" y="-450" font-family="Times,serif" font-size="10.00" fill="#000000">il s'agit de rechercher des</text>
<text text-anchor="middle" x="578.1795" y="-438" font-family="Times,serif" font-size="10.00" fill="#000000">lois générales pour expliquer</text>
<text text-anchor="middle" x="578.1795" y="-426" font-family="Times,serif" font-size="10.00" fill="#000000">et pour prédire des faits</text>
</g>
<!-- a1&#45;&gt;r1 -->
<g id="edge12" class="edge">
<title>a1-&gt;r1</title>
<path fill="none" stroke="#000000" stroke-dasharray="5,2" d="M432.6131,-453C456.4951,-453 480.377,-453 504.259,-453"/>
</g>
<!-- b1&#45;&gt;b2 -->
<!-- c1 -->
<g id="node4" class="node">
<title>c1</title>
<polygon fill="#ffffff" stroke="#7f7f7f" points="279.5892,-218.7003 8.7698,-218.7003 8.7698,-143.2997 279.5892,-143.2997 279.5892,-218.7003"/>
<text text-anchor="middle" x="144.1795" y="-202" font-family="Times,serif" font-size="14.00" fill="#000000">À partir de l'accumulation d'observations</text>
<text text-anchor="middle" x="144.1795" y="-185.2" font-family="Times,serif" font-size="14.00" fill="#000000">de faits particuliers, on essaie de dégager une</text>
<text text-anchor="middle" x="144.1795" y="-168.4" font-family="Times,serif" font-size="14.00" fill="#000000">régularité en trouvant une formule générale</text>
<text text-anchor="middle" x="144.1795" y="-151.6" font-family="Times,serif" font-size="14.00" fill="#000000">qui permet de rendre compte des données</text>
</g>
<!-- b1&#45;&gt;c1 -->
<g id="edge4" class="edge">
<title>b1-&gt;c1</title>
<path fill="none" stroke="#000000" d="M166.9749,-294.1714C165.9636,-291.3622 165.0193,-288.5538 164.1795,-285.8 158.5982,-267.4979 154.2646,-246.902 151.0807,-228.8435"/>
<polygon fill="#000000" stroke="#000000" points="154.5044,-228.098 149.3839,-218.8227 147.6026,-229.2667 154.5044,-228.098"/>
</g>
<!-- e1 -->
<g id="node8" class="node">
<title>e1</title>
<path fill="#f7f7f7" stroke="transparent" d="M262.8857,-285.6019C262.8857,-285.6019 183.4733,-285.6019 183.4733,-285.6019 177.4733,-285.6019 171.4733,-279.6019 171.4733,-273.6019 171.4733,-273.6019 171.4733,-256.3981 171.4733,-256.3981 171.4733,-250.3981 177.4733,-244.3981 183.4733,-244.3981 183.4733,-244.3981 262.8857,-244.3981 262.8857,-244.3981 268.8857,-244.3981 274.8857,-250.3981 274.8857,-256.3981 274.8857,-256.3981 274.8857,-273.6019 274.8857,-273.6019 274.8857,-279.6019 268.8857,-285.6019 262.8857,-285.6019"/>
<text text-anchor="middle" x="223.1795" y="-269.2" font-family="Times,serif" font-size="14.00" fill="#cd2626">= empirisme de</text>
<text text-anchor="middle" x="223.1795" y="-252.4" font-family="Times,serif" font-size="14.00" fill="#cd2626">la découverte</text>
</g>
<!-- b1&#45;&gt;e1 -->
<!-- c2 -->
<g id="node5" class="node">
<title>c2</title>
<polygon fill="#ffffff" stroke="#7f7f7f" points="550.4635,-218.7003 329.8955,-218.7003 329.8955,-143.2997 550.4635,-143.2997 550.4635,-218.7003"/>
<text text-anchor="middle" x="440.1795" y="-202" font-family="Times,serif" font-size="14.00" fill="#000000">À partir d'un grand nombre de</text>
<text text-anchor="middle" x="440.1795" y="-185.2" font-family="Times,serif" font-size="14.00" fill="#000000">situations variées dans lesquelles</text>
<text text-anchor="middle" x="440.1795" y="-168.4" font-family="Times,serif" font-size="14.00" fill="#000000">la loi est confirmée, on peut en tirer,</text>
<text text-anchor="middle" x="440.1795" y="-151.6" font-family="Times,serif" font-size="14.00" fill="#000000">par induction, que la loi est justifiée</text>
</g>
<!-- b2&#45;&gt;c2 -->
<g id="edge5" class="edge">
<title>b2-&gt;c2</title>
<path fill="none" stroke="#000000" d="M454.0878,-293.7308C451.6129,-273.6705 448.625,-249.4529 446.0539,-228.6137"/>
<polygon fill="#000000" stroke="#000000" points="449.5275,-228.1842 444.8293,-218.688 442.5802,-229.0414 449.5275,-228.1842"/>
</g>
<!-- e2 -->
<g id="node9" class="node">
<title>e2</title>
<path fill="#f7f7f7" stroke="transparent" d="M558.8857,-285.6019C558.8857,-285.6019 479.4733,-285.6019 479.4733,-285.6019 473.4733,-285.6019 467.4733,-279.6019 467.4733,-273.6019 467.4733,-273.6019 467.4733,-256.3981 467.4733,-256.3981 467.4733,-250.3981 473.4733,-244.3981 479.4733,-244.3981 479.4733,-244.3981 558.8857,-244.3981 558.8857,-244.3981 564.8857,-244.3981 570.8857,-250.3981 570.8857,-256.3981 570.8857,-256.3981 570.8857,-273.6019 570.8857,-273.6019 570.8857,-279.6019 564.8857,-285.6019 558.8857,-285.6019"/>
<text text-anchor="middle" x="519.1795" y="-269.2" font-family="Times,serif" font-size="14.00" fill="#cd2626">= empirisme de</text>
<text text-anchor="middle" x="519.1795" y="-252.4" font-family="Times,serif" font-size="14.00" fill="#cd2626">la justification</text>
</g>
<!-- b2&#45;&gt;e2 -->
<!-- d1 -->
<g id="node6" class="node">
<title>d1</title>
<path fill="#ffffff" stroke="#7f7f7f" d="M222.2553,-108.4014C222.2553,-108.4014 66.1037,-108.4014 66.1037,-108.4014 60.1037,-108.4014 54.1037,-102.4014 54.1037,-96.4014 54.1037,-96.4014 54.1037,-61.5986 54.1037,-61.5986 54.1037,-55.5986 60.1037,-49.5986 66.1037,-49.5986 66.1037,-49.5986 222.2553,-49.5986 222.2553,-49.5986 228.2553,-49.5986 234.2553,-55.5986 234.2553,-61.5986 234.2553,-61.5986 234.2553,-96.4014 234.2553,-96.4014 234.2553,-102.4014 228.2553,-108.4014 222.2553,-108.4014"/>
<text text-anchor="middle" x="144.1795" y="-91.6" font-family="Times,serif" font-size="14.00" fill="#000000">L'expérience est</text>
<text text-anchor="middle" x="144.1795" y="-74.8" font-family="Times,serif" font-size="14.00" fill="#000000">première d'un point de vue</text>
<text text-anchor="middle" x="144.1795" y="-58" font-family="Times,serif" font-size="14.00" fill="#000000">chronologique, dans le temps</text>
</g>
<!-- c1&#45;&gt;d1 -->
<g id="edge6" class="edge">
<title>c1-&gt;d1</title>
<path fill="none" stroke="#000000" d="M144.1795,-143.3088C144.1795,-135.1687 144.1795,-126.5423 144.1795,-118.3409"/>
<polygon fill="#000000" stroke="#000000" points="147.6796,-118.2483 144.1795,-108.2483 140.6796,-118.2484 147.6796,-118.2483"/>
</g>
<!-- d2 -->
<g id="node7" class="node">
<title>d2</title>
<path fill="#ffffff" stroke="#7f7f7f" d="M543.1653,-108.4014C543.1653,-108.4014 337.1937,-108.4014 337.1937,-108.4014 331.1937,-108.4014 325.1937,-102.4014 325.1937,-96.4014 325.1937,-96.4014 325.1937,-61.5986 325.1937,-61.5986 325.1937,-55.5986 331.1937,-49.5986 337.1937,-49.5986 337.1937,-49.5986 543.1653,-49.5986 543.1653,-49.5986 549.1653,-49.5986 555.1653,-55.5986 555.1653,-61.5986 555.1653,-61.5986 555.1653,-96.4014 555.1653,-96.4014 555.1653,-102.4014 549.1653,-108.4014 543.1653,-108.4014"/>
<text text-anchor="middle" x="440.1795" y="-91.6" font-family="Times,serif" font-size="14.00" fill="#000000">L'expérience est première d'un point</text>
<text text-anchor="middle" x="440.1795" y="-74.8" font-family="Times,serif" font-size="14.00" fill="#000000">de vue logique, dans le raisonnement</text>
<text text-anchor="middle" x="440.1795" y="-58" font-family="Times,serif" font-size="14.00" fill="#000000">qui cherche à justifier une théorie</text>
</g>
<!-- c2&#45;&gt;d2 -->
<g id="edge7" class="edge">
<title>c2-&gt;d2</title>
<path fill="none" stroke="#000000" d="M440.1795,-143.3088C440.1795,-135.1687 440.1795,-126.5423 440.1795,-118.3409"/>
<polygon fill="#000000" stroke="#000000" points="443.6796,-118.2483 440.1795,-108.2483 436.6796,-118.2484 443.6796,-118.2483"/>
</g>
<!-- e3 -->
<g id="node10" class="node">
<title>e3</title>
<path fill="#f7f7f7" stroke="transparent" d="M212.7395,-41.6019C212.7395,-41.6019 75.6195,-41.6019 75.6195,-41.6019 69.6195,-41.6019 63.6195,-35.6019 63.6195,-29.6019 63.6195,-29.6019 63.6195,-12.3981 63.6195,-12.3981 63.6195,-6.3981 69.6195,-.3981 75.6195,-.3981 75.6195,-.3981 212.7395,-.3981 212.7395,-.3981 218.7395,-.3981 224.7395,-6.3981 224.7395,-12.3981 224.7395,-12.3981 224.7395,-29.6019 224.7395,-29.6019 224.7395,-35.6019 218.7395,-41.6019 212.7395,-41.6019"/>
<text text-anchor="middle" x="144.1795" y="-25.2" font-family="Times,serif" font-size="14.00" fill="#cd2626">L'expérience est l'origine</text>
<text text-anchor="middle" x="144.1795" y="-8.4" font-family="Times,serif" font-size="14.00" fill="#cd2626">de nos connaissances</text>
</g>
<!-- d1&#45;&gt;e3 -->
<!-- e4 -->
<g id="node11" class="node">
<title>e4</title>
<path fill="#f7f7f7" stroke="transparent" d="M521.5076,-41.6019C521.5076,-41.6019 358.8514,-41.6019 358.8514,-41.6019 352.8514,-41.6019 346.8514,-35.6019 346.8514,-29.6019 346.8514,-29.6019 346.8514,-12.3981 346.8514,-12.3981 346.8514,-6.3981 352.8514,-.3981 358.8514,-.3981 358.8514,-.3981 521.5076,-.3981 521.5076,-.3981 527.5076,-.3981 533.5076,-6.3981 533.5076,-12.3981 533.5076,-12.3981 533.5076,-29.6019 533.5076,-29.6019 533.5076,-35.6019 527.5076,-41.6019 521.5076,-41.6019"/>
<text text-anchor="middle" x="440.1795" y="-25.2" font-family="Times,serif" font-size="14.00" fill="#cd2626">L'expérience est le fondement</text>
<text text-anchor="middle" x="440.1795" y="-8.4" font-family="Times,serif" font-size="14.00" fill="#cd2626">de nos connaissances</text>
</g>
<!-- d2&#45;&gt;e4 -->
</g>
</svg>