<?xml version="1.0" encoding="UTF-8" standalone="no"?>
<!DOCTYPE svg PUBLIC "-//W3C//DTD SVG 1.1//EN"
 "http://www.w3.org/Graphics/SVG/1.1/DTD/svg11.dtd">
<!-- Generated by graphviz version 2.40.1 (20161225.0304)
 -->
<!-- Title: G Pages: 1 -->
<svg width="542pt" height="475pt"
 viewBox="0.00 0.00 542.05 475.08" xmlns="http://www.w3.org/2000/svg" xmlns:xlink="http://www.w3.org/1999/xlink">
<g id="graph0" class="graph" transform="scale(1 1) rotate(0) translate(21.6 453.4802)">
<title>G</title>
<polygon fill="#fafafa" stroke="transparent" points="-21.6,21.6 -21.6,-453.4802 520.4472,-453.4802 520.4472,21.6 -21.6,21.6"/>
<!-- a1 -->
<g id="node1" class="node">
<title>a1</title>
<ellipse fill="#000000" stroke="#000000" cx="136.7584" cy="-410.9499" rx="102.2984" ry="20.861"/>
<text text-anchor="middle" x="136.7584" y="-405.5499" font-family="Times,serif" font-size="18.00" fill="#ffffff">Le divertissement</text>
</g>
<!-- b1 -->
<g id="node2" class="node">
<title>b1</title>
<ellipse fill="#8b0000" stroke="#000000" cx="77.7584" cy="-322.2098" rx="50.8168" ry="32.6206"/>
<text text-anchor="middle" x="77.7584" y="-327.0098" font-family="Times,serif" font-size="16.00" fill="#ffffff">Au sens</text>
<text text-anchor="middle" x="77.7584" y="-307.8098" font-family="Times,serif" font-size="16.00" fill="#ffffff">commun</text>
</g>
<!-- a1&#45;&gt;b1 -->
<g id="edge1" class="edge">
<title>a1&#45;&gt;b1:n</title>
<path fill="none" stroke="#000000" d="M99.7278,-391.2552C90.6521,-384.2771 82.5955,-375.5133 79.3175,-365.0742"/>
<polygon fill="#000000" stroke="#000000" points="82.7495,-364.3651 77.7584,-355.0195 75.8321,-365.4378 82.7495,-364.3651"/>
</g>
<!-- b2 -->
<g id="node3" class="node">
<title>b2</title>
<ellipse fill="#8b0000" stroke="#000000" cx="206.7584" cy="-322.2098" rx="53.9427" ry="32.6206"/>
<text text-anchor="middle" x="206.7584" y="-327.0098" font-family="Times,serif" font-size="16.00" fill="#ffffff">Au sens</text>
<text text-anchor="middle" x="206.7584" y="-307.8098" font-family="Times,serif" font-size="16.00" fill="#ffffff">de Pascal</text>
</g>
<!-- a1&#45;&gt;b2 -->
<g id="edge2" class="edge">
<title>a1&#45;&gt;b2:n</title>
<path fill="none" stroke="#000000" d="M181.8819,-392.0651C192.4638,-385.1589 201.6949,-376.212 205.2271,-364.9882"/>
<polygon fill="#000000" stroke="#000000" points="208.6995,-365.435 206.7584,-355.0195 201.7806,-364.3722 208.6995,-365.435"/>
</g>
<!-- c1 -->
<g id="node4" class="node">
<title>c1</title>
<polygon fill="#ffffff" stroke="#7f7f7f" points="115.2762,-235.4017 .2406,-235.4017 .2406,-188.5983 115.2762,-188.5983 115.2762,-235.4017"/>
<text text-anchor="middle" x="57.7584" y="-216.8" font-family="Times,serif" font-size="16.00" fill="#000000">C&#39;est s&#39;amuser,</text>
<text text-anchor="middle" x="57.7584" y="-197.6" font-family="Times,serif" font-size="16.00" fill="#000000">se détendre</text>
</g>
<!-- b1&#45;&gt;c1 -->
<g id="edge3" class="edge">
<title>b1&#45;&gt;c1</title>
<path fill="none" stroke="#000000" d="M71.8119,-289.4416C69.2978,-275.5875 66.3721,-259.466 63.8432,-245.5304"/>
<polygon fill="#000000" stroke="#000000" points="67.2295,-244.588 62.0001,-235.3737 60.342,-245.838 67.2295,-244.588"/>
</g>
<!-- c2 -->
<g id="node5" class="node">
<title>c2</title>
<polygon fill="#ffffff" stroke="#7f7f7f" points="304.0777,-254.3002 129.4391,-254.3002 129.4391,-169.6998 304.0777,-169.6998 304.0777,-254.3002"/>
<text text-anchor="middle" x="216.7584" y="-236" font-family="Times,serif" font-size="16.00" fill="#000000">C&#39;est se remplir</text>
<text text-anchor="middle" x="216.7584" y="-216.8" font-family="Times,serif" font-size="16.00" fill="#000000">d&#39;occupations et avoir</text>
<text text-anchor="middle" x="216.7584" y="-197.6" font-family="Times,serif" font-size="16.00" fill="#000000">ainsi l&#39;esprit absorbé par</text>
<text text-anchor="middle" x="216.7584" y="-178.4" font-family="Times,serif" font-size="16.00" fill="#000000">des choses à faire …</text>
</g>
<!-- b2&#45;&gt;c2 -->
<g id="edge4" class="edge">
<title>b2&#45;&gt;c2</title>
<path fill="none" stroke="#000000" d="M209.7317,-289.4416C210.4357,-281.6827 211.2042,-273.2127 211.9663,-264.8138"/>
<polygon fill="#000000" stroke="#000000" points="215.4698,-264.9322 212.8879,-254.6568 208.4985,-264.2996 215.4698,-264.9322"/>
</g>
<!-- c3 -->
<g id="node6" class="node">
<title>c3</title>
<polygon fill="#ffffff" stroke="#7f7f7f" points="293.0841,-159.2012 140.4327,-159.2012 140.4327,-93.9988 293.0841,-93.9988 293.0841,-159.2012"/>
<text text-anchor="middle" x="216.7584" y="-141" font-family="Times,serif" font-size="16.00" fill="#000000">… pour ne pas avoir</text>
<text text-anchor="middle" x="216.7584" y="-121.8" font-family="Times,serif" font-size="16.00" fill="#000000">à penser à la misère</text>
<text text-anchor="middle" x="216.7584" y="-102.6" font-family="Times,serif" font-size="16.00" fill="#000000">de notre existence</text>
</g>
<!-- c2&#45;&gt;c3 -->
<g id="edge5" class="edge">
<title>c2&#45;&gt;c3</title>
<path fill="none" stroke="#000000" d="M216.7584,-169.5502C216.7584,-166.2013 216.7584,-162.8503 216.7584,-159.5797"/>
</g>
<!-- e1 -->
<g id="node8" class="node">
<title>e1</title>
<polygon fill="#fafafa" stroke="#0000ff" points="472.121,-232.7005 359.3958,-232.7005 359.3958,-191.2995 472.121,-191.2995 472.121,-232.7005"/>
<text text-anchor="middle" x="415.7584" y="-215.9" font-family="Times,serif" font-size="13.00" fill="#000000">Le travail peut être</text>
<text text-anchor="middle" x="415.7584" y="-200.3" font-family="Times,serif" font-size="13.00" fill="#000000">un divertissement !</text>
</g>
<!-- c2&#45;&gt;e1 -->
<g id="edge7" class="edge">
<title>c2&#45;&gt;e1</title>
<path fill="none" stroke="#0000ff" stroke-dasharray="5,2" d="M304.2096,-212C322.5106,-212 340.8115,-212 359.1125,-212"/>
</g>
<!-- d1 -->
<g id="node7" class="node">
<title>d1</title>
<path fill="#fafafa" stroke="transparent" d="M340.672,-65.4012C340.672,-65.4012 92.8448,-65.4012 92.8448,-65.4012 86.8448,-65.4012 80.8448,-59.4012 80.8448,-53.4012 80.8448,-53.4012 80.8448,-12.1988 80.8448,-12.1988 80.8448,-6.1988 86.8448,-.1988 92.8448,-.1988 92.8448,-.1988 340.672,-.1988 340.672,-.1988 346.672,-.1988 352.672,-6.1988 352.672,-12.1988 352.672,-12.1988 352.672,-53.4012 352.672,-53.4012 352.672,-59.4012 346.672,-65.4012 340.672,-65.4012"/>
<text text-anchor="middle" x="216.7584" y="-47.2" font-family="Times,serif" font-size="16.00" fill="#cd2626">Le divertissement n&#39;est pas le bonheur !</text>
<text text-anchor="middle" x="216.7584" y="-28" font-family="Times,serif" font-size="16.00" fill="#cd2626">Il ne fait que masquer, de manière</text>
<text text-anchor="middle" x="216.7584" y="-8.8" font-family="Times,serif" font-size="16.00" fill="#cd2626">illusoire et fragile, le malheur</text>
</g>
<!-- c3&#45;&gt;d1 -->
<!-- e2 -->
<g id="node9" class="node">
<title>e2</title>
<polygon fill="#fafafa" stroke="#0000ff" points="498.9362,-161.6 348.5806,-161.6 348.5806,-91.6 498.9362,-91.6 498.9362,-161.6"/>
<text text-anchor="start" x="353.6695" y="-145.9" font-family="Times,serif" font-size="13.00" fill="#000000">= La misère existentielle :</text>
<text text-anchor="start" x="368.7118" y="-132.9" font-family="Times,serif" font-size="13.00" fill="#000000">« Je ne suis rien »</text>
<text text-anchor="start" x="359.5969" y="-111.9" font-family="Times,serif" font-size="13.00" fill="#000000">≠ la misère matérielle :</text>
<text text-anchor="start" x="376.4787" y="-98.9" font-family="Times,serif" font-size="13.00" fill="#000000">« Je n&#39;ai rien »</text>
</g>
<!-- c3&#45;&gt;e2 -->
<g id="edge8" class="edge">
<title>c3&#45;&gt;e2</title>
<path fill="none" stroke="#0000ff" stroke-dasharray="5,2" d="M293.1705,-126.6C311.6194,-126.6 330.0684,-126.6 348.5173,-126.6"/>
</g>
</g>
</svg>
