<?xml version="1.0" encoding="UTF-8" standalone="no"?><!DOCTYPE svg PUBLIC "-//W3C//DTD SVG 1.1//EN" "http://www.w3.org/Graphics/SVG/1.1/DTD/svg11.dtd"><!-- Generated by graphviz version 2.40.1 (20161225.0304)
 --><!-- Title: G Pages: 1 --><svg xmlns="http://www.w3.org/2000/svg" xmlns:xlink="http://www.w3.org/1999/xlink" width="526pt" height="480pt" viewBox="0.00 0.00 525.87 479.68">
<g id="graph0" class="graph" transform="scale(1 1) rotate(0) translate(21.6 458.0802)">
<title>G</title>
<polygon fill="#fafafa" stroke="transparent" points="-21.6,21.6 -21.6,-458.0802 504.2734,-458.0802 504.2734,21.6 -21.6,21.6"/>
<!-- a1 -->
<g id="node1" class="node">
<title>a1</title>
<ellipse fill="#000000" stroke="#000000" cx="136.7584" cy="-415.5499" rx="102.2984" ry="20.861"/>
<text text-anchor="middle" x="136.7584" y="-410.1499" font-family="Times,serif" font-size="18.00" fill="#ffffff">Le divertissement</text>
</g>
<!-- b1 -->
<g id="node2" class="node">
<title>b1</title>
<ellipse fill="#8b0000" stroke="#000000" cx="77.7584" cy="-326.8098" rx="50.8168" ry="32.6206"/>
<text text-anchor="middle" x="77.7584" y="-331.6098" font-family="Times,serif" font-size="16.00" fill="#ffffff">Au sens</text>
<text text-anchor="middle" x="77.7584" y="-312.4098" font-family="Times,serif" font-size="16.00" fill="#ffffff">commun</text>
</g>
<!-- a1&#45;&gt;b1 -->
<g id="edge1" class="edge">
<title>a1-&gt;b1:n</title>
<path fill="none" stroke="#000000" d="M99.7278,-395.8552C90.6521,-388.8771 82.5955,-380.1133 79.3175,-369.6742"/>
<polygon fill="#000000" stroke="#000000" points="82.7495,-368.9651 77.7584,-359.6195 75.8321,-370.0378 82.7495,-368.9651"/>
</g>
<!-- b2 -->
<g id="node3" class="node">
<title>b2</title>
<ellipse fill="#8b0000" stroke="#000000" cx="206.7584" cy="-326.8098" rx="53.9427" ry="32.6206"/>
<text text-anchor="middle" x="206.7584" y="-331.6098" font-family="Times,serif" font-size="16.00" fill="#ffffff">Au sens</text>
<text text-anchor="middle" x="206.7584" y="-312.4098" font-family="Times,serif" font-size="16.00" fill="#ffffff">de Pascal</text>
</g>
<!-- a1&#45;&gt;b2 -->
<g id="edge2" class="edge">
<title>a1-&gt;b2:n</title>
<path fill="none" stroke="#000000" d="M181.8819,-396.6651C192.4638,-389.7589 201.6949,-380.812 205.2271,-369.5882"/>
<polygon fill="#000000" stroke="#000000" points="208.6995,-370.035 206.7584,-359.6195 201.7806,-368.9722 208.6995,-370.035"/>
</g>
<!-- c1 -->
<g id="node4" class="node">
<title>c1</title>
<polygon fill="#ffffff" stroke="#7f7f7f" points="115.2762,-240.0017 .2406,-240.0017 .2406,-193.1983 115.2762,-193.1983 115.2762,-240.0017"/>
<text text-anchor="middle" x="57.7584" y="-221.4" font-family="Times,serif" font-size="16.00" fill="#000000">C'est s'amuser,</text>
<text text-anchor="middle" x="57.7584" y="-202.2" font-family="Times,serif" font-size="16.00" fill="#000000">se détendre</text>
</g>
<!-- b1&#45;&gt;c1 -->
<g id="edge3" class="edge">
<title>b1-&gt;c1</title>
<path fill="none" stroke="#000000" d="M71.8119,-294.0416C69.2978,-280.1875 66.3721,-264.066 63.8432,-250.1304"/>
<polygon fill="#000000" stroke="#000000" points="67.2295,-249.188 62.0001,-239.9737 60.342,-250.438 67.2295,-249.188"/>
</g>
<!-- c2 -->
<g id="node5" class="node">
<title>c2</title>
<polygon fill="#ffffff" stroke="#7f7f7f" points="304.0777,-258.9002 129.4391,-258.9002 129.4391,-174.2998 304.0777,-174.2998 304.0777,-258.9002"/>
<text text-anchor="middle" x="216.7584" y="-240.6" font-family="Times,serif" font-size="16.00" fill="#000000">C'est se remplir</text>
<text text-anchor="middle" x="216.7584" y="-221.4" font-family="Times,serif" font-size="16.00" fill="#000000">d'occupations et avoir</text>
<text text-anchor="middle" x="216.7584" y="-202.2" font-family="Times,serif" font-size="16.00" fill="#000000">ainsi l'esprit absorbé par</text>
<text text-anchor="middle" x="216.7584" y="-183" font-family="Times,serif" font-size="16.00" fill="#000000">des choses à faire …</text>
</g>
<!-- b2&#45;&gt;c2 -->
<g id="edge4" class="edge">
<title>b2-&gt;c2</title>
<path fill="none" stroke="#000000" d="M209.7317,-294.0416C210.4357,-286.2827 211.2042,-277.8127 211.9663,-269.4138"/>
<polygon fill="#000000" stroke="#000000" points="215.4698,-269.5322 212.8879,-259.2568 208.4985,-268.8996 215.4698,-269.5322"/>
</g>
<!-- c3 -->
<g id="node6" class="node">
<title>c3</title>
<polygon fill="#ffffff" stroke="#7f7f7f" points="293.0841,-166.0012 140.4327,-166.0012 140.4327,-100.7988 293.0841,-100.7988 293.0841,-166.0012"/>
<text text-anchor="middle" x="216.7584" y="-147.8" font-family="Times,serif" font-size="16.00" fill="#000000">… pour ne pas avoir</text>
<text text-anchor="middle" x="216.7584" y="-128.6" font-family="Times,serif" font-size="16.00" fill="#000000">à penser à la misère</text>
<text text-anchor="middle" x="216.7584" y="-109.4" font-family="Times,serif" font-size="16.00" fill="#000000">de notre existence</text>
</g>
<!-- c2&#45;&gt;c3 -->
<g id="edge5" class="edge">
<title>c2-&gt;c3</title>
<path fill="none" stroke="#000000" d="M216.7584,-174.0251C216.7584,-171.4663 216.7584,-168.9125 216.7584,-166.4023"/>
</g>
<!-- e1 -->
<g id="node8" class="node">
<title>e1</title>
<polygon fill="#fafafa" stroke="#0000ff" points="472.121,-237.3005 359.3958,-237.3005 359.3958,-195.8995 472.121,-195.8995 472.121,-237.3005"/>
<text text-anchor="middle" x="415.7584" y="-220.5" font-family="Times,serif" font-size="13.00" fill="#000000">Le travail peut être</text>
<text text-anchor="middle" x="415.7584" y="-204.9" font-family="Times,serif" font-size="13.00" fill="#000000">un divertissement !</text>
</g>
<!-- c2&#45;&gt;e1 -->
<g id="edge7" class="edge">
<title>c2-&gt;e1</title>
<path fill="none" stroke="#0000ff" stroke-dasharray="5,2" d="M304.2096,-216.6C322.5106,-216.6 340.8115,-216.6 359.1125,-216.6"/>
</g>
<!-- d1 -->
<g id="node7" class="node">
<title>d1</title>
<path fill="#fafafa" stroke="transparent" d="M340.672,-65.4012C340.672,-65.4012 92.8448,-65.4012 92.8448,-65.4012 86.8448,-65.4012 80.8448,-59.4012 80.8448,-53.4012 80.8448,-53.4012 80.8448,-12.1988 80.8448,-12.1988 80.8448,-6.1988 86.8448,-.1988 92.8448,-.1988 92.8448,-.1988 340.672,-.1988 340.672,-.1988 346.672,-.1988 352.672,-6.1988 352.672,-12.1988 352.672,-12.1988 352.672,-53.4012 352.672,-53.4012 352.672,-59.4012 346.672,-65.4012 340.672,-65.4012"/>
<text text-anchor="middle" x="216.7584" y="-47.2" font-family="Times,serif" font-size="16.00" fill="#cd2626">Le divertissement n'est pas le bonheur !</text>
<text text-anchor="middle" x="216.7584" y="-28" font-family="Times,serif" font-size="16.00" fill="#cd2626">Il ne fait que masquer, de manière</text>
<text text-anchor="middle" x="216.7584" y="-8.8" font-family="Times,serif" font-size="16.00" fill="#cd2626">illusoire et fragile, le malheur</text>
</g>
<!-- c3&#45;&gt;d1 -->
<!-- e2 -->
<g id="node9" class="node">
<title>e2</title>
<polygon fill="#fafafa" stroke="#0000ff" points="482.5885,-158.9 348.9283,-158.9 348.9283,-107.9 482.5885,-107.9 482.5885,-158.9"/>
<text text-anchor="start" x="354.3913" y="-143.2" font-family="Times,serif" font-size="13.00" fill="#000000">La misère existentielle</text>
<text text-anchor="start" x="353.8434" y="-132.9" font-family="Times,serif" font-size="10.00" fill="#000000">(le tragique de notre existence)</text>
<text text-anchor="start" x="355.0282" y="-115.2" font-family="Times,serif" font-size="13.00" fill="#000000">≠ la misère matérielle</text>
</g>
<!-- c3&#45;&gt;e2 -->
<g id="edge8" class="edge">
<title>c3-&gt;e2</title>
<path fill="none" stroke="#0000ff" stroke-dasharray="5,2" d="M293.3268,-133.4C311.819,-133.4 330.3113,-133.4 348.8036,-133.4"/>
</g>
</g>
</svg>