<?xml version="1.0" encoding="UTF-8" standalone="no"?>
<!DOCTYPE svg PUBLIC "-//W3C//DTD SVG 1.1//EN"
 "http://www.w3.org/Graphics/SVG/1.1/DTD/svg11.dtd">
<!-- Generated by graphviz version 2.40.1 (20161225.0304)
 -->
<!-- Title: G Pages: 1 -->
<svg width="508pt" height="415pt"
 viewBox="0.00 0.00 508.47 415.42" xmlns="http://www.w3.org/2000/svg" xmlns:xlink="http://www.w3.org/1999/xlink">
<g id="graph0" class="graph" transform="scale(1 1) rotate(0) translate(21.6 393.8224)">
<title>G</title>
<polygon fill="#fafafa" stroke="transparent" points="-21.6,21.6 -21.6,-393.8224 486.8664,-393.8224 486.8664,21.6 -21.6,21.6"/>
<!-- a1 -->
<g id="node1" class="node">
<title>a1</title>
<ellipse fill="#050505" stroke="#000000" cx="198.648" cy="-344.2209" rx="103.6266" ry="28.0029"/>
<text text-anchor="middle" x="198.648" y="-338.8209" font-family="Times,serif" font-size="18.00" fill="#ffffff">Le divertissement</text>
</g>
<!-- b1 -->
<g id="node2" class="node">
<title>b1</title>
<ellipse fill="#8b0000" stroke="#000000" cx="110.648" cy="-248.4098" rx="50.8168" ry="32.6206"/>
<text text-anchor="middle" x="110.648" y="-253.2098" font-family="Times,serif" font-size="16.00" fill="#ffffff">Au sens</text>
<text text-anchor="middle" x="110.648" y="-234.0098" font-family="Times,serif" font-size="16.00" fill="#ffffff">commun</text>
</g>
<!-- a1&#45;&gt;b1 -->
<g id="edge1" class="edge">
<title>a1&#45;&gt;b1:n</title>
<path fill="none" stroke="#000000" d="M137.0509,-321.3747C125.2657,-313.734 115.4971,-303.868 112.0148,-291.3329"/>
<polygon fill="#000000" stroke="#000000" points="115.4559,-290.6606 110.648,-281.2195 108.5189,-291.5982 115.4559,-290.6606"/>
</g>
<!-- b2 -->
<g id="node3" class="node">
<title>b2</title>
<ellipse fill="#8b0000" stroke="#000000" cx="289.648" cy="-248.4098" rx="53.9427" ry="32.6206"/>
<text text-anchor="middle" x="289.648" y="-253.2098" font-family="Times,serif" font-size="16.00" fill="#ffffff">Au sens</text>
<text text-anchor="middle" x="289.648" y="-234.0098" font-family="Times,serif" font-size="16.00" fill="#ffffff">de Pascal</text>
</g>
<!-- a1&#45;&gt;b2 -->
<g id="edge2" class="edge">
<title>a1&#45;&gt;b2:n</title>
<path fill="none" stroke="#000000" d="M262.345,-321.8564C274.6514,-314.159 284.8315,-304.1077 288.3386,-291.1637"/>
<polygon fill="#000000" stroke="#000000" points="291.8125,-291.5909 289.648,-281.2195 284.8724,-290.677 291.8125,-291.5909"/>
</g>
<!-- c1 -->
<g id="node4" class="node">
<title>c1</title>
<polygon fill="#ffffff" stroke="#7f7f7f" points="164.1368,-180.6 31.1592,-180.6 31.1592,-144.6 164.1368,-144.6 164.1368,-180.6"/>
<text text-anchor="middle" x="97.648" y="-157.8" font-family="Times,serif" font-size="16.00" fill="#000000">= un sens restreint</text>
</g>
<!-- b1&#45;&gt;c1 -->
<g id="edge3" class="edge">
<title>b1&#45;&gt;c1</title>
<path fill="none" stroke="#000000" d="M105.659,-215.4789C104.4382,-207.4205 103.1421,-198.8651 101.9562,-191.0375"/>
<polygon fill="#000000" stroke="#000000" points="105.3833,-190.2923 100.4249,-180.9294 98.4623,-191.3409 105.3833,-190.2923"/>
</g>
<!-- c2 -->
<g id="node5" class="node">
<title>c2</title>
<polygon fill="#ffffff" stroke="#7f7f7f" points="363.6961,-180.6 251.5999,-180.6 251.5999,-144.6 363.6961,-144.6 363.6961,-180.6"/>
<text text-anchor="middle" x="307.648" y="-157.8" font-family="Times,serif" font-size="16.00" fill="#000000">= un sens large</text>
</g>
<!-- b2&#45;&gt;c2 -->
<g id="edge4" class="edge">
<title>b2&#45;&gt;c2</title>
<path fill="none" stroke="#000000" d="M296.5558,-215.4789C298.2654,-207.3289 300.0816,-198.6706 301.7387,-190.7709"/>
<polygon fill="#000000" stroke="#000000" points="305.1755,-191.435 303.8031,-180.9294 298.3246,-189.9978 305.1755,-191.435"/>
</g>
<!-- d1 -->
<g id="node6" class="node">
<title>d1</title>
<path fill="#ffffff" stroke="#7f7f7f" d="M125.4443,-109.4012C125.4443,-109.4012 11.8517,-109.4012 11.8517,-109.4012 5.8517,-109.4012 -.1483,-103.4012 -.1483,-97.4012 -.1483,-97.4012 -.1483,-56.1988 -.1483,-56.1988 -.1483,-50.1988 5.8517,-44.1988 11.8517,-44.1988 11.8517,-44.1988 125.4443,-44.1988 125.4443,-44.1988 131.4443,-44.1988 137.4443,-50.1988 137.4443,-56.1988 137.4443,-56.1988 137.4443,-97.4012 137.4443,-97.4012 137.4443,-103.4012 131.4443,-109.4012 125.4443,-109.4012"/>
<text text-anchor="middle" x="68.648" y="-91.2" font-family="Times,serif" font-size="16.00" fill="#000000">Tout ce qui permet</text>
<text text-anchor="middle" x="68.648" y="-72" font-family="Times,serif" font-size="16.00" fill="#000000">de s&#39;amuser,</text>
<text text-anchor="middle" x="68.648" y="-52.8" font-family="Times,serif" font-size="16.00" fill="#000000">de se détendre</text>
</g>
<!-- c1&#45;&gt;d1 -->
<g id="edge5" class="edge">
<title>c1&#45;&gt;d1</title>
<path fill="none" stroke="#000000" d="M91.4978,-144.404C88.9826,-136.9623 85.9588,-128.0162 82.9467,-119.1044"/>
<polygon fill="#000000" stroke="#000000" points="86.2251,-117.8731 79.7073,-109.5203 79.5937,-120.1146 86.2251,-117.8731"/>
</g>
<!-- d2 -->
<g id="node7" class="node">
<title>d2</title>
<path fill="#ffffff" stroke="#7f7f7f" d="M423.7627,-109.4012C423.7627,-109.4012 221.5333,-109.4012 221.5333,-109.4012 215.5333,-109.4012 209.5333,-103.4012 209.5333,-97.4012 209.5333,-97.4012 209.5333,-56.1988 209.5333,-56.1988 209.5333,-50.1988 215.5333,-44.1988 221.5333,-44.1988 221.5333,-44.1988 423.7627,-44.1988 423.7627,-44.1988 429.7627,-44.1988 435.7627,-50.1988 435.7627,-56.1988 435.7627,-56.1988 435.7627,-97.4012 435.7627,-97.4012 435.7627,-103.4012 429.7627,-109.4012 423.7627,-109.4012"/>
<text text-anchor="middle" x="322.648" y="-91.2" font-family="Times,serif" font-size="16.00" fill="#000000">Tout ce qui permet de faire</text>
<text text-anchor="middle" x="322.648" y="-72" font-family="Times,serif" font-size="16.00" fill="#000000">diversion et d&#39;esquiver le</text>
<text text-anchor="middle" x="322.648" y="-52.8" font-family="Times,serif" font-size="16.00" fill="#000000">tragique de la condition humaine</text>
</g>
<!-- c2&#45;&gt;d2 -->
<g id="edge6" class="edge">
<title>c2&#45;&gt;d2</title>
<path fill="none" stroke="#000000" d="M310.8291,-144.404C312.1163,-137.0415 313.6609,-128.2064 315.2024,-119.3888"/>
<polygon fill="#000000" stroke="#000000" points="318.6532,-119.9737 316.9277,-109.5203 311.7577,-118.7682 318.6532,-119.9737"/>
</g>
<!-- e1 -->
<g id="node8" class="node">
<title>e1</title>
<path fill="#fafafa" stroke="transparent" d="M453.3849,-36C453.3849,-36 191.9111,-36 191.9111,-36 185.9111,-36 179.9111,-30 179.9111,-24 179.9111,-24 179.9111,-12 179.9111,-12 179.9111,-6 185.9111,0 191.9111,0 191.9111,0 453.3849,0 453.3849,0 459.3849,0 465.3849,-6 465.3849,-12 465.3849,-12 465.3849,-24 465.3849,-24 465.3849,-30 459.3849,-36 453.3849,-36"/>
<text text-anchor="middle" x="322.648" y="-13.2" font-family="Times,serif" font-size="16.00" fill="#cd2626">⇒  Le travail peut être un divertissement</text>
</g>
<!-- d2&#45;&gt;e1 -->
</g>
</svg>
