<?xml version="1.0" encoding="UTF-8" standalone="no"?>
<!DOCTYPE svg PUBLIC "-//W3C//DTD SVG 1.1//EN"
 "http://www.w3.org/Graphics/SVG/1.1/DTD/svg11.dtd">
<!-- Generated by graphviz version 2.40.1 (20161225.0304)
 -->
<!-- Title: G Pages: 1 -->
<svg width="526pt" height="471pt"
 viewBox="0.00 0.00 525.87 470.68" xmlns="http://www.w3.org/2000/svg" xmlns:xlink="http://www.w3.org/1999/xlink">
<g id="graph0" class="graph" transform="scale(1 1) rotate(0) translate(21.6 449.0802)">
<title>G</title>
<polygon fill="#fafafa" stroke="transparent" points="-21.6,21.6 -21.6,-449.0802 504.2734,-449.0802 504.2734,21.6 -21.6,21.6"/>
<!-- a1 -->
<g id="node1" class="node">
<title>a1</title>
<ellipse fill="#000000" stroke="#000000" cx="136.7584" cy="-406.5499" rx="102.2984" ry="20.861"/>
<text text-anchor="middle" x="136.7584" y="-401.1499" font-family="Times,serif" font-size="18.00" fill="#ffffff">Le divertissement</text>
</g>
<!-- b1 -->
<g id="node2" class="node">
<title>b1</title>
<ellipse fill="#8b0000" stroke="#000000" cx="77.7584" cy="-317.8098" rx="50.8168" ry="32.6206"/>
<text text-anchor="middle" x="77.7584" y="-322.6098" font-family="Times,serif" font-size="16.00" fill="#ffffff">Au sens</text>
<text text-anchor="middle" x="77.7584" y="-303.4098" font-family="Times,serif" font-size="16.00" fill="#ffffff">commun</text>
</g>
<!-- a1&#45;&gt;b1 -->
<g id="edge1" class="edge">
<title>a1&#45;&gt;b1:n</title>
<path fill="none" stroke="#000000" d="M99.7278,-386.8552C90.6521,-379.8771 82.5955,-371.1133 79.3175,-360.6742"/>
<polygon fill="#000000" stroke="#000000" points="82.7495,-359.9651 77.7584,-350.6195 75.8321,-361.0378 82.7495,-359.9651"/>
</g>
<!-- b2 -->
<g id="node3" class="node">
<title>b2</title>
<ellipse fill="#8b0000" stroke="#000000" cx="206.7584" cy="-317.8098" rx="53.9427" ry="32.6206"/>
<text text-anchor="middle" x="206.7584" y="-322.6098" font-family="Times,serif" font-size="16.00" fill="#ffffff">Au sens</text>
<text text-anchor="middle" x="206.7584" y="-303.4098" font-family="Times,serif" font-size="16.00" fill="#ffffff">de Pascal</text>
</g>
<!-- a1&#45;&gt;b2 -->
<g id="edge2" class="edge">
<title>a1&#45;&gt;b2:n</title>
<path fill="none" stroke="#000000" d="M181.8819,-387.6651C192.4638,-380.7589 201.6949,-371.812 205.2271,-360.5882"/>
<polygon fill="#000000" stroke="#000000" points="208.6995,-361.035 206.7584,-350.6195 201.7806,-359.9722 208.6995,-361.035"/>
</g>
<!-- c1 -->
<g id="node4" class="node">
<title>c1</title>
<polygon fill="#ffffff" stroke="#7f7f7f" points="115.2762,-231.0017 .2406,-231.0017 .2406,-184.1983 115.2762,-184.1983 115.2762,-231.0017"/>
<text text-anchor="middle" x="57.7584" y="-212.4" font-family="Times,serif" font-size="16.00" fill="#000000">C&#39;est s&#39;amuser,</text>
<text text-anchor="middle" x="57.7584" y="-193.2" font-family="Times,serif" font-size="16.00" fill="#000000">se détendre</text>
</g>
<!-- b1&#45;&gt;c1 -->
<g id="edge3" class="edge">
<title>b1&#45;&gt;c1</title>
<path fill="none" stroke="#000000" d="M71.8119,-285.0416C69.2978,-271.1875 66.3721,-255.066 63.8432,-241.1304"/>
<polygon fill="#000000" stroke="#000000" points="67.2295,-240.188 62.0001,-230.9737 60.342,-241.438 67.2295,-240.188"/>
</g>
<!-- c2 -->
<g id="node5" class="node">
<title>c2</title>
<polygon fill="#ffffff" stroke="#7f7f7f" points="304.0777,-249.9002 129.4391,-249.9002 129.4391,-165.2998 304.0777,-165.2998 304.0777,-249.9002"/>
<text text-anchor="middle" x="216.7584" y="-231.6" font-family="Times,serif" font-size="16.00" fill="#000000">C&#39;est se remplir</text>
<text text-anchor="middle" x="216.7584" y="-212.4" font-family="Times,serif" font-size="16.00" fill="#000000">d&#39;occupations et avoir</text>
<text text-anchor="middle" x="216.7584" y="-193.2" font-family="Times,serif" font-size="16.00" fill="#000000">ainsi l&#39;esprit absorbé par</text>
<text text-anchor="middle" x="216.7584" y="-174" font-family="Times,serif" font-size="16.00" fill="#000000">des choses à faire …</text>
</g>
<!-- b2&#45;&gt;c2 -->
<g id="edge4" class="edge">
<title>b2&#45;&gt;c2</title>
<path fill="none" stroke="#000000" d="M209.7317,-285.0416C210.4357,-277.2827 211.2042,-268.8127 211.9663,-260.4138"/>
<polygon fill="#000000" stroke="#000000" points="215.4698,-260.5322 212.8879,-250.2568 208.4985,-259.8996 215.4698,-260.5322"/>
</g>
<!-- c3 -->
<g id="node6" class="node">
<title>c3</title>
<polygon fill="#ffffff" stroke="#7f7f7f" points="293.0841,-157.0012 140.4327,-157.0012 140.4327,-91.7988 293.0841,-91.7988 293.0841,-157.0012"/>
<text text-anchor="middle" x="216.7584" y="-138.8" font-family="Times,serif" font-size="16.00" fill="#000000">… pour ne pas avoir</text>
<text text-anchor="middle" x="216.7584" y="-119.6" font-family="Times,serif" font-size="16.00" fill="#000000">à penser à la misère</text>
<text text-anchor="middle" x="216.7584" y="-100.4" font-family="Times,serif" font-size="16.00" fill="#000000">de notre existence</text>
</g>
<!-- c2&#45;&gt;c3 -->
<g id="edge5" class="edge">
<title>c2&#45;&gt;c3</title>
<path fill="none" stroke="#000000" d="M216.7584,-165.0251C216.7584,-162.4663 216.7584,-159.9125 216.7584,-157.4023"/>
</g>
<!-- e1 -->
<g id="node8" class="node">
<title>e1</title>
<polygon fill="#fafafa" stroke="#0000ff" points="472.121,-228.3005 359.3958,-228.3005 359.3958,-186.8995 472.121,-186.8995 472.121,-228.3005"/>
<text text-anchor="middle" x="415.7584" y="-211.5" font-family="Times,serif" font-size="13.00" fill="#000000">Le travail peut être</text>
<text text-anchor="middle" x="415.7584" y="-195.9" font-family="Times,serif" font-size="13.00" fill="#000000">un divertissement !</text>
</g>
<!-- c2&#45;&gt;e1 -->
<g id="edge7" class="edge">
<title>c2&#45;&gt;e1</title>
<path fill="none" stroke="#0000ff" stroke-dasharray="5,2" d="M304.2096,-207.6C322.5106,-207.6 340.8115,-207.6 359.1125,-207.6"/>
</g>
<!-- d1 -->
<g id="node7" class="node">
<title>d1</title>
<path fill="#fafafa" stroke="transparent" d="M340.672,-65.4012C340.672,-65.4012 92.8448,-65.4012 92.8448,-65.4012 86.8448,-65.4012 80.8448,-59.4012 80.8448,-53.4012 80.8448,-53.4012 80.8448,-12.1988 80.8448,-12.1988 80.8448,-6.1988 86.8448,-.1988 92.8448,-.1988 92.8448,-.1988 340.672,-.1988 340.672,-.1988 346.672,-.1988 352.672,-6.1988 352.672,-12.1988 352.672,-12.1988 352.672,-53.4012 352.672,-53.4012 352.672,-59.4012 346.672,-65.4012 340.672,-65.4012"/>
<text text-anchor="middle" x="216.7584" y="-47.2" font-family="Times,serif" font-size="16.00" fill="#cd2626">Le divertissement n&#39;est pas le bonheur !</text>
<text text-anchor="middle" x="216.7584" y="-28" font-family="Times,serif" font-size="16.00" fill="#cd2626">Il ne fait que masquer, de manière</text>
<text text-anchor="middle" x="216.7584" y="-8.8" font-family="Times,serif" font-size="16.00" fill="#cd2626">illusoire et fragile, le malheur</text>
</g>
<!-- c3&#45;&gt;d1 -->
<!-- e2 -->
<g id="node9" class="node">
<title>e2</title>
<polygon fill="#fafafa" stroke="#0000ff" points="482.5885,-149.9 348.9283,-149.9 348.9283,-98.9 482.5885,-98.9 482.5885,-149.9"/>
<text text-anchor="start" x="354.3913" y="-134.2" font-family="Times,serif" font-size="13.00" fill="#000000">La misère existentielle</text>
<text text-anchor="start" x="353.8434" y="-123.9" font-family="Times,serif" font-size="10.00" fill="#000000">(le tragique de notre existence)</text>
<text text-anchor="start" x="355.0282" y="-106.2" font-family="Times,serif" font-size="13.00" fill="#000000">≠ la misère matérielle</text>
</g>
<!-- c3&#45;&gt;e2 -->
<g id="edge8" class="edge">
<title>c3&#45;&gt;e2</title>
<path fill="none" stroke="#0000ff" stroke-dasharray="5,2" d="M293.3268,-124.4C311.819,-124.4 330.3113,-124.4 348.8036,-124.4"/>
</g>
</g>
</svg>
