<?xml version="1.0" encoding="UTF-8" standalone="no"?>
<!DOCTYPE svg PUBLIC "-//W3C//DTD SVG 1.1//EN"
 "http://www.w3.org/Graphics/SVG/1.1/DTD/svg11.dtd">
<!-- Generated by graphviz version 2.40.1 (20161225.0304)
 -->
<!-- Title: G Pages: 1 -->
<svg width="773pt" height="590pt"
 viewBox="0.00 0.00 772.58 590.03" xmlns="http://www.w3.org/2000/svg" xmlns:xlink="http://www.w3.org/1999/xlink">
<g id="graph0" class="graph" transform="scale(1 1) rotate(0) translate(21.6 568.4272)">
<title>G</title>
<polygon fill="#fafafa" stroke="transparent" points="-21.6,21.6 -21.6,-568.4272 750.9808,-568.4272 750.9808,21.6 -21.6,21.6"/>
<!-- a1 -->
<g id="node1" class="node">
<title>a1</title>
<ellipse fill="#000000" stroke="#000000" cx="431.6336" cy="-510.6234" rx="136.5028" ry="36.4089"/>
<text text-anchor="middle" x="431.6336" y="-516.0234" font-family="Times,serif" font-size="18.00" fill="#ffffff">La première génération</text>
<text text-anchor="middle" x="431.6336" y="-494.4234" font-family="Times,serif" font-size="18.00" fill="#ffffff">des droits humains</text>
</g>
<!-- b1 -->
<g id="node2" class="node">
<title>b1</title>
<ellipse fill="#8b0000" stroke="#000000" cx="263.6336" cy="-406.6098" rx="56.4887" ry="32.6206"/>
<text text-anchor="middle" x="263.6336" y="-411.4098" font-family="Times,serif" font-size="16.00" fill="#ffffff">Les droits</text>
<text text-anchor="middle" x="263.6336" y="-392.2098" font-family="Times,serif" font-size="16.00" fill="#ffffff">civils</text>
</g>
<!-- a1&#45;&gt;b1 -->
<g id="edge1" class="edge">
<title>a1&#45;&gt;b1:n</title>
<path fill="none" stroke="#000000" d="M332.9356,-485.5461C303.2233,-475.5868 276.0433,-463.1762 266.8954,-449.2722"/>
<polygon fill="#000000" stroke="#000000" points="270.0992,-447.8128 263.6336,-439.4195 263.4539,-450.0128 270.0992,-447.8128"/>
</g>
<!-- b2 -->
<g id="node3" class="node">
<title>b2</title>
<ellipse fill="#8b0000" stroke="#000000" cx="599.6336" cy="-406.6098" rx="56.4887" ry="32.6206"/>
<text text-anchor="middle" x="599.6336" y="-411.4098" font-family="Times,serif" font-size="16.00" fill="#ffffff">Les droits</text>
<text text-anchor="middle" x="599.6336" y="-392.2098" font-family="Times,serif" font-size="16.00" fill="#ffffff">politiques</text>
</g>
<!-- a1&#45;&gt;b2 -->
<g id="edge2" class="edge">
<title>a1&#45;&gt;b2:n</title>
<path fill="none" stroke="#000000" d="M530.3316,-485.5461C560.0439,-475.5868 587.2239,-463.1762 596.3718,-449.2722"/>
<polygon fill="#000000" stroke="#000000" points="599.8133,-450.0128 599.6336,-439.4195 593.168,-447.8128 599.8133,-450.0128"/>
</g>
<!-- b1&#45;&gt;b2 -->
<!-- c1 -->
<g id="node4" class="node">
<title>c1</title>
<polygon fill="#ffffff" stroke="#7f7f7f" points="145.401,-329.1002 -.1338,-329.1002 -.1338,-244.4998 145.401,-244.4998 145.401,-329.1002"/>
<text text-anchor="middle" x="72.6336" y="-310.8" font-family="Times,serif" font-size="16.00" fill="#000000">Objectif : garantir</text>
<text text-anchor="middle" x="72.6336" y="-291.6" font-family="Times,serif" font-size="16.00" fill="#000000">l&#39;intégrité physique</text>
<text text-anchor="middle" x="72.6336" y="-272.4" font-family="Times,serif" font-size="16.00" fill="#000000">et l&#39;intégrité morale</text>
<text text-anchor="middle" x="72.6336" y="-253.2" font-family="Times,serif" font-size="16.00" fill="#000000">de l&#39;individu</text>
</g>
<!-- b1&#45;&gt;c1 -->
<g id="edge4" class="edge">
<title>b1&#45;&gt;c1</title>
<path fill="none" stroke="#000000" d="M224.4276,-383.025C203.1059,-370.1069 176.3229,-353.7308 152.6336,-338.8 150.4877,-337.4475 148.3124,-336.0708 146.1187,-334.6775"/>
<polygon fill="#000000" stroke="#000000" points="147.9036,-331.6647 137.5903,-329.2382 144.1394,-337.5665 147.9036,-331.6647"/>
</g>
<!-- c2 -->
<g id="node5" class="node">
<title>c2</title>
<polygon fill="#ffffff" stroke="#7f7f7f" points="305.8001,-338.8 159.4671,-338.8 159.4671,-234.8 305.8001,-234.8 305.8001,-338.8"/>
<text text-anchor="middle" x="232.6336" y="-320.4" font-family="Times,serif" font-size="16.00" fill="#000000">Objectif : garantir la</text>
<text text-anchor="middle" x="232.6336" y="-301.2" font-family="Times,serif" font-size="16.00" fill="#000000">non&#45;interférence</text>
<text text-anchor="middle" x="232.6336" y="-282" font-family="Times,serif" font-size="16.00" fill="#000000">de l&#39;État dans ce</text>
<text text-anchor="middle" x="232.6336" y="-262.8" font-family="Times,serif" font-size="16.00" fill="#000000">qui relève de la</text>
<text text-anchor="middle" x="232.6336" y="-243.6" font-family="Times,serif" font-size="16.00" fill="#000000">sphère privée</text>
</g>
<!-- b1&#45;&gt;c2 -->
<g id="edge5" class="edge">
<title>b1&#45;&gt;c2</title>
<path fill="none" stroke="#000000" d="M255.1627,-373.8712C253.1308,-366.0183 250.8945,-357.3752 248.6438,-348.6766"/>
<polygon fill="#000000" stroke="#000000" points="252.0001,-347.6756 246.1067,-338.8711 245.2233,-349.4291 252.0001,-347.6756"/>
</g>
<!-- c3 -->
<g id="node6" class="node">
<title>c3</title>
<polygon fill="#ffffff" stroke="#7f7f7f" points="491.9785,-338.8 321.2887,-338.8 321.2887,-234.8 491.9785,-234.8 491.9785,-338.8"/>
<text text-anchor="middle" x="406.6336" y="-320.4" font-family="Times,serif" font-size="16.00" fill="#000000">Objectif : garantir</text>
<text text-anchor="middle" x="406.6336" y="-301.2" font-family="Times,serif" font-size="16.00" fill="#000000">un droit à la justice</text>
<text text-anchor="middle" x="406.6336" y="-282" font-family="Times,serif" font-size="16.00" fill="#000000">pour protéger l&#39;individu</text>
<text text-anchor="middle" x="406.6336" y="-262.8" font-family="Times,serif" font-size="16.00" fill="#000000">de l&#39;exercice arbitraire</text>
<text text-anchor="middle" x="406.6336" y="-243.6" font-family="Times,serif" font-size="16.00" fill="#000000">du pouvoir de l&#39;État</text>
</g>
<!-- b1&#45;&gt;c3 -->
<g id="edge6" class="edge">
<title>b1&#45;&gt;c3</title>
<path fill="none" stroke="#000000" d="M296.0825,-379.4231C308.1805,-369.287 322.4301,-357.3482 336.6028,-345.474"/>
<polygon fill="#000000" stroke="#000000" points="339.0369,-348.0007 344.4544,-338.8956 334.5414,-342.635 339.0369,-348.0007"/>
</g>
<!-- c4 -->
<g id="node7" class="node">
<title>c4</title>
<polygon fill="#ffffff" stroke="#7f7f7f" points="683.8001,-319.4012 541.4671,-319.4012 541.4671,-254.1988 683.8001,-254.1988 683.8001,-319.4012"/>
<text text-anchor="middle" x="612.6336" y="-301.2" font-family="Times,serif" font-size="16.00" fill="#000000">Objectif : permettre</text>
<text text-anchor="middle" x="612.6336" y="-282" font-family="Times,serif" font-size="16.00" fill="#000000">la participation à</text>
<text text-anchor="middle" x="612.6336" y="-262.8" font-family="Times,serif" font-size="16.00" fill="#000000">la vie politique</text>
</g>
<!-- b2&#45;&gt;c4 -->
<g id="edge7" class="edge">
<title>b2&#45;&gt;c4</title>
<path fill="none" stroke="#000000" d="M603.2203,-373.5541C604.6838,-360.0661 606.3958,-344.2884 607.9555,-329.9139"/>
<polygon fill="#000000" stroke="#000000" points="611.4594,-330.067 609.0586,-319.7478 604.5002,-329.3119 611.4594,-330.067"/>
</g>
<!-- d1 -->
<g id="node8" class="node">
<title>d1</title>
<path fill="#ffffff" stroke="#7f7f7f" d="M127.1688,-180.8005C127.1688,-180.8005 16.0984,-180.8005 16.0984,-180.8005 10.0984,-180.8005 4.0984,-174.8005 4.0984,-168.8005 4.0984,-168.8005 4.0984,-30.9995 4.0984,-30.9995 4.0984,-24.9995 10.0984,-18.9995 16.0984,-18.9995 16.0984,-18.9995 127.1688,-18.9995 127.1688,-18.9995 133.1688,-18.9995 139.1688,-24.9995 139.1688,-30.9995 139.1688,-30.9995 139.1688,-168.8005 139.1688,-168.8005 139.1688,-174.8005 133.1688,-180.8005 127.1688,-180.8005"/>
<text text-anchor="middle" x="71.6336" y="-162.2" font-family="Times,serif" font-size="16.00" fill="#000000">Droit à la sûreté,</text>
<text text-anchor="middle" x="71.6336" y="-143" font-family="Times,serif" font-size="16.00" fill="#000000">interdiction</text>
<text text-anchor="middle" x="71.6336" y="-123.8" font-family="Times,serif" font-size="16.00" fill="#000000">des peines ou</text>
<text text-anchor="middle" x="71.6336" y="-104.6" font-family="Times,serif" font-size="16.00" fill="#000000">traitements cruels</text>
<text text-anchor="middle" x="71.6336" y="-66.4" font-family="Times,serif" font-size="16.00" fill="#000000">Liberté de pensée,</text>
<text text-anchor="middle" x="71.6336" y="-47.2" font-family="Times,serif" font-size="16.00" fill="#000000">de conscience et</text>
<text text-anchor="middle" x="71.6336" y="-28" font-family="Times,serif" font-size="16.00" fill="#000000">de religion</text>
</g>
<!-- c1&#45;&gt;d1 -->
<g id="edge8" class="edge">
<title>c1&#45;&gt;d1</title>
<path fill="none" stroke="#000000" d="M72.4067,-244.3895C72.3212,-228.413 72.2204,-209.5655 72.1202,-190.8517"/>
<polygon fill="#000000" stroke="#000000" points="75.62,-190.7733 72.0664,-180.7922 68.6201,-190.8108 75.62,-190.7733"/>
</g>
<!-- d2 -->
<g id="node9" class="node">
<title>d2</title>
<path fill="#ffffff" stroke="#7f7f7f" d="M299.9561,-151.9C299.9561,-151.9 165.3111,-151.9 165.3111,-151.9 159.3111,-151.9 153.3111,-145.9 153.3111,-139.9 153.3111,-139.9 153.3111,-59.9 153.3111,-59.9 153.3111,-53.9 159.3111,-47.9 165.3111,-47.9 165.3111,-47.9 299.9561,-47.9 299.9561,-47.9 305.9561,-47.9 311.9561,-53.9 311.9561,-59.9 311.9561,-59.9 311.9561,-139.9 311.9561,-139.9 311.9561,-145.9 305.9561,-151.9 299.9561,-151.9"/>
<text text-anchor="middle" x="232.6336" y="-133.5" font-family="Times,serif" font-size="16.00" fill="#000000">Liberté de circulation,</text>
<text text-anchor="middle" x="232.6336" y="-114.3" font-family="Times,serif" font-size="16.00" fill="#000000">droits de propriété,</text>
<text text-anchor="middle" x="232.6336" y="-95.1" font-family="Times,serif" font-size="16.00" fill="#000000">respect de la vie</text>
<text text-anchor="middle" x="232.6336" y="-75.9" font-family="Times,serif" font-size="16.00" fill="#000000">privée, droit de</text>
<text text-anchor="middle" x="232.6336" y="-56.7" font-family="Times,serif" font-size="16.00" fill="#000000">fonder une famille</text>
</g>
<!-- c2&#45;&gt;d2 -->
<g id="edge9" class="edge">
<title>c2&#45;&gt;d2</title>
<path fill="none" stroke="#000000" d="M232.6336,-234.7379C232.6336,-212.2507 232.6336,-185.7567 232.6336,-162.2325"/>
<polygon fill="#000000" stroke="#000000" points="236.1337,-162.0067 232.6336,-152.0067 229.1337,-162.0067 236.1337,-162.0067"/>
</g>
<!-- d3 -->
<g id="node10" class="node">
<title>d3</title>
<path fill="#ffffff" stroke="#7f7f7f" d="M477.3714,-190.3004C477.3714,-190.3004 337.8958,-190.3004 337.8958,-190.3004 331.8958,-190.3004 325.8958,-184.3004 325.8958,-178.3004 325.8958,-178.3004 325.8958,-21.4996 325.8958,-21.4996 325.8958,-15.4996 331.8958,-9.4996 337.8958,-9.4996 337.8958,-9.4996 477.3714,-9.4996 477.3714,-9.4996 483.3714,-9.4996 489.3714,-15.4996 489.3714,-21.4996 489.3714,-21.4996 489.3714,-178.3004 489.3714,-178.3004 489.3714,-184.3004 483.3714,-190.3004 477.3714,-190.3004"/>
<text text-anchor="middle" x="407.6336" y="-171.7" font-family="Times,serif" font-size="16.00" fill="#000000">Interdiction de</text>
<text text-anchor="middle" x="407.6336" y="-152.5" font-family="Times,serif" font-size="16.00" fill="#000000">l&#39;arrestation et de la</text>
<text text-anchor="middle" x="407.6336" y="-133.3" font-family="Times,serif" font-size="16.00" fill="#000000">détention arbitraires</text>
<text text-anchor="middle" x="407.6336" y="-95.1" font-family="Times,serif" font-size="16.00" fill="#000000">Droit à la présomption</text>
<text text-anchor="middle" x="407.6336" y="-75.9" font-family="Times,serif" font-size="16.00" fill="#000000">d&#39;innocence, droit à</text>
<text text-anchor="middle" x="407.6336" y="-56.7" font-family="Times,serif" font-size="16.00" fill="#000000">un procès équitable</text>
<text text-anchor="middle" x="407.6336" y="-18.5" font-family="Times,serif" font-size="16.00" fill="#000000">Droit d&#39;asile</text>
</g>
<!-- c3&#45;&gt;d3 -->
<g id="edge10" class="edge">
<title>c3&#45;&gt;d3</title>
<path fill="none" stroke="#000000" d="M406.9122,-234.7379C406.9694,-224.0447 407.0314,-212.4455 407.0943,-200.6904"/>
<polygon fill="#000000" stroke="#000000" points="410.5961,-200.3575 407.1497,-190.3389 403.5962,-200.32 410.5961,-200.3575"/>
</g>
<!-- d4 -->
<g id="node11" class="node">
<title>d4</title>
<path fill="#ffffff" stroke="#7f7f7f" d="M717.6285,-199.7001C717.6285,-199.7001 515.6387,-199.7001 515.6387,-199.7001 509.6387,-199.7001 503.6387,-193.7001 503.6387,-187.7001 503.6387,-187.7001 503.6387,-12.0999 503.6387,-12.0999 503.6387,-6.0999 509.6387,-.0999 515.6387,-.0999 515.6387,-.0999 717.6285,-.0999 717.6285,-.0999 723.6285,-.0999 729.6285,-6.0999 729.6285,-12.0999 729.6285,-12.0999 729.6285,-187.7001 729.6285,-187.7001 729.6285,-193.7001 723.6285,-199.7001 717.6285,-199.7001"/>
<text text-anchor="middle" x="616.6336" y="-181.4" font-family="Times,serif" font-size="16.00" fill="#000000">Reconnaissance de</text>
<text text-anchor="middle" x="616.6336" y="-162.2" font-family="Times,serif" font-size="16.00" fill="#000000">l&#39;égalité des citoyen·ne·s,</text>
<text text-anchor="middle" x="616.6336" y="-143" font-family="Times,serif" font-size="16.00" fill="#000000">principe de non&#45;discrimination,</text>
<text text-anchor="middle" x="616.6336" y="-123.8" font-family="Times,serif" font-size="16.00" fill="#000000">droit à une nationalité</text>
<text text-anchor="middle" x="616.6336" y="-85.6" font-family="Times,serif" font-size="16.00" fill="#000000">Droit de vote, droit d&#39;exercer</text>
<text text-anchor="middle" x="616.6336" y="-66.4" font-family="Times,serif" font-size="16.00" fill="#000000">une fonction publique, liberté de</text>
<text text-anchor="middle" x="616.6336" y="-47.2" font-family="Times,serif" font-size="16.00" fill="#000000">réunion et d&#39;association, liberté</text>
<text text-anchor="middle" x="616.6336" y="-28" font-family="Times,serif" font-size="16.00" fill="#000000">d&#39;expression, droit d&#39;accès</text>
<text text-anchor="middle" x="616.6336" y="-8.8" font-family="Times,serif" font-size="16.00" fill="#000000">à l&#39;information</text>
</g>
<!-- c4&#45;&gt;d4 -->
<g id="edge11" class="edge">
<title>c4&#45;&gt;d4</title>
<path fill="none" stroke="#000000" d="M613.3395,-253.8163C613.6081,-241.2654 613.9313,-226.1643 614.2688,-210.393"/>
<polygon fill="#000000" stroke="#000000" points="617.7774,-210.0248 614.4923,-199.9522 610.779,-209.875 617.7774,-210.0248"/>
</g>
</g>
</svg>
