<?xml version="1.0" encoding="UTF-8" standalone="no"?>
<!DOCTYPE svg PUBLIC "-//W3C//DTD SVG 1.1//EN"
 "http://www.w3.org/Graphics/SVG/1.1/DTD/svg11.dtd">
<!-- Generated by graphviz version 2.40.1 (20161225.0304)
 -->
<!-- Title: G Pages: 1 -->
<svg width="729pt" height="590pt"
 viewBox="0.00 0.00 729.24 590.03" xmlns="http://www.w3.org/2000/svg" xmlns:xlink="http://www.w3.org/1999/xlink">
<g id="graph0" class="graph" transform="scale(1 1) rotate(0) translate(21.6 568.4272)">
<title>G</title>
<polygon fill="#fafafa" stroke="transparent" points="-21.6,21.6 -21.6,-568.4272 707.6352,-568.4272 707.6352,21.6 -21.6,21.6"/>
<!-- a1 -->
<g id="node1" class="node">
<title>a1</title>
<ellipse fill="#000000" stroke="#000000" cx="349.288" cy="-510.6234" rx="136.5028" ry="36.4089"/>
<text text-anchor="middle" x="349.288" y="-516.0234" font-family="Times,serif" font-size="18.00" fill="#ffffff">La première génération</text>
<text text-anchor="middle" x="349.288" y="-494.4234" font-family="Times,serif" font-size="18.00" fill="#ffffff">des droits humains</text>
</g>
<!-- b1 -->
<g id="node2" class="node">
<title>b1</title>
<ellipse fill="#8b0000" stroke="#000000" cx="196.288" cy="-406.6098" rx="56.4887" ry="32.6206"/>
<text text-anchor="middle" x="196.288" y="-411.4098" font-family="Times,serif" font-size="16.00" fill="#ffffff">Les droits</text>
<text text-anchor="middle" x="196.288" y="-392.2098" font-family="Times,serif" font-size="16.00" fill="#ffffff">civils</text>
</g>
<!-- a1&#45;&gt;b1 -->
<g id="edge1" class="edge">
<title>a1&#45;&gt;b1:n</title>
<path fill="none" stroke="#000000" d="M257.6374,-483.6204C231.6713,-473.7437 208.1312,-461.8656 199.6394,-449.2194"/>
<polygon fill="#000000" stroke="#000000" points="202.8356,-447.7489 196.288,-439.4195 196.2122,-450.0141 202.8356,-447.7489"/>
</g>
<!-- b2 -->
<g id="node3" class="node">
<title>b2</title>
<ellipse fill="#8b0000" stroke="#000000" cx="349.288" cy="-406.6098" rx="56.6236" ry="32.6206"/>
<text text-anchor="middle" x="349.288" y="-411.4098" font-family="Times,serif" font-size="16.00" fill="#ffffff">Les droits</text>
<text text-anchor="middle" x="349.288" y="-392.2098" font-family="Times,serif" font-size="16.00" fill="#ffffff">juridiques</text>
</g>
<!-- a1&#45;&gt;b2 -->
<g id="edge2" class="edge">
<title>a1&#45;&gt;b2:n</title>
<path fill="none" stroke="#000000" d="M349.288,-474.4002C349.288,-466.4283 349.288,-457.8593 349.288,-449.4848"/>
<polygon fill="#000000" stroke="#000000" points="352.7881,-449.4195 349.288,-439.4195 345.7881,-449.4195 352.7881,-449.4195"/>
</g>
<!-- b3 -->
<g id="node4" class="node">
<title>b3</title>
<ellipse fill="#8b0000" stroke="#000000" cx="524.288" cy="-406.6098" rx="56.4887" ry="32.6206"/>
<text text-anchor="middle" x="524.288" y="-411.4098" font-family="Times,serif" font-size="16.00" fill="#ffffff">Les droits</text>
<text text-anchor="middle" x="524.288" y="-392.2098" font-family="Times,serif" font-size="16.00" fill="#ffffff">politiques</text>
</g>
<!-- a1&#45;&gt;b3 -->
<g id="edge3" class="edge">
<title>a1&#45;&gt;b3:n</title>
<path fill="none" stroke="#000000" d="M451.3395,-486.3809C482.8374,-476.3968 511.747,-463.7453 521.1194,-449.2234"/>
<polygon fill="#000000" stroke="#000000" points="524.543,-450.0113 524.288,-439.4195 517.8822,-447.8585 524.543,-450.0113"/>
</g>
<!-- c1 -->
<g id="node5" class="node">
<title>c1</title>
<polygon fill="#ffffff" stroke="#7f7f7f" points="232.2464,-338.8 4.3296,-338.8 4.3296,-234.8 232.2464,-234.8 232.2464,-338.8"/>
<text text-anchor="middle" x="118.288" y="-320.4" font-family="Times,serif" font-size="16.00" fill="#000000">Objectif : garantir l&#39;intégrité</text>
<text text-anchor="middle" x="118.288" y="-301.2" font-family="Times,serif" font-size="16.00" fill="#000000">physique et morale de l&#39;individu,</text>
<text text-anchor="middle" x="118.288" y="-282" font-family="Times,serif" font-size="16.00" fill="#000000">et la non&#45;interférence de l&#39;État</text>
<text text-anchor="middle" x="118.288" y="-262.8" font-family="Times,serif" font-size="16.00" fill="#000000">dans la sphère privée des choix</text>
<text text-anchor="middle" x="118.288" y="-243.6" font-family="Times,serif" font-size="16.00" fill="#000000">personnels de l&#39;individu</text>
</g>
<!-- b1&#45;&gt;c1 -->
<g id="edge4" class="edge">
<title>b1&#45;&gt;c1</title>
<path fill="none" stroke="#000000" d="M176.2011,-375.7558C170.5454,-367.0685 164.1895,-357.3057 157.8149,-347.5141"/>
<polygon fill="#000000" stroke="#000000" points="160.6144,-345.3992 152.2252,-338.9283 154.748,-349.2184 160.6144,-345.3992"/>
</g>
<!-- c2 -->
<g id="node6" class="node">
<title>c2</title>
<polygon fill="#ffffff" stroke="#7f7f7f" points="452.3836,-319.4012 246.1924,-319.4012 246.1924,-254.1988 452.3836,-254.1988 452.3836,-319.4012"/>
<text text-anchor="middle" x="349.288" y="-301.2" font-family="Times,serif" font-size="16.00" fill="#000000">Objectif : garantir une</text>
<text text-anchor="middle" x="349.288" y="-282" font-family="Times,serif" font-size="16.00" fill="#000000">protection contre l&#39;exercice</text>
<text text-anchor="middle" x="349.288" y="-262.8" font-family="Times,serif" font-size="16.00" fill="#000000">arbitraire du pouvoir de l&#39;État</text>
</g>
<!-- b2&#45;&gt;c2 -->
<g id="edge5" class="edge">
<title>b2&#45;&gt;c2</title>
<path fill="none" stroke="#000000" d="M349.288,-373.5541C349.288,-360.0661 349.288,-344.2884 349.288,-329.9139"/>
<polygon fill="#000000" stroke="#000000" points="352.7881,-329.7478 349.288,-319.7478 345.7881,-329.7479 352.7881,-329.7478"/>
</g>
<!-- c3 -->
<g id="node7" class="node">
<title>c3</title>
<polygon fill="#ffffff" stroke="#7f7f7f" points="632.4545,-319.4012 490.1215,-319.4012 490.1215,-254.1988 632.4545,-254.1988 632.4545,-319.4012"/>
<text text-anchor="middle" x="561.288" y="-301.2" font-family="Times,serif" font-size="16.00" fill="#000000">Objectif : permettre</text>
<text text-anchor="middle" x="561.288" y="-282" font-family="Times,serif" font-size="16.00" fill="#000000">la participation à</text>
<text text-anchor="middle" x="561.288" y="-262.8" font-family="Times,serif" font-size="16.00" fill="#000000">la vie politique</text>
</g>
<!-- b3&#45;&gt;c3 -->
<g id="edge6" class="edge">
<title>b3&#45;&gt;c3</title>
<path fill="none" stroke="#000000" d="M534.3007,-374.1875C538.5436,-360.4486 543.547,-344.2473 548.0857,-329.5505"/>
<polygon fill="#000000" stroke="#000000" points="551.532,-330.2523 551.1386,-319.6648 544.8436,-328.1868 551.532,-330.2523"/>
</g>
<!-- d1 -->
<g id="node8" class="node">
<title>d1</title>
<path fill="#ffffff" stroke="#7f7f7f" d="M224.3644,-190.3004C224.3644,-190.3004 12.2116,-190.3004 12.2116,-190.3004 6.2116,-190.3004 .2116,-184.3004 .2116,-178.3004 .2116,-178.3004 .2116,-21.4996 .2116,-21.4996 .2116,-15.4996 6.2116,-9.4996 12.2116,-9.4996 12.2116,-9.4996 224.3644,-9.4996 224.3644,-9.4996 230.3644,-9.4996 236.3644,-15.4996 236.3644,-21.4996 236.3644,-21.4996 236.3644,-178.3004 236.3644,-178.3004 236.3644,-184.3004 230.3644,-190.3004 224.3644,-190.3004"/>
<text text-anchor="middle" x="118.288" y="-171.7" font-family="Times,serif" font-size="16.00" fill="#000000">Droit à la sûreté, interdiction</text>
<text text-anchor="middle" x="118.288" y="-152.5" font-family="Times,serif" font-size="16.00" fill="#000000">des peines ou traitements cruels</text>
<text text-anchor="middle" x="118.288" y="-114.3" font-family="Times,serif" font-size="16.00" fill="#000000">Liberté de pensée, de</text>
<text text-anchor="middle" x="118.288" y="-95.1" font-family="Times,serif" font-size="16.00" fill="#000000">conscience et de religion</text>
<text text-anchor="middle" x="118.288" y="-56.9" font-family="Times,serif" font-size="16.00" fill="#000000">Liberté de circulation, droits</text>
<text text-anchor="middle" x="118.288" y="-37.7" font-family="Times,serif" font-size="16.00" fill="#000000">de propriété, respect de la vie</text>
<text text-anchor="middle" x="118.288" y="-18.5" font-family="Times,serif" font-size="16.00" fill="#000000">privée, droit de fonder une famille</text>
</g>
<!-- c1&#45;&gt;d1 -->
<g id="edge7" class="edge">
<title>c1&#45;&gt;d1</title>
<path fill="none" stroke="#000000" d="M118.288,-234.7379C118.288,-224.0447 118.288,-212.4455 118.288,-200.6904"/>
<polygon fill="#000000" stroke="#000000" points="121.7881,-200.3389 118.288,-190.3389 114.7881,-200.3389 121.7881,-200.3389"/>
</g>
<!-- d2 -->
<g id="node9" class="node">
<title>d2</title>
<path fill="#ffffff" stroke="#7f7f7f" d="M433.9826,-180.6001C433.9826,-180.6001 262.5934,-180.6001 262.5934,-180.6001 256.5934,-180.6001 250.5934,-174.6001 250.5934,-168.6001 250.5934,-168.6001 250.5934,-31.1999 250.5934,-31.1999 250.5934,-25.1999 256.5934,-19.1999 262.5934,-19.1999 262.5934,-19.1999 433.9826,-19.1999 433.9826,-19.1999 439.9826,-19.1999 445.9826,-25.1999 445.9826,-31.1999 445.9826,-31.1999 445.9826,-168.6001 445.9826,-168.6001 445.9826,-174.6001 439.9826,-180.6001 433.9826,-180.6001"/>
<text text-anchor="middle" x="348.288" y="-162.1" font-family="Times,serif" font-size="16.00" fill="#000000">Interdiction de l&#39;arrestation</text>
<text text-anchor="middle" x="348.288" y="-142.9" font-family="Times,serif" font-size="16.00" fill="#000000">et de la détention arbitraires</text>
<text text-anchor="middle" x="348.288" y="-104.7" font-family="Times,serif" font-size="16.00" fill="#000000">Droit à la présomption</text>
<text text-anchor="middle" x="348.288" y="-85.5" font-family="Times,serif" font-size="16.00" fill="#000000">d&#39;innocence, droit à</text>
<text text-anchor="middle" x="348.288" y="-66.3" font-family="Times,serif" font-size="16.00" fill="#000000">un procès équitable</text>
<text text-anchor="middle" x="348.288" y="-28.1" font-family="Times,serif" font-size="16.00" fill="#000000">Droit d&#39;asile</text>
</g>
<!-- c2&#45;&gt;d2 -->
<g id="edge8" class="edge">
<title>c2&#45;&gt;d2</title>
<path fill="none" stroke="#000000" d="M349.1115,-253.8163C349.0172,-236.1861 348.8959,-213.524 348.7756,-191.0403"/>
<polygon fill="#000000" stroke="#000000" points="352.2741,-190.7223 348.7205,-180.7412 345.2742,-190.7599 352.2741,-190.7223"/>
</g>
<!-- d3 -->
<g id="node10" class="node">
<title>d3</title>
<path fill="#ffffff" stroke="#7f7f7f" d="M674.2829,-199.7001C674.2829,-199.7001 472.2931,-199.7001 472.2931,-199.7001 466.2931,-199.7001 460.2931,-193.7001 460.2931,-187.7001 460.2931,-187.7001 460.2931,-12.0999 460.2931,-12.0999 460.2931,-6.0999 466.2931,-.0999 472.2931,-.0999 472.2931,-.0999 674.2829,-.0999 674.2829,-.0999 680.2829,-.0999 686.2829,-6.0999 686.2829,-12.0999 686.2829,-12.0999 686.2829,-187.7001 686.2829,-187.7001 686.2829,-193.7001 680.2829,-199.7001 674.2829,-199.7001"/>
<text text-anchor="middle" x="573.288" y="-181.4" font-family="Times,serif" font-size="16.00" fill="#000000">Reconnaissance de</text>
<text text-anchor="middle" x="573.288" y="-162.2" font-family="Times,serif" font-size="16.00" fill="#000000">l&#39;égalité des citoyen·ne·s,</text>
<text text-anchor="middle" x="573.288" y="-143" font-family="Times,serif" font-size="16.00" fill="#000000">principe de non&#45;discrimination,</text>
<text text-anchor="middle" x="573.288" y="-123.8" font-family="Times,serif" font-size="16.00" fill="#000000">droit à une nationalité</text>
<text text-anchor="middle" x="573.288" y="-85.6" font-family="Times,serif" font-size="16.00" fill="#000000">Droit de vote, droit d&#39;exercer</text>
<text text-anchor="middle" x="573.288" y="-66.4" font-family="Times,serif" font-size="16.00" fill="#000000">une fonction publique, liberté de</text>
<text text-anchor="middle" x="573.288" y="-47.2" font-family="Times,serif" font-size="16.00" fill="#000000">réunion et d&#39;association, liberté</text>
<text text-anchor="middle" x="573.288" y="-28" font-family="Times,serif" font-size="16.00" fill="#000000">d&#39;expression, droit d&#39;accès</text>
<text text-anchor="middle" x="573.288" y="-8.8" font-family="Times,serif" font-size="16.00" fill="#000000">à l&#39;information</text>
</g>
<!-- c3&#45;&gt;d3 -->
<g id="edge9" class="edge">
<title>c3&#45;&gt;d3</title>
<path fill="none" stroke="#000000" d="M563.4057,-253.8163C564.2192,-241.1458 565.1996,-225.8765 566.2227,-209.9422"/>
<polygon fill="#000000" stroke="#000000" points="569.7161,-210.1559 566.8641,-199.9522 562.7305,-209.7073 569.7161,-210.1559"/>
</g>
</g>
</svg>
