<?xml version="1.0" encoding="UTF-8" standalone="no"?>
<!DOCTYPE svg PUBLIC "-//W3C//DTD SVG 1.1//EN"
 "http://www.w3.org/Graphics/SVG/1.1/DTD/svg11.dtd">
<!-- Generated by graphviz version 2.40.1 (20161225.0304)
 -->
<!-- Title: G Pages: 1 -->
<svg width="766pt" height="590pt"
 viewBox="0.00 0.00 765.58 590.03" xmlns="http://www.w3.org/2000/svg" xmlns:xlink="http://www.w3.org/1999/xlink">
<g id="graph0" class="graph" transform="scale(1 1) rotate(0) translate(21.6 568.4272)">
<title>G</title>
<polygon fill="#fafafa" stroke="transparent" points="-21.6,21.6 -21.6,-568.4272 743.9808,-568.4272 743.9808,21.6 -21.6,21.6"/>
<!-- a1 -->
<g id="node1" class="node">
<title>a1</title>
<ellipse fill="#000000" stroke="#000000" cx="428.6336" cy="-510.6234" rx="136.5028" ry="36.4089"/>
<text text-anchor="middle" x="428.6336" y="-516.0234" font-family="Times,serif" font-size="18.00" fill="#ffffff">La première génération</text>
<text text-anchor="middle" x="428.6336" y="-494.4234" font-family="Times,serif" font-size="18.00" fill="#ffffff">des droits humains</text>
</g>
<!-- b1 -->
<g id="node2" class="node">
<title>b1</title>
<ellipse fill="#8b0000" stroke="#000000" cx="260.6336" cy="-406.6098" rx="56.4887" ry="32.6206"/>
<text text-anchor="middle" x="260.6336" y="-411.4098" font-family="Times,serif" font-size="16.00" fill="#ffffff">Les droits</text>
<text text-anchor="middle" x="260.6336" y="-392.2098" font-family="Times,serif" font-size="16.00" fill="#ffffff">civils</text>
</g>
<!-- a1&#45;&gt;b1 -->
<g id="edge1" class="edge">
<title>a1&#45;&gt;b1:n</title>
<path fill="none" stroke="#000000" d="M329.9356,-485.5461C300.2233,-475.5868 273.0433,-463.1762 263.8954,-449.2722"/>
<polygon fill="#000000" stroke="#000000" points="267.0992,-447.8128 260.6336,-439.4195 260.4539,-450.0128 267.0992,-447.8128"/>
</g>
<!-- b2 -->
<g id="node3" class="node">
<title>b2</title>
<ellipse fill="#8b0000" stroke="#000000" cx="596.6336" cy="-406.6098" rx="56.4887" ry="32.6206"/>
<text text-anchor="middle" x="596.6336" y="-411.4098" font-family="Times,serif" font-size="16.00" fill="#ffffff">Les droits</text>
<text text-anchor="middle" x="596.6336" y="-392.2098" font-family="Times,serif" font-size="16.00" fill="#ffffff">politiques</text>
</g>
<!-- a1&#45;&gt;b2 -->
<g id="edge2" class="edge">
<title>a1&#45;&gt;b2:n</title>
<path fill="none" stroke="#000000" d="M527.3316,-485.5461C557.0439,-475.5868 584.2239,-463.1762 593.3718,-449.2722"/>
<polygon fill="#000000" stroke="#000000" points="596.8133,-450.0128 596.6336,-439.4195 590.168,-447.8128 596.8133,-450.0128"/>
</g>
<!-- b1&#45;&gt;b2 -->
<!-- c1 -->
<g id="node4" class="node">
<title>c1</title>
<polygon fill="#ffffff" stroke="#7f7f7f" points="145.401,-329.1002 -.1338,-329.1002 -.1338,-244.4998 145.401,-244.4998 145.401,-329.1002"/>
<text text-anchor="middle" x="72.6336" y="-310.8" font-family="Times,serif" font-size="16.00" fill="#000000">Objectif : garantir</text>
<text text-anchor="middle" x="72.6336" y="-291.6" font-family="Times,serif" font-size="16.00" fill="#000000">l&#39;intégrité physique</text>
<text text-anchor="middle" x="72.6336" y="-272.4" font-family="Times,serif" font-size="16.00" fill="#000000">et l&#39;intégrité morale</text>
<text text-anchor="middle" x="72.6336" y="-253.2" font-family="Times,serif" font-size="16.00" fill="#000000">de l&#39;individu</text>
</g>
<!-- b1&#45;&gt;c1 -->
<g id="edge4" class="edge">
<title>b1&#45;&gt;c1</title>
<path fill="none" stroke="#000000" d="M222.053,-382.5908C201.4098,-369.6876 175.5816,-353.461 152.6336,-338.8 150.4961,-337.4344 148.328,-336.0461 146.1408,-334.6427"/>
<polygon fill="#000000" stroke="#000000" points="147.9369,-331.6365 137.6329,-329.1711 144.1505,-337.5241 147.9369,-331.6365"/>
</g>
<!-- c2 -->
<g id="node5" class="node">
<title>c2</title>
<polygon fill="#ffffff" stroke="#7f7f7f" points="305.8001,-338.8 159.4671,-338.8 159.4671,-234.8 305.8001,-234.8 305.8001,-338.8"/>
<text text-anchor="middle" x="232.6336" y="-320.4" font-family="Times,serif" font-size="16.00" fill="#000000">Objectif : garantir la</text>
<text text-anchor="middle" x="232.6336" y="-301.2" font-family="Times,serif" font-size="16.00" fill="#000000">non&#45;interférence</text>
<text text-anchor="middle" x="232.6336" y="-282" font-family="Times,serif" font-size="16.00" fill="#000000">de l&#39;État dans ce</text>
<text text-anchor="middle" x="232.6336" y="-262.8" font-family="Times,serif" font-size="16.00" fill="#000000">qui relève de la</text>
<text text-anchor="middle" x="232.6336" y="-243.6" font-family="Times,serif" font-size="16.00" fill="#000000">sphère privée</text>
</g>
<!-- b1&#45;&gt;c2 -->
<g id="edge5" class="edge">
<title>b1&#45;&gt;c2</title>
<path fill="none" stroke="#000000" d="M252.9825,-373.8712C251.1472,-366.0183 249.1273,-357.3752 247.0944,-348.6766"/>
<polygon fill="#000000" stroke="#000000" points="250.4868,-347.8122 244.8028,-338.8711 243.6705,-349.4053 250.4868,-347.8122"/>
</g>
<!-- c3 -->
<g id="node6" class="node">
<title>c3</title>
<polygon fill="#ffffff" stroke="#7f7f7f" points="490.9785,-338.8 320.2887,-338.8 320.2887,-234.8 490.9785,-234.8 490.9785,-338.8"/>
<text text-anchor="middle" x="405.6336" y="-320.4" font-family="Times,serif" font-size="16.00" fill="#000000">Objectif : garantir</text>
<text text-anchor="middle" x="405.6336" y="-301.2" font-family="Times,serif" font-size="16.00" fill="#000000">un droit à la justice</text>
<text text-anchor="middle" x="405.6336" y="-282" font-family="Times,serif" font-size="16.00" fill="#000000">pour protéger l&#39;individu</text>
<text text-anchor="middle" x="405.6336" y="-262.8" font-family="Times,serif" font-size="16.00" fill="#000000">de l&#39;exercice arbitraire</text>
<text text-anchor="middle" x="405.6336" y="-243.6" font-family="Times,serif" font-size="16.00" fill="#000000">du pouvoir de l&#39;État</text>
</g>
<!-- b1&#45;&gt;c3 -->
<g id="edge6" class="edge">
<title>b1&#45;&gt;c3</title>
<path fill="none" stroke="#000000" d="M293.1744,-379.7221C305.5034,-369.535 320.0744,-357.4954 334.5689,-345.519"/>
<polygon fill="#000000" stroke="#000000" points="337.1192,-347.9519 342.5988,-338.8841 332.6604,-342.5556 337.1192,-347.9519"/>
</g>
<!-- c4 -->
<g id="node7" class="node">
<title>c4</title>
<polygon fill="#ffffff" stroke="#7f7f7f" points="677.8001,-319.4012 535.4671,-319.4012 535.4671,-254.1988 677.8001,-254.1988 677.8001,-319.4012"/>
<text text-anchor="middle" x="606.6336" y="-301.2" font-family="Times,serif" font-size="16.00" fill="#000000">Objectif : permettre</text>
<text text-anchor="middle" x="606.6336" y="-282" font-family="Times,serif" font-size="16.00" fill="#000000">la participation à</text>
<text text-anchor="middle" x="606.6336" y="-262.8" font-family="Times,serif" font-size="16.00" fill="#000000">la vie politique</text>
</g>
<!-- b2&#45;&gt;c4 -->
<g id="edge7" class="edge">
<title>b2&#45;&gt;c4</title>
<path fill="none" stroke="#000000" d="M599.3926,-373.5541C600.5184,-360.0661 601.8353,-344.2884 603.0351,-329.9139"/>
<polygon fill="#000000" stroke="#000000" points="606.5396,-330.0043 603.8836,-319.7478 599.5639,-329.422 606.5396,-330.0043"/>
</g>
<!-- d1 -->
<g id="node8" class="node">
<title>d1</title>
<path fill="#ffffff" stroke="#7f7f7f" d="M128.1688,-199.7001C128.1688,-199.7001 17.0984,-199.7001 17.0984,-199.7001 11.0984,-199.7001 5.0984,-193.7001 5.0984,-187.7001 5.0984,-187.7001 5.0984,-12.0999 5.0984,-12.0999 5.0984,-6.0999 11.0984,-.0999 17.0984,-.0999 17.0984,-.0999 128.1688,-.0999 128.1688,-.0999 134.1688,-.0999 140.1688,-6.0999 140.1688,-12.0999 140.1688,-12.0999 140.1688,-187.7001 140.1688,-187.7001 140.1688,-193.7001 134.1688,-199.7001 128.1688,-199.7001"/>
<text text-anchor="middle" x="72.6336" y="-181.4" font-family="Times,serif" font-size="16.00" fill="#000000">Interdiction de</text>
<text text-anchor="middle" x="72.6336" y="-162.2" font-family="Times,serif" font-size="16.00" fill="#000000">l&#39;esclavage,</text>
<text text-anchor="middle" x="72.6336" y="-143" font-family="Times,serif" font-size="16.00" fill="#000000">interdiction des</text>
<text text-anchor="middle" x="72.6336" y="-123.8" font-family="Times,serif" font-size="16.00" fill="#000000">peines et des</text>
<text text-anchor="middle" x="72.6336" y="-104.6" font-family="Times,serif" font-size="16.00" fill="#000000">traitements cruels,</text>
<text text-anchor="middle" x="72.6336" y="-85.4" font-family="Times,serif" font-size="16.00" fill="#000000">droit à la sûreté</text>
<text text-anchor="middle" x="72.6336" y="-47.2" font-family="Times,serif" font-size="16.00" fill="#000000">Liberté de pensée,</text>
<text text-anchor="middle" x="72.6336" y="-28" font-family="Times,serif" font-size="16.00" fill="#000000">de conscience et</text>
<text text-anchor="middle" x="72.6336" y="-8.8" font-family="Times,serif" font-size="16.00" fill="#000000">de religion</text>
</g>
<!-- c1&#45;&gt;d1 -->
<g id="edge8" class="edge">
<title>c1&#45;&gt;d1</title>
<path fill="none" stroke="#000000" d="M72.6336,-244.3895C72.6336,-233.9559 72.6336,-222.2978 72.6336,-210.2521"/>
<polygon fill="#000000" stroke="#000000" points="76.1337,-210.061 72.6336,-200.061 69.1337,-210.061 76.1337,-210.061"/>
</g>
<!-- d2 -->
<g id="node9" class="node">
<title>d2</title>
<path fill="#ffffff" stroke="#7f7f7f" d="M287.8081,-161.6002C287.8081,-161.6002 177.4591,-161.6002 177.4591,-161.6002 171.4591,-161.6002 165.4591,-155.6002 165.4591,-149.6002 165.4591,-149.6002 165.4591,-50.1998 165.4591,-50.1998 165.4591,-44.1998 171.4591,-38.1998 177.4591,-38.1998 177.4591,-38.1998 287.8081,-38.1998 287.8081,-38.1998 293.8081,-38.1998 299.8081,-44.1998 299.8081,-50.1998 299.8081,-50.1998 299.8081,-149.6002 299.8081,-149.6002 299.8081,-155.6002 293.8081,-161.6002 287.8081,-161.6002"/>
<text text-anchor="middle" x="232.6336" y="-143.1" font-family="Times,serif" font-size="16.00" fill="#000000">Liberté de</text>
<text text-anchor="middle" x="232.6336" y="-123.9" font-family="Times,serif" font-size="16.00" fill="#000000">circulation, droits</text>
<text text-anchor="middle" x="232.6336" y="-104.7" font-family="Times,serif" font-size="16.00" fill="#000000">de propriété,</text>
<text text-anchor="middle" x="232.6336" y="-85.5" font-family="Times,serif" font-size="16.00" fill="#000000">respect de la vie</text>
<text text-anchor="middle" x="232.6336" y="-66.3" font-family="Times,serif" font-size="16.00" fill="#000000">privée, droit de</text>
<text text-anchor="middle" x="232.6336" y="-47.1" font-family="Times,serif" font-size="16.00" fill="#000000">fonder une famille</text>
</g>
<!-- c2&#45;&gt;d2 -->
<g id="edge9" class="edge">
<title>c2&#45;&gt;d2</title>
<path fill="none" stroke="#000000" d="M232.6336,-234.7379C232.6336,-215.2451 232.6336,-192.7415 232.6336,-171.7714"/>
<polygon fill="#000000" stroke="#000000" points="236.1337,-171.62 232.6336,-161.6201 229.1337,-171.6201 236.1337,-171.62"/>
</g>
<!-- d3 -->
<g id="node10" class="node">
<title>d3</title>
<path fill="#ffffff" stroke="#7f7f7f" d="M470.3714,-190.3004C470.3714,-190.3004 330.8958,-190.3004 330.8958,-190.3004 324.8958,-190.3004 318.8958,-184.3004 318.8958,-178.3004 318.8958,-178.3004 318.8958,-21.4996 318.8958,-21.4996 318.8958,-15.4996 324.8958,-9.4996 330.8958,-9.4996 330.8958,-9.4996 470.3714,-9.4996 470.3714,-9.4996 476.3714,-9.4996 482.3714,-15.4996 482.3714,-21.4996 482.3714,-21.4996 482.3714,-178.3004 482.3714,-178.3004 482.3714,-184.3004 476.3714,-190.3004 470.3714,-190.3004"/>
<text text-anchor="middle" x="400.6336" y="-171.7" font-family="Times,serif" font-size="16.00" fill="#000000">Interdiction de</text>
<text text-anchor="middle" x="400.6336" y="-152.5" font-family="Times,serif" font-size="16.00" fill="#000000">l&#39;arrestation et de la</text>
<text text-anchor="middle" x="400.6336" y="-133.3" font-family="Times,serif" font-size="16.00" fill="#000000">détention arbitraires</text>
<text text-anchor="middle" x="400.6336" y="-95.1" font-family="Times,serif" font-size="16.00" fill="#000000">Droit à la présomption</text>
<text text-anchor="middle" x="400.6336" y="-75.9" font-family="Times,serif" font-size="16.00" fill="#000000">d&#39;innocence, droit à</text>
<text text-anchor="middle" x="400.6336" y="-56.7" font-family="Times,serif" font-size="16.00" fill="#000000">un procès équitable</text>
<text text-anchor="middle" x="400.6336" y="-18.5" font-family="Times,serif" font-size="16.00" fill="#000000">Droit d&#39;asile</text>
</g>
<!-- c3&#45;&gt;d3 -->
<g id="edge10" class="edge">
<title>c3&#45;&gt;d3</title>
<path fill="none" stroke="#000000" d="M404.2408,-234.7379C403.9548,-224.0447 403.6444,-212.4455 403.33,-200.6904"/>
<polygon fill="#000000" stroke="#000000" points="406.8193,-200.2417 403.053,-190.3389 399.8218,-200.4289 406.8193,-200.2417"/>
</g>
<!-- d4 -->
<g id="node11" class="node">
<title>d4</title>
<path fill="#ffffff" stroke="#7f7f7f" d="M710.6285,-199.7001C710.6285,-199.7001 508.6387,-199.7001 508.6387,-199.7001 502.6387,-199.7001 496.6387,-193.7001 496.6387,-187.7001 496.6387,-187.7001 496.6387,-12.0999 496.6387,-12.0999 496.6387,-6.0999 502.6387,-.0999 508.6387,-.0999 508.6387,-.0999 710.6285,-.0999 710.6285,-.0999 716.6285,-.0999 722.6285,-6.0999 722.6285,-12.0999 722.6285,-12.0999 722.6285,-187.7001 722.6285,-187.7001 722.6285,-193.7001 716.6285,-199.7001 710.6285,-199.7001"/>
<text text-anchor="middle" x="609.6336" y="-181.4" font-family="Times,serif" font-size="16.00" fill="#000000">Reconnaissance de</text>
<text text-anchor="middle" x="609.6336" y="-162.2" font-family="Times,serif" font-size="16.00" fill="#000000">l&#39;égalité des citoyen·ne·s,</text>
<text text-anchor="middle" x="609.6336" y="-143" font-family="Times,serif" font-size="16.00" fill="#000000">principe de non&#45;discrimination,</text>
<text text-anchor="middle" x="609.6336" y="-123.8" font-family="Times,serif" font-size="16.00" fill="#000000">droit à une nationalité</text>
<text text-anchor="middle" x="609.6336" y="-85.6" font-family="Times,serif" font-size="16.00" fill="#000000">Droit de vote, droit d&#39;exercer</text>
<text text-anchor="middle" x="609.6336" y="-66.4" font-family="Times,serif" font-size="16.00" fill="#000000">une fonction publique, liberté de</text>
<text text-anchor="middle" x="609.6336" y="-47.2" font-family="Times,serif" font-size="16.00" fill="#000000">réunion et d&#39;association, liberté</text>
<text text-anchor="middle" x="609.6336" y="-28" font-family="Times,serif" font-size="16.00" fill="#000000">d&#39;expression, droit d&#39;accès</text>
<text text-anchor="middle" x="609.6336" y="-8.8" font-family="Times,serif" font-size="16.00" fill="#000000">à l&#39;information</text>
</g>
<!-- c4&#45;&gt;d4 -->
<g id="edge11" class="edge">
<title>c4&#45;&gt;d4</title>
<path fill="none" stroke="#000000" d="M607.163,-253.8163C607.3645,-241.2654 607.6069,-226.1643 607.86,-210.393"/>
<polygon fill="#000000" stroke="#000000" points="611.3666,-210.0071 608.0276,-199.9522 604.3675,-209.8947 611.3666,-210.0071"/>
</g>
</g>
</svg>
