<?xml version="1.0" encoding="UTF-8" standalone="no"?>
<!DOCTYPE svg PUBLIC "-//W3C//DTD SVG 1.1//EN"
 "http://www.w3.org/Graphics/SVG/1.1/DTD/svg11.dtd">
<!-- Generated by graphviz version 2.40.1 (20161225.0304)
 -->
<!-- Title: G Pages: 1 -->
<svg width="401pt" height="367pt"
 viewBox="0.00 0.00 400.75 366.57" xmlns="http://www.w3.org/2000/svg" xmlns:xlink="http://www.w3.org/1999/xlink">
<g id="graph0" class="graph" transform="scale(1 1) rotate(0) translate(21.6 344.9743)">
<title>G</title>
<polygon fill="#fafafa" stroke="transparent" points="-21.6,21.6 -21.6,-344.9743 379.1486,-344.9743 379.1486,21.6 -21.6,21.6"/>
<!-- a1 -->
<g id="node1" class="node">
<title>a1</title>
<ellipse fill="#000000" stroke="#000000" cx="174.0616" cy="-271.8969" rx="91.596" ry="51.4548"/>
<text text-anchor="middle" x="174.0616" y="-288.0969" font-family="Times,serif" font-size="18.00" fill="#ffffff">Effets possibles</text>
<text text-anchor="middle" x="174.0616" y="-266.4969" font-family="Times,serif" font-size="18.00" fill="#ffffff">de la langue</text>
<text text-anchor="middle" x="174.0616" y="-244.8969" font-family="Times,serif" font-size="18.00" fill="#ffffff">sur la pensée</text>
</g>
<!-- b1 -->
<g id="node2" class="node">
<title>b1</title>
<ellipse fill="#8b0000" stroke="#000000" cx="81.0616" cy="-152.6098" rx="81.1232" ry="32.6206"/>
<text text-anchor="middle" x="81.0616" y="-157.4098" font-family="Times,serif" font-size="16.00" fill="#ffffff">Enrichissement</text>
<text text-anchor="middle" x="81.0616" y="-138.2098" font-family="Times,serif" font-size="16.00" fill="#ffffff">de la pensée</text>
</g>
<!-- a1&#45;&gt;b1 -->
<g id="edge1" class="edge">
<title>a1&#45;&gt;b1</title>
<path fill="none" stroke="#000000" d="M137.0383,-224.4087C128.7248,-213.7453 119.9892,-202.5405 111.9564,-192.2372"/>
<polygon fill="#000000" stroke="#000000" points="114.5952,-189.9294 105.6864,-184.1949 109.0747,-194.2334 114.5952,-189.9294"/>
</g>
<!-- b2 -->
<g id="node3" class="node">
<title>b2</title>
<ellipse fill="#8b0000" stroke="#000000" cx="267.0616" cy="-152.6098" rx="90.4741" ry="32.6206"/>
<text text-anchor="middle" x="267.0616" y="-157.4098" font-family="Times,serif" font-size="16.00" fill="#ffffff">Appauvrissement</text>
<text text-anchor="middle" x="267.0616" y="-138.2098" font-family="Times,serif" font-size="16.00" fill="#ffffff">de la pensée</text>
</g>
<!-- a1&#45;&gt;b2 -->
<g id="edge2" class="edge">
<title>a1&#45;&gt;b2</title>
<path fill="none" stroke="#000000" d="M211.0849,-224.4087C219.3984,-213.7453 228.134,-202.5405 236.1668,-192.2372"/>
<polygon fill="#000000" stroke="#000000" points="239.0485,-194.2334 242.4368,-184.1949 233.528,-189.9294 239.0485,-194.2334"/>
</g>
<!-- c1 -->
<g id="node4" class="node">
<title>c1</title>
<polygon fill="#ffffff" stroke="#7f7f7f" points="140.2037,-84.7002 21.9195,-84.7002 21.9195,-.0998 140.2037,-.0998 140.2037,-84.7002"/>
<text text-anchor="middle" x="81.0616" y="-66.4" font-family="Times,serif" font-size="16.00" fill="#000000">Exemple :</text>
<text text-anchor="middle" x="81.0616" y="-47.2" font-family="Times,serif" font-size="16.00" fill="#000000">le vocabulaire</text>
<text text-anchor="middle" x="81.0616" y="-28" font-family="Times,serif" font-size="16.00" fill="#000000">scientifique</text>
<text text-anchor="middle" x="81.0616" y="-8.8" font-family="Times,serif" font-size="16.00" fill="#000000">d&#39;une discipline</text>
</g>
<!-- b1&#45;&gt;c1 -->
<g id="edge3" class="edge">
<title>b1&#45;&gt;c1</title>
<path fill="none" stroke="#000000" d="M81.0616,-119.5432C81.0616,-111.79 81.0616,-103.34 81.0616,-94.9682"/>
<polygon fill="#000000" stroke="#000000" points="84.5617,-94.8474 81.0616,-84.8474 77.5617,-94.8474 84.5617,-94.8474"/>
</g>
<!-- c2 -->
<g id="node5" class="node">
<title>c2</title>
<polygon fill="#ffffff" stroke="#7f7f7f" points="325.8596,-84.7002 208.2636,-84.7002 208.2636,-.0998 325.8596,-.0998 325.8596,-84.7002"/>
<text text-anchor="middle" x="267.0616" y="-66.4" font-family="Times,serif" font-size="16.00" fill="#000000">Exemple :</text>
<text text-anchor="middle" x="267.0616" y="-47.2" font-family="Times,serif" font-size="16.00" fill="#000000">la novlangue</text>
<text text-anchor="middle" x="267.0616" y="-28" font-family="Times,serif" font-size="16.00" fill="#000000">et ses formes</text>
<text text-anchor="middle" x="267.0616" y="-8.8" font-family="Times,serif" font-size="16.00" fill="#000000">contemporaines</text>
</g>
<!-- b2&#45;&gt;c2 -->
<g id="edge4" class="edge">
<title>b2&#45;&gt;c2</title>
<path fill="none" stroke="#000000" d="M267.0616,-119.5432C267.0616,-111.79 267.0616,-103.34 267.0616,-94.9682"/>
<polygon fill="#000000" stroke="#000000" points="270.5617,-94.8474 267.0616,-84.8474 263.5617,-94.8474 270.5617,-94.8474"/>
</g>
</g>
</svg>
