<?xml version="1.0" encoding="UTF-8" standalone="no"?>
<!DOCTYPE svg PUBLIC "-//W3C//DTD SVG 1.1//EN"
 "http://www.w3.org/Graphics/SVG/1.1/DTD/svg11.dtd">
<!-- Generated by graphviz version 2.40.1 (20161225.0304)
 -->
<!-- Title: G Pages: 1 -->
<svg width="743pt" height="853pt"
 viewBox="0.00 0.00 742.79 853.40" xmlns="http://www.w3.org/2000/svg" xmlns:xlink="http://www.w3.org/1999/xlink">
<g id="graph0" class="graph" transform="scale(1 1) rotate(0) translate(21.6 831.8)">
<title>G</title>
<polygon fill="#fafafa" stroke="transparent" points="-21.6,21.6 -21.6,-831.8 721.19,-831.8 721.19,21.6 -21.6,21.6"/>
<!-- a1 -->
<g id="node1" class="node">
<title>a1</title>
<ellipse fill="#000000" stroke="#000000" cx="74.574" cy="-329.2" rx="74.6481" ry="36.4089"/>
<text text-anchor="middle" x="74.574" y="-334.6" font-family="Times,serif" font-size="18.00" fill="#ffffff">Enseigner la</text>
<text text-anchor="middle" x="74.574" y="-313" font-family="Times,serif" font-size="18.00" fill="#ffffff">philosophie</text>
</g>
<!-- b1 -->
<g id="node2" class="node">
<title>b1</title>
<ellipse fill="#8b0000" stroke="#000000" cx="287.1786" cy="-605.2" rx="96.6907" ry="32.6206"/>
<text text-anchor="middle" x="287.1786" y="-610" font-family="Times,serif" font-size="16.00" fill="#ffffff">Dans un</text>
<text text-anchor="middle" x="287.1786" y="-590.8" font-family="Times,serif" font-size="16.00" fill="#ffffff">lycée “ordinaire”</text>
</g>
<!-- a1&#45;&gt;b1 -->
<g id="edge1" class="edge">
<title>a1&#45;&gt;b1:w</title>
<path fill="none" stroke="#000000" d="M81.7674,-365.2822C96.6907,-435.2733 133.5632,-584.2921 180.3676,-603.2107"/>
<polygon fill="#000000" stroke="#000000" points="179.6825,-606.643 190.1786,-605.2 181.0735,-599.7826 179.6825,-606.643"/>
</g>
<!-- b2 -->
<g id="node3" class="node">
<title>b2</title>
<ellipse fill="#8b0000" stroke="#000000" cx="287.1786" cy="-329.2" rx="103.0611" ry="32.6206"/>
<text text-anchor="middle" x="287.1786" y="-334" font-family="Times,serif" font-size="16.00" fill="#ffffff">Dans un</text>
<text text-anchor="middle" x="287.1786" y="-314.8" font-family="Times,serif" font-size="16.00" fill="#ffffff">lycée “spécifique”</text>
</g>
<!-- a1&#45;&gt;b2 -->
<g id="edge2" class="edge">
<title>a1&#45;&gt;b2:w</title>
<path fill="none" stroke="#000000" d="M149.1564,-329.2C157.3973,-329.2 165.7664,-329.2 173.945,-329.2"/>
<polygon fill="#000000" stroke="#000000" points="174.1786,-332.7001 184.1786,-329.2 174.1786,-325.7001 174.1786,-332.7001"/>
</g>
<!-- b3 -->
<g id="node4" class="node">
<title>b3</title>
<ellipse fill="#8b0000" stroke="#000000" cx="287.1786" cy="-122.2" rx="47.3927" ry="32.6206"/>
<text text-anchor="middle" x="287.1786" y="-127" font-family="Times,serif" font-size="16.00" fill="#ffffff">Hors du</text>
<text text-anchor="middle" x="287.1786" y="-107.8" font-family="Times,serif" font-size="16.00" fill="#ffffff">lycée</text>
</g>
<!-- a1&#45;&gt;b3 -->
<g id="edge3" class="edge">
<title>a1&#45;&gt;b3:w</title>
<path fill="none" stroke="#000000" d="M121.6728,-301.0357C131.4102,-293.9788 141.1307,-285.9094 149.1481,-277.2 200.6804,-221.2199 163.2316,-130.7835 229.1685,-122.7714"/>
<polygon fill="#000000" stroke="#000000" points="229.3943,-126.2643 239.1786,-122.2 228.9954,-119.2756 229.3943,-126.2643"/>
</g>
<!-- e1 -->
<g id="node20" class="node">
<title>e1</title>
<path fill="#fafafa" stroke="transparent" d="M122.2201,-271.9004C122.2201,-271.9004 26.9279,-271.9004 26.9279,-271.9004 20.9279,-271.9004 14.9279,-265.9004 14.9279,-259.9004 14.9279,-259.9004 14.9279,-232.4996 14.9279,-232.4996 14.9279,-226.4996 20.9279,-220.4996 26.9279,-220.4996 26.9279,-220.4996 122.2201,-220.4996 122.2201,-220.4996 128.2201,-220.4996 134.2201,-226.4996 134.2201,-232.4996 134.2201,-232.4996 134.2201,-259.9004 134.2201,-259.9004 134.2201,-265.9004 128.2201,-271.9004 122.2201,-271.9004"/>
<text text-anchor="middle" x="74.574" y="-257" font-family="Times,serif" font-size="12.00" fill="#cd2626">Quelques possibilités</text>
<text text-anchor="middle" x="74.574" y="-242.6" font-family="Times,serif" font-size="12.00" fill="#cd2626">institutionnelles</text>
<text text-anchor="middle" x="74.574" y="-228.2" font-family="Times,serif" font-size="12.00" fill="#cd2626">parfois méconnues</text>
</g>
<!-- a1&#45;&gt;e1 -->
<!-- ca1 -->
<g id="node5" class="node">
<title>ca1</title>
<polygon fill="#ffffff" stroke="#7f7f7f" points="595.2219,-810.2 529.5772,-810.2 529.5772,-774.2 595.2219,-774.2 595.2219,-810.2"/>
<text text-anchor="middle" x="562.3996" y="-787.4" font-family="Times,serif" font-size="16.00" fill="#000000">en HLP</text>
</g>
<!-- b1&#45;&gt;ca1 -->
<g id="edge4" class="edge">
<title>b1&#45;&gt;ca1:w</title>
<path fill="none" stroke="#000000" d="M305.322,-637.5324C328.229,-675.2339 371.2433,-736.5411 425.2092,-769.2 462.7688,-791.9303 479.4392,-792.2867 519.3341,-792.2143"/>
<polygon fill="#000000" stroke="#000000" points="519.4046,-795.7144 529.3996,-792.2 519.3945,-788.7144 519.4046,-795.7144"/>
</g>
<!-- ca2 -->
<g id="node6" class="node">
<title>ca2</title>
<polygon fill="#ffffff" stroke="#7f7f7f" points="597.1695,-763.2 527.6296,-763.2 527.6296,-727.2 597.1695,-727.2 597.1695,-763.2"/>
<text text-anchor="middle" x="562.3996" y="-740.4" font-family="Times,serif" font-size="16.00" fill="#000000">en EMC</text>
</g>
<!-- b1&#45;&gt;ca2 -->
<g id="edge5" class="edge">
<title>b1&#45;&gt;ca2:w</title>
<path fill="none" stroke="#000000" d="M315.5945,-636.6327C341.5557,-663.4058 382.3302,-700.8353 425.2092,-722.2 463.6221,-741.3395 478.4939,-744.7372 517.0564,-745.1512"/>
<polygon fill="#000000" stroke="#000000" points="517.3831,-748.6527 527.3996,-745.2 517.4162,-741.6528 517.3831,-748.6527"/>
</g>
<!-- ca3 -->
<g id="node7" class="node">
<title>ca3</title>
<polygon fill="#ffffff" stroke="#7f7f7f" points="690.4631,-716.2 434.336,-716.2 434.336,-680.2 690.4631,-680.2 690.4631,-716.2"/>
<text text-anchor="middle" x="562.3996" y="-693.4" font-family="Times,serif" font-size="16.00" fill="#000000">en DNL dans une section européenne</text>
</g>
<!-- b1&#45;&gt;ca3 -->
<g id="edge6" class="edge">
<title>b1&#45;&gt;ca3:w</title>
<path fill="none" stroke="#000000" d="M315.432,-636.6856C340.9019,-661.7158 380.916,-693.2481 424.2244,-697.6748"/>
<polygon fill="#000000" stroke="#000000" points="424.2324,-701.1798 434.3996,-698.2 424.5933,-694.1891 424.2324,-701.1798"/>
</g>
<!-- ca4 -->
<g id="node8" class="node">
<title>ca4</title>
<polygon fill="#ffffff" stroke="#7f7f7f" points="699.7806,-668.8012 425.0185,-668.8012 425.0185,-603.5988 699.7806,-603.5988 699.7806,-668.8012"/>
<text text-anchor="middle" x="562.3996" y="-650.6" font-family="Times,serif" font-size="16.00" fill="#000000">dans une section Cinéma et Audiovisuel</text>
<text text-anchor="middle" x="562.3996" y="-631.4" font-family="Times,serif" font-size="16.00" fill="#000000">ou dans une autre section artistique</text>
<text text-anchor="middle" x="562.3996" y="-612.2" font-family="Times,serif" font-size="16.00" fill="#000000">(danse, histoire de l&#39;art, théâtre)</text>
</g>
<!-- b1&#45;&gt;ca4 -->
<g id="edge7" class="edge">
<title>b1&#45;&gt;ca4:w</title>
<path fill="none" stroke="#000000" d="M358.5975,-627.4823C376.6329,-631.6601 396.2763,-635.0191 415.2485,-635.9456"/>
<polygon fill="#000000" stroke="#000000" points="415.315,-639.4482 425.3996,-636.2 415.4904,-632.4504 415.315,-639.4482"/>
</g>
<!-- ca5 -->
<g id="node9" class="node">
<title>ca5</title>
<polygon fill="#ffffff" stroke="#7f7f7f" points="679.9428,-592.2 444.8563,-592.2 444.8563,-556.2 679.9428,-556.2 679.9428,-592.2"/>
<text text-anchor="middle" x="562.3996" y="-569.4" font-family="Times,serif" font-size="16.00" fill="#000000">dans le cadre de l&#39;option DGEMC</text>
</g>
<!-- b1&#45;&gt;ca5 -->
<g id="edge8" class="edge">
<title>b1&#45;&gt;ca5:w</title>
<path fill="none" stroke="#000000" d="M361.7628,-584.3506C384.4622,-579.4439 409.8321,-575.3524 434.0849,-574.4062"/>
<polygon fill="#000000" stroke="#000000" points="434.4715,-577.8992 444.3996,-574.2 434.3316,-570.9006 434.4715,-577.8992"/>
</g>
<!-- ca6 -->
<g id="node10" class="node">
<title>ca6</title>
<polygon fill="#ffffff" stroke="#7f7f7f" points="674.3644,-545.2 450.4347,-545.2 450.4347,-509.2 674.3644,-509.2 674.3644,-545.2"/>
<text text-anchor="middle" x="562.3996" y="-522.4" font-family="Times,serif" font-size="16.00" fill="#000000">dans une DN MADE ou un BTS</text>
</g>
<!-- b1&#45;&gt;ca6 -->
<g id="edge9" class="edge">
<title>b1&#45;&gt;ca6:w</title>
<path fill="none" stroke="#000000" d="M325.3203,-575.0432C354.6617,-554.6801 397.3446,-530.9219 440.3501,-527.5944"/>
<polygon fill="#000000" stroke="#000000" points="440.5445,-531.0896 450.3996,-527.2 440.2699,-524.095 440.5445,-531.0896"/>
</g>
<!-- ca7 -->
<g id="node11" class="node">
<title>ca7</title>
<polygon fill="#ffffff" stroke="#7f7f7f" points="660.9092,-498.2 463.89,-498.2 463.89,-462.2 660.9092,-462.2 660.9092,-498.2"/>
<text text-anchor="middle" x="562.3996" y="-475.4" font-family="Times,serif" font-size="16.00" fill="#000000">dans une classe préparatoire</text>
</g>
<!-- b1&#45;&gt;ca7 -->
<g id="edge10" class="edge">
<title>b1&#45;&gt;ca7:w</title>
<path fill="none" stroke="#000000" d="M311.0766,-573.3338C340.2231,-538.2524 393.1094,-486.0637 453.2847,-480.657"/>
<polygon fill="#000000" stroke="#000000" points="453.5677,-484.1479 463.3996,-480.2 453.2517,-477.155 453.5677,-484.1479"/>
</g>
<!-- cb1 -->
<g id="node12" class="node">
<title>cb1</title>
<polygon fill="#ffffff" stroke="#7f7f7f" points="654.6885,-418.2 470.1106,-418.2 470.1106,-382.2 654.6885,-382.2 654.6885,-418.2"/>
<text text-anchor="middle" x="562.3996" y="-395.4" font-family="Times,serif" font-size="16.00" fill="#000000">dans un lycée à l&#39;étranger</text>
</g>
<!-- b2&#45;&gt;cb1 -->
<g id="edge11" class="edge">
<title>b2&#45;&gt;cb1:w</title>
<path fill="none" stroke="#000000" d="M334.2448,-358.4883C367.708,-376.7091 414.6545,-397.1833 460.3636,-399.8973"/>
<polygon fill="#000000" stroke="#000000" points="460.2986,-403.3969 470.3996,-400.2 460.5096,-396.4 460.2986,-403.3969"/>
</g>
<!-- cb2 -->
<g id="node13" class="node">
<title>cb2</title>
<polygon fill="#ffffff" stroke="#7f7f7f" points="642.5532,-371.2 482.2459,-371.2 482.2459,-335.2 642.5532,-335.2 642.5532,-371.2"/>
<text text-anchor="middle" x="562.3996" y="-348.4" font-family="Times,serif" font-size="16.00" fill="#000000">en lycée professionnel</text>
</g>
<!-- b2&#45;&gt;cb2 -->
<g id="edge12" class="edge">
<title>b2&#45;&gt;cb2:w</title>
<path fill="none" stroke="#000000" d="M377.7751,-345.0077C407.4134,-349.0624 440.8087,-352.47 472.2627,-353.0969"/>
<polygon fill="#000000" stroke="#000000" points="472.3644,-356.598 482.3996,-353.2 472.4357,-349.5984 472.3644,-356.598"/>
</g>
<!-- cb3 -->
<g id="node14" class="node">
<title>cb3</title>
<polygon fill="#ffffff" stroke="#7f7f7f" points="642.107,-324.2 482.6921,-324.2 482.6921,-288.2 642.107,-288.2 642.107,-324.2"/>
<text text-anchor="middle" x="562.3996" y="-301.4" font-family="Times,serif" font-size="16.00" fill="#000000">dans un lycée agricole</text>
</g>
<!-- b2&#45;&gt;cb3 -->
<g id="edge13" class="edge">
<title>b2&#45;&gt;cb3:w</title>
<path fill="none" stroke="#000000" d="M378.7801,-313.9227C408.2067,-310.0894 441.2489,-306.886 472.3699,-306.2969"/>
<polygon fill="#000000" stroke="#000000" points="472.4339,-309.7965 482.3996,-306.2 472.3662,-302.7969 472.4339,-309.7965"/>
</g>
<!-- cb4 -->
<g id="node15" class="node">
<title>cb4</title>
<polygon fill="#ffffff" stroke="#7f7f7f" points="632.9028,-277.2 491.8963,-277.2 491.8963,-241.2 632.9028,-241.2 632.9028,-277.2"/>
<text text-anchor="middle" x="562.3996" y="-254.4" font-family="Times,serif" font-size="16.00" fill="#000000">dans un microlycée</text>
</g>
<!-- b2&#45;&gt;cb4 -->
<g id="edge14" class="edge">
<title>b2&#45;&gt;cb4:w</title>
<path fill="none" stroke="#000000" d="M339.2518,-300.7283C377.0389,-282.5597 430.2632,-261.9577 481.2395,-259.4535"/>
<polygon fill="#000000" stroke="#000000" points="481.49,-262.9484 491.3996,-259.2 481.3153,-255.9506 481.49,-262.9484"/>
</g>
<!-- cc1 -->
<g id="node16" class="node">
<title>cc1</title>
<polygon fill="#ffffff" stroke="#7f7f7f" points="665.1501,-197.6017 459.649,-197.6017 459.649,-150.7983 665.1501,-150.7983 665.1501,-197.6017"/>
<text text-anchor="middle" x="562.3996" y="-179" font-family="Times,serif" font-size="16.00" fill="#000000">à l&#39;université en tant que</text>
<text text-anchor="middle" x="562.3996" y="-159.8" font-family="Times,serif" font-size="16.00" fill="#000000">PRAG, PRCE, ou contractuel</text>
</g>
<!-- b3&#45;&gt;cc1 -->
<g id="edge15" class="edge">
<title>b3&#45;&gt;cc1:w</title>
<path fill="none" stroke="#000000" d="M326.188,-141.1203C358.0441,-154.943 404.9076,-171.6555 449.3621,-173.9374"/>
<polygon fill="#000000" stroke="#000000" points="449.3114,-177.4372 459.3996,-174.2 449.4945,-170.4396 449.3114,-177.4372"/>
</g>
<!-- cc2 -->
<g id="node17" class="node">
<title>cc2</title>
<polygon fill="#ffffff" stroke="#7f7f7f" points="599.9972,-140.2 524.8019,-140.2 524.8019,-104.2 599.9972,-104.2 599.9972,-140.2"/>
<text text-anchor="middle" x="562.3996" y="-117.4" font-family="Times,serif" font-size="16.00" fill="#000000">en prison</text>
</g>
<!-- b3&#45;&gt;cc2 -->
<g id="edge16" class="edge">
<title>b3&#45;&gt;cc2:w</title>
<path fill="none" stroke="#000000" d="M334.8871,-122.2C380.3576,-122.2 451.0723,-122.2 514.3181,-122.2"/>
<polygon fill="#000000" stroke="#000000" points="514.3996,-125.7001 524.3996,-122.2 514.3995,-118.7001 514.3996,-125.7001"/>
</g>
<!-- cc3 -->
<g id="node18" class="node">
<title>cc3</title>
<polygon fill="#ffffff" stroke="#7f7f7f" points="647.9652,-93.2 476.8339,-93.2 476.8339,-57.2 647.9652,-57.2 647.9652,-93.2"/>
<text text-anchor="middle" x="562.3996" y="-70.4" font-family="Times,serif" font-size="16.00" fill="#000000">en hôpital psychiatrique</text>
</g>
<!-- b3&#45;&gt;cc3 -->
<g id="edge17" class="edge">
<title>b3&#45;&gt;cc3:w</title>
<path fill="none" stroke="#000000" d="M328.5328,-105.7617C363.9459,-93.0818 416.8933,-77.3781 466.2553,-75.4065"/>
<polygon fill="#000000" stroke="#000000" points="466.4729,-78.9029 476.3996,-75.2 466.3304,-71.9043 466.4729,-78.9029"/>
</g>
<!-- cc4 -->
<g id="node19" class="node">
<title>cc4</title>
<polygon fill="#ffffff" stroke="#7f7f7f" points="662.7727,-46.6017 462.0264,-46.6017 462.0264,.2017 662.7727,.2017 662.7727,-46.6017"/>
<text text-anchor="middle" x="562.3996" y="-28" font-family="Times,serif" font-size="16.00" fill="#000000">dans le cadre d&#39;interventions</text>
<text text-anchor="middle" x="562.3996" y="-8.8" font-family="Times,serif" font-size="16.00" fill="#000000">dans un collège, une école</text>
</g>
<!-- b3&#45;&gt;cc4 -->
<g id="edge18" class="edge">
<title>b3&#45;&gt;cc4:w</title>
<path fill="none" stroke="#000000" d="M314.2501,-95.1478C344.688,-67.5532 397.0919,-28.1506 452.1023,-23.6279"/>
<polygon fill="#000000" stroke="#000000" points="452.5535,-27.1122 462.3996,-23.2 452.2628,-20.1183 452.5535,-27.1122"/>
</g>
<!-- ca7&#45;&gt;cb1 -->
<!-- cb4&#45;&gt;cc1 -->
</g>
</svg>
