<?xml version="1.0" encoding="UTF-8" standalone="no"?>
<!DOCTYPE svg PUBLIC "-//W3C//DTD SVG 1.1//EN"
 "http://www.w3.org/Graphics/SVG/1.1/DTD/svg11.dtd">
<!-- Generated by graphviz version 2.40.1 (20161225.0304)
 -->
<!-- Title: G Pages: 1 -->
<svg width="743pt" height="941pt"
 viewBox="0.00 0.00 742.79 940.60" xmlns="http://www.w3.org/2000/svg" xmlns:xlink="http://www.w3.org/1999/xlink">
<g id="graph0" class="graph" transform="scale(1 1) rotate(0) translate(21.6 919)">
<title>G</title>
<polygon fill="#fafafa" stroke="transparent" points="-21.6,21.6 -21.6,-919 721.19,-919 721.19,21.6 -21.6,21.6"/>
<!-- a1 -->
<g id="node1" class="node">
<title>a1</title>
<ellipse fill="#000000" stroke="#000000" cx="74.574" cy="-416.4" rx="74.6481" ry="36.4089"/>
<text text-anchor="middle" x="74.574" y="-421.8" font-family="Times,serif" font-size="18.00" fill="#ffffff">Enseigner la</text>
<text text-anchor="middle" x="74.574" y="-400.2" font-family="Times,serif" font-size="18.00" fill="#ffffff">philosophie</text>
</g>
<!-- b1 -->
<g id="node2" class="node">
<title>b1</title>
<ellipse fill="#8b0000" stroke="#000000" cx="287.1786" cy="-692.4" rx="96.6907" ry="32.6206"/>
<text text-anchor="middle" x="287.1786" y="-697.2" font-family="Times,serif" font-size="16.00" fill="#ffffff">Dans un</text>
<text text-anchor="middle" x="287.1786" y="-678" font-family="Times,serif" font-size="16.00" fill="#ffffff">lycée “ordinaire”</text>
</g>
<!-- a1&#45;&gt;b1 -->
<g id="edge1" class="edge">
<title>a1&#45;&gt;b1:w</title>
<path fill="none" stroke="#000000" d="M81.7674,-452.4822C96.6907,-522.4733 133.5632,-671.4921 180.3676,-690.4107"/>
<polygon fill="#000000" stroke="#000000" points="179.6825,-693.843 190.1786,-692.4 181.0735,-686.9826 179.6825,-693.843"/>
</g>
<!-- b2 -->
<g id="node3" class="node">
<title>b2</title>
<ellipse fill="#8b0000" stroke="#000000" cx="287.1786" cy="-416.4" rx="103.0611" ry="32.6206"/>
<text text-anchor="middle" x="287.1786" y="-421.2" font-family="Times,serif" font-size="16.00" fill="#ffffff">Dans un</text>
<text text-anchor="middle" x="287.1786" y="-402" font-family="Times,serif" font-size="16.00" fill="#ffffff">lycée “spécifique”</text>
</g>
<!-- a1&#45;&gt;b2 -->
<g id="edge2" class="edge">
<title>a1&#45;&gt;b2:w</title>
<path fill="none" stroke="#000000" d="M149.1564,-416.4C157.3973,-416.4 165.7664,-416.4 173.945,-416.4"/>
<polygon fill="#000000" stroke="#000000" points="174.1786,-419.9001 184.1786,-416.4 174.1786,-412.9001 174.1786,-419.9001"/>
</g>
<!-- b3 -->
<g id="node4" class="node">
<title>b3</title>
<ellipse fill="#8b0000" stroke="#000000" cx="287.1786" cy="-175.4" rx="47.3927" ry="32.6206"/>
<text text-anchor="middle" x="287.1786" y="-180.2" font-family="Times,serif" font-size="16.00" fill="#ffffff">Hors du</text>
<text text-anchor="middle" x="287.1786" y="-161" font-family="Times,serif" font-size="16.00" fill="#ffffff">lycée</text>
</g>
<!-- a1&#45;&gt;b3 -->
<g id="edge3" class="edge">
<title>a1&#45;&gt;b3:w</title>
<path fill="none" stroke="#000000" d="M122.6041,-388.4316C132.1773,-381.4124 141.5949,-373.309 149.1481,-364.4 206.9668,-296.2021 150.883,-184.5493 228.9736,-175.9305"/>
<polygon fill="#000000" stroke="#000000" points="229.3738,-179.4145 239.1786,-175.4 229.0104,-172.4239 229.3738,-179.4145"/>
</g>
<!-- e1 -->
<g id="node20" class="node">
<title>e1</title>
<path fill="#fafafa" stroke="transparent" d="M122.2201,-359.1004C122.2201,-359.1004 26.9279,-359.1004 26.9279,-359.1004 20.9279,-359.1004 14.9279,-353.1004 14.9279,-347.1004 14.9279,-347.1004 14.9279,-319.6996 14.9279,-319.6996 14.9279,-313.6996 20.9279,-307.6996 26.9279,-307.6996 26.9279,-307.6996 122.2201,-307.6996 122.2201,-307.6996 128.2201,-307.6996 134.2201,-313.6996 134.2201,-319.6996 134.2201,-319.6996 134.2201,-347.1004 134.2201,-347.1004 134.2201,-353.1004 128.2201,-359.1004 122.2201,-359.1004"/>
<text text-anchor="middle" x="74.574" y="-344.2" font-family="Times,serif" font-size="12.00" fill="#cd2626">Quelques possibilités</text>
<text text-anchor="middle" x="74.574" y="-329.8" font-family="Times,serif" font-size="12.00" fill="#cd2626">institutionnelles</text>
<text text-anchor="middle" x="74.574" y="-315.4" font-family="Times,serif" font-size="12.00" fill="#cd2626">parfois méconnues</text>
</g>
<!-- a1&#45;&gt;e1 -->
<!-- ca1 -->
<g id="node5" class="node">
<title>ca1</title>
<polygon fill="#ffffff" stroke="#7f7f7f" points="595.2219,-897.4 529.5772,-897.4 529.5772,-861.4 595.2219,-861.4 595.2219,-897.4"/>
<text text-anchor="middle" x="562.3996" y="-874.6" font-family="Times,serif" font-size="16.00" fill="#000000">en HLP</text>
</g>
<!-- b1&#45;&gt;ca1 -->
<g id="edge4" class="edge">
<title>b1&#45;&gt;ca1:w</title>
<path fill="none" stroke="#000000" d="M305.322,-724.7324C328.229,-762.4339 371.2433,-823.7411 425.2092,-856.4 462.7688,-879.1303 479.4392,-879.4867 519.3341,-879.4143"/>
<polygon fill="#000000" stroke="#000000" points="519.4046,-882.9144 529.3996,-879.4 519.3945,-875.9144 519.4046,-882.9144"/>
</g>
<!-- ca2 -->
<g id="node6" class="node">
<title>ca2</title>
<polygon fill="#ffffff" stroke="#7f7f7f" points="597.1695,-850.4 527.6296,-850.4 527.6296,-814.4 597.1695,-814.4 597.1695,-850.4"/>
<text text-anchor="middle" x="562.3996" y="-827.6" font-family="Times,serif" font-size="16.00" fill="#000000">en EMC</text>
</g>
<!-- b1&#45;&gt;ca2 -->
<g id="edge5" class="edge">
<title>b1&#45;&gt;ca2:w</title>
<path fill="none" stroke="#000000" d="M315.5945,-723.8327C341.5557,-750.6058 382.3302,-788.0353 425.2092,-809.4 463.6221,-828.5395 478.4939,-831.9372 517.0564,-832.3512"/>
<polygon fill="#000000" stroke="#000000" points="517.3831,-835.8527 527.3996,-832.4 517.4162,-828.8528 517.3831,-835.8527"/>
</g>
<!-- ca3 -->
<g id="node7" class="node">
<title>ca3</title>
<polygon fill="#ffffff" stroke="#7f7f7f" points="690.4631,-803.4 434.336,-803.4 434.336,-767.4 690.4631,-767.4 690.4631,-803.4"/>
<text text-anchor="middle" x="562.3996" y="-780.6" font-family="Times,serif" font-size="16.00" fill="#000000">en DNL dans une section européenne</text>
</g>
<!-- b1&#45;&gt;ca3 -->
<g id="edge6" class="edge">
<title>b1&#45;&gt;ca3:w</title>
<path fill="none" stroke="#000000" d="M315.432,-723.8856C340.9019,-748.9158 380.916,-780.4481 424.2244,-784.8748"/>
<polygon fill="#000000" stroke="#000000" points="424.2324,-788.3798 434.3996,-785.4 424.5933,-781.3891 424.2324,-788.3798"/>
</g>
<!-- ca4 -->
<g id="node8" class="node">
<title>ca4</title>
<polygon fill="#ffffff" stroke="#7f7f7f" points="699.7806,-756.0012 425.0185,-756.0012 425.0185,-690.7988 699.7806,-690.7988 699.7806,-756.0012"/>
<text text-anchor="middle" x="562.3996" y="-737.8" font-family="Times,serif" font-size="16.00" fill="#000000">dans une section Cinéma et Audiovisuel</text>
<text text-anchor="middle" x="562.3996" y="-718.6" font-family="Times,serif" font-size="16.00" fill="#000000">ou dans une autre section artistique</text>
<text text-anchor="middle" x="562.3996" y="-699.4" font-family="Times,serif" font-size="16.00" fill="#000000">(danse, histoire de l&#39;art, théâtre)</text>
</g>
<!-- b1&#45;&gt;ca4 -->
<g id="edge7" class="edge">
<title>b1&#45;&gt;ca4:w</title>
<path fill="none" stroke="#000000" d="M358.5975,-714.6823C376.6329,-718.8601 396.2763,-722.2191 415.2485,-723.1456"/>
<polygon fill="#000000" stroke="#000000" points="415.315,-726.6482 425.3996,-723.4 415.4904,-719.6504 415.315,-726.6482"/>
</g>
<!-- ca5 -->
<g id="node9" class="node">
<title>ca5</title>
<polygon fill="#ffffff" stroke="#7f7f7f" points="679.9428,-679.4 444.8563,-679.4 444.8563,-643.4 679.9428,-643.4 679.9428,-679.4"/>
<text text-anchor="middle" x="562.3996" y="-656.6" font-family="Times,serif" font-size="16.00" fill="#000000">dans le cadre de l&#39;option DGEMC</text>
</g>
<!-- b1&#45;&gt;ca5 -->
<g id="edge8" class="edge">
<title>b1&#45;&gt;ca5:w</title>
<path fill="none" stroke="#000000" d="M361.7628,-671.5506C384.4622,-666.6439 409.8321,-662.5524 434.0849,-661.6062"/>
<polygon fill="#000000" stroke="#000000" points="434.4715,-665.0992 444.3996,-661.4 434.3316,-658.1006 434.4715,-665.0992"/>
</g>
<!-- ca6 -->
<g id="node10" class="node">
<title>ca6</title>
<polygon fill="#ffffff" stroke="#7f7f7f" points="674.3644,-632.4 450.4347,-632.4 450.4347,-596.4 674.3644,-596.4 674.3644,-632.4"/>
<text text-anchor="middle" x="562.3996" y="-609.6" font-family="Times,serif" font-size="16.00" fill="#000000">dans une DN MADE ou un BTS</text>
</g>
<!-- b1&#45;&gt;ca6 -->
<g id="edge9" class="edge">
<title>b1&#45;&gt;ca6:w</title>
<path fill="none" stroke="#000000" d="M325.3203,-662.2432C354.6617,-641.8801 397.3446,-618.1219 440.3501,-614.7944"/>
<polygon fill="#000000" stroke="#000000" points="440.5445,-618.2896 450.3996,-614.4 440.2699,-611.295 440.5445,-618.2896"/>
</g>
<!-- ca7 -->
<g id="node11" class="node">
<title>ca7</title>
<polygon fill="#ffffff" stroke="#7f7f7f" points="660.9092,-585.4 463.89,-585.4 463.89,-549.4 660.9092,-549.4 660.9092,-585.4"/>
<text text-anchor="middle" x="562.3996" y="-562.6" font-family="Times,serif" font-size="16.00" fill="#000000">dans une classe préparatoire</text>
</g>
<!-- b1&#45;&gt;ca7 -->
<g id="edge10" class="edge">
<title>b1&#45;&gt;ca7:w</title>
<path fill="none" stroke="#000000" d="M311.0766,-660.5338C340.2231,-625.4524 393.1094,-573.2637 453.2847,-567.857"/>
<polygon fill="#000000" stroke="#000000" points="453.5677,-571.3479 463.3996,-567.4 453.2517,-564.355 453.5677,-571.3479"/>
</g>
<!-- cb1 -->
<g id="node12" class="node">
<title>cb1</title>
<polygon fill="#ffffff" stroke="#7f7f7f" points="654.6885,-505.4 470.1106,-505.4 470.1106,-469.4 654.6885,-469.4 654.6885,-505.4"/>
<text text-anchor="middle" x="562.3996" y="-482.6" font-family="Times,serif" font-size="16.00" fill="#000000">dans un lycée à l&#39;étranger</text>
</g>
<!-- b2&#45;&gt;cb1 -->
<g id="edge11" class="edge">
<title>b2&#45;&gt;cb1:w</title>
<path fill="none" stroke="#000000" d="M334.2448,-445.6883C367.708,-463.9091 414.6545,-484.3833 460.3636,-487.0973"/>
<polygon fill="#000000" stroke="#000000" points="460.2986,-490.5969 470.3996,-487.4 460.5096,-483.6 460.2986,-490.5969"/>
</g>
<!-- cb2 -->
<g id="node13" class="node">
<title>cb2</title>
<polygon fill="#ffffff" stroke="#7f7f7f" points="642.5532,-458.4 482.2459,-458.4 482.2459,-422.4 642.5532,-422.4 642.5532,-458.4"/>
<text text-anchor="middle" x="562.3996" y="-435.6" font-family="Times,serif" font-size="16.00" fill="#000000">en lycée professionnel</text>
</g>
<!-- b2&#45;&gt;cb2 -->
<g id="edge12" class="edge">
<title>b2&#45;&gt;cb2:w</title>
<path fill="none" stroke="#000000" d="M377.7751,-432.2077C407.4134,-436.2624 440.8087,-439.67 472.2627,-440.2969"/>
<polygon fill="#000000" stroke="#000000" points="472.3644,-443.798 482.3996,-440.4 472.4357,-436.7984 472.3644,-443.798"/>
</g>
<!-- cb3 -->
<g id="node14" class="node">
<title>cb3</title>
<polygon fill="#ffffff" stroke="#7f7f7f" points="642.107,-411.4 482.6921,-411.4 482.6921,-375.4 642.107,-375.4 642.107,-411.4"/>
<text text-anchor="middle" x="562.3996" y="-388.6" font-family="Times,serif" font-size="16.00" fill="#000000">dans un lycée agricole</text>
</g>
<!-- b2&#45;&gt;cb3 -->
<g id="edge13" class="edge">
<title>b2&#45;&gt;cb3:w</title>
<path fill="none" stroke="#000000" d="M378.7801,-401.1227C408.2067,-397.2894 441.2489,-394.086 472.3699,-393.4969"/>
<polygon fill="#000000" stroke="#000000" points="472.4339,-396.9965 482.3996,-393.4 472.3662,-389.9969 472.4339,-396.9965"/>
</g>
<!-- cb4 -->
<g id="node15" class="node">
<title>cb4</title>
<polygon fill="#ffffff" stroke="#7f7f7f" points="632.9028,-364.4 491.8963,-364.4 491.8963,-328.4 632.9028,-328.4 632.9028,-364.4"/>
<text text-anchor="middle" x="562.3996" y="-341.6" font-family="Times,serif" font-size="16.00" fill="#000000">dans un microlycée</text>
</g>
<!-- b2&#45;&gt;cb4 -->
<g id="edge14" class="edge">
<title>b2&#45;&gt;cb4:w</title>
<path fill="none" stroke="#000000" d="M339.2518,-387.9283C377.0389,-369.7597 430.2632,-349.1577 481.2395,-346.6535"/>
<polygon fill="#000000" stroke="#000000" points="481.49,-350.1484 491.3996,-346.4 481.3153,-343.1506 481.49,-350.1484"/>
</g>
<!-- cc1 -->
<g id="node16" class="node">
<title>cc1</title>
<polygon fill="#ffffff" stroke="#7f7f7f" points="654.1846,-285.0012 470.6145,-285.0012 470.6145,-219.7988 654.1846,-219.7988 654.1846,-285.0012"/>
<text text-anchor="middle" x="562.3996" y="-266.8" font-family="Times,serif" font-size="16.00" fill="#000000">à l&#39;université, notamment</text>
<text text-anchor="middle" x="562.3996" y="-247.6" font-family="Times,serif" font-size="16.00" fill="#000000">en tant que PRAG,</text>
<text text-anchor="middle" x="562.3996" y="-228.4" font-family="Times,serif" font-size="16.00" fill="#000000">PRCE, ou contractuel</text>
</g>
<!-- b3&#45;&gt;cc1 -->
<g id="edge15" class="edge">
<title>b3&#45;&gt;cc1:w</title>
<path fill="none" stroke="#000000" d="M320.5375,-198.9209C353.8335,-220.1942 407.5008,-248.6961 460.2233,-252.0695"/>
<polygon fill="#000000" stroke="#000000" points="460.2912,-255.5735 470.3996,-252.4 460.5184,-248.5772 460.2912,-255.5735"/>
</g>
<!-- cc2 -->
<g id="node17" class="node">
<title>cc2</title>
<polygon fill="#ffffff" stroke="#7f7f7f" points="673.9524,-208.0012 450.8467,-208.0012 450.8467,-142.7988 673.9524,-142.7988 673.9524,-208.0012"/>
<text text-anchor="middle" x="562.3996" y="-189.8" font-family="Times,serif" font-size="16.00" fill="#000000">en prison, ou en travaillant avec</text>
<text text-anchor="middle" x="562.3996" y="-170.6" font-family="Times,serif" font-size="16.00" fill="#000000">la PJJ, ou les unités éducatives /</text>
<text text-anchor="middle" x="562.3996" y="-151.4" font-family="Times,serif" font-size="16.00" fill="#000000">hébergement (UEHC)</text>
</g>
<!-- b3&#45;&gt;cc2 -->
<g id="edge16" class="edge">
<title>b3&#45;&gt;cc2:w</title>
<path fill="none" stroke="#000000" d="M334.6745,-175.4C364.4423,-175.4 403.926,-175.4 440.2491,-175.4"/>
<polygon fill="#000000" stroke="#000000" points="440.3996,-178.9001 450.3996,-175.4 440.3995,-171.9001 440.3996,-178.9001"/>
</g>
<!-- cc3 -->
<g id="node18" class="node">
<title>cc3</title>
<polygon fill="#ffffff" stroke="#7f7f7f" points="647.9652,-131.4 476.8339,-131.4 476.8339,-95.4 647.9652,-95.4 647.9652,-131.4"/>
<text text-anchor="middle" x="562.3996" y="-108.6" font-family="Times,serif" font-size="16.00" fill="#000000">en hôpital psychiatrique</text>
</g>
<!-- b3&#45;&gt;cc3 -->
<g id="edge17" class="edge">
<title>b3&#45;&gt;cc3:w</title>
<path fill="none" stroke="#000000" d="M324.7697,-155.2704C359.8662,-138.2629 414.4857,-116.2572 466.4014,-113.6548"/>
<polygon fill="#000000" stroke="#000000" points="466.492,-117.1538 476.3996,-113.4 466.3136,-110.156 466.492,-117.1538"/>
</g>
<!-- cc4 -->
<g id="node19" class="node">
<title>cc4</title>
<polygon fill="#ffffff" stroke="#7f7f7f" points="669.1261,-84.7002 455.673,-84.7002 455.673,-.0998 669.1261,-.0998 669.1261,-84.7002"/>
<text text-anchor="middle" x="562.3996" y="-66.4" font-family="Times,serif" font-size="16.00" fill="#000000">dans le cadre d&#39;interventions</text>
<text text-anchor="middle" x="562.3996" y="-47.2" font-family="Times,serif" font-size="16.00" fill="#000000">dans un collège, une école,</text>
<text text-anchor="middle" x="562.3996" y="-28" font-family="Times,serif" font-size="16.00" fill="#000000">une bibliothèque, ou avec une</text>
<text text-anchor="middle" x="562.3996" y="-8.8" font-family="Times,serif" font-size="16.00" fill="#000000">association partenaire de l&#39;EN</text>
</g>
<!-- b3&#45;&gt;cc4 -->
<g id="edge18" class="edge">
<title>b3&#45;&gt;cc4:w</title>
<path fill="none" stroke="#000000" d="M306.5242,-145.2202C332.8462,-108.049 383.7573,-49.038 445.0661,-42.9175"/>
<polygon fill="#000000" stroke="#000000" points="445.5872,-46.3959 455.3996,-42.4 445.237,-39.4047 445.5872,-46.3959"/>
</g>
<!-- ca7&#45;&gt;cb1 -->
<!-- cb4&#45;&gt;cc1 -->
</g>
</svg>
