<?xml version="1.0" encoding="UTF-8" standalone="no"?><!DOCTYPE svg PUBLIC "-//W3C//DTD SVG 1.1//EN" "http://www.w3.org/Graphics/SVG/1.1/DTD/svg11.dtd"><!-- Generated by graphviz version 2.40.1 (20161225.0304)
 --><!-- Title: G Pages: 1 --><svg xmlns="http://www.w3.org/2000/svg" xmlns:xlink="http://www.w3.org/1999/xlink" width="460pt" height="467pt" viewBox="0.00 0.00 460.17 467.03">
<g id="graph0" class="graph" transform="scale(1 1) rotate(0) translate(21.6 445.4272)">
<title>G</title>
<polygon fill="#fafafa" stroke="transparent" points="-21.6,21.6 -21.6,-445.4272 438.5672,-445.4272 438.5672,21.6 -21.6,21.6"/>
<!-- a1 -->
<g id="node1" class="node">
<title>a1</title>
<ellipse fill="#000000" stroke="#000000" cx="225.6488" cy="-387.6234" rx="93.4653" ry="36.4089"/>
<text text-anchor="middle" x="225.6488" y="-393.0234" font-family="Times,serif" font-size="18.00" fill="#ffffff">Les désirs vains</text>
<text text-anchor="middle" x="225.6488" y="-371.4234" font-family="Times,serif" font-size="18.00" fill="#ffffff">selon Épicure</text>
</g>
<!-- b1 -->
<g id="node2" class="node">
<title>b1</title>
<ellipse fill="#8b0000" stroke="#000000" cx="225.6488" cy="-283.6098" rx="71.0165" ry="32.6206"/>
<text text-anchor="middle" x="225.6488" y="-288.4098" font-family="Times,serif" font-size="16.00" fill="#ffffff">= des désirs</text>
<text text-anchor="middle" x="225.6488" y="-269.2098" font-family="Times,serif" font-size="16.00" fill="#ffffff">vides de sens</text>
</g>
<!-- a1&#45;&gt;b1 -->
<g id="edge1" class="edge">
<title>a1-&gt;b1:n</title>
<path fill="none" stroke="#000000" d="M225.6488,-351.4002C225.6488,-343.4283 225.6488,-334.8593 225.6488,-326.4848"/>
<polygon fill="#000000" stroke="#000000" points="229.1489,-326.4195 225.6488,-316.4195 222.1489,-326.4195 229.1489,-326.4195"/>
</g>
<!-- c1 -->
<g id="node3" class="node">
<title>c1</title>
<polygon fill="#ffffff" stroke="#7f7f7f" points="191.0688,-216.0017 82.2288,-216.0017 82.2288,-169.1983 191.0688,-169.1983 191.0688,-216.0017"/>
<text text-anchor="middle" x="136.6488" y="-197.4" font-family="Times,serif" font-size="16.00" fill="#000000">Ils ne mènent</text>
<text text-anchor="middle" x="136.6488" y="-178.2" font-family="Times,serif" font-size="16.00" fill="#000000">à rien</text>
</g>
<!-- b1&#45;&gt;c1 -->
<g id="edge2" class="edge">
<title>b1-&gt;c1</title>
<path fill="none" stroke="#000000" d="M196.2602,-253.5575C186.7382,-243.8205 176.1687,-233.0123 166.6058,-223.2335"/>
<polygon fill="#000000" stroke="#000000" points="169.0174,-220.6936 159.5233,-215.9911 164.0127,-225.5878 169.0174,-220.6936"/>
</g>
<!-- c2 -->
<g id="node4" class="node">
<title>c2</title>
<polygon fill="#ffffff" stroke="#7f7f7f" points="369.4468,-216.0017 259.8508,-216.0017 259.8508,-169.1983 369.4468,-169.1983 369.4468,-216.0017"/>
<text text-anchor="middle" x="314.6488" y="-197.4" font-family="Times,serif" font-size="16.00" fill="#000000">Ils ne reposent</text>
<text text-anchor="middle" x="314.6488" y="-178.2" font-family="Times,serif" font-size="16.00" fill="#000000">sur rien</text>
</g>
<!-- b1&#45;&gt;c2 -->
<g id="edge3" class="edge">
<title>b1-&gt;c2</title>
<path fill="none" stroke="#000000" d="M255.0374,-253.5575C264.5594,-243.8205 275.1289,-233.0123 284.6918,-223.2335"/>
<polygon fill="#000000" stroke="#000000" points="287.2849,-225.5878 291.7743,-215.9911 282.2802,-220.6936 287.2849,-225.5878"/>
</g>
<!-- c1&#45;&gt;c2 -->
<!-- d1 -->
<g id="node5" class="node">
<title>d1</title>
<path fill="#ffffff" stroke="#7f7f7f" d="M175.4466,-134.3002C175.4466,-134.3002 11.851,-134.3002 11.851,-134.3002 5.851,-134.3002 -.149,-128.3002 -.149,-122.3002 -.149,-122.3002 -.149,-61.6998 -.149,-61.6998 -.149,-55.6998 5.851,-49.6998 11.851,-49.6998 11.851,-49.6998 175.4466,-49.6998 175.4466,-49.6998 181.4466,-49.6998 187.4466,-55.6998 187.4466,-61.6998 187.4466,-61.6998 187.4466,-122.3002 187.4466,-122.3002 187.4466,-128.3002 181.4466,-134.3002 175.4466,-134.3002"/>
<text text-anchor="middle" x="93.6488" y="-116" font-family="Times,serif" font-size="16.00" fill="#000000">Ils nous conduisent à</text>
<text text-anchor="middle" x="93.6488" y="-96.8" font-family="Times,serif" font-size="16.00" fill="#000000">désirer toujours plus, ils</text>
<text text-anchor="middle" x="93.6488" y="-77.6" font-family="Times,serif" font-size="16.00" fill="#000000">sont cause de troubles et</text>
<text text-anchor="middle" x="93.6488" y="-58.4" font-family="Times,serif" font-size="16.00" fill="#000000">nous éloignent du bonheur</text>
</g>
<!-- c1&#45;&gt;d1 -->
<g id="edge5" class="edge">
<title>c1-&gt;d1</title>
<path fill="none" stroke="#000000" d="M126.6757,-169.2675C123.398,-161.5994 119.613,-152.7442 115.8006,-143.8249"/>
<polygon fill="#000000" stroke="#000000" points="118.9867,-142.3737 111.8379,-134.5541 112.55,-145.125 118.9867,-142.3737"/>
</g>
<!-- d2 -->
<g id="node6" class="node">
<title>d2</title>
<path fill="#ffffff" stroke="#7f7f7f" d="M404.786,-134.3002C404.786,-134.3002 254.5116,-134.3002 254.5116,-134.3002 248.5116,-134.3002 242.5116,-128.3002 242.5116,-122.3002 242.5116,-122.3002 242.5116,-61.6998 242.5116,-61.6998 242.5116,-55.6998 248.5116,-49.6998 254.5116,-49.6998 254.5116,-49.6998 404.786,-49.6998 404.786,-49.6998 410.786,-49.6998 416.786,-55.6998 416.786,-61.6998 416.786,-61.6998 416.786,-122.3002 416.786,-122.3002 416.786,-128.3002 410.786,-134.3002 404.786,-134.3002"/>
<text text-anchor="middle" x="329.6488" y="-116" font-family="Times,serif" font-size="16.00" fill="#000000">Ils ne sont pas</text>
<text text-anchor="middle" x="329.6488" y="-96.8" font-family="Times,serif" font-size="16.00" fill="#000000">l'expression de la nature</text>
<text text-anchor="middle" x="329.6488" y="-77.6" font-family="Times,serif" font-size="16.00" fill="#000000">humaine, ils proviennent</text>
<text text-anchor="middle" x="329.6488" y="-58.4" font-family="Times,serif" font-size="16.00" fill="#000000">d'opinions fausses</text>
</g>
<!-- c2&#45;&gt;d2 -->
<g id="edge6" class="edge">
<title>c2-&gt;d2</title>
<path fill="none" stroke="#000000" d="M318.1278,-169.2675C319.2351,-161.8415 320.5083,-153.3023 321.7955,-144.6697"/>
<polygon fill="#000000" stroke="#000000" points="325.2907,-144.9609 323.3038,-134.5541 318.3672,-143.9286 325.2907,-144.9609"/>
</g>
<!-- d1&#45;&gt;d2 -->
<!-- e1 -->
<g id="node7" class="node">
<title>e1</title>
<path fill="#fafafa" stroke="transparent" d="M302.9314,-41.4019C302.9314,-41.4019 120.3662,-41.4019 120.3662,-41.4019 114.3662,-41.4019 108.3662,-35.4019 108.3662,-29.4019 108.3662,-29.4019 108.3662,-12.1981 108.3662,-12.1981 108.3662,-6.1981 114.3662,-.1981 120.3662,-.1981 120.3662,-.1981 302.9314,-.1981 302.9314,-.1981 308.9314,-.1981 314.9314,-6.1981 314.9314,-12.1981 314.9314,-12.1981 314.9314,-29.4019 314.9314,-29.4019 314.9314,-35.4019 308.9314,-41.4019 302.9314,-41.4019"/>
<text text-anchor="middle" x="211.6488" y="-25" font-family="Times,serif" font-size="14.00" fill="#cd2626">Exemples : le désir de la richesse,</text>
<text text-anchor="middle" x="211.6488" y="-8.2" font-family="Times,serif" font-size="14.00" fill="#cd2626">du pouvoir, de la gloire …</text>
</g>
<!-- d1&#45;&gt;e1 -->
<!-- d2&#45;&gt;e1 -->
</g>
</svg>