<?xml version="1.0" encoding="UTF-8" standalone="no"?><!DOCTYPE svg PUBLIC "-//W3C//DTD SVG 1.1//EN" "http://www.w3.org/Graphics/SVG/1.1/DTD/svg11.dtd"><!-- Generated by graphviz version 2.40.1 (20161225.0304)
 --><!-- Title: G Pages: 1 --><svg xmlns="http://www.w3.org/2000/svg" xmlns:xlink="http://www.w3.org/1999/xlink" width="562pt" height="445pt" viewBox="0.00 0.00 561.79 444.58">
<g id="graph0" class="graph" transform="scale(1 1) rotate(0) translate(21.6 422.9801)">
<title>G</title>
<polygon fill="#fafafa" stroke="transparent" points="-21.6,21.6 -21.6,-422.9801 540.1905,-422.9801 540.1905,21.6 -21.6,21.6"/>
<!-- a1 -->
<g id="node1" class="node">
<title>a1</title>
<ellipse fill="#000000" stroke="#000000" cx="264.0768" cy="-365.1763" rx="93.4653" ry="36.4089"/>
<text text-anchor="middle" x="264.0768" y="-370.5763" font-family="Times,serif" font-size="18.00" fill="#ffffff">Les désirs vains</text>
<text text-anchor="middle" x="264.0768" y="-348.9763" font-family="Times,serif" font-size="18.00" fill="#ffffff">selon Épicure</text>
</g>
<!-- b1 -->
<g id="node2" class="node">
<title>b1</title>
<ellipse fill="#8b0000" stroke="#000000" cx="185.0768" cy="-247.5862" rx="70.2767" ry="46.2727"/>
<text text-anchor="middle" x="185.0768" y="-261.9862" font-family="Times,serif" font-size="16.00" fill="#ffffff">= des désirs</text>
<text text-anchor="middle" x="185.0768" y="-242.7862" font-family="Times,serif" font-size="16.00" fill="#ffffff">qui n'ont pas</text>
<text text-anchor="middle" x="185.0768" y="-223.5862" font-family="Times,serif" font-size="16.00" fill="#ffffff">de sens</text>
</g>
<!-- a1&#45;&gt;b1 -->
<g id="edge1" class="edge">
<title>a1-&gt;b1:n</title>
<path fill="none" stroke="#000000" d="M208.3521,-335.6437C197.935,-326.8828 189.3401,-316.1908 186.2782,-303.5919"/>
<polygon fill="#000000" stroke="#000000" points="189.7441,-303.0976 185.0768,-293.5862 182.794,-303.9322 189.7441,-303.0976"/>
</g>
<!-- b2 -->
<g id="node3" class="node">
<title>b2</title>
<ellipse fill="#8b0000" stroke="#000000" cx="351.0768" cy="-247.5862" rx="73.409" ry="46.2727"/>
<text text-anchor="middle" x="351.0768" y="-261.9862" font-family="Times,serif" font-size="16.00" fill="#ffffff">= des désirs</text>
<text text-anchor="middle" x="351.0768" y="-242.7862" font-family="Times,serif" font-size="16.00" fill="#ffffff">qui n'ont pas</text>
<text text-anchor="middle" x="351.0768" y="-223.5862" font-family="Times,serif" font-size="16.00" fill="#ffffff">de fondement</text>
</g>
<!-- a1&#45;&gt;b2 -->
<g id="edge2" class="edge">
<title>a1-&gt;b2:n</title>
<path fill="none" stroke="#000000" d="M324.5012,-337.5437C336.5633,-328.5782 346.5685,-317.301 349.8964,-303.525"/>
<polygon fill="#000000" stroke="#000000" points="353.3729,-303.9292 351.0768,-293.5862 346.4218,-303.1036 353.3729,-303.9292"/>
</g>
<!-- e1 -->
<g id="node8" class="node">
<title>e1</title>
<path fill="#fafafa" stroke="transparent" d="M506.6042,-394.5777C506.6042,-394.5777 383.5494,-394.5777 383.5494,-394.5777 377.5494,-394.5777 371.5494,-388.5777 371.5494,-382.5777 371.5494,-382.5777 371.5494,-347.7749 371.5494,-347.7749 371.5494,-341.7749 377.5494,-335.7749 383.5494,-335.7749 383.5494,-335.7749 506.6042,-335.7749 506.6042,-335.7749 512.6042,-335.7749 518.6042,-341.7749 518.6042,-347.7749 518.6042,-347.7749 518.6042,-382.5777 518.6042,-382.5777 518.6042,-388.5777 512.6042,-394.5777 506.6042,-394.5777"/>
<text text-anchor="middle" x="445.0768" y="-377.7763" font-family="Times,serif" font-size="14.00" fill="#cd2626">Exemples :</text>
<text text-anchor="middle" x="445.0768" y="-360.9763" font-family="Times,serif" font-size="14.00" fill="#cd2626">le désir de la richesse,</text>
<text text-anchor="middle" x="445.0768" y="-344.1763" font-family="Times,serif" font-size="14.00" fill="#cd2626">du pouvoir, de la gloire</text>
</g>
<!-- a1&#45;&gt;e1 -->
<!-- c1 -->
<g id="node4" class="node">
<title>c1</title>
<polygon fill="#ffffff" stroke="#7f7f7f" points="252.1308,-166.1002 22.0228,-166.1002 22.0228,-81.4998 252.1308,-81.4998 252.1308,-166.1002"/>
<text text-anchor="middle" x="137.0768" y="-147.8" font-family="Times,serif" font-size="16.00" fill="#000000">Les désirs vains nous conduisent</text>
<text text-anchor="middle" x="137.0768" y="-128.6" font-family="Times,serif" font-size="16.00" fill="#000000">nécessairement à la pléonexie, et</text>
<text text-anchor="middle" x="137.0768" y="-109.4" font-family="Times,serif" font-size="16.00" fill="#000000">donc à l'insatisfaction et à des</text>
<text text-anchor="middle" x="137.0768" y="-90.2" font-family="Times,serif" font-size="16.00" fill="#000000">troubles de l'âme et du corps</text>
</g>
<!-- b1&#45;&gt;c1 -->
<g id="edge3" class="edge">
<title>b1-&gt;c1</title>
<path fill="none" stroke="#000000" d="M167.6119,-202.5464C164.2261,-193.8146 160.6523,-184.5985 157.1896,-175.6684"/>
<polygon fill="#000000" stroke="#000000" points="160.3684,-174.1851 153.4897,-166.127 153.8419,-176.7159 160.3684,-174.1851"/>
</g>
<!-- c2 -->
<g id="node5" class="node">
<title>c2</title>
<polygon fill="#ffffff" stroke="#7f7f7f" points="458.4169,-156.4012 273.7367,-156.4012 273.7367,-91.1988 458.4169,-91.1988 458.4169,-156.4012"/>
<text text-anchor="middle" x="366.0768" y="-138.2" font-family="Times,serif" font-size="16.00" fill="#000000">Les désirs vains ne</text>
<text text-anchor="middle" x="366.0768" y="-119" font-family="Times,serif" font-size="16.00" fill="#000000">sont pas l'expression de la</text>
<text text-anchor="middle" x="366.0768" y="-99.8" font-family="Times,serif" font-size="16.00" fill="#000000">nature de l'être humain</text>
</g>
<!-- b2&#45;&gt;c2 -->
<g id="edge4" class="edge">
<title>b2-&gt;c2</title>
<path fill="none" stroke="#000000" d="M356.7049,-201.1406C358.0797,-189.7954 359.5441,-177.7103 360.8969,-166.547"/>
<polygon fill="#000000" stroke="#000000" points="364.3735,-166.9503 362.102,-156.6018 357.4243,-166.1081 364.3735,-166.9503"/>
</g>
<!-- d1 -->
<g id="node6" class="node">
<title>d1</title>
<path fill="#ffffff" stroke="#7f7f7f" d="M254.2304,-46.6017C254.2304,-46.6017 11.9232,-46.6017 11.9232,-46.6017 5.9232,-46.6017 -.0768,-40.6017 -.0768,-34.6017 -.0768,-34.6017 -.0768,-11.7983 -.0768,-11.7983 -.0768,-5.7983 5.9232,.2017 11.9232,.2017 11.9232,.2017 254.2304,.2017 254.2304,.2017 260.2304,.2017 266.2304,-5.7983 266.2304,-11.7983 266.2304,-11.7983 266.2304,-34.6017 266.2304,-34.6017 266.2304,-40.6017 260.2304,-46.6017 254.2304,-46.6017"/>
<text text-anchor="middle" x="133.0768" y="-28" font-family="Times,serif" font-size="16.00" fill="#000000">Nous désirons le bonheur,</text>
<text text-anchor="middle" x="133.0768" y="-8.8" font-family="Times,serif" font-size="16.00" fill="#000000">mais les désirs vains nous en éloignent</text>
</g>
<!-- c1&#45;&gt;d1 -->
<g id="edge5" class="edge">
<title>c1-&gt;d1</title>
<path fill="none" stroke="#000000" d="M135.392,-81.4281C135.0625,-73.1394 134.7212,-64.556 134.4052,-56.609"/>
<polygon fill="#000000" stroke="#000000" points="137.9021,-56.4598 134.0075,-46.6068 130.9076,-56.738 137.9021,-56.4598"/>
</g>
<!-- d2 -->
<g id="node7" class="node">
<title>d2</title>
<path fill="#ffffff" stroke="#7f7f7f" d="M448.0655,-46.6017C448.0655,-46.6017 292.0881,-46.6017 292.0881,-46.6017 286.0881,-46.6017 280.0881,-40.6017 280.0881,-34.6017 280.0881,-34.6017 280.0881,-11.7983 280.0881,-11.7983 280.0881,-5.7983 286.0881,.2017 292.0881,.2017 292.0881,.2017 448.0655,.2017 448.0655,.2017 454.0655,.2017 460.0655,-5.7983 460.0655,-11.7983 460.0655,-11.7983 460.0655,-34.6017 460.0655,-34.6017 460.0655,-40.6017 454.0655,-46.6017 448.0655,-46.6017"/>
<text text-anchor="middle" x="370.0768" y="-28" font-family="Times,serif" font-size="16.00" fill="#000000">Les désirs vains résultent</text>
<text text-anchor="middle" x="370.0768" y="-8.8" font-family="Times,serif" font-size="16.00" fill="#000000">d'opinions fausses </text>
</g>
<!-- c2&#45;&gt;d2 -->
<g id="edge6" class="edge">
<title>c2-&gt;d2</title>
<path fill="none" stroke="#000000" d="M367.3755,-91.1381C367.8146,-80.0948 368.3053,-67.7528 368.7468,-56.6495"/>
<polygon fill="#000000" stroke="#000000" points="372.2515,-56.5975 369.1517,-46.4663 365.2571,-56.3193 372.2515,-56.5975"/>
</g>
</g>
</svg>