<?xml version="1.0" encoding="UTF-8" standalone="no"?><!DOCTYPE svg PUBLIC "-//W3C//DTD SVG 1.1//EN" "http://www.w3.org/Graphics/SVG/1.1/DTD/svg11.dtd"><!-- Generated by graphviz version 2.40.1 (20161225.0304)
 --><!-- Title: G Pages: 1 --><svg xmlns="http://www.w3.org/2000/svg" xmlns:xlink="http://www.w3.org/1999/xlink" width="438pt" height="437pt" viewBox="0.00 0.00 437.58 436.63">
<g id="graph0" class="graph" transform="scale(1 1) rotate(0) translate(21.6 415.0272)">
<title>G</title>
<polygon fill="#fafafa" stroke="transparent" points="-21.6,21.6 -21.6,-415.0272 415.9768,-415.0272 415.9768,21.6 -21.6,21.6"/>
<!-- a1 -->
<g id="node1" class="node">
<title>a1</title>
<ellipse fill="#000000" stroke="#000000" cx="195.9784" cy="-357.2234" rx="79.1943" ry="36.4089"/>
<text text-anchor="middle" x="195.9784" y="-362.6234" font-family="Times,serif" font-size="18.00" fill="#ffffff">L'hédonisme</text>
<text text-anchor="middle" x="195.9784" y="-341.0234" font-family="Times,serif" font-size="18.00" fill="#ffffff">d'Épicure</text>
</g>
<!-- b1 -->
<g id="node2" class="node">
<title>b1</title>
<ellipse fill="#8b0000" stroke="#000000" cx="105.9784" cy="-253.2098" rx="59.5768" ry="32.6206"/>
<text text-anchor="middle" x="105.9784" y="-258.0098" font-family="Times,serif" font-size="16.00" fill="#ffffff">≠ un idéal</text>
<text text-anchor="middle" x="105.9784" y="-238.8098" font-family="Times,serif" font-size="16.00" fill="#ffffff">ascétique</text>
</g>
<!-- a1&#45;&gt;b1 -->
<g id="edge1" class="edge">
<title>a1-&gt;b1:n</title>
<path fill="none" stroke="#000000" d="M137.2035,-332.8204C123.0615,-323.5467 110.9283,-311.4054 107.1753,-296.021"/>
<polygon fill="#000000" stroke="#000000" points="110.6419,-295.5328 105.9784,-286.0195 103.6915,-296.3646 110.6419,-295.5328"/>
</g>
<!-- b2 -->
<g id="node3" class="node">
<title>b2</title>
<ellipse fill="#8b0000" stroke="#000000" cx="286.9784" cy="-253.2098" rx="106.6551" ry="32.6206"/>
<text text-anchor="middle" x="286.9784" y="-258.0098" font-family="Times,serif" font-size="16.00" fill="#ffffff">≠ une critique</text>
<text text-anchor="middle" x="286.9784" y="-238.8098" font-family="Times,serif" font-size="16.00" fill="#ffffff">moraliste des plaisirs</text>
</g>
<!-- a1&#45;&gt;b2 -->
<g id="edge2" class="edge">
<title>a1-&gt;b2:n</title>
<path fill="none" stroke="#000000" d="M255.4064,-332.9717C269.7055,-323.7112 281.9735,-311.5524 285.7682,-296.083"/>
<polygon fill="#000000" stroke="#000000" points="289.2593,-296.3659 286.9784,-286.0195 282.3094,-295.5301 289.2593,-296.3659"/>
</g>
<!-- c1 -->
<g id="node4" class="node">
<title>c1</title>
<polygon fill="#ffffff" stroke="#7f7f7f" points="175.9352,-176.0017 .0216,-176.0017 .0216,-129.1983 175.9352,-129.1983 175.9352,-176.0017"/>
<text text-anchor="middle" x="87.9784" y="-157.4" font-family="Times,serif" font-size="16.00" fill="#000000">Il ne s'agit pas de se</text>
<text text-anchor="middle" x="87.9784" y="-138.2" font-family="Times,serif" font-size="16.00" fill="#000000">priver de tous les plaisirs</text>
</g>
<!-- b1&#45;&gt;c1 -->
<g id="edge3" class="edge">
<title>b1-&gt;c1</title>
<path fill="none" stroke="#000000" d="M100.1343,-220.5447C98.1584,-209.5003 95.9501,-197.1572 93.9634,-186.0527"/>
<polygon fill="#000000" stroke="#000000" points="97.3479,-185.0958 92.1413,-175.8685 90.4573,-186.3286 97.3479,-185.0958"/>
</g>
<!-- c2 -->
<g id="node5" class="node">
<title>c2</title>
<polygon fill="#ffffff" stroke="#7f7f7f" points="394.2753,-185.2012 189.6815,-185.2012 189.6815,-119.9988 394.2753,-119.9988 394.2753,-185.2012"/>
<text text-anchor="middle" x="291.9784" y="-167" font-family="Times,serif" font-size="16.00" fill="#000000">Le plaisir n'est pas considéré</text>
<text text-anchor="middle" x="291.9784" y="-147.8" font-family="Times,serif" font-size="16.00" fill="#000000">comme un vice, comme une</text>
<text text-anchor="middle" x="291.9784" y="-128.6" font-family="Times,serif" font-size="16.00" fill="#000000">tentation mauvaise</text>
</g>
<!-- b2&#45;&gt;c2 -->
<g id="edge4" class="edge">
<title>b2-&gt;c2</title>
<path fill="none" stroke="#000000" d="M288.6156,-220.2664C289.0124,-212.2808 289.4424,-203.6298 289.858,-195.2672"/>
<polygon fill="#000000" stroke="#000000" points="293.3538,-195.4352 290.3546,-185.2738 286.3625,-195.0877 293.3538,-195.4352"/>
</g>
<!-- d1 -->
<g id="node6" class="node">
<title>d1</title>
<path fill="#ffffff" stroke="#7f7f7f" d="M319.6074,-84.7002C319.6074,-84.7002 60.3494,-84.7002 60.3494,-84.7002 54.3494,-84.7002 48.3494,-78.7002 48.3494,-72.7002 48.3494,-72.7002 48.3494,-12.0998 48.3494,-12.0998 48.3494,-6.0998 54.3494,-.0998 60.3494,-.0998 60.3494,-.0998 319.6074,-.0998 319.6074,-.0998 325.6074,-.0998 331.6074,-6.0998 331.6074,-12.0998 331.6074,-12.0998 331.6074,-72.7002 331.6074,-72.7002 331.6074,-78.7002 325.6074,-84.7002 319.6074,-84.7002"/>
<text text-anchor="middle" x="189.9784" y="-66.4" font-family="Times,serif" font-size="16.00" fill="#000000">Il ne s'agit pas de rendre la recherche</text>
<text text-anchor="middle" x="189.9784" y="-47.2" font-family="Times,serif" font-size="16.00" fill="#000000">du plaisir coupable, mais simplement</text>
<text text-anchor="middle" x="189.9784" y="-28" font-family="Times,serif" font-size="16.00" fill="#000000">de faire preuve de réflexion, de prudence,</text>
<text text-anchor="middle" x="189.9784" y="-8.8" font-family="Times,serif" font-size="16.00" fill="#000000">en vue de son propre bonheur</text>
</g>
<!-- c1&#45;&gt;d1 -->
<g id="edge5" class="edge">
<title>c1-&gt;d1</title>
<path fill="none" stroke="#000000" d="M109.61,-129.2294C119.5824,-118.4552 131.8275,-105.2257 143.7251,-92.3717"/>
<polygon fill="#000000" stroke="#000000" points="146.446,-94.5846 150.6702,-84.8683 141.3088,-89.8297 146.446,-94.5846"/>
</g>
<!-- c2&#45;&gt;d1 -->
<g id="edge6" class="edge">
<title>c2-&gt;d1</title>
<path fill="none" stroke="#000000" d="M261.6512,-119.8347C253.6812,-111.224 244.9004,-101.7373 236.2987,-92.4441"/>
<polygon fill="#000000" stroke="#000000" points="238.819,-90.0144 229.4576,-85.053 233.6818,-94.7693 238.819,-90.0144"/>
</g>
</g>
</svg>