<?xml version="1.0" encoding="UTF-8" standalone="no"?>
<!DOCTYPE svg PUBLIC "-//W3C//DTD SVG 1.1//EN"
 "http://www.w3.org/Graphics/SVG/1.1/DTD/svg11.dtd">
<!-- Generated by graphviz version 2.40.1 (20161225.0304)
 -->
<!-- Title: G Pages: 1 -->
<svg width="535pt" height="417pt"
 viewBox="0.00 0.00 534.78 417.43" xmlns="http://www.w3.org/2000/svg" xmlns:xlink="http://www.w3.org/1999/xlink">
<g id="graph0" class="graph" transform="scale(1 1) rotate(0) translate(21.6 395.8272)">
<title>G</title>
<polygon fill="#fafafa" stroke="transparent" points="-21.6,21.6 -21.6,-395.8272 513.1821,-395.8272 513.1821,21.6 -21.6,21.6"/>
<!-- a1 -->
<g id="node1" class="node">
<title>a1</title>
<ellipse fill="#000000" stroke="#000000" cx="219.3184" cy="-338.0234" rx="93.4653" ry="36.4089"/>
<text text-anchor="middle" x="219.3184" y="-343.4234" font-family="Times,serif" font-size="18.00" fill="#ffffff">Les désirs vains</text>
<text text-anchor="middle" x="219.3184" y="-321.8234" font-family="Times,serif" font-size="18.00" fill="#ffffff">selon Épicure</text>
</g>
<!-- b1 -->
<g id="node2" class="node">
<title>b1</title>
<ellipse fill="#8b0000" stroke="#000000" cx="219.3184" cy="-234.0098" rx="71.0165" ry="32.6206"/>
<text text-anchor="middle" x="219.3184" y="-238.8098" font-family="Times,serif" font-size="16.00" fill="#ffffff">= des désirs</text>
<text text-anchor="middle" x="219.3184" y="-219.6098" font-family="Times,serif" font-size="16.00" fill="#ffffff">vides de sens</text>
</g>
<!-- a1&#45;&gt;b1 -->
<g id="edge1" class="edge">
<title>a1&#45;&gt;b1:n</title>
<path fill="none" stroke="#000000" d="M219.3184,-301.8002C219.3184,-293.8283 219.3184,-285.2593 219.3184,-276.8848"/>
<polygon fill="#000000" stroke="#000000" points="222.8185,-276.8195 219.3184,-266.8195 215.8185,-276.8195 222.8185,-276.8195"/>
</g>
<!-- e1 -->
<g id="node7" class="node">
<title>e1</title>
<path fill="#fafafa" stroke="transparent" d="M479.3465,-367.4248C479.3465,-367.4248 339.2903,-367.4248 339.2903,-367.4248 333.2903,-367.4248 327.2903,-361.4248 327.2903,-355.4248 327.2903,-355.4248 327.2903,-320.622 327.2903,-320.622 327.2903,-314.622 333.2903,-308.622 339.2903,-308.622 339.2903,-308.622 479.3465,-308.622 479.3465,-308.622 485.3465,-308.622 491.3465,-314.622 491.3465,-320.622 491.3465,-320.622 491.3465,-355.4248 491.3465,-355.4248 491.3465,-361.4248 485.3465,-367.4248 479.3465,-367.4248"/>
<text text-anchor="middle" x="409.3184" y="-350.6234" font-family="Times,serif" font-size="14.00" fill="#cd2626">Exemples :</text>
<text text-anchor="middle" x="409.3184" y="-333.8234" font-family="Times,serif" font-size="14.00" fill="#cd2626">le désir de la richesse,</text>
<text text-anchor="middle" x="409.3184" y="-317.0234" font-family="Times,serif" font-size="14.00" fill="#cd2626">du pouvoir, de la gloire …</text>
</g>
<!-- a1&#45;&gt;e1 -->
<!-- c1 -->
<g id="node3" class="node">
<title>c1</title>
<polygon fill="#ffffff" stroke="#7f7f7f" points="185.1164,-166.4017 75.5204,-166.4017 75.5204,-119.5983 185.1164,-119.5983 185.1164,-166.4017"/>
<text text-anchor="middle" x="130.3184" y="-147.8" font-family="Times,serif" font-size="16.00" fill="#000000">Ils ne reposent</text>
<text text-anchor="middle" x="130.3184" y="-128.6" font-family="Times,serif" font-size="16.00" fill="#000000">sur rien</text>
</g>
<!-- b1&#45;&gt;c1 -->
<g id="edge2" class="edge">
<title>b1&#45;&gt;c1</title>
<path fill="none" stroke="#000000" d="M189.9298,-203.9575C180.4078,-194.2205 169.8383,-183.4123 160.2754,-173.6335"/>
<polygon fill="#000000" stroke="#000000" points="162.687,-171.0936 153.1929,-166.3911 157.6823,-175.9878 162.687,-171.0936"/>
</g>
<!-- c2 -->
<g id="node4" class="node">
<title>c2</title>
<polygon fill="#ffffff" stroke="#7f7f7f" points="362.7384,-166.4017 253.8984,-166.4017 253.8984,-119.5983 362.7384,-119.5983 362.7384,-166.4017"/>
<text text-anchor="middle" x="308.3184" y="-147.8" font-family="Times,serif" font-size="16.00" fill="#000000">Ils ne mènent</text>
<text text-anchor="middle" x="308.3184" y="-128.6" font-family="Times,serif" font-size="16.00" fill="#000000">à rien</text>
</g>
<!-- b1&#45;&gt;c2 -->
<g id="edge3" class="edge">
<title>b1&#45;&gt;c2</title>
<path fill="none" stroke="#000000" d="M248.707,-203.9575C258.229,-194.2205 268.7985,-183.4123 278.3614,-173.6335"/>
<polygon fill="#000000" stroke="#000000" points="280.9545,-175.9878 285.4439,-166.3911 275.9498,-171.0936 280.9545,-175.9878"/>
</g>
<!-- c1&#45;&gt;c2 -->
<!-- d1 -->
<g id="node5" class="node">
<title>d1</title>
<path fill="#ffffff" stroke="#7f7f7f" d="M162.4556,-84.7002C162.4556,-84.7002 12.1812,-84.7002 12.1812,-84.7002 6.1812,-84.7002 .1812,-78.7002 .1812,-72.7002 .1812,-72.7002 .1812,-12.0998 .1812,-12.0998 .1812,-6.0998 6.1812,-.0998 12.1812,-.0998 12.1812,-.0998 162.4556,-.0998 162.4556,-.0998 168.4556,-.0998 174.4556,-6.0998 174.4556,-12.0998 174.4556,-12.0998 174.4556,-72.7002 174.4556,-72.7002 174.4556,-78.7002 168.4556,-84.7002 162.4556,-84.7002"/>
<text text-anchor="middle" x="87.3184" y="-66.4" font-family="Times,serif" font-size="16.00" fill="#000000">Ils ne sont pas</text>
<text text-anchor="middle" x="87.3184" y="-47.2" font-family="Times,serif" font-size="16.00" fill="#000000">l&#39;expression de la nature</text>
<text text-anchor="middle" x="87.3184" y="-28" font-family="Times,serif" font-size="16.00" fill="#000000">humaine, ils proviennent</text>
<text text-anchor="middle" x="87.3184" y="-8.8" font-family="Times,serif" font-size="16.00" fill="#000000">d&#39;opinions fausses</text>
</g>
<!-- c1&#45;&gt;d1 -->
<g id="edge5" class="edge">
<title>c1&#45;&gt;d1</title>
<path fill="none" stroke="#000000" d="M120.3453,-119.6675C117.0676,-111.9994 113.2826,-103.1442 109.4702,-94.2249"/>
<polygon fill="#000000" stroke="#000000" points="112.6563,-92.7737 105.5075,-84.9541 106.2196,-95.525 112.6563,-92.7737"/>
</g>
<!-- d2 -->
<g id="node6" class="node">
<title>d2</title>
<path fill="#ffffff" stroke="#7f7f7f" d="M405.1162,-84.7002C405.1162,-84.7002 241.5206,-84.7002 241.5206,-84.7002 235.5206,-84.7002 229.5206,-78.7002 229.5206,-72.7002 229.5206,-72.7002 229.5206,-12.0998 229.5206,-12.0998 229.5206,-6.0998 235.5206,-.0998 241.5206,-.0998 241.5206,-.0998 405.1162,-.0998 405.1162,-.0998 411.1162,-.0998 417.1162,-6.0998 417.1162,-12.0998 417.1162,-12.0998 417.1162,-72.7002 417.1162,-72.7002 417.1162,-78.7002 411.1162,-84.7002 405.1162,-84.7002"/>
<text text-anchor="middle" x="323.3184" y="-66.4" font-family="Times,serif" font-size="16.00" fill="#000000">Ils nous conduisent à</text>
<text text-anchor="middle" x="323.3184" y="-47.2" font-family="Times,serif" font-size="16.00" fill="#000000">désirer toujours plus, ils</text>
<text text-anchor="middle" x="323.3184" y="-28" font-family="Times,serif" font-size="16.00" fill="#000000">sont cause de troubles et</text>
<text text-anchor="middle" x="323.3184" y="-8.8" font-family="Times,serif" font-size="16.00" fill="#000000">nous éloignent du bonheur</text>
</g>
<!-- c2&#45;&gt;d2 -->
<g id="edge6" class="edge">
<title>c2&#45;&gt;d2</title>
<path fill="none" stroke="#000000" d="M311.7974,-119.6675C312.9047,-112.2415 314.1779,-103.7023 315.4651,-95.0697"/>
<polygon fill="#000000" stroke="#000000" points="318.9603,-95.3609 316.9734,-84.9541 312.0368,-94.3286 318.9603,-95.3609"/>
</g>
<!-- d1&#45;&gt;d2 -->
</g>
</svg>
