<?xml version="1.0" encoding="UTF-8" standalone="no"?>
<!DOCTYPE svg PUBLIC "-//W3C//DTD SVG 1.1//EN"
 "http://www.w3.org/Graphics/SVG/1.1/DTD/svg11.dtd">
<!-- Generated by graphviz version 2.40.1 (20161225.0304)
 -->
<!-- Title: G Pages: 1 -->
<svg width="541pt" height="417pt"
 viewBox="0.00 0.00 541.11 417.43" xmlns="http://www.w3.org/2000/svg" xmlns:xlink="http://www.w3.org/1999/xlink">
<g id="graph0" class="graph" transform="scale(1 1) rotate(0) translate(21.6 395.8272)">
<title>G</title>
<polygon fill="#fafafa" stroke="transparent" points="-21.6,21.6 -21.6,-395.8272 519.5125,-395.8272 519.5125,21.6 -21.6,21.6"/>
<!-- a1 -->
<g id="node1" class="node">
<title>a1</title>
<ellipse fill="#000000" stroke="#000000" cx="225.6488" cy="-338.0234" rx="93.4653" ry="36.4089"/>
<text text-anchor="middle" x="225.6488" y="-343.4234" font-family="Times,serif" font-size="18.00" fill="#ffffff">Les désirs vains</text>
<text text-anchor="middle" x="225.6488" y="-321.8234" font-family="Times,serif" font-size="18.00" fill="#ffffff">selon Épicure</text>
</g>
<!-- b1 -->
<g id="node2" class="node">
<title>b1</title>
<ellipse fill="#8b0000" stroke="#000000" cx="225.6488" cy="-234.0098" rx="71.0165" ry="32.6206"/>
<text text-anchor="middle" x="225.6488" y="-238.8098" font-family="Times,serif" font-size="16.00" fill="#ffffff">= des désirs</text>
<text text-anchor="middle" x="225.6488" y="-219.6098" font-family="Times,serif" font-size="16.00" fill="#ffffff">vides de sens</text>
</g>
<!-- a1&#45;&gt;b1 -->
<g id="edge1" class="edge">
<title>a1&#45;&gt;b1:n</title>
<path fill="none" stroke="#000000" d="M225.6488,-301.8002C225.6488,-293.8283 225.6488,-285.2593 225.6488,-276.8848"/>
<polygon fill="#000000" stroke="#000000" points="229.1489,-276.8195 225.6488,-266.8195 222.1489,-276.8195 229.1489,-276.8195"/>
</g>
<!-- e1 -->
<g id="node7" class="node">
<title>e1</title>
<path fill="#fafafa" stroke="transparent" d="M485.6769,-367.4248C485.6769,-367.4248 345.6207,-367.4248 345.6207,-367.4248 339.6207,-367.4248 333.6207,-361.4248 333.6207,-355.4248 333.6207,-355.4248 333.6207,-320.622 333.6207,-320.622 333.6207,-314.622 339.6207,-308.622 345.6207,-308.622 345.6207,-308.622 485.6769,-308.622 485.6769,-308.622 491.6769,-308.622 497.6769,-314.622 497.6769,-320.622 497.6769,-320.622 497.6769,-355.4248 497.6769,-355.4248 497.6769,-361.4248 491.6769,-367.4248 485.6769,-367.4248"/>
<text text-anchor="middle" x="415.6488" y="-350.6234" font-family="Times,serif" font-size="14.00" fill="#cd2626">Exemples :</text>
<text text-anchor="middle" x="415.6488" y="-333.8234" font-family="Times,serif" font-size="14.00" fill="#cd2626">le désir de la richesse,</text>
<text text-anchor="middle" x="415.6488" y="-317.0234" font-family="Times,serif" font-size="14.00" fill="#cd2626">du pouvoir, de la gloire …</text>
</g>
<!-- a1&#45;&gt;e1 -->
<!-- c1 -->
<g id="node3" class="node">
<title>c1</title>
<polygon fill="#ffffff" stroke="#7f7f7f" points="191.0688,-166.4017 82.2288,-166.4017 82.2288,-119.5983 191.0688,-119.5983 191.0688,-166.4017"/>
<text text-anchor="middle" x="136.6488" y="-147.8" font-family="Times,serif" font-size="16.00" fill="#000000">Ils ne mènent</text>
<text text-anchor="middle" x="136.6488" y="-128.6" font-family="Times,serif" font-size="16.00" fill="#000000">à rien</text>
</g>
<!-- b1&#45;&gt;c1 -->
<g id="edge2" class="edge">
<title>b1&#45;&gt;c1</title>
<path fill="none" stroke="#000000" d="M196.2602,-203.9575C186.7382,-194.2205 176.1687,-183.4123 166.6058,-173.6335"/>
<polygon fill="#000000" stroke="#000000" points="169.0174,-171.0936 159.5233,-166.3911 164.0127,-175.9878 169.0174,-171.0936"/>
</g>
<!-- c2 -->
<g id="node4" class="node">
<title>c2</title>
<polygon fill="#ffffff" stroke="#7f7f7f" points="369.4468,-166.4017 259.8508,-166.4017 259.8508,-119.5983 369.4468,-119.5983 369.4468,-166.4017"/>
<text text-anchor="middle" x="314.6488" y="-147.8" font-family="Times,serif" font-size="16.00" fill="#000000">Ils ne reposent</text>
<text text-anchor="middle" x="314.6488" y="-128.6" font-family="Times,serif" font-size="16.00" fill="#000000">sur rien</text>
</g>
<!-- b1&#45;&gt;c2 -->
<g id="edge3" class="edge">
<title>b1&#45;&gt;c2</title>
<path fill="none" stroke="#000000" d="M255.0374,-203.9575C264.5594,-194.2205 275.1289,-183.4123 284.6918,-173.6335"/>
<polygon fill="#000000" stroke="#000000" points="287.2849,-175.9878 291.7743,-166.3911 282.2802,-171.0936 287.2849,-175.9878"/>
</g>
<!-- c1&#45;&gt;c2 -->
<!-- d1 -->
<g id="node5" class="node">
<title>d1</title>
<path fill="#ffffff" stroke="#7f7f7f" d="M175.4466,-84.7002C175.4466,-84.7002 11.851,-84.7002 11.851,-84.7002 5.851,-84.7002 -.149,-78.7002 -.149,-72.7002 -.149,-72.7002 -.149,-12.0998 -.149,-12.0998 -.149,-6.0998 5.851,-.0998 11.851,-.0998 11.851,-.0998 175.4466,-.0998 175.4466,-.0998 181.4466,-.0998 187.4466,-6.0998 187.4466,-12.0998 187.4466,-12.0998 187.4466,-72.7002 187.4466,-72.7002 187.4466,-78.7002 181.4466,-84.7002 175.4466,-84.7002"/>
<text text-anchor="middle" x="93.6488" y="-66.4" font-family="Times,serif" font-size="16.00" fill="#000000">Ils nous conduisent à</text>
<text text-anchor="middle" x="93.6488" y="-47.2" font-family="Times,serif" font-size="16.00" fill="#000000">désirer toujours plus, ils</text>
<text text-anchor="middle" x="93.6488" y="-28" font-family="Times,serif" font-size="16.00" fill="#000000">sont cause de troubles et</text>
<text text-anchor="middle" x="93.6488" y="-8.8" font-family="Times,serif" font-size="16.00" fill="#000000">nous éloignent du bonheur</text>
</g>
<!-- c1&#45;&gt;d1 -->
<g id="edge5" class="edge">
<title>c1&#45;&gt;d1</title>
<path fill="none" stroke="#000000" d="M126.6757,-119.6675C123.398,-111.9994 119.613,-103.1442 115.8006,-94.2249"/>
<polygon fill="#000000" stroke="#000000" points="118.9867,-92.7737 111.8379,-84.9541 112.55,-95.525 118.9867,-92.7737"/>
</g>
<!-- d2 -->
<g id="node6" class="node">
<title>d2</title>
<path fill="#ffffff" stroke="#7f7f7f" d="M404.786,-84.7002C404.786,-84.7002 254.5116,-84.7002 254.5116,-84.7002 248.5116,-84.7002 242.5116,-78.7002 242.5116,-72.7002 242.5116,-72.7002 242.5116,-12.0998 242.5116,-12.0998 242.5116,-6.0998 248.5116,-.0998 254.5116,-.0998 254.5116,-.0998 404.786,-.0998 404.786,-.0998 410.786,-.0998 416.786,-6.0998 416.786,-12.0998 416.786,-12.0998 416.786,-72.7002 416.786,-72.7002 416.786,-78.7002 410.786,-84.7002 404.786,-84.7002"/>
<text text-anchor="middle" x="329.6488" y="-66.4" font-family="Times,serif" font-size="16.00" fill="#000000">Ils ne sont pas</text>
<text text-anchor="middle" x="329.6488" y="-47.2" font-family="Times,serif" font-size="16.00" fill="#000000">l&#39;expression de la nature</text>
<text text-anchor="middle" x="329.6488" y="-28" font-family="Times,serif" font-size="16.00" fill="#000000">humaine, ils proviennent</text>
<text text-anchor="middle" x="329.6488" y="-8.8" font-family="Times,serif" font-size="16.00" fill="#000000">d&#39;opinions fausses</text>
</g>
<!-- c2&#45;&gt;d2 -->
<g id="edge6" class="edge">
<title>c2&#45;&gt;d2</title>
<path fill="none" stroke="#000000" d="M318.1278,-119.6675C319.2351,-112.2415 320.5083,-103.7023 321.7955,-95.0697"/>
<polygon fill="#000000" stroke="#000000" points="325.2907,-95.3609 323.3038,-84.9541 318.3672,-94.3286 325.2907,-95.3609"/>
</g>
<!-- d1&#45;&gt;d2 -->
</g>
</svg>
