<?xml version="1.0" encoding="UTF-8" standalone="no"?><!DOCTYPE svg PUBLIC "-//W3C//DTD SVG 1.1//EN" "http://www.w3.org/Graphics/SVG/1.1/DTD/svg11.dtd"><!-- Generated by graphviz version 2.40.1 (20161225.0304)
 --><!-- Title: G Pages: 1 --><svg xmlns="http://www.w3.org/2000/svg" xmlns:xlink="http://www.w3.org/1999/xlink" width="401pt" height="486pt" viewBox="0.00 0.00 401.27 486.23">
<g id="graph0" class="graph" transform="scale(1 1) rotate(0) translate(21.6 464.6272)">
<title>G</title>
<polygon fill="#fafafa" stroke="transparent" points="-21.6,21.6 -21.6,-464.6272 379.6704,-464.6272 379.6704,21.6 -21.6,21.6"/>
<!-- a1 -->
<g id="node1" class="node">
<title>a1</title>
<ellipse fill="#000000" stroke="#000000" cx="188.7504" cy="-406.8234" rx="93.4653" ry="36.4089"/>
<text text-anchor="middle" x="188.7504" y="-412.2234" font-family="Times,serif" font-size="18.00" fill="#ffffff">Les désirs vains</text>
<text text-anchor="middle" x="188.7504" y="-390.6234" font-family="Times,serif" font-size="18.00" fill="#ffffff">selon Épicure</text>
</g>
<!-- b1 -->
<g id="node2" class="node">
<title>b1</title>
<ellipse fill="#8b0000" stroke="#000000" cx="188.7504" cy="-302.8098" rx="71.0165" ry="32.6206"/>
<text text-anchor="middle" x="188.7504" y="-307.6098" font-family="Times,serif" font-size="16.00" fill="#ffffff">= des désirs</text>
<text text-anchor="middle" x="188.7504" y="-288.4098" font-family="Times,serif" font-size="16.00" fill="#ffffff">vides de sens</text>
</g>
<!-- a1&#45;&gt;b1 -->
<g id="edge1" class="edge">
<title>a1-&gt;b1:n</title>
<path fill="none" stroke="#000000" d="M188.7504,-370.6002C188.7504,-362.6283 188.7504,-354.0593 188.7504,-345.6848"/>
<polygon fill="#000000" stroke="#000000" points="192.2505,-345.6195 188.7504,-335.6195 185.2505,-345.6195 192.2505,-345.6195"/>
</g>
<!-- c1 -->
<g id="node3" class="node">
<title>c1</title>
<polygon fill="#ffffff" stroke="#7f7f7f" points="147.1704,-235.2017 38.3304,-235.2017 38.3304,-188.3983 147.1704,-188.3983 147.1704,-235.2017"/>
<text text-anchor="middle" x="92.7504" y="-216.6" font-family="Times,serif" font-size="16.00" fill="#000000">Ils ne mènent</text>
<text text-anchor="middle" x="92.7504" y="-197.4" font-family="Times,serif" font-size="16.00" fill="#000000">à rien</text>
</g>
<!-- b1&#45;&gt;c1 -->
<g id="edge2" class="edge">
<title>b1-&gt;c1</title>
<path fill="none" stroke="#000000" d="M157.582,-273.2615C147.0967,-263.3213 135.3846,-252.218 124.8304,-242.2124"/>
<polygon fill="#000000" stroke="#000000" points="127.0493,-239.4932 117.3841,-235.1532 122.2334,-244.5732 127.0493,-239.4932"/>
</g>
<!-- c2 -->
<g id="node4" class="node">
<title>c2</title>
<polygon fill="#ffffff" stroke="#7f7f7f" points="339.5484,-235.2017 229.9524,-235.2017 229.9524,-188.3983 339.5484,-188.3983 339.5484,-235.2017"/>
<text text-anchor="middle" x="284.7504" y="-216.6" font-family="Times,serif" font-size="16.00" fill="#000000">Ils ne reposent</text>
<text text-anchor="middle" x="284.7504" y="-197.4" font-family="Times,serif" font-size="16.00" fill="#000000">sur rien</text>
</g>
<!-- b1&#45;&gt;c2 -->
<g id="edge3" class="edge">
<title>b1-&gt;c2</title>
<path fill="none" stroke="#000000" d="M219.9188,-273.2615C230.4041,-263.3213 242.1162,-252.218 252.6704,-242.2124"/>
<polygon fill="#000000" stroke="#000000" points="255.2674,-244.5732 260.1167,-235.1532 250.4515,-239.4932 255.2674,-244.5732"/>
</g>
<!-- c1&#45;&gt;c2 -->
<!-- d1 -->
<g id="node5" class="node">
<title>d1</title>
<path fill="#ffffff" stroke="#7f7f7f" d="M141.252,-153.6C141.252,-153.6 12.2488,-153.6 12.2488,-153.6 6.2488,-153.6 .2488,-147.6 .2488,-141.6 .2488,-141.6 .2488,-61.6 .2488,-61.6 .2488,-55.6 6.2488,-49.6 12.2488,-49.6 12.2488,-49.6 141.252,-49.6 141.252,-49.6 147.252,-49.6 153.252,-55.6 153.252,-61.6 153.252,-61.6 153.252,-141.6 153.252,-141.6 153.252,-147.6 147.252,-153.6 141.252,-153.6"/>
<text text-anchor="middle" x="76.7504" y="-135.2" font-family="Times,serif" font-size="16.00" fill="#000000">Ils conduisent</text>
<text text-anchor="middle" x="76.7504" y="-116" font-family="Times,serif" font-size="16.00" fill="#000000">nécessairement à la</text>
<text text-anchor="middle" x="76.7504" y="-96.8" font-family="Times,serif" font-size="16.00" fill="#000000">pléonexie, sont cause</text>
<text text-anchor="middle" x="76.7504" y="-77.6" font-family="Times,serif" font-size="16.00" fill="#000000">de troubles et nous</text>
<text text-anchor="middle" x="76.7504" y="-58.4" font-family="Times,serif" font-size="16.00" fill="#000000">éloignent du bonheur</text>
</g>
<!-- c1&#45;&gt;d1 -->
<g id="edge5" class="edge">
<title>c1-&gt;d1</title>
<path fill="none" stroke="#000000" d="M89.3572,-188.4294C88.2908,-181.0847 87.0588,-172.599 85.7913,-163.8691"/>
<polygon fill="#000000" stroke="#000000" points="89.2527,-163.3501 84.3521,-153.9568 82.3254,-164.3559 89.2527,-163.3501"/>
</g>
<!-- d2 -->
<g id="node6" class="node">
<title>d2</title>
<path fill="#ffffff" stroke="#7f7f7f" d="M345.8909,-153.6C345.8909,-153.6 235.6099,-153.6 235.6099,-153.6 229.6099,-153.6 223.6099,-147.6 223.6099,-141.6 223.6099,-141.6 223.6099,-61.6 223.6099,-61.6 223.6099,-55.6 229.6099,-49.6 235.6099,-49.6 235.6099,-49.6 345.8909,-49.6 345.8909,-49.6 351.8909,-49.6 357.8909,-55.6 357.8909,-61.6 357.8909,-61.6 357.8909,-141.6 357.8909,-141.6 357.8909,-147.6 351.8909,-153.6 345.8909,-153.6"/>
<text text-anchor="middle" x="290.7504" y="-135.2" font-family="Times,serif" font-size="16.00" fill="#000000">Ils ne sont pas</text>
<text text-anchor="middle" x="290.7504" y="-116" font-family="Times,serif" font-size="16.00" fill="#000000">l'expression de la</text>
<text text-anchor="middle" x="290.7504" y="-96.8" font-family="Times,serif" font-size="16.00" fill="#000000">nature humaine,</text>
<text text-anchor="middle" x="290.7504" y="-77.6" font-family="Times,serif" font-size="16.00" fill="#000000">ils proviennent</text>
<text text-anchor="middle" x="290.7504" y="-58.4" font-family="Times,serif" font-size="16.00" fill="#000000">d'opinions fausses</text>
</g>
<!-- c2&#45;&gt;d2 -->
<g id="edge6" class="edge">
<title>c2-&gt;d2</title>
<path fill="none" stroke="#000000" d="M286.0228,-188.4294C286.4184,-181.1637 286.8748,-172.7814 287.3447,-164.1506"/>
<polygon fill="#000000" stroke="#000000" points="290.8508,-164.1323 287.8998,-153.9568 283.8612,-163.7517 290.8508,-164.1323"/>
</g>
<!-- d1&#45;&gt;d2 -->
<!-- e1 -->
<g id="node7" class="node">
<title>e1</title>
<path fill="#fafafa" stroke="transparent" d="M275.033,-41.4019C275.033,-41.4019 92.4678,-41.4019 92.4678,-41.4019 86.4678,-41.4019 80.4678,-35.4019 80.4678,-29.4019 80.4678,-29.4019 80.4678,-12.1981 80.4678,-12.1981 80.4678,-6.1981 86.4678,-.1981 92.4678,-.1981 92.4678,-.1981 275.033,-.1981 275.033,-.1981 281.033,-.1981 287.033,-6.1981 287.033,-12.1981 287.033,-12.1981 287.033,-29.4019 287.033,-29.4019 287.033,-35.4019 281.033,-41.4019 275.033,-41.4019"/>
<text text-anchor="middle" x="183.7504" y="-25" font-family="Times,serif" font-size="14.00" fill="#cd2626">Exemples : le désir de la richesse,</text>
<text text-anchor="middle" x="183.7504" y="-8.2" font-family="Times,serif" font-size="14.00" fill="#cd2626">du pouvoir, de la gloire …</text>
</g>
<!-- d1&#45;&gt;e1 -->
<!-- d2&#45;&gt;e1 -->
</g>
</svg>