<?xml version="1.0" encoding="UTF-8" standalone="no"?><!DOCTYPE svg PUBLIC "-//W3C//DTD SVG 1.1//EN" "http://www.w3.org/Graphics/SVG/1.1/DTD/svg11.dtd"><!-- Generated by graphviz version 2.40.1 (20161225.0304)
 --><!-- Title: G Pages: 1 --><svg xmlns="http://www.w3.org/2000/svg" xmlns:xlink="http://www.w3.org/1999/xlink" width="356pt" height="347pt" viewBox="0.00 0.00 356.01 347.37">
<g id="graph0" class="graph" transform="scale(1 1) rotate(0) translate(21.6 325.7743)">
<title>G</title>
<polygon fill="#fafafa" stroke="transparent" points="-21.6,21.6 -21.6,-325.7743 334.4064,-325.7743 334.4064,21.6 -21.6,21.6"/>
<!-- a1 -->
<g id="node1" class="node">
<title>a1</title>
<ellipse fill="#000000" stroke="#000000" cx="109.7464" cy="-252.6969" rx="109.9933" ry="51.4548"/>
<text text-anchor="middle" x="109.7464" y="-268.8969" font-family="Times,serif" font-size="18.00" fill="#ffffff">Avec Euclide,</text>
<text text-anchor="middle" x="109.7464" y="-247.2969" font-family="Times,serif" font-size="18.00" fill="#ffffff">les mathématiques</text>
<text text-anchor="middle" x="109.7464" y="-225.6969" font-family="Times,serif" font-size="18.00" fill="#ffffff">deviennent …</text>
</g>
<!-- b1 -->
<g id="node2" class="node">
<title>b1</title>
<ellipse fill="#8b0000" stroke="#000000" cx="109.7464" cy="-133.4098" rx="88.3831" ry="32.6206"/>
<text text-anchor="middle" x="109.7464" y="-138.2098" font-family="Times,serif" font-size="16.00" fill="#ffffff">un objet d'étude</text>
<text text-anchor="middle" x="109.7464" y="-119.0098" font-family="Times,serif" font-size="16.00" fill="#ffffff">théorique</text>
</g>
<!-- a1&#45;&gt;b1 -->
<g id="edge1" class="edge">
<title>a1-&gt;b1:n</title>
<path fill="none" stroke="#000000" d="M109.7464,-201.0242C109.7464,-192.9665 109.7464,-184.5998 109.7464,-176.4281"/>
<polygon fill="#000000" stroke="#000000" points="113.2465,-176.2195 109.7464,-166.2195 106.2465,-176.2195 113.2465,-176.2195"/>
</g>
<!-- c1 -->
<g id="node3" class="node">
<title>c1</title>
<polygon fill="#ffffff" stroke="#7f7f7f" points="204.1741,-65.4012 15.3187,-65.4012 15.3187,-.1988 204.1741,-.1988 204.1741,-65.4012"/>
<text text-anchor="middle" x="109.7464" y="-47.2" font-family="Times,serif" font-size="16.00" fill="#000000">≠ un simple outil pratique</text>
<text text-anchor="middle" x="109.7464" y="-28" font-family="Times,serif" font-size="16.00" fill="#000000">≠ de simples techniques</text>
<text text-anchor="middle" x="109.7464" y="-8.8" font-family="Times,serif" font-size="16.00" fill="#000000">de calcul à utiliser</text>
</g>
<!-- b1&#45;&gt;c1 -->
<g id="edge2" class="edge">
<title>b1-&gt;c1</title>
<path fill="none" stroke="#000000" d="M109.7464,-100.4664C109.7464,-92.5685 109.7464,-84.0199 109.7464,-75.743"/>
<polygon fill="#000000" stroke="#000000" points="113.2465,-75.4738 109.7464,-65.4738 106.2465,-75.4738 113.2465,-75.4738"/>
</g>
<!-- e1 -->
<g id="node4" class="node">
<title>e1</title>
<path fill="#fafafa" stroke="transparent" d="M300.8664,-166.011C300.8664,-166.011 224.6263,-166.011 224.6263,-166.011 218.6263,-166.011 212.6263,-160.011 212.6263,-154.011 212.6263,-154.011 212.6263,-112.8085 212.6263,-112.8085 212.6263,-106.8085 218.6263,-100.8085 224.6263,-100.8085 224.6263,-100.8085 300.8664,-100.8085 300.8664,-100.8085 306.8664,-100.8085 312.8664,-106.8085 312.8664,-112.8085 312.8664,-112.8085 312.8664,-154.011 312.8664,-154.011 312.8664,-160.011 306.8664,-166.011 300.8664,-166.011"/>
<text text-anchor="middle" x="262.7464" y="-147.8098" font-family="Times,serif" font-size="16.00" fill="#cd2626">= un univers</text>
<text text-anchor="middle" x="262.7464" y="-128.6098" font-family="Times,serif" font-size="16.00" fill="#cd2626">intellectuel</text>
<text text-anchor="middle" x="262.7464" y="-109.4098" font-family="Times,serif" font-size="16.00" fill="#cd2626">à explorer</text>
</g>
<!-- b1&#45;&gt;e1 -->
</g>
</svg>