<?xml version="1.0" encoding="UTF-8" standalone="no"?>
<!DOCTYPE svg PUBLIC "-//W3C//DTD SVG 1.1//EN"
 "http://www.w3.org/Graphics/SVG/1.1/DTD/svg11.dtd">
<!-- Generated by graphviz version 2.40.1 (20161225.0304)
 -->
<!-- Title: G Pages: 1 -->
<svg width="776pt" height="873pt"
 viewBox="0.00 0.00 776.44 872.60" xmlns="http://www.w3.org/2000/svg" xmlns:xlink="http://www.w3.org/1999/xlink">
<g id="graph0" class="graph" transform="scale(1 1) rotate(0) translate(21.6 851)">
<title>G</title>
<polygon fill="#fafafa" stroke="transparent" points="-21.6,21.6 -21.6,-851 754.8398,-851 754.8398,21.6 -21.6,21.6"/>
<!-- a1 -->
<g id="node1" class="node">
<title>a1</title>
<ellipse fill="#000000" stroke="#000000" cx="91.5416" cy="-458.2" rx="91.5833" ry="51.4548"/>
<text text-anchor="middle" x="91.5416" y="-474.4" font-family="Times,serif" font-size="18.00" fill="#ffffff">Faire un</text>
<text text-anchor="middle" x="91.5416" y="-452.8" font-family="Times,serif" font-size="18.00" fill="#ffffff">diaporama pour</text>
<text text-anchor="middle" x="91.5416" y="-431.2" font-family="Times,serif" font-size="18.00" fill="#ffffff">son cours</text>
</g>
<!-- b1 -->
<g id="node2" class="node">
<title>b1</title>
<ellipse fill="#8b0000" stroke="#000000" cx="270.8775" cy="-655.2" rx="45.2634" ry="19.4695"/>
<text text-anchor="middle" x="270.8775" y="-650.4" font-family="Times,serif" font-size="16.00" fill="#ffffff">Intérêt</text>
</g>
<!-- a1&#45;&gt;b1 -->
<g id="edge1" class="edge">
<title>a1&#45;&gt;b1:w</title>
<path fill="none" stroke="#000000" d="M102.6627,-509.4452C117.9152,-564.9653 151.0174,-646.7355 214.809,-654.5885"/>
<polygon fill="#000000" stroke="#000000" points="214.6837,-658.0873 224.8775,-655.2 215.1081,-651.1001 214.6837,-658.0873"/>
</g>
<!-- b2 -->
<g id="node3" class="node">
<title>b2</title>
<ellipse fill="#8b0000" stroke="#000000" cx="270.8775" cy="-291.2" rx="52.5894" ry="32.6206"/>
<text text-anchor="middle" x="270.8775" y="-296" font-family="Times,serif" font-size="16.00" fill="#ffffff">Risques</text>
<text text-anchor="middle" x="270.8775" y="-276.8" font-family="Times,serif" font-size="16.00" fill="#ffffff">possibles</text>
</g>
<!-- a1&#45;&gt;b2 -->
<g id="edge2" class="edge">
<title>a1&#45;&gt;b2:w</title>
<path fill="none" stroke="#000000" d="M106.36,-407.1871C123.0916,-360.9531 155.1089,-298.976 207.9694,-291.8718"/>
<polygon fill="#000000" stroke="#000000" points="208.3372,-295.3551 218.0832,-291.2 207.8732,-288.3705 208.3372,-295.3551"/>
</g>
<!-- ba1 -->
<g id="node4" class="node">
<title>ba1</title>
<polygon fill="#ffffff" stroke="#7f7f7f" points="697.5832,-829.6017 394.3284,-829.6017 394.3284,-782.7983 697.5832,-782.7983 697.5832,-829.6017"/>
<text text-anchor="middle" x="545.9558" y="-811" font-family="Times,serif" font-size="16.00" fill="#000000">Intégration possible de plusieurs contenus</text>
<text text-anchor="middle" x="545.9558" y="-791.8" font-family="Times,serif" font-size="16.00" fill="#000000">différents : textes, schémas, vidéo, exercices</text>
</g>
<!-- b1&#45;&gt;ba1 -->
<g id="edge3" class="edge">
<title>b1&#45;&gt;ba1:w</title>
<path fill="none" stroke="#000000" d="M276.4557,-674.3243C288.9452,-712.8929 322.9529,-797.0636 383.936,-805.5127"/>
<polygon fill="#000000" stroke="#000000" points="383.7397,-809.0074 393.9558,-806.2 384.2188,-802.0238 383.7397,-809.0074"/>
</g>
<!-- ba2 -->
<g id="node5" class="node">
<title>ba2</title>
<polygon fill="#ffffff" stroke="#7f7f7f" points="716.8262,-769.6017 375.0854,-769.6017 375.0854,-722.7983 716.8262,-722.7983 716.8262,-769.6017"/>
<text text-anchor="middle" x="545.9558" y="-751" font-family="Times,serif" font-size="16.00" fill="#000000">Clarification de la structure du cours avec des</text>
<text text-anchor="middle" x="545.9558" y="-731.8" font-family="Times,serif" font-size="16.00" fill="#000000">étapes facilement identifiables, ou un code couleur</text>
</g>
<!-- b1&#45;&gt;ba2 -->
<g id="edge4" class="edge">
<title>b1&#45;&gt;ba2:w</title>
<path fill="none" stroke="#000000" d="M281.2563,-674.0553C296.2058,-698.6273 326.3025,-739.2071 364.95,-745.3977"/>
<polygon fill="#000000" stroke="#000000" points="364.708,-748.8895 374.9558,-746.2 365.2676,-741.9119 364.708,-748.8895"/>
</g>
<!-- ba3 -->
<g id="node6" class="node">
<title>ba3</title>
<polygon fill="#ffffff" stroke="#7f7f7f" points="717.0401,-709.6017 374.8716,-709.6017 374.8716,-662.7983 717.0401,-662.7983 717.0401,-709.6017"/>
<text text-anchor="middle" x="545.9558" y="-691" font-family="Times,serif" font-size="16.00" fill="#000000">Guidage des élèves grâce à l&#39;explicitation des</text>
<text text-anchor="middle" x="545.9558" y="-671.8" font-family="Times,serif" font-size="16.00" fill="#000000">consignes et la focalisation sur les points essentiels</text>
</g>
<!-- b1&#45;&gt;ba3 -->
<g id="edge5" class="edge">
<title>b1&#45;&gt;ba3:w</title>
<path fill="none" stroke="#000000" d="M301.5936,-669.4298C319.2482,-676.4968 342.312,-683.9184 364.7253,-685.7651"/>
<polygon fill="#000000" stroke="#000000" points="364.8162,-689.272 374.9558,-686.2 365.1135,-682.2784 364.8162,-689.272"/>
</g>
<!-- ba4 -->
<g id="node7" class="node">
<title>ba4</title>
<polygon fill="#ffffff" stroke="#7f7f7f" points="733.0241,-649.6017 358.8876,-649.6017 358.8876,-602.7983 733.0241,-602.7983 733.0241,-649.6017"/>
<text text-anchor="middle" x="545.9558" y="-631" font-family="Times,serif" font-size="16.00" fill="#000000">Efficacité dans la gestion du temps et disponibilité pour</text>
<text text-anchor="middle" x="545.9558" y="-611.8" font-family="Times,serif" font-size="16.00" fill="#000000">l&#39;interaction avec les élèves et la gestion de la classe</text>
</g>
<!-- b1&#45;&gt;ba4 -->
<g id="edge6" class="edge">
<title>b1&#45;&gt;ba4:w</title>
<path fill="none" stroke="#000000" d="M300.2562,-640.3602C314.2675,-634.3958 331.6978,-628.5081 348.8891,-626.7367"/>
<polygon fill="#000000" stroke="#000000" points="349.1564,-630.2276 358.9558,-626.2 348.7836,-623.2375 349.1564,-630.2276"/>
</g>
<!-- ba5 -->
<g id="node8" class="node">
<title>ba5</title>
<polygon fill="#ffffff" stroke="#7f7f7f" points="726.8806,-588.8012 365.031,-588.8012 365.031,-523.5988 726.8806,-523.5988 726.8806,-588.8012"/>
<text text-anchor="middle" x="545.9558" y="-570.6" font-family="Times,serif" font-size="16.00" fill="#000000">Polyvalence des usages : pour la projection en classe,</text>
<text text-anchor="middle" x="545.9558" y="-551.4" font-family="Times,serif" font-size="16.00" fill="#000000">pour l&#39;impression d&#39;un support, pour les révisions des</text>
<text text-anchor="middle" x="545.9558" y="-532.2" font-family="Times,serif" font-size="16.00" fill="#000000">élèves, pour l&#39;échange avec les collègues …</text>
</g>
<!-- b1&#45;&gt;ba5 -->
<g id="edge7" class="edge">
<title>b1&#45;&gt;ba5:w</title>
<path fill="none" stroke="#000000" d="M278.6639,-636.1118C290.7873,-609.5911 316.8172,-564.0546 354.9902,-557.1014"/>
<polygon fill="#000000" stroke="#000000" points="355.3118,-560.5867 364.9558,-556.2 354.6811,-553.6152 355.3118,-560.5867"/>
</g>
<!-- c5 -->
<g id="node9" class="node">
<title>c5</title>
<polygon fill="#ffffff" stroke="#7f7f7f" points="719.2728,-467.8012 372.6389,-467.8012 372.6389,-402.5988 719.2728,-402.5988 719.2728,-467.8012"/>
<text text-anchor="middle" x="545.9558" y="-449.6" font-family="Times,serif" font-size="16.00" fill="#000000">Diaporama surchargé en textes : contenu pas lisible</text>
<text text-anchor="middle" x="545.9558" y="-430.4" font-family="Times,serif" font-size="16.00" fill="#000000">tendance au simple recopiage du diaporama,</text>
<text text-anchor="middle" x="545.9558" y="-411.2" font-family="Times,serif" font-size="16.00" fill="#000000">peu d&#39;intérêt des élèves pour le suivi du cours</text>
</g>
<!-- b2&#45;&gt;c5 -->
<g id="edge12" class="edge">
<title>b2&#45;&gt;c5:w</title>
<path fill="none" stroke="#000000" d="M278.5448,-323.8758C289.8994,-363.6235 315.1679,-426.4358 362.7918,-434.3676"/>
<polygon fill="#000000" stroke="#000000" points="362.7035,-437.872 372.9558,-435.2 363.2749,-430.8953 362.7035,-437.872"/>
</g>
<!-- c6 -->
<g id="node10" class="node">
<title>c6</title>
<polygon fill="#ffffff" stroke="#7f7f7f" points="728.8054,-309.2 363.1062,-309.2 363.1062,-273.2 728.8054,-273.2 728.8054,-309.2"/>
<text text-anchor="middle" x="545.9558" y="-286.4" font-family="Times,serif" font-size="16.00" fill="#000000">Diaporama surchargé en images ou effets de transition</text>
</g>
<!-- b2&#45;&gt;c6 -->
<g id="edge13" class="edge">
<title>b2&#45;&gt;c6:w</title>
<path fill="none" stroke="#000000" d="M323.9505,-291.2C333.331,-291.2 343.1589,-291.2 352.7198,-291.2"/>
<polygon fill="#000000" stroke="#000000" points="352.9559,-294.7001 362.9558,-291.2 352.9558,-287.7001 352.9559,-294.7001"/>
</g>
<!-- c7 -->
<g id="node11" class="node">
<title>c7</title>
<polygon fill="#ffffff" stroke="#7f7f7f" points="694.087,-199.2 397.8246,-199.2 397.8246,-163.2 694.087,-163.2 694.087,-199.2"/>
<text text-anchor="middle" x="545.9558" y="-176.4" font-family="Times,serif" font-size="16.00" fill="#000000">Cours trop directif, trop linéaire, trop rigide</text>
</g>
<!-- b2&#45;&gt;c7 -->
<g id="edge14" class="edge">
<title>b2&#45;&gt;c7:w</title>
<path fill="none" stroke="#000000" d="M288.7993,-260.2661C308.7231,-230.0185 343.9551,-187.6742 387.8506,-181.8691"/>
<polygon fill="#000000" stroke="#000000" points="388.2089,-185.3531 397.9558,-181.2 387.7464,-178.3684 388.2089,-185.3531"/>
</g>
<!-- c8 -->
<g id="node12" class="node">
<title>c8</title>
<polygon fill="#ffffff" stroke="#7f7f7f" points="672.0465,-89.2 419.8651,-89.2 419.8651,-53.2 672.0465,-53.2 672.0465,-89.2"/>
<text text-anchor="middle" x="545.9558" y="-66.4" font-family="Times,serif" font-size="16.00" fill="#000000">Temps de préparation trop important</text>
</g>
<!-- b2&#45;&gt;c8 -->
<g id="edge15" class="edge">
<title>b2&#45;&gt;c8:w</title>
<path fill="none" stroke="#000000" d="M277.2322,-258.2638C290.6467,-199.2885 327.6336,-80.9215 409.7202,-71.764"/>
<polygon fill="#000000" stroke="#000000" points="410.1636,-75.245 419.9558,-71.2 409.7784,-68.2556 410.1636,-75.245"/>
</g>
<!-- ba1&#45;&gt;ba2 -->
<!-- ba2&#45;&gt;ba3 -->
<!-- ba3&#45;&gt;ba4 -->
<!-- ba4&#45;&gt;ba5 -->
<!-- ba5&#45;&gt;c5 -->
<!-- e1 -->
<g id="node13" class="node">
<title>e1</title>
<path fill="#fafafa" stroke="transparent" d="M717.0662,-394.8012C717.0662,-394.8012 374.8454,-394.8012 374.8454,-394.8012 368.8454,-394.8012 362.8454,-388.8012 362.8454,-382.8012 362.8454,-382.8012 362.8454,-341.5988 362.8454,-341.5988 362.8454,-335.5988 368.8454,-329.5988 374.8454,-329.5988 374.8454,-329.5988 717.0662,-329.5988 717.0662,-329.5988 723.0662,-329.5988 729.0662,-335.5988 729.0662,-341.5988 729.0662,-341.5988 729.0662,-382.8012 729.0662,-382.8012 729.0662,-388.8012 723.0662,-394.8012 717.0662,-394.8012"/>
<text text-anchor="middle" x="545.9558" y="-376.6" font-family="Times,serif" font-size="16.00" fill="#cd2626">⇒ Faire attention à la lisibilité, mettre seulement</text>
<text text-anchor="middle" x="545.9558" y="-357.4" font-family="Times,serif" font-size="16.00" fill="#cd2626">l&#39;essentiel, concevoir son diaporama principalement</text>
<text text-anchor="middle" x="545.9558" y="-338.2" font-family="Times,serif" font-size="16.00" fill="#cd2626">comme un support pour la mise en activité des élèves</text>
</g>
<!-- c5&#45;&gt;e1 -->
<!-- e2 -->
<g id="node14" class="node">
<title>e2</title>
<path fill="#fafafa" stroke="transparent" d="M671.9234,-266.6017C671.9234,-266.6017 419.9882,-266.6017 419.9882,-266.6017 413.9882,-266.6017 407.9882,-260.6017 407.9882,-254.6017 407.9882,-254.6017 407.9882,-231.7983 407.9882,-231.7983 407.9882,-225.7983 413.9882,-219.7983 419.9882,-219.7983 419.9882,-219.7983 671.9234,-219.7983 671.9234,-219.7983 677.9234,-219.7983 683.9234,-225.7983 683.9234,-231.7983 683.9234,-231.7983 683.9234,-254.6017 683.9234,-254.6017 683.9234,-260.6017 677.9234,-266.6017 671.9234,-266.6017"/>
<text text-anchor="middle" x="545.9558" y="-248" font-family="Times,serif" font-size="16.00" fill="#cd2626">⇒ Focaliser le diaporama sur le contenu,</text>
<text text-anchor="middle" x="545.9558" y="-228.8" font-family="Times,serif" font-size="16.00" fill="#cd2626">ne pas perdre l&#39;attention des élèves</text>
</g>
<!-- c6&#45;&gt;e2 -->
<!-- e3 -->
<g id="node15" class="node">
<title>e3</title>
<path fill="#fafafa" stroke="transparent" d="M692.0294,-156.6017C692.0294,-156.6017 399.8822,-156.6017 399.8822,-156.6017 393.8822,-156.6017 387.8822,-150.6017 387.8822,-144.6017 387.8822,-144.6017 387.8822,-121.7983 387.8822,-121.7983 387.8822,-115.7983 393.8822,-109.7983 399.8822,-109.7983 399.8822,-109.7983 692.0294,-109.7983 692.0294,-109.7983 698.0294,-109.7983 704.0294,-115.7983 704.0294,-121.7983 704.0294,-121.7983 704.0294,-144.6017 704.0294,-144.6017 704.0294,-150.6017 698.0294,-156.6017 692.0294,-156.6017"/>
<text text-anchor="middle" x="545.9558" y="-138" font-family="Times,serif" font-size="16.00" fill="#cd2626">⇒ Ménager des temps de questionnement,</text>
<text text-anchor="middle" x="545.9558" y="-118.8" font-family="Times,serif" font-size="16.00" fill="#cd2626">accepter certains détours, certaines digressions</text>
</g>
<!-- c7&#45;&gt;e3 -->
<!-- e4 -->
<g id="node16" class="node">
<title>e4</title>
<path fill="#fafafa" stroke="transparent" d="M720.2856,-46.6017C720.2856,-46.6017 371.6261,-46.6017 371.6261,-46.6017 365.6261,-46.6017 359.6261,-40.6017 359.6261,-34.6017 359.6261,-34.6017 359.6261,-11.7983 359.6261,-11.7983 359.6261,-5.7983 365.6261,.2017 371.6261,.2017 371.6261,.2017 720.2856,.2017 720.2856,.2017 726.2856,.2017 732.2856,-5.7983 732.2856,-11.7983 732.2856,-11.7983 732.2856,-34.6017 732.2856,-34.6017 732.2856,-40.6017 726.2856,-46.6017 720.2856,-46.6017"/>
<text text-anchor="middle" x="545.9558" y="-28" font-family="Times,serif" font-size="16.00" fill="#cd2626">⇒ Mettre dans un premier temps seulement la structure,</text>
<text text-anchor="middle" x="545.9558" y="-8.8" font-family="Times,serif" font-size="16.00" fill="#cd2626">les points les plus importants, quelques exercices</text>
</g>
<!-- c8&#45;&gt;e4 -->
<!-- e1&#45;&gt;c6 -->
<!-- e2&#45;&gt;c7 -->
<!-- e3&#45;&gt;c8 -->
</g>
</svg>
