<?xml version="1.0" encoding="UTF-8" standalone="no"?>
<!DOCTYPE svg PUBLIC "-//W3C//DTD SVG 1.1//EN"
 "http://www.w3.org/Graphics/SVG/1.1/DTD/svg11.dtd">
<!-- Generated by graphviz version 2.40.1 (20161225.0304)
 -->
<!-- Title: G Pages: 1 -->
<svg width="774pt" height="813pt"
 viewBox="0.00 0.00 774.20 812.60" xmlns="http://www.w3.org/2000/svg" xmlns:xlink="http://www.w3.org/1999/xlink">
<g id="graph0" class="graph" transform="scale(1 1) rotate(0) translate(21.6 791)">
<title>G</title>
<polygon fill="#fafafa" stroke="transparent" points="-21.6,21.6 -21.6,-791 752.6014,-791 752.6014,21.6 -21.6,21.6"/>
<!-- a1 -->
<g id="node1" class="node">
<title>a1</title>
<ellipse fill="#000000" stroke="#000000" cx="91.5416" cy="-458.2" rx="91.5833" ry="51.4548"/>
<text text-anchor="middle" x="91.5416" y="-474.4" font-family="Times,serif" font-size="18.00" fill="#ffffff">Faire un</text>
<text text-anchor="middle" x="91.5416" y="-452.8" font-family="Times,serif" font-size="18.00" fill="#ffffff">diaporama pour</text>
<text text-anchor="middle" x="91.5416" y="-431.2" font-family="Times,serif" font-size="18.00" fill="#ffffff">son cours</text>
</g>
<!-- b1 -->
<g id="node2" class="node">
<title>b1</title>
<ellipse fill="#8b0000" stroke="#000000" cx="270.8775" cy="-626.2" rx="45.2634" ry="19.4695"/>
<text text-anchor="middle" x="270.8775" y="-621.4" font-family="Times,serif" font-size="16.00" fill="#ffffff">Intérêt</text>
</g>
<!-- a1&#45;&gt;b1 -->
<g id="edge1" class="edge">
<title>a1&#45;&gt;b1:w</title>
<path fill="none" stroke="#000000" d="M107.6935,-509.0615C125.8619,-555.7075 160.1881,-618.5903 214.8171,-625.5641"/>
<polygon fill="#000000" stroke="#000000" points="214.6766,-629.0621 224.8775,-626.2 215.1183,-622.0761 214.6766,-629.0621"/>
</g>
<!-- b2 -->
<g id="node3" class="node">
<title>b2</title>
<ellipse fill="#8b0000" stroke="#000000" cx="270.8775" cy="-291.2" rx="52.5894" ry="32.6206"/>
<text text-anchor="middle" x="270.8775" y="-296" font-family="Times,serif" font-size="16.00" fill="#ffffff">Risques</text>
<text text-anchor="middle" x="270.8775" y="-276.8" font-family="Times,serif" font-size="16.00" fill="#ffffff">possibles</text>
</g>
<!-- a1&#45;&gt;b2 -->
<g id="edge2" class="edge">
<title>a1&#45;&gt;b2:w</title>
<path fill="none" stroke="#000000" d="M106.36,-407.1871C123.0916,-360.9531 155.1089,-298.976 207.9694,-291.8718"/>
<polygon fill="#000000" stroke="#000000" points="208.3372,-295.3551 218.0832,-291.2 207.8732,-288.3705 208.3372,-295.3551"/>
</g>
<!-- c1 -->
<g id="node4" class="node">
<title>c1</title>
<polygon fill="#ffffff" stroke="#7f7f7f" points="696.464,-769.6017 393.2092,-769.6017 393.2092,-722.7983 696.464,-722.7983 696.464,-769.6017"/>
<text text-anchor="middle" x="544.8366" y="-751" font-family="Times,serif" font-size="16.00" fill="#000000">Intégration possible de plusieurs contenus</text>
<text text-anchor="middle" x="544.8366" y="-731.8" font-family="Times,serif" font-size="16.00" fill="#000000">différents : textes, schémas, vidéo, exercices</text>
</g>
<!-- b1&#45;&gt;c1 -->
<g id="edge3" class="edge">
<title>b1&#45;&gt;c1:w</title>
<path fill="none" stroke="#000000" d="M279.3693,-645.2144C294.9249,-677.0024 331.1922,-738.1908 382.6911,-745.4838"/>
<polygon fill="#000000" stroke="#000000" points="382.615,-748.9871 392.8366,-746.2 383.1079,-742.0044 382.615,-748.9871"/>
</g>
<!-- c2 -->
<g id="node5" class="node">
<title>c2</title>
<polygon fill="#ffffff" stroke="#7f7f7f" points="715.707,-709.6017 373.9662,-709.6017 373.9662,-662.7983 715.707,-662.7983 715.707,-709.6017"/>
<text text-anchor="middle" x="544.8366" y="-691" font-family="Times,serif" font-size="16.00" fill="#000000">Clarification de la structure du cours avec des</text>
<text text-anchor="middle" x="544.8366" y="-671.8" font-family="Times,serif" font-size="16.00" fill="#000000">étapes facilement identifiables, ou un code couleur</text>
</g>
<!-- b1&#45;&gt;c2 -->
<g id="edge4" class="edge">
<title>b1&#45;&gt;c2:w</title>
<path fill="none" stroke="#000000" d="M288.4173,-644.202C305.6468,-660.0804 333.6463,-681.3277 363.6118,-685.4797"/>
<polygon fill="#000000" stroke="#000000" points="363.6154,-688.9886 373.8366,-686.2 364.1073,-682.0059 363.6154,-688.9886"/>
</g>
<!-- c3 -->
<g id="node6" class="node">
<title>c3</title>
<polygon fill="#ffffff" stroke="#7f7f7f" points="715.9209,-649.6017 373.7524,-649.6017 373.7524,-602.7983 715.9209,-602.7983 715.9209,-649.6017"/>
<text text-anchor="middle" x="544.8366" y="-631" font-family="Times,serif" font-size="16.00" fill="#000000">Guidage des élèves grâce à l&#39;explicitation des</text>
<text text-anchor="middle" x="544.8366" y="-611.8" font-family="Times,serif" font-size="16.00" fill="#000000">consignes et la focalisation sur les points essentiels</text>
</g>
<!-- b1&#45;&gt;c3 -->
<g id="edge5" class="edge">
<title>b1&#45;&gt;c3:w</title>
<path fill="none" stroke="#000000" d="M316.4934,-626.2C331.1619,-626.2 347.7222,-626.2 363.5602,-626.2"/>
<polygon fill="#000000" stroke="#000000" points="363.8367,-629.7001 373.8366,-626.2 363.8366,-622.7001 363.8367,-629.7001"/>
</g>
<!-- c4 -->
<g id="node7" class="node">
<title>c4</title>
<polygon fill="#ffffff" stroke="#7f7f7f" points="725.7614,-588.8012 363.9118,-588.8012 363.9118,-523.5988 725.7614,-523.5988 725.7614,-588.8012"/>
<text text-anchor="middle" x="544.8366" y="-570.6" font-family="Times,serif" font-size="16.00" fill="#000000">Polyvalence des usages : pour la projection en classe,</text>
<text text-anchor="middle" x="544.8366" y="-551.4" font-family="Times,serif" font-size="16.00" fill="#000000">pour l&#39;impression d&#39;un support, pour les révisions des</text>
<text text-anchor="middle" x="544.8366" y="-532.2" font-family="Times,serif" font-size="16.00" fill="#000000">élèves, pour l&#39;échange avec les collègues …</text>
</g>
<!-- b1&#45;&gt;c4 -->
<g id="edge6" class="edge">
<title>b1&#45;&gt;c4:w</title>
<path fill="none" stroke="#000000" d="M283.9591,-607.4413C298.477,-588.8123 323.8249,-562.2958 353.5844,-557.1018"/>
<polygon fill="#000000" stroke="#000000" points="354.1818,-560.5629 363.8366,-556.2 353.5684,-553.5898 354.1818,-560.5629"/>
</g>
<!-- c5 -->
<g id="node8" class="node">
<title>c5</title>
<polygon fill="#ffffff" stroke="#7f7f7f" points="718.1536,-467.8012 371.5197,-467.8012 371.5197,-402.5988 718.1536,-402.5988 718.1536,-467.8012"/>
<text text-anchor="middle" x="544.8366" y="-449.6" font-family="Times,serif" font-size="16.00" fill="#000000">Diaporama surchargé en textes : contenu pas lisible</text>
<text text-anchor="middle" x="544.8366" y="-430.4" font-family="Times,serif" font-size="16.00" fill="#000000">tendance au simple recopiage du diaporama,</text>
<text text-anchor="middle" x="544.8366" y="-411.2" font-family="Times,serif" font-size="16.00" fill="#000000">peu d&#39;intérêt des élèves pour le suivi du cours</text>
</g>
<!-- b2&#45;&gt;c5 -->
<g id="edge10" class="edge">
<title>b2&#45;&gt;c5:w</title>
<path fill="none" stroke="#000000" d="M278.3474,-323.8758C289.4546,-363.6235 314.3052,-426.4358 361.714,-434.3676"/>
<polygon fill="#000000" stroke="#000000" points="361.5834,-437.8686 371.8366,-435.2 362.1571,-430.8921 361.5834,-437.8686"/>
</g>
<!-- c6 -->
<g id="node9" class="node">
<title>c6</title>
<polygon fill="#ffffff" stroke="#7f7f7f" points="727.6862,-309.2 361.987,-309.2 361.987,-273.2 727.6862,-273.2 727.6862,-309.2"/>
<text text-anchor="middle" x="544.8366" y="-286.4" font-family="Times,serif" font-size="16.00" fill="#000000">Diaporama surchargé en images ou effets de transition</text>
</g>
<!-- b2&#45;&gt;c6 -->
<g id="edge11" class="edge">
<title>b2&#45;&gt;c6:w</title>
<path fill="none" stroke="#000000" d="M323.785,-291.2C332.8515,-291.2 342.3282,-291.2 351.5571,-291.2"/>
<polygon fill="#000000" stroke="#000000" points="351.8367,-294.7001 361.8366,-291.2 351.8366,-287.7001 351.8367,-294.7001"/>
</g>
<!-- c7 -->
<g id="node10" class="node">
<title>c7</title>
<polygon fill="#ffffff" stroke="#7f7f7f" points="692.9678,-199.2 396.7054,-199.2 396.7054,-163.2 692.9678,-163.2 692.9678,-199.2"/>
<text text-anchor="middle" x="544.8366" y="-176.4" font-family="Times,serif" font-size="16.00" fill="#000000">Cours trop directif, trop linéaire, trop rigide</text>
</g>
<!-- b2&#45;&gt;c7 -->
<g id="edge12" class="edge">
<title>b2&#45;&gt;c7:w</title>
<path fill="none" stroke="#000000" d="M288.5741,-260.2661C308.2656,-230.0185 343.1356,-187.6742 386.7851,-181.8691"/>
<polygon fill="#000000" stroke="#000000" points="387.0912,-185.3565 396.8366,-181.2 386.6262,-178.372 387.0912,-185.3565"/>
</g>
<!-- c8 -->
<g id="node11" class="node">
<title>c8</title>
<polygon fill="#ffffff" stroke="#7f7f7f" points="670.9273,-89.2 418.7459,-89.2 418.7459,-53.2 670.9273,-53.2 670.9273,-89.2"/>
<text text-anchor="middle" x="544.8366" y="-66.4" font-family="Times,serif" font-size="16.00" fill="#000000">Temps de préparation trop important</text>
</g>
<!-- b2&#45;&gt;c8 -->
<g id="edge13" class="edge">
<title>b2&#45;&gt;c8:w</title>
<path fill="none" stroke="#000000" d="M277.1023,-258.2638C290.2793,-199.2885 326.7659,-80.9215 408.6271,-71.764"/>
<polygon fill="#000000" stroke="#000000" points="409.0449,-75.2464 418.8366,-71.2 408.6587,-68.257 409.0449,-75.2464"/>
</g>
<!-- c1&#45;&gt;c2 -->
<!-- c2&#45;&gt;c3 -->
<!-- c3&#45;&gt;c4 -->
<!-- c4&#45;&gt;c5 -->
<!-- e1 -->
<g id="node12" class="node">
<title>e1</title>
<path fill="#fafafa" stroke="transparent" d="M715.947,-394.8012C715.947,-394.8012 373.7262,-394.8012 373.7262,-394.8012 367.7262,-394.8012 361.7262,-388.8012 361.7262,-382.8012 361.7262,-382.8012 361.7262,-341.5988 361.7262,-341.5988 361.7262,-335.5988 367.7262,-329.5988 373.7262,-329.5988 373.7262,-329.5988 715.947,-329.5988 715.947,-329.5988 721.947,-329.5988 727.947,-335.5988 727.947,-341.5988 727.947,-341.5988 727.947,-382.8012 727.947,-382.8012 727.947,-388.8012 721.947,-394.8012 715.947,-394.8012"/>
<text text-anchor="middle" x="544.8366" y="-376.6" font-family="Times,serif" font-size="16.00" fill="#cd2626">⇒ Faire attention à la lisibilité, mettre seulement</text>
<text text-anchor="middle" x="544.8366" y="-357.4" font-family="Times,serif" font-size="16.00" fill="#cd2626">l&#39;essentiel, concevoir son diaporama principalement</text>
<text text-anchor="middle" x="544.8366" y="-338.2" font-family="Times,serif" font-size="16.00" fill="#cd2626">comme un support pour la mise en activité des élèves</text>
</g>
<!-- c5&#45;&gt;e1 -->
<!-- e2 -->
<g id="node13" class="node">
<title>e2</title>
<path fill="#fafafa" stroke="transparent" d="M670.8042,-266.6017C670.8042,-266.6017 418.869,-266.6017 418.869,-266.6017 412.869,-266.6017 406.869,-260.6017 406.869,-254.6017 406.869,-254.6017 406.869,-231.7983 406.869,-231.7983 406.869,-225.7983 412.869,-219.7983 418.869,-219.7983 418.869,-219.7983 670.8042,-219.7983 670.8042,-219.7983 676.8042,-219.7983 682.8042,-225.7983 682.8042,-231.7983 682.8042,-231.7983 682.8042,-254.6017 682.8042,-254.6017 682.8042,-260.6017 676.8042,-266.6017 670.8042,-266.6017"/>
<text text-anchor="middle" x="544.8366" y="-248" font-family="Times,serif" font-size="16.00" fill="#cd2626">⇒ Focaliser le diaporama sur le contenu,</text>
<text text-anchor="middle" x="544.8366" y="-228.8" font-family="Times,serif" font-size="16.00" fill="#cd2626">ne pas perdre l&#39;attention des élèves</text>
</g>
<!-- c6&#45;&gt;e2 -->
<!-- e3 -->
<g id="node14" class="node">
<title>e3</title>
<path fill="#fafafa" stroke="transparent" d="M690.9102,-156.6017C690.9102,-156.6017 398.763,-156.6017 398.763,-156.6017 392.763,-156.6017 386.763,-150.6017 386.763,-144.6017 386.763,-144.6017 386.763,-121.7983 386.763,-121.7983 386.763,-115.7983 392.763,-109.7983 398.763,-109.7983 398.763,-109.7983 690.9102,-109.7983 690.9102,-109.7983 696.9102,-109.7983 702.9102,-115.7983 702.9102,-121.7983 702.9102,-121.7983 702.9102,-144.6017 702.9102,-144.6017 702.9102,-150.6017 696.9102,-156.6017 690.9102,-156.6017"/>
<text text-anchor="middle" x="544.8366" y="-138" font-family="Times,serif" font-size="16.00" fill="#cd2626">⇒ Ménager des temps de questionnement,</text>
<text text-anchor="middle" x="544.8366" y="-118.8" font-family="Times,serif" font-size="16.00" fill="#cd2626">accepter certains détours, certaines digressions</text>
</g>
<!-- c7&#45;&gt;e3 -->
<!-- e4 -->
<g id="node15" class="node">
<title>e4</title>
<path fill="#fafafa" stroke="transparent" d="M719.1664,-46.6017C719.1664,-46.6017 370.5069,-46.6017 370.5069,-46.6017 364.5069,-46.6017 358.5069,-40.6017 358.5069,-34.6017 358.5069,-34.6017 358.5069,-11.7983 358.5069,-11.7983 358.5069,-5.7983 364.5069,.2017 370.5069,.2017 370.5069,.2017 719.1664,.2017 719.1664,.2017 725.1664,.2017 731.1664,-5.7983 731.1664,-11.7983 731.1664,-11.7983 731.1664,-34.6017 731.1664,-34.6017 731.1664,-40.6017 725.1664,-46.6017 719.1664,-46.6017"/>
<text text-anchor="middle" x="544.8366" y="-28" font-family="Times,serif" font-size="16.00" fill="#cd2626">⇒ Mettre dans un premier temps seulement la structure,</text>
<text text-anchor="middle" x="544.8366" y="-8.8" font-family="Times,serif" font-size="16.00" fill="#cd2626">les points les plus importants, quelques exercices</text>
</g>
<!-- c8&#45;&gt;e4 -->
<!-- e1&#45;&gt;c6 -->
<!-- e2&#45;&gt;c7 -->
<!-- e3&#45;&gt;c8 -->
</g>
</svg>
