<?xml version="1.0" encoding="UTF-8" standalone="no"?><!DOCTYPE svg PUBLIC "-//W3C//DTD SVG 1.1//EN" "http://www.w3.org/Graphics/SVG/1.1/DTD/svg11.dtd"><!-- Generated by graphviz version 2.40.1 (20161225.0304)
 --><!-- Title: G Pages: 1 --><svg xmlns="http://www.w3.org/2000/svg" xmlns:xlink="http://www.w3.org/1999/xlink" width="377pt" height="241pt" viewBox="0.00 0.00 376.99 241.24">
<g id="graph0" class="graph" transform="scale(1 1) rotate(0) translate(21.6 219.6431)">
<title>G</title>
<polygon fill="#fafafa" stroke="transparent" points="-21.6,21.6 -21.6,-219.6431 355.3891,-219.6431 355.3891,21.6 -21.6,21.6"/>
<!-- a1 -->
<g id="node1" class="node">
<title>a1</title>
<ellipse fill="#000000" stroke="#000000" cx="69.4281" cy="-112.8098" rx="69.3563" ry="51.4548"/>
<text text-anchor="middle" x="69.4281" y="-129.0098" font-family="Times,serif" font-size="18.00" fill="#ffffff">Différentes</text>
<text text-anchor="middle" x="69.4281" y="-107.4098" font-family="Times,serif" font-size="18.00" fill="#ffffff">formes de </text>
<text text-anchor="middle" x="69.4281" y="-85.8098" font-family="Times,serif" font-size="18.00" fill="#ffffff">novlangue</text>
</g>
<!-- b1 -->
<g id="node2" class="node">
<title>b1</title>
<ellipse fill="#8b0000" stroke="#000000" cx="253.8227" cy="-178.8098" rx="79.9329" ry="19.4695"/>
<text text-anchor="middle" x="253.8227" y="-174.0098" font-family="Times,serif" font-size="16.00" fill="#ffffff">Euphémisation</text>
</g>
<!-- a1&#45;&gt;b1 -->
<g id="edge1" class="edge">
<title>a1-&gt;b1</title>
<path fill="none" stroke="#000000" d="M130.8028,-136.9219C144.8962,-142.2906 159.8548,-147.8557 173.8563,-152.8098 180.7632,-155.2536 188.0355,-157.7385 195.2643,-160.1545"/>
<polygon fill="#000000" stroke="#000000" points="194.4631,-163.576 205.0564,-163.3959 196.6629,-156.9306 194.4631,-163.576"/>
</g>
<!-- b2 -->
<g id="node3" class="node">
<title>b2</title>
<ellipse fill="#8b0000" stroke="#000000" cx="253.8227" cy="-112.8098" rx="68.3578" ry="32.6206"/>
<text text-anchor="middle" x="253.8227" y="-117.6098" font-family="Times,serif" font-size="16.00" fill="#ffffff">Discours</text>
<text text-anchor="middle" x="253.8227" y="-98.4098" font-family="Times,serif" font-size="16.00" fill="#ffffff">positif creux</text>
</g>
<!-- a1&#45;&gt;b2 -->
<g id="edge2" class="edge">
<title>a1-&gt;b2</title>
<path fill="none" stroke="#000000" d="M138.877,-112.8098C150.761,-112.8098 163.1828,-112.8098 175.2836,-112.8098"/>
<polygon fill="#000000" stroke="#000000" points="175.354,-116.3099 185.3539,-112.8098 175.3539,-109.3099 175.354,-116.3099"/>
</g>
<!-- b3 -->
<g id="node4" class="node">
<title>b3</title>
<ellipse fill="#8b0000" stroke="#000000" cx="253.8227" cy="-32.8098" rx="51.6635" ry="32.6206"/>
<text text-anchor="middle" x="253.8227" y="-37.6098" font-family="Times,serif" font-size="16.00" fill="#ffffff">Effets de</text>
<text text-anchor="middle" x="253.8227" y="-18.4098" font-family="Times,serif" font-size="16.00" fill="#ffffff">cadrage</text>
</g>
<!-- a1&#45;&gt;b3 -->
<g id="edge3" class="edge">
<title>a1-&gt;b3</title>
<path fill="none" stroke="#000000" d="M129.5507,-86.7255C152.8166,-76.6315 179.1956,-65.1869 201.6462,-55.4466"/>
<polygon fill="#000000" stroke="#000000" points="203.2261,-58.5765 211.0069,-51.3855 200.44,-52.1548 203.2261,-58.5765"/>
</g>
</g>
</svg>