<?xml version="1.0" encoding="UTF-8" standalone="no"?><!DOCTYPE svg PUBLIC "-//W3C//DTD SVG 1.1//EN" "http://www.w3.org/Graphics/SVG/1.1/DTD/svg11.dtd"><!-- Generated by graphviz version 2.40.1 (20161225.0304)
 --><!-- Title: G Pages: 1 --><svg xmlns="http://www.w3.org/2000/svg" xmlns:xlink="http://www.w3.org/1999/xlink" width="693pt" height="383pt" viewBox="0.00 0.00 693.25 382.57">
<g id="graph0" class="graph" transform="scale(1 1) rotate(0) translate(21.6 360.9743)">
<title>G</title>
<polygon fill="#fafafa" stroke="transparent" points="-21.6,21.6 -21.6,-360.9743 671.6547,-360.9743 671.6547,21.6 -21.6,21.6"/>
<!-- a1 -->
<g id="node1" class="node">
<title>a1</title>
<ellipse fill="#000000" stroke="#000000" cx="365.8704" cy="-287.8969" rx="81.4375" ry="51.4548"/>
<text text-anchor="middle" x="365.8704" y="-304.0969" font-family="Times,serif" font-size="18.00" fill="#ffffff">Trois formes</text>
<text text-anchor="middle" x="365.8704" y="-282.4969" font-family="Times,serif" font-size="18.00" fill="#ffffff">possibles de</text>
<text text-anchor="middle" x="365.8704" y="-260.8969" font-family="Times,serif" font-size="18.00" fill="#ffffff">déterminisme</text>
</g>
<!-- b1 -->
<g id="node2" class="node">
<title>b1</title>
<ellipse fill="#8b0000" stroke="#000000" cx="157.8704" cy="-168.6098" rx="76.3689" ry="32.6206"/>
<text text-anchor="middle" x="157.8704" y="-173.4098" font-family="Times,serif" font-size="16.00" fill="#ffffff">Déterminisme</text>
<text text-anchor="middle" x="157.8704" y="-154.2098" font-family="Times,serif" font-size="16.00" fill="#ffffff">biologique</text>
</g>
<!-- a1&#45;&gt;b1 -->
<g id="edge1" class="edge">
<title>a1-&gt;b1:n</title>
<path fill="none" stroke="#000000" d="M288.7145,-270.8588C236.2254,-257.2229 173.9436,-236.2718 160.5065,-211.2165"/>
<polygon fill="#000000" stroke="#000000" points="163.8486,-210.1666 157.8704,-201.4195 157.089,-211.9855 163.8486,-210.1666"/>
</g>
<!-- b2 -->
<g id="node3" class="node">
<title>b2</title>
<ellipse fill="#8b0000" stroke="#000000" cx="365.8704" cy="-168.6098" rx="76.3689" ry="32.6206"/>
<text text-anchor="middle" x="365.8704" y="-173.4098" font-family="Times,serif" font-size="16.00" fill="#ffffff">Déterminisme</text>
<text text-anchor="middle" x="365.8704" y="-154.2098" font-family="Times,serif" font-size="16.00" fill="#ffffff">psychique</text>
</g>
<!-- a1&#45;&gt;b2 -->
<g id="edge2" class="edge">
<title>a1-&gt;b2:n</title>
<path fill="none" stroke="#000000" d="M365.8704,-236.2242C365.8704,-228.1665 365.8704,-219.7998 365.8704,-211.6281"/>
<polygon fill="#000000" stroke="#000000" points="369.3705,-211.4195 365.8704,-201.4195 362.3705,-211.4195 369.3705,-211.4195"/>
</g>
<!-- b3 -->
<g id="node4" class="node">
<title>b3</title>
<ellipse fill="#8b0000" stroke="#000000" cx="573.8704" cy="-168.6098" rx="76.3689" ry="32.6206"/>
<text text-anchor="middle" x="573.8704" y="-173.4098" font-family="Times,serif" font-size="16.00" fill="#ffffff">Déterminisme</text>
<text text-anchor="middle" x="573.8704" y="-154.2098" font-family="Times,serif" font-size="16.00" fill="#ffffff">social</text>
</g>
<!-- a1&#45;&gt;b3 -->
<g id="edge3" class="edge">
<title>a1-&gt;b3:n</title>
<path fill="none" stroke="#000000" d="M443.0263,-270.8588C495.5154,-257.2229 557.7972,-236.2718 571.2343,-211.2165"/>
<polygon fill="#000000" stroke="#000000" points="574.6518,-211.9855 573.8704,-201.4195 567.8922,-210.1666 574.6518,-211.9855"/>
</g>
<!-- b1&#45;&gt;b2 -->
<!-- c1 -->
<g id="node5" class="node">
<title>c1</title>
<polygon fill="#ffffff" stroke="#7f7f7f" points="107.6115,-101.0017 .1293,-101.0017 .1293,-54.1983 107.6115,-54.1983 107.6115,-101.0017"/>
<text text-anchor="middle" x="53.8704" y="-82.4" font-family="Times,serif" font-size="16.00" fill="#000000">Déterminisme</text>
<text text-anchor="middle" x="53.8704" y="-63.2" font-family="Times,serif" font-size="16.00" fill="#000000">génétique</text>
</g>
<!-- b1&#45;&gt;c1 -->
<g id="edge6" class="edge">
<title>b1-&gt;c1</title>
<path fill="none" stroke="#000000" d="M124.1046,-139.0615C112.6353,-129.0248 99.8109,-117.8023 88.2911,-107.7213"/>
<polygon fill="#000000" stroke="#000000" points="90.3873,-104.9048 80.557,-100.9532 85.7775,-110.1726 90.3873,-104.9048"/>
</g>
<!-- c2 -->
<g id="node6" class="node">
<title>c2</title>
<polygon fill="#ffffff" stroke="#7f7f7f" points="229.6115,-101.0017 122.1293,-101.0017 122.1293,-54.1983 229.6115,-54.1983 229.6115,-101.0017"/>
<text text-anchor="middle" x="175.8704" y="-82.4" font-family="Times,serif" font-size="16.00" fill="#000000">Déterminisme</text>
<text text-anchor="middle" x="175.8704" y="-63.2" font-family="Times,serif" font-size="16.00" fill="#000000">neuronal</text>
</g>
<!-- b1&#45;&gt;c2 -->
<g id="edge7" class="edge">
<title>b1-&gt;c2</title>
<path fill="none" stroke="#000000" d="M164.3688,-135.7531C165.969,-127.6624 167.6838,-118.9921 169.288,-110.8815"/>
<polygon fill="#000000" stroke="#000000" points="172.7369,-111.482 171.2437,-100.9929 165.8699,-110.1238 172.7369,-111.482"/>
</g>
<!-- b2&#45;&gt;b3 -->
<!-- c3 -->
<g id="node7" class="node">
<title>c3</title>
<polygon fill="#ffffff" stroke="#7f7f7f" points="370.8416,-101.0017 250.8992,-101.0017 250.8992,-54.1983 370.8416,-54.1983 370.8416,-101.0017"/>
<text text-anchor="middle" x="310.8704" y="-82.4" font-family="Times,serif" font-size="16.00" fill="#000000">Déterminisme</text>
<text text-anchor="middle" x="310.8704" y="-63.2" font-family="Times,serif" font-size="16.00" fill="#000000">psychanalytique</text>
</g>
<!-- b2&#45;&gt;c3 -->
<g id="edge8" class="edge">
<title>b2-&gt;c3</title>
<path fill="none" stroke="#000000" d="M346.6341,-136.779C341.3461,-128.0289 335.6088,-118.5352 330.3095,-109.7664"/>
<polygon fill="#000000" stroke="#000000" points="333.1506,-107.7006 324.9829,-100.9523 327.1597,-111.3211 333.1506,-107.7006"/>
</g>
<!-- c4 -->
<g id="node8" class="node">
<title>c4</title>
<polygon fill="#ffffff" stroke="#7f7f7f" points="492.6115,-101.0017 385.1293,-101.0017 385.1293,-54.1983 492.6115,-54.1983 492.6115,-101.0017"/>
<text text-anchor="middle" x="438.8704" y="-82.4" font-family="Times,serif" font-size="16.00" fill="#000000">Déterminisme</text>
<text text-anchor="middle" x="438.8704" y="-63.2" font-family="Times,serif" font-size="16.00" fill="#000000">cognitif</text>
</g>
<!-- b2&#45;&gt;c4 -->
<g id="edge9" class="edge">
<title>b2-&gt;c4</title>
<path fill="none" stroke="#000000" d="M390.7887,-137.5439C398.2001,-128.304 406.3223,-118.178 413.7468,-108.9219"/>
<polygon fill="#000000" stroke="#000000" points="416.5295,-111.0464 420.0563,-101.0558 411.069,-106.6665 416.5295,-111.0464"/>
</g>
<!-- c5 -->
<g id="node9" class="node">
<title>c5</title>
<polygon fill="#ffffff" stroke="#7f7f7f" points="637.2137,-101.0017 510.5271,-101.0017 510.5271,-54.1983 637.2137,-54.1983 637.2137,-101.0017"/>
<text text-anchor="middle" x="573.8704" y="-82.4" font-family="Times,serif" font-size="16.00" fill="#000000">Déterminisme de</text>
<text text-anchor="middle" x="573.8704" y="-63.2" font-family="Times,serif" font-size="16.00" fill="#000000">la classe sociale</text>
</g>
<!-- b3&#45;&gt;c5 -->
<g id="edge10" class="edge">
<title>b3-&gt;c5</title>
<path fill="none" stroke="#000000" d="M573.8704,-135.7531C573.8704,-127.7523 573.8704,-119.1847 573.8704,-111.152"/>
<polygon fill="#000000" stroke="#000000" points="577.3705,-110.9929 573.8704,-100.9929 570.3705,-110.993 577.3705,-110.9929"/>
</g>
<!-- e1 -->
<g id="node10" class="node">
<title>e1</title>
<path fill="#fafafa" stroke="transparent" d="M187.6114,-46.6017C187.6114,-46.6017 42.1294,-46.6017 42.1294,-46.6017 36.1294,-46.6017 30.1294,-40.6017 30.1294,-34.6017 30.1294,-34.6017 30.1294,-11.7983 30.1294,-11.7983 30.1294,-5.7983 36.1294,.2017 42.1294,.2017 42.1294,.2017 187.6114,.2017 187.6114,.2017 193.6114,.2017 199.6114,-5.7983 199.6114,-11.7983 199.6114,-11.7983 199.6114,-34.6017 199.6114,-34.6017 199.6114,-40.6017 193.6114,-46.6017 187.6114,-46.6017"/>
<text text-anchor="middle" x="114.8704" y="-28" font-family="Times,serif" font-size="16.00" fill="#cd2626">Question trop complexe</text>
<text text-anchor="middle" x="114.8704" y="-8.8" font-family="Times,serif" font-size="16.00" fill="#cd2626">pour être envisagée ici</text>
</g>
<!-- c1&#45;&gt;e1 -->
<!-- c2&#45;&gt;e1 -->
</g>
</svg>