<?xml version="1.0" encoding="UTF-8" standalone="no"?>
<!DOCTYPE svg PUBLIC "-//W3C//DTD SVG 1.1//EN"
 "http://www.w3.org/Graphics/SVG/1.1/DTD/svg11.dtd">
<!-- Generated by graphviz version 2.40.1 (20161225.0304)
 -->
<!-- Title: G Pages: 1 -->
<svg width="662pt" height="565pt"
 viewBox="0.00 0.00 662.05 564.58" xmlns="http://www.w3.org/2000/svg" xmlns:xlink="http://www.w3.org/1999/xlink">
<g id="graph0" class="graph" transform="scale(1 1) rotate(0) translate(21.6 542.9801)">
<title>G</title>
<polygon fill="#fafafa" stroke="transparent" points="-21.6,21.6 -21.6,-542.9801 640.4488,-542.9801 640.4488,21.6 -21.6,21.6"/>
<text text-anchor="start" x="36.506" y="-495.7801" font-family="Times,serif" font-size="24.00" fill="#000000">Formes d&#39;injustice et principes de justice d&#39;après Rawls</text>
<!-- a1 -->
<g id="node1" class="node">
<title>a1</title>
<ellipse fill="#050505" stroke="#000000" cx="296.3168" cy="-419.5763" rx="65.0817" ry="36.4089"/>
<text text-anchor="middle" x="296.3168" y="-424.9763" font-family="Times,serif" font-size="18.00" fill="#ffffff">Formes</text>
<text text-anchor="middle" x="296.3168" y="-403.3763" font-family="Times,serif" font-size="18.00" fill="#ffffff">d&#39;injustice</text>
</g>
<!-- b1 -->
<g id="node2" class="node">
<title>b1</title>
<ellipse fill="#8b0000" stroke="#000000" cx="71.3168" cy="-301.9862" rx="65.9473" ry="46.2727"/>
<text text-anchor="middle" x="71.3168" y="-316.3862" font-family="Times,serif" font-size="16.00" fill="#ffffff">La tyrannie,</text>
<text text-anchor="middle" x="71.3168" y="-297.1862" font-family="Times,serif" font-size="16.00" fill="#ffffff">l&#39;inégalité</text>
<text text-anchor="middle" x="71.3168" y="-277.9862" font-family="Times,serif" font-size="16.00" fill="#ffffff">des droits</text>
</g>
<!-- a1&#45;&gt;b1 -->
<g id="edge1" class="edge">
<title>a1&#45;&gt;b1:n</title>
<path fill="none" stroke="#000000" d="M232.4427,-411.9718C172.6787,-403.2127 90.2439,-386.3056 74.1158,-358.2998"/>
<polygon fill="#000000" stroke="#000000" points="77.3992,-357.0473 71.3168,-348.3724 70.6619,-358.947 77.3992,-357.0473"/>
</g>
<!-- b2 -->
<g id="node3" class="node">
<title>b2</title>
<ellipse fill="#8b0000" stroke="#000000" cx="296.3168" cy="-301.9862" rx="75.2825" ry="46.2727"/>
<text text-anchor="middle" x="296.3168" y="-316.3862" font-family="Times,serif" font-size="16.00" fill="#ffffff">Les inégalités</text>
<text text-anchor="middle" x="296.3168" y="-297.1862" font-family="Times,serif" font-size="16.00" fill="#ffffff">sociales</text>
<text text-anchor="middle" x="296.3168" y="-277.9862" font-family="Times,serif" font-size="16.00" fill="#ffffff">de départ</text>
</g>
<!-- a1&#45;&gt;b2 -->
<g id="edge2" class="edge">
<title>a1&#45;&gt;b2:n</title>
<path fill="none" stroke="#000000" d="M296.3168,-383.1566C296.3168,-375.1415 296.3168,-366.526 296.3168,-358.1061"/>
<polygon fill="#000000" stroke="#000000" points="299.8169,-357.9862 296.3168,-347.9862 292.8169,-357.9862 299.8169,-357.9862"/>
</g>
<!-- b3 -->
<g id="node4" class="node">
<title>b3</title>
<ellipse fill="#8b0000" stroke="#000000" cx="530.3168" cy="-301.9862" rx="75.2825" ry="46.2727"/>
<text text-anchor="middle" x="530.3168" y="-316.3862" font-family="Times,serif" font-size="16.00" fill="#ffffff"></text>
<text text-anchor="middle" x="530.3168" y="-297.1862" font-family="Times,serif" font-size="16.00" fill="#ffffff"></text>
<text text-anchor="middle" x="530.3168" y="-277.9862" font-family="Times,serif" font-size="16.00" fill="#ffffff"></text>
</g>
<!-- a1&#45;&gt;b3 -->
<g id="edge3" class="edge">
<title>a1&#45;&gt;b3:n</title>
<path fill="none" stroke="#000000" d="M360.2583,-412.6645C422.7755,-404.2613 510.9344,-387.4173 527.5568,-357.9885"/>
<polygon fill="#000000" stroke="#000000" points="531.0307,-358.557 530.3168,-347.9862 524.2828,-356.6949 531.0307,-358.557"/>
</g>
<!-- b1&#45;&gt;b2 -->
<!-- c1 -->
<g id="node5" class="node">
<title>c1</title>
<polygon fill="#ffffff" stroke="#7f7f7f" points="142.4509,-211.2017 .1827,-211.2017 .1827,-164.3983 142.4509,-164.3983 142.4509,-211.2017"/>
<text text-anchor="middle" x="71.3168" y="-192.6" font-family="Times,serif" font-size="16.00" fill="#000000">Principe de justice :</text>
<text text-anchor="middle" x="71.3168" y="-173.4" font-family="Times,serif" font-size="16.00" fill="#000000">l&#39;égalité des droits</text>
</g>
<!-- b1&#45;&gt;c1 -->
<g id="edge6" class="edge">
<title>b1&#45;&gt;c1</title>
<path fill="none" stroke="#000000" d="M71.3168,-255.5423C71.3168,-244.0579 71.3168,-231.9774 71.3168,-221.2496"/>
<polygon fill="#000000" stroke="#000000" points="74.8169,-221.0449 71.3168,-211.0449 67.8169,-221.0449 74.8169,-221.0449"/>
</g>
<!-- b2&#45;&gt;b3 -->
<!-- c2 -->
<g id="node6" class="node">
<title>c2</title>
<polygon fill="#ffffff" stroke="#7f7f7f" points="371.3982,-211.2017 221.2354,-211.2017 221.2354,-164.3983 371.3982,-164.3983 371.3982,-211.2017"/>
<text text-anchor="middle" x="296.3168" y="-192.6" font-family="Times,serif" font-size="16.00" fill="#000000">Principe de justice :</text>
<text text-anchor="middle" x="296.3168" y="-173.4" font-family="Times,serif" font-size="16.00" fill="#000000">l&#39;égalité des chances</text>
</g>
<!-- b2&#45;&gt;c2 -->
<g id="edge7" class="edge">
<title>b2&#45;&gt;c2</title>
<path fill="none" stroke="#000000" d="M296.3168,-255.5423C296.3168,-244.0579 296.3168,-231.9774 296.3168,-221.2496"/>
<polygon fill="#000000" stroke="#000000" points="299.8169,-221.0449 296.3168,-211.0449 292.8169,-221.0449 299.8169,-221.0449"/>
</g>
<!-- c3 -->
<g id="node7" class="node">
<title>c3</title>
<polygon fill="#ffffff" stroke="#7f7f7f" points="605.5057,-220.4012 455.1279,-220.4012 455.1279,-155.1988 605.5057,-155.1988 605.5057,-220.4012"/>
<text text-anchor="middle" x="530.3168" y="-202.2" font-family="Times,serif" font-size="16.00" fill="#000000"></text>
<text text-anchor="middle" x="530.3168" y="-183" font-family="Times,serif" font-size="16.00" fill="#000000"></text>
<text text-anchor="middle" x="530.3168" y="-163.8" font-family="Times,serif" font-size="16.00" fill="#000000"></text>
</g>
<!-- b3&#45;&gt;c3 -->
<g id="edge8" class="edge">
<title>b3&#45;&gt;c3</title>
<path fill="none" stroke="#000000" d="M530.3168,-255.5423C530.3168,-247.2937 530.3168,-238.7375 530.3168,-230.596"/>
<polygon fill="#000000" stroke="#000000" points="533.8169,-230.5594 530.3168,-220.5594 526.8169,-230.5595 533.8169,-230.5594"/>
</g>
<!-- c1&#45;&gt;c2 -->
<!-- e1 -->
<g id="node10" class="node">
<title>e1</title>
<path fill="#fafafa" stroke="transparent" d="M92.1392,-110.6017C92.1392,-110.6017 50.4944,-110.6017 50.4944,-110.6017 44.4944,-110.6017 38.4944,-104.6017 38.4944,-98.6017 38.4944,-98.6017 38.4944,-75.7983 38.4944,-75.7983 38.4944,-69.7983 44.4944,-63.7983 50.4944,-63.7983 50.4944,-63.7983 92.1392,-63.7983 92.1392,-63.7983 98.1392,-63.7983 104.1392,-69.7983 104.1392,-75.7983 104.1392,-75.7983 104.1392,-98.6017 104.1392,-98.6017 104.1392,-104.6017 98.1392,-110.6017 92.1392,-110.6017"/>
<text text-anchor="middle" x="71.3168" y="-92" font-family="Times,serif" font-size="16.00" fill="#cd2626">L&#39;État</text>
<text text-anchor="middle" x="71.3168" y="-72.8" font-family="Times,serif" font-size="16.00" fill="#cd2626">de droit</text>
</g>
<!-- c1&#45;&gt;e1 -->
<!-- c2&#45;&gt;c3 -->
<!-- d1 -->
<g id="node8" class="node">
<title>d1</title>
<path fill="#ffffff" stroke="#7f7f7f" d="M242.8396,-119.8012C242.8396,-119.8012 171.794,-119.8012 171.794,-119.8012 165.794,-119.8012 159.794,-113.8012 159.794,-107.8012 159.794,-107.8012 159.794,-66.5988 159.794,-66.5988 159.794,-60.5988 165.794,-54.5988 171.794,-54.5988 171.794,-54.5988 242.8396,-54.5988 242.8396,-54.5988 248.8396,-54.5988 254.8396,-60.5988 254.8396,-66.5988 254.8396,-66.5988 254.8396,-107.8012 254.8396,-107.8012 254.8396,-113.8012 248.8396,-119.8012 242.8396,-119.8012"/>
<text text-anchor="middle" x="207.3168" y="-101.6" font-family="Times,serif" font-size="16.00" fill="#000000">L&#39;égalité</text>
<text text-anchor="middle" x="207.3168" y="-82.4" font-family="Times,serif" font-size="16.00" fill="#000000">formelle des</text>
<text text-anchor="middle" x="207.3168" y="-63.2" font-family="Times,serif" font-size="16.00" fill="#000000">chances</text>
</g>
<!-- c2&#45;&gt;d1 -->
<g id="edge11" class="edge">
<title>c2&#45;&gt;d1</title>
<path fill="none" stroke="#000000" d="M275.6747,-164.4675C265.9791,-153.5081 254.1381,-140.1239 243.0527,-127.5936"/>
<polygon fill="#000000" stroke="#000000" points="245.5215,-125.102 236.274,-119.9315 240.2787,-129.7403 245.5215,-125.102"/>
</g>
<!-- d2 -->
<g id="node9" class="node">
<title>d2</title>
<path fill="#ffffff" stroke="#7f7f7f" d="M376.2704,-119.8012C376.2704,-119.8012 322.3632,-119.8012 322.3632,-119.8012 316.3632,-119.8012 310.3632,-113.8012 310.3632,-107.8012 310.3632,-107.8012 310.3632,-66.5988 310.3632,-66.5988 310.3632,-60.5988 316.3632,-54.5988 322.3632,-54.5988 322.3632,-54.5988 376.2704,-54.5988 376.2704,-54.5988 382.2704,-54.5988 388.2704,-60.5988 388.2704,-66.5988 388.2704,-66.5988 388.2704,-107.8012 388.2704,-107.8012 388.2704,-113.8012 382.2704,-119.8012 376.2704,-119.8012"/>
<text text-anchor="middle" x="349.3168" y="-101.6" font-family="Times,serif" font-size="16.00" fill="#000000"></text>
<text text-anchor="middle" x="349.3168" y="-82.4" font-family="Times,serif" font-size="16.00" fill="#000000"></text>
<text text-anchor="middle" x="349.3168" y="-63.2" font-family="Times,serif" font-size="16.00" fill="#000000"></text>
</g>
<!-- c2&#45;&gt;d2 -->
<g id="edge12" class="edge">
<title>c2&#45;&gt;d2</title>
<path fill="none" stroke="#000000" d="M308.6093,-164.4675C314.1652,-153.9217 320.9041,-141.1306 327.2867,-129.0156"/>
<polygon fill="#000000" stroke="#000000" points="330.508,-130.4101 332.0726,-119.9315 324.3149,-127.1473 330.508,-130.4101"/>
</g>
<!-- e4 -->
<g id="node13" class="node">
<title>e4</title>
<path fill="#fafafa" stroke="transparent" d="M606.8808,-119.8012C606.8808,-119.8012 455.7528,-119.8012 455.7528,-119.8012 449.7528,-119.8012 443.7528,-113.8012 443.7528,-107.8012 443.7528,-107.8012 443.7528,-66.5988 443.7528,-66.5988 443.7528,-60.5988 449.7528,-54.5988 455.7528,-54.5988 455.7528,-54.5988 606.8808,-54.5988 606.8808,-54.5988 612.8808,-54.5988 618.8808,-60.5988 618.8808,-66.5988 618.8808,-66.5988 618.8808,-107.8012 618.8808,-107.8012 618.8808,-113.8012 612.8808,-119.8012 606.8808,-119.8012"/>
<text text-anchor="middle" x="531.3168" y="-101.6" font-family="Times,serif" font-size="16.00" fill="#cd2626"></text>
<text text-anchor="middle" x="531.3168" y="-82.4" font-family="Times,serif" font-size="16.00" fill="#cd2626"></text>
<text text-anchor="middle" x="531.3168" y="-63.2" font-family="Times,serif" font-size="16.00" fill="#cd2626"></text>
</g>
<!-- c3&#45;&gt;e4 -->
<!-- d1&#45;&gt;d2 -->
<!-- e2 -->
<g id="node11" class="node">
<title>e2</title>
<path fill="#fafafa" stroke="transparent" d="M253.0907,-41.2C253.0907,-41.2 161.5429,-41.2 161.5429,-41.2 155.5429,-41.2 149.5429,-35.2 149.5429,-29.2 149.5429,-29.2 149.5429,-17.2 149.5429,-17.2 149.5429,-11.2 155.5429,-5.2 161.5429,-5.2 161.5429,-5.2 253.0907,-5.2 253.0907,-5.2 259.0907,-5.2 265.0907,-11.2 265.0907,-17.2 265.0907,-17.2 265.0907,-29.2 265.0907,-29.2 265.0907,-35.2 259.0907,-41.2 253.0907,-41.2"/>
<text text-anchor="middle" x="207.3168" y="-18.4" font-family="Times,serif" font-size="16.00" fill="#cd2626">La méritocratie</text>
</g>
<!-- d1&#45;&gt;e2 -->
<!-- e3 -->
<g id="node12" class="node">
<title>e3</title>
<path fill="#fafafa" stroke="transparent" d="M395.0907,-46.6017C395.0907,-46.6017 303.5429,-46.6017 303.5429,-46.6017 297.5429,-46.6017 291.5429,-40.6017 291.5429,-34.6017 291.5429,-34.6017 291.5429,-11.7983 291.5429,-11.7983 291.5429,-5.7983 297.5429,.2017 303.5429,.2017 303.5429,.2017 395.0907,.2017 395.0907,.2017 401.0907,.2017 407.0907,-5.7983 407.0907,-11.7983 407.0907,-11.7983 407.0907,-34.6017 407.0907,-34.6017 407.0907,-40.6017 401.0907,-46.6017 395.0907,-46.6017"/>
<text text-anchor="middle" x="349.3168" y="-28" font-family="Times,serif" font-size="16.00" fill="#cd2626"></text>
<text text-anchor="middle" x="349.3168" y="-8.8" font-family="Times,serif" font-size="16.00" fill="#cd2626"></text>
</g>
<!-- d2&#45;&gt;e3 -->
<!-- d2&#45;&gt;e4 -->
<!-- e1&#45;&gt;d1 -->
</g>
</svg>
