<?xml version="1.0" encoding="UTF-8" standalone="no"?>
<!DOCTYPE svg PUBLIC "-//W3C//DTD SVG 1.1//EN"
 "http://www.w3.org/Graphics/SVG/1.1/DTD/svg11.dtd">
<!-- Generated by graphviz version 2.40.1 (20161225.0304)
 -->
<!-- Title: G Pages: 1 -->
<svg width="629pt" height="499pt"
 viewBox="0.00 0.00 628.72 498.98" xmlns="http://www.w3.org/2000/svg" xmlns:xlink="http://www.w3.org/1999/xlink">
<g id="graph0" class="graph" transform="scale(1 1) rotate(0) translate(21.6 477.3801)">
<title>G</title>
<polygon fill="#fafafa" stroke="transparent" points="-21.6,21.6 -21.6,-477.3801 607.1208,-477.3801 607.1208,21.6 -21.6,21.6"/>
<!-- a1 -->
<g id="node1" class="node">
<title>a1</title>
<ellipse fill="#050505" stroke="#000000" cx="278.9888" cy="-419.5763" rx="65.0817" ry="36.4089"/>
<text text-anchor="middle" x="278.9888" y="-424.9763" font-family="Times,serif" font-size="18.00" fill="#ffffff">Formes</text>
<text text-anchor="middle" x="278.9888" y="-403.3763" font-family="Times,serif" font-size="18.00" fill="#ffffff">d&#39;injustice</text>
</g>
<!-- b1 -->
<g id="node2" class="node">
<title>b1</title>
<ellipse fill="#8b0000" stroke="#000000" cx="81.9888" cy="-301.9862" rx="65.9473" ry="46.2727"/>
<text text-anchor="middle" x="81.9888" y="-316.3862" font-family="Times,serif" font-size="16.00" fill="#ffffff">La tyrannie,</text>
<text text-anchor="middle" x="81.9888" y="-297.1862" font-family="Times,serif" font-size="16.00" fill="#ffffff">l&#39;inégalité</text>
<text text-anchor="middle" x="81.9888" y="-277.9862" font-family="Times,serif" font-size="16.00" fill="#ffffff">des droits</text>
</g>
<!-- a1&#45;&gt;b1 -->
<g id="edge1" class="edge">
<title>a1&#45;&gt;b1:n</title>
<path fill="none" stroke="#000000" d="M216.3861,-409.2676C165.4615,-399.2695 99.7071,-382.104 84.9952,-358.2323"/>
<polygon fill="#000000" stroke="#000000" points="88.2533,-356.9168 81.9888,-348.3724 81.5576,-358.9585 88.2533,-356.9168"/>
</g>
<!-- b2 -->
<g id="node3" class="node">
<title>b2</title>
<ellipse fill="#8b0000" stroke="#000000" cx="278.9888" cy="-301.9862" rx="75.2825" ry="46.2727"/>
<text text-anchor="middle" x="278.9888" y="-316.3862" font-family="Times,serif" font-size="16.00" fill="#ffffff">Les inégalités</text>
<text text-anchor="middle" x="278.9888" y="-297.1862" font-family="Times,serif" font-size="16.00" fill="#ffffff">sociales</text>
<text text-anchor="middle" x="278.9888" y="-277.9862" font-family="Times,serif" font-size="16.00" fill="#ffffff">de départ</text>
</g>
<!-- a1&#45;&gt;b2 -->
<g id="edge2" class="edge">
<title>a1&#45;&gt;b2:n</title>
<path fill="none" stroke="#000000" d="M278.9888,-383.1566C278.9888,-375.1415 278.9888,-366.526 278.9888,-358.1061"/>
<polygon fill="#000000" stroke="#000000" points="282.4889,-357.9862 278.9888,-347.9862 275.4889,-357.9862 282.4889,-357.9862"/>
</g>
<!-- b3 -->
<g id="node4" class="node">
<title>b3</title>
<ellipse fill="#8b0000" stroke="#000000" cx="484.9888" cy="-301.9862" rx="75.2825" ry="46.2727"/>
<text text-anchor="middle" x="484.9888" y="-316.3862" font-family="Times,serif" font-size="16.00" fill="#ffffff">Les inégalités</text>
<text text-anchor="middle" x="484.9888" y="-297.1862" font-family="Times,serif" font-size="16.00" fill="#ffffff">injustifiées</text>
<text text-anchor="middle" x="484.9888" y="-277.9862" font-family="Times,serif" font-size="16.00" fill="#ffffff">à l&#39;arrivée</text>
</g>
<!-- a1&#45;&gt;b3 -->
<g id="edge3" class="edge">
<title>a1&#45;&gt;b3:n</title>
<path fill="none" stroke="#000000" d="M341.9149,-410.1126C395.8697,-400.3727 467.2056,-383.029 482.1648,-357.6858"/>
<polygon fill="#000000" stroke="#000000" points="485.5539,-358.566 484.9888,-347.9862 478.8329,-356.6092 485.5539,-358.566"/>
</g>
<!-- b1&#45;&gt;b2 -->
<!-- c1 -->
<g id="node5" class="node">
<title>c1</title>
<polygon fill="#ffffff" stroke="#7f7f7f" points="147.9664,-211.2017 .0112,-211.2017 .0112,-164.3983 147.9664,-164.3983 147.9664,-211.2017"/>
<text text-anchor="middle" x="73.9888" y="-192.6" font-family="Times,serif" font-size="16.00" fill="#000000">La justice implique :</text>
<text text-anchor="middle" x="73.9888" y="-173.4" font-family="Times,serif" font-size="16.00" fill="#000000">l&#39;égalité des droits</text>
</g>
<!-- b1&#45;&gt;c1 -->
<g id="edge6" class="edge">
<title>b1&#45;&gt;c1</title>
<path fill="none" stroke="#000000" d="M78.7349,-255.5423C77.9303,-244.0579 77.0839,-231.9774 76.3323,-221.2496"/>
<polygon fill="#000000" stroke="#000000" points="79.8078,-220.7758 75.6174,-211.0449 72.8249,-221.2651 79.8078,-220.7758"/>
</g>
<!-- b2&#45;&gt;b3 -->
<!-- c2 -->
<g id="node6" class="node">
<title>c2</title>
<polygon fill="#ffffff" stroke="#7f7f7f" points="354.0702,-211.2017 203.9074,-211.2017 203.9074,-164.3983 354.0702,-164.3983 354.0702,-211.2017"/>
<text text-anchor="middle" x="278.9888" y="-192.6" font-family="Times,serif" font-size="16.00" fill="#000000">La justice implique :</text>
<text text-anchor="middle" x="278.9888" y="-173.4" font-family="Times,serif" font-size="16.00" fill="#000000">l&#39;égalité des chances</text>
</g>
<!-- b2&#45;&gt;c2 -->
<g id="edge7" class="edge">
<title>b2&#45;&gt;c2</title>
<path fill="none" stroke="#000000" d="M278.9888,-255.5423C278.9888,-244.0579 278.9888,-231.9774 278.9888,-221.2496"/>
<polygon fill="#000000" stroke="#000000" points="282.4889,-221.0449 278.9888,-211.0449 275.4889,-221.0449 282.4889,-221.0449"/>
</g>
<!-- c3 -->
<g id="node7" class="node">
<title>c3</title>
<polygon fill="#ffffff" stroke="#7f7f7f" points="560.1777,-220.4012 409.7999,-220.4012 409.7999,-155.1988 560.1777,-155.1988 560.1777,-220.4012"/>
<text text-anchor="middle" x="484.9888" y="-202.2" font-family="Times,serif" font-size="16.00" fill="#000000">La justice implique :</text>
<text text-anchor="middle" x="484.9888" y="-183" font-family="Times,serif" font-size="16.00" fill="#000000">l&#39;égalisation au</text>
<text text-anchor="middle" x="484.9888" y="-163.8" font-family="Times,serif" font-size="16.00" fill="#000000">maximum des places</text>
</g>
<!-- b3&#45;&gt;c3 -->
<g id="edge8" class="edge">
<title>b3&#45;&gt;c3</title>
<path fill="none" stroke="#000000" d="M484.9888,-255.5423C484.9888,-247.2937 484.9888,-238.7375 484.9888,-230.596"/>
<polygon fill="#000000" stroke="#000000" points="488.4889,-230.5594 484.9888,-220.5594 481.4889,-230.5595 488.4889,-230.5594"/>
</g>
<!-- c1&#45;&gt;c2 -->
<!-- e1 -->
<g id="node10" class="node">
<title>e1</title>
<path fill="#fafafa" stroke="transparent" d="M58.8112,-110.6017C58.8112,-110.6017 17.1664,-110.6017 17.1664,-110.6017 11.1664,-110.6017 5.1664,-104.6017 5.1664,-98.6017 5.1664,-98.6017 5.1664,-75.7983 5.1664,-75.7983 5.1664,-69.7983 11.1664,-63.7983 17.1664,-63.7983 17.1664,-63.7983 58.8112,-63.7983 58.8112,-63.7983 64.8112,-63.7983 70.8112,-69.7983 70.8112,-75.7983 70.8112,-75.7983 70.8112,-98.6017 70.8112,-98.6017 70.8112,-104.6017 64.8112,-110.6017 58.8112,-110.6017"/>
<text text-anchor="middle" x="37.9888" y="-92" font-family="Times,serif" font-size="16.00" fill="#cd2626">L&#39;Etat</text>
<text text-anchor="middle" x="37.9888" y="-72.8" font-family="Times,serif" font-size="16.00" fill="#cd2626">de droit</text>
</g>
<!-- c1&#45;&gt;e1 -->
<!-- c2&#45;&gt;c3 -->
<!-- d1 -->
<g id="node8" class="node">
<title>d1</title>
<path fill="#ffffff" stroke="#7f7f7f" d="M209.5116,-119.8012C209.5116,-119.8012 138.466,-119.8012 138.466,-119.8012 132.466,-119.8012 126.466,-113.8012 126.466,-107.8012 126.466,-107.8012 126.466,-66.5988 126.466,-66.5988 126.466,-60.5988 132.466,-54.5988 138.466,-54.5988 138.466,-54.5988 209.5116,-54.5988 209.5116,-54.5988 215.5116,-54.5988 221.5116,-60.5988 221.5116,-66.5988 221.5116,-66.5988 221.5116,-107.8012 221.5116,-107.8012 221.5116,-113.8012 215.5116,-119.8012 209.5116,-119.8012"/>
<text text-anchor="middle" x="173.9888" y="-101.6" font-family="Times,serif" font-size="16.00" fill="#000000">L&#39;égalité</text>
<text text-anchor="middle" x="173.9888" y="-82.4" font-family="Times,serif" font-size="16.00" fill="#000000">formelle des</text>
<text text-anchor="middle" x="173.9888" y="-63.2" font-family="Times,serif" font-size="16.00" fill="#000000">chances</text>
</g>
<!-- c2&#45;&gt;d1 -->
<g id="edge11" class="edge">
<title>c2&#45;&gt;d1</title>
<path fill="none" stroke="#000000" d="M254.6358,-164.4675C242.9813,-153.3014 228.6994,-139.618 215.4099,-126.8853"/>
<polygon fill="#000000" stroke="#000000" points="217.794,-124.3224 208.1518,-119.9315 212.9512,-129.3769 217.794,-124.3224"/>
</g>
<!-- d2 -->
<g id="node9" class="node">
<title>d2</title>
<path fill="#ffffff" stroke="#7f7f7f" d="M342.9424,-119.8012C342.9424,-119.8012 289.0352,-119.8012 289.0352,-119.8012 283.0352,-119.8012 277.0352,-113.8012 277.0352,-107.8012 277.0352,-107.8012 277.0352,-66.5988 277.0352,-66.5988 277.0352,-60.5988 283.0352,-54.5988 289.0352,-54.5988 289.0352,-54.5988 342.9424,-54.5988 342.9424,-54.5988 348.9424,-54.5988 354.9424,-60.5988 354.9424,-66.5988 354.9424,-66.5988 354.9424,-107.8012 354.9424,-107.8012 354.9424,-113.8012 348.9424,-119.8012 342.9424,-119.8012"/>
<text text-anchor="middle" x="315.9888" y="-101.6" font-family="Times,serif" font-size="16.00" fill="#000000">L&#39;égalité</text>
<text text-anchor="middle" x="315.9888" y="-82.4" font-family="Times,serif" font-size="16.00" fill="#000000">réelle des</text>
<text text-anchor="middle" x="315.9888" y="-63.2" font-family="Times,serif" font-size="16.00" fill="#000000">chances</text>
</g>
<!-- c2&#45;&gt;d2 -->
<g id="edge12" class="edge">
<title>c2&#45;&gt;d2</title>
<path fill="none" stroke="#000000" d="M287.5703,-164.4675C291.411,-154.0251 296.0613,-141.3812 300.4782,-129.3721"/>
<polygon fill="#000000" stroke="#000000" points="303.7833,-130.525 303.9504,-119.9315 297.2136,-128.1086 303.7833,-130.525"/>
</g>
<!-- e4 -->
<g id="node13" class="node">
<title>e4</title>
<path fill="#fafafa" stroke="transparent" d="M573.5528,-119.8012C573.5528,-119.8012 422.4248,-119.8012 422.4248,-119.8012 416.4248,-119.8012 410.4248,-113.8012 410.4248,-107.8012 410.4248,-107.8012 410.4248,-66.5988 410.4248,-66.5988 410.4248,-60.5988 416.4248,-54.5988 422.4248,-54.5988 422.4248,-54.5988 573.5528,-54.5988 573.5528,-54.5988 579.5528,-54.5988 585.5528,-60.5988 585.5528,-66.5988 585.5528,-66.5988 585.5528,-107.8012 585.5528,-107.8012 585.5528,-113.8012 579.5528,-119.8012 573.5528,-119.8012"/>
<text text-anchor="middle" x="497.9888" y="-101.6" font-family="Times,serif" font-size="16.00" fill="#cd2626">Le progrès social au </text>
<text text-anchor="middle" x="497.9888" y="-82.4" font-family="Times,serif" font-size="16.00" fill="#cd2626">service de tous et surtout</text>
<text text-anchor="middle" x="497.9888" y="-63.2" font-family="Times,serif" font-size="16.00" fill="#cd2626">des plus défavorisés</text>
</g>
<!-- c3&#45;&gt;e4 -->
<!-- d1&#45;&gt;d2 -->
<!-- e2 -->
<g id="node11" class="node">
<title>e2</title>
<path fill="#fafafa" stroke="transparent" d="M219.7627,-41.2C219.7627,-41.2 128.2149,-41.2 128.2149,-41.2 122.2149,-41.2 116.2149,-35.2 116.2149,-29.2 116.2149,-29.2 116.2149,-17.2 116.2149,-17.2 116.2149,-11.2 122.2149,-5.2 128.2149,-5.2 128.2149,-5.2 219.7627,-5.2 219.7627,-5.2 225.7627,-5.2 231.7627,-11.2 231.7627,-17.2 231.7627,-17.2 231.7627,-29.2 231.7627,-29.2 231.7627,-35.2 225.7627,-41.2 219.7627,-41.2"/>
<text text-anchor="middle" x="173.9888" y="-18.4" font-family="Times,serif" font-size="16.00" fill="#cd2626">La méritocratie</text>
</g>
<!-- d1&#45;&gt;e2 -->
<!-- e3 -->
<g id="node12" class="node">
<title>e3</title>
<path fill="#fafafa" stroke="transparent" d="M361.7627,-46.6017C361.7627,-46.6017 270.2149,-46.6017 270.2149,-46.6017 264.2149,-46.6017 258.2149,-40.6017 258.2149,-34.6017 258.2149,-34.6017 258.2149,-11.7983 258.2149,-11.7983 258.2149,-5.7983 264.2149,.2017 270.2149,.2017 270.2149,.2017 361.7627,.2017 361.7627,.2017 367.7627,.2017 373.7627,-5.7983 373.7627,-11.7983 373.7627,-11.7983 373.7627,-34.6017 373.7627,-34.6017 373.7627,-40.6017 367.7627,-46.6017 361.7627,-46.6017"/>
<text text-anchor="middle" x="315.9888" y="-28" font-family="Times,serif" font-size="16.00" fill="#cd2626">La méritocratie</text>
<text text-anchor="middle" x="315.9888" y="-8.8" font-family="Times,serif" font-size="16.00" fill="#cd2626">équitable</text>
</g>
<!-- d2&#45;&gt;e3 -->
<!-- d2&#45;&gt;e4 -->
<!-- e1&#45;&gt;d1 -->
</g>
</svg>
