<?xml version="1.0" encoding="UTF-8" standalone="no"?>
<!DOCTYPE svg PUBLIC "-//W3C//DTD SVG 1.1//EN"
 "http://www.w3.org/Graphics/SVG/1.1/DTD/svg11.dtd">
<!-- Generated by graphviz version 2.40.1 (20161225.0304)
 -->
<!-- Title: G Pages: 1 -->
<svg width="536pt" height="269pt"
 viewBox="0.00 0.00 536.02 268.82" xmlns="http://www.w3.org/2000/svg" xmlns:xlink="http://www.w3.org/1999/xlink">
<g id="graph0" class="graph" transform="scale(1 1) rotate(0) translate(21.6 247.2195)">
<title>G</title>
<polygon fill="#fafafa" stroke="transparent" points="-21.6,21.6 -21.6,-247.2195 514.4211,-247.2195 514.4211,21.6 -21.6,21.6"/>
<!-- a1 -->
<g id="node1" class="node">
<title>a1</title>
<ellipse fill="#000000" stroke="#000000" cx="69.4281" cy="-112.8098" rx="69.3563" ry="51.4548"/>
<text text-anchor="middle" x="69.4281" y="-129.0098" font-family="Times,serif" font-size="18.00" fill="#ffffff">Différentes</text>
<text text-anchor="middle" x="69.4281" y="-107.4098" font-family="Times,serif" font-size="18.00" fill="#ffffff">formes de </text>
<text text-anchor="middle" x="69.4281" y="-85.8098" font-family="Times,serif" font-size="18.00" fill="#ffffff">novlangue</text>
</g>
<!-- b1 -->
<g id="node2" class="node">
<title>b1</title>
<ellipse fill="#8b0000" stroke="#000000" cx="253.8227" cy="-192.8098" rx="68.3578" ry="32.6206"/>
<text text-anchor="middle" x="253.8227" y="-197.6098" font-family="Times,serif" font-size="16.00" fill="#ffffff">Discours</text>
<text text-anchor="middle" x="253.8227" y="-178.4098" font-family="Times,serif" font-size="16.00" fill="#ffffff">positif creux</text>
</g>
<!-- a1&#45;&gt;b1 -->
<g id="edge1" class="edge">
<title>a1&#45;&gt;b1</title>
<path fill="none" stroke="#000000" d="M129.5507,-138.8941C150.1481,-147.8303 173.1855,-157.8251 193.7769,-166.7588"/>
<polygon fill="#000000" stroke="#000000" points="192.4813,-170.0118 203.0481,-170.7811 195.2674,-163.5901 192.4813,-170.0118"/>
</g>
<!-- b2 -->
<g id="node3" class="node">
<title>b2</title>
<ellipse fill="#8b0000" stroke="#000000" cx="253.8227" cy="-112.8098" rx="79.9329" ry="32.6206"/>
<text text-anchor="middle" x="253.8227" y="-117.6098" font-family="Times,serif" font-size="16.00" fill="#ffffff">Euphémisation</text>
<text text-anchor="middle" x="253.8227" y="-98.4098" font-family="Times,serif" font-size="16.00" fill="#ffffff">du réel</text>
</g>
<!-- a1&#45;&gt;b2 -->
<g id="edge2" class="edge">
<title>a1&#45;&gt;b2</title>
<path fill="none" stroke="#000000" d="M138.877,-112.8098C146.9334,-112.8098 155.237,-112.8098 163.5201,-112.8098"/>
<polygon fill="#000000" stroke="#000000" points="163.5957,-116.3099 173.5956,-112.8098 163.5956,-109.3099 163.5957,-116.3099"/>
</g>
<!-- b3 -->
<g id="node4" class="node">
<title>b3</title>
<ellipse fill="#8b0000" stroke="#000000" cx="253.8227" cy="-32.8098" rx="47.3633" ry="32.6206"/>
<text text-anchor="middle" x="253.8227" y="-37.6098" font-family="Times,serif" font-size="16.00" fill="#ffffff">Effet de</text>
<text text-anchor="middle" x="253.8227" y="-18.4098" font-family="Times,serif" font-size="16.00" fill="#ffffff">cadrage</text>
</g>
<!-- a1&#45;&gt;b3 -->
<g id="edge3" class="edge">
<title>a1&#45;&gt;b3</title>
<path fill="none" stroke="#000000" d="M129.5507,-86.7255C153.7518,-76.2257 181.3213,-64.2646 204.334,-54.2805"/>
<polygon fill="#000000" stroke="#000000" points="205.7849,-57.4663 213.5657,-50.2753 202.9988,-51.0446 205.7849,-57.4663"/>
</g>
<!-- e1 -->
<g id="node5" class="node">
<title>e1</title>
<path fill="#fafafa" stroke="transparent" d="M474.0142,-210.8098C474.0142,-210.8098 360.596,-210.8098 360.596,-210.8098 354.596,-210.8098 348.596,-204.8098 348.596,-198.8098 348.596,-198.8098 348.596,-186.8098 348.596,-186.8098 348.596,-180.8098 354.596,-174.8098 360.596,-174.8098 360.596,-174.8098 474.0142,-174.8098 474.0142,-174.8098 480.0142,-174.8098 486.0142,-180.8098 486.0142,-186.8098 486.0142,-186.8098 486.0142,-198.8098 486.0142,-198.8098 486.0142,-204.8098 480.0142,-210.8098 474.0142,-210.8098"/>
<text text-anchor="middle" x="417.3051" y="-188.0098" font-family="Times,serif" font-size="16.00" fill="#cd2626">« Ne rien dire »</text>
</g>
<!-- b1&#45;&gt;e1 -->
<!-- e2 -->
<g id="node6" class="node">
<title>e2</title>
<path fill="#fafafa" stroke="transparent" d="M472.4636,-130.8098C472.4636,-130.8098 362.1466,-130.8098 362.1466,-130.8098 356.1466,-130.8098 350.1466,-124.8098 350.1466,-118.8098 350.1466,-118.8098 350.1466,-106.8098 350.1466,-106.8098 350.1466,-100.8098 356.1466,-94.8098 362.1466,-94.8098 362.1466,-94.8098 472.4636,-94.8098 472.4636,-94.8098 478.4636,-94.8098 484.4636,-100.8098 484.4636,-106.8098 484.4636,-106.8098 484.4636,-118.8098 484.4636,-118.8098 484.4636,-124.8098 478.4636,-130.8098 472.4636,-130.8098"/>
<text text-anchor="middle" x="417.3051" y="-108.0098" font-family="Times,serif" font-size="16.00" fill="#cd2626">« Ne pas dire »</text>
</g>
<!-- b2&#45;&gt;e2 -->
<!-- e3 -->
<g id="node7" class="node">
<title>e3</title>
<path fill="#fafafa" stroke="transparent" d="M480.8371,-56.2115C480.8371,-56.2115 353.7731,-56.2115 353.7731,-56.2115 347.7731,-56.2115 341.7731,-50.2115 341.7731,-44.2115 341.7731,-44.2115 341.7731,-21.408 341.7731,-21.408 341.7731,-15.408 347.7731,-9.408 353.7731,-9.408 353.7731,-9.408 480.8371,-9.408 480.8371,-9.408 486.8371,-9.408 492.8371,-15.408 492.8371,-21.408 492.8371,-21.408 492.8371,-44.2115 492.8371,-44.2115 492.8371,-50.2115 486.8371,-56.2115 480.8371,-56.2115"/>
<text text-anchor="middle" x="417.3051" y="-37.6098" font-family="Times,serif" font-size="16.00" fill="#cd2626">« Dire d&#39;une</text>
<text text-anchor="middle" x="417.3051" y="-18.4098" font-family="Times,serif" font-size="16.00" fill="#cd2626">certaine manière »</text>
</g>
<!-- b3&#45;&gt;e3 -->
</g>
</svg>
