<?xml version="1.0" encoding="UTF-8" standalone="no"?>
<!DOCTYPE svg PUBLIC "-//W3C//DTD SVG 1.1//EN"
 "http://www.w3.org/Graphics/SVG/1.1/DTD/svg11.dtd">
<!-- Generated by graphviz version 2.40.1 (20161225.0304)
 -->
<!-- Title: G Pages: 1 -->
<svg width="502pt" height="213pt"
 viewBox="0.00 0.00 501.71 212.83" xmlns="http://www.w3.org/2000/svg" xmlns:xlink="http://www.w3.org/1999/xlink">
<g id="graph0" class="graph" transform="scale(1 1) rotate(0) translate(21.6 191.2331)">
<title>G</title>
<polygon fill="#fafafa" stroke="transparent" points="-21.6,21.6 -21.6,-191.2331 480.1071,-191.2331 480.1071,21.6 -21.6,21.6"/>
<!-- a1 -->
<g id="node1" class="node">
<title>a1</title>
<ellipse fill="#000000" stroke="#000000" cx="234.2629" cy="-148.7028" rx="75.2123" ry="20.861"/>
<text text-anchor="middle" x="234.2629" y="-143.3028" font-family="Times,serif" font-size="18.00" fill="#ffffff">Présentation</text>
</g>
<!-- b1 -->
<g id="node2" class="node">
<title>b1</title>
<ellipse fill="#8b0000" stroke="#000000" cx="72.2629" cy="-46.3862" rx="72.0266" ry="32.6206"/>
<text text-anchor="middle" x="72.2629" y="-51.1862" font-family="Times,serif" font-size="16.00" fill="#ffffff">Parcours</text>
<text text-anchor="middle" x="72.2629" y="-31.9862" font-family="Times,serif" font-size="16.00" fill="#ffffff">professionnel</text>
</g>
<!-- a1&#45;&gt;b1 -->
<g id="edge1" class="edge">
<title>a1&#45;&gt;b1:n</title>
<path fill="none" stroke="#000000" d="M176.2348,-135.312C136.2874,-124.5984 88.2137,-108.223 75.483,-89.025"/>
<polygon fill="#000000" stroke="#000000" points="78.7512,-87.7619 72.2629,-79.3862 72.1119,-89.98 78.7512,-87.7619"/>
</g>
<!-- b2 -->
<g id="node3" class="node">
<title>b2</title>
<ellipse fill="#8b0000" stroke="#000000" cx="234.2629" cy="-46.3862" rx="60.4526" ry="32.6206"/>
<text text-anchor="middle" x="234.2629" y="-51.1862" font-family="Times,serif" font-size="16.00" fill="#ffffff">Usages du</text>
<text text-anchor="middle" x="234.2629" y="-31.9862" font-family="Times,serif" font-size="16.00" fill="#ffffff">numérique</text>
</g>
<!-- a1&#45;&gt;b2 -->
<g id="edge2" class="edge">
<title>a1&#45;&gt;b2:n</title>
<path fill="none" stroke="#000000" d="M234.2629,-127.4666C234.2629,-116.5345 234.2629,-102.7339 234.2629,-89.4185"/>
<polygon fill="#000000" stroke="#000000" points="237.763,-89.3862 234.2629,-79.3862 230.763,-89.3862 237.763,-89.3862"/>
</g>
<!-- b3 -->
<g id="node4" class="node">
<title>b3</title>
<ellipse fill="#8b0000" stroke="#000000" cx="391.2629" cy="-46.3862" rx="67.4892" ry="46.2727"/>
<text text-anchor="middle" x="391.2629" y="-60.7862" font-family="Times,serif" font-size="16.00" fill="#ffffff">Ce que vous</text>
<text text-anchor="middle" x="391.2629" y="-41.5862" font-family="Times,serif" font-size="16.00" fill="#ffffff">aimeriez</text>
<text text-anchor="middle" x="391.2629" y="-22.3862" font-family="Times,serif" font-size="16.00" fill="#ffffff">savoir faire</text>
</g>
<!-- a1&#45;&gt;b3 -->
<g id="edge3" class="edge">
<title>a1&#45;&gt;b3:n</title>
<path fill="none" stroke="#000000" d="M298.5738,-137.8203C334.8181,-130.107 375.2368,-118.3178 387.5237,-102.5297"/>
<polygon fill="#000000" stroke="#000000" points="390.9526,-103.3627 391.2629,-92.7724 384.4161,-100.8577 390.9526,-103.3627"/>
</g>
</g>
</svg>
