<?xml version="1.0" encoding="UTF-8" standalone="no"?><!DOCTYPE svg PUBLIC "-//W3C//DTD SVG 1.1//EN" "http://www.w3.org/Graphics/SVG/1.1/DTD/svg11.dtd"><!-- Generated by graphviz version 2.40.1 (20161225.0304)
 --><!-- Title: G Pages: 1 --><svg xmlns="http://www.w3.org/2000/svg" xmlns:xlink="http://www.w3.org/1999/xlink" width="881pt" height="614pt" viewBox="0.00 0.00 880.93 613.80">
<g id="graph0" class="graph" transform="scale(1 1) rotate(0) translate(21.6 592.2)">
<title>G</title>
<polygon fill="#fafafa" stroke="transparent" points="-21.6,21.6 -21.6,-592.2 859.335,-592.2 859.335,21.6 -21.6,21.6"/>
<!-- a1 -->
<g id="node1" class="node">
<title>a1</title>
<ellipse fill="#000000" stroke="#000000" cx="77.7872" cy="-306.6" rx="77.575" ry="31.6406"/>
<text text-anchor="start" x="44.8979" y="-309.45" font-family="Times,serif" font-style="italic" font-size="18.50" fill="#ffffff">Fountain</text>
<text text-anchor="start" x="30.7834" y="-290.95" font-family="Times,serif" font-size="18.50" fill="#ffffff">de Duchamp</text>
</g>
<!-- b1 -->
<g id="node2" class="node">
<title>b1</title>
<ellipse fill="#8b0000" stroke="#000000" cx="291.3875" cy="-457.6" rx="97.5664" ry="46.2727"/>
<text text-anchor="middle" x="291.3875" y="-472" font-family="Times,serif" font-size="16.00" fill="#ffffff">Une œuvre qui</text>
<text text-anchor="middle" x="291.3875" y="-452.8" font-family="Times,serif" font-size="16.00" fill="#ffffff">incarne l'idée d'un</text>
<text text-anchor="middle" x="291.3875" y="-433.6" font-family="Times,serif" font-size="16.00" fill="#ffffff">renversement</text>
</g>
<!-- a1&#45;&gt;b1 -->
<g id="edge1" class="edge">
<title>a1-&gt;b1:w</title>
<path fill="none" stroke="#000000" d="M86.4708,-338.2545C99.9302,-379.9382 129.9885,-448.9087 183.1842,-456.8481"/>
<polygon fill="#000000" stroke="#000000" points="183.1573,-460.3555 193.3875,-457.6 183.6718,-453.3745 183.1573,-460.3555"/>
</g>
<!-- b2 -->
<g id="node3" class="node">
<title>b2</title>
<ellipse fill="#8b0000" stroke="#000000" cx="291.3875" cy="-155.6" rx="100.6265" ry="46.2727"/>
<text text-anchor="middle" x="291.3875" y="-170" font-family="Times,serif" font-size="16.00" fill="#ffffff">Une œuvre qui</text>
<text text-anchor="middle" x="291.3875" y="-150.8" font-family="Times,serif" font-size="16.00" fill="#ffffff">cherche à renverser</text>
<text text-anchor="middle" x="291.3875" y="-131.6" font-family="Times,serif" font-size="16.00" fill="#ffffff">l'art lui-même</text>
</g>
<!-- a1&#45;&gt;b2 -->
<g id="edge2" class="edge">
<title>a1-&gt;b2:w</title>
<path fill="none" stroke="#000000" d="M86.0199,-274.9455C98.8674,-233.2618 127.8436,-164.2913 180.4711,-156.3519"/>
<polygon fill="#000000" stroke="#000000" points="180.8618,-159.8326 190.5745,-155.6 180.3423,-152.8519 180.8618,-159.8326"/>
</g>
<!-- b1&#45;&gt;b2 -->
<!-- c1 -->
<g id="node4" class="node">
<title>c1</title>
<polygon fill="#ffffff" stroke="#000000" points="779.7726,-570.6 485.1629,-570.6 485.1629,-534.6 779.7726,-534.6 779.7726,-570.6"/>
<text text-anchor="middle" x="632.4678" y="-547.8" font-family="Times,serif" font-size="16.00" fill="#000000">… par sa disposition : l'urinoir est renversé</text>
</g>
<!-- b1&#45;&gt;c1 -->
<g id="edge3" class="edge">
<title>b1-&gt;c1:w</title>
<path fill="none" stroke="#000000" d="M341.2753,-497.6132C376.2774,-521.9027 425.5306,-548.8713 475.2006,-552.2469"/>
<polygon fill="#000000" stroke="#000000" points="475.3533,-555.7541 485.4678,-552.6 475.594,-548.7582 475.3533,-555.7541"/>
</g>
<!-- c2 -->
<g id="node5" class="node">
<title>c2</title>
<polygon fill="#ffffff" stroke="#000000" points="790.7886,-521.0017 474.1469,-521.0017 474.1469,-474.1983 790.7886,-474.1983 790.7886,-521.0017"/>
<text text-anchor="middle" x="632.4678" y="-502.4" font-family="Times,serif" font-size="16.00" fill="#000000">… par son titre : une fontaine, qui fait jaillir un</text>
<text text-anchor="middle" x="632.4678" y="-483.2" font-family="Times,serif" font-size="16.00" fill="#000000">liquide clair et pur, est l'inverse d'un urinoir </text>
</g>
<!-- b1&#45;&gt;c2 -->
<g id="edge4" class="edge">
<title>b1-&gt;c2:w</title>
<path fill="none" stroke="#000000" d="M373.0406,-483.2721C401.2363,-490.2706 433.4581,-496.259 464.1325,-497.4032"/>
<polygon fill="#000000" stroke="#000000" points="464.4029,-500.9089 474.4678,-497.6 464.5363,-493.9102 464.4029,-500.9089"/>
</g>
<!-- c3 -->
<g id="node6" class="node">
<title>c3</title>
<polygon fill="#ffffff" stroke="#000000" points="788.8222,-459.9002 476.1133,-459.9002 476.1133,-375.2998 788.8222,-375.2998 788.8222,-459.9002"/>
<text text-anchor="middle" x="632.4678" y="-441.6" font-family="Times,serif" font-size="16.00" fill="#000000">… par le simple fait d'exposer un tel objet et</text>
<text text-anchor="middle" x="632.4678" y="-422.4" font-family="Times,serif" font-size="16.00" fill="#000000">de le signer : cet acte renverse le statut de cet</text>
<text text-anchor="middle" x="632.4678" y="-403.2" font-family="Times,serif" font-size="16.00" fill="#000000">objet (il n'est plus un objet commun et utile, il</text>
<text text-anchor="middle" x="632.4678" y="-384" font-family="Times,serif" font-size="16.00" fill="#000000">devient une œuvre à contempler)</text>
</g>
<!-- b1&#45;&gt;c3 -->
<g id="edge5" class="edge">
<title>b1-&gt;c3:w</title>
<path fill="none" stroke="#000000" d="M373.0321,-432.1541C401.849,-425.0356 434.909,-418.9135 466.3309,-417.7856"/>
<polygon fill="#000000" stroke="#000000" points="466.5336,-421.2826 476.4678,-417.6 466.4053,-414.2838 466.5336,-421.2826"/>
</g>
<!-- c4 -->
<g id="node7" class="node">
<title>c4</title>
<polygon fill="#ffffff" stroke="#000000" points="791.4289,-360.9002 473.5066,-360.9002 473.5066,-276.2998 791.4289,-276.2998 791.4289,-360.9002"/>
<text text-anchor="middle" x="632.4678" y="-342.6" font-family="Times,serif" font-size="16.00" fill="#000000">… par des jeux de mots : le prénom de l'artiste</text>
<text text-anchor="middle" x="632.4678" y="-323.4" font-family="Times,serif" font-size="16.00" fill="#000000">“Richard” évoque la richesse, tandis que</text>
<text text-anchor="middle" x="632.4678" y="-304.2" font-family="Times,serif" font-size="16.00" fill="#000000">“R.Mutt” évoque Armut qui signifie</text>
<text text-anchor="middle" x="632.4678" y="-285" font-family="Times,serif" font-size="16.00" fill="#000000">la pauvreté en allemand</text>
</g>
<!-- b1&#45;&gt;c4 -->
<g id="edge6" class="edge">
<title>b1-&gt;c4:w</title>
<path fill="none" stroke="#000000" d="M322.4594,-413.2374C353.1868,-374.7827 404.0795,-324.4619 463.1382,-319.0731"/>
<polygon fill="#000000" stroke="#000000" points="463.6384,-322.554 473.4678,-318.6 463.3181,-315.5613 463.6384,-322.554"/>
</g>
<!-- c5 -->
<g id="node8" class="node">
<title>c5</title>
<polygon fill="#ffffff" stroke="#000000" points="837.5024,-260.3002 427.4331,-260.3002 427.4331,-136.8998 837.5024,-136.8998 837.5024,-260.3002"/>
<text text-anchor="middle" x="632.4678" y="-241.8" font-family="Times,serif" font-size="16.00" fill="#000000">… par les propriétés de l'urinoir lui-même, qui s'opposent à</text>
<text text-anchor="middle" x="632.4678" y="-222.6" font-family="Times,serif" font-size="16.00" fill="#000000">tout ce qu'on attend d'ordinaire d'une œuvre d'art :</text>
<text text-anchor="middle" x="632.4678" y="-203.4" font-family="Times,serif" font-size="16.00" fill="#000000">c'est un objet pauvre, sans qualités, sans expression, sans</text>
<text text-anchor="middle" x="632.4678" y="-184.2" font-family="Times,serif" font-size="16.00" fill="#000000">originalité, seulement fonctionnel, sans signification,</text>
<text text-anchor="middle" x="632.4678" y="-165" font-family="Times,serif" font-size="16.00" fill="#000000">qui ne suscite aucune émotion si ce n'est de dégoût,</text>
<text text-anchor="middle" x="632.4678" y="-145.8" font-family="Times,serif" font-size="16.00" fill="#000000">et n'est pas le fruit de la créativité d'un artiste génial</text>
</g>
<!-- b2&#45;&gt;c5 -->
<g id="edge7" class="edge">
<title>b2-&gt;c5:w</title>
<path fill="none" stroke="#000000" d="M364.5888,-187.638C381.309,-192.8853 399.3844,-197.0199 417.0951,-198.2354"/>
<polygon fill="#000000" stroke="#000000" points="417.351,-201.7464 427.4678,-198.6 417.5969,-194.7507 417.351,-201.7464"/>
</g>
<!-- c6 -->
<g id="node9" class="node">
<title>c6</title>
<polygon fill="#ffffff" stroke="#000000" points="828.7495,-123.3002 436.1861,-123.3002 436.1861,.1002 828.7495,.1002 828.7495,-123.3002"/>
<text text-anchor="middle" x="632.4678" y="-104.8" font-family="Times,serif" font-size="16.00" fill="#000000">… par des jeux de mots : “R.Mutt” peut évoquer</text>
<text text-anchor="middle" x="632.4678" y="-85.6" font-family="Times,serif" font-size="16.00" fill="#000000">“art mute” qui désigne le fait que l'art change et échappe</text>
<text text-anchor="middle" x="632.4678" y="-66.4" font-family="Times,serif" font-size="16.00" fill="#000000">aux tentatives de le définir ; “R.Mutt”, si on le renverse</text>
<text text-anchor="middle" x="632.4678" y="-47.2" font-family="Times,serif" font-size="16.00" fill="#000000">donne “Mutter”, qui signifie la mère en allemand, or la</text>
<text text-anchor="middle" x="632.4678" y="-28" font-family="Times,serif" font-size="16.00" fill="#000000">forme de l'urinoir peut évoquer un renversement de</text>
<text text-anchor="middle" x="632.4678" y="-8.8" font-family="Times,serif" font-size="16.00" fill="#000000">la représentation traditionnelle de la Vierge à l'Enfant</text>
</g>
<!-- b2&#45;&gt;c6 -->
<g id="edge8" class="edge">
<title>b2-&gt;c6:w</title>
<path fill="none" stroke="#000000" d="M330.5289,-112.7261C355.2178,-90.0651 389.3079,-66.1149 426.0423,-62.1658"/>
<polygon fill="#000000" stroke="#000000" points="426.6722,-65.6368 436.4678,-61.6 426.2928,-58.6471 426.6722,-65.6368"/>
</g>
</g>
</svg>