<?xml version="1.0" encoding="UTF-8" standalone="no"?><!DOCTYPE svg PUBLIC "-//W3C//DTD SVG 1.1//EN" "http://www.w3.org/Graphics/SVG/1.1/DTD/svg11.dtd"><!-- Generated by graphviz version 2.40.1 (20161225.0304)
 --><!-- Title: G Pages: 1 --><svg xmlns="http://www.w3.org/2000/svg" xmlns:xlink="http://www.w3.org/1999/xlink" width="624pt" height="555pt" viewBox="0.00 0.00 624.25 554.98">
<g id="graph0" class="graph" transform="scale(1 1) rotate(0) translate(21.6 533.3801)">
<title>G</title>
<polygon fill="#fafafa" stroke="transparent" points="-21.6,21.6 -21.6,-533.3801 602.6549,-533.3801 602.6549,21.6 -21.6,21.6"/>
<!-- a1 -->
<g id="node1" class="node">
<title>a1</title>
<ellipse fill="#000000" stroke="#000000" cx="291.616" cy="-489.1527" rx="39.6253" ry="22.7556"/>
<text text-anchor="middle" x="291.616" y="-483.1527" font-family="Times,serif" font-size="20.00" fill="#ffffff">Icare</text>
</g>
<!-- aa1 -->
<g id="node2" class="node">
<title>aa1</title>
<ellipse fill="#8b0000" stroke="#000000" cx="144.616" cy="-347.5627" rx="93.7874" ry="46.2727"/>
<text text-anchor="middle" x="144.616" y="-361.9627" font-family="Times,serif" font-size="16.00" fill="#ffffff">Dédale fabrique</text>
<text text-anchor="middle" x="144.616" y="-342.7627" font-family="Times,serif" font-size="16.00" fill="#ffffff">pour lui et son fils</text>
<text text-anchor="middle" x="144.616" y="-323.5627" font-family="Times,serif" font-size="16.00" fill="#ffffff">des ailes</text>
</g>
<!-- a1&#45;&gt;aa1 -->
<g id="edge1" class="edge">
<title>a1-&gt;aa1</title>
<path fill="none" stroke="#000000" d="M271.1763,-469.4652C251.4902,-450.5036 220.9302,-421.0683 194.772,-395.8728"/>
<polygon fill="#000000" stroke="#000000" points="197.1539,-393.3075 187.5235,-388.891 192.2978,-398.3492 197.1539,-393.3075"/>
</g>
<!-- aa2 -->
<g id="node3" class="node">
<title>aa2</title>
<ellipse fill="#8b0000" stroke="#000000" cx="443.616" cy="-347.5627" rx="137.3779" ry="59.9253"/>
<text text-anchor="middle" x="443.616" y="-371.5627" font-family="Times,serif" font-size="16.00" fill="#ffffff">Icare vole trop près</text>
<text text-anchor="middle" x="443.616" y="-352.3627" font-family="Times,serif" font-size="16.00" fill="#ffffff">du soleil. La cire fond, les</text>
<text text-anchor="middle" x="443.616" y="-333.1627" font-family="Times,serif" font-size="16.00" fill="#ffffff">ailes se détruisent. La chute</text>
<text text-anchor="middle" x="443.616" y="-313.9627" font-family="Times,serif" font-size="16.00" fill="#ffffff">d'Icare conduit à sa mort</text>
</g>
<!-- a1&#45;&gt;aa2 -->
<g id="edge2" class="edge">
<title>a1-&gt;aa2</title>
<path fill="none" stroke="#000000" d="M312.4322,-469.7621C329.3065,-454.0435 354.0554,-430.9895 377.5224,-409.1297"/>
<polygon fill="#000000" stroke="#000000" points="380.1533,-411.4623 385.0849,-402.0851 375.3821,-406.3402 380.1533,-411.4623"/>
</g>
<!-- b1 -->
<g id="node4" class="node">
<title>b1</title>
<polygon fill="#ffffff" stroke="#7f7f7f" points="205.7309,-218.8012 47.5011,-218.8012 47.5011,-153.5988 205.7309,-153.5988 205.7309,-218.8012"/>
<text text-anchor="middle" x="126.616" y="-200.6" font-family="Times,serif" font-size="16.00" fill="#000000">Icare est fasciné</text>
<text text-anchor="middle" x="126.616" y="-181.4" font-family="Times,serif" font-size="16.00" fill="#000000">par la puissance que</text>
<text text-anchor="middle" x="126.616" y="-162.2" font-family="Times,serif" font-size="16.00" fill="#000000">les ailes lui confèrent</text>
</g>
<!-- aa1&#45;&gt;b1 -->
<g id="edge3" class="edge">
<title>aa1-&gt;b1</title>
<path fill="none" stroke="#000000" d="M139.4097,-300.8899C136.882,-278.2302 133.8656,-251.1898 131.3967,-229.0575"/>
<polygon fill="#000000" stroke="#000000" points="134.8562,-228.4986 130.2691,-218.9483 127.8994,-229.2747 134.8562,-228.4986"/>
</g>
<!-- b2 -->
<g id="node5" class="node">
<title>b2</title>
<polygon fill="#ffffff" stroke="#7f7f7f" points="534.9892,-228.5002 358.2428,-228.5002 358.2428,-143.8998 534.9892,-143.8998 534.9892,-228.5002"/>
<text text-anchor="middle" x="446.616" y="-210.2" font-family="Times,serif" font-size="16.00" fill="#000000">L'ivresse de la puissance</text>
<text text-anchor="middle" x="446.616" y="-191" font-family="Times,serif" font-size="16.00" fill="#000000">aveugle Icare et lui fait</text>
<text text-anchor="middle" x="446.616" y="-171.8" font-family="Times,serif" font-size="16.00" fill="#000000">oublier le risque, la</text>
<text text-anchor="middle" x="446.616" y="-152.6" font-family="Times,serif" font-size="16.00" fill="#000000">possibilité de l'accident</text>
</g>
<!-- aa2&#45;&gt;b2 -->
<g id="edge4" class="edge">
<title>aa2-&gt;b2</title>
<path fill="none" stroke="#000000" d="M444.7331,-287.4772C445.0282,-271.6059 445.3444,-254.5951 445.6319,-239.1326"/>
<polygon fill="#000000" stroke="#000000" points="449.1391,-238.7716 445.8257,-228.7082 442.1403,-238.6414 449.1391,-238.7716"/>
</g>
<!-- c1 -->
<g id="node6" class="node">
<title>c1</title>
<path fill="#ffffff" stroke="#7f7f7f" d="M239.3481,-75.0012C239.3481,-75.0012 11.8839,-75.0012 11.8839,-75.0012 5.8839,-75.0012 -.1161,-69.0012 -.1161,-63.0012 -.1161,-63.0012 -.1161,-21.7988 -.1161,-21.7988 -.1161,-15.7988 5.8839,-9.7988 11.8839,-9.7988 11.8839,-9.7988 239.3481,-9.7988 239.3481,-9.7988 245.3481,-9.7988 251.3481,-15.7988 251.3481,-21.7988 251.3481,-21.7988 251.3481,-63.0012 251.3481,-63.0012 251.3481,-69.0012 245.3481,-75.0012 239.3481,-75.0012"/>
<text text-anchor="middle" x="125.616" y="-56.8" font-family="Times,serif" font-size="16.00" fill="#000000">Le développement technique relève</text>
<text text-anchor="middle" x="125.616" y="-37.6" font-family="Times,serif" font-size="16.00" fill="#000000">de la pléonexie : du désir, ici, de</text>
<text text-anchor="middle" x="125.616" y="-18.4" font-family="Times,serif" font-size="16.00" fill="#000000">pouvoir faire toujours plus</text>
</g>
<!-- b1&#45;&gt;c1 -->
<g id="edge5" class="edge">
<title>b1-&gt;c1</title>
<path fill="none" stroke="#000000" d="M126.3891,-153.5696C126.2488,-133.3964 126.0671,-107.2738 125.9152,-85.4202"/>
<polygon fill="#000000" stroke="#000000" points="129.415,-85.3745 125.8455,-75.3991 122.4152,-85.4232 129.415,-85.3745"/>
</g>
<!-- c2 -->
<g id="node7" class="node">
<title>c2</title>
<path fill="#ffffff" stroke="#7f7f7f" d="M564.5392,-84.7002C564.5392,-84.7002 328.6928,-84.7002 328.6928,-84.7002 322.6928,-84.7002 316.6928,-78.7002 316.6928,-72.7002 316.6928,-72.7002 316.6928,-12.0998 316.6928,-12.0998 316.6928,-6.0998 322.6928,-.0998 328.6928,-.0998 328.6928,-.0998 564.5392,-.0998 564.5392,-.0998 570.5392,-.0998 576.5392,-6.0998 576.5392,-12.0998 576.5392,-12.0998 576.5392,-72.7002 576.5392,-72.7002 576.5392,-78.7002 570.5392,-84.7002 564.5392,-84.7002"/>
<text text-anchor="middle" x="446.616" y="-66.4" font-family="Times,serif" font-size="16.00" fill="#000000">Le développement technique ne</text>
<text text-anchor="middle" x="446.616" y="-47.2" font-family="Times,serif" font-size="16.00" fill="#000000">peut-il pas nous conduire à une forme</text>
<text text-anchor="middle" x="446.616" y="-28" font-family="Times,serif" font-size="16.00" fill="#000000">de démesure qui a pour conséquence</text>
<text text-anchor="middle" x="446.616" y="-8.8" font-family="Times,serif" font-size="16.00" fill="#000000">que la technique nous échappe ?</text>
</g>
<!-- b2&#45;&gt;c2 -->
<g id="edge6" class="edge">
<title>b2-&gt;c2</title>
<path fill="none" stroke="#000000" d="M446.616,-143.833C446.616,-128.61 446.616,-111.2491 446.616,-95.2456"/>
<polygon fill="#000000" stroke="#000000" points="450.1161,-94.961 446.616,-84.9611 443.1161,-94.9611 450.1161,-94.961"/>
</g>
</g>
</svg>