<?xml version="1.0" encoding="UTF-8" standalone="no"?>
<!DOCTYPE svg PUBLIC "-//W3C//DTD SVG 1.1//EN"
 "http://www.w3.org/Graphics/SVG/1.1/DTD/svg11.dtd">
<!-- Generated by graphviz version 2.40.1 (20161225.0304)
 -->
<!-- Title: G Pages: 1 -->
<svg width="479pt" height="328pt"
 viewBox="0.00 0.00 478.79 327.78" xmlns="http://www.w3.org/2000/svg" xmlns:xlink="http://www.w3.org/1999/xlink">
<g id="graph0" class="graph" transform="scale(1 1) rotate(0) translate(21.6 306.1801)">
<title>G</title>
<polygon fill="#fafafa" stroke="transparent" points="-21.6,21.6 -21.6,-306.1801 457.185,-306.1801 457.185,21.6 -21.6,21.6"/>
<!-- a1 -->
<g id="node1" class="node">
<title>a1</title>
<ellipse fill="#000000" stroke="#000000" cx="219.3662" cy="-248.3763" rx="98.9138" ry="36.4089"/>
<text text-anchor="middle" x="219.3662" y="-253.7763" font-family="Times,serif" font-size="18.00" fill="#ffffff">L&#39;identité</text>
<text text-anchor="middle" x="219.3662" y="-232.1763" font-family="Times,serif" font-size="18.00" fill="#ffffff">de l&#39;être humain</text>
</g>
<!-- b1 -->
<g id="node2" class="node">
<title>b1</title>
<ellipse fill="#8b0000" stroke="#000000" cx="92.3662" cy="-106.7862" rx="92.2327" ry="46.2727"/>
<text text-anchor="middle" x="92.3662" y="-121.1862" font-family="Times,serif" font-size="16.00" fill="#ffffff">L&#39;identité</text>
<text text-anchor="middle" x="92.3662" y="-101.9862" font-family="Times,serif" font-size="16.00" fill="#ffffff">d&#39;un être humain</text>
<text text-anchor="middle" x="92.3662" y="-82.7862" font-family="Times,serif" font-size="16.00" fill="#ffffff">en particulier</text>
</g>
<!-- a1&#45;&gt;b1 -->
<g id="edge1" class="edge">
<title>a1&#45;&gt;b1</title>
<path fill="none" stroke="#000000" d="M188.2986,-213.7394C172.9377,-196.6139 154.1156,-175.6295 137.2245,-156.7979"/>
<polygon fill="#000000" stroke="#000000" points="139.6496,-154.2597 130.3669,-149.1525 134.4386,-158.9337 139.6496,-154.2597"/>
</g>
<!-- b2 -->
<g id="node3" class="node">
<title>b2</title>
<ellipse fill="#8b0000" stroke="#000000" cx="346.3662" cy="-106.7862" rx="89.4381" ry="46.2727"/>
<text text-anchor="middle" x="346.3662" y="-121.1862" font-family="Times,serif" font-size="16.00" fill="#ffffff">L&#39;identité</text>
<text text-anchor="middle" x="346.3662" y="-101.9862" font-family="Times,serif" font-size="16.00" fill="#ffffff">de l&#39;être humain</text>
<text text-anchor="middle" x="346.3662" y="-82.7862" font-family="Times,serif" font-size="16.00" fill="#ffffff">en général</text>
</g>
<!-- a1&#45;&gt;b2 -->
<g id="edge2" class="edge">
<title>a1&#45;&gt;b2</title>
<path fill="none" stroke="#000000" d="M250.4339,-213.7394C265.8594,-196.5419 284.7751,-175.4531 301.7208,-156.5606"/>
<polygon fill="#000000" stroke="#000000" points="304.5269,-158.674 308.5985,-148.8928 299.3159,-154 304.5269,-158.674"/>
</g>
<!-- e1 -->
<g id="node4" class="node">
<title>e1</title>
<path fill="#fafafa" stroke="transparent" d="M141.2011,-46.6017C141.2011,-46.6017 43.5314,-46.6017 43.5314,-46.6017 37.5314,-46.6017 31.5314,-40.6017 31.5314,-34.6017 31.5314,-34.6017 31.5314,-11.7983 31.5314,-11.7983 31.5314,-5.7983 37.5314,.2017 43.5314,.2017 43.5314,.2017 141.2011,.2017 141.2011,.2017 147.2011,.2017 153.2011,-5.7983 153.2011,-11.7983 153.2011,-11.7983 153.2011,-34.6017 153.2011,-34.6017 153.2011,-40.6017 147.2011,-46.6017 141.2011,-46.6017"/>
<text text-anchor="middle" x="92.3662" y="-28" font-family="Times,serif" font-size="16.00" fill="#cd2626">= l&#39;identité d&#39;un</text>
<text text-anchor="middle" x="92.3662" y="-8.8" font-family="Times,serif" font-size="16.00" fill="#cd2626">individu humain</text>
</g>
<!-- b1&#45;&gt;e1 -->
<!-- e2 -->
<g id="node5" class="node">
<title>e2</title>
<path fill="#fafafa" stroke="transparent" d="M388.2543,-46.6017C388.2543,-46.6017 304.4782,-46.6017 304.4782,-46.6017 298.4782,-46.6017 292.4782,-40.6017 292.4782,-34.6017 292.4782,-34.6017 292.4782,-11.7983 292.4782,-11.7983 292.4782,-5.7983 298.4782,.2017 304.4782,.2017 304.4782,.2017 388.2543,.2017 388.2543,.2017 394.2543,.2017 400.2543,-5.7983 400.2543,-11.7983 400.2543,-11.7983 400.2543,-34.6017 400.2543,-34.6017 400.2543,-40.6017 394.2543,-46.6017 388.2543,-46.6017"/>
<text text-anchor="middle" x="346.3662" y="-28" font-family="Times,serif" font-size="16.00" fill="#cd2626">= l&#39;identité du</text>
<text text-anchor="middle" x="346.3662" y="-8.8" font-family="Times,serif" font-size="16.00" fill="#cd2626">genre humain</text>
</g>
<!-- b2&#45;&gt;e2 -->
</g>
</svg>
