<?xml version="1.0" encoding="UTF-8" standalone="no"?><!DOCTYPE svg PUBLIC "-//W3C//DTD SVG 1.1//EN" "http://www.w3.org/Graphics/SVG/1.1/DTD/svg11.dtd"><!-- Generated by graphviz version 2.40.1 (20161225.0304)
 --><!-- Title: G Pages: 1 --><svg xmlns="http://www.w3.org/2000/svg" xmlns:xlink="http://www.w3.org/1999/xlink" width="855pt" height="595pt" viewBox="0.00 0.00 854.56 594.78">
<g id="graph0" class="graph" transform="scale(1 1) rotate(0) translate(21.6 573.1801)">
<title>G</title>
<polygon fill="#fafafa" stroke="transparent" points="-21.6,21.6 -21.6,-573.1801 832.9568,-573.1801 832.9568,21.6 -21.6,21.6"/>
<!-- a1 -->
<g id="node1" class="node">
<title>a1</title>
<ellipse fill="#000000" stroke="#000000" cx="388.8512" cy="-515.3763" rx="84.6683" ry="36.4089"/>
<text text-anchor="middle" x="388.8512" y="-520.7763" font-family="Times,serif" font-size="18.00" fill="#ffffff">Introduction à</text>
<text text-anchor="middle" x="388.8512" y="-499.1763" font-family="Times,serif" font-size="18.00" fill="#ffffff">la philosophie</text>
</g>
<!-- b1 -->
<g id="node2" class="node">
<title>b1</title>
<ellipse fill="#8b0000" stroke="#000000" cx="217.8512" cy="-397.7862" rx="51.3671" ry="32.6206"/>
<text text-anchor="middle" x="217.8512" y="-402.5862" font-family="Times,serif" font-size="16.00" fill="#ffffff">Penser,</text>
<text text-anchor="middle" x="217.8512" y="-383.3862" font-family="Times,serif" font-size="16.00" fill="#ffffff">réfléchir</text>
</g>
<!-- a1&#45;&gt;b1 -->
<g id="edge1" class="edge">
<title>a1-&gt;b1:n</title>
<path fill="none" stroke="#000000" d="M318.8056,-494.4943C278.038,-480.4729 232.4215,-460.8922 220.7102,-440.5109"/>
<polygon fill="#000000" stroke="#000000" points="224.0298,-439.3929 217.8512,-430.7862 217.314,-441.3674 224.0298,-439.3929"/>
</g>
<!-- b2 -->
<g id="node3" class="node">
<title>b2</title>
<ellipse fill="#8b0000" stroke="#000000" cx="388.8512" cy="-397.7862" rx="62.6708" ry="46.2727"/>
<text text-anchor="middle" x="388.8512" y="-412.1862" font-family="Times,serif" font-size="16.00" fill="#ffffff">Trois</text>
<text text-anchor="middle" x="388.8512" y="-392.9862" font-family="Times,serif" font-size="16.00" fill="#ffffff">démarches</text>
<text text-anchor="middle" x="388.8512" y="-373.7862" font-family="Times,serif" font-size="16.00" fill="#ffffff">essentielles</text>
</g>
<!-- a1&#45;&gt;b2 -->
<g id="edge2" class="edge">
<title>a1-&gt;b2:n</title>
<path fill="none" stroke="#000000" d="M388.8512,-478.9566C388.8512,-470.9415 388.8512,-462.326 388.8512,-453.9061"/>
<polygon fill="#000000" stroke="#000000" points="392.3513,-453.7862 388.8512,-443.7862 385.3513,-453.7862 392.3513,-453.7862"/>
</g>
<!-- b3 -->
<g id="node4" class="node">
<title>b3</title>
<ellipse fill="#8b0000" stroke="#000000" cx="597.8512" cy="-397.7862" rx="73.3841" ry="32.6206"/>
<text text-anchor="middle" x="597.8512" y="-402.5862" font-family="Times,serif" font-size="16.00" fill="#ffffff">Une exigence</text>
<text text-anchor="middle" x="597.8512" y="-383.3862" font-family="Times,serif" font-size="16.00" fill="#ffffff">de contenu</text>
</g>
<!-- a1&#45;&gt;b3 -->
<g id="edge3" class="edge">
<title>a1-&gt;b3:n</title>
<path fill="none" stroke="#000000" d="M465.1922,-499.3472C518.1325,-486.217 581.4923,-465.7406 595.1679,-440.6309"/>
<polygon fill="#000000" stroke="#000000" points="598.5982,-441.3547 597.8512,-430.7862 591.8446,-439.5138 598.5982,-441.3547"/>
</g>
<!-- c1 -->
<g id="node5" class="node">
<title>c1</title>
<polygon fill="#ffffff" stroke="#7f7f7f" points="154.2663,-316.6017 25.4361,-316.6017 25.4361,-269.7983 154.2663,-269.7983 154.2663,-316.6017"/>
<text text-anchor="middle" x="89.8512" y="-298" font-family="Times,serif" font-size="16.00" fill="#000000">Cf. les moqueries</text>
<text text-anchor="middle" x="89.8512" y="-278.8" font-family="Times,serif" font-size="16.00" fill="#000000">classiques</text>
</g>
<!-- b1&#45;&gt;c1 -->
<g id="edge4" class="edge">
<title>b1-&gt;c1</title>
<path fill="none" stroke="#000000" d="M186.2107,-371.9334C168.0729,-357.1133 145.2294,-338.4484 126.3368,-323.0117"/>
<polygon fill="#000000" stroke="#000000" points="128.4655,-320.2312 118.5072,-316.6142 124.0364,-325.6518 128.4655,-320.2312"/>
</g>
<!-- c2 -->
<g id="node6" class="node">
<title>c2</title>
<polygon fill="#ffffff" stroke="#7f7f7f" points="321.8192,-311.2 209.8832,-311.2 209.8832,-275.2 321.8192,-275.2 321.8192,-311.2"/>
<text text-anchor="middle" x="265.8512" y="-288.4" font-family="Times,serif" font-size="16.00" fill="#000000">Conceptualiser</text>
</g>
<!-- b2&#45;&gt;c2 -->
<g id="edge5" class="edge">
<title>b2-&gt;c2</title>
<path fill="none" stroke="#000000" d="M347.5518,-362.6696C330.3168,-348.0147 310.7007,-331.3353 295.01,-317.9936"/>
<polygon fill="#000000" stroke="#000000" points="297.0816,-315.1608 287.196,-311.3494 292.5471,-320.4936 297.0816,-315.1608"/>
</g>
<!-- c3 -->
<g id="node7" class="node">
<title>c3</title>
<polygon fill="#ffffff" stroke="#7f7f7f" points="441.816,-311.2 335.8864,-311.2 335.8864,-275.2 441.816,-275.2 441.816,-311.2"/>
<text text-anchor="middle" x="388.8512" y="-288.4" font-family="Times,serif" font-size="16.00" fill="#000000">Problématiser</text>
</g>
<!-- b2&#45;&gt;c3 -->
<g id="edge6" class="edge">
<title>b2-&gt;c3</title>
<path fill="none" stroke="#000000" d="M388.8512,-351.3041C388.8512,-341.1091 388.8512,-330.6157 388.8512,-321.3999"/>
<polygon fill="#000000" stroke="#000000" points="392.3513,-321.2627 388.8512,-311.2627 385.3513,-321.2628 392.3513,-321.2627"/>
</g>
<!-- c4 -->
<g id="node8" class="node">
<title>c4</title>
<polygon fill="#ffffff" stroke="#7f7f7f" points="553.6525,-311.2 460.0499,-311.2 460.0499,-275.2 553.6525,-275.2 553.6525,-311.2"/>
<text text-anchor="middle" x="506.8512" y="-288.4" font-family="Times,serif" font-size="16.00" fill="#000000">Argumenter</text>
</g>
<!-- b2&#45;&gt;c4 -->
<g id="edge7" class="edge">
<title>b2-&gt;c4</title>
<path fill="none" stroke="#000000" d="M429.1301,-362.0861C445.354,-347.7065 463.6848,-331.4594 478.4682,-318.3565"/>
<polygon fill="#000000" stroke="#000000" points="481.1182,-320.6847 486.2803,-311.4325 476.4751,-315.4461 481.1182,-320.6847"/>
</g>
<!-- c5 -->
<g id="node9" class="node">
<title>c5</title>
<polygon fill="#ffffff" stroke="#7f7f7f" points="714.9775,-316.6017 608.7249,-316.6017 608.7249,-269.7983 714.9775,-269.7983 714.9775,-316.6017"/>
<text text-anchor="middle" x="661.8512" y="-298" font-family="Times,serif" font-size="16.00" fill="#000000">Mobiliser ses</text>
<text text-anchor="middle" x="661.8512" y="-278.8" font-family="Times,serif" font-size="16.00" fill="#000000">connaissances</text>
</g>
<!-- b3&#45;&gt;c5 -->
<g id="edge8" class="edge">
<title>b3-&gt;c5</title>
<path fill="none" stroke="#000000" d="M617.227,-366.1231C625.1784,-353.1292 634.3683,-338.1115 642.3342,-325.0939"/>
<polygon fill="#000000" stroke="#000000" points="645.389,-326.8072 647.6233,-316.4506 639.4183,-323.1535 645.389,-326.8072"/>
</g>
<!-- c1&#45;&gt;c2 -->
<!-- e1 -->
<g id="node14" class="node">
<title>e1</title>
<path fill="#fafafa" stroke="transparent" d="M167.5538,-262C167.5538,-262 12.1486,-262 12.1486,-262 6.1486,-262 .1486,-256 .1486,-250 .1486,-250 .1486,-234 .1486,-234 .1486,-228 6.1486,-222 12.1486,-222 12.1486,-222 167.5538,-222 167.5538,-222 173.5538,-222 179.5538,-228 179.5538,-234 179.5538,-234 179.5538,-250 179.5538,-250 179.5538,-256 173.5538,-262 167.5538,-262"/>
<text text-anchor="start" x="18.0952" y="-244.6" font-family="Times,serif" font-size="16.00" fill="#cd2626">L'histoire de Thalès ;</text>
<text text-anchor="start" x="8" y="-228.6" font-family="Times,serif" font-style="italic" font-size="16.00" fill="#cd2626">Les Nuées</text>
<text text-anchor="start" x="76.1792" y="-228.6" font-family="Times,serif" font-size="16.00" fill="#cd2626"> d'Aristophane</text>
</g>
<!-- c1&#45;&gt;e1 -->
<!-- d1 -->
<g id="node10" class="node">
<title>d1</title>
<path fill="#ffffff" stroke="#7f7f7f" d="M284.6315,-193.4017C284.6315,-193.4017 195.0709,-193.4017 195.0709,-193.4017 189.0709,-193.4017 183.0709,-187.4017 183.0709,-181.4017 183.0709,-181.4017 183.0709,-158.5983 183.0709,-158.5983 183.0709,-152.5983 189.0709,-146.5983 195.0709,-146.5983 195.0709,-146.5983 284.6315,-146.5983 284.6315,-146.5983 290.6315,-146.5983 296.6315,-152.5983 296.6315,-158.5983 296.6315,-158.5983 296.6315,-181.4017 296.6315,-181.4017 296.6315,-187.4017 290.6315,-193.4017 284.6315,-193.4017"/>
<text text-anchor="middle" x="239.8512" y="-174.8" font-family="Times,serif" font-size="16.00" fill="#000000">Qu'est-ce que</text>
<text text-anchor="middle" x="239.8512" y="-155.6" font-family="Times,serif" font-size="16.00" fill="#000000">cela veut dire ?</text>
</g>
<!-- c2&#45;&gt;d1 -->
<g id="edge11" class="edge">
<title>c2-&gt;d1</title>
<path fill="none" stroke="#000000" d="M262.0148,-275.0214C258.0459,-256.2151 251.7586,-226.4226 246.8925,-203.3652"/>
<polygon fill="#000000" stroke="#000000" points="250.2598,-202.3705 244.7703,-193.3088 243.4107,-203.816 250.2598,-202.3705"/>
</g>
<!-- d2 -->
<g id="node11" class="node">
<title>d2</title>
<path fill="#ffffff" stroke="#7f7f7f" d="M419.1961,-193.4017C419.1961,-193.4017 326.5063,-193.4017 326.5063,-193.4017 320.5063,-193.4017 314.5063,-187.4017 314.5063,-181.4017 314.5063,-181.4017 314.5063,-158.5983 314.5063,-158.5983 314.5063,-152.5983 320.5063,-146.5983 326.5063,-146.5983 326.5063,-146.5983 419.1961,-146.5983 419.1961,-146.5983 425.1961,-146.5983 431.1961,-152.5983 431.1961,-158.5983 431.1961,-158.5983 431.1961,-181.4017 431.1961,-181.4017 431.1961,-187.4017 425.1961,-193.4017 419.1961,-193.4017"/>
<text text-anchor="middle" x="372.8512" y="-174.8" font-family="Times,serif" font-size="16.00" fill="#000000">Est-ce vraiment</text>
<text text-anchor="middle" x="372.8512" y="-155.6" font-family="Times,serif" font-size="16.00" fill="#000000">si simple ?</text>
</g>
<!-- c3&#45;&gt;d2 -->
<g id="edge12" class="edge">
<title>c3-&gt;d2</title>
<path fill="none" stroke="#000000" d="M386.4903,-275.0214C384.048,-256.2151 380.1788,-226.4226 377.1843,-203.3652"/>
<polygon fill="#000000" stroke="#000000" points="380.6371,-202.7747 375.8783,-193.3088 373.6954,-203.6763 380.6371,-202.7747"/>
</g>
<!-- c4&#45;&gt;c5 -->
<!-- d3 -->
<g id="node12" class="node">
<title>d3</title>
<path fill="#ffffff" stroke="#7f7f7f" d="M582.9696,-193.4017C582.9696,-193.4017 456.7328,-193.4017 456.7328,-193.4017 450.7328,-193.4017 444.7328,-187.4017 444.7328,-181.4017 444.7328,-181.4017 444.7328,-158.5983 444.7328,-158.5983 444.7328,-152.5983 450.7328,-146.5983 456.7328,-146.5983 456.7328,-146.5983 582.9696,-146.5983 582.9696,-146.5983 588.9696,-146.5983 594.9696,-152.5983 594.9696,-158.5983 594.9696,-158.5983 594.9696,-181.4017 594.9696,-181.4017 594.9696,-187.4017 588.9696,-193.4017 582.9696,-193.4017"/>
<text text-anchor="middle" x="519.8512" y="-174.8" font-family="Times,serif" font-size="16.00" fill="#000000">Comment peut-on</text>
<text text-anchor="middle" x="519.8512" y="-155.6" font-family="Times,serif" font-size="16.00" fill="#000000">défendre cette idée ?</text>
</g>
<!-- c4&#45;&gt;d3 -->
<g id="edge13" class="edge">
<title>c4-&gt;d3</title>
<path fill="none" stroke="#000000" d="M508.7694,-275.0214C510.7538,-256.2151 513.8975,-226.4226 516.3305,-203.3652"/>
<polygon fill="#000000" stroke="#000000" points="519.8229,-203.6209 517.3917,-193.3088 512.8615,-202.8862 519.8229,-203.6209"/>
</g>
<!-- d4 -->
<g id="node13" class="node">
<title>d4</title>
<path fill="#ffffff" stroke="#7f7f7f" d="M799.3624,-196C799.3624,-196 662.34,-196 662.34,-196 656.34,-196 650.34,-190 650.34,-184 650.34,-184 650.34,-156 650.34,-156 650.34,-150 656.34,-144 662.34,-144 662.34,-144 799.3624,-144 799.3624,-144 805.3624,-144 811.3624,-150 811.3624,-156 811.3624,-156 811.3624,-184 811.3624,-184 811.3624,-190 805.3624,-196 799.3624,-196"/>
<text text-anchor="start" x="658.3456" y="-178.6" font-family="Times,serif" font-size="16.00" fill="#000000">Références théoriques</text>
<text text-anchor="start" x="727.4678" y="-166.2" font-family="Times,serif" font-size="12.00" fill="#000000">+</text>
<text text-anchor="start" x="670.6528" y="-150.6" font-family="Times,serif" font-size="16.00" fill="#000000">Exemples concrets</text>
</g>
<!-- c5&#45;&gt;d4 -->
<g id="edge14" class="edge">
<title>c5-&gt;d4</title>
<path fill="none" stroke="#000000" d="M674.992,-269.737C685.2102,-251.4924 699.5497,-225.8891 711.1414,-205.192"/>
<polygon fill="#000000" stroke="#000000" points="714.2519,-206.8008 716.0847,-196.3657 708.1445,-203.3803 714.2519,-206.8008"/>
</g>
<!-- e2 -->
<g id="node15" class="node">
<title>e2</title>
<path fill="#fafafa" stroke="transparent" d="M280.5955,-91.4017C280.5955,-91.4017 187.1069,-91.4017 187.1069,-91.4017 181.1069,-91.4017 175.1069,-85.4017 175.1069,-79.4017 175.1069,-79.4017 175.1069,-56.5983 175.1069,-56.5983 175.1069,-50.5983 181.1069,-44.5983 187.1069,-44.5983 187.1069,-44.5983 280.5955,-44.5983 280.5955,-44.5983 286.5955,-44.5983 292.5955,-50.5983 292.5955,-56.5983 292.5955,-56.5983 292.5955,-79.4017 292.5955,-79.4017 292.5955,-85.4017 286.5955,-91.4017 280.5955,-91.4017"/>
<text text-anchor="middle" x="233.8512" y="-72.8" font-family="Times,serif" font-size="16.00" fill="#cd2626">Regarder ses</text>
<text text-anchor="middle" x="233.8512" y="-53.6" font-family="Times,serif" font-size="16.00" fill="#cd2626">propres lunettes</text>
</g>
<!-- d1&#45;&gt;e2 -->
<!-- e3 -->
<g id="node16" class="node">
<title>e3</title>
<path fill="#fafafa" stroke="transparent" d="M432.6539,-112C432.6539,-112 319.0485,-112 319.0485,-112 313.0485,-112 307.0485,-106 307.0485,-100 307.0485,-100 307.0485,-36 307.0485,-36 307.0485,-30 313.0485,-24 319.0485,-24 319.0485,-24 432.6539,-24 432.6539,-24 438.6539,-24 444.6539,-30 444.6539,-36 444.6539,-36 444.6539,-100 444.6539,-100 444.6539,-106 438.6539,-112 432.6539,-112"/>
<text text-anchor="start" x="351.864" y="-94.6" font-family="Times,serif" font-weight="bold" font-size="16.00" fill="#cd2626">Socrate</text>
<text text-anchor="start" x="327.2016" y="-62.6" font-family="Times,serif" font-size="16.00" fill="#cd2626">Être comme un</text>
<text text-anchor="start" x="320.0792" y="-46.6" font-family="Times,serif" font-size="16.00" fill="#cd2626">taon qui pique un</text>
<text text-anchor="start" x="315.2" y="-30.6" font-family="Times,serif" font-size="16.00" fill="#cd2626">cheval un peu mou</text>
</g>
<!-- d2&#45;&gt;e3 -->
<!-- d3&#45;&gt;d4 -->
<!-- e4 -->
<g id="node17" class="node">
<title>e4</title>
<path fill="#fafafa" stroke="transparent" d="M565.5731,-104C565.5731,-104 474.1293,-104 474.1293,-104 468.1293,-104 462.1293,-98 462.1293,-92 462.1293,-92 462.1293,-44 462.1293,-44 462.1293,-38 468.1293,-32 474.1293,-32 474.1293,-32 565.5731,-32 565.5731,-32 571.5731,-32 577.5731,-38 577.5731,-44 577.5731,-44 577.5731,-92 577.5731,-92 577.5731,-98 571.5731,-104 565.5731,-104"/>
<text text-anchor="start" x="490.7528" y="-86.6" font-family="Times,serif" font-weight="bold" font-size="16.00" fill="#cd2626">Épictète</text>
<text text-anchor="start" x="469.9904" y="-54.6" font-family="Times,serif" font-size="16.00" fill="#cd2626">Placer les idées</text>
<text text-anchor="start" x="475.8744" y="-38.6" font-family="Times,serif" font-size="16.00" fill="#cd2626">sur la balance</text>
</g>
<!-- d3&#45;&gt;e4 -->
<!-- e5 -->
<g id="node18" class="node">
<title>e5</title>
<path fill="#fafafa" stroke="transparent" d="M796.848,-136C796.848,-136 664.8544,-136 664.8544,-136 658.8544,-136 652.8544,-130 652.8544,-124 652.8544,-124 652.8544,-12 652.8544,-12 652.8544,-6 658.8544,0 664.8544,0 664.8544,0 796.848,0 796.848,0 802.848,0 808.848,-6 808.848,-12 808.848,-12 808.848,-124 808.848,-124 808.848,-130 802.848,-136 796.848,-136"/>
<text text-anchor="start" x="715.3016" y="-118.6" font-family="Times,serif" font-weight="bold" font-size="16.00" fill="#cd2626">Kant</text>
<text text-anchor="start" x="661.1032" y="-102.6" font-family="Times,serif" font-size="16.00" fill="#cd2626">Penser par soi-même</text>
<text text-anchor="start" x="672.6424" y="-86.6" font-family="Times,serif" font-size="16.00" fill="#cd2626">≠ penser tout seul</text>
<text text-anchor="start" x="701.7528" y="-54.6" font-family="Times,serif" font-weight="bold" font-size="16.00" fill="#cd2626">Épictète</text>
<text text-anchor="start" x="684.0984" y="-38.6" font-family="Times,serif" font-size="16.00" fill="#cd2626">Digérer et non</text>
<text text-anchor="start" x="689.9768" y="-22.6" font-family="Times,serif" font-size="16.00" fill="#cd2626">pas vomir ce</text>
<text text-anchor="start" x="685.088" y="-6.6" font-family="Times,serif" font-size="16.00" fill="#cd2626">qu'on a appris</text>
</g>
<!-- d4&#45;&gt;e5 -->
</g>
</svg>