<?xml version="1.0" encoding="UTF-8" standalone="no"?><!DOCTYPE svg PUBLIC "-//W3C//DTD SVG 1.1//EN" "http://www.w3.org/Graphics/SVG/1.1/DTD/svg11.dtd"><!-- Generated by graphviz version 2.40.1 (20161225.0304)
 --><!-- Title: G Pages: 1 --><svg xmlns="http://www.w3.org/2000/svg" xmlns:xlink="http://www.w3.org/1999/xlink" width="814pt" height="640pt" viewBox="0.00 0.00 814.44 639.98">
<g id="graph0" class="graph" transform="scale(1 1) rotate(0) translate(21.6 618.3801)">
<title>G</title>
<polygon fill="#fafafa" stroke="transparent" points="-21.6,21.6 -21.6,-618.3801 792.8448,-618.3801 792.8448,21.6 -21.6,21.6"/>
<!-- a1 -->
<g id="node1" class="node">
<title>a1</title>
<ellipse fill="#000000" stroke="#000000" cx="360.7392" cy="-560.5763" rx="84.6683" ry="36.4089"/>
<text text-anchor="middle" x="360.7392" y="-565.9763" font-family="Times,serif" font-size="18.00" fill="#ffffff">Introduction à</text>
<text text-anchor="middle" x="360.7392" y="-544.3763" font-family="Times,serif" font-size="18.00" fill="#ffffff">la philosophie</text>
</g>
<!-- b1 -->
<g id="node2" class="node">
<title>b1</title>
<ellipse fill="#8b0000" stroke="#000000" cx="220.7392" cy="-442.9862" rx="51.3671" ry="32.6206"/>
<text text-anchor="middle" x="220.7392" y="-447.7862" font-family="Times,serif" font-size="16.00" fill="#ffffff">Penser,</text>
<text text-anchor="middle" x="220.7392" y="-428.5862" font-family="Times,serif" font-size="16.00" fill="#ffffff">réfléchir</text>
</g>
<!-- a1&#45;&gt;b1 -->
<g id="edge1" class="edge">
<title>a1-&gt;b1:n</title>
<path fill="none" stroke="#000000" d="M285.4118,-543.6347C255.6402,-532.549 227.1614,-514.6284 221.6837,-486.0805"/>
<polygon fill="#000000" stroke="#000000" points="225.1557,-485.6166 220.7392,-475.9862 218.1861,-486.2688 225.1557,-485.6166"/>
</g>
<!-- b2 -->
<g id="node3" class="node">
<title>b2</title>
<ellipse fill="#8b0000" stroke="#000000" cx="360.7392" cy="-442.9862" rx="62.6708" ry="46.2727"/>
<text text-anchor="middle" x="360.7392" y="-457.3862" font-family="Times,serif" font-size="16.00" fill="#ffffff">Trois</text>
<text text-anchor="middle" x="360.7392" y="-438.1862" font-family="Times,serif" font-size="16.00" fill="#ffffff">démarches</text>
<text text-anchor="middle" x="360.7392" y="-418.9862" font-family="Times,serif" font-size="16.00" fill="#ffffff">essentielles</text>
</g>
<!-- a1&#45;&gt;b2 -->
<g id="edge2" class="edge">
<title>a1-&gt;b2:n</title>
<path fill="none" stroke="#000000" d="M360.7392,-524.1566C360.7392,-516.1415 360.7392,-507.526 360.7392,-499.1061"/>
<polygon fill="#000000" stroke="#000000" points="364.2393,-498.9862 360.7392,-488.9862 357.2393,-498.9862 364.2393,-498.9862"/>
</g>
<!-- b3 -->
<g id="node4" class="node">
<title>b3</title>
<ellipse fill="#8b0000" stroke="#000000" cx="557.7392" cy="-442.9862" rx="63.4217" ry="46.2727"/>
<text text-anchor="middle" x="557.7392" y="-457.3862" font-family="Times,serif" font-size="16.00" fill="#ffffff">Quatrième</text>
<text text-anchor="middle" x="557.7392" y="-438.1862" font-family="Times,serif" font-size="16.00" fill="#ffffff">démarche</text>
<text text-anchor="middle" x="557.7392" y="-418.9862" font-family="Times,serif" font-size="16.00" fill="#ffffff">importante</text>
</g>
<!-- a1&#45;&gt;b3 -->
<g id="edge3" class="edge">
<title>a1-&gt;b3:n</title>
<path fill="none" stroke="#000000" d="M439.4481,-546.957C487.2469,-536.6691 541.531,-520.6503 554.7319,-499.2338"/>
<polygon fill="#000000" stroke="#000000" points="558.17,-499.9585 557.7392,-489.3724 551.4744,-497.9166 558.17,-499.9585"/>
</g>
<!-- c1 -->
<g id="node5" class="node">
<title>c1</title>
<polygon fill="#ffffff" stroke="#7f7f7f" points="125.8864,-361.6 43.592,-361.6 43.592,-305.6 125.8864,-305.6 125.8864,-361.6"/>
<text text-anchor="start" x="60.976" y="-344.2" font-family="Times,serif" font-style="italic" font-size="16.00" fill="#000000">cf.</text>
<text text-anchor="start" x="77.4048" y="-344.2" font-family="Times,serif" font-size="16.00" fill="#000000">  les</text>
<text text-anchor="start" x="51.416" y="-328.2" font-family="Times,serif" font-size="16.00" fill="#000000">moqueries</text>
<text text-anchor="start" x="52.3056" y="-312.2" font-family="Times,serif" font-size="16.00" fill="#000000">classiques</text>
</g>
<!-- b1&#45;&gt;c1 -->
<g id="edge4" class="edge">
<title>b1-&gt;c1</title>
<path fill="none" stroke="#000000" d="M188.5091,-417.0632C170.2833,-402.404 147.2648,-383.89 127.5408,-368.0258"/>
<polygon fill="#000000" stroke="#000000" points="129.5829,-365.1766 119.597,-361.6365 125.1957,-370.6312 129.5829,-365.1766"/>
</g>
<!-- c2 -->
<g id="node6" class="node">
<title>c2</title>
<polygon fill="#ffffff" stroke="#7f7f7f" points="293.7072,-351.6 181.7712,-351.6 181.7712,-315.6 293.7072,-315.6 293.7072,-351.6"/>
<text text-anchor="middle" x="237.7392" y="-328.8" font-family="Times,serif" font-size="16.00" fill="#000000">Conceptualiser</text>
</g>
<!-- b2&#45;&gt;c2 -->
<g id="edge5" class="edge">
<title>b2-&gt;c2</title>
<path fill="none" stroke="#000000" d="M320.4644,-407.1691C302.5218,-391.2124 281.832,-372.8125 265.632,-358.4056"/>
<polygon fill="#000000" stroke="#000000" points="267.8701,-355.7122 258.0717,-351.6821 263.2183,-360.9429 267.8701,-355.7122"/>
</g>
<!-- c3 -->
<g id="node7" class="node">
<title>c3</title>
<polygon fill="#ffffff" stroke="#7f7f7f" points="413.704,-351.6 307.7744,-351.6 307.7744,-315.6 413.704,-315.6 413.704,-351.6"/>
<text text-anchor="middle" x="360.7392" y="-328.8" font-family="Times,serif" font-size="16.00" fill="#000000">Problématiser</text>
</g>
<!-- b2&#45;&gt;c3 -->
<g id="edge6" class="edge">
<title>b2-&gt;c3</title>
<path fill="none" stroke="#000000" d="M360.7392,-396.5966C360.7392,-384.8416 360.7392,-372.5627 360.7392,-362.0005"/>
<polygon fill="#000000" stroke="#000000" points="364.2393,-361.7089 360.7392,-351.7089 357.2393,-361.709 364.2393,-361.7089"/>
</g>
<!-- c4 -->
<g id="node8" class="node">
<title>c4</title>
<polygon fill="#ffffff" stroke="#7f7f7f" points="534.5405,-351.6 440.9379,-351.6 440.9379,-315.6 534.5405,-315.6 534.5405,-351.6"/>
<text text-anchor="middle" x="487.7392" y="-328.8" font-family="Times,serif" font-size="16.00" fill="#000000">Argumenter</text>
</g>
<!-- b2&#45;&gt;c4 -->
<g id="edge7" class="edge">
<title>b2-&gt;c4</title>
<path fill="none" stroke="#000000" d="M401.9725,-407.4716C420.5208,-391.4958 441.9714,-373.0202 458.7805,-358.5424"/>
<polygon fill="#000000" stroke="#000000" points="461.3335,-360.9628 466.6263,-351.7847 456.7652,-355.6589 461.3335,-360.9628"/>
</g>
<!-- c5 -->
<g id="node9" class="node">
<title>c5</title>
<polygon fill="#ffffff" stroke="#7f7f7f" points="667.9523,-357.0017 589.5261,-357.0017 589.5261,-310.1983 667.9523,-310.1983 667.9523,-357.0017"/>
<text text-anchor="middle" x="628.7392" y="-338.4" font-family="Times,serif" font-size="16.00" fill="#000000">Mobiliser</text>
<text text-anchor="middle" x="628.7392" y="-319.2" font-family="Times,serif" font-size="16.00" fill="#000000">sa culture</text>
</g>
<!-- b3&#45;&gt;c5 -->
<g id="edge8" class="edge">
<title>b3-&gt;c5</title>
<path fill="none" stroke="#000000" d="M584.9866,-401.0075C592.6392,-389.2175 600.8334,-376.5931 608.0374,-365.4943"/>
<polygon fill="#000000" stroke="#000000" points="611.0646,-367.259 613.5732,-356.9654 605.193,-363.4479 611.0646,-367.259"/>
</g>
<!-- c1&#45;&gt;c2 -->
<!-- e1 -->
<g id="node14" class="node">
<title>e1</title>
<path fill="#fafafa" stroke="transparent" d="M157.7183,-297.6C157.7183,-297.6 11.7601,-297.6 11.7601,-297.6 5.7601,-297.6 -.2399,-291.6 -.2399,-285.6 -.2399,-285.6 -.2399,-253.6 -.2399,-253.6 -.2399,-247.6 5.7601,-241.6 11.7601,-241.6 11.7601,-241.6 157.7183,-241.6 157.7183,-241.6 163.7183,-241.6 169.7183,-247.6 169.7183,-253.6 169.7183,-253.6 169.7183,-285.6 169.7183,-285.6 169.7183,-291.6 163.7183,-297.6 157.7183,-297.6"/>
<text text-anchor="start" x="17.2064" y="-280.2" font-family="Times,serif" font-size="16.00" fill="#cd2626">L'histoire de Thalès</text>
<text text-anchor="start" x="8" y="-264.2" font-family="Times,serif" font-size="16.00" fill="#cd2626">Socrate dans </text>
<text text-anchor="start" x="93.2992" y="-264.2" font-family="Times,serif" font-style="italic" font-size="16.00" fill="#cd2626">Les Nuées</text>
<text text-anchor="start" x="38.9776" y="-248.2" font-family="Times,serif" font-size="16.00" fill="#cd2626">d'Aristophane</text>
</g>
<!-- c1&#45;&gt;e1 -->
<!-- d1 -->
<g id="node10" class="node">
<title>d1</title>
<path fill="#ffffff" stroke="#7f7f7f" d="M260.0921,-215.4012C260.0921,-215.4012 183.3863,-215.4012 183.3863,-215.4012 177.3863,-215.4012 171.3863,-209.4012 171.3863,-203.4012 171.3863,-203.4012 171.3863,-162.1988 171.3863,-162.1988 171.3863,-156.1988 177.3863,-150.1988 183.3863,-150.1988 183.3863,-150.1988 260.0921,-150.1988 260.0921,-150.1988 266.0921,-150.1988 272.0921,-156.1988 272.0921,-162.1988 272.0921,-162.1988 272.0921,-203.4012 272.0921,-203.4012 272.0921,-209.4012 266.0921,-215.4012 260.0921,-215.4012"/>
<text text-anchor="middle" x="221.7392" y="-197.2" font-family="Times,serif" font-size="16.00" fill="#000000">« Qu'est-ce</text>
<text text-anchor="middle" x="221.7392" y="-178" font-family="Times,serif" font-size="16.00" fill="#000000">que cela</text>
<text text-anchor="middle" x="221.7392" y="-158.8" font-family="Times,serif" font-size="16.00" fill="#000000">veut dire ? »</text>
</g>
<!-- c2&#45;&gt;d1 -->
<g id="edge11" class="edge">
<title>c2-&gt;d1</title>
<path fill="none" stroke="#000000" d="M235.8092,-315.41C233.4672,-293.3366 229.4415,-255.3942 226.2947,-225.7352"/>
<polygon fill="#000000" stroke="#000000" points="229.7581,-225.2044 225.2224,-215.6296 222.7972,-225.9431 229.7581,-225.2044"/>
</g>
<!-- d2 -->
<g id="node11" class="node">
<title>d2</title>
<path fill="#ffffff" stroke="#7f7f7f" d="M389.5011,-206.2017C389.5011,-206.2017 311.9773,-206.2017 311.9773,-206.2017 305.9773,-206.2017 299.9773,-200.2017 299.9773,-194.2017 299.9773,-194.2017 299.9773,-171.3983 299.9773,-171.3983 299.9773,-165.3983 305.9773,-159.3983 311.9773,-159.3983 311.9773,-159.3983 389.5011,-159.3983 389.5011,-159.3983 395.5011,-159.3983 401.5011,-165.3983 401.5011,-171.3983 401.5011,-171.3983 401.5011,-194.2017 401.5011,-194.2017 401.5011,-200.2017 395.5011,-206.2017 389.5011,-206.2017"/>
<text text-anchor="middle" x="350.7392" y="-187.6" font-family="Times,serif" font-size="16.00" fill="#000000">« Est-ce</text>
<text text-anchor="middle" x="350.7392" y="-168.4" font-family="Times,serif" font-size="16.00" fill="#000000">si simple ? »</text>
</g>
<!-- c3&#45;&gt;d2 -->
<g id="edge12" class="edge">
<title>c3-&gt;d2</title>
<path fill="none" stroke="#000000" d="M359.533,-315.41C357.9112,-290.9541 354.9977,-247.0185 352.9707,-216.4513"/>
<polygon fill="#000000" stroke="#000000" points="356.4484,-215.9971 352.2943,-206.2506 349.4637,-216.4603 356.4484,-215.9971"/>
</g>
<!-- c4&#45;&gt;c5 -->
<!-- d3 -->
<g id="node12" class="node">
<title>d3</title>
<path fill="#ffffff" stroke="#7f7f7f" d="M542.6768,-215.4012C542.6768,-215.4012 440.8016,-215.4012 440.8016,-215.4012 434.8016,-215.4012 428.8016,-209.4012 428.8016,-203.4012 428.8016,-203.4012 428.8016,-162.1988 428.8016,-162.1988 428.8016,-156.1988 434.8016,-150.1988 440.8016,-150.1988 440.8016,-150.1988 542.6768,-150.1988 542.6768,-150.1988 548.6768,-150.1988 554.6768,-156.1988 554.6768,-162.1988 554.6768,-162.1988 554.6768,-203.4012 554.6768,-203.4012 554.6768,-209.4012 548.6768,-215.4012 542.6768,-215.4012"/>
<text text-anchor="middle" x="491.7392" y="-197.2" font-family="Times,serif" font-size="16.00" fill="#000000">« Comment</text>
<text text-anchor="middle" x="491.7392" y="-178" font-family="Times,serif" font-size="16.00" fill="#000000">peut-on défendre</text>
<text text-anchor="middle" x="491.7392" y="-158.8" font-family="Times,serif" font-size="16.00" fill="#000000">cette idée ? »</text>
</g>
<!-- c4&#45;&gt;d3 -->
<g id="edge13" class="edge">
<title>c4-&gt;d3</title>
<path fill="none" stroke="#000000" d="M488.2217,-315.41C488.8072,-293.3366 489.8136,-255.3942 490.6003,-225.7352"/>
<polygon fill="#000000" stroke="#000000" points="494.1019,-225.7189 490.8684,-215.6296 487.1044,-225.5332 494.1019,-225.7189"/>
</g>
<!-- d4 -->
<g id="node13" class="node">
<title>d4</title>
<path fill="#ffffff" stroke="#7f7f7f" d="M759.2504,-206.2017C759.2504,-206.2017 622.228,-206.2017 622.228,-206.2017 616.228,-206.2017 610.228,-200.2017 610.228,-194.2017 610.228,-194.2017 610.228,-171.3983 610.228,-171.3983 610.228,-165.3983 616.228,-159.3983 622.228,-159.3983 622.228,-159.3983 759.2504,-159.3983 759.2504,-159.3983 765.2504,-159.3983 771.2504,-165.3983 771.2504,-171.3983 771.2504,-171.3983 771.2504,-194.2017 771.2504,-194.2017 771.2504,-200.2017 765.2504,-206.2017 759.2504,-206.2017"/>
<text text-anchor="middle" x="690.7392" y="-187.6" font-family="Times,serif" font-size="16.00" fill="#000000">Références théoriques</text>
<text text-anchor="middle" x="690.7392" y="-168.4" font-family="Times,serif" font-size="16.00" fill="#000000">Exemples concrets</text>
</g>
<!-- c5&#45;&gt;d4 -->
<g id="edge14" class="edge">
<title>c5-&gt;d4</title>
<path fill="none" stroke="#000000" d="M638.2908,-310.368C648.6826,-285.0926 665.3814,-244.4768 677.1399,-215.877"/>
<polygon fill="#000000" stroke="#000000" points="680.509,-216.8866 681.0746,-206.3069 674.0349,-214.2248 680.509,-216.8866"/>
</g>
<!-- d1&#45;&gt;d2 -->
<!-- e2 -->
<g id="node15" class="node">
<title>e2</title>
<path fill="#fafafa" stroke="transparent" d="M253.2653,-103.6012C253.2653,-103.6012 190.2131,-103.6012 190.2131,-103.6012 184.2131,-103.6012 178.2131,-97.6012 178.2131,-91.6012 178.2131,-91.6012 178.2131,-50.3988 178.2131,-50.3988 178.2131,-44.3988 184.2131,-38.3988 190.2131,-38.3988 190.2131,-38.3988 253.2653,-38.3988 253.2653,-38.3988 259.2653,-38.3988 265.2653,-44.3988 265.2653,-50.3988 265.2653,-50.3988 265.2653,-91.6012 265.2653,-91.6012 265.2653,-97.6012 259.2653,-103.6012 253.2653,-103.6012"/>
<text text-anchor="middle" x="221.7392" y="-85.4" font-family="Times,serif" font-size="16.00" fill="#cd2626">Regarder</text>
<text text-anchor="middle" x="221.7392" y="-66.2" font-family="Times,serif" font-size="16.00" fill="#cd2626">ses propres</text>
<text text-anchor="middle" x="221.7392" y="-47" font-family="Times,serif" font-size="16.00" fill="#cd2626">lunettes</text>
</g>
<!-- d1&#45;&gt;e2 -->
<!-- d2&#45;&gt;d3 -->
<!-- e3 -->
<g id="node16" class="node">
<title>e3</title>
<path fill="#fafafa" stroke="transparent" d="M407.5419,-132.5C407.5419,-132.5 293.9365,-132.5 293.9365,-132.5 287.9365,-132.5 281.9365,-126.5 281.9365,-120.5 281.9365,-120.5 281.9365,-21.5 281.9365,-21.5 281.9365,-15.5 287.9365,-9.5 293.9365,-9.5 293.9365,-9.5 407.5419,-9.5 407.5419,-9.5 413.5419,-9.5 419.5419,-15.5 419.5419,-21.5 419.5419,-21.5 419.5419,-120.5 419.5419,-120.5 419.5419,-126.5 413.5419,-132.5 407.5419,-132.5"/>
<text text-anchor="start" x="290.3272" y="-115.1" font-family="Times,serif" font-size="16.00" fill="#cd2626">Exemple : l'affaire</text>
<text text-anchor="start" x="295.8736" y="-99.1" font-family="Times,serif" font-size="16.00" fill="#cd2626">du lancer de nain</text>
<text text-anchor="start" x="326.752" y="-67.1" font-family="Times,serif" font-weight="bold" font-size="16.00" fill="#cd2626">Socrate</text>
<text text-anchor="start" x="302.0896" y="-48.1" font-family="Times,serif" font-size="16.00" fill="#cd2626">Être comme un</text>
<text text-anchor="start" x="294.9672" y="-32.1" font-family="Times,serif" font-size="16.00" fill="#cd2626">taon qui pique un</text>
<text text-anchor="start" x="290.088" y="-16.1" font-family="Times,serif" font-size="16.00" fill="#cd2626">cheval un peu mou</text>
</g>
<!-- d2&#45;&gt;e3 -->
<!-- d3&#45;&gt;d4 -->
<!-- e4 -->
<g id="node17" class="node">
<title>e4</title>
<path fill="#fafafa" stroke="transparent" d="M520.145,-112C520.145,-112 463.3334,-112 463.3334,-112 457.3334,-112 451.3334,-106 451.3334,-100 451.3334,-100 451.3334,-42 451.3334,-42 451.3334,-36 457.3334,-30 463.3334,-30 463.3334,-30 520.145,-30 520.145,-30 526.145,-30 532.145,-36 532.145,-42 532.145,-42 532.145,-100 532.145,-100 532.145,-106 526.145,-112 520.145,-112"/>
<text text-anchor="start" x="462.6408" y="-94.6" font-family="Times,serif" font-weight="bold" font-size="16.00" fill="#cd2626">Épictète</text>
<text text-anchor="start" x="460.8664" y="-68.6" font-family="Times,serif" font-size="16.00" fill="#cd2626">Placer les</text>
<text text-anchor="start" x="462.9768" y="-52.6" font-family="Times,serif" font-size="16.00" fill="#cd2626">idées sur</text>
<text text-anchor="start" x="459.5368" y="-36.6" font-family="Times,serif" font-size="16.00" fill="#cd2626">la balance</text>
</g>
<!-- d3&#45;&gt;e4 -->
<!-- e5 -->
<g id="node18" class="node">
<title>e5</title>
<path fill="#fafafa" stroke="transparent" d="M756.736,-142C756.736,-142 624.7424,-142 624.7424,-142 618.7424,-142 612.7424,-136 612.7424,-130 612.7424,-130 612.7424,-12 612.7424,-12 612.7424,-6 618.7424,0 624.7424,0 624.7424,0 756.736,0 756.736,0 762.736,0 768.736,-6 768.736,-12 768.736,-12 768.736,-130 768.736,-130 768.736,-136 762.736,-142 756.736,-142"/>
<text text-anchor="start" x="675.1896" y="-124.6" font-family="Times,serif" font-weight="bold" font-size="16.00" fill="#cd2626">Kant</text>
<text text-anchor="start" x="620.9912" y="-105.6" font-family="Times,serif" font-size="16.00" fill="#cd2626">Penser par soi-même</text>
<text text-anchor="start" x="627.204" y="-89.6" font-family="Times,serif" font-size="16.00" fill="#cd2626">(≠ penser tout seul)</text>
<text text-anchor="start" x="661.6408" y="-57.6" font-family="Times,serif" font-weight="bold" font-size="16.00" fill="#cd2626">Épictète</text>
<text text-anchor="start" x="643.9864" y="-38.6" font-family="Times,serif" font-size="16.00" fill="#cd2626">Digérer et non</text>
<text text-anchor="start" x="649.8648" y="-22.6" font-family="Times,serif" font-size="16.00" fill="#cd2626">pas vomir ce</text>
<text text-anchor="start" x="644.976" y="-6.6" font-family="Times,serif" font-size="16.00" fill="#cd2626">qu'on a appris</text>
</g>
<!-- d4&#45;&gt;e5 -->
</g>
</svg>