<?xml version="1.0" encoding="UTF-8" standalone="no"?>
<!DOCTYPE svg PUBLIC "-//W3C//DTD SVG 1.1//EN"
 "http://www.w3.org/Graphics/SVG/1.1/DTD/svg11.dtd">
<!-- Generated by graphviz version 2.40.1 (20161225.0304)
 -->
<!-- Title: G Pages: 1 -->
<svg width="704pt" height="580pt"
 viewBox="0.00 0.00 703.69 579.98" xmlns="http://www.w3.org/2000/svg" xmlns:xlink="http://www.w3.org/1999/xlink">
<g id="graph0" class="graph" transform="scale(1 1) rotate(0) translate(21.6 558.3801)">
<title>G</title>
<polygon fill="#fafafa" stroke="transparent" points="-21.6,21.6 -21.6,-558.3801 682.092,-558.3801 682.092,21.6 -21.6,21.6"/>
<!-- a1 -->
<g id="node1" class="node">
<title>a1</title>
<ellipse fill="#000000" stroke="#000000" cx="322.7392" cy="-500.5763" rx="91.819" ry="36.4089"/>
<text text-anchor="middle" x="322.7392" y="-505.9763" font-family="Times,serif" font-size="18.00" fill="#ffffff">Qu&#39;est&#45;ce que</text>
<text text-anchor="middle" x="322.7392" y="-484.3763" font-family="Times,serif" font-size="18.00" fill="#ffffff">la philosophie ?</text>
</g>
<!-- b1 -->
<g id="node2" class="node">
<title>b1</title>
<ellipse fill="#8b0000" stroke="#000000" cx="110.7392" cy="-382.9862" rx="51.3671" ry="32.6206"/>
<text text-anchor="middle" x="110.7392" y="-387.7862" font-family="Times,serif" font-size="16.00" fill="#ffffff">Penser,</text>
<text text-anchor="middle" x="110.7392" y="-368.5862" font-family="Times,serif" font-size="16.00" fill="#ffffff">réfléchir</text>
</g>
<!-- a1&#45;&gt;b1 -->
<g id="edge1" class="edge">
<title>a1&#45;&gt;b1:n</title>
<path fill="none" stroke="#000000" d="M241.0777,-483.6958C188.1218,-470.5946 126.5986,-450.5073 113.3393,-425.7141"/>
<polygon fill="#000000" stroke="#000000" points="116.7028,-424.7433 110.7392,-415.9862 109.9402,-426.5509 116.7028,-424.7433"/>
</g>
<!-- b2 -->
<g id="node3" class="node">
<title>b2</title>
<ellipse fill="#8b0000" stroke="#000000" cx="322.7392" cy="-382.9862" rx="62.6708" ry="46.2727"/>
<text text-anchor="middle" x="322.7392" y="-397.3862" font-family="Times,serif" font-size="16.00" fill="#ffffff">Trois</text>
<text text-anchor="middle" x="322.7392" y="-378.1862" font-family="Times,serif" font-size="16.00" fill="#ffffff">démarches</text>
<text text-anchor="middle" x="322.7392" y="-358.9862" font-family="Times,serif" font-size="16.00" fill="#ffffff">essentielles</text>
</g>
<!-- a1&#45;&gt;b2 -->
<g id="edge2" class="edge">
<title>a1&#45;&gt;b2:n</title>
<path fill="none" stroke="#000000" d="M322.7392,-464.1566C322.7392,-456.1415 322.7392,-447.526 322.7392,-439.1061"/>
<polygon fill="#000000" stroke="#000000" points="326.2393,-438.9862 322.7392,-428.9862 319.2393,-438.9862 326.2393,-438.9862"/>
</g>
<!-- b3 -->
<g id="node4" class="node">
<title>b3</title>
<ellipse fill="#8b0000" stroke="#000000" cx="546.7392" cy="-382.9862" rx="63.4217" ry="46.2727"/>
<text text-anchor="middle" x="546.7392" y="-397.3862" font-family="Times,serif" font-size="16.00" fill="#ffffff">Quatrième</text>
<text text-anchor="middle" x="546.7392" y="-378.1862" font-family="Times,serif" font-size="16.00" fill="#ffffff">démarche</text>
<text text-anchor="middle" x="546.7392" y="-358.9862" font-family="Times,serif" font-size="16.00" fill="#ffffff">importante</text>
</g>
<!-- a1&#45;&gt;b3 -->
<g id="edge3" class="edge">
<title>a1&#45;&gt;b3:n</title>
<path fill="none" stroke="#000000" d="M409.9849,-489.1552C465.7554,-479.6103 530.1462,-463.5696 544.0191,-439.147"/>
<polygon fill="#000000" stroke="#000000" points="547.43,-439.9447 546.7392,-429.3724 540.6863,-438.068 547.43,-439.9447"/>
</g>
<!-- b1&#45;&gt;b2 -->
<!-- c1 -->
<g id="node5" class="node">
<title>c1</title>
<polygon fill="#ffffff" stroke="#7f7f7f" points="125.8864,-301.6 43.592,-301.6 43.592,-245.6 125.8864,-245.6 125.8864,-301.6"/>
<text text-anchor="start" x="63.6392" y="-284.2" font-family="Times,serif" font-style="italic" font-size="16.00" fill="#000000">cf.</text>
<text text-anchor="start" x="80.068" y="-284.2" font-family="Times,serif" font-size="16.00" fill="#000000"> &#160;les</text>
<text text-anchor="start" x="51.416" y="-268.2" font-family="Times,serif" font-size="16.00" fill="#000000">moqueries</text>
<text text-anchor="start" x="52.3056" y="-252.2" font-family="Times,serif" font-size="16.00" fill="#000000">classiques</text>
</g>
<!-- b1&#45;&gt;c1 -->
<g id="edge6" class="edge">
<title>b1&#45;&gt;c1</title>
<path fill="none" stroke="#000000" d="M103.0087,-350.4629C100.1031,-338.2385 96.7748,-324.2355 93.7618,-311.5595"/>
<polygon fill="#000000" stroke="#000000" points="97.1449,-310.657 91.4272,-301.7375 90.3346,-312.2758 97.1449,-310.657"/>
</g>
<!-- b2&#45;&gt;b3 -->
<!-- c2 -->
<g id="node6" class="node">
<title>c2</title>
<polygon fill="#ffffff" stroke="#7f7f7f" points="255.49,-291.6 181.9884,-291.6 181.9884,-255.6 255.49,-255.6 255.49,-291.6"/>
<text text-anchor="middle" x="218.7392" y="-268.8" font-family="Times,serif" font-size="16.00" fill="#000000">Analyser</text>
</g>
<!-- b2&#45;&gt;c2 -->
<g id="edge7" class="edge">
<title>b2&#45;&gt;c2</title>
<path fill="none" stroke="#000000" d="M286.365,-344.7282C272.0672,-329.6898 256.0318,-312.824 243.1652,-299.2911"/>
<polygon fill="#000000" stroke="#000000" points="245.4199,-296.5829 235.9929,-291.7473 240.3468,-301.4062 245.4199,-296.5829"/>
</g>
<!-- c3 -->
<g id="node7" class="node">
<title>c3</title>
<polygon fill="#ffffff" stroke="#7f7f7f" points="375.704,-291.6 269.7744,-291.6 269.7744,-255.6 375.704,-255.6 375.704,-291.6"/>
<text text-anchor="middle" x="322.7392" y="-268.8" font-family="Times,serif" font-size="16.00" fill="#000000">Problématiser</text>
</g>
<!-- b2&#45;&gt;c3 -->
<g id="edge8" class="edge">
<title>b2&#45;&gt;c3</title>
<path fill="none" stroke="#000000" d="M322.7392,-336.5966C322.7392,-324.8416 322.7392,-312.5627 322.7392,-302.0005"/>
<polygon fill="#000000" stroke="#000000" points="326.2393,-301.7089 322.7392,-291.7089 319.2393,-301.709 326.2393,-301.7089"/>
</g>
<!-- c4 -->
<g id="node8" class="node">
<title>c4</title>
<polygon fill="#ffffff" stroke="#7f7f7f" points="491.5405,-291.6 397.9379,-291.6 397.9379,-255.6 491.5405,-255.6 491.5405,-291.6"/>
<text text-anchor="middle" x="444.7392" y="-268.8" font-family="Times,serif" font-size="16.00" fill="#000000">Argumenter</text>
</g>
<!-- b2&#45;&gt;c4 -->
<g id="edge9" class="edge">
<title>b2&#45;&gt;c4</title>
<path fill="none" stroke="#000000" d="M362.6866,-347.1691C380.4833,-331.2124 401.0049,-312.8125 417.0732,-298.4056"/>
<polygon fill="#000000" stroke="#000000" points="419.463,-300.9637 424.572,-291.6821 414.79,-295.7519 419.463,-300.9637"/>
</g>
<!-- c5 -->
<g id="node9" class="node">
<title>c5</title>
<polygon fill="#ffffff" stroke="#7f7f7f" points="652.8655,-297.0017 546.6129,-297.0017 546.6129,-250.1983 652.8655,-250.1983 652.8655,-297.0017"/>
<text text-anchor="middle" x="599.7392" y="-278.4" font-family="Times,serif" font-size="16.00" fill="#000000">Mobiliser ses</text>
<text text-anchor="middle" x="599.7392" y="-259.2" font-family="Times,serif" font-size="16.00" fill="#000000">connaissances</text>
</g>
<!-- b3&#45;&gt;c5 -->
<g id="edge10" class="edge">
<title>b3&#45;&gt;c5</title>
<path fill="none" stroke="#000000" d="M567.9909,-339.1249C573.3268,-328.1122 578.9584,-316.4892 583.973,-306.1397"/>
<polygon fill="#000000" stroke="#000000" points="587.1679,-307.5727 588.3785,-297.0472 580.8684,-304.5204 587.1679,-307.5727"/>
</g>
<!-- c1&#45;&gt;c2 -->
<!-- e1 -->
<g id="node14" class="node">
<title>e1</title>
<path fill="#fafafa" stroke="transparent" d="M157.7183,-237.6C157.7183,-237.6 11.7601,-237.6 11.7601,-237.6 5.7601,-237.6 -.2399,-231.6 -.2399,-225.6 -.2399,-225.6 -.2399,-193.6 -.2399,-193.6 -.2399,-187.6 5.7601,-181.6 11.7601,-181.6 11.7601,-181.6 157.7183,-181.6 157.7183,-181.6 163.7183,-181.6 169.7183,-187.6 169.7183,-193.6 169.7183,-193.6 169.7183,-225.6 169.7183,-225.6 169.7183,-231.6 163.7183,-237.6 157.7183,-237.6"/>
<text text-anchor="start" x="12.9832" y="-220.2" font-family="Times,serif" font-size="16.00" fill="#cd2626">L&#39;histoire de Thalès ;</text>
<text text-anchor="start" x="8" y="-204.2" font-family="Times,serif" font-size="16.00" fill="#cd2626">Socrate dans </text>
<text text-anchor="start" x="93.2992" y="-204.2" font-family="Times,serif" font-style="italic" font-size="16.00" fill="#cd2626">Les Nuées</text>
<text text-anchor="start" x="38.9776" y="-188.2" font-family="Times,serif" font-size="16.00" fill="#cd2626">d&#39;Aristophane</text>
</g>
<!-- c1&#45;&gt;e1 -->
<!-- d1 -->
<g id="node10" class="node">
<title>d1</title>
<path fill="#ffffff" stroke="#7f7f7f" d="M226.0921,-155.4012C226.0921,-155.4012 149.3863,-155.4012 149.3863,-155.4012 143.3863,-155.4012 137.3863,-149.4012 137.3863,-143.4012 137.3863,-143.4012 137.3863,-102.1988 137.3863,-102.1988 137.3863,-96.1988 143.3863,-90.1988 149.3863,-90.1988 149.3863,-90.1988 226.0921,-90.1988 226.0921,-90.1988 232.0921,-90.1988 238.0921,-96.1988 238.0921,-102.1988 238.0921,-102.1988 238.0921,-143.4012 238.0921,-143.4012 238.0921,-149.4012 232.0921,-155.4012 226.0921,-155.4012"/>
<text text-anchor="middle" x="187.7392" y="-137.2" font-family="Times,serif" font-size="16.00" fill="#000000">« Qu&#39;est&#45;ce</text>
<text text-anchor="middle" x="187.7392" y="-118" font-family="Times,serif" font-size="16.00" fill="#000000">que cela</text>
<text text-anchor="middle" x="187.7392" y="-98.8" font-family="Times,serif" font-size="16.00" fill="#000000">veut dire ? »</text>
</g>
<!-- c2&#45;&gt;d1 -->
<g id="edge13" class="edge">
<title>c2&#45;&gt;d1</title>
<path fill="none" stroke="#000000" d="M214.9999,-255.41C210.4622,-233.3366 202.6624,-195.3942 196.5654,-165.7352"/>
<polygon fill="#000000" stroke="#000000" points="199.93,-164.72 194.488,-155.6296 193.0733,-166.1295 199.93,-164.72"/>
</g>
<!-- d2 -->
<g id="node11" class="node">
<title>d2</title>
<path fill="#ffffff" stroke="#7f7f7f" d="M355.5011,-146.2017C355.5011,-146.2017 277.9773,-146.2017 277.9773,-146.2017 271.9773,-146.2017 265.9773,-140.2017 265.9773,-134.2017 265.9773,-134.2017 265.9773,-111.3983 265.9773,-111.3983 265.9773,-105.3983 271.9773,-99.3983 277.9773,-99.3983 277.9773,-99.3983 355.5011,-99.3983 355.5011,-99.3983 361.5011,-99.3983 367.5011,-105.3983 367.5011,-111.3983 367.5011,-111.3983 367.5011,-134.2017 367.5011,-134.2017 367.5011,-140.2017 361.5011,-146.2017 355.5011,-146.2017"/>
<text text-anchor="middle" x="316.7392" y="-127.6" font-family="Times,serif" font-size="16.00" fill="#000000">« Est&#45;ce</text>
<text text-anchor="middle" x="316.7392" y="-108.4" font-family="Times,serif" font-size="16.00" fill="#000000">si simple ? »</text>
</g>
<!-- c3&#45;&gt;d2 -->
<g id="edge14" class="edge">
<title>c3&#45;&gt;d2</title>
<path fill="none" stroke="#000000" d="M322.0155,-255.41C321.0424,-230.9541 319.2943,-187.0185 318.0781,-156.4513"/>
<polygon fill="#000000" stroke="#000000" points="321.5671,-156.1036 317.6722,-146.2506 314.5727,-156.3819 321.5671,-156.1036"/>
</g>
<!-- c4&#45;&gt;c5 -->
<!-- d3 -->
<g id="node12" class="node">
<title>d3</title>
<path fill="#ffffff" stroke="#7f7f7f" d="M486.712,-155.4012C486.712,-155.4012 406.7664,-155.4012 406.7664,-155.4012 400.7664,-155.4012 394.7664,-149.4012 394.7664,-143.4012 394.7664,-143.4012 394.7664,-102.1988 394.7664,-102.1988 394.7664,-96.1988 400.7664,-90.1988 406.7664,-90.1988 406.7664,-90.1988 486.712,-90.1988 486.712,-90.1988 492.712,-90.1988 498.712,-96.1988 498.712,-102.1988 498.712,-102.1988 498.712,-143.4012 498.712,-143.4012 498.712,-149.4012 492.712,-155.4012 486.712,-155.4012"/>
<text text-anchor="middle" x="446.7392" y="-137.2" font-family="Times,serif" font-size="16.00" fill="#000000">« Qu&#39;est&#45;ce</text>
<text text-anchor="middle" x="446.7392" y="-118" font-family="Times,serif" font-size="16.00" fill="#000000">qui permet de</text>
<text text-anchor="middle" x="446.7392" y="-98.8" font-family="Times,serif" font-size="16.00" fill="#000000">dire cela ? »</text>
</g>
<!-- c4&#45;&gt;d3 -->
<g id="edge15" class="edge">
<title>c4&#45;&gt;d3</title>
<path fill="none" stroke="#000000" d="M444.9804,-255.41C445.2732,-233.3366 445.7764,-195.3942 446.1698,-165.7352"/>
<polygon fill="#000000" stroke="#000000" points="449.6708,-165.6751 446.3038,-155.6296 442.6714,-165.5822 449.6708,-165.6751"/>
</g>
<!-- d4 -->
<g id="node13" class="node">
<title>d4</title>
<path fill="#ffffff" stroke="#7f7f7f" d="M644.8703,-146.2017C644.8703,-146.2017 566.6081,-146.2017 566.6081,-146.2017 560.6081,-146.2017 554.6081,-140.2017 554.6081,-134.2017 554.6081,-134.2017 554.6081,-111.3983 554.6081,-111.3983 554.6081,-105.3983 560.6081,-99.3983 566.6081,-99.3983 566.6081,-99.3983 644.8703,-99.3983 644.8703,-99.3983 650.8703,-99.3983 656.8703,-105.3983 656.8703,-111.3983 656.8703,-111.3983 656.8703,-134.2017 656.8703,-134.2017 656.8703,-140.2017 650.8703,-146.2017 644.8703,-146.2017"/>
<text text-anchor="middle" x="605.7392" y="-127.6" font-family="Times,serif" font-size="16.00" fill="#000000">Comment</text>
<text text-anchor="middle" x="605.7392" y="-108.4" font-family="Times,serif" font-size="16.00" fill="#000000">approfondir ?</text>
</g>
<!-- c5&#45;&gt;d4 -->
<g id="edge16" class="edge">
<title>c5&#45;&gt;d4</title>
<path fill="none" stroke="#000000" d="M600.6636,-250.368C601.6604,-225.3133 603.257,-185.1851 604.3932,-156.6291"/>
<polygon fill="#000000" stroke="#000000" points="607.9035,-156.4381 604.8039,-146.3069 600.909,-156.1598 607.9035,-156.4381"/>
</g>
<!-- d1&#45;&gt;d2 -->
<!-- e2 -->
<g id="node15" class="node">
<title>e2</title>
<path fill="#fafafa" stroke="transparent" d="M219.2653,-73.6012C219.2653,-73.6012 156.2131,-73.6012 156.2131,-73.6012 150.2131,-73.6012 144.2131,-67.6012 144.2131,-61.6012 144.2131,-61.6012 144.2131,-20.3988 144.2131,-20.3988 144.2131,-14.3988 150.2131,-8.3988 156.2131,-8.3988 156.2131,-8.3988 219.2653,-8.3988 219.2653,-8.3988 225.2653,-8.3988 231.2653,-14.3988 231.2653,-20.3988 231.2653,-20.3988 231.2653,-61.6012 231.2653,-61.6012 231.2653,-67.6012 225.2653,-73.6012 219.2653,-73.6012"/>
<text text-anchor="middle" x="187.7392" y="-55.4" font-family="Times,serif" font-size="16.00" fill="#cd2626">Regarder</text>
<text text-anchor="middle" x="187.7392" y="-36.2" font-family="Times,serif" font-size="16.00" fill="#cd2626">ses propres</text>
<text text-anchor="middle" x="187.7392" y="-17" font-family="Times,serif" font-size="16.00" fill="#cd2626">lunettes</text>
</g>
<!-- d1&#45;&gt;e2 -->
<!-- d2&#45;&gt;d3 -->
<!-- e3 -->
<g id="node16" class="node">
<title>e3</title>
<path fill="#fafafa" stroke="transparent" d="M373.5419,-78.5C373.5419,-78.5 259.9365,-78.5 259.9365,-78.5 253.9365,-78.5 247.9365,-72.5 247.9365,-66.5 247.9365,-66.5 247.9365,-15.5 247.9365,-15.5 247.9365,-9.5 253.9365,-3.5 259.9365,-3.5 259.9365,-3.5 373.5419,-3.5 373.5419,-3.5 379.5419,-3.5 385.5419,-9.5 385.5419,-15.5 385.5419,-15.5 385.5419,-66.5 385.5419,-66.5 385.5419,-72.5 379.5419,-78.5 373.5419,-78.5"/>
<text text-anchor="start" x="292.752" y="-61.1" font-family="Times,serif" font-weight="bold" font-size="16.00" fill="#cd2626">Socrate</text>
<text text-anchor="start" x="268.0896" y="-42.1" font-family="Times,serif" font-size="16.00" fill="#cd2626">Être comme un</text>
<text text-anchor="start" x="260.9672" y="-26.1" font-family="Times,serif" font-size="16.00" fill="#cd2626">taon qui pique un</text>
<text text-anchor="start" x="256.088" y="-10.1" font-family="Times,serif" font-size="16.00" fill="#cd2626">cheval un peu mou</text>
</g>
<!-- d2&#45;&gt;e3 -->
<!-- d3&#45;&gt;d4 -->
<!-- e4 -->
<g id="node17" class="node">
<title>e4</title>
<path fill="#fafafa" stroke="transparent" d="M475.145,-82C475.145,-82 418.3334,-82 418.3334,-82 412.3334,-82 406.3334,-76 406.3334,-70 406.3334,-70 406.3334,-12 406.3334,-12 406.3334,-6 412.3334,0 418.3334,0 418.3334,0 475.145,0 475.145,0 481.145,0 487.145,-6 487.145,-12 487.145,-12 487.145,-70 487.145,-70 487.145,-76 481.145,-82 475.145,-82"/>
<text text-anchor="start" x="417.6408" y="-64.6" font-family="Times,serif" font-weight="bold" font-size="16.00" fill="#cd2626">Épictète</text>
<text text-anchor="start" x="415.8664" y="-38.6" font-family="Times,serif" font-size="16.00" fill="#cd2626">Placer les</text>
<text text-anchor="start" x="417.9768" y="-22.6" font-family="Times,serif" font-size="16.00" fill="#cd2626">idées sur</text>
<text text-anchor="start" x="414.5368" y="-6.6" font-family="Times,serif" font-size="16.00" fill="#cd2626">la balance</text>
</g>
<!-- d3&#45;&gt;e4 -->
<!-- e5 -->
<g id="node18" class="node">
<title>e5</title>
<path fill="#fafafa" stroke="transparent" d="M648.2459,-78.5C648.2459,-78.5 563.2325,-78.5 563.2325,-78.5 557.2325,-78.5 551.2325,-72.5 551.2325,-66.5 551.2325,-66.5 551.2325,-15.5 551.2325,-15.5 551.2325,-9.5 557.2325,-3.5 563.2325,-3.5 563.2325,-3.5 648.2459,-3.5 648.2459,-3.5 654.2459,-3.5 660.2459,-9.5 660.2459,-15.5 660.2459,-15.5 660.2459,-66.5 660.2459,-66.5 660.2459,-72.5 654.2459,-78.5 648.2459,-78.5"/>
<text text-anchor="start" x="576.6408" y="-61.1" font-family="Times,serif" font-weight="bold" font-size="16.00" fill="#cd2626">Épictète</text>
<text text-anchor="start" x="558.9864" y="-42.1" font-family="Times,serif" font-size="16.00" fill="#cd2626">Digérer et non</text>
<text text-anchor="start" x="564.8648" y="-26.1" font-family="Times,serif" font-size="16.00" fill="#cd2626">pas vomir ce</text>
<text text-anchor="start" x="559.976" y="-10.1" font-family="Times,serif" font-size="16.00" fill="#cd2626">qu&#39;on a appris</text>
</g>
<!-- d4&#45;&gt;e5 -->
</g>
</svg>
