<?xml version="1.0" encoding="UTF-8" standalone="no"?><!DOCTYPE svg PUBLIC "-//W3C//DTD SVG 1.1//EN" "http://www.w3.org/Graphics/SVG/1.1/DTD/svg11.dtd"><!-- Generated by graphviz version 2.40.1 (20161225.0304)
 --><!-- Title: G Pages: 1 --><svg xmlns="http://www.w3.org/2000/svg" xmlns:xlink="http://www.w3.org/1999/xlink" width="660pt" height="567pt" viewBox="0.00 0.00 660.31 566.73">
<g id="graph0" class="graph" transform="scale(1 1) rotate(0) translate(21.6 545.129)">
<title>G</title>
<polygon fill="#fafafa" stroke="transparent" points="-21.6,21.6 -21.6,-545.129 638.7071,-545.129 638.7071,21.6 -21.6,21.6"/>
<!-- a1 -->
<g id="node1" class="node">
<title>a1</title>
<ellipse fill="#000000" stroke="#000000" cx="252.0071" cy="-472.0516" rx="94.0395" ry="51.4548"/>
<text text-anchor="middle" x="252.0071" y="-488.2516" font-family="Times,serif" font-size="18.00" fill="#ffffff">On peut établir</text>
<text text-anchor="middle" x="252.0071" y="-466.6516" font-family="Times,serif" font-size="18.00" fill="#ffffff">la vérité d'un</text>
<text text-anchor="middle" x="252.0071" y="-445.0516" font-family="Times,serif" font-size="18.00" fill="#ffffff">jugement de fait</text>
</g>
<!-- b1 -->
<g id="node3" class="node">
<title>b1</title>
<ellipse fill="#8b0000" stroke="#000000" cx="71.0071" cy="-352.7645" rx="71.0142" ry="32.6206"/>
<text text-anchor="middle" x="71.0071" y="-357.5645" font-family="Times,serif" font-size="16.00" fill="#ffffff">Soit par</text>
<text text-anchor="middle" x="71.0071" y="-338.3645" font-family="Times,serif" font-size="16.00" fill="#ffffff">l'observation</text>
</g>
<!-- a1&#45;&gt;b1 -->
<g id="edge1" class="edge">
<title>a1-&gt;b1:n</title>
<path fill="none" stroke="#000000" d="M168.6592,-448.0209C127.8356,-434.0471 85.059,-415.3011 73.8354,-395.4132"/>
<polygon fill="#000000" stroke="#000000" points="77.1337,-394.2181 71.0071,-385.5743 70.4061,-396.152 77.1337,-394.2181"/>
</g>
<!-- b2 -->
<g id="node4" class="node">
<title>b2</title>
<ellipse fill="#8b0000" stroke="#000000" cx="433.0071" cy="-352.7645" rx="67.9099" ry="32.6206"/>
<text text-anchor="middle" x="433.0071" y="-357.5645" font-family="Times,serif" font-size="16.00" fill="#ffffff">Soit par</text>
<text text-anchor="middle" x="433.0071" y="-338.3645" font-family="Times,serif" font-size="16.00" fill="#ffffff">la déduction</text>
</g>
<!-- a1&#45;&gt;b2 -->
<g id="edge2" class="edge">
<title>a1-&gt;b2:n</title>
<path fill="none" stroke="#000000" d="M335.355,-448.0209C376.1786,-434.0471 418.9552,-415.3011 430.1788,-395.4132"/>
<polygon fill="#000000" stroke="#000000" points="433.6081,-396.152 433.0071,-385.5743 426.8805,-394.2181 433.6081,-396.152"/>
</g>
<!-- a2 -->
<g id="node2" class="node">
<title>a2</title>
<ellipse fill="#000000" stroke="#000000" cx="304.0071" cy="-51.4774" rx="136.4514" ry="51.4548"/>
<text text-anchor="middle" x="304.0071" y="-67.6774" font-family="Times,serif" font-size="18.00" fill="#ffffff">À première vue, on ne</text>
<text text-anchor="middle" x="304.0071" y="-46.0774" font-family="Times,serif" font-size="18.00" fill="#ffffff">peut pas établir la vérité</text>
<text text-anchor="middle" x="304.0071" y="-24.4774" font-family="Times,serif" font-size="18.00" fill="#ffffff">d'un jugement moral</text>
</g>
<!-- b1&#45;&gt;b2 -->
<!-- c1 -->
<g id="node5" class="node">
<title>c1</title>
<polygon fill="#ffffff" stroke="#7f7f7f" points="172.9559,-285.1565 13.0583,-285.1565 13.0583,-238.353 172.9559,-238.353 172.9559,-285.1565"/>
<text text-anchor="middle" x="93.0071" y="-266.5547" font-family="Times,serif" font-size="16.00" fill="#000000">Mais peut-on observer</text>
<text text-anchor="middle" x="93.0071" y="-247.3547" font-family="Times,serif" font-size="16.00" fill="#000000">le bien et le mal ?</text>
</g>
<!-- b1&#45;&gt;c1 -->
<g id="edge4" class="edge">
<title>b1-&gt;c1</title>
<path fill="none" stroke="#000000" d="M78.9496,-319.9079C80.9054,-311.8171 83.0013,-303.1469 84.9619,-295.0362"/>
<polygon fill="#000000" stroke="#000000" points="88.4046,-295.6901 87.3523,-285.1477 81.6005,-294.0453 88.4046,-295.6901"/>
</g>
<!-- e1 -->
<g id="node9" class="node">
<title>e1</title>
<path fill="#fafafa" stroke="transparent" d="M266.1317,-376.1662C266.1317,-376.1662 167.8825,-376.1662 167.8825,-376.1662 161.8825,-376.1662 155.8825,-370.1662 155.8825,-364.1662 155.8825,-364.1662 155.8825,-341.3628 155.8825,-341.3628 155.8825,-335.3628 161.8825,-329.3628 167.8825,-329.3628 167.8825,-329.3628 266.1317,-329.3628 266.1317,-329.3628 272.1317,-329.3628 278.1317,-335.3628 278.1317,-341.3628 278.1317,-341.3628 278.1317,-364.1662 278.1317,-364.1662 278.1317,-370.1662 272.1317,-376.1662 266.1317,-376.1662"/>
<text text-anchor="middle" x="217.0071" y="-357.5645" font-family="Times,serif" font-size="16.00" fill="#cd2626">… qui repose</text>
<text text-anchor="middle" x="217.0071" y="-338.3645" font-family="Times,serif" font-size="16.00" fill="#cd2626">sur la perception</text>
</g>
<!-- b1&#45;&gt;e1 -->
<!-- c2 -->
<g id="node6" class="node">
<title>c2</title>
<polygon fill="#ffffff" stroke="#7f7f7f" points="508.9559,-285.1565 355.0583,-285.1565 355.0583,-238.353 508.9559,-238.353 508.9559,-285.1565"/>
<text text-anchor="middle" x="432.0071" y="-266.5547" font-family="Times,serif" font-size="16.00" fill="#000000">Mais peut-on déduire</text>
<text text-anchor="middle" x="432.0071" y="-247.3547" font-family="Times,serif" font-size="16.00" fill="#000000">le bien et le mal ?</text>
</g>
<!-- b2&#45;&gt;c2 -->
<g id="edge5" class="edge">
<title>b2-&gt;c2</title>
<path fill="none" stroke="#000000" d="M432.6461,-319.9079C432.5582,-311.907 432.464,-303.3395 432.3758,-295.3068"/>
<polygon fill="#000000" stroke="#000000" points="435.8739,-295.1086 432.2641,-285.1477 428.8743,-295.1856 435.8739,-295.1086"/>
</g>
<!-- e2 -->
<g id="node10" class="node">
<title>e2</title>
<path fill="#fafafa" stroke="transparent" d="M605.2073,-376.1662C605.2073,-376.1662 526.8069,-376.1662 526.8069,-376.1662 520.8069,-376.1662 514.8069,-370.1662 514.8069,-364.1662 514.8069,-364.1662 514.8069,-341.3628 514.8069,-341.3628 514.8069,-335.3628 520.8069,-329.3628 526.8069,-329.3628 526.8069,-329.3628 605.2073,-329.3628 605.2073,-329.3628 611.2073,-329.3628 617.2073,-335.3628 617.2073,-341.3628 617.2073,-341.3628 617.2073,-364.1662 617.2073,-364.1662 617.2073,-370.1662 611.2073,-376.1662 605.2073,-376.1662"/>
<text text-anchor="middle" x="566.0071" y="-357.5645" font-family="Times,serif" font-size="16.00" fill="#cd2626">… qui repose</text>
<text text-anchor="middle" x="566.0071" y="-338.3645" font-family="Times,serif" font-size="16.00" fill="#cd2626">sur la raison</text>
</g>
<!-- b2&#45;&gt;e2 -->
<!-- d1 -->
<g id="node7" class="node">
<title>d1</title>
<path fill="#ffffff" stroke="#7f7f7f" d="M284.9047,-203.356C284.9047,-203.356 81.1095,-203.356 81.1095,-203.356 75.1095,-203.356 69.1095,-197.356 69.1095,-191.356 69.1095,-191.356 69.1095,-150.1535 69.1095,-150.1535 69.1095,-144.1535 75.1095,-138.1535 81.1095,-138.1535 81.1095,-138.1535 284.9047,-138.1535 284.9047,-138.1535 290.9047,-138.1535 296.9047,-144.1535 296.9047,-150.1535 296.9047,-150.1535 296.9047,-191.356 296.9047,-191.356 296.9047,-197.356 290.9047,-203.356 284.9047,-203.356"/>
<text text-anchor="middle" x="183.0071" y="-185.1547" font-family="Times,serif" font-size="16.00" fill="#000000">Le bien et le mal ne</text>
<text text-anchor="middle" x="183.0071" y="-165.9547" font-family="Times,serif" font-size="16.00" fill="#000000">semblent pas être des propriétés</text>
<text text-anchor="middle" x="183.0071" y="-146.7547" font-family="Times,serif" font-size="16.00" fill="#000000">objectives observables</text>
</g>
<!-- c1&#45;&gt;d1 -->
<g id="edge6" class="edge">
<title>c1-&gt;d1</title>
<path fill="none" stroke="#000000" d="M116.1843,-238.32C124.568,-229.8431 134.2851,-220.0181 143.6685,-210.5304"/>
<polygon fill="#000000" stroke="#000000" points="146.208,-212.9401 150.7514,-203.3689 141.2309,-208.0177 146.208,-212.9401"/>
</g>
<!-- d2 -->
<g id="node8" class="node">
<title>d2</title>
<path fill="#ffffff" stroke="#7f7f7f" d="M528.9047,-203.356C528.9047,-203.356 325.1095,-203.356 325.1095,-203.356 319.1095,-203.356 313.1095,-197.356 313.1095,-191.356 313.1095,-191.356 313.1095,-150.1535 313.1095,-150.1535 313.1095,-144.1535 319.1095,-138.1535 325.1095,-138.1535 325.1095,-138.1535 528.9047,-138.1535 528.9047,-138.1535 534.9047,-138.1535 540.9047,-144.1535 540.9047,-150.1535 540.9047,-150.1535 540.9047,-191.356 540.9047,-191.356 540.9047,-197.356 534.9047,-203.356 528.9047,-203.356"/>
<text text-anchor="middle" x="427.0071" y="-185.1547" font-family="Times,serif" font-size="16.00" fill="#000000">Le bien et le mal ne</text>
<text text-anchor="middle" x="427.0071" y="-165.9547" font-family="Times,serif" font-size="16.00" fill="#000000">semblent pas être des propriétés</text>
<text text-anchor="middle" x="427.0071" y="-146.7547" font-family="Times,serif" font-size="16.00" fill="#000000">rationnellement déductibles</text>
</g>
<!-- c2&#45;&gt;d2 -->
<g id="edge7" class="edge">
<title>c2-&gt;d2</title>
<path fill="none" stroke="#000000" d="M430.7195,-238.32C430.3039,-230.7573 429.8294,-222.1215 429.3618,-213.6096"/>
<polygon fill="#000000" stroke="#000000" points="432.8425,-213.1618 428.7991,-203.3689 425.8531,-213.5459 432.8425,-213.1618"/>
</g>
<!-- d1&#45;&gt;a2 -->
<g id="edge8" class="edge">
<title>d1-&gt;a2</title>
<path fill="none" stroke="#000000" d="M216.3912,-137.8459C226.0533,-128.3214 236.8787,-117.6501 247.5367,-107.1438"/>
<polygon fill="#000000" stroke="#000000" points="250.2076,-109.4256 254.8722,-99.9128 245.2935,-104.4404 250.2076,-109.4256"/>
</g>
<!-- d2&#45;&gt;a2 -->
<g id="edge9" class="edge">
<title>d2-&gt;a2</title>
<path fill="none" stroke="#000000" d="M393.0712,-137.8459C383.0383,-128.1167 371.7714,-117.1908 360.7126,-106.4666"/>
<polygon fill="#000000" stroke="#000000" points="363.1059,-103.9121 353.4904,-99.463 358.2327,-108.9373 363.1059,-103.9121"/>
</g>
</g>
</svg>