<?xml version="1.0" encoding="UTF-8" standalone="no"?>
<!DOCTYPE svg PUBLIC "-//W3C//DTD SVG 1.1//EN"
 "http://www.w3.org/Graphics/SVG/1.1/DTD/svg11.dtd">
<!-- Generated by graphviz version 2.40.1 (20161225.0304)
 -->
<!-- Title: G Pages: 1 -->
<svg width="324pt" height="317pt"
 viewBox="0.00 0.00 324.08 316.83" xmlns="http://www.w3.org/2000/svg" xmlns:xlink="http://www.w3.org/1999/xlink">
<g id="graph0" class="graph" transform="scale(1 1) rotate(0) translate(21.6 295.2272)">
<title>G</title>
<polygon fill="#fafafa" stroke="transparent" points="-21.6,21.6 -21.6,-295.2272 302.4757,-295.2272 302.4757,21.6 -21.6,21.6"/>
<!-- a1 -->
<g id="node1" class="node">
<title>a1</title>
<ellipse fill="#000000" stroke="#000000" cx="141.4906" cy="-237.4234" rx="72.2098" ry="36.4089"/>
<text text-anchor="middle" x="141.4906" y="-242.8234" font-family="Times,serif" font-size="18.00" fill="#ffffff">Agir</text>
<text text-anchor="middle" x="141.4906" y="-221.2234" font-family="Times,serif" font-size="18.00" fill="#ffffff">moralement</text>
</g>
<!-- b1 -->
<g id="node2" class="node">
<title>b1</title>
<ellipse fill="#8b0000" stroke="#000000" cx="57.4906" cy="-133.4098" rx="57.4812" ry="32.6206"/>
<text text-anchor="middle" x="57.4906" y="-138.2098" font-family="Times,serif" font-size="16.00" fill="#ffffff">≠ agir par</text>
<text text-anchor="middle" x="57.4906" y="-119.0098" font-family="Times,serif" font-size="16.00" fill="#ffffff">intérêt</text>
</g>
<!-- a1&#45;&gt;b1 -->
<g id="edge1" class="edge">
<title>a1&#45;&gt;b1:n</title>
<path fill="none" stroke="#000000" d="M87.8165,-212.9537C74.312,-203.6248 62.5567,-191.5322 58.7681,-176.5126"/>
<polygon fill="#000000" stroke="#000000" points="62.1957,-175.7123 57.4906,-166.2195 55.249,-176.5745 62.1957,-175.7123"/>
</g>
<!-- b2 -->
<g id="node3" class="node">
<title>b2</title>
<ellipse fill="#8b0000" stroke="#000000" cx="225.4906" cy="-133.4098" rx="55.2705" ry="32.6206"/>
<text text-anchor="middle" x="225.4906" y="-138.2098" font-family="Times,serif" font-size="16.00" fill="#ffffff">= agir par</text>
<text text-anchor="middle" x="225.4906" y="-119.0098" font-family="Times,serif" font-size="16.00" fill="#ffffff">devoir</text>
</g>
<!-- a1&#45;&gt;b2 -->
<g id="edge2" class="edge">
<title>a1&#45;&gt;b2:n</title>
<path fill="none" stroke="#000000" d="M195.1647,-212.9537C208.6692,-203.6248 220.4246,-191.5322 224.2131,-176.5126"/>
<polygon fill="#000000" stroke="#000000" points="227.7322,-176.5745 225.4906,-166.2195 220.7855,-175.7123 227.7322,-176.5745"/>
</g>
<!-- b1&#45;&gt;b2 -->
<!-- c1 -->
<g id="node4" class="node">
<title>c1</title>
<polygon fill="#ffffff" stroke="#7f7f7f" points="280.8929,-65.4012 170.0883,-65.4012 170.0883,-.1988 280.8929,-.1988 280.8929,-65.4012"/>
<text text-anchor="middle" x="225.4906" y="-47.2" font-family="Times,serif" font-size="16.00" fill="#000000">≠ agir</text>
<text text-anchor="middle" x="225.4906" y="-28" font-family="Times,serif" font-size="16.00" fill="#000000">conformément</text>
<text text-anchor="middle" x="225.4906" y="-8.8" font-family="Times,serif" font-size="16.00" fill="#000000">au devoir</text>
</g>
<!-- b2&#45;&gt;c1 -->
<g id="edge4" class="edge">
<title>b2&#45;&gt;c1</title>
<path fill="none" stroke="#000000" d="M225.4906,-100.4664C225.4906,-92.5685 225.4906,-84.0199 225.4906,-75.743"/>
<polygon fill="#000000" stroke="#000000" points="228.9907,-75.4738 225.4906,-65.4738 221.9907,-75.4738 228.9907,-75.4738"/>
</g>
</g>
</svg>
