<?xml version="1.0" encoding="UTF-8" standalone="no"?><!DOCTYPE svg PUBLIC "-//W3C//DTD SVG 1.1//EN" "http://www.w3.org/Graphics/SVG/1.1/DTD/svg11.dtd"><!-- Generated by graphviz version 2.40.1 (20161225.0304)
 --><!-- Title: G Pages: 1 --><svg xmlns="http://www.w3.org/2000/svg" xmlns:xlink="http://www.w3.org/1999/xlink" width="551pt" height="349pt" viewBox="0.00 0.00 550.64 348.69">
<g id="graph0" class="graph" transform="scale(1 1) rotate(0) translate(21.6 327.0928)">
<title>G</title>
<polygon fill="#fafafa" stroke="transparent" points="-21.6,21.6 -21.6,-327.0928 529.0376,-327.0928 529.0376,21.6 -21.6,21.6"/>
<!-- a1 -->
<g id="node1" class="node">
<title>a1</title>
<ellipse fill="#000000" stroke="#000000" cx="65.4376" cy="-151.6707" rx="65.2437" ry="51.4548"/>
<text text-anchor="middle" x="65.4376" y="-167.8707" font-family="Times,serif" font-size="18.00" fill="#ffffff">La science</text>
<text text-anchor="middle" x="65.4376" y="-146.2707" font-family="Times,serif" font-size="18.00" fill="#ffffff">d'après</text>
<text text-anchor="middle" x="65.4376" y="-124.6707" font-family="Times,serif" font-size="18.00" fill="#ffffff">Popper</text>
</g>
<!-- b1 -->
<g id="node2" class="node">
<title>b1</title>
<ellipse fill="#8b0000" stroke="#000000" cx="232.4376" cy="-233.6707" rx="61.7744" ry="32.6206"/>
<text text-anchor="middle" x="232.4376" y="-238.4707" font-family="Times,serif" font-size="16.00" fill="#ffffff">≠</text>
<text text-anchor="middle" x="232.4376" y="-219.2707" font-family="Times,serif" font-size="16.00" fill="#ffffff">la certitude</text>
</g>
<!-- a1&#45;&gt;b1 -->
<g id="edge1" class="edge">
<title>a1-&gt;b1:w</title>
<path fill="none" stroke="#000000" d="M98.8915,-196.0307C115.2142,-213.012 136.4934,-229.2194 160.4086,-232.8956"/>
<polygon fill="#000000" stroke="#000000" points="160.1976,-236.3896 170.4376,-233.6707 160.7371,-229.4104 160.1976,-236.3896"/>
</g>
<!-- b2 -->
<g id="node3" class="node">
<title>b2</title>
<ellipse fill="#8b0000" stroke="#000000" cx="232.4376" cy="-76.6707" rx="67.115" ry="46.2727"/>
<text text-anchor="middle" x="232.4376" y="-91.0707" font-family="Times,serif" font-size="16.00" fill="#ffffff">=</text>
<text text-anchor="middle" x="232.4376" y="-71.8707" font-family="Times,serif" font-size="16.00" fill="#ffffff">la démarche</text>
<text text-anchor="middle" x="232.4376" y="-52.6707" font-family="Times,serif" font-size="16.00" fill="#ffffff">critique</text>
</g>
<!-- a1&#45;&gt;b2 -->
<g id="edge2" class="edge">
<title>a1-&gt;b2:w</title>
<path fill="none" stroke="#000000" d="M100.7726,-108.0429C115.7844,-93.7992 134.632,-80.7679 155.4216,-77.4709"/>
<polygon fill="#000000" stroke="#000000" points="155.7481,-80.956 165.4376,-76.6707 155.1906,-73.9783 155.7481,-80.956"/>
</g>
<!-- c1 -->
<g id="node4" class="node">
<title>c1</title>
<polygon fill="#ffffff" stroke="#7f7f7f" points="491.9889,-277.971 350.8864,-277.971 350.8864,-193.3705 491.9889,-193.3705 491.9889,-277.971"/>
<text text-anchor="middle" x="421.4376" y="-259.6707" font-family="Times,serif" font-size="16.00" fill="#000000">La science n'est</text>
<text text-anchor="middle" x="421.4376" y="-240.4707" font-family="Times,serif" font-size="16.00" fill="#000000">pas un domaine de</text>
<text text-anchor="middle" x="421.4376" y="-221.2707" font-family="Times,serif" font-size="16.00" fill="#000000">certitudes prouvées</text>
<text text-anchor="middle" x="421.4376" y="-202.0707" font-family="Times,serif" font-size="16.00" fill="#000000">par l'expérience</text>
</g>
<!-- b1&#45;&gt;c1 -->
<g id="edge3" class="edge">
<title>b1-&gt;c1</title>
<path fill="none" stroke="#000000" d="M294.3233,-234.3256C309.1598,-234.4826 325.2188,-234.6525 340.7672,-234.8171"/>
<polygon fill="#000000" stroke="#000000" points="340.8565,-238.3181 350.8931,-234.9242 340.9307,-231.3185 340.8565,-238.3181"/>
</g>
<!-- c2 -->
<g id="node5" class="node">
<title>c2</title>
<polygon fill="#ffffff" stroke="#7f7f7f" points="507.5174,-114.971 335.3579,-114.971 335.3579,-30.3705 507.5174,-30.3705 507.5174,-114.971"/>
<text text-anchor="middle" x="421.4376" y="-96.6707" font-family="Times,serif" font-size="16.00" fill="#000000">La science se définit par</text>
<text text-anchor="middle" x="421.4376" y="-77.4707" font-family="Times,serif" font-size="16.00" fill="#000000">l'idéal d'une démarche</text>
<text text-anchor="middle" x="421.4376" y="-58.2707" font-family="Times,serif" font-size="16.00" fill="#000000">critique portée à un</text>
<text text-anchor="middle" x="421.4376" y="-39.0707" font-family="Times,serif" font-size="16.00" fill="#000000">maximum de rigueur</text>
</g>
<!-- b2&#45;&gt;c2 -->
<g id="edge4" class="edge">
<title>b2-&gt;c2</title>
<path fill="none" stroke="#000000" d="M299.6041,-75.2492C307.9165,-75.0733 316.5377,-74.8908 325.1784,-74.708"/>
<polygon fill="#000000" stroke="#000000" points="325.3899,-78.2044 335.3136,-74.4935 325.2417,-71.2059 325.3899,-78.2044"/>
</g>
</g>
</svg>