<?xml version="1.0" encoding="UTF-8" standalone="no"?>
<!DOCTYPE svg PUBLIC "-//W3C//DTD SVG 1.1//EN"
 "http://www.w3.org/Graphics/SVG/1.1/DTD/svg11.dtd">
<!-- Generated by graphviz version 2.40.1 (20161225.0304)
 -->
<!-- Title: G Pages: 1 -->
<svg width="1258pt" height="801pt"
 viewBox="0.00 0.00 1257.88 801.48" xmlns="http://www.w3.org/2000/svg" xmlns:xlink="http://www.w3.org/1999/xlink">
<g id="graph0" class="graph" transform="scale(1 1) rotate(0) translate(21.6 779.8801)">
<title>G</title>
<polygon fill="#fafafa" stroke="transparent" points="-21.6,21.6 -21.6,-779.8801 1236.2792,-779.8801 1236.2792,21.6 -21.6,21.6"/>
<!-- a1 -->
<g id="node1" class="node">
<title>a1</title>
<ellipse fill="#000000" stroke="#000000" cx="652.2848" cy="-706.8027" rx="133.7072" ry="51.4548"/>
<text text-anchor="middle" x="652.2848" y="-723.0027" font-family="Times,serif" font-size="18.00" fill="#ffffff">Quelques distinctions</text>
<text text-anchor="middle" x="652.2848" y="-701.4027" font-family="Times,serif" font-size="18.00" fill="#ffffff">pour mieux comprendre</text>
<text text-anchor="middle" x="652.2848" y="-679.8027" font-family="Times,serif" font-size="18.00" fill="#ffffff">la notion de laïcité</text>
</g>
<!-- b1 -->
<g id="node2" class="node">
<title>b1</title>
<ellipse fill="#8b0000" stroke="#000000" cx="333.2848" cy="-560.3627" rx="89.596" ry="59.9253"/>
<text text-anchor="middle" x="333.2848" y="-584.3627" font-family="Times,serif" font-size="16.00" fill="#ffffff">La laïcité</text>
<text text-anchor="middle" x="333.2848" y="-565.1627" font-family="Times,serif" font-size="16.00" fill="#ffffff">se distingue de la</text>
<text text-anchor="middle" x="333.2848" y="-545.9627" font-family="Times,serif" font-size="16.00" fill="#ffffff">simple tolérance</text>
<text text-anchor="middle" x="333.2848" y="-526.7627" font-family="Times,serif" font-size="16.00" fill="#ffffff">religieuse</text>
</g>
<!-- a1&#45;&gt;b1 -->
<g id="edge1" class="edge">
<title>a1&#45;&gt;b1:n</title>
<path fill="none" stroke="#000000" d="M521.6149,-695.2321C441.0894,-684.6754 350.4229,-665.2309 335.4342,-630.5243"/>
<polygon fill="#000000" stroke="#000000" points="338.7718,-629.3886 333.2848,-620.3253 331.9223,-630.8322 338.7718,-629.3886"/>
</g>
<!-- b2 -->
<g id="node3" class="node">
<title>b2</title>
<ellipse fill="#8b0000" stroke="#000000" cx="652.2848" cy="-560.3627" rx="101.8572" ry="59.9253"/>
<text text-anchor="middle" x="652.2848" y="-584.3627" font-family="Times,serif" font-size="16.00" fill="#ffffff">La laïcité, ce n&#39;est</text>
<text text-anchor="middle" x="652.2848" y="-565.1627" font-family="Times,serif" font-size="16.00" fill="#ffffff">pas la réduction</text>
<text text-anchor="middle" x="652.2848" y="-545.9627" font-family="Times,serif" font-size="16.00" fill="#ffffff">de la religion à la</text>
<text text-anchor="middle" x="652.2848" y="-526.7627" font-family="Times,serif" font-size="16.00" fill="#ffffff">sphère privée</text>
</g>
<!-- a1&#45;&gt;b2 -->
<g id="edge2" class="edge">
<title>a1&#45;&gt;b2:n</title>
<path fill="none" stroke="#000000" d="M652.2848,-655.13C652.2848,-647.0723 652.2848,-638.7056 652.2848,-630.5339"/>
<polygon fill="#000000" stroke="#000000" points="655.7849,-630.3253 652.2848,-620.3253 648.7849,-630.3253 655.7849,-630.3253"/>
</g>
<!-- b3 -->
<g id="node4" class="node">
<title>b3</title>
<ellipse fill="#8b0000" stroke="#000000" cx="994.2848" cy="-560.3627" rx="97.7093" ry="59.9253"/>
<text text-anchor="middle" x="994.2848" y="-584.3627" font-family="Times,serif" font-size="16.00" fill="#ffffff">Il faut distinguer</text>
<text text-anchor="middle" x="994.2848" y="-565.1627" font-family="Times,serif" font-size="16.00" fill="#ffffff">la laïcité dans les</text>
<text text-anchor="middle" x="994.2848" y="-545.9627" font-family="Times,serif" font-size="16.00" fill="#ffffff">textes et la laïcité</text>
<text text-anchor="middle" x="994.2848" y="-526.7627" font-family="Times,serif" font-size="16.00" fill="#ffffff">dans les têtes</text>
</g>
<!-- a1&#45;&gt;b3 -->
<g id="edge3" class="edge">
<title>a1&#45;&gt;b3:n</title>
<path fill="none" stroke="#000000" d="M784.0217,-697.7612C872.8377,-688.2037 976.592,-668.9093 992.2616,-630.5062"/>
<polygon fill="#000000" stroke="#000000" points="995.7684,-630.8157 994.2848,-620.3253 988.9027,-629.4513 995.7684,-630.8157"/>
</g>
<!-- c1 -->
<g id="node5" class="node">
<title>c1</title>
<polygon fill="#ffffff" stroke="#7f7f7f" points="220.3548,-465.6002 .2148,-465.6002 .2148,-111.7998 220.3548,-111.7998 220.3548,-465.6002"/>
<text text-anchor="middle" x="110.2848" y="-447" font-family="Times,serif" font-size="16.00" fill="#000000">La laïcité garantit de manière</text>
<text text-anchor="middle" x="110.2848" y="-427.8" font-family="Times,serif" font-size="16.00" fill="#000000">plus fondamentale la liberté</text>
<text text-anchor="middle" x="110.2848" y="-408.6" font-family="Times,serif" font-size="16.00" fill="#000000">de croire (défendre la laïcité,</text>
<text text-anchor="middle" x="110.2848" y="-389.4" font-family="Times,serif" font-size="16.00" fill="#000000">ce n&#39;est pas militer pour</text>
<text text-anchor="middle" x="110.2848" y="-370.2" font-family="Times,serif" font-size="16.00" fill="#000000">l&#39;athéisme), car elle pose</text>
<text text-anchor="middle" x="110.2848" y="-351" font-family="Times,serif" font-size="16.00" fill="#000000">cette liberté comme un</text>
<text text-anchor="middle" x="110.2848" y="-331.8" font-family="Times,serif" font-size="16.00" fill="#000000">droit humain fondamental</text>
<text text-anchor="middle" x="110.2848" y="-312.6" font-family="Times,serif" font-size="16.00" fill="#000000">(et non comme un simple</text>
<text text-anchor="middle" x="110.2848" y="-293.4" font-family="Times,serif" font-size="16.00" fill="#000000">droit accordé par une</text>
<text text-anchor="middle" x="110.2848" y="-274.2" font-family="Times,serif" font-size="16.00" fill="#000000">autorité politique)</text>
<text text-anchor="middle" x="110.2848" y="-236" font-family="Times,serif" font-size="16.00" fill="#000000">La laïcité garantit aussi la</text>
<text text-anchor="middle" x="110.2848" y="-216.8" font-family="Times,serif" font-size="16.00" fill="#000000">liberté de changer de religion,</text>
<text text-anchor="middle" x="110.2848" y="-197.6" font-family="Times,serif" font-size="16.00" fill="#000000">et la liberté de ne pas croire</text>
<text text-anchor="middle" x="110.2848" y="-178.4" font-family="Times,serif" font-size="16.00" fill="#000000">(un régime politique tolérant</text>
<text text-anchor="middle" x="110.2848" y="-159.2" font-family="Times,serif" font-size="16.00" fill="#000000">envers d&#39;autres religions</text>
<text text-anchor="middle" x="110.2848" y="-140" font-family="Times,serif" font-size="16.00" fill="#000000">peut ne pas l&#39;être envers</text>
<text text-anchor="middle" x="110.2848" y="-120.8" font-family="Times,serif" font-size="16.00" fill="#000000">l&#39;apostasie ou l&#39;athéisme)</text>
</g>
<!-- b1&#45;&gt;c1 -->
<g id="edge4" class="edge">
<title>b1&#45;&gt;c1</title>
<path fill="none" stroke="#000000" d="M276.2638,-514.0702C259.6273,-499.3306 241.9843,-482.4134 227.2848,-465.4 227.142,-465.2347 226.9992,-465.0692 226.8564,-464.9035"/>
<polygon fill="#000000" stroke="#000000" points="229.5854,-462.7102 220.4574,-457.3315 224.2388,-467.2285 229.5854,-462.7102"/>
</g>
<!-- c2 -->
<g id="node6" class="node">
<title>c2</title>
<polygon fill="#ffffff" stroke="#7f7f7f" points="431.9699,-417.3003 234.5997,-417.3003 234.5997,-160.0997 431.9699,-160.0997 431.9699,-417.3003"/>
<text text-anchor="middle" x="333.2848" y="-399.1" font-family="Times,serif" font-size="16.00" fill="#000000">La laïcité interdit tout</text>
<text text-anchor="middle" x="333.2848" y="-379.9" font-family="Times,serif" font-size="16.00" fill="#000000">privilège en faveur d&#39;une</text>
<text text-anchor="middle" x="333.2848" y="-360.7" font-family="Times,serif" font-size="16.00" fill="#000000">religion particulière (ce qui</text>
<text text-anchor="middle" x="333.2848" y="-341.5" font-family="Times,serif" font-size="16.00" fill="#000000">interdit la reconnaissance</text>
<text text-anchor="middle" x="333.2848" y="-322.3" font-family="Times,serif" font-size="16.00" fill="#000000">d&#39;une religion officielle)</text>
<text text-anchor="middle" x="333.2848" y="-303.1" font-family="Times,serif" font-size="16.00" fill="#000000">et toute discrimination à</text>
<text text-anchor="middle" x="333.2848" y="-283.9" font-family="Times,serif" font-size="16.00" fill="#000000">l&#39;encontre d&#39;une religion</text>
<text text-anchor="middle" x="333.2848" y="-264.7" font-family="Times,serif" font-size="16.00" fill="#000000">(ce qui protège notamment</text>
<text text-anchor="middle" x="333.2848" y="-245.5" font-family="Times,serif" font-size="16.00" fill="#000000">les religions minoritaires),</text>
<text text-anchor="middle" x="333.2848" y="-226.3" font-family="Times,serif" font-size="16.00" fill="#000000">alors que la tolérance est</text>
<text text-anchor="middle" x="333.2848" y="-207.1" font-family="Times,serif" font-size="16.00" fill="#000000">compatible avec la croyance</text>
<text text-anchor="middle" x="333.2848" y="-187.9" font-family="Times,serif" font-size="16.00" fill="#000000">en la supériorité d&#39;une</text>
<text text-anchor="middle" x="333.2848" y="-168.7" font-family="Times,serif" font-size="16.00" fill="#000000">religion particulière</text>
</g>
<!-- b1&#45;&gt;c2 -->
<g id="edge5" class="edge">
<title>b1&#45;&gt;c2</title>
<path fill="none" stroke="#000000" d="M333.2848,-500.0719C333.2848,-478.4752 333.2848,-453.1428 333.2848,-427.6633"/>
<polygon fill="#000000" stroke="#000000" points="336.7849,-427.5172 333.2848,-417.5172 329.7849,-427.5173 336.7849,-427.5172"/>
</g>
<!-- c3 -->
<g id="node7" class="node">
<title>c3</title>
<polygon fill="#ffffff" stroke="#7f7f7f" points="660.358,-408.1003 446.2116,-408.1003 446.2116,-169.2997 660.358,-169.2997 660.358,-408.1003"/>
<text text-anchor="middle" x="553.2848" y="-389.5" font-family="Times,serif" font-size="16.00" fill="#000000">La laïcité exige la neutralité</text>
<text text-anchor="middle" x="553.2848" y="-370.3" font-family="Times,serif" font-size="16.00" fill="#000000">de la puissance publique</text>
<text text-anchor="middle" x="553.2848" y="-351.1" font-family="Times,serif" font-size="16.00" fill="#000000">(puisqu&#39;elle ne doit pas</text>
<text text-anchor="middle" x="553.2848" y="-331.9" font-family="Times,serif" font-size="16.00" fill="#000000">discriminer entre les croyances</text>
<text text-anchor="middle" x="553.2848" y="-312.7" font-family="Times,serif" font-size="16.00" fill="#000000">religieuses ou l&#39;incroyance),</text>
<text text-anchor="middle" x="553.2848" y="-293.5" font-family="Times,serif" font-size="16.00" fill="#000000">mais elle n&#39;exige pas la</text>
<text text-anchor="middle" x="553.2848" y="-274.3" font-family="Times,serif" font-size="16.00" fill="#000000">neutralité de l&#39;espace public :</text>
<text text-anchor="middle" x="553.2848" y="-255.1" font-family="Times,serif" font-size="16.00" fill="#000000">elle n&#39;interdit pas l&#39;expression</text>
<text text-anchor="middle" x="553.2848" y="-235.9" font-family="Times,serif" font-size="16.00" fill="#000000">publique des croyances</text>
<text text-anchor="middle" x="553.2848" y="-216.7" font-family="Times,serif" font-size="16.00" fill="#000000">religieuses ou de l&#39;athéisme</text>
<text text-anchor="middle" x="553.2848" y="-197.5" font-family="Times,serif" font-size="16.00" fill="#000000">et elle garantit au contraire</text>
<text text-anchor="middle" x="553.2848" y="-178.3" font-family="Times,serif" font-size="16.00" fill="#000000">l&#39;exercice de la liberté de culte</text>
</g>
<!-- b2&#45;&gt;c3 -->
<g id="edge6" class="edge">
<title>b2&#45;&gt;c3</title>
<path fill="none" stroke="#000000" d="M630.8033,-501.4159C621.7975,-476.7034 610.9468,-446.9284 600.254,-417.5866"/>
<polygon fill="#000000" stroke="#000000" points="603.5028,-416.2793 596.7904,-408.0822 596.9259,-418.6762 603.5028,-416.2793"/>
</g>
<!-- c4 -->
<g id="node8" class="node">
<title>c4</title>
<polygon fill="#ffffff" stroke="#7f7f7f" points="901.3564,-388.7 675.2132,-388.7 675.2132,-188.7 901.3564,-188.7 901.3564,-388.7"/>
<text text-anchor="middle" x="788.2848" y="-370.3" font-family="Times,serif" font-size="16.00" fill="#000000">La laïcité n&#39;exige pas la</text>
<text text-anchor="middle" x="788.2848" y="-351.1" font-family="Times,serif" font-size="16.00" fill="#000000">sécularisation de la société :</text>
<text text-anchor="middle" x="788.2848" y="-331.9" font-family="Times,serif" font-size="16.00" fill="#000000">elle ne repose pas sur le</text>
<text text-anchor="middle" x="788.2848" y="-312.7" font-family="Times,serif" font-size="16.00" fill="#000000">déclin ou la privatisation des</text>
<text text-anchor="middle" x="788.2848" y="-293.5" font-family="Times,serif" font-size="16.00" fill="#000000">croyances religieuses ; elle exige</text>
<text text-anchor="middle" x="788.2848" y="-274.3" font-family="Times,serif" font-size="16.00" fill="#000000">simplement la sécularisation de</text>
<text text-anchor="middle" x="788.2848" y="-255.1" font-family="Times,serif" font-size="16.00" fill="#000000">l&#39;État, dont les décisions doivent</text>
<text text-anchor="middle" x="788.2848" y="-235.9" font-family="Times,serif" font-size="16.00" fill="#000000">reposer sur des justifications</text>
<text text-anchor="middle" x="788.2848" y="-216.7" font-family="Times,serif" font-size="16.00" fill="#000000">accessibles à tous, et non pas</text>
<text text-anchor="middle" x="788.2848" y="-197.5" font-family="Times,serif" font-size="16.00" fill="#000000">sur des raisons religieuses</text>
</g>
<!-- b2&#45;&gt;c4 -->
<g id="edge7" class="edge">
<title>b2&#45;&gt;c4</title>
<path fill="none" stroke="#000000" d="M681.1269,-502.75C696.4015,-472.2388 715.6747,-433.7401 733.6507,-397.8327"/>
<polygon fill="#000000" stroke="#000000" points="736.8427,-399.2749 738.1897,-388.766 730.5833,-396.1413 736.8427,-399.2749"/>
</g>
<!-- c5 -->
<g id="node9" class="node">
<title>c5</title>
<polygon fill="#ffffff" stroke="#7f7f7f" points="1214.5737,-417.6003 915.9959,-417.6003 915.9959,-159.7997 1214.5737,-159.7997 1214.5737,-417.6003"/>
<text text-anchor="middle" x="1065.2848" y="-399" font-family="Times,serif" font-size="16.00" fill="#000000">La laïcité dans les textes, c&#39;est</text>
<text text-anchor="middle" x="1065.2848" y="-379.8" font-family="Times,serif" font-size="16.00" fill="#000000">la laïcité juridique définie par des</text>
<text text-anchor="middle" x="1065.2848" y="-360.6" font-family="Times,serif" font-size="16.00" fill="#000000">textes de droit : elle correspond aux</text>
<text text-anchor="middle" x="1065.2848" y="-341.4" font-family="Times,serif" font-size="16.00" fill="#000000">quatre principes que nous avons dégagés.</text>
<text text-anchor="middle" x="1065.2848" y="-303.2" font-family="Times,serif" font-size="16.00" fill="#000000">La laïcité dans les têtes fait référence</text>
<text text-anchor="middle" x="1065.2848" y="-284" font-family="Times,serif" font-size="16.00" fill="#000000">aux conceptions particulières que</text>
<text text-anchor="middle" x="1065.2848" y="-264.8" font-family="Times,serif" font-size="16.00" fill="#000000">l&#39;on peut avoir de la laïcité : on peut</text>
<text text-anchor="middle" x="1065.2848" y="-245.6" font-family="Times,serif" font-size="16.00" fill="#000000">militer pour une laïcité plus “ouverte”,</text>
<text text-anchor="middle" x="1065.2848" y="-226.4" font-family="Times,serif" font-size="16.00" fill="#000000">ou au contraire, une laïcité plus “stricte”,</text>
<text text-anchor="middle" x="1065.2848" y="-207.2" font-family="Times,serif" font-size="16.00" fill="#000000">ou plus “interventionniste” mais ces</text>
<text text-anchor="middle" x="1065.2848" y="-188" font-family="Times,serif" font-size="16.00" fill="#000000">conceptions ne peuvent prétendre définir</text>
<text text-anchor="middle" x="1065.2848" y="-168.8" font-family="Times,serif" font-size="16.00" fill="#000000">ce qu&#39;est la laïcité</text>
</g>
<!-- b3&#45;&gt;c5 -->
<g id="edge8" class="edge">
<title>b3&#45;&gt;c5</title>
<path fill="none" stroke="#000000" d="M1009.7783,-501.0808C1015.4948,-479.2081 1022.239,-453.4033 1029.0204,-427.4562"/>
<polygon fill="#000000" stroke="#000000" points="1032.4768,-428.0727 1031.6192,-417.5126 1025.7042,-426.3026 1032.4768,-428.0727"/>
</g>
<!-- e1 -->
<g id="node10" class="node">
<title>e1</title>
<path fill="#fafafa" stroke="transparent" d="M186.2558,-84.6012C186.2558,-84.6012 34.3138,-84.6012 34.3138,-84.6012 28.3138,-84.6012 22.3138,-78.6012 22.3138,-72.6012 22.3138,-72.6012 22.3138,-31.3988 22.3138,-31.3988 22.3138,-25.3988 28.3138,-19.3988 34.3138,-19.3988 34.3138,-19.3988 186.2558,-19.3988 186.2558,-19.3988 192.2558,-19.3988 198.2558,-25.3988 198.2558,-31.3988 198.2558,-31.3988 198.2558,-72.6012 198.2558,-72.6012 198.2558,-78.6012 192.2558,-84.6012 186.2558,-84.6012"/>
<text text-anchor="middle" x="110.2848" y="-66.4" font-family="Times,serif" font-size="16.00" fill="#cd2626">La laïcité se définit par</text>
<text text-anchor="middle" x="110.2848" y="-47.2" font-family="Times,serif" font-size="16.00" fill="#cd2626">le principe de la liberté</text>
<text text-anchor="middle" x="110.2848" y="-28" font-family="Times,serif" font-size="16.00" fill="#cd2626">de conscience</text>
</g>
<!-- c1&#45;&gt;e1 -->
<!-- e2 -->
<g id="node11" class="node">
<title>e2</title>
<path fill="#fafafa" stroke="transparent" d="M416.804,-84.6012C416.804,-84.6012 249.7656,-84.6012 249.7656,-84.6012 243.7656,-84.6012 237.7656,-78.6012 237.7656,-72.6012 237.7656,-72.6012 237.7656,-31.3988 237.7656,-31.3988 237.7656,-25.3988 243.7656,-19.3988 249.7656,-19.3988 249.7656,-19.3988 416.804,-19.3988 416.804,-19.3988 422.804,-19.3988 428.804,-25.3988 428.804,-31.3988 428.804,-31.3988 428.804,-72.6012 428.804,-72.6012 428.804,-78.6012 422.804,-84.6012 416.804,-84.6012"/>
<text text-anchor="middle" x="333.2848" y="-66.4" font-family="Times,serif" font-size="16.00" fill="#cd2626">La laïcité se définit par le</text>
<text text-anchor="middle" x="333.2848" y="-47.2" font-family="Times,serif" font-size="16.00" fill="#cd2626">principe de l&#39;égalité et de</text>
<text text-anchor="middle" x="333.2848" y="-28" font-family="Times,serif" font-size="16.00" fill="#cd2626">la non&#45;discrimination</text>
</g>
<!-- c2&#45;&gt;e2 -->
<!-- e3 -->
<g id="node12" class="node">
<title>e3</title>
<path fill="#fafafa" stroke="transparent" d="M636.804,-94.3002C636.804,-94.3002 469.7656,-94.3002 469.7656,-94.3002 463.7656,-94.3002 457.7656,-88.3002 457.7656,-82.3002 457.7656,-82.3002 457.7656,-21.6998 457.7656,-21.6998 457.7656,-15.6998 463.7656,-9.6998 469.7656,-9.6998 469.7656,-9.6998 636.804,-9.6998 636.804,-9.6998 642.804,-9.6998 648.804,-15.6998 648.804,-21.6998 648.804,-21.6998 648.804,-82.3002 648.804,-82.3002 648.804,-88.3002 642.804,-94.3002 636.804,-94.3002"/>
<text text-anchor="middle" x="553.2848" y="-76" font-family="Times,serif" font-size="16.00" fill="#cd2626">La laïcité se définit par le</text>
<text text-anchor="middle" x="553.2848" y="-56.8" font-family="Times,serif" font-size="16.00" fill="#cd2626">principe de la neutralité</text>
<text text-anchor="middle" x="553.2848" y="-37.6" font-family="Times,serif" font-size="16.00" fill="#cd2626">de la puissance publique</text>
<text text-anchor="middle" x="553.2848" y="-18.4" font-family="Times,serif" font-size="16.00" fill="#cd2626">(≠ l&#39;espace public)</text>
</g>
<!-- c3&#45;&gt;e3 -->
<!-- e4 -->
<g id="node13" class="node">
<title>e4</title>
<path fill="#fafafa" stroke="transparent" d="M900.2284,-104C900.2284,-104 676.3412,-104 676.3412,-104 670.3412,-104 664.3412,-98 664.3412,-92 664.3412,-92 664.3412,-12 664.3412,-12 664.3412,-6 670.3412,0 676.3412,0 676.3412,0 900.2284,0 900.2284,0 906.2284,0 912.2284,-6 912.2284,-12 912.2284,-12 912.2284,-92 912.2284,-92 912.2284,-98 906.2284,-104 900.2284,-104"/>
<text text-anchor="middle" x="788.2848" y="-85.6" font-family="Times,serif" font-size="16.00" fill="#cd2626">La laïcité se définit par le principe</text>
<text text-anchor="middle" x="788.2848" y="-66.4" font-family="Times,serif" font-size="16.00" fill="#cd2626">de la séparation de l&#39;État et de</text>
<text text-anchor="middle" x="788.2848" y="-47.2" font-family="Times,serif" font-size="16.00" fill="#cd2626">la religion : la religion n&#39;est plus</text>
<text text-anchor="middle" x="788.2848" y="-28" font-family="Times,serif" font-size="16.00" fill="#cd2626">considérée comme le fondement</text>
<text text-anchor="middle" x="788.2848" y="-8.8" font-family="Times,serif" font-size="16.00" fill="#cd2626">de la puissance publique</text>
</g>
<!-- c4&#45;&gt;e4 -->
</g>
</svg>
