<?xml version="1.0" encoding="UTF-8" standalone="no"?><!DOCTYPE svg PUBLIC "-//W3C//DTD SVG 1.1//EN" "http://www.w3.org/Graphics/SVG/1.1/DTD/svg11.dtd"><!-- Generated by graphviz version 2.40.1 (20161225.0304)
 --><!-- Title: G Pages: 1 --><svg xmlns="http://www.w3.org/2000/svg" xmlns:xlink="http://www.w3.org/1999/xlink" width="1182pt" height="722pt" viewBox="0.00 0.00 1182.33 722.08">
<g id="graph0" class="graph" transform="scale(1 1) rotate(0) translate(21.6 700.4801)">
<title>G</title>
<polygon fill="#fafafa" stroke="transparent" points="-21.6,21.6 -21.6,-700.4801 1160.732,-700.4801 1160.732,21.6 -21.6,21.6"/>
<!-- a1 -->
<g id="node1" class="node">
<title>a1</title>
<ellipse fill="#000000" stroke="#000000" cx="644.2896" cy="-627.4027" rx="133.7072" ry="51.4548"/>
<text text-anchor="middle" x="644.2896" y="-643.6027" font-family="Times,serif" font-size="18.00" fill="#ffffff">Quelques distinctions</text>
<text text-anchor="middle" x="644.2896" y="-622.0027" font-family="Times,serif" font-size="18.00" fill="#ffffff">pour mieux comprendre</text>
<text text-anchor="middle" x="644.2896" y="-600.4027" font-family="Times,serif" font-size="18.00" fill="#ffffff">la notion de laïcité</text>
</g>
<!-- b1 -->
<g id="node2" class="node">
<title>b1</title>
<ellipse fill="#8b0000" stroke="#000000" cx="325.2896" cy="-480.9627" rx="89.596" ry="59.9253"/>
<text text-anchor="middle" x="325.2896" y="-504.9627" font-family="Times,serif" font-size="16.00" fill="#ffffff">La laïcité</text>
<text text-anchor="middle" x="325.2896" y="-485.7627" font-family="Times,serif" font-size="16.00" fill="#ffffff">se distingue de la</text>
<text text-anchor="middle" x="325.2896" y="-466.5627" font-family="Times,serif" font-size="16.00" fill="#ffffff">simple tolérance</text>
<text text-anchor="middle" x="325.2896" y="-447.3627" font-family="Times,serif" font-size="16.00" fill="#ffffff">religieuse</text>
</g>
<!-- a1&#45;&gt;b1 -->
<g id="edge1" class="edge">
<title>a1-&gt;b1:n</title>
<path fill="none" stroke="#000000" d="M513.6197,-615.8321C433.0942,-605.2754 342.4277,-585.8309 327.439,-551.1243"/>
<polygon fill="#000000" stroke="#000000" points="330.7766,-549.9886 325.2896,-540.9253 323.9271,-551.4322 330.7766,-549.9886"/>
</g>
<!-- b2 -->
<g id="node3" class="node">
<title>b2</title>
<ellipse fill="#8b0000" stroke="#000000" cx="644.2896" cy="-480.9627" rx="101.8572" ry="59.9253"/>
<text text-anchor="middle" x="644.2896" y="-504.9627" font-family="Times,serif" font-size="16.00" fill="#ffffff">La laïcité, ce n'est</text>
<text text-anchor="middle" x="644.2896" y="-485.7627" font-family="Times,serif" font-size="16.00" fill="#ffffff">pas la réduction</text>
<text text-anchor="middle" x="644.2896" y="-466.5627" font-family="Times,serif" font-size="16.00" fill="#ffffff">de la religion à la</text>
<text text-anchor="middle" x="644.2896" y="-447.3627" font-family="Times,serif" font-size="16.00" fill="#ffffff">sphère privée</text>
</g>
<!-- a1&#45;&gt;b2 -->
<g id="edge2" class="edge">
<title>a1-&gt;b2:n</title>
<path fill="none" stroke="#000000" d="M644.2896,-575.73C644.2896,-567.6723 644.2896,-559.3056 644.2896,-551.1339"/>
<polygon fill="#000000" stroke="#000000" points="647.7897,-550.9253 644.2896,-540.9253 640.7897,-550.9253 647.7897,-550.9253"/>
</g>
<!-- b3 -->
<g id="node4" class="node">
<title>b3</title>
<ellipse fill="#8b0000" stroke="#000000" cx="961.2896" cy="-480.9627" rx="97.7093" ry="59.9253"/>
<text text-anchor="middle" x="961.2896" y="-504.9627" font-family="Times,serif" font-size="16.00" fill="#ffffff">Il faut distinguer</text>
<text text-anchor="middle" x="961.2896" y="-485.7627" font-family="Times,serif" font-size="16.00" fill="#ffffff">la laïcité dans les</text>
<text text-anchor="middle" x="961.2896" y="-466.5627" font-family="Times,serif" font-size="16.00" fill="#ffffff">textes et la laïcité</text>
<text text-anchor="middle" x="961.2896" y="-447.3627" font-family="Times,serif" font-size="16.00" fill="#ffffff">dans les têtes</text>
</g>
<!-- a1&#45;&gt;b3 -->
<g id="edge3" class="edge">
<title>a1-&gt;b3:n</title>
<path fill="none" stroke="#000000" d="M774.5979,-615.632C854.5171,-604.9942 944.3168,-585.5236 959.1609,-551.0512"/>
<polygon fill="#000000" stroke="#000000" points="962.6574,-551.4315 961.2896,-540.9253 955.8072,-549.9914 962.6574,-551.4315"/>
</g>
<!-- c1 -->
<g id="node5" class="node">
<title>c1</title>
<polygon fill="#ffffff" stroke="#7f7f7f" points="212.3692,-386 .21,-386 .21,-96 212.3692,-96 212.3692,-386"/>
<text text-anchor="start" x="34.88" y="-368.6" font-family="Times,serif" font-size="16.00" fill="#000000">La laïcité garantit de</text>
<text text-anchor="start" x="8.768" y="-352.6" font-family="Times,serif" font-size="16.00" fill="#000000">manière plus fondamentale la</text>
<text text-anchor="start" x="17.9056" y="-336.6" font-family="Times,serif" font-weight="bold" font-size="16.00" fill="#000000">liberté de croire</text>
<text text-anchor="start" x="120.2848" y="-336.6" font-family="Times,serif" font-size="16.00" fill="#000000">   (défendre</text>
<text text-anchor="start" x="10.8864" y="-320.6" font-family="Times,serif" font-size="16.00" fill="#000000">la laïcité ce n'est pas militer</text>
<text text-anchor="start" x="25.7768" y="-304.6" font-family="Times,serif" font-size="16.00" fill="#000000">pour l'athéisme), car elle</text>
<text text-anchor="start" x="15.992" y="-288.6" font-family="Times,serif" font-size="16.00" fill="#000000">pose cette liberté comme un</text>
<text text-anchor="start" x="19.196" y="-272.6" font-family="Times,serif" font-weight="bold" font-size="16.00" fill="#000000">droit humain fondamental</text>
<text text-anchor="start" x="185.3832" y="-272.6" font-family="Times,serif" font-size="16.00" fill="#000000">  </text>
<text text-anchor="start" x="21.42" y="-256.6" font-family="Times,serif" font-size="16.00" fill="#000000">(et non comme une simple</text>
<text text-anchor="start" x="29.1248" y="-240.6" font-family="Times,serif" font-size="16.00" fill="#000000">faveur accordée par une</text>
<text text-anchor="start" x="48.196" y="-224.6" font-family="Times,serif" font-size="16.00" fill="#000000">autorité politique)</text>
<text text-anchor="start" x="18.66" y="-198.6" font-family="Times,serif" font-size="16.00" fill="#000000">La laïcité garantit aussi la</text>
<text text-anchor="start" x="8" y="-182.6" font-family="Times,serif" font-size="16.00" fill="#000000">liberté de </text>
<text text-anchor="start" x="73.0752" y="-182.6" font-family="Times,serif" font-weight="bold" font-size="16.00" fill="#000000">changer de religion</text>
<text text-anchor="start" x="196.5792" y="-182.6" font-family="Times,serif" font-size="16.00" fill="#000000">  </text>
<text text-anchor="start" x="17.3376" y="-166.6" font-family="Times,serif" font-size="16.00" fill="#000000">et la liberté de </text>
<text text-anchor="start" x="113.5104" y="-166.6" font-family="Times,serif" font-weight="bold" font-size="16.00" fill="#000000">ne pas croire</text>
<text text-anchor="start" x="13.4328" y="-150.6" font-family="Times,serif" font-size="16.00" fill="#000000">(un régime politique tolérant</text>
<text text-anchor="start" x="27.6544" y="-134.6" font-family="Times,serif" font-size="16.00" fill="#000000">envers d'autres religions</text>
<text text-anchor="start" x="25.8864" y="-118.6" font-family="Times,serif" font-size="16.00" fill="#000000">peut ne pas l'être envers</text>
<text text-anchor="start" x="23.5456" y="-102.6" font-family="Times,serif" font-size="16.00" fill="#000000">l'apostasie ou l'athéisme)</text>
</g>
<!-- b1&#45;&gt;c1 -->
<g id="edge4" class="edge">
<title>b1-&gt;c1</title>
<path fill="none" stroke="#000000" d="M269.0725,-433.9481C252.4636,-419.1837 234.6342,-402.4339 219.2896,-386 219.1467,-385.8469 219.0037,-385.6937 218.8608,-385.5402"/>
<polygon fill="#000000" stroke="#000000" points="221.7664,-383.5298 212.4252,-378.5305 216.6099,-388.2639 221.7664,-383.5298"/>
</g>
<!-- c2 -->
<g id="node6" class="node">
<title>c2</title>
<polygon fill="#ffffff" stroke="#7f7f7f" points="423.9747,-349 226.6045,-349 226.6045,-133 423.9747,-133 423.9747,-349"/>
<text text-anchor="start" x="250.3128" y="-331.6" font-family="Times,serif" font-size="16.00" fill="#000000">La laïcité interdit tout</text>
<text text-anchor="start" x="241.548" y="-315.6" font-family="Times,serif" font-weight="bold" font-size="16.00" fill="#000000">privilège</text>
<text text-anchor="start" x="304.6424" y="-315.6" font-family="Times,serif" font-size="16.00" fill="#000000"> en faveur d'une</text>
<text text-anchor="start" x="234.8808" y="-299.6" font-family="Times,serif" font-size="16.00" fill="#000000">religion particulière (ce qui</text>
<text text-anchor="start" x="243.992" y="-283.6" font-family="Times,serif" font-size="16.00" fill="#000000">interdit la reconnaissance</text>
<text text-anchor="start" x="246.6552" y="-267.6" font-family="Times,serif" font-size="16.00" fill="#000000">d'une religion officielle)</text>
<text text-anchor="start" x="240.6384" y="-251.6" font-family="Times,serif" font-size="16.00" fill="#000000">et toute </text>
<text text-anchor="start" x="292.1824" y="-251.6" font-family="Times,serif" font-weight="bold" font-size="16.00" fill="#000000">discrimination </text>
<text text-anchor="start" x="388.6144" y="-251.6" font-family="Times,serif" font-size="16.00" fill="#000000">   à</text>
<text text-anchor="start" x="245.7648" y="-235.6" font-family="Times,serif" font-size="16.00" fill="#000000">l'encontre d'une religion</text>
<text text-anchor="start" x="236.2048" y="-219.6" font-family="Times,serif" font-size="16.00" fill="#000000">(ce qui protège notamment</text>
<text text-anchor="start" x="241.0896" y="-203.6" font-family="Times,serif" font-size="16.00" fill="#000000">les religions minoritaires),</text>
<text text-anchor="start" x="245.664" y="-187.6" font-family="Times,serif" font-size="16.00" fill="#000000">alors que la tolérance est</text>
<text text-anchor="start" x="234.4472" y="-171.6" font-family="Times,serif" font-size="16.00" fill="#000000">compatible avec la croyance</text>
<text text-anchor="start" x="252.4376" y="-155.6" font-family="Times,serif" font-size="16.00" fill="#000000">en la supériorité d'une</text>
<text text-anchor="start" x="258.8696" y="-139.6" font-family="Times,serif" font-size="16.00" fill="#000000">religion particulière</text>
</g>
<!-- b1&#45;&gt;c2 -->
<g id="edge5" class="edge">
<title>b1-&gt;c2</title>
<path fill="none" stroke="#000000" d="M325.2896,-420.7197C325.2896,-402.023 325.2896,-380.728 325.2896,-359.4951"/>
<polygon fill="#000000" stroke="#000000" points="328.7897,-359.4222 325.2896,-349.4222 321.7897,-359.4223 328.7897,-359.4222"/>
</g>
<!-- c3 -->
<g id="node7" class="node">
<title>c3</title>
<polygon fill="#ffffff" stroke="#7f7f7f" points="652.3628,-341 438.2164,-341 438.2164,-141 652.3628,-141 652.3628,-341"/>
<text text-anchor="start" x="450.0056" y="-323.6" font-family="Times,serif" font-size="16.00" fill="#000000">La laïcité exige la neutralité</text>
<text text-anchor="start" x="466.8672" y="-307.6" font-family="Times,serif" font-size="16.00" fill="#000000">de </text>
<text text-anchor="start" x="485.9696" y="-307.6" font-family="Times,serif" font-weight="bold" font-size="16.00" fill="#000000">la puissance publique</text>
<text text-anchor="start" x="470.42" y="-291.6" font-family="Times,serif" font-size="16.00" fill="#000000">(puisqu'elle ne doit pas</text>
<text text-anchor="start" x="446.0032" y="-275.6" font-family="Times,serif" font-size="16.00" fill="#000000">discriminer entre les croyances</text>
<text text-anchor="start" x="454.44" y="-259.6" font-family="Times,serif" font-size="16.00" fill="#000000">religieuses ou l'incroyance),</text>
<text text-anchor="start" x="470.2064" y="-243.6" font-family="Times,serif" font-size="16.00" fill="#000000">mais elle n'exige pas la</text>
<text text-anchor="start" x="446.5544" y="-227.6" font-family="Times,serif" font-size="16.00" fill="#000000">neutralité de </text>
<text text-anchor="start" x="531.1784" y="-227.6" font-family="Times,serif" font-weight="bold" font-size="16.00" fill="#000000">l'espace public </text>
<text text-anchor="start" x="631.5784" y="-227.6" font-family="Times,serif" font-size="16.00" fill="#000000">  :</text>
<text text-anchor="start" x="448.2104" y="-211.6" font-family="Times,serif" font-size="16.00" fill="#000000">elle n'interdit pas l'expression</text>
<text text-anchor="start" x="470.6504" y="-195.6" font-family="Times,serif" font-size="16.00" fill="#000000">publique des croyances</text>
<text text-anchor="start" x="459.2088" y="-179.6" font-family="Times,serif" font-size="16.00" fill="#000000">religieuses ou de l'athéism</text>
<text text-anchor="start" x="456.0024" y="-163.6" font-family="Times,serif" font-size="16.00" fill="#000000">eet elle garantit au contraire</text>
<text text-anchor="start" x="446.3488" y="-147.6" font-family="Times,serif" font-size="16.00" fill="#000000">l'exercice de la liberté de culte</text>
</g>
<!-- b2&#45;&gt;c3 -->
<g id="edge6" class="edge">
<title>b2-&gt;c3</title>
<path fill="none" stroke="#000000" d="M620.1981,-422.568C611.2658,-400.9175 600.8192,-375.5963 590.6113,-350.8536"/>
<polygon fill="#000000" stroke="#000000" points="593.7637,-349.3173 586.7143,-341.4079 587.2927,-351.987 593.7637,-349.3173"/>
</g>
<!-- c4 -->
<g id="node8" class="node">
<title>c4</title>
<polygon fill="#ffffff" stroke="#7f7f7f" points="893.3612,-325 667.218,-325 667.218,-157 893.3612,-157 893.3612,-325"/>
<text text-anchor="start" x="698.4408" y="-307.6" font-family="Times,serif" font-size="16.00" fill="#000000">La laïcité n'exige pas la</text>
<text text-anchor="start" x="684.8928" y="-291.6" font-family="Times,serif" font-weight="bold" font-size="16.00" fill="#000000">sécularisation de la société </text>
<text text-anchor="start" x="863.24" y="-291.6" font-family="Times,serif" font-size="16.00" fill="#000000">  :</text>
<text text-anchor="start" x="704.1016" y="-275.6" font-family="Times,serif" font-size="16.00" fill="#000000">elle ne repose pas sur le</text>
<text text-anchor="start" x="687.76" y="-259.6" font-family="Times,serif" font-size="16.00" fill="#000000">déclin ou la privatisation des</text>
<text text-anchor="start" x="675.004" y="-243.6" font-family="Times,serif" font-size="16.00" fill="#000000">croyances religieuses ; elle exige</text>
<text text-anchor="start" x="679.1" y="-227.6" font-family="Times,serif" font-size="16.00" fill="#000000">simplement la </text>
<text text-anchor="start" x="773.308" y="-227.6" font-family="Times,serif" font-weight="bold" font-size="16.00" fill="#000000">sécularisation de</text>
<text text-anchor="start" x="675.3136" y="-211.6" font-family="Times,serif" font-weight="bold" font-size="16.00" fill="#000000">l'État</text>
<text text-anchor="start" x="710.408" y="-211.6" font-family="Times,serif" font-size="16.00" fill="#000000">, dont les décisions doivent</text>
<text text-anchor="start" x="688.9856" y="-195.6" font-family="Times,serif" font-size="16.00" fill="#000000">reposer sur des justifications</text>
<text text-anchor="start" x="686.3192" y="-179.6" font-family="Times,serif" font-size="16.00" fill="#000000">accessibles à tous, et non pas</text>
<text text-anchor="start" x="696.984" y="-163.6" font-family="Times,serif" font-size="16.00" fill="#000000">sur des raisons religieuses</text>
</g>
<!-- b2&#45;&gt;c4 -->
<g id="edge7" class="edge">
<title>b2-&gt;c4</title>
<path fill="none" stroke="#000000" d="M676.6922,-423.7905C691.8518,-397.0424 710.2987,-364.4942 727.4021,-334.3164"/>
<polygon fill="#000000" stroke="#000000" points="730.5375,-335.8825 732.4233,-325.4568 724.4476,-332.431 730.5375,-335.8825"/>
</g>
<!-- c5 -->
<g id="node9" class="node">
<title>c5</title>
<polygon fill="#ffffff" stroke="#7f7f7f" points="1138.9746,-370 907.6046,-370 907.6046,-112 1138.9746,-112 1138.9746,-370"/>
<text text-anchor="start" x="920.5584" y="-352.6" font-family="Times,serif" font-size="16.00" fill="#000000">La </text>
<text text-anchor="start" x="941.4352" y="-352.6" font-family="Times,serif" font-weight="bold" font-size="16.00" fill="#000000">laïcité dans les textes,</text>
<text text-anchor="start" x="1091.8208" y="-352.6" font-family="Times,serif" font-size="16.00" fill="#000000"> c'est</text>
<text text-anchor="start" x="934.8832" y="-336.6" font-family="Times,serif" font-size="16.00" fill="#000000">la laïcité juridique définie</text>
<text text-anchor="start" x="935.32" y="-320.6" font-family="Times,serif" font-size="16.00" fill="#000000">par des textes de droit : elle</text>
<text text-anchor="start" x="920.8864" y="-304.6" font-family="Times,serif" font-size="16.00" fill="#000000">correspond aux quatre principes</text>
<text text-anchor="start" x="943.0976" y="-288.6" font-family="Times,serif" font-size="16.00" fill="#000000">que nous avons dégagés.</text>
<text text-anchor="start" x="930.3344" y="-262.6" font-family="Times,serif" font-size="16.00" fill="#000000">La </text>
<text text-anchor="start" x="951.2112" y="-262.6" font-family="Times,serif" font-weight="bold" font-size="16.00" fill="#000000">laïcité dans les têtes</text>
<text text-anchor="start" x="1094.9232" y="-262.6" font-family="Times,serif" font-size="16.00" fill="#000000">fait</text>
<text text-anchor="start" x="938.6792" y="-246.6" font-family="Times,serif" font-size="16.00" fill="#000000">référence aux conceptions</text>
<text text-anchor="start" x="936.4304" y="-230.6" font-family="Times,serif" font-size="16.00" fill="#000000">particulières que l'on peut</text>
<text text-anchor="start" x="932.544" y="-214.6" font-family="Times,serif" font-size="16.00" fill="#000000">avoir de la laïcité : on peut</text>
<text text-anchor="start" x="927.4256" y="-198.6" font-family="Times,serif" font-size="16.00" fill="#000000">militer pour une laïcité plus </text>
<text text-anchor="start" x="919.772" y="-182.6" font-family="Times,serif" font-size="16.00" fill="#000000">“ouverte”, ou au contraire, une</text>
<text text-anchor="start" x="920.0896" y="-166.6" font-family="Times,serif" font-size="16.00" fill="#000000">laïcité plus “stricte”, ou plus </text>
<text text-anchor="start" x="928.2" y="-150.6" font-family="Times,serif" font-size="16.00" fill="#000000">“interventionniste” mais ces</text>
<text text-anchor="start" x="915.4472" y="-134.6" font-family="Times,serif" font-size="16.00" fill="#000000">conceptions ne peuvent prétendre</text>
<text text-anchor="start" x="936.004" y="-118.6" font-family="Times,serif" font-size="16.00" fill="#000000">définir ce qu'est la laïcité</text>
</g>
<!-- b3&#45;&gt;c5 -->
<g id="edge8" class="edge">
<title>b3-&gt;c5</title>
<path fill="none" stroke="#000000" d="M976.6154,-421.646C979.9369,-408.7907 983.5842,-394.6745 987.3306,-380.1744"/>
<polygon fill="#000000" stroke="#000000" points="990.8244,-380.6429 989.9374,-370.0853 984.047,-378.8918 990.8244,-380.6429"/>
</g>
<!-- e1 -->
<g id="node10" class="node">
<title>e1</title>
<path fill="#fafafa" stroke="transparent" d="M170.0458,-72C170.0458,-72 42.5334,-72 42.5334,-72 36.5334,-72 30.5334,-66 30.5334,-60 30.5334,-60 30.5334,-28 30.5334,-28 30.5334,-22 36.5334,-16 42.5334,-16 42.5334,-16 170.0458,-16 170.0458,-16 176.0458,-16 182.0458,-22 182.0458,-28 182.0458,-28 182.0458,-60 182.0458,-60 182.0458,-66 176.0458,-72 170.0458,-72"/>
<text text-anchor="start" x="38.7688" y="-54.6" font-family="Times,serif" font-size="16.00" fill="#cd2626">La laïcité se définit</text>
<text text-anchor="start" x="42.7632" y="-38.6" font-family="Times,serif" font-size="16.00" fill="#cd2626">par le principe de la</text>
<text text-anchor="start" x="38.6616" y="-22.6" font-family="Times,serif" font-weight="bold" font-size="16.00" fill="#cd2626">liberté de conscience</text>
</g>
<!-- c1&#45;&gt;e1 -->
<!-- e2 -->
<g id="node11" class="node">
<title>e2</title>
<path fill="#fafafa" stroke="transparent" d="M408.8088,-72C408.8088,-72 241.7704,-72 241.7704,-72 235.7704,-72 229.7704,-66 229.7704,-60 229.7704,-60 229.7704,-28 229.7704,-28 229.7704,-22 235.7704,-16 241.7704,-16 241.7704,-16 408.8088,-16 408.8088,-16 414.8088,-16 420.8088,-22 420.8088,-28 420.8088,-28 420.8088,-60 420.8088,-60 420.8088,-66 414.8088,-72 408.8088,-72"/>
<text text-anchor="start" x="237.78" y="-54.6" font-family="Times,serif" font-size="16.00" fill="#cd2626">La laïcité se définit par le</text>
<text text-anchor="start" x="240.8888" y="-38.6" font-family="Times,serif" font-size="16.00" fill="#cd2626">principe de </text>
<text text-anchor="start" x="316.4152" y="-38.6" font-family="Times,serif" font-weight="bold" font-size="16.00" fill="#cd2626">l'égalité </text>
<text text-anchor="start" x="375.0392" y="-38.6" font-family="Times,serif" font-size="16.00" fill="#cd2626"> et de</text>
<text text-anchor="start" x="250.636" y="-22.6" font-family="Times,serif" font-weight="bold" font-size="16.00" fill="#cd2626">la non-discrimination   </text>
</g>
<!-- c2&#45;&gt;e2 -->
<!-- e3 -->
<g id="node12" class="node">
<title>e3</title>
<path fill="#fafafa" stroke="transparent" d="M628.8088,-80C628.8088,-80 461.7704,-80 461.7704,-80 455.7704,-80 449.7704,-74 449.7704,-68 449.7704,-68 449.7704,-20 449.7704,-20 449.7704,-14 455.7704,-8 461.7704,-8 461.7704,-8 628.8088,-8 628.8088,-8 634.8088,-8 640.8088,-14 640.8088,-20 640.8088,-20 640.8088,-68 640.8088,-68 640.8088,-74 634.8088,-80 628.8088,-80"/>
<text text-anchor="start" x="457.78" y="-62.6" font-family="Times,serif" font-size="16.00" fill="#cd2626">La laïcité se définit par le</text>
<text text-anchor="start" x="468.9912" y="-46.6" font-family="Times,serif" font-size="16.00" fill="#cd2626">principe de la </text>
<text text-anchor="start" x="560.0664" y="-46.6" font-family="Times,serif" font-weight="bold" font-size="16.00" fill="#cd2626">neutralité</text>
<text text-anchor="start" x="464.8672" y="-30.6" font-family="Times,serif" font-weight="bold" font-size="16.00" fill="#cd2626">de la puissance publique </text>
<text text-anchor="start" x="483.7632" y="-14.6" font-family="Times,serif" font-size="16.00" fill="#cd2626">(≠ l'espace public)</text>
</g>
<!-- c3&#45;&gt;e3 -->
<!-- e4 -->
<g id="node13" class="node">
<title>e4</title>
<path fill="#fafafa" stroke="transparent" d="M892.2332,-88C892.2332,-88 668.346,-88 668.346,-88 662.346,-88 656.346,-82 656.346,-76 656.346,-76 656.346,-12 656.346,-12 656.346,-6 662.346,0 668.346,0 668.346,0 892.2332,0 892.2332,0 898.2332,0 904.2332,-6 904.2332,-12 904.2332,-12 904.2332,-76 904.2332,-76 904.2332,-82 898.2332,-88 892.2332,-88"/>
<text text-anchor="start" x="664.568" y="-70.6" font-family="Times,serif" font-size="16.00" fill="#cd2626">La laïcité se définit par le principe</text>
<text text-anchor="start" x="675.1144" y="-54.6" font-family="Times,serif" font-size="16.00" fill="#cd2626">de la </text>
<text text-anchor="start" x="709.7656" y="-54.6" font-family="Times,serif" font-weight="bold" font-size="16.00" fill="#cd2626">séparation de l'État et de    </text>
<text text-anchor="start" x="671.8664" y="-38.6" font-family="Times,serif" font-weight="bold" font-size="16.00" fill="#cd2626">la religion  </text>
<text text-anchor="start" x="745.1832" y="-38.6" font-family="Times,serif" font-size="16.00" fill="#cd2626"> : la religion n'est plus</text>
<text text-anchor="start" x="675.4496" y="-22.6" font-family="Times,serif" font-size="16.00" fill="#cd2626">considérée comme le fondement</text>
<text text-anchor="start" x="701.8672" y="-6.6" font-family="Times,serif" font-size="16.00" fill="#cd2626">de la puissance publique</text>
</g>
<!-- c4&#45;&gt;e4 -->
</g>
</svg>