<?xml version="1.0" encoding="UTF-8" standalone="no"?><!DOCTYPE svg PUBLIC "-//W3C//DTD SVG 1.1//EN" "http://www.w3.org/Graphics/SVG/1.1/DTD/svg11.dtd"><!-- Generated by graphviz version 2.40.1 (20161225.0304)
 --><!-- Title: G Pages: 1 --><svg xmlns="http://www.w3.org/2000/svg" xmlns:xlink="http://www.w3.org/1999/xlink" width="1258pt" height="782pt" viewBox="0.00 0.00 1257.88 782.28">
<g id="graph0" class="graph" transform="scale(1 1) rotate(0) translate(21.6 760.6801)">
<title>G</title>
<polygon fill="#fafafa" stroke="transparent" points="-21.6,21.6 -21.6,-760.6801 1236.2792,-760.6801 1236.2792,21.6 -21.6,21.6"/>
<!-- a1 -->
<g id="node1" class="node">
<title>a1</title>
<ellipse fill="#000000" stroke="#000000" cx="652.2848" cy="-687.6027" rx="133.7072" ry="51.4548"/>
<text text-anchor="middle" x="652.2848" y="-703.8027" font-family="Times,serif" font-size="18.00" fill="#ffffff">Quelques distinctions</text>
<text text-anchor="middle" x="652.2848" y="-682.2027" font-family="Times,serif" font-size="18.00" fill="#ffffff">pour mieux comprendre</text>
<text text-anchor="middle" x="652.2848" y="-660.6027" font-family="Times,serif" font-size="18.00" fill="#ffffff">la notion de laïcité</text>
</g>
<!-- b1 -->
<g id="node2" class="node">
<title>b1</title>
<ellipse fill="#8b0000" stroke="#000000" cx="333.2848" cy="-541.1627" rx="100.2144" ry="46.2727"/>
<text text-anchor="middle" x="333.2848" y="-555.5627" font-family="Times,serif" font-size="16.00" fill="#ffffff">La laïcité va plus</text>
<text text-anchor="middle" x="333.2848" y="-536.3627" font-family="Times,serif" font-size="16.00" fill="#ffffff">loin que la simple</text>
<text text-anchor="middle" x="333.2848" y="-517.1627" font-family="Times,serif" font-size="16.00" fill="#ffffff">tolérance religieuse</text>
</g>
<!-- a1&#45;&gt;b1 -->
<g id="edge1" class="edge">
<title>a1-&gt;b1:n</title>
<path fill="none" stroke="#000000" d="M525.291,-671.2274C443.6295,-657.3164 350.0962,-633.7011 335.3004,-597.2456"/>
<polygon fill="#000000" stroke="#000000" points="338.6772,-596.2825 333.2848,-587.1627 331.813,-597.6548 338.6772,-596.2825"/>
</g>
<!-- b2 -->
<g id="node3" class="node">
<title>b2</title>
<ellipse fill="#8b0000" stroke="#000000" cx="652.2848" cy="-541.1627" rx="101.8572" ry="59.9253"/>
<text text-anchor="middle" x="652.2848" y="-565.1627" font-family="Times,serif" font-size="16.00" fill="#ffffff">La laïcité, ce n'est</text>
<text text-anchor="middle" x="652.2848" y="-545.9627" font-family="Times,serif" font-size="16.00" fill="#ffffff">pas la réduction</text>
<text text-anchor="middle" x="652.2848" y="-526.7627" font-family="Times,serif" font-size="16.00" fill="#ffffff">de la religion à la</text>
<text text-anchor="middle" x="652.2848" y="-507.5627" font-family="Times,serif" font-size="16.00" fill="#ffffff">sphère privée</text>
</g>
<!-- a1&#45;&gt;b2 -->
<g id="edge2" class="edge">
<title>a1-&gt;b2:n</title>
<path fill="none" stroke="#000000" d="M652.2848,-635.93C652.2848,-627.8723 652.2848,-619.5056 652.2848,-611.3339"/>
<polygon fill="#000000" stroke="#000000" points="655.7849,-611.1253 652.2848,-601.1253 648.7849,-611.1253 655.7849,-611.1253"/>
</g>
<!-- b3 -->
<g id="node4" class="node">
<title>b3</title>
<ellipse fill="#8b0000" stroke="#000000" cx="994.2848" cy="-541.1627" rx="97.7093" ry="59.9253"/>
<text text-anchor="middle" x="994.2848" y="-565.1627" font-family="Times,serif" font-size="16.00" fill="#ffffff">Il faut distinguer</text>
<text text-anchor="middle" x="994.2848" y="-545.9627" font-family="Times,serif" font-size="16.00" fill="#ffffff">la laïcité dans les</text>
<text text-anchor="middle" x="994.2848" y="-526.7627" font-family="Times,serif" font-size="16.00" fill="#ffffff">textes et la laïcité</text>
<text text-anchor="middle" x="994.2848" y="-507.5627" font-family="Times,serif" font-size="16.00" fill="#ffffff">dans les têtes</text>
</g>
<!-- a1&#45;&gt;b3 -->
<g id="edge3" class="edge">
<title>a1-&gt;b3:n</title>
<path fill="none" stroke="#000000" d="M784.0217,-678.5612C872.8377,-669.0037 976.592,-649.7093 992.2616,-611.3062"/>
<polygon fill="#000000" stroke="#000000" points="995.7684,-611.6157 994.2848,-601.1253 988.9027,-610.2513 995.7684,-611.6157"/>
</g>
<!-- c1 -->
<g id="node5" class="node">
<title>c1</title>
<polygon fill="#ffffff" stroke="#7f7f7f" points="220.3548,-446.3001 .2148,-446.3001 .2148,-111.8999 220.3548,-111.8999 220.3548,-446.3001"/>
<text text-anchor="middle" x="110.2848" y="-427.8" font-family="Times,serif" font-size="16.00" fill="#000000">La laïcité garantit de manière</text>
<text text-anchor="middle" x="110.2848" y="-408.6" font-family="Times,serif" font-size="16.00" fill="#000000">plus fondamentale la liberté de</text>
<text text-anchor="middle" x="110.2848" y="-389.4" font-family="Times,serif" font-size="16.00" fill="#000000">croire (être laïc, ce n'est pas</text>
<text text-anchor="middle" x="110.2848" y="-370.2" font-family="Times,serif" font-size="16.00" fill="#000000">militer pour l'athéisme), car</text>
<text text-anchor="middle" x="110.2848" y="-351" font-family="Times,serif" font-size="16.00" fill="#000000">elle pose cette liberté comme</text>
<text text-anchor="middle" x="110.2848" y="-331.8" font-family="Times,serif" font-size="16.00" fill="#000000">un droit humain fondamental</text>
<text text-anchor="middle" x="110.2848" y="-312.6" font-family="Times,serif" font-size="16.00" fill="#000000">(et non comme un simple</text>
<text text-anchor="middle" x="110.2848" y="-293.4" font-family="Times,serif" font-size="16.00" fill="#000000">droit accordé par une</text>
<text text-anchor="middle" x="110.2848" y="-274.2" font-family="Times,serif" font-size="16.00" fill="#000000">autorité politique)</text>
<text text-anchor="middle" x="110.2848" y="-236" font-family="Times,serif" font-size="16.00" fill="#000000">La laïcité garantit aussi la</text>
<text text-anchor="middle" x="110.2848" y="-216.8" font-family="Times,serif" font-size="16.00" fill="#000000">liberté de changer de religion,</text>
<text text-anchor="middle" x="110.2848" y="-197.6" font-family="Times,serif" font-size="16.00" fill="#000000">et la liberté de ne pas croire</text>
<text text-anchor="middle" x="110.2848" y="-178.4" font-family="Times,serif" font-size="16.00" fill="#000000">(un régime politique tolérant</text>
<text text-anchor="middle" x="110.2848" y="-159.2" font-family="Times,serif" font-size="16.00" fill="#000000">envers d'autres religions</text>
<text text-anchor="middle" x="110.2848" y="-140" font-family="Times,serif" font-size="16.00" fill="#000000">peut ne pas l'être envers</text>
<text text-anchor="middle" x="110.2848" y="-120.8" font-family="Times,serif" font-size="16.00" fill="#000000">l'apostasie ou l'athéisme)</text>
</g>
<!-- b1&#45;&gt;c1 -->
<g id="edge4" class="edge">
<title>b1-&gt;c1</title>
<path fill="none" stroke="#000000" d="M283.5862,-500.8153C265.0265,-484.701 244.3354,-465.424 227.2848,-446.2 227.1453,-446.0427 227.0058,-445.8852 226.8663,-445.7276"/>
<polygon fill="#000000" stroke="#000000" points="229.8068,-443.7752 220.6039,-438.5257 224.5245,-448.3685 229.8068,-443.7752"/>
</g>
<!-- c2 -->
<g id="node6" class="node">
<title>c2</title>
<polygon fill="#ffffff" stroke="#7f7f7f" points="431.9699,-407.7003 234.5997,-407.7003 234.5997,-150.4997 431.9699,-150.4997 431.9699,-407.7003"/>
<text text-anchor="middle" x="333.2848" y="-389.5" font-family="Times,serif" font-size="16.00" fill="#000000">La laïcité interdit tout</text>
<text text-anchor="middle" x="333.2848" y="-370.3" font-family="Times,serif" font-size="16.00" fill="#000000">privilège en faveur d'une</text>
<text text-anchor="middle" x="333.2848" y="-351.1" font-family="Times,serif" font-size="16.00" fill="#000000">religion particulière (ce qui</text>
<text text-anchor="middle" x="333.2848" y="-331.9" font-family="Times,serif" font-size="16.00" fill="#000000">interdit la reconnaissance</text>
<text text-anchor="middle" x="333.2848" y="-312.7" font-family="Times,serif" font-size="16.00" fill="#000000">d'une religion officielle)</text>
<text text-anchor="middle" x="333.2848" y="-293.5" font-family="Times,serif" font-size="16.00" fill="#000000">et toute discrimination à</text>
<text text-anchor="middle" x="333.2848" y="-274.3" font-family="Times,serif" font-size="16.00" fill="#000000">l'encontre d'une religion</text>
<text text-anchor="middle" x="333.2848" y="-255.1" font-family="Times,serif" font-size="16.00" fill="#000000">(ce qui protège notamment</text>
<text text-anchor="middle" x="333.2848" y="-235.9" font-family="Times,serif" font-size="16.00" fill="#000000">les religions minoritaires),</text>
<text text-anchor="middle" x="333.2848" y="-216.7" font-family="Times,serif" font-size="16.00" fill="#000000">alors que la tolérance est</text>
<text text-anchor="middle" x="333.2848" y="-197.5" font-family="Times,serif" font-size="16.00" fill="#000000">compatible avec la croyance</text>
<text text-anchor="middle" x="333.2848" y="-178.3" font-family="Times,serif" font-size="16.00" fill="#000000">en la supériorité d'une</text>
<text text-anchor="middle" x="333.2848" y="-159.1" font-family="Times,serif" font-size="16.00" fill="#000000">religion particulière</text>
</g>
<!-- b1&#45;&gt;c2 -->
<g id="edge5" class="edge">
<title>b1-&gt;c2</title>
<path fill="none" stroke="#000000" d="M333.2848,-494.6131C333.2848,-472.8678 333.2848,-445.7111 333.2848,-418.0813"/>
<polygon fill="#000000" stroke="#000000" points="336.7849,-417.8896 333.2848,-407.8896 329.7849,-417.8897 336.7849,-417.8896"/>
</g>
<!-- c3 -->
<g id="node7" class="node">
<title>c3</title>
<polygon fill="#ffffff" stroke="#7f7f7f" points="660.358,-398.5003 446.2116,-398.5003 446.2116,-159.6997 660.358,-159.6997 660.358,-398.5003"/>
<text text-anchor="middle" x="553.2848" y="-379.9" font-family="Times,serif" font-size="16.00" fill="#000000">La laïcité exige la neutralité</text>
<text text-anchor="middle" x="553.2848" y="-360.7" font-family="Times,serif" font-size="16.00" fill="#000000">de la puissance publique</text>
<text text-anchor="middle" x="553.2848" y="-341.5" font-family="Times,serif" font-size="16.00" fill="#000000">(puisqu'elle ne doit pas</text>
<text text-anchor="middle" x="553.2848" y="-322.3" font-family="Times,serif" font-size="16.00" fill="#000000">discriminer entre les croyances</text>
<text text-anchor="middle" x="553.2848" y="-303.1" font-family="Times,serif" font-size="16.00" fill="#000000">religieuses ou l'incroyance),</text>
<text text-anchor="middle" x="553.2848" y="-283.9" font-family="Times,serif" font-size="16.00" fill="#000000">mais elle n'exige pas la</text>
<text text-anchor="middle" x="553.2848" y="-264.7" font-family="Times,serif" font-size="16.00" fill="#000000">neutralité de l'espace public :</text>
<text text-anchor="middle" x="553.2848" y="-245.5" font-family="Times,serif" font-size="16.00" fill="#000000">elle n'interdit pas l'expression</text>
<text text-anchor="middle" x="553.2848" y="-226.3" font-family="Times,serif" font-size="16.00" fill="#000000">publique des croyances</text>
<text text-anchor="middle" x="553.2848" y="-207.1" font-family="Times,serif" font-size="16.00" fill="#000000">religieuses ou de l'athéisme</text>
<text text-anchor="middle" x="553.2848" y="-187.9" font-family="Times,serif" font-size="16.00" fill="#000000">et elle garantit au contraire</text>
<text text-anchor="middle" x="553.2848" y="-168.7" font-family="Times,serif" font-size="16.00" fill="#000000">l'exercice de la liberté de culte</text>
</g>
<!-- b2&#45;&gt;c3 -->
<g id="edge6" class="edge">
<title>b2-&gt;c3</title>
<path fill="none" stroke="#000000" d="M630.0673,-482.3507C621.6897,-460.1743 611.7958,-433.9843 601.9462,-407.9116"/>
<polygon fill="#000000" stroke="#000000" points="605.1305,-406.4366 598.3223,-398.3188 598.5822,-408.9104 605.1305,-406.4366"/>
</g>
<!-- c4 -->
<g id="node8" class="node">
<title>c4</title>
<polygon fill="#ffffff" stroke="#7f7f7f" points="901.3564,-379.1 675.2132,-379.1 675.2132,-179.1 901.3564,-179.1 901.3564,-379.1"/>
<text text-anchor="middle" x="788.2848" y="-360.7" font-family="Times,serif" font-size="16.00" fill="#000000">La laïcité n'exige pas la</text>
<text text-anchor="middle" x="788.2848" y="-341.5" font-family="Times,serif" font-size="16.00" fill="#000000">sécularisation de la société :</text>
<text text-anchor="middle" x="788.2848" y="-322.3" font-family="Times,serif" font-size="16.00" fill="#000000">elle ne repose pas sur le</text>
<text text-anchor="middle" x="788.2848" y="-303.1" font-family="Times,serif" font-size="16.00" fill="#000000">déclin ou la privatisation des</text>
<text text-anchor="middle" x="788.2848" y="-283.9" font-family="Times,serif" font-size="16.00" fill="#000000">croyances religieuses ; elle exige</text>
<text text-anchor="middle" x="788.2848" y="-264.7" font-family="Times,serif" font-size="16.00" fill="#000000">simplement la sécularisation de</text>
<text text-anchor="middle" x="788.2848" y="-245.5" font-family="Times,serif" font-size="16.00" fill="#000000">l'État, dont les décisions doivent</text>
<text text-anchor="middle" x="788.2848" y="-226.3" font-family="Times,serif" font-size="16.00" fill="#000000">reposer sur des justifications</text>
<text text-anchor="middle" x="788.2848" y="-207.1" font-family="Times,serif" font-size="16.00" fill="#000000">accessibles à tous, et non pas</text>
<text text-anchor="middle" x="788.2848" y="-187.9" font-family="Times,serif" font-size="16.00" fill="#000000">sur des raisons religieuses</text>
</g>
<!-- b2&#45;&gt;c4 -->
<g id="edge7" class="edge">
<title>b2-&gt;c4</title>
<path fill="none" stroke="#000000" d="M682.1306,-483.6519C696.6393,-455.6946 714.5743,-421.1351 731.5465,-388.4308"/>
<polygon fill="#000000" stroke="#000000" points="734.8046,-389.7509 736.3043,-379.2628 728.5914,-386.5265 734.8046,-389.7509"/>
</g>
<!-- c5 -->
<g id="node9" class="node">
<title>c5</title>
<polygon fill="#ffffff" stroke="#7f7f7f" points="1214.5737,-408.0003 915.9959,-408.0003 915.9959,-150.1997 1214.5737,-150.1997 1214.5737,-408.0003"/>
<text text-anchor="middle" x="1065.2848" y="-389.4" font-family="Times,serif" font-size="16.00" fill="#000000">La laïcité dans les textes, c'est</text>
<text text-anchor="middle" x="1065.2848" y="-370.2" font-family="Times,serif" font-size="16.00" fill="#000000">la laïcité juridique définie par des</text>
<text text-anchor="middle" x="1065.2848" y="-351" font-family="Times,serif" font-size="16.00" fill="#000000">textes de droit : elle correspond aux</text>
<text text-anchor="middle" x="1065.2848" y="-331.8" font-family="Times,serif" font-size="16.00" fill="#000000">quatre principes que nous avons dégagés.</text>
<text text-anchor="middle" x="1065.2848" y="-293.6" font-family="Times,serif" font-size="16.00" fill="#000000">La laïcité dans les têtes fait référence</text>
<text text-anchor="middle" x="1065.2848" y="-274.4" font-family="Times,serif" font-size="16.00" fill="#000000">aux conceptions particulières que</text>
<text text-anchor="middle" x="1065.2848" y="-255.2" font-family="Times,serif" font-size="16.00" fill="#000000">l'on peut avoir de la laïcité : on peut</text>
<text text-anchor="middle" x="1065.2848" y="-236" font-family="Times,serif" font-size="16.00" fill="#000000">militer pour une laïcité plus “ouverte”,</text>
<text text-anchor="middle" x="1065.2848" y="-216.8" font-family="Times,serif" font-size="16.00" fill="#000000">ou au contraire, une laïcité plus “stricte”,</text>
<text text-anchor="middle" x="1065.2848" y="-197.6" font-family="Times,serif" font-size="16.00" fill="#000000">ou plus “interventionniste” mais ces</text>
<text text-anchor="middle" x="1065.2848" y="-178.4" font-family="Times,serif" font-size="16.00" fill="#000000">conceptions ne peuvent prétendre définir</text>
<text text-anchor="middle" x="1065.2848" y="-159.2" font-family="Times,serif" font-size="16.00" fill="#000000">ce qu'est la laïcité</text>
</g>
<!-- b3&#45;&gt;c5 -->
<g id="edge8" class="edge">
<title>b3-&gt;c5</title>
<path fill="none" stroke="#000000" d="M1010.3958,-481.6966C1015.6226,-462.4045 1021.6582,-440.1267 1027.7737,-417.5542"/>
<polygon fill="#000000" stroke="#000000" points="1031.1606,-418.4374 1030.3974,-407.8701 1024.4041,-416.6069 1031.1606,-418.4374"/>
</g>
<!-- e1 -->
<g id="node10" class="node">
<title>e1</title>
<path fill="#fafafa" stroke="transparent" d="M180.3821,-84.6012C180.3821,-84.6012 40.1875,-84.6012 40.1875,-84.6012 34.1875,-84.6012 28.1875,-78.6012 28.1875,-72.6012 28.1875,-72.6012 28.1875,-31.3988 28.1875,-31.3988 28.1875,-25.3988 34.1875,-19.3988 40.1875,-19.3988 40.1875,-19.3988 180.3821,-19.3988 180.3821,-19.3988 186.3821,-19.3988 192.3821,-25.3988 192.3821,-31.3988 192.3821,-31.3988 192.3821,-72.6012 192.3821,-72.6012 192.3821,-78.6012 186.3821,-84.6012 180.3821,-84.6012"/>
<text text-anchor="middle" x="110.2848" y="-66.4" font-family="Times,serif" font-size="16.00" fill="#cd2626">La laïcité repose sur</text>
<text text-anchor="middle" x="110.2848" y="-47.2" font-family="Times,serif" font-size="16.00" fill="#cd2626">le principe de la liberté</text>
<text text-anchor="middle" x="110.2848" y="-28" font-family="Times,serif" font-size="16.00" fill="#cd2626">de concience</text>
</g>
<!-- c1&#45;&gt;e1 -->
<!-- e2 -->
<g id="node11" class="node">
<title>e2</title>
<path fill="#fafafa" stroke="transparent" d="M411.5865,-84.6012C411.5865,-84.6012 254.9831,-84.6012 254.9831,-84.6012 248.9831,-84.6012 242.9831,-78.6012 242.9831,-72.6012 242.9831,-72.6012 242.9831,-31.3988 242.9831,-31.3988 242.9831,-25.3988 248.9831,-19.3988 254.9831,-19.3988 254.9831,-19.3988 411.5865,-19.3988 411.5865,-19.3988 417.5865,-19.3988 423.5865,-25.3988 423.5865,-31.3988 423.5865,-31.3988 423.5865,-72.6012 423.5865,-72.6012 423.5865,-78.6012 417.5865,-84.6012 411.5865,-84.6012"/>
<text text-anchor="middle" x="333.2848" y="-66.4" font-family="Times,serif" font-size="16.00" fill="#cd2626">La laïcité repose sur le</text>
<text text-anchor="middle" x="333.2848" y="-47.2" font-family="Times,serif" font-size="16.00" fill="#cd2626">principe de l'égalité et de</text>
<text text-anchor="middle" x="333.2848" y="-28" font-family="Times,serif" font-size="16.00" fill="#cd2626">la non-discrimination</text>
</g>
<!-- c2&#45;&gt;e2 -->
<!-- e3 -->
<g id="node12" class="node">
<title>e3</title>
<path fill="#fafafa" stroke="transparent" d="M627.6297,-94.3002C627.6297,-94.3002 478.9399,-94.3002 478.9399,-94.3002 472.9399,-94.3002 466.9399,-88.3002 466.9399,-82.3002 466.9399,-82.3002 466.9399,-21.6998 466.9399,-21.6998 466.9399,-15.6998 472.9399,-9.6998 478.9399,-9.6998 478.9399,-9.6998 627.6297,-9.6998 627.6297,-9.6998 633.6297,-9.6998 639.6297,-15.6998 639.6297,-21.6998 639.6297,-21.6998 639.6297,-82.3002 639.6297,-82.3002 639.6297,-88.3002 633.6297,-94.3002 627.6297,-94.3002"/>
<text text-anchor="middle" x="553.2848" y="-76" font-family="Times,serif" font-size="16.00" fill="#cd2626">La laïcité repose sur le</text>
<text text-anchor="middle" x="553.2848" y="-56.8" font-family="Times,serif" font-size="16.00" fill="#cd2626">principe de la neutralité</text>
<text text-anchor="middle" x="553.2848" y="-37.6" font-family="Times,serif" font-size="16.00" fill="#cd2626">de la puissance publique</text>
<text text-anchor="middle" x="553.2848" y="-18.4" font-family="Times,serif" font-size="16.00" fill="#cd2626">(≠ l'espace public)</text>
</g>
<!-- c3&#45;&gt;e3 -->
<!-- e4 -->
<g id="node13" class="node">
<title>e4</title>
<path fill="#fafafa" stroke="transparent" d="M890.4064,-104C890.4064,-104 686.1632,-104 686.1632,-104 680.1632,-104 674.1632,-98 674.1632,-92 674.1632,-92 674.1632,-12 674.1632,-12 674.1632,-6 680.1632,0 686.1632,0 686.1632,0 890.4064,0 890.4064,0 896.4064,0 902.4064,-6 902.4064,-12 902.4064,-12 902.4064,-92 902.4064,-92 902.4064,-98 896.4064,-104 890.4064,-104"/>
<text text-anchor="middle" x="788.2848" y="-85.6" font-family="Times,serif" font-size="16.00" fill="#cd2626">La laïcité repose sur le principe</text>
<text text-anchor="middle" x="788.2848" y="-66.4" font-family="Times,serif" font-size="16.00" fill="#cd2626">de la séparation de l'État et de</text>
<text text-anchor="middle" x="788.2848" y="-47.2" font-family="Times,serif" font-size="16.00" fill="#cd2626">la religion : la religion n'est plus</text>
<text text-anchor="middle" x="788.2848" y="-28" font-family="Times,serif" font-size="16.00" fill="#cd2626">considérée comme le fondement</text>
<text text-anchor="middle" x="788.2848" y="-8.8" font-family="Times,serif" font-size="16.00" fill="#cd2626">de la puissance publique</text>
</g>
<!-- c4&#45;&gt;e4 -->
</g>
</svg>