<?xml version="1.0" encoding="UTF-8" standalone="no"?><!DOCTYPE svg PUBLIC "-//W3C//DTD SVG 1.1//EN" "http://www.w3.org/Graphics/SVG/1.1/DTD/svg11.dtd"><!-- Generated by graphviz version 2.40.1 (20161225.0304)
 --><!-- Title: G Pages: 1 --><svg xmlns="http://www.w3.org/2000/svg" xmlns:xlink="http://www.w3.org/1999/xlink" width="1223pt" height="712pt" viewBox="0.00 0.00 1223.45 712.08">
<g id="graph0" class="graph" transform="scale(1 1) rotate(0) translate(21.6 690.4801)">
<title>G</title>
<polygon fill="#fafafa" stroke="transparent" points="-21.6,21.6 -21.6,-690.4801 1201.8479,-690.4801 1201.8479,21.6 -21.6,21.6"/>
<!-- a1 -->
<g id="node1" class="node">
<title>a1</title>
<ellipse fill="#000000" stroke="#000000" cx="490.5263" cy="-617.4027" rx="133.7072" ry="51.4548"/>
<text text-anchor="middle" x="490.5263" y="-633.6027" font-family="Times,serif" font-size="18.00" fill="#ffffff">Quelques distinctions</text>
<text text-anchor="middle" x="490.5263" y="-612.0027" font-family="Times,serif" font-size="18.00" fill="#ffffff">pour mieux comprendre</text>
<text text-anchor="middle" x="490.5263" y="-590.4027" font-family="Times,serif" font-size="18.00" fill="#ffffff">la notion de laïcité</text>
</g>
<!-- b1 -->
<g id="node2" class="node">
<title>b1</title>
<ellipse fill="#8b0000" stroke="#000000" cx="130.5263" cy="-470.9627" rx="130.5525" ry="59.9253"/>
<text text-anchor="middle" x="130.5263" y="-494.9627" font-family="Times,serif" font-size="16.00" fill="#ffffff">Il faut distinguer les</text>
<text text-anchor="middle" x="130.5263" y="-475.7627" font-family="Times,serif" font-size="16.00" fill="#ffffff">conceptions particulières</text>
<text text-anchor="middle" x="130.5263" y="-456.5627" font-family="Times,serif" font-size="16.00" fill="#ffffff">de la laïcité et les grands</text>
<text text-anchor="middle" x="130.5263" y="-437.3627" font-family="Times,serif" font-size="16.00" fill="#ffffff">principes de la laïcité</text>
</g>
<!-- a1&#45;&gt;b1 -->
<g id="edge1" class="edge">
<title>a1-&gt;b1:n</title>
<path fill="none" stroke="#000000" d="M358.0092,-610.1384C262.7794,-601.4293 148.453,-582.4017 132.4266,-541.0105"/>
<polygon fill="#000000" stroke="#000000" points="135.8175,-540.1043 130.5263,-530.9253 128.9385,-541.4005 135.8175,-540.1043"/>
</g>
<!-- b2 -->
<g id="node3" class="node">
<title>b2</title>
<ellipse fill="#8b0000" stroke="#000000" cx="490.5263" cy="-470.9627" rx="89.596" ry="59.9253"/>
<text text-anchor="middle" x="490.5263" y="-494.9627" font-family="Times,serif" font-size="16.00" fill="#ffffff">La laïcité</text>
<text text-anchor="middle" x="490.5263" y="-475.7627" font-family="Times,serif" font-size="16.00" fill="#ffffff">se distingue de la</text>
<text text-anchor="middle" x="490.5263" y="-456.5627" font-family="Times,serif" font-size="16.00" fill="#ffffff">simple tolérance</text>
<text text-anchor="middle" x="490.5263" y="-437.3627" font-family="Times,serif" font-size="16.00" fill="#ffffff">religieuse</text>
</g>
<!-- a1&#45;&gt;b2 -->
<g id="edge2" class="edge">
<title>a1-&gt;b2:n</title>
<path fill="none" stroke="#000000" d="M490.5263,-565.73C490.5263,-557.6723 490.5263,-549.3056 490.5263,-541.1339"/>
<polygon fill="#000000" stroke="#000000" points="494.0264,-540.9253 490.5263,-530.9253 487.0264,-540.9253 494.0264,-540.9253"/>
</g>
<!-- b3 -->
<g id="node4" class="node">
<title>b3</title>
<ellipse fill="#8b0000" stroke="#000000" cx="821.5263" cy="-470.9627" rx="101.8572" ry="59.9253"/>
<text text-anchor="middle" x="821.5263" y="-494.9627" font-family="Times,serif" font-size="16.00" fill="#ffffff">La laïcité, ce n'est</text>
<text text-anchor="middle" x="821.5263" y="-475.7627" font-family="Times,serif" font-size="16.00" fill="#ffffff">pas la réduction</text>
<text text-anchor="middle" x="821.5263" y="-456.5627" font-family="Times,serif" font-size="16.00" fill="#ffffff">de la religion à la</text>
<text text-anchor="middle" x="821.5263" y="-437.3627" font-family="Times,serif" font-size="16.00" fill="#ffffff">sphère privée</text>
</g>
<!-- a1&#45;&gt;b3 -->
<g id="edge3" class="edge">
<title>a1-&gt;b3:n</title>
<path fill="none" stroke="#000000" d="M621.8216,-607.1839C706.654,-597.1356 804.0239,-577.7483 819.4278,-541.1536"/>
<polygon fill="#000000" stroke="#000000" points="822.945,-541.4247 821.5263,-530.9253 816.0878,-540.0178 822.945,-541.4247"/>
</g>
<!-- b1&#45;&gt;b2 -->
<!-- c1 -->
<g id="node5" class="node">
<title>c1</title>
<polygon fill="#ffffff" stroke="#7f7f7f" points="235.8743,-373 25.1782,-373 25.1782,-99 235.8743,-99 235.8743,-373"/>
<text text-anchor="start" x="40.0349" y="-355.6" font-family="Times,serif" font-size="16.00" fill="#000000">Dans les </text>
<text text-anchor="start" x="98.6813" y="-355.6" font-family="Times,serif" font-weight="bold" font-size="16.00" fill="#000000">débats politiques</text>
<text text-anchor="start" x="207.7677" y="-355.6" font-family="Times,serif" font-size="5.00" fill="#000000"> </text>
<text text-anchor="start" x="209.0177" y="-355.6" font-family="Times,serif" font-size="16.00" fill="#000000">  ,</text>
<text text-anchor="start" x="44.1063" y="-339.6" font-family="Times,serif" font-size="16.00" fill="#000000">plusieurs conceptions de la</text>
<text text-anchor="start" x="35.1311" y="-323.6" font-family="Times,serif" font-size="16.00" fill="#000000">laïcité s'affrontent : certains</text>
<text text-anchor="start" x="33.1023" y="-307.6" font-family="Times,serif" font-size="16.00" fill="#000000">militent pour une laïcité plus</text>
<text text-anchor="start" x="50.5599" y="-291.6" font-family="Times,serif" font-size="16.00" fill="#000000">ouverte, ou, au contraire,</text>
<text text-anchor="start" x="36.4463" y="-275.6" font-family="Times,serif" font-size="16.00" fill="#000000">pour une laïcité plus stricte,</text>
<text text-anchor="start" x="49.4247" y="-259.6" font-family="Times,serif" font-size="16.00" fill="#000000">ou plus interventionniste.</text>
<text text-anchor="start" x="42.7623" y="-233.6" font-family="Times,serif" font-size="16.00" fill="#000000">Ces </text>
<text text-anchor="start" x="70.7575" y="-233.6" font-family="Times,serif" font-weight="bold" font-size="16.00" fill="#000000">conceptions politiques</text>
<text text-anchor="start" x="214.2903" y="-233.6" font-family="Times,serif" font-size="16.00" fill="#000000"> </text>
<text text-anchor="start" x="60.8951" y="-217.6" font-family="Times,serif" font-size="16.00" fill="#000000">ne peuvent prétendre </text>
<text text-anchor="start" x="41.2407" y="-201.6" font-family="Times,serif" font-size="16.00" fill="#000000">définir ce qu'est la laïcité.</text>
<text text-anchor="start" x="38.1287" y="-185.6" font-family="Times,serif" font-size="16.00" fill="#000000">La laïcité se définit par des</text>
<text text-anchor="start" x="61.2079" y="-169.6" font-family="Times,serif" font-weight="bold" font-size="16.00" fill="#000000">principes juridiques</text>
<text text-anchor="start" x="187.8447" y="-169.6" font-family="Times,serif" font-size="16.00" fill="#000000">   </text>
<text text-anchor="start" x="47.8839" y="-153.6" font-family="Times,serif" font-size="16.00" fill="#000000">inscrits dans des textes de</text>
<text text-anchor="start" x="48.5399" y="-137.6" font-family="Times,serif" font-size="16.00" fill="#000000">droit : il faut distinguer la</text>
<text text-anchor="start" x="41.1215" y="-121.6" font-family="Times,serif" font-weight="bold" font-size="16.00" fill="#000000">laïcité dans les têtes</text>
<text text-anchor="start" x="184.8335" y="-121.6" font-family="Times,serif" font-size="16.00" fill="#000000">et la  </text>
<text text-anchor="start" x="57.3335" y="-105.6" font-family="Times,serif" font-weight="bold" font-size="16.00" fill="#000000">laïcité dans les textes</text>
</g>
<!-- b1&#45;&gt;c1 -->
<g id="edge6" class="edge">
<title>b1-&gt;c1</title>
<path fill="none" stroke="#000000" d="M130.5263,-410.759C130.5263,-402.0804 130.5263,-392.8496 130.5263,-383.3393"/>
<polygon fill="#000000" stroke="#000000" points="134.0264,-383.3386 130.5263,-373.3387 127.0264,-383.3387 134.0264,-383.3386"/>
</g>
<!-- b2&#45;&gt;b3 -->
<!-- c2 -->
<g id="node6" class="node">
<title>c2</title>
<polygon fill="#ffffff" stroke="#7f7f7f" points="473.6059,-373 261.4466,-373 261.4466,-99 473.6059,-99 473.6059,-373"/>
<text text-anchor="start" x="297.8935" y="-355.6" font-family="Times,serif" font-size="16.00" fill="#000000">La laïcité garantit la</text>
<text text-anchor="start" x="279.1423" y="-339.6" font-family="Times,serif" font-weight="bold" font-size="16.00" fill="#000000">liberté de croire</text>
<text text-anchor="start" x="381.5215" y="-339.6" font-family="Times,serif" font-size="16.00" fill="#000000">   (défendre</text>
<text text-anchor="start" x="272.1231" y="-323.6" font-family="Times,serif" font-size="16.00" fill="#000000">la laïcité ce n'est pas militer</text>
<text text-anchor="start" x="291.0047" y="-307.6" font-family="Times,serif" font-size="16.00" fill="#000000">pour l'athéisme), et elle</text>
<text text-anchor="start" x="277.2287" y="-291.6" font-family="Times,serif" font-size="16.00" fill="#000000">pose cette liberté comme un</text>
<text text-anchor="start" x="280.4327" y="-275.6" font-family="Times,serif" font-weight="bold" font-size="16.00" fill="#000000">droit humain fondamental</text>
<text text-anchor="start" x="446.6199" y="-275.6" font-family="Times,serif" font-size="16.00" fill="#000000">  </text>
<text text-anchor="start" x="282.6567" y="-259.6" font-family="Times,serif" font-size="16.00" fill="#000000">(et non comme une simple</text>
<text text-anchor="start" x="290.3615" y="-243.6" font-family="Times,serif" font-size="16.00" fill="#000000">faveur accordée par une</text>
<text text-anchor="start" x="309.4327" y="-227.6" font-family="Times,serif" font-size="16.00" fill="#000000">autorité politique)</text>
<text text-anchor="start" x="279.8967" y="-201.6" font-family="Times,serif" font-size="16.00" fill="#000000">La laïcité garantit aussi la</text>
<text text-anchor="start" x="269.2367" y="-185.6" font-family="Times,serif" font-size="16.00" fill="#000000">liberté de </text>
<text text-anchor="start" x="334.3119" y="-185.6" font-family="Times,serif" font-weight="bold" font-size="16.00" fill="#000000">changer de religion</text>
<text text-anchor="start" x="457.8159" y="-185.6" font-family="Times,serif" font-size="16.00" fill="#000000">  </text>
<text text-anchor="start" x="278.5743" y="-169.6" font-family="Times,serif" font-size="16.00" fill="#000000">et la liberté de </text>
<text text-anchor="start" x="374.7471" y="-169.6" font-family="Times,serif" font-weight="bold" font-size="16.00" fill="#000000">ne pas croire</text>
<text text-anchor="start" x="274.6695" y="-153.6" font-family="Times,serif" font-size="16.00" fill="#000000">(un régime politique tolérant</text>
<text text-anchor="start" x="288.8911" y="-137.6" font-family="Times,serif" font-size="16.00" fill="#000000">envers d'autres religions</text>
<text text-anchor="start" x="287.1231" y="-121.6" font-family="Times,serif" font-size="16.00" fill="#000000">peut ne pas l'être envers</text>
<text text-anchor="start" x="284.7823" y="-105.6" font-family="Times,serif" font-size="16.00" fill="#000000">l'apostasie ou l'athéisme)</text>
</g>
<!-- b2&#45;&gt;c2 -->
<g id="edge7" class="edge">
<title>b2-&gt;c2</title>
<path fill="none" stroke="#000000" d="M460.7514,-414.0848C455.534,-404.1182 449.8971,-393.3503 444.0682,-382.2155"/>
<polygon fill="#000000" stroke="#000000" points="447.0954,-380.4515 439.3567,-373.2152 440.8938,-383.698 447.0954,-380.4515"/>
</g>
<!-- c3 -->
<g id="node7" class="node">
<title>c3</title>
<polygon fill="#ffffff" stroke="#7f7f7f" points="689.7023,-352 487.3502,-352 487.3502,-120 689.7023,-120 689.7023,-352"/>
<text text-anchor="start" x="513.5495" y="-334.6" font-family="Times,serif" font-size="16.00" fill="#000000">La laïcité interdit tout</text>
<text text-anchor="start" x="504.7847" y="-318.6" font-family="Times,serif" font-weight="bold" font-size="16.00" fill="#000000">privilège</text>
<text text-anchor="start" x="567.8791" y="-318.6" font-family="Times,serif" font-size="16.00" fill="#000000"> en faveur d'une</text>
<text text-anchor="start" x="501.4527" y="-302.6" font-family="Times,serif" font-size="16.00" fill="#000000">conviction particulière (ce</text>
<text text-anchor="start" x="496.3327" y="-286.6" font-family="Times,serif" font-size="16.00" fill="#000000">qui interdit l'existence d'une</text>
<text text-anchor="start" x="504.1063" y="-270.6" font-family="Times,serif" font-size="16.00" fill="#000000">religion officielle, ou d'un</text>
<text text-anchor="start" x="495.8919" y="-254.6" font-family="Times,serif" font-size="16.00" fill="#000000">système de cultes reconnus)</text>
<text text-anchor="start" x="503.8751" y="-238.6" font-family="Times,serif" font-size="16.00" fill="#000000">et toute </text>
<text text-anchor="start" x="555.4191" y="-238.6" font-family="Times,serif" font-weight="bold" font-size="16.00" fill="#000000">discrimination </text>
<text text-anchor="start" x="651.8511" y="-238.6" font-family="Times,serif" font-size="16.00" fill="#000000">   à</text>
<text text-anchor="start" x="500.1135" y="-222.6" font-family="Times,serif" font-size="16.00" fill="#000000">l'encontre d'une conviction</text>
<text text-anchor="start" x="495.9007" y="-206.6" font-family="Times,serif" font-size="16.00" fill="#000000">particulière (ce qui protège</text>
<text text-anchor="start" x="495.4383" y="-190.6" font-family="Times,serif" font-size="16.00" fill="#000000">les convictions minoritaires),</text>
<text text-anchor="start" x="508.9007" y="-174.6" font-family="Times,serif" font-size="16.00" fill="#000000">alors que la tolérance est</text>
<text text-anchor="start" x="497.6839" y="-158.6" font-family="Times,serif" font-size="16.00" fill="#000000">compatible avec la croyance</text>
<text text-anchor="start" x="515.6743" y="-142.6" font-family="Times,serif" font-size="16.00" fill="#000000">en la supériorité d'une</text>
<text text-anchor="start" x="513.2183" y="-126.6" font-family="Times,serif" font-size="16.00" fill="#000000">conviction particulière</text>
</g>
<!-- b2&#45;&gt;c3 -->
<g id="edge8" class="edge">
<title>b2-&gt;c3</title>
<path fill="none" stroke="#000000" d="M514.6253,-413.1834C521.1888,-397.4469 528.5641,-379.7639 536.0482,-361.8202"/>
<polygon fill="#000000" stroke="#000000" points="539.3489,-362.9986 539.9681,-352.4219 532.8883,-360.304 539.3489,-362.9986"/>
</g>
<!-- c4 -->
<g id="node8" class="node">
<title>c4</title>
<polygon fill="#ffffff" stroke="#7f7f7f" points="922.4079,-344 708.6446,-344 708.6446,-128 922.4079,-128 922.4079,-344"/>
<text text-anchor="start" x="720.2423" y="-326.6" font-family="Times,serif" font-size="16.00" fill="#000000">La laïcité exige la neutralité</text>
<text text-anchor="start" x="729.1039" y="-310.6" font-family="Times,serif" font-size="16.00" fill="#000000">de </text>
<text text-anchor="start" x="748.2063" y="-310.6" font-family="Times,serif" font-weight="bold" font-size="16.00" fill="#000000">la puissance publique</text>
<text text-anchor="start" x="885.9487" y="-310.6" font-family="Times,serif" font-size="16.00" fill="#000000">   ,</text>
<text text-anchor="start" x="727.7751" y="-294.6" font-family="Times,serif" font-size="16.00" fill="#000000">c'est-à-dire des institutions</text>
<text text-anchor="start" x="721.1167" y="-278.6" font-family="Times,serif" font-size="16.00" fill="#000000">et des agents de l'État (qui ne</text>
<text text-anchor="start" x="722.4447" y="-262.6" font-family="Times,serif" font-size="16.00" fill="#000000">doivent pas discriminer entre</text>
<text text-anchor="start" x="726.3423" y="-246.6" font-family="Times,serif" font-size="16.00" fill="#000000">les différentes convictions),</text>
<text text-anchor="start" x="740.4431" y="-230.6" font-family="Times,serif" font-size="16.00" fill="#000000">mais elle n'exige pas la</text>
<text text-anchor="start" x="716.7911" y="-214.6" font-family="Times,serif" font-size="16.00" fill="#000000">neutralité de </text>
<text text-anchor="start" x="801.4151" y="-214.6" font-family="Times,serif" font-weight="bold" font-size="16.00" fill="#000000">l'espace public </text>
<text text-anchor="start" x="901.8151" y="-214.6" font-family="Times,serif" font-size="16.00" fill="#000000">  :</text>
<text text-anchor="start" x="718.4471" y="-198.6" font-family="Times,serif" font-size="16.00" fill="#000000">elle n'interdit pas l'expression</text>
<text text-anchor="start" x="740.8871" y="-182.6" font-family="Times,serif" font-size="16.00" fill="#000000">publique des croyances</text>
<text text-anchor="start" x="725.8943" y="-166.6" font-family="Times,serif" font-size="16.00" fill="#000000">religieuses ou de l'athéisme</text>
<text text-anchor="start" x="729.7903" y="-150.6" font-family="Times,serif" font-size="16.00" fill="#000000">et elle garantit au contraire</text>
<text text-anchor="start" x="716.5855" y="-134.6" font-family="Times,serif" font-size="16.00" fill="#000000">l'exercice de la liberté de culte</text>
</g>
<!-- b3&#45;&gt;c4 -->
<g id="edge9" class="edge">
<title>b3-&gt;c4</title>
<path fill="none" stroke="#000000" d="M819.9889,-410.759C819.5483,-393.5069 819.0521,-374.073 818.5548,-354.5981"/>
<polygon fill="#000000" stroke="#000000" points="822.0491,-354.3289 818.2949,-344.4216 815.0514,-354.5077 822.0491,-354.3289"/>
</g>
<!-- c5 -->
<g id="node9" class="node">
<title>c5</title>
<polygon fill="#ffffff" stroke="#7f7f7f" points="1176.4399,-376 936.6126,-376 936.6126,-96 1176.4399,-96 1176.4399,-376"/>
<text text-anchor="start" x="959.5655" y="-358.6" font-family="Times,serif" font-size="16.00" fill="#000000">On confond parfois la laïcité</text>
<text text-anchor="start" x="970.2383" y="-342.6" font-family="Times,serif" font-size="16.00" fill="#000000">avec la </text>
<text text-anchor="start" x="1019.0943" y="-342.6" font-family="Times,serif" font-weight="bold" font-size="16.00" fill="#000000">sécularisation de la</text>
<text text-anchor="start" x="966.2383" y="-326.6" font-family="Times,serif" font-weight="bold" font-size="16.00" fill="#000000">société</text>
<text text-anchor="start" x="1012.8655" y="-326.6" font-family="Times,serif" font-size="16.00" fill="#000000">, qui désigne la perte</text>
<text text-anchor="start" x="959.2279" y="-310.6" font-family="Times,serif" font-size="16.00" fill="#000000">d'influence de la religion dans</text>
<text text-anchor="start" x="968.3231" y="-294.6" font-family="Times,serif" font-size="16.00" fill="#000000">la vie sociale des individus.</text>
<text text-anchor="start" x="948.9055" y="-278.6" font-family="Times,serif" font-size="16.00" fill="#000000">Mais la laïcité ne repose pas sur</text>
<text text-anchor="start" x="959.5783" y="-262.6" font-family="Times,serif" font-size="16.00" fill="#000000">la sécularisation de la société,</text>
<text text-anchor="start" x="962.3407" y="-246.6" font-family="Times,serif" font-size="16.00" fill="#000000">elle repose seulement sur une</text>
<text text-anchor="start" x="975.4423" y="-230.6" font-family="Times,serif" font-size="16.00" fill="#000000">forme de pluralisme dans</text>
<text text-anchor="start" x="990.3383" y="-214.6" font-family="Times,serif" font-size="16.00" fill="#000000">la société, et sur une</text>
<text text-anchor="start" x="961.7847" y="-198.6" font-family="Times,serif" font-weight="bold" font-size="16.00" fill="#000000">sécularisation de l'État</text>
<text text-anchor="start" x="1109.0503" y="-198.6" font-family="Times,serif" font-size="16.00" fill="#000000">    : les</text>
<text text-anchor="start" x="960.4351" y="-182.6" font-family="Times,serif" font-size="16.00" fill="#000000">décisions politiques, dans une</text>
<text text-anchor="start" x="949.9039" y="-166.6" font-family="Times,serif" font-size="16.00" fill="#000000">société pluraliste, ne peuvent pas</text>
<text text-anchor="start" x="962.2367" y="-150.6" font-family="Times,serif" font-size="16.00" fill="#000000">être fondées sur une religion</text>
<text text-anchor="start" x="944.5695" y="-134.6" font-family="Times,serif" font-size="16.00" fill="#000000">particulière : elles doivent reposer</text>
<text text-anchor="start" x="953.2263" y="-118.6" font-family="Times,serif" font-size="16.00" fill="#000000">sur des justifications accessibles</text>
<text text-anchor="start" x="949.1087" y="-102.6" font-family="Times,serif" font-size="16.00" fill="#000000">à tous et issues d'un débat public</text>
</g>
<!-- b3&#45;&gt;c5 -->
<g id="edge10" class="edge">
<title>b3-&gt;c5</title>
<path fill="none" stroke="#000000" d="M880.0676,-421.6195C894.6285,-408.8407 910.1361,-394.7962 929.3278,-376.1018"/>
<polygon fill="#000000" stroke="#000000" points="931.8822,-378.4989 936.5702,-368.9977 926.9804,-373.5017 931.8822,-378.4989"/>
</g>
<!-- e1 -->
<g id="node10" class="node">
<title>e1</title>
<path fill="#fafafa" stroke="transparent" d="M431.2825,-72C431.2825,-72 303.77,-72 303.77,-72 297.77,-72 291.77,-66 291.77,-60 291.77,-60 291.77,-28 291.77,-28 291.77,-22 297.77,-16 303.77,-16 303.77,-16 431.2825,-16 431.2825,-16 437.2825,-16 443.2825,-22 443.2825,-28 443.2825,-28 443.2825,-60 443.2825,-60 443.2825,-66 437.2825,-72 431.2825,-72"/>
<text text-anchor="start" x="300.0055" y="-54.6" font-family="Times,serif" font-size="16.00" fill="#cd2626">La laïcité se définit</text>
<text text-anchor="start" x="303.9999" y="-38.6" font-family="Times,serif" font-size="16.00" fill="#cd2626">par le principe de la</text>
<text text-anchor="start" x="299.8983" y="-22.6" font-family="Times,serif" font-weight="bold" font-size="16.00" fill="#cd2626">liberté de conscience</text>
</g>
<!-- c2&#45;&gt;e1 -->
<!-- e2 -->
<g id="node11" class="node">
<title>e2</title>
<path fill="#fafafa" stroke="transparent" d="M672.0455,-72C672.0455,-72 505.0071,-72 505.0071,-72 499.0071,-72 493.0071,-66 493.0071,-60 493.0071,-60 493.0071,-28 493.0071,-28 493.0071,-22 499.0071,-16 505.0071,-16 505.0071,-16 672.0455,-16 672.0455,-16 678.0455,-16 684.0455,-22 684.0455,-28 684.0455,-28 684.0455,-60 684.0455,-60 684.0455,-66 678.0455,-72 672.0455,-72"/>
<text text-anchor="start" x="501.0167" y="-54.6" font-family="Times,serif" font-size="16.00" fill="#cd2626">La laïcité se définit par le</text>
<text text-anchor="start" x="504.1255" y="-38.6" font-family="Times,serif" font-size="16.00" fill="#cd2626">principe de </text>
<text text-anchor="start" x="579.6519" y="-38.6" font-family="Times,serif" font-weight="bold" font-size="16.00" fill="#cd2626">l'égalité </text>
<text text-anchor="start" x="638.2759" y="-38.6" font-family="Times,serif" font-size="16.00" fill="#cd2626"> et de</text>
<text text-anchor="start" x="513.8727" y="-22.6" font-family="Times,serif" font-weight="bold" font-size="16.00" fill="#cd2626">la non-discrimination   </text>
</g>
<!-- c3&#45;&gt;e2 -->
<!-- e3 -->
<g id="node12" class="node">
<title>e3</title>
<path fill="#fafafa" stroke="transparent" d="M899.0455,-80C899.0455,-80 732.0071,-80 732.0071,-80 726.0071,-80 720.0071,-74 720.0071,-68 720.0071,-68 720.0071,-20 720.0071,-20 720.0071,-14 726.0071,-8 732.0071,-8 732.0071,-8 899.0455,-8 899.0455,-8 905.0455,-8 911.0455,-14 911.0455,-20 911.0455,-20 911.0455,-68 911.0455,-68 911.0455,-74 905.0455,-80 899.0455,-80"/>
<text text-anchor="start" x="728.0167" y="-62.6" font-family="Times,serif" font-size="16.00" fill="#cd2626">La laïcité se définit par le</text>
<text text-anchor="start" x="739.2279" y="-46.6" font-family="Times,serif" font-size="16.00" fill="#cd2626">principe de la </text>
<text text-anchor="start" x="830.3031" y="-46.6" font-family="Times,serif" font-weight="bold" font-size="16.00" fill="#cd2626">neutralité</text>
<text text-anchor="start" x="735.1039" y="-30.6" font-family="Times,serif" font-weight="bold" font-size="16.00" fill="#cd2626">de la puissance publique </text>
<text text-anchor="start" x="753.9999" y="-14.6" font-family="Times,serif" font-size="16.00" fill="#cd2626">(≠ l'espace public)</text>
</g>
<!-- c4&#45;&gt;e3 -->
<!-- e4 -->
<g id="node13" class="node">
<title>e4</title>
<path fill="#fafafa" stroke="transparent" d="M1168.4699,-88C1168.4699,-88 944.5827,-88 944.5827,-88 938.5827,-88 932.5827,-82 932.5827,-76 932.5827,-76 932.5827,-12 932.5827,-12 932.5827,-6 938.5827,0 944.5827,0 944.5827,0 1168.4699,0 1168.4699,0 1174.4699,0 1180.4699,-6 1180.4699,-12 1180.4699,-12 1180.4699,-76 1180.4699,-76 1180.4699,-82 1174.4699,-88 1168.4699,-88"/>
<text text-anchor="start" x="940.8047" y="-70.6" font-family="Times,serif" font-size="16.00" fill="#cd2626">La laïcité se définit par le principe</text>
<text text-anchor="start" x="951.3511" y="-54.6" font-family="Times,serif" font-size="16.00" fill="#cd2626">de la </text>
<text text-anchor="start" x="986.0023" y="-54.6" font-family="Times,serif" font-weight="bold" font-size="16.00" fill="#cd2626">séparation de l'État et de    </text>
<text text-anchor="start" x="948.1031" y="-38.6" font-family="Times,serif" font-weight="bold" font-size="16.00" fill="#cd2626">la religion  </text>
<text text-anchor="start" x="1021.4199" y="-38.6" font-family="Times,serif" font-size="16.00" fill="#cd2626"> : la religion n'est plus</text>
<text text-anchor="start" x="951.6863" y="-22.6" font-family="Times,serif" font-size="16.00" fill="#cd2626">considérée comme le fondement</text>
<text text-anchor="start" x="978.1039" y="-6.6" font-family="Times,serif" font-size="16.00" fill="#cd2626">de la puissance publique</text>
</g>
<!-- c5&#45;&gt;e4 -->
</g>
</svg>