<?xml version="1.0" encoding="UTF-8" standalone="no"?><!DOCTYPE svg PUBLIC "-//W3C//DTD SVG 1.1//EN" "http://www.w3.org/Graphics/SVG/1.1/DTD/svg11.dtd"><!-- Generated by graphviz version 2.40.1 (20161225.0304)
 --><!-- Title: G Pages: 1 --><svg xmlns="http://www.w3.org/2000/svg" xmlns:xlink="http://www.w3.org/1999/xlink" width="526pt" height="269pt" viewBox="0.00 0.00 525.94 268.80">
<g id="graph0" class="graph" transform="scale(1 1) rotate(0) translate(21.6 247.2)">
<title>G</title>
<polygon fill="#fafafa" stroke="transparent" points="-21.6,21.6 -21.6,-247.2 504.3399,-247.2 504.3399,21.6 -21.6,21.6"/>
<!-- a1 -->
<g id="node1" class="node">
<title>a1</title>
<ellipse fill="#000000" stroke="#000000" cx="66.4549" cy="-112.8" rx="66.4098" ry="51.4548"/>
<text text-anchor="middle" x="66.4549" y="-129" font-family="Times,serif" font-size="18.00" fill="#ffffff">Une</text>
<text text-anchor="middle" x="66.4549" y="-107.4" font-family="Times,serif" font-size="18.00" fill="#ffffff">distinction</text>
<text text-anchor="middle" x="66.4549" y="-85.8" font-family="Times,serif" font-size="18.00" fill="#ffffff">importante</text>
</g>
<!-- b1 -->
<g id="node2" class="node">
<title>b1</title>
<ellipse fill="#8b0000" stroke="#000000" cx="218.1721" cy="-180.8" rx="50.0257" ry="19.4695"/>
<text text-anchor="middle" x="218.1721" y="-176" font-family="Times,serif" font-size="16.00" fill="#ffffff">Langage</text>
</g>
<!-- a1&#45;&gt;b1 -->
<g id="edge1" class="edge">
<title>a1-&gt;b1</title>
<path fill="none" stroke="#000000" d="M124.2454,-138.7019C141.305,-146.348 159.6589,-154.5743 175.5765,-161.7086"/>
<polygon fill="#000000" stroke="#000000" points="174.5823,-165.0984 185.1392,-165.9946 177.4453,-158.7106 174.5823,-165.0984"/>
</g>
<!-- b2 -->
<g id="node3" class="node">
<title>b2</title>
<ellipse fill="#8b0000" stroke="#000000" cx="218.1721" cy="-112.8" rx="45.4815" ry="19.4695"/>
<text text-anchor="middle" x="218.1721" y="-108" font-family="Times,serif" font-size="16.00" fill="#ffffff">Langue</text>
</g>
<!-- a1&#45;&gt;b2 -->
<g id="edge2" class="edge">
<title>a1-&gt;b2</title>
<path fill="none" stroke="#000000" d="M133.0002,-112.8C142.8231,-112.8 152.8575,-112.8 162.4312,-112.8"/>
<polygon fill="#000000" stroke="#000000" points="162.6069,-116.3001 172.6069,-112.8 162.6069,-109.3001 162.6069,-116.3001"/>
</g>
<!-- b3 -->
<g id="node4" class="node">
<title>b3</title>
<ellipse fill="#8b0000" stroke="#000000" cx="218.1721" cy="-46.8" rx="40.4303" ry="19.4695"/>
<text text-anchor="middle" x="218.1721" y="-42" font-family="Times,serif" font-size="16.00" fill="#ffffff">Parole</text>
</g>
<!-- a1&#45;&gt;b3 -->
<g id="edge3" class="edge">
<title>a1-&gt;b3</title>
<path fill="none" stroke="#000000" d="M124.6788,-87.4714C142.841,-79.5705 162.431,-71.0485 178.9638,-63.8564"/>
<polygon fill="#000000" stroke="#000000" points="180.5371,-66.9889 188.3108,-59.7902 177.7447,-60.5699 180.5371,-66.9889"/>
</g>
<!-- c1 -->
<g id="node5" class="node">
<title>c1</title>
<polygon fill="#ffffff" stroke="#7f7f7f" points="476.6848,-225.4012 309.4895,-225.4012 309.4895,-160.1988 476.6848,-160.1988 476.6848,-225.4012"/>
<text text-anchor="middle" x="393.0871" y="-207.2" font-family="Times,serif" font-size="16.00" fill="#000000">Faculté universelle de</text>
<text text-anchor="middle" x="393.0871" y="-188" font-family="Times,serif" font-size="16.00" fill="#000000">produire et comprendre</text>
<text text-anchor="middle" x="393.0871" y="-168.8" font-family="Times,serif" font-size="16.00" fill="#000000">des signes linguistiques</text>
</g>
<!-- b1&#45;&gt;c1 -->
<g id="edge4" class="edge">
<title>b1-&gt;c1</title>
<path fill="none" stroke="#000000" d="M267.8278,-184.2066C277.6249,-184.8787 288.2057,-185.6046 298.9216,-186.3398"/>
<polygon fill="#000000" stroke="#000000" points="298.9997,-189.8533 309.2158,-187.046 299.4789,-182.8697 298.9997,-189.8533"/>
</g>
<!-- c2 -->
<g id="node6" class="node">
<title>c2</title>
<polygon fill="#ffffff" stroke="#7f7f7f" points="482.893,-145.4012 303.2813,-145.4012 303.2813,-80.1988 482.893,-80.1988 482.893,-145.4012"/>
<text text-anchor="middle" x="393.0871" y="-127.2" font-family="Times,serif" font-size="16.00" fill="#000000">Système particulier</text>
<text text-anchor="middle" x="393.0871" y="-108" font-family="Times,serif" font-size="16.00" fill="#000000">de signes propre à une</text>
<text text-anchor="middle" x="393.0871" y="-88.8" font-family="Times,serif" font-size="16.00" fill="#000000">communauté linguistique</text>
</g>
<!-- b2&#45;&gt;c2 -->
<g id="edge5" class="edge">
<title>b2-&gt;c2</title>
<path fill="none" stroke="#000000" d="M263.6723,-112.8C272.8584,-112.8 282.8538,-112.8 293.083,-112.8"/>
<polygon fill="#000000" stroke="#000000" points="293.3689,-116.3001 303.3688,-112.8 293.3688,-109.3001 293.3689,-116.3001"/>
</g>
<!-- c3 -->
<g id="node7" class="node">
<title>c3</title>
<polygon fill="#ffffff" stroke="#7f7f7f" points="467.0471,-65.4012 319.1271,-65.4012 319.1271,-.1988 467.0471,-.1988 467.0471,-65.4012"/>
<text text-anchor="middle" x="393.0871" y="-47.2" font-family="Times,serif" font-size="16.00" fill="#000000">Utilisation concrète</text>
<text text-anchor="middle" x="393.0871" y="-28" font-family="Times,serif" font-size="16.00" fill="#000000">d'une langue par</text>
<text text-anchor="middle" x="393.0871" y="-8.8" font-family="Times,serif" font-size="16.00" fill="#000000">un individu</text>
</g>
<!-- b3&#45;&gt;c3 -->
<g id="edge6" class="edge">
<title>b3-&gt;c3</title>
<path fill="none" stroke="#000000" d="M257.863,-43.6232C272.9453,-42.416 290.7616,-40.99 308.4256,-39.5762"/>
<polygon fill="#000000" stroke="#000000" points="309.0977,-43.0337 318.7865,-38.7469 308.5391,-36.056 309.0977,-43.0337"/>
</g>
</g>
</svg>