<?xml version="1.0" encoding="UTF-8" standalone="no"?><!DOCTYPE svg PUBLIC "-//W3C//DTD SVG 1.1//EN" "http://www.w3.org/Graphics/SVG/1.1/DTD/svg11.dtd"><!-- Generated by graphviz version 2.40.1 (20161225.0304)
 --><!-- Title: G Pages: 1 --><svg xmlns="http://www.w3.org/2000/svg" xmlns:xlink="http://www.w3.org/1999/xlink" width="1509pt" height="836pt" viewBox="0.00 0.00 1508.82 835.95">
<g id="graph0" class="graph" transform="scale(1 1) rotate(0) translate(21.6 814.3526)">
<title>G</title>
<polygon fill="#fafafa" stroke="transparent" points="-21.6,21.6 -21.6,-814.3526 1487.224,-814.3526 1487.224,21.6 -21.6,21.6"/>
<!-- a1 -->
<g id="node1" class="node">
<title>a1</title>
<ellipse fill="#000000" stroke="#000000" cx="513.2992" cy="-756.5487" rx="76.1893" ry="36.4089"/>
<text text-anchor="middle" x="513.2992" y="-761.9487" font-family="Times,serif" font-size="18.00" fill="#ffffff">La liberté</text>
<text text-anchor="middle" x="513.2992" y="-740.3487" font-family="Times,serif" font-size="18.00" fill="#ffffff">d'expression</text>
</g>
<!-- b1 -->
<g id="node2" class="node">
<title>b1</title>
<ellipse fill="#8b0000" stroke="#000000" cx="267.2992" cy="-638.9586" rx="76.2172" ry="46.2727"/>
<text text-anchor="middle" x="267.2992" y="-653.3586" font-family="Times,serif" font-size="16.00" fill="#ffffff">C'est un droit</text>
<text text-anchor="middle" x="267.2992" y="-634.1586" font-family="Times,serif" font-size="16.00" fill="#ffffff">humain</text>
<text text-anchor="middle" x="267.2992" y="-614.9586" font-family="Times,serif" font-size="16.00" fill="#ffffff">fondamental</text>
</g>
<!-- a1&#45;&gt;b1 -->
<g id="edge1" class="edge">
<title>a1-&gt;b1:n</title>
<path fill="none" stroke="#000000" d="M438.4891,-749.2956C372.8997,-741.0025 285.5947,-724.5372 269.8015,-694.6654"/>
<polygon fill="#000000" stroke="#000000" points="273.1847,-693.7683 267.2992,-684.9586 266.4063,-695.5158 273.1847,-693.7683"/>
</g>
<!-- b2 -->
<g id="node3" class="node">
<title>b2</title>
<ellipse fill="#8b0000" stroke="#000000" cx="760.2992" cy="-638.9586" rx="67.6197" ry="46.2727"/>
<text text-anchor="middle" x="760.2992" y="-653.3586" font-family="Times,serif" font-size="16.00" fill="#ffffff">Ce n'est</text>
<text text-anchor="middle" x="760.2992" y="-634.1586" font-family="Times,serif" font-size="16.00" fill="#ffffff">pas un droit</text>
<text text-anchor="middle" x="760.2992" y="-614.9586" font-family="Times,serif" font-size="16.00" fill="#ffffff">absolu</text>
</g>
<!-- a1&#45;&gt;b2 -->
<g id="edge2" class="edge">
<title>a1-&gt;b2:n</title>
<path fill="none" stroke="#000000" d="M588.4134,-749.3501C654.2694,-741.0974 741.9293,-724.6655 757.7868,-694.699"/>
<polygon fill="#000000" stroke="#000000" points="761.1905,-695.5159 760.2992,-684.9586 754.4124,-693.7675 761.1905,-695.5159"/>
</g>
<!-- b1&#45;&gt;b2 -->
<!-- c1 -->
<g id="node4" class="node">
<title>c1</title>
<polygon fill="#ffffff" stroke="#7f7f7f" points="172.0779,-547.9724 16.5205,-547.9724 16.5205,-443.9724 172.0779,-443.9724 172.0779,-547.9724"/>
<text text-anchor="middle" x="94.2992" y="-529.5724" font-family="Times,serif" font-size="16.00" fill="#000000">Sans liberté</text>
<text text-anchor="middle" x="94.2992" y="-510.3724" font-family="Times,serif" font-size="16.00" fill="#000000">d'expression il n'y</text>
<text text-anchor="middle" x="94.2992" y="-491.1724" font-family="Times,serif" font-size="16.00" fill="#000000">a pas de débat public</text>
<text text-anchor="middle" x="94.2992" y="-471.9724" font-family="Times,serif" font-size="16.00" fill="#000000">et pas de possibilité</text>
<text text-anchor="middle" x="94.2992" y="-452.7724" font-family="Times,serif" font-size="16.00" fill="#000000">de contester les lois</text>
</g>
<!-- b1&#45;&gt;c1 -->
<g id="edge4" class="edge">
<title>b1-&gt;c1</title>
<path fill="none" stroke="#000000" d="M221.8455,-601.3907C204.5118,-587.0642 184.3153,-570.3716 165.1747,-554.5517"/>
<polygon fill="#000000" stroke="#000000" points="167.2714,-551.7439 157.3336,-548.0709 162.8118,-557.1395 167.2714,-551.7439"/>
</g>
<!-- c2 -->
<g id="node5" class="node">
<title>c2</title>
<polygon fill="#ffffff" stroke="#7f7f7f" points="339.6505,-557.6726 194.9479,-557.6726 194.9479,-434.2722 339.6505,-434.2722 339.6505,-557.6726"/>
<text text-anchor="middle" x="267.2992" y="-539.1724" font-family="Times,serif" font-size="16.00" fill="#000000">Sans liberté</text>
<text text-anchor="middle" x="267.2992" y="-519.9724" font-family="Times,serif" font-size="16.00" fill="#000000">d'expression, on ne</text>
<text text-anchor="middle" x="267.2992" y="-500.7724" font-family="Times,serif" font-size="16.00" fill="#000000">peut pas dénoncer</text>
<text text-anchor="middle" x="267.2992" y="-481.5724" font-family="Times,serif" font-size="16.00" fill="#000000">les injustices et</text>
<text text-anchor="middle" x="267.2992" y="-462.3724" font-family="Times,serif" font-size="16.00" fill="#000000">défendre les autres</text>
<text text-anchor="middle" x="267.2992" y="-443.1724" font-family="Times,serif" font-size="16.00" fill="#000000">droits humains</text>
</g>
<!-- b1&#45;&gt;c2 -->
<g id="edge5" class="edge">
<title>b1-&gt;c2</title>
<path fill="none" stroke="#000000" d="M267.2992,-592.5351C267.2992,-584.6507 267.2992,-576.3006 267.2992,-567.9417"/>
<polygon fill="#000000" stroke="#000000" points="270.7993,-567.7722 267.2992,-557.7722 263.7993,-567.7723 270.7993,-567.7722"/>
</g>
<!-- c3 -->
<g id="node6" class="node">
<title>c3</title>
<polygon fill="#ffffff" stroke="#7f7f7f" points="509.28,-547.9724 367.3184,-547.9724 367.3184,-443.9724 509.28,-443.9724 509.28,-547.9724"/>
<text text-anchor="middle" x="438.2992" y="-529.5724" font-family="Times,serif" font-size="16.00" fill="#000000">Le désir</text>
<text text-anchor="middle" x="438.2992" y="-510.3724" font-family="Times,serif" font-size="16.00" fill="#000000">de s'exprimer est</text>
<text text-anchor="middle" x="438.2992" y="-491.1724" font-family="Times,serif" font-size="16.00" fill="#000000">une caractéristique</text>
<text text-anchor="middle" x="438.2992" y="-471.9724" font-family="Times,serif" font-size="16.00" fill="#000000">essentielle des</text>
<text text-anchor="middle" x="438.2992" y="-452.7724" font-family="Times,serif" font-size="16.00" fill="#000000">êtres humains</text>
</g>
<!-- b1&#45;&gt;c3 -->
<g id="edge6" class="edge">
<title>b1-&gt;c3</title>
<path fill="none" stroke="#000000" d="M312.2274,-601.3907C329.3607,-587.0642 349.3237,-570.3716 368.2431,-554.5517"/>
<polygon fill="#000000" stroke="#000000" points="370.5672,-557.1707 375.9936,-548.0709 366.0769,-551.8007 370.5672,-557.1707"/>
</g>
<!-- c4 -->
<g id="node7" class="node">
<title>c4</title>
<polygon fill="#ffffff" stroke="#7f7f7f" points="792.4673,-538.2726 620.1311,-538.2726 620.1311,-453.6722 792.4673,-453.6722 792.4673,-538.2726"/>
<text text-anchor="middle" x="706.2992" y="-519.9724" font-family="Times,serif" font-size="16.00" fill="#000000">Il y a des limites à la</text>
<text text-anchor="middle" x="706.2992" y="-500.7724" font-family="Times,serif" font-size="16.00" fill="#000000">liberté d'expression qui</text>
<text text-anchor="middle" x="706.2992" y="-481.5724" font-family="Times,serif" font-size="16.00" fill="#000000">ne sont généralement</text>
<text text-anchor="middle" x="706.2992" y="-462.3724" font-family="Times,serif" font-size="16.00" fill="#000000">pas contestées</text>
</g>
<!-- b2&#45;&gt;c4 -->
<g id="edge7" class="edge">
<title>b2-&gt;c4</title>
<path fill="none" stroke="#000000" d="M743.2133,-593.7169C737.7383,-579.2199 731.6318,-563.0505 725.9866,-548.1026"/>
<polygon fill="#000000" stroke="#000000" points="729.1622,-546.6044 722.3548,-538.4859 722.6136,-549.0775 729.1622,-546.6044"/>
</g>
<!-- c5 -->
<g id="node8" class="node">
<title>c5</title>
<polygon fill="#ffffff" stroke="#7f7f7f" points="1115.0211,-538.2726 963.5773,-538.2726 963.5773,-453.6722 1115.0211,-453.6722 1115.0211,-538.2726"/>
<text text-anchor="middle" x="1039.2992" y="-519.9724" font-family="Times,serif" font-size="16.00" fill="#000000">Il y a des limites</text>
<text text-anchor="middle" x="1039.2992" y="-500.7724" font-family="Times,serif" font-size="16.00" fill="#000000">possibles à la</text>
<text text-anchor="middle" x="1039.2992" y="-481.5724" font-family="Times,serif" font-size="16.00" fill="#000000">liberté d'expression,</text>
<text text-anchor="middle" x="1039.2992" y="-462.3724" font-family="Times,serif" font-size="16.00" fill="#000000">qui font débat</text>
</g>
<!-- b2&#45;&gt;c5 -->
<g id="edge8" class="edge">
<title>b2-&gt;c5</title>
<path fill="none" stroke="#000000" d="M814.7555,-611.05C854.4506,-590.7064 909.0018,-562.7492 954.3954,-539.4852"/>
<polygon fill="#000000" stroke="#000000" points="956.0418,-542.5744 963.3449,-534.8987 952.8492,-536.3448 956.0418,-542.5744"/>
</g>
<!-- e1 -->
<g id="node19" class="node">
<title>e1</title>
<path fill="#fafafa" stroke="transparent" d="M156.3981,-426.1736C156.3981,-426.1736 12.2003,-426.1736 12.2003,-426.1736 6.2003,-426.1736 .2003,-420.1736 .2003,-414.1736 .2003,-414.1736 .2003,-372.9712 .2003,-372.9712 .2003,-366.9712 6.2003,-360.9712 12.2003,-360.9712 12.2003,-360.9712 156.3981,-360.9712 156.3981,-360.9712 162.3981,-360.9712 168.3981,-366.9712 168.3981,-372.9712 168.3981,-372.9712 168.3981,-414.1736 168.3981,-414.1736 168.3981,-420.1736 162.3981,-426.1736 156.3981,-426.1736"/>
<text text-anchor="middle" x="84.2992" y="-407.9724" font-family="Times,serif" font-size="16.00" fill="#cd2626">La liberté d'expression</text>
<text text-anchor="middle" x="84.2992" y="-388.7724" font-family="Times,serif" font-size="16.00" fill="#cd2626">est au fondement de</text>
<text text-anchor="middle" x="84.2992" y="-369.5724" font-family="Times,serif" font-size="16.00" fill="#cd2626">toute démocratie</text>
</g>
<!-- c1&#45;&gt;e1 -->
<!-- e2 -->
<g id="node20" class="node">
<title>e2</title>
<path fill="#fafafa" stroke="transparent" d="M339.3981,-426.1736C339.3981,-426.1736 195.2003,-426.1736 195.2003,-426.1736 189.2003,-426.1736 183.2003,-420.1736 183.2003,-414.1736 183.2003,-414.1736 183.2003,-372.9712 183.2003,-372.9712 183.2003,-366.9712 189.2003,-360.9712 195.2003,-360.9712 195.2003,-360.9712 339.3981,-360.9712 339.3981,-360.9712 345.3981,-360.9712 351.3981,-366.9712 351.3981,-372.9712 351.3981,-372.9712 351.3981,-414.1736 351.3981,-414.1736 351.3981,-420.1736 345.3981,-426.1736 339.3981,-426.1736"/>
<text text-anchor="middle" x="267.2992" y="-407.9724" font-family="Times,serif" font-size="16.00" fill="#cd2626">La liberté d'expression</text>
<text text-anchor="middle" x="267.2992" y="-388.7724" font-family="Times,serif" font-size="16.00" fill="#cd2626">est au fondement des</text>
<text text-anchor="middle" x="267.2992" y="-369.5724" font-family="Times,serif" font-size="16.00" fill="#cd2626">autres droits humains</text>
</g>
<!-- c2&#45;&gt;e2 -->
<!-- c3&#45;&gt;c4 -->
<!-- e3 -->
<g id="node21" class="node">
<title>e3</title>
<path fill="#fafafa" stroke="transparent" d="M525.6965,-426.1736C525.6965,-426.1736 376.9019,-426.1736 376.9019,-426.1736 370.9019,-426.1736 364.9019,-420.1736 364.9019,-414.1736 364.9019,-414.1736 364.9019,-372.9712 364.9019,-372.9712 364.9019,-366.9712 370.9019,-360.9712 376.9019,-360.9712 376.9019,-360.9712 525.6965,-360.9712 525.6965,-360.9712 531.6965,-360.9712 537.6965,-366.9712 537.6965,-372.9712 537.6965,-372.9712 537.6965,-414.1736 537.6965,-414.1736 537.6965,-420.1736 531.6965,-426.1736 525.6965,-426.1736"/>
<text text-anchor="middle" x="451.2992" y="-407.9724" font-family="Times,serif" font-size="16.00" fill="#cd2626">La liberté d'expression</text>
<text text-anchor="middle" x="451.2992" y="-388.7724" font-family="Times,serif" font-size="16.00" fill="#cd2626">est au fondement d'une</text>
<text text-anchor="middle" x="451.2992" y="-369.5724" font-family="Times,serif" font-size="16.00" fill="#cd2626">vie proprement humaine</text>
</g>
<!-- c3&#45;&gt;e3 -->
<!-- bc1 -->
<g id="node9" class="node">
<title>bc1</title>
<ellipse fill="#c7c7c7" stroke="#7f7f7f" cx="563.2992" cy="-288.3862" rx="50.0212" ry="32.6206"/>
<text text-anchor="middle" x="563.2992" y="-293.1862" font-family="Times,serif" font-size="16.00" fill="#000000">Les</text>
<text text-anchor="middle" x="563.2992" y="-273.9862" font-family="Times,serif" font-size="16.00" fill="#000000">menaces</text>
</g>
<!-- c4&#45;&gt;bc1 -->
<g id="edge10" class="edge">
<title>c4-&gt;bc1</title>
<path fill="none" stroke="#000000" d="M677.0159,-453.4633C651.3715,-416.2365 614.4387,-362.6229 589.6917,-326.699"/>
<polygon fill="#000000" stroke="#000000" points="592.5423,-324.6673 583.987,-318.4177 586.7777,-328.6384 592.5423,-324.6673"/>
</g>
<!-- bc2 -->
<g id="node10" class="node">
<title>bc2</title>
<ellipse fill="#c7c7c7" stroke="#7f7f7f" cx="706.2992" cy="-288.3862" rx="64.189" ry="32.6206"/>
<text text-anchor="middle" x="706.2992" y="-293.1862" font-family="Times,serif" font-size="16.00" fill="#000000">La</text>
<text text-anchor="middle" x="706.2992" y="-273.9862" font-family="Times,serif" font-size="16.00" fill="#000000">diffamation</text>
</g>
<!-- c4&#45;&gt;bc2 -->
<g id="edge11" class="edge">
<title>c4-&gt;bc2</title>
<path fill="none" stroke="#000000" d="M706.2992,-453.4633C706.2992,-417.8364 706.2992,-367.2011 706.2992,-331.4261"/>
<polygon fill="#000000" stroke="#000000" points="709.7993,-331.2949 706.2992,-321.295 702.7993,-331.295 709.7993,-331.2949"/>
</g>
<!-- bc3 -->
<g id="node11" class="node">
<title>bc3</title>
<ellipse fill="#c7c7c7" stroke="#7f7f7f" cx="940.2992" cy="-288.3862" rx="69.369" ry="46.2727"/>
<text text-anchor="middle" x="940.2992" y="-302.7862" font-family="Times,serif" font-size="16.00" fill="#000000">L'injure et</text>
<text text-anchor="middle" x="940.2992" y="-283.5862" font-family="Times,serif" font-size="16.00" fill="#000000">l'expression</text>
<text text-anchor="middle" x="940.2992" y="-264.3862" font-family="Times,serif" font-size="16.00" fill="#000000">de la haine</text>
</g>
<!-- c5&#45;&gt;bc3 -->
<g id="edge12" class="edge">
<title>c5-&gt;bc3</title>
<path fill="none" stroke="#000000" d="M1019.0262,-453.4633C1003.6032,-421.1239 982.2825,-376.418 965.7182,-341.6856"/>
<polygon fill="#000000" stroke="#000000" points="968.863,-340.1487 961.3992,-332.6293 962.5447,-343.162 968.863,-340.1487"/>
</g>
<!-- bc4 -->
<g id="node12" class="node">
<title>bc4</title>
<ellipse fill="#c7c7c7" stroke="#7f7f7f" cx="1137.2992" cy="-288.3862" rx="97.7386" ry="46.2727"/>
<text text-anchor="middle" x="1137.2992" y="-302.7862" font-family="Times,serif" font-size="16.00" fill="#000000">Les offenses à la</text>
<text text-anchor="middle" x="1137.2992" y="-283.5862" font-family="Times,serif" font-size="16.00" fill="#000000">sensiblité morale :</text>
<text text-anchor="middle" x="1137.2992" y="-264.3862" font-family="Times,serif" font-size="16.00" fill="#000000">l'obscénité</text>
</g>
<!-- c5&#45;&gt;bc4 -->
<g id="edge13" class="edge">
<title>c5-&gt;bc4</title>
<path fill="none" stroke="#000000" d="M1059.3674,-453.4633C1074.4161,-421.5868 1095.137,-377.6953 1111.43,-343.1831"/>
<polygon fill="#000000" stroke="#000000" points="1114.7955,-344.2526 1115.8996,-333.7154 1108.4654,-341.2641 1114.7955,-344.2526"/>
</g>
<!-- bc5 -->
<g id="node13" class="node">
<title>bc5</title>
<ellipse fill="#c7c7c7" stroke="#7f7f7f" cx="1361.2992" cy="-288.3862" rx="104.15" ry="46.2727"/>
<text text-anchor="middle" x="1361.2992" y="-302.7862" font-family="Times,serif" font-size="16.00" fill="#000000">Les offenses à des</text>
<text text-anchor="middle" x="1361.2992" y="-283.5862" font-family="Times,serif" font-size="16.00" fill="#000000">symboles nationaux</text>
<text text-anchor="middle" x="1361.2992" y="-264.3862" font-family="Times,serif" font-size="16.00" fill="#000000">ou religieux</text>
</g>
<!-- c5&#45;&gt;bc5 -->
<g id="edge14" class="edge">
<title>c5-&gt;bc5</title>
<path fill="none" stroke="#000000" d="M1105.2377,-453.4633C1160.0782,-418.1089 1237.8446,-367.9746 1293.2601,-332.2495"/>
<polygon fill="#000000" stroke="#000000" points="1295.4468,-335.0041 1301.9551,-326.644 1291.6539,-329.1207 1295.4468,-335.0041"/>
</g>
<!-- d1 -->
<g id="node14" class="node">
<title>d1</title>
<path fill="#ffffff" stroke="#7f7f7f" d="M584.2528,-206.5002C584.2528,-206.5002 428.3456,-206.5002 428.3456,-206.5002 422.3456,-206.5002 416.3456,-200.5002 416.3456,-194.5002 416.3456,-194.5002 416.3456,-95.0998 416.3456,-95.0998 416.3456,-89.0998 422.3456,-83.0998 428.3456,-83.0998 428.3456,-83.0998 584.2528,-83.0998 584.2528,-83.0998 590.2528,-83.0998 596.2528,-89.0998 596.2528,-95.0998 596.2528,-95.0998 596.2528,-194.5002 596.2528,-194.5002 596.2528,-200.5002 590.2528,-206.5002 584.2528,-206.5002"/>
<text text-anchor="middle" x="506.2992" y="-188" font-family="Times,serif" font-size="16.00" fill="#000000">= une forme</text>
<text text-anchor="middle" x="506.2992" y="-168.8" font-family="Times,serif" font-size="16.00" fill="#000000">d'expression qui met</text>
<text text-anchor="middle" x="506.2992" y="-149.6" font-family="Times,serif" font-size="16.00" fill="#000000">en danger l'intégrité</text>
<text text-anchor="middle" x="506.2992" y="-130.4" font-family="Times,serif" font-size="16.00" fill="#000000">physique d'une personne</text>
<text text-anchor="middle" x="506.2992" y="-111.2" font-family="Times,serif" font-size="16.00" fill="#000000">ou d'un groupe de</text>
<text text-anchor="middle" x="506.2992" y="-92" font-family="Times,serif" font-size="16.00" fill="#000000">personnes défini</text>
</g>
<!-- bc1&#45;&gt;d1 -->
<g id="edge15" class="edge">
<title>bc1-&gt;d1</title>
<path fill="none" stroke="#000000" d="M550.6491,-256.5198C545.86,-244.4559 540.1955,-230.1866 534.5443,-215.951"/>
<polygon fill="#000000" stroke="#000000" points="537.7847,-214.6276 530.8419,-206.6245 531.2786,-217.2103 537.7847,-214.6276"/>
</g>
<!-- d2 -->
<g id="node15" class="node">
<title>d2</title>
<path fill="#ffffff" stroke="#7f7f7f" d="M790.2272,-216.2006C790.2272,-216.2006 622.3712,-216.2006 622.3712,-216.2006 616.3712,-216.2006 610.3712,-210.2006 610.3712,-204.2006 610.3712,-204.2006 610.3712,-85.3994 610.3712,-85.3994 610.3712,-79.3994 616.3712,-73.3994 622.3712,-73.3994 622.3712,-73.3994 790.2272,-73.3994 790.2272,-73.3994 796.2272,-73.3994 802.2272,-79.3994 802.2272,-85.3994 802.2272,-85.3994 802.2272,-204.2006 802.2272,-204.2006 802.2272,-210.2006 796.2272,-216.2006 790.2272,-216.2006"/>
<text text-anchor="middle" x="706.2992" y="-197.6" font-family="Times,serif" font-size="16.00" fill="#000000">= une accusation sans</text>
<text text-anchor="middle" x="706.2992" y="-178.4" font-family="Times,serif" font-size="16.00" fill="#000000">preuve, ou relative à la vie</text>
<text text-anchor="middle" x="706.2992" y="-159.2" font-family="Times,serif" font-size="16.00" fill="#000000">privée, qui porte atteinte</text>
<text text-anchor="middle" x="706.2992" y="-140" font-family="Times,serif" font-size="16.00" fill="#000000">à l'intégrité morale</text>
<text text-anchor="middle" x="706.2992" y="-120.8" font-family="Times,serif" font-size="16.00" fill="#000000">(l'honneur, la réputation)</text>
<text text-anchor="middle" x="706.2992" y="-101.6" font-family="Times,serif" font-size="16.00" fill="#000000">d'une personne ou d'un</text>
<text text-anchor="middle" x="706.2992" y="-82.4" font-family="Times,serif" font-size="16.00" fill="#000000">groupe de personnes défini</text>
</g>
<!-- bc2&#45;&gt;d2 -->
<g id="edge16" class="edge">
<title>bc2-&gt;d2</title>
<path fill="none" stroke="#000000" d="M706.2992,-255.4446C706.2992,-246.6269 706.2992,-236.6901 706.2992,-226.4815"/>
<polygon fill="#000000" stroke="#000000" points="709.7993,-226.2135 706.2992,-216.2135 702.7993,-226.2136 709.7993,-226.2135"/>
</g>
<!-- d3 -->
<g id="node16" class="node">
<title>d3</title>
<path fill="#ffffff" stroke="#7f7f7f" d="M1027.2637,-216.2006C1027.2637,-216.2006 841.3347,-216.2006 841.3347,-216.2006 835.3347,-216.2006 829.3347,-210.2006 829.3347,-204.2006 829.3347,-204.2006 829.3347,-85.3994 829.3347,-85.3994 829.3347,-79.3994 835.3347,-73.3994 841.3347,-73.3994 841.3347,-73.3994 1027.2637,-73.3994 1027.2637,-73.3994 1033.2637,-73.3994 1039.2637,-79.3994 1039.2637,-85.3994 1039.2637,-85.3994 1039.2637,-204.2006 1039.2637,-204.2006 1039.2637,-210.2006 1033.2637,-216.2006 1027.2637,-216.2006"/>
<text text-anchor="middle" x="934.2992" y="-197.6" font-family="Times,serif" font-size="16.00" fill="#000000">= une forme d'expression</text>
<text text-anchor="middle" x="934.2992" y="-178.4" font-family="Times,serif" font-size="16.00" fill="#000000">méprisante ou violente</text>
<text text-anchor="middle" x="934.2992" y="-159.2" font-family="Times,serif" font-size="16.00" fill="#000000">qui vise, sans accusation</text>
<text text-anchor="middle" x="934.2992" y="-140" font-family="Times,serif" font-size="16.00" fill="#000000">précise, à porter atteinte à</text>
<text text-anchor="middle" x="934.2992" y="-120.8" font-family="Times,serif" font-size="16.00" fill="#000000">l'intégrité morale (la dignité)</text>
<text text-anchor="middle" x="934.2992" y="-101.6" font-family="Times,serif" font-size="16.00" fill="#000000">d'une personne ou d'un</text>
<text text-anchor="middle" x="934.2992" y="-82.4" font-family="Times,serif" font-size="16.00" fill="#000000">groupe de personnes défini</text>
</g>
<!-- bc3&#45;&gt;d3 -->
<g id="edge17" class="edge">
<title>bc3-&gt;d3</title>
<path fill="none" stroke="#000000" d="M938.3512,-241.7679C938.1427,-236.7779 937.9264,-231.6021 937.7071,-226.3554"/>
<polygon fill="#000000" stroke="#000000" points="941.1977,-226.0537 937.2831,-216.2086 934.2038,-226.346 941.1977,-226.0537"/>
</g>
<!-- d4 -->
<g id="node17" class="node">
<title>d4</title>
<path fill="#ffffff" stroke="#7f7f7f" d="M1241.3772,-206.5002C1241.3772,-206.5002 1065.2212,-206.5002 1065.2212,-206.5002 1059.2212,-206.5002 1053.2212,-200.5002 1053.2212,-194.5002 1053.2212,-194.5002 1053.2212,-95.0998 1053.2212,-95.0998 1053.2212,-89.0998 1059.2212,-83.0998 1065.2212,-83.0998 1065.2212,-83.0998 1241.3772,-83.0998 1241.3772,-83.0998 1247.3772,-83.0998 1253.3772,-89.0998 1253.3772,-95.0998 1253.3772,-95.0998 1253.3772,-194.5002 1253.3772,-194.5002 1253.3772,-200.5002 1247.3772,-206.5002 1241.3772,-206.5002"/>
<text text-anchor="middle" x="1153.2992" y="-188" font-family="Times,serif" font-size="16.00" fill="#000000">= une forme d'expression</text>
<text text-anchor="middle" x="1153.2992" y="-168.8" font-family="Times,serif" font-size="16.00" fill="#000000">qui, par sa violence ou son</text>
<text text-anchor="middle" x="1153.2992" y="-149.6" font-family="Times,serif" font-size="16.00" fill="#000000">caractère explicite, offense</text>
<text text-anchor="middle" x="1153.2992" y="-130.4" font-family="Times,serif" font-size="16.00" fill="#000000">le sentiment de pudeur ou</text>
<text text-anchor="middle" x="1153.2992" y="-111.2" font-family="Times,serif" font-size="16.00" fill="#000000">notre sensibilité face à la</text>
<text text-anchor="middle" x="1153.2992" y="-92" font-family="Times,serif" font-size="16.00" fill="#000000">représentation de la violence</text>
</g>
<!-- bc4&#45;&gt;d4 -->
<g id="edge18" class="edge">
<title>bc4-&gt;d4</title>
<path fill="none" stroke="#000000" d="M1142.4939,-241.7679C1143.3924,-233.7045 1144.345,-225.1561 1145.2976,-216.6074"/>
<polygon fill="#000000" stroke="#000000" points="1148.7836,-216.927 1146.4126,-206.6009 1141.8266,-216.1517 1148.7836,-216.927"/>
</g>
<!-- d5 -->
<g id="node18" class="node">
<title>d5</title>
<path fill="#ffffff" stroke="#7f7f7f" d="M1448.6217,-196.8C1448.6217,-196.8 1279.9767,-196.8 1279.9767,-196.8 1273.9767,-196.8 1267.9767,-190.8 1267.9767,-184.8 1267.9767,-184.8 1267.9767,-104.8 1267.9767,-104.8 1267.9767,-98.8 1273.9767,-92.8 1279.9767,-92.8 1279.9767,-92.8 1448.6217,-92.8 1448.6217,-92.8 1454.6217,-92.8 1460.6217,-98.8 1460.6217,-104.8 1460.6217,-104.8 1460.6217,-184.8 1460.6217,-184.8 1460.6217,-190.8 1454.6217,-196.8 1448.6217,-196.8"/>
<text text-anchor="middle" x="1364.2992" y="-178.4" font-family="Times,serif" font-size="16.00" fill="#000000">= une forme d'expression</text>
<text text-anchor="middle" x="1364.2992" y="-159.2" font-family="Times,serif" font-size="16.00" fill="#000000">irrespectueuse envers un</text>
<text text-anchor="middle" x="1364.2992" y="-140" font-family="Times,serif" font-size="16.00" fill="#000000">symbole considéré comme</text>
<text text-anchor="middle" x="1364.2992" y="-120.8" font-family="Times,serif" font-size="16.00" fill="#000000">important par une nation</text>
<text text-anchor="middle" x="1364.2992" y="-101.6" font-family="Times,serif" font-size="16.00" fill="#000000">ou une religion</text>
</g>
<!-- bc5&#45;&gt;d5 -->
<g id="edge19" class="edge">
<title>bc5-&gt;d5</title>
<path fill="none" stroke="#000000" d="M1362.2732,-241.7679C1362.5048,-230.6843 1362.7555,-218.6842 1362.9991,-207.0267"/>
<polygon fill="#000000" stroke="#000000" points="1366.5009,-206.973 1363.2106,-196.902 1359.5024,-206.8267 1366.5009,-206.973"/>
</g>
<!-- e4 -->
<g id="node22" class="node">
<title>e4</title>
<path fill="#fafafa" stroke="transparent" d="M753.5849,-65.4012C753.5849,-65.4012 449.0135,-65.4012 449.0135,-65.4012 443.0135,-65.4012 437.0135,-59.4012 437.0135,-53.4012 437.0135,-53.4012 437.0135,-12.1988 437.0135,-12.1988 437.0135,-6.1988 443.0135,-.1988 449.0135,-.1988 449.0135,-.1988 753.5849,-.1988 753.5849,-.1988 759.5849,-.1988 765.5849,-6.1988 765.5849,-12.1988 765.5849,-12.1988 765.5849,-53.4012 765.5849,-53.4012 765.5849,-59.4012 759.5849,-65.4012 753.5849,-65.4012"/>
<text text-anchor="middle" x="601.2992" y="-47.2" font-family="Times,serif" font-size="16.00" fill="#cd2626">Dans ces deux cas, le principe de non-nuisance</text>
<text text-anchor="middle" x="601.2992" y="-28" font-family="Times,serif" font-size="16.00" fill="#cd2626">envers autrui s'applique plus facilement, dans la</text>
<text text-anchor="middle" x="601.2992" y="-8.8" font-family="Times,serif" font-size="16.00" fill="#cd2626">mesure où il y a un préjudice réel et identifiable</text>
</g>
<!-- d1&#45;&gt;e4 -->
<!-- d2&#45;&gt;d3 -->
<!-- d2&#45;&gt;e4 -->
<!-- e5 -->
<g id="node23" class="node">
<title>e5</title>
<path fill="#fafafa" stroke="transparent" d="M1418.8434,-65.4012C1418.8434,-65.4012 887.755,-65.4012 887.755,-65.4012 881.755,-65.4012 875.755,-59.4012 875.755,-53.4012 875.755,-53.4012 875.755,-12.1988 875.755,-12.1988 875.755,-6.1988 881.755,-.1988 887.755,-.1988 887.755,-.1988 1418.8434,-.1988 1418.8434,-.1988 1424.8434,-.1988 1430.8434,-6.1988 1430.8434,-12.1988 1430.8434,-12.1988 1430.8434,-53.4012 1430.8434,-53.4012 1430.8434,-59.4012 1424.8434,-65.4012 1418.8434,-65.4012"/>
<text text-anchor="middle" x="1153.2992" y="-47.2" font-family="Times,serif" font-size="16.00" fill="#cd2626">Dans ces trois cas, la question est de savoir si le principe de non-nuisance</text>
<text text-anchor="middle" x="1153.2992" y="-28" font-family="Times,serif" font-size="16.00" fill="#cd2626">envers autrui s'applique : y a-t-il ou non préjudice réel ou bien faut-il accepter ces</text>
<text text-anchor="middle" x="1153.2992" y="-8.8" font-family="Times,serif" font-size="16.00" fill="#cd2626">formes d'expression en raison de l'absence d'un tort réel et facilement identifiable ?</text>
</g>
<!-- d3&#45;&gt;e5 -->
<!-- d4&#45;&gt;e5 -->
<!-- d5&#45;&gt;e5 -->
</g>
</svg>