<?xml version="1.0" encoding="UTF-8" standalone="no"?>
<!DOCTYPE svg PUBLIC "-//W3C//DTD SVG 1.1//EN"
 "http://www.w3.org/Graphics/SVG/1.1/DTD/svg11.dtd">
<!-- Generated by graphviz version 2.40.1 (20161225.0304)
 -->
<!-- Title: G Pages: 1 -->
<svg width="426pt" height="411pt"
 viewBox="0.00 0.00 425.65 410.84" xmlns="http://www.w3.org/2000/svg" xmlns:xlink="http://www.w3.org/1999/xlink">
<g id="graph0" class="graph" transform="scale(1 1) rotate(0) translate(21.6 389.2425)">
<title>G</title>
<polygon fill="#fafafa" stroke="transparent" points="-21.6,21.6 -21.6,-389.2425 404.0472,-389.2425 404.0472,21.6 -21.6,21.6"/>
<!-- a1 -->
<g id="node1" class="node">
<title>a1</title>
<ellipse fill="#000000" stroke="#000000" cx="204.3116" cy="-346.7121" rx="61.1211" ry="20.861"/>
<text text-anchor="middle" x="204.3116" y="-341.3121" font-family="Times,serif" font-size="18.00" fill="#ffffff">La liberté</text>
</g>
<!-- b1 -->
<g id="node2" class="node">
<title>b1</title>
<ellipse fill="#8b0000" stroke="#000000" cx="123.3116" cy="-251.8909" rx="70.5661" ry="38.7821"/>
<text text-anchor="start" x="91.8868" y="-261.9909" font-family="Times,serif" font-size="16.00" fill="#ffffff">La liberté</text>
<text text-anchor="start" x="81.4372" y="-245.9909" font-family="Times,serif" font-size="16.00" fill="#ffffff">de la volonté</text>
<text text-anchor="start" x="85.334" y="-230.5909" font-family="Times,serif" font-size="12.00" fill="#ffffff">(le libre arbitre)</text>
</g>
<!-- a1&#45;&gt;b1 -->
<g id="edge1" class="edge">
<title>a1&#45;&gt;b1:n</title>
<path fill="none" stroke="#000000" d="M158.133,-332.6118C143.2113,-325.5043 129.3387,-315.249 124.8351,-300.8505"/>
<polygon fill="#000000" stroke="#000000" points="128.2684,-300.1456 123.3116,-290.7817 121.3471,-301.1929 128.2684,-300.1456"/>
</g>
<!-- b2 -->
<g id="node3" class="node">
<title>b2</title>
<ellipse fill="#8b0000" stroke="#000000" cx="290.3116" cy="-251.8909" rx="55.5112" ry="32.6206"/>
<text text-anchor="middle" x="290.3116" y="-256.6909" font-family="Times,serif" font-size="16.00" fill="#ffffff"></text>
<text text-anchor="middle" x="290.3116" y="-237.4909" font-family="Times,serif" font-size="16.00" fill="#ffffff"></text>
</g>
<!-- a1&#45;&gt;b2 -->
<g id="edge2" class="edge">
<title>a1&#45;&gt;b2:n</title>
<path fill="none" stroke="#000000" d="M249.5782,-332.4225C267.0595,-324.2917 284.0398,-312.2101 288.9193,-294.9923"/>
<polygon fill="#000000" stroke="#000000" points="292.4134,-295.2751 290.3116,-284.8909 285.4789,-294.3193 292.4134,-295.2751"/>
</g>
<!-- c1 -->
<g id="node4" class="node">
<title>c1</title>
<polygon fill="#ffffff" stroke="#7f7f7f" points="174.0882,-178 8.535,-178 8.535,-134 174.0882,-134 174.0882,-178"/>
<text text-anchor="start" x="21.3268" y="-160.6" font-family="Times,serif" font-size="16.00" fill="#000000">Un pouvoir de choisir</text>
<text text-anchor="start" x="16.6734" y="-140.2" font-family="Times,serif" font-size="12.00" fill="#000000">“pouvoir faire</text>
<text text-anchor="start" x="87.981" y="-140.2" font-family="Times,serif" text-decoration="underline" font-size="12.00" fill="#000000">ce que je veux</text>
<text text-anchor="start" x="156.9498" y="-140.2" font-family="Times,serif" font-size="12.00" fill="#000000">”</text>
</g>
<!-- b1&#45;&gt;c1 -->
<g id="edge3" class="edge">
<title>b1&#45;&gt;c1</title>
<path fill="none" stroke="#000000" d="M110.4804,-213.4409C107.6372,-204.921 104.6549,-195.9843 101.9124,-187.7661"/>
<polygon fill="#000000" stroke="#000000" points="105.1971,-186.5521 98.7115,-178.1743 98.557,-188.768 105.1971,-186.5521"/>
</g>
<!-- c2 -->
<g id="node5" class="node">
<title>c2</title>
<polygon fill="#ffffff" stroke="#7f7f7f" points="382.583,-178 210.0402,-178 210.0402,-134 382.583,-134 382.583,-178"/>
<text text-anchor="start" x="238.5492" y="-160.6" font-family="Times,serif" font-size="16.00" fill="#000000"></text>
<text text-anchor="start" x="218.176" y="-140.2" font-family="Times,serif" font-size="12.00" fill="#000000"></text>
<text text-anchor="start" x="227.176" y="-140.2" font-family="Times,serif" text-decoration="underline" font-size="12.00" fill="#000000"></text>
<text text-anchor="start" x="289.4836" y="-140.2" font-family="Times,serif" font-size="12.00" fill="#000000"></text>
</g>
<!-- b2&#45;&gt;c2 -->
<g id="edge4" class="edge">
<title>b2&#45;&gt;c2</title>
<path fill="none" stroke="#000000" d="M292.3765,-218.8907C292.9938,-209.024 293.6699,-198.219 294.2848,-188.3918"/>
<polygon fill="#000000" stroke="#000000" points="297.7909,-188.4017 294.9224,-178.2026 290.8046,-187.9645 297.7909,-188.4017"/>
</g>
<!-- d1 -->
<g id="node6" class="node">
<title>d1</title>
<path fill="#ffffff" stroke="#7f7f7f" d="M168.4352,-92C168.4352,-92 12.188,-92 12.188,-92 6.188,-92 .188,-86 .188,-80 .188,-80 .188,-19 .188,-19 .188,-13 6.188,-7 12.188,-7 12.188,-7 168.4352,-7 168.4352,-7 174.4352,-7 180.4352,-13 180.4352,-19 180.4352,-19 180.4352,-80 180.4352,-80 180.4352,-86 174.4352,-92 168.4352,-92"/>
<text text-anchor="start" x="8" y="-76.4" font-family="Times,serif" font-size="14.00" fill="#000000"></text>
<text text-anchor="start" x="23.5932" y="-55.4" font-family="Times,serif" font-size="14.00" fill="#000000"></text>
<text text-anchor="start" x="18.6001" y="-41.4" font-family="Times,serif" font-size="14.00" fill="#000000"></text>
<text text-anchor="start" x="17.8161" y="-27.4" font-family="Times,serif" font-size="14.00" fill="#000000"></text>
<text text-anchor="start" x="12.1832" y="-13.4" font-family="Times,serif" font-size="14.00" fill="#000000"></text>
</g>
<!-- c1&#45;&gt;d1 -->
<g id="edge5" class="edge">
<title>c1&#45;&gt;d1</title>
<path fill="none" stroke="#000000" d="M91.1044,-133.9331C91.0177,-124.697 90.9128,-113.5284 90.8081,-102.3814"/>
<polygon fill="#000000" stroke="#000000" points="94.3064,-102.173 90.7126,-92.2064 87.3067,-102.2388 94.3064,-102.173"/>
</g>
<!-- d2 -->
<g id="node7" class="node">
<title>d2</title>
<path fill="#ffffff" stroke="#7f7f7f" d="M364.2352,-99C364.2352,-99 228.388,-99 228.388,-99 222.388,-99 216.388,-93 216.388,-87 216.388,-87 216.388,-12 216.388,-12 216.388,-6 222.388,0 228.388,0 228.388,0 364.2352,0 364.2352,0 370.2352,0 376.2352,-6 376.2352,-12 376.2352,-12 376.2352,-87 376.2352,-87 376.2352,-93 370.2352,-99 364.2352,-99"/>
<text text-anchor="start" x="233.0638" y="-83.4" font-family="Times,serif" font-size="14.00" fill="#000000"></text>
<text text-anchor="start" x="234.8887" y="-69.4" font-family="Times,serif" font-size="14.00" fill="#000000"></text>
<text text-anchor="start" x="228.4312" y="-48.4" font-family="Times,serif" font-size="14.00" fill="#000000"></text>
<text text-anchor="start" x="224.6001" y="-34.4" font-family="Times,serif" font-size="14.00" fill="#000000"></text>
<text text-anchor="start" x="237.5221" y="-20.4" font-family="Times,serif" font-size="14.00" fill="#000000"></text>
<text text-anchor="start" x="228.7714" y="-6.4" font-family="Times,serif" font-size="14.00" fill="#000000"></text>
</g>
<!-- c2&#45;&gt;d2 -->
<g id="edge6" class="edge">
<title>c2&#45;&gt;d2</title>
<path fill="none" stroke="#000000" d="M296.3116,-133.9331C296.3116,-126.6638 296.3116,-118.1974 296.3116,-109.4866"/>
<polygon fill="#000000" stroke="#000000" points="299.8117,-109.2056 296.3116,-99.2056 292.8117,-109.2057 299.8117,-109.2056"/>
</g>
</g>
</svg>
