<?xml version="1.0" encoding="UTF-8" standalone="no"?>
<!DOCTYPE svg PUBLIC "-//W3C//DTD SVG 1.1//EN"
 "http://www.w3.org/Graphics/SVG/1.1/DTD/svg11.dtd">
<!-- Generated by graphviz version 2.40.1 (20161225.0304)
 -->
<!-- Title: G Pages: 1 -->
<svg width="439pt" height="411pt"
 viewBox="0.00 0.00 439.22 410.84" xmlns="http://www.w3.org/2000/svg" xmlns:xlink="http://www.w3.org/1999/xlink">
<g id="graph0" class="graph" transform="scale(1 1) rotate(0) translate(21.6 389.2425)">
<title>G</title>
<polygon fill="#fafafa" stroke="transparent" points="-21.6,21.6 -21.6,-389.2425 417.6231,-389.2425 417.6231,21.6 -21.6,21.6"/>
<!-- a1 -->
<g id="node1" class="node">
<title>a1</title>
<ellipse fill="#000000" stroke="#000000" cx="202.7115" cy="-346.7121" rx="61.1211" ry="20.861"/>
<text text-anchor="middle" x="202.7115" y="-341.3121" font-family="Times,serif" font-size="18.00" fill="#ffffff">La liberté</text>
</g>
<!-- b1 -->
<g id="node2" class="node">
<title>b1</title>
<ellipse fill="#8b0000" stroke="#000000" cx="111.7115" cy="-251.8909" rx="55.5112" ry="32.6206"/>
<text text-anchor="middle" x="111.7115" y="-256.6909" font-family="Times,serif" font-size="16.00" fill="#ffffff">La liberté</text>
<text text-anchor="middle" x="111.7115" y="-237.4909" font-family="Times,serif" font-size="16.00" fill="#ffffff">d&#39;action</text>
</g>
<!-- a1&#45;&gt;b1 -->
<g id="edge1" class="edge">
<title>a1&#45;&gt;b1:n</title>
<path fill="none" stroke="#000000" d="M155.3458,-333.3568C136.5165,-325.3392 118.1141,-313.0745 113.0657,-294.9262"/>
<polygon fill="#000000" stroke="#000000" points="116.5175,-294.333 111.7115,-284.8909 109.5803,-295.2691 116.5175,-294.333"/>
</g>
<!-- b2 -->
<g id="node3" class="node">
<title>b2</title>
<ellipse fill="#8b0000" stroke="#000000" cx="293.7115" cy="-251.8909" rx="70.5661" ry="38.7821"/>
<text text-anchor="start" x="262.2867" y="-261.9909" font-family="Times,serif" font-size="16.00" fill="#ffffff"></text>
<text text-anchor="start" x="251.8371" y="-245.9909" font-family="Times,serif" font-size="16.00" fill="#ffffff"></text>
<text text-anchor="start" x="255.7339" y="-230.5909" font-family="Times,serif" font-size="12.00" fill="#ffffff"></text>
</g>
<!-- a1&#45;&gt;b2 -->
<g id="edge2" class="edge">
<title>a1&#45;&gt;b2:n</title>
<path fill="none" stroke="#000000" d="M253.2676,-334.6576C270.7768,-327.7309 287.2746,-317.0805 292.2167,-300.9358"/>
<polygon fill="#000000" stroke="#000000" points="295.7177,-301.1849 293.7115,-290.7817 288.7923,-300.1654 295.7177,-301.1849"/>
</g>
<!-- b1&#45;&gt;b2 -->
<!-- c1 -->
<g id="node4" class="node">
<title>c1</title>
<polygon fill="#ffffff" stroke="#7f7f7f" points="165.2372,-178 34.1858,-178 34.1858,-134 165.2372,-134 165.2372,-178"/>
<text text-anchor="start" x="47.7275" y="-164.2" font-family="Times,serif" font-size="12.00" fill="#000000"></text>
<text text-anchor="start" x="41.9491" y="-140.6" font-family="Times,serif" font-size="16.00" fill="#000000"></text>
</g>
<!-- b1&#45;&gt;c1 -->
<g id="edge4" class="edge">
<title>b1&#45;&gt;c1</title>
<path fill="none" stroke="#000000" d="M107.6153,-219.1589C106.3555,-209.0919 104.9708,-198.0267 103.7172,-188.0089"/>
<polygon fill="#000000" stroke="#000000" points="107.1836,-187.5221 102.4689,-178.0341 100.2378,-188.3913 107.1836,-187.5221"/>
</g>
<!-- c2 -->
<g id="node5" class="node">
<title>c2</title>
<polygon fill="#ffffff" stroke="#7f7f7f" points="376.6811,-178 220.7419,-178 220.7419,-134 376.6811,-134 376.6811,-178"/>
<text text-anchor="start" x="243.7323" y="-164.2" font-family="Times,serif" font-size="12.00" fill="#000000"></text>
<text text-anchor="start" x="228.7267" y="-140.6" font-family="Times,serif" font-size="16.00" fill="#000000"></text>
</g>
<!-- b2&#45;&gt;c2 -->
<g id="edge5" class="edge">
<title>b2&#45;&gt;c2</title>
<path fill="none" stroke="#000000" d="M295.7452,-212.8884C296.169,-204.7607 296.6113,-196.2775 297.0211,-188.4183"/>
<polygon fill="#000000" stroke="#000000" points="300.5294,-188.3487 297.555,-178.18 293.5389,-187.9841 300.5294,-188.3487"/>
</g>
<!-- c1&#45;&gt;c2 -->
<!-- d1 -->
<g id="node6" class="node">
<title>d1</title>
<path fill="#ffffff" stroke="#7f7f7f" d="M147.6351,-99C147.6351,-99 11.7879,-99 11.7879,-99 5.7879,-99 -.2121,-93 -.2121,-87 -.2121,-87 -.2121,-12 -.2121,-12 -.2121,-6 5.7879,0 11.7879,0 11.7879,0 147.6351,0 147.6351,0 153.6351,0 159.6351,-6 159.6351,-12 159.6351,-12 159.6351,-87 159.6351,-87 159.6351,-93 153.6351,-99 147.6351,-99"/>
<text text-anchor="start" x="16.4637" y="-83.4" font-family="Times,serif" font-size="14.00" fill="#000000"></text>
<text text-anchor="start" x="18.2886" y="-69.4" font-family="Times,serif" font-size="14.00" fill="#000000"></text>
<text text-anchor="start" x="11.8311" y="-48.4" font-family="Times,serif" font-size="14.00" fill="#000000"></text>
<text text-anchor="start" x="8" y="-34.4" font-family="Times,serif" font-size="14.00" fill="#000000"></text>
<text text-anchor="start" x="20.922" y="-20.4" font-family="Times,serif" font-size="14.00" fill="#000000"></text>
<text text-anchor="start" x="12.1713" y="-6.4" font-family="Times,serif" font-size="14.00" fill="#000000"></text>
</g>
<!-- c1&#45;&gt;d1 -->
<g id="edge7" class="edge">
<title>c1&#45;&gt;d1</title>
<path fill="none" stroke="#000000" d="M95.5675,-133.9331C94.1875,-126.5848 92.5778,-118.0132 90.9232,-109.2024"/>
<polygon fill="#000000" stroke="#000000" points="94.3315,-108.3878 89.0459,-99.2056 87.4518,-109.6798 94.3315,-108.3878"/>
</g>
<!-- d2 -->
<g id="node7" class="node">
<title>d2</title>
<path fill="#ffffff" stroke="#7f7f7f" d="M383.8351,-92C383.8351,-92 227.5879,-92 227.5879,-92 221.5879,-92 215.5879,-86 215.5879,-80 215.5879,-80 215.5879,-19 215.5879,-19 215.5879,-13 221.5879,-7 227.5879,-7 227.5879,-7 383.8351,-7 383.8351,-7 389.8351,-7 395.8351,-13 395.8351,-19 395.8351,-19 395.8351,-80 395.8351,-80 395.8351,-86 389.8351,-92 383.8351,-92"/>
<text text-anchor="start" x="223.3999" y="-76.4" font-family="Times,serif" font-size="14.00" fill="#000000"></text>
<text text-anchor="start" x="238.9931" y="-55.4" font-family="Times,serif" font-size="14.00" fill="#000000"></text>
<text text-anchor="start" x="234" y="-41.4" font-family="Times,serif" font-size="14.00" fill="#000000"></text>
<text text-anchor="start" x="233.216" y="-27.4" font-family="Times,serif" font-size="14.00" fill="#000000"></text>
<text text-anchor="start" x="227.5831" y="-13.4" font-family="Times,serif" font-size="14.00" fill="#000000"></text>
</g>
<!-- c2&#45;&gt;d2 -->
<g id="edge8" class="edge">
<title>c2&#45;&gt;d2</title>
<path fill="none" stroke="#000000" d="M300.1619,-133.9331C300.769,-124.697 301.5031,-113.5284 302.2357,-102.3814"/>
<polygon fill="#000000" stroke="#000000" points="305.741,-102.4144 302.9045,-92.2064 298.7561,-101.9553 305.741,-102.4144"/>
</g>
<!-- d1&#45;&gt;d2 -->
</g>
</svg>
