<?xml version="1.0" encoding="UTF-8" standalone="no"?><!DOCTYPE svg PUBLIC "-//W3C//DTD SVG 1.1//EN" "http://www.w3.org/Graphics/SVG/1.1/DTD/svg11.dtd"><!-- Generated by graphviz version 2.40.1 (20161225.0304)
 --><!-- Title: G Pages: 1 --><svg xmlns="http://www.w3.org/2000/svg" xmlns:xlink="http://www.w3.org/1999/xlink" width="376pt" height="411pt" viewBox="0.00 0.00 375.62 410.84">
<g id="graph0" class="graph" transform="scale(1 1) rotate(0) translate(21.6 389.2425)">
<title>G</title>
<polygon fill="#fafafa" stroke="transparent" points="-21.6,21.6 -21.6,-389.2425 354.023,-389.2425 354.023,21.6 -21.6,21.6"/>
<!-- a1 -->
<g id="node1" class="node">
<title>a1</title>
<ellipse fill="#000000" stroke="#000000" cx="166.7115" cy="-346.7121" rx="61.1211" ry="20.861"/>
<text text-anchor="middle" x="166.7115" y="-341.3121" font-family="Times,serif" font-size="18.00" fill="#ffffff">La liberté</text>
</g>
<!-- b1 -->
<g id="node2" class="node">
<title>b1</title>
<ellipse fill="#8b0000" stroke="#000000" cx="96.7115" cy="-251.8909" rx="55.5112" ry="32.6206"/>
<text text-anchor="middle" x="96.7115" y="-256.6909" font-family="Times,serif" font-size="16.00" fill="#ffffff">La liberté</text>
<text text-anchor="middle" x="96.7115" y="-237.4909" font-family="Times,serif" font-size="16.00" fill="#ffffff">d'action</text>
</g>
<!-- a1&#45;&gt;b1 -->
<g id="edge1" class="edge">
<title>a1-&gt;b1:n</title>
<path fill="none" stroke="#000000" d="M129.2524,-329.8886C115.5999,-321.4809 102.4488,-309.8982 98.1635,-295.0883"/>
<polygon fill="#000000" stroke="#000000" points="101.5863,-294.2976 96.7115,-284.8909 94.6562,-295.2844 101.5863,-294.2976"/>
</g>
<!-- b2 -->
<g id="node3" class="node">
<title>b2</title>
<ellipse fill="#8b0000" stroke="#000000" cx="238.7115" cy="-251.8909" rx="70.5661" ry="38.7821"/>
<text text-anchor="start" x="207.2867" y="-261.9909" font-family="Times,serif" font-size="16.00" fill="#ffffff">La liberté</text>
<text text-anchor="start" x="196.8371" y="-245.9909" font-family="Times,serif" font-size="16.00" fill="#ffffff">de la volonté</text>
<text text-anchor="start" x="200.7339" y="-230.5909" font-family="Times,serif" font-size="12.00" fill="#ffffff">(le libre arbitre)</text>
</g>
<!-- a1&#45;&gt;b2 -->
<g id="edge2" class="edge">
<title>a1-&gt;b2:n</title>
<path fill="none" stroke="#000000" d="M208.177,-331.0671C221.0561,-323.8672 232.9797,-313.9556 237.146,-300.874"/>
<polygon fill="#000000" stroke="#000000" points="240.6372,-301.2001 238.7115,-290.7817 233.7199,-300.127 240.6372,-301.2001"/>
</g>
<!-- c1 -->
<g id="node4" class="node">
<title>c1</title>
<polygon fill="#ffffff" stroke="#7f7f7f" points="149.2372,-178 18.1858,-178 18.1858,-134 149.2372,-134 149.2372,-178"/>
<text text-anchor="start" x="25.9491" y="-160.6" font-family="Times,serif" font-size="16.00" fill="#000000">Un pouvoir d'agir</text>
<text text-anchor="start" x="31.7275" y="-140.2" font-family="Times,serif" font-size="12.00" fill="#000000">« Pouvoir faire … »</text>
</g>
<!-- b1&#45;&gt;c1 -->
<g id="edge3" class="edge">
<title>b1-&gt;c1</title>
<path fill="none" stroke="#000000" d="M92.274,-219.1589C90.9092,-209.0919 89.4091,-198.0267 88.051,-188.0089"/>
<polygon fill="#000000" stroke="#000000" points="91.5105,-187.4732 86.6987,-178.0341 84.5739,-188.4137 91.5105,-187.4732"/>
</g>
<!-- c2 -->
<g id="node5" class="node">
<title>c2</title>
<polygon fill="#ffffff" stroke="#7f7f7f" points="326.6811,-178 170.7419,-178 170.7419,-134 326.6811,-134 326.6811,-178"/>
<text text-anchor="start" x="178.7267" y="-160.6" font-family="Times,serif" font-size="16.00" fill="#000000">Un pouvoir de choisir</text>
<text text-anchor="start" x="193.7323" y="-140.2" font-family="Times,serif" font-size="12.00" fill="#000000">« … ce que je veux »</text>
</g>
<!-- b2&#45;&gt;c2 -->
<g id="edge4" class="edge">
<title>b2-&gt;c2</title>
<path fill="none" stroke="#000000" d="M242.7789,-212.8884C243.6361,-204.6683 244.5313,-196.0847 245.3587,-188.1506"/>
<polygon fill="#000000" stroke="#000000" points="248.8423,-188.4891 246.3985,-178.18 241.88,-187.763 248.8423,-188.4891"/>
</g>
<!-- d1 -->
<g id="node6" class="node">
<title>d1</title>
<path fill="#ffffff" stroke="#7f7f7f" d="M147.6351,-99C147.6351,-99 11.7879,-99 11.7879,-99 5.7879,-99 -.2121,-93 -.2121,-87 -.2121,-87 -.2121,-12 -.2121,-12 -.2121,-6 5.7879,0 11.7879,0 11.7879,0 147.6351,0 147.6351,0 153.6351,0 159.6351,-6 159.6351,-12 159.6351,-12 159.6351,-87 159.6351,-87 159.6351,-93 153.6351,-99 147.6351,-99"/>
<text text-anchor="start" x="16.4637" y="-83.4" font-family="Times,serif" font-size="14.00" fill="#000000">Ne pas être empêché</text>
<text text-anchor="start" x="18.2886" y="-69.4" font-family="Times,serif" font-size="14.00" fill="#000000">d'accomplir ses choix</text>
<text text-anchor="start" x="11.8311" y="-48.4" font-family="Times,serif" font-size="14.00" fill="#000000">= une liberté extérieure,</text>
<text text-anchor="start" x="8" y="-34.4" font-family="Times,serif" font-size="14.00" fill="#000000">qui dépend de la capacité</text>
<text text-anchor="start" x="20.922" y="-20.4" font-family="Times,serif" font-size="14.00" fill="#000000">de réaliser ses choix,</text>
<text text-anchor="start" x="12.1713" y="-6.4" font-family="Times,serif" font-size="14.00" fill="#000000">dans le monde extérieur</text>
</g>
<!-- c1&#45;&gt;d1 -->
<g id="edge5" class="edge">
<title>c1-&gt;d1</title>
<path fill="none" stroke="#000000" d="M82.8827,-133.9331C82.6067,-126.5848 82.2848,-118.0132 81.9538,-109.2024"/>
<polygon fill="#000000" stroke="#000000" points="85.4513,-109.0672 81.5784,-99.2056 78.4563,-109.33 85.4513,-109.0672"/>
</g>
<!-- d2 -->
<g id="node7" class="node">
<title>d2</title>
<path fill="#ffffff" stroke="#7f7f7f" d="M320.6351,-92C320.6351,-92 184.7879,-92 184.7879,-92 178.7879,-92 172.7879,-86 172.7879,-80 172.7879,-80 172.7879,-19 172.7879,-19 172.7879,-13 178.7879,-7 184.7879,-7 184.7879,-7 320.6351,-7 320.6351,-7 326.6351,-7 332.6351,-13 332.6351,-19 332.6351,-19 332.6351,-80 332.6351,-80 332.6351,-86 326.6351,-92 320.6351,-92"/>
<text text-anchor="start" x="182.9425" y="-76.4" font-family="Times,serif" font-size="14.00" fill="#000000">Être maître de ses actes</text>
<text text-anchor="start" x="185.9931" y="-55.4" font-family="Times,serif" font-size="14.00" fill="#000000">= une liberté intérieure,</text>
<text text-anchor="start" x="181" y="-41.4" font-family="Times,serif" font-size="14.00" fill="#000000">qui dépend de la capacité</text>
<text text-anchor="start" x="187.3133" y="-27.4" font-family="Times,serif" font-size="14.00" fill="#000000">intérieure que l'on a de</text>
<text text-anchor="start" x="182.9397" y="-13.4" font-family="Times,serif" font-size="14.00" fill="#000000">contrôler ce que l'on fait</text>
</g>
<!-- c2&#45;&gt;d2 -->
<g id="edge6" class="edge">
<title>c2-&gt;d2</title>
<path fill="none" stroke="#000000" d="M249.5403,-133.9331C249.8872,-124.697 250.3067,-113.5284 250.7253,-102.3814"/>
<polygon fill="#000000" stroke="#000000" points="254.2296,-102.3307 251.1075,-92.2064 247.2346,-102.0679 254.2296,-102.3307"/>
</g>
</g>
</svg>