<?xml version="1.0" encoding="UTF-8" standalone="no"?>
<!DOCTYPE svg PUBLIC "-//W3C//DTD SVG 1.1//EN"
 "http://www.w3.org/Graphics/SVG/1.1/DTD/svg11.dtd">
<!-- Generated by graphviz version 2.40.1 (20161225.0304)
 -->
<!-- Title: G Pages: 1 -->
<svg width="397pt" height="411pt"
 viewBox="0.00 0.00 397.22 410.84" xmlns="http://www.w3.org/2000/svg" xmlns:xlink="http://www.w3.org/1999/xlink">
<g id="graph0" class="graph" transform="scale(1 1) rotate(0) translate(21.6 389.2425)">
<title>G</title>
<polygon fill="#fafafa" stroke="transparent" points="-21.6,21.6 -21.6,-389.2425 375.6231,-389.2425 375.6231,21.6 -21.6,21.6"/>
<!-- a1 -->
<g id="node1" class="node">
<title>a1</title>
<ellipse fill="#000000" stroke="#000000" cx="168.7115" cy="-346.7121" rx="61.1211" ry="20.861"/>
<text text-anchor="middle" x="168.7115" y="-341.3121" font-family="Times,serif" font-size="18.00" fill="#ffffff">La liberté</text>
</g>
<!-- b1 -->
<g id="node2" class="node">
<title>b1</title>
<ellipse fill="#8b0000" stroke="#000000" cx="97.7115" cy="-251.8909" rx="58.6671" ry="32.6206"/>
<text text-anchor="middle" x="97.7115" y="-256.6909" font-family="Times,serif" font-size="16.00" fill="#ffffff">La liberté&#13;</text>
<text text-anchor="middle" x="97.7115" y="-237.4909" font-family="Times,serif" font-size="16.00" fill="#ffffff">d&#39;action</text>
</g>
<!-- a1&#45;&gt;b1 -->
<g id="edge1" class="edge">
<title>a1&#45;&gt;b1:n</title>
<path fill="none" stroke="#000000" d="M130.7172,-330.0195C116.8697,-321.6411 103.5308,-310.0588 99.1842,-295.16"/>
<polygon fill="#000000" stroke="#000000" points="102.5958,-294.2927 97.7115,-284.8909 95.6666,-295.2865 102.5958,-294.2927"/>
</g>
<!-- b2 -->
<g id="node3" class="node">
<title>b2</title>
<ellipse fill="#8b0000" stroke="#000000" cx="242.7115" cy="-251.8909" rx="70.5661" ry="38.7821"/>
<text text-anchor="start" x="211.2867" y="-261.9909" font-family="Times,serif" font-size="16.00" fill="#ffffff">La liberté</text>
<text text-anchor="start" x="200.8371" y="-245.9909" font-family="Times,serif" font-size="16.00" fill="#ffffff">de la volonté</text>
<text text-anchor="start" x="204.7339" y="-230.5909" font-family="Times,serif" font-size="12.00" fill="#ffffff">(le libre arbitre)</text>
</g>
<!-- a1&#45;&gt;b2 -->
<g id="edge2" class="edge">
<title>a1&#45;&gt;b2:n</title>
<path fill="none" stroke="#000000" d="M211.3288,-331.3555C224.5657,-324.2045 236.8204,-314.2816 241.1025,-301.0285"/>
<polygon fill="#000000" stroke="#000000" points="244.6178,-301.2037 242.7115,-290.7817 237.7026,-300.1177 244.6178,-301.2037"/>
</g>
<!-- c1 -->
<g id="node4" class="node">
<title>c1</title>
<polygon fill="#ffffff" stroke="#7f7f7f" points="152.2372,-178 21.1858,-178 21.1858,-134 152.2372,-134 152.2372,-178"/>
<text text-anchor="start" x="34.7275" y="-164.2" font-family="Times,serif" font-size="12.00" fill="#000000">« Pouvoir faire … »</text>
<text text-anchor="start" x="28.9491" y="-140.6" font-family="Times,serif" font-size="16.00" fill="#000000">Un pouvoir d&#39;agir</text>
</g>
<!-- b1&#45;&gt;c1 -->
<g id="edge3" class="edge">
<title>b1&#45;&gt;c1</title>
<path fill="none" stroke="#000000" d="M93.9259,-218.8907C92.7941,-209.024 91.5546,-198.219 90.4273,-188.3918"/>
<polygon fill="#000000" stroke="#000000" points="93.8754,-187.7385 89.2584,-178.2026 86.921,-188.5364 93.8754,-187.7385"/>
</g>
<!-- c2 -->
<g id="node5" class="node">
<title>c2</title>
<polygon fill="#ffffff" stroke="#7f7f7f" points="335.6811,-178 179.7419,-178 179.7419,-134 335.6811,-134 335.6811,-178"/>
<text text-anchor="start" x="202.7323" y="-164.2" font-family="Times,serif" font-size="12.00" fill="#000000">« … ce que je veux »</text>
<text text-anchor="start" x="187.7267" y="-140.6" font-family="Times,serif" font-size="16.00" fill="#000000">Un pouvoir de choisir</text>
</g>
<!-- b2&#45;&gt;c2 -->
<g id="edge4" class="edge">
<title>b2&#45;&gt;c2</title>
<path fill="none" stroke="#000000" d="M248.8126,-212.8884C250.0984,-204.6683 251.4411,-196.0847 252.6822,-188.1506"/>
<polygon fill="#000000" stroke="#000000" points="256.1543,-188.6008 254.2419,-178.18 249.2384,-187.5189 256.1543,-188.6008"/>
</g>
<!-- d1 -->
<g id="node6" class="node">
<title>d1</title>
<path fill="#ffffff" stroke="#7f7f7f" d="M147.6351,-99C147.6351,-99 11.7879,-99 11.7879,-99 5.7879,-99 -.2121,-93 -.2121,-87 -.2121,-87 -.2121,-12 -.2121,-12 -.2121,-6 5.7879,0 11.7879,0 11.7879,0 147.6351,0 147.6351,0 153.6351,0 159.6351,-6 159.6351,-12 159.6351,-12 159.6351,-87 159.6351,-87 159.6351,-93 153.6351,-99 147.6351,-99"/>
<text text-anchor="start" x="16.4637" y="-83.4" font-family="Times,serif" font-size="14.00" fill="#000000">Ne pas être empêché</text>
<text text-anchor="start" x="18.2886" y="-69.4" font-family="Times,serif" font-size="14.00" fill="#000000">d&#39;accomplir ses choix</text>
<text text-anchor="start" x="11.8311" y="-48.4" font-family="Times,serif" font-size="14.00" fill="#000000">= une liberté extérieure,</text>
<text text-anchor="start" x="8" y="-34.4" font-family="Times,serif" font-size="14.00" fill="#000000">qui dépend de la capacité</text>
<text text-anchor="start" x="20.922" y="-20.4" font-family="Times,serif" font-size="14.00" fill="#000000">de réaliser ses choix,</text>
<text text-anchor="start" x="12.1713" y="-6.4" font-family="Times,serif" font-size="14.00" fill="#000000">dans le monde extérieur</text>
</g>
<!-- c1&#45;&gt;d1 -->
<g id="edge5" class="edge">
<title>c1&#45;&gt;d1</title>
<path fill="none" stroke="#000000" d="M85.2611,-133.9331C84.7781,-126.5848 84.2147,-118.0132 83.6356,-109.2024"/>
<polygon fill="#000000" stroke="#000000" points="87.127,-108.9545 82.9785,-99.2056 80.142,-109.4137 87.127,-108.9545"/>
</g>
<!-- d2 -->
<g id="node7" class="node">
<title>d2</title>
<path fill="#ffffff" stroke="#7f7f7f" d="M341.8351,-92C341.8351,-92 185.5879,-92 185.5879,-92 179.5879,-92 173.5879,-86 173.5879,-80 173.5879,-80 173.5879,-19 173.5879,-19 173.5879,-13 179.5879,-7 185.5879,-7 185.5879,-7 341.8351,-7 341.8351,-7 347.8351,-7 353.8351,-13 353.8351,-19 353.8351,-19 353.8351,-80 353.8351,-80 353.8351,-86 347.8351,-92 341.8351,-92"/>
<text text-anchor="start" x="181.3999" y="-76.4" font-family="Times,serif" font-size="14.00" fill="#000000">Être maître de ses décisions</text>
<text text-anchor="start" x="196.9931" y="-55.4" font-family="Times,serif" font-size="14.00" fill="#000000">= une liberté intérieure,</text>
<text text-anchor="start" x="192" y="-41.4" font-family="Times,serif" font-size="14.00" fill="#000000">qui dépend de la capacité</text>
<text text-anchor="start" x="191.216" y="-27.4" font-family="Times,serif" font-size="14.00" fill="#000000">de contrôler ses choix par</text>
<text text-anchor="start" x="185.5831" y="-13.4" font-family="Times,serif" font-size="14.00" fill="#000000">sa propre volonté intérieure</text>
</g>
<!-- c2&#45;&gt;d2 -->
<g id="edge6" class="edge">
<title>c2&#45;&gt;d2</title>
<path fill="none" stroke="#000000" d="M258.9547,-133.9331C259.475,-124.697 260.1043,-113.5284 260.7323,-102.3814"/>
<polygon fill="#000000" stroke="#000000" points="264.2374,-102.3874 261.3055,-92.2064 257.2485,-101.9936 264.2374,-102.3874"/>
</g>
</g>
</svg>
