<?xml version="1.0" encoding="UTF-8" standalone="no"?>
<!DOCTYPE svg PUBLIC "-//W3C//DTD SVG 1.1//EN"
 "http://www.w3.org/Graphics/SVG/1.1/DTD/svg11.dtd">
<!-- Generated by graphviz version 2.40.1 (20161225.0304)
 -->
<!-- Title: G Pages: 1 -->
<svg width="1486pt" height="836pt"
 viewBox="0.00 0.00 1486.00 835.95" xmlns="http://www.w3.org/2000/svg" xmlns:xlink="http://www.w3.org/1999/xlink">
<g id="graph0" class="graph" transform="scale(1 1) rotate(0) translate(21.6 814.3526)">
<title>G</title>
<polygon fill="#fafafa" stroke="transparent" points="-21.6,21.6 -21.6,-814.3526 1464.3956,-814.3526 1464.3956,21.6 -21.6,21.6"/>
<!-- a1 -->
<g id="node1" class="node">
<title>a1</title>
<ellipse fill="#000000" stroke="#000000" cx="505.2992" cy="-756.5487" rx="76.1893" ry="36.4089"/>
<text text-anchor="middle" x="505.2992" y="-761.9487" font-family="Times,serif" font-size="18.00" fill="#ffffff">La liberté</text>
<text text-anchor="middle" x="505.2992" y="-740.3487" font-family="Times,serif" font-size="18.00" fill="#ffffff">d&#39;expression</text>
</g>
<!-- b1 -->
<g id="node2" class="node">
<title>b1</title>
<ellipse fill="#8b0000" stroke="#000000" cx="261.2992" cy="-638.9586" rx="73.5601" ry="46.2727"/>
<text text-anchor="middle" x="261.2992" y="-653.3586" font-family="Times,serif" font-size="16.00" fill="#ffffff">C&#39;est un droit</text>
<text text-anchor="middle" x="261.2992" y="-634.1586" font-family="Times,serif" font-size="16.00" fill="#ffffff">humain</text>
<text text-anchor="middle" x="261.2992" y="-614.9586" font-family="Times,serif" font-size="16.00" fill="#ffffff">fondamental</text>
</g>
<!-- a1&#45;&gt;b1 -->
<g id="edge1" class="edge">
<title>a1&#45;&gt;b1:n</title>
<path fill="none" stroke="#000000" d="M430.4329,-749.2134C365.7124,-740.944 280.0794,-724.6534 263.9715,-695.3298"/>
<polygon fill="#000000" stroke="#000000" points="267.2656,-694.1 261.2992,-685.3448 260.5036,-695.9097 267.2656,-694.1"/>
</g>
<!-- b2 -->
<g id="node3" class="node">
<title>b2</title>
<ellipse fill="#8b0000" stroke="#000000" cx="749.2992" cy="-638.9586" rx="64.9636" ry="46.2727"/>
<text text-anchor="middle" x="749.2992" y="-653.3586" font-family="Times,serif" font-size="16.00" fill="#ffffff">Ce n&#39;est</text>
<text text-anchor="middle" x="749.2992" y="-634.1586" font-family="Times,serif" font-size="16.00" fill="#ffffff">pas un droit</text>
<text text-anchor="middle" x="749.2992" y="-614.9586" font-family="Times,serif" font-size="16.00" fill="#ffffff">absolu</text>
</g>
<!-- a1&#45;&gt;b2 -->
<g id="edge2" class="edge">
<title>a1&#45;&gt;b2:n</title>
<path fill="none" stroke="#000000" d="M580.1655,-749.2134C644.886,-740.944 730.519,-724.6534 746.6269,-695.3298"/>
<polygon fill="#000000" stroke="#000000" points="750.0948,-695.9097 749.2992,-685.3448 743.3328,-694.1 750.0948,-695.9097"/>
</g>
<!-- b1&#45;&gt;b2 -->
<!-- c1 -->
<g id="node4" class="node">
<title>c1</title>
<polygon fill="#ffffff" stroke="#7f7f7f" points="168.0779,-547.9724 16.5205,-547.9724 16.5205,-443.9724 168.0779,-443.9724 168.0779,-547.9724"/>
<text text-anchor="middle" x="92.2992" y="-529.5724" font-family="Times,serif" font-size="16.00" fill="#000000">Sans liberté</text>
<text text-anchor="middle" x="92.2992" y="-510.3724" font-family="Times,serif" font-size="16.00" fill="#000000">d&#39;expression il n&#39;y</text>
<text text-anchor="middle" x="92.2992" y="-491.1724" font-family="Times,serif" font-size="16.00" fill="#000000">a pas de débat public</text>
<text text-anchor="middle" x="92.2992" y="-471.9724" font-family="Times,serif" font-size="16.00" fill="#000000">et pas de possibilité</text>
<text text-anchor="middle" x="92.2992" y="-452.7724" font-family="Times,serif" font-size="16.00" fill="#000000">de contester les lois</text>
</g>
<!-- b1&#45;&gt;c1 -->
<g id="edge4" class="edge">
<title>b1&#45;&gt;c1</title>
<path fill="none" stroke="#000000" d="M217.3376,-601.7639C200.318,-587.3641 180.4229,-570.5314 161.5732,-554.5833"/>
<polygon fill="#000000" stroke="#000000" points="163.7467,-551.8375 153.8518,-548.0504 159.2253,-557.1814 163.7467,-551.8375"/>
</g>
<!-- c2 -->
<g id="node5" class="node">
<title>c2</title>
<polygon fill="#ffffff" stroke="#7f7f7f" points="331.6505,-557.6726 190.9479,-557.6726 190.9479,-434.2722 331.6505,-434.2722 331.6505,-557.6726"/>
<text text-anchor="middle" x="261.2992" y="-539.1724" font-family="Times,serif" font-size="16.00" fill="#000000">Sans liberté</text>
<text text-anchor="middle" x="261.2992" y="-519.9724" font-family="Times,serif" font-size="16.00" fill="#000000">d&#39;expression, on ne</text>
<text text-anchor="middle" x="261.2992" y="-500.7724" font-family="Times,serif" font-size="16.00" fill="#000000">peut pas dénoncer</text>
<text text-anchor="middle" x="261.2992" y="-481.5724" font-family="Times,serif" font-size="16.00" fill="#000000">les injustices et</text>
<text text-anchor="middle" x="261.2992" y="-462.3724" font-family="Times,serif" font-size="16.00" fill="#000000">défendre les autres</text>
<text text-anchor="middle" x="261.2992" y="-443.1724" font-family="Times,serif" font-size="16.00" fill="#000000">droits humains</text>
</g>
<!-- b1&#45;&gt;c2 -->
<g id="edge5" class="edge">
<title>b1&#45;&gt;c2</title>
<path fill="none" stroke="#000000" d="M261.2992,-592.5351C261.2992,-584.6507 261.2992,-576.3006 261.2992,-567.9417"/>
<polygon fill="#000000" stroke="#000000" points="264.7993,-567.7722 261.2992,-557.7722 257.7993,-567.7723 264.7993,-567.7722"/>
</g>
<!-- c3 -->
<g id="node6" class="node">
<title>c3</title>
<polygon fill="#ffffff" stroke="#7f7f7f" points="498.28,-547.9724 360.3184,-547.9724 360.3184,-443.9724 498.28,-443.9724 498.28,-547.9724"/>
<text text-anchor="middle" x="429.2992" y="-529.5724" font-family="Times,serif" font-size="16.00" fill="#000000">Le désir</text>
<text text-anchor="middle" x="429.2992" y="-510.3724" font-family="Times,serif" font-size="16.00" fill="#000000">de s&#39;exprimer est</text>
<text text-anchor="middle" x="429.2992" y="-491.1724" font-family="Times,serif" font-size="16.00" fill="#000000">une caractéristique</text>
<text text-anchor="middle" x="429.2992" y="-471.9724" font-family="Times,serif" font-size="16.00" fill="#000000">essentielle des</text>
<text text-anchor="middle" x="429.2992" y="-452.7724" font-family="Times,serif" font-size="16.00" fill="#000000">êtres humains</text>
</g>
<!-- b1&#45;&gt;c3 -->
<g id="edge6" class="edge">
<title>b1&#45;&gt;c3</title>
<path fill="none" stroke="#000000" d="M305.4392,-601.3907C322.1971,-587.1279 341.7104,-570.52 360.2243,-554.7627"/>
<polygon fill="#000000" stroke="#000000" points="362.7399,-557.2177 368.0866,-548.0709 358.2029,-551.887 362.7399,-557.2177"/>
</g>
<!-- c4 -->
<g id="node7" class="node">
<title>c4</title>
<polygon fill="#ffffff" stroke="#7f7f7f" points="777.4673,-538.2726 609.1311,-538.2726 609.1311,-453.6722 777.4673,-453.6722 777.4673,-538.2726"/>
<text text-anchor="middle" x="693.2992" y="-519.9724" font-family="Times,serif" font-size="16.00" fill="#000000">Il y a des limites à la</text>
<text text-anchor="middle" x="693.2992" y="-500.7724" font-family="Times,serif" font-size="16.00" fill="#000000">liberté d&#39;expression qui</text>
<text text-anchor="middle" x="693.2992" y="-481.5724" font-family="Times,serif" font-size="16.00" fill="#000000">ne sont généralement</text>
<text text-anchor="middle" x="693.2992" y="-462.3724" font-family="Times,serif" font-size="16.00" fill="#000000">pas contestées</text>
</g>
<!-- b2&#45;&gt;c4 -->
<g id="edge7" class="edge">
<title>b2&#45;&gt;c4</title>
<path fill="none" stroke="#000000" d="M731.7341,-594.1092C726.0506,-579.5974 719.6978,-563.3765 713.8195,-548.3675"/>
<polygon fill="#000000" stroke="#000000" points="716.9428,-546.7445 710.037,-538.7096 710.4249,-549.2973 716.9428,-546.7445"/>
</g>
<!-- c5 -->
<g id="node8" class="node">
<title>c5</title>
<polygon fill="#ffffff" stroke="#7f7f7f" points="1095.0211,-538.2726 947.5773,-538.2726 947.5773,-453.6722 1095.0211,-453.6722 1095.0211,-538.2726"/>
<text text-anchor="middle" x="1021.2992" y="-519.9724" font-family="Times,serif" font-size="16.00" fill="#000000">Il y a des limites</text>
<text text-anchor="middle" x="1021.2992" y="-500.7724" font-family="Times,serif" font-size="16.00" fill="#000000">possibles à la</text>
<text text-anchor="middle" x="1021.2992" y="-481.5724" font-family="Times,serif" font-size="16.00" fill="#000000">liberté d&#39;expression,</text>
<text text-anchor="middle" x="1021.2992" y="-462.3724" font-family="Times,serif" font-size="16.00" fill="#000000">qui font débat</text>
</g>
<!-- b2&#45;&gt;c5 -->
<g id="edge8" class="edge">
<title>b2&#45;&gt;c5</title>
<path fill="none" stroke="#000000" d="M801.7435,-611.3894C840.4495,-591.0423 893.8976,-562.9454 938.3676,-539.5683"/>
<polygon fill="#000000" stroke="#000000" points="940.2001,-542.5591 947.423,-534.808 936.9429,-536.3631 940.2001,-542.5591"/>
</g>
<!-- e1 -->
<g id="node19" class="node">
<title>e1</title>
<path fill="#fafafa" stroke="transparent" d="M152.3981,-426.1736C152.3981,-426.1736 12.2003,-426.1736 12.2003,-426.1736 6.2003,-426.1736 .2003,-420.1736 .2003,-414.1736 .2003,-414.1736 .2003,-372.9712 .2003,-372.9712 .2003,-366.9712 6.2003,-360.9712 12.2003,-360.9712 12.2003,-360.9712 152.3981,-360.9712 152.3981,-360.9712 158.3981,-360.9712 164.3981,-366.9712 164.3981,-372.9712 164.3981,-372.9712 164.3981,-414.1736 164.3981,-414.1736 164.3981,-420.1736 158.3981,-426.1736 152.3981,-426.1736"/>
<text text-anchor="middle" x="82.2992" y="-407.9724" font-family="Times,serif" font-size="16.00" fill="#cd2626">La liberté d&#39;expression</text>
<text text-anchor="middle" x="82.2992" y="-388.7724" font-family="Times,serif" font-size="16.00" fill="#cd2626">est au fondement de</text>
<text text-anchor="middle" x="82.2992" y="-369.5724" font-family="Times,serif" font-size="16.00" fill="#cd2626">toute démocratie</text>
</g>
<!-- c1&#45;&gt;e1 -->
<!-- e2 -->
<g id="node20" class="node">
<title>e2</title>
<path fill="#fafafa" stroke="transparent" d="M331.3981,-426.1736C331.3981,-426.1736 191.2003,-426.1736 191.2003,-426.1736 185.2003,-426.1736 179.2003,-420.1736 179.2003,-414.1736 179.2003,-414.1736 179.2003,-372.9712 179.2003,-372.9712 179.2003,-366.9712 185.2003,-360.9712 191.2003,-360.9712 191.2003,-360.9712 331.3981,-360.9712 331.3981,-360.9712 337.3981,-360.9712 343.3981,-366.9712 343.3981,-372.9712 343.3981,-372.9712 343.3981,-414.1736 343.3981,-414.1736 343.3981,-420.1736 337.3981,-426.1736 331.3981,-426.1736"/>
<text text-anchor="middle" x="261.2992" y="-407.9724" font-family="Times,serif" font-size="16.00" fill="#cd2626">La liberté d&#39;expression</text>
<text text-anchor="middle" x="261.2992" y="-388.7724" font-family="Times,serif" font-size="16.00" fill="#cd2626">est au fondement des</text>
<text text-anchor="middle" x="261.2992" y="-369.5724" font-family="Times,serif" font-size="16.00" fill="#cd2626">autres droits humains</text>
</g>
<!-- c2&#45;&gt;e2 -->
<!-- c3&#45;&gt;c4 -->
<!-- e3 -->
<g id="node21" class="node">
<title>e3</title>
<path fill="#fafafa" stroke="transparent" d="M517.6965,-426.1736C517.6965,-426.1736 368.9019,-426.1736 368.9019,-426.1736 362.9019,-426.1736 356.9019,-420.1736 356.9019,-414.1736 356.9019,-414.1736 356.9019,-372.9712 356.9019,-372.9712 356.9019,-366.9712 362.9019,-360.9712 368.9019,-360.9712 368.9019,-360.9712 517.6965,-360.9712 517.6965,-360.9712 523.6965,-360.9712 529.6965,-366.9712 529.6965,-372.9712 529.6965,-372.9712 529.6965,-414.1736 529.6965,-414.1736 529.6965,-420.1736 523.6965,-426.1736 517.6965,-426.1736"/>
<text text-anchor="middle" x="443.2992" y="-407.9724" font-family="Times,serif" font-size="16.00" fill="#cd2626">La liberté d&#39;expression</text>
<text text-anchor="middle" x="443.2992" y="-388.7724" font-family="Times,serif" font-size="16.00" fill="#cd2626">est au fondement d&#39;une</text>
<text text-anchor="middle" x="443.2992" y="-369.5724" font-family="Times,serif" font-size="16.00" fill="#cd2626">vie proprement humaine</text>
</g>
<!-- c3&#45;&gt;e3 -->
<!-- bc1 -->
<g id="node9" class="node">
<title>bc1</title>
<ellipse fill="#c7c7c7" stroke="#7f7f7f" cx="553.2992" cy="-288.3862" rx="50.0212" ry="32.6206"/>
<text text-anchor="middle" x="553.2992" y="-293.1862" font-family="Times,serif" font-size="16.00" fill="#000000">Les</text>
<text text-anchor="middle" x="553.2992" y="-273.9862" font-family="Times,serif" font-size="16.00" fill="#000000">menaces</text>
</g>
<!-- c4&#45;&gt;bc1 -->
<g id="edge10" class="edge">
<title>c4&#45;&gt;bc1</title>
<path fill="none" stroke="#000000" d="M664.6303,-453.4633C639.6297,-416.3936 603.6708,-363.0751 579.4454,-327.1547"/>
<polygon fill="#000000" stroke="#000000" points="582.0462,-324.7514 573.553,-318.4177 576.2427,-328.6654 582.0462,-324.7514"/>
</g>
<!-- bc2 -->
<g id="node10" class="node">
<title>bc2</title>
<ellipse fill="#c7c7c7" stroke="#7f7f7f" cx="693.2992" cy="-288.3862" rx="64.189" ry="32.6206"/>
<text text-anchor="middle" x="693.2992" y="-293.1862" font-family="Times,serif" font-size="16.00" fill="#000000">La</text>
<text text-anchor="middle" x="693.2992" y="-273.9862" font-family="Times,serif" font-size="16.00" fill="#000000">diffamation</text>
</g>
<!-- c4&#45;&gt;bc2 -->
<g id="edge11" class="edge">
<title>c4&#45;&gt;bc2</title>
<path fill="none" stroke="#000000" d="M693.2992,-453.4633C693.2992,-417.8364 693.2992,-367.2011 693.2992,-331.4261"/>
<polygon fill="#000000" stroke="#000000" points="696.7993,-331.2949 693.2992,-321.295 689.7993,-331.295 696.7993,-331.2949"/>
</g>
<!-- bc3 -->
<g id="node11" class="node">
<title>bc3</title>
<ellipse fill="#c7c7c7" stroke="#7f7f7f" cx="924.2992" cy="-288.3862" rx="66.7123" ry="46.2727"/>
<text text-anchor="middle" x="924.2992" y="-302.7862" font-family="Times,serif" font-size="16.00" fill="#000000">L&#39;injure et</text>
<text text-anchor="middle" x="924.2992" y="-283.5862" font-family="Times,serif" font-size="16.00" fill="#000000">l&#39;expression</text>
<text text-anchor="middle" x="924.2992" y="-264.3862" font-family="Times,serif" font-size="16.00" fill="#000000">de la haine</text>
</g>
<!-- c5&#45;&gt;bc3 -->
<g id="edge12" class="edge">
<title>c5&#45;&gt;bc3</title>
<path fill="none" stroke="#000000" d="M1001.4357,-453.4633C986.3886,-421.2615 965.612,-376.7983 949.4122,-342.1296"/>
<polygon fill="#000000" stroke="#000000" points="952.3773,-340.2073 944.9729,-332.6293 946.0354,-343.1707 952.3773,-340.2073"/>
</g>
<!-- bc4 -->
<g id="node12" class="node">
<title>bc4</title>
<ellipse fill="#c7c7c7" stroke="#7f7f7f" cx="1119.2992" cy="-288.3862" rx="98.3701" ry="46.2727"/>
<text text-anchor="middle" x="1119.2992" y="-302.7862" font-family="Times,serif" font-size="16.00" fill="#000000">Les offenses à la</text>
<text text-anchor="middle" x="1119.2992" y="-283.5862" font-family="Times,serif" font-size="16.00" fill="#000000">sensibilité morale :</text>
<text text-anchor="middle" x="1119.2992" y="-264.3862" font-family="Times,serif" font-size="16.00" fill="#000000">l&#39;obscénité</text>
</g>
<!-- c5&#45;&gt;bc4 -->
<g id="edge13" class="edge">
<title>c5&#45;&gt;bc4</title>
<path fill="none" stroke="#000000" d="M1041.3674,-453.4633C1056.4161,-421.5868 1077.137,-377.6953 1093.43,-343.1831"/>
<polygon fill="#000000" stroke="#000000" points="1096.7955,-344.2526 1097.8996,-333.7154 1090.4654,-341.2641 1096.7955,-344.2526"/>
</g>
<!-- bc5 -->
<g id="node13" class="node">
<title>bc5</title>
<ellipse fill="#c7c7c7" stroke="#7f7f7f" cx="1341.2992" cy="-288.3862" rx="101.4928" ry="46.2727"/>
<text text-anchor="middle" x="1341.2992" y="-302.7862" font-family="Times,serif" font-size="16.00" fill="#000000">Les offenses à des</text>
<text text-anchor="middle" x="1341.2992" y="-283.5862" font-family="Times,serif" font-size="16.00" fill="#000000">symboles nationaux</text>
<text text-anchor="middle" x="1341.2992" y="-264.3862" font-family="Times,serif" font-size="16.00" fill="#000000">ou religieux</text>
</g>
<!-- c5&#45;&gt;bc5 -->
<g id="edge14" class="edge">
<title>c5&#45;&gt;bc5</title>
<path fill="none" stroke="#000000" d="M1086.8282,-453.4633C1141.4148,-418.0526 1218.8575,-367.8149 1273.9456,-332.0789"/>
<polygon fill="#000000" stroke="#000000" points="1276.1035,-334.8511 1282.5881,-326.4725 1272.2939,-328.9785 1276.1035,-334.8511"/>
</g>
<!-- d1 -->
<g id="node14" class="node">
<title>d1</title>
<path fill="#ffffff" stroke="#7f7f7f" d="M572.2528,-206.5002C572.2528,-206.5002 420.3456,-206.5002 420.3456,-206.5002 414.3456,-206.5002 408.3456,-200.5002 408.3456,-194.5002 408.3456,-194.5002 408.3456,-95.0998 408.3456,-95.0998 408.3456,-89.0998 414.3456,-83.0998 420.3456,-83.0998 420.3456,-83.0998 572.2528,-83.0998 572.2528,-83.0998 578.2528,-83.0998 584.2528,-89.0998 584.2528,-95.0998 584.2528,-95.0998 584.2528,-194.5002 584.2528,-194.5002 584.2528,-200.5002 578.2528,-206.5002 572.2528,-206.5002"/>
<text text-anchor="middle" x="496.2992" y="-188" font-family="Times,serif" font-size="16.00" fill="#000000">= une forme</text>
<text text-anchor="middle" x="496.2992" y="-168.8" font-family="Times,serif" font-size="16.00" fill="#000000">d&#39;expression qui met</text>
<text text-anchor="middle" x="496.2992" y="-149.6" font-family="Times,serif" font-size="16.00" fill="#000000">en danger l&#39;intégrité</text>
<text text-anchor="middle" x="496.2992" y="-130.4" font-family="Times,serif" font-size="16.00" fill="#000000">physique d&#39;une personne</text>
<text text-anchor="middle" x="496.2992" y="-111.2" font-family="Times,serif" font-size="16.00" fill="#000000">ou d&#39;un groupe de</text>
<text text-anchor="middle" x="496.2992" y="-92" font-family="Times,serif" font-size="16.00" fill="#000000">personnes défini</text>
</g>
<!-- bc1&#45;&gt;d1 -->
<g id="edge15" class="edge">
<title>bc1&#45;&gt;d1</title>
<path fill="none" stroke="#000000" d="M540.6491,-256.5198C535.86,-244.4559 530.1955,-230.1866 524.5443,-215.951"/>
<polygon fill="#000000" stroke="#000000" points="527.7847,-214.6276 520.8419,-206.6245 521.2786,-217.2103 527.7847,-214.6276"/>
</g>
<!-- d2 -->
<g id="node15" class="node">
<title>d2</title>
<path fill="#ffffff" stroke="#7f7f7f" d="M776.2304,-216.2006C776.2304,-216.2006 610.368,-216.2006 610.368,-216.2006 604.368,-216.2006 598.368,-210.2006 598.368,-204.2006 598.368,-204.2006 598.368,-85.3994 598.368,-85.3994 598.368,-79.3994 604.368,-73.3994 610.368,-73.3994 610.368,-73.3994 776.2304,-73.3994 776.2304,-73.3994 782.2304,-73.3994 788.2304,-79.3994 788.2304,-85.3994 788.2304,-85.3994 788.2304,-204.2006 788.2304,-204.2006 788.2304,-210.2006 782.2304,-216.2006 776.2304,-216.2006"/>
<text text-anchor="middle" x="693.2992" y="-197.6" font-family="Times,serif" font-size="16.00" fill="#000000">= une accusation sans</text>
<text text-anchor="middle" x="693.2992" y="-178.4" font-family="Times,serif" font-size="16.00" fill="#000000">preuve, ou relative à la vie</text>
<text text-anchor="middle" x="693.2992" y="-159.2" font-family="Times,serif" font-size="16.00" fill="#000000">privée, qui porte atteinte</text>
<text text-anchor="middle" x="693.2992" y="-140" font-family="Times,serif" font-size="16.00" fill="#000000">à l&#39;intégrité morale</text>
<text text-anchor="middle" x="693.2992" y="-120.8" font-family="Times,serif" font-size="16.00" fill="#000000">(l&#39;honneur, la réputation)</text>
<text text-anchor="middle" x="693.2992" y="-101.6" font-family="Times,serif" font-size="16.00" fill="#000000">d&#39;une personne ou d&#39;un</text>
<text text-anchor="middle" x="693.2992" y="-82.4" font-family="Times,serif" font-size="16.00" fill="#000000">groupe de personnes défini</text>
</g>
<!-- bc2&#45;&gt;d2 -->
<g id="edge16" class="edge">
<title>bc2&#45;&gt;d2</title>
<path fill="none" stroke="#000000" d="M693.2992,-255.4446C693.2992,-246.6269 693.2992,-236.6901 693.2992,-226.4815"/>
<polygon fill="#000000" stroke="#000000" points="696.7993,-226.2135 693.2992,-216.2135 689.7993,-226.2136 696.7993,-226.2135"/>
</g>
<!-- d3 -->
<g id="node16" class="node">
<title>d3</title>
<path fill="#ffffff" stroke="#7f7f7f" d="M1009.2637,-216.2006C1009.2637,-216.2006 827.3347,-216.2006 827.3347,-216.2006 821.3347,-216.2006 815.3347,-210.2006 815.3347,-204.2006 815.3347,-204.2006 815.3347,-85.3994 815.3347,-85.3994 815.3347,-79.3994 821.3347,-73.3994 827.3347,-73.3994 827.3347,-73.3994 1009.2637,-73.3994 1009.2637,-73.3994 1015.2637,-73.3994 1021.2637,-79.3994 1021.2637,-85.3994 1021.2637,-85.3994 1021.2637,-204.2006 1021.2637,-204.2006 1021.2637,-210.2006 1015.2637,-216.2006 1009.2637,-216.2006"/>
<text text-anchor="middle" x="918.2992" y="-197.6" font-family="Times,serif" font-size="16.00" fill="#000000">= une forme d&#39;expression</text>
<text text-anchor="middle" x="918.2992" y="-178.4" font-family="Times,serif" font-size="16.00" fill="#000000">méprisante ou violente</text>
<text text-anchor="middle" x="918.2992" y="-159.2" font-family="Times,serif" font-size="16.00" fill="#000000">qui vise, sans accusation</text>
<text text-anchor="middle" x="918.2992" y="-140" font-family="Times,serif" font-size="16.00" fill="#000000">précise, à porter atteinte à</text>
<text text-anchor="middle" x="918.2992" y="-120.8" font-family="Times,serif" font-size="16.00" fill="#000000">l&#39;intégrité morale (la dignité)</text>
<text text-anchor="middle" x="918.2992" y="-101.6" font-family="Times,serif" font-size="16.00" fill="#000000">d&#39;une personne ou d&#39;un</text>
<text text-anchor="middle" x="918.2992" y="-82.4" font-family="Times,serif" font-size="16.00" fill="#000000">groupe de personnes défini</text>
</g>
<!-- bc3&#45;&gt;d3 -->
<g id="edge17" class="edge">
<title>bc3&#45;&gt;d3</title>
<path fill="none" stroke="#000000" d="M922.3512,-241.7679C922.1427,-236.7779 921.9264,-231.6021 921.7071,-226.3554"/>
<polygon fill="#000000" stroke="#000000" points="925.1977,-226.0537 921.2831,-216.2086 918.2038,-226.346 925.1977,-226.0537"/>
</g>
<!-- d4 -->
<g id="node17" class="node">
<title>d4</title>
<path fill="#ffffff" stroke="#7f7f7f" d="M1223.3772,-206.5002C1223.3772,-206.5002 1047.2212,-206.5002 1047.2212,-206.5002 1041.2212,-206.5002 1035.2212,-200.5002 1035.2212,-194.5002 1035.2212,-194.5002 1035.2212,-95.0998 1035.2212,-95.0998 1035.2212,-89.0998 1041.2212,-83.0998 1047.2212,-83.0998 1047.2212,-83.0998 1223.3772,-83.0998 1223.3772,-83.0998 1229.3772,-83.0998 1235.3772,-89.0998 1235.3772,-95.0998 1235.3772,-95.0998 1235.3772,-194.5002 1235.3772,-194.5002 1235.3772,-200.5002 1229.3772,-206.5002 1223.3772,-206.5002"/>
<text text-anchor="middle" x="1135.2992" y="-188" font-family="Times,serif" font-size="16.00" fill="#000000">= une forme d&#39;expression</text>
<text text-anchor="middle" x="1135.2992" y="-168.8" font-family="Times,serif" font-size="16.00" fill="#000000">qui, par sa violence ou son</text>
<text text-anchor="middle" x="1135.2992" y="-149.6" font-family="Times,serif" font-size="16.00" fill="#000000">caractère explicite, offense</text>
<text text-anchor="middle" x="1135.2992" y="-130.4" font-family="Times,serif" font-size="16.00" fill="#000000">le sentiment de pudeur ou</text>
<text text-anchor="middle" x="1135.2992" y="-111.2" font-family="Times,serif" font-size="16.00" fill="#000000">notre sensibilité face à la</text>
<text text-anchor="middle" x="1135.2992" y="-92" font-family="Times,serif" font-size="16.00" fill="#000000">représentation de la violence</text>
</g>
<!-- bc4&#45;&gt;d4 -->
<g id="edge18" class="edge">
<title>bc4&#45;&gt;d4</title>
<path fill="none" stroke="#000000" d="M1124.4939,-241.7679C1125.3924,-233.7045 1126.345,-225.1561 1127.2976,-216.6074"/>
<polygon fill="#000000" stroke="#000000" points="1130.7836,-216.927 1128.4126,-206.6009 1123.8266,-216.1517 1130.7836,-216.927"/>
</g>
<!-- d5 -->
<g id="node18" class="node">
<title>d5</title>
<path fill="#ffffff" stroke="#7f7f7f" d="M1426.6217,-196.8C1426.6217,-196.8 1261.9767,-196.8 1261.9767,-196.8 1255.9767,-196.8 1249.9767,-190.8 1249.9767,-184.8 1249.9767,-184.8 1249.9767,-104.8 1249.9767,-104.8 1249.9767,-98.8 1255.9767,-92.8 1261.9767,-92.8 1261.9767,-92.8 1426.6217,-92.8 1426.6217,-92.8 1432.6217,-92.8 1438.6217,-98.8 1438.6217,-104.8 1438.6217,-104.8 1438.6217,-184.8 1438.6217,-184.8 1438.6217,-190.8 1432.6217,-196.8 1426.6217,-196.8"/>
<text text-anchor="middle" x="1344.2992" y="-178.4" font-family="Times,serif" font-size="16.00" fill="#000000">= une forme d&#39;expression</text>
<text text-anchor="middle" x="1344.2992" y="-159.2" font-family="Times,serif" font-size="16.00" fill="#000000">irrespectueuse envers un</text>
<text text-anchor="middle" x="1344.2992" y="-140" font-family="Times,serif" font-size="16.00" fill="#000000">symbole considéré comme</text>
<text text-anchor="middle" x="1344.2992" y="-120.8" font-family="Times,serif" font-size="16.00" fill="#000000">important par une nation</text>
<text text-anchor="middle" x="1344.2992" y="-101.6" font-family="Times,serif" font-size="16.00" fill="#000000">ou une religion</text>
</g>
<!-- bc5&#45;&gt;d5 -->
<g id="edge19" class="edge">
<title>bc5&#45;&gt;d5</title>
<path fill="none" stroke="#000000" d="M1342.2732,-241.7679C1342.5048,-230.6843 1342.7555,-218.6842 1342.9991,-207.0267"/>
<polygon fill="#000000" stroke="#000000" points="1346.5009,-206.973 1343.2106,-196.902 1339.5024,-206.8267 1346.5009,-206.973"/>
</g>
<!-- e4 -->
<g id="node22" class="node">
<title>e4</title>
<path fill="#fafafa" stroke="transparent" d="M739.5465,-65.4012C739.5465,-65.4012 435.0519,-65.4012 435.0519,-65.4012 429.0519,-65.4012 423.0519,-59.4012 423.0519,-53.4012 423.0519,-53.4012 423.0519,-12.1988 423.0519,-12.1988 423.0519,-6.1988 429.0519,-.1988 435.0519,-.1988 435.0519,-.1988 739.5465,-.1988 739.5465,-.1988 745.5465,-.1988 751.5465,-6.1988 751.5465,-12.1988 751.5465,-12.1988 751.5465,-53.4012 751.5465,-53.4012 751.5465,-59.4012 745.5465,-65.4012 739.5465,-65.4012"/>
<text text-anchor="middle" x="587.2992" y="-47.2" font-family="Times,serif" font-size="16.00" fill="#cd2626">Dans ces deux cas, le principe de non&#45;nuisance</text>
<text text-anchor="middle" x="587.2992" y="-28" font-family="Times,serif" font-size="16.00" fill="#cd2626">envers autrui s&#39;applique plus facilement, dans la</text>
<text text-anchor="middle" x="587.2992" y="-8.8" font-family="Times,serif" font-size="16.00" fill="#cd2626">mesure où il y a un préjudice réel et identifiable</text>
</g>
<!-- d1&#45;&gt;e4 -->
<!-- d2&#45;&gt;d3 -->
<!-- d2&#45;&gt;e4 -->
<!-- e5 -->
<g id="node23" class="node">
<title>e5</title>
<path fill="#fafafa" stroke="transparent" d="M1400.8434,-65.4012C1400.8434,-65.4012 869.755,-65.4012 869.755,-65.4012 863.755,-65.4012 857.755,-59.4012 857.755,-53.4012 857.755,-53.4012 857.755,-12.1988 857.755,-12.1988 857.755,-6.1988 863.755,-.1988 869.755,-.1988 869.755,-.1988 1400.8434,-.1988 1400.8434,-.1988 1406.8434,-.1988 1412.8434,-6.1988 1412.8434,-12.1988 1412.8434,-12.1988 1412.8434,-53.4012 1412.8434,-53.4012 1412.8434,-59.4012 1406.8434,-65.4012 1400.8434,-65.4012"/>
<text text-anchor="middle" x="1135.2992" y="-47.2" font-family="Times,serif" font-size="16.00" fill="#cd2626">Dans ces trois cas, la question est de savoir si le principe de non&#45;nuisance</text>
<text text-anchor="middle" x="1135.2992" y="-28" font-family="Times,serif" font-size="16.00" fill="#cd2626">envers autrui s&#39;applique : y a&#45;t&#45;il ou non préjudice réel ou bien faut&#45;il accepter ces</text>
<text text-anchor="middle" x="1135.2992" y="-8.8" font-family="Times,serif" font-size="16.00" fill="#cd2626">formes d&#39;expression en raison de l&#39;absence d&#39;un tort réel et facilement identifiable ?</text>
</g>
<!-- d3&#45;&gt;e5 -->
<!-- d4&#45;&gt;e5 -->
<!-- d5&#45;&gt;e5 -->
</g>
</svg>
