<?xml version="1.0" encoding="UTF-8" standalone="no"?>
<!DOCTYPE svg PUBLIC "-//W3C//DTD SVG 1.1//EN"
 "http://www.w3.org/Graphics/SVG/1.1/DTD/svg11.dtd">
<!-- Generated by graphviz version 2.40.1 (20161225.0304)
 -->
<!-- Title: G Pages: 1 -->
<svg width="642pt" height="382pt"
 viewBox="0.00 0.00 642.17 382.28" xmlns="http://www.w3.org/2000/svg" xmlns:xlink="http://www.w3.org/1999/xlink">
<g id="graph0" class="graph" transform="scale(1 1) rotate(0) translate(21.6 360.6802)">
<title>G</title>
<polygon fill="#fafafa" stroke="transparent" points="-21.6,21.6 -21.6,-360.6802 620.5696,-360.6802 620.5696,21.6 -21.6,21.6"/>
<!-- a1 -->
<g id="node1" class="node">
<title>a1</title>
<ellipse fill="#050505" stroke="#000000" cx="278.4296" cy="-318.1499" rx="72.9584" ry="20.861"/>
<text text-anchor="middle" x="278.4296" y="-312.7499" font-family="Times,serif" font-size="18.00" fill="#ffffff">Libéralisme</text>
</g>
<!-- b1 -->
<g id="node2" class="node">
<title>b1</title>
<ellipse fill="#8b0000" stroke="#000000" cx="111.4296" cy="-229.4098" rx="66.2552" ry="32.6206"/>
<text text-anchor="middle" x="111.4296" y="-234.2098" font-family="Times,serif" font-size="16.00" fill="#ffffff">Libéralisme</text>
<text text-anchor="middle" x="111.4296" y="-215.0098" font-family="Times,serif" font-size="16.00" fill="#ffffff">moral</text>
</g>
<!-- a1&#45;&gt;b1 -->
<g id="edge1" class="edge">
<title>a1&#45;&gt;b1:n</title>
<path fill="none" stroke="#000000" d="M213.3848,-308.5881C173.4544,-301.1033 127.5968,-289.0382 114.8626,-271.7436"/>
<polygon fill="#000000" stroke="#000000" points="118.1133,-270.4402 111.4296,-262.2195 111.528,-272.8139 118.1133,-270.4402"/>
</g>
<!-- b2 -->
<g id="node3" class="node">
<title>b2</title>
<ellipse fill="#8b0000" stroke="#000000" cx="278.4296" cy="-229.4098" rx="66.2552" ry="32.6206"/>
<text text-anchor="middle" x="278.4296" y="-234.2098" font-family="Times,serif" font-size="16.00" fill="#ffffff"></text>
<text text-anchor="middle" x="278.4296" y="-215.0098" font-family="Times,serif" font-size="16.00" fill="#ffffff"></text>
</g>
<!-- a1&#45;&gt;b2 -->
<g id="edge2" class="edge">
<title>a1&#45;&gt;b2:n</title>
<path fill="none" stroke="#000000" d="M278.4296,-297.1679C278.4296,-289.7063 278.4296,-281.0304 278.4296,-272.4861"/>
<polygon fill="#000000" stroke="#000000" points="281.9297,-272.2195 278.4296,-262.2195 274.9297,-272.2195 281.9297,-272.2195"/>
</g>
<!-- b3 -->
<g id="node4" class="node">
<title>b3</title>
<ellipse fill="#8b0000" stroke="#000000" cx="457.4296" cy="-229.4098" rx="67.2781" ry="32.6206"/>
<text text-anchor="middle" x="457.4296" y="-234.2098" font-family="Times,serif" font-size="16.00" fill="#ffffff"></text>
<text text-anchor="middle" x="457.4296" y="-215.0098" font-family="Times,serif" font-size="16.00" fill="#ffffff"></text>
</g>
<!-- a1&#45;&gt;b3 -->
<g id="edge3" class="edge">
<title>a1&#45;&gt;b3:n</title>
<path fill="none" stroke="#000000" d="M345.5919,-309.8004C389.4396,-302.6721 440.9291,-290.5288 454.1886,-271.6839"/>
<polygon fill="#000000" stroke="#000000" points="457.501,-272.8141 457.4296,-262.2195 450.8786,-270.5463 457.501,-272.8141"/>
</g>
<!-- c1 -->
<g id="node5" class="node">
<title>c1</title>
<polygon fill="#ffffff" stroke="#7f7f7f" points="180.7889,-161.4005 .0703,-161.4005 .0703,-.1995 180.7889,-.1995 180.7889,-161.4005"/>
<text text-anchor="middle" x="90.4296" y="-143.2" font-family="Times,serif" font-size="16.00" fill="#000000">– Défense de la liberté</text>
<text text-anchor="middle" x="90.4296" y="-124" font-family="Times,serif" font-size="16.00" fill="#000000">individuelle dans le choix</text>
<text text-anchor="middle" x="90.4296" y="-104.8" font-family="Times,serif" font-size="16.00" fill="#000000">d&#39;un mode de vie</text>
<text text-anchor="middle" x="90.4296" y="-85.6" font-family="Times,serif" font-size="16.00" fill="#000000">– Tolérance face à</text>
<text text-anchor="middle" x="90.4296" y="-66.4" font-family="Times,serif" font-size="16.00" fill="#000000">la diversité des</text>
<text text-anchor="middle" x="90.4296" y="-47.2" font-family="Times,serif" font-size="16.00" fill="#000000">conception du bien</text>
<text text-anchor="middle" x="90.4296" y="-28" font-family="Times,serif" font-size="16.00" fill="#000000">– Critique du moralisme</text>
<text text-anchor="middle" x="90.4296" y="-8.8" font-family="Times,serif" font-size="16.00" fill="#000000">et du paternalisme</text>
</g>
<!-- b1&#45;&gt;c1 -->
<g id="edge4" class="edge">
<title>b1&#45;&gt;c1</title>
<path fill="none" stroke="#000000" d="M106.769,-196.4284C105.6891,-188.7866 104.4885,-180.2896 103.242,-171.469"/>
<polygon fill="#000000" stroke="#000000" points="106.6841,-170.8128 101.8193,-161.401 99.753,-171.7923 106.6841,-170.8128"/>
</g>
<!-- c2 -->
<g id="node6" class="node">
<title>c2</title>
<polygon fill="#ffffff" stroke="#7f7f7f" points="361.5977,-152.2006 195.2615,-152.2006 195.2615,-9.3994 361.5977,-9.3994 361.5977,-152.2006"/>
<text text-anchor="middle" x="278.4296" y="-133.6" font-family="Times,serif" font-size="16.00" fill="#000000"></text>
<text text-anchor="middle" x="278.4296" y="-114.4" font-family="Times,serif" font-size="16.00" fill="#000000"></text>
<text text-anchor="middle" x="278.4296" y="-95.2" font-family="Times,serif" font-size="16.00" fill="#000000"></text>
<text text-anchor="middle" x="278.4296" y="-76" font-family="Times,serif" font-size="16.00" fill="#000000"></text>
<text text-anchor="middle" x="278.4296" y="-56.8" font-family="Times,serif" font-size="16.00" fill="#000000"></text>
<text text-anchor="middle" x="278.4296" y="-37.6" font-family="Times,serif" font-size="16.00" fill="#000000"></text>
<text text-anchor="middle" x="278.4296" y="-18.4" font-family="Times,serif" font-size="16.00" fill="#000000"></text>
</g>
<!-- b2&#45;&gt;c2 -->
<g id="edge5" class="edge">
<title>b2&#45;&gt;c2</title>
<path fill="none" stroke="#000000" d="M278.4296,-196.4284C278.4296,-186.1404 278.4296,-174.3026 278.4296,-162.2116"/>
<polygon fill="#000000" stroke="#000000" points="281.9297,-162.024 278.4296,-152.024 274.9297,-162.024 281.9297,-162.024"/>
</g>
<!-- c3 -->
<g id="node7" class="node">
<title>c3</title>
<polygon fill="#ffffff" stroke="#7f7f7f" points="599.0096,-132.8 375.8496,-132.8 375.8496,-28.8 599.0096,-28.8 599.0096,-132.8"/>
<text text-anchor="middle" x="487.4296" y="-114.4" font-family="Times,serif" font-size="16.00" fill="#000000"></text>
<text text-anchor="middle" x="487.4296" y="-95.2" font-family="Times,serif" font-size="16.00" fill="#000000"></text>
<text text-anchor="middle" x="487.4296" y="-76" font-family="Times,serif" font-size="16.00" fill="#000000"></text>
<text text-anchor="middle" x="487.4296" y="-56.8" font-family="Times,serif" font-size="16.00" fill="#000000"></text>
<text text-anchor="middle" x="487.4296" y="-37.6" font-family="Times,serif" font-size="16.00" fill="#000000"></text>
</g>
<!-- b3&#45;&gt;c3 -->
<g id="edge6" class="edge">
<title>b3&#45;&gt;c3</title>
<path fill="none" stroke="#000000" d="M464.0876,-196.4284C467.2627,-180.6998 471.1691,-161.3489 474.8715,-143.0084"/>
<polygon fill="#000000" stroke="#000000" points="478.3534,-143.4475 476.9015,-132.9526 471.4918,-142.0623 478.3534,-143.4475"/>
</g>
</g>
</svg>
