<?xml version="1.0" encoding="UTF-8" standalone="no"?>
<!DOCTYPE svg PUBLIC "-//W3C//DTD SVG 1.1//EN"
 "http://www.w3.org/Graphics/SVG/1.1/DTD/svg11.dtd">
<!-- Generated by graphviz version 2.40.1 (20161225.0304)
 -->
<!-- Title: G Pages: 1 -->
<svg width="625pt" height="372pt"
 viewBox="0.00 0.00 624.89 372.00" xmlns="http://www.w3.org/2000/svg" xmlns:xlink="http://www.w3.org/1999/xlink">
<g id="graph0" class="graph" transform="scale(1 1) rotate(0) translate(21.6 350.4)">
<title>G</title>
<polygon fill="#fafafa" stroke="transparent" points="-21.6,21.6 -21.6,-350.4 603.2874,-350.4 603.2874,21.6 -21.6,21.6"/>
<!-- a1 -->
<g id="node1" class="node">
<title>a1</title>
<ellipse fill="#000000" stroke="#000000" cx="92.2493" cy="-174" rx="92.4993" ry="66.5027"/>
<text text-anchor="middle" x="92.2493" y="-201" font-family="Times,serif" font-size="18.00" fill="#ffffff">Trois manières</text>
<text text-anchor="middle" x="92.2493" y="-179.4" font-family="Times,serif" font-size="18.00" fill="#ffffff">de progresser</text>
<text text-anchor="middle" x="92.2493" y="-157.8" font-family="Times,serif" font-size="18.00" fill="#ffffff">d&#39;une partie à</text>
<text text-anchor="middle" x="92.2493" y="-136.2" font-family="Times,serif" font-size="18.00" fill="#ffffff">une autre</text>
</g>
<!-- b1 -->
<g id="node2" class="node">
<title>b1</title>
<ellipse fill="#8b0000" stroke="#000000" cx="293.4642" cy="-296" rx="53.6477" ry="26.1102"/>
<text text-anchor="middle" x="293.4642" y="-291.2" font-family="Times,serif" font-size="16.00" fill="#ffffff">Critiquer</text>
</g>
<!-- a1&#45;&gt;b1 -->
<g id="edge1" class="edge">
<title>a1&#45;&gt;b1:w</title>
<path fill="none" stroke="#000000" d="M133.0745,-233.9278C157.1583,-262.25 190.4539,-290.8806 229.0059,-295.3872"/>
<polygon fill="#000000" stroke="#000000" points="229.2766,-298.909 239.4642,-296 229.6861,-291.921 229.2766,-298.909"/>
</g>
<!-- b2 -->
<g id="node3" class="node">
<title>b2</title>
<ellipse fill="#8b0000" stroke="#000000" cx="293.4642" cy="-174" rx="59.9955" ry="26.1102"/>
<text text-anchor="middle" x="293.4642" y="-169.2" font-family="Times,serif" font-size="16.00" fill="#ffffff"></text>
</g>
<!-- a1&#45;&gt;b2 -->
<g id="edge2" class="edge">
<title>a1&#45;&gt;b2:w</title>
<path fill="none" stroke="#000000" d="M184.5424,-174C197.4037,-174 210.5824,-174 223.3386,-174"/>
<polygon fill="#000000" stroke="#000000" points="223.4643,-177.5001 233.4642,-174 223.4642,-170.5001 223.4643,-177.5001"/>
</g>
<!-- b3 -->
<g id="node4" class="node">
<title>b3</title>
<ellipse fill="#8b0000" stroke="#000000" cx="293.4642" cy="-52" rx="73.9313" ry="26.1102"/>
<text text-anchor="middle" x="293.4642" y="-47.2" font-family="Times,serif" font-size="16.00" fill="#ffffff"></text>
</g>
<!-- a1&#45;&gt;b3 -->
<g id="edge3" class="edge">
<title>a1&#45;&gt;b3:w</title>
<path fill="none" stroke="#000000" d="M127.2712,-111.9278C147.283,-84.4971 175.1956,-57.3556 209.2394,-52.7"/>
<polygon fill="#000000" stroke="#000000" points="209.7601,-56.1727 219.4986,-52 209.2835,-49.189 209.7601,-56.1727"/>
</g>
<!-- b1&#45;&gt;b2 -->
<!-- c1 -->
<g id="node5" class="node">
<title>c1</title>
<polygon fill="#ffffff" stroke="#7f7f7f" points="578.3636,-328.6012 405.7537,-328.6012 405.7537,-263.3988 578.3636,-263.3988 578.3636,-328.6012"/>
<text text-anchor="middle" x="492.0586" y="-310.4" font-family="Times,serif" font-size="16.00" fill="#000000">On remet en cause les</text>
<text text-anchor="middle" x="492.0586" y="-291.2" font-family="Times,serif" font-size="16.00" fill="#000000">arguments précédents et</text>
<text text-anchor="middle" x="492.0586" y="-272" font-family="Times,serif" font-size="16.00" fill="#000000">on change de réponse</text>
</g>
<!-- b1&#45;&gt;c1 -->
<g id="edge6" class="edge">
<title>b1&#45;&gt;c1</title>
<path fill="none" stroke="#000000" d="M347.2067,-296C362.1419,-296 378.8325,-296 395.424,-296"/>
<polygon fill="#000000" stroke="#000000" points="395.7251,-299.5001 405.7251,-296 395.725,-292.5001 395.7251,-299.5001"/>
</g>
<!-- b2&#45;&gt;b3 -->
<!-- c2 -->
<g id="node6" class="node">
<title>c2</title>
<polygon fill="#ffffff" stroke="#7f7f7f" points="569.7837,-226 414.3336,-226 414.3336,-122 569.7837,-122 569.7837,-226"/>
<text text-anchor="middle" x="492.0586" y="-207.6" font-family="Times,serif" font-size="16.00" fill="#000000"></text>
<text text-anchor="middle" x="492.0586" y="-188.4" font-family="Times,serif" font-size="16.00" fill="#000000"></text>
<text text-anchor="middle" x="492.0586" y="-169.2" font-family="Times,serif" font-size="16.00" fill="#000000"></text>
<text text-anchor="middle" x="492.0586" y="-150" font-family="Times,serif" font-size="16.00" fill="#000000"></text>
<text text-anchor="middle" x="492.0586" y="-130.8" font-family="Times,serif" font-size="16.00" fill="#000000"></text>
</g>
<!-- b2&#45;&gt;c2 -->
<g id="edge7" class="edge">
<title>b2&#45;&gt;c2</title>
<path fill="none" stroke="#000000" d="M353.588,-174C369.3764,-174 386.7384,-174 403.6719,-174"/>
<polygon fill="#000000" stroke="#000000" points="404.1422,-177.5001 414.1422,-174 404.1422,-170.5001 404.1422,-177.5001"/>
</g>
<!-- c3 -->
<g id="node7" class="node">
<title>c3</title>
<polygon fill="#ffffff" stroke="#7f7f7f" points="581.8164,-104 402.3009,-104 402.3009,0 581.8164,0 581.8164,-104"/>
<text text-anchor="middle" x="492.0586" y="-85.6" font-family="Times,serif" font-size="16.00" fill="#000000"></text>
<text text-anchor="middle" x="492.0586" y="-66.4" font-family="Times,serif" font-size="16.00" fill="#000000"></text>
<text text-anchor="middle" x="492.0586" y="-47.2" font-family="Times,serif" font-size="16.00" fill="#000000"></text>
<text text-anchor="middle" x="492.0586" y="-28" font-family="Times,serif" font-size="16.00" fill="#000000"></text>
<text text-anchor="middle" x="492.0586" y="-8.8" font-family="Times,serif" font-size="16.00" fill="#000000"></text>
</g>
<!-- b3&#45;&gt;c3 -->
<g id="edge8" class="edge">
<title>b3&#45;&gt;c3</title>
<path fill="none" stroke="#000000" d="M367.6959,-52C375.685,-52 383.9058,-52 392.1324,-52"/>
<polygon fill="#000000" stroke="#000000" points="392.1547,-55.5001 402.1546,-52 392.1546,-48.5001 392.1547,-55.5001"/>
</g>
</g>
</svg>
