<?xml version="1.0" encoding="UTF-8" standalone="no"?><!DOCTYPE svg PUBLIC "-//W3C//DTD SVG 1.1//EN" "http://www.w3.org/Graphics/SVG/1.1/DTD/svg11.dtd"><!-- Generated by graphviz version 2.40.1 (20161225.0304)
 --><!-- Title: G Pages: 1 --><svg xmlns="http://www.w3.org/2000/svg" xmlns:xlink="http://www.w3.org/1999/xlink" width="653pt" height="366pt" viewBox="0.00 0.00 652.56 365.50">
<g id="graph0" class="graph" transform="scale(1 1) rotate(0) translate(21.6 343.9044)">
<title>G</title>
<polygon fill="#fafafa" stroke="transparent" points="-21.6,21.6 -21.6,-343.9044 630.9585,-343.9044 630.9585,21.6 -21.6,21.6"/>
<!-- a1 -->
<g id="node1" class="node">
<title>a1</title>
<ellipse fill="#000000" stroke="#000000" cx="92.2493" cy="-174" rx="92.4993" ry="66.5027"/>
<text text-anchor="middle" x="92.2493" y="-201" font-family="Times,serif" font-size="18.00" fill="#ffffff">Trois manières</text>
<text text-anchor="middle" x="92.2493" y="-179.4" font-family="Times,serif" font-size="18.00" fill="#ffffff">de progresser</text>
<text text-anchor="middle" x="92.2493" y="-157.8" font-family="Times,serif" font-size="18.00" fill="#ffffff">d'une partie à</text>
<text text-anchor="middle" x="92.2493" y="-136.2" font-family="Times,serif" font-size="18.00" fill="#ffffff">une autre</text>
</g>
<!-- b1 -->
<g id="node2" class="node">
<title>b1</title>
<ellipse fill="#8b0000" stroke="#000000" cx="307.2998" cy="-296" rx="61.0329" ry="26.1102"/>
<text text-anchor="middle" x="307.2998" y="-291.2" font-family="Times,serif" font-size="16.00" fill="#ffffff">Réfutation</text>
</g>
<!-- a1&#45;&gt;b1 -->
<g id="edge1" class="edge">
<title>a1-&gt;b1:w</title>
<path fill="none" stroke="#000000" d="M134.8777,-233.5704C160.2557,-262.1805 195.2837,-291.21 235.3018,-295.4665"/>
<polygon fill="#000000" stroke="#000000" points="235.1274,-298.9621 245.2998,-296 235.5005,-291.972 235.1274,-298.9621"/>
</g>
<!-- b2 -->
<g id="node3" class="node">
<title>b2</title>
<ellipse fill="#8b0000" stroke="#000000" cx="307.2998" cy="-174" rx="73.6669" ry="26.1102"/>
<text text-anchor="middle" x="307.2998" y="-169.2" font-family="Times,serif" font-size="16.00" fill="#ffffff"></text>
</g>
<!-- a1&#45;&gt;b2 -->
<g id="edge2" class="edge">
<title>a1-&gt;b2:w</title>
<path fill="none" stroke="#000000" d="M184.8137,-174C197.5665,-174 210.6243,-174 223.2652,-174"/>
<polygon fill="#000000" stroke="#000000" points="223.2998,-177.5001 233.2998,-174 223.2997,-170.5001 223.2998,-177.5001"/>
</g>
<!-- b3 -->
<g id="node4" class="node">
<title>b3</title>
<ellipse fill="#8b0000" stroke="#000000" cx="307.2998" cy="-52" rx="87.6028" ry="26.1102"/>
<text text-anchor="middle" x="307.2998" y="-47.2" font-family="Times,serif" font-size="16.00" fill="#ffffff"></text>
</g>
<!-- a1&#45;&gt;b3 -->
<g id="edge3" class="edge">
<title>a1-&gt;b3:w</title>
<path fill="none" stroke="#000000" d="M127.2712,-111.9278C147.283,-84.4971 175.1956,-57.3556 209.2394,-52.7"/>
<polygon fill="#000000" stroke="#000000" points="209.7601,-56.1727 219.4986,-52 209.2835,-49.189 209.7601,-56.1727"/>
</g>
<!-- b1&#45;&gt;b2 -->
<!-- c1 -->
<g id="node5" class="node">
<title>c1</title>
<polygon fill="#ffffff" stroke="#7f7f7f" points="600.7104,-319.4017 438.749,-319.4017 438.749,-272.5983 600.7104,-272.5983 600.7104,-319.4017"/>
<text text-anchor="middle" x="519.7297" y="-300.8" font-family="Times,serif" font-size="16.00" fill="#000000">On réfute (on critique)</text>
<text text-anchor="middle" x="519.7297" y="-281.6" font-family="Times,serif" font-size="16.00" fill="#000000">la partie précédente</text>
</g>
<!-- b1&#45;&gt;c1 -->
<g id="edge6" class="edge">
<title>b1-&gt;c1</title>
<path fill="none" stroke="#000000" d="M368.7433,-296C387.4023,-296 408.3177,-296 428.4969,-296"/>
<polygon fill="#000000" stroke="#000000" points="428.6473,-299.5001 438.6472,-296 428.6472,-292.5001 428.6473,-299.5001"/>
</g>
<!-- b2&#45;&gt;b3 -->
<!-- c2 -->
<g id="node6" class="node">
<title>c2</title>
<polygon fill="#ffffff" stroke="#7f7f7f" points="597.4548,-226 442.0047,-226 442.0047,-122 597.4548,-122 597.4548,-226"/>
<text text-anchor="middle" x="519.7297" y="-207.6" font-family="Times,serif" font-size="16.00" fill="#000000"></text>
<text text-anchor="middle" x="519.7297" y="-188.4" font-family="Times,serif" font-size="16.00" fill="#000000"></text>
<text text-anchor="middle" x="519.7297" y="-169.2" font-family="Times,serif" font-size="16.00" fill="#000000"></text>
<text text-anchor="middle" x="519.7297" y="-150" font-family="Times,serif" font-size="16.00" fill="#000000"></text>
<text text-anchor="middle" x="519.7297" y="-130.8" font-family="Times,serif" font-size="16.00" fill="#000000"></text>
</g>
<!-- b2&#45;&gt;c2 -->
<g id="edge7" class="edge">
<title>b2-&gt;c2</title>
<path fill="none" stroke="#000000" d="M381.2992,-174C397.4623,-174 414.7247,-174 431.3834,-174"/>
<polygon fill="#000000" stroke="#000000" points="431.6626,-177.5001 441.6625,-174 431.6625,-170.5001 431.6626,-177.5001"/>
</g>
<!-- c3 -->
<g id="node7" class="node">
<title>c3</title>
<polygon fill="#ffffff" stroke="#7f7f7f" points="609.4875,-104 429.9719,-104 429.9719,0 609.4875,0 609.4875,-104"/>
<text text-anchor="middle" x="519.7297" y="-85.6" font-family="Times,serif" font-size="16.00" fill="#000000"></text>
<text text-anchor="middle" x="519.7297" y="-66.4" font-family="Times,serif" font-size="16.00" fill="#000000"></text>
<text text-anchor="middle" x="519.7297" y="-47.2" font-family="Times,serif" font-size="16.00" fill="#000000"></text>
<text text-anchor="middle" x="519.7297" y="-28" font-family="Times,serif" font-size="16.00" fill="#000000"></text>
<text text-anchor="middle" x="519.7297" y="-8.8" font-family="Times,serif" font-size="16.00" fill="#000000"></text>
</g>
<!-- b3&#45;&gt;c3 -->
<g id="edge8" class="edge">
<title>b3-&gt;c3</title>
<path fill="none" stroke="#000000" d="M395.2366,-52C403.2622,-52 411.4314,-52 419.5533,-52"/>
<polygon fill="#000000" stroke="#000000" points="419.8015,-55.5001 429.8015,-52 419.8014,-48.5001 419.8015,-55.5001"/>
</g>
</g>
</svg>