<?xml version="1.0" encoding="UTF-8" standalone="no"?><!DOCTYPE svg PUBLIC "-//W3C//DTD SVG 1.1//EN" "http://www.w3.org/Graphics/SVG/1.1/DTD/svg11.dtd"><!-- Generated by graphviz version 2.40.1 (20161225.0304)
 --><!-- Title: G Pages: 1 --><svg xmlns="http://www.w3.org/2000/svg" xmlns:xlink="http://www.w3.org/1999/xlink" width="612pt" height="307pt" viewBox="0.00 0.00 612.08 306.80">
<g id="graph0" class="graph" transform="scale(1 1) rotate(0) translate(21.6 285.2)">
<title>G</title>
<polygon fill="#fafafa" stroke="transparent" points="-21.6,21.6 -21.6,-285.2 590.4772,-285.2 590.4772,21.6 -21.6,21.6"/>
<!-- a1 -->
<g id="node1" class="node">
<title>a1</title>
<ellipse fill="#000000" stroke="#000000" cx="92.2493" cy="-131.8" rx="92.4993" ry="66.5027"/>
<text text-anchor="middle" x="92.2493" y="-158.8" font-family="Times,serif" font-size="18.00" fill="#ffffff">Trois manières</text>
<text text-anchor="middle" x="92.2493" y="-137.2" font-family="Times,serif" font-size="18.00" fill="#ffffff">de progresser</text>
<text text-anchor="middle" x="92.2493" y="-115.6" font-family="Times,serif" font-size="18.00" fill="#ffffff">d'une partie à</text>
<text text-anchor="middle" x="92.2493" y="-94" font-family="Times,serif" font-size="18.00" fill="#ffffff">une autre</text>
</g>
<!-- b1 -->
<g id="node2" class="node">
<title>b1</title>
<ellipse fill="#8b0000" stroke="#000000" cx="293.9575" cy="-214.8" rx="60.0022" ry="19.4695"/>
<text text-anchor="middle" x="293.9575" y="-210" font-family="Times,serif" font-size="16.00" fill="#ffffff">Le procès</text>
</g>
<!-- a1&#45;&gt;b1 -->
<g id="edge1" class="edge">
<title>a1-&gt;b1:w</title>
<path fill="none" stroke="#000000" d="M150.0627,-183.8939C171.5059,-198.6808 197.1221,-211.5446 223.7215,-214.2693"/>
<polygon fill="#000000" stroke="#000000" points="223.7897,-217.7774 233.9575,-214.8 224.1522,-210.7868 223.7897,-217.7774"/>
</g>
<!-- b2 -->
<g id="node3" class="node">
<title>b2</title>
<ellipse fill="#8b0000" stroke="#000000" cx="293.9575" cy="-131.8" rx="74.4178" ry="32.6206"/>
<text text-anchor="middle" x="293.9575" y="-136.6" font-family="Times,serif" font-size="16.00" fill="#ffffff">La deuxième</text>
<text text-anchor="middle" x="293.9575" y="-117.4" font-family="Times,serif" font-size="16.00" fill="#ffffff">couche</text>
</g>
<!-- a1&#45;&gt;b2 -->
<g id="edge2" class="edge">
<title>a1-&gt;b2:w</title>
<path fill="none" stroke="#000000" d="M184.6853,-131.8C192.9248,-131.8 201.2185,-131.8 209.3332,-131.8"/>
<polygon fill="#000000" stroke="#000000" points="209.4986,-135.3001 219.4986,-131.8 209.4985,-128.3001 209.4986,-135.3001"/>
</g>
<!-- b3 -->
<g id="node4" class="node">
<title>b3</title>
<ellipse fill="#8b0000" stroke="#000000" cx="293.9575" cy="-42.8" rx="46.3749" ry="32.6206"/>
<text text-anchor="middle" x="293.9575" y="-47.6" font-family="Times,serif" font-size="16.00" fill="#ffffff">Le petit</text>
<text text-anchor="middle" x="293.9575" y="-28.4" font-family="Times,serif" font-size="16.00" fill="#ffffff">malin</text>
</g>
<!-- a1&#45;&gt;b3 -->
<g id="edge3" class="edge">
<title>a1-&gt;b3:w</title>
<path fill="none" stroke="#000000" d="M150.3621,-79.5135C175.027,-62.0326 205.32,-46.2062 236.727,-43.2819"/>
<polygon fill="#000000" stroke="#000000" points="237.1333,-46.7667 246.9575,-42.8 236.8039,-39.7745 237.1333,-46.7667"/>
</g>
<!-- c1 -->
<g id="node5" class="node">
<title>c1</title>
<polygon fill="#ffffff" stroke="#7f7f7f" points="567.4565,-263.4012 404.8371,-263.4012 404.8371,-198.1988 567.4565,-198.1988 567.4565,-263.4012"/>
<text text-anchor="middle" x="486.1468" y="-245.2" font-family="Times,serif" font-size="16.00" fill="#000000">On passe de la défense</text>
<text text-anchor="middle" x="486.1468" y="-226" font-family="Times,serif" font-size="16.00" fill="#000000">à la critique, ou de la</text>
<text text-anchor="middle" x="486.1468" y="-206.8" font-family="Times,serif" font-size="16.00" fill="#000000">critique à la défense</text>
</g>
<!-- b1&#45;&gt;c1 -->
<g id="edge4" class="edge">
<title>b1-&gt;c1</title>
<path fill="none" stroke="#000000" d="M352.1422,-219.6439C365.6071,-220.7649 380.2546,-221.9843 394.7588,-223.1918"/>
<polygon fill="#000000" stroke="#000000" points="394.505,-226.6827 404.7609,-224.0245 395.0858,-219.7069 394.505,-226.6827"/>
</g>
<!-- c2 -->
<g id="node6" class="node">
<title>c2</title>
<polygon fill="#ffffff" stroke="#7f7f7f" points="569.1082,-183.8 403.1854,-183.8 403.1854,-79.8 569.1082,-79.8 569.1082,-183.8"/>
<text text-anchor="middle" x="486.1468" y="-165.4" font-family="Times,serif" font-size="16.00" fill="#000000">On garde la même</text>
<text text-anchor="middle" x="486.1468" y="-146.2" font-family="Times,serif" font-size="16.00" fill="#000000">réponse générale, mais</text>
<text text-anchor="middle" x="486.1468" y="-127" font-family="Times,serif" font-size="16.00" fill="#000000">avec une meilleure</text>
<text text-anchor="middle" x="486.1468" y="-107.8" font-family="Times,serif" font-size="16.00" fill="#000000">idée, une meilleure</text>
<text text-anchor="middle" x="486.1468" y="-88.6" font-family="Times,serif" font-size="16.00" fill="#000000">argumentation</text>
</g>
<!-- b2&#45;&gt;c2 -->
<g id="edge5" class="edge">
<title>b2-&gt;c2</title>
<path fill="none" stroke="#000000" d="M368.538,-131.8C376.6395,-131.8 384.956,-131.8 393.2409,-131.8"/>
<polygon fill="#000000" stroke="#000000" points="393.3144,-135.3001 403.3144,-131.8 393.3143,-128.3001 393.3144,-135.3001"/>
</g>
<!-- c3 -->
<g id="node7" class="node">
<title>c3</title>
<polygon fill="#ffffff" stroke="#7f7f7f" points="564.1116,-65.4012 408.182,-65.4012 408.182,-.1988 564.1116,-.1988 564.1116,-65.4012"/>
<text text-anchor="middle" x="486.1468" y="-47.2" font-family="Times,serif" font-size="16.00" fill="#000000">On montre qu'il y a</text>
<text text-anchor="middle" x="486.1468" y="-28" font-family="Times,serif" font-size="16.00" fill="#000000">un autre sens possible</text>
<text text-anchor="middle" x="486.1468" y="-8.8" font-family="Times,serif" font-size="16.00" fill="#000000">de la question posée</text>
</g>
<!-- b3&#45;&gt;c3 -->
<g id="edge6" class="edge">
<title>b3-&gt;c3</title>
<path fill="none" stroke="#000000" d="M340.4812,-40.3793C357.6986,-39.4834 377.8398,-38.4354 397.557,-37.4095"/>
<polygon fill="#000000" stroke="#000000" points="398.0069,-40.8909 407.8115,-36.8759 397.6431,-33.9004 398.0069,-40.8909"/>
</g>
</g>
</svg>