<?xml version="1.0" encoding="UTF-8" standalone="no"?><!DOCTYPE svg PUBLIC "-//W3C//DTD SVG 1.1//EN" "http://www.w3.org/Graphics/SVG/1.1/DTD/svg11.dtd"><!-- Generated by graphviz version 2.40.1 (20161225.0304)
 --><!-- Title: G Pages: 1 --><svg xmlns="http://www.w3.org/2000/svg" xmlns:xlink="http://www.w3.org/1999/xlink" width="603pt" height="432pt" viewBox="0.00 0.00 603.14 432.20">
<g id="graph0" class="graph" transform="scale(1 1) rotate(0) translate(21.6 410.6)">
<title>G</title>
<polygon fill="#fafafa" stroke="transparent" points="-21.6,21.6 -21.6,-410.6 581.5449,-410.6 581.5449,21.6 -21.6,21.6"/>
<!-- b1 -->
<g id="node1" class="node">
<title>b1</title>
<ellipse fill="#006400" stroke="#000000" cx="134.6592" cy="-358" rx="27" ry="19.4695"/>
<text text-anchor="middle" x="134.6592" y="-353.2" font-family="Times,serif" font-size="16.00" fill="#ffffff">C</text>
</g>
<!-- b2 -->
<g id="node2" class="node">
<title>b2</title>
<ellipse fill="#006400" stroke="#000000" cx="134.6592" cy="-250.2" rx="27" ry="19.4695"/>
<text text-anchor="middle" x="134.6592" y="-245.4" font-family="Times,serif" font-size="16.00" fill="#ffffff">A</text>
</g>
<!-- b1&#45;&gt;b2 -->
<g id="edge1" class="edge">
<title>b1-&gt;b2</title>
<path fill="none" stroke="#000000" d="M134.6592,-338.7275C134.6592,-322.3501 134.6592,-298.5761 134.6592,-279.7879"/>
<polygon fill="#000000" stroke="#000000" points="134.6592,-269.6691 139.1593,-279.669 134.6592,-274.6691 134.6593,-279.6691 134.6593,-279.6691 134.6593,-279.6691 134.6592,-274.6691 130.1593,-279.6691 134.6592,-269.6691 134.6592,-269.6691"/>
</g>
<!-- c1 -->
<g id="node5" class="node">
<title>c1</title>
<polygon fill="#ffffff" stroke="#006400" points="344.2865,-383.7004 203.0319,-383.7004 203.0319,-332.2996 344.2865,-332.2996 344.2865,-383.7004"/>
<text text-anchor="middle" x="273.6592" y="-368.8" font-family="Times,serif" font-size="12.00" fill="#000000">On repart toujours du</text>
<text text-anchor="middle" x="273.6592" y="-354.4" font-family="Times,serif" font-size="12.00" fill="#000000">texte, on ancre son propos</text>
<text text-anchor="middle" x="273.6592" y="-340" font-family="Times,serif" font-size="12.00" fill="#000000">dans le texte lui-même</text>
</g>
<!-- b1&#45;&gt;c1 -->
<g id="edge4" class="edge">
<title>b1-&gt;c1</title>
<path fill="none" stroke="#006400" d="M161.8076,-358C175.4978,-358 189.188,-358 202.8781,-358"/>
</g>
<!-- b3 -->
<g id="node3" class="node">
<title>b3</title>
<ellipse fill="#006400" stroke="#000000" cx="134.6592" cy="-137" rx="27" ry="19.4695"/>
<text text-anchor="middle" x="134.6592" y="-132.2" font-family="Times,serif" font-size="16.00" fill="#ffffff">R</text>
</g>
<!-- b2&#45;&gt;b3 -->
<g id="edge2" class="edge">
<title>b2-&gt;b3</title>
<path fill="none" stroke="#000000" d="M134.6592,-230.7402C134.6592,-213.1648 134.6592,-187.0351 134.6592,-166.8242"/>
<polygon fill="#000000" stroke="#000000" points="134.6592,-156.5847 139.1593,-166.5846 134.6592,-161.5847 134.6593,-166.5847 134.6593,-166.5847 134.6593,-166.5847 134.6592,-161.5847 130.1593,-166.5847 134.6592,-156.5847 134.6592,-156.5847"/>
</g>
<!-- c2 -->
<g id="node6" class="node">
<title>c2</title>
<polygon fill="#ffffff" stroke="#006400" points="354.4391,-282.8012 202.8793,-282.8012 202.8793,-217.5988 354.4391,-217.5988 354.4391,-282.8012"/>
<text text-anchor="middle" x="278.6592" y="-268.2" font-family="Times,serif" font-size="12.00" fill="#000000">On fait l'analyse du passage</text>
<text text-anchor="middle" x="278.6592" y="-253.8" font-family="Times,serif" font-size="12.00" fill="#000000">en question, en cherchant à</text>
<text text-anchor="middle" x="278.6592" y="-239.4" font-family="Times,serif" font-size="12.00" fill="#000000">comprendre ce qui justifie</text>
<text text-anchor="middle" x="278.6592" y="-225" font-family="Times,serif" font-size="12.00" fill="#000000">l'argumentation de l'auteur</text>
</g>
<!-- b2&#45;&gt;c2 -->
<g id="edge5" class="edge">
<title>b2-&gt;c2</title>
<path fill="none" stroke="#006400" d="M161.6592,-250.2C175.3701,-250.2 189.0811,-250.2 202.792,-250.2"/>
</g>
<!-- b4 -->
<g id="node4" class="node">
<title>b4</title>
<ellipse fill="#006400" stroke="#000000" cx="134.6592" cy="-32.8" rx="27" ry="19.4695"/>
<text text-anchor="middle" x="134.6592" y="-28" font-family="Times,serif" font-size="16.00" fill="#ffffff">E</text>
</g>
<!-- b3&#45;&gt;b4 -->
<g id="edge3" class="edge">
<title>b3-&gt;b4</title>
<path fill="none" stroke="#000000" d="M134.6592,-117.4008C134.6592,-101.9734 134.6592,-80.2157 134.6592,-62.6288"/>
<polygon fill="#000000" stroke="#000000" points="134.6592,-52.3113 139.1593,-62.3113 134.6592,-57.3113 134.6593,-62.3113 134.6593,-62.3113 134.6593,-62.3113 134.6592,-57.3113 130.1593,-62.3114 134.6592,-52.3113 134.6592,-52.3113"/>
</g>
<!-- c3 -->
<g id="node7" class="node">
<title>c3</title>
<polygon fill="#ffffff" stroke="#006400" points="383.7277,-169.6012 203.5907,-169.6012 203.5907,-104.3988 383.7277,-104.3988 383.7277,-169.6012"/>
<text text-anchor="middle" x="293.6592" y="-155" font-family="Times,serif" font-size="12.00" fill="#000000">Étape délicate et non nécessaire :</text>
<text text-anchor="middle" x="293.6592" y="-140.6" font-family="Times,serif" font-size="12.00" fill="#000000">on compare le texte avec une</text>
<text text-anchor="middle" x="293.6592" y="-126.2" font-family="Times,serif" font-size="12.00" fill="#000000">référence pour mieux comprendre</text>
<text text-anchor="middle" x="293.6592" y="-111.8" font-family="Times,serif" font-size="12.00" fill="#000000">l'argumentation de l'auteur</text>
</g>
<!-- b3&#45;&gt;c3 -->
<g id="edge6" class="edge">
<title>b3-&gt;c3</title>
<path fill="none" stroke="#006400" d="M161.6768,-137C175.5968,-137 189.5168,-137 203.4368,-137"/>
</g>
<!-- c4 -->
<g id="node8" class="node">
<title>c4</title>
<polygon fill="#ffffff" stroke="#006400" points="380.107,-65.4012 203.2114,-65.4012 203.2114,-.1988 380.107,-.1988 380.107,-65.4012"/>
<text text-anchor="middle" x="291.6592" y="-50.8" font-family="Times,serif" font-size="12.00" fill="#000000">Étape importante : on s'efforce</text>
<text text-anchor="middle" x="291.6592" y="-36.4" font-family="Times,serif" font-size="12.00" fill="#000000">de remarquer et de s'interroger</text>
<text text-anchor="middle" x="291.6592" y="-22" font-family="Times,serif" font-size="12.00" fill="#000000">sur les difficultés, les problèmes</text>
<text text-anchor="middle" x="291.6592" y="-7.6" font-family="Times,serif" font-size="12.00" fill="#000000">que posent les idées du texte</text>
</g>
<!-- b4&#45;&gt;c4 -->
<g id="edge7" class="edge">
<title>b4-&gt;c4</title>
<path fill="none" stroke="#006400" d="M161.9502,-32.8C175.7149,-32.8 189.4796,-32.8 203.2443,-32.8"/>
</g>
<!-- d1 -->
<g id="node9" class="node">
<title>d1</title>
<path fill="#ffffff" stroke="#7f7f7f" d="M505.8349,-389C505.8349,-389 397.4835,-389 397.4835,-389 391.4835,-389 385.4835,-383 385.4835,-377 385.4835,-377 385.4835,-339 385.4835,-339 385.4835,-333 391.4835,-327 397.4835,-327 397.4835,-327 505.8349,-327 505.8349,-327 511.8349,-327 517.8349,-333 517.8349,-339 517.8349,-339 517.8349,-377 517.8349,-377 517.8349,-383 511.8349,-389 505.8349,-389"/>
<text text-anchor="middle" x="451.6592" y="-376.9" font-family="Times,serif" font-size="9.00" fill="#000000">Attention, on ne fait pas de</text>
<text text-anchor="middle" x="451.6592" y="-366.1" font-family="Times,serif" font-size="9.00" fill="#000000">longues citations pour faire du</text>
<text text-anchor="middle" x="451.6592" y="-355.3" font-family="Times,serif" font-size="9.00" fill="#000000">remplissage : une citation doit</text>
<text text-anchor="middle" x="451.6592" y="-344.5" font-family="Times,serif" font-size="9.00" fill="#000000">être courte, ciblée, et s'intégrer</text>
<text text-anchor="middle" x="451.6592" y="-333.7" font-family="Times,serif" font-size="9.00" fill="#000000">naturellement dans son propos</text>
</g>
<!-- c1&#45;&gt;d1 -->
<g id="edge8" class="edge">
<title>c1-&gt;d1</title>
<path fill="none" stroke="#006400" d="M344.5811,-358C358.1053,-358 371.6295,-358 385.1536,-358"/>
</g>
<!-- d2 -->
<g id="node10" class="node">
<title>d2</title>
<path fill="#ffffff" stroke="#7f7f7f" d="M547.3628,-291.801C547.3628,-291.801 393.9556,-291.801 393.9556,-291.801 387.9556,-291.801 381.9556,-285.801 381.9556,-279.801 381.9556,-279.801 381.9556,-220.599 381.9556,-220.599 381.9556,-214.599 387.9556,-208.599 393.9556,-208.599 393.9556,-208.599 547.3628,-208.599 547.3628,-208.599 553.3628,-208.599 559.3628,-214.599 559.3628,-220.599 559.3628,-220.599 559.3628,-279.801 559.3628,-279.801 559.3628,-285.801 553.3628,-291.801 547.3628,-291.801"/>
<text text-anchor="middle" x="470.6592" y="-279.9" font-family="Times,serif" font-size="9.00" fill="#000000">On définit les termes importants, on</text>
<text text-anchor="middle" x="470.6592" y="-269.1" font-family="Times,serif" font-size="9.00" fill="#000000">utilise des distinctions (ce que cela veut</text>
<text text-anchor="middle" x="470.6592" y="-258.3" font-family="Times,serif" font-size="9.00" fill="#000000">dire / ce que cela ne veut pas dire), on</text>
<text text-anchor="middle" x="470.6592" y="-247.5" font-family="Times,serif" font-size="9.00" fill="#000000">mobilise un exemple pour dégager le sens</text>
<text text-anchor="middle" x="470.6592" y="-236.7" font-family="Times,serif" font-size="9.00" fill="#000000">concret du texte et sa pertinence : pour le</text>
<text text-anchor="middle" x="470.6592" y="-225.9" font-family="Times,serif" font-size="9.00" fill="#000000">moment, on va dans le sens de ce que dit</text>
<text text-anchor="middle" x="470.6592" y="-215.1" font-family="Times,serif" font-size="9.00" fill="#000000">l'auteur, on montre qu'il semble avoir raison</text>
</g>
<!-- c2&#45;&gt;d2 -->
<g id="edge9" class="edge">
<title>c2-&gt;d2</title>
<path fill="none" stroke="#006400" d="M354.4092,-250.2C363.4912,-250.2 372.5733,-250.2 381.6553,-250.2"/>
</g>
<!-- d3 -->
<g id="node11" class="node">
<title>d3</title>
<path fill="#ffffff" stroke="#7f7f7f" d="M547.7313,-173.3003C547.7313,-173.3003 437.5871,-173.3003 437.5871,-173.3003 431.5871,-173.3003 425.5871,-167.3003 425.5871,-161.3003 425.5871,-161.3003 425.5871,-112.6997 425.5871,-112.6997 425.5871,-106.6997 431.5871,-100.6997 437.5871,-100.6997 437.5871,-100.6997 547.7313,-100.6997 547.7313,-100.6997 553.7313,-100.6997 559.7313,-106.6997 559.7313,-112.6997 559.7313,-112.6997 559.7313,-161.3003 559.7313,-161.3003 559.7313,-167.3003 553.7313,-173.3003 547.7313,-173.3003"/>
<text text-anchor="middle" x="492.6592" y="-161.3" font-family="Times,serif" font-size="9.00" fill="#000000">Attention, l'utilisation de la</text>
<text text-anchor="middle" x="492.6592" y="-150.5" font-family="Times,serif" font-size="9.00" fill="#000000">référence ne doit pas conduire à</text>
<text text-anchor="middle" x="492.6592" y="-139.7" font-family="Times,serif" font-size="9.00" fill="#000000">faire du texte un prétexte à la</text>
<text text-anchor="middle" x="492.6592" y="-128.9" font-family="Times,serif" font-size="9.00" fill="#000000">récitation de connaissances : elle</text>
<text text-anchor="middle" x="492.6592" y="-118.1" font-family="Times,serif" font-size="9.00" fill="#000000">n'a d'intérêt que si elle permet</text>
<text text-anchor="middle" x="492.6592" y="-107.3" font-family="Times,serif" font-size="9.00" fill="#000000">de mieux comprendre le texte</text>
</g>
<!-- c3&#45;&gt;d3 -->
<g id="edge10" class="edge">
<title>c3-&gt;d3</title>
<path fill="none" stroke="#006400" d="M383.8311,-137C397.718,-137 411.6049,-137 425.4918,-137"/>
</g>
<!-- d4 -->
<g id="node12" class="node">
<title>d4</title>
<path fill="#ffffff" stroke="#7f7f7f" d="M542.1011,-63.8C542.1011,-63.8 419.2173,-63.8 419.2173,-63.8 413.2173,-63.8 407.2173,-57.8 407.2173,-51.8 407.2173,-51.8 407.2173,-13.8 407.2173,-13.8 407.2173,-7.8 413.2173,-1.8 419.2173,-1.8 419.2173,-1.8 542.1011,-1.8 542.1011,-1.8 548.1011,-1.8 554.1011,-7.8 554.1011,-13.8 554.1011,-13.8 554.1011,-51.8 554.1011,-51.8 554.1011,-57.8 548.1011,-63.8 542.1011,-63.8"/>
<text text-anchor="middle" x="480.6592" y="-51.7" font-family="Times,serif" font-size="9.00" fill="#000000">On va problématiser ce que dit</text>
<text text-anchor="middle" x="480.6592" y="-40.9" font-family="Times,serif" font-size="9.00" fill="#000000">l'auteur : Est-ce si simple ? N'est-ce</text>
<text text-anchor="middle" x="480.6592" y="-30.1" font-family="Times,serif" font-size="9.00" fill="#000000">pas discutable ? On s'efforce de</text>
<text text-anchor="middle" x="480.6592" y="-19.3" font-family="Times,serif" font-size="9.00" fill="#000000">remarquer le caractère étonnant</text>
<text text-anchor="middle" x="480.6592" y="-8.5" font-family="Times,serif" font-size="9.00" fill="#000000">de ce qu'affirme l'auteur</text>
</g>
<!-- c4&#45;&gt;d4 -->
<g id="edge11" class="edge">
<title>c4-&gt;d4</title>
<path fill="none" stroke="#006400" d="M379.8838,-32.8C388.9378,-32.8 397.9919,-32.8 407.0459,-32.8"/>
</g>
<!-- e1 -->
<g id="node13" class="node">
<title>e1</title>
<path fill="#fafafa" stroke="transparent" d="M81.219,-376C81.219,-376 38.0994,-376 38.0994,-376 32.0994,-376 26.0994,-370 26.0994,-364 26.0994,-364 26.0994,-352 26.0994,-352 26.0994,-346 32.0994,-340 38.0994,-340 38.0994,-340 81.219,-340 81.219,-340 87.219,-340 93.219,-346 93.219,-352 93.219,-352 93.219,-364 93.219,-364 93.219,-370 87.219,-376 81.219,-376"/>
<text text-anchor="middle" x="59.6592" y="-353.2" font-family="Times,serif" font-size="16.00" fill="#cd2626">Citation</text>
</g>
<!-- e1&#45;&gt;b1 -->
<!-- e2 -->
<g id="node14" class="node">
<title>e2</title>
<path fill="#fafafa" stroke="transparent" d="M82.0313,-273.6017C82.0313,-273.6017 25.2871,-273.6017 25.2871,-273.6017 19.2871,-273.6017 13.2871,-267.6017 13.2871,-261.6017 13.2871,-261.6017 13.2871,-238.7983 13.2871,-238.7983 13.2871,-232.7983 19.2871,-226.7983 25.2871,-226.7983 25.2871,-226.7983 82.0313,-226.7983 82.0313,-226.7983 88.0313,-226.7983 94.0313,-232.7983 94.0313,-238.7983 94.0313,-238.7983 94.0313,-261.6017 94.0313,-261.6017 94.0313,-267.6017 88.0313,-273.6017 82.0313,-273.6017"/>
<text text-anchor="middle" x="53.6592" y="-255" font-family="Times,serif" font-size="16.00" fill="#cd2626">Analyse -</text>
<text text-anchor="middle" x="53.6592" y="-235.8" font-family="Times,serif" font-size="16.00" fill="#cd2626">Argument</text>
</g>
<!-- e2&#45;&gt;b2 -->
<!-- e3 -->
<g id="node15" class="node">
<title>e3</title>
<path fill="#fafafa" stroke="transparent" d="M81.1992,-155C81.1992,-155 22.1192,-155 22.1192,-155 16.1192,-155 10.1192,-149 10.1192,-143 10.1192,-143 10.1192,-131 10.1192,-131 10.1192,-125 16.1192,-119 22.1192,-119 22.1192,-119 81.1992,-119 81.1992,-119 87.1992,-119 93.1992,-125 93.1992,-131 93.1992,-131 93.1992,-143 93.1992,-143 93.1992,-149 87.1992,-155 81.1992,-155"/>
<text text-anchor="middle" x="51.6592" y="-132.2" font-family="Times,serif" font-size="16.00" fill="#cd2626">Référence</text>
</g>
<!-- e3&#45;&gt;b3 -->
<!-- e4 -->
<g id="node16" class="node">
<title>e4</title>
<path fill="#fafafa" stroke="transparent" d="M81.4781,-50.8C81.4781,-50.8 11.8403,-50.8 11.8403,-50.8 5.8403,-50.8 -.1597,-44.8 -.1597,-38.8 -.1597,-38.8 -.1597,-26.8 -.1597,-26.8 -.1597,-20.8 5.8403,-14.8 11.8403,-14.8 11.8403,-14.8 81.4781,-14.8 81.4781,-14.8 87.4781,-14.8 93.4781,-20.8 93.4781,-26.8 93.4781,-26.8 93.4781,-38.8 93.4781,-38.8 93.4781,-44.8 87.4781,-50.8 81.4781,-50.8"/>
<text text-anchor="middle" x="46.6592" y="-28" font-family="Times,serif" font-size="16.00" fill="#cd2626">Etonnement</text>
</g>
<!-- e4&#45;&gt;b4 -->
</g>
</svg>