<?xml version="1.0" encoding="UTF-8" standalone="no"?><!DOCTYPE svg PUBLIC "-//W3C//DTD SVG 1.1//EN" "http://www.w3.org/Graphics/SVG/1.1/DTD/svg11.dtd"><!-- Generated by graphviz version 2.40.1 (20161225.0304)
 --><!-- Title: G Pages: 1 --><svg xmlns="http://www.w3.org/2000/svg" xmlns:xlink="http://www.w3.org/1999/xlink" width="603pt" height="483pt" viewBox="0.00 0.00 602.80 483.20">
<g id="graph0" class="graph" transform="scale(1 1) rotate(0) translate(21.6 461.6)">
<title>G</title>
<polygon fill="#fafafa" stroke="transparent" points="-21.6,21.6 -21.6,-461.6 581.2045,-461.6 581.2045,21.6 -21.6,21.6"/>
<!-- b1 -->
<g id="node1" class="node">
<title>b1</title>
<ellipse fill="#006400" stroke="#000000" cx="130.8824" cy="-392.8" rx="27" ry="19.4695"/>
<text text-anchor="middle" x="130.8824" y="-388" font-family="Times,serif" font-size="16.00" fill="#ffffff">C</text>
</g>
<!-- b2 -->
<g id="node2" class="node">
<title>b2</title>
<ellipse fill="#006400" stroke="#000000" cx="130.8824" cy="-241.8" rx="27" ry="19.4695"/>
<text text-anchor="middle" x="130.8824" y="-237" font-family="Times,serif" font-size="16.00" fill="#ffffff">A</text>
</g>
<!-- b1&#45;&gt;b2 -->
<g id="edge1" class="edge">
<title>b1-&gt;b2</title>
<path fill="none" stroke="#000000" d="M130.8824,-373.3685C130.8824,-347.5458 130.8824,-301.676 130.8824,-271.4987"/>
<polygon fill="#000000" stroke="#000000" points="130.8824,-261.1569 135.3825,-271.1569 130.8824,-266.1569 130.8825,-271.1569 130.8825,-271.1569 130.8825,-271.1569 130.8824,-266.1569 126.3825,-271.1569 130.8824,-261.1569 130.8824,-261.1569"/>
</g>
<!-- c1 -->
<g id="node4" class="node">
<title>c1</title>
<polygon fill="#ffffff" stroke="#006400" points="362.0036,-440.2009 199.7612,-440.2009 199.7612,-345.3991 362.0036,-345.3991 362.0036,-440.2009"/>
<text text-anchor="middle" x="280.8824" y="-425.2" font-family="Times,serif" font-size="12.00" fill="#000000">– On avance petit à petit dans</text>
<text text-anchor="middle" x="280.8824" y="-410.8" font-family="Times,serif" font-size="12.00" fill="#000000">le texte, de manière linéaire</text>
<text text-anchor="middle" x="280.8824" y="-396.4" font-family="Times,serif" font-size="12.00" fill="#000000">– On se focalise sur</text>
<text text-anchor="middle" x="280.8824" y="-382" font-family="Times,serif" font-size="12.00" fill="#000000">quelques éléments précis</text>
<text text-anchor="middle" x="280.8824" y="-367.6" font-family="Times,serif" font-size="12.00" fill="#000000">– On explique tout le texte,</text>
<text text-anchor="middle" x="280.8824" y="-353.2" font-family="Times,serif" font-size="12.00" fill="#000000">sans sauter de passages</text>
</g>
<!-- b1&#45;&gt;c1 -->
<g id="edge3" class="edge">
<title>b1-&gt;c1</title>
<path fill="none" stroke="#006400" d="M158.1285,-392.8C171.8744,-392.8 185.6203,-392.8 199.3661,-392.8"/>
</g>
<!-- b3 -->
<g id="node3" class="node">
<title>b3</title>
<ellipse fill="#006400" stroke="#000000" cx="130.8824" cy="-69" rx="27" ry="19.4695"/>
<text text-anchor="middle" x="130.8824" y="-64.2" font-family="Times,serif" font-size="16.00" fill="#ffffff">P</text>
</g>
<!-- b2&#45;&gt;b3 -->
<g id="edge2" class="edge">
<title>b2-&gt;b3</title>
<path fill="none" stroke="#000000" d="M130.8824,-222.3135C130.8824,-192.1573 130.8824,-133.9791 130.8824,-98.605"/>
<polygon fill="#000000" stroke="#000000" points="130.8824,-88.4152 135.3825,-98.4152 130.8824,-93.4152 130.8825,-98.4152 130.8825,-98.4152 130.8825,-98.4152 130.8824,-93.4152 126.3825,-98.4153 130.8824,-88.4152 130.8824,-88.4152"/>
</g>
<!-- c2 -->
<g id="node5" class="node">
<title>c2</title>
<polygon fill="#ffffff" stroke="#006400" points="372.824,-310.4006 198.9408,-310.4006 198.9408,-173.1994 372.824,-173.1994 372.824,-310.4006"/>
<text text-anchor="middle" x="285.8824" y="-295.8" font-family="Times,serif" font-size="12.00" fill="#000000">– On ne fait pas une analyse</text>
<text text-anchor="middle" x="285.8824" y="-281.4" font-family="Times,serif" font-size="12.00" fill="#000000">littéraire du style de l'auteur</text>
<text text-anchor="middle" x="285.8824" y="-267" font-family="Times,serif" font-size="12.00" fill="#000000">– On explique le sens précis des</text>
<text text-anchor="middle" x="285.8824" y="-252.6" font-family="Times,serif" font-size="12.00" fill="#000000">idées du texte, et on justifie</text>
<text text-anchor="middle" x="285.8824" y="-238.2" font-family="Times,serif" font-size="12.00" fill="#000000">les affirmations de l'auteur</text>
<text text-anchor="middle" x="285.8824" y="-223.8" font-family="Times,serif" font-size="12.00" fill="#000000">(pour éviter la paraphrase)</text>
<text text-anchor="middle" x="285.8824" y="-209.4" font-family="Times,serif" font-size="12.00" fill="#000000">– On lit correctement le texte, et</text>
<text text-anchor="middle" x="285.8824" y="-195" font-family="Times,serif" font-size="12.00" fill="#000000">on ne le surinterprète pas</text>
<text text-anchor="middle" x="285.8824" y="-180.6" font-family="Times,serif" font-size="12.00" fill="#000000">(pour éviter les contresens)</text>
</g>
<!-- b2&#45;&gt;c2 -->
<g id="edge4" class="edge">
<title>b2-&gt;c2</title>
<path fill="none" stroke="#006400" d="M158.1285,-241.8C171.6025,-241.8 185.0766,-241.8 198.5506,-241.8"/>
</g>
<!-- c3 -->
<g id="node6" class="node">
<title>c3</title>
<polygon fill="#ffffff" stroke="#006400" points="362.1665,-101.6012 199.5983,-101.6012 199.5983,-36.3988 362.1665,-36.3988 362.1665,-101.6012"/>
<text text-anchor="middle" x="280.8824" y="-87" font-family="Times,serif" font-size="12.00" fill="#000000">On s'efforce de remarquer</text>
<text text-anchor="middle" x="280.8824" y="-72.6" font-family="Times,serif" font-size="12.00" fill="#000000">et de s'interroger sur les</text>
<text text-anchor="middle" x="280.8824" y="-58.2" font-family="Times,serif" font-size="12.00" fill="#000000">difficultés, les problèmes que</text>
<text text-anchor="middle" x="280.8824" y="-43.8" font-family="Times,serif" font-size="12.00" fill="#000000">posent les idées du texte</text>
</g>
<!-- b3&#45;&gt;c3 -->
<g id="edge5" class="edge">
<title>b3-&gt;c3</title>
<path fill="none" stroke="#006400" d="M158.1285,-69C171.8744,-69 185.6203,-69 199.3661,-69"/>
</g>
<!-- d1 -->
<g id="node7" class="node">
<title>d1</title>
<path fill="#ffffff" stroke="#7f7f7f" d="M536.4664,-426.8C536.4664,-426.8 415.2984,-426.8 415.2984,-426.8 409.2984,-426.8 403.2984,-420.8 403.2984,-414.8 403.2984,-414.8 403.2984,-370.8 403.2984,-370.8 403.2984,-364.8 409.2984,-358.8 415.2984,-358.8 415.2984,-358.8 536.4664,-358.8 536.4664,-358.8 542.4664,-358.8 548.4664,-364.8 548.4664,-370.8 548.4664,-370.8 548.4664,-414.8 548.4664,-414.8 548.4664,-420.8 542.4664,-426.8 536.4664,-426.8"/>
<text text-anchor="middle" x="475.8824" y="-413.8" font-family="Times,serif" font-size="10.00" fill="#000000">Attention, on ne fait pas de</text>
<text text-anchor="middle" x="475.8824" y="-401.8" font-family="Times,serif" font-size="10.00" fill="#000000">longues citations pour faire du</text>
<text text-anchor="middle" x="475.8824" y="-389.8" font-family="Times,serif" font-size="10.00" fill="#000000">remplissage : une citation doit</text>
<text text-anchor="middle" x="475.8824" y="-377.8" font-family="Times,serif" font-size="10.00" fill="#000000">être courte, ciblée, et s'intégrer</text>
<text text-anchor="middle" x="475.8824" y="-365.8" font-family="Times,serif" font-size="10.00" fill="#000000">naturellement dans son propos</text>
</g>
<!-- c1&#45;&gt;d1 -->
<g id="edge6" class="edge">
<title>c1-&gt;d1</title>
<path fill="none" stroke="#006400" d="M362.0054,-392.8C375.647,-392.8 389.2885,-392.8 402.93,-392.8"/>
</g>
<!-- d2 -->
<g id="node8" class="node">
<title>d2</title>
<path fill="#ffffff" stroke="#7f7f7f" d="M543.6216,-295.8C543.6216,-295.8 412.1432,-295.8 412.1432,-295.8 406.1432,-295.8 400.1432,-289.8 400.1432,-283.8 400.1432,-283.8 400.1432,-199.8 400.1432,-199.8 400.1432,-193.8 406.1432,-187.8 412.1432,-187.8 412.1432,-187.8 543.6216,-187.8 543.6216,-187.8 549.6216,-187.8 555.6216,-193.8 555.6216,-199.8 555.6216,-199.8 555.6216,-283.8 555.6216,-283.8 555.6216,-289.8 549.6216,-295.8 543.6216,-295.8"/>
<text text-anchor="start" x="415.2604" y="-283.8" font-family="Times,serif" font-size="10.00" fill="#000000">Pour chaque passage, on utilise</text>
<text text-anchor="start" x="417.9004" y="-273.8" font-family="Times,serif" font-size="10.00" fill="#000000">avant tout : des </text>
<text text-anchor="start" x="481.2224" y="-273.8" font-family="Times,serif" font-weight="bold" font-size="10.00" fill="#000000">concepts  </text>
<text text-anchor="start" x="521.2074" y="-273.8" font-family="Times,serif" font-size="10.00" fill="#000000">(des</text>
<text text-anchor="start" x="414.7684" y="-263.8" font-family="Times,serif" font-size="10.00" fill="#000000">définitions et des distinctions) ;</text>
<text text-anchor="start" x="416.2349" y="-253.8" font-family="Times,serif" font-size="10.00" fill="#000000">et un </text>
<text text-anchor="start" x="438.4529" y="-253.8" font-family="Times,serif" font-weight="bold" font-size="10.00" fill="#000000">exemple </text>
<text text-anchor="start" x="474.8279" y="-253.8" font-family="Times,serif" font-size="10.00" fill="#000000"> pour montrer la</text>
<text text-anchor="start" x="413.6069" y="-243.8" font-family="Times,serif" font-size="10.00" fill="#000000">pertinence de ce que dit l'auteur</text>
<text text-anchor="start" x="418.1814" y="-223.8" font-family="Times,serif" font-size="10.00" fill="#000000">On peut essayer d'utiliser une</text>
<text text-anchor="start" x="412.5034" y="-213.8" font-family="Times,serif" font-weight="bold" font-size="10.00" fill="#000000">référence </text>
<text text-anchor="start" x="453.5634" y="-213.8" font-family="Times,serif" font-size="10.00" fill="#000000"> pour mieux saisir, par</text>
<text text-anchor="start" x="408.2629" y="-203.8" font-family="Times,serif" font-size="10.00" fill="#000000">comparaison, la pensée de l'auteur</text>
<text text-anchor="start" x="415.3454" y="-193.8" font-family="Times,serif" font-size="10.00" fill="#000000">(mais c'est plus délicat à faire)</text>
</g>
<!-- c2&#45;&gt;d2 -->
<g id="edge7" class="edge">
<title>c2-&gt;d2</title>
<path fill="none" stroke="#006400" d="M372.8824,-241.8C381.9058,-241.8 390.9293,-241.8 399.9527,-241.8"/>
</g>
<!-- d3 -->
<g id="node9" class="node">
<title>d3</title>
<path fill="#ffffff" stroke="#7f7f7f" d="M547.8272,-138C547.8272,-138 415.9376,-138 415.9376,-138 409.9376,-138 403.9376,-132 403.9376,-126 403.9376,-126 403.9376,-12 403.9376,-12 403.9376,-6 409.9376,0 415.9376,0 415.9376,0 547.8272,0 547.8272,0 553.8272,0 559.8272,-6 559.8272,-12 559.8272,-12 559.8272,-126 559.8272,-126 559.8272,-132 553.8272,-138 547.8272,-138"/>
<text text-anchor="start" x="423.7104" y="-126" font-family="Times,serif" font-size="10.00" fill="#000000">On essaie de voir ce qu'il y a</text>
<text text-anchor="start" x="416.9714" y="-116" font-family="Times,serif" font-size="10.00" fill="#000000">d'étonnant, de singulier dans les</text>
<text text-anchor="start" x="421.7669" y="-106" font-family="Times,serif" font-size="10.00" fill="#000000">affirmations de l'auteur, on se</text>
<text text-anchor="start" x="422.0374" y="-96" font-family="Times,serif" font-size="10.00" fill="#000000">questionne : est-ce si simple ?</text>
<text text-anchor="start" x="421.0729" y="-76" font-family="Times,serif" font-size="10.00" fill="#000000">On essaie de discuter le texte :</text>
<text text-anchor="start" x="442.0329" y="-66" font-family="Times,serif" font-size="10.00" fill="#000000">« Quelle objection </text>
<text text-anchor="start" x="440.0989" y="-56" font-family="Times,serif" font-size="10.00" fill="#000000">pourrait-on faire ? »</text>
<text text-anchor="start" x="438.6984" y="-46" font-family="Times,serif" font-size="10.00" fill="#000000">« Comment l'auteur </text>
<text text-anchor="start" x="431.7004" y="-36" font-family="Times,serif" font-size="10.00" fill="#000000">pourrait-il répondre ? »</text>
<text text-anchor="start" x="425.2715" y="-23.9" font-family="Times,serif" font-size="9.00" fill="#000000">(Attention : il faut d'abord bien</text>
<text text-anchor="start" x="412.1603" y="-14.9" font-family="Times,serif" font-size="9.00" fill="#000000">comprendre ce que l'auteur dit, et il ne</text>
<text text-anchor="start" x="412.6616" y="-5.9" font-family="Times,serif" font-size="9.00" fill="#000000">faut pas tomber dans la critique facile)</text>
</g>
<!-- c3&#45;&gt;d3 -->
<g id="edge8" class="edge">
<title>c3-&gt;d3</title>
<path fill="none" stroke="#006400" d="M362.5387,-69C376.3689,-69 390.1991,-69 404.0293,-69"/>
</g>
<!-- e1 -->
<g id="node10" class="node">
<title>e1</title>
<path fill="#fafafa" stroke="transparent" d="M77.4422,-410.8C77.4422,-410.8 34.3226,-410.8 34.3226,-410.8 28.3226,-410.8 22.3226,-404.8 22.3226,-398.8 22.3226,-398.8 22.3226,-386.8 22.3226,-386.8 22.3226,-380.8 28.3226,-374.8 34.3226,-374.8 34.3226,-374.8 77.4422,-374.8 77.4422,-374.8 83.4422,-374.8 89.4422,-380.8 89.4422,-386.8 89.4422,-386.8 89.4422,-398.8 89.4422,-398.8 89.4422,-404.8 83.4422,-410.8 77.4422,-410.8"/>
<text text-anchor="middle" x="55.8824" y="-388" font-family="Times,serif" font-size="16.00" fill="#cd2626">Citation</text>
</g>
<!-- e1&#45;&gt;b1 -->
<!-- e2 -->
<g id="node11" class="node">
<title>e2</title>
<path fill="#fafafa" stroke="transparent" d="M78.3077,-259.8C78.3077,-259.8 33.4571,-259.8 33.4571,-259.8 27.4571,-259.8 21.4571,-253.8 21.4571,-247.8 21.4571,-247.8 21.4571,-235.8 21.4571,-235.8 21.4571,-229.8 27.4571,-223.8 33.4571,-223.8 33.4571,-223.8 78.3077,-223.8 78.3077,-223.8 84.3077,-223.8 90.3077,-229.8 90.3077,-235.8 90.3077,-235.8 90.3077,-247.8 90.3077,-247.8 90.3077,-253.8 84.3077,-259.8 78.3077,-259.8"/>
<text text-anchor="middle" x="55.8824" y="-237" font-family="Times,serif" font-size="16.00" fill="#cd2626">Analyse</text>
</g>
<!-- e2&#45;&gt;b2 -->
<!-- e3 -->
<g id="node12" class="node">
<title>e3</title>
<path fill="#fafafa" stroke="transparent" d="M77.6475,-87C77.6475,-87 12.1173,-87 12.1173,-87 6.1173,-87 .1173,-81 .1173,-75 .1173,-75 .1173,-63 .1173,-63 .1173,-57 6.1173,-51 12.1173,-51 12.1173,-51 77.6475,-51 77.6475,-51 83.6475,-51 89.6475,-57 89.6475,-63 89.6475,-63 89.6475,-75 89.6475,-75 89.6475,-81 83.6475,-87 77.6475,-87"/>
<text text-anchor="middle" x="44.8824" y="-64.2" font-family="Times,serif" font-size="16.00" fill="#cd2626">Problèmes</text>
</g>
<!-- e3&#45;&gt;b3 -->
</g>
</svg>