<?xml version="1.0" encoding="UTF-8" standalone="no"?>
<!DOCTYPE svg PUBLIC "-//W3C//DTD SVG 1.1//EN"
 "http://www.w3.org/Graphics/SVG/1.1/DTD/svg11.dtd">
<!-- Generated by graphviz version 2.40.1 (20161225.0304)
 -->
<!-- Title: G Pages: 1 -->
<svg width="657pt" height="452pt"
 viewBox="0.00 0.00 657.11 452.20" xmlns="http://www.w3.org/2000/svg" xmlns:xlink="http://www.w3.org/1999/xlink">
<g id="graph0" class="graph" transform="scale(1 1) rotate(0) translate(21.6 430.6)">
<title>G</title>
<polygon fill="#fafafa" stroke="transparent" points="-21.6,21.6 -21.6,-430.6 635.5124,-430.6 635.5124,21.6 -21.6,21.6"/>
<!-- b1 -->
<g id="node1" class="node">
<title>b1</title>
<ellipse fill="#006400" stroke="#000000" cx="130.8824" cy="-361.8" rx="27" ry="19.4695"/>
<text text-anchor="middle" x="130.8824" y="-357" font-family="Times,serif" font-size="16.00" fill="#ffffff">C</text>
</g>
<!-- b2 -->
<g id="node2" class="node">
<title>b2</title>
<ellipse fill="#006400" stroke="#000000" cx="130.8824" cy="-210.8" rx="27" ry="19.4695"/>
<text text-anchor="middle" x="130.8824" y="-206" font-family="Times,serif" font-size="16.00" fill="#ffffff">A</text>
</g>
<!-- b1&#45;&gt;b2 -->
<g id="edge1" class="edge">
<title>b1&#45;&gt;b2</title>
<path fill="none" stroke="#000000" d="M130.8824,-342.3685C130.8824,-316.5458 130.8824,-270.676 130.8824,-240.4987"/>
<polygon fill="#000000" stroke="#000000" points="130.8824,-230.1569 135.3825,-240.1569 130.8824,-235.1569 130.8825,-240.1569 130.8825,-240.1569 130.8825,-240.1569 130.8824,-235.1569 126.3825,-240.1569 130.8824,-230.1569 130.8824,-230.1569"/>
</g>
<!-- c1 -->
<g id="node4" class="node">
<title>c1</title>
<polygon fill="#ffffff" stroke="#006400" points="362.0036,-409.2009 199.7612,-409.2009 199.7612,-314.3991 362.0036,-314.3991 362.0036,-409.2009"/>
<text text-anchor="middle" x="280.8824" y="-394.2" font-family="Times,serif" font-size="12.00" fill="#000000">– On avance petit à petit dans</text>
<text text-anchor="middle" x="280.8824" y="-379.8" font-family="Times,serif" font-size="12.00" fill="#000000">le texte, de manière linéaire</text>
<text text-anchor="middle" x="280.8824" y="-365.4" font-family="Times,serif" font-size="12.00" fill="#000000">– On se focalise sur</text>
<text text-anchor="middle" x="280.8824" y="-351" font-family="Times,serif" font-size="12.00" fill="#000000">quelques éléments précis</text>
<text text-anchor="middle" x="280.8824" y="-336.6" font-family="Times,serif" font-size="12.00" fill="#000000">– On explique tout le texte,</text>
<text text-anchor="middle" x="280.8824" y="-322.2" font-family="Times,serif" font-size="12.00" fill="#000000">sans sauter de passages</text>
</g>
<!-- b1&#45;&gt;c1 -->
<g id="edge3" class="edge">
<title>b1&#45;&gt;c1</title>
<path fill="none" stroke="#006400" d="M158.1285,-361.8C171.8744,-361.8 185.6203,-361.8 199.3661,-361.8"/>
</g>
<!-- b3 -->
<g id="node3" class="node">
<title>b3</title>
<ellipse fill="#006400" stroke="#000000" cx="130.8824" cy="-53.5" rx="27" ry="19.4695"/>
<text text-anchor="middle" x="130.8824" y="-48.7" font-family="Times,serif" font-size="16.00" fill="#ffffff">P</text>
</g>
<!-- b2&#45;&gt;b3 -->
<g id="edge2" class="edge">
<title>b2&#45;&gt;b3</title>
<path fill="none" stroke="#000000" d="M130.8824,-191.5119C130.8824,-164.388 130.8824,-114.7444 130.8824,-82.9759"/>
<polygon fill="#000000" stroke="#000000" points="130.8824,-72.9458 135.3825,-82.9458 130.8824,-77.9458 130.8825,-82.9458 130.8825,-82.9458 130.8825,-82.9458 130.8824,-77.9458 126.3825,-82.9459 130.8824,-72.9458 130.8824,-72.9458"/>
</g>
<!-- c2 -->
<g id="node5" class="node">
<title>c2</title>
<polygon fill="#ffffff" stroke="#006400" points="372.824,-279.4006 198.9408,-279.4006 198.9408,-142.1994 372.824,-142.1994 372.824,-279.4006"/>
<text text-anchor="middle" x="285.8824" y="-264.8" font-family="Times,serif" font-size="12.00" fill="#000000">– On ne fait pas une analyse</text>
<text text-anchor="middle" x="285.8824" y="-250.4" font-family="Times,serif" font-size="12.00" fill="#000000">littéraire du style de l&#39;auteur</text>
<text text-anchor="middle" x="285.8824" y="-236" font-family="Times,serif" font-size="12.00" fill="#000000">– On explique le sens précis des</text>
<text text-anchor="middle" x="285.8824" y="-221.6" font-family="Times,serif" font-size="12.00" fill="#000000">idées du texte, et on justifie</text>
<text text-anchor="middle" x="285.8824" y="-207.2" font-family="Times,serif" font-size="12.00" fill="#000000">les affirmations de l&#39;auteur</text>
<text text-anchor="middle" x="285.8824" y="-192.8" font-family="Times,serif" font-size="12.00" fill="#000000">(pour éviter la paraphrase)</text>
<text text-anchor="middle" x="285.8824" y="-178.4" font-family="Times,serif" font-size="12.00" fill="#000000">– On lit correctement le texte, et</text>
<text text-anchor="middle" x="285.8824" y="-164" font-family="Times,serif" font-size="12.00" fill="#000000">on ne le surinterprète pas</text>
<text text-anchor="middle" x="285.8824" y="-149.6" font-family="Times,serif" font-size="12.00" fill="#000000">(pour éviter les contresens)</text>
</g>
<!-- b2&#45;&gt;c2 -->
<g id="edge4" class="edge">
<title>b2&#45;&gt;c2</title>
<path fill="none" stroke="#006400" d="M158.1285,-210.8C171.6025,-210.8 185.0766,-210.8 198.5506,-210.8"/>
</g>
<!-- c3 -->
<g id="node6" class="node">
<title>c3</title>
<polygon fill="#ffffff" stroke="#006400" points="362.1665,-86.1012 199.5983,-86.1012 199.5983,-20.8988 362.1665,-20.8988 362.1665,-86.1012"/>
<text text-anchor="middle" x="280.8824" y="-71.5" font-family="Times,serif" font-size="12.00" fill="#000000">On s&#39;efforce de remarquer</text>
<text text-anchor="middle" x="280.8824" y="-57.1" font-family="Times,serif" font-size="12.00" fill="#000000">et de s&#39;interroger sur les</text>
<text text-anchor="middle" x="280.8824" y="-42.7" font-family="Times,serif" font-size="12.00" fill="#000000">difficultés, les problèmes que</text>
<text text-anchor="middle" x="280.8824" y="-28.3" font-family="Times,serif" font-size="12.00" fill="#000000">posent les idées du texte</text>
</g>
<!-- b3&#45;&gt;c3 -->
<g id="edge5" class="edge">
<title>b3&#45;&gt;c3</title>
<path fill="none" stroke="#006400" d="M158.1285,-53.5C171.8744,-53.5 185.6203,-53.5 199.3661,-53.5"/>
</g>
<!-- d1 -->
<g id="node7" class="node">
<title>d1</title>
<path fill="#ffffff" stroke="#7f7f7f" d="M536.4664,-395.8C536.4664,-395.8 415.2984,-395.8 415.2984,-395.8 409.2984,-395.8 403.2984,-389.8 403.2984,-383.8 403.2984,-383.8 403.2984,-339.8 403.2984,-339.8 403.2984,-333.8 409.2984,-327.8 415.2984,-327.8 415.2984,-327.8 536.4664,-327.8 536.4664,-327.8 542.4664,-327.8 548.4664,-333.8 548.4664,-339.8 548.4664,-339.8 548.4664,-383.8 548.4664,-383.8 548.4664,-389.8 542.4664,-395.8 536.4664,-395.8"/>
<text text-anchor="middle" x="475.8824" y="-382.8" font-family="Times,serif" font-size="10.00" fill="#000000">Attention, on ne fait pas de</text>
<text text-anchor="middle" x="475.8824" y="-370.8" font-family="Times,serif" font-size="10.00" fill="#000000">longues citations pour faire du</text>
<text text-anchor="middle" x="475.8824" y="-358.8" font-family="Times,serif" font-size="10.00" fill="#000000">remplissage : une citation doit</text>
<text text-anchor="middle" x="475.8824" y="-346.8" font-family="Times,serif" font-size="10.00" fill="#000000">être courte, ciblée, et s&#39;intégrer</text>
<text text-anchor="middle" x="475.8824" y="-334.8" font-family="Times,serif" font-size="10.00" fill="#000000">naturellement dans son propos</text>
</g>
<!-- c1&#45;&gt;d1 -->
<g id="edge6" class="edge">
<title>c1&#45;&gt;d1</title>
<path fill="none" stroke="#006400" d="M362.0054,-361.8C375.647,-361.8 389.2885,-361.8 402.93,-361.8"/>
</g>
<!-- d2 -->
<g id="node8" class="node">
<title>d2</title>
<path fill="#ffffff" stroke="#7f7f7f" d="M543.6216,-263.8C543.6216,-263.8 412.1432,-263.8 412.1432,-263.8 406.1432,-263.8 400.1432,-257.8 400.1432,-251.8 400.1432,-251.8 400.1432,-169.8 400.1432,-169.8 400.1432,-163.8 406.1432,-157.8 412.1432,-157.8 412.1432,-157.8 543.6216,-157.8 543.6216,-157.8 549.6216,-157.8 555.6216,-163.8 555.6216,-169.8 555.6216,-169.8 555.6216,-251.8 555.6216,-251.8 555.6216,-257.8 549.6216,-263.8 543.6216,-263.8"/>
<text text-anchor="start" x="415.2604" y="-251.8" font-family="Times,serif" font-size="10.00" fill="#000000">Pour chaque passage, on utilise</text>
<text text-anchor="start" x="419.1504" y="-241.8" font-family="Times,serif" font-size="10.00" fill="#000000">avant tout : des concepts (des</text>
<text text-anchor="start" x="414.7684" y="-231.8" font-family="Times,serif" font-size="10.00" fill="#000000">définitions et des distinctions) ;</text>
<text text-anchor="start" x="417.4849" y="-221.8" font-family="Times,serif" font-size="10.00" fill="#000000">et un exemple pour montrer la</text>
<text text-anchor="start" x="413.6069" y="-211.8" font-family="Times,serif" font-size="10.00" fill="#000000">pertinence de ce que dit l&#39;auteur</text>
<text text-anchor="start" x="418.1814" y="-193.8" font-family="Times,serif" font-size="10.00" fill="#000000">On peut essayer d&#39;utiliser une</text>
<text text-anchor="start" x="413.7534" y="-183.8" font-family="Times,serif" font-size="10.00" fill="#000000">référence pour mieux saisir, par</text>
<text text-anchor="start" x="408.2629" y="-173.8" font-family="Times,serif" font-size="10.00" fill="#000000">comparaison, la pensée de l&#39;auteur</text>
<text text-anchor="start" x="415.3454" y="-163.8" font-family="Times,serif" font-size="10.00" fill="#000000">(mais c&#39;est plus délicat à faire)</text>
</g>
<!-- c2&#45;&gt;d2 -->
<g id="edge7" class="edge">
<title>c2&#45;&gt;d2</title>
<path fill="none" stroke="#006400" d="M372.8824,-210.8C381.9058,-210.8 390.9293,-210.8 399.9527,-210.8"/>
</g>
<!-- d3 -->
<g id="node9" class="node">
<title>d3</title>
<path fill="#ffffff" stroke="#7f7f7f" d="M601.9424,-107C601.9424,-107 415.8224,-107 415.8224,-107 409.8224,-107 403.8224,-101 403.8224,-95 403.8224,-95 403.8224,-12 403.8224,-12 403.8224,-6 409.8224,0 415.8224,0 415.8224,0 601.9424,0 601.9424,0 607.9424,0 613.9424,-6 613.9424,-12 613.9424,-12 613.9424,-95 613.9424,-95 613.9424,-101 607.9424,-107 601.9424,-107"/>
<text text-anchor="start" x="420.5139" y="-95" font-family="Times,serif" font-size="10.00" fill="#000000">On essaie de voir ce qu&#39;il y a d&#39;étonnant, de</text>
<text text-anchor="start" x="424.4664" y="-85" font-family="Times,serif" font-size="10.00" fill="#000000">singulier dans les affirmations de l&#39;auteur,</text>
<text text-anchor="start" x="426.5444" y="-75" font-family="Times,serif" font-size="10.00" fill="#000000">on se questionne : « est&#45;ce si simple ? »</text>
<text text-anchor="start" x="432.6654" y="-57" font-family="Times,serif" font-size="10.00" fill="#000000">On essaie de discuter le texte à l&#39;aide </text>
<text text-anchor="start" x="411.8524" y="-47" font-family="Times,serif" font-size="10.00" fill="#000000">d&#39;autres références, de concepts, d&#39;un exemple :</text>
<text text-anchor="start" x="428.3589" y="-37" font-family="Times,serif" font-size="10.00" fill="#000000">« quelle objection pourrait&#45;on faire ? »</text>
<text text-anchor="start" x="418.2959" y="-27" font-family="Times,serif" font-size="10.00" fill="#000000">« comment l&#39;auteur pourrait&#45;il répondre ? »</text>
<text text-anchor="start" x="415.0475" y="-14.9" font-family="Times,serif" font-size="9.00" fill="#000000">(Il faut d&#39;abord bien comprendre ce que l&#39;auteur dit,</text>
<text text-anchor="start" x="421.7899" y="-5.9" font-family="Times,serif" font-size="9.00" fill="#000000">attention à ne pas tomber dans la critique facile)</text>
</g>
<!-- c3&#45;&gt;d3 -->
<g id="edge8" class="edge">
<title>c3&#45;&gt;d3</title>
<path fill="none" stroke="#006400" d="M362.3746,-53.5C376.1097,-53.5 389.8448,-53.5 403.5799,-53.5"/>
</g>
<!-- e1 -->
<g id="node10" class="node">
<title>e1</title>
<path fill="#fafafa" stroke="transparent" d="M77.4422,-379.8C77.4422,-379.8 34.3226,-379.8 34.3226,-379.8 28.3226,-379.8 22.3226,-373.8 22.3226,-367.8 22.3226,-367.8 22.3226,-355.8 22.3226,-355.8 22.3226,-349.8 28.3226,-343.8 34.3226,-343.8 34.3226,-343.8 77.4422,-343.8 77.4422,-343.8 83.4422,-343.8 89.4422,-349.8 89.4422,-355.8 89.4422,-355.8 89.4422,-367.8 89.4422,-367.8 89.4422,-373.8 83.4422,-379.8 77.4422,-379.8"/>
<text text-anchor="middle" x="55.8824" y="-357" font-family="Times,serif" font-size="16.00" fill="#cd2626">Citation</text>
</g>
<!-- e1&#45;&gt;b1 -->
<!-- e2 -->
<g id="node11" class="node">
<title>e2</title>
<path fill="#fafafa" stroke="transparent" d="M78.3077,-228.8C78.3077,-228.8 33.4571,-228.8 33.4571,-228.8 27.4571,-228.8 21.4571,-222.8 21.4571,-216.8 21.4571,-216.8 21.4571,-204.8 21.4571,-204.8 21.4571,-198.8 27.4571,-192.8 33.4571,-192.8 33.4571,-192.8 78.3077,-192.8 78.3077,-192.8 84.3077,-192.8 90.3077,-198.8 90.3077,-204.8 90.3077,-204.8 90.3077,-216.8 90.3077,-216.8 90.3077,-222.8 84.3077,-228.8 78.3077,-228.8"/>
<text text-anchor="middle" x="55.8824" y="-206" font-family="Times,serif" font-size="16.00" fill="#cd2626">Analyse</text>
</g>
<!-- e2&#45;&gt;b2 -->
<!-- e3 -->
<g id="node12" class="node">
<title>e3</title>
<path fill="#fafafa" stroke="transparent" d="M77.6475,-71.5C77.6475,-71.5 12.1173,-71.5 12.1173,-71.5 6.1173,-71.5 .1173,-65.5 .1173,-59.5 .1173,-59.5 .1173,-47.5 .1173,-47.5 .1173,-41.5 6.1173,-35.5 12.1173,-35.5 12.1173,-35.5 77.6475,-35.5 77.6475,-35.5 83.6475,-35.5 89.6475,-41.5 89.6475,-47.5 89.6475,-47.5 89.6475,-59.5 89.6475,-59.5 89.6475,-65.5 83.6475,-71.5 77.6475,-71.5"/>
<text text-anchor="middle" x="44.8824" y="-48.7" font-family="Times,serif" font-size="16.00" fill="#cd2626">Problèmes</text>
</g>
<!-- e3&#45;&gt;b3 -->
</g>
</svg>
