<?xml version="1.0" encoding="UTF-8" standalone="no"?><!DOCTYPE svg PUBLIC "-//W3C//DTD SVG 1.1//EN" "http://www.w3.org/Graphics/SVG/1.1/DTD/svg11.dtd"><!-- Generated by graphviz version 2.40.1 (20161225.0304)
 --><!-- Title: G Pages: 1 --><svg xmlns="http://www.w3.org/2000/svg" xmlns:xlink="http://www.w3.org/1999/xlink" width="631pt" height="480pt" viewBox="0.00 0.00 631.08 479.60">
<g id="graph0" class="graph" transform="scale(1 1) rotate(0) translate(21.6 458)">
<title>G</title>
<polygon fill="#fafafa" stroke="transparent" points="-21.6,21.6 -21.6,-458 609.4816,-458 609.4816,21.6 -21.6,21.6"/>
<!-- a1 -->
<g id="node1" class="node">
<title>a1</title>
<ellipse fill="#000000" stroke="#000000" cx="62.3781" cy="-263.2" rx="62.2565" ry="51.4548"/>
<text text-anchor="middle" x="62.3781" y="-279.4" font-family="Times,serif" font-size="18.00" fill="#ffffff">Stratégies</text>
<text text-anchor="middle" x="62.3781" y="-257.8" font-family="Times,serif" font-size="18.00" fill="#ffffff">d'analyse</text>
<text text-anchor="middle" x="62.3781" y="-236.2" font-family="Times,serif" font-size="18.00" fill="#ffffff">d'un sujet</text>
</g>
<!-- b1 -->
<g id="node2" class="node">
<title>b1</title>
<ellipse fill="#8b0000" stroke="#000000" cx="198.7389" cy="-353.2" rx="65.9654" ry="32.6206"/>
<text text-anchor="middle" x="198.7389" y="-358" font-family="Times,serif" font-size="16.00" fill="#ffffff">Trouver des</text>
<text text-anchor="middle" x="198.7389" y="-338.8" font-family="Times,serif" font-size="16.00" fill="#ffffff">associations</text>
</g>
<!-- a1&#45;&gt;b1 -->
<g id="edge1" class="edge">
<title>a1-&gt;b1:w</title>
<path fill="none" stroke="#000000" d="M80.7091,-312.4133C90.3262,-330.3057 104.0463,-347.3019 122.6058,-351.9535"/>
<polygon fill="#000000" stroke="#000000" points="122.4042,-355.4549 132.7563,-353.2 123.2575,-348.5071 122.4042,-355.4549"/>
</g>
<!-- b2 -->
<g id="node3" class="node">
<title>b2</title>
<ellipse fill="#8b0000" stroke="#000000" cx="198.7389" cy="-204.2" rx="65.8163" ry="32.6206"/>
<text text-anchor="middle" x="198.7389" y="-209" font-family="Times,serif" font-size="16.00" fill="#ffffff">Trouver des</text>
<text text-anchor="middle" x="198.7389" y="-189.8" font-family="Times,serif" font-size="16.00" fill="#ffffff">distinctions</text>
</g>
<!-- a1&#45;&gt;b2 -->
<g id="edge2" class="edge">
<title>a1-&gt;b2:w</title>
<path fill="none" stroke="#000000" d="M96.1254,-219.7016C103.9835,-213.0692 112.9464,-207.6657 122.7214,-205.3785"/>
<polygon fill="#000000" stroke="#000000" points="123.2328,-208.8426 132.7563,-204.2 122.4162,-201.8904 123.2328,-208.8426"/>
</g>
<!-- b3 -->
<g id="node4" class="node">
<title>b3</title>
<ellipse fill="#8b0000" stroke="#000000" cx="62.3781" cy="-53.2" rx="52.297" ry="32.6206"/>
<text text-anchor="middle" x="62.3781" y="-58" font-family="Times,serif" font-size="16.00" fill="#ffffff">Enrichir</text>
<text text-anchor="middle" x="62.3781" y="-38.8" font-family="Times,serif" font-size="16.00" fill="#ffffff">l'analyse</text>
</g>
<!-- a1&#45;&gt;b3 -->
<g id="edge3" class="edge">
<title>a1-&gt;b3:n</title>
<path fill="none" stroke="#000000" d="M62.3781,-96.0186C62.3781,-135.7272 62.3781,-179.0475 62.3781,-211.6392"/>
<polygon fill="#000000" stroke="#000000" points="65.8782,-96.0097 62.3781,-86.0098 58.8782,-96.0098 65.8782,-96.0097"/>
</g>
<!-- b1&#45;&gt;b2 -->
<!-- c1 -->
<g id="node5" class="node">
<title>c1</title>
<polygon fill="#ffffff" stroke="#006400" points="371.3776,-426.2 317.3776,-426.2 317.3776,-390.2 371.3776,-390.2 371.3776,-426.2"/>
<text text-anchor="middle" x="344.3776" y="-403.4" font-family="Times,serif" font-size="16.00" fill="#006400">//</text>
</g>
<!-- b1&#45;&gt;c1 -->
<g id="edge5" class="edge">
<title>b1-&gt;c1</title>
<path fill="none" stroke="#006400" d="M251.3178,-373.0563C269.98,-380.104 290.5688,-387.8793 307.6255,-394.3207"/>
<polygon fill="#006400" stroke="#006400" points="306.6272,-397.6849 317.2189,-397.9436 309.1003,-391.1363 306.6272,-397.6849"/>
</g>
<!-- c2 -->
<g id="node6" class="node">
<title>c2</title>
<polygon fill="#ffffff" stroke="#006400" points="371.3776,-371.2 317.3776,-371.2 317.3776,-335.2 371.3776,-335.2 371.3776,-371.2"/>
<text text-anchor="middle" x="344.3776" y="-348.4" font-family="Times,serif" font-size="16.00" fill="#006400">+</text>
</g>
<!-- b1&#45;&gt;c2 -->
<g id="edge6" class="edge">
<title>b1-&gt;c2</title>
<path fill="none" stroke="#006400" d="M264.7404,-353.2C279.2048,-353.2 294.0312,-353.2 306.9097,-353.2"/>
<polygon fill="#006400" stroke="#006400" points="307.219,-356.7001 317.2189,-353.2 307.2189,-349.7001 307.219,-356.7001"/>
</g>
<!-- c3 -->
<g id="node7" class="node">
<title>c3</title>
<polygon fill="#ffffff" stroke="#006400" points="371.3776,-319.2 317.3776,-319.2 317.3776,-283.2 371.3776,-283.2 371.3776,-319.2"/>
<text text-anchor="middle" x="344.3776" y="-296.4" font-family="Times,serif" font-size="16.00" fill="#006400">→</text>
</g>
<!-- b1&#45;&gt;c3 -->
<g id="edge7" class="edge">
<title>b1-&gt;c3</title>
<path fill="none" stroke="#006400" d="M252.5556,-333.9849C270.8075,-327.4681 290.7719,-320.3398 307.4093,-314.3995"/>
<polygon fill="#006400" stroke="#006400" points="309.0527,-317.5292 317.2935,-310.8703 306.6989,-310.9368 309.0527,-317.5292"/>
</g>
<!-- c4 -->
<g id="node8" class="node">
<title>c4</title>
<polygon fill="#ffffff" stroke="#006400" points="371.3776,-222.2 317.3776,-222.2 317.3776,-186.2 371.3776,-186.2 371.3776,-222.2"/>
<text text-anchor="middle" x="344.3776" y="-199.4" font-family="Times,serif" font-size="16.00" fill="#006400">≠</text>
</g>
<!-- b2&#45;&gt;c4 -->
<g id="edge8" class="edge">
<title>b2-&gt;c4</title>
<path fill="none" stroke="#006400" d="M264.7404,-204.2C279.2048,-204.2 294.0312,-204.2 306.9097,-204.2"/>
<polygon fill="#006400" stroke="#006400" points="307.219,-207.7001 317.2189,-204.2 307.2189,-200.7001 307.219,-207.7001"/>
</g>
<!-- c5 -->
<g id="node9" class="node">
<title>c5</title>
<polygon fill="#ffffff" stroke="#006400" points="225.7389,-98.2 171.7389,-98.2 171.7389,-62.2 225.7389,-62.2 225.7389,-98.2"/>
<text text-anchor="middle" x="198.7389" y="-75.4" font-family="Times,serif" font-size="16.00" fill="#006400">↑</text>
</g>
<!-- b3&#45;&gt;c5 -->
<g id="edge9" class="edge">
<title>b3-&gt;c5</title>
<path fill="none" stroke="#006400" d="M112.3796,-63.1005C128.6838,-66.3288 146.4842,-69.8534 161.6656,-72.8593"/>
<polygon fill="#006400" stroke="#006400" points="161.2174,-76.3385 171.7068,-74.8475 162.5771,-69.4718 161.2174,-76.3385"/>
</g>
<!-- c6 -->
<g id="node10" class="node">
<title>c6</title>
<polygon fill="#ffffff" stroke="#006400" points="225.7389,-46.2 171.7389,-46.2 171.7389,-10.2 225.7389,-10.2 225.7389,-46.2"/>
<text text-anchor="middle" x="198.7389" y="-23.4" font-family="Times,serif" font-size="16.00" fill="#006400">↓</text>
</g>
<!-- b3&#45;&gt;c6 -->
<g id="edge10" class="edge">
<title>b3-&gt;c6</title>
<path fill="none" stroke="#006400" d="M112.7664,-43.962C128.9167,-41.001 146.4991,-37.7775 161.5308,-35.0216"/>
<polygon fill="#006400" stroke="#006400" points="162.2761,-38.4434 171.481,-33.1974 161.0137,-31.5582 162.2761,-38.4434"/>
</g>
<!-- d1 -->
<g id="node11" class="node">
<title>d1</title>
<path fill="#ffffff" stroke="#7f7f7f" d="M575.8057,-436.6017C575.8057,-436.6017 427.1096,-436.6017 427.1096,-436.6017 421.1096,-436.6017 415.1096,-430.6017 415.1096,-424.6017 415.1096,-424.6017 415.1096,-401.7983 415.1096,-401.7983 415.1096,-395.7983 421.1096,-389.7983 427.1096,-389.7983 427.1096,-389.7983 575.8057,-389.7983 575.8057,-389.7983 581.8057,-389.7983 587.8057,-395.7983 587.8057,-401.7983 587.8057,-401.7983 587.8057,-424.6017 587.8057,-424.6017 587.8057,-430.6017 581.8057,-436.6017 575.8057,-436.6017"/>
<text text-anchor="middle" x="501.4576" y="-418" font-family="Times,serif" font-size="16.00" fill="#000000">Trouver des synonymes,</text>
<text text-anchor="middle" x="501.4576" y="-398.8" font-family="Times,serif" font-size="16.00" fill="#000000">des termes proches</text>
</g>
<!-- c1&#45;&gt;d1 -->
<g id="edge11" class="edge">
<title>c1-&gt;d1</title>
<path fill="none" stroke="#000000" d="M371.3806,-409.0595C383.7488,-409.4532 399.1699,-409.9441 415.0244,-410.4488"/>
</g>
<!-- d2 -->
<g id="node12" class="node">
<title>d2</title>
<path fill="#ffffff" stroke="#7f7f7f" d="M567.2283,-376.6017C567.2283,-376.6017 435.687,-376.6017 435.687,-376.6017 429.687,-376.6017 423.687,-370.6017 423.687,-364.6017 423.687,-364.6017 423.687,-341.7983 423.687,-341.7983 423.687,-335.7983 429.687,-329.7983 435.687,-329.7983 435.687,-329.7983 567.2283,-329.7983 567.2283,-329.7983 573.2283,-329.7983 579.2283,-335.7983 579.2283,-341.7983 579.2283,-341.7983 579.2283,-364.6017 579.2283,-364.6017 579.2283,-370.6017 573.2283,-376.6017 567.2283,-376.6017"/>
<text text-anchor="middle" x="501.4576" y="-358" font-family="Times,serif" font-size="16.00" fill="#000000">Trouver des</text>
<text text-anchor="middle" x="501.4576" y="-338.8" font-family="Times,serif" font-size="16.00" fill="#000000">expressions associées</text>
</g>
<!-- c2&#45;&gt;d2 -->
<g id="edge12" class="edge">
<title>c2-&gt;d2</title>
<path fill="none" stroke="#000000" d="M371.3806,-353.2C385.9418,-353.2 404.7343,-353.2 423.4839,-353.2"/>
</g>
<!-- d3 -->
<g id="node13" class="node">
<title>d3</title>
<path fill="#ffffff" stroke="#7f7f7f" d="M572.7785,-316.2C572.7785,-316.2 430.1367,-316.2 430.1367,-316.2 424.1367,-316.2 418.1367,-310.2 418.1367,-304.2 418.1367,-304.2 418.1367,-292.2 418.1367,-292.2 418.1367,-286.2 424.1367,-280.2 430.1367,-280.2 430.1367,-280.2 572.7785,-280.2 572.7785,-280.2 578.7785,-280.2 584.7785,-286.2 584.7785,-292.2 584.7785,-292.2 584.7785,-304.2 584.7785,-304.2 584.7785,-310.2 578.7785,-316.2 572.7785,-316.2"/>
<text text-anchor="middle" x="501.4576" y="-293.4" font-family="Times,serif" font-size="16.00" fill="#000000">Trouver des termes liés</text>
</g>
<!-- c3&#45;&gt;d3 -->
<g id="edge13" class="edge">
<title>c3-&gt;d3</title>
<path fill="none" stroke="#000000" d="M371.3806,-300.6843C384.5383,-300.433 401.151,-300.1157 418.065,-299.7927"/>
</g>
<!-- d4 -->
<g id="node14" class="node">
<title>d4</title>
<path fill="#ffffff" stroke="#7f7f7f" d="M563.3888,-227.6017C563.3888,-227.6017 439.5264,-227.6017 439.5264,-227.6017 433.5264,-227.6017 427.5264,-221.6017 427.5264,-215.6017 427.5264,-215.6017 427.5264,-192.7983 427.5264,-192.7983 427.5264,-186.7983 433.5264,-180.7983 439.5264,-180.7983 439.5264,-180.7983 563.3888,-180.7983 563.3888,-180.7983 569.3888,-180.7983 575.3888,-186.7983 575.3888,-192.7983 575.3888,-192.7983 575.3888,-215.6017 575.3888,-215.6017 575.3888,-221.6017 569.3888,-227.6017 563.3888,-227.6017"/>
<text text-anchor="middle" x="501.4576" y="-209" font-family="Times,serif" font-size="16.00" fill="#000000">Trouver le contraire,</text>
<text text-anchor="middle" x="501.4576" y="-189.8" font-family="Times,serif" font-size="16.00" fill="#000000">trouver un contraste</text>
</g>
<!-- c4&#45;&gt;d4 -->
<g id="edge14" class="edge">
<title>c4-&gt;d4</title>
<path fill="none" stroke="#000000" d="M371.3806,-204.2C386.9067,-204.2 407.2435,-204.2 427.2094,-204.2"/>
</g>
<!-- d5 -->
<g id="node15" class="node">
<title>d5</title>
<path fill="#ffffff" stroke="#7f7f7f" d="M377.1902,-106.6017C377.1902,-106.6017 311.5651,-106.6017 311.5651,-106.6017 305.5651,-106.6017 299.5651,-100.6017 299.5651,-94.6017 299.5651,-94.6017 299.5651,-71.7983 299.5651,-71.7983 299.5651,-65.7983 305.5651,-59.7983 311.5651,-59.7983 311.5651,-59.7983 377.1902,-59.7983 377.1902,-59.7983 383.1902,-59.7983 389.1902,-65.7983 389.1902,-71.7983 389.1902,-71.7983 389.1902,-94.6017 389.1902,-94.6017 389.1902,-100.6017 383.1902,-106.6017 377.1902,-106.6017"/>
<text text-anchor="middle" x="344.3776" y="-88" font-family="Times,serif" font-size="16.00" fill="#000000">Utiliser des</text>
<text text-anchor="middle" x="344.3776" y="-68.8" font-family="Times,serif" font-size="16.00" fill="#000000">références</text>
</g>
<!-- c5&#45;&gt;d5 -->
<g id="edge15" class="edge">
<title>c5-&gt;d5</title>
<path fill="none" stroke="#000000" d="M225.7911,-80.7572C246.4386,-81.1826 275.3418,-81.7779 299.4439,-82.2744"/>
</g>
<!-- d6 -->
<g id="node16" class="node">
<title>d6</title>
<path fill="#ffffff" stroke="#7f7f7f" d="M377.1902,-46.6017C377.1902,-46.6017 311.5651,-46.6017 311.5651,-46.6017 305.5651,-46.6017 299.5651,-40.6017 299.5651,-34.6017 299.5651,-34.6017 299.5651,-11.7983 299.5651,-11.7983 299.5651,-5.7983 305.5651,.2017 311.5651,.2017 311.5651,.2017 377.1902,.2017 377.1902,.2017 383.1902,.2017 389.1902,-5.7983 389.1902,-11.7983 389.1902,-11.7983 389.1902,-34.6017 389.1902,-34.6017 389.1902,-40.6017 383.1902,-46.6017 377.1902,-46.6017"/>
<text text-anchor="middle" x="344.3776" y="-28" font-family="Times,serif" font-size="16.00" fill="#000000">Utiliser des</text>
<text text-anchor="middle" x="344.3776" y="-8.8" font-family="Times,serif" font-size="16.00" fill="#000000">exemples</text>
</g>
<!-- c6&#45;&gt;d6 -->
<g id="edge16" class="edge">
<title>c6-&gt;d6</title>
<path fill="none" stroke="#000000" d="M225.7911,-27.2713C246.4386,-26.5624 275.3418,-25.5701 299.4439,-24.7426"/>
</g>
</g>
</svg>