<?xml version="1.0" encoding="UTF-8" standalone="no"?>
<!DOCTYPE svg PUBLIC "-//W3C//DTD SVG 1.1//EN"
 "http://www.w3.org/Graphics/SVG/1.1/DTD/svg11.dtd">
<!-- Generated by graphviz version 2.40.1 (20161225.0304)
 -->
<!-- Title: G Pages: 1 -->
<svg width="624pt" height="481pt"
 viewBox="0.00 0.00 624.42 480.68" xmlns="http://www.w3.org/2000/svg" xmlns:xlink="http://www.w3.org/1999/xlink">
<g id="graph0" class="graph" transform="scale(1 1) rotate(0) translate(21.6 459.0812)">
<title>G</title>
<polygon fill="#fafafa" stroke="transparent" points="-21.6,21.6 -21.6,-459.0812 602.8194,-459.0812 602.8194,21.6 -21.6,21.6"/>
<!-- a1 -->
<g id="node1" class="node">
<title>a1</title>
<ellipse fill="#000000" stroke="#000000" cx="263.7898" cy="-393.6406" rx="135.0175" ry="43.6818"/>
<text text-anchor="start" x="176.3242" y="-401.4406" font-family="Times,serif" font-size="18.00" fill="#ffffff">Les morales de la raison</text>
<text text-anchor="start" x="206.45" y="-373.0406" font-family="Times,serif" font-size="14.00" fill="#ffffff">(rationalisme moral)</text>
</g>
<!-- b1 -->
<g id="node2" class="node">
<title>b1</title>
<path fill="#8b0000" stroke="#000000" d="M362.333,-315.0014C362.333,-315.0014 165.2465,-315.0014 165.2465,-315.0014 159.2465,-315.0014 153.2465,-309.0014 153.2465,-303.0014 153.2465,-303.0014 153.2465,-270.1986 153.2465,-270.1986 153.2465,-264.1986 159.2465,-258.1986 165.2465,-258.1986 165.2465,-258.1986 362.333,-258.1986 362.333,-258.1986 368.333,-258.1986 374.333,-264.1986 374.333,-270.1986 374.333,-270.1986 374.333,-303.0014 374.333,-303.0014 374.333,-309.0014 368.333,-315.0014 362.333,-315.0014"/>
<text text-anchor="middle" x="263.7898" y="-291.4" font-family="Times,serif" font-size="16.00" fill="#ffffff">Pour savoir ce qui est bien et ce</text>
<text text-anchor="middle" x="263.7898" y="-272.2" font-family="Times,serif" font-size="16.00" fill="#ffffff">qui est mal, il faut réfléchir …</text>
</g>
<!-- a1&#45;&gt;b1 -->
<g id="edge1" class="edge">
<title>a1&#45;&gt;b1</title>
<path fill="none" stroke="#000000" d="M263.7898,-349.7943C263.7898,-341.6048 263.7898,-333.1027 263.7898,-325.0898"/>
<polygon fill="#000000" stroke="#000000" points="267.2898,-324.9053 263.7898,-314.9053 260.2898,-324.9053 267.2898,-324.9053"/>
</g>
<!-- e1 -->
<g id="node7" class="node">
<title>e1</title>
<path fill="#fafafa" stroke="transparent" d="M569.149,-413.6406C569.149,-413.6406 424.4305,-413.6406 424.4305,-413.6406 418.4305,-413.6406 412.4305,-407.6406 412.4305,-401.6406 412.4305,-401.6406 412.4305,-385.6406 412.4305,-385.6406 412.4305,-379.6406 418.4305,-373.6406 424.4305,-373.6406 424.4305,-373.6406 569.149,-373.6406 569.149,-373.6406 575.149,-373.6406 581.149,-379.6406 581.149,-385.6406 581.149,-385.6406 581.149,-401.6406 581.149,-401.6406 581.149,-407.6406 575.149,-413.6406 569.149,-413.6406"/>
<text text-anchor="start" x="420.3602" y="-396.2406" font-family="Times,serif" font-size="16.00" fill="#cd2626">≠ morales du sentiment</text>
<text text-anchor="start" x="433.4336" y="-379.9406" font-family="Times,serif" font-size="13.00" fill="#cd2626">(sentimentalisme moral)</text>
</g>
<!-- a1&#45;&gt;e1 -->
<!-- c1 -->
<g id="node3" class="node">
<title>c1</title>
<polygon fill="#ffffff" stroke="#7f7f7f" points="219.9514,-223.6017 67.6281,-223.6017 67.6281,-176.7983 219.9514,-176.7983 219.9514,-223.6017"/>
<text text-anchor="middle" x="143.7898" y="-205" font-family="Times,serif" font-size="16.00" fill="#000000">… aux conséquences</text>
<text text-anchor="middle" x="143.7898" y="-185.8" font-family="Times,serif" font-size="16.00" fill="#000000">de notre choix</text>
</g>
<!-- b1&#45;&gt;c1 -->
<g id="edge2" class="edge">
<title>b1&#45;&gt;c1</title>
<path fill="none" stroke="#000000" d="M224.4973,-258.3094C211.713,-249.1047 197.4991,-238.8708 184.6061,-229.5877"/>
<polygon fill="#000000" stroke="#000000" points="186.5129,-226.6479 176.3525,-223.6452 182.4228,-232.3286 186.5129,-226.6479"/>
</g>
<!-- c2 -->
<g id="node4" class="node">
<title>c2</title>
<polygon fill="#ffffff" stroke="#7f7f7f" points="438.3172,-223.6017 331.2623,-223.6017 331.2623,-176.7983 438.3172,-176.7983 438.3172,-223.6017"/>
<text text-anchor="middle" x="384.7898" y="-205" font-family="Times,serif" font-size="16.00" fill="#000000">… au principe</text>
<text text-anchor="middle" x="384.7898" y="-185.8" font-family="Times,serif" font-size="16.00" fill="#000000">de notre choix</text>
</g>
<!-- b1&#45;&gt;c2 -->
<g id="edge3" class="edge">
<title>b1&#45;&gt;c2</title>
<path fill="none" stroke="#000000" d="M303.4097,-258.3094C316.3005,-249.1047 330.6328,-238.8708 343.6333,-229.5877"/>
<polygon fill="#000000" stroke="#000000" points="345.8513,-232.3047 351.9557,-223.6452 341.7835,-226.6079 345.8513,-232.3047"/>
</g>
<!-- c1&#45;&gt;c2 -->
<!-- d1 -->
<g id="node5" class="node">
<title>d1</title>
<path fill="#ffffff" stroke="#7f7f7f" d="M111.37,-70C111.37,-70 12.2095,-70 12.2095,-70 6.2095,-70 .2095,-64 .2095,-58 .2095,-58 .2095,-12 .2095,-12 .2095,-6 6.2095,0 12.2095,0 12.2095,0 111.37,0 111.37,0 117.37,0 123.37,-6 123.37,-12 123.37,-12 123.37,-58 123.37,-58 123.37,-64 117.37,-70 111.37,-70"/>
<text text-anchor="start" x="20.4042" y="-47.6" font-family="Times,serif" font-size="16.00" fill="#000000">= morale des</text>
<text text-anchor="start" x="17.2602" y="-31.6" font-family="Times,serif" font-size="16.00" fill="#000000">conséquences</text>
<text text-anchor="start" x="9" y="-11.3" font-family="Times,serif" font-size="13.00" fill="#000000">(conséquentialisme)</text>
</g>
<!-- c1&#45;&gt;d1 -->
<g id="edge5" class="edge">
<title>c1&#45;&gt;d1</title>
<path fill="none" stroke="#000000" d="M84.009,-176.9802C81.3265,-174.5697 78.8867,-171.9173 76.7898,-169 58.6168,-143.7176 55.2786,-108.5342 56.2658,-80.563"/>
<polygon fill="#000000" stroke="#000000" points="59.7794,-80.4087 56.8339,-70.2316 52.79,-80.0242 59.7794,-80.4087"/>
</g>
<!-- e2 -->
<g id="node8" class="node">
<title>e2</title>
<path fill="#fafafa" stroke="transparent" d="M220.2308,-169C220.2308,-169 95.3487,-169 95.3487,-169 89.3487,-169 83.3487,-163 83.3487,-157 83.3487,-157 83.3487,-108 83.3487,-108 83.3487,-102 89.3487,-96 95.3487,-96 95.3487,-96 220.2308,-96 220.2308,-96 226.2308,-96 232.2308,-102 232.2308,-108 232.2308,-108 232.2308,-157 232.2308,-157 232.2308,-163 226.2308,-169 220.2308,-169"/>
<text text-anchor="start" x="107.321" y="-151.6" font-family="Times,serif" font-size="16.00" fill="#cd2626">= réfléchir à ce</text>
<text text-anchor="start" x="104.9258" y="-135.6" font-family="Times,serif" font-size="16.00" fill="#cd2626">qui arrive après</text>
<text text-anchor="start" x="121.5778" y="-119.6" font-family="Times,serif" font-size="16.00" fill="#cd2626">notre choix</text>
<text text-anchor="start" x="91.5696" y="-102.2" font-family="Times,serif" font-size="12.00" fill="#cd2626">(focalisation sur le résultat)</text>
</g>
<!-- c1&#45;&gt;e2 -->
<!-- d2 -->
<g id="node6" class="node">
<title>d2</title>
<path fill="#ffffff" stroke="#7f7f7f" d="M410.8888,-70C410.8888,-70 330.6907,-70 330.6907,-70 324.6907,-70 318.6907,-64 318.6907,-58 318.6907,-58 318.6907,-12 318.6907,-12 318.6907,-6 324.6907,0 330.6907,0 330.6907,0 410.8888,0 410.8888,0 416.8888,0 422.8888,-6 422.8888,-12 422.8888,-12 422.8888,-58 422.8888,-58 422.8888,-64 416.8888,-70 410.8888,-70"/>
<text text-anchor="start" x="329.4042" y="-47.6" font-family="Times,serif" font-size="16.00" fill="#000000">= morale des</text>
<text text-anchor="start" x="341.4666" y="-31.6" font-family="Times,serif" font-size="16.00" fill="#000000">principes</text>
<text text-anchor="start" x="327.7403" y="-11.3" font-family="Times,serif" font-size="13.00" fill="#000000">(déontologisme)</text>
</g>
<!-- c2&#45;&gt;d2 -->
<g id="edge6" class="edge">
<title>c2&#45;&gt;d2</title>
<path fill="none" stroke="#000000" d="M382.8136,-176.8813C380.694,-151.8702 377.2756,-111.5328 374.6245,-80.2496"/>
<polygon fill="#000000" stroke="#000000" points="378.0898,-79.6915 373.7578,-70.0228 371.1148,-80.2827 378.0898,-79.6915"/>
</g>
<!-- e3 -->
<g id="node9" class="node">
<title>e3</title>
<path fill="#fafafa" stroke="transparent" d="M548.3202,-169C548.3202,-169 405.2593,-169 405.2593,-169 399.2593,-169 393.2593,-163 393.2593,-157 393.2593,-157 393.2593,-108 393.2593,-108 393.2593,-102 399.2593,-96 405.2593,-96 405.2593,-96 548.3202,-96 548.3202,-96 554.3202,-96 560.3202,-102 560.3202,-108 560.3202,-108 560.3202,-157 560.3202,-157 560.3202,-163 554.3202,-169 548.3202,-169"/>
<text text-anchor="start" x="426.321" y="-151.6" font-family="Times,serif" font-size="16.00" fill="#cd2626">= réfléchir à ce</text>
<text text-anchor="start" x="408.5802" y="-135.6" font-family="Times,serif" font-size="16.00" fill="#cd2626">qui guide notre choix</text>
<text text-anchor="start" x="401.2746" y="-119.6" font-family="Times,serif" font-size="16.00" fill="#cd2626">avant même de le faire</text>
<text text-anchor="start" x="407.4784" y="-102.2" font-family="Times,serif" font-size="12.00" fill="#cd2626">(focalisation sur l&#39;intention&#39;)</text>
</g>
<!-- c2&#45;&gt;e3 -->
<!-- d1&#45;&gt;d2 -->
</g>
</svg>
