<?xml version="1.0" encoding="UTF-8" standalone="no"?><!DOCTYPE svg PUBLIC "-//W3C//DTD SVG 1.1//EN" "http://www.w3.org/Graphics/SVG/1.1/DTD/svg11.dtd"><!-- Generated by graphviz version 2.40.1 (20161225.0304)
 --><!-- Title: G Pages: 1 --><svg xmlns="http://www.w3.org/2000/svg" xmlns:xlink="http://www.w3.org/1999/xlink" width="509pt" height="489pt" viewBox="0.00 0.00 509.44 489.34">
<g id="graph0" class="graph" transform="scale(1 1) rotate(0) translate(21.6 467.7381)">
<title>G</title>
<polygon fill="#fafafa" stroke="transparent" points="-21.6,21.6 -21.6,-467.7381 487.8442,-467.7381 487.8442,21.6 -21.6,21.6"/>
<!-- a1 -->
<g id="node1" class="node">
<title>a1</title>
<ellipse fill="#000000" stroke="#000000" cx="199.729" cy="-399.469" rx="80.6405" ry="46.8387"/>
<text text-anchor="start" x="155.9971" y="-413.269" font-family="Times,serif" font-size="18.00" fill="#ffffff">Les morales</text>
<text text-anchor="start" x="158.2453" y="-395.269" font-family="Times,serif" font-size="18.00" fill="#ffffff">de la raison</text>
<text text-anchor="start" x="150.5806" y="-377.669" font-family="Times,serif" font-size="12.00" fill="#ffffff">(rationalisme moral)</text>
<text text-anchor="start" x="199.104" y="-371.969" font-family="Times,serif" font-size="5.00" fill="#ffffff"> </text>
</g>
<!-- b1 -->
<g id="node2" class="node">
<title>b1</title>
<path fill="#8b0000" stroke="#000000" d="M300.2722,-318.0013C300.2722,-318.0013 99.1858,-318.0013 99.1858,-318.0013 93.1858,-318.0013 87.1858,-312.0013 87.1858,-306.0013 87.1858,-306.0013 87.1858,-269.1987 87.1858,-269.1987 87.1858,-263.1987 93.1858,-257.1987 99.1858,-257.1987 99.1858,-257.1987 300.2722,-257.1987 300.2722,-257.1987 306.2722,-257.1987 312.2722,-263.1987 312.2722,-269.1987 312.2722,-269.1987 312.2722,-306.0013 312.2722,-306.0013 312.2722,-312.0013 306.2722,-318.0013 300.2722,-318.0013"/>
<text text-anchor="middle" x="199.729" y="-292.4" font-family="Times,serif" font-size="16.00" fill="#ffffff">Pour savoir ce qui est bien et ce</text>
<text text-anchor="middle" x="199.729" y="-273.2" font-family="Times,serif" font-size="16.00" fill="#ffffff">qui est mal, il faut réfléchir …</text>
</g>
<!-- a1&#45;&gt;b1 -->
<g id="edge1" class="edge">
<title>a1-&gt;b1:n</title>
<path fill="none" stroke="#000000" d="M199.729,-352.7115C199.729,-344.5487 199.729,-335.993 199.729,-327.643"/>
<polygon fill="#000000" stroke="#000000" points="203.2291,-327.6 199.729,-317.6 196.2291,-327.6 203.2291,-327.6"/>
</g>
<!-- e1 -->
<g id="node7" class="node">
<title>e1</title>
<text text-anchor="start" x="300.2994" y="-402.569" font-family="Times,serif" font-size="16.00" fill="#cd2626">≠ morales du sentiment</text>
<text text-anchor="start" x="318.2464" y="-385.169" font-family="Times,serif" font-size="12.00" fill="#cd2626">(sentimentalisme moral)</text>
</g>
<!-- a1&#45;&gt;e1 -->
<!-- c1 -->
<g id="node3" class="node">
<title>c1</title>
<polygon fill="none" stroke="#7f7f7f" points="155.8907,-222.6016 7.5673,-222.6016 7.5673,-171.7984 155.8907,-171.7984 155.8907,-222.6016"/>
<text text-anchor="middle" x="81.729" y="-202" font-family="Times,serif" font-size="16.00" fill="#000000">… aux conséquences</text>
<text text-anchor="middle" x="81.729" y="-182.8" font-family="Times,serif" font-size="16.00" fill="#000000">de notre choix</text>
</g>
<!-- b1&#45;&gt;c1 -->
<g id="edge2" class="edge">
<title>b1-&gt;c1</title>
<path fill="none" stroke="#000000" d="M160.1084,-257.2466C148.1405,-248.078 134.9757,-237.9924 122.9086,-228.7477"/>
<polygon fill="#000000" stroke="#000000" points="124.8247,-225.8067 114.7579,-222.5035 120.5677,-231.3634 124.8247,-225.8067"/>
</g>
<!-- c2 -->
<g id="node4" class="node">
<title>c2</title>
<polygon fill="none" stroke="#7f7f7f" points="370.2565,-222.6016 267.2015,-222.6016 267.2015,-171.7984 370.2565,-171.7984 370.2565,-222.6016"/>
<text text-anchor="middle" x="318.729" y="-202" font-family="Times,serif" font-size="16.00" fill="#000000">… au principe</text>
<text text-anchor="middle" x="318.729" y="-182.8" font-family="Times,serif" font-size="16.00" fill="#000000">de notre choix</text>
</g>
<!-- b1&#45;&gt;c2 -->
<g id="edge3" class="edge">
<title>b1-&gt;c2</title>
<path fill="none" stroke="#000000" d="M239.6853,-257.2466C251.7547,-248.078 265.031,-237.9924 277.2004,-228.7477"/>
<polygon fill="#000000" stroke="#000000" points="279.5744,-231.3397 285.4202,-222.5035 275.34,-225.7657 279.5744,-231.3397"/>
</g>
<!-- c1&#45;&gt;c2 -->
<!-- d1 -->
<g id="node5" class="node">
<title>d1</title>
<path fill="none" stroke="#7f7f7f" d="M97.688,-61C97.688,-61 11.77,-61 11.77,-61 5.77,-61 -.23,-55 -.23,-49 -.23,-49 -.23,-12 -.23,-12 -.23,-6 5.77,0 11.77,0 11.77,0 97.688,0 97.688,0 103.688,0 109.688,-6 109.688,-12 109.688,-12 109.688,-49 109.688,-49 109.688,-55 103.688,-61 97.688,-61"/>
<text text-anchor="start" x="13.3434" y="-41.6" font-family="Times,serif" font-size="16.00" fill="#000000">= morale des</text>
<text text-anchor="start" x="10.1994" y="-25.6" font-family="Times,serif" font-size="16.00" fill="#000000">conséquences</text>
<text text-anchor="start" x="6" y="-8.2" font-family="Times,serif" font-size="12.00" fill="#000000">(conséquentialisme)</text>
</g>
<!-- c1&#45;&gt;d1 -->
<g id="edge4" class="edge">
<title>c1-&gt;d1</title>
<path fill="none" stroke="#000000" d="M71.8189,-171.6426C71.0304,-169.0845 70.3142,-166.5067 69.729,-164 62.5667,-133.3226 58.7866,-97.8533 56.8136,-71.1886"/>
<polygon fill="#000000" stroke="#000000" points="60.2955,-70.8043 56.1197,-61.0672 53.3119,-71.2832 60.2955,-70.8043"/>
</g>
<!-- e2 -->
<g id="node8" class="node">
<title>e2</title>
<text text-anchor="start" x="98.2602" y="-144.6" font-family="Times,serif" font-size="16.00" fill="#cd2626">= réfléchir à ce</text>
<text text-anchor="start" x="95.865" y="-128.6" font-family="Times,serif" font-size="16.00" fill="#cd2626">qui arrive après</text>
<text text-anchor="start" x="112.517" y="-112.6" font-family="Times,serif" font-size="16.00" fill="#cd2626">notre choix</text>
<text text-anchor="start" x="82.5088" y="-95.2" font-family="Times,serif" font-size="12.00" fill="#cd2626">(focalisation sur le résultat)</text>
</g>
<!-- c1&#45;&gt;e2 -->
<!-- d2 -->
<g id="node6" class="node">
<title>d2</title>
<path fill="none" stroke="#7f7f7f" d="M316.0005,-61C316.0005,-61 245.4575,-61 245.4575,-61 239.4575,-61 233.4575,-55 233.4575,-49 233.4575,-49 233.4575,-12 233.4575,-12 233.4575,-6 239.4575,0 245.4575,0 245.4575,0 316.0005,0 316.0005,0 322.0005,0 328.0005,-6 328.0005,-12 328.0005,-12 328.0005,-49 328.0005,-49 328.0005,-55 322.0005,-61 316.0005,-61"/>
<text text-anchor="start" x="239.3434" y="-41.6" font-family="Times,serif" font-size="16.00" fill="#000000">= morale des</text>
<text text-anchor="start" x="251.4058" y="-25.6" font-family="Times,serif" font-size="16.00" fill="#000000">principes</text>
<text text-anchor="start" x="240.991" y="-8.2" font-family="Times,serif" font-size="12.00" fill="#000000">(déontologisme)</text>
</g>
<!-- c2&#45;&gt;d2 -->
<g id="edge5" class="edge">
<title>c2-&gt;d2</title>
<path fill="none" stroke="#000000" d="M299.342,-171.787C297.9529,-169.2421 296.7141,-166.6261 295.729,-164 284.5924,-134.3118 281.0539,-98.5052 280.1842,-71.4517"/>
<polygon fill="#000000" stroke="#000000" points="283.6776,-71.0996 279.9673,-61.1757 276.6792,-71.2473 283.6776,-71.0996"/>
</g>
<!-- e3 -->
<g id="node9" class="node">
<title>e3</title>
<text text-anchor="start" x="334.2602" y="-144.6" font-family="Times,serif" font-size="16.00" fill="#cd2626">= réfléchir à ce</text>
<text text-anchor="start" x="316.5194" y="-128.6" font-family="Times,serif" font-size="16.00" fill="#cd2626">qui guide notre choix</text>
<text text-anchor="start" x="309.2138" y="-112.6" font-family="Times,serif" font-size="16.00" fill="#cd2626">avant même de le faire</text>
<text text-anchor="start" x="318.5088" y="-95.2" font-family="Times,serif" font-size="12.00" fill="#cd2626">(focalisation sur le résultat)</text>
</g>
<!-- c2&#45;&gt;e3 -->
</g>
</svg>