<?xml version="1.0" encoding="UTF-8" standalone="no"?>
<!DOCTYPE svg PUBLIC "-//W3C//DTD SVG 1.1//EN"
 "http://www.w3.org/Graphics/SVG/1.1/DTD/svg11.dtd">
<!-- Generated by graphviz version 2.40.1 (20161225.0304)
 -->
<!-- Title: G Pages: 1 -->
<svg width="658pt" height="537pt"
 viewBox="0.00 0.00 658.22 537.38" xmlns="http://www.w3.org/2000/svg" xmlns:xlink="http://www.w3.org/1999/xlink">
<g id="graph0" class="graph" transform="scale(1 1) rotate(0) translate(21.6 515.7801)">
<title>G</title>
<polygon fill="#fafafa" stroke="transparent" points="-21.6,21.6 -21.6,-515.7801 636.6184,-515.7801 636.6184,21.6 -21.6,21.6"/>
<!-- a1 -->
<g id="node1" class="node">
<title>a1</title>
<ellipse fill="#000000" stroke="#000000" cx="320.1808" cy="-457.9763" rx="89.658" ry="36.4089"/>
<text text-anchor="middle" x="320.1808" y="-463.3763" font-family="Times,serif" font-size="18.00" fill="#ffffff">Le feu volé par</text>
<text text-anchor="middle" x="320.1808" y="-441.7763" font-family="Times,serif" font-size="18.00" fill="#ffffff">Prométhée …</text>
</g>
<!-- b1 -->
<g id="node2" class="node">
<title>b1</title>
<ellipse fill="#8b0000" stroke="#000000" cx="320.1808" cy="-340.3862" rx="84.8417" ry="46.2727"/>
<text text-anchor="middle" x="320.1808" y="-354.7862" font-family="Times,serif" font-size="16.00" fill="#ffffff">… représente</text>
<text text-anchor="middle" x="320.1808" y="-335.5862" font-family="Times,serif" font-size="16.00" fill="#ffffff">l&#39;ambiguïté de</text>
<text text-anchor="middle" x="320.1808" y="-316.3862" font-family="Times,serif" font-size="16.00" fill="#ffffff">la technique</text>
</g>
<!-- a1&#45;&gt;b1 -->
<g id="edge1" class="edge">
<title>a1&#45;&gt;b1:n</title>
<path fill="none" stroke="#000000" d="M320.1808,-421.7531C320.1808,-413.7812 320.1808,-405.2122 320.1808,-396.8377"/>
<polygon fill="#000000" stroke="#000000" points="323.6809,-396.7724 320.1808,-386.7724 316.6809,-396.7724 323.6809,-396.7724"/>
</g>
<!-- c1 -->
<g id="node3" class="node">
<title>c1</title>
<polygon fill="#ffffff" stroke="#7f7f7f" points="287.1232,-258.8012 115.2384,-258.8012 115.2384,-193.5988 287.1232,-193.5988 287.1232,-258.8012"/>
<text text-anchor="middle" x="201.1808" y="-240.6" font-family="Times,serif" font-size="16.00" fill="#000000"></text>
<text text-anchor="middle" x="201.1808" y="-221.4" font-family="Times,serif" font-size="16.00" fill="#000000"></text>
<text text-anchor="middle" x="201.1808" y="-202.2" font-family="Times,serif" font-size="16.00" fill="#000000"></text>
</g>
<!-- b1&#45;&gt;c1 -->
<g id="edge2" class="edge">
<title>b1&#45;&gt;c1</title>
<path fill="none" stroke="#000000" d="M277.8908,-299.8069C266.4922,-288.8694 254.1717,-277.0473 242.8095,-266.1448"/>
<polygon fill="#000000" stroke="#000000" points="245.1395,-263.5298 235.5007,-259.1316 240.293,-268.5807 245.1395,-263.5298"/>
</g>
<!-- c2 -->
<g id="node4" class="node">
<title>c2</title>
<polygon fill="#ffffff" stroke="#7f7f7f" points="535.5496,-258.8012 342.812,-258.8012 342.812,-193.5988 535.5496,-193.5988 535.5496,-258.8012"/>
<text text-anchor="middle" x="439.1808" y="-240.6" font-family="Times,serif" font-size="16.00" fill="#000000"></text>
<text text-anchor="middle" x="439.1808" y="-221.4" font-family="Times,serif" font-size="16.00" fill="#000000"></text>
<text text-anchor="middle" x="439.1808" y="-202.2" font-family="Times,serif" font-size="16.00" fill="#000000"></text>
</g>
<!-- b1&#45;&gt;c2 -->
<g id="edge3" class="edge">
<title>b1&#45;&gt;c2</title>
<path fill="none" stroke="#000000" d="M362.4708,-299.8069C373.8694,-288.8694 386.1899,-277.0473 397.5521,-266.1448"/>
<polygon fill="#000000" stroke="#000000" points="400.0686,-268.5807 404.8609,-259.1316 395.2221,-263.5298 400.0686,-268.5807"/>
</g>
<!-- c1&#45;&gt;c2 -->
<!-- d1 -->
<g id="node5" class="node">
<title>d1</title>
<path fill="#ffffff" stroke="#7f7f7f" d="M254.0848,-158.4C254.0848,-158.4 22.2768,-158.4 22.2768,-158.4 16.2768,-158.4 10.2768,-152.4 10.2768,-146.4 10.2768,-146.4 10.2768,-66.4 10.2768,-66.4 10.2768,-60.4 16.2768,-54.4 22.2768,-54.4 22.2768,-54.4 254.0848,-54.4 254.0848,-54.4 260.0848,-54.4 266.0848,-60.4 266.0848,-66.4 266.0848,-66.4 266.0848,-146.4 266.0848,-146.4 266.0848,-152.4 260.0848,-158.4 254.0848,-158.4"/>
<text text-anchor="middle" x="138.1808" y="-140" font-family="Times,serif" font-size="16.00" fill="#000000"></text>
<text text-anchor="middle" x="138.1808" y="-120.8" font-family="Times,serif" font-size="16.00" fill="#000000"></text>
<text text-anchor="middle" x="138.1808" y="-101.6" font-family="Times,serif" font-size="16.00" fill="#000000"></text>
<text text-anchor="middle" x="138.1808" y="-82.4" font-family="Times,serif" font-size="16.00" fill="#000000"></text>
<text text-anchor="middle" x="138.1808" y="-63.2" font-family="Times,serif" font-size="16.00" fill="#000000"></text>
</g>
<!-- c1&#45;&gt;d1 -->
<g id="edge5" class="edge">
<title>c1&#45;&gt;d1</title>
<path fill="none" stroke="#000000" d="M183.9658,-193.4641C179.7032,-185.3585 174.998,-176.411 170.2749,-167.4296"/>
<polygon fill="#000000" stroke="#000000" points="173.3138,-165.6886 165.5616,-158.4669 167.1182,-168.9468 173.3138,-165.6886"/>
</g>
<!-- d2 -->
<g id="node6" class="node">
<title>d2</title>
<path fill="#ffffff" stroke="#7f7f7f" d="M586.2364,-158.4C586.2364,-158.4 334.1252,-158.4 334.1252,-158.4 328.1252,-158.4 322.1252,-152.4 322.1252,-146.4 322.1252,-146.4 322.1252,-66.4 322.1252,-66.4 322.1252,-60.4 328.1252,-54.4 334.1252,-54.4 334.1252,-54.4 586.2364,-54.4 586.2364,-54.4 592.2364,-54.4 598.2364,-60.4 598.2364,-66.4 598.2364,-66.4 598.2364,-146.4 598.2364,-146.4 598.2364,-152.4 592.2364,-158.4 586.2364,-158.4"/>
<text text-anchor="middle" x="460.1808" y="-140" font-family="Times,serif" font-size="16.00" fill="#000000"></text>
<text text-anchor="middle" x="460.1808" y="-120.8" font-family="Times,serif" font-size="16.00" fill="#000000"></text>
<text text-anchor="middle" x="460.1808" y="-101.6" font-family="Times,serif" font-size="16.00" fill="#000000"></text>
<text text-anchor="middle" x="460.1808" y="-82.4" font-family="Times,serif" font-size="16.00" fill="#000000"></text>
<text text-anchor="middle" x="460.1808" y="-63.2" font-family="Times,serif" font-size="16.00" fill="#000000"></text>
</g>
<!-- c2&#45;&gt;d2 -->
<g id="edge6" class="edge">
<title>c2&#45;&gt;d2</title>
<path fill="none" stroke="#000000" d="M444.9191,-193.4641C446.2808,-185.6963 447.778,-177.1552 449.286,-168.5521"/>
<polygon fill="#000000" stroke="#000000" points="452.7746,-168.9211 451.0539,-158.4669 445.8798,-167.7124 452.7746,-168.9211"/>
</g>
<!-- d1&#45;&gt;d2 -->
<!-- e1 -->
<g id="node7" class="node">
<title>e1</title>
<path fill="#fafafa" stroke="transparent" d="M264.5426,-46.6017C264.5426,-46.6017 11.819,-46.6017 11.819,-46.6017 5.819,-46.6017 -.181,-40.6017 -.181,-34.6017 -.181,-34.6017 -.181,-11.7983 -.181,-11.7983 -.181,-5.7983 5.819,.2017 11.819,.2017 11.819,.2017 264.5426,.2017 264.5426,.2017 270.5426,.2017 276.5426,-5.7983 276.5426,-11.7983 276.5426,-11.7983 276.5426,-34.6017 276.5426,-34.6017 276.5426,-40.6017 270.5426,-46.6017 264.5426,-46.6017"/>
<text text-anchor="middle" x="138.1808" y="-28" font-family="Times,serif" font-size="16.00" fill="#cd2626"></text>
<text text-anchor="middle" x="138.1808" y="-8.8" font-family="Times,serif" font-size="16.00" fill="#cd2626"></text>
</g>
<!-- d1&#45;&gt;e1 -->
<!-- e2 -->
<g id="node8" class="node">
<title>e2</title>
<path fill="#fafafa" stroke="transparent" d="M602.8562,-46.6017C602.8562,-46.6017 317.5054,-46.6017 317.5054,-46.6017 311.5054,-46.6017 305.5054,-40.6017 305.5054,-34.6017 305.5054,-34.6017 305.5054,-11.7983 305.5054,-11.7983 305.5054,-5.7983 311.5054,.2017 317.5054,.2017 317.5054,.2017 602.8562,.2017 602.8562,.2017 608.8562,.2017 614.8562,-5.7983 614.8562,-11.7983 614.8562,-11.7983 614.8562,-34.6017 614.8562,-34.6017 614.8562,-40.6017 608.8562,-46.6017 602.8562,-46.6017"/>
<text text-anchor="middle" x="460.1808" y="-28" font-family="Times,serif" font-size="16.00" fill="#cd2626"></text>
<text text-anchor="middle" x="460.1808" y="-8.8" font-family="Times,serif" font-size="16.00" fill="#cd2626"></text>
</g>
<!-- d2&#45;&gt;e2 -->
</g>
</svg>
