<?xml version="1.0" encoding="UTF-8" standalone="no"?>
<!DOCTYPE svg PUBLIC "-//W3C//DTD SVG 1.1//EN"
 "http://www.w3.org/Graphics/SVG/1.1/DTD/svg11.dtd">
<!-- Generated by graphviz version 2.40.1 (20161225.0304)
 -->
<!-- Title: G Pages: 1 -->
<svg width="786pt" height="486pt"
 viewBox="0.00 0.00 786.11 486.37" xmlns="http://www.w3.org/2000/svg" xmlns:xlink="http://www.w3.org/1999/xlink">
<g id="graph0" class="graph" transform="scale(1 1) rotate(0) translate(21.6 464.7743)">
<title>G</title>
<polygon fill="#fafafa" stroke="transparent" points="-21.6,21.6 -21.6,-464.7743 764.5144,-464.7743 764.5144,21.6 -21.6,21.6"/>
<!-- a1 -->
<g id="node1" class="node">
<title>a1</title>
<ellipse fill="#000000" stroke="#000000" cx="361.1904" cy="-391.6969" rx="114.7592" ry="51.4548"/>
<text text-anchor="middle" x="361.1904" y="-407.8969" font-family="Times,serif" font-size="18.00" fill="#ffffff">Quelques objections</text>
<text text-anchor="middle" x="361.1904" y="-386.2969" font-family="Times,serif" font-size="18.00" fill="#ffffff">contre la morale</text>
<text text-anchor="middle" x="361.1904" y="-364.6969" font-family="Times,serif" font-size="18.00" fill="#ffffff">kantienne</text>
</g>
<!-- b1 -->
<g id="node2" class="node">
<title>b1</title>
<ellipse fill="#8b0000" stroke="#000000" cx="153.1904" cy="-272.4098" rx="70.1339" ry="32.6206"/>
<text text-anchor="middle" x="153.1904" y="-277.2098" font-family="Times,serif" font-size="16.00" fill="#ffffff">Une morale</text>
<text text-anchor="middle" x="153.1904" y="-258.0098" font-family="Times,serif" font-size="16.00" fill="#ffffff">trop rigoriste</text>
</g>
<!-- a1&#45;&gt;b1 -->
<g id="edge1" class="edge">
<title>a1&#45;&gt;b1:n</title>
<path fill="none" stroke="#000000" d="M259.3231,-367.8565C213.6214,-354.5034 167.3703,-336.2851 155.891,-315.136"/>
<polygon fill="#000000" stroke="#000000" points="159.1951,-313.9484 153.1904,-305.2195 152.4411,-315.7878 159.1951,-313.9484"/>
</g>
<!-- b2 -->
<g id="node3" class="node">
<title>b2</title>
<ellipse fill="#8b0000" stroke="#000000" cx="361.1904" cy="-272.4098" rx="82.755" ry="32.6206"/>
<text text-anchor="middle" x="361.1904" y="-277.2098" font-family="Times,serif" font-size="16.00" fill="#ffffff">Une conception</text>
<text text-anchor="middle" x="361.1904" y="-258.0098" font-family="Times,serif" font-size="16.00" fill="#ffffff">trop formelle</text>
</g>
<!-- a1&#45;&gt;b2 -->
<g id="edge2" class="edge">
<title>a1&#45;&gt;b2:n</title>
<path fill="none" stroke="#000000" d="M361.1904,-340.0242C361.1904,-331.9665 361.1904,-323.5998 361.1904,-315.4281"/>
<polygon fill="#000000" stroke="#000000" points="364.6905,-315.2195 361.1904,-305.2195 357.6905,-315.2195 364.6905,-315.2195"/>
</g>
<!-- b3 -->
<g id="node4" class="node">
<title>b3</title>
<g id="a_node4"><a xlink:href="https://docs.google.com/document/d/1K-_-mzQFSjUQi7tpYJQwSr4WjTQwio0kK5iGPpox81k/edit?usp=sharing" xlink:title="Un concept de&#10;dignité trop vague">
<ellipse fill="#8b0000" stroke="#000000" cx="594.1904" cy="-272.4098" rx="94.3281" ry="32.6206"/>
<text text-anchor="middle" x="594.1904" y="-277.2098" font-family="Times,serif" font-size="16.00" fill="#ffffff">Un concept de</text>
<text text-anchor="middle" x="594.1904" y="-258.0098" font-family="Times,serif" font-size="16.00" fill="#ffffff">dignité trop vague</text>
</a>
</g>
</g>
<!-- a1&#45;&gt;b3 -->
<g id="edge3" class="edge">
<title>a1&#45;&gt;b3:n</title>
<path fill="none" stroke="#000000" d="M467.1228,-371.7659C521.4602,-358.7739 578.8893,-339.6821 591.603,-315.236"/>
<polygon fill="#000000" stroke="#000000" points="595.078,-315.7771 594.1904,-305.2195 588.3005,-314.0263 595.078,-315.7771"/>
</g>
<!-- b1&#45;&gt;b2 -->
<!-- c1 -->
<g id="node5" class="node">
<title>c1</title>
<polygon fill="#ffffff" stroke="#7f7f7f" points="205.7384,-204.4012 62.6424,-204.4012 62.6424,-139.1988 205.7384,-139.1988 205.7384,-204.4012"/>
<text text-anchor="middle" x="134.1904" y="-186.2" font-family="Times,serif" font-size="16.00" fill="#000000">Agir moralement,</text>
<text text-anchor="middle" x="134.1904" y="-167" font-family="Times,serif" font-size="16.00" fill="#000000">est&#45;ce vraiment agir</text>
<text text-anchor="middle" x="134.1904" y="-147.8" font-family="Times,serif" font-size="16.00" fill="#000000">par pur devoir ?</text>
</g>
<!-- b1&#45;&gt;c1 -->
<g id="edge6" class="edge">
<title>b1&#45;&gt;c1</title>
<path fill="none" stroke="#000000" d="M146.9691,-239.4664C145.461,-231.4808 143.8273,-222.8298 142.248,-214.4672"/>
<polygon fill="#000000" stroke="#000000" points="145.6558,-213.6506 140.3608,-204.4738 138.7774,-214.9496 145.6558,-213.6506"/>
</g>
<!-- b2&#45;&gt;b3 -->
<!-- c2 -->
<g id="node6" class="node">
<title>c2</title>
<polygon fill="#ffffff" stroke="#7f7f7f" points="439.9242,-204.4012 282.4566,-204.4012 282.4566,-139.1988 439.9242,-139.1988 439.9242,-204.4012"/>
<text text-anchor="middle" x="361.1904" y="-186.2" font-family="Times,serif" font-size="16.00" fill="#000000">La morale kantienne</text>
<text text-anchor="middle" x="361.1904" y="-167" font-family="Times,serif" font-size="16.00" fill="#000000">n&#39;est&#45;elle pas trop</text>
<text text-anchor="middle" x="361.1904" y="-147.8" font-family="Times,serif" font-size="16.00" fill="#000000">générale et abstraite ?</text>
</g>
<!-- b2&#45;&gt;c2 -->
<g id="edge7" class="edge">
<title>b2&#45;&gt;c2</title>
<path fill="none" stroke="#000000" d="M361.1904,-239.4664C361.1904,-231.5685 361.1904,-223.0199 361.1904,-214.743"/>
<polygon fill="#000000" stroke="#000000" points="364.6905,-214.4738 361.1904,-204.4738 357.6905,-214.4738 364.6905,-214.4738"/>
</g>
<!-- c3 -->
<g id="node7" class="node">
<title>c3</title>
<g id="a_node7"><a xlink:href="https://docs.google.com/document/d/1K-_-mzQFSjUQi7tpYJQwSr4WjTQwio0kK5iGPpox81k/edit?usp=sharing" xlink:title="Le respect de la dignité ne&#10;peut&#45;il pas être interprété de&#10;manière très différente ?">
<polygon fill="#ffffff" stroke="#7f7f7f" points="722.6936,-204.4012 519.6872,-204.4012 519.6872,-139.1988 722.6936,-139.1988 722.6936,-204.4012"/>
<text text-anchor="middle" x="621.1904" y="-186.2" font-family="Times,serif" font-size="16.00" fill="#000000">Le respect de la dignité ne</text>
<text text-anchor="middle" x="621.1904" y="-167" font-family="Times,serif" font-size="16.00" fill="#000000">peut&#45;il pas être interprété de</text>
<text text-anchor="middle" x="621.1904" y="-147.8" font-family="Times,serif" font-size="16.00" fill="#000000">manière très différente ?</text>
</a>
</g>
</g>
<!-- b3&#45;&gt;c3 -->
<g id="edge8" class="edge">
<title>b3&#45;&gt;c3</title>
<path fill="none" stroke="#000000" d="M603.0312,-239.4664C605.1978,-231.393 607.5469,-222.6396 609.814,-214.1917"/>
<polygon fill="#000000" stroke="#000000" points="613.2103,-215.0393 612.4219,-204.4738 606.4496,-213.2249 613.2103,-215.0393"/>
</g>
<!-- d1 -->
<g id="node8" class="node">
<title>d1</title>
<path fill="#ffffff" stroke="#7f7f7f" d="M190.5716,-104C190.5716,-104 11.8092,-104 11.8092,-104 5.8092,-104 -.1908,-98 -.1908,-92 -.1908,-92 -.1908,-12 -.1908,-12 -.1908,-6 5.8092,0 11.8092,0 11.8092,0 190.5716,0 190.5716,0 196.5716,0 202.5716,-6 202.5716,-12 202.5716,-12 202.5716,-92 202.5716,-92 202.5716,-98 196.5716,-104 190.5716,-104"/>
<text text-anchor="middle" x="101.1904" y="-85.6" font-family="Times,serif" font-size="16.00" fill="#000000">Ne faut&#45;il pas reconnaître</text>
<text text-anchor="middle" x="101.1904" y="-66.4" font-family="Times,serif" font-size="16.00" fill="#000000">l&#39;importance de la sensibilité</text>
<text text-anchor="middle" x="101.1904" y="-47.2" font-family="Times,serif" font-size="16.00" fill="#000000">morale ? Faut&#45;il opposer</text>
<text text-anchor="middle" x="101.1904" y="-28" font-family="Times,serif" font-size="16.00" fill="#000000">le devoir moral et la</text>
<text text-anchor="middle" x="101.1904" y="-8.8" font-family="Times,serif" font-size="16.00" fill="#000000">recherche du bonheur ?</text>
</g>
<!-- c1&#45;&gt;d1 -->
<g id="edge9" class="edge">
<title>c1&#45;&gt;d1</title>
<path fill="none" stroke="#000000" d="M125.173,-139.0641C123.01,-131.2118 120.6294,-122.5694 118.2335,-113.8715"/>
<polygon fill="#000000" stroke="#000000" points="121.5628,-112.7783 115.5327,-104.0669 114.8141,-114.6373 121.5628,-112.7783"/>
</g>
<!-- d2 -->
<g id="node9" class="node">
<title>d2</title>
<path fill="#ffffff" stroke="#7f7f7f" d="M466.3184,-104C466.3184,-104 256.0624,-104 256.0624,-104 250.0624,-104 244.0624,-98 244.0624,-92 244.0624,-92 244.0624,-12 244.0624,-12 244.0624,-6 250.0624,0 256.0624,0 256.0624,0 466.3184,0 466.3184,0 472.3184,0 478.3184,-6 478.3184,-12 478.3184,-12 478.3184,-92 478.3184,-92 478.3184,-98 472.3184,-104 466.3184,-104"/>
<text text-anchor="middle" x="361.1904" y="-85.6" font-family="Times,serif" font-size="16.00" fill="#000000">Dans une situation concrète, face</text>
<text text-anchor="middle" x="361.1904" y="-66.4" font-family="Times,serif" font-size="16.00" fill="#000000">à un dilemme moral particulier,</text>
<text text-anchor="middle" x="361.1904" y="-47.2" font-family="Times,serif" font-size="16.00" fill="#000000">les principes dégagés par Kant</text>
<text text-anchor="middle" x="361.1904" y="-28" font-family="Times,serif" font-size="16.00" fill="#000000">permettent&#45;ils vraiment de</text>
<text text-anchor="middle" x="361.1904" y="-8.8" font-family="Times,serif" font-size="16.00" fill="#000000">savoir ce qu&#39;il faut faire ?</text>
</g>
<!-- c2&#45;&gt;d2 -->
<g id="edge10" class="edge">
<title>c2&#45;&gt;d2</title>
<path fill="none" stroke="#000000" d="M361.1904,-139.0641C361.1904,-131.2963 361.1904,-122.7552 361.1904,-114.1521"/>
<polygon fill="#000000" stroke="#000000" points="364.6905,-114.0669 361.1904,-104.0669 357.6905,-114.0669 364.6905,-114.0669"/>
</g>
<!-- d3 -->
<g id="node10" class="node">
<title>d3</title>
<g id="a_node10"><a xlink:href="https://docs.google.com/document/d/1K-_-mzQFSjUQi7tpYJQwSr4WjTQwio0kK5iGPpox81k/edit?usp=sharing" xlink:title="Y a&#45;t&#45;il des critères pour&#10;déterminer ce qui est réellement&#10;une atteinte à la dignité ?&#10;A&#45;t&#45;on vraiment besoin de&#10;la notion de dignité ?">
<path fill="#ffffff" stroke="#7f7f7f" d="M731.1389,-104C731.1389,-104 531.2419,-104 531.2419,-104 525.2419,-104 519.2419,-98 519.2419,-92 519.2419,-92 519.2419,-12 519.2419,-12 519.2419,-6 525.2419,0 531.2419,0 531.2419,0 731.1389,0 731.1389,0 737.1389,0 743.1389,-6 743.1389,-12 743.1389,-12 743.1389,-92 743.1389,-92 743.1389,-98 737.1389,-104 731.1389,-104"/>
<text text-anchor="middle" x="631.1904" y="-85.6" font-family="Times,serif" font-size="16.00" fill="#000000">Y a&#45;t&#45;il des critères pour</text>
<text text-anchor="middle" x="631.1904" y="-66.4" font-family="Times,serif" font-size="16.00" fill="#000000">déterminer ce qui est réellement</text>
<text text-anchor="middle" x="631.1904" y="-47.2" font-family="Times,serif" font-size="16.00" fill="#000000">une atteinte à la dignité ?</text>
<text text-anchor="middle" x="631.1904" y="-28" font-family="Times,serif" font-size="16.00" fill="#000000">A&#45;t&#45;on vraiment besoin de</text>
<text text-anchor="middle" x="631.1904" y="-8.8" font-family="Times,serif" font-size="16.00" fill="#000000">la notion de dignité ?</text>
</a>
</g>
</g>
<!-- c3&#45;&gt;d3 -->
<g id="edge11" class="edge">
<title>c3&#45;&gt;d3</title>
<path fill="none" stroke="#000000" d="M623.9229,-139.0641C624.5713,-131.2963 625.2843,-122.7552 626.0024,-114.1521"/>
<polygon fill="#000000" stroke="#000000" points="629.5002,-114.3234 626.8442,-104.0669 622.5245,-113.7411 629.5002,-114.3234"/>
</g>
<!-- d1&#45;&gt;d2 -->
<!-- d2&#45;&gt;d3 -->
</g>
</svg>
