<?xml version="1.0" encoding="UTF-8" standalone="no"?><!DOCTYPE svg PUBLIC "-//W3C//DTD SVG 1.1//EN" "http://www.w3.org/Graphics/SVG/1.1/DTD/svg11.dtd"><!-- Generated by graphviz version 2.40.1 (20161225.0304)
 --><!-- Title: G Pages: 1 --><svg xmlns="http://www.w3.org/2000/svg" xmlns:xlink="http://www.w3.org/1999/xlink" width="491pt" height="414pt" viewBox="0.00 0.00 490.62 414.05">
<g id="graph0" class="graph" transform="scale(1 1) rotate(0) translate(21.6 392.4526)">
<title>G</title>
<polygon fill="#fafafa" stroke="transparent" points="-21.6,21.6 -21.6,-392.4526 469.024,-392.4526 469.024,21.6 -21.6,21.6"/>
<!-- a1 -->
<g id="node1" class="node">
<title>a1</title>
<ellipse fill="#000000" stroke="#000000" cx="76.664" cy="-349.9223" rx="73.5378" ry="20.861"/>
<text text-anchor="middle" x="76.664" y="-344.5223" font-family="Times,serif" font-size="18.00" fill="#ffffff">Observation</text>
</g>
<!-- b1 -->
<g id="node3" class="node">
<title>b1</title>
<ellipse fill="#8b0000" stroke="#000000" cx="76.664" cy="-261.1822" rx="70.1135" ry="32.6206"/>
<text text-anchor="middle" x="76.664" y="-265.9822" font-family="Times,serif" font-size="16.00" fill="#ffffff">Faculté :</text>
<text text-anchor="middle" x="76.664" y="-246.7822" font-family="Times,serif" font-size="16.00" fill="#ffffff">la perception</text>
</g>
<!-- a1&#45;&gt;b1 -->
<g id="edge1" class="edge">
<title>a1-&gt;b1:n</title>
<path fill="none" stroke="#000000" d="M76.664,-328.9403C76.664,-321.4787 76.664,-312.8028 76.664,-304.2585"/>
<polygon fill="#000000" stroke="#000000" points="80.164,-303.9919 76.664,-293.9919 73.164,-303.992 80.164,-303.9919"/>
</g>
<!-- a2 -->
<g id="node2" class="node">
<title>a2</title>
<ellipse fill="#000000" stroke="#000000" cx="256.664" cy="-349.9223" rx="84.2656" ry="20.861"/>
<text text-anchor="middle" x="256.664" y="-344.5223" font-family="Times,serif" font-size="18.00" fill="#ffffff">Raisonnement</text>
</g>
<!-- b2 -->
<g id="node4" class="node">
<title>b2</title>
<ellipse fill="#8b0000" stroke="#000000" cx="256.664" cy="-261.1822" rx="51.2333" ry="32.6206"/>
<text text-anchor="middle" x="256.664" y="-265.9822" font-family="Times,serif" font-size="16.00" fill="#ffffff">Faculté :</text>
<text text-anchor="middle" x="256.664" y="-246.7822" font-family="Times,serif" font-size="16.00" fill="#ffffff">la raison</text>
</g>
<!-- a2&#45;&gt;b2 -->
<g id="edge2" class="edge">
<title>a2-&gt;b2:n</title>
<path fill="none" stroke="#000000" d="M256.664,-328.9403C256.664,-321.4787 256.664,-312.8028 256.664,-304.2585"/>
<polygon fill="#000000" stroke="#000000" points="260.164,-303.9919 256.664,-293.9919 253.164,-303.992 260.164,-303.9919"/>
</g>
<!-- c1 -->
<g id="node5" class="node">
<title>c1</title>
<polygon fill="#ffffff" stroke="#7f7f7f" points="142.6304,-193.1736 10.6975,-193.1736 10.6975,-127.9712 142.6304,-127.9712 142.6304,-193.1736"/>
<text text-anchor="middle" x="76.664" y="-174.9724" font-family="Times,serif" font-size="16.00" fill="#000000">Objet : des choses</text>
<text text-anchor="middle" x="76.664" y="-155.7724" font-family="Times,serif" font-size="16.00" fill="#000000">particulières</text>
<text text-anchor="middle" x="76.664" y="-136.5724" font-family="Times,serif" font-size="16.00" fill="#000000">et concrètes</text>
</g>
<!-- b1&#45;&gt;c1 -->
<g id="edge3" class="edge">
<title>b1-&gt;c1</title>
<path fill="none" stroke="#000000" d="M76.664,-228.2388C76.664,-220.3409 76.664,-211.7923 76.664,-203.5154"/>
<polygon fill="#000000" stroke="#000000" points="80.164,-203.2462 76.664,-193.2462 73.164,-203.2462 80.164,-203.2462"/>
</g>
<!-- c2 -->
<g id="node6" class="node">
<title>c2</title>
<polygon fill="#ffffff" stroke="#7f7f7f" points="318.4571,-193.1736 194.8708,-193.1736 194.8708,-127.9712 318.4571,-127.9712 318.4571,-193.1736"/>
<text text-anchor="middle" x="256.664" y="-174.9724" font-family="Times,serif" font-size="16.00" fill="#000000">Objet : des idées</text>
<text text-anchor="middle" x="256.664" y="-155.7724" font-family="Times,serif" font-size="16.00" fill="#000000">générales</text>
<text text-anchor="middle" x="256.664" y="-136.5724" font-family="Times,serif" font-size="16.00" fill="#000000">et abstraites</text>
</g>
<!-- b2&#45;&gt;c2 -->
<g id="edge4" class="edge">
<title>b2-&gt;c2</title>
<path fill="none" stroke="#000000" d="M256.664,-228.2388C256.664,-220.3409 256.664,-211.7923 256.664,-203.5154"/>
<polygon fill="#000000" stroke="#000000" points="260.164,-203.2462 256.664,-193.2462 253.164,-203.2462 260.164,-203.2462"/>
</g>
<!-- bc1 -->
<g id="node7" class="node">
<title>bc1</title>
<ellipse fill="#c7c7c7" stroke="#7f7f7f" cx="76.664" cy="-46.3862" rx="76.8283" ry="46.2727"/>
<text text-anchor="middle" x="76.664" y="-60.7862" font-family="Times,serif" font-size="16.00" fill="#000000">L'observation</text>
<text text-anchor="middle" x="76.664" y="-41.5862" font-family="Times,serif" font-size="16.00" fill="#000000">est toujours</text>
<text text-anchor="middle" x="76.664" y="-22.3862" font-family="Times,serif" font-size="16.00" fill="#000000">approximative</text>
</g>
<!-- c1&#45;&gt;bc1 -->
<g id="edge5" class="edge">
<title>c1-&gt;bc1</title>
<path fill="none" stroke="#000000" d="M76.664,-127.8512C76.664,-120.1675 76.664,-111.7587 76.664,-103.3535"/>
<polygon fill="#000000" stroke="#000000" points="80.164,-103.1518 76.664,-93.1518 73.164,-103.1519 80.164,-103.1518"/>
</g>
<!-- bc2 -->
<g id="node8" class="node">
<title>bc2</title>
<ellipse fill="#c7c7c7" stroke="#7f7f7f" cx="256.664" cy="-46.3862" rx="89.5666" ry="46.2727"/>
<text text-anchor="middle" x="256.664" y="-60.7862" font-family="Times,serif" font-size="16.00" fill="#000000">Le raisonnement</text>
<text text-anchor="middle" x="256.664" y="-41.5862" font-family="Times,serif" font-size="16.00" fill="#000000">semble pouvoir</text>
<text text-anchor="middle" x="256.664" y="-22.3862" font-family="Times,serif" font-size="16.00" fill="#000000">viser l'exactitude</text>
</g>
<!-- c2&#45;&gt;bc2 -->
<g id="edge6" class="edge">
<title>c2-&gt;bc2</title>
<path fill="none" stroke="#000000" d="M256.664,-127.8512C256.664,-120.1675 256.664,-111.7587 256.664,-103.3535"/>
<polygon fill="#000000" stroke="#000000" points="260.164,-103.1518 256.664,-93.1518 253.164,-103.1519 260.164,-103.1518"/>
</g>
<!-- e1 -->
<g id="node9" class="node">
<title>e1</title>
<path fill="#fafafa" stroke="transparent" d="M435.1853,-78.9874C435.1853,-78.9874 372.1426,-78.9874 372.1426,-78.9874 366.1426,-78.9874 360.1426,-72.9874 360.1426,-66.9874 360.1426,-66.9874 360.1426,-25.785 360.1426,-25.785 360.1426,-19.785 366.1426,-13.785 372.1426,-13.785 372.1426,-13.785 435.1853,-13.785 435.1853,-13.785 441.1853,-13.785 447.1853,-19.785 447.1853,-25.785 447.1853,-25.785 447.1853,-66.9874 447.1853,-66.9874 447.1853,-72.9874 441.1853,-78.9874 435.1853,-78.9874"/>
<text text-anchor="middle" x="403.664" y="-60.7862" font-family="Times,serif" font-size="16.00" fill="#cd2626">mais est-ce</text>
<text text-anchor="middle" x="403.664" y="-41.5862" font-family="Times,serif" font-size="16.00" fill="#cd2626">toujours</text>
<text text-anchor="middle" x="403.664" y="-22.3862" font-family="Times,serif" font-size="16.00" fill="#cd2626">le cas ?</text>
</g>
<!-- bc2&#45;&gt;e1 -->
</g>
</svg>