<?xml version="1.0" encoding="UTF-8" standalone="no"?><!DOCTYPE svg PUBLIC "-//W3C//DTD SVG 1.1//EN" "http://www.w3.org/Graphics/SVG/1.1/DTD/svg11.dtd"><!-- Generated by graphviz version 2.40.1 (20161225.0304)
 --><!-- Title: G Pages: 1 --><svg xmlns="http://www.w3.org/2000/svg" xmlns:xlink="http://www.w3.org/1999/xlink" width="696pt" height="456pt" viewBox="0.00 0.00 695.59 455.83">
<g id="graph0" class="graph" transform="scale(1 1) rotate(0) translate(21.6 434.2272)">
<title>G</title>
<polygon fill="#fafafa" stroke="transparent" points="-21.6,21.6 -21.6,-434.2272 673.9864,-434.2272 673.9864,21.6 -21.6,21.6"/>
<!-- a1 -->
<g id="node1" class="node">
<title>a1</title>
<ellipse fill="#000000" stroke="#000000" cx="353.4048" cy="-376.4234" rx="68.4284" ry="36.4089"/>
<text text-anchor="middle" x="353.4048" y="-381.8234" font-family="Times,serif" font-size="18.00" fill="#ffffff">La panique</text>
<text text-anchor="middle" x="353.4048" y="-360.2234" font-family="Times,serif" font-size="18.00" fill="#ffffff">morale</text>
</g>
<!-- b1 -->
<g id="node2" class="node">
<title>b1</title>
<ellipse fill="#8b0000" stroke="#000000" cx="353.4048" cy="-272.4098" rx="76.5368" ry="32.6206"/>
<text text-anchor="middle" x="353.4048" y="-277.2098" font-family="Times,serif" font-size="16.00" fill="#ffffff">= un jugement</text>
<text text-anchor="middle" x="353.4048" y="-258.0098" font-family="Times,serif" font-size="16.00" fill="#ffffff">moral …</text>
</g>
<!-- a1&#45;&gt;b1 -->
<g id="edge1" class="edge">
<title>a1-&gt;b1:n</title>
<path fill="none" stroke="#000000" d="M353.4048,-340.2002C353.4048,-332.2283 353.4048,-323.6593 353.4048,-315.2848"/>
<polygon fill="#000000" stroke="#000000" points="356.9049,-315.2195 353.4048,-305.2195 349.9049,-315.2195 356.9049,-315.2195"/>
</g>
<!-- c1 -->
<g id="node3" class="node">
<title>c1</title>
<polygon fill="#ffffff" stroke="#7f7f7f" points="260.1931,-204.5002 104.6165,-204.5002 104.6165,-119.8998 260.1931,-119.8998 260.1931,-204.5002"/>
<text text-anchor="middle" x="182.4048" y="-186.2" font-family="Times,serif" font-size="16.00" fill="#000000">… fondé sur une</text>
<text text-anchor="middle" x="182.4048" y="-167" font-family="Times,serif" font-size="16.00" fill="#000000">conception injustifiée</text>
<text text-anchor="middle" x="182.4048" y="-147.8" font-family="Times,serif" font-size="16.00" fill="#000000">ou disproportionnée</text>
<text text-anchor="middle" x="182.4048" y="-128.6" font-family="Times,serif" font-size="16.00" fill="#000000">des risques</text>
</g>
<!-- b1&#45;&gt;c1 -->
<g id="edge2" class="edge">
<title>b1-&gt;c1</title>
<path fill="none" stroke="#000000" d="M310.6954,-244.8835C294.3104,-234.3233 275.1005,-221.9425 256.6081,-210.0242"/>
<polygon fill="#000000" stroke="#000000" points="258.4765,-207.0644 248.1749,-204.5889 254.6843,-212.9482 258.4765,-207.0644"/>
</g>
<!-- c2 -->
<g id="node4" class="node">
<title>c2</title>
<polygon fill="#ffffff" stroke="#7f7f7f" points="419.3728,-204.5002 287.4368,-204.5002 287.4368,-119.8998 419.3728,-119.8998 419.3728,-204.5002"/>
<text text-anchor="middle" x="353.4048" y="-186.2" font-family="Times,serif" font-size="16.00" fill="#000000">… insensible</text>
<text text-anchor="middle" x="353.4048" y="-167" font-family="Times,serif" font-size="16.00" fill="#000000">aux objections</text>
<text text-anchor="middle" x="353.4048" y="-147.8" font-family="Times,serif" font-size="16.00" fill="#000000">rationnelles qu'on</text>
<text text-anchor="middle" x="353.4048" y="-128.6" font-family="Times,serif" font-size="16.00" fill="#000000">peut lui faire</text>
</g>
<!-- b1&#45;&gt;c2 -->
<g id="edge3" class="edge">
<title>b1-&gt;c2</title>
<path fill="none" stroke="#000000" d="M353.4048,-239.3432C353.4048,-231.59 353.4048,-223.14 353.4048,-214.7682"/>
<polygon fill="#000000" stroke="#000000" points="356.9049,-214.6474 353.4048,-204.6474 349.9049,-214.6474 356.9049,-214.6474"/>
</g>
<!-- c3 -->
<g id="node5" class="node">
<title>c3</title>
<polygon fill="#ffffff" stroke="#7f7f7f" points="589.9224,-204.5002 446.8872,-204.5002 446.8872,-119.8998 589.9224,-119.8998 589.9224,-204.5002"/>
<text text-anchor="middle" x="518.4048" y="-186.2" font-family="Times,serif" font-size="16.00" fill="#000000">… incohérent au</text>
<text text-anchor="middle" x="518.4048" y="-167" font-family="Times,serif" font-size="16.00" fill="#000000">regard de principes</text>
<text text-anchor="middle" x="518.4048" y="-147.8" font-family="Times,serif" font-size="16.00" fill="#000000">élémentaires du</text>
<text text-anchor="middle" x="518.4048" y="-128.6" font-family="Times,serif" font-size="16.00" fill="#000000">raisonnement moral</text>
</g>
<!-- b1&#45;&gt;c3 -->
<g id="edge4" class="edge">
<title>b1-&gt;c3</title>
<path fill="none" stroke="#000000" d="M395.0413,-244.5992C410.6295,-234.1872 428.8217,-222.036 446.3716,-210.3137"/>
<polygon fill="#000000" stroke="#000000" points="448.5496,-213.0679 454.9212,-204.6031 444.6616,-207.247 448.5496,-213.0679"/>
</g>
<!-- c1&#45;&gt;c2 -->
<!-- d1 -->
<g id="node6" class="node">
<title>d1</title>
<path fill="#ffffff" stroke="#7f7f7f" d="M256.7145,-84.7002C256.7145,-84.7002 12.0951,-84.7002 12.0951,-84.7002 6.0951,-84.7002 .0951,-78.7002 .0951,-72.7002 .0951,-72.7002 .0951,-12.0998 .0951,-12.0998 .0951,-6.0998 6.0951,-.0998 12.0951,-.0998 12.0951,-.0998 256.7145,-.0998 256.7145,-.0998 262.7145,-.0998 268.7145,-6.0998 268.7145,-12.0998 268.7145,-12.0998 268.7145,-72.7002 268.7145,-72.7002 268.7145,-78.7002 262.7145,-84.7002 256.7145,-84.7002"/>
<text text-anchor="middle" x="134.4048" y="-66.4" font-family="Times,serif" font-size="16.00" fill="#000000">Exemples : sophisme de la pente fatale,</text>
<text text-anchor="middle" x="134.4048" y="-47.2" font-family="Times,serif" font-size="16.00" fill="#000000">exagération du danger associé à ce qui</text>
<text text-anchor="middle" x="134.4048" y="-28" font-family="Times,serif" font-size="16.00" fill="#000000">n'est pas naturel, peur irrationnelle</text>
<text text-anchor="middle" x="134.4048" y="-8.8" font-family="Times,serif" font-size="16.00" fill="#000000">face à ce qui est moins connu, …</text>
</g>
<!-- c1&#45;&gt;d1 -->
<g id="edge5" class="edge">
<title>c1-&gt;d1</title>
<path fill="none" stroke="#000000" d="M165.3466,-119.6257C162.0575,-111.4165 158.578,-102.7323 155.1859,-94.2662"/>
<polygon fill="#000000" stroke="#000000" points="158.3763,-92.8181 151.408,-84.8372 151.8784,-95.4216 158.3763,-92.8181"/>
</g>
<!-- c2&#45;&gt;c3 -->
<!-- d3 -->
<g id="node7" class="node">
<title>d3</title>
<path fill="#ffffff" stroke="#7f7f7f" d="M454.5441,-84.7002C454.5441,-84.7002 322.2655,-84.7002 322.2655,-84.7002 316.2655,-84.7002 310.2655,-78.7002 310.2655,-72.7002 310.2655,-72.7002 310.2655,-12.0998 310.2655,-12.0998 310.2655,-6.0998 316.2655,-.0998 322.2655,-.0998 322.2655,-.0998 454.5441,-.0998 454.5441,-.0998 460.5441,-.0998 466.5441,-6.0998 466.5441,-12.0998 466.5441,-12.0998 466.5441,-72.7002 466.5441,-72.7002 466.5441,-78.7002 460.5441,-84.7002 454.5441,-84.7002"/>
<text text-anchor="middle" x="388.4048" y="-66.4" font-family="Times,serif" font-size="16.00" fill="#000000">Le jugement ne tient</text>
<text text-anchor="middle" x="388.4048" y="-47.2" font-family="Times,serif" font-size="16.00" fill="#000000">pas compte du</text>
<text text-anchor="middle" x="388.4048" y="-28" font-family="Times,serif" font-size="16.00" fill="#000000">point de vue des</text>
<text text-anchor="middle" x="388.4048" y="-8.8" font-family="Times,serif" font-size="16.00" fill="#000000">personnes concernées</text>
</g>
<!-- c2&#45;&gt;d3 -->
<!-- c3&#45;&gt;d3 -->
<g id="edge7" class="edge">
<title>c3-&gt;d3</title>
<path fill="none" stroke="#000000" d="M472.2056,-119.6257C462.4354,-110.6221 452.0452,-101.0471 442.0271,-91.815"/>
<polygon fill="#000000" stroke="#000000" points="444.1808,-89.0401 434.4552,-84.8372 439.437,-94.1877 444.1808,-89.0401"/>
</g>
<!-- d4 -->
<g id="node8" class="node">
<title>d4</title>
<path fill="#ffffff" stroke="#7f7f7f" d="M640.368,-84.7002C640.368,-84.7002 492.4416,-84.7002 492.4416,-84.7002 486.4416,-84.7002 480.4416,-78.7002 480.4416,-72.7002 480.4416,-72.7002 480.4416,-12.0998 480.4416,-12.0998 480.4416,-6.0998 486.4416,-.0998 492.4416,-.0998 492.4416,-.0998 640.368,-.0998 640.368,-.0998 646.368,-.0998 652.368,-6.0998 652.368,-12.0998 652.368,-12.0998 652.368,-72.7002 652.368,-72.7002 652.368,-78.7002 646.368,-84.7002 640.368,-84.7002"/>
<text text-anchor="middle" x="566.4048" y="-66.4" font-family="Times,serif" font-size="16.00" fill="#000000">Le jugement n'est pas</text>
<text text-anchor="middle" x="566.4048" y="-47.2" font-family="Times,serif" font-size="16.00" fill="#000000">cohérent avec les droits</text>
<text text-anchor="middle" x="566.4048" y="-28" font-family="Times,serif" font-size="16.00" fill="#000000">et valeurs que l'individu</text>
<text text-anchor="middle" x="566.4048" y="-8.8" font-family="Times,serif" font-size="16.00" fill="#000000">reconnaît par ailleurs</text>
</g>
<!-- c3&#45;&gt;d4 -->
<g id="edge8" class="edge">
<title>c3-&gt;d4</title>
<path fill="none" stroke="#000000" d="M535.463,-119.6257C538.7521,-111.4165 542.2316,-102.7323 545.6237,-94.2662"/>
<polygon fill="#000000" stroke="#000000" points="548.9312,-95.4216 549.4016,-84.8372 542.4333,-92.8181 548.9312,-95.4216"/>
</g>
<!-- d1&#45;&gt;d3 -->
</g>
</svg>