<?xml version="1.0" encoding="UTF-8" standalone="no"?>
<!DOCTYPE svg PUBLIC "-//W3C//DTD SVG 1.1//EN"
 "http://www.w3.org/Graphics/SVG/1.1/DTD/svg11.dtd">
<!-- Generated by graphviz version 2.40.1 (20161225.0304)
 -->
<!-- Title: G Pages: 1 -->
<svg width="608pt" height="513pt"
 viewBox="0.00 0.00 608.19 513.33" xmlns="http://www.w3.org/2000/svg" xmlns:xlink="http://www.w3.org/1999/xlink">
<g id="graph0" class="graph" transform="scale(1 1) rotate(0) translate(21.6 491.733)">
<title>G</title>
<polygon fill="#fafafa" stroke="transparent" points="-21.6,21.6 -21.6,-491.733 586.5934,-491.733 586.5934,21.6 -21.6,21.6"/>
<!-- a1 -->
<g id="node1" class="node">
<title>a1</title>
<ellipse fill="#000000" stroke="#000000" cx="130.5032" cy="-433.9292" rx="93.1118" ry="36.4089"/>
<text text-anchor="middle" x="130.5032" y="-439.3292" font-family="Times,serif" font-size="18.00" fill="#ffffff">L&#39;éthique du</text>
<text text-anchor="middle" x="130.5032" y="-417.7292" font-family="Times,serif" font-size="18.00" fill="#ffffff">perfectionnisme</text>
</g>
<!-- b1 -->
<g id="node2" class="node">
<title>b1</title>
<ellipse fill="#8b0000" stroke="#000000" cx="130.5032" cy="-302.7627" rx="100.6694" ry="59.9253"/>
<text text-anchor="middle" x="130.5032" y="-326.7627" font-family="Times,serif" font-size="16.00" fill="#ffffff">La vie bonne est</text>
<text text-anchor="middle" x="130.5032" y="-307.5627" font-family="Times,serif" font-size="16.00" fill="#ffffff">une vie accomplie :</text>
<text text-anchor="middle" x="130.5032" y="-288.3627" font-family="Times,serif" font-size="16.00" fill="#ffffff">il s&#39;agit de chercher</text>
<text text-anchor="middle" x="130.5032" y="-269.1627" font-family="Times,serif" font-size="16.00" fill="#ffffff">à se perfectionner</text>
</g>
<!-- a1&#45;&gt;b1 -->
<g id="edge1" class="edge">
<title>a1&#45;&gt;b1:n</title>
<path fill="none" stroke="#000000" d="M130.5032,-397.706C130.5032,-389.7341 130.5032,-381.1651 130.5032,-372.7906"/>
<polygon fill="#000000" stroke="#000000" points="134.0033,-372.7253 130.5032,-362.7253 127.0033,-372.7253 134.0033,-372.7253"/>
</g>
<!-- c1 -->
<g id="node3" class="node">
<title>c1</title>
<polygon fill="#ffffff" stroke="#7f7f7f" points="212.412,-207.7002 48.5944,-207.7002 48.5944,-123.0998 212.412,-123.0998 212.412,-207.7002"/>
<text text-anchor="middle" x="130.5032" y="-189.4" font-family="Times,serif" font-size="16.00" fill="#000000">La vie accomplie</text>
<text text-anchor="middle" x="130.5032" y="-170.2" font-family="Times,serif" font-size="16.00" fill="#000000">repose sur l&#39;exercice et</text>
<text text-anchor="middle" x="130.5032" y="-151" font-family="Times,serif" font-size="16.00" fill="#000000">le développement de</text>
<text text-anchor="middle" x="130.5032" y="-131.8" font-family="Times,serif" font-size="16.00" fill="#000000">ses facultés</text>
</g>
<!-- b1&#45;&gt;c1 -->
<g id="edge2" class="edge">
<title>b1&#45;&gt;c1</title>
<path fill="none" stroke="#000000" d="M130.5032,-242.5134C130.5032,-234.3024 130.5032,-225.9282 130.5032,-217.8698"/>
<polygon fill="#000000" stroke="#000000" points="134.0033,-217.8674 130.5032,-207.8675 127.0033,-217.8675 134.0033,-217.8674"/>
</g>
<!-- r1 -->
<g id="node5" class="node">
<title>r1</title>
<polygon fill="#fafafa" stroke="#0000ff" points="452.8051,-346.2627 286.2013,-346.2627 286.2013,-259.2627 452.8051,-259.2627 452.8051,-346.2627"/>
<text text-anchor="start" x="291.3524" y="-330.5627" font-family="Times,serif" font-size="13.00" fill="#000000">Le perfectionnisme moderne :</text>
<text text-anchor="start" x="297.0322" y="-318.4627" font-family="Times,serif" font-size="12.00" fill="#000000">un idéal de développement de</text>
<text text-anchor="start" x="295.2142" y="-306.4627" font-family="Times,serif" font-size="12.00" fill="#000000">son individualité </text>
<text text-anchor="start" x="379.3702" y="-306.4627" font-family="Times,serif" font-size="10.00" fill="#000000">(il n&#39;y a pas une</text>
<text text-anchor="start" x="300.2297" y="-296.2627" font-family="Times,serif" font-size="10.00" fill="#000000">seule forme possible d&#39;excellence)</text>
<text text-anchor="start" x="292.7954" y="-278.5627" font-family="Times,serif" font-size="13.00" fill="#000000">≠ le perfectionnisme ancien :</text>
<text text-anchor="start" x="294.6232" y="-266.4627" font-family="Times,serif" font-size="12.00" fill="#000000">un idéal universel d&#39;excellence</text>
</g>
<!-- b1&#45;&gt;r1 -->
<g id="edge4" class="edge">
<title>b1&#45;&gt;r1</title>
<path fill="none" stroke="#0000ff" stroke-dasharray="5,2" d="M231.7981,-302.7627C249.9078,-302.7627 268.0174,-302.7627 286.1271,-302.7627"/>
</g>
<!-- d1 -->
<g id="node4" class="node">
<title>d1</title>
<path fill="#ffffff" stroke="#7f7f7f" d="M249.0096,-86.3002C249.0096,-86.3002 11.9968,-86.3002 11.9968,-86.3002 5.9968,-86.3002 -.0032,-80.3002 -.0032,-74.3002 -.0032,-74.3002 -.0032,-13.6998 -.0032,-13.6998 -.0032,-7.6998 5.9968,-1.6998 11.9968,-1.6998 11.9968,-1.6998 249.0096,-1.6998 249.0096,-1.6998 255.0096,-1.6998 261.0096,-7.6998 261.0096,-13.6998 261.0096,-13.6998 261.0096,-74.3002 261.0096,-74.3002 261.0096,-80.3002 255.0096,-86.3002 249.0096,-86.3002"/>
<text text-anchor="middle" x="130.5032" y="-68" font-family="Times,serif" font-size="16.00" fill="#000000">L&#39;exercice et le développement</text>
<text text-anchor="middle" x="130.5032" y="-48.8" font-family="Times,serif" font-size="16.00" fill="#000000">de ses facultés nous expose davantage</text>
<text text-anchor="middle" x="130.5032" y="-29.6" font-family="Times,serif" font-size="16.00" fill="#000000">à la souffrance, mais permet aussi de</text>
<text text-anchor="middle" x="130.5032" y="-10.4" font-family="Times,serif" font-size="16.00" fill="#000000">parvenir à des plaisirs supérieurs</text>
</g>
<!-- c1&#45;&gt;d1 -->
<g id="edge3" class="edge">
<title>c1&#45;&gt;d1</title>
<path fill="none" stroke="#000000" d="M130.5032,-122.9402C130.5032,-114.4873 130.5032,-105.5141 130.5032,-96.7647"/>
<polygon fill="#000000" stroke="#000000" points="134.0033,-96.641 130.5032,-86.6411 127.0033,-96.6411 134.0033,-96.641"/>
</g>
<!-- r2 -->
<g id="node6" class="node">
<title>r2</title>
<polygon fill="#fafafa" stroke="#0000ff" points="443.0238,-193.7004 267.9826,-193.7004 267.9826,-137.0996 443.0238,-137.0996 443.0238,-193.7004"/>
<text text-anchor="middle" x="355.5032" y="-177.1" font-family="Times,serif" font-size="13.00" fill="#000000">L&#39;usage du corps, les émotions,</text>
<text text-anchor="middle" x="355.5032" y="-161.5" font-family="Times,serif" font-size="13.00" fill="#000000">l&#39;imagination, l&#39;intelligence,</text>
<text text-anchor="middle" x="355.5032" y="-145.9" font-family="Times,serif" font-size="13.00" fill="#000000">la communication sociale …</text>
</g>
<!-- c1&#45;&gt;r2 -->
<g id="edge5" class="edge">
<title>c1&#45;&gt;r2</title>
<path fill="none" stroke="#0000ff" stroke-dasharray="5,2" d="M212.6809,-165.4C231.0916,-165.4 249.5023,-165.4 267.913,-165.4"/>
</g>
<!-- r3 -->
<g id="node7" class="node">
<title>r3</title>
<polygon fill="#fafafa" stroke="#0000ff" points="564.9835,-88 316.0229,-88 316.0229,0 564.9835,0 564.9835,-88"/>
<text text-anchor="middle" x="440.5032" y="-71.3" font-family="Times,serif" font-size="13.00" fill="#000000">Ce qui est important, c&#39;est de vivre une vie</text>
<text text-anchor="middle" x="440.5032" y="-55.7" font-family="Times,serif" font-size="13.00" fill="#000000">pleine de sens, riche et profonde (≠ une vie</text>
<text text-anchor="middle" x="440.5032" y="-40.1" font-family="Times,serif" font-size="13.00" fill="#000000">simplement pleine de satisfactions) et c&#39;est la</text>
<text text-anchor="middle" x="440.5032" y="-24.5" font-family="Times,serif" font-size="13.00" fill="#000000">qualité des plaisirs (≠ la quantité : le bonheur</text>
<text text-anchor="middle" x="440.5032" y="-8.9" font-family="Times,serif" font-size="13.00" fill="#000000">ne se réduit pas à une somme de plaisirs)</text>
</g>
<!-- d1&#45;&gt;r3 -->
<g id="edge6" class="edge">
<title>d1&#45;&gt;r3</title>
<path fill="none" stroke="#0000ff" stroke-dasharray="5,2" d="M261.2845,-44C279.4864,-44 297.6883,-44 315.8902,-44"/>
</g>
</g>
</svg>
