<?xml version="1.0" encoding="UTF-8" standalone="no"?><!DOCTYPE svg PUBLIC "-//W3C//DTD SVG 1.1//EN" "http://www.w3.org/Graphics/SVG/1.1/DTD/svg11.dtd"><!-- Generated by graphviz version 2.40.1 (20161225.0304)
 --><!-- Title: G Pages: 1 --><svg xmlns="http://www.w3.org/2000/svg" xmlns:xlink="http://www.w3.org/1999/xlink" width="529pt" height="541pt" viewBox="0.00 0.00 529.30 541.33">
<g id="graph0" class="graph" transform="scale(1 1) rotate(0) translate(21.6 519.733)">
<title>G</title>
<polygon fill="#fafafa" stroke="transparent" points="-21.6,21.6 -21.6,-519.733 507.6983,-519.733 507.6983,21.6 -21.6,21.6"/>
<!-- a1 -->
<g id="node1" class="node">
<title>a1</title>
<ellipse fill="#000000" stroke="#000000" cx="130.5032" cy="-461.9292" rx="93.1118" ry="36.4089"/>
<text text-anchor="middle" x="130.5032" y="-467.3292" font-family="Times,serif" font-size="18.00" fill="#ffffff">L'éthique du</text>
<text text-anchor="middle" x="130.5032" y="-445.7292" font-family="Times,serif" font-size="18.00" fill="#ffffff">perfectionnisme</text>
</g>
<!-- b1 -->
<g id="node2" class="node">
<title>b1</title>
<ellipse fill="#8b0000" stroke="#000000" cx="130.5032" cy="-330.7627" rx="100.6694" ry="59.9253"/>
<text text-anchor="middle" x="130.5032" y="-354.7627" font-family="Times,serif" font-size="16.00" fill="#ffffff">La vie bonne est</text>
<text text-anchor="middle" x="130.5032" y="-335.5627" font-family="Times,serif" font-size="16.00" fill="#ffffff">une vie accomplie :</text>
<text text-anchor="middle" x="130.5032" y="-316.3627" font-family="Times,serif" font-size="16.00" fill="#ffffff">il s'agit de chercher</text>
<text text-anchor="middle" x="130.5032" y="-297.1627" font-family="Times,serif" font-size="16.00" fill="#ffffff">à se perfectionner</text>
</g>
<!-- a1&#45;&gt;b1 -->
<g id="edge1" class="edge">
<title>a1-&gt;b1:n</title>
<path fill="none" stroke="#000000" d="M130.5032,-425.706C130.5032,-417.7341 130.5032,-409.1651 130.5032,-400.7906"/>
<polygon fill="#000000" stroke="#000000" points="134.0033,-400.7253 130.5032,-390.7253 127.0033,-400.7253 134.0033,-400.7253"/>
</g>
<!-- c1 -->
<g id="node3" class="node">
<title>c1</title>
<polygon fill="#ffffff" stroke="#7f7f7f" points="212.412,-235.7002 48.5944,-235.7002 48.5944,-151.0998 212.412,-151.0998 212.412,-235.7002"/>
<text text-anchor="middle" x="130.5032" y="-217.4" font-family="Times,serif" font-size="16.00" fill="#000000">La vie accomplie</text>
<text text-anchor="middle" x="130.5032" y="-198.2" font-family="Times,serif" font-size="16.00" fill="#000000">repose sur l'exercice et</text>
<text text-anchor="middle" x="130.5032" y="-179" font-family="Times,serif" font-size="16.00" fill="#000000">le développement de</text>
<text text-anchor="middle" x="130.5032" y="-159.8" font-family="Times,serif" font-size="16.00" fill="#000000">ses facultés</text>
</g>
<!-- b1&#45;&gt;c1 -->
<g id="edge2" class="edge">
<title>b1-&gt;c1</title>
<path fill="none" stroke="#000000" d="M130.5032,-270.5134C130.5032,-262.3024 130.5032,-253.9282 130.5032,-245.8698"/>
<polygon fill="#000000" stroke="#000000" points="134.0033,-245.8674 130.5032,-235.8675 127.0033,-245.8675 134.0033,-245.8674"/>
</g>
<!-- r1 -->
<g id="node5" class="node">
<title>r1</title>
<polygon fill="#fafafa" stroke="#0000ff" points="461.9758,-373.7627 287.0306,-373.7627 287.0306,-287.7627 461.9758,-287.7627 461.9758,-373.7627"/>
<text text-anchor="start" x="302.1309" y="-358.0627" font-family="Times,serif" font-size="13.00" fill="#000000">Le perfectionnisme ancien :</text>
<text text-anchor="start" x="305.8632" y="-346.8627" font-family="Times,serif" font-size="11.00" fill="#000000">un idéal universel d'excellence</text>
<text text-anchor="start" x="292.0169" y="-327.0627" font-family="Times,serif" font-size="13.00" fill="#000000">≠ le perfectionnisme moderne :</text>
<text text-anchor="start" x="308.0715" y="-315.8627" font-family="Times,serif" font-size="11.00" fill="#000000">un idéal de développement de</text>
<text text-anchor="start" x="305.0957" y="-304.8627" font-family="Times,serif" font-size="11.00" fill="#000000">son individualité</text>
<text text-anchor="start" x="379.4887" y="-304.8627" font-family="Times,serif" font-size="10.00" fill="#000000">(il n'y a pas une</text>
<text text-anchor="start" x="305.2297" y="-294.7627" font-family="Times,serif" font-size="10.00" fill="#000000">seule forme possible d'excellence)</text>
</g>
<!-- b1&#45;&gt;r1 -->
<g id="edge4" class="edge">
<title>b1-&gt;r1</title>
<path fill="none" stroke="#0000ff" stroke-dasharray="5,2" d="M231.5344,-330.7627C249.964,-330.7627 268.3936,-330.7627 286.8231,-330.7627"/>
</g>
<!-- d1 -->
<g id="node4" class="node">
<title>d1</title>
<path fill="#ffffff" stroke="#7f7f7f" d="M249.0096,-100.3002C249.0096,-100.3002 11.9968,-100.3002 11.9968,-100.3002 5.9968,-100.3002 -.0032,-94.3002 -.0032,-88.3002 -.0032,-88.3002 -.0032,-27.6998 -.0032,-27.6998 -.0032,-21.6998 5.9968,-15.6998 11.9968,-15.6998 11.9968,-15.6998 249.0096,-15.6998 249.0096,-15.6998 255.0096,-15.6998 261.0096,-21.6998 261.0096,-27.6998 261.0096,-27.6998 261.0096,-88.3002 261.0096,-88.3002 261.0096,-94.3002 255.0096,-100.3002 249.0096,-100.3002"/>
<text text-anchor="middle" x="130.5032" y="-82" font-family="Times,serif" font-size="16.00" fill="#000000">L'exercice et le développement</text>
<text text-anchor="middle" x="130.5032" y="-62.8" font-family="Times,serif" font-size="16.00" fill="#000000">de ses facultés nous expose davantage</text>
<text text-anchor="middle" x="130.5032" y="-43.6" font-family="Times,serif" font-size="16.00" fill="#000000">à la souffrance, mais permet aussi de</text>
<text text-anchor="middle" x="130.5032" y="-24.4" font-family="Times,serif" font-size="16.00" fill="#000000">parvenir à des plaisirs supérieurs</text>
</g>
<!-- c1&#45;&gt;d1 -->
<g id="edge3" class="edge">
<title>c1-&gt;d1</title>
<path fill="none" stroke="#000000" d="M130.5032,-150.9301C130.5032,-138.0753 130.5032,-123.8042 130.5032,-110.3812"/>
<polygon fill="#000000" stroke="#000000" points="134.0033,-110.3192 130.5032,-100.3192 127.0033,-110.3192 134.0033,-110.3192"/>
</g>
<!-- r2 -->
<g id="node6" class="node">
<title>r2</title>
<polygon fill="#fafafa" stroke="#0000ff" points="443.0238,-221.7004 267.9826,-221.7004 267.9826,-165.0996 443.0238,-165.0996 443.0238,-221.7004"/>
<text text-anchor="middle" x="355.5032" y="-205.1" font-family="Times,serif" font-size="13.00" fill="#000000">L'usage du corps, les émotions,</text>
<text text-anchor="middle" x="355.5032" y="-189.5" font-family="Times,serif" font-size="13.00" fill="#000000">l'imagination, l'intelligence,</text>
<text text-anchor="middle" x="355.5032" y="-173.9" font-family="Times,serif" font-size="13.00" fill="#000000">la communication sociale …</text>
</g>
<!-- c1&#45;&gt;r2 -->
<g id="edge5" class="edge">
<title>c1-&gt;r2</title>
<path fill="none" stroke="#0000ff" stroke-dasharray="5,2" d="M212.6809,-193.4C231.0916,-193.4 249.5023,-193.4 267.913,-193.4"/>
</g>
<!-- r3 -->
<g id="node7" class="node">
<title>r3</title>
<polygon fill="#fafafa" stroke="#0000ff" points="486.1935,-116 316.8129,-116 316.8129,0 486.1935,0 486.1935,-116"/>
<text text-anchor="start" x="345.1762" y="-100.3" font-family="Times,serif" font-size="13.00" fill="#000000">Ce qui est important :</text>
<text text-anchor="start" x="321.9081" y="-82.3" font-family="Times,serif" font-size="13.00" fill="#000000">– c'est de vivre une vie pleine</text>
<text text-anchor="start" x="334.9062" y="-69.3" font-family="Times,serif" font-size="13.00" fill="#000000">de sens, riche et profonde</text>
<text text-anchor="start" x="336.282" y="-58.1" font-family="Times,serif" font-size="11.00" fill="#000000">(≠ une vie simplement pleine</text>
<text text-anchor="start" x="364.5449" y="-47.1" font-family="Times,serif" font-size="11.00" fill="#000000"> de satisfactions)</text>
<text text-anchor="start" x="323.8042" y="-29.3" font-family="Times,serif" font-size="13.00" fill="#000000">– c'est la qualité des plaisirs</text>
<text text-anchor="start" x="322.3142" y="-18.1" font-family="Times,serif" font-size="11.00" fill="#000000">(≠ la quantité : le bonheur n'est pas</text>
<text text-anchor="start" x="334.6006" y="-7.1" font-family="Times,serif" font-size="11.00" fill="#000000">une simple somme de plaisirs)</text>
</g>
<!-- d1&#45;&gt;r3 -->
<g id="edge6" class="edge">
<title>d1-&gt;r3</title>
<path fill="none" stroke="#0000ff" stroke-dasharray="5,2" d="M261.2395,-58C279.777,-58 298.3144,-58 316.8519,-58"/>
</g>
</g>
</svg>