<?xml version="1.0" encoding="UTF-8" standalone="no"?><!DOCTYPE svg PUBLIC "-//W3C//DTD SVG 1.1//EN" "http://www.w3.org/Graphics/SVG/1.1/DTD/svg11.dtd"><!-- Generated by graphviz version 2.40.1 (20161225.0304)
 --><!-- Title: G Pages: 1 --><svg xmlns="http://www.w3.org/2000/svg" xmlns:xlink="http://www.w3.org/1999/xlink" width="601pt" height="532pt" viewBox="0.00 0.00 601.41 532.13">
<g id="graph0" class="graph" transform="scale(1 1) rotate(0) translate(21.6 510.533)">
<title>G</title>
<polygon fill="#fafafa" stroke="transparent" points="-21.6,21.6 -21.6,-510.533 579.8149,-510.533 579.8149,21.6 -21.6,21.6"/>
<!-- a1 -->
<g id="node1" class="node">
<title>a1</title>
<ellipse fill="#000000" stroke="#000000" cx="130.5032" cy="-452.7292" rx="109.8263" ry="36.4089"/>
<text text-anchor="middle" x="130.5032" y="-458.1292" font-family="Times,serif" font-size="18.00" fill="#ffffff">Le perfectionnisme</text>
<text text-anchor="middle" x="130.5032" y="-436.5292" font-family="Times,serif" font-size="18.00" fill="#ffffff">moral</text>
</g>
<!-- b1 -->
<g id="node2" class="node">
<title>b1</title>
<ellipse fill="#8b0000" stroke="#000000" cx="130.5032" cy="-321.5627" rx="100.6694" ry="59.9253"/>
<text text-anchor="middle" x="130.5032" y="-345.5627" font-family="Times,serif" font-size="16.00" fill="#ffffff">La vie bonne est</text>
<text text-anchor="middle" x="130.5032" y="-326.3627" font-family="Times,serif" font-size="16.00" fill="#ffffff">une vie accomplie :</text>
<text text-anchor="middle" x="130.5032" y="-307.1627" font-family="Times,serif" font-size="16.00" fill="#ffffff">il s'agit de chercher</text>
<text text-anchor="middle" x="130.5032" y="-287.9627" font-family="Times,serif" font-size="16.00" fill="#ffffff">à se perfectionner</text>
</g>
<!-- a1&#45;&gt;b1 -->
<g id="edge1" class="edge">
<title>a1-&gt;b1:n</title>
<path fill="none" stroke="#000000" d="M130.5032,-416.506C130.5032,-408.5341 130.5032,-399.9651 130.5032,-391.5906"/>
<polygon fill="#000000" stroke="#000000" points="134.0033,-391.5253 130.5032,-381.5253 127.0033,-391.5253 134.0033,-391.5253"/>
</g>
<!-- c1 -->
<g id="node3" class="node">
<title>c1</title>
<polygon fill="#ffffff" stroke="#7f7f7f" points="212.412,-224.9002 48.5944,-224.9002 48.5944,-140.2998 212.412,-140.2998 212.412,-224.9002"/>
<text text-anchor="middle" x="130.5032" y="-206.6" font-family="Times,serif" font-size="16.00" fill="#000000">La vie accomplie</text>
<text text-anchor="middle" x="130.5032" y="-187.4" font-family="Times,serif" font-size="16.00" fill="#000000">repose sur l'exercice et</text>
<text text-anchor="middle" x="130.5032" y="-168.2" font-family="Times,serif" font-size="16.00" fill="#000000">le développement de</text>
<text text-anchor="middle" x="130.5032" y="-149" font-family="Times,serif" font-size="16.00" fill="#000000">ses facultés</text>
</g>
<!-- b1&#45;&gt;c1 -->
<g id="edge2" class="edge">
<title>b1-&gt;c1</title>
<path fill="none" stroke="#000000" d="M130.5032,-261.4198C130.5032,-252.7631 130.5032,-243.9095 130.5032,-235.4096"/>
<polygon fill="#000000" stroke="#000000" points="134.0033,-235.254 130.5032,-225.254 127.0033,-235.2541 134.0033,-235.254"/>
</g>
<!-- r1 -->
<g id="node5" class="node">
<title>r1</title>
<polygon fill="#fafafa" stroke="#0000ff" points="511.9621,-373.1634 287.0443,-373.1634 287.0443,-269.9619 511.9621,-269.9619 511.9621,-373.1634"/>
<text text-anchor="middle" x="399.5032" y="-356.6627" font-family="Times,serif" font-size="13.00" fill="#000000">Le perfectionnisme ancien visait un idéal</text>
<text text-anchor="middle" x="399.5032" y="-341.0627" font-family="Times,serif" font-size="13.00" fill="#000000">universel d'excellence, mais dans le</text>
<text text-anchor="middle" x="399.5032" y="-325.4627" font-family="Times,serif" font-size="13.00" fill="#000000">perfectionnisme moderne, c'est le</text>
<text text-anchor="middle" x="399.5032" y="-309.8627" font-family="Times,serif" font-size="13.00" fill="#000000">développement de son individualité</text>
<text text-anchor="middle" x="399.5032" y="-294.2627" font-family="Times,serif" font-size="13.00" fill="#000000">qui est valorisé (il n'y a pas une</text>
<text text-anchor="middle" x="399.5032" y="-278.6627" font-family="Times,serif" font-size="13.00" fill="#000000">seule norme possible de l'excellence)</text>
</g>
<!-- b1&#45;&gt;r1 -->
<g id="edge4" class="edge">
<title>b1-&gt;r1</title>
<path fill="none" stroke="#0000ff" stroke-dasharray="5,2" d="M231.3782,-321.5627C249.8763,-321.5627 268.3745,-321.5627 286.8726,-321.5627"/>
</g>
<!-- d1 -->
<g id="node4" class="node">
<title>d1</title>
<path fill="#ffffff" stroke="#7f7f7f" d="M249.0096,-94.1002C249.0096,-94.1002 11.9968,-94.1002 11.9968,-94.1002 5.9968,-94.1002 -.0032,-88.1002 -.0032,-82.1002 -.0032,-82.1002 -.0032,-21.4998 -.0032,-21.4998 -.0032,-15.4998 5.9968,-9.4998 11.9968,-9.4998 11.9968,-9.4998 249.0096,-9.4998 249.0096,-9.4998 255.0096,-9.4998 261.0096,-15.4998 261.0096,-21.4998 261.0096,-21.4998 261.0096,-82.1002 261.0096,-82.1002 261.0096,-88.1002 255.0096,-94.1002 249.0096,-94.1002"/>
<text text-anchor="middle" x="130.5032" y="-75.8" font-family="Times,serif" font-size="16.00" fill="#000000">L'exercice et le développement</text>
<text text-anchor="middle" x="130.5032" y="-56.6" font-family="Times,serif" font-size="16.00" fill="#000000">de ses facultés nous expose davantage</text>
<text text-anchor="middle" x="130.5032" y="-37.4" font-family="Times,serif" font-size="16.00" fill="#000000">à la souffrance, mais permet aussi de</text>
<text text-anchor="middle" x="130.5032" y="-18.2" font-family="Times,serif" font-size="16.00" fill="#000000">parvenir à des plaisirs supérieurs</text>
</g>
<!-- c1&#45;&gt;d1 -->
<g id="edge3" class="edge">
<title>c1-&gt;d1</title>
<path fill="none" stroke="#000000" d="M130.5032,-140.133C130.5032,-128.8248 130.5032,-116.4693 130.5032,-104.6779"/>
<polygon fill="#000000" stroke="#000000" points="134.0033,-104.5015 130.5032,-94.5015 127.0033,-104.5016 134.0033,-104.5015"/>
</g>
<!-- r2 -->
<g id="node6" class="node">
<title>r2</title>
<polygon fill="#fafafa" stroke="#0000ff" points="495.3062,-226.6 267.7002,-226.6 267.7002,-138.6 495.3062,-138.6 495.3062,-226.6"/>
<text text-anchor="middle" x="381.5032" y="-209.9" font-family="Times,serif" font-size="13.00" fill="#000000">L'accomplissement peut prendre</text>
<text text-anchor="middle" x="381.5032" y="-194.3" font-family="Times,serif" font-size="13.00" fill="#000000">plusieurs formes, selon les facultés qui</text>
<text text-anchor="middle" x="381.5032" y="-178.7" font-family="Times,serif" font-size="13.00" fill="#000000">seront développées : l'usage du corps, les</text>
<text text-anchor="middle" x="381.5032" y="-163.1" font-family="Times,serif" font-size="13.00" fill="#000000">émotions, l'imagination, l'intelligence,</text>
<text text-anchor="middle" x="381.5032" y="-147.5" font-family="Times,serif" font-size="13.00" fill="#000000">la communication sociale …</text>
</g>
<!-- c1&#45;&gt;r2 -->
<g id="edge5" class="edge">
<title>c1-&gt;r2</title>
<path fill="none" stroke="#0000ff" stroke-dasharray="5,2" d="M212.8626,-182.6C231.0881,-182.6 249.3135,-182.6 267.539,-182.6"/>
</g>
<!-- r3 -->
<g id="node7" class="node">
<title>r3</title>
<polygon fill="#fafafa" stroke="#0000ff" points="558.427,-103.4008 316.5794,-103.4008 316.5794,-.1992 558.427,-.1992 558.427,-103.4008"/>
<text text-anchor="middle" x="437.5032" y="-86.9" font-family="Times,serif" font-size="13.00" fill="#000000">La vie heureuse ne se réduit pas à</text>
<text text-anchor="middle" x="437.5032" y="-71.3" font-family="Times,serif" font-size="13.00" fill="#000000">une somme de plaisirs. Ce qui compte, ce</text>
<text text-anchor="middle" x="437.5032" y="-55.7" font-family="Times,serif" font-size="13.00" fill="#000000">n'est pas la quantité, mais la qualité des</text>
<text text-anchor="middle" x="437.5032" y="-40.1" font-family="Times,serif" font-size="13.00" fill="#000000">plaisirs, et nous ne désirons pas seulement</text>
<text text-anchor="middle" x="437.5032" y="-24.5" font-family="Times,serif" font-size="13.00" fill="#000000">une vie pleine de satisfactions, nous voulons</text>
<text text-anchor="middle" x="437.5032" y="-8.9" font-family="Times,serif" font-size="13.00" fill="#000000">une vie profonde, riche et pleine de sens.</text>
</g>
<!-- d1&#45;&gt;r3 -->
<g id="edge6" class="edge">
<title>d1-&gt;r3</title>
<path fill="none" stroke="#0000ff" stroke-dasharray="5,2" d="M261.218,-51.8C279.6958,-51.8 298.1737,-51.8 316.6515,-51.8"/>
</g>
</g>
</svg>