<?xml version="1.0" encoding="UTF-8" standalone="no"?>
<!DOCTYPE svg PUBLIC "-//W3C//DTD SVG 1.1//EN"
 "http://www.w3.org/Graphics/SVG/1.1/DTD/svg11.dtd">
<!-- Generated by graphviz version 2.40.1 (20161225.0304)
 -->
<!-- Title: G Pages: 1 -->
<svg width="596pt" height="513pt"
 viewBox="0.00 0.00 595.75 513.33" xmlns="http://www.w3.org/2000/svg" xmlns:xlink="http://www.w3.org/1999/xlink">
<g id="graph0" class="graph" transform="scale(1 1) rotate(0) translate(21.6 491.733)">
<title>G</title>
<polygon fill="#fafafa" stroke="transparent" points="-21.6,21.6 -21.6,-491.733 574.151,-491.733 574.151,21.6 -21.6,21.6"/>
<!-- a1 -->
<g id="node1" class="node">
<title>a1</title>
<ellipse fill="#000000" stroke="#000000" cx="124.0608" cy="-433.9292" rx="93.1118" ry="36.4089"/>
<text text-anchor="middle" x="124.0608" y="-439.3292" font-family="Times,serif" font-size="18.00" fill="#ffffff">L&#39;éthique du</text>
<text text-anchor="middle" x="124.0608" y="-417.7292" font-family="Times,serif" font-size="18.00" fill="#ffffff">perfectionnisme</text>
</g>
<!-- b1 -->
<g id="node2" class="node">
<title>b1</title>
<ellipse fill="#8b0000" stroke="#000000" cx="124.0608" cy="-302.7627" rx="100.6694" ry="59.9253"/>
<text text-anchor="middle" x="124.0608" y="-326.7627" font-family="Times,serif" font-size="16.00" fill="#ffffff">La vie bonne est</text>
<text text-anchor="middle" x="124.0608" y="-307.5627" font-family="Times,serif" font-size="16.00" fill="#ffffff">une vie accomplie :</text>
<text text-anchor="middle" x="124.0608" y="-288.3627" font-family="Times,serif" font-size="16.00" fill="#ffffff">il s&#39;agit de chercher</text>
<text text-anchor="middle" x="124.0608" y="-269.1627" font-family="Times,serif" font-size="16.00" fill="#ffffff">à se perfectionner</text>
</g>
<!-- a1&#45;&gt;b1 -->
<g id="edge1" class="edge">
<title>a1&#45;&gt;b1:n</title>
<path fill="none" stroke="#000000" d="M124.0608,-397.706C124.0608,-389.7341 124.0608,-381.1651 124.0608,-372.7906"/>
<polygon fill="#000000" stroke="#000000" points="127.5609,-372.7253 124.0608,-362.7253 120.5609,-372.7253 127.5609,-372.7253"/>
</g>
<!-- c1 -->
<g id="node3" class="node">
<title>c1</title>
<polygon fill="#ffffff" stroke="#7f7f7f" points="198.4212,-207.7002 49.7004,-207.7002 49.7004,-123.0998 198.4212,-123.0998 198.4212,-207.7002"/>
<text text-anchor="middle" x="124.0608" y="-189.4" font-family="Times,serif" font-size="16.00" fill="#000000">La vie accomplie</text>
<text text-anchor="middle" x="124.0608" y="-170.2" font-family="Times,serif" font-size="16.00" fill="#000000">repose sur l&#39;exercice</text>
<text text-anchor="middle" x="124.0608" y="-151" font-family="Times,serif" font-size="16.00" fill="#000000">et le développement</text>
<text text-anchor="middle" x="124.0608" y="-131.8" font-family="Times,serif" font-size="16.00" fill="#000000">de ses facultés</text>
</g>
<!-- b1&#45;&gt;c1 -->
<g id="edge2" class="edge">
<title>b1&#45;&gt;c1</title>
<path fill="none" stroke="#000000" d="M124.0608,-242.5134C124.0608,-234.3024 124.0608,-225.9282 124.0608,-217.8698"/>
<polygon fill="#000000" stroke="#000000" points="127.5609,-217.8674 124.0608,-207.8675 120.5609,-217.8675 127.5609,-217.8674"/>
</g>
<!-- r1 -->
<g id="node5" class="node">
<title>r1</title>
<polygon fill="#fafafa" stroke="#0000ff" points="446.3627,-346.2627 279.7589,-346.2627 279.7589,-259.2627 446.3627,-259.2627 446.3627,-346.2627"/>
<text text-anchor="start" x="284.91" y="-330.5627" font-family="Times,serif" font-size="13.00" fill="#000000">Le perfectionnisme moderne :</text>
<text text-anchor="start" x="290.5898" y="-318.4627" font-family="Times,serif" font-size="12.00" fill="#000000">un idéal de développement de</text>
<text text-anchor="start" x="288.7718" y="-306.4627" font-family="Times,serif" font-size="12.00" fill="#000000">son individualité </text>
<text text-anchor="start" x="372.9278" y="-306.4627" font-family="Times,serif" font-size="10.00" fill="#000000">(il n&#39;y a pas une</text>
<text text-anchor="start" x="293.7873" y="-296.2627" font-family="Times,serif" font-size="10.00" fill="#000000">seule forme possible d&#39;excellence)</text>
<text text-anchor="start" x="286.353" y="-278.5627" font-family="Times,serif" font-size="13.00" fill="#000000">≠ le perfectionnisme ancien :</text>
<text text-anchor="start" x="288.1808" y="-266.4627" font-family="Times,serif" font-size="12.00" fill="#000000">un idéal universel d&#39;excellence</text>
</g>
<!-- b1&#45;&gt;r1 -->
<g id="edge4" class="edge">
<title>b1&#45;&gt;r1</title>
<path fill="none" stroke="#0000ff" stroke-dasharray="5,2" d="M225.3557,-302.7627C243.4654,-302.7627 261.575,-302.7627 279.6847,-302.7627"/>
</g>
<!-- d1 -->
<g id="node4" class="node">
<title>d1</title>
<path fill="#ffffff" stroke="#7f7f7f" d="M236.1824,-86.3002C236.1824,-86.3002 11.9392,-86.3002 11.9392,-86.3002 5.9392,-86.3002 -.0608,-80.3002 -.0608,-74.3002 -.0608,-74.3002 -.0608,-13.6998 -.0608,-13.6998 -.0608,-7.6998 5.9392,-1.6998 11.9392,-1.6998 11.9392,-1.6998 236.1824,-1.6998 236.1824,-1.6998 242.1824,-1.6998 248.1824,-7.6998 248.1824,-13.6998 248.1824,-13.6998 248.1824,-74.3002 248.1824,-74.3002 248.1824,-80.3002 242.1824,-86.3002 236.1824,-86.3002"/>
<text text-anchor="middle" x="124.0608" y="-68" font-family="Times,serif" font-size="16.00" fill="#000000">L&#39;exercice et le développement de</text>
<text text-anchor="middle" x="124.0608" y="-48.8" font-family="Times,serif" font-size="16.00" fill="#000000">ses facultés nous expose davantage</text>
<text text-anchor="middle" x="124.0608" y="-29.6" font-family="Times,serif" font-size="16.00" fill="#000000">à la souffrance, mais permet aussi</text>
<text text-anchor="middle" x="124.0608" y="-10.4" font-family="Times,serif" font-size="16.00" fill="#000000">de parvenir à des plaisirs supérieurs</text>
</g>
<!-- c1&#45;&gt;d1 -->
<g id="edge3" class="edge">
<title>c1&#45;&gt;d1</title>
<path fill="none" stroke="#000000" d="M124.0608,-122.9402C124.0608,-114.4873 124.0608,-105.5141 124.0608,-96.7647"/>
<polygon fill="#000000" stroke="#000000" points="127.5609,-96.641 124.0608,-86.6411 120.5609,-96.6411 127.5609,-96.641"/>
</g>
<!-- r2 -->
<g id="node6" class="node">
<title>r2</title>
<polygon fill="#fafafa" stroke="#0000ff" points="428.5814,-193.7004 253.5402,-193.7004 253.5402,-137.0996 428.5814,-137.0996 428.5814,-193.7004"/>
<text text-anchor="middle" x="341.0608" y="-177.1" font-family="Times,serif" font-size="13.00" fill="#000000">L&#39;usage du corps, les émotions,</text>
<text text-anchor="middle" x="341.0608" y="-161.5" font-family="Times,serif" font-size="13.00" fill="#000000">l&#39;imagination, l&#39;intelligence,</text>
<text text-anchor="middle" x="341.0608" y="-145.9" font-family="Times,serif" font-size="13.00" fill="#000000">la communication sociale …</text>
</g>
<!-- c1&#45;&gt;r2 -->
<g id="edge5" class="edge">
<title>c1&#45;&gt;r2</title>
<path fill="none" stroke="#0000ff" stroke-dasharray="5,2" d="M198.6546,-165.4C216.9189,-165.4 235.1832,-165.4 253.4476,-165.4"/>
</g>
<!-- r3 -->
<g id="node7" class="node">
<title>r3</title>
<polygon fill="#fafafa" stroke="#0000ff" points="552.5411,-88 303.5805,-88 303.5805,0 552.5411,0 552.5411,-88"/>
<text text-anchor="middle" x="428.0608" y="-71.3" font-family="Times,serif" font-size="13.00" fill="#000000">Ce qui est important, c&#39;est de vivre une vie</text>
<text text-anchor="middle" x="428.0608" y="-55.7" font-family="Times,serif" font-size="13.00" fill="#000000">pleine de sens, riche et profonde (≠ une vie</text>
<text text-anchor="middle" x="428.0608" y="-40.1" font-family="Times,serif" font-size="13.00" fill="#000000">simplement pleine de satisfactions) et c&#39;est la</text>
<text text-anchor="middle" x="428.0608" y="-24.5" font-family="Times,serif" font-size="13.00" fill="#000000">qualité des plaisirs (≠ la quantité : le bonheur</text>
<text text-anchor="middle" x="428.0608" y="-8.9" font-family="Times,serif" font-size="13.00" fill="#000000">ne se réduit pas à une somme de plaisirs)</text>
</g>
<!-- d1&#45;&gt;r3 -->
<g id="edge6" class="edge">
<title>d1&#45;&gt;r3</title>
<path fill="none" stroke="#0000ff" stroke-dasharray="5,2" d="M248.1546,-44C266.5434,-44 284.9323,-44 303.3211,-44"/>
</g>
</g>
</svg>
