<?xml version="1.0" encoding="UTF-8" standalone="no"?>
<!DOCTYPE svg PUBLIC "-//W3C//DTD SVG 1.1//EN"
 "http://www.w3.org/Graphics/SVG/1.1/DTD/svg11.dtd">
<!-- Generated by graphviz version 2.40.1 (20161225.0304)
 -->
<!-- Title: G Pages: 1 -->
<svg width="688pt" height="548pt"
 viewBox="0.00 0.00 687.64 547.67" xmlns="http://www.w3.org/2000/svg" xmlns:xlink="http://www.w3.org/1999/xlink">
<g id="graph0" class="graph" transform="scale(1 1) rotate(0) translate(21.6 526.0743)">
<title>G</title>
<polygon fill="#fafafa" stroke="transparent" points="-21.6,21.6 -21.6,-526.0743 666.0376,-526.0743 666.0376,21.6 -21.6,21.6"/>
<!-- a1 -->
<g id="node1" class="node">
<title>a1</title>
<ellipse fill="#000000" stroke="#000000" cx="256.472" cy="-468.2705" rx="89.5404" ry="36.4089"/>
<text text-anchor="middle" x="256.472" y="-473.6705" font-family="Times,serif" font-size="18.00" fill="#ffffff">La philosophie</text>
<text text-anchor="middle" x="256.472" y="-452.0705" font-family="Times,serif" font-size="18.00" fill="#ffffff">morale de Kant</text>
</g>
<!-- b1 -->
<g id="node2" class="node">
<title>b1</title>
<ellipse fill="#8b0000" stroke="#000000" cx="118.472" cy="-377.8333" rx="65.0715" ry="19.4695"/>
<text text-anchor="middle" x="118.472" y="-373.0333" font-family="Times,serif" font-size="16.00" fill="#ffffff">Un principe</text>
</g>
<!-- a1&#45;&gt;b1 -->
<g id="edge1" class="edge">
<title>a1&#45;&gt;b1:n</title>
<path fill="none" stroke="#000000" d="M173.4098,-454.2825C147.6083,-445.378 124.5464,-430.8211 119.4956,-407.0351"/>
<polygon fill="#000000" stroke="#000000" points="122.9752,-406.6568 118.472,-397.0666 116.0118,-407.3718 122.9752,-406.6568"/>
</g>
<!-- b2 -->
<g id="node3" class="node">
<title>b2</title>
<ellipse fill="#8b0000" stroke="#000000" cx="395.472" cy="-377.8333" rx="72.9565" ry="19.4695"/>
<text text-anchor="middle" x="395.472" y="-373.0333" font-family="Times,serif" font-size="16.00" fill="#ffffff">Une méthode</text>
</g>
<!-- a1&#45;&gt;b2 -->
<g id="edge2" class="edge">
<title>a1&#45;&gt;b2:n</title>
<path fill="none" stroke="#000000" d="M339.7363,-454.5839C365.8704,-445.723 389.2995,-431.1365 394.4318,-407.1323"/>
<polygon fill="#000000" stroke="#000000" points="397.9255,-407.3734 395.472,-397.0666 390.9626,-406.6538 397.9255,-407.3734"/>
</g>
<!-- b1&#45;&gt;b2 -->
<!-- c1 -->
<g id="node4" class="node">
<title>c1</title>
<polygon fill="#ffffff" stroke="#7f7f7f" points="206.9976,-323.8017 29.9464,-323.8017 29.9464,-276.9983 206.9976,-276.9983 206.9976,-323.8017"/>
<text text-anchor="middle" x="118.472" y="-305.2" font-family="Times,serif" font-size="16.00" fill="#000000">Agir moralement, ce</text>
<text text-anchor="middle" x="118.472" y="-286" font-family="Times,serif" font-size="16.00" fill="#000000">n&#39;est pas agir par intérêt</text>
</g>
<!-- b1&#45;&gt;c1 -->
<g id="edge4" class="edge">
<title>b1&#45;&gt;c1</title>
<path fill="none" stroke="#000000" d="M118.472,-358.2936C118.472,-350.9222 118.472,-342.3099 118.472,-334.0155"/>
<polygon fill="#000000" stroke="#000000" points="121.9721,-333.7966 118.472,-323.7967 114.9721,-333.7967 121.9721,-333.7966"/>
</g>
<!-- c2 -->
<g id="node5" class="node">
<title>c2</title>
<polygon fill="#ffffff" stroke="#7f7f7f" points="470.0119,-323.8017 318.9321,-323.8017 318.9321,-276.9983 470.0119,-276.9983 470.0119,-323.8017"/>
<text text-anchor="middle" x="394.472" y="-305.2" font-family="Times,serif" font-size="16.00" fill="#000000"></text>
<text text-anchor="middle" x="394.472" y="-286" font-family="Times,serif" font-size="16.00" fill="#000000"></text>
</g>
<!-- b2&#45;&gt;c2 -->
<g id="edge5" class="edge">
<title>b2&#45;&gt;c2</title>
<path fill="none" stroke="#000000" d="M395.2197,-358.2936C395.1245,-350.9222 395.0132,-342.3099 394.9061,-334.0155"/>
<polygon fill="#000000" stroke="#000000" points="398.4031,-333.7506 394.7742,-323.7967 391.4037,-333.8411 398.4031,-333.7506"/>
</g>
<!-- c1&#45;&gt;c2 -->
<!-- e1 -->
<g id="node8" class="node">
<title>e1</title>
<path fill="#fafafa" stroke="transparent" d="M224.916,-269.0012C224.916,-269.0012 12.028,-269.0012 12.028,-269.0012 6.028,-269.0012 .028,-263.0012 .028,-257.0012 .028,-257.0012 .028,-215.7988 .028,-215.7988 .028,-209.7988 6.028,-203.7988 12.028,-203.7988 12.028,-203.7988 224.916,-203.7988 224.916,-203.7988 230.916,-203.7988 236.916,-209.7988 236.916,-215.7988 236.916,-215.7988 236.916,-257.0012 236.916,-257.0012 236.916,-263.0012 230.916,-269.0012 224.916,-269.0012"/>
<text text-anchor="middle" x="118.472" y="-250.8" font-family="Times,serif" font-size="16.00" fill="#cd2626"></text>
<text text-anchor="middle" x="118.472" y="-231.6" font-family="Times,serif" font-size="16.00" fill="#cd2626"></text>
<text text-anchor="middle" x="118.472" y="-212.4" font-family="Times,serif" font-size="16.00" fill="#cd2626"></text>
</g>
<!-- c1&#45;&gt;e1 -->
<!-- d1 -->
<g id="node6" class="node">
<title>d1</title>
<path fill="#ffffff" stroke="#7f7f7f" d="M335.189,-177.5002C335.189,-177.5002 149.755,-177.5002 149.755,-177.5002 143.755,-177.5002 137.755,-171.5002 137.755,-165.5002 137.755,-165.5002 137.755,-104.8998 137.755,-104.8998 137.755,-98.8998 143.755,-92.8998 149.755,-92.8998 149.755,-92.8998 335.189,-92.8998 335.189,-92.8998 341.189,-92.8998 347.189,-98.8998 347.189,-104.8998 347.189,-104.8998 347.189,-165.5002 347.189,-165.5002 347.189,-171.5002 341.189,-177.5002 335.189,-177.5002"/>
<text text-anchor="middle" x="242.472" y="-159.2" font-family="Times,serif" font-size="16.00" fill="#000000"></text>
<text text-anchor="middle" x="242.472" y="-140" font-family="Times,serif" font-size="16.00" fill="#000000"></text>
<text text-anchor="middle" x="242.472" y="-120.8" font-family="Times,serif" font-size="16.00" fill="#000000"></text>
<text text-anchor="middle" x="242.472" y="-101.6" font-family="Times,serif" font-size="16.00" fill="#000000"></text>
</g>
<!-- c2&#45;&gt;d1 -->
<g id="edge7" class="edge">
<title>c2&#45;&gt;d1</title>
<path fill="none" stroke="#000000" d="M373.0165,-277.0813C351.1387,-253.3036 316.5157,-215.6738 288.4222,-185.1407"/>
<polygon fill="#000000" stroke="#000000" points="290.7789,-182.5328 281.4323,-177.5437 285.6276,-187.2725 290.7789,-182.5328"/>
</g>
<!-- d2 -->
<g id="node7" class="node">
<title>d2</title>
<path fill="#ffffff" stroke="#7f7f7f" d="M632.4032,-177.5002C632.4032,-177.5002 400.5408,-177.5002 400.5408,-177.5002 394.5408,-177.5002 388.5408,-171.5002 388.5408,-165.5002 388.5408,-165.5002 388.5408,-104.8998 388.5408,-104.8998 388.5408,-98.8998 394.5408,-92.8998 400.5408,-92.8998 400.5408,-92.8998 632.4032,-92.8998 632.4032,-92.8998 638.4032,-92.8998 644.4032,-98.8998 644.4032,-104.8998 644.4032,-104.8998 644.4032,-165.5002 644.4032,-165.5002 644.4032,-171.5002 638.4032,-177.5002 632.4032,-177.5002"/>
<text text-anchor="middle" x="516.472" y="-159.2" font-family="Times,serif" font-size="16.00" fill="#000000"></text>
<text text-anchor="middle" x="516.472" y="-140" font-family="Times,serif" font-size="16.00" fill="#000000"></text>
<text text-anchor="middle" x="516.472" y="-120.8" font-family="Times,serif" font-size="16.00" fill="#000000"></text>
<text text-anchor="middle" x="516.472" y="-101.6" font-family="Times,serif" font-size="16.00" fill="#000000"></text>
</g>
<!-- c2&#45;&gt;d2 -->
<g id="edge8" class="edge">
<title>c2&#45;&gt;d2</title>
<path fill="none" stroke="#000000" d="M411.6929,-277.0813C429.1038,-253.5051 456.5719,-216.3106 479.0165,-185.9184"/>
<polygon fill="#000000" stroke="#000000" points="482.0761,-187.6671 485.2013,-177.5437 476.4451,-183.5086 482.0761,-187.6671"/>
</g>
<!-- d1&#45;&gt;d2 -->
<!-- e2 -->
<g id="node9" class="node">
<title>e2</title>
<path fill="#fafafa" stroke="transparent" d="M369.9444,-75.0012C369.9444,-75.0012 112.9996,-75.0012 112.9996,-75.0012 106.9996,-75.0012 100.9996,-69.0012 100.9996,-63.0012 100.9996,-63.0012 100.9996,-21.7988 100.9996,-21.7988 100.9996,-15.7988 106.9996,-9.7988 112.9996,-9.7988 112.9996,-9.7988 369.9444,-9.7988 369.9444,-9.7988 375.9444,-9.7988 381.9444,-15.7988 381.9444,-21.7988 381.9444,-21.7988 381.9444,-63.0012 381.9444,-63.0012 381.9444,-69.0012 375.9444,-75.0012 369.9444,-75.0012"/>
<text text-anchor="middle" x="241.472" y="-56.8" font-family="Times,serif" font-size="16.00" fill="#cd2626"></text>
<text text-anchor="middle" x="241.472" y="-37.6" font-family="Times,serif" font-size="16.00" fill="#cd2626"></text>
<text text-anchor="middle" x="241.472" y="-18.4" font-family="Times,serif" font-size="16.00" fill="#cd2626"></text>
</g>
<!-- d1&#45;&gt;e2 -->
<!-- e3 -->
<g id="node10" class="node">
<title>e3</title>
<path fill="#fafafa" stroke="transparent" d="M616.3435,-84.7002C616.3435,-84.7002 420.6005,-84.7002 420.6005,-84.7002 414.6005,-84.7002 408.6005,-78.7002 408.6005,-72.7002 408.6005,-72.7002 408.6005,-12.0998 408.6005,-12.0998 408.6005,-6.0998 414.6005,-.0998 420.6005,-.0998 420.6005,-.0998 616.3435,-.0998 616.3435,-.0998 622.3435,-.0998 628.3435,-6.0998 628.3435,-12.0998 628.3435,-12.0998 628.3435,-72.7002 628.3435,-72.7002 628.3435,-78.7002 622.3435,-84.7002 616.3435,-84.7002"/>
<text text-anchor="middle" x="518.472" y="-66.4" font-family="Times,serif" font-size="16.00" fill="#cd2626"></text>
<text text-anchor="middle" x="518.472" y="-47.2" font-family="Times,serif" font-size="16.00" fill="#cd2626"></text>
<text text-anchor="middle" x="518.472" y="-28" font-family="Times,serif" font-size="16.00" fill="#cd2626"></text>
<text text-anchor="middle" x="518.472" y="-8.8" font-family="Times,serif" font-size="16.00" fill="#cd2626"></text>
</g>
<!-- d2&#45;&gt;e3 -->
<!-- e2&#45;&gt;e3 -->
</g>
</svg>
