<?xml version="1.0" encoding="UTF-8" standalone="no"?><!DOCTYPE svg PUBLIC "-//W3C//DTD SVG 1.1//EN" "http://www.w3.org/Graphics/SVG/1.1/DTD/svg11.dtd"><!-- Generated by graphviz version 2.40.1 (20161225.0304)
 --><!-- Title: G Pages: 1 --><svg xmlns="http://www.w3.org/2000/svg" xmlns:xlink="http://www.w3.org/1999/xlink" width="781pt" height="413pt" viewBox="0.00 0.00 781.16 412.97">
<g id="graph0" class="graph" transform="scale(1 1) rotate(0) translate(21.6 391.3743)">
<title>G</title>
<polygon fill="#fafafa" stroke="transparent" points="-21.6,21.6 -21.6,-391.3743 759.5584,-391.3743 759.5584,21.6 -21.6,21.6"/>
<!-- a1 -->
<g id="node1" class="node">
<title>a1</title>
<ellipse fill="#000000" stroke="#000000" cx="357.5256" cy="-318.2969" rx="121.9726" ry="51.4548"/>
<text text-anchor="middle" x="357.5256" y="-334.4969" font-family="Times,serif" font-size="18.00" fill="#ffffff">Philosophie des</text>
<text text-anchor="middle" x="357.5256" y="-312.8969" font-family="Times,serif" font-size="18.00" fill="#ffffff">mathématiques : les</text>
<text text-anchor="middle" x="357.5256" y="-291.2969" font-family="Times,serif" font-size="18.00" fill="#ffffff">quatre grandes écoles</text>
</g>
<!-- b1 -->
<g id="node2" class="node">
<title>b1</title>
<ellipse fill="#8b0000" stroke="#000000" cx="115.5256" cy="-195.0098" rx="76.3735" ry="32.6206"/>
<text text-anchor="middle" x="115.5256" y="-199.8098" font-family="Times,serif" font-size="16.00" fill="#ffffff">Le platonisme</text>
<text text-anchor="middle" x="115.5256" y="-180.6098" font-family="Times,serif" font-size="16.00" fill="#ffffff">mathématique</text>
</g>
<!-- a1&#45;&gt;b1 -->
<g id="edge1" class="edge">
<title>a1-&gt;b1</title>
<path fill="none" stroke="#000000" d="M279.6232,-278.6094C245.2911,-261.1189 205.6343,-240.9157 173.9066,-224.752"/>
<polygon fill="#000000" stroke="#000000" points="175.2545,-221.5107 164.7554,-220.0899 172.0769,-227.748 175.2545,-221.5107"/>
</g>
<!-- b2 -->
<g id="node3" class="node">
<title>b2</title>
<ellipse fill="#8b0000" stroke="#000000" cx="310.5256" cy="-195.0098" rx="93.8913" ry="32.6206"/>
<text text-anchor="middle" x="310.5256" y="-199.8098" font-family="Times,serif" font-size="16.00" fill="#ffffff">L'intuitionnisme /</text>
<text text-anchor="middle" x="310.5256" y="-180.6098" font-family="Times,serif" font-size="16.00" fill="#ffffff">le constructivisme</text>
</g>
<!-- a1&#45;&gt;b2 -->
<g id="edge2" class="edge">
<title>a1-&gt;b2</title>
<path fill="none" stroke="#000000" d="M338.1375,-267.4395C334.3066,-257.3905 330.3253,-246.9469 326.6179,-237.2219"/>
<polygon fill="#000000" stroke="#000000" points="329.8502,-235.8751 323.0176,-227.7778 323.3094,-238.3686 329.8502,-235.8751"/>
</g>
<!-- b3 -->
<g id="node4" class="node">
<title>b3</title>
<ellipse fill="#8b0000" stroke="#000000" cx="478.5256" cy="-195.0098" rx="55.1103" ry="32.6206"/>
<text text-anchor="middle" x="478.5256" y="-199.8098" font-family="Times,serif" font-size="16.00" fill="#ffffff">Le</text>
<text text-anchor="middle" x="478.5256" y="-180.6098" font-family="Times,serif" font-size="16.00" fill="#ffffff">logicisme</text>
</g>
<!-- a1&#45;&gt;b3 -->
<g id="edge3" class="edge">
<title>a1-&gt;b3</title>
<path fill="none" stroke="#000000" d="M404.3074,-270.6309C417.1943,-257.5003 430.9579,-243.4766 443.0885,-231.1167"/>
<polygon fill="#000000" stroke="#000000" points="445.9014,-233.2474 450.4081,-223.6588 440.9055,-228.3441 445.9014,-233.2474"/>
</g>
<!-- b4 -->
<g id="node5" class="node">
<title>b4</title>
<ellipse fill="#8b0000" stroke="#000000" cx="639.5256" cy="-195.0098" rx="62.6754" ry="32.6206"/>
<text text-anchor="middle" x="639.5256" y="-199.8098" font-family="Times,serif" font-size="16.00" fill="#ffffff">Le</text>
<text text-anchor="middle" x="639.5256" y="-180.6098" font-family="Times,serif" font-size="16.00" fill="#ffffff">formalisme</text>
</g>
<!-- a1&#45;&gt;b4 -->
<g id="edge4" class="edge">
<title>a1-&gt;b4</title>
<path fill="none" stroke="#000000" d="M442.5173,-281.1395C487.5585,-261.448 541.7046,-237.776 581.8242,-220.2361"/>
<polygon fill="#000000" stroke="#000000" points="583.4303,-223.3539 591.1909,-216.1411 580.6262,-216.9401 583.4303,-223.3539"/>
</g>
<!-- c1 -->
<g id="node6" class="node">
<title>c1</title>
<polygon fill="#ffffff" stroke="#7f7f7f" points="201.0768,-113.6 -.0256,-113.6 -.0256,-9.6 201.0768,-9.6 201.0768,-113.6"/>
<text text-anchor="middle" x="100.5256" y="-95.2" font-family="Times,serif" font-size="16.00" fill="#000000">Les objets mathématiques</text>
<text text-anchor="middle" x="100.5256" y="-76" font-family="Times,serif" font-size="16.00" fill="#000000">sont des entités abstraites,</text>
<text text-anchor="middle" x="100.5256" y="-56.8" font-family="Times,serif" font-size="16.00" fill="#000000">idéales et pures qui existent</text>
<text text-anchor="middle" x="100.5256" y="-37.6" font-family="Times,serif" font-size="16.00" fill="#000000">indépendamment du langage</text>
<text text-anchor="middle" x="100.5256" y="-18.4" font-family="Times,serif" font-size="16.00" fill="#000000">et de notre pensée</text>
</g>
<!-- b1&#45;&gt;c1 -->
<g id="edge5" class="edge">
<title>b1-&gt;c1</title>
<path fill="none" stroke="#000000" d="M111.8177,-162.0321C110.5111,-150.4109 108.9961,-136.9363 107.5083,-123.7043"/>
<polygon fill="#000000" stroke="#000000" points="110.9754,-123.214 106.3799,-113.6677 104.0192,-123.9962 110.9754,-123.214"/>
</g>
<!-- c2 -->
<g id="node7" class="node">
<title>c2</title>
<polygon fill="#ffffff" stroke="#7f7f7f" points="398.309,-113.6 214.7422,-113.6 214.7422,-9.6 398.309,-9.6 398.309,-113.6"/>
<text text-anchor="middle" x="306.5256" y="-95.2" font-family="Times,serif" font-size="16.00" fill="#000000">Les objets mathématiques</text>
<text text-anchor="middle" x="306.5256" y="-76" font-family="Times,serif" font-size="16.00" fill="#000000">sont des entités purement</text>
<text text-anchor="middle" x="306.5256" y="-56.8" font-family="Times,serif" font-size="16.00" fill="#000000">mentales construites par</text>
<text text-anchor="middle" x="306.5256" y="-37.6" font-family="Times,serif" font-size="16.00" fill="#000000">des procédures inventées</text>
<text text-anchor="middle" x="306.5256" y="-18.4" font-family="Times,serif" font-size="16.00" fill="#000000">par notre esprit</text>
</g>
<!-- b2&#45;&gt;c2 -->
<g id="edge6" class="edge">
<title>b2-&gt;c2</title>
<path fill="none" stroke="#000000" d="M309.5368,-162.0321C309.1884,-150.4109 308.7844,-136.9363 308.3877,-123.7043"/>
<polygon fill="#000000" stroke="#000000" points="311.885,-123.5583 308.0867,-113.6677 304.8881,-123.7682 311.885,-123.5583"/>
</g>
<!-- c3 -->
<g id="node8" class="node">
<title>c3</title>
<polygon fill="#ffffff" stroke="#7f7f7f" points="562.7113,-113.6 412.3399,-113.6 412.3399,-9.6 562.7113,-9.6 562.7113,-113.6"/>
<text text-anchor="middle" x="487.5256" y="-95.2" font-family="Times,serif" font-size="16.00" fill="#000000">Les propositions</text>
<text text-anchor="middle" x="487.5256" y="-76" font-family="Times,serif" font-size="16.00" fill="#000000">mathématiques</text>
<text text-anchor="middle" x="487.5256" y="-56.8" font-family="Times,serif" font-size="16.00" fill="#000000">se réduisent à des</text>
<text text-anchor="middle" x="487.5256" y="-37.6" font-family="Times,serif" font-size="16.00" fill="#000000">vérités purement</text>
<text text-anchor="middle" x="487.5256" y="-18.4" font-family="Times,serif" font-size="16.00" fill="#000000">logiques et formelles</text>
</g>
<!-- b3&#45;&gt;c3 -->
<g id="edge7" class="edge">
<title>b3-&gt;c3</title>
<path fill="none" stroke="#000000" d="M480.7503,-162.0321C481.5343,-150.4109 482.4433,-136.9363 483.336,-123.7043"/>
<polygon fill="#000000" stroke="#000000" points="486.8319,-123.8807 484.013,-113.6677 479.8478,-123.4094 486.8319,-123.8807"/>
</g>
<!-- c4 -->
<g id="node9" class="node">
<title>c4</title>
<polygon fill="#ffffff" stroke="#7f7f7f" points="737.8913,-123.3002 577.1599,-123.3002 577.1599,.1002 737.8913,.1002 737.8913,-123.3002"/>
<text text-anchor="middle" x="657.5256" y="-104.8" font-family="Times,serif" font-size="16.00" fill="#000000">Les propositions</text>
<text text-anchor="middle" x="657.5256" y="-85.6" font-family="Times,serif" font-size="16.00" fill="#000000">mathématiques ne</text>
<text text-anchor="middle" x="657.5256" y="-66.4" font-family="Times,serif" font-size="16.00" fill="#000000">sont qu’un jeu formel</text>
<text text-anchor="middle" x="657.5256" y="-47.2" font-family="Times,serif" font-size="16.00" fill="#000000">à partir d’un point</text>
<text text-anchor="middle" x="657.5256" y="-28" font-family="Times,serif" font-size="16.00" fill="#000000">de départ considéré</text>
<text text-anchor="middle" x="657.5256" y="-8.8" font-family="Times,serif" font-size="16.00" fill="#000000">comme vrai</text>
</g>
<!-- b4&#45;&gt;c4 -->
<g id="edge8" class="edge">
<title>b4-&gt;c4</title>
<path fill="none" stroke="#000000" d="M643.975,-162.0321C645.1619,-153.2357 646.492,-143.3775 647.8427,-133.3663"/>
<polygon fill="#000000" stroke="#000000" points="651.3271,-133.7161 649.1958,-123.3379 644.39,-132.78 651.3271,-133.7161"/>
</g>
</g>
</svg>