<?xml version="1.0" encoding="UTF-8" standalone="no"?>
<!DOCTYPE svg PUBLIC "-//W3C//DTD SVG 1.1//EN"
 "http://www.w3.org/Graphics/SVG/1.1/DTD/svg11.dtd">
<!-- Generated by graphviz version 2.40.1 (20161225.0304)
 -->
<!-- Title: G Pages: 1 -->
<svg width="674pt" height="548pt"
 viewBox="0.00 0.00 673.58 547.67" xmlns="http://www.w3.org/2000/svg" xmlns:xlink="http://www.w3.org/1999/xlink">
<g id="graph0" class="graph" transform="scale(1 1) rotate(0) translate(21.6 526.0743)">
<title>G</title>
<polygon fill="#fafafa" stroke="transparent" points="-21.6,21.6 -21.6,-526.0743 651.976,-526.0743 651.976,21.6 -21.6,21.6"/>
<!-- a1 -->
<g id="node1" class="node">
<title>a1</title>
<ellipse fill="#000000" stroke="#000000" cx="239.4104" cy="-468.2705" rx="89.5404" ry="36.4089"/>
<text text-anchor="middle" x="239.4104" y="-473.6705" font-family="Times,serif" font-size="18.00" fill="#ffffff">La philosophie</text>
<text text-anchor="middle" x="239.4104" y="-452.0705" font-family="Times,serif" font-size="18.00" fill="#ffffff">morale de Kant</text>
</g>
<!-- b1 -->
<g id="node2" class="node">
<title>b1</title>
<ellipse fill="#8b0000" stroke="#000000" cx="101.4104" cy="-377.8333" rx="65.0715" ry="19.4695"/>
<text text-anchor="middle" x="101.4104" y="-373.0333" font-family="Times,serif" font-size="16.00" fill="#ffffff">Un principe</text>
</g>
<!-- a1&#45;&gt;b1 -->
<g id="edge1" class="edge">
<title>a1&#45;&gt;b1:n</title>
<path fill="none" stroke="#000000" d="M156.3482,-454.2825C130.5467,-445.378 107.4848,-430.8211 102.434,-407.0351"/>
<polygon fill="#000000" stroke="#000000" points="105.9136,-406.6568 101.4104,-397.0666 98.9502,-407.3718 105.9136,-406.6568"/>
</g>
<!-- b2 -->
<g id="node3" class="node">
<title>b2</title>
<ellipse fill="#8b0000" stroke="#000000" cx="378.4104" cy="-377.8333" rx="72.9565" ry="19.4695"/>
<text text-anchor="middle" x="378.4104" y="-373.0333" font-family="Times,serif" font-size="16.00" fill="#ffffff">Une méthode</text>
</g>
<!-- a1&#45;&gt;b2 -->
<g id="edge2" class="edge">
<title>a1&#45;&gt;b2:n</title>
<path fill="none" stroke="#000000" d="M322.6747,-454.5839C348.8088,-445.723 372.2379,-431.1365 377.3702,-407.1323"/>
<polygon fill="#000000" stroke="#000000" points="380.8639,-407.3734 378.4104,-397.0666 373.901,-406.6538 380.8639,-407.3734"/>
</g>
<!-- b1&#45;&gt;b2 -->
<!-- c1 -->
<g id="node4" class="node">
<title>c1</title>
<polygon fill="#ffffff" stroke="#7f7f7f" points="192.7313,-323.8017 .0895,-323.8017 .0895,-276.9983 192.7313,-276.9983 192.7313,-323.8017"/>
<text text-anchor="middle" x="96.4104" y="-305.2" font-family="Times,serif" font-size="16.00" fill="#000000">L&#39;action morale ne vise pas</text>
<text text-anchor="middle" x="96.4104" y="-286" font-family="Times,serif" font-size="16.00" fill="#000000">la satisfaction personnelle</text>
</g>
<!-- b1&#45;&gt;c1 -->
<g id="edge4" class="edge">
<title>b1&#45;&gt;c1</title>
<path fill="none" stroke="#000000" d="M100.1487,-358.2936C99.6727,-350.9222 99.1166,-342.3099 98.581,-334.0155"/>
<polygon fill="#000000" stroke="#000000" points="102.0584,-333.5503 97.9212,-323.7967 95.0729,-334.0015 102.0584,-333.5503"/>
</g>
<!-- c2 -->
<g id="node5" class="node">
<title>c2</title>
<polygon fill="#ffffff" stroke="#7f7f7f" points="455.9503,-323.8017 304.8705,-323.8017 304.8705,-276.9983 455.9503,-276.9983 455.9503,-323.8017"/>
<text text-anchor="middle" x="380.4104" y="-305.2" font-family="Times,serif" font-size="16.00" fill="#000000">Il faut réfléchir à ce</text>
<text text-anchor="middle" x="380.4104" y="-286" font-family="Times,serif" font-size="16.00" fill="#000000">qui guide mon action</text>
</g>
<!-- b2&#45;&gt;c2 -->
<g id="edge5" class="edge">
<title>b2&#45;&gt;c2</title>
<path fill="none" stroke="#000000" d="M378.9151,-358.2936C379.1055,-350.9222 379.3279,-342.3099 379.5422,-334.0155"/>
<polygon fill="#000000" stroke="#000000" points="383.0466,-333.8837 379.8061,-323.7967 376.049,-333.7029 383.0466,-333.8837"/>
</g>
<!-- c1&#45;&gt;c2 -->
<!-- e1 -->
<g id="node8" class="node">
<title>e1</title>
<path fill="#fafafa" stroke="transparent" d="M150.5142,-269.0012C150.5142,-269.0012 42.3066,-269.0012 42.3066,-269.0012 36.3066,-269.0012 30.3066,-263.0012 30.3066,-257.0012 30.3066,-257.0012 30.3066,-215.7988 30.3066,-215.7988 30.3066,-209.7988 36.3066,-203.7988 42.3066,-203.7988 42.3066,-203.7988 150.5142,-203.7988 150.5142,-203.7988 156.5142,-203.7988 162.5142,-209.7988 162.5142,-215.7988 162.5142,-215.7988 162.5142,-257.0012 162.5142,-257.0012 162.5142,-263.0012 156.5142,-269.0012 150.5142,-269.0012"/>
<text text-anchor="middle" x="96.4104" y="-250.8" font-family="Times,serif" font-size="16.00" fill="#cd2626">Agir moralement</text>
<text text-anchor="middle" x="96.4104" y="-231.6" font-family="Times,serif" font-size="16.00" fill="#cd2626">≠ agir par intérêt</text>
<text text-anchor="middle" x="96.4104" y="-212.4" font-family="Times,serif" font-size="16.00" fill="#cd2626">= agir par devoir</text>
</g>
<!-- c1&#45;&gt;e1 -->
<!-- d1 -->
<g id="node6" class="node">
<title>d1</title>
<path fill="#ffffff" stroke="#7f7f7f" d="M321.1274,-177.5002C321.1274,-177.5002 135.6934,-177.5002 135.6934,-177.5002 129.6934,-177.5002 123.6934,-171.5002 123.6934,-165.5002 123.6934,-165.5002 123.6934,-104.8998 123.6934,-104.8998 123.6934,-98.8998 129.6934,-92.8998 135.6934,-92.8998 135.6934,-92.8998 321.1274,-92.8998 321.1274,-92.8998 327.1274,-92.8998 333.1274,-98.8998 333.1274,-104.8998 333.1274,-104.8998 333.1274,-165.5002 333.1274,-165.5002 333.1274,-171.5002 327.1274,-177.5002 321.1274,-177.5002"/>
<text text-anchor="middle" x="228.4104" y="-159.2" font-family="Times,serif" font-size="16.00" fill="#000000">Ce qui guide mon action ne</text>
<text text-anchor="middle" x="228.4104" y="-140" font-family="Times,serif" font-size="16.00" fill="#000000">doit pas être un raisonnement</text>
<text text-anchor="middle" x="228.4104" y="-120.8" font-family="Times,serif" font-size="16.00" fill="#000000">valable seulement de mon</text>
<text text-anchor="middle" x="228.4104" y="-101.6" font-family="Times,serif" font-size="16.00" fill="#000000">propre point de de vue</text>
</g>
<!-- c2&#45;&gt;d1 -->
<g id="edge7" class="edge">
<title>c2&#45;&gt;d1</title>
<path fill="none" stroke="#000000" d="M358.9549,-277.0813C337.0771,-253.3036 302.4541,-215.6738 274.3606,-185.1407"/>
<polygon fill="#000000" stroke="#000000" points="276.7173,-182.5328 267.3707,-177.5437 271.566,-187.2725 276.7173,-182.5328"/>
</g>
<!-- d2 -->
<g id="node7" class="node">
<title>d2</title>
<path fill="#ffffff" stroke="#7f7f7f" d="M618.3416,-177.5002C618.3416,-177.5002 386.4792,-177.5002 386.4792,-177.5002 380.4792,-177.5002 374.4792,-171.5002 374.4792,-165.5002 374.4792,-165.5002 374.4792,-104.8998 374.4792,-104.8998 374.4792,-98.8998 380.4792,-92.8998 386.4792,-92.8998 386.4792,-92.8998 618.3416,-92.8998 618.3416,-92.8998 624.3416,-92.8998 630.3416,-98.8998 630.3416,-104.8998 630.3416,-104.8998 630.3416,-165.5002 630.3416,-165.5002 630.3416,-171.5002 624.3416,-177.5002 618.3416,-177.5002"/>
<text text-anchor="middle" x="502.4104" y="-159.2" font-family="Times,serif" font-size="16.00" fill="#000000">Ce qui guide mon action ne doit</text>
<text text-anchor="middle" x="502.4104" y="-140" font-family="Times,serif" font-size="16.00" fill="#000000">pas être un simple raisonnement</text>
<text text-anchor="middle" x="502.4104" y="-120.8" font-family="Times,serif" font-size="16.00" fill="#000000">instrumental à la recherche du</text>
<text text-anchor="middle" x="502.4104" y="-101.6" font-family="Times,serif" font-size="16.00" fill="#000000">meilleur moyen d&#39;accomplir mes fins</text>
</g>
<!-- c2&#45;&gt;d2 -->
<g id="edge8" class="edge">
<title>c2&#45;&gt;d2</title>
<path fill="none" stroke="#000000" d="M397.6313,-277.0813C415.0422,-253.5051 442.5103,-216.3106 464.9549,-185.9184"/>
<polygon fill="#000000" stroke="#000000" points="468.0145,-187.6671 471.1397,-177.5437 462.3835,-183.5086 468.0145,-187.6671"/>
</g>
<!-- d1&#45;&gt;d2 -->
<!-- e2 -->
<g id="node9" class="node">
<title>e2</title>
<path fill="#fafafa" stroke="transparent" d="M355.8828,-75.0012C355.8828,-75.0012 98.938,-75.0012 98.938,-75.0012 92.938,-75.0012 86.938,-69.0012 86.938,-63.0012 86.938,-63.0012 86.938,-21.7988 86.938,-21.7988 86.938,-15.7988 92.938,-9.7988 98.938,-9.7988 98.938,-9.7988 355.8828,-9.7988 355.8828,-9.7988 361.8828,-9.7988 367.8828,-15.7988 367.8828,-21.7988 367.8828,-21.7988 367.8828,-63.0012 367.8828,-63.0012 367.8828,-69.0012 361.8828,-75.0012 355.8828,-75.0012"/>
<text text-anchor="middle" x="227.4104" y="-56.8" font-family="Times,serif" font-size="16.00" fill="#cd2626">Agir moralement</text>
<text text-anchor="middle" x="227.4104" y="-37.6" font-family="Times,serif" font-size="16.00" fill="#cd2626">≠ se considérer comme une exception</text>
<text text-anchor="middle" x="227.4104" y="-18.4" font-family="Times,serif" font-size="16.00" fill="#cd2626">= agir d&#39;après une règle universalisable</text>
</g>
<!-- d1&#45;&gt;e2 -->
<!-- e3 -->
<g id="node10" class="node">
<title>e3</title>
<path fill="#fafafa" stroke="transparent" d="M602.2819,-84.7002C602.2819,-84.7002 406.5389,-84.7002 406.5389,-84.7002 400.5389,-84.7002 394.5389,-78.7002 394.5389,-72.7002 394.5389,-72.7002 394.5389,-12.0998 394.5389,-12.0998 394.5389,-6.0998 400.5389,-.0998 406.5389,-.0998 406.5389,-.0998 602.2819,-.0998 602.2819,-.0998 608.2819,-.0998 614.2819,-6.0998 614.2819,-12.0998 614.2819,-12.0998 614.2819,-72.7002 614.2819,-72.7002 614.2819,-78.7002 608.2819,-84.7002 602.2819,-84.7002"/>
<text text-anchor="middle" x="504.4104" y="-66.4" font-family="Times,serif" font-size="16.00" fill="#cd2626">Agir moralement</text>
<text text-anchor="middle" x="504.4104" y="-47.2" font-family="Times,serif" font-size="16.00" fill="#cd2626">≠ traiter les autres comme</text>
<text text-anchor="middle" x="504.4104" y="-28" font-family="Times,serif" font-size="16.00" fill="#cd2626">des simples moyens</text>
<text text-anchor="middle" x="504.4104" y="-8.8" font-family="Times,serif" font-size="16.00" fill="#cd2626">= respecter la dignité des autres</text>
</g>
<!-- d2&#45;&gt;e3 -->
<!-- e2&#45;&gt;e3 -->
</g>
</svg>
