<?xml version="1.0" encoding="UTF-8" standalone="no"?>
<!DOCTYPE svg PUBLIC "-//W3C//DTD SVG 1.1//EN"
 "http://www.w3.org/Graphics/SVG/1.1/DTD/svg11.dtd">
<!-- Generated by graphviz version 2.40.1 (20161225.0304)
 -->
<!-- Title: G Pages: 1 -->
<svg width="743pt" height="548pt"
 viewBox="0.00 0.00 743.45 547.67" xmlns="http://www.w3.org/2000/svg" xmlns:xlink="http://www.w3.org/1999/xlink">
<g id="graph0" class="graph" transform="scale(1 1) rotate(0) translate(21.6 526.0743)">
<title>G</title>
<polygon fill="#fafafa" stroke="transparent" points="-21.6,21.6 -21.6,-526.0743 721.8512,-526.0743 721.8512,21.6 -21.6,21.6"/>
<!-- a1 -->
<g id="node1" class="node">
<title>a1</title>
<ellipse fill="#000000" stroke="#000000" cx="303.2856" cy="-468.2705" rx="89.5404" ry="36.4089"/>
<text text-anchor="middle" x="303.2856" y="-473.6705" font-family="Times,serif" font-size="18.00" fill="#ffffff">La philosophie</text>
<text text-anchor="middle" x="303.2856" y="-452.0705" font-family="Times,serif" font-size="18.00" fill="#ffffff">morale de Kant</text>
</g>
<!-- b1 -->
<g id="node2" class="node">
<title>b1</title>
<ellipse fill="#8b0000" stroke="#000000" cx="165.2856" cy="-377.8333" rx="65.0715" ry="19.4695"/>
<text text-anchor="middle" x="165.2856" y="-373.0333" font-family="Times,serif" font-size="16.00" fill="#ffffff">Un principe</text>
</g>
<!-- a1&#45;&gt;b1 -->
<g id="edge1" class="edge">
<title>a1&#45;&gt;b1:n</title>
<path fill="none" stroke="#000000" d="M220.2234,-454.2825C194.4219,-445.378 171.36,-430.8211 166.3092,-407.0351"/>
<polygon fill="#000000" stroke="#000000" points="169.7888,-406.6568 165.2856,-397.0666 162.8254,-407.3718 169.7888,-406.6568"/>
</g>
<!-- b2 -->
<g id="node3" class="node">
<title>b2</title>
<ellipse fill="#8b0000" stroke="#000000" cx="442.2856" cy="-377.8333" rx="72.9565" ry="19.4695"/>
<text text-anchor="middle" x="442.2856" y="-373.0333" font-family="Times,serif" font-size="16.00" fill="#ffffff">Une méthode</text>
</g>
<!-- a1&#45;&gt;b2 -->
<g id="edge2" class="edge">
<title>a1&#45;&gt;b2:n</title>
<path fill="none" stroke="#000000" d="M386.5499,-454.5839C412.684,-445.723 436.1131,-431.1365 441.2454,-407.1323"/>
<polygon fill="#000000" stroke="#000000" points="444.7391,-407.3734 442.2856,-397.0666 437.7762,-406.6538 444.7391,-407.3734"/>
</g>
<!-- b1&#45;&gt;b2 -->
<!-- c1 -->
<g id="node4" class="node">
<title>c1</title>
<polygon fill="#ffffff" stroke="#7f7f7f" points="262.9754,-323.8017 23.5958,-323.8017 23.5958,-276.9983 262.9754,-276.9983 262.9754,-323.8017"/>
<text text-anchor="middle" x="143.2856" y="-305.2" font-family="Times,serif" font-size="16.00" fill="#000000">L&#39;action morale ne vise pas la</text>
<text text-anchor="middle" x="143.2856" y="-286" font-family="Times,serif" font-size="16.00" fill="#000000">satisfaction d&#39;un intérêt personnel</text>
</g>
<!-- b1&#45;&gt;c1 -->
<g id="edge4" class="edge">
<title>b1&#45;&gt;c1</title>
<path fill="none" stroke="#000000" d="M159.7341,-358.2936C157.5932,-350.7584 155.0839,-341.9265 152.6793,-333.4631"/>
<polygon fill="#000000" stroke="#000000" points="156.0328,-332.4594 149.933,-323.7967 149.2993,-334.3725 156.0328,-332.4594"/>
</g>
<!-- c2 -->
<g id="node5" class="node">
<title>c2</title>
<polygon fill="#ffffff" stroke="#7f7f7f" points="525.8255,-323.8017 374.7457,-323.8017 374.7457,-276.9983 525.8255,-276.9983 525.8255,-323.8017"/>
<text text-anchor="middle" x="450.2856" y="-305.2" font-family="Times,serif" font-size="16.00" fill="#000000">Il faut réfléchir à ce</text>
<text text-anchor="middle" x="450.2856" y="-286" font-family="Times,serif" font-size="16.00" fill="#000000">qui guide mon action</text>
</g>
<!-- b2&#45;&gt;c2 -->
<g id="edge5" class="edge">
<title>b2&#45;&gt;c2</title>
<path fill="none" stroke="#000000" d="M444.3043,-358.2936C445.0659,-350.9222 445.9557,-342.3099 446.8126,-334.0155"/>
<polygon fill="#000000" stroke="#000000" points="450.3221,-334.1034 447.8684,-323.7967 443.3591,-333.384 450.3221,-334.1034"/>
</g>
<!-- c1&#45;&gt;c2 -->
<!-- e1 -->
<g id="node8" class="node">
<title>e1</title>
<path fill="#fafafa" stroke="transparent" d="M274.3571,-269.0012C274.3571,-269.0012 12.2141,-269.0012 12.2141,-269.0012 6.2141,-269.0012 .2141,-263.0012 .2141,-257.0012 .2141,-257.0012 .2141,-215.7988 .2141,-215.7988 .2141,-209.7988 6.2141,-203.7988 12.2141,-203.7988 12.2141,-203.7988 274.3571,-203.7988 274.3571,-203.7988 280.3571,-203.7988 286.3571,-209.7988 286.3571,-215.7988 286.3571,-215.7988 286.3571,-257.0012 286.3571,-257.0012 286.3571,-263.0012 280.3571,-269.0012 274.3571,-269.0012"/>
<text text-anchor="middle" x="143.2856" y="-250.8" font-family="Times,serif" font-size="16.00" fill="#cd2626">Agir moralement</text>
<text text-anchor="middle" x="143.2856" y="-231.6" font-family="Times,serif" font-size="16.00" fill="#cd2626">≠ agir d&#39;après un impératif hypothétique</text>
<text text-anchor="middle" x="143.2856" y="-212.4" font-family="Times,serif" font-size="16.00" fill="#cd2626">= agir d&#39;après un impératif catégorique</text>
</g>
<!-- c1&#45;&gt;e1 -->
<!-- d1 -->
<g id="node6" class="node">
<title>d1</title>
<path fill="#ffffff" stroke="#7f7f7f" d="M391.0026,-177.5002C391.0026,-177.5002 205.5686,-177.5002 205.5686,-177.5002 199.5686,-177.5002 193.5686,-171.5002 193.5686,-165.5002 193.5686,-165.5002 193.5686,-104.8998 193.5686,-104.8998 193.5686,-98.8998 199.5686,-92.8998 205.5686,-92.8998 205.5686,-92.8998 391.0026,-92.8998 391.0026,-92.8998 397.0026,-92.8998 403.0026,-98.8998 403.0026,-104.8998 403.0026,-104.8998 403.0026,-165.5002 403.0026,-165.5002 403.0026,-171.5002 397.0026,-177.5002 391.0026,-177.5002"/>
<text text-anchor="middle" x="298.2856" y="-159.2" font-family="Times,serif" font-size="16.00" fill="#000000">Ce qui guide mon action ne</text>
<text text-anchor="middle" x="298.2856" y="-140" font-family="Times,serif" font-size="16.00" fill="#000000">doit pas être un raisonnement</text>
<text text-anchor="middle" x="298.2856" y="-120.8" font-family="Times,serif" font-size="16.00" fill="#000000">valable seulement de mon</text>
<text text-anchor="middle" x="298.2856" y="-101.6" font-family="Times,serif" font-size="16.00" fill="#000000">propre point de de vue</text>
</g>
<!-- c2&#45;&gt;d1 -->
<g id="edge7" class="edge">
<title>c2&#45;&gt;d1</title>
<path fill="none" stroke="#000000" d="M428.8301,-277.0813C406.9523,-253.3036 372.3293,-215.6738 344.2358,-185.1407"/>
<polygon fill="#000000" stroke="#000000" points="346.5925,-182.5328 337.2459,-177.5437 341.4412,-187.2725 346.5925,-182.5328"/>
</g>
<!-- d2 -->
<g id="node7" class="node">
<title>d2</title>
<path fill="#ffffff" stroke="#7f7f7f" d="M688.2168,-177.5002C688.2168,-177.5002 456.3544,-177.5002 456.3544,-177.5002 450.3544,-177.5002 444.3544,-171.5002 444.3544,-165.5002 444.3544,-165.5002 444.3544,-104.8998 444.3544,-104.8998 444.3544,-98.8998 450.3544,-92.8998 456.3544,-92.8998 456.3544,-92.8998 688.2168,-92.8998 688.2168,-92.8998 694.2168,-92.8998 700.2168,-98.8998 700.2168,-104.8998 700.2168,-104.8998 700.2168,-165.5002 700.2168,-165.5002 700.2168,-171.5002 694.2168,-177.5002 688.2168,-177.5002"/>
<text text-anchor="middle" x="572.2856" y="-159.2" font-family="Times,serif" font-size="16.00" fill="#000000">Ce qui guide mon action ne doit</text>
<text text-anchor="middle" x="572.2856" y="-140" font-family="Times,serif" font-size="16.00" fill="#000000">pas être un simple raisonnement</text>
<text text-anchor="middle" x="572.2856" y="-120.8" font-family="Times,serif" font-size="16.00" fill="#000000">instrumental à la recherche du</text>
<text text-anchor="middle" x="572.2856" y="-101.6" font-family="Times,serif" font-size="16.00" fill="#000000">meilleur moyen d&#39;accomplir mes fins</text>
</g>
<!-- c2&#45;&gt;d2 -->
<g id="edge8" class="edge">
<title>c2&#45;&gt;d2</title>
<path fill="none" stroke="#000000" d="M467.5065,-277.0813C484.9174,-253.5051 512.3855,-216.3106 534.8301,-185.9184"/>
<polygon fill="#000000" stroke="#000000" points="537.8897,-187.6671 541.0149,-177.5437 532.2587,-183.5086 537.8897,-187.6671"/>
</g>
<!-- d1&#45;&gt;d2 -->
<!-- e2 -->
<g id="node9" class="node">
<title>e2</title>
<path fill="#fafafa" stroke="transparent" d="M425.758,-75.0012C425.758,-75.0012 168.8132,-75.0012 168.8132,-75.0012 162.8132,-75.0012 156.8132,-69.0012 156.8132,-63.0012 156.8132,-63.0012 156.8132,-21.7988 156.8132,-21.7988 156.8132,-15.7988 162.8132,-9.7988 168.8132,-9.7988 168.8132,-9.7988 425.758,-9.7988 425.758,-9.7988 431.758,-9.7988 437.758,-15.7988 437.758,-21.7988 437.758,-21.7988 437.758,-63.0012 437.758,-63.0012 437.758,-69.0012 431.758,-75.0012 425.758,-75.0012"/>
<text text-anchor="middle" x="297.2856" y="-56.8" font-family="Times,serif" font-size="16.00" fill="#cd2626">Agir moralement</text>
<text text-anchor="middle" x="297.2856" y="-37.6" font-family="Times,serif" font-size="16.00" fill="#cd2626">≠ se considérer comme une exception</text>
<text text-anchor="middle" x="297.2856" y="-18.4" font-family="Times,serif" font-size="16.00" fill="#cd2626">= agir d&#39;après une règle universalisable</text>
</g>
<!-- d1&#45;&gt;e2 -->
<!-- e3 -->
<g id="node10" class="node">
<title>e3</title>
<path fill="#fafafa" stroke="transparent" d="M672.1571,-84.7002C672.1571,-84.7002 476.4141,-84.7002 476.4141,-84.7002 470.4141,-84.7002 464.4141,-78.7002 464.4141,-72.7002 464.4141,-72.7002 464.4141,-12.0998 464.4141,-12.0998 464.4141,-6.0998 470.4141,-.0998 476.4141,-.0998 476.4141,-.0998 672.1571,-.0998 672.1571,-.0998 678.1571,-.0998 684.1571,-6.0998 684.1571,-12.0998 684.1571,-12.0998 684.1571,-72.7002 684.1571,-72.7002 684.1571,-78.7002 678.1571,-84.7002 672.1571,-84.7002"/>
<text text-anchor="middle" x="574.2856" y="-66.4" font-family="Times,serif" font-size="16.00" fill="#cd2626">Agir moralement</text>
<text text-anchor="middle" x="574.2856" y="-47.2" font-family="Times,serif" font-size="16.00" fill="#cd2626">≠ traiter les autres comme</text>
<text text-anchor="middle" x="574.2856" y="-28" font-family="Times,serif" font-size="16.00" fill="#cd2626">des simples moyens</text>
<text text-anchor="middle" x="574.2856" y="-8.8" font-family="Times,serif" font-size="16.00" fill="#cd2626">= respecter la dignité des autres</text>
</g>
<!-- d2&#45;&gt;e3 -->
<!-- e2&#45;&gt;e3 -->
</g>
</svg>
