<?xml version="1.0" encoding="UTF-8" standalone="no"?>
<!DOCTYPE svg PUBLIC "-//W3C//DTD SVG 1.1//EN"
 "http://www.w3.org/Graphics/SVG/1.1/DTD/svg11.dtd">
<!-- Generated by graphviz version 2.40.1 (20161225.0304)
 -->
<!-- Title: G Pages: 1 -->
<svg width="664pt" height="548pt"
 viewBox="0.00 0.00 664.36 547.67" xmlns="http://www.w3.org/2000/svg" xmlns:xlink="http://www.w3.org/1999/xlink">
<g id="graph0" class="graph" transform="scale(1 1) rotate(0) translate(21.6 526.0743)">
<title>G</title>
<polygon fill="#fafafa" stroke="transparent" points="-21.6,21.6 -21.6,-526.0743 642.7552,-526.0743 642.7552,21.6 -21.6,21.6"/>
<!-- a1 -->
<g id="node1" class="node">
<title>a1</title>
<ellipse fill="#000000" stroke="#000000" cx="233.1896" cy="-468.2705" rx="89.5404" ry="36.4089"/>
<text text-anchor="middle" x="233.1896" y="-473.6705" font-family="Times,serif" font-size="18.00" fill="#ffffff">La philosophie</text>
<text text-anchor="middle" x="233.1896" y="-452.0705" font-family="Times,serif" font-size="18.00" fill="#ffffff">morale de Kant</text>
</g>
<!-- b1 -->
<g id="node2" class="node">
<title>b1</title>
<ellipse fill="#8b0000" stroke="#000000" cx="95.1896" cy="-377.8333" rx="65.0715" ry="19.4695"/>
<text text-anchor="middle" x="95.1896" y="-373.0333" font-family="Times,serif" font-size="16.00" fill="#ffffff">Un principe</text>
</g>
<!-- a1&#45;&gt;b1 -->
<g id="edge1" class="edge">
<title>a1&#45;&gt;b1:n</title>
<path fill="none" stroke="#000000" d="M150.1274,-454.2825C124.3259,-445.378 101.264,-430.8211 96.2132,-407.0351"/>
<polygon fill="#000000" stroke="#000000" points="99.6928,-406.6568 95.1896,-397.0666 92.7294,-407.3718 99.6928,-406.6568"/>
</g>
<!-- b2 -->
<g id="node3" class="node">
<title>b2</title>
<ellipse fill="#8b0000" stroke="#000000" cx="372.1896" cy="-377.8333" rx="72.9565" ry="19.4695"/>
<text text-anchor="middle" x="372.1896" y="-373.0333" font-family="Times,serif" font-size="16.00" fill="#ffffff">Une méthode</text>
</g>
<!-- a1&#45;&gt;b2 -->
<g id="edge2" class="edge">
<title>a1&#45;&gt;b2:n</title>
<path fill="none" stroke="#000000" d="M316.4539,-454.5839C342.588,-445.723 366.0171,-431.1365 371.1494,-407.1323"/>
<polygon fill="#000000" stroke="#000000" points="374.6431,-407.3734 372.1896,-397.0666 367.6802,-406.6538 374.6431,-407.3734"/>
</g>
<!-- b1&#45;&gt;b2 -->
<!-- c1 -->
<g id="node4" class="node">
<title>c1</title>
<polygon fill="#ffffff" stroke="#7f7f7f" points="183.7152,-323.8017 6.664,-323.8017 6.664,-276.9983 183.7152,-276.9983 183.7152,-323.8017"/>
<text text-anchor="middle" x="95.1896" y="-305.2" font-family="Times,serif" font-size="16.00" fill="#000000">Agir moralement, ce</text>
<text text-anchor="middle" x="95.1896" y="-286" font-family="Times,serif" font-size="16.00" fill="#000000">n&#39;est pas agir par intérêt</text>
</g>
<!-- b1&#45;&gt;c1 -->
<g id="edge4" class="edge">
<title>b1&#45;&gt;c1</title>
<path fill="none" stroke="#000000" d="M95.1896,-358.2936C95.1896,-350.9222 95.1896,-342.3099 95.1896,-334.0155"/>
<polygon fill="#000000" stroke="#000000" points="98.6897,-333.7966 95.1896,-323.7967 91.6897,-333.7967 98.6897,-333.7966"/>
</g>
<!-- c2 -->
<g id="node5" class="node">
<title>c2</title>
<polygon fill="#ffffff" stroke="#7f7f7f" points="446.7295,-323.8017 295.6497,-323.8017 295.6497,-276.9983 446.7295,-276.9983 446.7295,-323.8017"/>
<text text-anchor="middle" x="371.1896" y="-305.2" font-family="Times,serif" font-size="16.00" fill="#000000"></text>
<text text-anchor="middle" x="371.1896" y="-286" font-family="Times,serif" font-size="16.00" fill="#000000"></text>
</g>
<!-- b2&#45;&gt;c2 -->
<g id="edge5" class="edge">
<title>b2&#45;&gt;c2</title>
<path fill="none" stroke="#000000" d="M371.9373,-358.2936C371.8421,-350.9222 371.7308,-342.3099 371.6237,-334.0155"/>
<polygon fill="#000000" stroke="#000000" points="375.1207,-333.7506 371.4918,-323.7967 368.1213,-333.8411 375.1207,-333.7506"/>
</g>
<!-- c1&#45;&gt;c2 -->
<!-- e1 -->
<g id="node8" class="node">
<title>e1</title>
<path fill="#fafafa" stroke="transparent" d="M178.5692,-269.0012C178.5692,-269.0012 11.81,-269.0012 11.81,-269.0012 5.81,-269.0012 -.19,-263.0012 -.19,-257.0012 -.19,-257.0012 -.19,-215.7988 -.19,-215.7988 -.19,-209.7988 5.81,-203.7988 11.81,-203.7988 11.81,-203.7988 178.5692,-203.7988 178.5692,-203.7988 184.5692,-203.7988 190.5692,-209.7988 190.5692,-215.7988 190.5692,-215.7988 190.5692,-257.0012 190.5692,-257.0012 190.5692,-263.0012 184.5692,-269.0012 178.5692,-269.0012"/>
<text text-anchor="middle" x="95.1896" y="-250.8" font-family="Times,serif" font-size="16.00" fill="#cd2626"></text>
<text text-anchor="middle" x="95.1896" y="-231.6" font-family="Times,serif" font-size="16.00" fill="#cd2626"></text>
<text text-anchor="middle" x="95.1896" y="-212.4" font-family="Times,serif" font-size="16.00" fill="#cd2626"></text>
</g>
<!-- c1&#45;&gt;e1 -->
<!-- d1 -->
<g id="node6" class="node">
<title>d1</title>
<path fill="#ffffff" stroke="#7f7f7f" d="M311.9066,-177.5002C311.9066,-177.5002 126.4726,-177.5002 126.4726,-177.5002 120.4726,-177.5002 114.4726,-171.5002 114.4726,-165.5002 114.4726,-165.5002 114.4726,-104.8998 114.4726,-104.8998 114.4726,-98.8998 120.4726,-92.8998 126.4726,-92.8998 126.4726,-92.8998 311.9066,-92.8998 311.9066,-92.8998 317.9066,-92.8998 323.9066,-98.8998 323.9066,-104.8998 323.9066,-104.8998 323.9066,-165.5002 323.9066,-165.5002 323.9066,-171.5002 317.9066,-177.5002 311.9066,-177.5002"/>
<text text-anchor="middle" x="219.1896" y="-159.2" font-family="Times,serif" font-size="16.00" fill="#000000"></text>
<text text-anchor="middle" x="219.1896" y="-140" font-family="Times,serif" font-size="16.00" fill="#000000"></text>
<text text-anchor="middle" x="219.1896" y="-120.8" font-family="Times,serif" font-size="16.00" fill="#000000"></text>
<text text-anchor="middle" x="219.1896" y="-101.6" font-family="Times,serif" font-size="16.00" fill="#000000"></text>
</g>
<!-- c2&#45;&gt;d1 -->
<g id="edge7" class="edge">
<title>c2&#45;&gt;d1</title>
<path fill="none" stroke="#000000" d="M349.7341,-277.0813C327.8563,-253.3036 293.2333,-215.6738 265.1398,-185.1407"/>
<polygon fill="#000000" stroke="#000000" points="267.4965,-182.5328 258.1499,-177.5437 262.3452,-187.2725 267.4965,-182.5328"/>
</g>
<!-- d2 -->
<g id="node7" class="node">
<title>d2</title>
<path fill="#ffffff" stroke="#7f7f7f" d="M609.1208,-177.5002C609.1208,-177.5002 377.2584,-177.5002 377.2584,-177.5002 371.2584,-177.5002 365.2584,-171.5002 365.2584,-165.5002 365.2584,-165.5002 365.2584,-104.8998 365.2584,-104.8998 365.2584,-98.8998 371.2584,-92.8998 377.2584,-92.8998 377.2584,-92.8998 609.1208,-92.8998 609.1208,-92.8998 615.1208,-92.8998 621.1208,-98.8998 621.1208,-104.8998 621.1208,-104.8998 621.1208,-165.5002 621.1208,-165.5002 621.1208,-171.5002 615.1208,-177.5002 609.1208,-177.5002"/>
<text text-anchor="middle" x="493.1896" y="-159.2" font-family="Times,serif" font-size="16.00" fill="#000000"></text>
<text text-anchor="middle" x="493.1896" y="-140" font-family="Times,serif" font-size="16.00" fill="#000000"></text>
<text text-anchor="middle" x="493.1896" y="-120.8" font-family="Times,serif" font-size="16.00" fill="#000000"></text>
<text text-anchor="middle" x="493.1896" y="-101.6" font-family="Times,serif" font-size="16.00" fill="#000000"></text>
</g>
<!-- c2&#45;&gt;d2 -->
<g id="edge8" class="edge">
<title>c2&#45;&gt;d2</title>
<path fill="none" stroke="#000000" d="M388.4105,-277.0813C405.8214,-253.5051 433.2895,-216.3106 455.7341,-185.9184"/>
<polygon fill="#000000" stroke="#000000" points="458.7937,-187.6671 461.9189,-177.5437 453.1627,-183.5086 458.7937,-187.6671"/>
</g>
<!-- d1&#45;&gt;d2 -->
<!-- e2 -->
<g id="node9" class="node">
<title>e2</title>
<path fill="#fafafa" stroke="transparent" d="M346.662,-75.0012C346.662,-75.0012 89.7172,-75.0012 89.7172,-75.0012 83.7172,-75.0012 77.7172,-69.0012 77.7172,-63.0012 77.7172,-63.0012 77.7172,-21.7988 77.7172,-21.7988 77.7172,-15.7988 83.7172,-9.7988 89.7172,-9.7988 89.7172,-9.7988 346.662,-9.7988 346.662,-9.7988 352.662,-9.7988 358.662,-15.7988 358.662,-21.7988 358.662,-21.7988 358.662,-63.0012 358.662,-63.0012 358.662,-69.0012 352.662,-75.0012 346.662,-75.0012"/>
<text text-anchor="middle" x="218.1896" y="-56.8" font-family="Times,serif" font-size="16.00" fill="#cd2626"></text>
<text text-anchor="middle" x="218.1896" y="-37.6" font-family="Times,serif" font-size="16.00" fill="#cd2626"></text>
<text text-anchor="middle" x="218.1896" y="-18.4" font-family="Times,serif" font-size="16.00" fill="#cd2626"></text>
</g>
<!-- d1&#45;&gt;e2 -->
<!-- e3 -->
<g id="node10" class="node">
<title>e3</title>
<path fill="#fafafa" stroke="transparent" d="M593.0611,-84.7002C593.0611,-84.7002 397.3181,-84.7002 397.3181,-84.7002 391.3181,-84.7002 385.3181,-78.7002 385.3181,-72.7002 385.3181,-72.7002 385.3181,-12.0998 385.3181,-12.0998 385.3181,-6.0998 391.3181,-.0998 397.3181,-.0998 397.3181,-.0998 593.0611,-.0998 593.0611,-.0998 599.0611,-.0998 605.0611,-6.0998 605.0611,-12.0998 605.0611,-12.0998 605.0611,-72.7002 605.0611,-72.7002 605.0611,-78.7002 599.0611,-84.7002 593.0611,-84.7002"/>
<text text-anchor="middle" x="495.1896" y="-66.4" font-family="Times,serif" font-size="16.00" fill="#cd2626"></text>
<text text-anchor="middle" x="495.1896" y="-47.2" font-family="Times,serif" font-size="16.00" fill="#cd2626"></text>
<text text-anchor="middle" x="495.1896" y="-28" font-family="Times,serif" font-size="16.00" fill="#cd2626"></text>
<text text-anchor="middle" x="495.1896" y="-8.8" font-family="Times,serif" font-size="16.00" fill="#cd2626"></text>
</g>
<!-- d2&#45;&gt;e3 -->
<!-- e2&#45;&gt;e3 -->
</g>
</svg>
