<?xml version="1.0" encoding="UTF-8" standalone="no"?>
<!DOCTYPE svg PUBLIC "-//W3C//DTD SVG 1.1//EN"
 "http://www.w3.org/Graphics/SVG/1.1/DTD/svg11.dtd">
<!-- Generated by graphviz version 2.40.1 (20161225.0304)
 -->
<!-- Title: G Pages: 1 -->
<svg width="588pt" height="568pt"
 viewBox="0.00 0.00 588.24 567.53" xmlns="http://www.w3.org/2000/svg" xmlns:xlink="http://www.w3.org/1999/xlink">
<g id="graph0" class="graph" transform="scale(1 1) rotate(0) translate(21.6 545.933)">
<title>G</title>
<polygon fill="#fafafa" stroke="transparent" points="-21.6,21.6 -21.6,-545.933 566.636,-545.933 566.636,21.6 -21.6,21.6"/>
<!-- a1 -->
<g id="node1" class="node">
<title>a1</title>
<ellipse fill="#000000" stroke="#000000" cx="283.616" cy="-488.1292" rx="81.44" ry="36.4089"/>
<text text-anchor="middle" x="283.616" y="-493.5292" font-family="Times,serif" font-size="18.00" fill="#ffffff">La pitié selon</text>
<text text-anchor="middle" x="283.616" y="-471.9292" font-family="Times,serif" font-size="18.00" fill="#ffffff">Rousseau</text>
</g>
<!-- b1 -->
<g id="node2" class="node">
<title>b1</title>
<ellipse fill="#8b0000" stroke="#000000" cx="123.616" cy="-356.9627" rx="65.0692" ry="46.2727"/>
<text text-anchor="middle" x="123.616" y="-371.3627" font-family="Times,serif" font-size="16.00" fill="#ffffff">= une</text>
<text text-anchor="middle" x="123.616" y="-352.1627" font-family="Times,serif" font-size="16.00" fill="#ffffff">disposition</text>
<text text-anchor="middle" x="123.616" y="-332.9627" font-family="Times,serif" font-size="16.00" fill="#ffffff">naturelle …</text>
</g>
<!-- a1&#45;&gt;b1 -->
<g id="edge1" class="edge">
<title>a1&#45;&gt;b1:n</title>
<path fill="none" stroke="#000000" d="M205.9595,-476.8101C168.6971,-466.9234 130.7562,-448.4682 124.5103,-414.088"/>
<polygon fill="#000000" stroke="#000000" points="127.9823,-413.6159 123.616,-403.9627 121.0094,-414.2318 127.9823,-413.6159"/>
</g>
<!-- b2 -->
<g id="node3" class="node">
<title>b2</title>
<ellipse fill="#8b0000" stroke="#000000" cx="283.616" cy="-356.9627" rx="75.7261" ry="46.2727"/>
<text text-anchor="middle" x="283.616" y="-371.3627" font-family="Times,serif" font-size="16.00" fill="#ffffff">… à éprouver</text>
<text text-anchor="middle" x="283.616" y="-352.1627" font-family="Times,serif" font-size="16.00" fill="#ffffff">la souffrance</text>
<text text-anchor="middle" x="283.616" y="-332.9627" font-family="Times,serif" font-size="16.00" fill="#ffffff">d&#39;autrui …</text>
</g>
<!-- a1&#45;&gt;b2 -->
<g id="edge2" class="edge">
<title>a1&#45;&gt;b2:n</title>
<path fill="none" stroke="#000000" d="M283.616,-451.6583C283.616,-439.764 283.616,-426.264 283.616,-413.2527"/>
<polygon fill="#000000" stroke="#000000" points="287.1161,-412.9626 283.616,-402.9627 280.1161,-412.9627 287.1161,-412.9626"/>
</g>
<!-- b3 -->
<g id="node4" class="node">
<title>b3</title>
<ellipse fill="#8b0000" stroke="#000000" cx="455.616" cy="-356.9627" rx="82.0103" ry="59.9253"/>
<text text-anchor="middle" x="455.616" y="-380.9627" font-family="Times,serif" font-size="16.00" fill="#ffffff">… qui permet</text>
<text text-anchor="middle" x="455.616" y="-361.7627" font-family="Times,serif" font-size="16.00" fill="#ffffff">de comprendre</text>
<text text-anchor="middle" x="455.616" y="-342.5627" font-family="Times,serif" font-size="16.00" fill="#ffffff">notre commune</text>
<text text-anchor="middle" x="455.616" y="-323.3627" font-family="Times,serif" font-size="16.00" fill="#ffffff">vulnérabilité</text>
</g>
<!-- a1&#45;&gt;b3 -->
<g id="edge3" class="edge">
<title>a1&#45;&gt;b3:n</title>
<path fill="none" stroke="#000000" d="M356.5595,-471.726C396.6627,-460.8362 440.644,-445.148 452.5197,-426.5761"/>
<polygon fill="#000000" stroke="#000000" points="455.8936,-427.5165 455.616,-416.9253 449.2283,-425.378 455.8936,-427.5165"/>
</g>
<!-- c1 -->
<g id="node5" class="node">
<title>c1</title>
<polygon fill="#ffffff" stroke="#7f7f7f" points="201.3481,-262.1001 -.1161,-262.1001 -.1161,-119.6999 201.3481,-119.6999 201.3481,-262.1001"/>
<text text-anchor="middle" x="100.616" y="-243.6" font-family="Times,serif" font-size="16.00" fill="#000000">= une disposition innée</text>
<text text-anchor="middle" x="100.616" y="-224.4" font-family="Times,serif" font-size="16.00" fill="#000000">≠ une disposition acquise</text>
<text text-anchor="middle" x="100.616" y="-205.2" font-family="Times,serif" font-size="16.00" fill="#000000">en société, par apprentissage</text>
<text text-anchor="middle" x="100.616" y="-167" font-family="Times,serif" font-size="16.00" fill="#000000">= une disposition universelle</text>
<text text-anchor="middle" x="100.616" y="-147.8" font-family="Times,serif" font-size="16.00" fill="#000000">≠ une disposition relative</text>
<text text-anchor="middle" x="100.616" y="-128.6" font-family="Times,serif" font-size="16.00" fill="#000000">à une société particulière</text>
</g>
<!-- b1&#45;&gt;c1 -->
<g id="edge4" class="edge">
<title>b1&#45;&gt;c1</title>
<path fill="none" stroke="#000000" d="M117.2092,-310.7049C115.5463,-298.6982 113.7052,-285.4058 111.8725,-272.173"/>
<polygon fill="#000000" stroke="#000000" points="115.3146,-271.513 110.4756,-262.0877 108.3807,-272.4734 115.3146,-271.513"/>
</g>
<!-- c2 -->
<g id="node6" class="node">
<title>c2</title>
<polygon fill="#ffffff" stroke="#7f7f7f" points="364.2985,-262.1001 214.9335,-262.1001 214.9335,-119.6999 364.2985,-119.6999 364.2985,-262.1001"/>
<text text-anchor="middle" x="289.616" y="-243.6" font-family="Times,serif" font-size="16.00" fill="#000000">= un sentiment</text>
<text text-anchor="middle" x="289.616" y="-224.4" font-family="Times,serif" font-size="16.00" fill="#000000">≠ un raisonnement</text>
<text text-anchor="middle" x="289.616" y="-186.2" font-family="Times,serif" font-size="16.00" fill="#000000">= une réaction à une</text>
<text text-anchor="middle" x="289.616" y="-167" font-family="Times,serif" font-size="16.00" fill="#000000">situation concrète</text>
<text text-anchor="middle" x="289.616" y="-147.8" font-family="Times,serif" font-size="16.00" fill="#000000">≠ une réflexion</text>
<text text-anchor="middle" x="289.616" y="-128.6" font-family="Times,serif" font-size="16.00" fill="#000000">abstraite</text>
</g>
<!-- b2&#45;&gt;c2 -->
<g id="edge5" class="edge">
<title>b2&#45;&gt;c2</title>
<path fill="none" stroke="#000000" d="M285.3033,-310.263C285.73,-298.4544 286.2007,-285.4245 286.6698,-272.4431"/>
<polygon fill="#000000" stroke="#000000" points="290.1812,-272.1869 287.0447,-262.067 283.1858,-271.9341 290.1812,-272.1869"/>
</g>
<!-- c3 -->
<g id="node7" class="node">
<title>c3</title>
<polygon fill="#ffffff" stroke="#7f7f7f" points="522.0936,-242.9 389.1384,-242.9 389.1384,-138.9 522.0936,-138.9 522.0936,-242.9"/>
<text text-anchor="middle" x="455.616" y="-224.5" font-family="Times,serif" font-size="16.00" fill="#000000">= une manière de</text>
<text text-anchor="middle" x="455.616" y="-205.3" font-family="Times,serif" font-size="16.00" fill="#000000">se mettre à la</text>
<text text-anchor="middle" x="455.616" y="-186.1" font-family="Times,serif" font-size="16.00" fill="#000000">place d&#39;autrui</text>
<text text-anchor="middle" x="455.616" y="-166.9" font-family="Times,serif" font-size="16.00" fill="#000000">≠ se mettre</text>
<text text-anchor="middle" x="455.616" y="-147.7" font-family="Times,serif" font-size="16.00" fill="#000000">à distance</text>
</g>
<!-- b3&#45;&gt;c3 -->
<g id="edge6" class="edge">
<title>b3&#45;&gt;c3</title>
<path fill="none" stroke="#000000" d="M455.616,-296.5405C455.616,-282.4364 455.616,-267.3903 455.616,-253.2062"/>
<polygon fill="#000000" stroke="#000000" points="459.1161,-253.0561 455.616,-243.0561 452.1161,-253.0561 459.1161,-253.0561"/>
</g>
<!-- d1 -->
<g id="node8" class="node">
<title>d1</title>
<path fill="#ffffff" stroke="#7f7f7f" d="M158.5744,-65.8017C158.5744,-65.8017 42.6576,-65.8017 42.6576,-65.8017 36.6576,-65.8017 30.6576,-59.8017 30.6576,-53.8017 30.6576,-53.8017 30.6576,-30.9983 30.6576,-30.9983 30.6576,-24.9983 36.6576,-18.9983 42.6576,-18.9983 42.6576,-18.9983 158.5744,-18.9983 158.5744,-18.9983 164.5744,-18.9983 170.5744,-24.9983 170.5744,-30.9983 170.5744,-30.9983 170.5744,-53.8017 170.5744,-53.8017 170.5744,-59.8017 164.5744,-65.8017 158.5744,-65.8017"/>
<text text-anchor="middle" x="100.616" y="-47.2" font-family="Times,serif" font-size="16.00" fill="#000000">⇒ critique du</text>
<text text-anchor="middle" x="100.616" y="-28" font-family="Times,serif" font-size="16.00" fill="#000000">relativisme culturel</text>
</g>
<!-- c1&#45;&gt;d1 -->
<g id="edge7" class="edge">
<title>c1&#45;&gt;d1</title>
<path fill="none" stroke="#000000" d="M100.616,-119.6947C100.616,-104.4584 100.616,-89.0509 100.616,-76.0442"/>
<polygon fill="#000000" stroke="#000000" points="104.1161,-75.7396 100.616,-65.7397 97.1161,-75.7397 104.1161,-75.7396"/>
</g>
<!-- d2 -->
<g id="node9" class="node">
<title>d2</title>
<path fill="#ffffff" stroke="#7f7f7f" d="M333.9641,-65.8017C333.9641,-65.8017 245.2679,-65.8017 245.2679,-65.8017 239.2679,-65.8017 233.2679,-59.8017 233.2679,-53.8017 233.2679,-53.8017 233.2679,-30.9983 233.2679,-30.9983 233.2679,-24.9983 239.2679,-18.9983 245.2679,-18.9983 245.2679,-18.9983 333.9641,-18.9983 333.9641,-18.9983 339.9641,-18.9983 345.9641,-24.9983 345.9641,-30.9983 345.9641,-30.9983 345.9641,-53.8017 345.9641,-53.8017 345.9641,-59.8017 339.9641,-65.8017 333.9641,-65.8017"/>
<text text-anchor="middle" x="289.616" y="-47.2" font-family="Times,serif" font-size="16.00" fill="#000000">⇒ critique de</text>
<text text-anchor="middle" x="289.616" y="-28" font-family="Times,serif" font-size="16.00" fill="#000000">la froide raison</text>
</g>
<!-- c2&#45;&gt;d2 -->
<g id="edge8" class="edge">
<title>c2&#45;&gt;d2</title>
<path fill="none" stroke="#000000" d="M289.616,-119.6947C289.616,-104.4584 289.616,-89.0509 289.616,-76.0442"/>
<polygon fill="#000000" stroke="#000000" points="293.1161,-75.7396 289.616,-65.7397 286.1161,-75.7397 293.1161,-75.7396"/>
</g>
<!-- d3 -->
<g id="node10" class="node">
<title>d3</title>
<path fill="#ffffff" stroke="#7f7f7f" d="M532.9561,-84.7002C532.9561,-84.7002 378.2759,-84.7002 378.2759,-84.7002 372.2759,-84.7002 366.2759,-78.7002 366.2759,-72.7002 366.2759,-72.7002 366.2759,-12.0998 366.2759,-12.0998 366.2759,-6.0998 372.2759,-.0998 378.2759,-.0998 378.2759,-.0998 532.9561,-.0998 532.9561,-.0998 538.9561,-.0998 544.9561,-6.0998 544.9561,-12.0998 544.9561,-12.0998 544.9561,-72.7002 544.9561,-72.7002 544.9561,-78.7002 538.9561,-84.7002 532.9561,-84.7002"/>
<text text-anchor="middle" x="455.616" y="-66.4" font-family="Times,serif" font-size="16.00" fill="#000000">⇒ critique de ce qui</text>
<text text-anchor="middle" x="455.616" y="-47.2" font-family="Times,serif" font-size="16.00" fill="#000000">socialement nous éloigne</text>
<text text-anchor="middle" x="455.616" y="-28" font-family="Times,serif" font-size="16.00" fill="#000000">des autres et conduit</text>
<text text-anchor="middle" x="455.616" y="-8.8" font-family="Times,serif" font-size="16.00" fill="#000000">chacun à un repli sur soi </text>
</g>
<!-- c3&#45;&gt;d3 -->
<g id="edge9" class="edge">
<title>c3&#45;&gt;d3</title>
<path fill="none" stroke="#000000" d="M455.616,-138.5445C455.616,-124.4336 455.616,-109.1641 455.616,-95.0379"/>
<polygon fill="#000000" stroke="#000000" points="459.1161,-94.9867 455.616,-84.9868 452.1161,-94.9868 459.1161,-94.9867"/>
</g>
</g>
</svg>
