<?xml version="1.0" encoding="UTF-8" standalone="no"?><!DOCTYPE svg PUBLIC "-//W3C//DTD SVG 1.1//EN" "http://www.w3.org/Graphics/SVG/1.1/DTD/svg11.dtd"><!-- Generated by graphviz version 2.40.1 (20161225.0304)
 --><!-- Title: G Pages: 1 --><svg xmlns="http://www.w3.org/2000/svg" xmlns:xlink="http://www.w3.org/1999/xlink" width="578pt" height="548pt" viewBox="0.00 0.00 577.82 548.33">
<g id="graph0" class="graph" transform="scale(1 1) rotate(0) translate(21.6 526.733)">
<title>G</title>
<polygon fill="#fafafa" stroke="transparent" points="-21.6,21.6 -21.6,-526.733 556.2212,-526.733 556.2212,21.6 -21.6,21.6"/>
<!-- a1 -->
<g id="node1" class="node">
<title>a1</title>
<ellipse fill="#000000" stroke="#000000" cx="280.616" cy="-468.9292" rx="81.44" ry="36.4089"/>
<text text-anchor="middle" x="280.616" y="-474.3292" font-family="Times,serif" font-size="18.00" fill="#ffffff">La pitié selon</text>
<text text-anchor="middle" x="280.616" y="-452.7292" font-family="Times,serif" font-size="18.00" fill="#ffffff">Rousseau</text>
</g>
<!-- b1 -->
<g id="node2" class="node">
<title>b1</title>
<ellipse fill="#8b0000" stroke="#000000" cx="121.616" cy="-337.7627" rx="65.0692" ry="46.2727"/>
<text text-anchor="middle" x="121.616" y="-352.1627" font-family="Times,serif" font-size="16.00" fill="#ffffff">= une</text>
<text text-anchor="middle" x="121.616" y="-332.9627" font-family="Times,serif" font-size="16.00" fill="#ffffff">disposition</text>
<text text-anchor="middle" x="121.616" y="-313.7627" font-family="Times,serif" font-size="16.00" fill="#ffffff">naturelle …</text>
</g>
<!-- a1&#45;&gt;b1 -->
<g id="edge1" class="edge">
<title>a1-&gt;b1:n</title>
<path fill="none" stroke="#000000" d="M202.9791,-457.3403C166.0864,-447.3727 128.6585,-428.912 122.498,-394.8038"/>
<polygon fill="#000000" stroke="#000000" points="125.9777,-394.418 121.616,-384.7627 119.0045,-395.0306 125.9777,-394.418"/>
</g>
<!-- b2 -->
<g id="node3" class="node">
<title>b2</title>
<ellipse fill="#8b0000" stroke="#000000" cx="280.616" cy="-337.7627" rx="75.7261" ry="46.2727"/>
<text text-anchor="middle" x="280.616" y="-352.1627" font-family="Times,serif" font-size="16.00" fill="#ffffff">… à éprouver</text>
<text text-anchor="middle" x="280.616" y="-332.9627" font-family="Times,serif" font-size="16.00" fill="#ffffff">la souffrance</text>
<text text-anchor="middle" x="280.616" y="-313.7627" font-family="Times,serif" font-size="16.00" fill="#ffffff">d'autrui …</text>
</g>
<!-- a1&#45;&gt;b2 -->
<g id="edge2" class="edge">
<title>a1-&gt;b2:n</title>
<path fill="none" stroke="#000000" d="M280.616,-432.4583C280.616,-420.564 280.616,-407.064 280.616,-394.0527"/>
<polygon fill="#000000" stroke="#000000" points="284.1161,-393.7626 280.616,-383.7627 277.1161,-393.7627 284.1161,-393.7626"/>
</g>
<!-- b3 -->
<g id="node4" class="node">
<title>b3</title>
<ellipse fill="#8b0000" stroke="#000000" cx="452.616" cy="-337.7627" rx="82.0103" ry="59.9253"/>
<text text-anchor="middle" x="452.616" y="-361.7627" font-family="Times,serif" font-size="16.00" fill="#ffffff">… qui permet</text>
<text text-anchor="middle" x="452.616" y="-342.5627" font-family="Times,serif" font-size="16.00" fill="#ffffff">de comprendre</text>
<text text-anchor="middle" x="452.616" y="-323.3627" font-family="Times,serif" font-size="16.00" fill="#ffffff">notre commune</text>
<text text-anchor="middle" x="452.616" y="-304.1627" font-family="Times,serif" font-size="16.00" fill="#ffffff">vulnérabilité</text>
</g>
<!-- a1&#45;&gt;b3 -->
<g id="edge3" class="edge">
<title>a1-&gt;b3:n</title>
<path fill="none" stroke="#000000" d="M353.5595,-452.526C393.6627,-441.6362 437.644,-425.948 449.5197,-407.3761"/>
<polygon fill="#000000" stroke="#000000" points="452.8936,-408.3165 452.616,-397.7253 446.2283,-406.178 452.8936,-408.3165"/>
</g>
<!-- c1 -->
<g id="node5" class="node">
<title>c1</title>
<polygon fill="#ffffff" stroke="#7f7f7f" points="201.3481,-242.9001 -.1161,-242.9001 -.1161,-100.4999 201.3481,-100.4999 201.3481,-242.9001"/>
<text text-anchor="middle" x="100.616" y="-224.4" font-family="Times,serif" font-size="16.00" fill="#000000">= une disposition innée</text>
<text text-anchor="middle" x="100.616" y="-205.2" font-family="Times,serif" font-size="16.00" fill="#000000">≠ une disposition acquise</text>
<text text-anchor="middle" x="100.616" y="-186" font-family="Times,serif" font-size="16.00" fill="#000000">en société, par apprentissage</text>
<text text-anchor="middle" x="100.616" y="-147.8" font-family="Times,serif" font-size="16.00" fill="#000000">= une disposition universelle</text>
<text text-anchor="middle" x="100.616" y="-128.6" font-family="Times,serif" font-size="16.00" fill="#000000">≠ une disposition relative</text>
<text text-anchor="middle" x="100.616" y="-109.4" font-family="Times,serif" font-size="16.00" fill="#000000">à une société particulière</text>
</g>
<!-- b1&#45;&gt;c1 -->
<g id="edge4" class="edge">
<title>b1-&gt;c1</title>
<path fill="none" stroke="#000000" d="M115.7663,-291.5049C114.248,-279.4982 112.567,-266.2058 110.8936,-252.973"/>
<polygon fill="#000000" stroke="#000000" points="114.3453,-252.3696 109.6183,-242.8877 107.4006,-253.2479 114.3453,-252.3696"/>
</g>
<!-- c2 -->
<g id="node6" class="node">
<title>c2</title>
<polygon fill="#ffffff" stroke="#7f7f7f" points="364.2985,-242.9001 214.9335,-242.9001 214.9335,-100.4999 364.2985,-100.4999 364.2985,-242.9001"/>
<text text-anchor="middle" x="289.616" y="-224.4" font-family="Times,serif" font-size="16.00" fill="#000000">= un sentiment</text>
<text text-anchor="middle" x="289.616" y="-205.2" font-family="Times,serif" font-size="16.00" fill="#000000">≠ un raisonnement</text>
<text text-anchor="middle" x="289.616" y="-167" font-family="Times,serif" font-size="16.00" fill="#000000">= une réaction à une</text>
<text text-anchor="middle" x="289.616" y="-147.8" font-family="Times,serif" font-size="16.00" fill="#000000">situation concrète</text>
<text text-anchor="middle" x="289.616" y="-128.6" font-family="Times,serif" font-size="16.00" fill="#000000">≠ une réflexion</text>
<text text-anchor="middle" x="289.616" y="-109.4" font-family="Times,serif" font-size="16.00" fill="#000000">abstraite</text>
</g>
<!-- b2&#45;&gt;c2 -->
<g id="edge5" class="edge">
<title>b2-&gt;c2</title>
<path fill="none" stroke="#000000" d="M283.147,-291.063C283.7933,-279.1375 284.5071,-265.9664 285.2176,-252.8576"/>
<polygon fill="#000000" stroke="#000000" points="288.7126,-253.0418 285.759,-242.867 281.7229,-252.6629 288.7126,-253.0418"/>
</g>
<!-- c3 -->
<g id="node7" class="node">
<title>c3</title>
<polygon fill="#ffffff" stroke="#7f7f7f" points="519.0936,-223.7 386.1384,-223.7 386.1384,-119.7 519.0936,-119.7 519.0936,-223.7"/>
<text text-anchor="middle" x="452.616" y="-205.3" font-family="Times,serif" font-size="16.00" fill="#000000">= une manière de</text>
<text text-anchor="middle" x="452.616" y="-186.1" font-family="Times,serif" font-size="16.00" fill="#000000">se mettre à la</text>
<text text-anchor="middle" x="452.616" y="-166.9" font-family="Times,serif" font-size="16.00" fill="#000000">place d'autrui</text>
<text text-anchor="middle" x="452.616" y="-147.7" font-family="Times,serif" font-size="16.00" fill="#000000">≠ se mettre à</text>
<text text-anchor="middle" x="452.616" y="-128.5" font-family="Times,serif" font-size="16.00" fill="#000000">distance d'autrui</text>
</g>
<!-- b3&#45;&gt;c3 -->
<g id="edge6" class="edge">
<title>b3-&gt;c3</title>
<path fill="none" stroke="#000000" d="M452.616,-277.3405C452.616,-263.2364 452.616,-248.1903 452.616,-234.0062"/>
<polygon fill="#000000" stroke="#000000" points="456.1161,-233.8561 452.616,-223.8561 449.1161,-233.8561 456.1161,-233.8561"/>
</g>
<!-- d1 -->
<g id="node8" class="node">
<title>d1</title>
<path fill="#ffffff" stroke="#7f7f7f" d="M158.5744,-56.2017C158.5744,-56.2017 42.6576,-56.2017 42.6576,-56.2017 36.6576,-56.2017 30.6576,-50.2017 30.6576,-44.2017 30.6576,-44.2017 30.6576,-21.3983 30.6576,-21.3983 30.6576,-15.3983 36.6576,-9.3983 42.6576,-9.3983 42.6576,-9.3983 158.5744,-9.3983 158.5744,-9.3983 164.5744,-9.3983 170.5744,-15.3983 170.5744,-21.3983 170.5744,-21.3983 170.5744,-44.2017 170.5744,-44.2017 170.5744,-50.2017 164.5744,-56.2017 158.5744,-56.2017"/>
<text text-anchor="middle" x="100.616" y="-37.6" font-family="Times,serif" font-size="16.00" fill="#000000">⇒ critique du</text>
<text text-anchor="middle" x="100.616" y="-18.4" font-family="Times,serif" font-size="16.00" fill="#000000">relativisme culturel</text>
</g>
<!-- c1&#45;&gt;d1 -->
<g id="edge7" class="edge">
<title>c1-&gt;d1</title>
<path fill="none" stroke="#000000" d="M100.616,-100.2156C100.616,-88.3752 100.616,-76.6138 100.616,-66.3094"/>
<polygon fill="#000000" stroke="#000000" points="104.1161,-66.1564 100.616,-56.1564 97.1161,-66.1565 104.1161,-66.1564"/>
</g>
<!-- d2 -->
<g id="node9" class="node">
<title>d2</title>
<path fill="#ffffff" stroke="#7f7f7f" d="M333.9641,-56.2017C333.9641,-56.2017 245.2679,-56.2017 245.2679,-56.2017 239.2679,-56.2017 233.2679,-50.2017 233.2679,-44.2017 233.2679,-44.2017 233.2679,-21.3983 233.2679,-21.3983 233.2679,-15.3983 239.2679,-9.3983 245.2679,-9.3983 245.2679,-9.3983 333.9641,-9.3983 333.9641,-9.3983 339.9641,-9.3983 345.9641,-15.3983 345.9641,-21.3983 345.9641,-21.3983 345.9641,-44.2017 345.9641,-44.2017 345.9641,-50.2017 339.9641,-56.2017 333.9641,-56.2017"/>
<text text-anchor="middle" x="289.616" y="-37.6" font-family="Times,serif" font-size="16.00" fill="#000000">⇒ critique de</text>
<text text-anchor="middle" x="289.616" y="-18.4" font-family="Times,serif" font-size="16.00" fill="#000000">la froide raison</text>
</g>
<!-- c2&#45;&gt;d2 -->
<g id="edge8" class="edge">
<title>c2-&gt;d2</title>
<path fill="none" stroke="#000000" d="M289.616,-100.2156C289.616,-88.3752 289.616,-76.6138 289.616,-66.3094"/>
<polygon fill="#000000" stroke="#000000" points="293.1161,-66.1564 289.616,-56.1564 286.1161,-66.1565 293.1161,-66.1564"/>
</g>
<!-- d3 -->
<g id="node10" class="node">
<title>d3</title>
<path fill="#ffffff" stroke="#7f7f7f" d="M517.7357,-65.4012C517.7357,-65.4012 387.4963,-65.4012 387.4963,-65.4012 381.4963,-65.4012 375.4963,-59.4012 375.4963,-53.4012 375.4963,-53.4012 375.4963,-12.1988 375.4963,-12.1988 375.4963,-6.1988 381.4963,-.1988 387.4963,-.1988 387.4963,-.1988 517.7357,-.1988 517.7357,-.1988 523.7357,-.1988 529.7357,-6.1988 529.7357,-12.1988 529.7357,-12.1988 529.7357,-53.4012 529.7357,-53.4012 529.7357,-59.4012 523.7357,-65.4012 517.7357,-65.4012"/>
<text text-anchor="middle" x="452.616" y="-47.2" font-family="Times,serif" font-size="16.00" fill="#000000">⇒ critique des formes</text>
<text text-anchor="middle" x="452.616" y="-28" font-family="Times,serif" font-size="16.00" fill="#000000">de mise à distance</text>
<text text-anchor="middle" x="452.616" y="-8.8" font-family="Times,serif" font-size="16.00" fill="#000000">sociale d'autrui</text>
</g>
<!-- c3&#45;&gt;d3 -->
<g id="edge9" class="edge">
<title>c3-&gt;d3</title>
<path fill="none" stroke="#000000" d="M452.616,-119.5836C452.616,-105.1066 452.616,-89.5562 452.616,-75.6741"/>
<polygon fill="#000000" stroke="#000000" points="456.1161,-75.4289 452.616,-65.4289 449.1161,-75.429 456.1161,-75.4289"/>
</g>
</g>
</svg>