<?xml version="1.0" encoding="UTF-8" standalone="no"?><!DOCTYPE svg PUBLIC "-//W3C//DTD SVG 1.1//EN" "http://www.w3.org/Graphics/SVG/1.1/DTD/svg11.dtd"><!-- Generated by graphviz version 2.40.1 (20161225.0304)
 --><!-- Title: G Pages: 1 --><svg xmlns="http://www.w3.org/2000/svg" xmlns:xlink="http://www.w3.org/1999/xlink" width="1282pt" height="846pt" viewBox="0.00 0.00 1281.50 845.58">
<g id="graph0" class="graph" transform="scale(1 1) rotate(0) translate(21.6 823.9801)">
<title>G</title>
<polygon fill="#fafafa" stroke="transparent" points="-21.6,21.6 -21.6,-823.9801 1259.9018,-823.9801 1259.9018,21.6 -21.6,21.6"/>
<!-- a1 -->
<g id="node1" class="node">
<title>a1</title>
<ellipse fill="#000000" stroke="#000000" cx="455.1114" cy="-766.1763" rx="114.2752" ry="36.4089"/>
<text text-anchor="middle" x="455.1114" y="-771.5763" font-family="Times,serif" font-size="18.00" fill="#ffffff">Peut-on réduire</text>
<text text-anchor="middle" x="455.1114" y="-749.9763" font-family="Times,serif" font-size="18.00" fill="#ffffff">l'esprit au cerveau ?</text>
</g>
<!-- b1 -->
<g id="node2" class="node">
<title>b1</title>
<ellipse fill="#8b0000" stroke="#000000" cx="107.1114" cy="-614.7862" rx="107.2229" ry="46.2727"/>
<text text-anchor="middle" x="107.1114" y="-629.1862" font-family="Times,serif" font-size="16.00" fill="#ffffff">L'esprit et le cerveau</text>
<text text-anchor="middle" x="107.1114" y="-609.9862" font-family="Times,serif" font-size="16.00" fill="#ffffff">semblent être deux</text>
<text text-anchor="middle" x="107.1114" y="-590.7862" font-family="Times,serif" font-size="16.00" fill="#ffffff">réalités distinctes</text>
</g>
<!-- a1&#45;&gt;b1 -->
<g id="edge1" class="edge">
<title>a1-&gt;b1:n</title>
<path fill="none" stroke="#000000" d="M346.9096,-754.5156C251.7368,-741.3723 125.7638,-715.7941 108.9857,-671.2796"/>
<polygon fill="#000000" stroke="#000000" points="112.3761,-670.3666 107.1114,-661.1724 105.4935,-671.643 112.3761,-670.3666"/>
<text text-anchor="middle" x="155.6114" y="-691.3724" font-family="Times,serif" font-size="14.00" fill="#7f7f7f">non</text>
</g>
<!-- b2 -->
<g id="node3" class="node">
<title>b2</title>
<ellipse fill="#8b0000" stroke="#000000" cx="455.1114" cy="-614.7862" rx="113.9422" ry="46.2727"/>
<text text-anchor="middle" x="455.1114" y="-629.1862" font-family="Times,serif" font-size="16.00" fill="#ffffff">Il semble préférable</text>
<text text-anchor="middle" x="455.1114" y="-609.9862" font-family="Times,serif" font-size="16.00" fill="#ffffff">de comprendre l'esprit</text>
<text text-anchor="middle" x="455.1114" y="-590.7862" font-family="Times,serif" font-size="16.00" fill="#ffffff">à partir du cerveau</text>
</g>
<!-- a1&#45;&gt;b2 -->
<g id="edge2" class="edge">
<title>a1-&gt;b2:n</title>
<path fill="none" stroke="#000000" d="M455.1114,-729.7299C455.1114,-712.4484 455.1114,-691.2386 455.1114,-671.2026"/>
<polygon fill="#000000" stroke="#000000" points="458.6115,-671.1724 455.1114,-661.1724 451.6115,-671.1724 458.6115,-671.1724"/>
<text text-anchor="middle" x="465.0567" y="-691.3724" font-family="Times,serif" font-size="14.00" fill="#7f7f7f">oui</text>
</g>
<!-- b3 -->
<g id="node4" class="node">
<title>b3</title>
<ellipse fill="#8b0000" stroke="#000000" cx="801.1114" cy="-614.7862" rx="79.0005" ry="46.2727"/>
<text text-anchor="middle" x="801.1114" y="-629.1862" font-family="Times,serif" font-size="16.00" fill="#ffffff">On ne peut pas</text>
<text text-anchor="middle" x="801.1114" y="-609.9862" font-family="Times,serif" font-size="16.00" fill="#ffffff">réduire l'esprit</text>
<text text-anchor="middle" x="801.1114" y="-590.7862" font-family="Times,serif" font-size="16.00" fill="#ffffff">au cerveau</text>
</g>
<!-- a1&#45;&gt;b3 -->
<g id="edge3" class="edge">
<title>a1-&gt;b3:n</title>
<path fill="none" stroke="#000000" d="M563.1647,-754.3388C657.7452,-741.0927 782.6225,-715.4564 799.2536,-671.2142"/>
<polygon fill="#000000" stroke="#000000" points="802.7337,-671.6423 801.1114,-661.1724 795.8505,-670.3688 802.7337,-671.6423"/>
<text text-anchor="middle" x="797.6114" y="-691.3724" font-family="Times,serif" font-size="14.00" fill="#7f7f7f">non</text>
</g>
<!-- c1 -->
<g id="node5" class="node">
<title>c1</title>
<polygon fill="#ffffff" stroke="#7f7f7f" points="165.9045,-515.6006 36.3183,-515.6006 36.3183,-372.7994 165.9045,-372.7994 165.9045,-515.6006"/>
<text text-anchor="middle" x="101.1114" y="-497" font-family="Times,serif" font-size="16.00" fill="#000000">… parce que les</text>
<text text-anchor="middle" x="101.1114" y="-477.8" font-family="Times,serif" font-size="16.00" fill="#000000">propriétés d'un</text>
<text text-anchor="middle" x="101.1114" y="-458.6" font-family="Times,serif" font-size="16.00" fill="#000000">état mental et les</text>
<text text-anchor="middle" x="101.1114" y="-439.4" font-family="Times,serif" font-size="16.00" fill="#000000">propriétés d'un</text>
<text text-anchor="middle" x="101.1114" y="-420.2" font-family="Times,serif" font-size="16.00" fill="#000000">état physique</text>
<text text-anchor="middle" x="101.1114" y="-401" font-family="Times,serif" font-size="16.00" fill="#000000">sont radicalement</text>
<text text-anchor="middle" x="101.1114" y="-381.8" font-family="Times,serif" font-size="16.00" fill="#000000">différentes</text>
</g>
<!-- b1&#45;&gt;c1 -->
<g id="edge4" class="edge">
<title>b1-&gt;c1</title>
<path fill="none" stroke="#000000" d="M105.4719,-568.1728C105.0067,-554.9479 104.4862,-540.149 103.9712,-525.507"/>
<polygon fill="#000000" stroke="#000000" points="107.4657,-525.2874 103.6163,-515.4166 100.4701,-525.5335 107.4657,-525.2874"/>
</g>
<!-- c2 -->
<g id="node6" class="node">
<title>c2</title>
<polygon fill="#ffffff" stroke="#7f7f7f" points="304.0714,-505.9002 192.1514,-505.9002 192.1514,-382.4998 304.0714,-382.4998 304.0714,-505.9002"/>
<text text-anchor="middle" x="248.1114" y="-487.4" font-family="Times,serif" font-size="16.00" fill="#000000">… parce qu'on</text>
<text text-anchor="middle" x="248.1114" y="-468.2" font-family="Times,serif" font-size="16.00" fill="#000000">peut concevoir</text>
<text text-anchor="middle" x="248.1114" y="-449" font-family="Times,serif" font-size="16.00" fill="#000000">l'esprit sans</text>
<text text-anchor="middle" x="248.1114" y="-429.8" font-family="Times,serif" font-size="16.00" fill="#000000">le cerveau et</text>
<text text-anchor="middle" x="248.1114" y="-410.6" font-family="Times,serif" font-size="16.00" fill="#000000">le cerveau</text>
<text text-anchor="middle" x="248.1114" y="-391.4" font-family="Times,serif" font-size="16.00" fill="#000000">sans l'esprit</text>
</g>
<!-- b1&#45;&gt;c2 -->
<g id="edge5" class="edge">
<title>b1-&gt;c2</title>
<path fill="none" stroke="#000000" d="M143.4224,-570.856C157.7655,-553.5033 174.5997,-533.1367 190.5239,-513.8711"/>
<polygon fill="#000000" stroke="#000000" points="193.3719,-515.9192 197.0452,-505.9815 187.9764,-511.4595 193.3719,-515.9192"/>
</g>
<!-- e0a -->
<g id="node16" class="node">
<title>e0a</title>
<path fill="#fafafa" stroke="transparent" d="M273.8783,-634.1883C273.8783,-634.1883 240.3445,-634.1883 240.3445,-634.1883 234.3445,-634.1883 228.3445,-628.1883 228.3445,-622.1883 228.3445,-622.1883 228.3445,-607.3841 228.3445,-607.3841 228.3445,-601.3841 234.3445,-595.3841 240.3445,-595.3841 240.3445,-595.3841 273.8783,-595.3841 273.8783,-595.3841 279.8783,-595.3841 285.8783,-601.3841 285.8783,-607.3841 285.8783,-607.3841 285.8783,-622.1883 285.8783,-622.1883 285.8783,-628.1883 279.8783,-634.1883 273.8783,-634.1883"/>
<text text-anchor="middle" x="257.1114" y="-619.5862" font-family="Times,serif" font-size="16.00" fill="#cd2626">=</text>
<text text-anchor="middle" x="257.1114" y="-600.3862" font-family="Times,serif" font-size="16.00" fill="#cd2626">dualisme</text>
</g>
<!-- b1&#45;&gt;e0a -->
<!-- c3 -->
<g id="node7" class="node">
<title>c3</title>
<polygon fill="#ffffff" stroke="#7f7f7f" points="512.4419,-496.2 375.7809,-496.2 375.7809,-392.2 512.4419,-392.2 512.4419,-496.2"/>
<text text-anchor="middle" x="444.1114" y="-477.8" font-family="Times,serif" font-size="16.00" fill="#000000">… parce que cela</text>
<text text-anchor="middle" x="444.1114" y="-458.6" font-family="Times,serif" font-size="16.00" fill="#000000">permet de parvenir</text>
<text text-anchor="middle" x="444.1114" y="-439.4" font-family="Times,serif" font-size="16.00" fill="#000000">à une conception</text>
<text text-anchor="middle" x="444.1114" y="-420.2" font-family="Times,serif" font-size="16.00" fill="#000000">non-mystérieuse</text>
<text text-anchor="middle" x="444.1114" y="-401" font-family="Times,serif" font-size="16.00" fill="#000000">de l'esprit</text>
</g>
<!-- b2&#45;&gt;c3 -->
<g id="edge6" class="edge">
<title>b2-&gt;c3</title>
<path fill="none" stroke="#000000" d="M452.1056,-568.1728C450.8812,-549.1851 449.4476,-526.9528 448.1351,-506.5989"/>
<polygon fill="#000000" stroke="#000000" points="451.6182,-506.2221 447.4818,-496.4681 444.6327,-506.6727 451.6182,-506.2221"/>
</g>
<!-- c4 -->
<g id="node8" class="node">
<title>c4</title>
<polygon fill="#ffffff" stroke="#7f7f7f" points="666.0826,-505.9002 530.1402,-505.9002 530.1402,-382.4998 666.0826,-382.4998 666.0826,-505.9002"/>
<text text-anchor="middle" x="598.1114" y="-487.4" font-family="Times,serif" font-size="16.00" fill="#000000">… parce que</text>
<text text-anchor="middle" x="598.1114" y="-468.2" font-family="Times,serif" font-size="16.00" fill="#000000">la réduction de</text>
<text text-anchor="middle" x="598.1114" y="-449" font-family="Times,serif" font-size="16.00" fill="#000000">l'esprit au cerveau</text>
<text text-anchor="middle" x="598.1114" y="-429.8" font-family="Times,serif" font-size="16.00" fill="#000000">est une hypothèse</text>
<text text-anchor="middle" x="598.1114" y="-410.6" font-family="Times,serif" font-size="16.00" fill="#000000">scientifique</text>
<text text-anchor="middle" x="598.1114" y="-391.4" font-family="Times,serif" font-size="16.00" fill="#000000">féconde</text>
</g>
<!-- b2&#45;&gt;c4 -->
<g id="edge7" class="edge">
<title>b2-&gt;c4</title>
<path fill="none" stroke="#000000" d="M491.9375,-570.856C506.484,-553.5033 523.557,-533.1367 539.7071,-513.8711"/>
<polygon fill="#000000" stroke="#000000" points="542.5788,-515.8935 546.3209,-505.9815 537.2144,-511.3965 542.5788,-515.8935"/>
</g>
<!-- e0b -->
<g id="node17" class="node">
<title>e0b</title>
<path fill="#fafafa" stroke="transparent" d="M654.851,-634.1883C654.851,-634.1883 595.3718,-634.1883 595.3718,-634.1883 589.3718,-634.1883 583.3718,-628.1883 583.3718,-622.1883 583.3718,-622.1883 583.3718,-607.3841 583.3718,-607.3841 583.3718,-601.3841 589.3718,-595.3841 595.3718,-595.3841 595.3718,-595.3841 654.851,-595.3841 654.851,-595.3841 660.851,-595.3841 666.851,-601.3841 666.851,-607.3841 666.851,-607.3841 666.851,-622.1883 666.851,-622.1883 666.851,-628.1883 660.851,-634.1883 654.851,-634.1883"/>
<text text-anchor="middle" x="625.1114" y="-619.5862" font-family="Times,serif" font-size="16.00" fill="#cd2626">=</text>
<text text-anchor="middle" x="625.1114" y="-600.3862" font-family="Times,serif" font-size="16.00" fill="#cd2626">matérialisme</text>
</g>
<!-- b2&#45;&gt;e0b -->
<!-- c5 -->
<g id="node9" class="node">
<title>c5</title>
<polygon fill="#ffffff" stroke="#7f7f7f" points="836.8998,-505.9002 721.323,-505.9002 721.323,-382.4998 836.8998,-382.4998 836.8998,-505.9002"/>
<text text-anchor="middle" x="779.1114" y="-487.4" font-family="Times,serif" font-size="16.00" fill="#000000">… parce que</text>
<text text-anchor="middle" x="779.1114" y="-468.2" font-family="Times,serif" font-size="16.00" fill="#000000">certains</text>
<text text-anchor="middle" x="779.1114" y="-449" font-family="Times,serif" font-size="16.00" fill="#000000">phénomènes</text>
<text text-anchor="middle" x="779.1114" y="-429.8" font-family="Times,serif" font-size="16.00" fill="#000000">ne sont pas</text>
<text text-anchor="middle" x="779.1114" y="-410.6" font-family="Times,serif" font-size="16.00" fill="#000000">expliqués par</text>
<text text-anchor="middle" x="779.1114" y="-391.4" font-family="Times,serif" font-size="16.00" fill="#000000">le matérialisme</text>
</g>
<!-- b3&#45;&gt;c5 -->
<g id="edge8" class="edge">
<title>b3-&gt;c5</title>
<path fill="none" stroke="#000000" d="M795.0998,-568.1728C793.026,-552.0925 790.652,-533.6851 788.3793,-516.0624"/>
<polygon fill="#000000" stroke="#000000" points="791.8063,-515.2708 787.0559,-505.8006 784.8638,-516.1662 791.8063,-515.2708"/>
</g>
<!-- c6 -->
<g id="node10" class="node">
<title>c6</title>
<polygon fill="#ffffff" stroke="#7f7f7f" points="1067.6642,-496.2 920.5586,-496.2 920.5586,-392.2 1067.6642,-392.2 1067.6642,-496.2"/>
<text text-anchor="middle" x="994.1114" y="-477.8" font-family="Times,serif" font-size="16.00" fill="#000000">… parce que l'esprit</text>
<text text-anchor="middle" x="994.1114" y="-458.6" font-family="Times,serif" font-size="16.00" fill="#000000">n'est pas une</text>
<text text-anchor="middle" x="994.1114" y="-439.4" font-family="Times,serif" font-size="16.00" fill="#000000">chose qu'on</text>
<text text-anchor="middle" x="994.1114" y="-420.2" font-family="Times,serif" font-size="16.00" fill="#000000">pourrait trouver</text>
<text text-anchor="middle" x="994.1114" y="-401" font-family="Times,serif" font-size="16.00" fill="#000000">quelque part</text>
</g>
<!-- b3&#45;&gt;c6 -->
<g id="edge9" class="edge">
<title>b3-&gt;c6</title>
<path fill="none" stroke="#000000" d="M844.9061,-576.0776C869.3043,-554.5128 900.1866,-527.217 927.5173,-503.0603"/>
<polygon fill="#000000" stroke="#000000" points="929.9486,-505.5825 935.1235,-496.3374 925.3128,-500.3376 929.9486,-505.5825"/>
</g>
<!-- e1 -->
<g id="node18" class="node">
<title>e1</title>
<path fill="#fafafa" stroke="transparent" d="M169.6546,-332C169.6546,-332 16.5682,-332 16.5682,-332 10.5682,-332 4.5682,-326 4.5682,-320 4.5682,-320 4.5682,-258 4.5682,-258 4.5682,-252 10.5682,-246 16.5682,-246 16.5682,-246 169.6546,-246 169.6546,-246 175.6546,-246 181.6546,-252 181.6546,-258 181.6546,-258 181.6546,-320 181.6546,-320 181.6546,-326 175.6546,-332 169.6546,-332"/>
<text text-anchor="start" x="60.0226" y="-307.6" font-family="Times,serif" font-size="16.00" fill="#cd2626"> </text>
<text text-anchor="start" x="64.0226" y="-307.6" font-family="Times,serif" font-weight="bold" font-size="16.00" fill="#cd2626">Descartes</text>
<text text-anchor="start" x="17.3546" y="-275.6" font-family="Times,serif" font-size="16.00" fill="#cd2626">La distinction de nature</text>
<text text-anchor="start" x="15.5898" y="-259.6" font-family="Times,serif" font-size="16.00" fill="#cd2626">entre le corps et l'esprit </text>
</g>
<!-- c1&#45;&gt;e1 -->
<!-- e2 -->
<g id="node19" class="node">
<title>e2</title>
<path fill="#fafafa" stroke="transparent" d="M311.0602,-332C311.0602,-332 207.1626,-332 207.1626,-332 201.1626,-332 195.1626,-326 195.1626,-320 195.1626,-320 195.1626,-258 195.1626,-258 195.1626,-252 201.1626,-246 207.1626,-246 207.1626,-246 311.0602,-246 311.0602,-246 317.0602,-246 323.0602,-252 323.0602,-258 323.0602,-258 323.0602,-320 323.0602,-320 323.0602,-326 317.0602,-332 311.0602,-332"/>
<text text-anchor="start" x="226.0226" y="-307.6" font-family="Times,serif" font-size="16.00" fill="#cd2626"> </text>
<text text-anchor="start" x="230.0226" y="-307.6" font-family="Times,serif" font-weight="bold" font-size="16.00" fill="#cd2626">Descartes</text>
<text text-anchor="start" x="211.7978" y="-275.6" font-family="Times,serif" font-size="16.00" fill="#cd2626">L'argument de</text>
<text text-anchor="start" x="206.137" y="-259.6" font-family="Times,serif" font-size="16.00" fill="#cd2626">la concevabilité </text>
</g>
<!-- c2&#45;&gt;e2 -->
<!-- e3 -->
<g id="node20" class="node">
<title>e3</title>
<path fill="#fafafa" stroke="transparent" d="M514.8252,-356C514.8252,-356 359.3976,-356 359.3976,-356 353.3976,-356 347.3976,-350 347.3976,-344 347.3976,-344 347.3976,-234 347.3976,-234 347.3976,-228 353.3976,-222 359.3976,-222 359.3976,-222 514.8252,-222 514.8252,-222 520.8252,-222 526.8252,-228 526.8252,-234 526.8252,-234 526.8252,-344 526.8252,-344 526.8252,-350 520.8252,-356 514.8252,-356"/>
<text text-anchor="start" x="399.5722" y="-331.6" font-family="Times,serif" font-size="16.00" fill="#cd2626"> </text>
<text text-anchor="start" x="403.5722" y="-331.6" font-family="Times,serif" font-weight="bold" font-size="16.00" fill="#cd2626">D'Holbach</text>
<text text-anchor="start" x="379.7914" y="-299.6" font-family="Times,serif" font-size="16.00" fill="#cd2626">Trois problèmes </text>
<text text-anchor="start" x="379.5674" y="-283.6" font-family="Times,serif" font-size="16.00" fill="#cd2626">pour le dualisme :</text>
<text text-anchor="start" x="373.1386" y="-267.6" font-family="Times,serif" font-size="16.00" fill="#cd2626">la nature de l'esprit,</text>
<text text-anchor="start" x="358.2546" y="-251.6" font-family="Times,serif" font-size="16.00" fill="#cd2626">l'interaction corps-esprit</text>
<text text-anchor="start" x="396.2386" y="-235.6" font-family="Times,serif" font-size="16.00" fill="#cd2626">l'incarnation</text>
</g>
<!-- c3&#45;&gt;e3 -->
<!-- c4&#45;&gt;c5 -->
<!-- e4 -->
<g id="node21" class="node">
<title>e4</title>
<path fill="#fafafa" stroke="transparent" d="M650.6355,-332C650.6355,-332 553.5873,-332 553.5873,-332 547.5873,-332 541.5873,-326 541.5873,-320 541.5873,-320 541.5873,-258 541.5873,-258 541.5873,-252 547.5873,-246 553.5873,-246 553.5873,-246 650.6355,-246 650.6355,-246 656.6355,-246 662.6355,-252 662.6355,-258 662.6355,-258 662.6355,-320 662.6355,-320 662.6355,-326 656.6355,-332 650.6355,-332"/>
<text text-anchor="start" x="564.7874" y="-307.6" font-family="Times,serif" font-weight="bold" font-size="16.00" fill="#cd2626">Churchland</text>
<text text-anchor="start" x="552.3498" y="-275.6" font-family="Times,serif" font-size="16.00" fill="#cd2626">Le modèle des</text>
<text text-anchor="start" x="555.2466" y="-259.6" font-family="Times,serif" font-size="16.00" fill="#cd2626"> neurosciences</text>
</g>
<!-- c4&#45;&gt;e4 -->
<!-- c5&#45;&gt;c6 -->
<!-- d1 -->
<g id="node11" class="node">
<title>d1</title>
<path fill="#ffffff" stroke="#7f7f7f" d="M699.2184,-182C699.2184,-182 595.0044,-182 595.0044,-182 589.0044,-182 583.0044,-176 583.0044,-170 583.0044,-170 583.0044,-138 583.0044,-138 583.0044,-132 589.0044,-126 595.0044,-126 595.0044,-126 699.2184,-126 699.2184,-126 705.2184,-126 711.2184,-132 711.2184,-138 711.2184,-138 711.2184,-170 711.2184,-170 711.2184,-176 705.2184,-182 699.2184,-182"/>
<text text-anchor="start" x="593.8082" y="-157.6" font-family="Times,serif" font-size="16.00" fill="#1a1a1a">L'accès au sens</text>
<text text-anchor="start" x="597.2539" y="-139.4" font-family="Times,serif" font-size="14.00" fill="#1a1a1a">(l'intentionnalité)</text>
</g>
<!-- c5&#45;&gt;d1 -->
<g id="edge10" class="edge">
<title>c5-&gt;d1</title>
<path fill="none" stroke="#000000" d="M750.956,-382.3008C724.6208,-324.4032 686.1438,-239.8121 664.1744,-191.5128"/>
<polygon fill="#000000" stroke="#000000" points="667.3355,-190.009 660.0092,-182.3555 660.9637,-192.9073 667.3355,-190.009"/>
</g>
<!-- d2 -->
<g id="node12" class="node">
<title>d2</title>
<path fill="#ffffff" stroke="#7f7f7f" d="M821.1005,-190C821.1005,-190 737.1223,-190 737.1223,-190 731.1223,-190 725.1223,-184 725.1223,-178 725.1223,-178 725.1223,-130 725.1223,-130 725.1223,-124 731.1223,-118 737.1223,-118 737.1223,-118 821.1005,-118 821.1005,-118 827.1005,-118 833.1005,-124 833.1005,-130 833.1005,-130 833.1005,-178 833.1005,-178 833.1005,-184 827.1005,-190 821.1005,-190"/>
<text text-anchor="start" x="736.3674" y="-165.6" font-family="Times,serif" font-size="16.00" fill="#1a1a1a">L'expérience</text>
<text text-anchor="start" x="759.9066" y="-149.6" font-family="Times,serif" font-size="16.00" fill="#1a1a1a">vécue</text>
<text text-anchor="start" x="747.8207" y="-131.4" font-family="Times,serif" font-size="14.00" fill="#1a1a1a">(les qualia)</text>
</g>
<!-- c5&#45;&gt;d2 -->
<g id="edge11" class="edge">
<title>c5-&gt;d2</title>
<path fill="none" stroke="#000000" d="M779.1114,-382.3008C779.1114,-327.7526 779.1114,-249.51 779.1114,-200.2474"/>
<polygon fill="#000000" stroke="#000000" points="782.6115,-200.1941 779.1114,-190.1941 775.6115,-200.1942 782.6115,-200.1941"/>
</g>
<!-- d3 -->
<g id="node13" class="node">
<title>d3</title>
<path fill="#ffffff" stroke="#7f7f7f" d="M955.8541,-328.601C955.8541,-328.601 872.3687,-328.601 872.3687,-328.601 866.3687,-328.601 860.3687,-322.601 860.3687,-316.601 860.3687,-316.601 860.3687,-261.399 860.3687,-261.399 860.3687,-255.399 866.3687,-249.399 872.3687,-249.399 872.3687,-249.399 955.8541,-249.399 955.8541,-249.399 961.8541,-249.399 967.8541,-255.399 967.8541,-261.399 967.8541,-261.399 967.8541,-316.601 967.8541,-316.601 967.8541,-322.601 961.8541,-328.601 955.8541,-328.601"/>
<text text-anchor="middle" x="914.1114" y="-303.4" font-family="Times,serif" font-size="16.00" fill="#1a1a1a">L'esprit n'est</text>
<text text-anchor="middle" x="914.1114" y="-284.2" font-family="Times,serif" font-size="16.00" fill="#1a1a1a">pas une</text>
<text text-anchor="middle" x="914.1114" y="-265" font-family="Times,serif" font-size="16.00" fill="#1a1a1a">chose</text>
</g>
<!-- c6&#45;&gt;d3 -->
<g id="edge12" class="edge">
<title>c6-&gt;d3</title>
<path fill="none" stroke="#000000" d="M967.25,-392.0889C958.2879,-374.7024 948.3358,-355.3954 939.49,-338.2346"/>
<polygon fill="#000000" stroke="#000000" points="942.3957,-336.2324 934.7028,-328.9474 936.1736,-339.4396 942.3957,-336.2324"/>
</g>
<!-- d4 -->
<g id="node14" class="node">
<title>d4</title>
<path fill="#ffffff" stroke="#7f7f7f" d="M1072.252,-348C1072.252,-348 993.9708,-348 993.9708,-348 987.9708,-348 981.9708,-342 981.9708,-336 981.9708,-336 981.9708,-242 981.9708,-242 981.9708,-236 987.9708,-230 993.9708,-230 993.9708,-230 1072.252,-230 1072.252,-230 1078.252,-230 1084.252,-236 1084.252,-242 1084.252,-242 1084.252,-336 1084.252,-336 1084.252,-342 1078.252,-348 1072.252,-348"/>
<text text-anchor="middle" x="1033.1114" y="-322.6" font-family="Times,serif" font-size="16.00" fill="#1a1a1a">L'esprit</text>
<text text-anchor="middle" x="1033.1114" y="-303.4" font-family="Times,serif" font-size="16.00" fill="#1a1a1a">est constitué</text>
<text text-anchor="middle" x="1033.1114" y="-284.2" font-family="Times,serif" font-size="16.00" fill="#1a1a1a">par des</text>
<text text-anchor="middle" x="1033.1114" y="-265" font-family="Times,serif" font-size="16.00" fill="#1a1a1a">rapports au</text>
<text text-anchor="middle" x="1033.1114" y="-245.8" font-family="Times,serif" font-size="16.00" fill="#1a1a1a">monde</text>
</g>
<!-- c6&#45;&gt;d4 -->
<g id="edge13" class="edge">
<title>c6-&gt;d4</title>
<path fill="none" stroke="#000000" d="M1007.2063,-392.0889C1009.9448,-381.1914 1012.8728,-369.5394 1015.7388,-358.1342"/>
<polygon fill="#000000" stroke="#000000" points="1019.1923,-358.7518 1018.235,-348.2003 1012.4034,-357.0457 1019.1923,-358.7518"/>
</g>
<!-- d5 -->
<g id="node15" class="node">
<title>d5</title>
<path fill="#ffffff" stroke="#7f7f7f" d="M1200.252,-348C1200.252,-348 1121.9708,-348 1121.9708,-348 1115.9708,-348 1109.9708,-342 1109.9708,-336 1109.9708,-336 1109.9708,-242 1109.9708,-242 1109.9708,-236 1115.9708,-230 1121.9708,-230 1121.9708,-230 1200.252,-230 1200.252,-230 1206.252,-230 1212.252,-236 1212.252,-242 1212.252,-242 1212.252,-336 1212.252,-336 1212.252,-342 1206.252,-348 1200.252,-348"/>
<text text-anchor="middle" x="1161.1114" y="-322.6" font-family="Times,serif" font-size="16.00" fill="#1a1a1a">L'esprit</text>
<text text-anchor="middle" x="1161.1114" y="-303.4" font-family="Times,serif" font-size="16.00" fill="#1a1a1a">est constitué</text>
<text text-anchor="middle" x="1161.1114" y="-284.2" font-family="Times,serif" font-size="16.00" fill="#1a1a1a">par des</text>
<text text-anchor="middle" x="1161.1114" y="-265" font-family="Times,serif" font-size="16.00" fill="#1a1a1a">rapports aux</text>
<text text-anchor="middle" x="1161.1114" y="-245.8" font-family="Times,serif" font-size="16.00" fill="#1a1a1a">autres</text>
</g>
<!-- c6&#45;&gt;d5 -->
<g id="edge14" class="edge">
<title>c6-&gt;d5</title>
<path fill="none" stroke="#000000" d="M1052.0368,-391.9728C1064.9552,-380.2023 1078.5459,-367.7226 1091.1114,-356 1094.7843,-352.5735 1098.5527,-349.0348 1102.3443,-345.4567"/>
<polygon fill="#000000" stroke="#000000" points="1104.7886,-347.9624 1109.6457,-338.5464 1099.9769,-342.8783 1104.7886,-347.9624"/>
</g>
<!-- e5 -->
<g id="node22" class="node">
<title>e5</title>
<path fill="#fafafa" stroke="transparent" d="M702.512,-86C702.512,-86 591.7108,-86 591.7108,-86 585.7108,-86 579.7108,-80 579.7108,-74 579.7108,-74 579.7108,-12 579.7108,-12 579.7108,-6 585.7108,0 591.7108,0 591.7108,0 702.512,0 702.512,0 708.512,0 714.512,-6 714.512,-12 714.512,-12 714.512,-74 714.512,-74 714.512,-80 708.512,-86 702.512,-86"/>
<text text-anchor="start" x="627.1242" y="-61.6" font-family="Times,serif" font-weight="bold" font-size="16.00" fill="#cd2626">Searle</text>
<text text-anchor="start" x="592.0234" y="-29.6" font-family="Times,serif" font-size="16.00" fill="#cd2626">L'argument de la</text>
<text text-anchor="start" x="590.9114" y="-13.6" font-family="Times,serif" font-size="16.00" fill="#cd2626">chambre chinoise</text>
</g>
<!-- d1&#45;&gt;e5 -->
<!-- e6 -->
<g id="node23" class="node">
<title>e6</title>
<path fill="#fafafa" stroke="transparent" d="M808.5317,-86C808.5317,-86 749.6911,-86 749.6911,-86 743.6911,-86 737.6911,-80 737.6911,-74 737.6911,-74 737.6911,-12 737.6911,-12 737.6911,-6 743.6911,0 749.6911,0 749.6911,0 808.5317,0 808.5317,0 814.5317,0 820.5317,-6 820.5317,-12 820.5317,-12 820.5317,-74 820.5317,-74 820.5317,-80 814.5317,-86 808.5317,-86"/>
<text text-anchor="start" x="760.0106" y="-61.6" font-family="Times,serif" font-weight="bold" font-size="16.00" fill="#cd2626">Nagel</text>
<text text-anchor="start" x="751.685" y="-29.6" font-family="Times,serif" font-size="16.00" fill="#cd2626">Le fossé</text>
<text text-anchor="start" x="748.9018" y="-13.6" font-family="Times,serif" font-size="16.00" fill="#cd2626">explicatif</text>
</g>
<!-- d2&#45;&gt;e6 -->
<!-- e7 -->
<g id="node24" class="node">
<title>e7</title>
<path fill="#fafafa" stroke="transparent" d="M950.5173,-205C950.5173,-205 899.7055,-205 899.7055,-205 893.7055,-205 887.7055,-199 887.7055,-193 887.7055,-193 887.7055,-115 887.7055,-115 887.7055,-109 893.7055,-103 899.7055,-103 899.7055,-103 950.5173,-103 950.5173,-103 956.5173,-103 962.5173,-109 962.5173,-115 962.5173,-115 962.5173,-193 962.5173,-193 962.5173,-199 956.5173,-205 950.5173,-205"/>
<text text-anchor="start" x="905.5618" y="-180.6" font-family="Times,serif" font-weight="bold" font-size="16.00" fill="#cd2626">Hume</text>
<text text-anchor="start" x="899.789" y="-148.6" font-family="Times,serif" font-size="16.00" fill="#cd2626">L'esprit</text>
<text text-anchor="start" x="899.5626" y="-132.6" font-family="Times,serif" font-size="16.00" fill="#cd2626">comme </text>
<text text-anchor="start" x="898.909" y="-116.6" font-family="Times,serif" font-size="16.00" fill="#cd2626">faisceau</text>
</g>
<!-- d2&#45;&gt;e7 -->
<!-- e8 -->
<g id="node25" class="node">
<title>e8</title>
<path fill="#fafafa" stroke="transparent" d="M1078.5346,-197C1078.5346,-197 987.6882,-197 987.6882,-197 981.6882,-197 975.6882,-191 975.6882,-185 975.6882,-185 975.6882,-123 975.6882,-123 975.6882,-117 981.6882,-111 987.6882,-111 987.6882,-111 1078.5346,-111 1078.5346,-111 1084.5346,-111 1090.5346,-117 1090.5346,-123 1090.5346,-123 1090.5346,-185 1090.5346,-185 1090.5346,-191 1084.5346,-197 1078.5346,-197"/>
<text text-anchor="start" x="1014.0122" y="-172.6" font-family="Times,serif" font-weight="bold" font-size="16.00" fill="#cd2626">Sartre</text>
<text text-anchor="start" x="986.9098" y="-140.6" font-family="Times,serif" font-size="16.00" fill="#cd2626">L'engagement</text>
<text text-anchor="start" x="986.9002" y="-124.6" font-family="Times,serif" font-size="16.00" fill="#cd2626">dans le monde</text>
</g>
<!-- d4&#45;&gt;e8 -->
<!-- e9 -->
<g id="node26" class="node">
<title>e9</title>
<path fill="#fafafa" stroke="transparent" d="M1226.4927,-205C1226.4927,-205 1115.7301,-205 1115.7301,-205 1109.7301,-205 1103.7301,-199 1103.7301,-193 1103.7301,-193 1103.7301,-115 1103.7301,-115 1103.7301,-109 1109.7301,-103 1115.7301,-103 1115.7301,-103 1226.4927,-103 1226.4927,-103 1232.4927,-103 1238.4927,-109 1238.4927,-115 1238.4927,-115 1238.4927,-193 1238.4927,-193 1238.4927,-199 1232.4927,-205 1226.4927,-205"/>
<text text-anchor="start" x="1143.5618" y="-180.6" font-family="Times,serif" font-weight="bold" font-size="16.00" fill="#cd2626">Honneth</text>
<text text-anchor="start" x="1118.0234" y="-148.6" font-family="Times,serif" font-size="16.00" fill="#cd2626">L'importance de</text>
<text text-anchor="start" x="1114.921" y="-132.6" font-family="Times,serif" font-size="16.00" fill="#cd2626">la reconnaissance</text>
<text text-anchor="start" x="1148.9002" y="-116.6" font-family="Times,serif" font-size="16.00" fill="#cd2626">sociale</text>
</g>
<!-- d5&#45;&gt;e9 -->
<!-- e0a&#45;&gt;b2 -->
<!-- e0b&#45;&gt;b3 -->
</g>
</svg>