<?xml version="1.0" encoding="UTF-8" standalone="no"?><!DOCTYPE svg PUBLIC "-//W3C//DTD SVG 1.1//EN" "http://www.w3.org/Graphics/SVG/1.1/DTD/svg11.dtd"><!-- Generated by graphviz version 2.40.1 (20161225.0304)
 --><!-- Title: G Pages: 1 --><svg xmlns="http://www.w3.org/2000/svg" xmlns:xlink="http://www.w3.org/1999/xlink" width="1259pt" height="828pt" viewBox="0.00 0.00 1259.49 828.03">
<g id="graph0" class="graph" transform="scale(1 1) rotate(0) translate(21.6 806.4272)">
<title>G</title>
<polygon fill="#fafafa" stroke="transparent" points="-21.6,21.6 -21.6,-806.4272 1237.8864,-806.4272 1237.8864,21.6 -21.6,21.6"/>
<!-- a1 -->
<g id="node1" class="node">
<title>a1</title>
<ellipse fill="#000000" stroke="#000000" cx="510.756" cy="-748.6234" rx="108.7186" ry="36.4089"/>
<text text-anchor="middle" x="510.756" y="-754.0234" font-family="Times,serif" font-size="18.00" fill="#ffffff">Le bonheur n'est-il</text>
<text text-anchor="middle" x="510.756" y="-732.4234" font-family="Times,serif" font-size="18.00" fill="#ffffff">qu'un idéal ?</text>
</g>
<!-- b1 -->
<g id="node2" class="node">
<title>b1</title>
<ellipse fill="#8b0000" stroke="#000000" cx="385.756" cy="-610.8098" rx="98.0462" ry="32.6206"/>
<text text-anchor="middle" x="385.756" y="-615.6098" font-family="Times,serif" font-size="16.00" fill="#ffffff">Le bonheur semble</text>
<text text-anchor="middle" x="385.756" y="-596.4098" font-family="Times,serif" font-size="16.00" fill="#ffffff">être impossible</text>
<text text-anchor="start" x="282.4065" y="-648.4195" font-family="Times,serif" font-size="16.00" fill="#006400">I</text>
</g>
<!-- a1&#45;&gt;b1 -->
<g id="edge1" class="edge">
<title>a1-&gt;b1:n</title>
<path fill="none" stroke="#000000" d="M442.7691,-720.2161C416.4288,-704.7824 391.3983,-682.8205 386.5857,-653.7511"/>
<polygon fill="#000000" stroke="#000000" points="390.0606,-653.3004 385.756,-643.6195 383.084,-653.8718 390.0606,-653.3004"/>
<text text-anchor="middle" x="410.7013" y="-673.8195" font-family="Times,serif" font-size="14.00" fill="#7f7f7f">oui</text>
</g>
<!-- b2 -->
<g id="node3" class="node">
<title>b2</title>
<ellipse fill="#8b0000" stroke="#000000" cx="685.756" cy="-610.8098" rx="87.9327" ry="32.6206"/>
<text text-anchor="middle" x="685.756" y="-615.6098" font-family="Times,serif" font-size="16.00" fill="#ffffff">Le bonheur n'est</text>
<text text-anchor="middle" x="685.756" y="-596.4098" font-family="Times,serif" font-size="16.00" fill="#ffffff">pas impossible</text>
</g>
<!-- a1&#45;&gt;b2 -->
<g id="edge2" class="edge">
<title>a1-&gt;b2:n</title>
<path fill="none" stroke="#000000" d="M602.1001,-728.7956C641.2169,-714.8501 679.3074,-691.643 685.0202,-653.6114"/>
<polygon fill="#000000" stroke="#000000" points="688.5121,-653.8496 685.756,-643.6195 681.531,-653.3354 688.5121,-653.8496"/>
<text text-anchor="middle" x="690.256" y="-673.8195" font-family="Times,serif" font-size="14.00" fill="#7f7f7f">non</text>
</g>
<!-- c1 -->
<g id="node4" class="node">
<title>c1</title>
<polygon fill="#ffffff" stroke="#7f7f7f" points="159.7482,-517.9002 39.7638,-517.9002 39.7638,-433.2998 159.7482,-433.2998 159.7482,-517.9002"/>
<text text-anchor="middle" x="99.756" y="-499.6" font-family="Times,serif" font-size="16.00" fill="#000000">… parce qu'on</text>
<text text-anchor="middle" x="99.756" y="-480.4" font-family="Times,serif" font-size="16.00" fill="#000000">ne sait pas</text>
<text text-anchor="middle" x="99.756" y="-461.2" font-family="Times,serif" font-size="16.00" fill="#000000">vraiment ce</text>
<text text-anchor="middle" x="99.756" y="-442" font-family="Times,serif" font-size="16.00" fill="#000000">qu'on recherche</text>
</g>
<!-- b1&#45;&gt;c1 -->
<g id="edge3" class="edge">
<title>b1-&gt;c1</title>
<path fill="none" stroke="#000000" d="M320.7326,-585.9644C280.3855,-569.9031 227.8224,-547.8015 182.756,-525 177.9866,-522.5869 173.1182,-520.0089 168.2493,-517.3444"/>
<polygon fill="#000000" stroke="#000000" points="169.945,-514.2827 159.506,-512.4719 166.5374,-520.3973 169.945,-514.2827"/>
</g>
<!-- c2 -->
<g id="node5" class="node">
<title>c2</title>
<polygon fill="#ffffff" stroke="#7f7f7f" points="353.6936,-517.9002 189.8184,-517.9002 189.8184,-433.2998 353.6936,-433.2998 353.6936,-517.9002"/>
<text text-anchor="middle" x="271.756" y="-499.6" font-family="Times,serif" font-size="16.00" fill="#000000">… parce que la</text>
<text text-anchor="middle" x="271.756" y="-480.4" font-family="Times,serif" font-size="16.00" fill="#000000">nature même du</text>
<text text-anchor="middle" x="271.756" y="-461.2" font-family="Times,serif" font-size="16.00" fill="#000000">désir nous empêche</text>
<text text-anchor="middle" x="271.756" y="-442" font-family="Times,serif" font-size="16.00" fill="#000000">de parvenir au bonheur</text>
</g>
<!-- b1&#45;&gt;c2 -->
<g id="edge4" class="edge">
<title>b1-&gt;c2</title>
<path fill="none" stroke="#000000" d="M359.0281,-579.1091C345.7307,-563.3378 329.337,-543.894 314.3617,-526.1325"/>
<polygon fill="#000000" stroke="#000000" points="316.719,-523.4986 307.5972,-518.1094 311.3673,-528.0108 316.719,-523.4986"/>
</g>
<!-- c3 -->
<g id="node6" class="node">
<title>c3</title>
<polygon fill="#ffffff" stroke="#7f7f7f" points="499.7144,-517.9002 367.7976,-517.9002 367.7976,-433.2998 499.7144,-433.2998 499.7144,-517.9002"/>
<text text-anchor="middle" x="433.756" y="-499.6" font-family="Times,serif" font-size="16.00" fill="#000000">… parce que nous</text>
<text text-anchor="middle" x="433.756" y="-480.4" font-family="Times,serif" font-size="16.00" fill="#000000">ne pouvons rien</text>
<text text-anchor="middle" x="433.756" y="-461.2" font-family="Times,serif" font-size="16.00" fill="#000000">face au tragique</text>
<text text-anchor="middle" x="433.756" y="-442" font-family="Times,serif" font-size="16.00" fill="#000000">de l'existence</text>
</g>
<!-- b1&#45;&gt;c3 -->
<g id="edge5" class="edge">
<title>b1-&gt;c3</title>
<path fill="none" stroke="#000000" d="M397.3755,-578.0792C402.7332,-562.9873 409.2244,-544.7022 415.2321,-527.7794"/>
<polygon fill="#000000" stroke="#000000" points="418.654,-528.6021 418.7012,-518.0073 412.0574,-526.2602 418.654,-528.6021"/>
</g>
<!-- bc1 -->
<g id="node7" class="node">
<title>bc1</title>
<path fill="#c7c7c7" stroke="#7f7f7f" d="M748.2624,-515.201C748.2624,-515.201 623.2496,-515.201 623.2496,-515.201 617.2496,-515.201 611.2496,-509.201 611.2496,-503.201 611.2496,-503.201 611.2496,-447.999 611.2496,-447.999 611.2496,-441.999 617.2496,-435.999 623.2496,-435.999 623.2496,-435.999 748.2624,-435.999 748.2624,-435.999 754.2624,-435.999 760.2624,-441.999 760.2624,-447.999 760.2624,-447.999 760.2624,-503.201 760.2624,-503.201 760.2624,-509.201 754.2624,-515.201 748.2624,-515.201"/>
<text text-anchor="middle" x="685.756" y="-490" font-family="Times,serif" font-size="16.00" fill="#000000">On peut parvenir au</text>
<text text-anchor="middle" x="685.756" y="-470.8" font-family="Times,serif" font-size="16.00" fill="#000000">bonheur grâce aux</text>
<text text-anchor="middle" x="685.756" y="-451.6" font-family="Times,serif" font-size="16.00" fill="#000000">sagesses antiques</text>
<text text-anchor="start" x="600.3504" y="-520.2" font-family="Times,serif" font-size="16.00" fill="#006400">II</text>
</g>
<!-- b2&#45;&gt;bc1 -->
<g id="edge6" class="edge">
<title>b2-&gt;bc1</title>
<path fill="none" stroke="#000000" d="M685.756,-577.7337C685.756,-562.0487 685.756,-542.9739 685.756,-525.5743"/>
<polygon fill="#000000" stroke="#000000" points="689.2561,-525.5615 685.756,-515.5615 682.2561,-525.5616 689.2561,-525.5615"/>
</g>
<!-- bc2 -->
<g id="node8" class="node">
<title>bc2</title>
<path fill="#c7c7c7" stroke="#7f7f7f" d="M1029.1389,-524.9002C1029.1389,-524.9002 902.3731,-524.9002 902.3731,-524.9002 896.3731,-524.9002 890.3731,-518.9002 890.3731,-512.9002 890.3731,-512.9002 890.3731,-438.2998 890.3731,-438.2998 890.3731,-432.2998 896.3731,-426.2998 902.3731,-426.2998 902.3731,-426.2998 1029.1389,-426.2998 1029.1389,-426.2998 1035.1389,-426.2998 1041.1389,-432.2998 1041.1389,-438.2998 1041.1389,-438.2998 1041.1389,-512.9002 1041.1389,-512.9002 1041.1389,-518.9002 1035.1389,-524.9002 1029.1389,-524.9002"/>
<text text-anchor="middle" x="965.756" y="-499.6" font-family="Times,serif" font-size="16.00" fill="#000000">On peut parvenir au</text>
<text text-anchor="middle" x="965.756" y="-480.4" font-family="Times,serif" font-size="16.00" fill="#000000">bonheur, mais ce</text>
<text text-anchor="middle" x="965.756" y="-461.2" font-family="Times,serif" font-size="16.00" fill="#000000">n'est pas grâce aux</text>
<text text-anchor="middle" x="965.756" y="-442" font-family="Times,serif" font-size="16.00" fill="#000000">sagesses antiques</text>
<text text-anchor="start" x="874.5856" y="-529.8" font-family="Times,serif" font-size="16.00" fill="#006400">III</text>
</g>
<!-- b2&#45;&gt;bc2 -->
<g id="edge7" class="edge">
<title>b2-&gt;bc2</title>
<path fill="none" stroke="#000000" d="M739.7428,-584.74C779.8938,-565.3514 835.4551,-538.5212 881.4405,-516.3153"/>
<polygon fill="#000000" stroke="#000000" points="883.0194,-519.4396 890.5025,-511.9393 879.9755,-513.1361 883.0194,-519.4396"/>
</g>
<!-- e1 -->
<g id="node14" class="node">
<title>e1</title>
<path fill="#fafafa" stroke="transparent" d="M155.2687,-409.2C155.2687,-409.2 12.2433,-409.2 12.2433,-409.2 6.2433,-409.2 .2433,-403.2 .2433,-397.2 .2433,-397.2 .2433,-335.2 .2433,-335.2 .2433,-329.2 6.2433,-323.2 12.2433,-323.2 12.2433,-323.2 155.2687,-323.2 155.2687,-323.2 161.2687,-323.2 167.2687,-329.2 167.2687,-335.2 167.2687,-335.2 167.2687,-397.2 167.2687,-397.2 167.2687,-403.2 161.2687,-409.2 155.2687,-409.2"/>
<text text-anchor="start" x="66.2064" y="-384.8" font-family="Times,serif" font-size="16.00" fill="#cd2626"> </text>
<text text-anchor="start" x="70.2064" y="-384.8" font-family="Times,serif" font-weight="bold" font-size="16.00" fill="#cd2626">Kant</text>
<text text-anchor="start" x="21.5544" y="-352.8" font-family="Times,serif" font-size="16.00" fill="#cd2626">Le bonheur comme</text>
<text text-anchor="start" x="11" y="-336.8" font-family="Times,serif" font-size="16.00" fill="#cd2626">idéal de l'imagination </text>
</g>
<!-- c1&#45;&gt;e1 -->
<!-- e2 -->
<g id="node15" class="node">
<title>e2</title>
<path fill="#fafafa" stroke="transparent" d="M350.0817,-409.2C350.0817,-409.2 193.4303,-409.2 193.4303,-409.2 187.4303,-409.2 181.4303,-403.2 181.4303,-397.2 181.4303,-397.2 181.4303,-335.2 181.4303,-335.2 181.4303,-329.2 187.4303,-323.2 193.4303,-323.2 193.4303,-323.2 350.0817,-323.2 350.0817,-323.2 356.0817,-323.2 362.0817,-329.2 362.0817,-335.2 362.0817,-335.2 362.0817,-397.2 362.0817,-397.2 362.0817,-403.2 356.0817,-409.2 350.0817,-409.2"/>
<text text-anchor="start" x="249.3112" y="-384.8" font-family="Times,serif" font-size="16.00" fill="#cd2626"> </text>
<text text-anchor="start" x="253.3112" y="-384.8" font-family="Times,serif" font-weight="bold" font-size="16.00" fill="#cd2626">Platon</text>
<text text-anchor="start" x="192.3432" y="-352.8" font-family="Times,serif" font-size="16.00" fill="#cd2626">Le désir comme manque</text>
<text text-anchor="start" x="222.556" y="-336.8" font-family="Times,serif" font-size="16.00" fill="#cd2626">et la pléonexie </text>
</g>
<!-- c2&#45;&gt;e2 -->
<!-- c3&#45;&gt;bc1 -->
<!-- e3 -->
<g id="node16" class="node">
<title>e3</title>
<path fill="#fafafa" stroke="transparent" d="M569.6776,-409.2C569.6776,-409.2 387.8344,-409.2 387.8344,-409.2 381.8344,-409.2 375.8344,-403.2 375.8344,-397.2 375.8344,-397.2 375.8344,-335.2 375.8344,-335.2 375.8344,-329.2 381.8344,-323.2 387.8344,-323.2 387.8344,-323.2 569.6776,-323.2 569.6776,-323.2 575.6776,-323.2 581.6776,-329.2 581.6776,-335.2 581.6776,-335.2 581.6776,-397.2 581.6776,-397.2 581.6776,-403.2 575.6776,-409.2 569.6776,-409.2"/>
<text text-anchor="start" x="456.3208" y="-384.8" font-family="Times,serif" font-size="16.00" fill="#cd2626"> </text>
<text text-anchor="start" x="460.3208" y="-384.8" font-family="Times,serif" font-weight="bold" font-size="16.00" fill="#cd2626">Pascal</text>
<text text-anchor="start" x="386.7952" y="-352.8" font-family="Times,serif" font-size="16.00" fill="#cd2626">La misère de l'être humain</text>
<text text-anchor="start" x="414.552" y="-336.8" font-family="Times,serif" font-size="16.00" fill="#cd2626">et le divertissement </text>
</g>
<!-- c3&#45;&gt;e3 -->
<!-- c4 -->
<g id="node9" class="node">
<title>c4</title>
<polygon fill="#ffffff" stroke="#7f7f7f" points="545.1388,-288.3001 378.3732,-288.3001 378.3732,-150.8999 545.1388,-150.8999 545.1388,-288.3001"/>
<text text-anchor="middle" x="461.756" y="-262.8" font-family="Times,serif" font-size="16.00" fill="#000000">… parce que le</text>
<text text-anchor="middle" x="461.756" y="-243.6" font-family="Times,serif" font-size="16.00" fill="#000000">bonheur ne peut certes</text>
<text text-anchor="middle" x="461.756" y="-224.4" font-family="Times,serif" font-size="16.00" fill="#000000">pas faire l'objet d'une</text>
<text text-anchor="middle" x="461.756" y="-205.2" font-family="Times,serif" font-size="16.00" fill="#000000">science, mais il peut</text>
<text text-anchor="middle" x="461.756" y="-186" font-family="Times,serif" font-size="16.00" fill="#000000">faire l'objet d'un</text>
<text text-anchor="middle" x="461.756" y="-166.8" font-family="Times,serif" font-size="16.00" fill="#000000">certain art de vivre</text>
</g>
<!-- bc1&#45;&gt;c4 -->
<g id="edge8" class="edge">
<title>bc1-&gt;c4</title>
<path fill="none" stroke="#000000" d="M665.1767,-435.9634C647.383,-403.7153 619.6991,-358.009 588.756,-323.2 581.8108,-315.3871 568.3902,-303.5246 552.7835,-290.5807"/>
<polygon fill="#000000" stroke="#000000" points="554.9125,-287.8 544.9652,-284.1526 550.4668,-293.2071 554.9125,-287.8"/>
</g>
<!-- c5 -->
<g id="node10" class="node">
<title>c5</title>
<polygon fill="#ffffff" stroke="#7f7f7f" points="716.5411,-278.6 558.9709,-278.6 558.9709,-160.6 716.5411,-160.6 716.5411,-278.6"/>
<text text-anchor="middle" x="637.756" y="-253.2" font-family="Times,serif" font-size="16.00" fill="#000000">… parce que seuls</text>
<text text-anchor="middle" x="637.756" y="-234" font-family="Times,serif" font-size="16.00" fill="#000000">certains désirs</text>
<text text-anchor="middle" x="637.756" y="-214.8" font-family="Times,serif" font-size="16.00" fill="#000000">sont insatiables</text>
<text text-anchor="middle" x="637.756" y="-195.6" font-family="Times,serif" font-size="16.00" fill="#000000">et que nous pouvons</text>
<text text-anchor="middle" x="637.756" y="-176.4" font-family="Times,serif" font-size="16.00" fill="#000000">maîtriser nos désirs</text>
</g>
<!-- bc1&#45;&gt;c5 -->
<g id="edge9" class="edge">
<title>bc1-&gt;c5</title>
<path fill="none" stroke="#000000" d="M678.3087,-435.8809C670.9581,-396.6776 659.5684,-335.933 650.7289,-288.7889"/>
<polygon fill="#000000" stroke="#000000" points="654.1668,-288.1316 648.8837,-278.9479 647.2867,-289.4217 654.1668,-288.1316"/>
</g>
<!-- c6 -->
<g id="node11" class="node">
<title>c6</title>
<polygon fill="#ffffff" stroke="#7f7f7f" points="868.7144,-278.6 730.7976,-278.6 730.7976,-160.6 868.7144,-160.6 868.7144,-278.6"/>
<text text-anchor="middle" x="799.756" y="-253.2" font-family="Times,serif" font-size="16.00" fill="#000000">… parce que nous</text>
<text text-anchor="middle" x="799.756" y="-234" font-family="Times,serif" font-size="16.00" fill="#000000">pouvons affronter</text>
<text text-anchor="middle" x="799.756" y="-214.8" font-family="Times,serif" font-size="16.00" fill="#000000">le tragique de</text>
<text text-anchor="middle" x="799.756" y="-195.6" font-family="Times,serif" font-size="16.00" fill="#000000">l'existence et</text>
<text text-anchor="middle" x="799.756" y="-176.4" font-family="Times,serif" font-size="16.00" fill="#000000">accepter la réalité</text>
</g>
<!-- bc1&#45;&gt;c6 -->
<g id="edge10" class="edge">
<title>bc1-&gt;c6</title>
<path fill="none" stroke="#000000" d="M703.4434,-435.8809C720.9742,-396.5136 748.178,-335.4243 769.2085,-288.1978"/>
<polygon fill="#000000" stroke="#000000" points="772.4569,-289.5069 773.3276,-278.9479 766.0622,-286.6593 772.4569,-289.5069"/>
</g>
<!-- c7 -->
<g id="node12" class="node">
<title>c7</title>
<polygon fill="#ffffff" stroke="#7f7f7f" points="1048.7048,-288.3001 882.8072,-288.3001 882.8072,-150.8999 1048.7048,-150.8999 1048.7048,-288.3001"/>
<text text-anchor="middle" x="965.756" y="-262.8" font-family="Times,serif" font-size="16.00" fill="#000000">… parce que le simple</text>
<text text-anchor="middle" x="965.756" y="-243.6" font-family="Times,serif" font-size="16.00" fill="#000000">plaisir d'exister ne</text>
<text text-anchor="middle" x="965.756" y="-224.4" font-family="Times,serif" font-size="16.00" fill="#000000">suffit pas : nous</text>
<text text-anchor="middle" x="965.756" y="-205.2" font-family="Times,serif" font-size="16.00" fill="#000000">sommes en quête</text>
<text text-anchor="middle" x="965.756" y="-186" font-family="Times,serif" font-size="16.00" fill="#000000">d'une vie accomplie</text>
<text text-anchor="middle" x="965.756" y="-166.8" font-family="Times,serif" font-size="16.00" fill="#000000">et pleine de sens</text>
</g>
<!-- bc2&#45;&gt;c7 -->
<g id="edge11" class="edge">
<title>bc2-&gt;c7</title>
<path fill="none" stroke="#000000" d="M965.756,-426.2406C965.756,-390.1336 965.756,-340.3958 965.756,-298.7654"/>
<polygon fill="#000000" stroke="#000000" points="969.2561,-298.6454 965.756,-288.6454 962.2561,-298.6454 969.2561,-298.6454"/>
</g>
<!-- c8 -->
<g id="node13" class="node">
<title>c8</title>
<polygon fill="#ffffff" stroke="#7f7f7f" points="1216.3168,-288.3001 1063.1952,-288.3001 1063.1952,-150.8999 1216.3168,-150.8999 1216.3168,-288.3001"/>
<text text-anchor="middle" x="1139.756" y="-262.8" font-family="Times,serif" font-size="16.00" fill="#000000">… parce qu'il ne</text>
<text text-anchor="middle" x="1139.756" y="-243.6" font-family="Times,serif" font-size="16.00" fill="#000000">faut pas seulement</text>
<text text-anchor="middle" x="1139.756" y="-224.4" font-family="Times,serif" font-size="16.00" fill="#000000">accepter la réalité :</text>
<text text-anchor="middle" x="1139.756" y="-205.2" font-family="Times,serif" font-size="16.00" fill="#000000">il s'agit de s'inscrire</text>
<text text-anchor="middle" x="1139.756" y="-186" font-family="Times,serif" font-size="16.00" fill="#000000">pleinement dans</text>
<text text-anchor="middle" x="1139.756" y="-166.8" font-family="Times,serif" font-size="16.00" fill="#000000">le réel</text>
</g>
<!-- bc2&#45;&gt;c8 -->
<g id="edge12" class="edge">
<title>bc2-&gt;c8</title>
<path fill="none" stroke="#000000" d="M999.305,-426.2406C1024.2096,-389.5992 1058.6552,-338.9207 1087.2008,-296.9225"/>
<polygon fill="#000000" stroke="#000000" points="1090.1,-298.8834 1092.8267,-288.6454 1084.3107,-294.9484 1090.1,-298.8834"/>
</g>
<!-- e4 -->
<g id="node17" class="node">
<title>e4</title>
<path fill="#fafafa" stroke="transparent" d="M501.5556,-106.601C501.5556,-106.601 421.9564,-106.601 421.9564,-106.601 415.9564,-106.601 409.9564,-100.601 409.9564,-94.601 409.9564,-94.601 409.9564,-39.399 409.9564,-39.399 409.9564,-33.399 415.9564,-27.399 421.9564,-27.399 421.9564,-27.399 501.5556,-27.399 501.5556,-27.399 507.5556,-27.399 513.5556,-33.399 513.5556,-39.399 513.5556,-39.399 513.5556,-94.601 513.5556,-94.601 513.5556,-100.601 507.5556,-106.601 501.5556,-106.601"/>
<text text-anchor="middle" x="461.756" y="-81.4" font-family="Times,serif" font-size="16.00" fill="#cd2626">La notion de</text>
<text text-anchor="middle" x="461.756" y="-62.2" font-family="Times,serif" font-size="16.00" fill="#cd2626">sagesse dans</text>
<text text-anchor="middle" x="461.756" y="-43" font-family="Times,serif" font-size="16.00" fill="#cd2626">l'Antiquité</text>
</g>
<!-- c4&#45;&gt;e4 -->
<!-- e5 -->
<g id="node18" class="node">
<title>e5</title>
<path fill="#fafafa" stroke="transparent" d="M668.298,-118C668.298,-118 607.214,-118 607.214,-118 601.214,-118 595.214,-112 595.214,-106 595.214,-106 595.214,-28 595.214,-28 595.214,-22 601.214,-16 607.214,-16 607.214,-16 668.298,-16 668.298,-16 674.298,-16 680.298,-22 680.298,-28 680.298,-28 680.298,-106 680.298,-106 680.298,-112 674.298,-118 668.298,-118"/>
<text text-anchor="start" x="611.104" y="-93.6" font-family="Times,serif" font-size="16.00" fill="#cd2626"> </text>
<text text-anchor="start" x="615.104" y="-93.6" font-family="Times,serif" font-weight="bold" font-size="16.00" fill="#cd2626">Épicure</text>
<text text-anchor="start" x="605.9856" y="-61.6" font-family="Times,serif" font-size="16.00" fill="#cd2626">Le simple</text>
<text text-anchor="start" x="613.7608" y="-45.6" font-family="Times,serif" font-size="16.00" fill="#cd2626"> plaisir </text>
<text text-anchor="start" x="609.7696" y="-29.6" font-family="Times,serif" font-size="16.00" fill="#cd2626">d'exister</text>
</g>
<!-- c5&#45;&gt;e5 -->
<!-- e6 -->
<g id="node19" class="node">
<title>e6</title>
<path fill="#fafafa" stroke="transparent" d="M846.3424,-118C846.3424,-118 753.1696,-118 753.1696,-118 747.1696,-118 741.1696,-112 741.1696,-106 741.1696,-106 741.1696,-28 741.1696,-28 741.1696,-22 747.1696,-16 753.1696,-16 753.1696,-16 846.3424,-16 846.3424,-16 852.3424,-16 858.3424,-22 858.3424,-28 858.3424,-28 858.3424,-106 858.3424,-106 858.3424,-112 852.3424,-118 846.3424,-118"/>
<text text-anchor="start" x="752.2128" y="-93.6" font-family="Times,serif" font-size="16.00" fill="#cd2626"> </text>
<text text-anchor="start" x="756.2128" y="-93.6" font-family="Times,serif" font-weight="bold" font-size="16.00" fill="#cd2626">Le stoïcisme</text>
<text text-anchor="start" x="761.1064" y="-61.6" font-family="Times,serif" font-size="16.00" fill="#cd2626">Être comme</text>
<text text-anchor="start" x="764.2248" y="-45.6" font-family="Times,serif" font-size="16.00" fill="#cd2626">un roc face</text>
<text text-anchor="start" x="763.9912" y="-29.6" font-family="Times,serif" font-size="16.00" fill="#cd2626">aux vagues</text>
</g>
<!-- c6&#45;&gt;e6 -->
<!-- e7 -->
<g id="node20" class="node">
<title>e7</title>
<path fill="#fafafa" stroke="transparent" d="M1026.7032,-110C1026.7032,-110 904.8088,-110 904.8088,-110 898.8088,-110 892.8088,-104 892.8088,-98 892.8088,-98 892.8088,-36 892.8088,-36 892.8088,-30 898.8088,-24 904.8088,-24 904.8088,-24 1026.7032,-24 1026.7032,-24 1032.7032,-24 1038.7032,-30 1038.7032,-36 1038.7032,-36 1038.7032,-98 1038.7032,-98 1038.7032,-104 1032.7032,-110 1026.7032,-110"/>
<text text-anchor="start" x="949.9752" y="-85.6" font-family="Times,serif" font-size="16.00" fill="#cd2626"> </text>
<text text-anchor="start" x="953.9752" y="-85.6" font-family="Times,serif" font-weight="bold" font-size="16.00" fill="#cd2626">Mill</text>
<text text-anchor="start" x="903.7824" y="-53.6" font-family="Times,serif" font-size="16.00" fill="#cd2626">Le perfectionnisme</text>
<text text-anchor="start" x="945.0952" y="-37.6" font-family="Times,serif" font-size="16.00" fill="#cd2626">moral </text>
</g>
<!-- c7&#45;&gt;e7 -->
<!-- e8 -->
<g id="node21" class="node">
<title>e8</title>
<path fill="#fafafa" stroke="transparent" d="M1189.5051,-134C1189.5051,-134 1090.0069,-134 1090.0069,-134 1084.0069,-134 1078.0069,-128 1078.0069,-122 1078.0069,-122 1078.0069,-12 1078.0069,-12 1078.0069,-6 1084.0069,0 1090.0069,0 1090.0069,0 1189.5051,0 1189.5051,0 1195.5051,0 1201.5051,-6 1201.5051,-12 1201.5051,-12 1201.5051,-122 1201.5051,-122 1201.5051,-128 1195.5051,-134 1189.5051,-134"/>
<text text-anchor="start" x="1111.2176" y="-109.6" font-family="Times,serif" font-size="16.00" fill="#cd2626">Le désir </text>
<text text-anchor="start" x="1097.7784" y="-93.6" font-family="Times,serif" font-size="16.00" fill="#cd2626">comme force</text>
<text text-anchor="start" x="1102.7704" y="-77.6" font-family="Times,serif" font-style="italic" font-size="16.00" fill="#cd2626">vs.</text>
<text text-anchor="start" x="1120.9928" y="-77.6" font-family="Times,serif" font-size="16.00" fill="#cd2626">  le désir</text>
<text text-anchor="start" x="1088.8816" y="-61.6" font-family="Times,serif" font-size="16.00" fill="#cd2626">comme manque</text>
<text text-anchor="start" x="1109.76" y="-29.6" font-family="Times,serif" font-weight="bold" font-size="16.00" fill="#cd2626">Spinoza :</text>
<text text-anchor="start" x="1107.5448" y="-13.6" font-family="Times,serif" font-size="16.00" fill="#cd2626">le conatus</text>
</g>
<!-- c8&#45;&gt;e8 -->
</g>
</svg>