<?xml version="1.0" encoding="UTF-8" standalone="no"?><!DOCTYPE svg PUBLIC "-//W3C//DTD SVG 1.1//EN" "http://www.w3.org/Graphics/SVG/1.1/DTD/svg11.dtd"><!-- Generated by graphviz version 2.40.1 (20161225.0304)
 --><!-- Title: G Pages: 1 --><svg xmlns="http://www.w3.org/2000/svg" xmlns:xlink="http://www.w3.org/1999/xlink" width="1386pt" height="890pt" viewBox="0.00 0.00 1386.28 889.93">
<g id="graph0" class="graph" transform="scale(1 1) rotate(0) translate(21.6 868.3272)">
<title>G</title>
<polygon fill="#fafafa" stroke="transparent" points="-21.6,21.6 -21.6,-868.3272 1364.6824,-868.3272 1364.6824,21.6 -21.6,21.6"/>
<!-- a1 -->
<g id="node1" class="node">
<title>a1</title>
<ellipse fill="#000000" stroke="#000000" cx="761.0928" cy="-795.2498" rx="114.3669" ry="51.4548"/>
<text text-anchor="middle" x="761.0928" y="-811.4498" font-family="Times,serif" font-size="18.00" fill="#ffffff">Le langage est-il</text>
<text text-anchor="middle" x="761.0928" y="-789.8498" font-family="Times,serif" font-size="18.00" fill="#ffffff">un simple moyen de</text>
<text text-anchor="middle" x="761.0928" y="-768.2498" font-family="Times,serif" font-size="18.00" fill="#ffffff">communication ?</text>
</g>
<!-- b1 -->
<g id="node2" class="node">
<title>b1</title>
<ellipse fill="#8b0000" stroke="#000000" cx="380.0928" cy="-617.3862" rx="149.5937" ry="46.2727"/>
<text text-anchor="middle" x="380.0928" y="-631.7862" font-family="Times,serif" font-size="16.00" fill="#ffffff">Non, car la complexité du</text>
<text text-anchor="middle" x="380.0928" y="-612.5862" font-family="Times,serif" font-size="16.00" fill="#ffffff">langage le distingue des autres</text>
<text text-anchor="middle" x="380.0928" y="-593.3862" font-family="Times,serif" font-size="16.00" fill="#ffffff">moyens de communication</text>
</g>
<!-- a1&#45;&gt;b1 -->
<g id="edge1" class="edge">
<title>a1-&gt;b1:n</title>
<path fill="none" stroke="#000000" d="M652.4234,-779.2681C546.4086,-760.7193 398.648,-725.8046 381.6962,-673.379"/>
<polygon fill="#000000" stroke="#000000" points="385.133,-672.7054 380.0928,-663.3862 378.2214,-673.8144 385.133,-672.7054"/>
<text text-anchor="start" x="441.1689" y="-706.1724" font-family="Times,serif" font-size="14.00" fill="#595959">non </text>
<text text-anchor="start" x="430.0928" y="-692.1724" font-family="Times,serif" font-size="14.00" fill="#595959">(</text>
<text text-anchor="start" x="434.7534" y="-692.1724" font-family="Times,serif" text-decoration="line-through" font-size="14.00" fill="#595959">simple</text>
<text text-anchor="start" x="472.0844" y="-692.1724" font-family="Times,serif" font-size="14.00" fill="#595959">)</text>
</g>
<!-- b2 -->
<g id="node3" class="node">
<title>b2</title>
<ellipse fill="#8b0000" stroke="#000000" cx="761.0928" cy="-617.3862" rx="147.4733" ry="46.2727"/>
<text text-anchor="middle" x="761.0928" y="-631.7862" font-family="Times,serif" font-size="16.00" fill="#ffffff">Non, car on ne ne peut pas</text>
<text text-anchor="middle" x="761.0928" y="-612.5862" font-family="Times,serif" font-size="16.00" fill="#ffffff">réduire le langage au statut de</text>
<text text-anchor="middle" x="761.0928" y="-593.3862" font-family="Times,serif" font-size="16.00" fill="#ffffff">simple moyen que je contrôle</text>
</g>
<!-- a1&#45;&gt;b2 -->
<g id="edge2" class="edge">
<title>a1-&gt;b2:n</title>
<path fill="none" stroke="#000000" d="M761.0928,-743.7355C761.0928,-722.5067 761.0928,-697.3915 761.0928,-673.7826"/>
<polygon fill="#000000" stroke="#000000" points="764.5929,-673.7724 761.0928,-663.7724 757.5929,-673.7724 764.5929,-673.7724"/>
<text text-anchor="start" x="773.556" y="-706.1724" font-family="Times,serif" font-size="14.00" fill="#595959">non </text>
<text text-anchor="start" x="762.0928" y="-692.1724" font-family="Times,serif" font-size="14.00" fill="#595959">(</text>
<text text-anchor="start" x="766.7534" y="-692.1724" font-family="Times,serif" text-decoration="line-through" font-size="14.00" fill="#595959">moyen</text>
<text text-anchor="start" x="804.8586" y="-692.1724" font-family="Times,serif" font-size="14.00" fill="#595959">)</text>
</g>
<!-- b3 -->
<g id="node4" class="node">
<title>b3</title>
<ellipse fill="#8b0000" stroke="#000000" cx="1169.0928" cy="-617.3862" rx="149.2815" ry="46.2727"/>
<text text-anchor="middle" x="1169.0928" y="-631.7862" font-family="Times,serif" font-size="16.00" fill="#ffffff">Non, car le langage ne se</text>
<text text-anchor="middle" x="1169.0928" y="-612.5862" font-family="Times,serif" font-size="16.00" fill="#ffffff">réduit pas à communiquer des</text>
<text text-anchor="middle" x="1169.0928" y="-593.3862" font-family="Times,serif" font-size="16.00" fill="#ffffff">pensées déjà formées</text>
</g>
<!-- a1&#45;&gt;b3 -->
<g id="edge3" class="edge">
<title>a1-&gt;b3:n</title>
<path fill="none" stroke="#000000" d="M871.2347,-781.5866C985.4638,-764.4338 1149.8992,-730.1708 1167.5427,-673.4558"/>
<polygon fill="#000000" stroke="#000000" points="1171.0305,-673.8023 1169.0928,-663.3862 1164.112,-672.7372 1171.0305,-673.8023"/>
<text text-anchor="start" x="1194.8018" y="-706.1724" font-family="Times,serif" font-size="14.00" fill="#595959">non </text>
<text text-anchor="start" x="1157.0928" y="-692.1724" font-family="Times,serif" font-size="14.00" fill="#595959">(</text>
<text text-anchor="start" x="1161.7534" y="-692.1724" font-family="Times,serif" text-decoration="line-through" font-size="14.00" fill="#595959">communication</text>
<text text-anchor="start" x="1248.8502" y="-692.1724" font-family="Times,serif" font-size="14.00" fill="#595959"> )</text>
</g>
<!-- b1&#45;&gt;b2 -->
<!-- c1 -->
<g id="node5" class="node">
<title>c1</title>
<polygon fill="#ffffff" stroke="#7f7f7f" points="488.8018,-513 231.3838,-513 231.3838,-409 488.8018,-409 488.8018,-513"/>
<text text-anchor="middle" x="360.0928" y="-494.6" font-family="Times,serif" font-size="16.00" fill="#000000">… parce que la comparaison</text>
<text text-anchor="middle" x="360.0928" y="-475.4" font-family="Times,serif" font-size="16.00" fill="#000000">avec les systèmes de communication</text>
<text text-anchor="middle" x="360.0928" y="-456.2" font-family="Times,serif" font-size="16.00" fill="#000000">des animaux permet de mettre en</text>
<text text-anchor="middle" x="360.0928" y="-437" font-family="Times,serif" font-size="16.00" fill="#000000">évidence plusieurs spécificités</text>
<text text-anchor="middle" x="360.0928" y="-417.8" font-family="Times,serif" font-size="16.00" fill="#000000">du langage humain</text>
</g>
<!-- b1&#45;&gt;c1 -->
<g id="edge6" class="edge">
<title>b1-&gt;c1</title>
<path fill="none" stroke="#000000" d="M374.1463,-570.8886C372.2383,-555.9694 370.0933,-539.1971 368.0646,-523.3338"/>
<polygon fill="#000000" stroke="#000000" points="371.4922,-522.5444 366.7519,-513.0692 364.5488,-523.4325 371.4922,-522.5444"/>
</g>
<!-- b2&#45;&gt;b3 -->
<!-- c4 -->
<g id="node6" class="node">
<title>c4</title>
<polygon fill="#ffffff" stroke="#7f7f7f" points="777.6088,-503.3002 622.5768,-503.3002 622.5768,-418.6998 777.6088,-418.6998 777.6088,-503.3002"/>
<text text-anchor="middle" x="700.0928" y="-485" font-family="Times,serif" font-size="16.00" fill="#000000">… parce que</text>
<text text-anchor="middle" x="700.0928" y="-465.8" font-family="Times,serif" font-size="16.00" fill="#000000">le langage peut</text>
<text text-anchor="middle" x="700.0928" y="-446.6" font-family="Times,serif" font-size="16.00" fill="#000000">constituer un obstacle</text>
<text text-anchor="middle" x="700.0928" y="-427.4" font-family="Times,serif" font-size="16.00" fill="#000000">à la communication</text>
</g>
<!-- b2&#45;&gt;c4 -->
<g id="edge7" class="edge">
<title>b2-&gt;c4</title>
<path fill="none" stroke="#000000" d="M743.1207,-571.311C735.9654,-552.967 727.6968,-531.7685 720.3317,-512.8865"/>
<polygon fill="#000000" stroke="#000000" points="723.5805,-511.584 716.6858,-503.5396 717.0591,-514.1278 723.5805,-511.584"/>
</g>
<!-- c2 -->
<g id="node7" class="node">
<title>c2</title>
<polygon fill="#ffffff" stroke="#7f7f7f" points="968.2753,-503.3002 791.9103,-503.3002 791.9103,-418.6998 968.2753,-418.6998 968.2753,-503.3002"/>
<text text-anchor="middle" x="880.0928" y="-485" font-family="Times,serif" font-size="16.00" fill="#000000">… parce que le</text>
<text text-anchor="middle" x="880.0928" y="-465.8" font-family="Times,serif" font-size="16.00" fill="#000000">langage que j’utilise</text>
<text text-anchor="middle" x="880.0928" y="-446.6" font-family="Times,serif" font-size="16.00" fill="#000000">communique des</text>
<text text-anchor="middle" x="880.0928" y="-427.4" font-family="Times,serif" font-size="16.00" fill="#000000">informations malgré moi</text>
</g>
<!-- b2&#45;&gt;c2 -->
<g id="edge8" class="edge">
<title>b2-&gt;c2</title>
<path fill="none" stroke="#000000" d="M795.5125,-572.1528C809.9276,-553.209 826.7465,-531.106 841.5725,-511.6222"/>
<polygon fill="#000000" stroke="#000000" points="844.5213,-513.5268 847.7916,-503.4493 838.9507,-509.2878 844.5213,-513.5268"/>
</g>
<!-- c3 -->
<g id="node8" class="node">
<title>c3</title>
<polygon fill="#ffffff" stroke="#7f7f7f" points="1306.1724,-518 1080.0132,-518 1080.0132,-404 1306.1724,-404 1306.1724,-518"/>
<text text-anchor="start" x="1104.0024" y="-500.6" font-family="Times,serif" font-size="16.00" fill="#000000">… parce que, nous pouvons</text>
<text text-anchor="start" x="1087.8032" y="-484.6" font-family="Times,serif" font-size="16.00" fill="#000000">faire l'hypothèse que le langage</text>
<text text-anchor="start" x="1096.2336" y="-468.6" font-family="Times,serif" font-size="16.00" fill="#000000">joue un rôle dans la formation</text>
<text text-anchor="start" x="1120.7912" y="-452.6" font-family="Times,serif" font-size="16.00" fill="#000000">même de nos pensées</text>
<text text-anchor="start" x="1118.8767" y="-424.4" font-family="Times,serif" font-size="14.00" fill="#262626">(= thèse du déterminisme</text>
<text text-anchor="start" x="1155.9564" y="-410.4" font-family="Times,serif" font-size="14.00" fill="#262626"> linguistique)</text>
</g>
<!-- b3&#45;&gt;c3 -->
<g id="edge9" class="edge">
<title>b3-&gt;c3</title>
<path fill="none" stroke="#000000" d="M1176.2286,-570.8886C1178.2943,-557.4282 1180.5915,-542.4595 1182.8089,-528.0108"/>
<polygon fill="#000000" stroke="#000000" points="1186.2699,-528.5311 1184.3274,-518.1159 1179.3509,-527.4693 1186.2699,-528.5311"/>
</g>
<!-- d1 -->
<g id="node9" class="node">
<title>d1</title>
<path fill="#ffffff" stroke="#7f7f7f" d="M169.3766,-351C169.3766,-351 32.809,-351 32.809,-351 26.809,-351 20.809,-345 20.809,-339 20.809,-339 20.809,-179 20.809,-179 20.809,-173 26.809,-167 32.809,-167 32.809,-167 169.3766,-167 169.3766,-167 175.3766,-167 181.3766,-173 181.3766,-179 181.3766,-179 181.3766,-339 181.3766,-339 181.3766,-345 175.3766,-351 169.3766,-351"/>
<text text-anchor="middle" x="101.0928" y="-326.5" font-family="Times,serif" font-size="15.00" fill="#000000">Du point de vue du</text>
<text text-anchor="middle" x="101.0928" y="-308.5" font-family="Times,serif" font-size="15.00" fill="#000000">support matériel de la</text>
<text text-anchor="middle" x="101.0928" y="-290.5" font-family="Times,serif" font-size="15.00" fill="#000000">communication, le</text>
<text text-anchor="middle" x="101.0928" y="-272.5" font-family="Times,serif" font-size="15.00" fill="#000000">langage humain repose</text>
<text text-anchor="middle" x="101.0928" y="-254.5" font-family="Times,serif" font-size="15.00" fill="#000000">sur des symboles dont</text>
<text text-anchor="middle" x="101.0928" y="-236.5" font-family="Times,serif" font-size="15.00" fill="#000000">le sens ne peut être</text>
<text text-anchor="middle" x="101.0928" y="-218.5" font-family="Times,serif" font-size="15.00" fill="#000000">compris que par un</text>
<text text-anchor="middle" x="101.0928" y="-200.5" font-family="Times,serif" font-size="15.00" fill="#000000">processus complexe</text>
<text text-anchor="middle" x="101.0928" y="-182.5" font-family="Times,serif" font-size="15.00" fill="#000000">d'interprétation</text>
</g>
<!-- c1&#45;&gt;d1 -->
<g id="edge11" class="edge">
<title>c1-&gt;d1</title>
<path fill="none" stroke="#000000" d="M280.0818,-408.8309C254.3151,-391.1961 225.9982,-370.9139 201.0928,-351 197.107,-347.813 193.0807,-344.5077 189.0492,-341.1267"/>
<polygon fill="#000000" stroke="#000000" points="191.1867,-338.3501 181.2994,-334.5431 186.6546,-343.6849 191.1867,-338.3501"/>
</g>
<!-- d2 -->
<g id="node10" class="node">
<title>d2</title>
<path fill="#ffffff" stroke="#7f7f7f" d="M361.808,-333C361.808,-333 220.3776,-333 220.3776,-333 214.3776,-333 208.3776,-327 208.3776,-321 208.3776,-321 208.3776,-197 208.3776,-197 208.3776,-191 214.3776,-185 220.3776,-185 220.3776,-185 361.808,-185 361.808,-185 367.808,-185 373.808,-191 373.808,-197 373.808,-197 373.808,-321 373.808,-321 373.808,-327 367.808,-333 361.808,-333"/>
<text text-anchor="middle" x="291.0928" y="-308.5" font-family="Times,serif" font-size="15.00" fill="#000000">Du point de vue formel,</text>
<text text-anchor="middle" x="291.0928" y="-290.5" font-family="Times,serif" font-size="15.00" fill="#000000">la communication,</text>
<text text-anchor="middle" x="291.0928" y="-272.5" font-family="Times,serif" font-size="15.00" fill="#000000">dans le cas du langage</text>
<text text-anchor="middle" x="291.0928" y="-254.5" font-family="Times,serif" font-size="15.00" fill="#000000">humain, repose sur des</text>
<text text-anchor="middle" x="291.0928" y="-236.5" font-family="Times,serif" font-size="15.00" fill="#000000">signes structurés, qui</text>
<text text-anchor="middle" x="291.0928" y="-218.5" font-family="Times,serif" font-size="15.00" fill="#000000">rendent possible une</text>
<text text-anchor="middle" x="291.0928" y="-200.5" font-family="Times,serif" font-size="15.00" fill="#000000">communication riche</text>
</g>
<!-- c1&#45;&gt;d2 -->
<g id="edge12" class="edge">
<title>c1-&gt;d2</title>
<path fill="none" stroke="#000000" d="M342.3236,-408.98C335.4406,-388.8299 327.3854,-365.2479 319.7274,-342.8289"/>
<polygon fill="#000000" stroke="#000000" points="323.0189,-341.6371 316.4743,-333.3053 316.3947,-343.8998 323.0189,-341.6371"/>
</g>
<!-- d3 -->
<g id="node11" class="node">
<title>d3</title>
<path fill="#ffffff" stroke="#7f7f7f" d="M540.2536,-324C540.2536,-324 399.932,-324 399.932,-324 393.932,-324 387.932,-318 387.932,-312 387.932,-312 387.932,-206 387.932,-206 387.932,-200 393.932,-194 399.932,-194 399.932,-194 540.2536,-194 540.2536,-194 546.2536,-194 552.2536,-200 552.2536,-206 552.2536,-206 552.2536,-312 552.2536,-312 552.2536,-318 546.2536,-324 540.2536,-324"/>
<text text-anchor="middle" x="470.0928" y="-299.5" font-family="Times,serif" font-size="15.00" fill="#000000">Du point de vue de</text>
<text text-anchor="middle" x="470.0928" y="-281.5" font-family="Times,serif" font-size="15.00" fill="#000000">la finalité, le langage</text>
<text text-anchor="middle" x="470.0928" y="-263.5" font-family="Times,serif" font-size="15.00" fill="#000000">humain ne se réduit pas</text>
<text text-anchor="middle" x="470.0928" y="-245.5" font-family="Times,serif" font-size="15.00" fill="#000000">à un ensemble de</text>
<text text-anchor="middle" x="470.0928" y="-227.5" font-family="Times,serif" font-size="15.00" fill="#000000">signaux destinés à</text>
<text text-anchor="middle" x="470.0928" y="-209.5" font-family="Times,serif" font-size="15.00" fill="#000000">produire une réaction</text>
</g>
<!-- c1&#45;&gt;d3 -->
<g id="edge13" class="edge">
<title>c1-&gt;d3</title>
<path fill="none" stroke="#000000" d="M388.4205,-408.98C401.0049,-385.8705 416.0474,-358.247 429.7736,-333.0407"/>
<polygon fill="#000000" stroke="#000000" points="432.8589,-334.6933 434.5676,-324.2371 426.7113,-331.3456 432.8589,-334.6933"/>
</g>
<!-- d7 -->
<g id="node12" class="node">
<title>d7</title>
<path fill="#ffffff" stroke="#7f7f7f" d="M758.5757,-324C758.5757,-324 647.6099,-324 647.6099,-324 641.6099,-324 635.6099,-318 635.6099,-312 635.6099,-312 635.6099,-206 635.6099,-206 635.6099,-200 641.6099,-194 647.6099,-194 647.6099,-194 758.5757,-194 758.5757,-194 764.5757,-194 770.5757,-200 770.5757,-206 770.5757,-206 770.5757,-312 770.5757,-312 770.5757,-318 764.5757,-324 758.5757,-324"/>
<text text-anchor="middle" x="703.0928" y="-299.5" font-family="Times,serif" font-size="15.00" fill="#000000">Les mots semblent</text>
<text text-anchor="middle" x="703.0928" y="-281.5" font-family="Times,serif" font-size="15.00" fill="#000000">souvent vagues</text>
<text text-anchor="middle" x="703.0928" y="-263.5" font-family="Times,serif" font-size="15.00" fill="#000000">et insuffisants</text>
<text text-anchor="middle" x="703.0928" y="-245.5" font-family="Times,serif" font-size="15.00" fill="#000000">pour exprimer le</text>
<text text-anchor="middle" x="703.0928" y="-227.5" font-family="Times,serif" font-size="15.00" fill="#000000">sens de ce que</text>
<text text-anchor="middle" x="703.0928" y="-209.5" font-family="Times,serif" font-size="15.00" fill="#000000">nous voulons dire</text>
</g>
<!-- c4&#45;&gt;d7 -->
<g id="edge14" class="edge">
<title>c4-&gt;d7</title>
<path fill="none" stroke="#000000" d="M700.7217,-418.6542C701.0828,-394.3378 701.5471,-363.0799 701.9689,-334.6778"/>
<polygon fill="#000000" stroke="#000000" points="705.4731,-334.4122 702.1221,-324.3613 698.4739,-334.3082 705.4731,-334.4122"/>
</g>
<!-- c2&#45;&gt;c3 -->
<!-- d4 -->
<g id="node13" class="node">
<title>d4</title>
<path fill="#ffffff" stroke="#7f7f7f" d="M944.0333,-324C944.0333,-324 816.1523,-324 816.1523,-324 810.1523,-324 804.1523,-318 804.1523,-312 804.1523,-312 804.1523,-206 804.1523,-206 804.1523,-200 810.1523,-194 816.1523,-194 816.1523,-194 944.0333,-194 944.0333,-194 950.0333,-194 956.0333,-200 956.0333,-206 956.0333,-206 956.0333,-312 956.0333,-312 956.0333,-318 950.0333,-324 944.0333,-324"/>
<text text-anchor="middle" x="880.0928" y="-299.5" font-family="Times,serif" font-size="15.00" fill="#000000">La langue et la parole</text>
<text text-anchor="middle" x="880.0928" y="-281.5" font-family="Times,serif" font-size="15.00" fill="#000000">sont des marqueurs</text>
<text text-anchor="middle" x="880.0928" y="-263.5" font-family="Times,serif" font-size="15.00" fill="#000000">d’identification et</text>
<text text-anchor="middle" x="880.0928" y="-245.5" font-family="Times,serif" font-size="15.00" fill="#000000">de différenciation</text>
<text text-anchor="middle" x="880.0928" y="-227.5" font-family="Times,serif" font-size="15.00" fill="#000000">culturelles</text>
<text text-anchor="middle" x="880.0928" y="-209.5" font-family="Times,serif" font-size="15.00" fill="#000000">et sociales</text>
</g>
<!-- c2&#45;&gt;d4 -->
<g id="edge15" class="edge">
<title>c2-&gt;d4</title>
<path fill="none" stroke="#000000" d="M880.0928,-418.6542C880.0928,-394.3378 880.0928,-363.0799 880.0928,-334.6778"/>
<polygon fill="#000000" stroke="#000000" points="883.5929,-334.3613 880.0928,-324.3613 876.5929,-334.3613 883.5929,-334.3613"/>
</g>
<!-- d5 -->
<g id="node14" class="node">
<title>d5</title>
<path fill="#ffffff" stroke="#7f7f7f" d="M1163.0148,-324C1163.0148,-324 1051.1708,-324 1051.1708,-324 1045.1708,-324 1039.1708,-318 1039.1708,-312 1039.1708,-312 1039.1708,-206 1039.1708,-206 1039.1708,-200 1045.1708,-194 1051.1708,-194 1051.1708,-194 1163.0148,-194 1163.0148,-194 1169.0148,-194 1175.0148,-200 1175.0148,-206 1175.0148,-206 1175.0148,-312 1175.0148,-312 1175.0148,-318 1169.0148,-324 1163.0148,-324"/>
<text text-anchor="middle" x="1107.0928" y="-299.5" font-family="Times,serif" font-size="15.00" fill="#000000">L'hypothèse</text>
<text text-anchor="middle" x="1107.0928" y="-281.5" font-family="Times,serif" font-size="15.00" fill="#000000">d'un déterminisme</text>
<text text-anchor="middle" x="1107.0928" y="-263.5" font-family="Times,serif" font-size="15.00" fill="#000000">linguistique fort</text>
<text text-anchor="middle" x="1107.0928" y="-245.5" font-family="Times,serif" font-size="15.00" fill="#000000">est certes réfutée</text>
<text text-anchor="middle" x="1107.0928" y="-227.5" font-family="Times,serif" font-size="15.00" fill="#000000">pour les langues</text>
<text text-anchor="middle" x="1107.0928" y="-209.5" font-family="Times,serif" font-size="15.00" fill="#000000">naturelles</text>
</g>
<!-- c3&#45;&gt;d5 -->
<g id="edge16" class="edge">
<title>c3-&gt;d5</title>
<path fill="none" stroke="#000000" d="M1168.7935,-403.9249C1159.4949,-382.0839 1148.7473,-356.8395 1138.8534,-333.6005"/>
<polygon fill="#000000" stroke="#000000" points="1141.9561,-331.9532 1134.8186,-324.1234 1135.5155,-334.6953 1141.9561,-331.9532"/>
</g>
<!-- d6 -->
<g id="node15" class="node">
<title>d6</title>
<path fill="#ffffff" stroke="#7f7f7f" d="M1325.4499,-315C1325.4499,-315 1214.7357,-315 1214.7357,-315 1208.7357,-315 1202.7357,-309 1202.7357,-303 1202.7357,-303 1202.7357,-215 1202.7357,-215 1202.7357,-209 1208.7357,-203 1214.7357,-203 1214.7357,-203 1325.4499,-203 1325.4499,-203 1331.4499,-203 1337.4499,-209 1337.4499,-215 1337.4499,-215 1337.4499,-303 1337.4499,-303 1337.4499,-309 1331.4499,-315 1325.4499,-315"/>
<text text-anchor="middle" x="1270.0928" y="-290.5" font-family="Times,serif" font-size="15.00" fill="#000000">Mais cela ne</text>
<text text-anchor="middle" x="1270.0928" y="-272.5" font-family="Times,serif" font-size="15.00" fill="#000000">remet pas en cause</text>
<text text-anchor="middle" x="1270.0928" y="-254.5" font-family="Times,serif" font-size="15.00" fill="#000000">l'importance du</text>
<text text-anchor="middle" x="1270.0928" y="-236.5" font-family="Times,serif" font-size="15.00" fill="#000000">langage et le</text>
<text text-anchor="middle" x="1270.0928" y="-218.5" font-family="Times,serif" font-size="15.00" fill="#000000">pouvoir des mots</text>
</g>
<!-- c3&#45;&gt;d6 -->
<g id="edge17" class="edge">
<title>c3-&gt;d6</title>
<path fill="none" stroke="#000000" d="M1214.8492,-403.9249C1224.2345,-379.3035 1235.2686,-350.357 1244.9977,-324.8339"/>
<polygon fill="#000000" stroke="#000000" points="1248.3649,-325.8266 1248.6564,-315.2358 1241.824,-323.3332 1248.3649,-325.8266"/>
</g>
<!-- e1 -->
<g id="node16" class="node">
<title>e1</title>
<path fill="#fafafa" stroke="transparent" d="M164.2785,-134C164.2785,-134 11.9071,-134 11.9071,-134 5.9071,-134 -.0929,-128 -.0929,-122 -.0929,-122 -.0929,-28 -.0929,-28 -.0929,-22 5.9071,-16 11.9071,-16 11.9071,-16 164.2785,-16 164.2785,-16 170.2785,-16 176.2785,-22 176.2785,-28 176.2785,-28 176.2785,-122 176.2785,-122 176.2785,-128 170.2785,-134 164.2785,-134"/>
<text text-anchor="start" x="16.3296" y="-109.6" font-family="Times,serif" font-weight="bold" font-size="16.00" fill="#cd2626">Peirce</text>
<text text-anchor="start" x="56.304" y="-109.6" font-family="Times,serif" font-size="16.00" fill="#cd2626">   : la distinction</text>
<text text-anchor="start" x="11" y="-93.6" font-family="Times,serif" font-size="16.00" fill="#cd2626">indice / icône / symbole</text>
<text text-anchor="start" x="18.1128" y="-61.6" font-family="Times,serif" font-size="16.00" fill="#cd2626">La distinction entre le</text>
<text text-anchor="start" x="18.7808" y="-45.6" font-family="Times,serif" font-size="16.00" fill="#cd2626">modèle du code et le</text>
<text text-anchor="start" x="14.6888" y="-29.6" font-family="Times,serif" font-size="16.00" fill="#cd2626">modèle de l'inférence</text>
</g>
<!-- d1&#45;&gt;e1 -->
<!-- e2 -->
<g id="node17" class="node">
<title>e2</title>
<path fill="#fafafa" stroke="transparent" d="M380.5172,-126C380.5172,-126 201.6684,-126 201.6684,-126 195.6684,-126 189.6684,-120 189.6684,-114 189.6684,-114 189.6684,-36 189.6684,-36 189.6684,-30 195.6684,-24 201.6684,-24 201.6684,-24 380.5172,-24 380.5172,-24 386.5172,-24 392.5172,-30 392.5172,-36 392.5172,-36 392.5172,-114 392.5172,-114 392.5172,-120 386.5172,-126 380.5172,-126"/>
<text text-anchor="start" x="200.8808" y="-101.6" font-family="Times,serif" font-size="16.00" fill="#cd2626">La distinction : phonèmes /</text>
<text text-anchor="start" x="219.9976" y="-85.6" font-family="Times,serif" font-size="16.00" fill="#cd2626">morphèmes / syntaxe</text>
<text text-anchor="start" x="226.896" y="-53.6" font-family="Times,serif" font-weight="bold" font-size="16.00" fill="#cd2626">Searle</text>
<text text-anchor="start" x="266.8704" y="-53.6" font-family="Times,serif" font-size="16.00" fill="#cd2626">   : le principe</text>
<text text-anchor="start" x="241.2224" y="-37.6" font-family="Times,serif" font-size="16.00" fill="#cd2626">d'exprimabilité</text>
</g>
<!-- d2&#45;&gt;e2 -->
<!-- d3&#45;&gt;d7 -->
<!-- e3 -->
<g id="node18" class="node">
<title>e3</title>
<path fill="#fafafa" stroke="transparent" d="M531.845,-150C531.845,-150 418.3406,-150 418.3406,-150 412.3406,-150 406.3406,-144 406.3406,-138 406.3406,-138 406.3406,-12 406.3406,-12 406.3406,-6 412.3406,0 418.3406,0 418.3406,0 531.845,0 531.845,0 537.845,0 543.845,-6 543.845,-12 543.845,-12 543.845,-138 543.845,-138 543.845,-144 537.845,-150 531.845,-150"/>
<text text-anchor="start" x="431.3232" y="-125.6" font-family="Times,serif" font-weight="bold" font-size="16.00" fill="#cd2626">Benveniste</text>
<text text-anchor="start" x="502.416" y="-125.6" font-family="Times,serif" font-size="16.00" fill="#cd2626">   :</text>
<text text-anchor="start" x="433.54" y="-109.6" font-family="Times,serif" font-size="16.00" fill="#cd2626">la distinction</text>
<text text-anchor="start" x="422.652" y="-93.6" font-family="Times,serif" font-size="16.00" fill="#cd2626">signal / symbole</text>
<text text-anchor="start" x="425.9888" y="-45.6" font-family="Times,serif" font-weight="bold" font-size="16.00" fill="#cd2626">Wittgenstein</text>
<text text-anchor="start" x="507.7504" y="-45.6" font-family="Times,serif" font-size="16.00" fill="#cd2626">   :</text>
<text text-anchor="start" x="417.2168" y="-29.6" font-family="Times,serif" font-size="16.00" fill="#cd2626">la multiplicité des</text>
<text text-anchor="start" x="424.8904" y="-13.6" font-family="Times,serif" font-size="16.00" fill="#cd2626">jeux de langage</text>
</g>
<!-- d3&#45;&gt;e3 -->
<!-- e7 -->
<g id="node22" class="node">
<title>e7</title>
<path fill="#fafafa" stroke="transparent" d="M773.1693,-118C773.1693,-118 633.0163,-118 633.0163,-118 627.0163,-118 621.0163,-112 621.0163,-106 621.0163,-106 621.0163,-44 621.0163,-44 621.0163,-38 627.0163,-32 633.0163,-32 633.0163,-32 773.1693,-32 773.1693,-32 779.1693,-32 785.1693,-38 785.1693,-44 785.1693,-44 785.1693,-106 785.1693,-106 785.1693,-112 779.1693,-118 773.1693,-118"/>
<text text-anchor="start" x="672.2088" y="-93.6" font-family="Times,serif" font-weight="bold" font-size="16.00" fill="#cd2626">Bergson :</text>
<text text-anchor="start" x="642.2288" y="-77.6" font-family="Times,serif" font-size="16.00" fill="#cd2626">Le langage comme</text>
<text text-anchor="start" x="634.3376" y="-61.6" font-family="Times,serif" font-size="16.00" fill="#cd2626">système d'étiquettes</text>
<text text-anchor="start" x="631.8048" y="-45.6" font-family="Times,serif" font-size="16.00" fill="#cd2626">abstraites et générales</text>
</g>
<!-- d7&#45;&gt;e7 -->
<!-- d4&#45;&gt;d5 -->
<!-- e4 -->
<g id="node19" class="node">
<title>e4</title>
<path fill="#fafafa" stroke="transparent" d="M947.4537,-142C947.4537,-142 812.7319,-142 812.7319,-142 806.7319,-142 800.7319,-136 800.7319,-130 800.7319,-130 800.7319,-20 800.7319,-20 800.7319,-14 806.7319,-8 812.7319,-8 812.7319,-8 947.4537,-8 947.4537,-8 953.4537,-8 959.4537,-14 959.4537,-20 959.4537,-20 959.4537,-130 959.4537,-130 959.4537,-136 953.4537,-142 947.4537,-142"/>
<text text-anchor="start" x="843.4344" y="-117.6" font-family="Times,serif" font-weight="bold" font-size="16.00" fill="#cd2626">Saussure</text>
<text text-anchor="start" x="900.3048" y="-117.6" font-family="Times,serif" font-size="16.00" fill="#cd2626">   :</text>
<text text-anchor="start" x="835.876" y="-101.6" font-family="Times,serif" font-size="16.00" fill="#cd2626">La distinction</text>
<text text-anchor="start" x="823.444" y="-85.6" font-family="Times,serif" font-size="16.00" fill="#cd2626">langage / langue /</text>
<text text-anchor="start" x="860.104" y="-69.6" font-family="Times,serif" font-size="16.00" fill="#cd2626">parole</text>
<text text-anchor="start" x="811.6624" y="-37.6" font-family="Times,serif" font-size="16.00" fill="#cd2626">Les enjeux politiques</text>
<text text-anchor="start" x="841.4416" y="-21.6" font-family="Times,serif" font-size="16.00" fill="#cd2626">de la langue</text>
</g>
<!-- d4&#45;&gt;e4 -->
<!-- d5&#45;&gt;d6 -->
<!-- e5 -->
<g id="node20" class="node">
<title>e5</title>
<path fill="#fafafa" stroke="transparent" d="M1156.0656,-110C1156.0656,-110 1058.12,-110 1058.12,-110 1052.12,-110 1046.12,-104 1046.12,-98 1046.12,-98 1046.12,-52 1046.12,-52 1046.12,-46 1052.12,-40 1058.12,-40 1058.12,-40 1156.0656,-40 1156.0656,-40 1162.0656,-40 1168.0656,-46 1168.0656,-52 1168.0656,-52 1168.0656,-98 1168.0656,-98 1168.0656,-104 1162.0656,-110 1156.0656,-110"/>
<text text-anchor="start" x="1072.2192" y="-85.6" font-family="Times,serif" font-size="16.00" fill="#cd2626">La critique</text>
<text text-anchor="start" x="1057.1064" y="-69.6" font-family="Times,serif" font-size="16.00" fill="#cd2626">de l'hypothèse</text>
<text text-anchor="start" x="1066.6672" y="-53.6" font-family="Times,serif" font-weight="bold" font-size="16.00" fill="#cd2626">Sapir-Whorf</text>
</g>
<!-- d5&#45;&gt;e5 -->
<!-- e6 -->
<g id="node21" class="node">
<title>e6</title>
<path fill="#fafafa" stroke="transparent" d="M1331.072,-134C1331.072,-134 1209.1136,-134 1209.1136,-134 1203.1136,-134 1197.1136,-128 1197.1136,-122 1197.1136,-122 1197.1136,-28 1197.1136,-28 1197.1136,-22 1203.1136,-16 1209.1136,-16 1209.1136,-16 1331.072,-16 1331.072,-16 1337.072,-16 1343.072,-22 1343.072,-28 1343.072,-28 1343.072,-122 1343.072,-122 1343.072,-128 1337.072,-134 1331.072,-134"/>
<text text-anchor="start" x="1246.7688" y="-109.6" font-family="Times,serif" font-weight="bold" font-size="16.00" fill="#cd2626">Hegel :</text>
<text text-anchor="start" x="1208.1032" y="-93.6" font-family="Times,serif" font-size="16.00" fill="#cd2626">C'est dans les mots</text>
<text text-anchor="start" x="1213.6568" y="-77.6" font-family="Times,serif" font-size="16.00" fill="#cd2626">que nous pensons</text>
<text text-anchor="start" x="1243.6584" y="-45.6" font-family="Times,serif" font-weight="bold" font-size="16.00" fill="#cd2626">Orwell :</text>
<text text-anchor="start" x="1226.3288" y="-29.6" font-family="Times,serif" font-size="16.00" fill="#cd2626">La novlangue</text>
</g>
<!-- d6&#45;&gt;e6 -->
</g>
</svg>