<?xml version="1.0" encoding="UTF-8" standalone="no"?><!DOCTYPE svg PUBLIC "-//W3C//DTD SVG 1.1//EN" "http://www.w3.org/Graphics/SVG/1.1/DTD/svg11.dtd"><!-- Generated by graphviz version 2.40.1 (20161225.0304)
 --><!-- Title: G Pages: 1 --><svg xmlns="http://www.w3.org/2000/svg" xmlns:xlink="http://www.w3.org/1999/xlink" width="997pt" height="668pt" viewBox="0.00 0.00 996.59 667.53">
<g id="graph0" class="graph" transform="scale(1 1) rotate(0) translate(21.6 645.9272)">
<title>G</title>
<polygon fill="#fafafa" stroke="transparent" points="-21.6,21.6 -21.6,-645.9272 974.9859,-645.9272 974.9859,21.6 -21.6,21.6"/>
<!-- a1 -->
<g id="node1" class="node">
<title>a1</title>
<ellipse fill="#000000" stroke="#000000" cx="494.5051" cy="-572.8498" rx="87.7812" ry="51.4548"/>
<text text-anchor="middle" x="494.5051" y="-589.0498" font-family="Times,serif" font-size="18.00" fill="#ffffff">Le libre arbitre</text>
<text text-anchor="middle" x="494.5051" y="-567.4498" font-family="Times,serif" font-size="18.00" fill="#ffffff">est-il une</text>
<text text-anchor="middle" x="494.5051" y="-545.8498" font-family="Times,serif" font-size="18.00" fill="#ffffff">illusion ?</text>
</g>
<!-- b1 -->
<g id="node2" class="node">
<title>b1</title>
<ellipse fill="#8b0000" stroke="#000000" cx="212.5051" cy="-439.9862" rx="124.2025" ry="46.2727"/>
<text text-anchor="middle" x="212.5051" y="-454.3862" font-family="Times,serif" font-size="16.00" fill="#ffffff">Le libre arbitre ne</text>
<text text-anchor="middle" x="212.5051" y="-435.1862" font-family="Times,serif" font-size="16.00" fill="#ffffff">semble pas être une</text>
<text text-anchor="middle" x="212.5051" y="-415.9862" font-family="Times,serif" font-size="16.00" fill="#ffffff">illusion, mais une réalité</text>
<text text-anchor="start" x="83.0775" y="-491.1724" font-family="Times,serif" font-size="16.00" fill="#006400">I</text>
</g>
<!-- a1&#45;&gt;b1 -->
<g id="edge1" class="edge">
<title>a1-&gt;b1:n</title>
<path fill="none" stroke="#000000" d="M408.3635,-563.2112C332.2354,-552.4272 230.8304,-531.6454 214.7059,-496.2228"/>
<polygon fill="#000000" stroke="#000000" points="218.1015,-495.3686 212.5051,-486.3724 211.2699,-496.895 218.1015,-495.3686"/>
</g>
<!-- b2 -->
<g id="node3" class="node">
<title>b2</title>
<ellipse fill="#8b0000" stroke="#000000" cx="494.5051" cy="-439.9862" rx="87.9282" ry="46.2727"/>
<text text-anchor="middle" x="494.5051" y="-454.3862" font-family="Times,serif" font-size="16.00" fill="#ffffff">On peut douter</text>
<text text-anchor="middle" x="494.5051" y="-435.1862" font-family="Times,serif" font-size="16.00" fill="#ffffff">de l'existence du</text>
<text text-anchor="middle" x="494.5051" y="-415.9862" font-family="Times,serif" font-size="16.00" fill="#ffffff">libre arbitre</text>
<text text-anchor="start" x="395.8882" y="-491.1724" font-family="Times,serif" font-size="16.00" fill="#006400">II</text>
</g>
<!-- a1&#45;&gt;b2 -->
<g id="edge2" class="edge">
<title>a1-&gt;b2:n</title>
<path fill="none" stroke="#000000" d="M494.5051,-521.1771C494.5051,-513.1194 494.5051,-504.7527 494.5051,-496.581"/>
<polygon fill="#000000" stroke="#000000" points="498.0052,-496.3724 494.5051,-486.3724 491.0052,-496.3724 498.0052,-496.3724"/>
</g>
<!-- b3 -->
<g id="node4" class="node">
<title>b3</title>
<ellipse fill="#8b0000" stroke="#000000" cx="759.5051" cy="-439.9862" rx="107.2524" ry="46.2727"/>
<text text-anchor="middle" x="759.5051" y="-454.3862" font-family="Times,serif" font-size="16.00" fill="#ffffff">On ne peut pas</text>
<text text-anchor="middle" x="759.5051" y="-435.1862" font-family="Times,serif" font-size="16.00" fill="#ffffff">prouver l'inexistence</text>
<text text-anchor="middle" x="759.5051" y="-415.9862" font-family="Times,serif" font-size="16.00" fill="#ffffff">du libre arbitre</text>
<text text-anchor="start" x="636.3998" y="-491.1724" font-family="Times,serif" font-size="16.00" fill="#006400">III</text>
</g>
<!-- a1&#45;&gt;b3 -->
<g id="edge3" class="edge">
<title>a1-&gt;b3:n</title>
<path fill="none" stroke="#000000" d="M580.177,-561.5228C650.6446,-549.9539 741.3917,-529.0115 757.1291,-496.3798"/>
<polygon fill="#000000" stroke="#000000" points="760.6003,-496.9105 759.5051,-486.3724 753.7896,-495.2934 760.6003,-496.9105"/>
</g>
<!-- b1&#45;&gt;b2 -->
<!-- c1 -->
<g id="node5" class="node">
<title>c1</title>
<polygon fill="#ffffff" stroke="#7f7f7f" points="146.2462,-348.5002 12.764,-348.5002 12.764,-225.0998 146.2462,-225.0998 146.2462,-348.5002"/>
<text text-anchor="middle" x="79.5051" y="-330" font-family="Times,serif" font-size="16.00" fill="#000000">… parce que</text>
<text text-anchor="middle" x="79.5051" y="-310.8" font-family="Times,serif" font-size="16.00" fill="#000000">l'expérience de</text>
<text text-anchor="middle" x="79.5051" y="-291.6" font-family="Times,serif" font-size="16.00" fill="#000000">l'action volontaire</text>
<text text-anchor="middle" x="79.5051" y="-272.4" font-family="Times,serif" font-size="16.00" fill="#000000">prouve que je</text>
<text text-anchor="middle" x="79.5051" y="-253.2" font-family="Times,serif" font-size="16.00" fill="#000000">suis la source</text>
<text text-anchor="middle" x="79.5051" y="-234" font-family="Times,serif" font-size="16.00" fill="#000000">de mes actes</text>
<text text-anchor="start" x="0" y="-352.3" font-family="Times,serif" font-size="13.00" fill="#006400">A.</text>
</g>
<!-- b1&#45;&gt;c1 -->
<g id="edge6" class="edge">
<title>b1-&gt;c1</title>
<path fill="none" stroke="#000000" d="M174.036,-395.6784C163.3901,-383.4167 151.571,-369.8038 139.9967,-356.4728"/>
<polygon fill="#000000" stroke="#000000" points="142.4199,-353.9251 133.2209,-348.6686 137.1341,-358.5143 142.4199,-353.9251"/>
</g>
<!-- c2 -->
<g id="node6" class="node">
<title>c2</title>
<polygon fill="#ffffff" stroke="#7f7f7f" points="285.4539,-367.4005 173.5563,-367.4005 173.5563,-206.1995 285.4539,-206.1995 285.4539,-367.4005"/>
<text text-anchor="middle" x="229.5051" y="-349.2" font-family="Times,serif" font-size="16.00" fill="#000000">… parce que</text>
<text text-anchor="middle" x="229.5051" y="-330" font-family="Times,serif" font-size="16.00" fill="#000000">nous pouvons</text>
<text text-anchor="middle" x="229.5051" y="-310.8" font-family="Times,serif" font-size="16.00" fill="#000000">réfléchir à des</text>
<text text-anchor="middle" x="229.5051" y="-291.6" font-family="Times,serif" font-size="16.00" fill="#000000">possibilités</text>
<text text-anchor="middle" x="229.5051" y="-272.4" font-family="Times,serif" font-size="16.00" fill="#000000">alternatives, ce</text>
<text text-anchor="middle" x="229.5051" y="-253.2" font-family="Times,serif" font-size="16.00" fill="#000000">qui nous rend</text>
<text text-anchor="middle" x="229.5051" y="-234" font-family="Times,serif" font-size="16.00" fill="#000000">capable d'agir</text>
<text text-anchor="middle" x="229.5051" y="-214.8" font-family="Times,serif" font-size="16.00" fill="#000000">autrement</text>
<text text-anchor="start" x="161.611" y="-371.5" font-family="Times,serif" font-size="13.00" fill="#006400">B.</text>
</g>
<!-- b1&#45;&gt;c2 -->
<g id="edge7" class="edge">
<title>b1-&gt;c2</title>
<path fill="none" stroke="#000000" d="M217.6518,-393.6096C218.2259,-388.4361 218.8244,-383.0435 219.434,-377.5503"/>
<polygon fill="#000000" stroke="#000000" points="222.9161,-377.9044 220.5405,-367.5793 215.9588,-377.1323 222.9161,-377.9044"/>
</g>
<!-- b2&#45;&gt;b3 -->
<!-- c4 -->
<g id="node7" class="node">
<title>c4</title>
<polygon fill="#ffffff" stroke="#7f7f7f" points="466.2838,-358.2006 340.7264,-358.2006 340.7264,-215.3994 466.2838,-215.3994 466.2838,-358.2006"/>
<text text-anchor="middle" x="403.5051" y="-339.6" font-family="Times,serif" font-size="16.00" fill="#000000">… parce qu'il</text>
<text text-anchor="middle" x="403.5051" y="-320.4" font-family="Times,serif" font-size="16.00" fill="#000000">est possible que</text>
<text text-anchor="middle" x="403.5051" y="-301.2" font-family="Times,serif" font-size="16.00" fill="#000000">la source de mes</text>
<text text-anchor="middle" x="403.5051" y="-282" font-family="Times,serif" font-size="16.00" fill="#000000">actes se trouve</text>
<text text-anchor="middle" x="403.5051" y="-262.8" font-family="Times,serif" font-size="16.00" fill="#000000">dans des facteurs</text>
<text text-anchor="middle" x="403.5051" y="-243.6" font-family="Times,serif" font-size="16.00" fill="#000000">dont je n'ai pas</text>
<text text-anchor="middle" x="403.5051" y="-224.4" font-family="Times,serif" font-size="16.00" fill="#000000">conscience</text>
<text text-anchor="start" x="328.2312" y="-361.9" font-family="Times,serif" font-size="13.00" fill="#006400">A.</text>
</g>
<!-- b2&#45;&gt;c4 -->
<g id="edge8" class="edge">
<title>b2-&gt;c4</title>
<path fill="none" stroke="#000000" d="M468.1841,-395.6784C462.7845,-386.5888 456.9437,-376.7566 451.057,-366.8472"/>
<polygon fill="#000000" stroke="#000000" points="453.9984,-364.9457 445.882,-358.1358 447.9802,-368.5208 453.9984,-364.9457"/>
</g>
<!-- c5 -->
<g id="node8" class="node">
<title>c5</title>
<polygon fill="#ffffff" stroke="#7f7f7f" points="641.4667,-367.4005 493.5435,-367.4005 493.5435,-206.1995 641.4667,-206.1995 641.4667,-367.4005"/>
<text text-anchor="middle" x="567.5051" y="-349.2" font-family="Times,serif" font-size="16.00" fill="#000000">… parce que</text>
<text text-anchor="middle" x="567.5051" y="-330" font-family="Times,serif" font-size="16.00" fill="#000000">l'univers semble</text>
<text text-anchor="middle" x="567.5051" y="-310.8" font-family="Times,serif" font-size="16.00" fill="#000000">déterminé par des</text>
<text text-anchor="middle" x="567.5051" y="-291.6" font-family="Times,serif" font-size="16.00" fill="#000000">lois de la nature</text>
<text text-anchor="middle" x="567.5051" y="-272.4" font-family="Times,serif" font-size="16.00" fill="#000000">qui font qu'il n'y a</text>
<text text-anchor="middle" x="567.5051" y="-253.2" font-family="Times,serif" font-size="16.00" fill="#000000">pas de possibilités</text>
<text text-anchor="middle" x="567.5051" y="-234" font-family="Times,serif" font-size="16.00" fill="#000000">alternatives, mais un</text>
<text text-anchor="middle" x="567.5051" y="-214.8" font-family="Times,serif" font-size="16.00" fill="#000000">seul futur possible</text>
<text text-anchor="start" x="481.6046" y="-371.5" font-family="Times,serif" font-size="13.00" fill="#006400">B.</text>
</g>
<!-- b2&#45;&gt;c5 -->
<g id="edge9" class="edge">
<title>b2-&gt;c5</title>
<path fill="none" stroke="#000000" d="M516.0127,-394.8538C518.7819,-389.0428 521.6904,-382.9394 524.6567,-376.7149"/>
<polygon fill="#000000" stroke="#000000" points="527.892,-378.0616 529.0344,-367.5286 521.5728,-375.0503 527.892,-378.0616"/>
</g>
<!-- c6 -->
<g id="node9" class="node">
<title>c6</title>
<polygon fill="#ffffff" stroke="#7f7f7f" points="810.2903,-338.8 696.7199,-338.8 696.7199,-234.8 810.2903,-234.8 810.2903,-338.8"/>
<text text-anchor="middle" x="753.5051" y="-320.4" font-family="Times,serif" font-size="16.00" fill="#000000">… parce que le</text>
<text text-anchor="middle" x="753.5051" y="-301.2" font-family="Times,serif" font-size="16.00" fill="#000000">déterminisme</text>
<text text-anchor="middle" x="753.5051" y="-282" font-family="Times,serif" font-size="16.00" fill="#000000">ne prouve pas</text>
<text text-anchor="middle" x="753.5051" y="-262.8" font-family="Times,serif" font-size="16.00" fill="#000000">l'inexistence</text>
<text text-anchor="middle" x="753.5051" y="-243.6" font-family="Times,serif" font-size="16.00" fill="#000000">du libre arbitre</text>
<text text-anchor="start" x="684.228" y="-342.7" font-family="Times,serif" font-size="13.00" fill="#006400">A.</text>
</g>
<!-- b3&#45;&gt;c6 -->
<g id="edge10" class="edge">
<title>b3-&gt;c6</title>
<path fill="none" stroke="#000000" d="M757.6723,-393.1929C757.1263,-379.2525 756.5191,-363.7518 755.941,-348.9913"/>
<polygon fill="#000000" stroke="#000000" points="759.4353,-348.7744 755.5465,-338.9191 752.4407,-349.0484 759.4353,-348.7744"/>
</g>
<!-- c7 -->
<g id="node10" class="node">
<title>c7</title>
<polygon fill="#ffffff" stroke="#7f7f7f" points="941.6957,-367.4005 837.3145,-367.4005 837.3145,-206.1995 941.6957,-206.1995 941.6957,-367.4005"/>
<text text-anchor="middle" x="889.5051" y="-349.2" font-family="Times,serif" font-size="16.00" fill="#000000">… parce</text>
<text text-anchor="middle" x="889.5051" y="-330" font-family="Times,serif" font-size="16.00" fill="#000000">qu'on peut</text>
<text text-anchor="middle" x="889.5051" y="-310.8" font-family="Times,serif" font-size="16.00" fill="#000000">concevoir</text>
<text text-anchor="middle" x="889.5051" y="-291.6" font-family="Times,serif" font-size="16.00" fill="#000000">une forme de</text>
<text text-anchor="middle" x="889.5051" y="-272.4" font-family="Times,serif" font-size="16.00" fill="#000000">libre arbitre</text>
<text text-anchor="middle" x="889.5051" y="-253.2" font-family="Times,serif" font-size="16.00" fill="#000000">compatible</text>
<text text-anchor="middle" x="889.5051" y="-234" font-family="Times,serif" font-size="16.00" fill="#000000">avec le</text>
<text text-anchor="middle" x="889.5051" y="-214.8" font-family="Times,serif" font-size="16.00" fill="#000000">déterminisme</text>
<text text-anchor="start" x="825.4902" y="-371.5" font-family="Times,serif" font-size="13.00" fill="#006400">B.</text>
</g>
<!-- b3&#45;&gt;c7 -->
<g id="edge11" class="edge">
<title>b3-&gt;c7</title>
<path fill="none" stroke="#000000" d="M796.7579,-396.0892C807.2947,-383.673 819.0292,-369.8457 830.5115,-356.3154"/>
<polygon fill="#000000" stroke="#000000" points="833.4301,-358.2855 837.232,-348.3963 828.0929,-353.7561 833.4301,-358.2855"/>
</g>
<!-- c1&#45;&gt;c2 -->
<!-- e1 -->
<g id="node11" class="node">
<title>e1</title>
<path fill="#fafafa" stroke="transparent" d="M123.7005,-150C123.7005,-150 35.3097,-150 35.3097,-150 29.3097,-150 23.3097,-144 23.3097,-138 23.3097,-138 23.3097,-60 23.3097,-60 23.3097,-54 29.3097,-48 35.3097,-48 35.3097,-48 123.7005,-48 123.7005,-48 129.7005,-48 135.7005,-54 135.7005,-60 135.7005,-60 135.7005,-138 135.7005,-138 135.7005,-144 129.7005,-150 123.7005,-150"/>
<text text-anchor="start" x="46.4163" y="-125.6" font-family="Times,serif" font-size="16.00" fill="#cd2626"> </text>
<text text-anchor="start" x="50.4163" y="-125.6" font-family="Times,serif" font-weight="bold" font-size="16.00" fill="#cd2626">Descartes</text>
<text text-anchor="start" x="44.5179" y="-93.6" font-family="Times,serif" font-size="16.00" fill="#cd2626">La volonté</text>
<text text-anchor="start" x="34.4075" y="-77.6" font-family="Times,serif" font-size="16.00" fill="#cd2626">comme image</text>
<text text-anchor="start" x="52.4043" y="-61.6" font-family="Times,serif" font-size="16.00" fill="#cd2626">de Dieu </text>
</g>
<!-- c1&#45;&gt;e1 -->
<!-- c2&#45;&gt;c4 -->
<!-- e2 -->
<g id="node12" class="node">
<title>e2</title>
<path fill="#fafafa" stroke="transparent" d="M260.1156,-150C260.1156,-150 198.8946,-150 198.8946,-150 192.8946,-150 186.8946,-144 186.8946,-138 186.8946,-138 186.8946,-60 186.8946,-60 186.8946,-54 192.8946,-48 198.8946,-48 198.8946,-48 260.1156,-48 260.1156,-48 266.1156,-48 272.1156,-54 272.1156,-60 272.1156,-60 272.1156,-138 272.1156,-138 272.1156,-144 266.1156,-150 260.1156,-150"/>
<text text-anchor="start" x="199.7323" y="-125.6" font-family="Times,serif" font-size="16.00" fill="#cd2626"> </text>
<text text-anchor="start" x="203.7323" y="-125.6" font-family="Times,serif" font-weight="bold" font-size="16.00" fill="#cd2626">Thomas </text>
<text text-anchor="start" x="202.8435" y="-109.6" font-family="Times,serif" font-weight="bold" font-size="16.00" fill="#cd2626">d'Aquin</text>
<text text-anchor="start" x="207.2843" y="-77.6" font-family="Times,serif" font-size="16.00" fill="#cd2626">Raison</text>
<text text-anchor="start" x="197.9499" y="-61.6" font-family="Times,serif" font-size="16.00" fill="#cd2626">≠ instinct</text>
</g>
<!-- c2&#45;&gt;e2 -->
<!-- c4&#45;&gt;c5 -->
<!-- e4 -->
<g id="node13" class="node">
<title>e4</title>
<path fill="#fafafa" stroke="transparent" d="M464.8516,-198C464.8516,-198 342.1586,-198 342.1586,-198 336.1586,-198 330.1586,-192 330.1586,-186 330.1586,-186 330.1586,-12 330.1586,-12 330.1586,-6 336.1586,0 342.1586,0 342.1586,0 464.8516,0 464.8516,0 470.8516,0 476.8516,-6 476.8516,-12 476.8516,-12 476.8516,-186 476.8516,-186 476.8516,-192 470.8516,-198 464.8516,-198"/>
<text text-anchor="start" x="375.7323" y="-173.6" font-family="Times,serif" font-size="16.00" fill="#cd2626"> </text>
<text text-anchor="start" x="379.7323" y="-173.6" font-family="Times,serif" font-weight="bold" font-size="16.00" fill="#cd2626">Spinoza</text>
<text text-anchor="start" x="351.0803" y="-141.6" font-family="Times,serif" font-size="16.00" fill="#cd2626">Un être humain</text>
<text text-anchor="start" x="341.0819" y="-125.6" font-family="Times,serif" font-size="16.00" fill="#cd2626">n'est pas un empire</text>
<text text-anchor="start" x="354.6307" y="-109.6" font-family="Times,serif" font-size="16.00" fill="#cd2626">dans un empire</text>
<text text-anchor="start" x="348.9715" y="-77.6" font-family="Times,serif" font-weight="bold" font-size="16.00" fill="#cd2626">Le déterminisme</text>
<text text-anchor="start" x="344.5203" y="-45.6" font-family="Times,serif" font-size="16.00" fill="#cd2626">Le dét. biologique</text>
<text text-anchor="start" x="346.3043" y="-29.6" font-family="Times,serif" font-size="16.00" fill="#cd2626">Le dét. psychique</text>
<text text-anchor="start" x="360.0811" y="-13.6" font-family="Times,serif" font-size="16.00" fill="#cd2626">Le dét. social</text>
</g>
<!-- c4&#45;&gt;e4 -->
<!-- c5&#45;&gt;c6 -->
<!-- e5 -->
<g id="node14" class="node">
<title>e5</title>
<path fill="#fafafa" stroke="transparent" d="M621.0723,-158C621.0723,-158 513.9379,-158 513.9379,-158 507.9379,-158 501.9379,-152 501.9379,-146 501.9379,-146 501.9379,-52 501.9379,-52 501.9379,-46 507.9379,-40 513.9379,-40 513.9379,-40 621.0723,-40 621.0723,-40 627.0723,-40 633.0723,-46 633.0723,-52 633.0723,-52 633.0723,-146 633.0723,-146 633.0723,-152 627.0723,-158 621.0723,-158"/>
<text text-anchor="start" x="512.9715" y="-133.6" font-family="Times,serif" font-weight="bold" font-size="16.00" fill="#cd2626">Le déterminisme</text>
<text text-anchor="start" x="516.1939" y="-117.6" font-family="Times,serif" font-weight="bold" font-size="16.00" fill="#cd2626">causal universel</text>
<text text-anchor="start" x="527.7427" y="-85.6" font-family="Times,serif" font-size="16.00" fill="#cd2626">L'argument </text>
<text text-anchor="start" x="535.1795" y="-69.6" font-family="Times,serif" font-size="16.00" fill="#cd2626">du démon</text>
<text text-anchor="start" x="532.6387" y="-53.6" font-family="Times,serif" font-size="16.00" fill="#cd2626">de Laplace</text>
</g>
<!-- c5&#45;&gt;e5 -->
<!-- c6&#45;&gt;c7 -->
<!-- e6 -->
<g id="node15" class="node">
<title>e6</title>
<path fill="#fafafa" stroke="transparent" d="M813.4635,-177.2001C813.4635,-177.2001 679.5467,-177.2001 679.5467,-177.2001 673.5467,-177.2001 667.5467,-171.2001 667.5467,-165.2001 667.5467,-165.2001 667.5467,-32.7999 667.5467,-32.7999 667.5467,-26.7999 673.5467,-20.7999 679.5467,-20.7999 679.5467,-20.7999 813.4635,-20.7999 813.4635,-20.7999 819.4635,-20.7999 825.4635,-26.7999 825.4635,-32.7999 825.4635,-32.7999 825.4635,-165.2001 825.4635,-165.2001 825.4635,-171.2001 819.4635,-177.2001 813.4635,-177.2001"/>
<text text-anchor="middle" x="746.5051" y="-151.7" font-family="Times,serif" font-size="16.00" fill="#cd2626">Déterminisme</text>
<text text-anchor="middle" x="746.5051" y="-132.5" font-family="Times,serif" font-size="16.00" fill="#cd2626">≠ fatalisme</text>
<text text-anchor="middle" x="746.5051" y="-94.3" font-family="Times,serif" font-size="16.00" fill="#cd2626">Déterminisme</text>
<text text-anchor="middle" x="746.5051" y="-75.1" font-family="Times,serif" font-size="16.00" fill="#cd2626">probabiliste et partiel</text>
<text text-anchor="middle" x="746.5051" y="-55.9" font-family="Times,serif" font-size="16.00" fill="#cd2626">≠ déterminisme</text>
<text text-anchor="middle" x="746.5051" y="-36.7" font-family="Times,serif" font-size="16.00" fill="#cd2626">strict et universel</text>
</g>
<!-- c6&#45;&gt;e6 -->
<!-- e7 -->
<g id="node16" class="node">
<title>e7</title>
<path fill="#fafafa" stroke="transparent" d="M941.2669,-150C941.2669,-150 851.7433,-150 851.7433,-150 845.7433,-150 839.7433,-144 839.7433,-138 839.7433,-138 839.7433,-60 839.7433,-60 839.7433,-54 845.7433,-48 851.7433,-48 851.7433,-48 941.2669,-48 941.2669,-48 947.2669,-48 953.2669,-54 953.2669,-60 953.2669,-60 953.2669,-138 953.2669,-138 953.2669,-144 947.2669,-150 941.2669,-150"/>
<text text-anchor="start" x="871.1811" y="-125.6" font-family="Times,serif" font-weight="bold" font-size="16.00" fill="#cd2626">Dennett</text>
<text text-anchor="start" x="858.4155" y="-93.6" font-family="Times,serif" font-size="16.00" fill="#cd2626">Une théorie</text>
<text text-anchor="start" x="850.6243" y="-77.6" font-family="Times,serif" font-size="16.00" fill="#cd2626">évolutionniste</text>
<text text-anchor="start" x="858.1931" y="-61.6" font-family="Times,serif" font-size="16.00" fill="#cd2626">de la liberté</text>
</g>
<!-- c7&#45;&gt;e7 -->
</g>
</svg>