<?xml version="1.0" encoding="UTF-8" standalone="no"?><!DOCTYPE svg PUBLIC "-//W3C//DTD SVG 1.1//EN" "http://www.w3.org/Graphics/SVG/1.1/DTD/svg11.dtd"><!-- Generated by graphviz version 2.40.1 (20161225.0304)
 --><!-- Title: G Pages: 1 --><svg xmlns="http://www.w3.org/2000/svg" xmlns:xlink="http://www.w3.org/1999/xlink" width="1331pt" height="904pt" viewBox="0.00 0.00 1330.92 904.46">
<g id="graph0" class="graph" transform="scale(1 1) rotate(0) translate(21.6 882.8595)">
<title>G</title>
<polygon fill="#fafafa" stroke="transparent" points="-21.6,21.6 -21.6,-882.8595 1309.3152,-882.8595 1309.3152,21.6 -21.6,21.6"/>
<!-- a1 -->
<g id="node1" class="node">
<title>a1</title>
<ellipse fill="#000000" stroke="#000000" cx="391.056" cy="-809.7822" rx="137.7299" ry="51.4548"/>
<text text-anchor="middle" x="391.056" y="-825.9822" font-family="Times,serif" font-size="18.00" fill="#ffffff">Comment peut-on savoir</text>
<text text-anchor="middle" x="391.056" y="-804.3822" font-family="Times,serif" font-size="18.00" fill="#ffffff">ce qui est bien et</text>
<text text-anchor="middle" x="391.056" y="-782.7822" font-family="Times,serif" font-size="18.00" fill="#ffffff">ce qui est mal ?</text>
</g>
<!-- b1 -->
<g id="node2" class="node">
<title>b1</title>
<ellipse fill="#8b0000" stroke="#000000" cx="136.056" cy="-704.2524" rx="59.5791" ry="37.1049"/>
<text text-anchor="middle" x="136.056" y="-709.0524" font-family="Times,serif" font-size="16.00" fill="#ffffff">On ne peut</text>
<text text-anchor="middle" x="136.056" y="-689.8524" font-family="Times,serif" font-size="16.00" fill="#ffffff">pas savoir</text>
<text text-anchor="start" x="71.1901" y="-746.1048" font-family="Times,serif" font-size="16.00" fill="#006400">I</text>
</g>
<!-- a1&#45;&gt;b1 -->
<g id="edge1" class="edge">
<title>a1-&gt;b1:n</title>
<path fill="none" stroke="#000000" d="M257.5814,-796.5811C203.3551,-787.8445 150.573,-773.6803 138.585,-751.0814"/>
<polygon fill="#000000" stroke="#000000" points="141.9375,-750.0648 136.056,-741.2524 135.1583,-751.8091 141.9375,-750.0648"/>
</g>
<!-- b2 -->
<g id="node3" class="node">
<title>b2</title>
<ellipse fill="#8b0000" stroke="#000000" cx="647.056" cy="-704.2524" rx="46.0642" ry="37.1049"/>
<text text-anchor="middle" x="647.056" y="-709.0524" font-family="Times,serif" font-size="16.00" fill="#ffffff">On peut</text>
<text text-anchor="middle" x="647.056" y="-689.8524" font-family="Times,serif" font-size="16.00" fill="#ffffff">savoir</text>
</g>
<!-- a1&#45;&gt;b2 -->
<g id="edge2" class="edge">
<title>a1-&gt;b2:n</title>
<path fill="none" stroke="#000000" d="M524.6794,-796.7239C579.2346,-788.0161 632.425,-773.8445 644.5071,-751.1338"/>
<polygon fill="#000000" stroke="#000000" points="647.9472,-751.8097 647.056,-741.2524 641.1691,-750.0612 647.9472,-751.8097"/>
</g>
<!-- vide1 -->
<!-- b1&#45;&gt;vide1 -->
<!-- c1 -->
<g id="node5" class="node">
<title>c1</title>
<polygon fill="#ffffff" stroke="#7f7f7f" points="272.168,-641.0011 -.056,-641.0011 -.056,-569.7989 272.168,-569.7989 272.168,-641.0011"/>
<text text-anchor="middle" x="136.056" y="-619.8" font-family="Times,serif" font-size="16.00" fill="#000000">… parce qu'il n'y a pas de connaissance</text>
<text text-anchor="middle" x="136.056" y="-600.6" font-family="Times,serif" font-size="16.00" fill="#000000">morale, mais seulement des croyances</text>
<text text-anchor="middle" x="136.056" y="-581.4" font-family="Times,serif" font-size="16.00" fill="#000000">morales, relatives à chaque culture</text>
</g>
<!-- b1&#45;&gt;c1 -->
<g id="edge5" class="edge">
<title>b1-&gt;c1</title>
<path fill="none" stroke="#000000" d="M136.056,-667.1622C136.056,-661.9542 136.056,-656.551 136.056,-651.2047"/>
<polygon fill="#000000" stroke="#000000" points="139.5561,-651.0596 136.056,-641.0596 132.5561,-651.0596 139.5561,-651.0596"/>
</g>
<!-- bc1 -->
<g id="node6" class="node">
<title>bc1</title>
<path fill="#c7c7c7" stroke="#7f7f7f" d="M566.4243,-638.4C566.4243,-638.4 367.6877,-638.4 367.6877,-638.4 361.6877,-638.4 355.6877,-632.4 355.6877,-626.4 355.6877,-626.4 355.6877,-584.4 355.6877,-584.4 355.6877,-578.4 361.6877,-572.4 367.6877,-572.4 367.6877,-572.4 566.4243,-572.4 566.4243,-572.4 572.4243,-572.4 578.4243,-578.4 578.4243,-584.4 578.4243,-584.4 578.4243,-626.4 578.4243,-626.4 578.4243,-632.4 572.4243,-638.4 566.4243,-638.4"/>
<text text-anchor="start" x="366.872" y="-614" font-family="Times,serif" font-size="16.00" fill="#000000">… grâce à certains sentiments</text>
<text text-anchor="start" x="379.6274" y="-585.8" font-family="Times,serif" font-size="14.00" fill="#262626">(= une morale de la sensibilité)</text>
<text text-anchor="start" x="345.2192" y="-643.2" font-family="Times,serif" font-size="16.00" fill="#006400">II</text>
</g>
<!-- b2&#45;&gt;bc1 -->
<g id="edge6" class="edge">
<title>b2-&gt;bc1</title>
<path fill="none" stroke="#000000" d="M608.8826,-683.2883C587.8351,-671.7295 561.051,-657.0202 536.4404,-643.5045"/>
<polygon fill="#000000" stroke="#000000" points="537.9363,-640.333 527.4863,-638.5871 534.5667,-646.4687 537.9363,-640.333"/>
</g>
<!-- bc2 -->
<g id="node7" class="node">
<title>bc2</title>
<path fill="#c7c7c7" stroke="#7f7f7f" d="M951.0156,-638.4C951.0156,-638.4 729.0964,-638.4 729.0964,-638.4 723.0964,-638.4 717.0964,-632.4 717.0964,-626.4 717.0964,-626.4 717.0964,-584.4 717.0964,-584.4 717.0964,-578.4 723.0964,-572.4 729.0964,-572.4 729.0964,-572.4 951.0156,-572.4 951.0156,-572.4 957.0156,-572.4 963.0156,-578.4 963.0156,-584.4 963.0156,-584.4 963.0156,-626.4 963.0156,-626.4 963.0156,-632.4 957.0156,-638.4 951.0156,-638.4"/>
<text text-anchor="start" x="728.3264" y="-614" font-family="Times,serif" font-size="16.00" fill="#000000">… grâce à l'usage de notre raison</text>
<text text-anchor="start" x="764.3902" y="-585.8" font-family="Times,serif" font-size="14.00" fill="#262626">(= une morale de la raison)</text>
</g>
<!-- b2&#45;&gt;bc2 -->
<g id="edge7" class="edge">
<title>b2-&gt;bc2</title>
<path fill="none" stroke="#000000" d="M686.1124,-684.2481C709.1701,-672.4383 739.1072,-657.1048 766.4439,-643.1033"/>
<polygon fill="#000000" stroke="#000000" points="768.2963,-646.087 775.6012,-638.413 765.1051,-639.8566 768.2963,-646.087"/>
</g>
<!-- vide1&#45;&gt;b2 -->
<!-- c1&#45;&gt;bc1 -->
<!-- e1 -->
<g id="node13" class="node">
<title>e1</title>
<path fill="#fafafa" stroke="transparent" d="M239.588,-561.6C239.588,-561.6 32.524,-561.6 32.524,-561.6 26.524,-561.6 20.524,-555.6 20.524,-549.6 20.524,-549.6 20.524,-487.6 20.524,-487.6 20.524,-481.6 26.524,-475.6 32.524,-475.6 32.524,-475.6 239.588,-475.6 239.588,-475.6 245.588,-475.6 251.588,-481.6 251.588,-487.6 251.588,-487.6 251.588,-549.6 251.588,-549.6 251.588,-555.6 245.588,-561.6 239.588,-561.6"/>
<text text-anchor="start" x="61.6384" y="-537.2" font-family="Times,serif" font-size="16.00" fill="#cd2626"> </text>
<text text-anchor="start" x="65.6384" y="-537.2" font-family="Times,serif" font-weight="bold" font-size="16.00" fill="#cd2626">Le relativisme culturel</text>
<text text-anchor="start" x="53.644" y="-505.2" font-family="Times,serif" font-size="16.00" fill="#cd2626">Montaigne sur la barbarie</text>
<text text-anchor="start" x="31.54" y="-489.2" font-family="Times,serif" font-size="16.00" fill="#cd2626">Lévi-Strauss et l'ethnocentrisme</text>
</g>
<!-- c1&#45;&gt;e1 -->
<!-- bc1&#45;&gt;bc2 -->
<!-- c2 -->
<g id="node10" class="node">
<title>c2</title>
<polygon fill="#ffffff" stroke="#7f7f7f" points="560.7714,-466.201 373.3406,-466.201 373.3406,-386.999 560.7714,-386.999 560.7714,-466.201"/>
<text text-anchor="middle" x="467.056" y="-441" font-family="Times,serif" font-size="16.00" fill="#000000">… parce que l'empathie</text>
<text text-anchor="middle" x="467.056" y="-421.8" font-family="Times,serif" font-size="16.00" fill="#000000">permet de saisir ce qui est</text>
<text text-anchor="middle" x="467.056" y="-402.6" font-family="Times,serif" font-size="16.00" fill="#000000">mal et ce qui est bien</text>
</g>
<!-- bc1&#45;&gt;c2 -->
<g id="edge12" class="edge">
<title>bc1-&gt;c2</title>
<path fill="none" stroke="#000000" d="M467.056,-572.1881C467.056,-545.3307 467.056,-507.0956 467.056,-476.548"/>
<polygon fill="#000000" stroke="#000000" points="470.5561,-476.5106 467.056,-466.5106 463.5561,-476.5106 470.5561,-476.5106"/>
</g>
<!-- bcc1 -->
<g id="node8" class="node">
<title>bcc1</title>
<path fill="#c7c7c7" stroke="#7f7f7f" d="M827.4434,-467.6C827.4434,-467.6 642.6686,-467.6 642.6686,-467.6 636.6686,-467.6 630.6686,-461.6 630.6686,-455.6 630.6686,-455.6 630.6686,-397.6 630.6686,-397.6 630.6686,-391.6 636.6686,-385.6 642.6686,-385.6 642.6686,-385.6 827.4434,-385.6 827.4434,-385.6 833.4434,-385.6 839.4434,-391.6 839.4434,-397.6 839.4434,-397.6 839.4434,-455.6 839.4434,-455.6 839.4434,-461.6 833.4434,-467.6 827.4434,-467.6"/>
<text text-anchor="start" x="660.428" y="-443.2" font-family="Times,serif" font-size="16.00" fill="#000000">… en réfléchissant aux</text>
<text text-anchor="start" x="648.0896" y="-427.2" font-family="Times,serif" font-size="16.00" fill="#000000">conséquences de nos choix</text>
<text text-anchor="start" x="641.6123" y="-399" font-family="Times,serif" font-size="14.00" fill="#262626">(= une morale des conséquences)</text>
<text text-anchor="start" x="610.6331" y="-472.4" font-family="Times,serif" font-size="16.00" fill="#006400">III </text>
</g>
<!-- bc2&#45;&gt;bcc1 -->
<g id="edge9" class="edge">
<title>bc2-&gt;bcc1</title>
<path fill="none" stroke="#000000" d="M820.5524,-572.1881C804.7906,-545.3481 782.356,-507.1451 764.4227,-476.6072"/>
<polygon fill="#000000" stroke="#000000" points="767.3363,-474.6569 759.2543,-467.8062 761.3001,-478.2017 767.3363,-474.6569"/>
</g>
<!-- bcc2 -->
<g id="node9" class="node">
<title>bcc2</title>
<path fill="#c7c7c7" stroke="#7f7f7f" d="M1051.3324,-467.6C1051.3324,-467.6 892.7796,-467.6 892.7796,-467.6 886.7796,-467.6 880.7796,-461.6 880.7796,-455.6 880.7796,-455.6 880.7796,-397.6 880.7796,-397.6 880.7796,-391.6 886.7796,-385.6 892.7796,-385.6 892.7796,-385.6 1051.3324,-385.6 1051.3324,-385.6 1057.3324,-385.6 1063.3324,-391.6 1063.3324,-397.6 1063.3324,-397.6 1063.3324,-455.6 1063.3324,-455.6 1063.3324,-461.6 1057.3324,-467.6 1051.3324,-467.6"/>
<text text-anchor="start" x="897.428" y="-443.2" font-family="Times,serif" font-size="16.00" fill="#000000">… en réfléchissant aux</text>
<text text-anchor="start" x="900.296" y="-427.2" font-family="Times,serif" font-size="16.00" fill="#000000">principes de nos choix</text>
<text text-anchor="start" x="891.9179" y="-399" font-family="Times,serif" font-size="14.00" fill="#262626">(= une morale des principes)</text>
<text text-anchor="start" x="860.0411" y="-472.4" font-family="Times,serif" font-size="16.00" fill="#006400">IV </text>
</g>
<!-- bc2&#45;&gt;bcc2 -->
<g id="edge10" class="edge">
<title>bc2-&gt;bcc2</title>
<path fill="none" stroke="#000000" d="M864.5748,-572.1881C884.4747,-545.2329 912.8354,-506.8169 935.4279,-476.2145"/>
<polygon fill="#000000" stroke="#000000" points="938.5117,-477.9302 941.6353,-467.8062 932.8801,-473.7726 938.5117,-477.9302"/>
</g>
<!-- bcc1&#45;&gt;bcc2 -->
<!-- c3 -->
<g id="node11" class="node">
<title>c3</title>
<polygon fill="#ffffff" stroke="#7f7f7f" points="850.9376,-290.401 543.1744,-290.401 543.1744,-211.199 850.9376,-211.199 850.9376,-290.401"/>
<text text-anchor="middle" x="697.056" y="-265.2" font-family="Times,serif" font-size="16.00" fill="#000000">… parce qu'on peut évaluer le bien et le mal</text>
<text text-anchor="middle" x="697.056" y="-246" font-family="Times,serif" font-size="16.00" fill="#000000">d'après un calcul des conséquences,</text>
<text text-anchor="middle" x="697.056" y="-226.8" font-family="Times,serif" font-size="16.00" fill="#000000">global et le plus objectif possible</text>
</g>
<!-- bcc1&#45;&gt;c3 -->
<g id="edge14" class="edge">
<title>bcc1-&gt;c3</title>
<path fill="none" stroke="#000000" d="M726.1467,-385.3827C720.6613,-360.0055 713.5951,-327.3151 707.8006,-300.5079"/>
<polygon fill="#000000" stroke="#000000" points="711.1818,-299.5841 705.648,-290.5493 704.3398,-301.0631 711.1818,-299.5841"/>
</g>
<!-- c4 -->
<g id="node12" class="node">
<title>c4</title>
<polygon fill="#ffffff" stroke="#7f7f7f" points="1098.0382,-290.401 892.0738,-290.401 892.0738,-211.199 1098.0382,-211.199 1098.0382,-290.401"/>
<text text-anchor="middle" x="995.056" y="-265.2" font-family="Times,serif" font-size="16.00" fill="#000000">… parce que le devoir moral</text>
<text text-anchor="middle" x="995.056" y="-246" font-family="Times,serif" font-size="16.00" fill="#000000">consiste à respecter des</text>
<text text-anchor="middle" x="995.056" y="-226.8" font-family="Times,serif" font-size="16.00" fill="#000000">grands principes moraux</text>
</g>
<!-- bcc2&#45;&gt;c4 -->
<g id="edge15" class="edge">
<title>bcc2-&gt;c4</title>
<path fill="none" stroke="#000000" d="M977.4485,-385.3827C980.7686,-360.0055 985.0455,-327.3151 988.5527,-300.5079"/>
<polygon fill="#000000" stroke="#000000" points="992.0287,-300.9189 989.8556,-290.5493 985.0878,-300.0107 992.0287,-300.9189"/>
</g>
<!-- c2&#45;&gt;bcc1 -->
<!-- c2&#45;&gt;bcc1 -->
<!-- e2 -->
<g id="node14" class="node">
<title>e2</title>
<path fill="#fafafa" stroke="transparent" d="M498.8766,-377.6C498.8766,-377.6 435.2354,-377.6 435.2354,-377.6 429.2354,-377.6 423.2354,-371.6 423.2354,-365.6 423.2354,-365.6 423.2354,-319.6 423.2354,-319.6 423.2354,-313.6 429.2354,-307.6 435.2354,-307.6 435.2354,-307.6 498.8766,-307.6 498.8766,-307.6 504.8766,-307.6 510.8766,-313.6 510.8766,-319.6 510.8766,-319.6 510.8766,-365.6 510.8766,-365.6 510.8766,-371.6 504.8766,-377.6 498.8766,-377.6"/>
<text text-anchor="start" x="434.396" y="-353.2" font-family="Times,serif" font-size="16.00" fill="#cd2626"> </text>
<text text-anchor="start" x="438.396" y="-353.2" font-family="Times,serif" font-weight="bold" font-size="16.00" fill="#cd2626">Rousseau</text>
<text text-anchor="start" x="441.8456" y="-321.2" font-family="Times,serif" font-size="16.00" fill="#cd2626">La pitié</text>
</g>
<!-- c2&#45;&gt;e2 -->
<!-- c3&#45;&gt;c4 -->
<!-- e3 -->
<g id="node15" class="node">
<title>e3</title>
<path fill="#fafafa" stroke="transparent" d="M740.0352,-187C740.0352,-187 654.0768,-187 654.0768,-187 648.0768,-187 642.0768,-181 642.0768,-175 642.0768,-175 642.0768,-129 642.0768,-129 642.0768,-123 648.0768,-117 654.0768,-117 654.0768,-117 740.0352,-117 740.0352,-117 746.0352,-117 752.0352,-123 752.0352,-129 752.0352,-129 752.0352,-175 752.0352,-175 752.0352,-181 746.0352,-187 740.0352,-187"/>
<text text-anchor="start" x="666.172" y="-162.6" font-family="Times,serif" font-size="16.00" fill="#cd2626"> </text>
<text text-anchor="start" x="670.172" y="-162.6" font-family="Times,serif" font-weight="bold" font-size="16.00" fill="#cd2626">Bentham</text>
<text text-anchor="start" x="653.0664" y="-130.6" font-family="Times,serif" font-size="16.00" fill="#cd2626">L'utilitarisme</text>
</g>
<!-- c3&#45;&gt;e3 -->
<!-- e4 -->
<g id="node16" class="node">
<title>e4</title>
<path fill="#fafafa" stroke="transparent" d="M1136.5528,-203C1136.5528,-203 853.5592,-203 853.5592,-203 847.5592,-203 841.5592,-197 841.5592,-191 841.5592,-191 841.5592,-113 841.5592,-113 841.5592,-107 847.5592,-101 853.5592,-101 853.5592,-101 1136.5528,-101 1136.5528,-101 1142.5528,-101 1148.5528,-107 1148.5528,-113 1148.5528,-113 1148.5528,-191 1148.5528,-191 1148.5528,-197 1142.5528,-203 1136.5528,-203"/>
<text text-anchor="start" x="977.5064" y="-178.6" font-family="Times,serif" font-size="16.00" fill="#cd2626"> </text>
<text text-anchor="start" x="981.5064" y="-178.6" font-family="Times,serif" font-weight="bold" font-size="16.00" fill="#cd2626">Kant</text>
<text text-anchor="start" x="852.5576" y="-146.6" font-family="Times,serif" font-size="16.00" fill="#cd2626">Une morale de l'autonomie (≠ de l'autorité)</text>
<text text-anchor="start" x="892.884" y="-130.6" font-family="Times,serif" font-size="16.00" fill="#cd2626">L'impératif catégorique, le test </text>
<text text-anchor="start" x="897.4168" y="-114.6" font-family="Times,serif" font-size="16.00" fill="#cd2626">d'universalisation et la dignité</text>
</g>
<!-- c4&#45;&gt;e4 -->
<!-- r1 -->
<g id="node17" class="node">
<title>r1</title>
<polygon fill="#f0f0f0" stroke="#666666" stroke-width=".4" points="134.067,-465.6 16.045,-465.6 16.045,-387.6 134.067,-387.6 134.067,-465.6"/>
<text text-anchor="start" x="39.4453" y="-448.1" font-family="Times,serif" font-style="italic" font-size="15.00" fill="#000000">Pertinence :</text>
<text text-anchor="start" x="20.801" y="-425.1" font-family="Times,serif" font-size="15.00" fill="#000000">▻ le dévoilement</text>
<text text-anchor="start" x="33.1978" y="-410.1" font-family="Times,serif" font-size="15.00" fill="#000000">des femmes à</text>
<text text-anchor="start" x="32.1523" y="-395.1" font-family="Times,serif" font-size="15.00" fill="#000000">Alger en 1958</text>
</g>
<!-- e1&#45;&gt;r1 -->
<g id="edge23" class="edge">
<title>e1-&gt;r1</title>
<path fill="none" stroke="#666666" stroke-width=".4" d="M107.5206,-475.563C105.3501,-472.2894 103.1662,-468.9957 101.0133,-465.7486"/>
</g>
<!-- r2 -->
<g id="node18" class="node">
<title>r2</title>
<polygon fill="#f0f0f0" stroke="#666666" stroke-width=".4" points="245.2026,-465.6 148.9094,-465.6 148.9094,-387.6 245.2026,-387.6 245.2026,-465.6"/>
<text text-anchor="start" x="170.182" y="-448.1" font-family="Times,serif" font-style="italic" font-size="15.00" fill="#000000">Limites :</text>
<text text-anchor="start" x="153.733" y="-425.1" font-family="Times,serif" font-size="15.00" fill="#000000">▻ les hyènes</text>
<text text-anchor="start" x="164.773" y="-410.1" font-family="Times,serif" font-size="15.00" fill="#000000">du Malawi</text>
<text text-anchor="start" x="158.1063" y="-395.1" font-family="Times,serif" font-size="15.00" fill="#000000">▻ l'excision</text>
</g>
<!-- e1&#45;&gt;r2 -->
<g id="edge24" class="edge">
<title>e1-&gt;r2</title>
<path fill="none" stroke="#666666" stroke-width=".4" d="M164.5914,-475.563C166.7619,-472.2894 168.9458,-468.9957 171.0987,-465.7486"/>
</g>
<!-- r3 -->
<g id="node19" class="node">
<title>r3</title>
<polygon fill="#f0f0f0" stroke="#666666" stroke-width=".4" points="426.2276,-289.8 315.8844,-289.8 315.8844,-211.8 426.2276,-211.8 426.2276,-289.8"/>
<text text-anchor="start" x="335.4453" y="-272.3" font-family="Times,serif" font-style="italic" font-size="15.00" fill="#000000">Pertinence :</text>
<text text-anchor="start" x="327.517" y="-249.3" font-family="Times,serif" font-size="15.00" fill="#000000">▻ le film</text>
<text text-anchor="start" x="385.843" y="-249.3" font-family="Times,serif" font-style="italic" font-size="15.00" fill="#000000">Moi,</text>
<text text-anchor="start" x="331.6953" y="-234.3" font-family="Times,serif" font-style="italic" font-size="15.00" fill="#000000">Daniel Blake</text>
<text text-anchor="start" x="320.9703" y="-219.3" font-family="Times,serif" font-size="15.00" fill="#000000">▻ les génocides</text>
</g>
<!-- e2&#45;&gt;r3 -->
<g id="edge25" class="edge">
<title>e2-&gt;r3</title>
<path fill="none" stroke="#666666" stroke-width=".4" d="M430.2144,-307.3703C424.2923,-301.7072 418.1303,-295.8148 412.1168,-290.0643"/>
</g>
<!-- r4 -->
<g id="node20" class="node">
<title>r4</title>
<polygon fill="#f0f0f0" stroke="#666666" stroke-width=".4" points="512.123,-289.8 439.989,-289.8 439.989,-211.8 512.123,-211.8 512.123,-289.8"/>
<text text-anchor="start" x="449.182" y="-272.3" font-family="Times,serif" font-style="italic" font-size="15.00" fill="#000000">Limites :</text>
<text text-anchor="start" x="447.3198" y="-249.3" font-family="Times,serif" font-size="15.00" fill="#000000">▻ Le cas</text>
<text text-anchor="start" x="445.0225" y="-234.3" font-family="Times,serif" font-size="15.00" fill="#000000">du cochon</text>
<text text-anchor="start" x="456.8973" y="-219.3" font-family="Times,serif" font-size="15.00" fill="#000000">Esther</text>
</g>
<!-- e2&#45;&gt;r4 -->
<g id="edge26" class="edge">
<title>e2-&gt;r4</title>
<path fill="none" stroke="#666666" stroke-width=".4" d="M470.5099,-307.3703C471.0651,-301.7072 471.6428,-295.8148 472.2066,-290.0643"/>
</g>
<!-- r5 -->
<g id="node21" class="node">
<title>r5</title>
<polygon fill="#f0f0f0" stroke="#666666" stroke-width=".4" points="660.7223,-93 473.3897,-93 473.3897,0 660.7223,0 660.7223,-93"/>
<text text-anchor="start" x="531.4453" y="-75.5" font-family="Times,serif" font-style="italic" font-size="15.00" fill="#000000">Pertinence :</text>
<text text-anchor="start" x="478.223" y="-52.5" font-family="Times,serif" font-size="15.00" fill="#000000">▻ les politiques de réduction</text>
<text text-anchor="start" x="482.813" y="-37.5" font-family="Times,serif" font-size="15.00" fill="#000000">des risques liés aux drogues</text>
<text text-anchor="start" x="503.8483" y="-22.5" font-family="Times,serif" font-size="15.00" fill="#000000">▻ l'homoparentalité</text>
<text text-anchor="start" x="494.7815" y="-7.5" font-family="Times,serif" font-size="15.00" fill="#000000">▻ la viande industrielle</text>
</g>
<!-- e3&#45;&gt;r5 -->
<g id="edge27" class="edge">
<title>e3-&gt;r5</title>
<path fill="none" stroke="#666666" stroke-width=".4" d="M653.7679,-116.87C644.4613,-109.3174 634.4839,-101.2203 624.7294,-93.3042"/>
</g>
<!-- r6 -->
<g id="node22" class="node">
<title>r6</title>
<polygon fill="#f0f0f0" stroke="#666666" stroke-width=".4" points="793.2464,-85.5 674.8656,-85.5 674.8656,-7.5 793.2464,-7.5 793.2464,-85.5"/>
<text text-anchor="start" x="707.182" y="-68" font-family="Times,serif" font-style="italic" font-size="15.00" fill="#000000">Limites :</text>
<text text-anchor="start" x="704.893" y="-45" font-family="Times,serif" font-size="15.00" fill="#000000">▻ le film</text>
<text text-anchor="start" x="679.711" y="-30" font-family="Times,serif" font-style="italic" font-size="15.00" fill="#000000">Mesure d'urgence</text>
<text text-anchor="start" x="682.8153" y="-15" font-family="Times,serif" font-size="15.00" fill="#000000">▻ le film</text>
<text text-anchor="start" x="741.1413" y="-15" font-family="Times,serif" font-style="italic" font-size="15.00" fill="#000000">I, robot</text>
</g>
<!-- e3&#45;&gt;r6 -->
<g id="edge28" class="edge">
<title>e3-&gt;r6</title>
<path fill="none" stroke="#666666" stroke-width=".4" d="M709.3765,-116.87C712.8661,-106.9198 716.6872,-96.0245 720.258,-85.8429"/>
</g>
<!-- r7 -->
<g id="node23" class="node">
<title>r7</title>
<polygon fill="#f0f0f0" stroke="#666666" stroke-width=".4" points="1034.4415,-85.5 881.6705,-85.5 881.6705,-7.5 1034.4415,-7.5 1034.4415,-85.5"/>
<text text-anchor="start" x="922.4453" y="-68" font-family="Times,serif" font-style="italic" font-size="15.00" fill="#000000">Pertinence :</text>
<text text-anchor="start" x="903.2753" y="-45" font-family="Times,serif" font-size="15.00" fill="#000000">▻ le film</text>
<text text-anchor="start" x="961.6013" y="-45" font-family="Times,serif" font-style="italic" font-size="15.00" fill="#000000">Le Loup</text>
<text text-anchor="start" x="914.535" y="-30" font-family="Times,serif" font-style="italic" font-size="15.00" fill="#000000">de Wall-Street</text>
<text text-anchor="start" x="886.6133" y="-15" font-family="Times,serif" font-size="15.00" fill="#000000">▻ le film</text>
<text text-anchor="start" x="944.9393" y="-15" font-family="Times,serif" font-style="italic" font-size="15.00" fill="#000000">Elephant Man</text>
</g>
<!-- e4&#45;&gt;r7 -->
<g id="edge29" class="edge">
<title>e4-&gt;r7</title>
<path fill="none" stroke="#666666" stroke-width=".4" d="M977.0979,-100.7952C975.3303,-95.7552 973.5562,-90.6964 971.84,-85.8031"/>
</g>
<!-- r8 -->
<g id="node24" class="node">
<title>r8</title>
<polygon fill="#f0f0f0" stroke="#666666" stroke-width=".4" points="1287.8747,-85.5 1048.2373,-85.5 1048.2373,-7.5 1287.8747,-7.5 1287.8747,-85.5"/>
<text text-anchor="start" x="1141.182" y="-68" font-family="Times,serif" font-style="italic" font-size="15.00" fill="#000000">Limites :</text>
<text text-anchor="start" x="1053.3968" y="-45" font-family="Times,serif" font-size="15.00" fill="#000000">▻ Péguy : « Le kantisme a les mains</text>
<text text-anchor="start" x="1067.6678" y="-30" font-family="Times,serif" font-size="15.00" fill="#000000">pures, mais il n'a pas de mains »</text>
<text text-anchor="start" x="1081.2263" y="-15" font-family="Times,serif" font-size="15.00" fill="#000000">▻ l'affaire du lancer de nain</text>
</g>
<!-- e4&#45;&gt;r8 -->
<g id="edge30" class="edge">
<title>e4-&gt;r8</title>
<path fill="none" stroke="#666666" stroke-width=".4" d="M1078.7688,-100.9497C1087.2211,-95.7953 1095.7089,-90.6192 1103.909,-85.6186"/>
</g>
</g>
</svg>