<?xml version="1.0" encoding="UTF-8" standalone="no"?>
<!DOCTYPE svg PUBLIC "-//W3C//DTD SVG 1.1//EN"
 "http://www.w3.org/Graphics/SVG/1.1/DTD/svg11.dtd">
<!-- Generated by graphviz version 2.40.1 (20161225.0304)
 -->
<!-- Title: G Pages: 1 -->
<svg width="560pt" height="317pt"
 viewBox="0.00 0.00 560.09 316.83" xmlns="http://www.w3.org/2000/svg" xmlns:xlink="http://www.w3.org/1999/xlink">
<g id="graph0" class="graph" transform="scale(1 1) rotate(0) translate(21.6 295.2272)">
<title>G</title>
<polygon fill="#fafafa" stroke="transparent" points="-21.6,21.6 -21.6,-295.2272 538.4888,-295.2272 538.4888,21.6 -21.6,21.6"/>
<!-- a1 -->
<g id="node1" class="node">
<title>a1</title>
<ellipse fill="#000000" stroke="#000000" cx="258.7616" cy="-237.4234" rx="78.9812" ry="36.4089"/>
<text text-anchor="middle" x="258.7616" y="-242.8234" font-family="Times,serif" font-size="18.00" fill="#ffffff">Utiliser</text>
<text text-anchor="middle" x="258.7616" y="-221.2234" font-family="Times,serif" font-size="18.00" fill="#ffffff">le numérique</text>
</g>
<!-- b1 -->
<g id="node2" class="node">
<title>b1</title>
<ellipse fill="#8b0000" stroke="#000000" cx="107.7616" cy="-133.4098" rx="87.3242" ry="32.6206"/>
<text text-anchor="middle" x="107.7616" y="-138.2098" font-family="Times,serif" font-size="16.00" fill="#ffffff">A. pour préparer</text>
<text text-anchor="middle" x="107.7616" y="-119.0098" font-family="Times,serif" font-size="16.00" fill="#ffffff">ses cours</text>
</g>
<!-- a1&#45;&gt;b1 -->
<g id="edge1" class="edge">
<title>a1&#45;&gt;b1:n</title>
<path fill="none" stroke="#000000" d="M191.2114,-218.4402C157.6029,-207.2632 121.8696,-192.1551 111.0492,-175.901"/>
<polygon fill="#000000" stroke="#000000" points="114.2912,-174.563 107.7616,-166.2195 107.663,-176.8139 114.2912,-174.563"/>
</g>
<!-- b2 -->
<g id="node3" class="node">
<title>b2</title>
<ellipse fill="#8b0000" stroke="#000000" cx="409.7616" cy="-133.4098" rx="107.2546" ry="32.6206"/>
<text text-anchor="middle" x="409.7616" y="-138.2098" font-family="Times,serif" font-size="16.00" fill="#ffffff">B. pour faire le cours</text>
<text text-anchor="middle" x="409.7616" y="-119.0098" font-family="Times,serif" font-size="16.00" fill="#ffffff">avec les élèves</text>
</g>
<!-- a1&#45;&gt;b2 -->
<g id="edge2" class="edge">
<title>a1&#45;&gt;b2:n</title>
<path fill="none" stroke="#000000" d="M326.3118,-218.4402C359.9203,-207.2632 395.6536,-192.1551 406.474,-175.901"/>
<polygon fill="#000000" stroke="#000000" points="409.8602,-176.8139 409.7616,-166.2195 403.232,-174.563 409.8602,-176.8139"/>
</g>
<!-- b1&#45;&gt;b2 -->
<!-- c1 -->
<g id="node4" class="node">
<title>c1</title>
<polygon fill="#ffffff" stroke="#7f7f7f" points="95.286,-56.2017 .2372,-56.2017 .2372,-9.3983 95.286,-9.3983 95.286,-56.2017"/>
<text text-anchor="middle" x="47.7616" y="-37.6" font-family="Times,serif" font-size="16.00" fill="#000000">1/ Organiser</text>
<text text-anchor="middle" x="47.7616" y="-18.4" font-family="Times,serif" font-size="16.00" fill="#000000">son travail</text>
</g>
<!-- b1&#45;&gt;c1 -->
<g id="edge4" class="edge">
<title>b1&#45;&gt;c1</title>
<path fill="none" stroke="#000000" d="M88.6123,-101.2996C81.6159,-89.5679 73.7097,-76.3105 66.7292,-64.6055"/>
<polygon fill="#000000" stroke="#000000" points="69.7302,-62.8042 61.6021,-56.0082 63.7181,-66.3896 69.7302,-62.8042"/>
</g>
<!-- c2 -->
<g id="node5" class="node">
<title>c2</title>
<polygon fill="#ffffff" stroke="#7f7f7f" points="241.474,-56.2017 132.0492,-56.2017 132.0492,-9.3983 241.474,-9.3983 241.474,-56.2017"/>
<text text-anchor="middle" x="186.7616" y="-37.6" font-family="Times,serif" font-size="16.00" fill="#000000">2/ Faire</text>
<text text-anchor="middle" x="186.7616" y="-18.4" font-family="Times,serif" font-size="16.00" fill="#000000">des recherches</text>
</g>
<!-- b1&#45;&gt;c2 -->
<g id="edge5" class="edge">
<title>b1&#45;&gt;c2</title>
<path fill="none" stroke="#000000" d="M132.5409,-101.8522C141.953,-89.8656 152.6663,-76.2218 162.0702,-64.2455"/>
<polygon fill="#000000" stroke="#000000" points="164.9163,-66.2882 168.3393,-56.2615 159.4107,-61.9651 164.9163,-66.2882"/>
</g>
<!-- c3 -->
<g id="node6" class="node">
<title>c3</title>
<polygon fill="#ffffff" stroke="#7f7f7f" points="391.3051,-65.4012 296.2181,-65.4012 296.2181,-.1988 391.3051,-.1988 391.3051,-65.4012"/>
<text text-anchor="middle" x="343.7616" y="-47.2" font-family="Times,serif" font-size="16.00" fill="#000000">1/ Utiliser</text>
<text text-anchor="middle" x="343.7616" y="-28" font-family="Times,serif" font-size="16.00" fill="#000000">des supports</text>
<text text-anchor="middle" x="343.7616" y="-8.8" font-family="Times,serif" font-size="16.00" fill="#000000">de cours</text>
</g>
<!-- b2&#45;&gt;c3 -->
<g id="edge6" class="edge">
<title>b2&#45;&gt;c3</title>
<path fill="none" stroke="#000000" d="M388.5155,-101.0224C382.8612,-92.4031 376.6774,-82.9765 370.76,-73.956"/>
<polygon fill="#000000" stroke="#000000" points="373.6058,-71.9133 365.1942,-65.4716 367.7528,-75.7529 373.6058,-71.9133"/>
</g>
<!-- c4 -->
<g id="node7" class="node">
<title>c4</title>
<polygon fill="#ffffff" stroke="#7f7f7f" points="512.3352,-65.4012 427.188,-65.4012 427.188,-.1988 512.3352,-.1988 512.3352,-65.4012"/>
<text text-anchor="middle" x="469.7616" y="-47.2" font-family="Times,serif" font-size="16.00" fill="#000000">2/ Faire</text>
<text text-anchor="middle" x="469.7616" y="-28" font-family="Times,serif" font-size="16.00" fill="#000000">travailler</text>
<text text-anchor="middle" x="469.7616" y="-8.8" font-family="Times,serif" font-size="16.00" fill="#000000">les élèves</text>
</g>
<!-- b2&#45;&gt;c4 -->
<g id="edge7" class="edge">
<title>b2&#45;&gt;c4</title>
<path fill="none" stroke="#000000" d="M429.0762,-101.0224C434.1635,-92.4919 439.7223,-83.1708 445.0512,-74.2351"/>
<polygon fill="#000000" stroke="#000000" points="448.1615,-75.853 450.2774,-65.4716 442.1494,-72.2676 448.1615,-75.853"/>
</g>
</g>
</svg>
