<?xml version="1.0" encoding="UTF-8" standalone="no"?><!DOCTYPE svg PUBLIC "-//W3C//DTD SVG 1.1//EN" "http://www.w3.org/Graphics/SVG/1.1/DTD/svg11.dtd"><!-- Generated by graphviz version 2.40.1 (20161225.0304)
 --><!-- Title: G Pages: 1 --><svg xmlns="http://www.w3.org/2000/svg" xmlns:xlink="http://www.w3.org/1999/xlink" width="993pt" height="655pt" viewBox="0.00 0.00 992.93 654.93">
<g id="graph0" class="graph" transform="scale(1 1) rotate(0) translate(21.6 633.3272)">
<title>G</title>
<polygon fill="#fafafa" stroke="transparent" points="-21.6,21.6 -21.6,-633.3272 971.3344,-633.3272 971.3344,21.6 -21.6,21.6"/>
<!-- a1 -->
<g id="node1" class="node">
<title>a1</title>
<ellipse fill="#000000" stroke="#000000" cx="407.5248" cy="-560.2498" rx="74.6711" ry="51.4548"/>
<text text-anchor="middle" x="407.5248" y="-576.4498" font-family="Times,serif" font-size="18.00" fill="#ffffff">Faut-il avoir</text>
<text text-anchor="middle" x="407.5248" y="-554.8498" font-family="Times,serif" font-size="18.00" fill="#ffffff">peur de la</text>
<text text-anchor="middle" x="407.5248" y="-533.2498" font-family="Times,serif" font-size="18.00" fill="#ffffff">technique ?</text>
</g>
<!-- b1 -->
<g id="node2" class="node">
<title>b1</title>
<ellipse fill="#8b0000" stroke="#000000" cx="235.5248" cy="-427.3862" rx="105.607" ry="46.2727"/>
<text text-anchor="middle" x="235.5248" y="-441.7862" font-family="Times,serif" font-size="16.00" fill="#ffffff">La peur de la</text>
<text text-anchor="middle" x="235.5248" y="-422.5862" font-family="Times,serif" font-size="16.00" fill="#ffffff">technique semble</text>
<text text-anchor="middle" x="235.5248" y="-403.3862" font-family="Times,serif" font-size="16.00" fill="#ffffff">être sans fondement</text>
<text text-anchor="start" x="124.6449" y="-478.5724" font-family="Times,serif" font-size="16.00" fill="#006400">I</text>
</g>
<!-- a1&#45;&gt;b1 -->
<g id="edge1" class="edge">
<title>a1-&gt;b1:n</title>
<path fill="none" stroke="#000000" d="M333.5831,-551.7561C290.4252,-542.5466 243.1339,-523.3608 236.3519,-483.4025"/>
<polygon fill="#000000" stroke="#000000" points="239.8359,-483.0642 235.5248,-473.3862 232.8597,-483.6403 239.8359,-483.0642"/>
</g>
<!-- b2 -->
<g id="node3" class="node">
<title>b2</title>
<ellipse fill="#8b0000" stroke="#000000" cx="586.5248" cy="-427.3862" rx="87.1839" ry="46.2727"/>
<text text-anchor="middle" x="586.5248" y="-441.7862" font-family="Times,serif" font-size="16.00" fill="#ffffff">Il y a des raisons</text>
<text text-anchor="middle" x="586.5248" y="-422.5862" font-family="Times,serif" font-size="16.00" fill="#ffffff">d'avoir peur de</text>
<text text-anchor="middle" x="586.5248" y="-403.3862" font-family="Times,serif" font-size="16.00" fill="#ffffff">la technique</text>
<text text-anchor="start" x="488.5302" y="-478.5724" font-family="Times,serif" font-size="16.00" fill="#006400">II</text>
</g>
<!-- a1&#45;&gt;b2 -->
<g id="edge2" class="edge">
<title>a1-&gt;b2:n</title>
<path fill="none" stroke="#000000" d="M476.4748,-540.4784C520.3997,-526.0381 571.3056,-505.2089 583.6999,-483.2116"/>
<polygon fill="#000000" stroke="#000000" points="587.1253,-483.964 586.5248,-473.3862 580.3978,-482.0297 587.1253,-483.964"/>
</g>
<!-- c1 -->
<g id="node4" class="node">
<title>c1</title>
<polygon fill="#ffffff" stroke="#7f7f7f" points="153.2595,-346 15.7901,-346 15.7901,-242 153.2595,-242 153.2595,-346"/>
<text text-anchor="middle" x="84.5248" y="-327.6" font-family="Times,serif" font-size="16.00" fill="#000000">… parce qu’il</text>
<text text-anchor="middle" x="84.5248" y="-308.4" font-family="Times,serif" font-size="16.00" fill="#000000">serait irrationnel</text>
<text text-anchor="middle" x="84.5248" y="-289.2" font-family="Times,serif" font-size="16.00" fill="#000000">de craindre un</text>
<text text-anchor="middle" x="84.5248" y="-270" font-family="Times,serif" font-size="16.00" fill="#000000">élément constitutif</text>
<text text-anchor="middle" x="84.5248" y="-250.8" font-family="Times,serif" font-size="16.00" fill="#000000">de notre humanité</text>
<text text-anchor="start" x="0" y="-349.6" font-family="Times,serif" font-size="12.00" fill="#0000cd">A </text>
</g>
<!-- b1&#45;&gt;c1 -->
<g id="edge3" class="edge">
<title>b1-&gt;c1:n</title>
<path fill="none" stroke="#000000" d="M139.0393,-408.1386C112.7981,-397.5621 90.2309,-381.2369 85.4548,-356.0803"/>
<polygon fill="#000000" stroke="#000000" points="88.9287,-355.6362 84.5248,-346 81.9583,-356.2793 88.9287,-355.6362"/>
</g>
<!-- c2 -->
<g id="node5" class="node">
<title>c2</title>
<polygon fill="#ffffff" stroke="#7f7f7f" points="300.6493,-346 170.4003,-346 170.4003,-242 300.6493,-242 300.6493,-346"/>
<text text-anchor="middle" x="235.5248" y="-327.6" font-family="Times,serif" font-size="16.00" fill="#000000">… parce que la</text>
<text text-anchor="middle" x="235.5248" y="-308.4" font-family="Times,serif" font-size="16.00" fill="#000000">technique permet,</text>
<text text-anchor="middle" x="235.5248" y="-289.2" font-family="Times,serif" font-size="16.00" fill="#000000">au contraire, de</text>
<text text-anchor="middle" x="235.5248" y="-270" font-family="Times,serif" font-size="16.00" fill="#000000">ne pas vivre dans</text>
<text text-anchor="middle" x="235.5248" y="-250.8" font-family="Times,serif" font-size="16.00" fill="#000000">l’appréhension</text>
<text text-anchor="start" x="155.2152" y="-349.6" font-family="Times,serif" font-size="12.00" fill="#0000cd">B </text>
</g>
<!-- b1&#45;&gt;c2 -->
<g id="edge4" class="edge">
<title>b1-&gt;c2</title>
<path fill="none" stroke="#000000" d="M235.5248,-380.7342C235.5248,-372.9163 235.5248,-364.6935 235.5248,-356.5532"/>
<polygon fill="#000000" stroke="#000000" points="239.0249,-356.3229 235.5248,-346.323 232.0249,-356.323 239.0249,-356.3229"/>
</g>
<!-- c3 -->
<g id="node6" class="node">
<title>c3</title>
<polygon fill="#ffffff" stroke="#7f7f7f" points="676.5103,-346 496.5393,-346 496.5393,-242 676.5103,-242 676.5103,-346"/>
<text text-anchor="middle" x="586.5248" y="-327.6" font-family="Times,serif" font-size="16.00" fill="#000000">… parce que la technique</text>
<text text-anchor="middle" x="586.5248" y="-308.4" font-family="Times,serif" font-size="16.00" fill="#000000">peut conduire à des</text>
<text text-anchor="middle" x="586.5248" y="-289.2" font-family="Times,serif" font-size="16.00" fill="#000000">transformations</text>
<text text-anchor="middle" x="586.5248" y="-270" font-family="Times,serif" font-size="16.00" fill="#000000">importantes et</text>
<text text-anchor="middle" x="586.5248" y="-250.8" font-family="Times,serif" font-size="16.00" fill="#000000">inquiétantes</text>
<text text-anchor="start" x="481.1248" y="-349.6" font-family="Times,serif" font-size="12.00" fill="#0000cd">A </text>
</g>
<!-- b2&#45;&gt;c3 -->
<g id="edge5" class="edge">
<title>b2-&gt;c3</title>
<path fill="none" stroke="#000000" d="M586.5248,-380.7342C586.5248,-372.9163 586.5248,-364.6935 586.5248,-356.5532"/>
<polygon fill="#000000" stroke="#000000" points="590.0249,-356.3229 586.5248,-346.323 583.0249,-356.323 590.0249,-356.3229"/>
</g>
<!-- c4 -->
<g id="node7" class="node">
<title>c4</title>
<polygon fill="#ffffff" stroke="#7f7f7f" points="874.6366,-336.3002 756.413,-336.3002 756.413,-251.6998 874.6366,-251.6998 874.6366,-336.3002"/>
<text text-anchor="middle" x="815.5248" y="-318" font-family="Times,serif" font-size="16.00" fill="#000000">… parce que la</text>
<text text-anchor="middle" x="815.5248" y="-298.8" font-family="Times,serif" font-size="16.00" fill="#000000">technique peut</text>
<text text-anchor="middle" x="815.5248" y="-279.6" font-family="Times,serif" font-size="16.00" fill="#000000">échapper à</text>
<text text-anchor="middle" x="815.5248" y="-260.4" font-family="Times,serif" font-size="16.00" fill="#000000">notre contrôle</text>
<text text-anchor="start" x="741.2216" y="-340" font-family="Times,serif" font-size="12.00" fill="#0000cd">B </text>
</g>
<!-- b2&#45;&gt;c4 -->
<g id="edge6" class="edge">
<title>b2-&gt;c4:n</title>
<path fill="none" stroke="#000000" d="M668.2292,-410.7349C727.3154,-396.5148 799.1266,-373.9106 813.1038,-345.7566"/>
<polygon fill="#000000" stroke="#000000" points="816.5133,-346.5486 815.5248,-336 809.7194,-344.8627 816.5133,-346.5486"/>
</g>
<!-- d0a -->
<g id="node8" class="node">
<title>d0a</title>
<polygon fill="#ffffff" stroke="#7f7f7f" points="144.0952,-123.2 16.9544,-123.2 16.9544,-19.2 144.0952,-19.2 144.0952,-123.2"/>
<text text-anchor="middle" x="80.5248" y="-104.8" font-family="Times,serif" font-size="16.00" fill="#000000">La technique ne</text>
<text text-anchor="middle" x="80.5248" y="-85.6" font-family="Times,serif" font-size="16.00" fill="#000000">joue-t-elle pas un</text>
<text text-anchor="middle" x="80.5248" y="-66.4" font-family="Times,serif" font-size="16.00" fill="#000000">rôle fondamental</text>
<text text-anchor="middle" x="80.5248" y="-47.2" font-family="Times,serif" font-size="16.00" fill="#000000">dans l'évolution</text>
<text text-anchor="middle" x="80.5248" y="-28" font-family="Times,serif" font-size="16.00" fill="#000000">humaine ?</text>
</g>
<!-- c1&#45;&gt;d0a -->
<g id="edge7" class="edge">
<title>c1-&gt;d0a</title>
<path fill="none" stroke="#000000" d="M83.587,-241.7633C83.0073,-209.4759 82.2599,-167.8476 81.6487,-133.7995"/>
<polygon fill="#000000" stroke="#000000" points="85.1427,-133.4305 81.4637,-123.495 78.1438,-133.5562 85.1427,-133.4305"/>
</g>
<!-- d0b -->
<g id="node9" class="node">
<title>d0b</title>
<polygon fill="#ffffff" stroke="#7f7f7f" points="313.0296,-142.6006 158.02,-142.6006 158.02,.2006 313.0296,.2006 313.0296,-142.6006"/>
<text text-anchor="middle" x="235.5248" y="-124" font-family="Times,serif" font-size="16.00" fill="#000000">N'est-ce pas grâce</text>
<text text-anchor="middle" x="235.5248" y="-104.8" font-family="Times,serif" font-size="16.00" fill="#000000">au progrès technique</text>
<text text-anchor="middle" x="235.5248" y="-85.6" font-family="Times,serif" font-size="16.00" fill="#000000">que nous sommes</text>
<text text-anchor="middle" x="235.5248" y="-66.4" font-family="Times,serif" font-size="16.00" fill="#000000">devenus capables de</text>
<text text-anchor="middle" x="235.5248" y="-47.2" font-family="Times,serif" font-size="16.00" fill="#000000">maîtriser la nature</text>
<text text-anchor="middle" x="235.5248" y="-28" font-family="Times,serif" font-size="16.00" fill="#000000">et nos conditions</text>
<text text-anchor="middle" x="235.5248" y="-8.8" font-family="Times,serif" font-size="16.00" fill="#000000">d’existence ?</text>
</g>
<!-- c2&#45;&gt;d0b -->
<g id="edge8" class="edge">
<title>c2-&gt;d0b</title>
<path fill="none" stroke="#000000" d="M235.5248,-241.7633C235.5248,-215.3009 235.5248,-182.564 235.5248,-152.8684"/>
<polygon fill="#000000" stroke="#000000" points="239.0249,-152.5067 235.5248,-142.5068 232.0249,-152.5068 239.0249,-152.5067"/>
</g>
<!-- d1 -->
<g id="node10" class="node">
<title>d1</title>
<polygon fill="#ffffff" stroke="#7f7f7f" points="510.2515,-113.5002 382.7981,-113.5002 382.7981,-28.8998 510.2515,-28.8998 510.2515,-113.5002"/>
<text text-anchor="middle" x="446.5248" y="-95.2" font-family="Times,serif" font-size="16.00" fill="#000000">Une</text>
<text text-anchor="middle" x="446.5248" y="-76" font-family="Times,serif" font-size="16.00" fill="#000000">transformation</text>
<text text-anchor="middle" x="446.5248" y="-56.8" font-family="Times,serif" font-size="16.00" fill="#000000">de l'économie et </text>
<text text-anchor="middle" x="446.5248" y="-37.6" font-family="Times,serif" font-size="16.00" fill="#000000">de la société ?</text>
</g>
<!-- c3&#45;&gt;d1 -->
<g id="edge9" class="edge">
<title>c3-&gt;d1</title>
<path fill="none" stroke="#000000" d="M553.701,-241.7633C531.1257,-205.8364 501.2831,-158.344 478.822,-122.5988"/>
<polygon fill="#000000" stroke="#000000" points="481.5636,-120.3833 473.2796,-113.7783 475.6366,-124.1076 481.5636,-120.3833"/>
</g>
<!-- d2 -->
<g id="node11" class="node">
<title>d2</title>
<polygon fill="#ffffff" stroke="#7f7f7f" points="634.717,-113.5002 524.3326,-113.5002 524.3326,-28.8998 634.717,-28.8998 634.717,-113.5002"/>
<text text-anchor="middle" x="579.5248" y="-95.2" font-family="Times,serif" font-size="16.00" fill="#000000">Une</text>
<text text-anchor="middle" x="579.5248" y="-76" font-family="Times,serif" font-size="16.00" fill="#000000">transformation</text>
<text text-anchor="middle" x="579.5248" y="-56.8" font-family="Times,serif" font-size="16.00" fill="#000000">des individus</text>
<text text-anchor="middle" x="579.5248" y="-37.6" font-family="Times,serif" font-size="16.00" fill="#000000">eux-mêmes ?</text>
</g>
<!-- c3&#45;&gt;d2 -->
<g id="edge10" class="edge">
<title>c3-&gt;d2</title>
<path fill="none" stroke="#000000" d="M584.8836,-241.7633C583.7692,-206.2931 582.3006,-159.5496 581.1827,-123.9676"/>
<polygon fill="#000000" stroke="#000000" points="584.6749,-123.6634 580.8625,-113.7783 577.6784,-123.8833 584.6749,-123.6634"/>
</g>
<!-- d3 -->
<g id="node12" class="node">
<title>d3</title>
<polygon fill="#ffffff" stroke="#7f7f7f" points="778.3195,-113.5002 648.7301,-113.5002 648.7301,-28.8998 778.3195,-28.8998 778.3195,-113.5002"/>
<text text-anchor="middle" x="713.5248" y="-95.2" font-family="Times,serif" font-size="16.00" fill="#000000">Une</text>
<text text-anchor="middle" x="713.5248" y="-76" font-family="Times,serif" font-size="16.00" fill="#000000">transformation de</text>
<text text-anchor="middle" x="713.5248" y="-56.8" font-family="Times,serif" font-size="16.00" fill="#000000">l'environnement</text>
<text text-anchor="middle" x="713.5248" y="-37.6" font-family="Times,serif" font-size="16.00" fill="#000000">naturel ?</text>
</g>
<!-- c3&#45;&gt;d3 -->
<g id="edge11" class="edge">
<title>c3-&gt;d3</title>
<path fill="none" stroke="#000000" d="M596.7684,-241.7702C602.7336,-218.3447 611.6746,-190.9693 624.5248,-168.4 633.9813,-151.7912 646.7422,-135.6724 659.6444,-121.4922"/>
<polygon fill="#000000" stroke="#000000" points="662.5392,-123.5204 666.8066,-113.8229 657.4232,-118.7426 662.5392,-123.5204"/>
</g>
<!-- e1 -->
<g id="node14" class="node">
<title>e1</title>
<text text-anchor="middle" x="683.5248" y="-215.6" font-family="Times,serif" font-size="16.00" fill="#cd2626">= thèse du</text>
<text text-anchor="middle" x="683.5248" y="-196.4" font-family="Times,serif" font-size="16.00" fill="#cd2626">déterminisme</text>
<text text-anchor="middle" x="683.5248" y="-177.2" font-family="Times,serif" font-size="16.00" fill="#cd2626">technique</text>
</g>
<!-- c3&#45;&gt;e1 -->
<!-- d4 -->
<g id="node13" class="node">
<title>d4</title>
<polygon fill="#ffffff" stroke="#7f7f7f" points="941.6977,-113.5002 805.3519,-113.5002 805.3519,-28.8998 941.6977,-28.8998 941.6977,-113.5002"/>
<text text-anchor="middle" x="873.5248" y="-95.2" font-family="Times,serif" font-size="16.00" fill="#000000">Peut-on contrôler</text>
<text text-anchor="middle" x="873.5248" y="-76" font-family="Times,serif" font-size="16.00" fill="#000000">démocratiquement</text>
<text text-anchor="middle" x="873.5248" y="-56.8" font-family="Times,serif" font-size="16.00" fill="#000000">le développement</text>
<text text-anchor="middle" x="873.5248" y="-37.6" font-family="Times,serif" font-size="16.00" fill="#000000">technologique ?</text>
</g>
<!-- c4&#45;&gt;d4 -->
<g id="edge12" class="edge">
<title>c4-&gt;d4</title>
<path fill="none" stroke="#000000" d="M817.4486,-251.5313C819.3399,-226.9084 823.0899,-195.5084 830.5248,-168.4 834.6886,-153.2183 840.8527,-137.3606 847.2214,-122.9634"/>
<polygon fill="#000000" stroke="#000000" points="850.4643,-124.287 851.4171,-113.7351 844.0921,-121.3897 850.4643,-124.287"/>
</g>
<!-- e2 -->
<g id="node15" class="node">
<title>e2</title>
<text text-anchor="middle" x="893.5248" y="-215.6" font-family="Times,serif" font-size="16.00" fill="#cd2626">= thèse de</text>
<text text-anchor="middle" x="893.5248" y="-196.4" font-family="Times,serif" font-size="16.00" fill="#cd2626">l'autonomie de</text>
<text text-anchor="middle" x="893.5248" y="-177.2" font-family="Times,serif" font-size="16.00" fill="#cd2626">la technique</text>
</g>
<!-- c4&#45;&gt;e2 -->
<!-- d0b&#45;&gt;d1 -->
<!-- d3&#45;&gt;d4 -->
</g>
</svg>