<?xml version="1.0" encoding="UTF-8" standalone="no"?>
<!DOCTYPE svg PUBLIC "-//W3C//DTD SVG 1.1//EN"
 "http://www.w3.org/Graphics/SVG/1.1/DTD/svg11.dtd">
<!-- Generated by graphviz version 2.40.1 (20161225.0304)
 -->
<!-- Title: G Pages: 1 -->
<svg width="677pt" height="336pt"
 viewBox="0.00 0.00 677.50 336.03" xmlns="http://www.w3.org/2000/svg" xmlns:xlink="http://www.w3.org/1999/xlink">
<g id="graph0" class="graph" transform="scale(1 1) rotate(0) translate(21.6 314.4272)">
<title>G</title>
<polygon fill="#fafafa" stroke="transparent" points="-21.6,21.6 -21.6,-314.4272 655.8984,-314.4272 655.8984,21.6 -21.6,21.6"/>
<!-- a1 -->
<g id="node1" class="node">
<title>a1</title>
<ellipse fill="#000000" stroke="#000000" cx="327.7616" cy="-256.6234" rx="78.9812" ry="36.4089"/>
<text text-anchor="middle" x="327.7616" y="-262.0234" font-family="Times,serif" font-size="18.00" fill="#ffffff">Utiliser</text>
<text text-anchor="middle" x="327.7616" y="-240.4234" font-family="Times,serif" font-size="18.00" fill="#ffffff">le numérique</text>
</g>
<!-- b1 -->
<g id="node2" class="node">
<title>b1</title>
<ellipse fill="#8b0000" stroke="#000000" cx="176.7616" cy="-152.6098" rx="87.3242" ry="32.6206"/>
<text text-anchor="middle" x="176.7616" y="-157.4098" font-family="Times,serif" font-size="16.00" fill="#ffffff">A. pour préparer</text>
<text text-anchor="middle" x="176.7616" y="-138.2098" font-family="Times,serif" font-size="16.00" fill="#ffffff">ses cours</text>
</g>
<!-- a1&#45;&gt;b1 -->
<g id="edge1" class="edge">
<title>a1&#45;&gt;b1:n</title>
<path fill="none" stroke="#000000" d="M260.2114,-237.6402C226.6029,-226.4632 190.8696,-211.3551 180.0492,-195.101"/>
<polygon fill="#000000" stroke="#000000" points="183.2912,-193.763 176.7616,-185.4195 176.663,-196.0139 183.2912,-193.763"/>
</g>
<!-- b2 -->
<g id="node3" class="node">
<title>b2</title>
<ellipse fill="#8b0000" stroke="#000000" cx="478.7616" cy="-152.6098" rx="107.2546" ry="32.6206"/>
<text text-anchor="middle" x="478.7616" y="-157.4098" font-family="Times,serif" font-size="16.00" fill="#ffffff">B. pour faire le cours</text>
<text text-anchor="middle" x="478.7616" y="-138.2098" font-family="Times,serif" font-size="16.00" fill="#ffffff">avec les élèves</text>
</g>
<!-- a1&#45;&gt;b2 -->
<g id="edge2" class="edge">
<title>a1&#45;&gt;b2:n</title>
<path fill="none" stroke="#000000" d="M395.3118,-237.6402C428.9203,-226.4632 464.6536,-211.3551 475.474,-195.101"/>
<polygon fill="#000000" stroke="#000000" points="478.8602,-196.0139 478.7616,-185.4195 472.232,-193.763 478.8602,-196.0139"/>
</g>
<!-- b1&#45;&gt;b2 -->
<!-- c1 -->
<g id="node4" class="node">
<title>c1</title>
<polygon fill="#ffffff" stroke="#7f7f7f" points="95.286,-65.8017 .2372,-65.8017 .2372,-18.9983 95.286,-18.9983 95.286,-65.8017"/>
<text text-anchor="middle" x="47.7616" y="-47.2" font-family="Times,serif" font-size="16.00" fill="#000000">1/ Organiser</text>
<text text-anchor="middle" x="47.7616" y="-28" font-family="Times,serif" font-size="16.00" fill="#000000">son travail</text>
</g>
<!-- b1&#45;&gt;c1 -->
<g id="edge4" class="edge">
<title>b1&#45;&gt;c1</title>
<path fill="none" stroke="#000000" d="M141.5118,-122.4945C123.3983,-107.0194 101.3802,-88.2084 83.2347,-72.7061"/>
<polygon fill="#000000" stroke="#000000" points="85.0747,-69.6746 75.1981,-65.8401 80.5277,-74.9968 85.0747,-69.6746"/>
</g>
<!-- c2 -->
<g id="node5" class="node">
<title>c2</title>
<polygon fill="#ffffff" stroke="#7f7f7f" points="221.9055,-65.8017 131.6177,-65.8017 131.6177,-18.9983 221.9055,-18.9983 221.9055,-65.8017"/>
<text text-anchor="middle" x="176.7616" y="-47.2" font-family="Times,serif" font-size="16.00" fill="#000000">2/ Faire des</text>
<text text-anchor="middle" x="176.7616" y="-28" font-family="Times,serif" font-size="16.00" fill="#000000">recherches</text>
</g>
<!-- b1&#45;&gt;c2 -->
<g id="edge5" class="edge">
<title>b1&#45;&gt;c2</title>
<path fill="none" stroke="#000000" d="M176.7616,-119.5432C176.7616,-105.6993 176.7616,-89.6335 176.7616,-75.7586"/>
<polygon fill="#000000" stroke="#000000" points="180.2617,-75.6485 176.7616,-65.6485 173.2617,-75.6485 180.2617,-75.6485"/>
</g>
<!-- c3 -->
<g id="node6" class="node">
<title>c3</title>
<polygon fill="#ffffff" stroke="#7f7f7f" points="368.9054,-84.7002 258.6178,-84.7002 258.6178,-.0998 368.9054,-.0998 368.9054,-84.7002"/>
<text text-anchor="middle" x="313.7616" y="-66.4" font-family="Times,serif" font-size="16.00" fill="#000000">3/ Questionner</text>
<text text-anchor="middle" x="313.7616" y="-47.2" font-family="Times,serif" font-size="16.00" fill="#000000">la pertinence</text>
<text text-anchor="middle" x="313.7616" y="-28" font-family="Times,serif" font-size="16.00" fill="#000000">pédagogique</text>
<text text-anchor="middle" x="313.7616" y="-8.8" font-family="Times,serif" font-size="16.00" fill="#000000">de ses cours</text>
</g>
<!-- b1&#45;&gt;c3 -->
<g id="edge6" class="edge">
<title>b1&#45;&gt;c3</title>
<path fill="none" stroke="#000000" d="M213.8358,-122.7854C225.9583,-113.0334 239.7573,-101.9328 253.1488,-91.16"/>
<polygon fill="#000000" stroke="#000000" points="255.3727,-93.8629 260.9707,-84.8677 250.9851,-88.4087 255.3727,-93.8629"/>
</g>
<!-- c4 -->
<g id="node7" class="node">
<title>c4</title>
<polygon fill="#ffffff" stroke="#7f7f7f" points="513.3051,-75.0012 418.2181,-75.0012 418.2181,-9.7988 513.3051,-9.7988 513.3051,-75.0012"/>
<text text-anchor="middle" x="465.7616" y="-56.8" font-family="Times,serif" font-size="16.00" fill="#000000">1/ Utiliser</text>
<text text-anchor="middle" x="465.7616" y="-37.6" font-family="Times,serif" font-size="16.00" fill="#000000">des supports</text>
<text text-anchor="middle" x="465.7616" y="-18.4" font-family="Times,serif" font-size="16.00" fill="#000000">de cours</text>
</g>
<!-- b2&#45;&gt;c4 -->
<g id="edge7" class="edge">
<title>b2&#45;&gt;c4</title>
<path fill="none" stroke="#000000" d="M474.8612,-119.5432C473.59,-108.7665 472.16,-96.6433 470.8167,-85.2554"/>
<polygon fill="#000000" stroke="#000000" points="474.2619,-84.5845 469.6145,-75.0634 467.3101,-85.4046 474.2619,-84.5845"/>
</g>
<!-- c5 -->
<g id="node8" class="node">
<title>c5</title>
<polygon fill="#ffffff" stroke="#7f7f7f" points="634.3352,-75.0012 549.188,-75.0012 549.188,-9.7988 634.3352,-9.7988 634.3352,-75.0012"/>
<text text-anchor="middle" x="591.7616" y="-56.8" font-family="Times,serif" font-size="16.00" fill="#000000">2/ Faire</text>
<text text-anchor="middle" x="591.7616" y="-37.6" font-family="Times,serif" font-size="16.00" fill="#000000">travailler</text>
<text text-anchor="middle" x="591.7616" y="-18.4" font-family="Times,serif" font-size="16.00" fill="#000000">les élèves</text>
</g>
<!-- b2&#45;&gt;c5 -->
<g id="edge8" class="edge">
<title>b2&#45;&gt;c5</title>
<path fill="none" stroke="#000000" d="M511.1429,-121.0281C523.4638,-109.0113 537.6687,-95.1573 550.6895,-82.4579"/>
<polygon fill="#000000" stroke="#000000" points="553.4809,-84.6245 558.196,-75.1367 548.5934,-79.6133 553.4809,-84.6245"/>
</g>
</g>
</svg>
