<?xml version="1.0" encoding="UTF-8" standalone="no"?><!DOCTYPE svg PUBLIC "-//W3C//DTD SVG 1.1//EN" "http://www.w3.org/Graphics/SVG/1.1/DTD/svg11.dtd"><!-- Generated by graphviz version 2.40.1 (20161225.0304)
 --><!-- Title: G Pages: 1 --><svg xmlns="http://www.w3.org/2000/svg" xmlns:xlink="http://www.w3.org/1999/xlink" width="731pt" height="525pt" viewBox="0.00 0.00 730.79 524.60">
<g id="graph0" class="graph" transform="scale(1 1) rotate(0) translate(21.6 503)">
<title>G</title>
<polygon fill="#fafafa" stroke="transparent" points="-21.6,21.6 -21.6,-503 709.1897,-503 709.1897,21.6 -21.6,21.6"/>
<!-- a1 -->
<g id="node1" class="node">
<title>a1</title>
<ellipse fill="#000000" stroke="#000000" cx="97.5897" cy="-291" rx="91.0014" ry="66.5027"/>
<text text-anchor="middle" x="97.5897" y="-318" font-family="Times,serif" font-size="18.00" fill="#ffffff">La caverne</text>
<text text-anchor="middle" x="97.5897" y="-296.4" font-family="Times,serif" font-size="18.00" fill="#ffffff">dans l'allégorie</text>
<text text-anchor="middle" x="97.5897" y="-274.8" font-family="Times,serif" font-size="18.00" fill="#ffffff">de la caverne</text>
<text text-anchor="middle" x="97.5897" y="-253.2" font-family="Times,serif" font-size="18.00" fill="#ffffff">de Platon</text>
</g>
<!-- b1 -->
<g id="node2" class="node">
<title>b1</title>
<ellipse fill="#8b0000" stroke="#000000" cx="319.5897" cy="-415" rx="58.2237" ry="46.2727"/>
<text text-anchor="middle" x="319.5897" y="-429.4" font-family="Times,serif" font-size="16.00" fill="#ffffff">Un espace</text>
<text text-anchor="middle" x="319.5897" y="-410.2" font-family="Times,serif" font-size="16.00" fill="#ffffff">obscur,</text>
<text text-anchor="middle" x="319.5897" y="-391" font-family="Times,serif" font-size="16.00" fill="#ffffff">sombre</text>
</g>
<!-- a1&#45;&gt;b1 -->
<g id="edge1" class="edge">
<title>a1-&gt;b1:w</title>
<path fill="none" stroke="#000000" d="M141.9093,-349.369C169.5513,-379.2066 208.0518,-410.1695 251.3796,-414.4888"/>
<polygon fill="#000000" stroke="#000000" points="251.4271,-417.9954 261.5897,-415 251.7773,-411.0042 251.4271,-417.9954"/>
</g>
<!-- b2 -->
<g id="node3" class="node">
<title>b2</title>
<ellipse fill="#8b0000" stroke="#000000" cx="319.5897" cy="-291" rx="81.9832" ry="46.2727"/>
<text text-anchor="middle" x="319.5897" y="-305.4" font-family="Times,serif" font-size="16.00" fill="#ffffff">Un espace clos,</text>
<text text-anchor="middle" x="319.5897" y="-286.2" font-family="Times,serif" font-size="16.00" fill="#ffffff">fermé où l'on</text>
<text text-anchor="middle" x="319.5897" y="-267" font-family="Times,serif" font-size="16.00" fill="#ffffff">est prisonnier</text>
</g>
<!-- a1&#45;&gt;b2 -->
<g id="edge2" class="edge">
<title>a1-&gt;b2:w</title>
<path fill="none" stroke="#000000" d="M188.7186,-291C201.5625,-291 214.7334,-291 227.4804,-291"/>
<polygon fill="#000000" stroke="#000000" points="227.5981,-294.5001 237.5981,-291 227.5981,-287.5001 227.5981,-294.5001"/>
</g>
<!-- b3 -->
<g id="node4" class="node">
<title>b3</title>
<ellipse fill="#8b0000" stroke="#000000" cx="319.5897" cy="-172" rx="63.556" ry="46.2727"/>
<text text-anchor="middle" x="319.5897" y="-186.4" font-family="Times,serif" font-size="16.00" fill="#ffffff">Un espace</text>
<text text-anchor="middle" x="319.5897" y="-167.2" font-family="Times,serif" font-size="16.00" fill="#ffffff">d'images et</text>
<text text-anchor="middle" x="319.5897" y="-148" font-family="Times,serif" font-size="16.00" fill="#ffffff">de paroles</text>
</g>
<!-- a1&#45;&gt;b3 -->
<g id="edge3" class="edge">
<title>a1-&gt;b3:w</title>
<path fill="none" stroke="#000000" d="M142.6251,-232.5459C169.0316,-204.7437 205.1046,-176.637 245.5098,-172.5164"/>
<polygon fill="#000000" stroke="#000000" points="245.7819,-176.0072 255.5897,-172 245.4237,-169.0163 245.7819,-176.0072"/>
</g>
<!-- c1 -->
<g id="node5" class="node">
<title>c1</title>
<polygon fill="#ffffff" stroke="#7f7f7f" points="655.1169,-481.3002 476.0625,-481.3002 476.0625,-396.6998 655.1169,-396.6998 655.1169,-481.3002"/>
<text text-anchor="middle" x="565.5897" y="-463" font-family="Times,serif" font-size="16.00" fill="#000000">Sortir de la caverne, c'est</text>
<text text-anchor="middle" x="565.5897" y="-443.8" font-family="Times,serif" font-size="16.00" fill="#000000">passer d'idées vagues et</text>
<text text-anchor="middle" x="565.5897" y="-424.6" font-family="Times,serif" font-size="16.00" fill="#000000">confuses à des idées</text>
<text text-anchor="middle" x="565.5897" y="-405.4" font-family="Times,serif" font-size="16.00" fill="#000000">précises et claires</text>
</g>
<!-- b1&#45;&gt;c1 -->
<g id="edge4" class="edge">
<title>b1-&gt;c1</title>
<path fill="none" stroke="#000000" d="M377.5767,-420.6573C403.8666,-423.2221 435.7173,-426.3295 465.6732,-429.2521"/>
<polygon fill="#000000" stroke="#000000" points="465.4562,-432.7474 475.7488,-430.235 466.1359,-425.7805 465.4562,-432.7474"/>
</g>
<!-- c2 -->
<g id="node6" class="node">
<title>c2</title>
<polygon fill="#ffffff" stroke="#7f7f7f" points="673.567,-333.3002 457.6124,-333.3002 457.6124,-248.6998 673.567,-248.6998 673.567,-333.3002"/>
<text text-anchor="middle" x="565.5897" y="-315" font-family="Times,serif" font-size="16.00" fill="#000000">Sortir de la caverne, c'est</text>
<text text-anchor="middle" x="565.5897" y="-295.8" font-family="Times,serif" font-size="16.00" fill="#000000">refuser les idées étroites et</text>
<text text-anchor="middle" x="565.5897" y="-276.6" font-family="Times,serif" font-size="16.00" fill="#000000">questionner les schémas de</text>
<text text-anchor="middle" x="565.5897" y="-257.4" font-family="Times,serif" font-size="16.00" fill="#000000">pensée auxquels on est habitué</text>
</g>
<!-- b2&#45;&gt;c2 -->
<g id="edge5" class="edge">
<title>b2-&gt;c2</title>
<path fill="none" stroke="#000000" d="M401.8461,-291C416.5121,-291 432.0493,-291 447.4835,-291"/>
<polygon fill="#000000" stroke="#000000" points="447.601,-294.5001 457.601,-291 447.601,-287.5001 447.601,-294.5001"/>
</g>
<!-- c3 -->
<g id="node7" class="node">
<title>c3</title>
<polygon fill="#ffffff" stroke="#7f7f7f" points="679.5237,-185.4006 451.6557,-185.4006 451.6557,-42.5994 679.5237,-42.5994 679.5237,-185.4006"/>
<text text-anchor="middle" x="565.5897" y="-166.8" font-family="Times,serif" font-size="16.00" fill="#000000">Sortir de la caverne, c'est refuser</text>
<text text-anchor="middle" x="565.5897" y="-147.6" font-family="Times,serif" font-size="16.00" fill="#000000">les simples affirmations en l'air,</text>
<text text-anchor="middle" x="565.5897" y="-128.4" font-family="Times,serif" font-size="16.00" fill="#000000">superficielles et sans fondement,</text>
<text text-anchor="middle" x="565.5897" y="-109.2" font-family="Times,serif" font-size="16.00" fill="#000000">et chercher à construire un</text>
<text text-anchor="middle" x="565.5897" y="-90" font-family="Times,serif" font-size="16.00" fill="#000000">raisonnement convaincant afin</text>
<text text-anchor="middle" x="565.5897" y="-70.8" font-family="Times,serif" font-size="16.00" fill="#000000">de parvenir à une vision plus</text>
<text text-anchor="middle" x="565.5897" y="-51.6" font-family="Times,serif" font-size="16.00" fill="#000000">justifiée du réel</text>
</g>
<!-- b3&#45;&gt;c3 -->
<g id="edge6" class="edge">
<title>b3-&gt;c3</title>
<path fill="none" stroke="#000000" d="M380.3987,-157.6629C399.153,-153.2412 420.5251,-148.2022 441.9241,-143.1569"/>
<polygon fill="#000000" stroke="#000000" points="442.8187,-146.5421 451.7486,-140.8406 441.2122,-139.7289 442.8187,-146.5421"/>
</g>
<!-- e1 -->
<g id="node8" class="node">
<title>e1</title>
<path fill="#fafafa" stroke="transparent" d="M614.5128,-390C614.5128,-390 516.6665,-390 516.6665,-390 510.6665,-390 504.6665,-384 504.6665,-378 504.6665,-378 504.6665,-366 504.6665,-366 504.6665,-360 510.6665,-354 516.6665,-354 516.6665,-354 614.5128,-354 614.5128,-354 620.5128,-354 626.5128,-360 626.5128,-366 626.5128,-366 626.5128,-378 626.5128,-378 626.5128,-384 620.5128,-390 614.5128,-390"/>
<text text-anchor="middle" x="565.5897" y="-367.2" font-family="Times,serif" font-size="16.00" fill="#cd2626">= conceptualiser</text>
</g>
<!-- c1&#45;&gt;e1 -->
<!-- e2 -->
<g id="node9" class="node">
<title>e2</title>
<path fill="#fafafa" stroke="transparent" d="M612.6825,-242C612.6825,-242 518.4968,-242 518.4968,-242 512.4968,-242 506.4968,-236 506.4968,-230 506.4968,-230 506.4968,-218 506.4968,-218 506.4968,-212 512.4968,-206 518.4968,-206 518.4968,-206 612.6825,-206 612.6825,-206 618.6825,-206 624.6825,-212 624.6825,-218 624.6825,-218 624.6825,-230 624.6825,-230 624.6825,-236 618.6825,-242 612.6825,-242"/>
<text text-anchor="middle" x="565.5897" y="-219.2" font-family="Times,serif" font-size="16.00" fill="#cd2626">= problématiser</text>
</g>
<!-- c2&#45;&gt;e2 -->
<!-- e3 -->
<g id="node10" class="node">
<title>e3</title>
<path fill="#fafafa" stroke="transparent" d="M604.465,-36C604.465,-36 526.7144,-36 526.7144,-36 520.7144,-36 514.7144,-30 514.7144,-24 514.7144,-24 514.7144,-12 514.7144,-12 514.7144,-6 520.7144,0 526.7144,0 526.7144,0 604.465,0 604.465,0 610.465,0 616.465,-6 616.465,-12 616.465,-12 616.465,-24 616.465,-24 616.465,-30 610.465,-36 604.465,-36"/>
<text text-anchor="middle" x="565.5897" y="-13.2" font-family="Times,serif" font-size="16.00" fill="#cd2626">= argumenter</text>
</g>
<!-- c3&#45;&gt;e3 -->
<!-- e1&#45;&gt;c2 -->
<!-- e2&#45;&gt;c3 -->
</g>
</svg>