<?xml version="1.0" encoding="UTF-8" standalone="no"?>
<!DOCTYPE svg PUBLIC "-//W3C//DTD SVG 1.1//EN"
 "http://www.w3.org/Graphics/SVG/1.1/DTD/svg11.dtd">
<!-- Generated by graphviz version 2.40.1 (20161225.0304)
 -->
<!-- Title: G Pages: 1 -->
<svg width="529pt" height="448pt"
 viewBox="0.00 0.00 529.40 447.97" xmlns="http://www.w3.org/2000/svg" xmlns:xlink="http://www.w3.org/1999/xlink">
<g id="graph0" class="graph" transform="scale(1 1) rotate(0) translate(21.6 426.3743)">
<title>G</title>
<polygon fill="#fafafa" stroke="transparent" points="-21.6,21.6 -21.6,-426.3743 507.7952,-426.3743 507.7952,21.6 -21.6,21.6"/>
<!-- a1 -->
<g id="node1" class="node">
<title>a1</title>
<ellipse fill="#050505" stroke="#000000" cx="232.8808" cy="-353.2969" rx="97.824" ry="51.4548"/>
<text text-anchor="middle" x="232.8808" y="-369.4969" font-family="Times,serif" font-size="18.00" fill="#ffffff">Post&#45;fordisme</text>
<text text-anchor="middle" x="232.8808" y="-347.8969" font-family="Times,serif" font-size="18.00" fill="#ffffff">(post&#45;taylorisme,</text>
<text text-anchor="middle" x="232.8808" y="-326.2969" font-family="Times,serif" font-size="18.00" fill="#ffffff">toyotisme)</text>
</g>
<!-- b1 -->
<g id="node2" class="node">
<title>b1</title>
<ellipse fill="#8b0000" stroke="#000000" cx="232.8808" cy="-234.0098" rx="49.9114" ry="32.6206"/>
<text text-anchor="middle" x="232.8808" y="-238.8098" font-family="Times,serif" font-size="16.00" fill="#ffffff">Les cinq</text>
<text text-anchor="middle" x="232.8808" y="-219.6098" font-family="Times,serif" font-size="16.00" fill="#ffffff">zéros</text>
</g>
<!-- a1&#45;&gt;b1 -->
<g id="edge1" class="edge">
<title>a1&#45;&gt;b1:n</title>
<path fill="none" stroke="#000000" d="M232.8808,-301.6242C232.8808,-293.5665 232.8808,-285.1998 232.8808,-277.0281"/>
<polygon fill="#000000" stroke="#000000" points="236.3809,-276.8195 232.8808,-266.8195 229.3809,-276.8195 236.3809,-276.8195"/>
</g>
<!-- c1 -->
<g id="node3" class="node">
<title>c1</title>
<polygon fill="#ffffff" stroke="#7f7f7f" points="127.3879,-161 44.3737,-161 44.3737,-125 127.3879,-125 127.3879,-161"/>
<text text-anchor="middle" x="85.8808" y="-138.2" font-family="Times,serif" font-size="16.00" fill="#000000">Zéro délai</text>
</g>
<!-- b1&#45;&gt;c1 -->
<g id="edge2" class="edge">
<title>b1&#45;&gt;c1</title>
<path fill="none" stroke="#000000" d="M196.1657,-211.2789C174.0939,-197.6139 146.0592,-180.2573 123.779,-166.4633"/>
<polygon fill="#000000" stroke="#000000" points="125.5828,-163.4636 115.238,-161.1754 121.898,-169.4153 125.5828,-163.4636"/>
</g>
<!-- c2 -->
<g id="node4" class="node">
<title>c2</title>
<polygon fill="#ffffff" stroke="#7f7f7f" points="244.4576,-161 159.304,-161 159.304,-125 244.4576,-125 244.4576,-161"/>
<text text-anchor="middle" x="201.8808" y="-138.2" font-family="Times,serif" font-size="16.00" fill="#000000">Zéro stock</text>
</g>
<!-- b1&#45;&gt;c2 -->
<g id="edge3" class="edge">
<title>b1&#45;&gt;c2</title>
<path fill="none" stroke="#000000" d="M221.9514,-201.9231C218.4841,-191.7438 214.6817,-180.5807 211.3278,-170.7345"/>
<polygon fill="#000000" stroke="#000000" points="214.5654,-169.3843 208.028,-161.0469 207.9393,-171.6413 214.5654,-169.3843"/>
</g>
<!-- c3 -->
<g id="node5" class="node">
<title>c3</title>
<polygon fill="#ffffff" stroke="#7f7f7f" points="354.6644,-161 263.0972,-161 263.0972,-125 354.6644,-125 354.6644,-161"/>
<text text-anchor="middle" x="308.8808" y="-138.2" font-family="Times,serif" font-size="16.00" fill="#000000">Zéro papier</text>
</g>
<!-- b1&#45;&gt;c3 -->
<g id="edge4" class="edge">
<title>b1&#45;&gt;c3</title>
<path fill="none" stroke="#000000" d="M256.9277,-205.2137C266.656,-193.5641 277.8011,-180.2178 287.2679,-168.8814"/>
<polygon fill="#000000" stroke="#000000" points="290.0969,-170.9541 293.8202,-161.035 284.724,-166.4672 290.0969,-170.9541"/>
</g>
<!-- c4 -->
<g id="node6" class="node">
<title>c4</title>
<polygon fill="#ffffff" stroke="#7f7f7f" points="471.3925,-166.4017 378.3691,-166.4017 378.3691,-119.5983 471.3925,-119.5983 471.3925,-166.4017"/>
<text text-anchor="middle" x="424.8808" y="-147.8" font-family="Times,serif" font-size="16.00" fill="#000000">Zéro panne,</text>
<text text-anchor="middle" x="424.8808" y="-128.6" font-family="Times,serif" font-size="16.00" fill="#000000">zéro défaut</text>
</g>
<!-- b1&#45;&gt;c4 -->
<g id="edge5" class="edge">
<title>b1&#45;&gt;c4</title>
<path fill="none" stroke="#000000" d="M273.5991,-214.7089C301.3318,-201.5634 338.4015,-183.992 368.9045,-169.5333"/>
<polygon fill="#000000" stroke="#000000" points="370.6054,-172.6004 378.1425,-165.1544 367.6071,-166.275 370.6054,-172.6004"/>
</g>
<!-- d1 -->
<g id="node7" class="node">
<title>d1</title>
<path fill="#ffffff" stroke="#7f7f7f" d="M113.6426,-75.0012C113.6426,-75.0012 12.119,-75.0012 12.119,-75.0012 6.119,-75.0012 .119,-69.0012 .119,-63.0012 .119,-63.0012 .119,-21.7988 .119,-21.7988 .119,-15.7988 6.119,-9.7988 12.119,-9.7988 12.119,-9.7988 113.6426,-9.7988 113.6426,-9.7988 119.6426,-9.7988 125.6426,-15.7988 125.6426,-21.7988 125.6426,-21.7988 125.6426,-63.0012 125.6426,-63.0012 125.6426,-69.0012 119.6426,-75.0012 113.6426,-75.0012"/>
<text text-anchor="middle" x="62.8808" y="-56.8" font-family="Times,serif" font-size="16.00" fill="#000000">Principe du</text>
<text text-anchor="middle" x="62.8808" y="-37.6" font-family="Times,serif" font-size="16.00" fill="#000000">flux tendu ou du</text>
<text text-anchor="middle" x="62.8808" y="-18.4" font-family="Times,serif" font-size="16.00" fill="#000000">“juste à temps”</text>
</g>
<!-- c1&#45;&gt;d1 -->
<g id="edge6" class="edge">
<title>c1&#45;&gt;d1</title>
<path fill="none" stroke="#000000" d="M81.6622,-124.5484C79.1368,-113.5024 75.8155,-98.9754 72.6691,-85.2132"/>
<polygon fill="#000000" stroke="#000000" points="76.0636,-84.3565 70.4228,-75.3881 69.2397,-85.9166 76.0636,-84.3565"/>
</g>
<!-- d2 -->
<g id="node8" class="node">
<title>d2</title>
<path fill="#ffffff" stroke="#7f7f7f" d="M242.0762,-78.4C242.0762,-78.4 151.6854,-78.4 151.6854,-78.4 145.6854,-78.4 139.6854,-72.4 139.6854,-66.4 139.6854,-66.4 139.6854,-18.4 139.6854,-18.4 139.6854,-12.4 145.6854,-6.4 151.6854,-6.4 151.6854,-6.4 242.0762,-6.4 242.0762,-6.4 248.0762,-6.4 254.0762,-12.4 254.0762,-18.4 254.0762,-18.4 254.0762,-66.4 254.0762,-66.4 254.0762,-72.4 248.0762,-78.4 242.0762,-78.4"/>
<text text-anchor="start" x="147.7832" y="-61" font-family="Times,serif" font-size="16.00" fill="#000000">Pas de stock de</text>
<text text-anchor="start" x="153.344" y="-45" font-family="Times,serif" font-size="16.00" fill="#000000">marchandises</text>
<text text-anchor="start" x="153.6816" y="-29" font-family="Times,serif" font-size="16.00" fill="#000000">standardisées</text>
<text text-anchor="start" x="153.12" y="-13" font-family="Times,serif" font-size="16.00" fill="#000000">(gestion </text>
<text text-anchor="start" x="208.664" y="-13" font-family="Times,serif" font-style="italic" font-size="16.00" fill="#000000">lean</text>
<text text-anchor="start" x="235.3152" y="-13" font-family="Times,serif" font-size="16.00" fill="#000000">)</text>
</g>
<!-- c2&#45;&gt;d2 -->
<g id="edge7" class="edge">
<title>c2&#45;&gt;d2</title>
<path fill="none" stroke="#000000" d="M200.9637,-124.5484C200.461,-114.433 199.8131,-101.3985 199.1823,-88.7053"/>
<polygon fill="#000000" stroke="#000000" points="202.6752,-88.4751 198.683,-78.6612 195.6839,-88.8226 202.6752,-88.4751"/>
</g>
<!-- d3 -->
<g id="node9" class="node">
<title>d3</title>
<path fill="#ffffff" stroke="#7f7f7f" d="M358.0906,-75.0012C358.0906,-75.0012 279.671,-75.0012 279.671,-75.0012 273.671,-75.0012 267.671,-69.0012 267.671,-63.0012 267.671,-63.0012 267.671,-21.7988 267.671,-21.7988 267.671,-15.7988 273.671,-9.7988 279.671,-9.7988 279.671,-9.7988 358.0906,-9.7988 358.0906,-9.7988 364.0906,-9.7988 370.0906,-15.7988 370.0906,-21.7988 370.0906,-21.7988 370.0906,-63.0012 370.0906,-63.0012 370.0906,-69.0012 364.0906,-75.0012 358.0906,-75.0012"/>
<text text-anchor="middle" x="318.8808" y="-56.8" font-family="Times,serif" font-size="16.00" fill="#000000">Transmission</text>
<text text-anchor="middle" x="318.8808" y="-37.6" font-family="Times,serif" font-size="16.00" fill="#000000">rapide de</text>
<text text-anchor="middle" x="318.8808" y="-18.4" font-family="Times,serif" font-size="16.00" fill="#000000">l&#39;information</text>
</g>
<!-- c3&#45;&gt;d3 -->
<g id="edge8" class="edge">
<title>c3&#45;&gt;d3</title>
<path fill="none" stroke="#000000" d="M310.715,-124.5484C311.8023,-113.6097 313.229,-99.2572 314.5851,-85.6143"/>
<polygon fill="#000000" stroke="#000000" points="318.0953,-85.6853 315.6017,-75.3881 311.1296,-84.9928 318.0953,-85.6853"/>
</g>
<!-- d4 -->
<g id="node10" class="node">
<title>d4</title>
<path fill="#ffffff" stroke="#7f7f7f" d="M474.0103,-84.7002C474.0103,-84.7002 395.7513,-84.7002 395.7513,-84.7002 389.7513,-84.7002 383.7513,-78.7002 383.7513,-72.7002 383.7513,-72.7002 383.7513,-12.0998 383.7513,-12.0998 383.7513,-6.0998 389.7513,-.0998 395.7513,-.0998 395.7513,-.0998 474.0103,-.0998 474.0103,-.0998 480.0103,-.0998 486.0103,-6.0998 486.0103,-12.0998 486.0103,-12.0998 486.0103,-72.7002 486.0103,-72.7002 486.0103,-78.7002 480.0103,-84.7002 474.0103,-84.7002"/>
<text text-anchor="middle" x="434.8808" y="-66.4" font-family="Times,serif" font-size="16.00" fill="#000000">Contrôle</text>
<text text-anchor="middle" x="434.8808" y="-47.2" font-family="Times,serif" font-size="16.00" fill="#000000">permanent de</text>
<text text-anchor="middle" x="434.8808" y="-28" font-family="Times,serif" font-size="16.00" fill="#000000">la qualité</text>
<text text-anchor="middle" x="434.8808" y="-8.8" font-family="Times,serif" font-size="16.00" fill="#000000">du travail</text>
</g>
<!-- c4&#45;&gt;d4 -->
<g id="edge9" class="edge">
<title>c4&#45;&gt;d4</title>
<path fill="none" stroke="#000000" d="M427.2001,-119.6675C427.9383,-112.2415 428.7871,-103.7023 429.6452,-95.0697"/>
<polygon fill="#000000" stroke="#000000" points="433.1444,-95.2513 430.6508,-84.9541 426.1787,-94.5588 433.1444,-95.2513"/>
</g>
</g>
</svg>
