<?xml version="1.0" encoding="UTF-8" standalone="no"?>
<!DOCTYPE svg PUBLIC "-//W3C//DTD SVG 1.1//EN"
 "http://www.w3.org/Graphics/SVG/1.1/DTD/svg11.dtd">
<!-- Generated by graphviz version 2.40.1 (20161225.0304)
 -->
<!-- Title: G Pages: 1 -->
<svg width="1184pt" height="721pt"
 viewBox="0.00 0.00 1184.39 721.00" xmlns="http://www.w3.org/2000/svg" xmlns:xlink="http://www.w3.org/1999/xlink">
<g id="graph0" class="graph" transform="scale(1 1) rotate(0) translate(21.6 699.4)">
<title>G</title>
<polygon fill="#fafafa" stroke="transparent" points="-21.6,21.6 -21.6,-699.4 1162.7921,-699.4 1162.7921,21.6 -21.6,21.6"/>
<!-- a1 -->
<g id="node1" class="node">
<title>a1</title>
<ellipse fill="#000000" stroke="#000000" cx="94.0223" cy="-311" rx="94.0446" ry="51.4548"/>
<text text-anchor="middle" x="94.0223" y="-327.2" font-family="Times,serif" font-size="18.00" fill="#ffffff">La section</text>
<text text-anchor="middle" x="94.0223" y="-305.6" font-family="Times,serif" font-size="18.00" fill="#ffffff">Euro Anglais en</text>
<text text-anchor="middle" x="94.0223" y="-284" font-family="Times,serif" font-size="18.00" fill="#ffffff">série générale</text>
</g>
<!-- b1 -->
<g id="node2" class="node">
<title>b1</title>
<ellipse fill="#8b0000" stroke="#000000" cx="302.3231" cy="-541" rx="79.0577" ry="46.2727"/>
<text text-anchor="middle" x="302.3231" y="-555.4" font-family="Times,serif" font-size="16.00" fill="#ffffff">= 1h d&#39;Anglais</text>
<text text-anchor="middle" x="302.3231" y="-536.2" font-family="Times,serif" font-size="16.00" fill="#ffffff">renforcé</text>
<text text-anchor="middle" x="302.3231" y="-517" font-family="Times,serif" font-size="16.00" fill="#ffffff">+ 1h de DNL</text>
</g>
<!-- a1&#45;&gt;b1 -->
<g id="edge1" class="edge">
<title>a1&#45;&gt;b1:w</title>
<path fill="none" stroke="#000000" d="M100.0532,-362.6165C110.6999,-427.5144 139.1839,-531.5767 212.8469,-540.3997"/>
<polygon fill="#000000" stroke="#000000" points="212.8562,-543.9062 223.0446,-541 213.2676,-536.9183 212.8562,-543.9062"/>
</g>
<!-- b2 -->
<g id="node3" class="node">
<title>b2</title>
<ellipse fill="#8b0000" stroke="#000000" cx="302.3231" cy="-231" rx="64.1686" ry="32.6206"/>
<text text-anchor="middle" x="302.3231" y="-235.8" font-family="Times,serif" font-size="16.00" fill="#ffffff">Ce que cela</text>
<text text-anchor="middle" x="302.3231" y="-216.6" font-family="Times,serif" font-size="16.00" fill="#ffffff">apporte</text>
</g>
<!-- a1&#45;&gt;b2 -->
<g id="edge2" class="edge">
<title>a1&#45;&gt;b2:w</title>
<path fill="none" stroke="#000000" d="M143.8246,-267.2549C167.5291,-250.402 197.4096,-234.4437 228.2742,-231.4876"/>
<polygon fill="#000000" stroke="#000000" points="228.5045,-234.9806 238.3231,-231 228.1652,-227.9888 228.5045,-234.9806"/>
</g>
<!-- c1 -->
<g id="node4" class="node">
<title>c1</title>
<polygon fill="#ffffff" stroke="#7f7f7f" points="629.3923,-677.6012 435.9391,-677.6012 435.9391,-612.3988 629.3923,-612.3988 629.3923,-677.6012"/>
<text text-anchor="middle" x="532.6657" y="-659.4" font-family="Times,serif" font-size="16.00" fill="#000000">Il s&#39;agit d&#39;une option, avec</text>
<text text-anchor="middle" x="532.6657" y="-640.2" font-family="Times,serif" font-size="16.00" fill="#000000">25 places disponibles</text>
<text text-anchor="middle" x="532.6657" y="-621" font-family="Times,serif" font-size="16.00" fill="#000000">(pour plus de 60 demandes)</text>
</g>
<!-- b1&#45;&gt;c1 -->
<g id="edge3" class="edge">
<title>b1&#45;&gt;c1</title>
<path fill="none" stroke="#000000" d="M357.387,-574.4556C375.8481,-584.9603 396.7835,-596.1212 416.6017,-605 419.811,-606.4378 423.0887,-607.8565 426.4128,-609.2524"/>
<polygon fill="#000000" stroke="#000000" points="425.3039,-612.5802 435.8848,-613.1236 427.9521,-606.1005 425.3039,-612.5802"/>
</g>
<!-- c2 -->
<g id="node5" class="node">
<title>c2</title>
<polygon fill="#ffffff" stroke="#7f7f7f" points="588.8386,-598.4017 476.4927,-598.4017 476.4927,-551.5983 588.8386,-551.5983 588.8386,-598.4017"/>
<text text-anchor="middle" x="532.6657" y="-579.8" font-family="Times,serif" font-size="16.00" fill="#000000">La sélection se</text>
<text text-anchor="middle" x="532.6657" y="-560.6" font-family="Times,serif" font-size="16.00" fill="#000000">fait sur dossier</text>
</g>
<!-- b1&#45;&gt;c2 -->
<g id="edge4" class="edge">
<title>b1&#45;&gt;c2</title>
<path fill="none" stroke="#000000" d="M379.3441,-552.3688C407.5248,-556.5284 439.141,-561.1952 466.3099,-565.2055"/>
<polygon fill="#000000" stroke="#000000" points="466.0845,-568.7101 476.4885,-566.7079 467.1068,-561.7851 466.0845,-568.7101"/>
</g>
<!-- c3 -->
<g id="node6" class="node">
<title>c3</title>
<polygon fill="#ffffff" stroke="#7f7f7f" points="645.8642,-538 419.4672,-538 419.4672,-434 645.8642,-434 645.8642,-538"/>
<text text-anchor="middle" x="532.6657" y="-519.6" font-family="Times,serif" font-size="16.00" fill="#000000">DNL signifie :</text>
<text text-anchor="middle" x="532.6657" y="-500.4" font-family="Times,serif" font-size="16.00" fill="#000000">“Discipline Non Linguistique”,</text>
<text text-anchor="middle" x="532.6657" y="-481.2" font-family="Times,serif" font-size="16.00" fill="#000000">ce n&#39;est pas un cours de</text>
<text text-anchor="middle" x="532.6657" y="-462" font-family="Times,serif" font-size="16.00" fill="#000000">langue, mais un cours d&#39;une</text>
<text text-anchor="middle" x="532.6657" y="-442.8" font-family="Times,serif" font-size="16.00" fill="#000000">autre matière, en anglais</text>
</g>
<!-- b1&#45;&gt;c3 -->
<g id="edge5" class="edge">
<title>b1&#45;&gt;c3</title>
<path fill="none" stroke="#000000" d="M375.8383,-523.4464C386.7416,-520.843 398.2206,-518.1021 409.8038,-515.3363"/>
<polygon fill="#000000" stroke="#000000" points="410.6341,-518.7365 419.5478,-513.0097 409.0083,-511.9279 410.6341,-518.7365"/>
</g>
<!-- c4 -->
<g id="node7" class="node">
<title>c4</title>
<polygon fill="#ffffff" stroke="#7f7f7f" points="639.0009,-378 426.3304,-378 426.3304,-274 639.0009,-274 639.0009,-378"/>
<text text-anchor="middle" x="532.6657" y="-359.6" font-family="Times,serif" font-size="16.00" fill="#000000">Un renforcement linguistique :</text>
<text text-anchor="middle" x="532.6657" y="-340.4" font-family="Times,serif" font-size="16.00" fill="#000000">passage de la certification</text>
<text text-anchor="middle" x="532.6657" y="-321.2" font-family="Times,serif" font-size="16.00" fill="#000000">Cambridge en Terminale et</text>
<text text-anchor="middle" x="532.6657" y="-302" font-family="Times,serif" font-size="16.00" fill="#000000">mention européenne au</text>
<text text-anchor="middle" x="532.6657" y="-282.8" font-family="Times,serif" font-size="16.00" fill="#000000">baccalauréat</text>
</g>
<!-- b2&#45;&gt;c4 -->
<g id="edge6" class="edge">
<title>b2&#45;&gt;c4</title>
<path fill="none" stroke="#000000" d="M352.304,-251.6136C371.3761,-259.4795 394.0044,-268.812 416.6751,-278.1621"/>
<polygon fill="#000000" stroke="#000000" points="415.4597,-281.4468 426.0388,-282.024 418.1287,-274.9755 415.4597,-281.4468"/>
</g>
<!-- c5 -->
<g id="node8" class="node">
<title>c5</title>
<polygon fill="#ffffff" stroke="#7f7f7f" points="648.7937,-260.4006 416.5376,-260.4006 416.5376,-117.5994 648.7937,-117.5994 648.7937,-260.4006"/>
<text text-anchor="middle" x="532.6657" y="-241.8" font-family="Times,serif" font-size="16.00" fill="#000000">Une ouverture européenne :</text>
<text text-anchor="middle" x="532.6657" y="-222.6" font-family="Times,serif" font-size="16.00" fill="#000000">organisation d&#39;un voyage à</text>
<text text-anchor="middle" x="532.6657" y="-203.4" font-family="Times,serif" font-size="16.00" fill="#000000">Amsterdam pour découvrir</text>
<text text-anchor="middle" x="532.6657" y="-184.2" font-family="Times,serif" font-size="16.00" fill="#000000">des associations humanitaires,</text>
<text text-anchor="middle" x="532.6657" y="-165" font-family="Times,serif" font-size="16.00" fill="#000000">un lycée nééerlandais, et le</text>
<text text-anchor="middle" x="532.6657" y="-145.8" font-family="Times,serif" font-size="16.00" fill="#000000">parcours de français qui étudient</text>
<text text-anchor="middle" x="532.6657" y="-126.6" font-family="Times,serif" font-size="16.00" fill="#000000">ou travaillent aux Pays&#45;Bas</text>
</g>
<!-- b2&#45;&gt;c5 -->
<g id="edge7" class="edge">
<title>b2&#45;&gt;c5</title>
<path fill="none" stroke="#000000" d="M362.8429,-219.965C376.4014,-217.4928 391.2754,-214.7807 406.4071,-212.0216"/>
<polygon fill="#000000" stroke="#000000" points="407.1668,-215.4409 416.3767,-210.2038 405.9111,-208.5544 407.1668,-215.4409"/>
</g>
<!-- c6 -->
<g id="node9" class="node">
<title>c6</title>
<polygon fill="#ffffff" stroke="#7f7f7f" points="624.8209,-104 440.5104,-104 440.5104,0 624.8209,0 624.8209,-104"/>
<text text-anchor="middle" x="532.6657" y="-85.6" font-family="Times,serif" font-size="16.00" fill="#000000">Une ouverture culturelle :</text>
<text text-anchor="middle" x="532.6657" y="-66.4" font-family="Times,serif" font-size="16.00" fill="#000000">une réflexion dès la 2nde</text>
<text text-anchor="middle" x="532.6657" y="-47.2" font-family="Times,serif" font-size="16.00" fill="#000000">sur des questions</text>
<text text-anchor="middle" x="532.6657" y="-28" font-family="Times,serif" font-size="16.00" fill="#000000">philosophiques, sociales</text>
<text text-anchor="middle" x="532.6657" y="-8.8" font-family="Times,serif" font-size="16.00" fill="#000000">et politiques</text>
</g>
<!-- b2&#45;&gt;c6 -->
<g id="edge8" class="edge">
<title>b2&#45;&gt;c6</title>
<path fill="none" stroke="#000000" d="M326.4285,-200.3503C348.0388,-174.2785 381.6438,-137.0307 416.6017,-111 421.3636,-107.4541 426.3702,-104.0148 431.521,-100.6974"/>
<polygon fill="#000000" stroke="#000000" points="433.6648,-103.4859 440.3081,-95.2325 429.9679,-97.5417 433.6648,-103.4859"/>
</g>
<!-- d1 -->
<g id="node10" class="node">
<title>d1</title>
<path fill="#ffffff" stroke="#7f7f7f" d="M934.1779,-641.3002C934.1779,-641.3002 695.9134,-641.3002 695.9134,-641.3002 689.9134,-641.3002 683.9134,-635.3002 683.9134,-629.3002 683.9134,-629.3002 683.9134,-568.6998 683.9134,-568.6998 683.9134,-562.6998 689.9134,-556.6998 695.9134,-556.6998 695.9134,-556.6998 934.1779,-556.6998 934.1779,-556.6998 940.1779,-556.6998 946.1779,-562.6998 946.1779,-568.6998 946.1779,-568.6998 946.1779,-629.3002 946.1779,-629.3002 946.1779,-635.3002 940.1779,-641.3002 934.1779,-641.3002"/>
<text text-anchor="middle" x="815.0457" y="-623" font-family="Times,serif" font-size="16.00" fill="#000000">Critère 1 : niveau de langue</text>
<text text-anchor="middle" x="815.0457" y="-603.8" font-family="Times,serif" font-size="16.00" fill="#000000">Critère 2 : investissement à l&#39;oral</text>
<text text-anchor="middle" x="815.0457" y="-584.6" font-family="Times,serif" font-size="16.00" fill="#000000">Critère 3 : comportement &amp; sérieux</text>
<text text-anchor="middle" x="815.0457" y="-565.4" font-family="Times,serif" font-size="16.00" fill="#000000">Critère 4 : motivation, investissement</text>
</g>
<!-- c2&#45;&gt;d1 -->
<g id="edge10" class="edge">
<title>c2&#45;&gt;d1</title>
<path fill="none" stroke="#000000" d="M588.7925,-579.7703C613.3584,-581.8582 643.4018,-584.4117 673.4686,-586.9671"/>
<polygon fill="#000000" stroke="#000000" points="673.3976,-590.4736 683.6581,-587.8331 673.9905,-583.4987 673.3976,-590.4736"/>
</g>
<!-- c3&#45;&gt;c4 -->
<!-- d2 -->
<g id="node11" class="node">
<title>d2</title>
<path fill="#ffffff" stroke="#7f7f7f" d="M931.3617,-542.6005C931.3617,-542.6005 698.7296,-542.6005 698.7296,-542.6005 692.7296,-542.6005 686.7296,-536.6005 686.7296,-530.6005 686.7296,-530.6005 686.7296,-393.3995 686.7296,-393.3995 686.7296,-387.3995 692.7296,-381.3995 698.7296,-381.3995 698.7296,-381.3995 931.3617,-381.3995 931.3617,-381.3995 937.3617,-381.3995 943.3617,-387.3995 943.3617,-393.3995 943.3617,-393.3995 943.3617,-530.6005 943.3617,-530.6005 943.3617,-536.6005 937.3617,-542.6005 931.3617,-542.6005"/>
<text text-anchor="middle" x="815.0457" y="-524.4" font-family="Times,serif" font-size="16.00" fill="#000000">La DNL pour la section Euro Anglais</text>
<text text-anchor="middle" x="815.0457" y="-505.2" font-family="Times,serif" font-size="16.00" fill="#000000">en série générale est une initiation</text>
<text text-anchor="middle" x="815.0457" y="-486" font-family="Times,serif" font-size="16.00" fill="#000000">à la philosophie, qui se focalise</text>
<text text-anchor="middle" x="815.0457" y="-466.8" font-family="Times,serif" font-size="16.00" fill="#000000">principalement sur des enjeux</text>
<text text-anchor="middle" x="815.0457" y="-447.6" font-family="Times,serif" font-size="16.00" fill="#000000">sociaux contemporains : les droits</text>
<text text-anchor="middle" x="815.0457" y="-428.4" font-family="Times,serif" font-size="16.00" fill="#000000">humains, les grandes questions</text>
<text text-anchor="middle" x="815.0457" y="-409.2" font-family="Times,serif" font-size="16.00" fill="#000000">morales, le progrès technologique,</text>
<text text-anchor="middle" x="815.0457" y="-390" font-family="Times,serif" font-size="16.00" fill="#000000">l&#39;environnement, le féminisme …</text>
</g>
<!-- c3&#45;&gt;d2 -->
<g id="edge11" class="edge">
<title>c3&#45;&gt;d2</title>
<path fill="none" stroke="#000000" d="M645.8934,-476.3766C655.9052,-475.5256 666.1124,-474.6581 676.3027,-473.792"/>
<polygon fill="#000000" stroke="#000000" points="676.8118,-477.2615 686.4794,-472.9271 676.2189,-470.2866 676.8118,-477.2615"/>
</g>
<!-- d3 -->
<g id="node12" class="node">
<title>d3</title>
<path fill="#ffffff" stroke="#7f7f7f" d="M882.6177,-241C882.6177,-241 747.4737,-241 747.4737,-241 741.4737,-241 735.4737,-235 735.4737,-229 735.4737,-229 735.4737,-149 735.4737,-149 735.4737,-143 741.4737,-137 747.4737,-137 747.4737,-137 882.6177,-137 882.6177,-137 888.6177,-137 894.6177,-143 894.6177,-149 894.6177,-149 894.6177,-229 894.6177,-229 894.6177,-235 888.6177,-241 882.6177,-241"/>
<text text-anchor="middle" x="815.0457" y="-222.6" font-family="Times,serif" font-size="16.00" fill="#000000">Un atout important</text>
<text text-anchor="middle" x="815.0457" y="-203.4" font-family="Times,serif" font-size="16.00" fill="#000000">pour le post&#45;bac,</text>
<text text-anchor="middle" x="815.0457" y="-184.2" font-family="Times,serif" font-size="16.00" fill="#000000">notamment en cas de</text>
<text text-anchor="middle" x="815.0457" y="-165" font-family="Times,serif" font-size="16.00" fill="#000000">choix d&#39;une formation</text>
<text text-anchor="middle" x="815.0457" y="-145.8" font-family="Times,serif" font-size="16.00" fill="#000000">sélective !</text>
</g>
<!-- c4&#45;&gt;d3 -->
<g id="edge12" class="edge">
<title>c4&#45;&gt;d3</title>
<path fill="none" stroke="#000000" d="M639.0191,-274.4014C667.6733,-260.4995 698.3694,-245.6069 725.9736,-232.2144"/>
<polygon fill="#000000" stroke="#000000" points="727.7399,-235.2477 735.2091,-227.7336 724.6843,-228.9497 727.7399,-235.2477"/>
</g>
<!-- c5&#45;&gt;d3 -->
<g id="edge13" class="edge">
<title>c5&#45;&gt;d3</title>
<path fill="none" stroke="#000000" d="M648.7429,-189C674.1655,-189 700.7106,-189 724.9366,-189"/>
<polygon fill="#000000" stroke="#000000" points="725.1672,-192.5001 735.1672,-189 725.1672,-185.5001 725.1672,-192.5001"/>
</g>
<!-- c6&#45;&gt;d3 -->
<g id="edge14" class="edge">
<title>c6&#45;&gt;d3</title>
<path fill="none" stroke="#000000" d="M625.1275,-96.8589C657.4811,-112.5557 693.7256,-130.1401 725.8105,-145.7065"/>
<polygon fill="#000000" stroke="#000000" points="724.6578,-149.0374 735.1827,-150.2535 727.7134,-142.7395 724.6578,-149.0374"/>
</g>
<!-- e1 -->
<g id="node13" class="node">
<title>e1</title>
<path fill="#fafafa" stroke="transparent" d="M1129.1074,-533.4006C1129.1074,-533.4006 966.4464,-533.4006 966.4464,-533.4006 960.4464,-533.4006 954.4464,-527.4006 954.4464,-521.4006 954.4464,-521.4006 954.4464,-402.5994 954.4464,-402.5994 954.4464,-396.5994 960.4464,-390.5994 966.4464,-390.5994 966.4464,-390.5994 1129.1074,-390.5994 1129.1074,-390.5994 1135.1074,-390.5994 1141.1074,-396.5994 1141.1074,-402.5994 1141.1074,-402.5994 1141.1074,-521.4006 1141.1074,-521.4006 1141.1074,-527.4006 1135.1074,-533.4006 1129.1074,-533.4006"/>
<text text-anchor="middle" x="1047.7769" y="-514.8" font-family="Times,serif" font-size="16.00" fill="#cd2626">Ce n&#39;est pas un cours</text>
<text text-anchor="middle" x="1047.7769" y="-495.6" font-family="Times,serif" font-size="16.00" fill="#cd2626">magistral : les élèves ont</text>
<text text-anchor="middle" x="1047.7769" y="-476.4" font-family="Times,serif" font-size="16.00" fill="#cd2626">des projets à réaliser en</text>
<text text-anchor="middle" x="1047.7769" y="-457.2" font-family="Times,serif" font-size="16.00" fill="#cd2626">anglais (organisation d&#39;un</text>
<text text-anchor="middle" x="1047.7769" y="-438" font-family="Times,serif" font-size="16.00" fill="#cd2626">débat, création d&#39;un jeu,</text>
<text text-anchor="middle" x="1047.7769" y="-418.8" font-family="Times,serif" font-size="16.00" fill="#cd2626">d&#39;un montage audio ou</text>
<text text-anchor="middle" x="1047.7769" y="-399.6" font-family="Times,serif" font-size="16.00" fill="#cd2626">vidéo, d&#39;un diaporama …)</text>
</g>
<!-- d2&#45;&gt;e1 -->
</g>
</svg>
