<?xml version="1.0" encoding="UTF-8" standalone="no"?><!DOCTYPE svg PUBLIC "-//W3C//DTD SVG 1.1//EN" "http://www.w3.org/Graphics/SVG/1.1/DTD/svg11.dtd"><!-- Generated by graphviz version 2.40.1 (20161225.0304)
 --><!-- Title: G Pages: 1 --><svg xmlns="http://www.w3.org/2000/svg" xmlns:xlink="http://www.w3.org/1999/xlink" width="734pt" height="680pt" viewBox="0.00 0.00 733.78 679.78">
<g id="graph0" class="graph" transform="scale(1 1) rotate(0) translate(21.6 658.1801)">
<title>G</title>
<polygon fill="#fafafa" stroke="transparent" points="-21.6,21.6 -21.6,-658.1801 712.1816,-658.1801 712.1816,21.6 -21.6,21.6"/>
<!-- a1 -->
<g id="node1" class="node">
<title>a1</title>
<ellipse fill="#000000" stroke="#000000" cx="291.968" cy="-600.3763" rx="60.5877" ry="36.4089"/>
<text text-anchor="middle" x="291.968" y="-605.7763" font-family="Times,serif" font-size="18.00" fill="#ffffff">La</text>
<text text-anchor="middle" x="291.968" y="-584.1763" font-family="Times,serif" font-size="18.00" fill="#ffffff">technique</text>
</g>
<!-- b1 -->
<g id="node2" class="node">
<title>b1</title>
<ellipse fill="#8b0000" stroke="#000000" cx="164.968" cy="-482.7862" rx="92.9747" ry="46.2727"/>
<text text-anchor="middle" x="164.968" y="-497.1862" font-family="Times,serif" font-size="16.00" fill="#ffffff">Une mauvaise</text>
<text text-anchor="middle" x="164.968" y="-477.9862" font-family="Times,serif" font-size="16.00" fill="#ffffff">manière de poser</text>
<text text-anchor="middle" x="164.968" y="-458.7862" font-family="Times,serif" font-size="16.00" fill="#ffffff">le problème</text>
</g>
<!-- a1&#45;&gt;b1 -->
<g id="edge1" class="edge">
<title>a1-&gt;b1:n</title>
<path fill="none" stroke="#000000" d="M233.3008,-590.4587C203.5341,-582.0862 172.3429,-566.8572 166.0947,-539.4022"/>
<polygon fill="#000000" stroke="#000000" points="169.5418,-538.7291 164.968,-529.1724 162.5838,-539.4955 169.5418,-538.7291"/>
</g>
<!-- b2 -->
<g id="node3" class="node">
<title>b2</title>
<ellipse fill="#8b0000" stroke="#000000" cx="419.968" cy="-482.7862" rx="92.9747" ry="46.2727"/>
<text text-anchor="middle" x="419.968" y="-497.1862" font-family="Times,serif" font-size="16.00" fill="#ffffff">Une bonne</text>
<text text-anchor="middle" x="419.968" y="-477.9862" font-family="Times,serif" font-size="16.00" fill="#ffffff">manière de poser</text>
<text text-anchor="middle" x="419.968" y="-458.7862" font-family="Times,serif" font-size="16.00" fill="#ffffff">le problème</text>
</g>
<!-- a1&#45;&gt;b2 -->
<g id="edge2" class="edge">
<title>a1-&gt;b2:n</title>
<path fill="none" stroke="#000000" d="M350.7232,-590.6998C380.9548,-582.3675 412.7577,-567.0533 418.9058,-539.1326"/>
<polygon fill="#000000" stroke="#000000" points="422.3878,-539.4872 419.968,-529.1724 415.4272,-538.7449 422.3878,-539.4872"/>
</g>
<!-- b1&#45;&gt;b2 -->
<!-- c1 -->
<g id="node4" class="node">
<title>c1</title>
<polygon fill="#ffffff" stroke="#7f7f7f" points="215.904,-401.2012 .032,-401.2012 .032,-335.9988 215.904,-335.9988 215.904,-401.2012"/>
<text text-anchor="middle" x="107.968" y="-383" font-family="Times,serif" font-size="16.00" fill="#000000">En rester à une opposition</text>
<text text-anchor="middle" x="107.968" y="-363.8" font-family="Times,serif" font-size="16.00" fill="#000000">triviale entre les techniques</text>
<text text-anchor="middle" x="107.968" y="-344.6" font-family="Times,serif" font-size="16.00" fill="#000000">pratiques et les mauvais usages</text>
</g>
<!-- b1&#45;&gt;c1 -->
<g id="edge4" class="edge">
<title>b1-&gt;c1</title>
<path fill="none" stroke="#000000" d="M142.4401,-437.6568C137.9596,-428.6811 133.2729,-419.2924 128.8503,-410.4328"/>
<polygon fill="#000000" stroke="#000000" points="131.9547,-408.8151 124.3568,-401.4311 125.6916,-411.9416 131.9547,-408.8151"/>
</g>
<!-- c2 -->
<g id="node5" class="node">
<title>c2</title>
<polygon fill="#ffffff" stroke="#7f7f7f" points="564.4552,-401.2012 313.4808,-401.2012 313.4808,-335.9988 564.4552,-335.9988 564.4552,-401.2012"/>
<text text-anchor="middle" x="438.968" y="-383" font-family="Times,serif" font-size="16.00" fill="#000000">Passer des techniques particulières</text>
<text text-anchor="middle" x="438.968" y="-363.8" font-family="Times,serif" font-size="16.00" fill="#000000">à la question de la place générale de</text>
<text text-anchor="middle" x="438.968" y="-344.6" font-family="Times,serif" font-size="16.00" fill="#000000">la technique dans notre existence</text>
</g>
<!-- b2&#45;&gt;c2 -->
<g id="edge5" class="edge">
<title>b2-&gt;c2</title>
<path fill="none" stroke="#000000" d="M427.696,-436.3423C429.0686,-428.0937 430.4923,-419.5375 431.847,-411.396"/>
<polygon fill="#000000" stroke="#000000" points="435.3281,-411.7983 433.517,-401.3594 428.423,-410.6493 435.3281,-411.7983"/>
</g>
<!-- c1&#45;&gt;c2 -->
<!-- e1 -->
<g id="node10" class="node">
<title>e1</title>
<path fill="#fafafa" stroke="transparent" d="M167.4713,-328.0017C167.4713,-328.0017 48.4647,-328.0017 48.4647,-328.0017 42.4647,-328.0017 36.4647,-322.0017 36.4647,-316.0017 36.4647,-316.0017 36.4647,-293.1983 36.4647,-293.1983 36.4647,-287.1983 42.4647,-281.1983 48.4647,-281.1983 48.4647,-281.1983 167.4713,-281.1983 167.4713,-281.1983 173.4713,-281.1983 179.4713,-287.1983 179.4713,-293.1983 179.4713,-293.1983 179.4713,-316.0017 179.4713,-316.0017 179.4713,-322.0017 173.4713,-328.0017 167.4713,-328.0017"/>
<text text-anchor="middle" x="107.968" y="-309.4" font-family="Times,serif" font-size="16.00" fill="#cd2626">Machine à laver vs.</text>
<text text-anchor="middle" x="107.968" y="-290.2" font-family="Times,serif" font-size="16.00" fill="#cd2626">bombe nucléaire …</text>
</g>
<!-- c1&#45;&gt;e1 -->
<!-- d1 -->
<g id="node6" class="node">
<title>d1</title>
<path fill="#ffffff" stroke="#7f7f7f" d="M407.7113,-273.2012C407.7113,-273.2012 230.2247,-273.2012 230.2247,-273.2012 224.2247,-273.2012 218.2247,-267.2012 218.2247,-261.2012 218.2247,-261.2012 218.2247,-219.9988 218.2247,-219.9988 218.2247,-213.9988 224.2247,-207.9988 230.2247,-207.9988 230.2247,-207.9988 407.7113,-207.9988 407.7113,-207.9988 413.7113,-207.9988 419.7113,-213.9988 419.7113,-219.9988 419.7113,-219.9988 419.7113,-261.2012 419.7113,-261.2012 419.7113,-267.2012 413.7113,-273.2012 407.7113,-273.2012"/>
<text text-anchor="middle" x="318.968" y="-255" font-family="Times,serif" font-size="16.00" fill="#000000">La maîtrise des savoir-faire</text>
<text text-anchor="middle" x="318.968" y="-235.8" font-family="Times,serif" font-size="16.00" fill="#000000">permet la constitution d'un</text>
<text text-anchor="middle" x="318.968" y="-216.6" font-family="Times,serif" font-size="16.00" fill="#000000">milieu proprement humain</text>
</g>
<!-- c2&#45;&gt;d1 -->
<g id="edge7" class="edge">
<title>c2-&gt;d1</title>
<path fill="none" stroke="#000000" d="M408.3764,-335.969C392.7005,-319.248 373.4664,-298.7316 356.8594,-281.0175"/>
<polygon fill="#000000" stroke="#000000" points="359.3138,-278.5181 349.9209,-273.6165 354.207,-283.3057 359.3138,-278.5181"/>
</g>
<!-- d2 -->
<g id="node7" class="node">
<title>d2</title>
<path fill="#ffffff" stroke="#7f7f7f" d="M637.5288,-273.2012C637.5288,-273.2012 454.4072,-273.2012 454.4072,-273.2012 448.4072,-273.2012 442.4072,-267.2012 442.4072,-261.2012 442.4072,-261.2012 442.4072,-219.9988 442.4072,-219.9988 442.4072,-213.9988 448.4072,-207.9988 454.4072,-207.9988 454.4072,-207.9988 637.5288,-207.9988 637.5288,-207.9988 643.5288,-207.9988 649.5288,-213.9988 649.5288,-219.9988 649.5288,-219.9988 649.5288,-261.2012 649.5288,-261.2012 649.5288,-267.2012 643.5288,-273.2012 637.5288,-273.2012"/>
<text text-anchor="middle" x="545.968" y="-255" font-family="Times,serif" font-size="16.00" fill="#000000">L'évolution des techniques</text>
<text text-anchor="middle" x="545.968" y="-235.8" font-family="Times,serif" font-size="16.00" fill="#000000">conduit à des transformations</text>
<text text-anchor="middle" x="545.968" y="-216.6" font-family="Times,serif" font-size="16.00" fill="#000000">radicales et inquiétantes</text>
</g>
<!-- c2&#45;&gt;d2 -->
<g id="edge8" class="edge">
<title>c2-&gt;d2</title>
<path fill="none" stroke="#000000" d="M466.2455,-335.969C480.0984,-319.3973 497.0676,-299.0977 511.7843,-281.4926"/>
<polygon fill="#000000" stroke="#000000" points="514.64,-283.5337 518.3683,-273.6165 509.2693,-279.0441 514.64,-283.5337"/>
</g>
<!-- d1a -->
<g id="node8" class="node">
<title>d1a</title>
<path fill="#ffffff" stroke="#7f7f7f" d="M409.9533,-172.7002C409.9533,-172.7002 197.9827,-172.7002 197.9827,-172.7002 191.9827,-172.7002 185.9827,-166.7002 185.9827,-160.7002 185.9827,-160.7002 185.9827,-100.0998 185.9827,-100.0998 185.9827,-94.0998 191.9827,-88.0998 197.9827,-88.0998 197.9827,-88.0998 409.9533,-88.0998 409.9533,-88.0998 415.9533,-88.0998 421.9533,-94.0998 421.9533,-100.0998 421.9533,-100.0998 421.9533,-160.7002 421.9533,-160.7002 421.9533,-166.7002 415.9533,-172.7002 409.9533,-172.7002"/>
<text text-anchor="middle" x="303.968" y="-154.4" font-family="Times,serif" font-size="16.00" fill="#000000">Faut-il reconnaître le rôle</text>
<text text-anchor="middle" x="303.968" y="-135.2" font-family="Times,serif" font-size="16.00" fill="#000000">fondemental de la technique</text>
<text text-anchor="middle" x="303.968" y="-116" font-family="Times,serif" font-size="16.00" fill="#000000">et considérer la technophobie</text>
<text text-anchor="middle" x="303.968" y="-96.8" font-family="Times,serif" font-size="16.00" fill="#000000">comme une attitude irrationnelle ?</text>
</g>
<!-- d1&#45;&gt;d1a -->
<g id="edge9" class="edge">
<title>d1-&gt;d1a</title>
<path fill="none" stroke="#000000" d="M314.5081,-207.8347C313.4521,-200.0766 312.2993,-191.6073 311.1562,-183.2091"/>
<polygon fill="#000000" stroke="#000000" points="314.5906,-182.4896 309.7738,-173.053 307.6546,-183.4337 314.5906,-182.4896"/>
</g>
<!-- d2a -->
<g id="node9" class="node">
<title>d2a</title>
<path fill="#ffffff" stroke="#7f7f7f" d="M653.6514,-172.7002C653.6514,-172.7002 454.2846,-172.7002 454.2846,-172.7002 448.2846,-172.7002 442.2846,-166.7002 442.2846,-160.7002 442.2846,-160.7002 442.2846,-100.0998 442.2846,-100.0998 442.2846,-94.0998 448.2846,-88.0998 454.2846,-88.0998 454.2846,-88.0998 653.6514,-88.0998 653.6514,-88.0998 659.6514,-88.0998 665.6514,-94.0998 665.6514,-100.0998 665.6514,-100.0998 665.6514,-160.7002 665.6514,-160.7002 665.6514,-166.7002 659.6514,-172.7002 653.6514,-172.7002"/>
<text text-anchor="middle" x="553.968" y="-154.4" font-family="Times,serif" font-size="16.00" fill="#000000">Les mutations technologiques</text>
<text text-anchor="middle" x="553.968" y="-135.2" font-family="Times,serif" font-size="16.00" fill="#000000">sont-elles toujours au service</text>
<text text-anchor="middle" x="553.968" y="-116" font-family="Times,serif" font-size="16.00" fill="#000000">de nos objectifs ? Peuvent-elles</text>
<text text-anchor="middle" x="553.968" y="-96.8" font-family="Times,serif" font-size="16.00" fill="#000000">nous échapper et nous asservir ?</text>
</g>
<!-- d2&#45;&gt;d2a -->
<g id="edge10" class="edge">
<title>d2-&gt;d2a</title>
<path fill="none" stroke="#000000" d="M548.3466,-207.8347C548.9098,-200.0766 549.5246,-191.6073 550.1343,-183.2091"/>
<polygon fill="#000000" stroke="#000000" points="553.6383,-183.2802 550.8716,-173.053 546.6566,-182.7733 553.6383,-183.2802"/>
</g>
<!-- e2 -->
<g id="node11" class="node">
<title>e2</title>
<path fill="#fafafa" stroke="transparent" d="M403.0571,-80C403.0571,-80 180.8789,-80 180.8789,-80 174.8789,-80 168.8789,-74 168.8789,-68 168.8789,-68 168.8789,-12 168.8789,-12 168.8789,-6 174.8789,0 180.8789,0 180.8789,0 403.0571,0 403.0571,0 409.0571,0 415.0571,-6 415.0571,-12 415.0571,-12 415.0571,-68 415.0571,-68 415.0571,-74 409.0571,-80 403.0571,-80"/>
<text text-anchor="start" x="176.6736" y="-62.6" font-family="Times,serif" font-size="16.00" fill="#cd2626">⇒ Interroger la dimension culturelle</text>
<text text-anchor="start" x="181.3328" y="-46.6" font-family="Times,serif" font-size="16.00" fill="#cd2626">et anthropologique de la technique</text>
<text text-anchor="start" x="204.1932" y="-21.5" font-family="Times,serif" font-size="15.00" fill="#8b0000">La technique ne se réduit pas</text>
<text text-anchor="start" x="212.093" y="-6.5" font-family="Times,serif" font-size="15.00" fill="#8b0000">à la simple utilité pratique</text>
</g>
<!-- d1a&#45;&gt;e2 -->
<!-- e3 -->
<g id="node12" class="node">
<title>e3</title>
<path fill="#fafafa" stroke="transparent" d="M678.6953,-72C678.6953,-72 441.2407,-72 441.2407,-72 435.2407,-72 429.2407,-66 429.2407,-60 429.2407,-60 429.2407,-20 429.2407,-20 429.2407,-14 435.2407,-8 441.2407,-8 441.2407,-8 678.6953,-8 678.6953,-8 684.6953,-8 690.6953,-14 690.6953,-20 690.6953,-20 690.6953,-60 690.6953,-60 690.6953,-66 684.6953,-72 678.6953,-72"/>
<text text-anchor="start" x="437.3544" y="-54.6" font-family="Times,serif" font-size="16.00" fill="#cd2626">⇒ Interroger l'emprise de la technique</text>
<text text-anchor="start" x="456.9923" y="-29.5" font-family="Times,serif" font-size="15.00" fill="#8b0000">La technique ne se réduit pas à de</text>
<text text-anchor="start" x="453.5197" y="-14.5" font-family="Times,serif" font-size="15.00" fill="#8b0000">simples moyens à notre disposition</text>
</g>
<!-- d2a&#45;&gt;e3 -->
<!-- vide1 -->
<!-- e1&#45;&gt;vide1 -->
<!-- vide1&#45;&gt;d1 -->
</g>
</svg>