<?xml version="1.0" encoding="UTF-8" standalone="no"?>
<!DOCTYPE svg PUBLIC "-//W3C//DTD SVG 1.1//EN"
 "http://www.w3.org/Graphics/SVG/1.1/DTD/svg11.dtd">
<!-- Generated by graphviz version 2.40.1 (20161225.0304)
 -->
<!-- Title: G Pages: 1 -->
<svg width="490pt" height="347pt"
 viewBox="0.00 0.00 489.69 347.37" xmlns="http://www.w3.org/2000/svg" xmlns:xlink="http://www.w3.org/1999/xlink">
<g id="graph0" class="graph" transform="scale(1 1) rotate(0) translate(21.6 325.7743)">
<title>G</title>
<polygon fill="#fafafa" stroke="transparent" points="-21.6,21.6 -21.6,-325.7743 468.0888,-325.7743 468.0888,21.6 -21.6,21.6"/>
<!-- a1 -->
<g id="node1" class="node">
<title>a1</title>
<ellipse fill="#050505" stroke="#000000" cx="253.0664" cy="-252.6969" rx="99.1549" ry="51.4548"/>
<text text-anchor="middle" x="253.0664" y="-268.8969" font-family="Times,serif" font-size="18.00" fill="#ffffff">Peut&#45;on vraiment</text>
<text text-anchor="middle" x="253.0664" y="-247.2969" font-family="Times,serif" font-size="18.00" fill="#ffffff">définir ce qui</text>
<text text-anchor="middle" x="253.0664" y="-225.6969" font-family="Times,serif" font-size="18.00" fill="#ffffff">est de l&#39;art ?</text>
</g>
<!-- b1 -->
<g id="node2" class="node">
<title>b1</title>
<ellipse fill="#8b0000" stroke="#000000" cx="132.0664" cy="-133.4098" rx="72.345" ry="32.6206"/>
<text text-anchor="middle" x="132.0664" y="-138.2098" font-family="Times,serif" font-size="16.00" fill="#ffffff"></text>
<text text-anchor="middle" x="132.0664" y="-119.0098" font-family="Times,serif" font-size="16.00" fill="#ffffff"></text>
</g>
<!-- a1&#45;&gt;b1 -->
<g id="edge1" class="edge">
<title>a1&#45;&gt;b1:n</title>
<path fill="none" stroke="#000000" d="M171.3516,-223.2475C152.5893,-211.7568 136.9438,-196.3669 133.0165,-176.1768"/>
<polygon fill="#000000" stroke="#000000" points="136.5005,-175.8418 132.0664,-166.2195 129.5321,-176.5068 136.5005,-175.8418"/>
</g>
<!-- b2 -->
<g id="node3" class="node">
<title>b2</title>
<ellipse fill="#8b0000" stroke="#000000" cx="374.0664" cy="-133.4098" rx="72.345" ry="32.6206"/>
<text text-anchor="middle" x="374.0664" y="-138.2098" font-family="Times,serif" font-size="16.00" fill="#ffffff"></text>
<text text-anchor="middle" x="374.0664" y="-119.0098" font-family="Times,serif" font-size="16.00" fill="#ffffff"></text>
</g>
<!-- a1&#45;&gt;b2 -->
<g id="edge2" class="edge">
<title>a1&#45;&gt;b2:n</title>
<path fill="none" stroke="#000000" d="M334.7812,-223.2475C353.5435,-211.7568 369.189,-196.3669 373.1163,-176.1768"/>
<polygon fill="#000000" stroke="#000000" points="376.6007,-176.5068 374.0664,-166.2195 369.6323,-175.8418 376.6007,-176.5068"/>
</g>
<!-- b1&#45;&gt;b2 -->
<!-- c1 -->
<g id="node4" class="node">
<title>c1</title>
<polygon fill="#ffffff" stroke="#7f7f7f" points="118.1993,-65.4012 -.0665,-65.4012 -.0665,-.1988 118.1993,-.1988 118.1993,-65.4012"/>
<text text-anchor="middle" x="59.0664" y="-47.2" font-family="Times,serif" font-size="16.00" fill="#000000"></text>
<text text-anchor="middle" x="59.0664" y="-28" font-family="Times,serif" font-size="16.00" fill="#000000"></text>
<text text-anchor="middle" x="59.0664" y="-8.8" font-family="Times,serif" font-size="16.00" fill="#000000"></text>
</g>
<!-- b1&#45;&gt;c1 -->
<g id="edge4" class="edge">
<title>b1&#45;&gt;c1</title>
<path fill="none" stroke="#000000" d="M109.3689,-102.1277C102.8298,-93.1155 95.5977,-83.148 88.7042,-73.6473"/>
<polygon fill="#000000" stroke="#000000" points="91.4652,-71.4927 82.7595,-65.4542 85.7994,-75.6036 91.4652,-71.4927"/>
</g>
<!-- c2 -->
<g id="node5" class="node">
<title>c2</title>
<polygon fill="#ffffff" stroke="#7f7f7f" points="235.866,-65.4012 132.2668,-65.4012 132.2668,-.1988 235.866,-.1988 235.866,-65.4012"/>
<text text-anchor="middle" x="184.0664" y="-47.2" font-family="Times,serif" font-size="16.00" fill="#000000"></text>
<text text-anchor="middle" x="184.0664" y="-28" font-family="Times,serif" font-size="16.00" fill="#000000"></text>
<text text-anchor="middle" x="184.0664" y="-8.8" font-family="Times,serif" font-size="16.00" fill="#000000"></text>
</g>
<!-- b1&#45;&gt;c2 -->
<g id="edge5" class="edge">
<title>b1&#45;&gt;c2</title>
<path fill="none" stroke="#000000" d="M148.6625,-101.2996C153.0304,-92.8486 157.8075,-83.6058 162.3991,-74.722"/>
<polygon fill="#000000" stroke="#000000" points="165.6097,-76.1329 167.0919,-65.6422 159.3911,-72.9188 165.6097,-76.1329"/>
</g>
<!-- c3 -->
<g id="node6" class="node">
<title>c3</title>
<polygon fill="#ffffff" stroke="#7f7f7f" points="446.4269,-65.4012 301.7059,-65.4012 301.7059,-.1988 446.4269,-.1988 446.4269,-65.4012"/>
<text text-anchor="middle" x="374.0664" y="-47.2" font-family="Times,serif" font-size="16.00" fill="#000000"></text>
<text text-anchor="middle" x="374.0664" y="-28" font-family="Times,serif" font-size="16.00" fill="#000000"></text>
<text text-anchor="middle" x="374.0664" y="-8.8" font-family="Times,serif" font-size="16.00" fill="#000000"></text>
</g>
<!-- b2&#45;&gt;c3 -->
<g id="edge6" class="edge">
<title>b2&#45;&gt;c3</title>
<path fill="none" stroke="#000000" d="M374.0664,-100.4664C374.0664,-92.5685 374.0664,-84.0199 374.0664,-75.743"/>
<polygon fill="#000000" stroke="#000000" points="377.5665,-75.4738 374.0664,-65.4738 370.5665,-75.4738 377.5665,-75.4738"/>
</g>
</g>
</svg>
