<?xml version="1.0" encoding="UTF-8" standalone="no"?><!DOCTYPE svg PUBLIC "-//W3C//DTD SVG 1.1//EN" "http://www.w3.org/Graphics/SVG/1.1/DTD/svg11.dtd"><!-- Generated by graphviz version 2.40.1 (20161225.0304)
 --><!-- Title: G Pages: 1 --><svg xmlns="http://www.w3.org/2000/svg" xmlns:xlink="http://www.w3.org/1999/xlink" width="732pt" height="293pt" viewBox="0.00 0.00 731.71 292.99">
<g id="graph0" class="graph" transform="scale(1 1) rotate(0) translate(21.6 271.3862)">
<title>G</title>
<polygon fill="#fafafa" stroke="transparent" points="-21.6,21.6 -21.6,-271.3862 710.1144,-271.3862 710.1144,21.6 -21.6,21.6"/>
<!-- a1 -->
<g id="node1" class="node">
<title>a1</title>
<ellipse fill="#000000" stroke="#000000" cx="82.8803" cy="-129.4" rx="82.7607" ry="36.4089"/>
<text text-anchor="middle" x="82.8803" y="-134.8" font-family="Times,serif" font-size="18.00" fill="#ffffff">Problématiser</text>
<text text-anchor="middle" x="82.8803" y="-113.2" font-family="Times,serif" font-size="18.00" fill="#ffffff">le sujet</text>
</g>
<!-- b1 -->
<g id="node2" class="node">
<title>b1</title>
<ellipse fill="#8b0000" stroke="#000000" cx="282.7657" cy="-203.4" rx="56.1399" ry="46.2727"/>
<text text-anchor="middle" x="282.7657" y="-217.8" font-family="Times,serif" font-size="16.00" fill="#ffffff">= clarifier</text>
<text text-anchor="middle" x="282.7657" y="-198.6" font-family="Times,serif" font-size="16.00" fill="#ffffff">le sens</text>
<text text-anchor="middle" x="282.7657" y="-179.4" font-family="Times,serif" font-size="16.00" fill="#ffffff">du sujet</text>
</g>
<!-- a1&#45;&gt;b1 -->
<g id="edge1" class="edge">
<title>a1-&gt;b1:w</title>
<path fill="none" stroke="#000000" d="M120.8035,-161.6422C145.7972,-179.87 180.3527,-199.6642 215.7628,-202.9317"/>
<polygon fill="#000000" stroke="#000000" points="215.6129,-206.4284 225.7657,-203.4 215.9404,-199.4361 215.6129,-206.4284"/>
</g>
<!-- b2 -->
<g id="node3" class="node">
<title>b2</title>
<ellipse fill="#8b0000" stroke="#000000" cx="282.7657" cy="-55.4" rx="82.0103" ry="46.2727"/>
<text text-anchor="middle" x="282.7657" y="-69.8" font-family="Times,serif" font-size="16.00" fill="#ffffff">= montrer</text>
<text text-anchor="middle" x="282.7657" y="-50.6" font-family="Times,serif" font-size="16.00" fill="#ffffff">que la question</text>
<text text-anchor="middle" x="282.7657" y="-31.4" font-family="Times,serif" font-size="16.00" fill="#ffffff">pose problème</text>
</g>
<!-- a1&#45;&gt;b2 -->
<g id="edge2" class="edge">
<title>a1-&gt;b2:w</title>
<path fill="none" stroke="#000000" d="M114.6413,-95.8642C134.3607,-78.3498 161.4194,-59.7909 190.4313,-56.0709"/>
<polygon fill="#000000" stroke="#000000" points="191.0135,-59.5406 200.7657,-55.4 190.5599,-52.5553 191.0135,-59.5406"/>
</g>
<!-- b1&#45;&gt;b2 -->
<!-- c1 -->
<g id="node4" class="node">
<title>c1</title>
<polygon fill="#ffffff" stroke="#7f7f7f" points="546.2001,-245.7002 399.9608,-245.7002 399.9608,-161.0998 546.2001,-161.0998 546.2001,-245.7002"/>
<text text-anchor="middle" x="473.0804" y="-227.4" font-family="Times,serif" font-size="16.00" fill="#000000">On reformule le</text>
<text text-anchor="middle" x="473.0804" y="-208.2" font-family="Times,serif" font-size="16.00" fill="#000000">sujet en remplaçant</text>
<text text-anchor="middle" x="473.0804" y="-189" font-family="Times,serif" font-size="16.00" fill="#000000">chaque terme par</text>
<text text-anchor="middle" x="473.0804" y="-169.8" font-family="Times,serif" font-size="16.00" fill="#000000">sa définition</text>
</g>
<!-- b1&#45;&gt;c1 -->
<g id="edge4" class="edge">
<title>b1-&gt;c1</title>
<path fill="none" stroke="#000000" d="M339.0939,-203.4C355.0367,-203.4 372.7347,-203.4 389.904,-203.4"/>
<polygon fill="#000000" stroke="#000000" points="389.9347,-206.9001 399.9346,-203.4 389.9346,-199.9001 389.9347,-206.9001"/>
</g>
<!-- c2 -->
<g id="node5" class="node">
<title>c2</title>
<polygon fill="#ffffff" stroke="#7f7f7f" points="545.8896,-107.4 400.2713,-107.4 400.2713,-3.4 545.8896,-3.4 545.8896,-107.4"/>
<text text-anchor="middle" x="473.0804" y="-89" font-family="Times,serif" font-size="16.00" fill="#000000">On dégage une</text>
<text text-anchor="middle" x="473.0804" y="-69.8" font-family="Times,serif" font-size="16.00" fill="#000000">tension dans le sujet</text>
<text text-anchor="middle" x="473.0804" y="-50.6" font-family="Times,serif" font-size="16.00" fill="#000000">entre deux réponses</text>
<text text-anchor="middle" x="473.0804" y="-31.4" font-family="Times,serif" font-size="16.00" fill="#000000">opposées, avec</text>
<text text-anchor="middle" x="473.0804" y="-12.2" font-family="Times,serif" font-size="16.00" fill="#000000">le “ou bien”</text>
</g>
<!-- b2&#45;&gt;c2 -->
<g id="edge5" class="edge">
<title>b2-&gt;c2</title>
<path fill="none" stroke="#000000" d="M364.8571,-55.4C373.2252,-55.4 381.7307,-55.4 390.1081,-55.4"/>
<polygon fill="#000000" stroke="#000000" points="390.2454,-58.9001 400.2454,-55.4 390.2453,-51.9001 390.2454,-58.9001"/>
</g>
<!-- r1 -->
<g id="node6" class="node">
<title>r1</title>
<polygon fill="none" stroke="#0000ff" stroke-width=".6" stroke-dasharray="5,2" points="679.5826,-237.0012 590.3219,-237.0012 590.3219,-169.7988 679.5826,-169.7988 679.5826,-237.0012"/>
<text text-anchor="middle" x="634.9522" y="-221.4" font-family="Times,serif" font-size="12.00" fill="#000000">On utilise le</text>
<text text-anchor="middle" x="634.9522" y="-207" font-family="Times,serif" font-size="12.00" fill="#000000">travail d'analyse</text>
<text text-anchor="middle" x="634.9522" y="-192.6" font-family="Times,serif" font-size="12.00" fill="#000000">du sujet qu'on a</text>
<text text-anchor="middle" x="634.9522" y="-178.2" font-family="Times,serif" font-size="12.00" fill="#000000">fait au brouillon</text>
</g>
<!-- c1&#45;&gt;r1 -->
<g id="edge6" class="edge">
<title>c1-&gt;r1</title>
<path fill="none" stroke="#0000ff" stroke-width=".6" stroke-dasharray="5,2" d="M546.4385,-203.4C561.3283,-203.4 576.5633,-203.4 590.1037,-203.4"/>
</g>
<!-- r2 -->
<g id="node7" class="node">
<title>r2</title>
<polygon fill="none" stroke="#0000ff" stroke-width=".6" stroke-dasharray="5,2" points="688.5767,-110.7002 581.3278,-110.7002 581.3278,-.0998 688.5767,-.0998 688.5767,-110.7002"/>
<text text-anchor="middle" x="634.9522" y="-95" font-family="Times,serif" font-size="12.00" fill="#000000">Attention : la</text>
<text text-anchor="middle" x="634.9522" y="-80.6" font-family="Times,serif" font-size="12.00" fill="#000000">question reformulée</text>
<text text-anchor="middle" x="634.9522" y="-66.2" font-family="Times,serif" font-size="12.00" fill="#000000">avec le “ou bien”</text>
<text text-anchor="middle" x="634.9522" y="-51.8" font-family="Times,serif" font-size="12.00" fill="#000000">doit avoir un sens</text>
<text text-anchor="middle" x="634.9522" y="-37.4" font-family="Times,serif" font-size="12.00" fill="#000000">clair et elle ne doit</text>
<text text-anchor="middle" x="634.9522" y="-23" font-family="Times,serif" font-size="12.00" fill="#000000">pas s'éloigner de la</text>
<text text-anchor="middle" x="634.9522" y="-8.6" font-family="Times,serif" font-size="12.00" fill="#000000">question initiale</text>
</g>
<!-- c2&#45;&gt;r2 -->
<g id="edge7" class="edge">
<title>c2-&gt;r2</title>
<path fill="none" stroke="#0000ff" stroke-width=".6" stroke-dasharray="5,2" d="M545.9662,-55.4C557.8823,-55.4 570.0334,-55.4 581.3727,-55.4"/>
</g>
</g>
</svg>