<?xml version="1.0" encoding="UTF-8" standalone="no"?>
<!DOCTYPE svg PUBLIC "-//W3C//DTD SVG 1.1//EN"
 "http://www.w3.org/Graphics/SVG/1.1/DTD/svg11.dtd">
<!-- Generated by graphviz version 2.40.1 (20161225.0304)
 -->
<!-- Title: G Pages: 1 -->
<svg width="577pt" height="336pt"
 viewBox="0.00 0.00 576.67 336.03" xmlns="http://www.w3.org/2000/svg" xmlns:xlink="http://www.w3.org/1999/xlink">
<g id="graph0" class="graph" transform="scale(1 1) rotate(0) translate(21.6 314.4272)">
<title>G</title>
<polygon fill="#fafafa" stroke="transparent" points="-21.6,21.6 -21.6,-314.4272 555.0683,-314.4272 555.0683,21.6 -21.6,21.6"/>
<!-- a1 -->
<g id="node1" class="node">
<title>a1</title>
<ellipse fill="#000000" stroke="#000000" cx="285.0936" cy="-256.6234" rx="74.3147" ry="36.4089"/>
<text text-anchor="middle" x="285.0936" y="-262.0234" font-family="Times,serif" font-size="18.00" fill="#ffffff">Productivité</text>
<text text-anchor="middle" x="285.0936" y="-240.4234" font-family="Times,serif" font-size="18.00" fill="#ffffff">du langage</text>
</g>
<!-- b1 -->
<g id="node2" class="node">
<title>b1</title>
<ellipse fill="#8b0000" stroke="#000000" cx="91.0936" cy="-152.6098" rx="86.9488" ry="32.6206"/>
<text text-anchor="middle" x="91.0936" y="-157.4098" font-family="Times,serif" font-size="16.00" fill="#ffffff">Productivité</text>
<text text-anchor="middle" x="91.0936" y="-138.2098" font-family="Times,serif" font-size="16.00" fill="#ffffff">de la phonologie</text>
</g>
<!-- a1&#45;&gt;b1 -->
<g id="edge1" class="edge">
<title>a1&#45;&gt;b1:n</title>
<path fill="none" stroke="#000000" d="M214.7809,-244.3594C166.2013,-234.0789 107.9379,-217.5053 94.1311,-195.2859"/>
<polygon fill="#000000" stroke="#000000" points="97.3811,-193.947 91.0936,-185.4195 90.691,-196.0067 97.3811,-193.947"/>
</g>
<!-- b2 -->
<g id="node3" class="node">
<title>b2</title>
<ellipse fill="#8b0000" stroke="#000000" cx="285.0936" cy="-152.6098" rx="93.7692" ry="32.6206"/>
<text text-anchor="middle" x="285.0936" y="-157.4098" font-family="Times,serif" font-size="16.00" fill="#ffffff">Productivité</text>
<text text-anchor="middle" x="285.0936" y="-138.2098" font-family="Times,serif" font-size="16.00" fill="#ffffff">de la morphologie</text>
</g>
<!-- a1&#45;&gt;b2 -->
<g id="edge2" class="edge">
<title>a1&#45;&gt;b2:n</title>
<path fill="none" stroke="#000000" d="M285.0936,-220.4002C285.0936,-212.4283 285.0936,-203.8593 285.0936,-195.4848"/>
<polygon fill="#000000" stroke="#000000" points="288.5937,-195.4195 285.0936,-185.4195 281.5937,-195.4195 288.5937,-195.4195"/>
</g>
<!-- b3 -->
<g id="node4" class="node">
<title>b3</title>
<ellipse fill="#8b0000" stroke="#000000" cx="463.0936" cy="-152.6098" rx="70.2495" ry="32.6206"/>
<text text-anchor="middle" x="463.0936" y="-157.4098" font-family="Times,serif" font-size="16.00" fill="#ffffff">Productivité</text>
<text text-anchor="middle" x="463.0936" y="-138.2098" font-family="Times,serif" font-size="16.00" fill="#ffffff">de la syntaxe</text>
</g>
<!-- a1&#45;&gt;b3 -->
<g id="edge3" class="edge">
<title>a1&#45;&gt;b3:n</title>
<path fill="none" stroke="#000000" d="M353.6584,-242.3853C396.9462,-231.6345 447.052,-215.3161 459.9436,-195.2358"/>
<polygon fill="#000000" stroke="#000000" points="463.3707,-196.0107 463.0936,-185.4195 456.7055,-193.8719 463.3707,-196.0107"/>
</g>
<!-- c1 -->
<g id="node5" class="node">
<title>c1</title>
<polygon fill="#ffffff" stroke="#7f7f7f" points="182.2809,-84.7002 -.0937,-84.7002 -.0937,-.0998 182.2809,-.0998 182.2809,-84.7002"/>
<text text-anchor="middle" x="91.0936" y="-66.4" font-family="Times,serif" font-size="16.00" fill="#000000">Avec peu de sons</text>
<text text-anchor="middle" x="91.0936" y="-47.2" font-family="Times,serif" font-size="16.00" fill="#000000">(phonèmes), on peut</text>
<text text-anchor="middle" x="91.0936" y="-28" font-family="Times,serif" font-size="16.00" fill="#000000">construire un nombre</text>
<text text-anchor="middle" x="91.0936" y="-8.8" font-family="Times,serif" font-size="16.00" fill="#000000">important de morphèmes</text>
</g>
<!-- b1&#45;&gt;c1 -->
<g id="edge4" class="edge">
<title>b1&#45;&gt;c1</title>
<path fill="none" stroke="#000000" d="M91.0936,-119.5432C91.0936,-111.79 91.0936,-103.34 91.0936,-94.9682"/>
<polygon fill="#000000" stroke="#000000" points="94.5937,-94.8474 91.0936,-84.8474 87.5937,-94.8474 94.5937,-94.8474"/>
</g>
<!-- c2 -->
<g id="node6" class="node">
<title>c2</title>
<polygon fill="#ffffff" stroke="#7f7f7f" points="361.4417,-84.7002 208.7455,-84.7002 208.7455,-.0998 361.4417,-.0998 361.4417,-84.7002"/>
<text text-anchor="middle" x="285.0936" y="-66.4" font-family="Times,serif" font-size="16.00" fill="#000000">Avec peu de</text>
<text text-anchor="middle" x="285.0936" y="-47.2" font-family="Times,serif" font-size="16.00" fill="#000000">morphèmes, on peut</text>
<text text-anchor="middle" x="285.0936" y="-28" font-family="Times,serif" font-size="16.00" fill="#000000">construire un nombre</text>
<text text-anchor="middle" x="285.0936" y="-8.8" font-family="Times,serif" font-size="16.00" fill="#000000">important de mots</text>
</g>
<!-- b2&#45;&gt;c2 -->
<g id="edge5" class="edge">
<title>b2&#45;&gt;c2</title>
<path fill="none" stroke="#000000" d="M285.0936,-119.5432C285.0936,-111.79 285.0936,-103.34 285.0936,-94.9682"/>
<polygon fill="#000000" stroke="#000000" points="288.5937,-94.8474 285.0936,-84.8474 281.5937,-94.8474 288.5937,-94.8474"/>
</g>
<!-- c3 -->
<g id="node7" class="node">
<title>c3</title>
<polygon fill="#ffffff" stroke="#7f7f7f" points="530.6688,-84.7002 395.5184,-84.7002 395.5184,-.0998 530.6688,-.0998 530.6688,-84.7002"/>
<text text-anchor="middle" x="463.0936" y="-66.4" font-family="Times,serif" font-size="16.00" fill="#000000">Avec peu de mots,</text>
<text text-anchor="middle" x="463.0936" y="-47.2" font-family="Times,serif" font-size="16.00" fill="#000000">on peut construire</text>
<text text-anchor="middle" x="463.0936" y="-28" font-family="Times,serif" font-size="16.00" fill="#000000">un nombre infini</text>
<text text-anchor="middle" x="463.0936" y="-8.8" font-family="Times,serif" font-size="16.00" fill="#000000">de phrases</text>
</g>
<!-- b3&#45;&gt;c3 -->
<g id="edge6" class="edge">
<title>b3&#45;&gt;c3</title>
<path fill="none" stroke="#000000" d="M463.0936,-119.5432C463.0936,-111.79 463.0936,-103.34 463.0936,-94.9682"/>
<polygon fill="#000000" stroke="#000000" points="466.5937,-94.8474 463.0936,-84.8474 459.5937,-94.8474 466.5937,-94.8474"/>
</g>
</g>
</svg>
