<?xml version="1.0" encoding="UTF-8" standalone="no"?><!DOCTYPE svg PUBLIC "-//W3C//DTD SVG 1.1//EN" "http://www.w3.org/Graphics/SVG/1.1/DTD/svg11.dtd"><!-- Generated by graphviz version 2.40.1 (20161225.0304)
 --><!-- Title: G Pages: 1 --><svg xmlns="http://www.w3.org/2000/svg" xmlns:xlink="http://www.w3.org/1999/xlink" width="501pt" height="541pt" viewBox="0.00 0.00 501.36 540.68">
<g id="graph0" class="graph" transform="scale(1 1) rotate(0) translate(21.6 519.0801)">
<title>G</title>
<polygon fill="#fafafa" stroke="transparent" points="-21.6,21.6 -21.6,-519.0801 479.7616,-519.0801 479.7616,21.6 -21.6,21.6"/>
<!-- a1 -->
<g id="node1" class="node">
<title>a1</title>
<ellipse fill="#000000" stroke="#000000" cx="195.4112" cy="-446.0027" rx="95.5555" ry="51.4548"/>
<text text-anchor="middle" x="195.4112" y="-462.2027" font-family="Times,serif" font-size="18.00" fill="#ffffff">Hypothèse</text>
<text text-anchor="middle" x="195.4112" y="-440.6027" font-family="Times,serif" font-size="18.00" fill="#ffffff">fondamentale de</text>
<text text-anchor="middle" x="195.4112" y="-419.0027" font-family="Times,serif" font-size="18.00" fill="#ffffff">la psychanalyse</text>
</g>
<!-- b1 -->
<g id="node2" class="node">
<title>b1</title>
<ellipse fill="#8b0000" stroke="#000000" cx="195.4112" cy="-299.5627" rx="105.4762" ry="59.9253"/>
<text text-anchor="middle" x="195.4112" y="-323.5627" font-family="Times,serif" font-size="16.00" fill="#ffffff">La conscience de soi</text>
<text text-anchor="middle" x="195.4112" y="-304.3627" font-family="Times,serif" font-size="16.00" fill="#ffffff">est opaque, et le moi</text>
<text text-anchor="middle" x="195.4112" y="-285.1627" font-family="Times,serif" font-size="16.00" fill="#ffffff">n'est pas maître en</text>
<text text-anchor="middle" x="195.4112" y="-265.9627" font-family="Times,serif" font-size="16.00" fill="#ffffff">sa propre maison</text>
</g>
<!-- a1&#45;&gt;b1 -->
<g id="edge1" class="edge">
<title>a1-&gt;b1:n</title>
<path fill="none" stroke="#000000" d="M195.4112,-394.33C195.4112,-386.2723 195.4112,-377.9056 195.4112,-369.7339"/>
<polygon fill="#000000" stroke="#000000" points="198.9113,-369.5253 195.4112,-359.5253 191.9113,-369.5253 198.9113,-369.5253"/>
</g>
<!-- c1 -->
<g id="node3" class="node">
<title>c1</title>
<polygon fill="#ffffff" stroke="#7f7f7f" points="168.5873,-204.4012 38.2351,-204.4012 38.2351,-139.1988 168.5873,-139.1988 168.5873,-204.4012"/>
<text text-anchor="middle" x="103.4112" y="-186.2" font-family="Times,serif" font-size="16.00" fill="#000000">Il existe des</text>
<text text-anchor="middle" x="103.4112" y="-167" font-family="Times,serif" font-size="16.00" fill="#000000">forces psychiques</text>
<text text-anchor="middle" x="103.4112" y="-147.8" font-family="Times,serif" font-size="16.00" fill="#000000">inconscientes</text>
</g>
<!-- b1&#45;&gt;c1 -->
<g id="edge2" class="edge">
<title>b1-&gt;c1</title>
<path fill="none" stroke="#000000" d="M155.3263,-243.8958C147.7603,-233.3887 139.9773,-222.5803 132.8143,-212.6328"/>
<polygon fill="#000000" stroke="#000000" points="135.6454,-210.5749 126.9616,-204.5051 129.9649,-214.6653 135.6454,-210.5749"/>
</g>
<!-- c2 -->
<g id="node4" class="node">
<title>c2</title>
<polygon fill="#ffffff" stroke="#7f7f7f" points="408.1626,-204.4012 198.6598,-204.4012 198.6598,-139.1988 408.1626,-139.1988 408.1626,-204.4012"/>
<text text-anchor="middle" x="303.4112" y="-186.2" font-family="Times,serif" font-size="16.00" fill="#000000">Il y a une structuration</text>
<text text-anchor="middle" x="303.4112" y="-167" font-family="Times,serif" font-size="16.00" fill="#000000">psychique inconsciente qui</text>
<text text-anchor="middle" x="303.4112" y="-147.8" font-family="Times,serif" font-size="16.00" fill="#000000">se constitue pendant l'enfance</text>
</g>
<!-- b1&#45;&gt;c2 -->
<g id="edge3" class="edge">
<title>b1-&gt;c2</title>
<path fill="none" stroke="#000000" d="M241.2129,-245.3798C250.5588,-234.3237 260.2401,-222.8708 269.1017,-212.3877"/>
<polygon fill="#000000" stroke="#000000" points="271.9166,-214.4793 275.6993,-204.5828 266.5706,-209.9603 271.9166,-214.4793"/>
</g>
<!-- e1 -->
<g id="node7" class="node">
<title>e1</title>
<path fill="#fafafa" stroke="transparent" d="M445.9129,-322.9644C445.9129,-322.9644 326.9095,-322.9644 326.9095,-322.9644 320.9095,-322.9644 314.9095,-316.9644 314.9095,-310.9644 314.9095,-310.9644 314.9095,-288.1609 314.9095,-288.1609 314.9095,-282.1609 320.9095,-276.1609 326.9095,-276.1609 326.9095,-276.1609 445.9129,-276.1609 445.9129,-276.1609 451.9129,-276.1609 457.9129,-282.1609 457.9129,-288.1609 457.9129,-288.1609 457.9129,-310.9644 457.9129,-310.9644 457.9129,-316.9644 451.9129,-322.9644 445.9129,-322.9644"/>
<text text-anchor="middle" x="386.4112" y="-304.3627" font-family="Times,serif" font-size="16.00" fill="#cd2626">≠ transparence de</text>
<text text-anchor="middle" x="386.4112" y="-285.1627" font-family="Times,serif" font-size="16.00" fill="#cd2626">la conscience de soi</text>
</g>
<!-- b1&#45;&gt;e1 -->
<!-- d1 -->
<g id="node5" class="node">
<title>d1</title>
<path fill="#ffffff" stroke="#7f7f7f" d="M178.7337,-104C178.7337,-104 12.0887,-104 12.0887,-104 6.0887,-104 .0887,-98 .0887,-92 .0887,-92 .0887,-12 .0887,-12 .0887,-6 6.0887,0 12.0887,0 12.0887,0 178.7337,0 178.7337,0 184.7337,0 190.7337,-6 190.7337,-12 190.7337,-12 190.7337,-92 190.7337,-92 190.7337,-98 184.7337,-104 178.7337,-104"/>
<text text-anchor="middle" x="95.4112" y="-85.6" font-family="Times,serif" font-size="16.00" fill="#000000">= des pulsions sexuelles et</text>
<text text-anchor="middle" x="95.4112" y="-66.4" font-family="Times,serif" font-size="16.00" fill="#000000">des pulsions d'agressivité</text>
<text text-anchor="middle" x="95.4112" y="-47.2" font-family="Times,serif" font-size="16.00" fill="#000000">(qui forment le “Ça”),</text>
<text text-anchor="middle" x="95.4112" y="-28" font-family="Times,serif" font-size="16.00" fill="#000000">inconscientes car elles sont</text>
<text text-anchor="middle" x="95.4112" y="-8.8" font-family="Times,serif" font-size="16.00" fill="#000000">refoulées par le “Surmoi”</text>
</g>
<!-- c1&#45;&gt;d1 -->
<g id="edge4" class="edge">
<title>c1-&gt;d1</title>
<path fill="none" stroke="#000000" d="M101.2252,-139.0641C100.7064,-131.2963 100.1361,-122.7552 99.5616,-114.1521"/>
<polygon fill="#000000" stroke="#000000" points="103.0467,-113.8114 98.8881,-104.0669 96.0623,-114.2779 103.0467,-113.8114"/>
</g>
<!-- d2 -->
<g id="node6" class="node">
<title>d2</title>
<path fill="#ffffff" stroke="#7f7f7f" d="M405.6522,-104C405.6522,-104 217.1702,-104 217.1702,-104 211.1702,-104 205.1702,-98 205.1702,-92 205.1702,-92 205.1702,-12 205.1702,-12 205.1702,-6 211.1702,0 217.1702,0 217.1702,0 405.6522,0 405.6522,0 411.6522,0 417.6522,-6 417.6522,-12 417.6522,-12 417.6522,-92 417.6522,-92 417.6522,-98 411.6522,-104 405.6522,-104"/>
<text text-anchor="middle" x="311.4112" y="-85.6" font-family="Times,serif" font-size="16.00" fill="#000000">= les stades du développement</text>
<text text-anchor="middle" x="311.4112" y="-66.4" font-family="Times,serif" font-size="16.00" fill="#000000">psychique de l'enfant :</text>
<text text-anchor="middle" x="311.4112" y="-47.2" font-family="Times,serif" font-size="16.00" fill="#000000">stade oral, anal, phallique </text>
<text text-anchor="middle" x="311.4112" y="-28" font-family="Times,serif" font-size="16.00" fill="#000000">(complexe d'Œdipe), période</text>
<text text-anchor="middle" x="311.4112" y="-8.8" font-family="Times,serif" font-size="16.00" fill="#000000">de latence, stade génital</text>
</g>
<!-- c2&#45;&gt;d2 -->
<g id="edge5" class="edge">
<title>c2-&gt;d2</title>
<path fill="none" stroke="#000000" d="M305.5972,-139.0641C306.116,-131.2963 306.6863,-122.7552 307.2608,-114.1521"/>
<polygon fill="#000000" stroke="#000000" points="310.7601,-114.2779 307.9343,-104.0669 303.7757,-113.8114 310.7601,-114.2779"/>
</g>
</g>
</svg>