<?xml version="1.0" encoding="UTF-8" standalone="no"?><!DOCTYPE svg PUBLIC "-//W3C//DTD SVG 1.1//EN" "http://www.w3.org/Graphics/SVG/1.1/DTD/svg11.dtd"><!-- Generated by graphviz version 2.40.1 (20161225.0304)
 --><!-- Title: G Pages: 1 --><svg xmlns="http://www.w3.org/2000/svg" xmlns:xlink="http://www.w3.org/1999/xlink" width="686pt" height="443pt" viewBox="0.00 0.00 685.75 443.20">
<g id="graph0" class="graph" transform="scale(1 1) rotate(0) translate(21.6 421.6)">
<title>G</title>
<polygon fill="#fafafa" stroke="transparent" points="-21.6,21.6 -21.6,-421.6 664.1461,-421.6 664.1461,21.6 -21.6,21.6"/>
<!-- a1 -->
<g id="node1" class="node">
<title>a1</title>
<ellipse fill="#000000" stroke="#000000" cx="77.3729" cy="-200" rx="77.246" ry="36.4089"/>
<text text-anchor="middle" x="77.3729" y="-205.4" font-family="Times,serif" font-size="18.00" fill="#ffffff">La recherche</text>
<text text-anchor="middle" x="77.3729" y="-183.8" font-family="Times,serif" font-size="18.00" fill="#ffffff">d'idées</text>
</g>
<!-- b0 -->
<g id="node2" class="node">
<title>b0</title>
<ellipse fill="#8b0000" stroke="#000000" cx="287.7779" cy="-348" rx="98.0643" ry="46.2727"/>
<text text-anchor="middle" x="287.7779" y="-362.4" font-family="Times,serif" font-size="16.00" fill="#ffffff">On part de son</text>
<text text-anchor="middle" x="287.7779" y="-343.2" font-family="Times,serif" font-size="16.00" fill="#ffffff">travail au brouillon</text>
<text text-anchor="middle" x="287.7779" y="-324" font-family="Times,serif" font-size="16.00" fill="#ffffff">sur le sujet</text>
</g>
<!-- a1&#45;&gt;b0 -->
<g id="edge1" class="edge">
<title>a1-&gt;b0:w</title>
<path fill="none" stroke="#000000" d="M87.4289,-236.2049C101.152,-277.2816 129.8985,-339.5969 179.5642,-347.2259"/>
<polygon fill="#000000" stroke="#000000" points="179.542,-350.7341 189.7779,-348 180.0711,-343.7541 179.542,-350.7341"/>
</g>
<!-- b1 -->
<g id="node3" class="node">
<title>b1</title>
<ellipse fill="#8b0000" stroke="#000000" cx="287.7779" cy="-200" rx="65.4879" ry="46.2727"/>
<text text-anchor="middle" x="287.7779" y="-214.4" font-family="Times,serif" font-size="16.00" fill="#ffffff">L'idée</text>
<text text-anchor="middle" x="287.7779" y="-195.2" font-family="Times,serif" font-size="16.00" fill="#ffffff">doit être</text>
<text text-anchor="middle" x="287.7779" y="-176" font-family="Times,serif" font-size="16.00" fill="#ffffff">intéressante</text>
</g>
<!-- a1&#45;&gt;b1 -->
<g id="edge2" class="edge">
<title>a1-&gt;b1:w</title>
<path fill="none" stroke="#000000" d="M154.9387,-200C173.2784,-200 192.9703,-200 211.7524,-200"/>
<polygon fill="#000000" stroke="#000000" points="211.778,-203.5001 221.7779,-200 211.7779,-196.5001 211.778,-203.5001"/>
</g>
<!-- b2 -->
<g id="node4" class="node">
<title>b2</title>
<ellipse fill="#8b0000" stroke="#000000" cx="287.7779" cy="-52" rx="74.5475" ry="46.2727"/>
<text text-anchor="middle" x="287.7779" y="-66.4" font-family="Times,serif" font-size="16.00" fill="#ffffff">L'idée</text>
<text text-anchor="middle" x="287.7779" y="-47.2" font-family="Times,serif" font-size="16.00" fill="#ffffff">doit être bien</text>
<text text-anchor="middle" x="287.7779" y="-28" font-family="Times,serif" font-size="16.00" fill="#ffffff">argumentée</text>
</g>
<!-- a1&#45;&gt;b2 -->
<g id="edge3" class="edge">
<title>a1-&gt;b2:w</title>
<path fill="none" stroke="#000000" d="M91.4991,-164.1733C110.2771,-122.8532 147.6291,-59.6665 202.6722,-52.6412"/>
<polygon fill="#000000" stroke="#000000" points="203.0197,-56.1262 212.7779,-52 202.5764,-49.1403 203.0197,-56.1262"/>
</g>
<!-- b0&#45;&gt;b1 -->
<!-- c0 -->
<g id="node5" class="node">
<title>c0</title>
<polygon fill="#ffffff" stroke="#7f7f7f" points="634.8462,-400 428.51,-400 428.51,-296 634.8462,-296 634.8462,-400"/>
<text text-anchor="middle" x="531.6781" y="-381.6" font-family="Times,serif" font-size="16.00" fill="#000000">– On essaie de voir comment</text>
<text text-anchor="middle" x="531.6781" y="-362.4" font-family="Times,serif" font-size="16.00" fill="#000000">à partir de son analyse, des</text>
<text text-anchor="middle" x="531.6781" y="-343.2" font-family="Times,serif" font-size="16.00" fill="#000000">exemples, des liens avec le</text>
<text text-anchor="middle" x="531.6781" y="-324" font-family="Times,serif" font-size="16.00" fill="#000000">cours, on peut arriver à</text>
<text text-anchor="middle" x="531.6781" y="-304.8" font-family="Times,serif" font-size="16.00" fill="#000000">une réponse au sujet</text>
</g>
<!-- b0&#45;&gt;c0 -->
<g id="edge4" class="edge">
<title>b0-&gt;c0</title>
<path fill="none" stroke="#000000" d="M385.9272,-348C396.5602,-348 407.4444,-348 418.2393,-348"/>
<polygon fill="#000000" stroke="#000000" points="418.5505,-351.5001 428.5504,-348 418.5504,-344.5001 418.5505,-351.5001"/>
</g>
<!-- b1&#45;&gt;b2 -->
<!-- c1 -->
<g id="node6" class="node">
<title>c1</title>
<polygon fill="#ffffff" stroke="#7f7f7f" points="632.9894,-271.4006 430.3668,-271.4006 430.3668,-128.5994 632.9894,-128.5994 632.9894,-271.4006"/>
<text text-anchor="middle" x="531.6781" y="-252.8" font-family="Times,serif" font-size="16.00" fill="#000000">– On évite les banalités,</text>
<text text-anchor="middle" x="531.6781" y="-233.6" font-family="Times,serif" font-size="16.00" fill="#000000">les idées simplistes</text>
<text text-anchor="middle" x="531.6781" y="-214.4" font-family="Times,serif" font-size="16.00" fill="#000000">– On évite la simple</text>
<text text-anchor="middle" x="531.6781" y="-195.2" font-family="Times,serif" font-size="16.00" fill="#000000">liste de cas particuliers</text>
<text text-anchor="middle" x="531.6781" y="-176" font-family="Times,serif" font-size="16.00" fill="#000000">– Une bonne idée repose sur</text>
<text text-anchor="middle" x="531.6781" y="-156.8" font-family="Times,serif" font-size="16.00" fill="#000000">des concepts précis ou sur</text>
<text text-anchor="middle" x="531.6781" y="-137.6" font-family="Times,serif" font-size="16.00" fill="#000000">une distinction conceptuelle</text>
</g>
<!-- b1&#45;&gt;c1 -->
<g id="edge5" class="edge">
<title>b1-&gt;c1</title>
<path fill="none" stroke="#000000" d="M353.4596,-200C373.9847,-200 397.2336,-200 420.0015,-200"/>
<polygon fill="#000000" stroke="#000000" points="420.0672,-203.5001 430.0672,-200 420.0671,-196.5001 420.0672,-203.5001"/>
</g>
<!-- c2 -->
<g id="node7" class="node">
<title>c2</title>
<polygon fill="#ffffff" stroke="#7f7f7f" points="642.4143,-104 420.9419,-104 420.9419,0 642.4143,0 642.4143,-104"/>
<text text-anchor="middle" x="531.6781" y="-85.6" font-family="Times,serif" font-size="16.00" fill="#000000">– On construit un raisonnement</text>
<text text-anchor="middle" x="531.6781" y="-66.4" font-family="Times,serif" font-size="16.00" fill="#000000">précis, étape par étape,</text>
<text text-anchor="middle" x="531.6781" y="-47.2" font-family="Times,serif" font-size="16.00" fill="#000000">sans aller trop vite</text>
<text text-anchor="middle" x="531.6781" y="-28" font-family="Times,serif" font-size="16.00" fill="#000000">– On fait attention aux</text>
<text text-anchor="middle" x="531.6781" y="-8.8" font-family="Times,serif" font-size="16.00" fill="#000000">liens logiques</text>
</g>
<!-- b2&#45;&gt;c2 -->
<g id="edge6" class="edge">
<title>b2-&gt;c2</title>
<path fill="none" stroke="#000000" d="M362.6136,-52C377.8047,-52 394.1484,-52 410.4742,-52"/>
<polygon fill="#000000" stroke="#000000" points="410.6267,-55.5001 420.6266,-52 410.6266,-48.5001 410.6267,-55.5001"/>
</g>
</g>
</svg>