<?xml version="1.0" encoding="UTF-8" standalone="no"?><!DOCTYPE svg PUBLIC "-//W3C//DTD SVG 1.1//EN" "http://www.w3.org/Graphics/SVG/1.1/DTD/svg11.dtd"><!-- Generated by graphviz version 2.40.1 (20161225.0304)
 --><!-- Title: G Pages: 1 --><svg xmlns="http://www.w3.org/2000/svg" xmlns:xlink="http://www.w3.org/1999/xlink" width="468pt" height="435pt" viewBox="0.00 0.00 468.20 435.41">
<g id="remarques+objections_graph0" class="graph" transform="scale(1 1) rotate(0) translate(21.6 413.8067)">
<title>G</title>
<polygon fill="#ffffff" stroke="transparent" points="-21.6,21.6 -21.6,-413.8067 446.6,-413.8067 446.6,21.6 -21.6,21.6"/>
<g id="remarques+objections_clust1" class="cluster">
<title>cluster_0</title>
<path fill="#e5e5e5" stroke="#7f7f7f" d="M91,-8C91,-8 405,-8 405,-8 411,-8 417,-14 417,-20 417,-20 417,-372.2067 417,-372.2067 417,-378.2067 411,-384.2067 405,-384.2067 405,-384.2067 91,-384.2067 91,-384.2067 85,-384.2067 79,-378.2067 79,-372.2067 79,-372.2067 79,-20 79,-20 79,-14 85,-8 91,-8"/>
</g>
<!-- 0 -->
<!-- p1 -->
<g id="remarques+objections_node2_remarques+objections" class="node">
<title>p1</title>
<path fill="#ffffff" stroke="#000000" d="M259.7654,-359.4078C259.7654,-359.4078 116.2346,-359.4078 116.2346,-359.4078 110.2346,-359.4078 104.2346,-353.4078 104.2346,-347.4078 104.2346,-347.4078 104.2346,-298.6056 104.2346,-298.6056 104.2346,-292.6056 110.2346,-286.6056 116.2346,-286.6056 116.2346,-286.6056 259.7654,-286.6056 259.7654,-286.6056 265.7654,-286.6056 271.7654,-292.6056 271.7654,-298.6056 271.7654,-298.6056 271.7654,-347.4078 271.7654,-347.4078 271.7654,-353.4078 265.7654,-359.4078 259.7654,-359.4078"/>
<text text-anchor="middle" x="188" y="-335.6067" font-family="Times,serif" font-size="14.00" fill="#000000">Nous concevons le bien</text>
<text text-anchor="middle" x="188" y="-318.8067" font-family="Times,serif" font-size="14.00" fill="#000000">et le mal à travers le filtre</text>
<text text-anchor="middle" x="188" y="-302.0067" font-family="Times,serif" font-size="14.00" fill="#000000">de notre propre culture</text>
</g>
<!-- p2 -->
<g id="remarques+objections_node3_remarques+objections" class="node">
<title>p2</title>
<path fill="#ffffff" stroke="#000000" d="M327.2314,-233.6082C327.2314,-233.6082 168.7686,-233.6082 168.7686,-233.6082 162.7686,-233.6082 156.7686,-227.6082 156.7686,-221.6082 156.7686,-221.6082 156.7686,-190.4053 156.7686,-190.4053 156.7686,-184.4053 162.7686,-178.4053 168.7686,-178.4053 168.7686,-178.4053 327.2314,-178.4053 327.2314,-178.4053 333.2314,-178.4053 339.2314,-184.4053 339.2314,-190.4053 339.2314,-190.4053 339.2314,-221.6082 339.2314,-221.6082 339.2314,-227.6082 333.2314,-233.6082 327.2314,-233.6082"/>
<text text-anchor="middle" x="248" y="-210.2067" font-family="Times,serif" font-size="14.00" fill="#000000">Les croyances morales sont</text>
<text text-anchor="middle" x="248" y="-193.4067" font-family="Times,serif" font-size="14.00" fill="#000000">différentes selon les cultures</text>
</g>
<!-- p1&#45;&gt;p2 -->
<g id="remarques+objections_edge1" class="edge">
<title>p1-&gt;p2</title>
<path fill="none" stroke="#000000" d="M218.3443,-286.5094C223.6762,-276.6956 228.5444,-264.035 235.5591,-243.4379"/>
<polygon fill="#000000" stroke="#000000" points="238.9451,-244.3501 238.8228,-233.756 232.3118,-242.1141 238.9451,-244.3501"/>
<text text-anchor="middle" x="200.445" y="-275.5779" font-family="Times,serif" font-size="10.00" fill="#666666">par</text>
<text text-anchor="middle" x="200.445" y="-263.5779" font-family="Times,serif" font-size="10.00" fill="#666666">conséquent …</text>
</g>
<!-- r1 -->
<g id="remarques+objections_node5_remarques+objections" class="node">
<title>r1</title>
<polygon fill="#ffffff" stroke="#0000ff" stroke-width=".8" points="392.3617,-346.6084 307.6383,-346.6084 307.6383,-299.4051 392.3617,-299.4051 392.3617,-346.6084"/>
<text text-anchor="middle" x="350" y="-332.9067" font-family="Times,serif" font-size="11.00" fill="#000000">= 1 forme</text>
<text text-anchor="middle" x="350" y="-319.7067" font-family="Times,serif" font-size="11.00" fill="#000000">d'ethnocentrisme</text>
<text text-anchor="middle" x="350" y="-306.5067" font-family="Times,serif" font-size="11.00" fill="#000000">au sens faible</text>
</g>
<!-- p1&#45;&gt;r1 -->
<g id="remarques+objections_edge3" class="edge">
<title>p1-&gt;r1</title>
<path fill="none" stroke="#0000ff" stroke-dasharray="5,2" d="M272.0943,-344.9404C284.5043,-345.8873 295.0288,-344.3018 307.7222,-340.1836"/>
</g>
<!-- C -->
<g id="remarques+objections_node4_remarques+objections" class="node">
<title>C</title>
<ellipse fill="#000000" stroke="#000000" cx="248" cy="-79.1034" rx="119.6345" ry="46.207"/>
<text text-anchor="middle" x="248" y="-84.5034" font-family="Times,serif" font-size="18.00" fill="#ffffff">Il n'y pas de vérités</text>
<text text-anchor="middle" x="248" y="-62.9034" font-family="Times,serif" font-size="18.00" fill="#ffffff">morales universelles</text>
</g>
<!-- p2&#45;&gt;C -->
<g id="remarques+objections_edge2" class="edge">
<title>p2-&gt;C</title>
<path fill="none" stroke="#000000" d="M252.5399,-178.3818C255.6312,-159.1706 257.5237,-145.8571 258.2172,-135.2695"/>
<polygon fill="#000000" stroke="#000000" points="261.7209,-135.1852 258.506,-125.09 254.7238,-134.9867 261.7209,-135.1852"/>
<text text-anchor="middle" x="227.449" y="-166.6362" font-family="Times,serif" font-size="10.00" fill="#666666">par</text>
<text text-anchor="middle" x="227.449" y="-154.6362" font-family="Times,serif" font-size="10.00" fill="#666666">conséquent …</text>
</g>
<!-- r1&#45;&gt;p2 -->
</g>
</svg>