<?xml version="1.0" encoding="UTF-8" standalone="no"?>
<!DOCTYPE svg PUBLIC "-//W3C//DTD SVG 1.1//EN"
 "http://www.w3.org/Graphics/SVG/1.1/DTD/svg11.dtd">
<!-- Generated by graphviz version 2.40.1 (20161225.0304)
 -->
<!-- Title: G Pages: 1 -->
<svg width="482pt" height="495pt"
 viewBox="0.00 0.00 481.60 494.75" xmlns="http://www.w3.org/2000/svg" xmlns:xlink="http://www.w3.org/1999/xlink">
<g id="remarques+objections_graph0" class="graph" transform="scale(1 1) rotate(0) translate(10.8 483.9537)">
<title>G</title>
<polygon fill="#ffffff" stroke="transparent" points="-10.8,10.8 -10.8,-483.9537 470.8,-483.9537 470.8,10.8 -10.8,10.8"/>
<g id="remarques+objections_clust1" class="cluster">
<title>cluster_0</title>
<path fill="#e5e5e5" stroke="#7f7f7f" d="M20,-8C20,-8 440,-8 440,-8 446,-8 452,-14 452,-20 452,-20 452,-453.1537 452,-453.1537 452,-459.1537 446,-465.1537 440,-465.1537 440,-465.1537 20,-465.1537 20,-465.1537 14,-465.1537 8,-459.1537 8,-453.1537 8,-453.1537 8,-20 8,-20 8,-14 14,-8 20,-8"/>
</g>
<!-- p1 -->
<g id="remarques+objections_node1_remarques+objections" class="node">
<title>p1</title>
<path fill="#ffffff" stroke="#000000" d="M294.874,-440.254C294.874,-440.254 45.126,-440.254 45.126,-440.254 39.126,-440.254 33.126,-434.254 33.126,-428.254 33.126,-428.254 33.126,-362.8535 33.126,-362.8535 33.126,-356.8535 39.126,-350.8535 45.126,-350.8535 45.126,-350.8535 294.874,-350.8535 294.874,-350.8535 300.874,-350.8535 306.874,-356.8535 306.874,-362.8535 306.874,-362.8535 306.874,-428.254 306.874,-428.254 306.874,-434.254 300.874,-440.254 294.874,-440.254"/>
<text text-anchor="middle" x="170" y="-416.5537" font-family="Times,serif" font-size="14.00" fill="#000000">Croire en l&#39;existence d&#39;une vérité en morale,</text>
<text text-anchor="middle" x="170" y="-399.7537" font-family="Times,serif" font-size="14.00" fill="#000000">c&#39;est peut&#45;être simplement croire en la</text>
<text text-anchor="middle" x="170" y="-382.9537" font-family="Times,serif" font-size="14.00" fill="#000000">supériorité de sa propre culture et ne pas</text>
<text text-anchor="middle" x="170" y="-366.1537" font-family="Times,serif" font-size="14.00" fill="#000000">accepter la diversité des croyances morales</text>
</g>
<!-- p2 -->
<g id="remarques+objections_node2_remarques+objections" class="node">
<title>p2</title>
<path fill="#ffffff" stroke="#000000" d="M342.7886,-298.054C342.7886,-298.054 155.2114,-298.054 155.2114,-298.054 149.2114,-298.054 143.2114,-292.054 143.2114,-286.054 143.2114,-286.054 143.2114,-220.6535 143.2114,-220.6535 143.2114,-214.6535 149.2114,-208.6535 155.2114,-208.6535 155.2114,-208.6535 342.7886,-208.6535 342.7886,-208.6535 348.7886,-208.6535 354.7886,-214.6535 354.7886,-220.6535 354.7886,-220.6535 354.7886,-286.054 354.7886,-286.054 354.7886,-292.054 348.7886,-298.054 342.7886,-298.054"/>
<text text-anchor="middle" x="249" y="-274.3537" font-family="Times,serif" font-size="14.00" fill="#000000">Croire en l&#39;existence d&#39;une vérité</text>
<text text-anchor="middle" x="249" y="-257.5537" font-family="Times,serif" font-size="14.00" fill="#000000">en morale peut nous conduire</text>
<text text-anchor="middle" x="249" y="-240.7537" font-family="Times,serif" font-size="14.00" fill="#000000">à une forme d&#39;intolérance</text>
<text text-anchor="middle" x="249" y="-223.9537" font-family="Times,serif" font-size="14.00" fill="#000000">qui n&#39;est pas acceptable</text>
</g>
<!-- p1&#45;&gt;p2 -->
<g id="remarques+objections_edge1" class="edge">
<title>p1&#45;&gt;p2</title>
<path fill="none" stroke="#000000" d="M202.5791,-350.6656C208.5021,-340.2667 214.9389,-327.2379 224.1215,-307.5618"/>
<polygon fill="#000000" stroke="#000000" points="227.3492,-308.9209 228.3857,-298.3769 221.0001,-305.9732 227.3492,-308.9209"/>
<text text-anchor="middle" x="186.8034" y="-339.9253" font-family="Times,serif" font-size="10.00" fill="#666666">par</text>
<text text-anchor="middle" x="186.8034" y="-327.9253" font-family="Times,serif" font-size="10.00" fill="#666666">conséquent …</text>
</g>
<!-- r1 -->
<g id="remarques+objections_node4_remarques+objections" class="node">
<title>r1</title>
<polygon fill="#ffffff" stroke="#0000ff" stroke-width=".8" points="427.3617,-419.1554 342.6383,-419.1554 342.6383,-371.9521 427.3617,-371.9521 427.3617,-419.1554"/>
<text text-anchor="middle" x="385" y="-405.4537" font-family="Times,serif" font-size="11.00" fill="#000000">= 1 forme</text>
<text text-anchor="middle" x="385" y="-392.2537" font-family="Times,serif" font-size="11.00" fill="#000000">d&#39;ethnocentrisme</text>
<text text-anchor="middle" x="385" y="-379.0537" font-family="Times,serif" font-size="11.00" fill="#000000">au sens fort</text>
</g>
<!-- p1&#45;&gt;r1 -->
<g id="remarques+objections_edge3" class="edge">
<title>p1&#45;&gt;r1</title>
<path fill="none" stroke="#0000ff" stroke-dasharray="5,2" d="M307.0484,-424.4619C317.768,-422.3887 329.076,-418.6973 342.6462,-413.3878"/>
</g>
<!-- C -->
<g id="remarques+objections_node3_remarques+objections" class="node">
<title>C</title>
<ellipse fill="#000000" stroke="#000000" cx="249" cy="-94.3769" rx="134.9776" ry="61.254"/>
<text text-anchor="middle" x="249" y="-110.5769" font-family="Times,serif" font-size="18.00" fill="#ffffff">Il faut se méfier de la</text>
<text text-anchor="middle" x="249" y="-88.9769" font-family="Times,serif" font-size="18.00" fill="#ffffff">croyance en l&#39;existence</text>
<text text-anchor="middle" x="249" y="-67.3769" font-family="Times,serif" font-size="18.00" fill="#ffffff">d&#39;une vérité en morale</text>
</g>
<!-- p2&#45;&gt;C -->
<g id="remarques+objections_edge2" class="edge">
<title>p2&#45;&gt;C</title>
<path fill="none" stroke="#000000" d="M252.7202,-208.3468C254.1386,-190.5121 255.0847,-177.005 255.5583,-165.9816"/>
<polygon fill="#000000" stroke="#000000" points="259.0649,-165.8208 255.8745,-155.7178 252.0682,-165.6052 259.0649,-165.8208"/>
<text text-anchor="middle" x="225.5784" y="-197.0304" font-family="Times,serif" font-size="10.00" fill="#666666">par</text>
<text text-anchor="middle" x="225.5784" y="-185.0304" font-family="Times,serif" font-size="10.00" fill="#666666">conséquent …</text>
</g>
<!-- r1&#45;&gt;p2 -->
</g>
</svg>
