<?xml version="1.0" encoding="UTF-8" standalone="no"?>
<!DOCTYPE svg PUBLIC "-//W3C//DTD SVG 1.1//EN"
 "http://www.w3.org/Graphics/SVG/1.1/DTD/svg11.dtd">
<!-- Generated by graphviz version 2.40.1 (20161225.0304)
 -->
<!-- Title: G Pages: 1 -->
<svg width="482pt" height="478pt"
 viewBox="0.00 0.00 481.60 477.95" xmlns="http://www.w3.org/2000/svg" xmlns:xlink="http://www.w3.org/1999/xlink">
<g id="remarques+objections_graph0" class="graph" transform="scale(1 1) rotate(0) translate(10.8 467.1537)">
<title>G</title>
<polygon fill="#ffffff" stroke="transparent" points="-10.8,10.8 -10.8,-467.1537 470.8,-467.1537 470.8,10.8 -10.8,10.8"/>
<g id="remarques+objections_clust1" class="cluster">
<title>cluster_0</title>
<path fill="#e5e5e5" stroke="#7f7f7f" d="M20,-8C20,-8 440,-8 440,-8 446,-8 452,-14 452,-20 452,-20 452,-436.3537 452,-436.3537 452,-442.3537 446,-448.3537 440,-448.3537 440,-448.3537 20,-448.3537 20,-448.3537 14,-448.3537 8,-442.3537 8,-436.3537 8,-436.3537 8,-20 8,-20 8,-14 14,-8 20,-8"/>
</g>
<!-- p1 -->
<g id="remarques+objections_node1_remarques+objections" class="node">
<title>p1</title>
<path fill="#ffffff" stroke="#000000" d="M294.874,-423.454C294.874,-423.454 45.126,-423.454 45.126,-423.454 39.126,-423.454 33.126,-417.454 33.126,-411.454 33.126,-411.454 33.126,-346.0535 33.126,-346.0535 33.126,-340.0535 39.126,-334.0535 45.126,-334.0535 45.126,-334.0535 294.874,-334.0535 294.874,-334.0535 300.874,-334.0535 306.874,-340.0535 306.874,-346.0535 306.874,-346.0535 306.874,-411.454 306.874,-411.454 306.874,-417.454 300.874,-423.454 294.874,-423.454"/>
<text text-anchor="middle" x="170" y="-399.7537" font-family="Times,serif" font-size="14.00" fill="#000000">Croire en l&#39;existence d&#39;une vérité en morale,</text>
<text text-anchor="middle" x="170" y="-382.9537" font-family="Times,serif" font-size="14.00" fill="#000000">c&#39;est peut&#45;être simplement croire en la</text>
<text text-anchor="middle" x="170" y="-366.1537" font-family="Times,serif" font-size="14.00" fill="#000000">supériorité de sa propre culture et ne pas</text>
<text text-anchor="middle" x="170" y="-349.3537" font-family="Times,serif" font-size="14.00" fill="#000000">accepter la diversité des croyances morales</text>
</g>
<!-- p2 -->
<g id="remarques+objections_node2_remarques+objections" class="node">
<title>p2</title>
<path fill="#ffffff" stroke="#000000" d="M353.6453,-281.3548C353.6453,-281.3548 144.3547,-281.3548 144.3547,-281.3548 138.3547,-281.3548 132.3547,-275.3548 132.3547,-269.3548 132.3547,-269.3548 132.3547,-220.5526 132.3547,-220.5526 132.3547,-214.5526 138.3547,-208.5526 144.3547,-208.5526 144.3547,-208.5526 353.6453,-208.5526 353.6453,-208.5526 359.6453,-208.5526 365.6453,-214.5526 365.6453,-220.5526 365.6453,-220.5526 365.6453,-269.3548 365.6453,-269.3548 365.6453,-275.3548 359.6453,-281.3548 353.6453,-281.3548"/>
<text text-anchor="middle" x="249" y="-257.5537" font-family="Times,serif" font-size="14.00" fill="#000000">Croire à l&#39;existence d&#39;une vérité en</text>
<text text-anchor="middle" x="249" y="-240.7537" font-family="Times,serif" font-size="14.00" fill="#000000">morale nous conduit à une forme</text>
<text text-anchor="middle" x="249" y="-223.9537" font-family="Times,serif" font-size="14.00" fill="#000000">d&#39;intolérance qui n&#39;est pas acceptable</text>
</g>
<!-- p1&#45;&gt;p2 -->
<g id="remarques+objections_edge1" class="edge">
<title>p1&#45;&gt;p2</title>
<path fill="none" stroke="#000000" d="M204.1858,-334.0981C210.2653,-323.759 217.0705,-310.5275 226.8851,-290.5357"/>
<polygon fill="#000000" stroke="#000000" points="230.0339,-292.0637 231.2822,-281.5426 223.7453,-288.9889 230.0339,-292.0637"/>
<text text-anchor="middle" x="189.0282" y="-323.1682" font-family="Times,serif" font-size="10.00" fill="#666666">par</text>
<text text-anchor="middle" x="189.0282" y="-311.1682" font-family="Times,serif" font-size="10.00" fill="#666666">conséquent …</text>
</g>
<!-- r1 -->
<g id="remarques+objections_node4_remarques+objections" class="node">
<title>r1</title>
<polygon fill="#ffffff" stroke="#0000ff" stroke-width=".8" points="427.3617,-402.3554 342.6383,-402.3554 342.6383,-355.1521 427.3617,-355.1521 427.3617,-402.3554"/>
<text text-anchor="middle" x="385" y="-388.6537" font-family="Times,serif" font-size="11.00" fill="#000000">= 1 forme</text>
<text text-anchor="middle" x="385" y="-375.4537" font-family="Times,serif" font-size="11.00" fill="#000000">d&#39;ethnocentrisme</text>
<text text-anchor="middle" x="385" y="-362.2537" font-family="Times,serif" font-size="11.00" fill="#000000">au sens fort</text>
</g>
<!-- p1&#45;&gt;r1 -->
<g id="remarques+objections_edge3" class="edge">
<title>p1&#45;&gt;r1</title>
<path fill="none" stroke="#0000ff" stroke-dasharray="5,2" d="M307.1719,-407.5875C317.9049,-405.5451 329.191,-401.8752 342.7304,-396.5777"/>
</g>
<!-- C -->
<g id="remarques+objections_node3_remarques+objections" class="node">
<title>C</title>
<ellipse fill="#000000" stroke="#000000" cx="249" cy="-94.3769" rx="134.9776" ry="61.254"/>
<text text-anchor="middle" x="249" y="-110.5769" font-family="Times,serif" font-size="18.00" fill="#ffffff">Il faut se méfier de la</text>
<text text-anchor="middle" x="249" y="-88.9769" font-family="Times,serif" font-size="18.00" fill="#ffffff">croyance en l&#39;existence</text>
<text text-anchor="middle" x="249" y="-67.3769" font-family="Times,serif" font-size="18.00" fill="#ffffff">d&#39;une vérité en morale</text>
</g>
<!-- p2&#45;&gt;C -->
<g id="remarques+objections_edge2" class="edge">
<title>p2&#45;&gt;C</title>
<path fill="none" stroke="#000000" d="M252.2137,-208.6906C253.7581,-190.832 254.8271,-177.2647 255.4204,-166.2479"/>
<polygon fill="#000000" stroke="#000000" points="258.9274,-166.1565 255.8553,-156.0168 251.9337,-165.8591 258.9274,-166.1565"/>
<text text-anchor="middle" x="225.2816" y="-197.3178" font-family="Times,serif" font-size="10.00" fill="#666666">par</text>
<text text-anchor="middle" x="225.2816" y="-185.3178" font-family="Times,serif" font-size="10.00" fill="#666666">conséquent …</text>
</g>
<!-- r1&#45;&gt;p2 -->
</g>
</svg>
