<?xml version="1.0" encoding="UTF-8" standalone="no"?><!DOCTYPE svg PUBLIC "-//W3C//DTD SVG 1.1//EN" "http://www.w3.org/Graphics/SVG/1.1/DTD/svg11.dtd"><!-- Generated by graphviz version 2.40.1 (20161225.0304)
 --><!-- Title: G Pages: 1 --><svg xmlns="http://www.w3.org/2000/svg" xmlns:xlink="http://www.w3.org/1999/xlink" width="354pt" height="392pt" viewBox="0.00 0.00 354.00 392.21">
<g id="remarques+objections_graph0" class="graph" transform="scale(1 1) rotate(0) translate(0 392.2067)">
<title>G</title>
<polygon fill="#ffffff" stroke="transparent" points="0,0 0,-392.2067 354,-392.2067 354,0 0,0"/>
<g id="remarques+objections_clust1" class="cluster">
<title>cluster_0</title>
<path fill="#e5e5e5" stroke="#7f7f7f" d="M20,-8C20,-8 334,-8 334,-8 340,-8 346,-14 346,-20 346,-20 346,-372.2067 346,-372.2067 346,-378.2067 340,-384.2067 334,-384.2067 334,-384.2067 20,-384.2067 20,-384.2067 14,-384.2067 8,-378.2067 8,-372.2067 8,-372.2067 8,-20 8,-20 8,-14 14,-8 20,-8"/>
</g>
<!-- p1 -->
<g id="remarques+objections_node1_remarques+objections" class="node">
<title>p1</title>
<path fill="#ffffff" stroke="#000000" d="M188.7654,-359.4078C188.7654,-359.4078 45.2346,-359.4078 45.2346,-359.4078 39.2346,-359.4078 33.2346,-353.4078 33.2346,-347.4078 33.2346,-347.4078 33.2346,-298.6056 33.2346,-298.6056 33.2346,-292.6056 39.2346,-286.6056 45.2346,-286.6056 45.2346,-286.6056 188.7654,-286.6056 188.7654,-286.6056 194.7654,-286.6056 200.7654,-292.6056 200.7654,-298.6056 200.7654,-298.6056 200.7654,-347.4078 200.7654,-347.4078 200.7654,-353.4078 194.7654,-359.4078 188.7654,-359.4078"/>
<text text-anchor="middle" x="117" y="-335.6067" font-family="Times,serif" font-size="14.00" fill="#000000">Nous concevons le bien</text>
<text text-anchor="middle" x="117" y="-318.8067" font-family="Times,serif" font-size="14.00" fill="#000000">et le mal à travers le filtre</text>
<text text-anchor="middle" x="117" y="-302.0067" font-family="Times,serif" font-size="14.00" fill="#000000">de notre propre culture</text>
</g>
<!-- p2 -->
<g id="remarques+objections_node2_remarques+objections" class="node">
<title>p2</title>
<path fill="#ffffff" stroke="#000000" d="M256.2314,-233.6082C256.2314,-233.6082 97.7686,-233.6082 97.7686,-233.6082 91.7686,-233.6082 85.7686,-227.6082 85.7686,-221.6082 85.7686,-221.6082 85.7686,-190.4053 85.7686,-190.4053 85.7686,-184.4053 91.7686,-178.4053 97.7686,-178.4053 97.7686,-178.4053 256.2314,-178.4053 256.2314,-178.4053 262.2314,-178.4053 268.2314,-184.4053 268.2314,-190.4053 268.2314,-190.4053 268.2314,-221.6082 268.2314,-221.6082 268.2314,-227.6082 262.2314,-233.6082 256.2314,-233.6082"/>
<text text-anchor="middle" x="177" y="-210.2067" font-family="Times,serif" font-size="14.00" fill="#000000">Les croyances morales sont</text>
<text text-anchor="middle" x="177" y="-193.4067" font-family="Times,serif" font-size="14.00" fill="#000000">différentes selon les cultures</text>
</g>
<!-- p1&#45;&gt;p2 -->
<g id="remarques+objections_edge1" class="edge">
<title>p1-&gt;p2</title>
<path fill="none" stroke="#000000" d="M137.0324,-286.5357C142.2365,-276.508 148.4901,-263.9615 158.7833,-243.0656"/>
<polygon fill="#000000" stroke="#000000" points="162.0001,-244.4557 163.2757,-233.9379 155.7195,-241.3646 162.0001,-244.4557"/>
<text text-anchor="middle" x="121.1386" y="-275.3874" font-family="Times,serif" font-size="10.00" fill="#666666">par</text>
<text text-anchor="middle" x="121.1386" y="-263.3874" font-family="Times,serif" font-size="10.00" fill="#666666">conséquent …</text>
</g>
<!-- r1 -->
<g id="remarques+objections_node4_remarques+objections" class="node">
<title>r1</title>
<polygon fill="#ffffff" stroke="#0000ff" stroke-width=".8" points="321.3617,-346.6084 236.6383,-346.6084 236.6383,-299.4051 321.3617,-299.4051 321.3617,-346.6084"/>
<text text-anchor="middle" x="279" y="-332.9067" font-family="Times,serif" font-size="11.00" fill="#000000">= 1 forme</text>
<text text-anchor="middle" x="279" y="-319.7067" font-family="Times,serif" font-size="11.00" fill="#000000">d'ethnocentrisme</text>
<text text-anchor="middle" x="279" y="-306.5067" font-family="Times,serif" font-size="11.00" fill="#000000">au sens faible</text>
</g>
<!-- p1&#45;&gt;r1 -->
<g id="remarques+objections_edge3" class="edge">
<title>p1-&gt;r1</title>
<path fill="none" stroke="#0000ff" stroke-dasharray="5,2" d="M201.017,-346.9748C212.2899,-347.1135 223.0573,-344.787 236.7888,-339.9952"/>
</g>
<!-- C -->
<g id="remarques+objections_node3_remarques+objections" class="node">
<title>C</title>
<ellipse fill="#000000" stroke="#000000" cx="177" cy="-79.1034" rx="119.6345" ry="46.207"/>
<text text-anchor="middle" x="177" y="-84.5034" font-family="Times,serif" font-size="18.00" fill="#ffffff">Il n'y pas de vérités</text>
<text text-anchor="middle" x="177" y="-62.9034" font-family="Times,serif" font-size="18.00" fill="#ffffff">morales universelles</text>
</g>
<!-- p2&#45;&gt;C -->
<g id="remarques+objections_edge2" class="edge">
<title>p2-&gt;C</title>
<path fill="none" stroke="#000000" d="M177,-178.2322C177,-159.4862 177,-146.0818 177,-135.5559"/>
<polygon fill="#000000" stroke="#000000" points="180.5001,-135.5255 177,-125.5256 173.5001,-135.5256 180.5001,-135.5255"/>
<text text-anchor="middle" x="147.913" y="-166.8668" font-family="Times,serif" font-size="10.00" fill="#666666">par</text>
<text text-anchor="middle" x="147.913" y="-154.8668" font-family="Times,serif" font-size="10.00" fill="#666666">conséquent …</text>
</g>
<!-- r1&#45;&gt;p2 -->
</g>
</svg>