<?xml version="1.0" encoding="UTF-8" standalone="no"?><!DOCTYPE svg PUBLIC "-//W3C//DTD SVG 1.1//EN" "http://www.w3.org/Graphics/SVG/1.1/DTD/svg11.dtd"><!-- Generated by graphviz version 2.40.1 (20161225.0304)
 --><!-- Title: G Pages: 1 --><svg xmlns="http://www.w3.org/2000/svg" xmlns:xlink="http://www.w3.org/1999/xlink" width="735pt" height="413pt" viewBox="0.00 0.00 735.38 412.93">
<g id="graph0" class="graph" transform="scale(1 1) rotate(0) translate(21.6 391.3272)">
<title>G</title>
<polygon fill="#fafafa" stroke="transparent" points="-21.6,21.6 -21.6,-391.3272 713.78,-391.3272 713.78,21.6 -21.6,21.6"/>
<!-- a1 -->
<g id="node1" class="node">
<title>a1</title>
<ellipse fill="#000000" stroke="#000000" cx="375.9784" cy="-318.2498" rx="107.606" ry="51.4548"/>
<text text-anchor="middle" x="375.9784" y="-334.4498" font-family="Times,serif" font-size="18.00" fill="#ffffff">Trois changements</text>
<text text-anchor="middle" x="375.9784" y="-312.8498" font-family="Times,serif" font-size="18.00" fill="#ffffff">importants dans </text>
<text text-anchor="middle" x="375.9784" y="-291.2498" font-family="Times,serif" font-size="18.00" fill="#ffffff">la modernité</text>
</g>
<!-- b1 -->
<g id="node2" class="node">
<title>b1</title>
<ellipse fill="#8b0000" stroke="#000000" cx="163.9784" cy="-185.3862" rx="81.1572" ry="46.2727"/>
<text text-anchor="middle" x="163.9784" y="-199.7862" font-family="Times,serif" font-size="16.00" fill="#ffffff">Fin du modèle</text>
<text text-anchor="middle" x="163.9784" y="-180.5862" font-family="Times,serif" font-size="16.00" fill="#ffffff">théologico-</text>
<text text-anchor="middle" x="163.9784" y="-161.3862" font-family="Times,serif" font-size="16.00" fill="#ffffff">politique</text>
</g>
<!-- a1&#45;&gt;b1 -->
<g id="edge1" class="edge">
<title>a1-&gt;b1:n</title>
<path fill="none" stroke="#000000" d="M278.3554,-296.2853C229.6706,-282.7691 178.6143,-263.7355 166.6109,-241.2354"/>
<polygon fill="#000000" stroke="#000000" points="169.942,-240.1433 163.9784,-231.3862 163.1794,-241.9509 169.942,-240.1433"/>
</g>
<!-- b2 -->
<g id="node3" class="node">
<title>b2</title>
<ellipse fill="#8b0000" stroke="#000000" cx="375.9784" cy="-185.3862" rx="79.005" ry="46.2727"/>
<text text-anchor="middle" x="375.9784" y="-199.7862" font-family="Times,serif" font-size="16.00" fill="#ffffff">Fin de</text>
<text text-anchor="middle" x="375.9784" y="-180.5862" font-family="Times,serif" font-size="16.00" fill="#ffffff">l'homogénéité</text>
<text text-anchor="middle" x="375.9784" y="-161.3862" font-family="Times,serif" font-size="16.00" fill="#ffffff">religieuse</text>
</g>
<!-- a1&#45;&gt;b2 -->
<g id="edge2" class="edge">
<title>a1-&gt;b2:n</title>
<path fill="none" stroke="#000000" d="M375.9784,-266.5771C375.9784,-258.5194 375.9784,-250.1527 375.9784,-241.981"/>
<polygon fill="#000000" stroke="#000000" points="379.4785,-241.7724 375.9784,-231.7724 372.4785,-241.7724 379.4785,-241.7724"/>
</g>
<!-- b3 -->
<g id="node4" class="node">
<title>b3</title>
<ellipse fill="#8b0000" stroke="#000000" cx="574.9784" cy="-185.3862" rx="83.9457" ry="32.6206"/>
<text text-anchor="middle" x="574.9784" y="-190.1862" font-family="Times,serif" font-size="16.00" fill="#ffffff">Développement</text>
<text text-anchor="middle" x="574.9784" y="-170.9862" font-family="Times,serif" font-size="16.00" fill="#ffffff">de l'athéisme</text>
</g>
<!-- a1&#45;&gt;b3 -->
<g id="edge3" class="edge">
<title>a1-&gt;b3:n</title>
<path fill="none" stroke="#000000" d="M479.8497,-304.2873C524.6138,-292.2815 568.1959,-269.9556 574.2611,-228.441"/>
<polygon fill="#000000" stroke="#000000" points="577.7579,-228.6099 574.9784,-218.3862 570.7756,-228.1118 577.7579,-228.6099"/>
</g>
<!-- c1 -->
<g id="node5" class="node">
<title>c1</title>
<polygon fill="#ffffff" stroke="#7f7f7f" points="251.9352,-104 .0216,-104 .0216,0 251.9352,0 251.9352,-104"/>
<text text-anchor="middle" x="125.9784" y="-85.6" font-family="Times,serif" font-size="16.00" fill="#000000">La religion cesse d'être pensée</text>
<text text-anchor="middle" x="125.9784" y="-66.4" font-family="Times,serif" font-size="16.00" fill="#000000">comme le fondement de l'autorité</text>
<text text-anchor="middle" x="125.9784" y="-47.2" font-family="Times,serif" font-size="16.00" fill="#000000">politique : on passe du modèle de la</text>
<text text-anchor="middle" x="125.9784" y="-28" font-family="Times,serif" font-size="16.00" fill="#000000">monarchie de droit divin au modèle</text>
<text text-anchor="middle" x="125.9784" y="-8.8" font-family="Times,serif" font-size="16.00" fill="#000000">du consentement par le peuple</text>
</g>
<!-- b1&#45;&gt;c1 -->
<g id="edge4" class="edge">
<title>b1-&gt;c1</title>
<path fill="none" stroke="#000000" d="M150.901,-139.4822C148.5863,-131.3576 146.1414,-122.7756 143.7238,-114.2891"/>
<polygon fill="#000000" stroke="#000000" points="147.0135,-113.0621 140.9075,-104.4037 140.2814,-114.98 147.0135,-113.0621"/>
</g>
<!-- c2 -->
<g id="node6" class="node">
<title>c2</title>
<polygon fill="#ffffff" stroke="#7f7f7f" points="485.5408,-104 266.416,-104 266.416,0 485.5408,0 485.5408,-104"/>
<text text-anchor="middle" x="375.9784" y="-85.6" font-family="Times,serif" font-size="16.00" fill="#000000">La diversité religieuse est</text>
<text text-anchor="middle" x="375.9784" y="-66.4" font-family="Times,serif" font-size="16.00" fill="#000000">de plus en plus importante,</text>
<text text-anchor="middle" x="375.9784" y="-47.2" font-family="Times,serif" font-size="16.00" fill="#000000">et les guerres de religion ont</text>
<text text-anchor="middle" x="375.9784" y="-28" font-family="Times,serif" font-size="16.00" fill="#000000">conduit à la ruine de tout projet</text>
<text text-anchor="middle" x="375.9784" y="-8.8" font-family="Times,serif" font-size="16.00" fill="#000000">d'homogénéisation religieuse</text>
</g>
<!-- b2&#45;&gt;c2 -->
<g id="edge5" class="edge">
<title>b2-&gt;c2</title>
<path fill="none" stroke="#000000" d="M375.9784,-138.7342C375.9784,-130.9163 375.9784,-122.6935 375.9784,-114.5532"/>
<polygon fill="#000000" stroke="#000000" points="379.4785,-114.3229 375.9784,-104.323 372.4785,-114.323 379.4785,-114.3229"/>
</g>
<!-- c3 -->
<g id="node7" class="node">
<title>c3</title>
<polygon fill="#ffffff" stroke="#7f7f7f" points="692.382,-104 499.5748,-104 499.5748,0 692.382,0 692.382,-104"/>
<text text-anchor="middle" x="595.9784" y="-85.6" font-family="Times,serif" font-size="16.00" fill="#000000">La proportion de personnes</text>
<text text-anchor="middle" x="595.9784" y="-66.4" font-family="Times,serif" font-size="16.00" fill="#000000">sans religion est importante</text>
<text text-anchor="middle" x="595.9784" y="-47.2" font-family="Times,serif" font-size="16.00" fill="#000000">et les croyances religieuses</text>
<text text-anchor="middle" x="595.9784" y="-28" font-family="Times,serif" font-size="16.00" fill="#000000">sont attaquées dans leur</text>
<text text-anchor="middle" x="595.9784" y="-8.8" font-family="Times,serif" font-size="16.00" fill="#000000">prétention à la légitimité</text>
</g>
<!-- b3&#45;&gt;c3 -->
<g id="edge6" class="edge">
<title>b3-&gt;c3</title>
<path fill="none" stroke="#000000" d="M580.1694,-152.4143C581.9987,-140.7952 584.1197,-127.323 586.2026,-114.0934"/>
<polygon fill="#000000" stroke="#000000" points="589.6845,-114.4812 587.7824,-104.0585 582.7697,-113.3925 589.6845,-114.4812"/>
</g>
</g>
</svg>