<?xml version="1.0" encoding="UTF-8" standalone="no"?><!DOCTYPE svg PUBLIC "-//W3C//DTD SVG 1.1//EN" "http://www.w3.org/Graphics/SVG/1.1/DTD/svg11.dtd"><!-- Generated by graphviz version 2.40.1 (20161225.0304)
 --><!-- Title: G Pages: 1 --><svg xmlns="http://www.w3.org/2000/svg" xmlns:xlink="http://www.w3.org/1999/xlink" width="750pt" height="560pt" viewBox="0.00 0.00 749.89 559.83">
<g id="graph0" class="graph" transform="scale(1 1) rotate(0) translate(21.6 538.233)">
<title>G</title>
<polygon fill="#fafafa" stroke="transparent" points="-21.6,21.6 -21.6,-538.233 728.2928,-538.233 728.2928,21.6 -21.6,21.6"/>
<!-- a1 -->
<g id="node1" class="node">
<title>a1</title>
<ellipse fill="#000000" stroke="#000000" cx="376.5312" cy="-465.1556" rx="98.0474" ry="51.4548"/>
<text text-anchor="middle" x="376.5312" y="-481.3556" font-family="Times,serif" font-size="18.00" fill="#ffffff">Rôles possibles</text>
<text text-anchor="middle" x="376.5312" y="-459.7556" font-family="Times,serif" font-size="18.00" fill="#ffffff">de la philosophie</text>
<text text-anchor="middle" x="376.5312" y="-438.1556" font-family="Times,serif" font-size="18.00" fill="#ffffff">en science</text>
</g>
<!-- b1 -->
<g id="node2" class="node">
<title>b1</title>
<ellipse fill="#8b0000" stroke="#000000" cx="172.5312" cy="-305.1391" rx="90.4424" ry="59.9253"/>
<text text-anchor="middle" x="172.5312" y="-329.1391" font-family="Times,serif" font-size="16.00" fill="#ffffff">Participer à</text>
<text text-anchor="middle" x="172.5312" y="-309.9391" font-family="Times,serif" font-size="16.00" fill="#ffffff">la clarification de</text>
<text text-anchor="middle" x="172.5312" y="-290.7391" font-family="Times,serif" font-size="16.00" fill="#ffffff">certains concepts</text>
<text text-anchor="middle" x="172.5312" y="-271.5391" font-family="Times,serif" font-size="16.00" fill="#ffffff">scientifiques</text>
</g>
<!-- a1&#45;&gt;b1 -->
<g id="edge1" class="edge">
<title>a1-&gt;b1</title>
<path fill="none" stroke="#000000" d="M321.8629,-422.2741C296.4071,-402.3067 265.8975,-378.3751 239.1097,-357.3629"/>
<polygon fill="#000000" stroke="#000000" points="240.9538,-354.3611 230.9254,-350.9432 236.6335,-359.8689 240.9538,-354.3611"/>
</g>
<!-- b2 -->
<g id="node3" class="node">
<title>b2</title>
<ellipse fill="#8b0000" stroke="#000000" cx="376.5312" cy="-305.1391" rx="99.7912" ry="59.9253"/>
<text text-anchor="middle" x="376.5312" y="-329.1391" font-family="Times,serif" font-size="16.00" fill="#ffffff">Participer à la</text>
<text text-anchor="middle" x="376.5312" y="-309.9391" font-family="Times,serif" font-size="16.00" fill="#ffffff">remise en question</text>
<text text-anchor="middle" x="376.5312" y="-290.7391" font-family="Times,serif" font-size="16.00" fill="#ffffff">de certaines thèses</text>
<text text-anchor="middle" x="376.5312" y="-271.5391" font-family="Times,serif" font-size="16.00" fill="#ffffff">scientifiques</text>
</g>
<!-- a1&#45;&gt;b2 -->
<g id="edge2" class="edge">
<title>a1-&gt;b2</title>
<path fill="none" stroke="#000000" d="M376.5312,-413.6446C376.5312,-401.4611 376.5312,-388.2636 376.5312,-375.4067"/>
<polygon fill="#000000" stroke="#000000" points="380.0313,-375.1946 376.5312,-365.1946 373.0313,-375.1946 380.0313,-375.1946"/>
</g>
<!-- b3 -->
<g id="node4" class="node">
<title>b3</title>
<ellipse fill="#8b0000" stroke="#000000" cx="594.5312" cy="-305.1391" rx="103.8806" ry="73.5782"/>
<text text-anchor="middle" x="594.5312" y="-338.7391" font-family="Times,serif" font-size="16.00" fill="#ffffff">Participer à</text>
<text text-anchor="middle" x="594.5312" y="-319.5391" font-family="Times,serif" font-size="16.00" fill="#ffffff">l'invention de</text>
<text text-anchor="middle" x="594.5312" y="-300.3391" font-family="Times,serif" font-size="16.00" fill="#ffffff">nouvelles thèses ou</text>
<text text-anchor="middle" x="594.5312" y="-281.1391" font-family="Times,serif" font-size="16.00" fill="#ffffff">de nouvelles formes</text>
<text text-anchor="middle" x="594.5312" y="-261.9391" font-family="Times,serif" font-size="16.00" fill="#ffffff">d'expérimentations</text>
</g>
<!-- a1&#45;&gt;b3 -->
<g id="edge3" class="edge">
<title>a1-&gt;b3</title>
<path fill="none" stroke="#000000" d="M433.8081,-423.1131C458.388,-405.071 487.5361,-383.6757 514.2158,-364.0923"/>
<polygon fill="#000000" stroke="#000000" points="516.4183,-366.8173 522.4086,-358.0786 512.2762,-361.1743 516.4183,-366.8173"/>
</g>
<!-- c1 -->
<g id="node5" class="node">
<title>c1</title>
<polygon fill="#ffffff" stroke="#7f7f7f" points="219.0936,-161.4005 -.0312,-161.4005 -.0312,-.1995 219.0936,-.1995 219.0936,-161.4005"/>
<text text-anchor="middle" x="109.5312" y="-143.2" font-family="Times,serif" font-size="16.00" fill="#000000">Exemples : </text>
<text text-anchor="middle" x="109.5312" y="-124" font-family="Times,serif" font-size="16.00" fill="#000000">– la notion de cellules souches,</text>
<text text-anchor="middle" x="109.5312" y="-104.8" font-family="Times,serif" font-size="16.00" fill="#000000">de gène, d'inné en biologie</text>
<text text-anchor="middle" x="109.5312" y="-85.6" font-family="Times,serif" font-size="16.00" fill="#000000">– les notions d'intelligence,</text>
<text text-anchor="middle" x="109.5312" y="-66.4" font-family="Times,serif" font-size="16.00" fill="#000000">de conscience, d'émotions</text>
<text text-anchor="middle" x="109.5312" y="-47.2" font-family="Times,serif" font-size="16.00" fill="#000000">dans les sciences cognitives</text>
<text text-anchor="middle" x="109.5312" y="-28" font-family="Times,serif" font-size="16.00" fill="#000000">– l'analyse de l'irréversibilité</text>
<text text-anchor="middle" x="109.5312" y="-8.8" font-family="Times,serif" font-size="16.00" fill="#000000">du temps en physique</text>
</g>
<!-- b1&#45;&gt;c1 -->
<g id="edge4" class="edge">
<title>b1-&gt;c1</title>
<path fill="none" stroke="#000000" d="M135.9233,-250.0477C131.4672,-241.4679 127.4619,-232.4928 124.5312,-223.6 119.1502,-207.2722 115.5798,-189.3783 113.235,-171.9468"/>
<polygon fill="#000000" stroke="#000000" points="116.6766,-171.255 111.9916,-161.7523 109.7281,-172.1025 116.6766,-171.255"/>
</g>
<!-- e1 -->
<g id="node8" class="node">
<title>e1</title>
<path fill="#fafafa" stroke="transparent" d="M252.0216,-223.6C252.0216,-223.6 143.0408,-223.6 143.0408,-223.6 137.0408,-223.6 131.0408,-217.6 131.0408,-211.6 131.0408,-211.6 131.0408,-199.6 131.0408,-199.6 131.0408,-193.6 137.0408,-187.6 143.0408,-187.6 143.0408,-187.6 252.0216,-187.6 252.0216,-187.6 258.0216,-187.6 264.0216,-193.6 264.0216,-199.6 264.0216,-199.6 264.0216,-211.6 264.0216,-211.6 264.0216,-217.6 258.0216,-223.6 252.0216,-223.6"/>
<text text-anchor="start" x="139.036" y="-201.8" font-family="Times,serif" font-size="16.00" fill="#cd2626"> </text>
<text text-anchor="start" x="143.036" y="-201.8" font-family="Times,serif" font-weight="bold" font-size="16.00" fill="#cd2626">= Conceptualiser</text>
<text text-anchor="start" x="252.0264" y="-201.8" font-family="Times,serif" font-size="16.00" fill="#cd2626"> </text>
</g>
<!-- b1&#45;&gt;e1 -->
<!-- c2 -->
<g id="node6" class="node">
<title>c2</title>
<polygon fill="#ffffff" stroke="#7f7f7f" points="431.2722,-152.2006 257.7902,-152.2006 257.7902,-9.3994 431.2722,-9.3994 431.2722,-152.2006"/>
<text text-anchor="middle" x="344.5312" y="-133.6" font-family="Times,serif" font-size="16.00" fill="#000000">Exemples :</text>
<text text-anchor="middle" x="344.5312" y="-114.4" font-family="Times,serif" font-size="16.00" fill="#000000">– la critique du modèle</text>
<text text-anchor="middle" x="344.5312" y="-95.2" font-family="Times,serif" font-size="16.00" fill="#000000">immunologique du</text>
<text text-anchor="middle" x="344.5312" y="-76" font-family="Times,serif" font-size="16.00" fill="#000000">soi/non-soi,</text>
<text text-anchor="middle" x="344.5312" y="-56.8" font-family="Times,serif" font-size="16.00" fill="#000000">– le débat sur les unités</text>
<text text-anchor="middle" x="344.5312" y="-37.6" font-family="Times,serif" font-size="16.00" fill="#000000">de sélection dans la</text>
<text text-anchor="middle" x="344.5312" y="-18.4" font-family="Times,serif" font-size="16.00" fill="#000000">théorie de l'évolution</text>
</g>
<!-- b2&#45;&gt;c2 -->
<g id="edge5" class="edge">
<title>b2-&gt;c2</title>
<path fill="none" stroke="#000000" d="M363.3931,-245.593C361.9773,-238.207 360.6481,-230.7435 359.5312,-223.6 356.4345,-203.795 353.8033,-182.3421 351.6505,-162.2308"/>
<polygon fill="#000000" stroke="#000000" points="355.1194,-161.7494 350.6005,-152.1667 348.1572,-162.4759 355.1194,-161.7494"/>
</g>
<!-- e2 -->
<g id="node9" class="node">
<title>e2</title>
<path fill="#fafafa" stroke="transparent" d="M481.0184,-223.6C481.0184,-223.6 378.044,-223.6 378.044,-223.6 372.044,-223.6 366.044,-217.6 366.044,-211.6 366.044,-211.6 366.044,-199.6 366.044,-199.6 366.044,-193.6 372.044,-187.6 378.044,-187.6 378.044,-187.6 481.0184,-187.6 481.0184,-187.6 487.0184,-187.6 493.0184,-193.6 493.0184,-199.6 493.0184,-199.6 493.0184,-211.6 493.0184,-211.6 493.0184,-217.6 487.0184,-223.6 481.0184,-223.6"/>
<text text-anchor="start" x="374.0376" y="-201.8" font-family="Times,serif" font-size="16.00" fill="#cd2626"> </text>
<text text-anchor="start" x="378.0376" y="-201.8" font-family="Times,serif" font-weight="bold" font-size="16.00" fill="#cd2626">= Problématiser</text>
<text text-anchor="start" x="481.0248" y="-201.8" font-family="Times,serif" font-size="16.00" fill="#cd2626"> </text>
</g>
<!-- b2&#45;&gt;e2 -->
<!-- c3 -->
<g id="node7" class="node">
<title>c3</title>
<polygon fill="#ffffff" stroke="#7f7f7f" points="672.2306,-142.5002 468.8318,-142.5002 468.8318,-19.0998 672.2306,-19.0998 672.2306,-142.5002"/>
<text text-anchor="middle" x="570.5312" y="-124" font-family="Times,serif" font-size="16.00" fill="#000000">Exemples :</text>
<text text-anchor="middle" x="570.5312" y="-104.8" font-family="Times,serif" font-size="16.00" fill="#000000">– la théorie de la modularité</text>
<text text-anchor="middle" x="570.5312" y="-85.6" font-family="Times,serif" font-size="16.00" fill="#000000">de l'esprit dans les</text>
<text text-anchor="middle" x="570.5312" y="-66.4" font-family="Times,serif" font-size="16.00" fill="#000000">sciences cognitives</text>
<text text-anchor="middle" x="570.5312" y="-47.2" font-family="Times,serif" font-size="16.00" fill="#000000">– le paradigme expérimental</text>
<text text-anchor="middle" x="570.5312" y="-28" font-family="Times,serif" font-size="16.00" fill="#000000">de la fausse croyance</text>
</g>
<!-- b3&#45;&gt;c3 -->
<g id="edge6" class="edge">
<title>b3-&gt;c3</title>
<path fill="none" stroke="#000000" d="M586.4177,-231.7985C586.1173,-229.0307 585.821,-226.2904 585.5312,-223.6 583.0542,-200.6025 580.4022,-175.5158 578.0274,-152.8758"/>
<polygon fill="#000000" stroke="#000000" points="581.4804,-152.2429 576.9574,-142.662 574.5185,-152.9723 581.4804,-152.2429"/>
</g>
<!-- e3 -->
<g id="node10" class="node">
<title>e3</title>
<path fill="#fafafa" stroke="transparent" d="M694.8549,-223.6C694.8549,-223.6 604.2075,-223.6 604.2075,-223.6 598.2075,-223.6 592.2075,-217.6 592.2075,-211.6 592.2075,-211.6 592.2075,-199.6 592.2075,-199.6 592.2075,-193.6 598.2075,-187.6 604.2075,-187.6 604.2075,-187.6 694.8549,-187.6 694.8549,-187.6 700.8549,-187.6 706.8549,-193.6 706.8549,-199.6 706.8549,-199.6 706.8549,-211.6 706.8549,-211.6 706.8549,-217.6 700.8549,-223.6 694.8549,-223.6"/>
<text text-anchor="start" x="600.3696" y="-201.8" font-family="Times,serif" font-size="16.00" fill="#cd2626"> </text>
<text text-anchor="start" x="604.3696" y="-201.8" font-family="Times,serif" font-weight="bold" font-size="16.00" fill="#cd2626">= Argumenter</text>
<text text-anchor="start" x="694.6928" y="-201.8" font-family="Times,serif" font-size="16.00" fill="#cd2626"> </text>
</g>
<!-- b3&#45;&gt;e3 -->
</g>
</svg>