<?xml version="1.0" encoding="UTF-8" standalone="no"?>
<!DOCTYPE svg PUBLIC "-//W3C//DTD SVG 1.1//EN"
 "http://www.w3.org/Graphics/SVG/1.1/DTD/svg11.dtd">
<!-- Generated by graphviz version 2.40.1 (20161225.0304)
 -->
<!-- Title: G Pages: 1 -->
<svg width="470pt" height="269pt"
 viewBox="0.00 0.00 469.51 268.82" xmlns="http://www.w3.org/2000/svg" xmlns:xlink="http://www.w3.org/1999/xlink">
<g id="graph0" class="graph" transform="scale(1 1) rotate(0) translate(21.6 247.2195)">
<title>G</title>
<polygon fill="#fafafa" stroke="transparent" points="-21.6,21.6 -21.6,-247.2195 447.9073,-247.2195 447.9073,21.6 -21.6,21.6"/>
<!-- a1 -->
<g id="node1" class="node">
<title>a1</title>
<ellipse fill="#050505" stroke="#000000" cx="90.4903" cy="-112.8098" rx="90.4806" ry="66.5027"/>
<text text-anchor="middle" x="90.4903" y="-139.8098" font-family="Times,serif" font-size="18.00" fill="#ffffff">Les trois piliers</text>
<text text-anchor="middle" x="90.4903" y="-118.2098" font-family="Times,serif" font-size="18.00" fill="#ffffff">d&#39;une société</text>
<text text-anchor="middle" x="90.4903" y="-96.6098" font-family="Times,serif" font-size="18.00" fill="#ffffff">civile bien</text>
<text text-anchor="middle" x="90.4903" y="-75.0098" font-family="Times,serif" font-size="18.00" fill="#ffffff">ordonnée</text>
</g>
<!-- b1 -->
<g id="node2" class="node">
<title>b1</title>
<ellipse fill="#8b0000" stroke="#000000" cx="283.3696" cy="-192.8098" rx="51.5792" ry="32.6206"/>
<text text-anchor="middle" x="283.3696" y="-197.6098" font-family="Times,serif" font-size="16.00" fill="#ffffff">Le pilier</text>
<text text-anchor="middle" x="283.3696" y="-178.4098" font-family="Times,serif" font-size="16.00" fill="#ffffff">politique</text>
</g>
<!-- a1&#45;&gt;b1 -->
<g id="edge1" class="edge">
<title>a1&#45;&gt;b1:w</title>
<path fill="none" stroke="#000000" d="M149.2288,-163.7016C170.3082,-177.6304 195.2792,-189.6518 221.065,-192.2781"/>
<polygon fill="#000000" stroke="#000000" points="221.2025,-195.7897 231.3696,-192.8098 221.5632,-188.799 221.2025,-195.7897"/>
</g>
<!-- b2 -->
<g id="node3" class="node">
<title>b2</title>
<ellipse fill="#8b0000" stroke="#000000" cx="283.3696" cy="-112.8098" rx="67.2781" ry="32.6206"/>
<text text-anchor="middle" x="283.3696" y="-117.6098" font-family="Times,serif" font-size="16.00" fill="#ffffff">Le pilier</text>
<text text-anchor="middle" x="283.3696" y="-98.4098" font-family="Times,serif" font-size="16.00" fill="#ffffff">économique</text>
</g>
<!-- a1&#45;&gt;b2 -->
<g id="edge2" class="edge">
<title>a1&#45;&gt;b2:w</title>
<path fill="none" stroke="#000000" d="M181.3087,-112.8098C189.5124,-112.8098 197.7739,-112.8098 205.8563,-112.8098"/>
<polygon fill="#000000" stroke="#000000" points="205.9806,-116.3099 215.9806,-112.8098 205.9806,-109.3099 205.9806,-116.3099"/>
</g>
<!-- b3 -->
<g id="node4" class="node">
<title>b3</title>
<ellipse fill="#8b0000" stroke="#000000" cx="283.3696" cy="-32.8098" rx="49.9069" ry="32.6206"/>
<text text-anchor="middle" x="283.3696" y="-37.6098" font-family="Times,serif" font-size="16.00" fill="#ffffff">Le pilier</text>
<text text-anchor="middle" x="283.3696" y="-18.4098" font-family="Times,serif" font-size="16.00" fill="#ffffff">social</text>
</g>
<!-- a1&#45;&gt;b3 -->
<g id="edge3" class="edge">
<title>a1&#45;&gt;b3:w</title>
<path fill="none" stroke="#000000" d="M149.8215,-62.1445C171.3665,-48.0665 196.9236,-35.8899 223.2492,-33.3118"/>
<polygon fill="#000000" stroke="#000000" points="223.5553,-36.801 233.3696,-32.8098 223.2084,-29.8096 223.5553,-36.801"/>
</g>
<!-- e1 -->
<g id="node5" class="node">
<title>e1</title>
<path fill="#fafafa" stroke="transparent" d="M414.0832,-216.2115C414.0832,-216.2115 370.9826,-216.2115 370.9826,-216.2115 364.9826,-216.2115 358.9826,-210.2115 358.9826,-204.2115 358.9826,-204.2115 358.9826,-181.408 358.9826,-181.408 358.9826,-175.408 364.9826,-169.408 370.9826,-169.408 370.9826,-169.408 414.0832,-169.408 414.0832,-169.408 420.0832,-169.408 426.0832,-175.408 426.0832,-181.408 426.0832,-181.408 426.0832,-204.2115 426.0832,-204.2115 426.0832,-210.2115 420.0832,-216.2115 414.0832,-216.2115"/>
<text text-anchor="middle" x="392.5329" y="-197.6098" font-family="Times,serif" font-size="16.00" fill="#cd2626">Textes</text>
<text text-anchor="middle" x="392.5329" y="-178.4098" font-family="Times,serif" font-size="16.00" fill="#cd2626">1, 2 et 3</text>
</g>
<!-- b1&#45;&gt;e1 -->
<!-- e2 -->
<g id="node6" class="node">
<title>e2</title>
<path fill="#fafafa" stroke="transparent" d="M407.5329,-136.2115C407.5329,-136.2115 377.5329,-136.2115 377.5329,-136.2115 371.5329,-136.2115 365.5329,-130.2115 365.5329,-124.2115 365.5329,-124.2115 365.5329,-101.408 365.5329,-101.408 365.5329,-95.408 371.5329,-89.408 377.5329,-89.408 377.5329,-89.408 407.5329,-89.408 407.5329,-89.408 413.5329,-89.408 419.5329,-95.408 419.5329,-101.408 419.5329,-101.408 419.5329,-124.2115 419.5329,-124.2115 419.5329,-130.2115 413.5329,-136.2115 407.5329,-136.2115"/>
<text text-anchor="middle" x="392.5329" y="-117.6098" font-family="Times,serif" font-size="16.00" fill="#cd2626">Texte</text>
<text text-anchor="middle" x="392.5329" y="-98.4098" font-family="Times,serif" font-size="16.00" fill="#cd2626">4</text>
</g>
<!-- b2&#45;&gt;e2 -->
<!-- e3 -->
<g id="node7" class="node">
<title>e3</title>
<path fill="#fafafa" stroke="transparent" d="M409.682,-56.2115C409.682,-56.2115 375.3839,-56.2115 375.3839,-56.2115 369.3839,-56.2115 363.3839,-50.2115 363.3839,-44.2115 363.3839,-44.2115 363.3839,-21.408 363.3839,-21.408 363.3839,-15.408 369.3839,-9.408 375.3839,-9.408 375.3839,-9.408 409.682,-9.408 409.682,-9.408 415.682,-9.408 421.682,-15.408 421.682,-21.408 421.682,-21.408 421.682,-44.2115 421.682,-44.2115 421.682,-50.2115 415.682,-56.2115 409.682,-56.2115"/>
<text text-anchor="middle" x="392.5329" y="-37.6098" font-family="Times,serif" font-size="16.00" fill="#cd2626">Textes</text>
<text text-anchor="middle" x="392.5329" y="-18.4098" font-family="Times,serif" font-size="16.00" fill="#cd2626">5 et 6</text>
</g>
<!-- b3&#45;&gt;e3 -->
</g>
</svg>
