<?xml version="1.0" encoding="UTF-8" standalone="no"?>
<!DOCTYPE svg PUBLIC "-//W3C//DTD SVG 1.1//EN"
 "http://www.w3.org/Graphics/SVG/1.1/DTD/svg11.dtd">
<!-- Generated by graphviz version 2.40.1 (20161225.0304)
 -->
<!-- Title: G Pages: 1 -->
<svg width="478pt" height="477pt"
 viewBox="0.00 0.00 477.94 477.06" xmlns="http://www.w3.org/2000/svg" xmlns:xlink="http://www.w3.org/1999/xlink">
<g id="graph0" class="graph" transform="scale(1 1) rotate(0) translate(21.6 455.4607)">
<title>G</title>
<polygon fill="#fafafa" stroke="transparent" points="-21.6,21.6 -21.6,-455.4607 456.3414,-455.4607 456.3414,21.6 -21.6,21.6"/>
<!-- a1 -->
<g id="node1" class="node">
<title>a1</title>
<ellipse fill="#050505" stroke="#000000" cx="74.2329" cy="-412.9304" rx="74.4666" ry="20.861"/>
<text text-anchor="middle" x="74.2329" y="-407.5304" font-family="Times,serif" font-size="18.00" fill="#ffffff">Introduction</text>
</g>
<!-- a2 -->
<g id="node2" class="node">
<title>a2</title>
<polygon fill="#050505" stroke="#000000" points="145.9349,-294.0309 2.531,-294.0309 2.531,-139.8298 145.9349,-139.8298 145.9349,-294.0309"/>
<text text-anchor="middle" x="74.2329" y="-201.0304" font-family="Times,serif" font-size="18.00" fill="#ffffff">Développement</text>
</g>
<!-- a1&#45;&gt;a2 -->
<g id="edge1" class="edge">
<title>a1&#45;&gt;a2</title>
<path fill="none" stroke="#000000" d="M74.2329,-391.6065C74.2329,-362.5796 74.2329,-333.5526 74.2329,-304.5257"/>
<polygon fill="#000000" stroke="#000000" points="77.733,-304.2585 74.2329,-294.2585 70.733,-304.2585 77.733,-304.2585"/>
</g>
<!-- a3 -->
<g id="node3" class="node">
<title>a3</title>
<ellipse fill="#050505" stroke="#000000" cx="74.2329" cy="-20.9304" rx="69.0921" ry="20.861"/>
<text text-anchor="middle" x="74.2329" y="-15.5304" font-family="Times,serif" font-size="18.00" fill="#ffffff">Conclusion</text>
</g>
<!-- a2&#45;&gt;a3 -->
<g id="edge2" class="edge">
<title>a2&#45;&gt;a3</title>
<path fill="none" stroke="#000000" d="M74.2329,-139.7084C74.2329,-110.5695 74.2329,-81.4307 74.2329,-52.2918"/>
<polygon fill="#000000" stroke="#000000" points="77.733,-51.985 74.2329,-41.985 70.733,-51.9851 77.733,-51.985"/>
</g>
<!-- b1 -->
<g id="node4" class="node">
<title>b1</title>
<ellipse fill="#8b0000" stroke="#000000" cx="245.1676" cy="-346.9304" rx="37.9047" ry="32.6206"/>
<text text-anchor="middle" x="245.1676" y="-351.7304" font-family="Times,serif" font-size="16.00" fill="#ffffff">Partie</text>
<text text-anchor="middle" x="245.1676" y="-332.5304" font-family="Times,serif" font-size="16.00" fill="#ffffff">I</text>
</g>
<!-- a2&#45;&gt;b1 -->
<g id="edge3" class="edge">
<title>a2&#45;&gt;b1:w</title>
<path fill="none" stroke="#000000" d="M118.9175,-294.0544C139.1512,-319.4232 165.7082,-342.2375 197.4498,-346.2922"/>
<polygon fill="#000000" stroke="#000000" points="197.2635,-349.7873 207.4658,-346.9304 197.7086,-342.8015 197.2635,-349.7873"/>
</g>
<!-- b2 -->
<g id="node5" class="node">
<title>b2</title>
<ellipse fill="#8b0000" stroke="#000000" cx="245.1676" cy="-216.9304" rx="37.9047" ry="32.6206"/>
<text text-anchor="middle" x="245.1676" y="-221.7304" font-family="Times,serif" font-size="16.00" fill="#ffffff">Partie</text>
<text text-anchor="middle" x="245.1676" y="-202.5304" font-family="Times,serif" font-size="16.00" fill="#ffffff">II</text>
</g>
<!-- a2&#45;&gt;b2 -->
<g id="edge4" class="edge">
<title>a2&#45;&gt;b2:w</title>
<path fill="none" stroke="#000000" d="M146.144,-216.9304C162.5958,-216.9304 180.2112,-216.9304 197.0778,-216.9304"/>
<polygon fill="#000000" stroke="#000000" points="197.4659,-220.4305 207.4658,-216.9304 197.4658,-213.4305 197.4659,-220.4305"/>
</g>
<!-- b3 -->
<g id="node6" class="node">
<title>b3</title>
<ellipse fill="#8b0000" stroke="#000000" cx="245.1676" cy="-86.9304" rx="37.9047" ry="32.6206"/>
<text text-anchor="middle" x="245.1676" y="-91.7304" font-family="Times,serif" font-size="16.00" fill="#ffffff">Partie</text>
<text text-anchor="middle" x="245.1676" y="-72.5304" font-family="Times,serif" font-size="16.00" fill="#ffffff">III</text>
</g>
<!-- a2&#45;&gt;b3 -->
<g id="edge5" class="edge">
<title>a2&#45;&gt;b3:w</title>
<path fill="none" stroke="#000000" d="M118.9175,-139.8063C139.1512,-114.4375 165.7082,-91.6232 197.4498,-87.5685"/>
<polygon fill="#000000" stroke="#000000" points="197.7086,-91.0592 207.4658,-86.9304 197.2635,-84.0734 197.7086,-91.0592"/>
</g>
<!-- c1 -->
<g id="node7" class="node">
<title>c1</title>
<polygon fill="#ffffff" stroke="#7f7f7f" points="434.6775,-381.9304 341.9334,-381.9304 341.9334,-345.9304 434.6775,-345.9304 434.6775,-381.9304"/>
<text text-anchor="middle" x="388.3054" y="-359.1304" font-family="Times,serif" font-size="16.00" fill="#000000">Argument 1</text>
</g>
<!-- b1&#45;&gt;c1 -->
<g id="edge6" class="edge">
<title>b1&#45;&gt;c1</title>
<path fill="none" stroke="#000000" d="M282.7754,-351.3969C297.7289,-353.1729 315.2574,-355.2547 331.6859,-357.2058"/>
<polygon fill="#000000" stroke="#000000" points="331.3969,-360.696 341.74,-358.3999 332.2226,-353.7449 331.3969,-360.696"/>
</g>
<!-- c2 -->
<g id="node8" class="node">
<title>c2</title>
<polygon fill="#ffffff" stroke="#7f7f7f" points="434.6775,-331.9304 341.9334,-331.9304 341.9334,-295.9304 434.6775,-295.9304 434.6775,-331.9304"/>
<text text-anchor="middle" x="388.3054" y="-309.1304" font-family="Times,serif" font-size="16.00" fill="#000000">Argument 2</text>
</g>
<!-- b1&#45;&gt;c2 -->
<g id="edge7" class="edge">
<title>b1&#45;&gt;c2</title>
<path fill="none" stroke="#000000" d="M281.6577,-338.5177C296.9596,-334.9899 315.1038,-330.8068 332.047,-326.9006"/>
<polygon fill="#000000" stroke="#000000" points="332.8955,-330.2969 341.8536,-324.6397 331.3229,-323.4758 332.8955,-330.2969"/>
</g>
<!-- tr1 -->
<g id="node13" class="node">
<title>tr1</title>
<polygon fill="#fafafa" stroke="transparent" points="277.992,-299.9304 212.3432,-299.9304 212.3432,-263.9304 277.992,-263.9304 277.992,-299.9304"/>
<text text-anchor="middle" x="245.1676" y="-278.3304" font-family="Times,serif" font-size="12.00" fill="#000000">Transition</text>
</g>
<!-- b1&#45;&gt;tr1 -->
<!-- c4 -->
<g id="node9" class="node">
<title>c4</title>
<polygon fill="#ffffff" stroke="#7f7f7f" points="434.6775,-266.9304 341.9334,-266.9304 341.9334,-230.9304 434.6775,-230.9304 434.6775,-266.9304"/>
<text text-anchor="middle" x="388.3054" y="-244.1304" font-family="Times,serif" font-size="16.00" fill="#000000">Argument 1</text>
</g>
<!-- b2&#45;&gt;c4 -->
<g id="edge8" class="edge">
<title>b2&#45;&gt;c4</title>
<path fill="none" stroke="#000000" d="M282.0292,-225.1712C297.1204,-228.545 314.9282,-232.5261 331.6084,-236.2551"/>
<polygon fill="#000000" stroke="#000000" points="331.2914,-239.7706 341.8142,-238.5367 332.8187,-232.9392 331.2914,-239.7706"/>
</g>
<!-- c5 -->
<g id="node10" class="node">
<title>c5</title>
<polygon fill="#ffffff" stroke="#7f7f7f" points="434.6775,-216.9304 341.9334,-216.9304 341.9334,-180.9304 434.6775,-180.9304 434.6775,-216.9304"/>
<text text-anchor="middle" x="388.3054" y="-194.1304" font-family="Times,serif" font-size="16.00" fill="#000000">Argument 2</text>
</g>
<!-- b2&#45;&gt;c5 -->
<g id="edge9" class="edge">
<title>b2&#45;&gt;c5</title>
<path fill="none" stroke="#000000" d="M282.7754,-212.2011C297.7289,-210.3206 315.2574,-208.1164 331.6859,-206.0504"/>
<polygon fill="#000000" stroke="#000000" points="332.2548,-209.5065 341.74,-204.7861 331.3814,-202.5612 332.2548,-209.5065"/>
</g>
<!-- tr2 -->
<g id="node14" class="node">
<title>tr2</title>
<polygon fill="#fafafa" stroke="transparent" points="277.992,-169.9304 212.3432,-169.9304 212.3432,-133.9304 277.992,-133.9304 277.992,-169.9304"/>
<text text-anchor="middle" x="245.1676" y="-148.3304" font-family="Times,serif" font-size="12.00" fill="#000000">Transition</text>
</g>
<!-- b2&#45;&gt;tr2 -->
<!-- c7 -->
<g id="node11" class="node">
<title>c7</title>
<polygon fill="#ffffff" stroke="#7f7f7f" points="434.6775,-129.9304 341.9334,-129.9304 341.9334,-93.9304 434.6775,-93.9304 434.6775,-129.9304"/>
<text text-anchor="middle" x="388.3054" y="-107.1304" font-family="Times,serif" font-size="16.00" fill="#000000">Argument 1</text>
</g>
<!-- b3&#45;&gt;c7 -->
<g id="edge10" class="edge">
<title>b3&#45;&gt;c7</title>
<path fill="none" stroke="#000000" d="M282.4018,-93.4336C297.4245,-96.0574 315.0923,-99.1432 331.6465,-102.0345"/>
<polygon fill="#000000" stroke="#000000" points="331.3232,-105.5309 341.7763,-103.8037 332.5276,-98.6353 331.3232,-105.5309"/>
</g>
<!-- c8 -->
<g id="node12" class="node">
<title>c8</title>
<polygon fill="#ffffff" stroke="#7f7f7f" points="434.6775,-79.9304 341.9334,-79.9304 341.9334,-43.9304 434.6775,-43.9304 434.6775,-79.9304"/>
<text text-anchor="middle" x="388.3054" y="-57.1304" font-family="Times,serif" font-size="16.00" fill="#000000">Argument 2</text>
</g>
<!-- b3&#45;&gt;c8 -->
<g id="edge11" class="edge">
<title>b3&#45;&gt;c8</title>
<path fill="none" stroke="#000000" d="M282.4018,-80.4272C297.4245,-77.8033 315.0923,-74.7175 331.6465,-71.8262"/>
<polygon fill="#000000" stroke="#000000" points="332.5276,-75.2254 341.7763,-70.057 331.3232,-68.3298 332.5276,-75.2254"/>
</g>
<!-- tr1&#45;&gt;b2 -->
<!-- tr2&#45;&gt;b3 -->
</g>
</svg>
