<?xml version="1.0" encoding="UTF-8" standalone="no"?><!DOCTYPE svg PUBLIC "-//W3C//DTD SVG 1.1//EN" "http://www.w3.org/Graphics/SVG/1.1/DTD/svg11.dtd"><!-- Generated by graphviz version 2.40.1 (20161225.0304)
 --><!-- Title: G Pages: 1 --><svg xmlns="http://www.w3.org/2000/svg" xmlns:xlink="http://www.w3.org/1999/xlink" width="804pt" height="575pt" viewBox="0.00 0.00 803.83 574.68">
<g id="graph0" class="graph" transform="scale(1 1) rotate(0) translate(21.6 553.0819)">
<title>G</title>
<polygon fill="#fafafa" stroke="transparent" points="-21.6,21.6 -21.6,-553.0819 782.2311,-553.0819 782.2311,21.6 -21.6,21.6"/>
<!-- a1 -->
<g id="node1" class="node">
<title>a1</title>
<ellipse fill="#000000" stroke="#000000" cx="343.2207" cy="-480.0045" rx="78.6532" ry="51.4548"/>
<text text-anchor="middle" x="343.2207" y="-496.2045" font-family="Times,serif" font-size="18.00" fill="#ffffff">La démarche</text>
<text text-anchor="middle" x="343.2207" y="-474.6045" font-family="Times,serif" font-size="18.00" fill="#ffffff">scientifique</text>
<text text-anchor="middle" x="343.2207" y="-453.0045" font-family="Times,serif" font-size="18.00" fill="#ffffff">consiste à …</text>
</g>
<!-- b1 -->
<g id="node2" class="node">
<title>b1</title>
<ellipse fill="#8b0000" stroke="#000000" cx="155.2207" cy="-347.141" rx="155.4417" ry="46.2727"/>
<text text-anchor="middle" x="155.2207" y="-361.541" font-family="Times,serif" font-size="16.00" fill="#ffffff">… inventer des hypothèses qui</text>
<text text-anchor="middle" x="155.2207" y="-342.341" font-family="Times,serif" font-size="16.00" fill="#ffffff">conduisent à des explications</text>
<text text-anchor="middle" x="155.2207" y="-323.141" font-family="Times,serif" font-size="16.00" fill="#ffffff">et des prédictions précises</text>
</g>
<!-- a1&#45;&gt;b1 -->
<g id="edge1" class="edge">
<title>a1-&gt;b1:n</title>
<path fill="none" stroke="#000000" d="M269.9967,-460.5446C223.8078,-446.3184 170.5741,-425.6149 157.9874,-402.9576"/>
<polygon fill="#000000" stroke="#000000" points="161.3022,-401.8165 155.2207,-393.141 154.5647,-403.7155 161.3022,-401.8165"/>
</g>
<!-- b2 -->
<g id="node3" class="node">
<title>b2</title>
<ellipse fill="#8b0000" stroke="#000000" cx="532.2207" cy="-347.141" rx="137.8147" ry="46.2727"/>
<text text-anchor="middle" x="532.2207" y="-361.541" font-family="Times,serif" font-size="16.00" fill="#ffffff">… accepter la confrontation</text>
<text text-anchor="middle" x="532.2207" y="-342.341" font-family="Times,serif" font-size="16.00" fill="#ffffff">avec l'expérience et avec la</text>
<text text-anchor="middle" x="532.2207" y="-323.141" font-family="Times,serif" font-size="16.00" fill="#ffffff">communauté scientifique</text>
</g>
<!-- a1&#45;&gt;b2 -->
<g id="edge2" class="edge">
<title>a1-&gt;b2:n</title>
<path fill="none" stroke="#000000" d="M416.5635,-460.8291C463.0493,-446.7246 516.735,-426.1152 529.4301,-403.3855"/>
<polygon fill="#000000" stroke="#000000" points="532.8646,-404.1024 532.2207,-393.5272 526.1292,-402.1958 532.8646,-404.1024"/>
</g>
<!-- b1&#45;&gt;b2 -->
<!-- c1 -->
<g id="node4" class="node">
<title>c1</title>
<polygon fill="#ffffff" stroke="#7f7f7f" points="246.6163,-265.655 63.8251,-265.655 63.8251,-181.0545 246.6163,-181.0545 246.6163,-265.655"/>
<text text-anchor="middle" x="155.2207" y="-247.3547" font-family="Times,serif" font-size="16.00" fill="#000000">≠ faire des hypothèses</text>
<text text-anchor="middle" x="155.2207" y="-228.1547" font-family="Times,serif" font-size="16.00" fill="#000000">qui ne conduisent pas à </text>
<text text-anchor="middle" x="155.2207" y="-208.9547" font-family="Times,serif" font-size="16.00" fill="#000000">des prédictions ou bien à </text>
<text text-anchor="middle" x="155.2207" y="-189.7547" font-family="Times,serif" font-size="16.00" fill="#000000">des prédictions vagues</text>
</g>
<!-- b1&#45;&gt;c1 -->
<g id="edge4" class="edge">
<title>b1-&gt;c1:n</title>
<path fill="none" stroke="#000000" d="M155.2207,-300.4307C155.2207,-292.2762 155.2207,-283.7291 155.2207,-275.3876"/>
<polygon fill="#000000" stroke="#000000" points="158.7208,-275.3547 155.2207,-265.3547 151.7208,-275.3548 158.7208,-275.3547"/>
</g>
<!-- c2 -->
<g id="node5" class="node">
<title>c2</title>
<polygon fill="#ffffff" stroke="#7f7f7f" points="564.3727,-255.956 382.0686,-255.956 382.0686,-190.7535 564.3727,-190.7535 564.3727,-255.956"/>
<text text-anchor="middle" x="473.2207" y="-237.7547" font-family="Times,serif" font-size="16.00" fill="#000000">≠ refuser la confrontation</text>
<text text-anchor="middle" x="473.2207" y="-218.5547" font-family="Times,serif" font-size="16.00" fill="#000000">avec l'expérience et la</text>
<text text-anchor="middle" x="473.2207" y="-199.3547" font-family="Times,serif" font-size="16.00" fill="#000000">communauté scientifique</text>
</g>
<!-- b2&#45;&gt;c2 -->
<g id="edge5" class="edge">
<title>b2-&gt;c2:n</title>
<path fill="none" stroke="#000000" d="M489.6555,-303.0019C482.2415,-291.9674 476.2073,-279.5213 474.0618,-266.4547"/>
<polygon fill="#000000" stroke="#000000" points="477.5386,-266.0297 473.2207,-256.3547 470.5628,-266.6108 477.5386,-266.0297"/>
</g>
<!-- c3 -->
<g id="node6" class="node">
<title>c3</title>
<polygon fill="#ffffff" stroke="#7f7f7f" points="760.5416,-255.956 577.8998,-255.956 577.8998,-190.7535 760.5416,-190.7535 760.5416,-255.956"/>
<text text-anchor="middle" x="669.2207" y="-237.7547" font-family="Times,serif" font-size="16.00" fill="#000000">≠ interpréter la</text>
<text text-anchor="middle" x="669.2207" y="-218.5547" font-family="Times,serif" font-size="16.00" fill="#000000">critique comme une</text>
<text text-anchor="middle" x="669.2207" y="-199.3547" font-family="Times,serif" font-size="16.00" fill="#000000">confirmation de la théorie</text>
</g>
<!-- b2&#45;&gt;c3 -->
<g id="edge6" class="edge">
<title>b2-&gt;c3:n</title>
<path fill="none" stroke="#000000" d="M630.3284,-314.5204C649.2857,-302.7441 664.4967,-287.0901 668.3016,-266.5083"/>
<polygon fill="#000000" stroke="#000000" points="671.8048,-266.6296 669.2207,-256.3547 664.8333,-265.9985 671.8048,-266.6296"/>
</g>
<!-- a2 -->
<g id="node7" class="node">
<title>a2</title>
<ellipse fill="#000000" stroke="#7f7f7f" cx="411.2207" cy="-51.4774" rx="144.1946" ry="51.4548"/>
<text text-anchor="middle" x="411.2207" y="-67.6774" font-family="Times,serif" font-size="18.00" fill="#ffffff">On a ici un critère de</text>
<text text-anchor="middle" x="411.2207" y="-46.0774" font-family="Times,serif" font-size="18.00" fill="#ffffff">démarcation entre science</text>
<text text-anchor="middle" x="411.2207" y="-24.4774" font-family="Times,serif" font-size="18.00" fill="#ffffff">et pseudo-science</text>
</g>
<!-- c1&#45;&gt;a2 -->
<g id="edge7" class="edge">
<title>c1-&gt;a2</title>
<path fill="none" stroke="#000000" d="M152.6378,-180.7452C153.7415,-162.8983 158.1246,-143.0657 170.2207,-128.9547 185.6743,-110.9269 231.0193,-94.3144 278.2685,-81.1343"/>
<polygon fill="#000000" stroke="#000000" points="279.3289,-84.4729 288.052,-78.4597 277.4829,-77.7206 279.3289,-84.4729"/>
</g>
<!-- r1 -->
<g id="node8" class="node">
<title>r1</title>
<path fill="#fafafa" stroke="transparent" d="M315.0185,-172.9547C315.0185,-172.9547 189.4229,-172.9547 189.4229,-172.9547 183.4229,-172.9547 177.4229,-166.9547 177.4229,-160.9547 177.4229,-160.9547 177.4229,-140.9547 177.4229,-140.9547 177.4229,-134.9547 183.4229,-128.9547 189.4229,-128.9547 189.4229,-128.9547 315.0185,-128.9547 315.0185,-128.9547 321.0185,-128.9547 327.0185,-134.9547 327.0185,-140.9547 327.0185,-140.9547 327.0185,-160.9547 327.0185,-160.9547 327.0185,-166.9547 321.0185,-172.9547 315.0185,-172.9547"/>
<text text-anchor="middle" x="252.2207" y="-155.4547" font-family="Times,serif" font-size="15.00" fill="#cd2626">Exemple : l'astrologie</text>
<text text-anchor="middle" x="252.2207" y="-137.4547" font-family="Times,serif" font-size="15.00" fill="#cd2626">(cf. l'effet Barnum)</text>
</g>
<!-- c1&#45;&gt;r1 -->
<!-- c2&#45;&gt;a2 -->
<g id="edge8" class="edge">
<title>c2-&gt;a2</title>
<path fill="none" stroke="#000000" d="M437.4018,-190.5404C433.0349,-185.0608 429.1049,-179.1344 426.2207,-172.9547 417.649,-154.5894 413.3822,-133.0474 411.4024,-113.2447"/>
<polygon fill="#000000" stroke="#000000" points="414.8739,-112.7528 410.5649,-103.0738 407.8975,-113.3274 414.8739,-112.7528"/>
</g>
<!-- r2 -->
<g id="node9" class="node">
<title>r2</title>
<path fill="#fafafa" stroke="transparent" d="M524.8977,-172.9547C524.8977,-172.9547 445.5437,-172.9547 445.5437,-172.9547 439.5437,-172.9547 433.5437,-166.9547 433.5437,-160.9547 433.5437,-160.9547 433.5437,-140.9547 433.5437,-140.9547 433.5437,-134.9547 439.5437,-128.9547 445.5437,-128.9547 445.5437,-128.9547 524.8977,-128.9547 524.8977,-128.9547 530.8977,-128.9547 536.8977,-134.9547 536.8977,-140.9547 536.8977,-140.9547 536.8977,-160.9547 536.8977,-160.9547 536.8977,-166.9547 530.8977,-172.9547 524.8977,-172.9547"/>
<text text-anchor="middle" x="485.2207" y="-155.4547" font-family="Times,serif" font-size="15.00" fill="#cd2626">Exemple :</text>
<text text-anchor="middle" x="485.2207" y="-137.4547" font-family="Times,serif" font-size="15.00" fill="#cd2626">l'homéopathie</text>
</g>
<!-- c2&#45;&gt;r2 -->
<!-- c3&#45;&gt;a2 -->
<g id="edge9" class="edge">
<title>c3-&gt;a2</title>
<path fill="none" stroke="#000000" d="M628.4552,-190.6177C604.45,-171.8387 573.2,-148.2387 544.2207,-128.9547 529.4855,-119.1494 513.4721,-109.2316 497.8282,-99.9158"/>
<polygon fill="#000000" stroke="#000000" points="499.5752,-96.8827 489.1857,-94.8068 496.013,-102.9086 499.5752,-96.8827"/>
</g>
<!-- r3 -->
<g id="node10" class="node">
<title>r3</title>
<path fill="#fafafa" stroke="transparent" d="M712.2681,-172.9547C712.2681,-172.9547 626.1733,-172.9547 626.1733,-172.9547 620.1733,-172.9547 614.1733,-166.9547 614.1733,-160.9547 614.1733,-160.9547 614.1733,-140.9547 614.1733,-140.9547 614.1733,-134.9547 620.1733,-128.9547 626.1733,-128.9547 626.1733,-128.9547 712.2681,-128.9547 712.2681,-128.9547 718.2681,-128.9547 724.2681,-134.9547 724.2681,-140.9547 724.2681,-140.9547 724.2681,-160.9547 724.2681,-160.9547 724.2681,-166.9547 718.2681,-172.9547 712.2681,-172.9547"/>
<text text-anchor="middle" x="669.2207" y="-155.4547" font-family="Times,serif" font-size="15.00" fill="#cd2626">Exemple :</text>
<text text-anchor="middle" x="669.2207" y="-137.4547" font-family="Times,serif" font-size="15.00" fill="#cd2626">la psychanalyse</text>
</g>
<!-- c3&#45;&gt;r3 -->
</g>
</svg>