<?xml version="1.0" encoding="UTF-8" standalone="no"?>
<!DOCTYPE svg PUBLIC "-//W3C//DTD SVG 1.1//EN"
 "http://www.w3.org/Graphics/SVG/1.1/DTD/svg11.dtd">
<!-- Generated by graphviz version 2.40.1 (20161225.0304)
 -->
<!-- Title: G Pages: 1 -->
<svg width="313pt" height="301pt"
 viewBox="0.00 0.00 313.38 300.68" xmlns="http://www.w3.org/2000/svg" xmlns:xlink="http://www.w3.org/1999/xlink">
<g id="graph0" class="graph" transform="scale(1 1) rotate(0) translate(21.6 279.0802)">
<title>G</title>
<polygon fill="#fafafa" stroke="transparent" points="-21.6,21.6 -21.6,-279.0802 291.778,-279.0802 291.778,21.6 -21.6,21.6"/>
<!-- a1 -->
<g id="node1" class="node">
<title>a1</title>
<ellipse fill="#050505" stroke="#000000" cx="133.517" cy="-236.5499" rx="77.5204" ry="20.861"/>
<text text-anchor="middle" x="133.517" y="-231.1499" font-family="Times,serif" font-size="18.00" fill="#ffffff">La vie bonne</text>
</g>
<!-- b1 -->
<g id="node2" class="node">
<title>b1</title>
<ellipse fill="#8b0000" stroke="#000000" cx="51.517" cy="-147.8098" rx="51.5339" ry="32.6206"/>
<text text-anchor="middle" x="51.517" y="-152.6098" font-family="Times,serif" font-size="16.00" fill="#ffffff">La vie</text>
<text text-anchor="middle" x="51.517" y="-133.4098" font-family="Times,serif" font-size="16.00" fill="#ffffff">heureuse</text>
</g>
<!-- a1&#45;&gt;b1 -->
<g id="edge1" class="edge">
<title>a1&#45;&gt;b1:n</title>
<path fill="none" stroke="#000000" d="M82.5177,-220.5032C69.0991,-213.5434 57.2024,-203.8984 53.0671,-190.7888"/>
<polygon fill="#000000" stroke="#000000" points="56.484,-189.9778 51.517,-180.6195 49.564,-191.0328 56.484,-189.9778"/>
</g>
<!-- b2 -->
<g id="node3" class="node">
<title>b2</title>
<ellipse fill="#8b0000" stroke="#000000" cx="215.517" cy="-147.8098" rx="54.8226" ry="32.6206"/>
<text text-anchor="middle" x="215.517" y="-152.6098" font-family="Times,serif" font-size="16.00" fill="#ffffff">La vie</text>
<text text-anchor="middle" x="215.517" y="-133.4098" font-family="Times,serif" font-size="16.00" fill="#ffffff">vertueuse</text>
</g>
<!-- a1&#45;&gt;b2 -->
<g id="edge2" class="edge">
<title>a1&#45;&gt;b2:n</title>
<path fill="none" stroke="#000000" d="M184.5163,-220.5032C197.9348,-213.5434 209.8315,-203.8984 213.9668,-190.7888"/>
<polygon fill="#000000" stroke="#000000" points="217.47,-191.0328 215.517,-180.6195 210.5499,-189.9778 217.47,-191.0328"/>
</g>
<!-- c1 -->
<g id="node4" class="node">
<title>c1</title>
<polygon fill="#ffffff" stroke="#7f7f7f" points="96.3231,-80 6.7108,-80 6.7108,-44 96.3231,-44 96.3231,-80"/>
<text text-anchor="middle" x="51.517" y="-57.2" font-family="Times,serif" font-size="16.00" fill="#000000">Le bonheur</text>
</g>
<!-- b1&#45;&gt;c1 -->
<g id="edge3" class="edge">
<title>b1&#45;&gt;c1</title>
<path fill="none" stroke="#000000" d="M51.517,-114.8789C51.517,-106.8205 51.517,-98.2651 51.517,-90.4375"/>
<polygon fill="#000000" stroke="#000000" points="55.0171,-90.3294 51.517,-80.3294 48.0171,-90.3294 55.0171,-90.3294"/>
</g>
<!-- c2 -->
<g id="node5" class="node">
<title>c2</title>
<polygon fill="#ffffff" stroke="#7f7f7f" points="256.3183,-80 174.7156,-80 174.7156,-44 256.3183,-44 256.3183,-80"/>
<text text-anchor="middle" x="215.517" y="-57.2" font-family="Times,serif" font-size="16.00" fill="#000000">La morale</text>
</g>
<!-- b2&#45;&gt;c2 -->
<g id="edge4" class="edge">
<title>b2&#45;&gt;c2</title>
<path fill="none" stroke="#000000" d="M215.517,-114.8789C215.517,-106.8205 215.517,-98.2651 215.517,-90.4375"/>
<polygon fill="#000000" stroke="#000000" points="219.0171,-90.3294 215.517,-80.3294 212.0171,-90.3294 219.0171,-90.3294"/>
</g>
<!-- e1 -->
<g id="node6" class="node">
<title>e1</title>
<path fill="#fafafa" stroke="transparent" d="M81.1114,-36C81.1114,-36 21.9225,-36 21.9225,-36 15.9225,-36 9.9225,-30 9.9225,-24 9.9225,-24 9.9225,-12 9.9225,-12 9.9225,-6 15.9225,0 21.9225,0 21.9225,0 81.1114,0 81.1114,0 87.1114,0 93.1114,-6 93.1114,-12 93.1114,-12 93.1114,-24 93.1114,-24 93.1114,-30 87.1114,-36 81.1114,-36"/>
<text text-anchor="middle" x="51.517" y="-13.2" font-family="Times,serif" font-size="16.00" fill="#cd2626">Chapitre 1</text>
</g>
<!-- c1&#45;&gt;e1 -->
<!-- e2 -->
<g id="node7" class="node">
<title>e2</title>
<path fill="#fafafa" stroke="transparent" d="M245.1114,-36C245.1114,-36 185.9225,-36 185.9225,-36 179.9225,-36 173.9225,-30 173.9225,-24 173.9225,-24 173.9225,-12 173.9225,-12 173.9225,-6 179.9225,0 185.9225,0 185.9225,0 245.1114,0 245.1114,0 251.1114,0 257.1114,-6 257.1114,-12 257.1114,-12 257.1114,-24 257.1114,-24 257.1114,-30 251.1114,-36 245.1114,-36"/>
<text text-anchor="middle" x="215.517" y="-13.2" font-family="Times,serif" font-size="16.00" fill="#cd2626">Chapitre 2</text>
</g>
<!-- c2&#45;&gt;e2 -->
</g>
</svg>
