<?xml version="1.0" encoding="UTF-8" standalone="no"?><!DOCTYPE svg PUBLIC "-//W3C//DTD SVG 1.1//EN" "http://www.w3.org/Graphics/SVG/1.1/DTD/svg11.dtd"><!-- Generated by graphviz version 2.40.1 (20161225.0304)
 --><!-- Title: G Pages: 1 --><svg xmlns="http://www.w3.org/2000/svg" xmlns:xlink="http://www.w3.org/1999/xlink" width="685pt" height="472pt" viewBox="0.00 0.00 684.79 471.63">
<g id="graph0" class="graph" transform="scale(1 1) rotate(0) translate(21.6 450.0331)">
<title>G</title>
<polygon fill="#fafafa" stroke="transparent" points="-21.6,21.6 -21.6,-450.0331 663.1856,-450.0331 663.1856,21.6 -21.6,21.6"/>
<!-- a1 -->
<g id="node1" class="node">
<title>a1</title>
<ellipse fill="#000000" stroke="#000000" cx="308.532" cy="-407.5028" rx="66.6002" ry="20.861"/>
<text text-anchor="middle" x="308.532" y="-402.1028" font-family="Times,serif" font-size="18.00" fill="#ffffff">Le conatus</text>
</g>
<!-- b1 -->
<g id="node2" class="node">
<title>b1</title>
<ellipse fill="#8b0000" stroke="#000000" cx="136.532" cy="-305.1862" rx="59.5731" ry="32.6206"/>
<text text-anchor="middle" x="136.532" y="-309.9862" font-family="Times,serif" font-size="16.00" fill="#ffffff">= un effort</text>
<text text-anchor="middle" x="136.532" y="-290.7862" font-family="Times,serif" font-size="16.00" fill="#ffffff">réel …</text>
</g>
<!-- a1&#45;&gt;b1 -->
<g id="edge1" class="edge">
<title>a1-&gt;b1:n</title>
<path fill="none" stroke="#000000" d="M252.2128,-395.9876C208.5166,-385.6003 153.1683,-368.749 139.6249,-347.7656"/>
<polygon fill="#000000" stroke="#000000" points="142.9353,-346.6271 136.532,-338.1862 136.2739,-348.7779 142.9353,-346.6271"/>
</g>
<!-- b2 -->
<g id="node3" class="node">
<title>b2</title>
<ellipse fill="#8b0000" stroke="#000000" cx="308.532" cy="-305.1862" rx="86.1766" ry="32.6206"/>
<text text-anchor="middle" x="308.532" y="-309.9862" font-family="Times,serif" font-size="16.00" fill="#ffffff">… pour affirmer</text>
<text text-anchor="middle" x="308.532" y="-290.7862" font-family="Times,serif" font-size="16.00" fill="#ffffff">son existence …</text>
</g>
<!-- a1&#45;&gt;b2 -->
<g id="edge2" class="edge">
<title>a1-&gt;b2:n</title>
<path fill="none" stroke="#000000" d="M308.532,-386.2666C308.532,-375.3345 308.532,-361.5339 308.532,-348.2185"/>
<polygon fill="#000000" stroke="#000000" points="312.0321,-348.1862 308.532,-338.1862 305.0321,-348.1862 312.0321,-348.1862"/>
</g>
<!-- b3 -->
<g id="node4" class="node">
<title>b3</title>
<ellipse fill="#8b0000" stroke="#000000" cx="511.532" cy="-305.1862" rx="84.3982" ry="46.2727"/>
<text text-anchor="middle" x="511.532" y="-319.5862" font-family="Times,serif" font-size="16.00" fill="#ffffff">… et augmenter</text>
<text text-anchor="middle" x="511.532" y="-300.3862" font-family="Times,serif" font-size="16.00" fill="#ffffff">sa puissance</text>
<text text-anchor="middle" x="511.532" y="-281.1862" font-family="Times,serif" font-size="16.00" fill="#ffffff">d'être</text>
</g>
<!-- a1&#45;&gt;b3 -->
<g id="edge3" class="edge">
<title>a1-&gt;b3:n</title>
<path fill="none" stroke="#000000" d="M373.0414,-401.9952C425.517,-395.8934 493.2741,-383.7345 508.434,-360.8689"/>
<polygon fill="#000000" stroke="#000000" points="511.8181,-361.7772 511.532,-351.1862 505.1511,-359.644 511.8181,-361.7772"/>
</g>
<!-- c1 -->
<g id="node5" class="node">
<title>c1</title>
<polygon fill="#ffffff" stroke="#7f7f7f" points="197.096,-223.9002 -.032,-223.9002 -.032,-100.4998 197.096,-100.4998 197.096,-223.9002"/>
<text text-anchor="middle" x="98.532" y="-205.4" font-family="Times,serif" font-size="16.00" fill="#000000">Le conatus n'est pas un</text>
<text text-anchor="middle" x="98.532" y="-186.2" font-family="Times,serif" font-size="16.00" fill="#000000">simple souhait vague tourné</text>
<text text-anchor="middle" x="98.532" y="-167" font-family="Times,serif" font-size="16.00" fill="#000000">vers un idéal imaginaire :</text>
<text text-anchor="middle" x="98.532" y="-147.8" font-family="Times,serif" font-size="16.00" fill="#000000">il désigne une mise en</text>
<text text-anchor="middle" x="98.532" y="-128.6" font-family="Times,serif" font-size="16.00" fill="#000000">tension et une mobilisation</text>
<text text-anchor="middle" x="98.532" y="-109.4" font-family="Times,serif" font-size="16.00" fill="#000000">concrète de l'individu</text>
</g>
<!-- b1&#45;&gt;c1 -->
<g id="edge4" class="edge">
<title>b1-&gt;c1</title>
<path fill="none" stroke="#000000" d="M127.814,-272.3823C124.7284,-260.7716 121.125,-247.2128 117.5221,-233.6558"/>
<polygon fill="#000000" stroke="#000000" points="120.8572,-232.578 114.9061,-223.8124 114.092,-234.3759 120.8572,-232.578"/>
</g>
<!-- c2 -->
<g id="node6" class="node">
<title>c2</title>
<polygon fill="#ffffff" stroke="#7f7f7f" points="405.9052,-223.9002 211.1588,-223.9002 211.1588,-100.4998 405.9052,-100.4998 405.9052,-223.9002"/>
<text text-anchor="middle" x="308.532" y="-205.4" font-family="Times,serif" font-size="16.00" fill="#000000">Le conatus n'est pas un état</text>
<text text-anchor="middle" x="308.532" y="-186.2" font-family="Times,serif" font-size="16.00" fill="#000000">défini négativement, par ce</text>
<text text-anchor="middle" x="308.532" y="-167" font-family="Times,serif" font-size="16.00" fill="#000000">que je ne suis pas, ce que</text>
<text text-anchor="middle" x="308.532" y="-147.8" font-family="Times,serif" font-size="16.00" fill="#000000">je n'ai pas : ce n'est pas un</text>
<text text-anchor="middle" x="308.532" y="-128.6" font-family="Times,serif" font-size="16.00" fill="#000000">manque, c'est une force qui</text>
<text text-anchor="middle" x="308.532" y="-109.4" font-family="Times,serif" font-size="16.00" fill="#000000">exprime ce que je suis</text>
</g>
<!-- b2&#45;&gt;c2 -->
<g id="edge5" class="edge">
<title>b2-&gt;c2</title>
<path fill="none" stroke="#000000" d="M308.532,-272.0229C308.532,-260.5839 308.532,-247.2861 308.532,-233.9754"/>
<polygon fill="#000000" stroke="#000000" points="312.0321,-233.8245 308.532,-223.8246 305.0321,-233.8246 312.0321,-233.8245"/>
</g>
<!-- c3 -->
<g id="node7" class="node">
<title>c3</title>
<polygon fill="#ffffff" stroke="#7f7f7f" points="641.6392,-214.2 419.4248,-214.2 419.4248,-110.2 641.6392,-110.2 641.6392,-214.2"/>
<text text-anchor="middle" x="530.532" y="-195.8" font-family="Times,serif" font-size="16.00" fill="#000000">Le conatus vise la joie qui</text>
<text text-anchor="middle" x="530.532" y="-176.6" font-family="Times,serif" font-size="16.00" fill="#000000">se trouve dans l'accroissement</text>
<text text-anchor="middle" x="530.532" y="-157.4" font-family="Times,serif" font-size="16.00" fill="#000000">de sa puissance de penser,</text>
<text text-anchor="middle" x="530.532" y="-138.2" font-family="Times,serif" font-size="16.00" fill="#000000">de sa puissance d'agir et de sa</text>
<text text-anchor="middle" x="530.532" y="-119" font-family="Times,serif" font-size="16.00" fill="#000000">puissance d'être avec les autres</text>
</g>
<!-- b3&#45;&gt;c3 -->
<g id="edge6" class="edge">
<title>b3-&gt;c3</title>
<path fill="none" stroke="#000000" d="M517.7008,-258.7627C519.159,-247.7885 520.7372,-235.912 522.2714,-224.3657"/>
<polygon fill="#000000" stroke="#000000" points="525.7565,-224.7088 523.6043,-214.3349 518.8175,-223.7867 525.7565,-224.7088"/>
</g>
<!-- d1 -->
<g id="node8" class="node">
<title>d1</title>
<path fill="#ffffff" stroke="#7f7f7f" d="M405.4504,-65.4012C405.4504,-65.4012 211.6136,-65.4012 211.6136,-65.4012 205.6136,-65.4012 199.6136,-59.4012 199.6136,-53.4012 199.6136,-53.4012 199.6136,-12.1988 199.6136,-12.1988 199.6136,-6.1988 205.6136,-.1988 211.6136,-.1988 211.6136,-.1988 405.4504,-.1988 405.4504,-.1988 411.4504,-.1988 417.4504,-6.1988 417.4504,-12.1988 417.4504,-12.1988 417.4504,-53.4012 417.4504,-53.4012 417.4504,-59.4012 411.4504,-65.4012 405.4504,-65.4012"/>
<text text-anchor="middle" x="308.532" y="-47.2" font-family="Times,serif" font-size="16.00" fill="#000000">Le conatus ne nous coupe pas</text>
<text text-anchor="middle" x="308.532" y="-28" font-family="Times,serif" font-size="16.00" fill="#000000">du réel, il est au contraire une</text>
<text text-anchor="middle" x="308.532" y="-8.8" font-family="Times,serif" font-size="16.00" fill="#000000">forme d'inscription dans le réel</text>
</g>
<!-- c1&#45;&gt;d1 -->
<g id="edge7" class="edge">
<title>c1-&gt;d1</title>
<path fill="none" stroke="#000000" d="M197.0757,-101.4783C214.0695,-91.0069 231.2897,-80.396 246.9467,-70.7483"/>
<polygon fill="#000000" stroke="#000000" points="248.7954,-73.7203 255.4728,-65.4946 245.1232,-67.7608 248.7954,-73.7203"/>
</g>
<!-- c2&#45;&gt;d1 -->
<g id="edge8" class="edge">
<title>c2-&gt;d1</title>
<path fill="none" stroke="#000000" d="M308.532,-100.5318C308.532,-92.1133 308.532,-83.6261 308.532,-75.6422"/>
<polygon fill="#000000" stroke="#000000" points="312.0321,-75.4844 308.532,-65.4844 305.0321,-75.4845 312.0321,-75.4844"/>
</g>
<!-- c3&#45;&gt;d1 -->
<g id="edge9" class="edge">
<title>c3-&gt;d1</title>
<path fill="none" stroke="#000000" d="M441.1957,-110.1274C418.5296,-96.9157 394.6096,-82.9732 373.4172,-70.6205"/>
<polygon fill="#000000" stroke="#000000" points="374.9154,-67.4426 364.5133,-65.4306 371.3903,-73.4902 374.9154,-67.4426"/>
</g>
</g>
</svg>