<?xml version="1.0" encoding="UTF-8" standalone="no"?><!DOCTYPE svg PUBLIC "-//W3C//DTD SVG 1.1//EN" "http://www.w3.org/Graphics/SVG/1.1/DTD/svg11.dtd"><!-- Generated by graphviz version 2.40.1 (20161225.0304)
 --><!-- Title: G Pages: 1 --><svg xmlns="http://www.w3.org/2000/svg" xmlns:xlink="http://www.w3.org/1999/xlink" width="531pt" height="363pt" viewBox="0.00 0.00 531.22 363.18">
<g id="graph0" class="graph" transform="scale(1 1) rotate(0) translate(21.6 341.5801)">
<title>G</title>
<polygon fill="#fafafa" stroke="transparent" points="-21.6,21.6 -21.6,-341.5801 509.6232,-341.5801 509.6232,21.6 -21.6,21.6"/>
<!-- a1 -->
<g id="node1" class="node">
<title>a1</title>
<ellipse fill="#000000" stroke="#000000" cx="200.1952" cy="-283.7763" rx="89.4636" ry="36.4089"/>
<text text-anchor="middle" x="200.1952" y="-289.1763" font-family="Times,serif" font-size="18.00" fill="#ffffff">Maîtriser ses</text>
<text text-anchor="middle" x="200.1952" y="-267.5763" font-family="Times,serif" font-size="18.00" fill="#ffffff">représentations</text>
</g>
<!-- b1 -->
<g id="node2" class="node">
<title>b1</title>
<ellipse fill="#8b0000" stroke="#000000" cx="127.1952" cy="-166.1862" rx="63.3991" ry="46.2727"/>
<text text-anchor="middle" x="127.1952" y="-180.5862" font-family="Times,serif" font-size="16.00" fill="#ffffff">ne pas être</text>
<text text-anchor="middle" x="127.1952" y="-161.3862" font-family="Times,serif" font-size="16.00" fill="#ffffff">esclave de</text>
<text text-anchor="middle" x="127.1952" y="-142.1862" font-family="Times,serif" font-size="16.00" fill="#ffffff">ses affects</text>
</g>
<!-- a1&#45;&gt;b1 -->
<g id="edge1" class="edge">
<title>a1-&gt;b1:n</title>
<path fill="none" stroke="#000000" d="M149.0976,-253.9609C139.4171,-245.2618 131.3768,-234.773 128.4155,-222.6462"/>
<polygon fill="#000000" stroke="#000000" points="131.8725,-222.0789 127.1952,-212.5724 124.9233,-222.9208 131.8725,-222.0789"/>
</g>
<!-- b2 -->
<g id="node3" class="node">
<title>b2</title>
<ellipse fill="#8b0000" stroke="#000000" cx="326.1952" cy="-166.1862" rx="69.351" ry="32.6206"/>
<text text-anchor="middle" x="326.1952" y="-170.9862" font-family="Times,serif" font-size="16.00" fill="#ffffff">se gouverner</text>
<text text-anchor="middle" x="326.1952" y="-151.7862" font-family="Times,serif" font-size="16.00" fill="#ffffff">par la raison</text>
</g>
<!-- a1&#45;&gt;b2 -->
<g id="edge2" class="edge">
<title>a1-&gt;b2:n</title>
<path fill="none" stroke="#000000" d="M272.7599,-262.635C297.4864,-251.1568 320.2004,-234.1097 325.1844,-209.425"/>
<polygon fill="#000000" stroke="#000000" points="328.6958,-209.4817 326.1952,-199.1862 321.7296,-208.7939 328.6958,-209.4817"/>
</g>
<!-- c1 -->
<g id="node4" class="node">
<title>c1</title>
<polygon fill="#ffffff" stroke="#7f7f7f" points="202.586,-84.7002 -.1956,-84.7002 -.1956,-.0998 202.586,-.0998 202.586,-84.7002"/>
<text text-anchor="middle" x="101.1952" y="-66.4" font-family="Times,serif" font-size="16.00" fill="#000000">Il ne s'agit pas de ne pas </text>
<text text-anchor="middle" x="101.1952" y="-47.2" font-family="Times,serif" font-size="16.00" fill="#000000">avoir d'émotions, mais de ne</text>
<text text-anchor="middle" x="101.1952" y="-28" font-family="Times,serif" font-size="16.00" fill="#000000">pas nous laisser emporter</text>
<text text-anchor="middle" x="101.1952" y="-8.8" font-family="Times,serif" font-size="16.00" fill="#000000">par nos émotions</text>
</g>
<!-- b1&#45;&gt;c1 -->
<g id="edge3" class="edge">
<title>b1-&gt;c1</title>
<path fill="none" stroke="#000000" d="M117.5138,-120.0928C115.7893,-111.8828 113.9814,-103.2754 112.2228,-94.9026"/>
<polygon fill="#000000" stroke="#000000" points="115.592,-93.9156 110.1111,-84.8486 108.7415,-95.3546 115.592,-93.9156"/>
</g>
<!-- c2 -->
<g id="node5" class="node">
<title>c2</title>
<polygon fill="#ffffff" stroke="#7f7f7f" points="487.8514,-84.7002 216.539,-84.7002 216.539,-.0998 487.8514,-.0998 487.8514,-84.7002"/>
<text text-anchor="middle" x="352.1952" y="-66.4" font-family="Times,serif" font-size="16.00" fill="#000000">Nous devons parvenir à comprendre</text>
<text text-anchor="middle" x="352.1952" y="-47.2" font-family="Times,serif" font-size="16.00" fill="#000000">que ce qui compte, c'est surtout notre</text>
<text text-anchor="middle" x="352.1952" y="-28" font-family="Times,serif" font-size="16.00" fill="#000000">manière de nous représenter les choses</text>
<text text-anchor="middle" x="352.1952" y="-8.8" font-family="Times,serif" font-size="16.00" fill="#000000">et les décisions que nous prenons</text>
</g>
<!-- b2&#45;&gt;c2 -->
<g id="edge4" class="edge">
<title>b2-&gt;c2</title>
<path fill="none" stroke="#000000" d="M333.0945,-133.3388C335.588,-121.4668 338.4689,-107.751 341.225,-94.6293"/>
<polygon fill="#000000" stroke="#000000" points="344.6694,-95.2572 343.2998,-84.7513 337.8189,-93.8183 344.6694,-95.2572"/>
</g>
</g>
</svg>