<?xml version="1.0" encoding="UTF-8" standalone="no"?>
<!DOCTYPE svg PUBLIC "-//W3C//DTD SVG 1.1//EN"
 "http://www.w3.org/Graphics/SVG/1.1/DTD/svg11.dtd">
<!-- Generated by graphviz version 2.40.1 (20161225.0304)
 -->
<!-- Title: G Pages: 1 -->
<svg width="512pt" height="239pt"
 viewBox="0.00 0.00 512.43 239.20" xmlns="http://www.w3.org/2000/svg" xmlns:xlink="http://www.w3.org/1999/xlink">
<g id="graph0" class="graph" transform="scale(1 1) rotate(0) translate(21.6 217.6)">
<title>G</title>
<polygon fill="#fafafa" stroke="transparent" points="-21.6,21.6 -21.6,-217.6 490.8319,-217.6 490.8319,21.6 -21.6,21.6"/>
<!-- a1 -->
<g id="node1" class="node">
<title>a1</title>
<ellipse fill="#050505" stroke="#000000" cx="65.7459" cy="-122.8" rx="65.9928" ry="36.4089"/>
<text text-anchor="middle" x="65.7459" y="-128.2" font-family="Times,serif" font-size="18.00" fill="#ffffff">Quelqu&#39;un</text>
<text text-anchor="middle" x="65.7459" y="-106.6" font-family="Times,serif" font-size="18.00" fill="#ffffff">m&#39;insulte</text>
</g>
<!-- b1 -->
<g id="node2" class="node">
<title>b1</title>
<ellipse fill="#8b0000" stroke="#000000" cx="239.0603" cy="-125.8" rx="72.6368" ry="46.2727"/>
<text text-anchor="middle" x="239.0603" y="-140.2" font-family="Times,serif" font-size="16.00" fill="#ffffff"></text>
<text text-anchor="middle" x="239.0603" y="-121" font-family="Times,serif" font-size="16.00" fill="#ffffff"></text>
<text text-anchor="middle" x="239.0603" y="-101.8" font-family="Times,serif" font-size="16.00" fill="#ffffff"></text>
</g>
<!-- a1&#45;&gt;b1 -->
<g id="edge1" class="edge">
<title>a1&#45;&gt;b1:w</title>
<path fill="none" stroke="#000000" d="M131.5816,-125.3246C139.7584,-125.525 148.1159,-125.6786 156.2808,-125.7522"/>
<polygon fill="#000000" stroke="#000000" points="156.4756,-129.253 166.4919,-125.8 156.5084,-122.2531 156.4756,-129.253"/>
</g>
<!-- e1 -->
<g id="node5" class="node">
<title>e1</title>
<path fill="#fafafa" stroke="transparent" d="M97.8755,-68.2017C97.8755,-68.2017 33.6164,-68.2017 33.6164,-68.2017 27.6164,-68.2017 21.6164,-62.2017 21.6164,-56.2017 21.6164,-56.2017 21.6164,-33.3983 21.6164,-33.3983 21.6164,-27.3983 27.6164,-21.3983 33.6164,-21.3983 33.6164,-21.3983 97.8755,-21.3983 97.8755,-21.3983 103.8755,-21.3983 109.8755,-27.3983 109.8755,-33.3983 109.8755,-33.3983 109.8755,-56.2017 109.8755,-56.2017 109.8755,-62.2017 103.8755,-68.2017 97.8755,-68.2017"/>
<text text-anchor="middle" x="65.7459" y="-49.6" font-family="Times,serif" font-size="16.00" fill="#cd2626">Événement</text>
<text text-anchor="middle" x="65.7459" y="-30.4" font-family="Times,serif" font-size="16.00" fill="#cd2626">extérieur</text>
</g>
<!-- a1&#45;&gt;e1 -->
<!-- c1 -->
<g id="node3" class="node">
<title>c1</title>
<polygon fill="#ffffff" stroke="#7f7f7f" points="469.0341,-196.2017 346.8264,-196.2017 346.8264,-149.3983 469.0341,-149.3983 469.0341,-196.2017"/>
<text text-anchor="middle" x="407.9303" y="-177.6" font-family="Times,serif" font-size="16.00" fill="#000000"></text>
<text text-anchor="middle" x="407.9303" y="-158.4" font-family="Times,serif" font-size="16.00" fill="#000000"></text>
</g>
<!-- b1&#45;&gt;c1 -->
<g id="edge2" class="edge">
<title>b1&#45;&gt;c1</title>
<path fill="none" stroke="#000000" d="M305.8022,-144.3756C316.0023,-147.2146 326.5631,-150.1538 336.8524,-153.0176"/>
<polygon fill="#000000" stroke="#000000" points="336.0413,-156.4248 346.6136,-155.7343 337.9182,-149.6811 336.0413,-156.4248"/>
</g>
<!-- c2 -->
<g id="node4" class="node">
<title>c2</title>
<polygon fill="#ffffff" stroke="#7f7f7f" points="469.0341,-135.4012 346.8264,-135.4012 346.8264,-70.1988 469.0341,-70.1988 469.0341,-135.4012"/>
<text text-anchor="middle" x="407.9303" y="-117.2" font-family="Times,serif" font-size="16.00" fill="#000000"></text>
<text text-anchor="middle" x="407.9303" y="-98" font-family="Times,serif" font-size="16.00" fill="#000000"></text>
<text text-anchor="middle" x="407.9303" y="-78.8" font-family="Times,serif" font-size="16.00" fill="#000000"></text>
</g>
<!-- b1&#45;&gt;c2 -->
<g id="edge3" class="edge">
<title>b1&#45;&gt;c2</title>
<path fill="none" stroke="#000000" d="M310.1869,-116.1126C318.9332,-114.9214 327.8749,-113.7035 336.6238,-112.5119"/>
<polygon fill="#000000" stroke="#000000" points="337.3463,-115.9459 346.7825,-111.1283 336.4016,-109.0099 337.3463,-115.9459"/>
</g>
<!-- e2 -->
<g id="node6" class="node">
<title>e2</title>
<path fill="#fafafa" stroke="transparent" d="M267.0315,-65.4012C267.0315,-65.4012 211.0891,-65.4012 211.0891,-65.4012 205.0891,-65.4012 199.0891,-59.4012 199.0891,-53.4012 199.0891,-53.4012 199.0891,-12.1988 199.0891,-12.1988 199.0891,-6.1988 205.0891,-.1988 211.0891,-.1988 211.0891,-.1988 267.0315,-.1988 267.0315,-.1988 273.0315,-.1988 279.0315,-6.1988 279.0315,-12.1988 279.0315,-12.1988 279.0315,-53.4012 279.0315,-53.4012 279.0315,-59.4012 273.0315,-65.4012 267.0315,-65.4012"/>
<text text-anchor="middle" x="239.0603" y="-47.2" font-family="Times,serif" font-size="16.00" fill="#cd2626"></text>
<text text-anchor="middle" x="239.0603" y="-28" font-family="Times,serif" font-size="16.00" fill="#cd2626"></text>
<text text-anchor="middle" x="239.0603" y="-8.8" font-family="Times,serif" font-size="16.00" fill="#cd2626"></text>
</g>
<!-- b1&#45;&gt;e2 -->
<!-- e3 -->
<g id="node7" class="node">
<title>e3</title>
<path fill="#fafafa" stroke="transparent" d="M443.4769,-56.2017C443.4769,-56.2017 372.3836,-56.2017 372.3836,-56.2017 366.3836,-56.2017 360.3836,-50.2017 360.3836,-44.2017 360.3836,-44.2017 360.3836,-21.3983 360.3836,-21.3983 360.3836,-15.3983 366.3836,-9.3983 372.3836,-9.3983 372.3836,-9.3983 443.4769,-9.3983 443.4769,-9.3983 449.4769,-9.3983 455.4769,-15.3983 455.4769,-21.3983 455.4769,-21.3983 455.4769,-44.2017 455.4769,-44.2017 455.4769,-50.2017 449.4769,-56.2017 443.4769,-56.2017"/>
<text text-anchor="middle" x="407.9303" y="-37.6" font-family="Times,serif" font-size="16.00" fill="#cd2626"></text>
<text text-anchor="middle" x="407.9303" y="-18.4" font-family="Times,serif" font-size="16.00" fill="#cd2626"></text>
</g>
<!-- c2&#45;&gt;e3 -->
<!-- e1&#45;&gt;e2 -->
<!-- e2&#45;&gt;e3 -->
</g>
</svg>
