<?xml version="1.0" encoding="UTF-8" standalone="no"?><!DOCTYPE svg PUBLIC "-//W3C//DTD SVG 1.1//EN" "http://www.w3.org/Graphics/SVG/1.1/DTD/svg11.dtd"><!-- Generated by graphviz version 2.40.1 (20161225.0304)
 --><!-- Title: G Pages: 1 --><svg xmlns="http://www.w3.org/2000/svg" xmlns:xlink="http://www.w3.org/1999/xlink" width="459pt" height="367pt" viewBox="0.00 0.00 459.45 366.57">
<g id="graph0" class="graph" transform="scale(1 1) rotate(0) translate(21.6 344.9743)">
<title>G</title>
<polygon fill="#fafafa" stroke="transparent" points="-21.6,21.6 -21.6,-344.9743 437.8496,-344.9743 437.8496,21.6 -21.6,21.6"/>
<!-- a1 -->
<g id="node1" class="node">
<title>a1</title>
<ellipse fill="#000000" stroke="#000000" cx="161.7392" cy="-271.8969" rx="83.6785" ry="51.4548"/>
<text text-anchor="middle" x="161.7392" y="-288.0969" font-family="Times,serif" font-size="18.00" fill="#ffffff">Accepter ce</text>
<text text-anchor="middle" x="161.7392" y="-266.4969" font-family="Times,serif" font-size="18.00" fill="#ffffff">qui ne dépend</text>
<text text-anchor="middle" x="161.7392" y="-244.8969" font-family="Times,serif" font-size="18.00" fill="#ffffff">pas de nous</text>
</g>
<!-- b1 -->
<g id="node2" class="node">
<title>b1</title>
<ellipse fill="#8b0000" stroke="#000000" cx="108.7392" cy="-152.6098" rx="44.7293" ry="32.6206"/>
<text text-anchor="middle" x="108.7392" y="-157.4098" font-family="Times,serif" font-size="16.00" fill="#ffffff">≠ se</text>
<text text-anchor="middle" x="108.7392" y="-138.2098" font-family="Times,serif" font-size="16.00" fill="#ffffff">divertir</text>
</g>
<!-- a1&#45;&gt;b1 -->
<g id="edge1" class="edge">
<title>a1-&gt;b1:n</title>
<path fill="none" stroke="#000000" d="M121.569,-226.3649C115.9095,-216.8371 111.3955,-206.3613 109.5905,-195.4939"/>
<polygon fill="#000000" stroke="#000000" points="113.0688,-195.0893 108.7392,-185.4195 106.0937,-195.6787 113.0688,-195.0893"/>
</g>
<!-- b2 -->
<g id="node3" class="node">
<title>b2</title>
<ellipse fill="#8b0000" stroke="#000000" cx="269.7392" cy="-152.6098" rx="48.5558" ry="32.6206"/>
<text text-anchor="middle" x="269.7392" y="-157.4098" font-family="Times,serif" font-size="16.00" fill="#ffffff">≠ se</text>
<text text-anchor="middle" x="269.7392" y="-138.2098" font-family="Times,serif" font-size="16.00" fill="#ffffff">résigner</text>
</g>
<!-- a1&#45;&gt;b2 -->
<g id="edge2" class="edge">
<title>a1-&gt;b2:n</title>
<path fill="none" stroke="#000000" d="M231.0538,-242.8621C249.1283,-231.099 264.7074,-215.4912 268.7316,-195.5558"/>
<polygon fill="#000000" stroke="#000000" points="272.2328,-195.7167 269.7392,-185.4195 265.2671,-195.0242 272.2328,-195.7167"/>
</g>
<!-- c1 -->
<g id="node4" class="node">
<title>c1</title>
<polygon fill="#ffffff" stroke="#7f7f7f" points="163.7183,-75.0012 -.2399,-75.0012 -.2399,-9.7988 163.7183,-9.7988 163.7183,-75.0012"/>
<text text-anchor="middle" x="81.7392" y="-56.8" font-family="Times,serif" font-size="16.00" fill="#000000">On affronte l'existence</text>
<text text-anchor="middle" x="81.7392" y="-37.6" font-family="Times,serif" font-size="16.00" fill="#000000">du tragique au lieu</text>
<text text-anchor="middle" x="81.7392" y="-18.4" font-family="Times,serif" font-size="16.00" fill="#000000">de s'en détourner</text>
</g>
<!-- b1&#45;&gt;c1 -->
<g id="edge3" class="edge">
<title>b1-&gt;c1</title>
<path fill="none" stroke="#000000" d="M100.7843,-120.1393C98.0894,-109.1389 95.0376,-96.6819 92.179,-85.0137"/>
<polygon fill="#000000" stroke="#000000" points="95.5096,-83.8992 89.7305,-75.0192 88.7106,-85.5649 95.5096,-83.8992"/>
</g>
<!-- c2 -->
<g id="node5" class="node">
<title>c2</title>
<polygon fill="#ffffff" stroke="#7f7f7f" points="416.26,-84.7002 177.2184,-84.7002 177.2184,-.0998 416.26,-.0998 416.26,-84.7002"/>
<text text-anchor="middle" x="296.7392" y="-66.4" font-family="Times,serif" font-size="16.00" fill="#000000">Accepter ce qui est là, maintenant,</text>
<text text-anchor="middle" x="296.7392" y="-47.2" font-family="Times,serif" font-size="16.00" fill="#000000">ne veut pas dire qu'on ne doit rien</text>
<text text-anchor="middle" x="296.7392" y="-28" font-family="Times,serif" font-size="16.00" fill="#000000">faire pour chercher à transformer</text>
<text text-anchor="middle" x="296.7392" y="-8.8" font-family="Times,serif" font-size="16.00" fill="#000000">la situation future</text>
</g>
<!-- b2&#45;&gt;c2 -->
<g id="edge4" class="edge">
<title>b2-&gt;c2</title>
<path fill="none" stroke="#000000" d="M277.6941,-120.1393C279.6606,-112.1122 281.8171,-103.3095 283.95,-94.6037"/>
<polygon fill="#000000" stroke="#000000" points="287.3564,-95.4078 286.3365,-84.8622 280.5574,-93.7421 287.3564,-95.4078"/>
</g>
</g>
</svg>