<?xml version="1.0" encoding="UTF-8" standalone="no"?><!DOCTYPE svg PUBLIC "-//W3C//DTD SVG 1.1//EN" "http://www.w3.org/Graphics/SVG/1.1/DTD/svg11.dtd"><!-- Generated by graphviz version 2.40.1 (20161225.0304)
 --><!-- Title: G Pages: 1 --><svg xmlns="http://www.w3.org/2000/svg" xmlns:xlink="http://www.w3.org/1999/xlink" width="647pt" height="308pt" viewBox="0.00 0.00 647.01 308.21">
<g id="graph0" class="graph" transform="scale(1 1) rotate(0) translate(21.6 286.6098)">
<title>G</title>
<polygon fill="#fafafa" stroke="transparent" points="-21.6,21.6 -21.6,-286.6098 625.4064,-286.6098 625.4064,21.6 -21.6,21.6"/>
<!-- a1 -->
<g id="node1" class="node">
<title>a1</title>
<ellipse fill="#000000" stroke="#000000" cx="76.0046" cy="-106.8098" rx="76.0093" ry="51.4548"/>
<text text-anchor="middle" x="76.0046" y="-123.0098" font-family="Times,serif" font-size="18.00" fill="#ffffff">Stratégies</text>
<text text-anchor="middle" x="76.0046" y="-101.4098" font-family="Times,serif" font-size="18.00" fill="#ffffff">d'analyse</text>
<text text-anchor="middle" x="76.0046" y="-79.8098" font-family="Times,serif" font-size="18.00" fill="#ffffff">d'une notion</text>
</g>
<!-- b1 -->
<g id="node2" class="node">
<title>b1</title>
<ellipse fill="#8b0000" stroke="#000000" cx="216.5575" cy="-181.8098" rx="56.5964" ry="32.6206"/>
<text text-anchor="middle" x="216.5575" y="-186.6098" font-family="Times,serif" font-size="16.00" fill="#ffffff">Première</text>
<text text-anchor="middle" x="216.5575" y="-167.4098" font-family="Times,serif" font-size="16.00" fill="#ffffff">approche</text>
</g>
<!-- a1&#45;&gt;b1 -->
<g id="edge1" class="edge">
<title>a1-&gt;b1:w</title>
<path fill="none" stroke="#000000" d="M107.384,-153.8825C119.0344,-166.479 133.4991,-177.531 150.0376,-180.8185"/>
<polygon fill="#000000" stroke="#000000" points="149.7121,-184.3033 160.0093,-181.8098 150.4046,-177.3376 149.7121,-184.3033"/>
</g>
<!-- b2 -->
<g id="node3" class="node">
<title>b2</title>
<ellipse fill="#8b0000" stroke="#000000" cx="216.5575" cy="-32.8098" rx="52.297" ry="32.6206"/>
<text text-anchor="middle" x="216.5575" y="-37.6098" font-family="Times,serif" font-size="16.00" fill="#ffffff">Enrichir</text>
<text text-anchor="middle" x="216.5575" y="-18.4098" font-family="Times,serif" font-size="16.00" fill="#ffffff">l'analyse</text>
</g>
<!-- a1&#45;&gt;b2 -->
<g id="edge2" class="edge">
<title>a1-&gt;b2:w</title>
<path fill="none" stroke="#000000" d="M109.7101,-60.3646C122.0635,-47.9361 137.2501,-37.0314 154.3063,-33.7878"/>
<polygon fill="#000000" stroke="#000000" points="154.9351,-37.2438 164.5575,-32.8098 154.2702,-30.2755 154.9351,-37.2438"/>
</g>
<!-- b1&#45;&gt;b2 -->
<!-- c1 -->
<g id="node4" class="node">
<title>c1</title>
<polygon fill="#ffffff" stroke="#006400" points="373.7033,-254.8098 318.508,-254.8098 318.508,-218.8098 373.7033,-218.8098 373.7033,-254.8098"/>
<text text-anchor="middle" x="346.1056" y="-232.0098" font-family="Times,serif" font-size="16.00" fill="#006400">EC(x)</text>
</g>
<!-- b1&#45;&gt;c1 -->
<g id="edge4" class="edge">
<title>b1-&gt;c1</title>
<path fill="none" stroke="#006400" d="M262.2313,-201.2007C277.6487,-207.7462 294.6516,-214.9648 309.2948,-221.1816"/>
<polygon fill="#006400" stroke="#006400" points="307.9638,-224.4189 318.5364,-225.1052 310.6994,-217.9755 307.9638,-224.4189"/>
</g>
<!-- c2 -->
<g id="node5" class="node">
<title>c2</title>
<polygon fill="#ffffff" stroke="#006400" points="373.1056,-199.8098 319.1056,-199.8098 319.1056,-163.8098 373.1056,-163.8098 373.1056,-199.8098"/>
<text text-anchor="middle" x="346.1056" y="-177.0098" font-family="Times,serif" font-size="16.00" fill="#006400">x ≠ y</text>
</g>
<!-- b1&#45;&gt;c2 -->
<g id="edge5" class="edge">
<title>b1-&gt;c2</title>
<path fill="none" stroke="#006400" d="M273.3792,-181.8098C285.3317,-181.8098 297.6509,-181.8098 308.6757,-181.8098"/>
<polygon fill="#006400" stroke="#006400" points="308.7951,-185.3099 318.795,-181.8098 308.795,-178.3099 308.7951,-185.3099"/>
</g>
<!-- c3 -->
<g id="node6" class="node">
<title>c3</title>
<polygon fill="#ffffff" stroke="#006400" points="383.3107,-143.2115 308.9006,-143.2115 308.9006,-96.408 383.3107,-96.408 383.3107,-143.2115"/>
<text text-anchor="middle" x="346.1056" y="-124.6098" font-family="Times,serif" font-size="16.00" fill="#006400">x → </text>
<text text-anchor="middle" x="346.1056" y="-105.4098" font-family="Times,serif" font-size="16.00" fill="#006400">a, b, c …</text>
</g>
<!-- b1&#45;&gt;c3 -->
<g id="edge6" class="edge">
<title>b1-&gt;c3</title>
<path fill="none" stroke="#006400" d="M260.4166,-160.8194C273.057,-154.7698 286.8878,-148.1506 299.6784,-142.0292"/>
<polygon fill="#006400" stroke="#006400" points="301.2669,-145.1492 308.7762,-137.6751 298.245,-138.8351 301.2669,-145.1492"/>
</g>
<!-- c4 -->
<g id="node7" class="node">
<title>c4</title>
<polygon fill="#ffffff" stroke="#006400" points="384.1056,-50.8098 308.1056,-50.8098 308.1056,-14.8098 384.1056,-14.8098 384.1056,-50.8098"/>
<text text-anchor="middle" x="346.1056" y="-28.0098" font-family="Times,serif" font-size="16.00" fill="#006400">x1, x2 …</text>
</g>
<!-- b2&#45;&gt;c4 -->
<g id="edge7" class="edge">
<title>b2-&gt;c4</title>
<path fill="none" stroke="#006400" d="M268.8763,-32.8098C278.4683,-32.8098 288.4391,-32.8098 297.9038,-32.8098"/>
<polygon fill="#006400" stroke="#006400" points="297.9335,-36.3099 307.9335,-32.8098 297.9335,-29.3099 297.9335,-36.3099"/>
</g>
<!-- d1 -->
<g id="node8" class="node">
<title>d1</title>
<path fill="#ffffff" stroke="#7f7f7f" d="M567.6859,-265.2115C567.6859,-265.2115 446.2262,-265.2115 446.2262,-265.2115 440.2262,-265.2115 434.2262,-259.2115 434.2262,-253.2115 434.2262,-253.2115 434.2262,-230.408 434.2262,-230.408 434.2262,-224.408 440.2262,-218.408 446.2262,-218.408 446.2262,-218.408 567.6859,-218.408 567.6859,-218.408 573.6859,-218.408 579.6859,-224.408 579.6859,-230.408 579.6859,-230.408 579.6859,-253.2115 579.6859,-253.2115 579.6859,-259.2115 573.6859,-265.2115 567.6859,-265.2115"/>
<text text-anchor="middle" x="506.956" y="-246.6098" font-family="Times,serif" font-size="16.00" fill="#000000">Trouver un exemple</text>
<text text-anchor="middle" x="506.956" y="-227.4098" font-family="Times,serif" font-size="16.00" fill="#000000">concret de la notion</text>
</g>
<!-- c1&#45;&gt;d1 -->
<g id="edge8" class="edge">
<title>c1-&gt;d1</title>
<path fill="none" stroke="#000000" d="M373.7568,-237.6693C390.4639,-238.1886 412.611,-238.8771 434.0407,-239.5432"/>
</g>
<!-- d2 -->
<g id="node9" class="node">
<title>d2</title>
<path fill="#ffffff" stroke="#7f7f7f" d="M562.5601,-205.2115C562.5601,-205.2115 451.352,-205.2115 451.352,-205.2115 445.352,-205.2115 439.352,-199.2115 439.352,-193.2115 439.352,-193.2115 439.352,-170.408 439.352,-170.408 439.352,-164.408 445.352,-158.408 451.352,-158.408 451.352,-158.408 562.5601,-158.408 562.5601,-158.408 568.5601,-158.408 574.5601,-164.408 574.5601,-170.408 574.5601,-170.408 574.5601,-193.2115 574.5601,-193.2115 574.5601,-199.2115 568.5601,-205.2115 562.5601,-205.2115"/>
<text text-anchor="middle" x="506.956" y="-186.6098" font-family="Times,serif" font-size="16.00" fill="#000000">Trouver l'opposé</text>
<text text-anchor="middle" x="506.956" y="-167.4098" font-family="Times,serif" font-size="16.00" fill="#000000">ou des distinctions</text>
</g>
<!-- c2&#45;&gt;d2 -->
<g id="edge9" class="edge">
<title>c2-&gt;d2</title>
<path fill="none" stroke="#000000" d="M373.3917,-181.8098C391.4973,-181.8098 416.1064,-181.8098 439.2691,-181.8098"/>
</g>
<!-- d3 -->
<g id="node10" class="node">
<title>d3</title>
<path fill="#ffffff" stroke="#7f7f7f" d="M591.6571,-144.411C591.6571,-144.411 422.255,-144.411 422.255,-144.411 416.255,-144.411 410.255,-138.411 410.255,-132.411 410.255,-132.411 410.255,-91.2085 410.255,-91.2085 410.255,-85.2085 416.255,-79.2085 422.255,-79.2085 422.255,-79.2085 591.6571,-79.2085 591.6571,-79.2085 597.6571,-79.2085 603.6571,-85.2085 603.6571,-91.2085 603.6571,-91.2085 603.6571,-132.411 603.6571,-132.411 603.6571,-138.411 597.6571,-144.411 591.6571,-144.411"/>
<text text-anchor="middle" x="506.956" y="-126.2098" font-family="Times,serif" font-size="16.00" fill="#000000">Trouver les termes proches,</text>
<text text-anchor="middle" x="506.956" y="-107.0098" font-family="Times,serif" font-size="16.00" fill="#000000">les implications logiques,</text>
<text text-anchor="middle" x="506.956" y="-87.8098" font-family="Times,serif" font-size="16.00" fill="#000000">les expressions associées</text>
</g>
<!-- c3&#45;&gt;d3 -->
<g id="edge10" class="edge">
<title>c3-&gt;d3</title>
<path fill="none" stroke="#000000" d="M383.4123,-117.9543C391.672,-117.5435 400.7933,-117.0898 410.2269,-116.6206"/>
</g>
<!-- d4 -->
<g id="node11" class="node">
<title>d4</title>
<path fill="#ffffff" stroke="#7f7f7f" d="M561.8873,-56.2115C561.8873,-56.2115 452.0248,-56.2115 452.0248,-56.2115 446.0248,-56.2115 440.0248,-50.2115 440.0248,-44.2115 440.0248,-44.2115 440.0248,-21.408 440.0248,-21.408 440.0248,-15.408 446.0248,-9.408 452.0248,-9.408 452.0248,-9.408 561.8873,-9.408 561.8873,-9.408 567.8873,-9.408 573.8873,-15.408 573.8873,-21.408 573.8873,-21.408 573.8873,-44.2115 573.8873,-44.2115 573.8873,-50.2115 567.8873,-56.2115 561.8873,-56.2115"/>
<text text-anchor="middle" x="506.956" y="-37.6098" font-family="Times,serif" font-size="16.00" fill="#000000">Trouver différents</text>
<text text-anchor="middle" x="506.956" y="-18.4098" font-family="Times,serif" font-size="16.00" fill="#000000">sens de la notion</text>
</g>
<!-- c4&#45;&gt;d4 -->
<g id="edge11" class="edge">
<title>c4-&gt;d4</title>
<path fill="none" stroke="#000000" d="M384.2249,-32.8098C400.8543,-32.8098 420.8572,-32.8098 439.8421,-32.8098"/>
</g>
</g>
</svg>