<?xml version="1.0" encoding="UTF-8" standalone="no"?>
<!DOCTYPE svg PUBLIC "-//W3C//DTD SVG 1.1//EN"
 "http://www.w3.org/Graphics/SVG/1.1/DTD/svg11.dtd">
<!-- Generated by graphviz version 2.40.1 (20161225.0304)
 -->
<!-- Title: G Pages: 1 -->
<svg width="675pt" height="387pt"
 viewBox="0.00 0.00 674.72 386.60" xmlns="http://www.w3.org/2000/svg" xmlns:xlink="http://www.w3.org/1999/xlink">
<g id="graph0" class="graph" transform="scale(1 1) rotate(0) translate(21.6 365)">
<title>G</title>
<polygon fill="#fafafa" stroke="transparent" points="-21.6,21.6 -21.6,-365 653.1234,-365 653.1234,21.6 -21.6,21.6"/>
<!-- a1 -->
<g id="node1" class="node">
<title>a1</title>
<ellipse fill="#000000" stroke="#000000" cx="76.0046" cy="-157.2" rx="76.0093" ry="51.4548"/>
<text text-anchor="middle" x="76.0046" y="-173.4" font-family="Times,serif" font-size="18.00" fill="#ffffff">Stratégies</text>
<text text-anchor="middle" x="76.0046" y="-151.8" font-family="Times,serif" font-size="18.00" fill="#ffffff">d&#39;analyse</text>
<text text-anchor="middle" x="76.0046" y="-130.2" font-family="Times,serif" font-size="18.00" fill="#ffffff">d&#39;une notion</text>
</g>
<!-- b1 -->
<g id="node2" class="node">
<title>b1</title>
<ellipse fill="#8b0000" stroke="#000000" cx="227.8746" cy="-260.2" rx="56.5964" ry="32.6206"/>
<text text-anchor="middle" x="227.8746" y="-265" font-family="Times,serif" font-size="16.00" fill="#ffffff">Première</text>
<text text-anchor="middle" x="227.8746" y="-245.8" font-family="Times,serif" font-size="16.00" fill="#ffffff">approche</text>
</g>
<!-- a1&#45;&gt;b1 -->
<g id="edge1" class="edge">
<title>a1&#45;&gt;b1:w</title>
<path fill="none" stroke="#000000" d="M98.8108,-206.5882C113.004,-230.1313 133.719,-254.2638 160.6655,-259.2612"/>
<polygon fill="#000000" stroke="#000000" points="160.596,-262.7695 170.8746,-260.2 161.2371,-255.7989 160.596,-262.7695"/>
</g>
<!-- b2 -->
<g id="node3" class="node">
<title>b2</title>
<ellipse fill="#8b0000" stroke="#000000" cx="227.8746" cy="-55.2" rx="67.7308" ry="32.6206"/>
<text text-anchor="middle" x="227.8746" y="-60" font-family="Times,serif" font-size="16.00" fill="#ffffff">Approfondir</text>
<text text-anchor="middle" x="227.8746" y="-40.8" font-family="Times,serif" font-size="16.00" fill="#ffffff">l&#39;analyse</text>
</g>
<!-- a1&#45;&gt;b2 -->
<g id="edge2" class="edge">
<title>a1&#45;&gt;b2:w</title>
<path fill="none" stroke="#000000" d="M95.3488,-107.3952C107.3911,-84.5373 125.322,-61.3591 149.8783,-56.2407"/>
<polygon fill="#000000" stroke="#000000" points="150.4193,-59.7036 160.0093,-55.2 149.704,-52.7402 150.4193,-59.7036"/>
</g>
<!-- b1&#45;&gt;b2 -->
<!-- c1 -->
<g id="node4" class="node">
<title>c1</title>
<polygon fill="#ffffff" stroke="#006400" points="406.1555,-333.2 350.9601,-333.2 350.9601,-297.2 406.1555,-297.2 406.1555,-333.2"/>
<text text-anchor="middle" x="378.5578" y="-310.4" font-family="Times,serif" font-size="16.00" fill="#006400">EC(x)</text>
</g>
<!-- b1&#45;&gt;c1 -->
<g id="edge4" class="edge">
<title>b1&#45;&gt;c1</title>
<path fill="none" stroke="#006400" d="M275.966,-277.7536C297.0389,-285.4453 321.3988,-294.3367 341.0923,-301.5249"/>
<polygon fill="#006400" stroke="#006400" points="340.0421,-304.8674 350.636,-305.0084 342.4423,-298.2918 340.0421,-304.8674"/>
</g>
<!-- c2 -->
<g id="node5" class="node">
<title>c2</title>
<polygon fill="#ffffff" stroke="#006400" points="405.5578,-278.2 351.5578,-278.2 351.5578,-242.2 405.5578,-242.2 405.5578,-278.2"/>
<text text-anchor="middle" x="378.5578" y="-255.4" font-family="Times,serif" font-size="16.00" fill="#006400">x ≠ y</text>
</g>
<!-- b1&#45;&gt;c2 -->
<g id="edge5" class="edge">
<title>b1&#45;&gt;c2</title>
<path fill="none" stroke="#006400" d="M284.8414,-260.2C303.7521,-260.2 324.3077,-260.2 341.336,-260.2"/>
<polygon fill="#006400" stroke="#006400" points="341.4365,-263.7001 351.4365,-260.2 341.4364,-256.7001 341.4365,-263.7001"/>
</g>
<!-- c3 -->
<g id="node6" class="node">
<title>c3</title>
<polygon fill="#ffffff" stroke="#006400" points="426.1944,-225.2 330.9212,-225.2 330.9212,-189.2 426.1944,-189.2 426.1944,-225.2"/>
<text text-anchor="middle" x="378.5578" y="-202.55" font-family="Times,serif" font-size="15.50" fill="#006400">x→ a, b, c …</text>
</g>
<!-- b1&#45;&gt;c3 -->
<g id="edge6" class="edge">
<title>b1&#45;&gt;c3</title>
<path fill="none" stroke="#006400" d="M276.3811,-243.1387C290.7078,-238.0996 306.5237,-232.5366 321.3446,-227.3237"/>
<polygon fill="#006400" stroke="#006400" points="322.6425,-230.5774 330.9146,-223.9576 320.3198,-223.974 322.6425,-230.5774"/>
</g>
<!-- c4 -->
<g id="node7" class="node">
<title>c4</title>
<polygon fill="#ffffff" stroke="#006400" points="406.1555,-105.2 350.9601,-105.2 350.9601,-69.2 406.1555,-69.2 406.1555,-105.2"/>
<text text-anchor="middle" x="378.5578" y="-82.4" font-family="Times,serif" font-size="16.00" fill="#006400">RT(x)</text>
</g>
<!-- b2&#45;&gt;c4 -->
<g id="edge7" class="edge">
<title>b2&#45;&gt;c4</title>
<path fill="none" stroke="#006400" d="M290.0332,-68.4004C307.159,-72.0373 325.2229,-75.8735 340.5352,-79.1253"/>
<polygon fill="#006400" stroke="#006400" points="340.1422,-82.6198 350.6511,-81.2736 341.5964,-75.7725 340.1422,-82.6198"/>
</g>
<!-- c5 -->
<g id="node8" class="node">
<title>c5</title>
<polygon fill="#ffffff" stroke="#006400" points="416.5578,-50.2 340.5578,-50.2 340.5578,-14.2 416.5578,-14.2 416.5578,-50.2"/>
<text text-anchor="middle" x="378.5578" y="-27.4" font-family="Times,serif" font-size="16.00" fill="#006400">x1, x2 …</text>
</g>
<!-- b2&#45;&gt;c5 -->
<g id="edge8" class="edge">
<title>b2&#45;&gt;c5</title>
<path fill="none" stroke="#006400" d="M292.6523,-45.3124C305.2379,-43.3914 318.2248,-41.4091 330.1703,-39.5858"/>
<polygon fill="#006400" stroke="#006400" points="331.0063,-42.9988 340.3636,-38.0299 329.95,-36.0789 331.0063,-42.9988"/>
</g>
<!-- d1 -->
<g id="node9" class="node">
<title>d1</title>
<path fill="#ffffff" stroke="#7f7f7f" d="M598.1794,-343.6017C598.1794,-343.6017 476.7197,-343.6017 476.7197,-343.6017 470.7197,-343.6017 464.7197,-337.6017 464.7197,-331.6017 464.7197,-331.6017 464.7197,-308.7983 464.7197,-308.7983 464.7197,-302.7983 470.7197,-296.7983 476.7197,-296.7983 476.7197,-296.7983 598.1794,-296.7983 598.1794,-296.7983 604.1794,-296.7983 610.1794,-302.7983 610.1794,-308.7983 610.1794,-308.7983 610.1794,-331.6017 610.1794,-331.6017 610.1794,-337.6017 604.1794,-343.6017 598.1794,-343.6017"/>
<text text-anchor="middle" x="537.4496" y="-325" font-family="Times,serif" font-size="16.00" fill="#000000">Trouver un exemple</text>
<text text-anchor="middle" x="537.4496" y="-305.8" font-family="Times,serif" font-size="16.00" fill="#000000">concret de la notion</text>
</g>
<!-- c1&#45;&gt;d1 -->
<g id="edge10" class="edge">
<title>c1&#45;&gt;d1</title>
<path fill="none" stroke="#000000" d="M406.2346,-316.0709C422.5057,-316.583 443.9083,-317.2564 464.6955,-317.9106"/>
</g>
<!-- d2 -->
<g id="node10" class="node">
<title>d2</title>
<path fill="#ffffff" stroke="#7f7f7f" d="M593.0536,-283.6017C593.0536,-283.6017 481.8455,-283.6017 481.8455,-283.6017 475.8455,-283.6017 469.8455,-277.6017 469.8455,-271.6017 469.8455,-271.6017 469.8455,-248.7983 469.8455,-248.7983 469.8455,-242.7983 475.8455,-236.7983 481.8455,-236.7983 481.8455,-236.7983 593.0536,-236.7983 593.0536,-236.7983 599.0536,-236.7983 605.0536,-242.7983 605.0536,-248.7983 605.0536,-248.7983 605.0536,-271.6017 605.0536,-271.6017 605.0536,-277.6017 599.0536,-283.6017 593.0536,-283.6017"/>
<text text-anchor="middle" x="537.4496" y="-265" font-family="Times,serif" font-size="16.00" fill="#000000">Trouver l&#39;opposé</text>
<text text-anchor="middle" x="537.4496" y="-245.8" font-family="Times,serif" font-size="16.00" fill="#000000">ou des distinctions</text>
</g>
<!-- c2&#45;&gt;d2 -->
<g id="edge11" class="edge">
<title>c2&#45;&gt;d2</title>
<path fill="none" stroke="#000000" d="M405.8723,-260.2C423.5294,-260.2 447.3378,-260.2 469.8483,-260.2"/>
</g>
<!-- c3&#45;&gt;c4 -->
<!-- d3 -->
<g id="node11" class="node">
<title>d3</title>
<path fill="#ffffff" stroke="#7f7f7f" d="M619.5973,-223.0003C619.5973,-223.0003 455.3019,-223.0003 455.3019,-223.0003 449.3019,-223.0003 443.3019,-217.0003 443.3019,-211.0003 443.3019,-211.0003 443.3019,-171.3997 443.3019,-171.3997 443.3019,-165.3997 449.3019,-159.3997 455.3019,-159.3997 455.3019,-159.3997 619.5973,-159.3997 619.5973,-159.3997 625.5973,-159.3997 631.5973,-165.3997 631.5973,-171.3997 631.5973,-171.3997 631.5973,-211.0003 631.5973,-211.0003 631.5973,-217.0003 625.5973,-223.0003 619.5973,-223.0003"/>
<text text-anchor="middle" x="537.4496" y="-205.15" font-family="Times,serif" font-size="15.50" fill="#000000">Trouver les termes proches,</text>
<text text-anchor="middle" x="537.4496" y="-186.55" font-family="Times,serif" font-size="15.50" fill="#000000">les implications logiques,</text>
<text text-anchor="middle" x="537.4496" y="-167.95" font-family="Times,serif" font-size="15.50" fill="#000000">les expressions associées</text>
</g>
<!-- c3&#45;&gt;d3 -->
<g id="edge12" class="edge">
<title>c3&#45;&gt;d3</title>
<path fill="none" stroke="#000000" d="M426.2306,-202.3995C431.7152,-201.8472 437.4418,-201.2705 443.2783,-200.6828"/>
</g>
<!-- d4 -->
<g id="node12" class="node">
<title>d4</title>
<path fill="#ffffff" stroke="#7f7f7f" d="M605.1435,-124.1415C605.1435,-124.1415 469.7556,-124.1415 469.7556,-124.1415 463.7556,-124.1415 457.7556,-118.1415 457.7556,-112.1415 457.7556,-112.1415 457.7556,-72.2585 457.7556,-72.2585 457.7556,-66.2585 463.7556,-60.2585 469.7556,-60.2585 469.7556,-60.2585 605.1435,-60.2585 605.1435,-60.2585 611.1435,-60.2585 617.1435,-66.2585 617.1435,-72.2585 617.1435,-72.2585 617.1435,-112.1415 617.1435,-112.1415 617.1435,-118.1415 611.1435,-124.1415 605.1435,-124.1415"/>
<text text-anchor="middle" x="537.4496" y="-106.06" font-family="Times,serif" font-size="15.40" fill="#000000">Trouver des références</text>
<text text-anchor="middle" x="537.4496" y="-87.58" font-family="Times,serif" font-size="15.40" fill="#000000">théoriques à propos</text>
<text text-anchor="middle" x="537.4496" y="-69.1" font-family="Times,serif" font-size="15.40" fill="#000000">de la notion</text>
</g>
<!-- c4&#45;&gt;d4 -->
<g id="edge13" class="edge">
<title>c4&#45;&gt;d4</title>
<path fill="none" stroke="#000000" d="M406.2346,-88.0709C420.6386,-88.5242 439.0638,-89.104 457.5236,-89.6849"/>
</g>
<!-- d5 -->
<g id="node13" class="node">
<title>d5</title>
<path fill="#ffffff" stroke="#7f7f7f" d="M592.3808,-46.6017C592.3808,-46.6017 482.5184,-46.6017 482.5184,-46.6017 476.5184,-46.6017 470.5184,-40.6017 470.5184,-34.6017 470.5184,-34.6017 470.5184,-11.7983 470.5184,-11.7983 470.5184,-5.7983 476.5184,.2017 482.5184,.2017 482.5184,.2017 592.3808,.2017 592.3808,.2017 598.3808,.2017 604.3808,-5.7983 604.3808,-11.7983 604.3808,-11.7983 604.3808,-34.6017 604.3808,-34.6017 604.3808,-40.6017 598.3808,-46.6017 592.3808,-46.6017"/>
<text text-anchor="middle" x="537.4496" y="-28" font-family="Times,serif" font-size="16.00" fill="#000000">Trouver différents</text>
<text text-anchor="middle" x="537.4496" y="-8.8" font-family="Times,serif" font-size="16.00" fill="#000000">sens de la notion</text>
</g>
<!-- c5&#45;&gt;d5 -->
<g id="edge14" class="edge">
<title>c5&#45;&gt;d5</title>
<path fill="none" stroke="#000000" d="M416.6163,-30.0443C432.7749,-29.129 452.1026,-28.0343 470.5113,-26.9915"/>
</g>
</g>
</svg>
