<?xml version="1.0" encoding="UTF-8" standalone="no"?><!DOCTYPE svg PUBLIC "-//W3C//DTD SVG 1.1//EN" "http://www.w3.org/Graphics/SVG/1.1/DTD/svg11.dtd"><!-- Generated by graphviz version 2.40.1 (20161225.0304)
 --><!-- Title: G Pages: 1 --><svg xmlns="http://www.w3.org/2000/svg" xmlns:xlink="http://www.w3.org/1999/xlink" width="662pt" height="387pt" viewBox="0.00 0.00 662.41 386.60">
<g id="graph0" class="graph" transform="scale(1 1) rotate(0) translate(21.6 365)">
<title>G</title>
<polygon fill="#fafafa" stroke="transparent" points="-21.6,21.6 -21.6,-365 640.8091,-365 640.8091,21.6 -21.6,21.6"/>
<!-- a1 -->
<g id="node1" class="node">
<title>a1</title>
<ellipse fill="#000000" stroke="#000000" cx="76.0046" cy="-157.2" rx="76.0093" ry="51.4548"/>
<text text-anchor="middle" x="76.0046" y="-173.4" font-family="Times,serif" font-size="18.00" fill="#ffffff">Stratégies</text>
<text text-anchor="middle" x="76.0046" y="-151.8" font-family="Times,serif" font-size="18.00" fill="#ffffff">d'analyse</text>
<text text-anchor="middle" x="76.0046" y="-130.2" font-family="Times,serif" font-size="18.00" fill="#ffffff">d'une notion</text>
</g>
<!-- b1 -->
<g id="node2" class="node">
<title>b1</title>
<ellipse fill="#8b0000" stroke="#000000" cx="216.5575" cy="-260.2" rx="56.5964" ry="32.6206"/>
<text text-anchor="middle" x="216.5575" y="-265" font-family="Times,serif" font-size="16.00" fill="#ffffff">Première</text>
<text text-anchor="middle" x="216.5575" y="-245.8" font-family="Times,serif" font-size="16.00" fill="#ffffff">approche</text>
</g>
<!-- a1&#45;&gt;b1 -->
<g id="edge1" class="edge">
<title>a1-&gt;b1:w</title>
<path fill="none" stroke="#000000" d="M95.0654,-207.1914C107.0624,-230.359 125.0229,-253.934 149.7862,-259.1412"/>
<polygon fill="#000000" stroke="#000000" points="149.7019,-262.6511 160.0093,-260.2 150.4231,-255.6884 149.7019,-262.6511"/>
</g>
<!-- b2 -->
<g id="node3" class="node">
<title>b2</title>
<ellipse fill="#8b0000" stroke="#000000" cx="216.5575" cy="-55.2" rx="52.297" ry="32.6206"/>
<text text-anchor="middle" x="216.5575" y="-60" font-family="Times,serif" font-size="16.00" fill="#ffffff">Enrichir</text>
<text text-anchor="middle" x="216.5575" y="-40.8" font-family="Times,serif" font-size="16.00" fill="#ffffff">l'analyse</text>
</g>
<!-- a1&#45;&gt;b2 -->
<g id="edge2" class="edge">
<title>a1-&gt;b2:w</title>
<path fill="none" stroke="#000000" d="M96.9195,-107.694C109.8842,-84.6498 128.9761,-61.1986 154.4719,-56.1811"/>
<polygon fill="#000000" stroke="#000000" points="154.9434,-59.6519 164.5575,-55.2 154.2655,-52.6848 154.9434,-59.6519"/>
</g>
<!-- b1&#45;&gt;b2 -->
<!-- c1 -->
<g id="node4" class="node">
<title>c1</title>
<polygon fill="#ffffff" stroke="#006400" points="388.6812,-333.2 333.4859,-333.2 333.4859,-297.2 388.6812,-297.2 388.6812,-333.2"/>
<text text-anchor="middle" x="361.0835" y="-310.4" font-family="Times,serif" font-size="16.00" fill="#006400">EC(x)</text>
</g>
<!-- b1&#45;&gt;c1 -->
<g id="edge4" class="edge">
<title>b1-&gt;c1</title>
<path fill="none" stroke="#006400" d="M263.8807,-278.2091C283.4198,-285.6447 305.7316,-294.1356 324.0468,-301.1055"/>
<polygon fill="#006400" stroke="#006400" points="322.9042,-304.4155 333.4952,-304.7011 325.3939,-297.8732 322.9042,-304.4155"/>
</g>
<!-- c2 -->
<g id="node5" class="node">
<title>c2</title>
<polygon fill="#ffffff" stroke="#006400" points="388.0835,-278.2 334.0835,-278.2 334.0835,-242.2 388.0835,-242.2 388.0835,-278.2"/>
<text text-anchor="middle" x="361.0835" y="-255.4" font-family="Times,serif" font-size="16.00" fill="#006400">x ≠ y</text>
</g>
<!-- b1&#45;&gt;c2 -->
<g id="edge5" class="edge">
<title>b1-&gt;c2</title>
<path fill="none" stroke="#006400" d="M273.2632,-260.2C290.2262,-260.2 308.3899,-260.2 323.7709,-260.2"/>
<polygon fill="#006400" stroke="#006400" points="323.9258,-263.7001 333.9258,-260.2 323.9258,-256.7001 323.9258,-263.7001"/>
</g>
<!-- c3 -->
<g id="node6" class="node">
<title>c3</title>
<polygon fill="#ffffff" stroke="#006400" points="414.0394,-225.2 308.1277,-225.2 308.1277,-189.2 414.0394,-189.2 414.0394,-225.2"/>
<text text-anchor="middle" x="361.0835" y="-202.55" font-family="Times,serif" font-size="15.50" fill="#006400">x→ a, b, c …</text>
</g>
<!-- b1&#45;&gt;c3 -->
<g id="edge6" class="edge">
<title>b1-&gt;c3</title>
<path fill="none" stroke="#006400" d="M264.6826,-242.5518C276.7226,-238.1365 289.7727,-233.3508 302.2669,-228.769"/>
<polygon fill="#006400" stroke="#006400" points="303.5034,-232.0435 311.687,-225.3145 301.0933,-225.4715 303.5034,-232.0435"/>
</g>
<!-- c4 -->
<g id="node7" class="node">
<title>c4</title>
<polygon fill="#ffffff" stroke="#006400" points="388.6812,-105.2 333.4859,-105.2 333.4859,-69.2 388.6812,-69.2 388.6812,-105.2"/>
<text text-anchor="middle" x="361.0835" y="-82.4" font-family="Times,serif" font-size="16.00" fill="#006400">RT(x)</text>
</g>
<!-- b2&#45;&gt;c4 -->
<g id="edge7" class="edge">
<title>b2-&gt;c4</title>
<path fill="none" stroke="#006400" d="M265.8909,-66.1231C284.7576,-70.3004 305.9507,-74.9928 323.5424,-78.8879"/>
<polygon fill="#006400" stroke="#006400" points="322.919,-82.3346 333.4392,-81.0792 324.4323,-75.5001 322.919,-82.3346"/>
</g>
<!-- c5 -->
<g id="node8" class="node">
<title>c5</title>
<polygon fill="#ffffff" stroke="#006400" points="399.0835,-50.2 323.0835,-50.2 323.0835,-14.2 399.0835,-14.2 399.0835,-50.2"/>
<text text-anchor="middle" x="361.0835" y="-27.4" font-family="Times,serif" font-size="16.00" fill="#006400">x1, x2 …</text>
</g>
<!-- b2&#45;&gt;c5 -->
<g id="edge8" class="edge">
<title>b2-&gt;c5</title>
<path fill="none" stroke="#006400" d="M267.512,-47.0911C282.1608,-44.7598 298.0926,-42.2244 312.5884,-39.9176"/>
<polygon fill="#006400" stroke="#006400" points="313.5254,-43.3126 322.851,-38.2844 312.4252,-36.3996 313.5254,-43.3126"/>
</g>
<!-- d1 -->
<g id="node9" class="node">
<title>d1</title>
<path fill="#ffffff" stroke="#7f7f7f" d="M585.8651,-343.6017C585.8651,-343.6017 464.4054,-343.6017 464.4054,-343.6017 458.4054,-343.6017 452.4054,-337.6017 452.4054,-331.6017 452.4054,-331.6017 452.4054,-308.7983 452.4054,-308.7983 452.4054,-302.7983 458.4054,-296.7983 464.4054,-296.7983 464.4054,-296.7983 585.8651,-296.7983 585.8651,-296.7983 591.8651,-296.7983 597.8651,-302.7983 597.8651,-308.7983 597.8651,-308.7983 597.8651,-331.6017 597.8651,-331.6017 597.8651,-337.6017 591.8651,-343.6017 585.8651,-343.6017"/>
<text text-anchor="middle" x="525.1353" y="-325" font-family="Times,serif" font-size="16.00" fill="#000000">Trouver un exemple</text>
<text text-anchor="middle" x="525.1353" y="-305.8" font-family="Times,serif" font-size="16.00" fill="#000000">concret de la notion</text>
</g>
<!-- c1&#45;&gt;d1 -->
<g id="edge10" class="edge">
<title>c1-&gt;d1</title>
<path fill="none" stroke="#000000" d="M388.9127,-316.0482C406.373,-316.5803 429.7636,-317.2932 452.23,-317.978"/>
</g>
<!-- d2 -->
<g id="node10" class="node">
<title>d2</title>
<path fill="#ffffff" stroke="#7f7f7f" d="M580.7393,-283.6017C580.7393,-283.6017 469.5312,-283.6017 469.5312,-283.6017 463.5312,-283.6017 457.5312,-277.6017 457.5312,-271.6017 457.5312,-271.6017 457.5312,-248.7983 457.5312,-248.7983 457.5312,-242.7983 463.5312,-236.7983 469.5312,-236.7983 469.5312,-236.7983 580.7393,-236.7983 580.7393,-236.7983 586.7393,-236.7983 592.7393,-242.7983 592.7393,-248.7983 592.7393,-248.7983 592.7393,-271.6017 592.7393,-271.6017 592.7393,-277.6017 586.7393,-283.6017 580.7393,-283.6017"/>
<text text-anchor="middle" x="525.1353" y="-265" font-family="Times,serif" font-size="16.00" fill="#000000">Trouver l'opposé</text>
<text text-anchor="middle" x="525.1353" y="-245.8" font-family="Times,serif" font-size="16.00" fill="#000000">ou des distinctions</text>
</g>
<!-- c2&#45;&gt;d2 -->
<g id="edge11" class="edge">
<title>c2-&gt;d2</title>
<path fill="none" stroke="#000000" d="M388.1734,-260.2C407.0117,-260.2 433.0047,-260.2 457.2879,-260.2"/>
</g>
<!-- c3&#45;&gt;c4 -->
<!-- d3 -->
<g id="node11" class="node">
<title>d3</title>
<path fill="#ffffff" stroke="#7f7f7f" d="M607.283,-223.0003C607.283,-223.0003 442.9876,-223.0003 442.9876,-223.0003 436.9876,-223.0003 430.9876,-217.0003 430.9876,-211.0003 430.9876,-211.0003 430.9876,-171.3997 430.9876,-171.3997 430.9876,-165.3997 436.9876,-159.3997 442.9876,-159.3997 442.9876,-159.3997 607.283,-159.3997 607.283,-159.3997 613.283,-159.3997 619.283,-165.3997 619.283,-171.3997 619.283,-171.3997 619.283,-211.0003 619.283,-211.0003 619.283,-217.0003 613.283,-223.0003 607.283,-223.0003"/>
<text text-anchor="middle" x="525.1353" y="-205.15" font-family="Times,serif" font-size="15.50" fill="#000000">Trouver les termes proches,</text>
<text text-anchor="middle" x="525.1353" y="-186.55" font-family="Times,serif" font-size="15.50" fill="#000000">les implications logiques,</text>
<text text-anchor="middle" x="525.1353" y="-167.95" font-family="Times,serif" font-size="15.50" fill="#000000">les expressions associées</text>
</g>
<!-- c3&#45;&gt;d3 -->
<g id="edge12" class="edge">
<title>c3-&gt;d3</title>
<path fill="none" stroke="#000000" d="M414.3464,-202.0053C419.6793,-201.4851 425.1978,-200.9469 430.7947,-200.4011"/>
</g>
<!-- d4 -->
<g id="node12" class="node">
<title>d4</title>
<path fill="#ffffff" stroke="#7f7f7f" d="M592.8292,-124.1415C592.8292,-124.1415 457.4413,-124.1415 457.4413,-124.1415 451.4413,-124.1415 445.4413,-118.1415 445.4413,-112.1415 445.4413,-112.1415 445.4413,-72.2585 445.4413,-72.2585 445.4413,-66.2585 451.4413,-60.2585 457.4413,-60.2585 457.4413,-60.2585 592.8292,-60.2585 592.8292,-60.2585 598.8292,-60.2585 604.8292,-66.2585 604.8292,-72.2585 604.8292,-72.2585 604.8292,-112.1415 604.8292,-112.1415 604.8292,-118.1415 598.8292,-124.1415 592.8292,-124.1415"/>
<text text-anchor="middle" x="525.1353" y="-106.06" font-family="Times,serif" font-size="15.40" fill="#000000">Trouver des références</text>
<text text-anchor="middle" x="525.1353" y="-87.58" font-family="Times,serif" font-size="15.40" fill="#000000">théoriques à propos</text>
<text text-anchor="middle" x="525.1353" y="-69.1" font-family="Times,serif" font-size="15.40" fill="#000000">de la notion</text>
</g>
<!-- c4&#45;&gt;d4 -->
<g id="edge13" class="edge">
<title>c4-&gt;d4</title>
<path fill="none" stroke="#000000" d="M388.9127,-88.0482C404.6361,-88.5274 425.1687,-89.1532 445.5047,-89.773"/>
</g>
<!-- d5 -->
<g id="node13" class="node">
<title>d5</title>
<path fill="#ffffff" stroke="#7f7f7f" d="M580.0665,-46.6017C580.0665,-46.6017 470.2041,-46.6017 470.2041,-46.6017 464.2041,-46.6017 458.2041,-40.6017 458.2041,-34.6017 458.2041,-34.6017 458.2041,-11.7983 458.2041,-11.7983 458.2041,-5.7983 464.2041,.2017 470.2041,.2017 470.2041,.2017 580.0665,.2017 580.0665,.2017 586.0665,.2017 592.0665,-5.7983 592.0665,-11.7983 592.0665,-11.7983 592.0665,-34.6017 592.0665,-34.6017 592.0665,-40.6017 586.0665,-46.6017 580.0665,-46.6017"/>
<text text-anchor="middle" x="525.1353" y="-28" font-family="Times,serif" font-size="16.00" fill="#000000">Trouver différents</text>
<text text-anchor="middle" x="525.1353" y="-8.8" font-family="Times,serif" font-size="16.00" fill="#000000">sens de la notion</text>
</g>
<!-- c5&#45;&gt;d5 -->
<g id="edge14" class="edge">
<title>c5-&gt;d5</title>
<path fill="none" stroke="#000000" d="M399.1327,-30.1126C416.6435,-29.1519 437.9507,-27.983 458.0246,-26.8817"/>
</g>
</g>
</svg>