<?xml version="1.0" encoding="UTF-8" standalone="no"?>
<!DOCTYPE svg PUBLIC "-//W3C//DTD SVG 1.1//EN"
 "http://www.w3.org/Graphics/SVG/1.1/DTD/svg11.dtd">
<!-- Generated by graphviz version 2.40.1 (20161225.0304)
 -->
<!-- Title: G Pages: 1 -->
<svg width="679pt" height="503pt"
 viewBox="0.00 0.00 678.51 502.50" xmlns="http://www.w3.org/2000/svg" xmlns:xlink="http://www.w3.org/1999/xlink">
<g id="graph0" class="graph" transform="scale(1 1) rotate(0) translate(21.6 480.9)">
<title>G</title>
<polygon fill="#fafafa" stroke="transparent" points="-21.6,21.6 -21.6,-480.9 656.9081,-480.9 656.9081,21.6 -21.6,21.6"/>
<!-- a1 -->
<g id="node1" class="node">
<title>a1</title>
<ellipse fill="#000000" stroke="#000000" cx="76.0046" cy="-285.8" rx="76.0093" ry="51.4548"/>
<text text-anchor="middle" x="76.0046" y="-302" font-family="Times,serif" font-size="18.00" fill="#ffffff">Stratégies</text>
<text text-anchor="middle" x="76.0046" y="-280.4" font-family="Times,serif" font-size="18.00" fill="#ffffff">d&#39;analyse</text>
<text text-anchor="middle" x="76.0046" y="-258.8" font-family="Times,serif" font-size="18.00" fill="#ffffff">d&#39;une notion</text>
</g>
<!-- b1 -->
<g id="node2" class="node">
<title>b1</title>
<ellipse fill="#8b0000" stroke="#000000" cx="232.486" cy="-387.8" rx="63.4534" ry="32.6206"/>
<text text-anchor="middle" x="232.486" y="-392.6" font-family="Times,serif" font-size="16.00" fill="#ffffff">Sur un plan</text>
<text text-anchor="middle" x="232.486" y="-373.4" font-family="Times,serif" font-size="16.00" fill="#ffffff">horizontal</text>
</g>
<!-- a1&#45;&gt;b1 -->
<g id="edge1" class="edge">
<title>a1&#45;&gt;b1:w</title>
<path fill="none" stroke="#000000" d="M98.418,-335.0074C112.2937,-358.2378 132.5455,-381.9648 158.9877,-386.8772"/>
<polygon fill="#000000" stroke="#000000" points="158.7305,-390.3682 169.0093,-387.8 159.3724,-383.3977 158.7305,-390.3682"/>
</g>
<!-- b2 -->
<g id="node3" class="node">
<title>b2</title>
<ellipse fill="#8b0000" stroke="#000000" cx="232.486" cy="-266.8" rx="63.4534" ry="32.6206"/>
<text text-anchor="middle" x="232.486" y="-271.6" font-family="Times,serif" font-size="16.00" fill="#ffffff">Sur un plan</text>
<text text-anchor="middle" x="232.486" y="-252.4" font-family="Times,serif" font-size="16.00" fill="#ffffff">vertical</text>
</g>
<!-- a1&#45;&gt;b2 -->
<g id="edge2" class="edge">
<title>a1&#45;&gt;b2:w</title>
<path fill="none" stroke="#000000" d="M147.5558,-268.1971C151.2723,-267.7467 154.9978,-267.3894 158.6951,-267.1488"/>
<polygon fill="#000000" stroke="#000000" points="159.1333,-270.6361 169.0093,-266.8 158.8967,-263.6401 159.1333,-270.6361"/>
</g>
<!-- b3 -->
<g id="node4" class="node">
<title>b3</title>
<ellipse fill="#8b0000" stroke="#000000" cx="76.0046" cy="-75.8" rx="51.668" ry="32.6206"/>
<text text-anchor="middle" x="76.0046" y="-80.6" font-family="Times,serif" font-size="16.00" fill="#ffffff">Mise</text>
<text text-anchor="middle" x="76.0046" y="-61.4" font-family="Times,serif" font-size="16.00" fill="#ffffff">en forme</text>
</g>
<!-- a1&#45;&gt;b3 -->
<g id="edge3" class="edge">
<title>a1&#45;&gt;b3:n</title>
<path fill="none" stroke="#000000" d="M76.0046,-118.6186C76.0046,-158.3272 76.0046,-201.6475 76.0046,-234.2392"/>
<polygon fill="#000000" stroke="#000000" points="79.5047,-118.6097 76.0046,-108.6098 72.5047,-118.6098 79.5047,-118.6097"/>
</g>
<!-- b1&#45;&gt;b2 -->
<!-- c1 -->
<g id="node5" class="node">
<title>c1</title>
<polygon fill="#ffffff" stroke="#006400" points="410.8362,-440.8 356.8362,-440.8 356.8362,-404.8 410.8362,-404.8 410.8362,-440.8"/>
<text text-anchor="middle" x="383.8362" y="-418" font-family="Times,serif" font-size="16.00" fill="#006400">→</text>
</g>
<!-- b1&#45;&gt;c1 -->
<g id="edge5" class="edge">
<title>b1&#45;&gt;c1</title>
<path fill="none" stroke="#006400" d="M290.5691,-401.2318C309.3465,-405.5741 329.6536,-410.2702 346.5103,-414.1683"/>
<polygon fill="#006400" stroke="#006400" points="345.984,-417.6389 356.5154,-416.482 347.5612,-410.8189 345.984,-417.6389"/>
</g>
<!-- c2 -->
<g id="node6" class="node">
<title>c2</title>
<polygon fill="#ffffff" stroke="#006400" points="410.8362,-376.8 356.8362,-376.8 356.8362,-340.8 410.8362,-340.8 410.8362,-376.8"/>
<text text-anchor="middle" x="383.8362" y="-354" font-family="Times,serif" font-size="16.00" fill="#006400">≠</text>
</g>
<!-- b1&#45;&gt;c2 -->
<g id="edge6" class="edge">
<title>b1&#45;&gt;c2</title>
<path fill="none" stroke="#006400" d="M292.3036,-376.3384C310.6042,-372.8319 330.2002,-369.0771 346.5462,-365.9451"/>
<polygon fill="#006400" stroke="#006400" points="347.6097,-369.3051 356.7723,-363.9857 346.2923,-362.4301 347.6097,-369.3051"/>
</g>
<!-- c3 -->
<g id="node7" class="node">
<title>c3</title>
<polygon fill="#ffffff" stroke="#006400" points="410.8362,-289.8 356.8362,-289.8 356.8362,-253.8 410.8362,-253.8 410.8362,-289.8"/>
<text text-anchor="middle" x="383.8362" y="-267" font-family="Times,serif" font-size="16.00" fill="#006400">↑</text>
</g>
<!-- b2&#45;&gt;c3 -->
<g id="edge7" class="edge">
<title>b2&#45;&gt;c3</title>
<path fill="none" stroke="#006400" d="M296.2334,-268.906C313.431,-269.4741 331.4715,-270.0701 346.6813,-270.5726"/>
<polygon fill="#006400" stroke="#006400" points="346.6035,-274.0718 356.7137,-270.904 346.8347,-267.0756 346.6035,-274.0718"/>
</g>
<!-- c4 -->
<g id="node8" class="node">
<title>c4</title>
<polygon fill="#ffffff" stroke="#006400" points="410.8362,-231.8 356.8362,-231.8 356.8362,-195.8 410.8362,-195.8 410.8362,-231.8"/>
<text text-anchor="middle" x="383.8362" y="-209" font-family="Times,serif" font-size="16.00" fill="#006400">↓</text>
</g>
<!-- b2&#45;&gt;c4 -->
<g id="edge8" class="edge">
<title>b2&#45;&gt;c4</title>
<path fill="none" stroke="#006400" d="M285.4209,-248.2632C305.7976,-241.1276 328.5993,-233.1429 347.1201,-226.6573"/>
<polygon fill="#006400" stroke="#006400" points="348.3709,-229.9277 356.6522,-223.3193 346.0574,-223.3211 348.3709,-229.9277"/>
</g>
<!-- c5 -->
<g id="node9" class="node">
<title>c5</title>
<polygon fill="#ffffff" stroke="#006400" points="259.486,-122.8 205.486,-122.8 205.486,-86.8 259.486,-86.8 259.486,-122.8"/>
<text text-anchor="middle" x="232.486" y="-100" font-family="Times,serif" font-size="16.00" fill="#006400">=</text>
</g>
<!-- b2&#45;&gt;c5 -->
<!-- b3&#45;&gt;c5 -->
<g id="edge9" class="edge">
<title>b3&#45;&gt;c5</title>
<path fill="none" stroke="#006400" d="M125.9466,-85.0555C148.4424,-89.2246 174.5455,-94.0621 195.2835,-97.9054"/>
<polygon fill="#006400" stroke="#006400" points="194.8215,-101.3793 205.2919,-99.7602 196.0971,-94.4965 194.8215,-101.3793"/>
</g>
<!-- c6 -->
<g id="node10" class="node">
<title>c6</title>
<polygon fill="#ffffff" stroke="#006400" points="259.486,-71.4012 205.486,-71.4012 205.486,-6.1988 259.486,-6.1988 259.486,-71.4012"/>
<text text-anchor="middle" x="232.486" y="-53.2" font-family="Times,serif" font-size="16.00" fill="#006400">①</text>
<text text-anchor="middle" x="232.486" y="-34" font-family="Times,serif" font-size="16.00" fill="#006400">②</text>
<text text-anchor="middle" x="232.486" y="-14.8" font-family="Times,serif" font-size="16.00" fill="#006400">…</text>
</g>
<!-- b3&#45;&gt;c6 -->
<g id="edge10" class="edge">
<title>b3&#45;&gt;c6</title>
<path fill="none" stroke="#006400" d="M124.6586,-64.2958C147.4805,-58.8995 174.2411,-52.572 195.3934,-47.5705"/>
<polygon fill="#006400" stroke="#006400" points="196.3586,-50.9389 205.2849,-45.2317 194.7478,-44.1267 196.3586,-50.9389"/>
</g>
<!-- d1 -->
<g id="node11" class="node">
<title>d1</title>
<path fill="#ffffff" stroke="#7f7f7f" d="M602.5158,-459.3C602.5158,-459.3 495.502,-459.3 495.502,-459.3 489.502,-459.3 483.502,-453.3 483.502,-447.3 483.502,-447.3 483.502,-406.3 483.502,-406.3 483.502,-400.3 489.502,-394.3 495.502,-394.3 495.502,-394.3 602.5158,-394.3 602.5158,-394.3 608.5158,-394.3 614.5158,-400.3 614.5158,-406.3 614.5158,-406.3 614.5158,-447.3 614.5158,-447.3 614.5158,-453.3 608.5158,-459.3 602.5158,-459.3"/>
<text text-anchor="start" x="504.1337" y="-441.9" font-family="Times,serif" font-size="16.00" fill="#000000">À quoi ça me</text>
<text text-anchor="start" x="509.9201" y="-425.9" font-family="Times,serif" font-size="16.00" fill="#000000">fait penser ?</text>
<text text-anchor="start" x="497.7699" y="-410.3" font-family="Times,serif" font-size="10.00" fill="#000000">(synonymes, expressions,</text>
<text text-anchor="start" x="491.2559" y="-400.3" font-family="Times,serif" font-size="10.00" fill="#000000">situations et idées associées)</text>
</g>
<!-- c1&#45;&gt;d1 -->
<g id="edge11" class="edge">
<title>c1&#45;&gt;d1</title>
<path fill="none" stroke="#000000" d="M411.1111,-423.4605C430.7195,-423.9354 458.027,-424.5967 483.172,-425.2056"/>
</g>
<!-- d2 -->
<g id="node12" class="node">
<title>d2</title>
<path fill="#ffffff" stroke="#7f7f7f" d="M623.1077,-380.2017C623.1077,-380.2017 474.91,-380.2017 474.91,-380.2017 468.91,-380.2017 462.91,-374.2017 462.91,-368.2017 462.91,-368.2017 462.91,-345.3983 462.91,-345.3983 462.91,-339.3983 468.91,-333.3983 474.91,-333.3983 474.91,-333.3983 623.1077,-333.3983 623.1077,-333.3983 629.1077,-333.3983 635.1077,-339.3983 635.1077,-345.3983 635.1077,-345.3983 635.1077,-368.2017 635.1077,-368.2017 635.1077,-374.2017 629.1077,-380.2017 623.1077,-380.2017"/>
<text text-anchor="middle" x="549.0089" y="-361.6" font-family="Times,serif" font-size="16.00" fill="#000000">Ça s&#39;oppose à quoi ?</text>
<text text-anchor="middle" x="549.0089" y="-342.4" font-family="Times,serif" font-size="16.00" fill="#000000">C&#39;est différent de quoi ?</text>
</g>
<!-- c2&#45;&gt;d2 -->
<g id="edge12" class="edge">
<title>c2&#45;&gt;d2</title>
<path fill="none" stroke="#000000" d="M411.1111,-358.4697C425.4967,-358.2956 444.0262,-358.0712 462.8056,-357.8438"/>
</g>
<!-- d3 -->
<g id="node13" class="node">
<title>d3</title>
<path fill="#ffffff" stroke="#7f7f7f" d="M605.7467,-318.3C605.7467,-318.3 492.271,-318.3 492.271,-318.3 486.271,-318.3 480.271,-312.3 480.271,-306.3 480.271,-306.3 480.271,-239.3 480.271,-239.3 480.271,-233.3 486.271,-227.3 492.271,-227.3 492.271,-227.3 605.7467,-227.3 605.7467,-227.3 611.7467,-227.3 617.7467,-233.3 617.7467,-239.3 617.7467,-239.3 617.7467,-306.3 617.7467,-306.3 617.7467,-312.3 611.7467,-318.3 605.7467,-318.3"/>
<text text-anchor="start" x="498.3537" y="-300.9" font-family="Times,serif" font-size="16.00" fill="#000000">Quelles sont les</text>
<text text-anchor="start" x="503.6961" y="-284.9" font-family="Times,serif" font-size="16.00" fill="#000000">connaissances</text>
<text text-anchor="start" x="488.1401" y="-268.9" font-family="Times,serif" font-size="16.00" fill="#000000">utiles sur ce sujet ?</text>
<text text-anchor="start" x="504.9364" y="-253.3" font-family="Times,serif" font-size="10.00" fill="#000000">(séquences, chapitres,</text>
<text text-anchor="start" x="493.3319" y="-243.3" font-family="Times,serif" font-size="10.00" fill="#000000">auteurs, thèses, arguments,</text>
<text text-anchor="start" x="504.5799" y="-233.3" font-family="Times,serif" font-size="10.00" fill="#000000">concepts, problèmes)</text>
</g>
<!-- c3&#45;&gt;d3 -->
<g id="edge13" class="edge">
<title>c3&#45;&gt;d3</title>
<path fill="none" stroke="#000000" d="M411.1111,-271.9651C429.8949,-272.0789 455.7437,-272.2353 479.9888,-272.3821"/>
</g>
<!-- d4 -->
<g id="node14" class="node">
<title>d4</title>
<path fill="#ffffff" stroke="#7f7f7f" d="M599.4159,-213.3C599.4159,-213.3 498.6018,-213.3 498.6018,-213.3 492.6018,-213.3 486.6018,-207.3 486.6018,-201.3 486.6018,-201.3 486.6018,-150.3 486.6018,-150.3 486.6018,-144.3 492.6018,-138.3 498.6018,-138.3 498.6018,-138.3 599.4159,-138.3 599.4159,-138.3 605.4159,-138.3 611.4159,-144.3 611.4159,-150.3 611.4159,-150.3 611.4159,-201.3 611.4159,-201.3 611.4159,-207.3 605.4159,-213.3 599.4159,-213.3"/>
<text text-anchor="start" x="498.1369" y="-195.9" font-family="Times,serif" font-size="16.00" fill="#000000">Quels exemples</text>
<text text-anchor="start" x="494.8057" y="-179.9" font-family="Times,serif" font-size="16.00" fill="#000000">peut&#45;on donner ?</text>
<text text-anchor="start" x="504.8564" y="-164.3" font-family="Times,serif" font-size="10.00" fill="#000000">(situations concrètes,</text>
<text text-anchor="start" x="510.7619" y="-154.3" font-family="Times,serif" font-size="10.00" fill="#000000">réelles ou fictives ;</text>
<text text-anchor="start" x="503.6109" y="-144.3" font-family="Times,serif" font-size="10.00" fill="#000000">expressions courantes)</text>
</g>
<!-- c4&#45;&gt;d4 -->
<g id="edge14" class="edge">
<title>c4&#45;&gt;d4</title>
<path fill="none" stroke="#000000" d="M411.1111,-207.5251C431.6358,-202.8031 460.5959,-196.1405 486.6819,-190.1391"/>
</g>
<!-- d5 -->
<g id="node15" class="node">
<title>d5</title>
<path fill="#ffffff" stroke="#7f7f7f" d="M442.5834,-154.3C442.5834,-154.3 325.089,-154.3 325.089,-154.3 319.089,-154.3 313.089,-148.3 313.089,-142.3 313.089,-142.3 313.089,-91.3 313.089,-91.3 313.089,-85.3 319.089,-79.3 325.089,-79.3 325.089,-79.3 442.5834,-79.3 442.5834,-79.3 448.5834,-79.3 454.5834,-85.3 454.5834,-91.3 454.5834,-91.3 454.5834,-142.3 454.5834,-142.3 454.5834,-148.3 448.5834,-154.3 442.5834,-154.3"/>
<text text-anchor="start" x="328.8538" y="-136.9" font-family="Times,serif" font-size="16.00" fill="#000000">Quelle définition</text>
<text text-anchor="start" x="329.633" y="-120.9" font-family="Times,serif" font-size="16.00" fill="#000000">peut&#45;on donner ?</text>
<text text-anchor="start" x="320.9627" y="-105.3" font-family="Times,serif" font-size="10.00" fill="#000000">(genre et différence spécifique,</text>
<text text-anchor="start" x="334.0652" y="-95.3" font-family="Times,serif" font-size="10.00" fill="#000000">conditions nécessaires et</text>
<text text-anchor="start" x="338.7087" y="-85.3" font-family="Times,serif" font-size="10.00" fill="#000000">conditions suffisantes)</text>
</g>
<!-- c4&#45;&gt;d5 -->
<!-- c5&#45;&gt;d5 -->
<g id="edge15" class="edge">
<title>c5&#45;&gt;d5</title>
<path fill="none" stroke="#000000" d="M259.5444,-106.9454C274.5091,-108.1319 293.8724,-109.6671 312.8419,-111.1711"/>
</g>
<!-- d6 -->
<g id="node16" class="node">
<title>d6</title>
<path fill="#ffffff" stroke="#7f7f7f" d="M438.5964,-65.4012C438.5964,-65.4012 329.076,-65.4012 329.076,-65.4012 323.076,-65.4012 317.076,-59.4012 317.076,-53.4012 317.076,-53.4012 317.076,-12.1988 317.076,-12.1988 317.076,-6.1988 323.076,-.1988 329.076,-.1988 329.076,-.1988 438.5964,-.1988 438.5964,-.1988 444.5964,-.1988 450.5964,-6.1988 450.5964,-12.1988 450.5964,-12.1988 450.5964,-53.4012 450.5964,-53.4012 450.5964,-59.4012 444.5964,-65.4012 438.5964,-65.4012"/>
<text text-anchor="middle" x="383.8362" y="-47.2" font-family="Times,serif" font-size="16.00" fill="#000000">Peut&#45;on distinguer</text>
<text text-anchor="middle" x="383.8362" y="-28" font-family="Times,serif" font-size="16.00" fill="#000000">plusieurs sens de</text>
<text text-anchor="middle" x="383.8362" y="-8.8" font-family="Times,serif" font-size="16.00" fill="#000000">cette notion ?</text>
</g>
<!-- c6&#45;&gt;d6 -->
<g id="edge16" class="edge">
<title>c6&#45;&gt;d6</title>
<path fill="none" stroke="#000000" d="M259.5444,-37.7273C275.6144,-37.0903 296.7568,-36.2521 317.037,-35.4481"/>
</g>
</g>
</svg>
