<?xml version="1.0" encoding="UTF-8" standalone="no"?>
<!DOCTYPE svg PUBLIC "-//W3C//DTD SVG 1.1//EN"
 "http://www.w3.org/Graphics/SVG/1.1/DTD/svg11.dtd">
<!-- Generated by graphviz version 2.40.1 (20161225.0304)
 -->
<!-- Title: G Pages: 1 -->
<svg width="648pt" height="458pt"
 viewBox="0.00 0.00 647.57 458.23" xmlns="http://www.w3.org/2000/svg" xmlns:xlink="http://www.w3.org/1999/xlink">
<g id="graph0" class="graph" transform="scale(1 1) rotate(0) translate(21.6 436.6272)">
<title>G</title>
<polygon fill="#fafafa" stroke="transparent" points="-21.6,21.6 -21.6,-436.6272 625.9728,-436.6272 625.9728,21.6 -21.6,21.6"/>
<!-- a1 -->
<g id="node1" class="node">
<title>a1</title>
<ellipse fill="#050505" stroke="#000000" cx="316.6288" cy="-378.8234" rx="69.0591" ry="36.4089"/>
<text text-anchor="middle" x="316.6288" y="-384.2234" font-family="Times,serif" font-size="18.00" fill="#ffffff">Taylorisme</text>
<text text-anchor="middle" x="316.6288" y="-362.6234" font-family="Times,serif" font-size="18.00" fill="#ffffff">Fordisme</text>
</g>
<!-- b1 -->
<g id="node2" class="node">
<title>b1</title>
<ellipse fill="#8b0000" stroke="#000000" cx="316.6288" cy="-274.8098" rx="83.8118" ry="32.6206"/>
<text text-anchor="middle" x="316.6288" y="-279.6098" font-family="Times,serif" font-size="16.00" fill="#ffffff">Double division</text>
<text text-anchor="middle" x="316.6288" y="-260.4098" font-family="Times,serif" font-size="16.00" fill="#ffffff">du travail</text>
</g>
<!-- a1&#45;&gt;b1 -->
<g id="edge1" class="edge">
<title>a1&#45;&gt;b1:n</title>
<path fill="none" stroke="#000000" d="M316.6288,-342.6002C316.6288,-334.6283 316.6288,-326.0593 316.6288,-317.6848"/>
<polygon fill="#000000" stroke="#000000" points="320.1289,-317.6195 316.6288,-307.6195 313.1289,-317.6195 320.1289,-317.6195"/>
</g>
<!-- c1 -->
<g id="node3" class="node">
<title>c1</title>
<polygon fill="#ffffff" stroke="#7f7f7f" points="256.8161,-207 122.4415,-207 122.4415,-167 256.8161,-167 256.8161,-207"/>
<text text-anchor="start" x="130.5352" y="-189.6" font-family="Times,serif" font-size="16.00" fill="#000000">Division </text>
<text text-anchor="start" x="189.6472" y="-189.6" font-family="Times,serif" font-weight="bold" font-size="16.00" fill="#000000">verticale</text>
<text text-anchor="start" x="244.7224" y="-189.6" font-family="Times,serif" font-size="16.00" fill="#000000"> </text>
<text text-anchor="start" x="159.1936" y="-173.6" font-family="Times,serif" font-size="16.00" fill="#000000">du travail</text>
</g>
<!-- b1&#45;&gt;c1 -->
<g id="edge2" class="edge">
<title>b1&#45;&gt;c1</title>
<path fill="none" stroke="#000000" d="M275.0443,-246.0576C259.6842,-235.4374 242.3743,-223.469 227.3732,-213.0971"/>
<polygon fill="#000000" stroke="#000000" points="229.0558,-210.0053 218.8399,-207.197 225.0747,-215.763 229.0558,-210.0053"/>
</g>
<!-- c2 -->
<g id="node4" class="node">
<title>c2</title>
<polygon fill="#ffffff" stroke="#7f7f7f" points="519.2136,-207 368.044,-207 368.044,-167 519.2136,-167 519.2136,-207"/>
<text text-anchor="start" x="376.0864" y="-189.6" font-family="Times,serif" font-size="16.00" fill="#000000">Division </text>
<text text-anchor="start" x="435.1984" y="-189.6" font-family="Times,serif" font-weight="bold" font-size="16.00" fill="#000000">horizontale</text>
<text text-anchor="start" x="507.1712" y="-189.6" font-family="Times,serif" font-size="16.00" fill="#000000"> </text>
<text text-anchor="start" x="413.1936" y="-173.6" font-family="Times,serif" font-size="16.00" fill="#000000">du travail</text>
</g>
<!-- b1&#45;&gt;c2 -->
<g id="edge3" class="edge">
<title>b1&#45;&gt;c2</title>
<path fill="none" stroke="#000000" d="M358.2133,-246.0576C373.5734,-235.4374 390.8833,-223.469 405.8844,-213.0971"/>
<polygon fill="#000000" stroke="#000000" points="408.1829,-215.763 414.4177,-207.197 404.2018,-210.0053 408.1829,-215.763"/>
</g>
<!-- c1&#45;&gt;c2 -->
<!-- d1 -->
<g id="node5" class="node">
<title>d1</title>
<path fill="#ffffff" stroke="#7f7f7f" d="M285.3865,-132C285.3865,-132 11.8711,-132 11.8711,-132 5.8711,-132 -.1289,-126 -.1289,-120 -.1289,-120 -.1289,-56 -.1289,-56 -.1289,-50 5.8711,-44 11.8711,-44 11.8711,-44 285.3865,-44 285.3865,-44 291.3865,-44 297.3865,-50 297.3865,-56 297.3865,-56 297.3865,-120 297.3865,-120 297.3865,-126 291.3865,-132 285.3865,-132"/>
<text text-anchor="start" x="40.1008" y="-114.6" font-family="Times,serif" font-size="16.00" fill="#000000">Division entre les </text>
<text text-anchor="start" x="156.9616" y="-114.6" font-family="Times,serif" font-weight="bold" font-size="16.00" fill="#000000">ingénieurs </text>
<text text-anchor="start" x="228.7104" y="-114.6" font-family="Times,serif" font-size="16.00" fill="#000000">, qui</text>
<text text-anchor="start" x="8" y="-98.6" font-family="Times,serif" font-size="16.00" fill="#000000">conçoivent le produit et la manière la plus</text>
<text text-anchor="start" x="26.0248" y="-82.6" font-family="Times,serif" font-size="16.00" fill="#000000">efficace de le produire, et les </text>
<text text-anchor="start" x="214.8088" y="-82.6" font-family="Times,serif" font-weight="bold" font-size="16.00" fill="#000000">ouvriers</text>
<text text-anchor="start" x="267.2328" y="-82.6" font-family="Times,serif" font-size="16.00" fill="#000000">,</text>
<text text-anchor="start" x="32.5504" y="-66.6" font-family="Times,serif" font-size="16.00" fill="#000000">qui doivent simplement exécuter les</text>
<text text-anchor="start" x="38.2272" y="-50.6" font-family="Times,serif" font-size="16.00" fill="#000000">tâches qu&#39;on leur indique de faire</text>
</g>
<!-- c1&#45;&gt;d1 -->
<g id="edge5" class="edge">
<title>c1&#45;&gt;d1</title>
<path fill="none" stroke="#000000" d="M181.3318,-166.9659C178.2406,-159.5017 174.5673,-150.632 170.8182,-141.5792"/>
<polygon fill="#000000" stroke="#000000" points="173.9649,-140.0299 166.9049,-132.1301 167.4976,-142.7083 173.9649,-140.0299"/>
</g>
<!-- d2 -->
<g id="node6" class="node">
<title>d2</title>
<path fill="#ffffff" stroke="#7f7f7f" d="M592.6172,-132C592.6172,-132 322.6404,-132 322.6404,-132 316.6404,-132 310.6404,-126 310.6404,-120 310.6404,-120 310.6404,-56 310.6404,-56 310.6404,-50 316.6404,-44 322.6404,-44 322.6404,-44 592.6172,-44 592.6172,-44 598.6172,-44 604.6172,-50 604.6172,-56 604.6172,-56 604.6172,-120 604.6172,-120 604.6172,-126 598.6172,-132 592.6172,-132"/>
<text text-anchor="start" x="318.8848" y="-114.6" font-family="Times,serif" font-size="16.00" fill="#000000">Décomposition du processus de production</text>
<text text-anchor="start" x="339.0168" y="-98.6" font-family="Times,serif" font-size="16.00" fill="#000000">en une </text>
<text text-anchor="start" x="385.2216" y="-98.6" font-family="Times,serif" font-weight="bold" font-size="16.00" fill="#000000">série d&#39;opérations partielles &#160;</text>
<text text-anchor="start" x="572.2408" y="-98.6" font-family="Times,serif" font-size="16.00" fill="#000000">,</text>
<text text-anchor="start" x="338.7888" y="-82.6" font-family="Times,serif" font-size="16.00" fill="#000000">afin que l&#39;ouvrier n&#39;ait qu&#39;une tâche</text>
<text text-anchor="start" x="328.364" y="-66.6" font-family="Times,serif" font-size="16.00" fill="#000000">élémentaire à accomplir, de la manière</text>
<text text-anchor="start" x="384.3112" y="-50.6" font-family="Times,serif" font-size="16.00" fill="#000000">la plus rapide possible.</text>
</g>
<!-- c2&#45;&gt;d2 -->
<g id="edge6" class="edge">
<title>c2&#45;&gt;d2</title>
<path fill="none" stroke="#000000" d="M446.4619,-166.9659C447.4952,-159.6588 448.719,-151.0049 449.9711,-142.1507"/>
<polygon fill="#000000" stroke="#000000" points="453.4534,-142.5217 451.3882,-132.1301 446.5224,-141.5415 453.4534,-142.5217"/>
</g>
<!-- e1 -->
<g id="node7" class="node">
<title>e1</title>
<path fill="#fafafa" stroke="transparent" d="M541.3016,-36C541.3016,-36 63.956,-36 63.956,-36 57.956,-36 51.956,-30 51.956,-24 51.956,-24 51.956,-12 51.956,-12 51.956,-6 57.956,0 63.956,0 63.956,0 541.3016,0 541.3016,0 547.3016,0 553.3016,-6 553.3016,-12 553.3016,-12 553.3016,-24 553.3016,-24 553.3016,-30 547.3016,-36 541.3016,-36"/>
<text text-anchor="middle" x="302.6288" y="-13.2" font-family="Times,serif" font-size="16.00" fill="#cd2626">⇒ Mécanisation du travail : le travail n&#39;a plus rien de véritablement humain</text>
</g>
<!-- d1&#45;&gt;e1 -->
<!-- d2&#45;&gt;e1 -->
</g>
</svg>
