<?xml version="1.0" encoding="UTF-8" standalone="no"?><!DOCTYPE svg PUBLIC "-//W3C//DTD SVG 1.1//EN" "http://www.w3.org/Graphics/SVG/1.1/DTD/svg11.dtd"><!-- Generated by graphviz version 2.40.1 (20161225.0304)
 --><!-- Title: G Pages: 1 --><svg xmlns="http://www.w3.org/2000/svg" xmlns:xlink="http://www.w3.org/1999/xlink" width="650pt" height="448pt" viewBox="0.00 0.00 649.60 448.03">
<g id="graph0" class="graph" transform="scale(1 1) rotate(0) translate(21.6 426.4272)">
<title>G</title>
<polygon fill="#fafafa" stroke="transparent" points="-21.6,21.6 -21.6,-426.4272 627.9952,-426.4272 627.9952,21.6 -21.6,21.6"/>
<!-- a1 -->
<g id="node1" class="node">
<title>a1</title>
<ellipse fill="#000000" stroke="#000000" cx="318.196" cy="-368.6234" rx="77.3223" ry="36.4089"/>
<text text-anchor="middle" x="318.196" y="-374.0234" font-family="Times,serif" font-size="18.00" fill="#ffffff">Trois thèses</text>
<text text-anchor="middle" x="318.196" y="-352.4234" font-family="Times,serif" font-size="18.00" fill="#ffffff">à distinguer</text>
</g>
<!-- b1 -->
<g id="node2" class="node">
<title>b1</title>
<ellipse fill="#8b0000" stroke="#000000" cx="126.196" cy="-264.6098" rx="79.5962" ry="32.6206"/>
<text text-anchor="middle" x="126.196" y="-269.4098" font-family="Times,serif" font-size="16.00" fill="#ffffff">L'autonomie</text>
<text text-anchor="middle" x="126.196" y="-250.2098" font-family="Times,serif" font-size="16.00" fill="#ffffff">de la technique</text>
</g>
<!-- a1&#45;&gt;b1 -->
<g id="edge1" class="edge">
<title>a1-&gt;b1:n</title>
<path fill="none" stroke="#000000" d="M245.8826,-355.6453C198.2597,-345.2348 142.3418,-328.7759 129.1065,-307.0506"/>
<polygon fill="#000000" stroke="#000000" points="132.4392,-305.9795 126.196,-297.4195 125.7385,-308.0045 132.4392,-305.9795"/>
</g>
<!-- b2 -->
<g id="node3" class="node">
<title>b2</title>
<ellipse fill="#8b0000" stroke="#000000" cx="318.196" cy="-264.6098" rx="88.3718" ry="32.6206"/>
<text text-anchor="middle" x="318.196" y="-269.4098" font-family="Times,serif" font-size="16.00" fill="#ffffff">Le déterminisme</text>
<text text-anchor="middle" x="318.196" y="-250.2098" font-family="Times,serif" font-size="16.00" fill="#ffffff">technique</text>
</g>
<!-- a1&#45;&gt;b2 -->
<g id="edge2" class="edge">
<title>a1-&gt;b2:n</title>
<path fill="none" stroke="#000000" d="M318.196,-332.4002C318.196,-324.4283 318.196,-315.8593 318.196,-307.4848"/>
<polygon fill="#000000" stroke="#000000" points="321.6961,-307.4195 318.196,-297.4195 314.6961,-307.4195 321.6961,-307.4195"/>
</g>
<!-- b3 -->
<g id="node4" class="node">
<title>b3</title>
<ellipse fill="#8b0000" stroke="#000000" cx="513.196" cy="-264.6098" rx="79.5962" ry="32.6206"/>
<text text-anchor="middle" x="513.196" y="-269.4098" font-family="Times,serif" font-size="16.00" fill="#ffffff">La normativité</text>
<text text-anchor="middle" x="513.196" y="-250.2098" font-family="Times,serif" font-size="16.00" fill="#ffffff">de la technique</text>
</g>
<!-- a1&#45;&gt;b3 -->
<g id="edge3" class="edge">
<title>a1-&gt;b3:n</title>
<path fill="none" stroke="#000000" d="M390.8068,-356.0126C439.3179,-345.7203 496.6388,-329.2743 510.211,-307.2154"/>
<polygon fill="#000000" stroke="#000000" points="513.6291,-308.0055 513.196,-297.4195 506.9331,-305.9651 513.6291,-308.0055"/>
</g>
<!-- c1 -->
<g id="node5" class="node">
<title>c1</title>
<polygon fill="#ffffff" stroke="#7f7f7f" points="190.5884,-187.2 -.1964,-187.2 -.1964,-83.2 190.5884,-83.2 190.5884,-187.2"/>
<text text-anchor="middle" x="95.196" y="-168.8" font-family="Times,serif" font-size="16.00" fill="#000000">L'évolution des techniques</text>
<text text-anchor="middle" x="95.196" y="-149.6" font-family="Times,serif" font-size="16.00" fill="#000000">suit une logique propre,</text>
<text text-anchor="middle" x="95.196" y="-130.4" font-family="Times,serif" font-size="16.00" fill="#000000">largement autonome par</text>
<text text-anchor="middle" x="95.196" y="-111.2" font-family="Times,serif" font-size="16.00" fill="#000000">rapport aux tentatives</text>
<text text-anchor="middle" x="95.196" y="-92" font-family="Times,serif" font-size="16.00" fill="#000000">de contrôle humain</text>
</g>
<!-- b1&#45;&gt;c1 -->
<g id="edge4" class="edge">
<title>b1-&gt;c1</title>
<path fill="none" stroke="#000000" d="M118.3734,-231.9542C115.8371,-221.3663 112.9338,-209.2466 110.0598,-197.2489"/>
<polygon fill="#000000" stroke="#000000" points="113.3945,-196.1452 107.6611,-187.2358 106.5871,-197.776 113.3945,-196.1452"/>
</g>
<!-- c2 -->
<g id="node6" class="node">
<title>c2</title>
<polygon fill="#ffffff" stroke="#7f7f7f" points="431.973,-196.9002 204.419,-196.9002 204.419,-73.4998 431.973,-73.4998 431.973,-196.9002"/>
<text text-anchor="middle" x="318.196" y="-178.4" font-family="Times,serif" font-size="16.00" fill="#000000">L'introduction de certains</text>
<text text-anchor="middle" x="318.196" y="-159.2" font-family="Times,serif" font-size="16.00" fill="#000000">dispositifs techniques détermine,</text>
<text text-anchor="middle" x="318.196" y="-140" font-family="Times,serif" font-size="16.00" fill="#000000">ou du moins participe à produire</text>
<text text-anchor="middle" x="318.196" y="-120.8" font-family="Times,serif" font-size="16.00" fill="#000000">des transformations importantes</text>
<text text-anchor="middle" x="318.196" y="-101.6" font-family="Times,serif" font-size="16.00" fill="#000000">de l'économie, de la société,</text>
<text text-anchor="middle" x="318.196" y="-82.4" font-family="Times,serif" font-size="16.00" fill="#000000">voire de l'individu lui-même</text>
</g>
<!-- b2&#45;&gt;c2 -->
<g id="edge5" class="edge">
<title>b2-&gt;c2</title>
<path fill="none" stroke="#000000" d="M318.196,-231.6194C318.196,-223.9765 318.196,-215.5493 318.196,-206.9541"/>
<polygon fill="#000000" stroke="#000000" points="321.6961,-206.824 318.196,-196.824 314.6961,-206.824 321.6961,-206.824"/>
</g>
<!-- c3 -->
<g id="node7" class="node">
<title>c3</title>
<polygon fill="#ffffff" stroke="#7f7f7f" points="606.5949,-177.5002 445.7971,-177.5002 445.7971,-92.8998 606.5949,-92.8998 606.5949,-177.5002"/>
<text text-anchor="middle" x="526.196" y="-159.2" font-family="Times,serif" font-size="16.00" fill="#000000">Le design même d'un</text>
<text text-anchor="middle" x="526.196" y="-140" font-family="Times,serif" font-size="16.00" fill="#000000">dispositif technique</text>
<text text-anchor="middle" x="526.196" y="-120.8" font-family="Times,serif" font-size="16.00" fill="#000000">est porteur de valeurs</text>
<text text-anchor="middle" x="526.196" y="-101.6" font-family="Times,serif" font-size="16.00" fill="#000000">ou de normes</text>
</g>
<!-- b3&#45;&gt;c3 -->
<g id="edge6" class="edge">
<title>b3-&gt;c3</title>
<path fill="none" stroke="#000000" d="M516.5101,-231.6194C517.8425,-218.3554 519.4123,-202.7293 520.8957,-187.9628"/>
<polygon fill="#000000" stroke="#000000" points="524.3877,-188.2166 521.9048,-177.9168 517.4227,-187.5169 524.3877,-188.2166"/>
</g>
<!-- e1 -->
<g id="node8" class="node">
<title>e1</title>
<path fill="#fafafa" stroke="transparent" d="M585.221,-65.4012C585.221,-65.4012 51.171,-65.4012 51.171,-65.4012 45.171,-65.4012 39.171,-59.4012 39.171,-53.4012 39.171,-53.4012 39.171,-12.1988 39.171,-12.1988 39.171,-6.1988 45.171,-.1988 51.171,-.1988 51.171,-.1988 585.221,-.1988 585.221,-.1988 591.221,-.1988 597.221,-6.1988 597.221,-12.1988 597.221,-12.1988 597.221,-53.4012 597.221,-53.4012 597.221,-59.4012 591.221,-65.4012 585.221,-65.4012"/>
<text text-anchor="middle" x="318.196" y="-47.2" font-family="Times,serif" font-size="16.00" fill="#cd2626">Points communs entre ces trois thèses : 1) la critique de la conception instrumentale</text>
<text text-anchor="middle" x="318.196" y="-28" font-family="Times,serif" font-size="16.00" fill="#cd2626">de la technique (l'idée que la technique n'est qu'un moyen à notre disposition),</text>
<text text-anchor="middle" x="318.196" y="-8.8" font-family="Times,serif" font-size="16.00" fill="#cd2626">2) la critique de la neutralité de la technique (l'idée que tout dépend de l'usage )</text>
</g>
<!-- c1&#45;&gt;e1 -->
<!-- c2&#45;&gt;e1 -->
<!-- c3&#45;&gt;e1 -->
</g>
</svg>