<?xml version="1.0" encoding="UTF-8" standalone="no"?>
<!DOCTYPE svg PUBLIC "-//W3C//DTD SVG 1.1//EN"
 "http://www.w3.org/Graphics/SVG/1.1/DTD/svg11.dtd">
<!-- Generated by graphviz version 2.40.1 (20161225.0304)
 -->
<!-- Title: G Pages: 1 -->
<svg width="484pt" height="298pt"
 viewBox="0.00 0.00 484.41 297.63" xmlns="http://www.w3.org/2000/svg" xmlns:xlink="http://www.w3.org/1999/xlink">
<g id="graph0" class="graph" transform="scale(1 1) rotate(0) translate(21.6 276.0272)">
<title>G</title>
<polygon fill="#fafafa" stroke="transparent" points="-21.6,21.6 -21.6,-276.0272 462.811,-276.0272 462.811,21.6 -21.6,21.6"/>
<!-- a1 -->
<g id="node1" class="node">
<title>a1</title>
<ellipse fill="#050505" stroke="#000000" cx="206.8518" cy="-218.2234" rx="79.1892" ry="36.4089"/>
<text text-anchor="middle" x="206.8518" y="-223.6234" font-family="Times,serif" font-size="18.00" fill="#ffffff">Trois formes</text>
<text text-anchor="middle" x="206.8518" y="-202.0234" font-family="Times,serif" font-size="18.00" fill="#ffffff">d&#39;esthétiques</text>
</g>
<!-- b1 -->
<g id="node2" class="node">
<title>b1</title>
<ellipse fill="#8b0000" stroke="#000000" cx="59.8518" cy="-114.2098" rx="59.7039" ry="32.6206"/>
<text text-anchor="middle" x="59.8518" y="-119.0098" font-family="Times,serif" font-size="16.00" fill="#ffffff">Esthétique</text>
<text text-anchor="middle" x="59.8518" y="-99.8098" font-family="Times,serif" font-size="16.00" fill="#ffffff">du Beau</text>
</g>
<!-- a1&#45;&gt;b1 -->
<g id="edge1" class="edge">
<title>a1&#45;&gt;b1:n</title>
<path fill="none" stroke="#000000" d="M139.8043,-198.5168C107.6981,-187.3678 73.9371,-172.5433 63.2802,-156.8659"/>
<polygon fill="#000000" stroke="#000000" points="66.4455,-155.3125 59.8518,-147.0195 59.8347,-157.6143 66.4455,-155.3125"/>
</g>
<!-- b2 -->
<g id="node3" class="node">
<title>b2</title>
<ellipse fill="#8b0000" stroke="#000000" cx="206.8518" cy="-114.2098" rx="59.7039" ry="32.6206"/>
<text text-anchor="middle" x="206.8518" y="-119.0098" font-family="Times,serif" font-size="16.00" fill="#ffffff">Esthétique</text>
<text text-anchor="middle" x="206.8518" y="-99.8098" font-family="Times,serif" font-size="16.00" fill="#ffffff">du génie</text>
</g>
<!-- a1&#45;&gt;b2 -->
<g id="edge2" class="edge">
<title>a1&#45;&gt;b2:n</title>
<path fill="none" stroke="#000000" d="M206.8518,-182.0002C206.8518,-174.0283 206.8518,-165.4593 206.8518,-157.0848"/>
<polygon fill="#000000" stroke="#000000" points="210.3519,-157.0195 206.8518,-147.0195 203.3519,-157.0195 210.3519,-157.0195"/>
</g>
<!-- b3 -->
<g id="node4" class="node">
<title>b3</title>
<ellipse fill="#8b0000" stroke="#000000" cx="367.8518" cy="-114.2098" rx="73.2187" ry="32.6206"/>
<text text-anchor="middle" x="367.8518" y="-119.0098" font-family="Times,serif" font-size="16.00" fill="#ffffff">Esthétique de</text>
<text text-anchor="middle" x="367.8518" y="-99.8098" font-family="Times,serif" font-size="16.00" fill="#ffffff">la réception</text>
</g>
<!-- a1&#45;&gt;b3 -->
<g id="edge3" class="edge">
<title>a1&#45;&gt;b3:n</title>
<path fill="none" stroke="#000000" d="M276.5323,-200.6509C313.2457,-189.6098 353.0169,-174.196 364.549,-156.8437"/>
<polygon fill="#000000" stroke="#000000" points="367.9826,-157.6135 367.8518,-147.0195 361.3476,-155.3829 367.9826,-157.6135"/>
</g>
<!-- b1&#45;&gt;b2 -->
<!-- c1 -->
<g id="node5" class="node">
<title>c1</title>
<polygon fill="#ffffff" stroke="#7f7f7f" points="107.8438,-46.6017 11.8598,-46.6017 11.8598,.2017 107.8438,.2017 107.8438,-46.6017"/>
<text text-anchor="middle" x="59.8518" y="-28" font-family="Times,serif" font-size="16.00" fill="#000000">Point de vue</text>
<text text-anchor="middle" x="59.8518" y="-8.8" font-family="Times,serif" font-size="16.00" fill="#000000">de l&#39;œuvre</text>
</g>
<!-- b1&#45;&gt;c1 -->
<g id="edge6" class="edge">
<title>b1&#45;&gt;c1</title>
<path fill="none" stroke="#000000" d="M59.8518,-81.3531C59.8518,-73.3523 59.8518,-64.7847 59.8518,-56.752"/>
<polygon fill="#000000" stroke="#000000" points="63.3519,-56.5929 59.8518,-46.5929 56.3519,-56.593 63.3519,-56.5929"/>
</g>
<!-- b2&#45;&gt;b3 -->
<!-- c2 -->
<g id="node6" class="node">
<title>c2</title>
<polygon fill="#ffffff" stroke="#7f7f7f" points="254.8438,-46.6017 158.8598,-46.6017 158.8598,.2017 254.8438,.2017 254.8438,-46.6017"/>
<text text-anchor="middle" x="206.8518" y="-28" font-family="Times,serif" font-size="16.00" fill="#000000">Point de vue</text>
<text text-anchor="middle" x="206.8518" y="-8.8" font-family="Times,serif" font-size="16.00" fill="#000000">de l&#39;artiste</text>
</g>
<!-- b2&#45;&gt;c2 -->
<g id="edge7" class="edge">
<title>b2&#45;&gt;c2</title>
<path fill="none" stroke="#000000" d="M206.8518,-81.3531C206.8518,-73.3523 206.8518,-64.7847 206.8518,-56.752"/>
<polygon fill="#000000" stroke="#000000" points="210.3519,-56.5929 206.8518,-46.5929 203.3519,-56.593 210.3519,-56.5929"/>
</g>
<!-- c3 -->
<g id="node7" class="node">
<title>c3</title>
<polygon fill="#ffffff" stroke="#7f7f7f" points="424.2509,-46.6017 311.4527,-46.6017 311.4527,.2017 424.2509,.2017 424.2509,-46.6017"/>
<text text-anchor="middle" x="367.8518" y="-28" font-family="Times,serif" font-size="16.00" fill="#000000">Point de vue</text>
<text text-anchor="middle" x="367.8518" y="-8.8" font-family="Times,serif" font-size="16.00" fill="#000000">des spectateurs</text>
</g>
<!-- b3&#45;&gt;c3 -->
<g id="edge8" class="edge">
<title>b3&#45;&gt;c3</title>
<path fill="none" stroke="#000000" d="M367.8518,-81.3531C367.8518,-73.3523 367.8518,-64.7847 367.8518,-56.752"/>
<polygon fill="#000000" stroke="#000000" points="371.3519,-56.5929 367.8518,-46.5929 364.3519,-56.593 371.3519,-56.5929"/>
</g>
</g>
</svg>
