<?xml version="1.0" encoding="UTF-8" standalone="no"?>
<!DOCTYPE svg PUBLIC "-//W3C//DTD SVG 1.1//EN"
 "http://www.w3.org/Graphics/SVG/1.1/DTD/svg11.dtd">
<!-- Generated by graphviz version 2.40.1 (20161225.0304)
 -->
<!-- Title: G Pages: 1 -->
<svg width="929pt" height="617pt"
 viewBox="0.00 0.00 928.98 617.38" xmlns="http://www.w3.org/2000/svg" xmlns:xlink="http://www.w3.org/1999/xlink">
<g id="graph0" class="graph" transform="scale(1 1) rotate(0) translate(21.6 595.7801)">
<title>G</title>
<polygon fill="#fafafa" stroke="transparent" points="-21.6,21.6 -21.6,-595.7801 907.3824,-595.7801 907.3824,21.6 -21.6,21.6"/>
<!-- a1 -->
<g id="node1" class="node">
<title>a1</title>
<ellipse fill="#050505" stroke="#000000" cx="375.4064" cy="-537.9763" rx="81.6557" ry="36.4089"/>
<text text-anchor="middle" x="375.4064" y="-543.3763" font-family="Times,serif" font-size="18.00" fill="#ffffff">Trois vagues</text>
<text text-anchor="middle" x="375.4064" y="-521.7763" font-family="Times,serif" font-size="18.00" fill="#ffffff">du féminisme</text>
</g>
<!-- b1 -->
<g id="node2" class="node">
<title>b1</title>
<ellipse fill="#8b0000" stroke="#000000" cx="141.4064" cy="-420.3862" rx="56.5964" ry="32.6206"/>
<text text-anchor="middle" x="141.4064" y="-425.1862" font-family="Times,serif" font-size="16.00" fill="#ffffff">Première</text>
<text text-anchor="middle" x="141.4064" y="-405.9862" font-family="Times,serif" font-size="16.00" fill="#ffffff">vague</text>
</g>
<!-- a1&#45;&gt;b1 -->
<g id="edge1" class="edge">
<title>a1&#45;&gt;b1:n</title>
<path fill="none" stroke="#000000" d="M298.4619,-525.2171C236.9203,-512.9836 158.5637,-492.0838 143.8465,-463.0852"/>
<polygon fill="#000000" stroke="#000000" points="147.2405,-462.23 141.4064,-453.3862 140.4521,-463.938 147.2405,-462.23"/>
</g>
<!-- b2 -->
<g id="node3" class="node">
<title>b2</title>
<ellipse fill="#8b0000" stroke="#000000" cx="375.4064" cy="-420.3862" rx="62.4153" ry="32.6206"/>
<text text-anchor="middle" x="375.4064" y="-425.1862" font-family="Times,serif" font-size="16.00" fill="#ffffff">Deuxième</text>
<text text-anchor="middle" x="375.4064" y="-405.9862" font-family="Times,serif" font-size="16.00" fill="#ffffff">vague</text>
</g>
<!-- a1&#45;&gt;b2 -->
<g id="edge2" class="edge">
<title>a1&#45;&gt;b2:n</title>
<path fill="none" stroke="#000000" d="M375.4064,-501.7522C375.4064,-489.9384 375.4064,-476.5298 375.4064,-463.6066"/>
<polygon fill="#000000" stroke="#000000" points="378.9065,-463.3862 375.4064,-453.3862 371.9065,-463.3862 378.9065,-463.3862"/>
</g>
<!-- b3 -->
<g id="node4" class="node">
<title>b3</title>
<ellipse fill="#8b0000" stroke="#000000" cx="673.4064" cy="-420.3862" rx="91.3522" ry="46.2727"/>
<text text-anchor="middle" x="673.4064" y="-434.7862" font-family="Times,serif" font-size="16.00" fill="#ffffff">Troisième vague</text>
<text text-anchor="middle" x="673.4064" y="-415.5862" font-family="Times,serif" font-size="16.00" fill="#ffffff">et féminismes</text>
<text text-anchor="middle" x="673.4064" y="-396.3862" font-family="Times,serif" font-size="16.00" fill="#ffffff">contemporains</text>
</g>
<!-- a1&#45;&gt;b3 -->
<g id="edge3" class="edge">
<title>a1&#45;&gt;b3:n</title>
<path fill="none" stroke="#000000" d="M456.8362,-534.3588C538.1754,-528.6406 653.5984,-513.9997 671.1368,-476.7407"/>
<polygon fill="#000000" stroke="#000000" points="674.599,-477.2999 673.4064,-466.7724 667.7736,-475.7458 674.599,-477.2999"/>
</g>
<!-- b1&#45;&gt;b2 -->
<!-- c1 -->
<g id="node5" class="node">
<title>c1</title>
<polygon fill="#ffffff" stroke="#7f7f7f" points="220.7193,-281.2012 .0935,-281.2012 .0935,-215.9988 220.7193,-215.9988 220.7193,-281.2012"/>
<text text-anchor="middle" x="110.4064" y="-263" font-family="Times,serif" font-size="16.00" fill="#000000">– Lutte pour l&#39;égalité de statut</text>
<text text-anchor="middle" x="110.4064" y="-243.8" font-family="Times,serif" font-size="16.00" fill="#000000">– Luttes pour les droits</text>
<text text-anchor="middle" x="110.4064" y="-224.6" font-family="Times,serif" font-size="16.00" fill="#000000">civils et politiques</text>
</g>
<!-- b1&#45;&gt;c1 -->
<g id="edge6" class="edge">
<title>b1&#45;&gt;c1</title>
<path fill="none" stroke="#000000" d="M135.5026,-387.6702C130.584,-360.4139 123.5399,-321.3794 118.1659,-291.5994"/>
<polygon fill="#000000" stroke="#000000" points="121.5613,-290.7058 116.341,-281.4863 114.6726,-291.949 121.5613,-290.7058"/>
</g>
<!-- b2&#45;&gt;b3 -->
<!-- c2 -->
<g id="node6" class="node">
<title>c2</title>
<polygon fill="#ffffff" stroke="#7f7f7f" points="501.3024,-290.9002 249.5104,-290.9002 249.5104,-206.2998 501.3024,-206.2998 501.3024,-290.9002"/>
<text text-anchor="middle" x="375.4064" y="-272.6" font-family="Times,serif" font-size="16.00" fill="#000000">– Défense de la liberté individuelle</text>
<text text-anchor="middle" x="375.4064" y="-253.4" font-family="Times,serif" font-size="16.00" fill="#000000">et critique des oppressions et de la</text>
<text text-anchor="middle" x="375.4064" y="-234.2" font-family="Times,serif" font-size="16.00" fill="#000000">domination subies dans la vie privée</text>
<text text-anchor="middle" x="375.4064" y="-215" font-family="Times,serif" font-size="16.00" fill="#000000">et la sphère économique et sociale</text>
</g>
<!-- b2&#45;&gt;c2 -->
<g id="edge7" class="edge">
<title>b2&#45;&gt;c2</title>
<path fill="none" stroke="#000000" d="M375.4064,-387.2641C375.4064,-362.8637 375.4064,-329.1867 375.4064,-301.1318"/>
<polygon fill="#000000" stroke="#000000" points="378.9065,-301.0778 375.4064,-291.0778 371.9065,-301.0778 378.9065,-301.0778"/>
</g>
<!-- c3 -->
<g id="node7" class="node">
<title>c3</title>
<polygon fill="#ffffff" stroke="#7f7f7f" points="855.1513,-338.9001 555.6615,-338.9001 555.6615,-158.2999 855.1513,-158.2999 855.1513,-338.9001"/>
<text text-anchor="middle" x="705.4064" y="-320.6" font-family="Times,serif" font-size="16.00" fill="#000000">– Critique des mouvements féministes qui</text>
<text text-anchor="middle" x="705.4064" y="-301.4" font-family="Times,serif" font-size="16.00" fill="#000000">ne prennent pas en compte les femmes</text>
<text text-anchor="middle" x="705.4064" y="-282.2" font-family="Times,serif" font-size="16.00" fill="#000000">non&#45;blanches et non&#45;bourgoises</text>
<text text-anchor="middle" x="705.4064" y="-263" font-family="Times,serif" font-size="16.00" fill="#000000">– Croisement avec d&#39;autres luttes : contre</text>
<text text-anchor="middle" x="705.4064" y="-243.8" font-family="Times,serif" font-size="16.00" fill="#000000">le racisme, la marginalisation des minorités,</text>
<text text-anchor="middle" x="705.4064" y="-224.6" font-family="Times,serif" font-size="16.00" fill="#000000">contre l&#39;homophobie, la transphobie,</text>
<text text-anchor="middle" x="705.4064" y="-205.4" font-family="Times,serif" font-size="16.00" fill="#000000">contre le validisme, pour l&#39;écologie …</text>
<text text-anchor="middle" x="705.4064" y="-186.2" font-family="Times,serif" font-size="16.00" fill="#000000">– Extension de la critique du sexisme, des</text>
<text text-anchor="middle" x="705.4064" y="-167" font-family="Times,serif" font-size="16.00" fill="#000000">normes de genre, de l&#39;hétéronormativité …</text>
</g>
<!-- b3&#45;&gt;c3 -->
<g id="edge8" class="edge">
<title>b3&#45;&gt;c3</title>
<path fill="none" stroke="#000000" d="M682.0661,-373.8984C683.5162,-366.1137 685.069,-357.7777 686.6591,-349.2413"/>
<polygon fill="#000000" stroke="#000000" points="690.1485,-349.6212 688.539,-339.1494 683.2669,-348.3393 690.1485,-349.6212"/>
</g>
<!-- d1 -->
<g id="node8" class="node">
<title>d1</title>
<path fill="#ffffff" stroke="#7f7f7f" d="M174.1642,-103.9002C174.1642,-103.9002 46.6486,-103.9002 46.6486,-103.9002 40.6486,-103.9002 34.6486,-97.9002 34.6486,-91.9002 34.6486,-91.9002 34.6486,-31.2998 34.6486,-31.2998 34.6486,-25.2998 40.6486,-19.2998 46.6486,-19.2998 46.6486,-19.2998 174.1642,-19.2998 174.1642,-19.2998 180.1642,-19.2998 186.1642,-25.2998 186.1642,-31.2998 186.1642,-31.2998 186.1642,-91.9002 186.1642,-91.9002 186.1642,-97.9002 180.1642,-103.9002 174.1642,-103.9002"/>
<text text-anchor="middle" x="110.4064" y="-85.6" font-family="Times,serif" font-size="16.00" fill="#000000">Exemples :</text>
<text text-anchor="middle" x="110.4064" y="-66.4" font-family="Times,serif" font-size="16.00" fill="#000000">accès à l&#39;éducation,</text>
<text text-anchor="middle" x="110.4064" y="-47.2" font-family="Times,serif" font-size="16.00" fill="#000000">droit de vote, liberté</text>
<text text-anchor="middle" x="110.4064" y="-28" font-family="Times,serif" font-size="16.00" fill="#000000">d&#39;expression …</text>
</g>
<!-- c1&#45;&gt;d1 -->
<g id="edge9" class="edge">
<title>c1&#45;&gt;d1</title>
<path fill="none" stroke="#000000" d="M110.4064,-215.5986C110.4064,-187.5934 110.4064,-146.8983 110.4064,-114.3744"/>
<polygon fill="#000000" stroke="#000000" points="113.9065,-114.1282 110.4064,-104.1282 106.9065,-114.1282 113.9065,-114.1282"/>
</g>
<!-- d2 -->
<g id="node9" class="node">
<title>d2</title>
<path fill="#ffffff" stroke="#7f7f7f" d="M505.7001,-123.3002C505.7001,-123.3002 233.1127,-123.3002 233.1127,-123.3002 227.1127,-123.3002 221.1127,-117.3002 221.1127,-111.3002 221.1127,-111.3002 221.1127,-11.8998 221.1127,-11.8998 221.1127,-5.8998 227.1127,.1002 233.1127,.1002 233.1127,.1002 505.7001,.1002 505.7001,.1002 511.7001,.1002 517.7001,-5.8998 517.7001,-11.8998 517.7001,-11.8998 517.7001,-111.3002 517.7001,-111.3002 517.7001,-117.3002 511.7001,-123.3002 505.7001,-123.3002"/>
<text text-anchor="middle" x="369.4064" y="-104.8" font-family="Times,serif" font-size="16.00" fill="#000000">Exemples : droit à l&#39;avortement, accès</text>
<text text-anchor="middle" x="369.4064" y="-85.6" font-family="Times,serif" font-size="16.00" fill="#000000">à la contraception, accès à l&#39;emploi,</text>
<text text-anchor="middle" x="369.4064" y="-66.4" font-family="Times,serif" font-size="16.00" fill="#000000">égalité salariale, dénonciation des</text>
<text text-anchor="middle" x="369.4064" y="-47.2" font-family="Times,serif" font-size="16.00" fill="#000000">inégalités dans le travail domestique,</text>
<text text-anchor="middle" x="369.4064" y="-28" font-family="Times,serif" font-size="16.00" fill="#000000">dénonciation des violences conjugales,</text>
<text text-anchor="middle" x="369.4064" y="-8.8" font-family="Times,serif" font-size="16.00" fill="#000000">du harcèlement, des violences sexuelles …</text>
</g>
<!-- c2&#45;&gt;d2 -->
<g id="edge10" class="edge">
<title>c2&#45;&gt;d2</title>
<path fill="none" stroke="#000000" d="M374.0449,-206.1668C373.3551,-184.6675 372.4985,-157.972 371.71,-133.3944"/>
<polygon fill="#000000" stroke="#000000" points="375.2075,-133.258 371.3885,-123.3754 368.2111,-133.4825 375.2075,-133.258"/>
</g>
<!-- d3 -->
<g id="node10" class="node">
<title>d3</title>
<path fill="#ffffff" stroke="#7f7f7f" d="M873.6585,-123.3002C873.6585,-123.3002 559.1543,-123.3002 559.1543,-123.3002 553.1543,-123.3002 547.1543,-117.3002 547.1543,-111.3002 547.1543,-111.3002 547.1543,-11.8998 547.1543,-11.8998 547.1543,-5.8998 553.1543,.1002 559.1543,.1002 559.1543,.1002 873.6585,.1002 873.6585,.1002 879.6585,.1002 885.6585,-5.8998 885.6585,-11.8998 885.6585,-11.8998 885.6585,-111.3002 885.6585,-111.3002 885.6585,-117.3002 879.6585,-123.3002 873.6585,-123.3002"/>
<text text-anchor="middle" x="716.4064" y="-104.8" font-family="Times,serif" font-size="16.00" fill="#000000">Exemples : extension des luttes précédentes</text>
<text text-anchor="middle" x="716.4064" y="-85.6" font-family="Times,serif" font-size="16.00" fill="#000000">par l&#39;inclusion des voix marginalisées, luttes</text>
<text text-anchor="middle" x="716.4064" y="-66.4" font-family="Times,serif" font-size="16.00" fill="#000000">linguistiques (écriture inclusive), dénonciation</text>
<text text-anchor="middle" x="716.4064" y="-47.2" font-family="Times,serif" font-size="16.00" fill="#000000">plus large des violences contre les femmes</text>
<text text-anchor="middle" x="716.4064" y="-28" font-family="Times,serif" font-size="16.00" fill="#000000">(#MeToo, féminicides), extension des luttes pour </text>
<text text-anchor="middle" x="716.4064" y="-8.8" font-family="Times,serif" font-size="16.00" fill="#000000">la réappropriation par les femmes de leur corps …</text>
</g>
<!-- c3&#45;&gt;d3 -->
<g id="edge11" class="edge">
<title>c3&#45;&gt;d3</title>
<path fill="none" stroke="#000000" d="M710.7292,-158.1127C711.215,-149.8534 711.7027,-141.5626 712.1771,-133.4987"/>
<polygon fill="#000000" stroke="#000000" points="715.6763,-133.6134 712.7696,-123.425 708.6884,-133.2022 715.6763,-133.6134"/>
</g>
</g>
</svg>
