<?xml version="1.0" encoding="UTF-8" standalone="no"?><!DOCTYPE svg PUBLIC "-//W3C//DTD SVG 1.1//EN" "http://www.w3.org/Graphics/SVG/1.1/DTD/svg11.dtd"><!-- Generated by graphviz version 2.40.1 (20161225.0304)
 --><!-- Title: G Pages: 1 --><svg xmlns="http://www.w3.org/2000/svg" xmlns:xlink="http://www.w3.org/1999/xlink" width="775pt" height="582pt" viewBox="0.00 0.00 774.82 582.37">
<g id="graph0" class="graph" transform="scale(1 1) rotate(0) translate(21.6 560.7743)">
<title>G</title>
<polygon fill="#fafafa" stroke="transparent" points="-21.6,21.6 -21.6,-560.7743 753.216,-560.7743 753.216,21.6 -21.6,21.6"/>
<!-- a1 -->
<g id="node1" class="node">
<title>a1</title>
<ellipse fill="#000000" stroke="#000000" cx="354.4296" cy="-487.6969" rx="115.4341" ry="51.4548"/>
<text text-anchor="middle" x="354.4296" y="-503.8969" font-family="Times,serif" font-size="18.00" fill="#ffffff">Trois objections</text>
<text text-anchor="middle" x="354.4296" y="-482.2969" font-family="Times,serif" font-size="18.00" fill="#ffffff">contre le relativisme</text>
<text text-anchor="middle" x="354.4296" y="-460.6969" font-family="Times,serif" font-size="18.00" fill="#ffffff">moral culturel</text>
</g>
<!-- b1 -->
<g id="node2" class="node">
<title>b1</title>
<ellipse fill="#8b0000" stroke="#000000" cx="105.4296" cy="-368.4098" rx="76.1992" ry="32.6206"/>
<text text-anchor="middle" x="105.4296" y="-373.2098" font-family="Times,serif" font-size="16.00" fill="#ffffff">Un fondement</text>
<text text-anchor="middle" x="105.4296" y="-354.0098" font-family="Times,serif" font-size="16.00" fill="#ffffff">confus</text>
</g>
<!-- a1&#45;&gt;b1 -->
<g id="edge1" class="edge">
<title>a1-&gt;b1:n</title>
<path fill="none" stroke="#000000" d="M245.9389,-469.948C185.9155,-457.2794 120.8441,-437.7297 107.7858,-410.9814"/>
<polygon fill="#000000" stroke="#000000" points="111.1783,-410.1191 105.4296,-401.2195 104.3737,-411.7616 111.1783,-410.1191"/>
</g>
<!-- b2 -->
<g id="node3" class="node">
<title>b2</title>
<ellipse fill="#8b0000" stroke="#000000" cx="354.4296" cy="-368.4098" rx="88.8312" ry="32.6206"/>
<text text-anchor="middle" x="354.4296" y="-373.2098" font-family="Times,serif" font-size="16.00" fill="#ffffff">Un raisonnement</text>
<text text-anchor="middle" x="354.4296" y="-354.0098" font-family="Times,serif" font-size="16.00" fill="#ffffff">confus</text>
</g>
<!-- a1&#45;&gt;b2 -->
<g id="edge2" class="edge">
<title>a1-&gt;b2:n</title>
<path fill="none" stroke="#000000" d="M354.4296,-436.0242C354.4296,-427.9665 354.4296,-419.5998 354.4296,-411.4281"/>
<polygon fill="#000000" stroke="#000000" points="357.9297,-411.2195 354.4296,-401.2195 350.9297,-411.2195 357.9297,-411.2195"/>
</g>
<!-- b3 -->
<g id="node4" class="node">
<title>b3</title>
<ellipse fill="#8b0000" stroke="#000000" cx="618.4296" cy="-368.4098" rx="91.626" ry="32.6206"/>
<text text-anchor="middle" x="618.4296" y="-373.2098" font-family="Times,serif" font-size="16.00" fill="#ffffff">Une conséquence</text>
<text text-anchor="middle" x="618.4296" y="-354.0098" font-family="Times,serif" font-size="16.00" fill="#ffffff">inacceptable</text>
</g>
<!-- a1&#45;&gt;b3 -->
<g id="edge3" class="edge">
<title>a1-&gt;b3:n</title>
<path fill="none" stroke="#000000" d="M464.4777,-471.9669C529.5592,-459.7823 601.9658,-440.0746 616.0021,-411.3201"/>
<polygon fill="#000000" stroke="#000000" points="619.4958,-411.7606 618.4296,-401.2195 612.6896,-410.1247 619.4958,-411.7606"/>
</g>
<!-- b1&#45;&gt;b2 -->
<!-- c1 -->
<g id="node5" class="node">
<title>c1</title>
<polygon fill="#ffffff" stroke="#7f7f7f" points="152.6265,-300.6 18.2327,-300.6 18.2327,-196.6 152.6265,-196.6 152.6265,-300.6"/>
<text text-anchor="middle" x="85.4296" y="-282.2" font-family="Times,serif" font-size="16.00" fill="#000000">Une conception</text>
<text text-anchor="middle" x="85.4296" y="-263" font-family="Times,serif" font-size="16.00" fill="#000000">stéréotypée, trop</text>
<text text-anchor="middle" x="85.4296" y="-243.8" font-family="Times,serif" font-size="16.00" fill="#000000">homogène et trop</text>
<text text-anchor="middle" x="85.4296" y="-224.6" font-family="Times,serif" font-size="16.00" fill="#000000">figée de ce qu'est</text>
<text text-anchor="middle" x="85.4296" y="-205.4" font-family="Times,serif" font-size="16.00" fill="#000000">une culture</text>
</g>
<!-- b1&#45;&gt;c1 -->
<g id="edge6" class="edge">
<title>b1-&gt;c1</title>
<path fill="none" stroke="#000000" d="M99.9645,-335.6712C98.6677,-327.9027 97.2418,-319.361 95.8056,-310.7571"/>
<polygon fill="#000000" stroke="#000000" points="99.2207,-309.9583 94.1219,-300.6711 92.3163,-311.111 99.2207,-309.9583"/>
</g>
<!-- b2&#45;&gt;b3 -->
<!-- c2 -->
<g id="node6" class="node">
<title>c2</title>
<polygon fill="#ffffff" stroke="#7f7f7f" points="356.3592,-281.2012 208.5,-281.2012 208.5,-215.9988 356.3592,-215.9988 356.3592,-281.2012"/>
<text text-anchor="middle" x="282.4296" y="-263" font-family="Times,serif" font-size="16.00" fill="#000000">Une confusion entre</text>
<text text-anchor="middle" x="282.4296" y="-243.8" font-family="Times,serif" font-size="16.00" fill="#000000">ce qui est accepté et</text>
<text text-anchor="middle" x="282.4296" y="-224.6" font-family="Times,serif" font-size="16.00" fill="#000000">ce qui est acceptable</text>
</g>
<!-- b2&#45;&gt;c2 -->
<g id="edge7" class="edge">
<title>b2-&gt;c2</title>
<path fill="none" stroke="#000000" d="M335.1349,-336.3029C326.569,-322.049 316.3817,-305.0972 307.2573,-289.9139"/>
<polygon fill="#000000" stroke="#000000" points="310.1791,-287.9809 302.0281,-281.2124 304.1792,-291.5866 310.1791,-287.9809"/>
</g>
<!-- c3 -->
<g id="node7" class="node">
<title>c3</title>
<polygon fill="#ffffff" stroke="#7f7f7f" points="504.1755,-272.0017 378.6837,-272.0017 378.6837,-225.1983 504.1755,-225.1983 504.1755,-272.0017"/>
<text text-anchor="middle" x="441.4296" y="-253.4" font-family="Times,serif" font-size="16.00" fill="#000000">Un raisonnement</text>
<text text-anchor="middle" x="441.4296" y="-234.2" font-family="Times,serif" font-size="16.00" fill="#000000">auto-réfutant</text>
</g>
<!-- b2&#45;&gt;c3 -->
<g id="edge8" class="edge">
<title>b2-&gt;c3</title>
<path fill="none" stroke="#000000" d="M377.5156,-336.6175C390.1478,-319.2213 405.7504,-297.7346 418.3774,-280.3458"/>
<polygon fill="#000000" stroke="#000000" points="421.2672,-282.3227 424.311,-272.1745 415.6031,-278.2096 421.2672,-282.3227"/>
</g>
<!-- c4 -->
<g id="node8" class="node">
<title>c4</title>
<polygon fill="#ffffff" stroke="#7f7f7f" points="688.3816,-281.2012 584.4776,-281.2012 584.4776,-215.9988 688.3816,-215.9988 688.3816,-281.2012"/>
<text text-anchor="middle" x="636.4296" y="-263" font-family="Times,serif" font-size="16.00" fill="#000000">L'acceptation</text>
<text text-anchor="middle" x="636.4296" y="-243.8" font-family="Times,serif" font-size="16.00" fill="#000000">de pratiques</text>
<text text-anchor="middle" x="636.4296" y="-224.6" font-family="Times,serif" font-size="16.00" fill="#000000">intolérables</text>
</g>
<!-- b3&#45;&gt;c4 -->
<g id="edge9" class="edge">
<title>b3-&gt;c4</title>
<path fill="none" stroke="#000000" d="M623.3958,-335.3541C625.4222,-321.8661 627.7927,-306.0884 629.9522,-291.7139"/>
<polygon fill="#000000" stroke="#000000" points="633.4549,-291.9569 631.4796,-281.5478 626.5326,-290.9168 633.4549,-291.9569"/>
</g>
<!-- c1&#45;&gt;c2 -->
<!-- d1 -->
<g id="node9" class="node">
<title>d1</title>
<path fill="#ffffff" stroke="#7f7f7f" d="M148.7889,-132.8C148.7889,-132.8 12.0703,-132.8 12.0703,-132.8 6.0703,-132.8 .0703,-126.8 .0703,-120.8 .0703,-120.8 .0703,-40.8 .0703,-40.8 .0703,-34.8 6.0703,-28.8 12.0703,-28.8 12.0703,-28.8 148.7889,-28.8 148.7889,-28.8 154.7889,-28.8 160.7889,-34.8 160.7889,-40.8 160.7889,-40.8 160.7889,-120.8 160.7889,-120.8 160.7889,-126.8 154.7889,-132.8 148.7889,-132.8"/>
<text text-anchor="middle" x="80.4296" y="-114.4" font-family="Times,serif" font-size="16.00" fill="#000000">Une culture se</text>
<text text-anchor="middle" x="80.4296" y="-95.2" font-family="Times,serif" font-size="16.00" fill="#000000">modifie dans le temps,</text>
<text text-anchor="middle" x="80.4296" y="-76" font-family="Times,serif" font-size="16.00" fill="#000000">et il y a des traditions</text>
<text text-anchor="middle" x="80.4296" y="-56.8" font-family="Times,serif" font-size="16.00" fill="#000000">contestées au sein</text>
<text text-anchor="middle" x="80.4296" y="-37.6" font-family="Times,serif" font-size="16.00" fill="#000000">même d’une culture</text>
</g>
<!-- c1&#45;&gt;d1 -->
<g id="edge11" class="edge">
<title>c1-&gt;d1</title>
<path fill="none" stroke="#000000" d="M83.875,-196.4268C83.3717,-179.538 82.8086,-160.6376 82.2857,-143.0905"/>
<polygon fill="#000000" stroke="#000000" points="85.7796,-142.8322 81.9833,-132.9409 78.7828,-143.0407 85.7796,-142.8322"/>
</g>
<!-- d2 -->
<g id="node10" class="node">
<title>d2</title>
<path fill="#ffffff" stroke="#7f7f7f" d="M327.4982,-142.5002C327.4982,-142.5002 187.361,-142.5002 187.361,-142.5002 181.361,-142.5002 175.361,-136.5002 175.361,-130.5002 175.361,-130.5002 175.361,-31.0998 175.361,-31.0998 175.361,-25.0998 181.361,-19.0998 187.361,-19.0998 187.361,-19.0998 327.4982,-19.0998 327.4982,-19.0998 333.4982,-19.0998 339.4982,-25.0998 339.4982,-31.0998 339.4982,-31.0998 339.4982,-130.5002 339.4982,-130.5002 339.4982,-136.5002 333.4982,-142.5002 327.4982,-142.5002"/>
<text text-anchor="middle" x="257.4296" y="-124" font-family="Times,serif" font-size="16.00" fill="#000000">Le simple fait qu'une</text>
<text text-anchor="middle" x="257.4296" y="-104.8" font-family="Times,serif" font-size="16.00" fill="#000000">pratique soit largement</text>
<text text-anchor="middle" x="257.4296" y="-85.6" font-family="Times,serif" font-size="16.00" fill="#000000">ou depuis longtemps</text>
<text text-anchor="middle" x="257.4296" y="-66.4" font-family="Times,serif" font-size="16.00" fill="#000000">acceptée ne la rend pas</text>
<text text-anchor="middle" x="257.4296" y="-47.2" font-family="Times,serif" font-size="16.00" fill="#000000">pour autant acceptable</text>
<text text-anchor="middle" x="257.4296" y="-28" font-family="Times,serif" font-size="16.00" fill="#000000">et non contestable</text>
</g>
<!-- c2&#45;&gt;d2 -->
<g id="edge12" class="edge">
<title>c2-&gt;d2</title>
<path fill="none" stroke="#000000" d="M277.55,-215.8481C274.8637,-197.8175 271.418,-174.6904 268.14,-152.6885"/>
<polygon fill="#000000" stroke="#000000" points="271.5846,-152.0562 266.6491,-142.6811 264.661,-153.0877 271.5846,-152.0562"/>
</g>
<!-- d3 -->
<g id="node11" class="node">
<title>d3</title>
<path fill="#ffffff" stroke="#7f7f7f" d="M525.3832,-161.4005C525.3832,-161.4005 365.476,-161.4005 365.476,-161.4005 359.476,-161.4005 353.476,-155.4005 353.476,-149.4005 353.476,-149.4005 353.476,-12.1995 353.476,-12.1995 353.476,-6.1995 359.476,-.1995 365.476,-.1995 365.476,-.1995 525.3832,-.1995 525.3832,-.1995 531.3832,-.1995 537.3832,-6.1995 537.3832,-12.1995 537.3832,-12.1995 537.3832,-149.4005 537.3832,-149.4005 537.3832,-155.4005 531.3832,-161.4005 525.3832,-161.4005"/>
<text text-anchor="middle" x="445.4296" y="-143.2" font-family="Times,serif" font-size="16.00" fill="#000000">Le relativisme moral</text>
<text text-anchor="middle" x="445.4296" y="-124" font-family="Times,serif" font-size="16.00" fill="#000000">culturel rejette l'idée</text>
<text text-anchor="middle" x="445.4296" y="-104.8" font-family="Times,serif" font-size="16.00" fill="#000000">d'une vérité morale</text>
<text text-anchor="middle" x="445.4296" y="-85.6" font-family="Times,serif" font-size="16.00" fill="#000000">universelle, mais en</text>
<text text-anchor="middle" x="445.4296" y="-66.4" font-family="Times,serif" font-size="16.00" fill="#000000">reconnaît au moins une</text>
<text text-anchor="middle" x="445.4296" y="-47.2" font-family="Times,serif" font-size="16.00" fill="#000000">implicitement : l'exigence</text>
<text text-anchor="middle" x="445.4296" y="-28" font-family="Times,serif" font-size="16.00" fill="#000000">de la tolérance envers</text>
<text text-anchor="middle" x="445.4296" y="-8.8" font-family="Times,serif" font-size="16.00" fill="#000000">la diversité culturelle</text>
</g>
<!-- c3&#45;&gt;d3 -->
<g id="edge13" class="edge">
<title>c3-&gt;d3</title>
<path fill="none" stroke="#000000" d="M441.9858,-225.2681C442.3274,-210.9392 442.7892,-191.5635 443.2636,-171.6618"/>
<polygon fill="#000000" stroke="#000000" points="446.7653,-171.6319 443.5047,-161.5513 439.7672,-171.4651 446.7653,-171.6319"/>
</g>
<!-- d4 -->
<g id="node12" class="node">
<title>d4</title>
<path fill="#ffffff" stroke="#7f7f7f" d="M719.8028,-161.4005C719.8028,-161.4005 563.0564,-161.4005 563.0564,-161.4005 557.0564,-161.4005 551.0564,-155.4005 551.0564,-149.4005 551.0564,-149.4005 551.0564,-12.1995 551.0564,-12.1995 551.0564,-6.1995 557.0564,-.1995 563.0564,-.1995 563.0564,-.1995 719.8028,-.1995 719.8028,-.1995 725.8028,-.1995 731.8028,-6.1995 731.8028,-12.1995 731.8028,-12.1995 731.8028,-149.4005 731.8028,-149.4005 731.8028,-155.4005 725.8028,-161.4005 719.8028,-161.4005"/>
<text text-anchor="middle" x="641.4296" y="-143.2" font-family="Times,serif" font-size="16.00" fill="#000000">Le relativisme moral</text>
<text text-anchor="middle" x="641.4296" y="-124" font-family="Times,serif" font-size="16.00" fill="#000000">culturel ne fait pas la</text>
<text text-anchor="middle" x="641.4296" y="-104.8" font-family="Times,serif" font-size="16.00" fill="#000000">distinction entre les</text>
<text text-anchor="middle" x="641.4296" y="-85.6" font-family="Times,serif" font-size="16.00" fill="#000000">pratiques simplement</text>
<text text-anchor="middle" x="641.4296" y="-66.4" font-family="Times,serif" font-size="16.00" fill="#000000">contraires aux habitudes</text>
<text text-anchor="middle" x="641.4296" y="-47.2" font-family="Times,serif" font-size="16.00" fill="#000000">sociales, et les pratiques</text>
<text text-anchor="middle" x="641.4296" y="-28" font-family="Times,serif" font-size="16.00" fill="#000000">contraires à des principes</text>
<text text-anchor="middle" x="641.4296" y="-8.8" font-family="Times,serif" font-size="16.00" fill="#000000">moraux fondamentaux</text>
</g>
<!-- c4&#45;&gt;d4 -->
<g id="edge14" class="edge">
<title>c4-&gt;d4</title>
<path fill="none" stroke="#000000" d="M637.4055,-215.8481C637.7879,-203.017 638.2471,-187.6049 638.7164,-171.8541"/>
<polygon fill="#000000" stroke="#000000" points="642.2261,-171.5783 639.0256,-161.4784 635.2292,-171.3697 642.2261,-171.5783"/>
</g>
</g>
</svg>