<?xml version="1.0" encoding="UTF-8" standalone="no"?><!DOCTYPE svg PUBLIC "-//W3C//DTD SVG 1.1//EN" "http://www.w3.org/Graphics/SVG/1.1/DTD/svg11.dtd"><!-- Generated by graphviz version 2.40.1 (20161225.0304)
 --><!-- Title: G Pages: 1 --><svg xmlns="http://www.w3.org/2000/svg" xmlns:xlink="http://www.w3.org/1999/xlink" width="554pt" height="501pt" viewBox="0.00 0.00 554.11 500.82">
<g id="graph0" class="graph" transform="scale(1 1) rotate(0) translate(21.6 479.2214)">
<title>G</title>
<polygon fill="#fafafa" stroke="transparent" points="-21.6,21.6 -21.6,-479.2214 532.5125,-479.2214 532.5125,21.6 -21.6,21.6"/>
<!-- a1 -->
<g id="node1" class="node">
<title>a1</title>
<ellipse fill="#000000" stroke="#000000" cx="247.1733" cy="-406.144" rx="73.7812" ry="51.4548"/>
<text text-anchor="middle" x="247.1733" y="-422.344" font-family="Times,serif" font-size="18.00" fill="#ffffff">Faire de la</text>
<text text-anchor="middle" x="247.1733" y="-400.744" font-family="Times,serif" font-size="18.00" fill="#ffffff">philosophie,</text>
<text text-anchor="middle" x="247.1733" y="-379.144" font-family="Times,serif" font-size="18.00" fill="#ffffff">c'est …</text>
</g>
<!-- b1 -->
<g id="node2" class="node">
<title>b1</title>
<ellipse fill="#8b0000" stroke="#000000" cx="79.1733" cy="-300.4333" rx="79.347" ry="19.4695"/>
<text text-anchor="middle" x="79.1733" y="-295.6333" font-family="Times,serif" font-size="16.00" fill="#ffffff">Conceptualiser</text>
</g>
<!-- a1&#45;&gt;b1 -->
<g id="edge1" class="edge">
<title>a1-&gt;b1:n</title>
<path fill="none" stroke="#000000" d="M173.9748,-396.9527C132.2392,-387.5005 86.8862,-368.3687 80.0546,-329.6932"/>
<polygon fill="#000000" stroke="#000000" points="83.5164,-329.0971 79.1733,-319.4333 76.542,-329.6962 83.5164,-329.0971"/>
</g>
<!-- b2 -->
<g id="node3" class="node">
<title>b2</title>
<ellipse fill="#8b0000" stroke="#000000" cx="247.1733" cy="-300.4333" rx="74.8569" ry="19.4695"/>
<text text-anchor="middle" x="247.1733" y="-295.6333" font-family="Times,serif" font-size="16.00" fill="#ffffff">Problématiser</text>
</g>
<!-- a1&#45;&gt;b2 -->
<g id="edge2" class="edge">
<title>a1-&gt;b2:n</title>
<path fill="none" stroke="#000000" d="M247.1733,-354.4713C247.1733,-346.4136 247.1733,-338.0469 247.1733,-329.8752"/>
<polygon fill="#000000" stroke="#000000" points="250.6734,-329.6666 247.1733,-319.6666 243.6734,-329.6666 250.6734,-329.6666"/>
</g>
<!-- b3 -->
<g id="node4" class="node">
<title>b3</title>
<ellipse fill="#8b0000" stroke="#000000" cx="407.1733" cy="-300.4333" rx="65.9473" ry="19.4695"/>
<text text-anchor="middle" x="407.1733" y="-295.6333" font-family="Times,serif" font-size="16.00" fill="#ffffff">Argumenter</text>
</g>
<!-- a1&#45;&gt;b3 -->
<g id="edge3" class="edge">
<title>a1-&gt;b3:n</title>
<path fill="none" stroke="#000000" d="M319.6831,-395.1721C358.5444,-385.0896 399.7839,-365.9038 406.2882,-329.5858"/>
<polygon fill="#000000" stroke="#000000" points="409.7915,-329.6995 407.1733,-319.4333 402.818,-329.0915 409.7915,-329.6995"/>
</g>
<!-- c1 -->
<g id="node5" class="node">
<title>c1</title>
<polygon fill="#ffffff" stroke="#7f7f7f" points="144.2803,-246.4017 14.0663,-246.4017 14.0663,-199.5983 144.2803,-199.5983 144.2803,-246.4017"/>
<text text-anchor="middle" x="79.1733" y="-227.8" font-family="Times,serif" font-size="16.00" fill="#000000">« Qu'est-ce que</text>
<text text-anchor="middle" x="79.1733" y="-208.6" font-family="Times,serif" font-size="16.00" fill="#000000">cela veut dire ? »</text>
</g>
<!-- b1&#45;&gt;c1 -->
<g id="edge4" class="edge">
<title>b1-&gt;c1</title>
<path fill="none" stroke="#000000" d="M79.1733,-280.8936C79.1733,-273.5222 79.1733,-264.9099 79.1733,-256.6155"/>
<polygon fill="#000000" stroke="#000000" points="82.6734,-256.3966 79.1733,-246.3967 75.6734,-256.3967 82.6734,-256.3966"/>
</g>
<!-- c2 -->
<g id="node6" class="node">
<title>c2</title>
<polygon fill="#ffffff" stroke="#7f7f7f" points="309.3446,-246.4017 175.002,-246.4017 175.002,-199.5983 309.3446,-199.5983 309.3446,-246.4017"/>
<text text-anchor="middle" x="242.1733" y="-227.8" font-family="Times,serif" font-size="16.00" fill="#000000">« Est-ce vraiment</text>
<text text-anchor="middle" x="242.1733" y="-208.6" font-family="Times,serif" font-size="16.00" fill="#000000">si simple ? »</text>
</g>
<!-- b2&#45;&gt;c2 -->
<g id="edge5" class="edge">
<title>b2-&gt;c2</title>
<path fill="none" stroke="#000000" d="M245.9116,-280.8936C245.4356,-273.5222 244.8795,-264.9099 244.3439,-256.6155"/>
<polygon fill="#000000" stroke="#000000" points="247.8213,-256.1503 243.6841,-246.3967 240.8358,-256.6015 247.8213,-256.1503"/>
</g>
<!-- c3 -->
<g id="node7" class="node">
<title>c3</title>
<polygon fill="#ffffff" stroke="#7f7f7f" points="511.1523,-246.4017 323.1943,-246.4017 323.1943,-199.5983 511.1523,-199.5983 511.1523,-246.4017"/>
<text text-anchor="middle" x="417.1733" y="-227.8" font-family="Times,serif" font-size="16.00" fill="#000000">« Qu'est-ce qui permet de</text>
<text text-anchor="middle" x="417.1733" y="-208.6" font-family="Times,serif" font-size="16.00" fill="#000000">défendre cette idée ? »</text>
</g>
<!-- b3&#45;&gt;c3 -->
<g id="edge6" class="edge">
<title>b3-&gt;c3</title>
<path fill="none" stroke="#000000" d="M409.6968,-280.8936C410.6593,-273.4403 411.7857,-264.7184 412.8678,-256.3392"/>
<polygon fill="#000000" stroke="#000000" points="416.3421,-256.7626 414.1518,-246.3967 409.3997,-255.866 416.3421,-256.7626"/>
</g>
<!-- d1 -->
<g id="node8" class="node">
<title>d1</title>
<path fill="#ffffff" stroke="#7f7f7f" d="M130.5868,-155.0012C130.5868,-155.0012 27.7599,-155.0012 27.7599,-155.0012 21.7599,-155.0012 15.7599,-149.0012 15.7599,-143.0012 15.7599,-143.0012 15.7599,-101.7988 15.7599,-101.7988 15.7599,-95.7988 21.7599,-89.7988 27.7599,-89.7988 27.7599,-89.7988 130.5868,-89.7988 130.5868,-89.7988 136.5868,-89.7988 142.5868,-95.7988 142.5868,-101.7988 142.5868,-101.7988 142.5868,-143.0012 142.5868,-143.0012 142.5868,-149.0012 136.5868,-155.0012 130.5868,-155.0012"/>
<text text-anchor="middle" x="79.1733" y="-136.8" font-family="Times,serif" font-size="16.00" fill="#000000">Il faut utiliser</text>
<text text-anchor="middle" x="79.1733" y="-117.6" font-family="Times,serif" font-size="16.00" fill="#000000">des définitions et</text>
<text text-anchor="middle" x="79.1733" y="-98.4" font-family="Times,serif" font-size="16.00" fill="#000000">des distinctions</text>
</g>
<!-- c1&#45;&gt;d1 -->
<g id="edge7" class="edge">
<title>c1-&gt;d1</title>
<path fill="none" stroke="#000000" d="M79.1733,-199.6675C79.1733,-189.4319 79.1733,-177.0811 79.1733,-165.2863"/>
<polygon fill="#000000" stroke="#000000" points="82.6734,-165.1314 79.1733,-155.1315 75.6734,-165.1315 82.6734,-165.1314"/>
</g>
<!-- d2 -->
<g id="node9" class="node">
<title>d2</title>
<path fill="#ffffff" stroke="#7f7f7f" d="M312.5658,-164.7002C312.5658,-164.7002 171.7809,-164.7002 171.7809,-164.7002 165.7809,-164.7002 159.7809,-158.7002 159.7809,-152.7002 159.7809,-152.7002 159.7809,-92.0998 159.7809,-92.0998 159.7809,-86.0998 165.7809,-80.0998 171.7809,-80.0998 171.7809,-80.0998 312.5658,-80.0998 312.5658,-80.0998 318.5658,-80.0998 324.5658,-86.0998 324.5658,-92.0998 324.5658,-92.0998 324.5658,-152.7002 324.5658,-152.7002 324.5658,-158.7002 318.5658,-164.7002 312.5658,-164.7002"/>
<text text-anchor="middle" x="242.1733" y="-146.4" font-family="Times,serif" font-size="16.00" fill="#000000">Il faut questionner</text>
<text text-anchor="middle" x="242.1733" y="-127.2" font-family="Times,serif" font-size="16.00" fill="#000000">ce qui semble évident</text>
<text text-anchor="middle" x="242.1733" y="-108" font-family="Times,serif" font-size="16.00" fill="#000000">et saisir les différentes</text>
<text text-anchor="middle" x="242.1733" y="-88.8" font-family="Times,serif" font-size="16.00" fill="#000000">thèses qui s'affrontent</text>
</g>
<!-- c2&#45;&gt;d2 -->
<g id="edge8" class="edge">
<title>c2-&gt;d2</title>
<path fill="none" stroke="#000000" d="M242.1733,-199.6675C242.1733,-192.2415 242.1733,-183.7023 242.1733,-175.0697"/>
<polygon fill="#000000" stroke="#000000" points="245.6734,-174.9541 242.1733,-164.9541 238.6734,-174.9541 245.6734,-174.9541"/>
</g>
<!-- d3 -->
<g id="node10" class="node">
<title>d3</title>
<path fill="#ffffff" stroke="#7f7f7f" d="M462.2788,-164.7002C462.2788,-164.7002 372.0679,-164.7002 372.0679,-164.7002 366.0679,-164.7002 360.0679,-158.7002 360.0679,-152.7002 360.0679,-152.7002 360.0679,-92.0998 360.0679,-92.0998 360.0679,-86.0998 366.0679,-80.0998 372.0679,-80.0998 372.0679,-80.0998 462.2788,-80.0998 462.2788,-80.0998 468.2788,-80.0998 474.2788,-86.0998 474.2788,-92.0998 474.2788,-92.0998 474.2788,-152.7002 474.2788,-152.7002 474.2788,-158.7002 468.2788,-164.7002 462.2788,-164.7002"/>
<text text-anchor="middle" x="417.1733" y="-146.4" font-family="Times,serif" font-size="16.00" fill="#000000">Il faut arriver à</text>
<text text-anchor="middle" x="417.1733" y="-127.2" font-family="Times,serif" font-size="16.00" fill="#000000">construire un</text>
<text text-anchor="middle" x="417.1733" y="-108" font-family="Times,serif" font-size="16.00" fill="#000000">raisonnement</text>
<text text-anchor="middle" x="417.1733" y="-88.8" font-family="Times,serif" font-size="16.00" fill="#000000">convaincant</text>
</g>
<!-- c3&#45;&gt;d3 -->
<g id="edge9" class="edge">
<title>c3-&gt;d3</title>
<path fill="none" stroke="#000000" d="M417.1733,-199.6675C417.1733,-192.2415 417.1733,-183.7023 417.1733,-175.0697"/>
<polygon fill="#000000" stroke="#000000" points="420.6734,-174.9541 417.1733,-164.9541 413.6734,-174.9541 420.6734,-174.9541"/>
</g>
<!-- e1 -->
<g id="node11" class="node">
<title>e1</title>
<path fill="#fafafa" stroke="transparent" d="M142.5382,-72C142.5382,-72 15.8085,-72 15.8085,-72 9.8085,-72 3.8085,-66 3.8085,-60 3.8085,-60 3.8085,-12 3.8085,-12 3.8085,-6 9.8085,0 15.8085,0 15.8085,0 142.5382,0 142.5382,0 148.5382,0 154.5382,-6 154.5382,-12 154.5382,-12 154.5382,-60 154.5382,-60 154.5382,-66 148.5382,-72 142.5382,-72"/>
<text text-anchor="start" x="36.7442" y="-56.4" font-family="Times,serif" font-size="14.00" fill="#cd2626">= une exigence</text>
<text text-anchor="start" x="11.7409" y="-42.4" font-family="Times,serif" font-size="14.00" fill="#cd2626">de clarté et de précision</text>
<text text-anchor="start" x="35.1587" y="-20.4" font-family="Times,serif" font-size="14.00" fill="#cd2626">(refus des idées</text>
<text text-anchor="start" x="24.364" y="-6.4" font-family="Times,serif" font-size="14.00" fill="#cd2626">vagues et confuses)</text>
</g>
<!-- d1&#45;&gt;e1 -->
<!-- e2 -->
<g id="node12" class="node">
<title>e2</title>
<path fill="#fafafa" stroke="transparent" d="M293.7373,-72C293.7373,-72 190.6094,-72 190.6094,-72 184.6094,-72 178.6094,-66 178.6094,-60 178.6094,-60 178.6094,-12 178.6094,-12 178.6094,-6 184.6094,0 190.6094,0 190.6094,0 293.7373,0 293.7373,0 299.7373,0 305.7373,-6 305.7373,-12 305.7373,-12 305.7373,-60 305.7373,-60 305.7373,-66 299.7373,-72 293.7373,-72"/>
<text text-anchor="start" x="199.7442" y="-56.4" font-family="Times,serif" font-size="14.00" fill="#cd2626">= une exigence</text>
<text text-anchor="start" x="186.3917" y="-42.4" font-family="Times,serif" font-size="14.00" fill="#cd2626">d'ouverture d'esprit</text>
<text text-anchor="start" x="198.1587" y="-20.4" font-family="Times,serif" font-size="14.00" fill="#cd2626">(refus des idées</text>
<text text-anchor="start" x="205.732" y="-6.4" font-family="Times,serif" font-size="14.00" fill="#cd2626">trop étroites)</text>
</g>
<!-- d2&#45;&gt;e2 -->
<!-- e3 -->
<g id="node13" class="node">
<title>e3</title>
<path fill="#fafafa" stroke="transparent" d="M457.2025,-72C457.2025,-72 377.1441,-72 377.1441,-72 371.1441,-72 365.1441,-66 365.1441,-60 365.1441,-60 365.1441,-12 365.1441,-12 365.1441,-6 371.1441,0 377.1441,0 377.1441,0 457.2025,0 457.2025,0 463.2025,0 469.2025,-6 469.2025,-12 469.2025,-12 469.2025,-60 469.2025,-60 469.2025,-66 463.2025,-72 457.2025,-72"/>
<text text-anchor="start" x="374.7442" y="-56.4" font-family="Times,serif" font-size="14.00" fill="#cd2626">= une exigence</text>
<text text-anchor="start" x="379.955" y="-42.4" font-family="Times,serif" font-size="14.00" fill="#cd2626">de rationalité</text>
<text text-anchor="start" x="373.1587" y="-20.4" font-family="Times,serif" font-size="14.00" fill="#cd2626">(refus des idées</text>
<text text-anchor="start" x="376.84" y="-6.4" font-family="Times,serif" font-size="14.00" fill="#cd2626">non justifiées)</text>
</g>
<!-- d3&#45;&gt;e3 -->
</g>
</svg>