<?xml version="1.0" encoding="UTF-8" standalone="no"?>
<!DOCTYPE svg PUBLIC "-//W3C//DTD SVG 1.1//EN"
 "http://www.w3.org/Graphics/SVG/1.1/DTD/svg11.dtd">
<!-- Generated by graphviz version 2.40.1 (20161225.0304)
 -->
<!-- Title: G Pages: 1 -->
<svg width="800pt" height="513pt"
 viewBox="0.00 0.00 800.34 513.43" xmlns="http://www.w3.org/2000/svg" xmlns:xlink="http://www.w3.org/1999/xlink">
<g id="graph0" class="graph" transform="scale(1 1) rotate(0) translate(21.6 491.8272)">
<title>G</title>
<polygon fill="#fafafa" stroke="transparent" points="-21.6,21.6 -21.6,-491.8272 778.7392,-491.8272 778.7392,21.6 -21.6,21.6"/>
<!-- a1 -->
<g id="node1" class="node">
<title>a1</title>
<ellipse fill="#050505" stroke="#000000" cx="328.6288" cy="-434.0234" rx="81.6557" ry="36.4089"/>
<text text-anchor="middle" x="328.6288" y="-439.4234" font-family="Times,serif" font-size="18.00" fill="#ffffff">Trois vagues</text>
<text text-anchor="middle" x="328.6288" y="-417.8234" font-family="Times,serif" font-size="18.00" fill="#ffffff">du féminisme</text>
</g>
<!-- b1 -->
<g id="node2" class="node">
<title>b1</title>
<ellipse fill="#8b0000" stroke="#000000" cx="94.6288" cy="-330.0098" rx="56.5964" ry="32.6206"/>
<text text-anchor="middle" x="94.6288" y="-334.8098" font-family="Times,serif" font-size="16.00" fill="#ffffff">Première</text>
<text text-anchor="middle" x="94.6288" y="-315.6098" font-family="Times,serif" font-size="16.00" fill="#ffffff">vague</text>
</g>
<!-- a1&#45;&gt;b1 -->
<g id="edge1" class="edge">
<title>a1&#45;&gt;b1:n</title>
<path fill="none" stroke="#000000" d="M249.0806,-425.0312C188.3983,-416.1253 112.6902,-399.833 97.3956,-372.8249"/>
<polygon fill="#000000" stroke="#000000" points="100.6675,-371.5249 94.6288,-362.8195 93.9207,-373.3907 100.6675,-371.5249"/>
</g>
<!-- b2 -->
<g id="node3" class="node">
<title>b2</title>
<ellipse fill="#8b0000" stroke="#000000" cx="328.6288" cy="-330.0098" rx="62.4153" ry="32.6206"/>
<text text-anchor="middle" x="328.6288" y="-334.8098" font-family="Times,serif" font-size="16.00" fill="#ffffff">Deuxième</text>
<text text-anchor="middle" x="328.6288" y="-315.6098" font-family="Times,serif" font-size="16.00" fill="#ffffff">vague</text>
</g>
<!-- a1&#45;&gt;b2 -->
<g id="edge2" class="edge">
<title>a1&#45;&gt;b2:n</title>
<path fill="none" stroke="#000000" d="M328.6288,-397.8002C328.6288,-389.8283 328.6288,-381.2593 328.6288,-372.8848"/>
<polygon fill="#000000" stroke="#000000" points="332.1289,-372.8195 328.6288,-362.8195 325.1289,-372.8195 332.1289,-372.8195"/>
</g>
<!-- b3 -->
<g id="node4" class="node">
<title>b3</title>
<ellipse fill="#8b0000" stroke="#000000" cx="596.6288" cy="-330.0098" rx="61.6657" ry="32.6206"/>
<text text-anchor="middle" x="596.6288" y="-334.8098" font-family="Times,serif" font-size="16.00" fill="#ffffff">Troisième</text>
<text text-anchor="middle" x="596.6288" y="-315.6098" font-family="Times,serif" font-size="16.00" fill="#ffffff">vague</text>
</g>
<!-- a1&#45;&gt;b3 -->
<g id="edge3" class="edge">
<title>a1&#45;&gt;b3:n</title>
<path fill="none" stroke="#000000" d="M409.4011,-428.1572C481.2221,-420.8583 577.4029,-405.1733 594.1057,-372.8771"/>
<polygon fill="#000000" stroke="#000000" points="597.5903,-373.3706 596.6288,-362.8195 590.8007,-371.6673 597.5903,-373.3706"/>
</g>
<!-- b1&#45;&gt;b2 -->
<!-- c1 -->
<g id="node5" class="node">
<title>c1</title>
<polygon fill="#ffffff" stroke="#7f7f7f" points="151.3491,-252.5002 9.9085,-252.5002 9.9085,-167.8998 151.3491,-167.8998 151.3491,-252.5002"/>
<text text-anchor="middle" x="80.6288" y="-234.2" font-family="Times,serif" font-size="16.00" fill="#000000">Lutte pour l&#39;égalité</text>
<text text-anchor="middle" x="80.6288" y="-215" font-family="Times,serif" font-size="16.00" fill="#000000">de statut et pour</text>
<text text-anchor="middle" x="80.6288" y="-195.8" font-family="Times,serif" font-size="16.00" fill="#000000">les droits civils</text>
<text text-anchor="middle" x="80.6288" y="-176.6" font-family="Times,serif" font-size="16.00" fill="#000000">et politiques</text>
</g>
<!-- b1&#45;&gt;c1 -->
<g id="edge6" class="edge">
<title>b1&#45;&gt;c1</title>
<path fill="none" stroke="#000000" d="M90.8032,-297.2712C89.5634,-286.661 88.155,-274.6083 86.7898,-262.9252"/>
<polygon fill="#000000" stroke="#000000" points="90.2436,-262.3251 85.6066,-252.7989 83.2909,-263.1376 90.2436,-262.3251"/>
</g>
<!-- b2&#45;&gt;b3 -->
<!-- c2 -->
<g id="node6" class="node">
<title>c2</title>
<polygon fill="#ffffff" stroke="#7f7f7f" points="454.0131,-252.5002 203.2445,-252.5002 203.2445,-167.8998 454.0131,-167.8998 454.0131,-252.5002"/>
<text text-anchor="middle" x="328.6288" y="-234.2" font-family="Times,serif" font-size="16.00" fill="#000000">Défense de la liberté individuelle</text>
<text text-anchor="middle" x="328.6288" y="-215" font-family="Times,serif" font-size="16.00" fill="#000000">et critique des oppressions et de la</text>
<text text-anchor="middle" x="328.6288" y="-195.8" font-family="Times,serif" font-size="16.00" fill="#000000">domination subies dans la vie privée</text>
<text text-anchor="middle" x="328.6288" y="-176.6" font-family="Times,serif" font-size="16.00" fill="#000000">et la sphère économique et sociale</text>
</g>
<!-- b2&#45;&gt;c2 -->
<g id="edge7" class="edge">
<title>b2&#45;&gt;c2</title>
<path fill="none" stroke="#000000" d="M328.6288,-296.9541C328.6288,-286.347 328.6288,-274.3239 328.6288,-262.6808"/>
<polygon fill="#000000" stroke="#000000" points="332.1289,-262.5919 328.6288,-252.5919 325.1289,-262.5919 332.1289,-262.5919"/>
</g>
<!-- c3 -->
<g id="node7" class="node">
<title>c3</title>
<polygon fill="#ffffff" stroke="#7f7f7f" points="757.1496,-262.2 486.108,-262.2 486.108,-158.2 757.1496,-158.2 757.1496,-262.2"/>
<text text-anchor="middle" x="621.6288" y="-243.8" font-family="Times,serif" font-size="16.00" fill="#000000">Croisement avec d&#39;autres luttes :</text>
<text text-anchor="middle" x="621.6288" y="-224.6" font-family="Times,serif" font-size="16.00" fill="#000000">contre le racisme, contre l&#39;homophobie,</text>
<text text-anchor="middle" x="621.6288" y="-205.4" font-family="Times,serif" font-size="16.00" fill="#000000">contre la transphobie …, et extension</text>
<text text-anchor="middle" x="621.6288" y="-186.2" font-family="Times,serif" font-size="16.00" fill="#000000">de la critique du sexisme, des normes</text>
<text text-anchor="middle" x="621.6288" y="-167" font-family="Times,serif" font-size="16.00" fill="#000000">de genre, de l&#39;hétéronormativité …</text>
</g>
<!-- b3&#45;&gt;c3 -->
<g id="edge8" class="edge">
<title>b3&#45;&gt;c3</title>
<path fill="none" stroke="#000000" d="M603.4602,-297.2712C605.0988,-289.4183 606.9023,-280.7752 608.7174,-272.0766"/>
<polygon fill="#000000" stroke="#000000" points="612.1469,-272.7752 610.7634,-262.2711 605.2945,-271.3453 612.1469,-272.7752"/>
</g>
<!-- d1 -->
<g id="node8" class="node">
<title>d1</title>
<path fill="#ffffff" stroke="#7f7f7f" d="M139.3866,-103.9002C139.3866,-103.9002 11.871,-103.9002 11.871,-103.9002 5.871,-103.9002 -.129,-97.9002 -.129,-91.9002 -.129,-91.9002 -.129,-31.2998 -.129,-31.2998 -.129,-25.2998 5.871,-19.2998 11.871,-19.2998 11.871,-19.2998 139.3866,-19.2998 139.3866,-19.2998 145.3866,-19.2998 151.3866,-25.2998 151.3866,-31.2998 151.3866,-31.2998 151.3866,-91.9002 151.3866,-91.9002 151.3866,-97.9002 145.3866,-103.9002 139.3866,-103.9002"/>
<text text-anchor="middle" x="75.6288" y="-85.6" font-family="Times,serif" font-size="16.00" fill="#000000">Exemples :</text>
<text text-anchor="middle" x="75.6288" y="-66.4" font-family="Times,serif" font-size="16.00" fill="#000000">accès à l&#39;éducation,</text>
<text text-anchor="middle" x="75.6288" y="-47.2" font-family="Times,serif" font-size="16.00" fill="#000000">droit de vote, liberté</text>
<text text-anchor="middle" x="75.6288" y="-28" font-family="Times,serif" font-size="16.00" fill="#000000">d&#39;expression …</text>
</g>
<!-- c1&#45;&gt;d1 -->
<g id="edge9" class="edge">
<title>c1&#45;&gt;d1</title>
<path fill="none" stroke="#000000" d="M79.196,-167.6172C78.6339,-150.9127 77.9833,-131.5751 77.3928,-114.0251"/>
<polygon fill="#000000" stroke="#000000" points="80.8876,-113.8085 77.0532,-103.9319 73.8915,-114.044 80.8876,-113.8085"/>
</g>
<!-- d2 -->
<g id="node9" class="node">
<title>d2</title>
<path fill="#ffffff" stroke="#7f7f7f" d="M464.9225,-123.3002C464.9225,-123.3002 192.3351,-123.3002 192.3351,-123.3002 186.3351,-123.3002 180.3351,-117.3002 180.3351,-111.3002 180.3351,-111.3002 180.3351,-11.8998 180.3351,-11.8998 180.3351,-5.8998 186.3351,.1002 192.3351,.1002 192.3351,.1002 464.9225,.1002 464.9225,.1002 470.9225,.1002 476.9225,-5.8998 476.9225,-11.8998 476.9225,-11.8998 476.9225,-111.3002 476.9225,-111.3002 476.9225,-117.3002 470.9225,-123.3002 464.9225,-123.3002"/>
<text text-anchor="middle" x="328.6288" y="-104.8" font-family="Times,serif" font-size="16.00" fill="#000000">Exemples : droit à l&#39;avortement, accès</text>
<text text-anchor="middle" x="328.6288" y="-85.6" font-family="Times,serif" font-size="16.00" fill="#000000">à la contraception, accès à l&#39;emploi,</text>
<text text-anchor="middle" x="328.6288" y="-66.4" font-family="Times,serif" font-size="16.00" fill="#000000">égalité salariale, dénonciation des</text>
<text text-anchor="middle" x="328.6288" y="-47.2" font-family="Times,serif" font-size="16.00" fill="#000000">inégalités dans le travail domestique,</text>
<text text-anchor="middle" x="328.6288" y="-28" font-family="Times,serif" font-size="16.00" fill="#000000">dénonciation des violences conjugales,</text>
<text text-anchor="middle" x="328.6288" y="-8.8" font-family="Times,serif" font-size="16.00" fill="#000000">du harcèlement, des violences sexuelles …</text>
</g>
<!-- c2&#45;&gt;d2 -->
<g id="edge10" class="edge">
<title>c2&#45;&gt;d2</title>
<path fill="none" stroke="#000000" d="M328.6288,-167.6172C328.6288,-156.9376 328.6288,-145.1818 328.6288,-133.5049"/>
<polygon fill="#000000" stroke="#000000" points="332.1289,-133.2927 328.6288,-123.2927 325.1289,-133.2928 332.1289,-133.2927"/>
</g>
<!-- d3 -->
<g id="node10" class="node">
<title>d3</title>
<path fill="#ffffff" stroke="#7f7f7f" d="M729.1704,-123.3002C729.1704,-123.3002 518.0872,-123.3002 518.0872,-123.3002 512.0872,-123.3002 506.0872,-117.3002 506.0872,-111.3002 506.0872,-111.3002 506.0872,-11.8998 506.0872,-11.8998 506.0872,-5.8998 512.0872,.1002 518.0872,.1002 518.0872,.1002 729.1704,.1002 729.1704,.1002 735.1704,.1002 741.1704,-5.8998 741.1704,-11.8998 741.1704,-11.8998 741.1704,-111.3002 741.1704,-111.3002 741.1704,-117.3002 735.1704,-123.3002 729.1704,-123.3002"/>
<text text-anchor="middle" x="623.6288" y="-104.8" font-family="Times,serif" font-size="16.00" fill="#000000">Exemples : extension des luttes</text>
<text text-anchor="middle" x="623.6288" y="-85.6" font-family="Times,serif" font-size="16.00" fill="#000000">précédentes par l&#39;inclusion des</text>
<text text-anchor="middle" x="623.6288" y="-66.4" font-family="Times,serif" font-size="16.00" fill="#000000">voix marginalisées, luttes</text>
<text text-anchor="middle" x="623.6288" y="-47.2" font-family="Times,serif" font-size="16.00" fill="#000000">linguistiques (écriture inclusive),</text>
<text text-anchor="middle" x="623.6288" y="-28" font-family="Times,serif" font-size="16.00" fill="#000000">dénonciation plus large des</text>
<text text-anchor="middle" x="623.6288" y="-8.8" font-family="Times,serif" font-size="16.00" fill="#000000">agressions sexuelles (#MeToo) …</text>
</g>
<!-- c3&#45;&gt;d3 -->
<g id="edge11" class="edge">
<title>c3&#45;&gt;d3</title>
<path fill="none" stroke="#000000" d="M622.3339,-157.8092C622.4391,-149.995 622.549,-141.8258 622.6585,-133.6918"/>
<polygon fill="#000000" stroke="#000000" points="626.1615,-133.4833 622.7965,-123.4371 619.1622,-133.3891 626.1615,-133.4833"/>
</g>
</g>
</svg>
