<?xml version="1.0" encoding="UTF-8" standalone="no"?><!DOCTYPE svg PUBLIC "-//W3C//DTD SVG 1.1//EN" "http://www.w3.org/Graphics/SVG/1.1/DTD/svg11.dtd"><!-- Generated by graphviz version 2.40.1 (20161225.0304)
 --><!-- Title: G Pages: 1 --><svg xmlns="http://www.w3.org/2000/svg" xmlns:xlink="http://www.w3.org/1999/xlink" width="503pt" height="355pt" viewBox="0.00 0.00 502.73 355.43">
<g id="graph0" class="graph" transform="scale(1 1) rotate(0) translate(21.6 333.8272)">
<title>G</title>
<polygon fill="#fafafa" stroke="transparent" points="-21.6,21.6 -21.6,-333.8272 481.1257,-333.8272 481.1257,21.6 -21.6,21.6"/>
<!-- a1 -->
<g id="node1" class="node">
<title>a1</title>
<ellipse fill="#000000" stroke="#000000" cx="229.7629" cy="-276.0234" rx="77.815" ry="36.4089"/>
<text text-anchor="middle" x="229.7629" y="-281.4234" font-family="Times,serif" font-size="18.00" fill="#ffffff">Trois formes</text>
<text text-anchor="middle" x="229.7629" y="-259.8234" font-family="Times,serif" font-size="18.00" fill="#ffffff">d'expérience</text>
</g>
<!-- b1 -->
<g id="node2" class="node">
<title>b1</title>
<ellipse fill="#8b0000" stroke="#000000" cx="71.7629" cy="-172.0098" rx="71.5265" ry="32.6206"/>
<text text-anchor="middle" x="71.7629" y="-176.8098" font-family="Times,serif" font-size="16.00" fill="#ffffff">L'expérience</text>
<text text-anchor="middle" x="71.7629" y="-157.6098" font-family="Times,serif" font-size="16.00" fill="#ffffff">perceptive</text>
</g>
<!-- a1&#45;&gt;b1 -->
<g id="edge1" class="edge">
<title>a1-&gt;b1:n</title>
<path fill="none" stroke="#000000" d="M161.3807,-258.2448C125.3514,-247.1229 86.3213,-231.6752 75.0041,-214.5135"/>
<polygon fill="#000000" stroke="#000000" points="78.2533,-213.1936 71.7629,-204.8195 71.6145,-215.4133 78.2533,-213.1936"/>
</g>
<!-- b2 -->
<g id="node3" class="node">
<title>b2</title>
<ellipse fill="#8b0000" stroke="#000000" cx="229.7629" cy="-172.0098" rx="71.5265" ry="32.6206"/>
<text text-anchor="middle" x="229.7629" y="-176.8098" font-family="Times,serif" font-size="16.00" fill="#ffffff">L'expérience</text>
<text text-anchor="middle" x="229.7629" y="-157.6098" font-family="Times,serif" font-size="16.00" fill="#ffffff">affective</text>
</g>
<!-- a1&#45;&gt;b2 -->
<g id="edge2" class="edge">
<title>a1-&gt;b2:n</title>
<path fill="none" stroke="#000000" d="M229.7629,-239.8002C229.7629,-231.8283 229.7629,-223.2593 229.7629,-214.8848"/>
<polygon fill="#000000" stroke="#000000" points="233.263,-214.8195 229.7629,-204.8195 226.263,-214.8195 233.263,-214.8195"/>
</g>
<!-- b3 -->
<g id="node4" class="node">
<title>b3</title>
<ellipse fill="#8b0000" stroke="#000000" cx="387.7629" cy="-172.0098" rx="71.5265" ry="32.6206"/>
<text text-anchor="middle" x="387.7629" y="-176.8098" font-family="Times,serif" font-size="16.00" fill="#ffffff">L'expérience</text>
<text text-anchor="middle" x="387.7629" y="-157.6098" font-family="Times,serif" font-size="16.00" fill="#ffffff">de pensée</text>
</g>
<!-- a1&#45;&gt;b3 -->
<g id="edge3" class="edge">
<title>a1-&gt;b3:n</title>
<path fill="none" stroke="#000000" d="M298.145,-258.2448C334.1743,-247.1229 373.2044,-231.6752 384.5216,-214.5135"/>
<polygon fill="#000000" stroke="#000000" points="387.9112,-215.4133 387.7629,-204.8195 381.2724,-213.1936 387.9112,-215.4133"/>
</g>
<!-- c1 -->
<g id="node5" class="node">
<title>c1</title>
<polygon fill="#ffffff" stroke="#7f7f7f" points="114.1847,-104.2 29.341,-104.2 29.341,-68.2 114.1847,-68.2 114.1847,-104.2"/>
<text text-anchor="middle" x="71.7629" y="-81.4" font-family="Times,serif" font-size="16.00" fill="#000000">Perception</text>
</g>
<!-- b1&#45;&gt;c1 -->
<g id="edge4" class="edge">
<title>b1-&gt;c1</title>
<path fill="none" stroke="#000000" d="M71.7629,-139.0789C71.7629,-131.0205 71.7629,-122.4651 71.7629,-114.6375"/>
<polygon fill="#000000" stroke="#000000" points="75.263,-114.5294 71.7629,-104.5294 68.263,-114.5294 75.263,-114.5294"/>
</g>
<!-- c2 -->
<g id="node6" class="node">
<title>c2</title>
<polygon fill="#ffffff" stroke="#7f7f7f" points="268.1509,-104.2 191.3748,-104.2 191.3748,-68.2 268.1509,-68.2 268.1509,-104.2"/>
<text text-anchor="middle" x="229.7629" y="-81.4" font-family="Times,serif" font-size="16.00" fill="#000000">Émotions</text>
</g>
<!-- b2&#45;&gt;c2 -->
<g id="edge5" class="edge">
<title>b2-&gt;c2</title>
<path fill="none" stroke="#000000" d="M229.7629,-139.0789C229.7629,-131.0205 229.7629,-122.4651 229.7629,-114.6375"/>
<polygon fill="#000000" stroke="#000000" points="233.263,-114.5294 229.7629,-104.5294 226.263,-114.5294 233.263,-114.5294"/>
</g>
<!-- c3 -->
<g id="node7" class="node">
<title>c3</title>
<polygon fill="#ffffff" stroke="#7f7f7f" points="427.9599,-104.2 347.5658,-104.2 347.5658,-68.2 427.9599,-68.2 427.9599,-104.2"/>
<text text-anchor="middle" x="387.7629" y="-81.4" font-family="Times,serif" font-size="16.00" fill="#000000">Réflexion</text>
</g>
<!-- b3&#45;&gt;c3 -->
<g id="edge6" class="edge">
<title>b3-&gt;c3</title>
<path fill="none" stroke="#000000" d="M387.7629,-139.0789C387.7629,-131.0205 387.7629,-122.4651 387.7629,-114.6375"/>
<polygon fill="#000000" stroke="#000000" points="391.263,-114.5294 387.7629,-104.5294 384.263,-114.5294 391.263,-114.5294"/>
</g>
<!-- e1 -->
<g id="node8" class="node">
<title>e1</title>
<path fill="#fafafa" stroke="transparent" d="M373.9894,-51.3004C373.9894,-51.3004 85.5363,-51.3004 85.5363,-51.3004 79.5363,-51.3004 73.5363,-45.3004 73.5363,-39.3004 73.5363,-39.3004 73.5363,-11.8996 73.5363,-11.8996 73.5363,-5.8996 79.5363,.1004 85.5363,.1004 85.5363,.1004 373.9894,.1004 373.9894,.1004 379.9894,.1004 385.9894,-5.8996 385.9894,-11.8996 385.9894,-11.8996 385.9894,-39.3004 385.9894,-39.3004 385.9894,-45.3004 379.9894,-51.3004 373.9894,-51.3004"/>
<text text-anchor="middle" x="229.7629" y="-36.4" font-family="Times,serif" font-size="12.00" fill="#cd2626">Ces trois formes d'expérience ne sont pas exclusives : dans le</text>
<text text-anchor="middle" x="229.7629" y="-22" font-family="Times,serif" font-size="12.00" fill="#cd2626">cas de l'expérience d'une œuvre d'art, notre expérience peut</text>
<text text-anchor="middle" x="229.7629" y="-7.6" font-family="Times,serif" font-size="12.00" fill="#cd2626">être à la fois perceptive, affective et de l'ordre de la pensée</text>
</g>
<!-- c2&#45;&gt;e1 -->
</g>
</svg>