<?xml version="1.0" encoding="UTF-8" standalone="no"?><!DOCTYPE svg PUBLIC "-//W3C//DTD SVG 1.1//EN" "http://www.w3.org/Graphics/SVG/1.1/DTD/svg11.dtd"><!-- Generated by graphviz version 2.40.1 (20161225.0304)
 --><!-- Title: G Pages: 1 --><svg xmlns="http://www.w3.org/2000/svg" xmlns:xlink="http://www.w3.org/1999/xlink" width="737pt" height="712pt" viewBox="0.00 0.00 736.81 711.80">
<g id="graph0" class="graph" transform="scale(1 1) rotate(0) translate(21.6 690.2)">
<title>G</title>
<polygon fill="#fafafa" stroke="transparent" points="-21.6,21.6 -21.6,-690.2 715.206,-690.2 715.206,21.6 -21.6,21.6"/>
<!-- a1 -->
<g id="node1" class="node">
<title>a1</title>
<ellipse fill="#000000" stroke="#000000" cx="58.4872" cy="-328.8" rx="58.4744" ry="36.4089"/>
<text text-anchor="middle" x="58.4872" y="-334.2" font-family="Times,serif" font-size="18.00" fill="#ffffff">Trouver</text>
<text text-anchor="middle" x="58.4872" y="-312.6" font-family="Times,serif" font-size="18.00" fill="#ffffff">des idées</text>
</g>
<!-- b1 -->
<g id="node2" class="node">
<title>b1</title>
<ellipse fill="#8b0000" stroke="#000000" cx="234.1142" cy="-532.8" rx="71.1775" ry="59.9253"/>
<text text-anchor="middle" x="234.1142" y="-556.8" font-family="Times,serif" font-size="16.00" fill="#ffffff">Explorer</text>
<text text-anchor="middle" x="234.1142" y="-537.6" font-family="Times,serif" font-size="16.00" fill="#ffffff">un maximum</text>
<text text-anchor="middle" x="234.1142" y="-518.4" font-family="Times,serif" font-size="16.00" fill="#ffffff">de réponses</text>
<text text-anchor="middle" x="234.1142" y="-499.2" font-family="Times,serif" font-size="16.00" fill="#ffffff">possibles</text>
</g>
<!-- a1&#45;&gt;b1 -->
<g id="edge1" class="edge">
<title>a1-&gt;b1:w</title>
<path fill="none" stroke="#000000" d="M60.824,-365.2711C66.4976,-421.1982 85.8894,-522.7054 152.0149,-532.0989"/>
<polygon fill="#000000" stroke="#000000" points="151.8958,-535.5989 162.1142,-532.8 152.3806,-528.6157 151.8958,-535.5989"/>
</g>
<!-- b2 -->
<g id="node3" class="node">
<title>b2</title>
<ellipse fill="#8b0000" stroke="#000000" cx="234.1142" cy="-328.8" rx="82.2798" ry="46.2727"/>
<text text-anchor="middle" x="234.1142" y="-343.2" font-family="Times,serif" font-size="16.00" fill="#ffffff">Approfondir</text>
<text text-anchor="middle" x="234.1142" y="-324" font-family="Times,serif" font-size="16.00" fill="#ffffff">au maximum</text>
<text text-anchor="middle" x="234.1142" y="-304.8" font-family="Times,serif" font-size="16.00" fill="#ffffff">chaque réponse</text>
</g>
<!-- a1&#45;&gt;b2 -->
<g id="edge2" class="edge">
<title>a1-&gt;b2:w</title>
<path fill="none" stroke="#000000" d="M117.4219,-328.8C125.5114,-328.8 133.8315,-328.8 141.9573,-328.8"/>
<polygon fill="#000000" stroke="#000000" points="142.1142,-332.3001 152.1142,-328.8 142.1142,-325.3001 142.1142,-332.3001"/>
</g>
<!-- b3 -->
<g id="node4" class="node">
<title>b3</title>
<ellipse fill="#8b0000" stroke="#000000" cx="234.1142" cy="-166.8" rx="65.4924" ry="46.2727"/>
<text text-anchor="middle" x="234.1142" y="-181.2" font-family="Times,serif" font-size="16.00" fill="#ffffff">Vérifier la</text>
<text text-anchor="middle" x="234.1142" y="-162" font-family="Times,serif" font-size="16.00" fill="#ffffff">pertinence</text>
<text text-anchor="middle" x="234.1142" y="-142.8" font-family="Times,serif" font-size="16.00" fill="#ffffff">de ses idées</text>
</g>
<!-- a1&#45;&gt;b3 -->
<g id="edge3" class="edge">
<title>a1-&gt;b3:w</title>
<path fill="none" stroke="#000000" d="M65.982,-292.8469C77.582,-247.8237 104.392,-175.5741 158.1392,-167.534"/>
<polygon fill="#000000" stroke="#000000" points="158.398,-171.0245 168.1142,-166.8 157.8843,-164.0434 158.398,-171.0245"/>
</g>
<!-- b1&#45;&gt;b2 -->
<!-- c1 -->
<g id="node5" class="node">
<title>c1</title>
<polygon fill="#ffffff" stroke="#7f7f7f" points="653.7397,-668.4005 391.1203,-668.4005 391.1203,-507.1995 653.7397,-507.1995 653.7397,-668.4005"/>
<text text-anchor="middle" x="522.43" y="-650.2" font-family="Times,serif" font-size="16.00" fill="#000000">– Pas seulement les réponses de type</text>
<text text-anchor="middle" x="522.43" y="-631" font-family="Times,serif" font-size="16.00" fill="#000000">“oui” (ou de type “non”)</text>
<text text-anchor="middle" x="522.43" y="-611.8" font-family="Times,serif" font-size="16.00" fill="#000000">– pas seulement les réponses les plus</text>
<text text-anchor="middle" x="522.43" y="-592.6" font-family="Times,serif" font-size="16.00" fill="#000000">évidentes, les plus intuitives</text>
<text text-anchor="middle" x="522.43" y="-573.4" font-family="Times,serif" font-size="16.00" fill="#000000">– pas seulement les réponses les plus</text>
<text text-anchor="middle" x="522.43" y="-554.2" font-family="Times,serif" font-size="16.00" fill="#000000">communes, les plus ordinaires</text>
<text text-anchor="middle" x="522.43" y="-535" font-family="Times,serif" font-size="16.00" fill="#000000">– pas seulement les réponses qui</text>
<text text-anchor="middle" x="522.43" y="-515.8" font-family="Times,serif" font-size="16.00" fill="#000000">correspondent à son opinion</text>
</g>
<!-- b1&#45;&gt;c1 -->
<g id="edge6" class="edge">
<title>b1-&gt;c1</title>
<path fill="none" stroke="#000000" d="M303.9074,-546.114C327.2848,-550.5735 354.2551,-555.7185 381.0949,-560.8385"/>
<polygon fill="#000000" stroke="#000000" points="380.4917,-564.2865 390.9705,-562.7224 381.8035,-557.4105 380.4917,-564.2865"/>
</g>
<!-- c2 -->
<g id="node6" class="node">
<title>c2</title>
<polygon fill="#ffffff" stroke="#7f7f7f" points="681.5127,-492.8 363.3473,-492.8 363.3473,-388.8 681.5127,-388.8 681.5127,-492.8"/>
<text text-anchor="middle" x="522.43" y="-474.4" font-family="Times,serif" font-size="16.00" fill="#000000">Afin d'ouvrir les perspectives sur le sujet, on</text>
<text text-anchor="middle" x="522.43" y="-455.2" font-family="Times,serif" font-size="16.00" fill="#000000">approfondit son travail d'analyse et notamment</text>
<text text-anchor="middle" x="522.43" y="-436" font-family="Times,serif" font-size="16.00" fill="#000000">on cherche des références théoriques</text>
<text text-anchor="middle" x="522.43" y="-416.8" font-family="Times,serif" font-size="16.00" fill="#000000">(on utilise le cours et le dossier) et on est</text>
<text text-anchor="middle" x="522.43" y="-397.6" font-family="Times,serif" font-size="16.00" fill="#000000">attentif aux différents sens possibles du sujet</text>
</g>
<!-- b1&#45;&gt;c2 -->
<g id="edge7" class="edge">
<title>b1-&gt;c2</title>
<path fill="none" stroke="#000000" d="M300.9843,-511.4621C317.0625,-506.3317 334.9617,-500.6201 353.4215,-494.7297"/>
<polygon fill="#000000" stroke="#000000" points="354.6565,-498.0095 363.1193,-491.6352 352.5285,-491.3408 354.6565,-498.0095"/>
</g>
<!-- b2&#45;&gt;b3 -->
<!-- c3 -->
<g id="node7" class="node">
<title>c3</title>
<polygon fill="#ffffff" stroke="#7f7f7f" points="693.7822,-361.4012 351.0778,-361.4012 351.0778,-296.1988 693.7822,-296.1988 693.7822,-361.4012"/>
<text text-anchor="middle" x="522.43" y="-343.2" font-family="Times,serif" font-size="16.00" fill="#000000">Pour chaque idée, même si on n'est pas d'accord</text>
<text text-anchor="middle" x="522.43" y="-324" font-family="Times,serif" font-size="16.00" fill="#000000">avec cette idée : on cherche des arguments, des</text>
<text text-anchor="middle" x="522.43" y="-304.8" font-family="Times,serif" font-size="16.00" fill="#000000">objections, des réponses possibles à ces objections</text>
</g>
<!-- b2&#45;&gt;c3 -->
<g id="edge8" class="edge">
<title>b2-&gt;c3</title>
<path fill="none" stroke="#000000" d="M316.3481,-328.8C324.217,-328.8 332.3899,-328.8 340.7434,-328.8"/>
<polygon fill="#000000" stroke="#000000" points="341.0143,-332.3001 351.0143,-328.8 341.0143,-325.3001 341.0143,-332.3001"/>
</g>
<!-- c4 -->
<g id="node8" class="node">
<title>c4</title>
<polygon fill="#ffffff" stroke="#7f7f7f" points="602.4235,-266.2017 442.4364,-266.2017 442.4364,-219.3983 602.4235,-219.3983 602.4235,-266.2017"/>
<text text-anchor="middle" x="522.43" y="-247.6" font-family="Times,serif" font-size="16.00" fill="#000000">On évite les banalités,</text>
<text text-anchor="middle" x="522.43" y="-228.4" font-family="Times,serif" font-size="16.00" fill="#000000">les idées simplistes</text>
</g>
<!-- b3&#45;&gt;c4 -->
<g id="edge9" class="edge">
<title>b3-&gt;c4</title>
<path fill="none" stroke="#000000" d="M289.9331,-191.3594C309.0913,-199.0764 330.8505,-207.0686 351.254,-212.8 377.2679,-220.1073 406.0301,-225.9735 432.4341,-230.5125"/>
<polygon fill="#000000" stroke="#000000" points="431.9865,-233.9863 442.4275,-232.1874 433.1436,-227.0825 431.9865,-233.9863"/>
</g>
<!-- c5 -->
<g id="node9" class="node">
<title>c5</title>
<polygon fill="#ffffff" stroke="#7f7f7f" points="629.5272,-206.2017 415.3328,-206.2017 415.3328,-159.3983 629.5272,-159.3983 629.5272,-206.2017"/>
<text text-anchor="middle" x="522.43" y="-187.6" font-family="Times,serif" font-size="16.00" fill="#000000">On n'en reste pas à une simple</text>
<text text-anchor="middle" x="522.43" y="-168.4" font-family="Times,serif" font-size="16.00" fill="#000000">liste de cas particuliers</text>
</g>
<!-- b3&#45;&gt;c5 -->
<g id="edge10" class="edge">
<title>b3-&gt;c5</title>
<path fill="none" stroke="#000000" d="M299.5375,-170.4306C330.7458,-172.1625 369.0557,-174.2885 405.0558,-176.2864"/>
<polygon fill="#000000" stroke="#000000" points="404.9621,-179.7864 415.1407,-176.846 405.35,-172.7972 404.9621,-179.7864"/>
</g>
<!-- c6 -->
<g id="node10" class="node">
<title>c6</title>
<polygon fill="#ffffff" stroke="#7f7f7f" points="619.941,-145.4012 424.919,-145.4012 424.919,-80.1988 619.941,-80.1988 619.941,-145.4012"/>
<text text-anchor="middle" x="522.43" y="-127.2" font-family="Times,serif" font-size="16.00" fill="#000000">Une bonne idée repose sur</text>
<text text-anchor="middle" x="522.43" y="-108" font-family="Times,serif" font-size="16.00" fill="#000000">des concepts précis ou sur</text>
<text text-anchor="middle" x="522.43" y="-88.8" font-family="Times,serif" font-size="16.00" fill="#000000">une distinction conceptuelle</text>
</g>
<!-- b3&#45;&gt;c6 -->
<g id="edge11" class="edge">
<title>b3-&gt;c6</title>
<path fill="none" stroke="#000000" d="M297.7432,-154.8826C332.064,-148.4545 375.3509,-140.3471 414.7477,-132.9683"/>
<polygon fill="#000000" stroke="#000000" points="415.4874,-136.3907 424.6721,-131.1095 414.1987,-129.5104 415.4874,-136.3907"/>
</g>
<!-- c7 -->
<g id="node11" class="node">
<title>c7</title>
<polygon fill="#ffffff" stroke="#7f7f7f" points="629.1645,-65.4012 415.6954,-65.4012 415.6954,-.1988 629.1645,-.1988 629.1645,-65.4012"/>
<text text-anchor="middle" x="522.43" y="-47.2" font-family="Times,serif" font-size="16.00" fill="#000000">Une bonne idée repose sur</text>
<text text-anchor="middle" x="522.43" y="-28" font-family="Times,serif" font-size="16.00" fill="#000000">un raisonnement bien construit</text>
<text text-anchor="middle" x="522.43" y="-8.8" font-family="Times,serif" font-size="16.00" fill="#000000">(attention aux liens logiques)</text>
</g>
<!-- b3&#45;&gt;c7 -->
<g id="edge12" class="edge">
<title>b3-&gt;c7</title>
<path fill="none" stroke="#000000" d="M272.2396,-128.8822C293.7889,-109.4444 322.1807,-86.9481 351.254,-72.8 368.1961,-64.5554 386.9222,-57.9609 405.5865,-52.7003"/>
<polygon fill="#000000" stroke="#000000" points="406.5894,-56.0549 415.3313,-50.0692 404.7647,-49.2969 406.5894,-56.0549"/>
</g>
<!-- c2&#45;&gt;c3 -->
</g>
</svg>