<?xml version="1.0" encoding="UTF-8" standalone="no"?><!DOCTYPE svg PUBLIC "-//W3C//DTD SVG 1.1//EN" "http://www.w3.org/Graphics/SVG/1.1/DTD/svg11.dtd"><!-- Generated by graphviz version 2.40.1 (20161225.0304)
 --><!-- Title: G Pages: 1 --><svg xmlns="http://www.w3.org/2000/svg" xmlns:xlink="http://www.w3.org/1999/xlink" width="614pt" height="710pt" viewBox="0.00 0.00 613.87 710.01">
<g id="graph0" class="graph" transform="scale(1 1) rotate(0) translate(21.6 688.4098)">
<title>G</title>
<polygon fill="#fafafa" stroke="transparent" points="-21.6,21.6 -21.6,-688.4098 592.2699,-688.4098 592.2699,21.6 -21.6,21.6"/>
<!-- a1 -->
<g id="node1" class="node">
<title>a1</title>
<ellipse fill="#000000" stroke="#000000" cx="48.4245" cy="-211.8098" rx="48.3491" ry="36.4089"/>
<text text-anchor="middle" x="48.4245" y="-217.2098" font-family="Times,serif" font-size="18.00" fill="#ffffff">Types</text>
<text text-anchor="middle" x="48.4245" y="-195.6098" font-family="Times,serif" font-size="18.00" fill="#ffffff">de plan</text>
</g>
<!-- b1 -->
<g id="node2" class="node">
<title>b1</title>
<ellipse fill="#8b0000" stroke="#000000" cx="153.5523" cy="-391.8098" rx="46.6442" ry="32.6206"/>
<text text-anchor="middle" x="153.5523" y="-396.6098" font-family="Times,serif" font-size="16.00" fill="#ffffff">En trois</text>
<text text-anchor="middle" x="153.5523" y="-377.4098" font-family="Times,serif" font-size="16.00" fill="#ffffff">parties</text>
</g>
<!-- a1&#45;&gt;b1 -->
<g id="edge1" class="edge">
<title>a1-&gt;b1:w</title>
<path fill="none" stroke="#000000" d="M52.6966,-248.2354C59.0806,-294.8738 72.9916,-371.6901 96.8961,-388.4953"/>
<polygon fill="#000000" stroke="#000000" points="95.9576,-391.8736 106.5523,-391.8098 98.2302,-385.2528 95.9576,-391.8736"/>
</g>
<!-- b2 -->
<g id="node3" class="node">
<title>b2</title>
<ellipse fill="#8b0000" stroke="#000000" cx="153.5523" cy="-32.8098" rx="48.9074" ry="32.6206"/>
<text text-anchor="middle" x="153.5523" y="-37.6098" font-family="Times,serif" font-size="16.00" fill="#ffffff">En deux</text>
<text text-anchor="middle" x="153.5523" y="-18.4098" font-family="Times,serif" font-size="16.00" fill="#ffffff">parties</text>
</g>
<!-- a1&#45;&gt;b2 -->
<g id="edge2" class="edge">
<title>a1-&gt;b2:w</title>
<path fill="none" stroke="#000000" d="M52.4101,-175.5864C58.4203,-129.2072 71.6891,-52.8176 95.291,-36.1057"/>
<polygon fill="#000000" stroke="#000000" points="96.5364,-39.3786 104.849,-32.8098 94.2543,-32.761 96.5364,-39.3786"/>
</g>
<!-- b1&#45;&gt;b2 -->
<!-- c1 -->
<g id="node4" class="node">
<title>c1</title>
<path fill="#ffffff" stroke="#7f7f7f" d="M300.5165,-616.8098C300.5165,-616.8098 259.7722,-616.8098 259.7722,-616.8098 253.7722,-616.8098 247.7722,-610.8098 247.7722,-604.8098 247.7722,-604.8098 247.7722,-592.8098 247.7722,-592.8098 247.7722,-586.8098 253.7722,-580.8098 259.7722,-580.8098 259.7722,-580.8098 300.5165,-580.8098 300.5165,-580.8098 306.5165,-580.8098 312.5165,-586.8098 312.5165,-592.8098 312.5165,-592.8098 312.5165,-604.8098 312.5165,-604.8098 312.5165,-610.8098 306.5165,-616.8098 300.5165,-616.8098"/>
<text text-anchor="middle" x="280.1443" y="-594.0098" font-family="Times,serif" font-size="16.00" fill="#000000">Procès</text>
</g>
<!-- b1&#45;&gt;c1 -->
<g id="edge4" class="edge">
<title>b1-&gt;c1:w</title>
<path fill="none" stroke="#000000" d="M161.3358,-424.6095C174.8181,-477.7339 204.3292,-578.4601 238.0475,-596.1305"/>
<polygon fill="#000000" stroke="#000000" points="237.5811,-599.6278 248.1443,-598.8098 239.3765,-592.8619 237.5811,-599.6278"/>
</g>
<!-- c2 -->
<g id="node5" class="node">
<title>c2</title>
<path fill="#ffffff" stroke="#7f7f7f" d="M308.555,-483.2115C308.555,-483.2115 251.7337,-483.2115 251.7337,-483.2115 245.7337,-483.2115 239.7337,-477.2115 239.7337,-471.2115 239.7337,-471.2115 239.7337,-448.408 239.7337,-448.408 239.7337,-442.408 245.7337,-436.408 251.7337,-436.408 251.7337,-436.408 308.555,-436.408 308.555,-436.408 314.555,-436.408 320.555,-442.408 320.555,-448.408 320.555,-448.408 320.555,-471.2115 320.555,-471.2115 320.555,-477.2115 314.555,-483.2115 308.555,-483.2115"/>
<text text-anchor="middle" x="280.1443" y="-464.6098" font-family="Times,serif" font-size="16.00" fill="#000000">Procès +</text>
<text text-anchor="middle" x="280.1443" y="-445.4098" font-family="Times,serif" font-size="16.00" fill="#000000">2e couche</text>
</g>
<!-- b1&#45;&gt;c2 -->
<g id="edge5" class="edge">
<title>b1-&gt;c2:w</title>
<path fill="none" stroke="#000000" d="M174.6316,-421.4377C188.306,-437.4002 207.7073,-454.6699 230.0442,-458.857"/>
<polygon fill="#000000" stroke="#000000" points="229.8598,-462.3551 240.1443,-459.8098 230.5172,-455.386 229.8598,-462.3551"/>
</g>
<!-- c3 -->
<g id="node6" class="node">
<title>c3</title>
<path fill="#ffffff" stroke="#7f7f7f" d="M310.5276,-381.2115C310.5276,-381.2115 249.761,-381.2115 249.761,-381.2115 243.761,-381.2115 237.761,-375.2115 237.761,-369.2115 237.761,-369.2115 237.761,-346.408 237.761,-346.408 237.761,-340.408 243.761,-334.408 249.761,-334.408 249.761,-334.408 310.5276,-334.408 310.5276,-334.408 316.5276,-334.408 322.5276,-340.408 322.5276,-346.408 322.5276,-346.408 322.5276,-369.2115 322.5276,-369.2115 322.5276,-375.2115 316.5276,-381.2115 310.5276,-381.2115"/>
<text text-anchor="middle" x="280.1443" y="-362.6098" font-family="Times,serif" font-size="16.00" fill="#000000">Procès +</text>
<text text-anchor="middle" x="280.1443" y="-343.4098" font-family="Times,serif" font-size="16.00" fill="#000000">petit malin</text>
</g>
<!-- b1&#45;&gt;c3 -->
<g id="edge6" class="edge">
<title>b1-&gt;c3:w</title>
<path fill="none" stroke="#000000" d="M189.3649,-370.4701C201.0112,-365.0265 214.4177,-360.2192 227.8734,-358.4908"/>
<polygon fill="#000000" stroke="#000000" points="228.3979,-361.9638 238.1443,-357.8098 227.9346,-354.9792 228.3979,-361.9638"/>
</g>
<!-- c6 -->
<g id="node7" class="node">
<title>c6</title>
<path fill="#ffffff" stroke="#7f7f7f" d="M308.555,-278.8098C308.555,-278.8098 251.7337,-278.8098 251.7337,-278.8098 245.7337,-278.8098 239.7337,-272.8098 239.7337,-266.8098 239.7337,-266.8098 239.7337,-254.8098 239.7337,-254.8098 239.7337,-248.8098 245.7337,-242.8098 251.7337,-242.8098 251.7337,-242.8098 308.555,-242.8098 308.555,-242.8098 314.555,-242.8098 320.555,-248.8098 320.555,-254.8098 320.555,-254.8098 320.555,-266.8098 320.555,-266.8098 320.555,-272.8098 314.555,-278.8098 308.555,-278.8098"/>
<text text-anchor="middle" x="280.1443" y="-256.0098" font-family="Times,serif" font-size="16.00" fill="#000000">2e couche</text>
</g>
<!-- b1&#45;&gt;c6 -->
<g id="edge7" class="edge">
<title>b1-&gt;c6:w</title>
<path fill="none" stroke="#000000" d="M160.1701,-359.0908C169.4087,-323.1693 189.7788,-269.5249 230.0663,-261.7599"/>
<polygon fill="#000000" stroke="#000000" points="230.517,-265.233 240.1443,-260.8098 229.8599,-258.2639 230.517,-265.233"/>
</g>
<!-- c7 -->
<g id="node8" class="node">
<title>c7</title>
<path fill="#ffffff" stroke="#7f7f7f" d="M310.9222,-228.8098C310.9222,-228.8098 249.3664,-228.8098 249.3664,-228.8098 243.3664,-228.8098 237.3664,-222.8098 237.3664,-216.8098 237.3664,-216.8098 237.3664,-204.8098 237.3664,-204.8098 237.3664,-198.8098 243.3664,-192.8098 249.3664,-192.8098 249.3664,-192.8098 310.9222,-192.8098 310.9222,-192.8098 316.9222,-192.8098 322.9222,-198.8098 322.9222,-204.8098 322.9222,-204.8098 322.9222,-216.8098 322.9222,-216.8098 322.9222,-222.8098 316.9222,-228.8098 310.9222,-228.8098"/>
<text text-anchor="middle" x="280.1443" y="-206.0098" font-family="Times,serif" font-size="16.00" fill="#000000">Petit malin</text>
</g>
<!-- b1&#45;&gt;c7 -->
<g id="edge8" class="edge">
<title>b1-&gt;c7:w</title>
<path fill="none" stroke="#000000" d="M161.4618,-359.4506C173.7535,-312.6761 199.0092,-229.9681 227.488,-213.6506"/>
<polygon fill="#000000" stroke="#000000" points="228.6309,-216.9633 237.2555,-210.8098 226.6759,-210.2418 228.6309,-216.9633"/>
</g>
<!-- c4 -->
<g id="node9" class="node">
<title>c4</title>
<path fill="#ffffff" stroke="#7f7f7f" d="M300.5165,-119.8098C300.5165,-119.8098 259.7722,-119.8098 259.7722,-119.8098 253.7722,-119.8098 247.7722,-113.8098 247.7722,-107.8098 247.7722,-107.8098 247.7722,-95.8098 247.7722,-95.8098 247.7722,-89.8098 253.7722,-83.8098 259.7722,-83.8098 259.7722,-83.8098 300.5165,-83.8098 300.5165,-83.8098 306.5165,-83.8098 312.5165,-89.8098 312.5165,-95.8098 312.5165,-95.8098 312.5165,-107.8098 312.5165,-107.8098 312.5165,-113.8098 306.5165,-119.8098 300.5165,-119.8098"/>
<text text-anchor="middle" x="280.1443" y="-97.0098" font-family="Times,serif" font-size="16.00" fill="#000000">Procès</text>
</g>
<!-- b2&#45;&gt;c4 -->
<g id="edge9" class="edge">
<title>b2-&gt;c4:w</title>
<path fill="none" stroke="#000000" d="M176.3166,-62.072C191.5937,-78.6006 213.3617,-96.7715 237.8686,-100.9299"/>
<polygon fill="#000000" stroke="#000000" points="237.8822,-104.4438 248.1443,-101.8098 238.4794,-97.4693 237.8822,-104.4438"/>
</g>
<!-- c5 -->
<g id="node10" class="node">
<title>c5</title>
<path fill="#ffffff" stroke="#7f7f7f" d="M295.1443,-56.2115C295.1443,-56.2115 265.1443,-56.2115 265.1443,-56.2115 259.1443,-56.2115 253.1443,-50.2115 253.1443,-44.2115 253.1443,-44.2115 253.1443,-21.408 253.1443,-21.408 253.1443,-15.408 259.1443,-9.408 265.1443,-9.408 265.1443,-9.408 295.1443,-9.408 295.1443,-9.408 301.1443,-9.408 307.1443,-15.408 307.1443,-21.408 307.1443,-21.408 307.1443,-44.2115 307.1443,-44.2115 307.1443,-50.2115 301.1443,-56.2115 295.1443,-56.2115"/>
<text text-anchor="middle" x="280.1443" y="-37.6098" font-family="Times,serif" font-size="16.00" fill="#000000">Petit</text>
<text text-anchor="middle" x="280.1443" y="-18.4098" font-family="Times,serif" font-size="16.00" fill="#000000">malin</text>
</g>
<!-- b2&#45;&gt;c5 -->
<g id="edge10" class="edge">
<title>b2-&gt;c5:w</title>
<path fill="none" stroke="#000000" d="M202.4346,-32.8098C215.3004,-32.8098 229.3771,-32.8098 242.9205,-32.8098"/>
<polygon fill="#000000" stroke="#000000" points="243.1444,-36.3099 253.1443,-32.8098 243.1443,-29.3099 243.1444,-36.3099"/>
</g>
<!-- c1&#45;&gt;c2 -->
<!-- d1 -->
<g id="node11" class="node">
<title>d1</title>
<polygon fill="#ffffff" stroke="#7f7f7f" points="540.2039,-666.8098 370.4992,-666.8098 370.4992,-630.8098 540.2039,-630.8098 540.2039,-666.8098"/>
<text text-anchor="start" x="378.6755" y="-645.0098" font-family="Times,serif" font-size="16.00" fill="#000000"> </text>
<text text-anchor="start" x="382.6755" y="-645.0098" font-family="Times,serif" font-size="16.00" fill="#006400">R1</text>
<text text-anchor="start" x="401.3459" y="-645.0098" font-family="Times,serif" font-size="16.00" fill="#000000"> → </text>
<text text-anchor="start" x="421.3459" y="-645.0098" font-family="Times,serif" text-decoration="line-through" font-size="16.00" fill="#ff0000">R1</text>
<text text-anchor="start" x="440.0163" y="-645.0098" font-family="Times,serif" font-size="16.00" fill="#006400">  R2</text>
<text text-anchor="start" x="466.6867" y="-645.0098" font-family="Times,serif" font-size="16.00" fill="#000000"> → </text>
<text text-anchor="start" x="486.6867" y="-645.0098" font-family="Times,serif" text-decoration="line-through" font-size="16.00" fill="#ff0000">R2</text>
<text text-anchor="start" x="505.3571" y="-645.0098" font-family="Times,serif" font-size="16.00" fill="#000000"> </text>
<text text-anchor="start" x="509.3571" y="-645.0098" font-family="Times,serif" font-size="16.00" fill="#006400">R3</text>
<text text-anchor="start" x="528.0275" y="-645.0098" font-family="Times,serif" font-size="16.00" fill="#000000"> </text>
</g>
<!-- c1&#45;&gt;d1 -->
<g id="edge11" class="edge">
<title>c1-&gt;d1</title>
<path fill="none" stroke="#000000" d="M312.6933,-613.6589C321.4525,-617.3056 331.0042,-620.9725 340.0331,-623.8098 349.8048,-626.8804 360.1585,-629.7053 370.4941,-632.2632"/>
</g>
<!-- d2 -->
<g id="node12" class="node">
<title>d2</title>
<polygon fill="#ffffff" stroke="#7f7f7f" points="544.7263,-616.8098 365.9767,-616.8098 365.9767,-580.8098 544.7263,-580.8098 544.7263,-616.8098"/>
<text text-anchor="start" x="374.1643" y="-595.0098" font-family="Times,serif" font-size="16.00" fill="#000000"> </text>
<text text-anchor="start" x="378.1643" y="-595.0098" font-family="Times,serif" font-size="16.00" fill="#006400">R1</text>
<text text-anchor="start" x="396.8347" y="-595.0098" font-family="Times,serif" font-size="16.00" fill="#000000"> → </text>
<text text-anchor="start" x="416.8347" y="-595.0098" font-family="Times,serif" text-decoration="line-through" font-size="16.00" fill="#ff0000">R1</text>
<text text-anchor="start" x="435.5051" y="-595.0098" font-family="Times,serif" font-size="16.00" fill="#006400">  R2</text>
<text text-anchor="start" x="462.1755" y="-595.0098" font-family="Times,serif" font-size="16.00" fill="#000000"> → </text>
<text text-anchor="start" x="482.1755" y="-595.0098" font-family="Times,serif" text-decoration="line-through" font-size="16.00" fill="#ff0000">R2</text>
<text text-anchor="start" x="500.8459" y="-595.0098" font-family="Times,serif" font-size="16.00" fill="#000000"> </text>
<text text-anchor="start" x="504.8459" y="-595.0098" font-family="Times,serif" font-size="16.00" fill="#006400">R1</text>
<text text-anchor="start" x="523.5163" y="-595.0098" font-family="Times,serif" baseline-shift="super" font-size="16.00" fill="#006400">+</text>
<text text-anchor="start" x="532.5387" y="-595.0098" font-family="Times,serif" font-size="16.00" fill="#000000"> </text>
</g>
<!-- c1&#45;&gt;d2 -->
<g id="edge12" class="edge">
<title>c1-&gt;d2</title>
<path fill="none" stroke="#000000" d="M312.6888,-598.8098C327.929,-598.8098 346.9079,-598.8098 365.9976,-598.8098"/>
</g>
<!-- d3 -->
<g id="node13" class="node">
<title>d3</title>
<polygon fill="#ffffff" stroke="#7f7f7f" points="519.3627,-566.8098 391.3403,-566.8098 391.3403,-530.8098 519.3627,-530.8098 519.3627,-566.8098"/>
<text text-anchor="start" x="399.3459" y="-545.0098" font-family="Times,serif" font-size="16.00" fill="#000000"> </text>
<text text-anchor="start" x="403.3459" y="-545.0098" font-family="Times,serif" font-size="16.00" fill="#006400">R1</text>
<text text-anchor="start" x="422.0163" y="-545.0098" font-family="Times,serif" font-size="16.00" fill="#000000"> → </text>
<text text-anchor="start" x="442.0163" y="-545.0098" font-family="Times,serif" text-decoration="line-through" font-size="16.00" fill="#ff0000">R1</text>
<text text-anchor="start" x="460.6867" y="-545.0098" font-family="Times,serif" font-size="16.00" fill="#000000">  → </text>
<text text-anchor="start" x="484.6867" y="-545.0098" font-family="Times,serif" font-size="16.00" fill="#006400"> R2</text>
<text text-anchor="start" x="507.3571" y="-545.0098" font-family="Times,serif" font-size="16.00" fill="#000000"> </text>
</g>
<!-- c1&#45;&gt;d3 -->
<g id="edge13" class="edge">
<title>c1-&gt;d3</title>
<path fill="none" stroke="#000000" d="M312.6933,-583.9606C321.4525,-580.3139 331.0042,-576.647 340.0331,-573.8098 356.3519,-568.6818 374.2937,-564.2393 391.0637,-560.5807"/>
</g>
<!-- c2&#45;&gt;c3 -->
<!-- d4 -->
<g id="node14" class="node">
<title>d4</title>
<polygon fill="#ffffff" stroke="#7f7f7f" points="533.0558,-496.8098 377.6472,-496.8098 377.6472,-460.8098 533.0558,-460.8098 533.0558,-496.8098"/>
<text text-anchor="start" x="385.4995" y="-475.0098" font-family="Times,serif" font-size="16.00" fill="#000000"> </text>
<text text-anchor="start" x="389.4995" y="-475.0098" font-family="Times,serif" font-size="16.00" fill="#006400">R1</text>
<text text-anchor="start" x="408.1699" y="-475.0098" font-family="Times,serif" font-size="16.00" fill="#000000"> → </text>
<text text-anchor="start" x="428.1699" y="-475.0098" font-family="Times,serif" text-decoration="line-through" font-size="16.00" fill="#ff0000">R1</text>
<text text-anchor="start" x="446.8403" y="-475.0098" font-family="Times,serif" font-size="16.00" fill="#006400">  R2</text>
<text text-anchor="start" x="473.5107" y="-475.0098" font-family="Times,serif" font-size="16.00" fill="#000000"> → </text>
<text text-anchor="start" x="493.5107" y="-475.0098" font-family="Times,serif" font-size="16.00" fill="#006400">R2</text>
<text text-anchor="start" x="512.1811" y="-475.0098" font-family="Times,serif" baseline-shift="super" font-size="16.00" fill="#006400">+</text>
<text text-anchor="start" x="521.2035" y="-475.0098" font-family="Times,serif" font-size="16.00" fill="#000000"> </text>
</g>
<!-- c2&#45;&gt;d4 -->
<g id="edge14" class="edge">
<title>c2-&gt;d4</title>
<path fill="none" stroke="#000000" d="M320.7808,-464.2165C337.6628,-466.0472 357.8486,-468.2362 377.387,-470.355"/>
</g>
<!-- d5 -->
<g id="node15" class="node">
<title>d5</title>
<polygon fill="#ffffff" stroke="#7f7f7f" points="549.2487,-446.8098 361.4543,-446.8098 361.4543,-410.8098 549.2487,-410.8098 549.2487,-446.8098"/>
<text text-anchor="start" x="369.6531" y="-425.0098" font-family="Times,serif" font-size="16.00" fill="#000000"> </text>
<text text-anchor="start" x="373.6531" y="-425.0098" font-family="Times,serif" font-size="16.00" fill="#006400">R1</text>
<text text-anchor="start" x="392.3235" y="-425.0098" font-family="Times,serif" font-size="16.00" fill="#000000"> → </text>
<text text-anchor="start" x="412.3235" y="-425.0098" font-family="Times,serif" font-size="16.00" fill="#006400">R1</text>
<text text-anchor="start" x="430.9939" y="-425.0098" font-family="Times,serif" baseline-shift="super" font-size="16.00" fill="#006400">+</text>
<text text-anchor="start" x="440.0163" y="-425.0098" font-family="Times,serif" font-size="16.00" fill="#000000"> → </text>
<text text-anchor="start" x="460.0163" y="-425.0098" font-family="Times,serif" text-decoration="line-through" font-size="16.00" fill="#ff0000">R1</text>
<text text-anchor="start" x="478.6867" y="-425.0098" font-family="Times,serif" font-size="16.00" fill="#ff0000"> </text>
<text text-anchor="start" x="482.6867" y="-425.0098" font-family="Times,serif" text-decoration="line-through" font-size="16.00" fill="#ff0000">R1</text>
<text text-anchor="start" x="501.3571" y="-425.0098" font-family="Times,serif" baseline-shift="super" font-size="16.00" fill="#ff0000">+</text>
<text text-anchor="start" x="510.3795" y="-425.0098" font-family="Times,serif" font-size="16.00" fill="#006400">  R2</text>
<text text-anchor="start" x="537.0499" y="-425.0098" font-family="Times,serif" font-size="16.00" fill="#000000"> </text>
</g>
<!-- c2&#45;&gt;d5 -->
<g id="edge15" class="edge">
<title>c2-&gt;d5</title>
<path fill="none" stroke="#000000" d="M320.7808,-452.6198C333.1137,-450.4377 347.2099,-447.9436 361.5288,-445.4101"/>
</g>
<!-- c3&#45;&gt;c6 -->
<!-- d6 -->
<g id="node16" class="node">
<title>d6</title>
<polygon fill="#ffffff" stroke="#7f7f7f" points="563.784,-375.8098 346.9191,-375.8098 346.9191,-339.8098 563.784,-339.8098 563.784,-375.8098"/>
<text text-anchor="start" x="355.1355" y="-354.0098" font-family="Times,serif" font-size="16.00" fill="#000000"> </text>
<text text-anchor="start" x="359.1355" y="-354.0098" font-family="Times,serif" baseline-shift="sub" font-size="16.00" fill="#0000ee">s1</text>
<text text-anchor="start" x="373.3579" y="-354.0098" font-family="Times,serif" font-size="16.00" fill="#0000ee">[ </text>
<text text-anchor="start" x="382.6843" y="-354.0098" font-family="Times,serif" font-size="16.00" fill="#006400">R1</text>
<text text-anchor="start" x="401.3547" y="-354.0098" font-family="Times,serif" font-size="16.00" fill="#000000"> → </text>
<text text-anchor="start" x="421.3547" y="-354.0098" font-family="Times,serif" text-decoration="line-through" font-size="16.00" fill="#ff0000">R1</text>
<text text-anchor="start" x="440.0251" y="-354.0098" font-family="Times,serif" font-size="16.00" fill="#006400">  R2</text>
<text text-anchor="start" x="466.6955" y="-354.0098" font-family="Times,serif" font-size="16.00" fill="#0000ee"> ]</text>
<text text-anchor="start" x="476.0219" y="-354.0098" font-family="Times,serif" font-size="16.00" fill="#000000"> → </text>
<text text-anchor="start" x="496.0219" y="-354.0098" font-family="Times,serif" baseline-shift="sub" font-size="16.00" fill="#0000ee">s2</text>
<text text-anchor="start" x="510.2443" y="-354.0098" font-family="Times,serif" font-size="16.00" fill="#0000ee">[ </text>
<text text-anchor="start" x="519.5707" y="-354.0098" font-family="Times,serif" font-size="16.00" fill="#006400">R3</text>
<text text-anchor="start" x="538.2411" y="-354.0098" font-family="Times,serif" font-size="16.00" fill="#0000ee">  ]</text>
<text text-anchor="start" x="551.5675" y="-354.0098" font-family="Times,serif" font-size="16.00" fill="#000000"> </text>
</g>
<!-- c3&#45;&gt;d6 -->
<g id="edge16" class="edge">
<title>c3-&gt;d6</title>
<path fill="none" stroke="#000000" d="M322.5571,-357.8098C330.1528,-357.8098 338.3726,-357.8098 346.8707,-357.8098"/>
</g>
<!-- c6&#45;&gt;c7 -->
<!-- d9 -->
<g id="node19" class="node">
<title>d9</title>
<polygon fill="#ffffff" stroke="#7f7f7f" points="528.9299,-278.8098 381.7731,-278.8098 381.7731,-242.8098 528.9299,-242.8098 528.9299,-278.8098"/>
<text text-anchor="start" x="389.8123" y="-257.0098" font-family="Times,serif" font-size="16.00" fill="#000000"> </text>
<text text-anchor="start" x="393.8123" y="-257.0098" font-family="Times,serif" font-size="16.00" fill="#006400">R1</text>
<text text-anchor="start" x="412.4827" y="-257.0098" font-family="Times,serif" font-size="16.00" fill="#000000"> → </text>
<text text-anchor="start" x="432.4827" y="-257.0098" font-family="Times,serif" font-size="16.00" fill="#006400">R1</text>
<text text-anchor="start" x="451.1531" y="-257.0098" font-family="Times,serif" baseline-shift="super" font-size="16.00" fill="#006400">+</text>
<text text-anchor="start" x="460.1755" y="-257.0098" font-family="Times,serif" font-size="16.00" fill="#000000"> → </text>
<text text-anchor="start" x="480.1755" y="-257.0098" font-family="Times,serif" font-size="16.00" fill="#006400">R1</text>
<text text-anchor="start" x="498.8459" y="-257.0098" font-family="Times,serif" baseline-shift="super" font-size="16.00" fill="#006400">++</text>
<text text-anchor="start" x="516.8907" y="-257.0098" font-family="Times,serif" font-size="16.00" fill="#000000"> </text>
</g>
<!-- c6&#45;&gt;d9 -->
<g id="edge19" class="edge">
<title>c6-&gt;d9</title>
<path fill="none" stroke="#000000" d="M320.7808,-260.8098C338.8758,-260.8098 360.7666,-260.8098 381.5874,-260.8098"/>
</g>
<!-- c7&#45;&gt;c4 -->
<!-- d10 -->
<g id="node20" class="node">
<title>d10</title>
<polygon fill="#ffffff" stroke="#7f7f7f" points="570.4886,-228.8098 340.2144,-228.8098 340.2144,-192.8098 570.4886,-192.8098 570.4886,-228.8098"/>
<text text-anchor="start" x="348.0331" y="-207.0098" font-family="Times,serif" font-size="16.00" fill="#000000"> </text>
<text text-anchor="start" x="352.0331" y="-207.0098" font-family="Times,serif" baseline-shift="sub" font-size="16.00" fill="#0000ee">s1</text>
<text text-anchor="start" x="366.2555" y="-207.0098" font-family="Times,serif" font-size="16.00" fill="#0000ee">[ </text>
<text text-anchor="start" x="375.5819" y="-207.0098" font-family="Times,serif" font-size="16.00" fill="#006400">R1</text>
<text text-anchor="start" x="394.2523" y="-207.0098" font-family="Times,serif" font-size="16.00" fill="#000000"> </text>
<text text-anchor="start" x="398.2523" y="-207.0098" font-family="Times,serif" font-size="16.00" fill="#0000ee"> ]</text>
<text text-anchor="start" x="407.5787" y="-207.0098" font-family="Times,serif" font-size="16.00" fill="#000000"> → </text>
<text text-anchor="start" x="427.5787" y="-207.0098" font-family="Times,serif" baseline-shift="sub" font-size="16.00" fill="#0000ee">s2</text>
<text text-anchor="start" x="441.8011" y="-207.0098" font-family="Times,serif" font-size="16.00" fill="#0000ee">[ </text>
<text text-anchor="start" x="451.1275" y="-207.0098" font-family="Times,serif" font-size="16.00" fill="#006400">R2</text>
<text text-anchor="start" x="469.7979" y="-207.0098" font-family="Times,serif" font-size="16.00" fill="#0000ee">  ]</text>
<text text-anchor="start" x="483.1243" y="-207.0098" font-family="Times,serif" font-size="16.00" fill="#000000"> → </text>
<text text-anchor="start" x="503.1243" y="-207.0098" font-family="Times,serif" baseline-shift="sub" font-size="16.00" fill="#0000ee">s3</text>
<text text-anchor="start" x="517.3467" y="-207.0098" font-family="Times,serif" font-size="16.00" fill="#0000ee">[ </text>
<text text-anchor="start" x="526.6731" y="-207.0098" font-family="Times,serif" font-size="16.00" fill="#006400">R3</text>
<text text-anchor="start" x="545.3435" y="-207.0098" font-family="Times,serif" font-size="16.00" fill="#0000ee">  ]</text>
<text text-anchor="start" x="558.6699" y="-207.0098" font-family="Times,serif" font-size="16.00" fill="#000000"> </text>
</g>
<!-- c7&#45;&gt;d10 -->
<g id="edge20" class="edge">
<title>c7-&gt;d10</title>
<path fill="none" stroke="#000000" d="M323.0048,-210.8098C328.3742,-210.8098 334.05,-210.8098 339.9115,-210.8098"/>
</g>
<!-- c4&#45;&gt;c5 -->
<!-- d7 -->
<g id="node17" class="node">
<title>d7</title>
<polygon fill="#ffffff" stroke="#7f7f7f" points="509.3627,-119.8098 401.3403,-119.8098 401.3403,-83.8098 509.3627,-83.8098 509.3627,-119.8098"/>
<text text-anchor="start" x="409.3459" y="-98.0098" font-family="Times,serif" font-size="16.00" fill="#000000"> </text>
<text text-anchor="start" x="413.3459" y="-98.0098" font-family="Times,serif" font-size="16.00" fill="#006400">R1</text>
<text text-anchor="start" x="432.0163" y="-98.0098" font-family="Times,serif" font-size="16.00" fill="#000000"> → </text>
<text text-anchor="start" x="452.0163" y="-98.0098" font-family="Times,serif" text-decoration="line-through" font-size="16.00" fill="#ff0000">R1</text>
<text text-anchor="start" x="470.6867" y="-98.0098" font-family="Times,serif" font-size="16.00" fill="#006400">  R2</text>
<text text-anchor="start" x="497.3571" y="-98.0098" font-family="Times,serif" font-size="16.00" fill="#000000"> </text>
</g>
<!-- c4&#45;&gt;d7 -->
<g id="edge17" class="edge">
<title>c4-&gt;d7</title>
<path fill="none" stroke="#000000" d="M312.6888,-101.8098C337.5283,-101.8098 372.2996,-101.8098 401.2951,-101.8098"/>
</g>
<!-- d8 -->
<g id="node18" class="node">
<title>d8</title>
<polygon fill="#ffffff" stroke="#7f7f7f" points="532.9428,-50.8098 377.7603,-50.8098 377.7603,-14.8098 532.9428,-14.8098 532.9428,-50.8098"/>
<text text-anchor="start" x="385.8059" y="-29.0098" font-family="Times,serif" font-size="16.00" fill="#000000"> </text>
<text text-anchor="start" x="389.8059" y="-29.0098" font-family="Times,serif" baseline-shift="sub" font-size="16.00" fill="#0000ee">s1</text>
<text text-anchor="start" x="404.0283" y="-29.0098" font-family="Times,serif" font-size="16.00" fill="#0000ee">[ </text>
<text text-anchor="start" x="413.3547" y="-29.0098" font-family="Times,serif" font-size="16.00" fill="#006400">R1</text>
<text text-anchor="start" x="432.0251" y="-29.0098" font-family="Times,serif" font-size="16.00" fill="#000000"> </text>
<text text-anchor="start" x="436.0251" y="-29.0098" font-family="Times,serif" font-size="16.00" fill="#0000ee"> ]</text>
<text text-anchor="start" x="445.3515" y="-29.0098" font-family="Times,serif" font-size="16.00" fill="#000000"> → </text>
<text text-anchor="start" x="465.3515" y="-29.0098" font-family="Times,serif" baseline-shift="sub" font-size="16.00" fill="#0000ee">s2</text>
<text text-anchor="start" x="479.5739" y="-29.0098" font-family="Times,serif" font-size="16.00" fill="#0000ee">[ </text>
<text text-anchor="start" x="488.9003" y="-29.0098" font-family="Times,serif" font-size="16.00" fill="#006400">R2</text>
<text text-anchor="start" x="507.5707" y="-29.0098" font-family="Times,serif" font-size="16.00" fill="#0000ee">  ]</text>
<text text-anchor="start" x="520.8971" y="-29.0098" font-family="Times,serif" font-size="16.00" fill="#000000"> </text>
</g>
<!-- c5&#45;&gt;d8 -->
<g id="edge18" class="edge">
<title>c5-&gt;d8</title>
<path fill="none" stroke="#000000" d="M307.5205,-32.8098C326.3843,-32.8098 352.4695,-32.8098 377.4828,-32.8098"/>
</g>
</g>
</svg>