<?xml version="1.0" encoding="UTF-8" standalone="no"?>
<!DOCTYPE svg PUBLIC "-//W3C//DTD SVG 1.1//EN"
 "http://www.w3.org/Graphics/SVG/1.1/DTD/svg11.dtd">
<!-- Generated by graphviz version 2.40.1 (20161225.0304)
 -->
<!-- Title: G Pages: 1 -->
<svg width="840pt" height="592pt"
 viewBox="0.00 0.00 839.71 592.15" xmlns="http://www.w3.org/2000/svg" xmlns:xlink="http://www.w3.org/1999/xlink">
<g id="graph0" class="graph" transform="scale(1 1) rotate(0) translate(21.6 570.5458)">
<title>G</title>
<polygon fill="#fafafa" stroke="transparent" points="-21.6,21.6 -21.6,-570.5458 818.1096,-570.5458 818.1096,21.6 -21.6,21.6"/>
<!-- a1 -->
<g id="node1" class="node">
<title>a1</title>
<ellipse fill="#000000" stroke="#000000" cx="262.0824" cy="-522.3586" rx="81.102" ry="26.6747"/>
<text text-anchor="middle" x="262.0824" y="-516.9586" font-family="Times,serif" font-size="18.00" fill="#ffffff">L&#39;utilitarisme</text>
</g>
<!-- b1 -->
<g id="node2" class="node">
<title>b1</title>
<ellipse fill="#8b0000" stroke="#000000" cx="125.0824" cy="-437.2955" rx="64.2954" ry="23.4519"/>
<text text-anchor="middle" x="125.0824" y="-432.4955" font-family="Times,serif" font-size="16.00" fill="#ffffff">Une finalité</text>
</g>
<!-- a1&#45;&gt;b1 -->
<g id="edge1" class="edge">
<title>a1&#45;&gt;b1:n</title>
<path fill="none" stroke="#000000" d="M198.3953,-505.6328C169.3267,-496.4236 139.0966,-484.098 128.7823,-470.4282"/>
<polygon fill="#000000" stroke="#000000" points="131.9286,-468.8572 125.0824,-460.7714 125.3919,-471.3617 131.9286,-468.8572"/>
</g>
<!-- b2 -->
<g id="node3" class="node">
<title>b2</title>
<ellipse fill="#8b0000" stroke="#000000" cx="400.0824" cy="-437.2955" rx="71.1279" ry="23.4519"/>
<text text-anchor="middle" x="400.0824" y="-432.4955" font-family="Times,serif" font-size="16.00" fill="#ffffff">Une méthode</text>
</g>
<!-- a1&#45;&gt;b2 -->
<g id="edge2" class="edge">
<title>a1&#45;&gt;b2:n</title>
<path fill="none" stroke="#000000" d="M325.8311,-505.8315C355.2098,-496.6404 385.8656,-484.2857 396.3286,-470.5122"/>
<polygon fill="#000000" stroke="#000000" points="399.7523,-471.3611 400.0824,-460.7714 393.2206,-468.8439 399.7523,-471.3611"/>
</g>
<!-- b1&#45;&gt;b2 -->
<!-- c1 -->
<g id="node4" class="node">
<title>c1</title>
<polygon fill="#ffffff" stroke="#7f7f7f" points="254.2473,-378.6207 -.0825,-378.6207 -.0825,-313.4183 254.2473,-313.4183 254.2473,-378.6207"/>
<text text-anchor="middle" x="127.0824" y="-360.4195" font-family="Times,serif" font-size="16.00" fill="#000000">Il faut viser un maximum de bonheur</text>
<text text-anchor="middle" x="127.0824" y="-341.2195" font-family="Times,serif" font-size="16.00" fill="#000000">et un minimum de souffrances</text>
<text text-anchor="middle" x="127.0824" y="-322.0195" font-family="Times,serif" font-size="16.00" fill="#000000">pour le plus grand nombre</text>
</g>
<!-- b1&#45;&gt;c1 -->
<g id="edge4" class="edge">
<title>b1&#45;&gt;c1</title>
<path fill="none" stroke="#000000" d="M125.5974,-413.7896C125.7637,-406.204 125.9535,-397.5421 126.1405,-389.0043"/>
<polygon fill="#000000" stroke="#000000" points="129.6456,-388.8068 126.3656,-378.7325 122.6473,-388.6534 129.6456,-388.8068"/>
</g>
<!-- c2 -->
<g id="node5" class="node">
<title>c2</title>
<polygon fill="#ffffff" stroke="#7f7f7f" points="474.2345,-378.6207 323.9303,-378.6207 323.9303,-313.4183 474.2345,-313.4183 474.2345,-378.6207"/>
<text text-anchor="middle" x="399.0824" y="-360.4195" font-family="Times,serif" font-size="16.00" fill="#000000">Il faut faire un calcul</text>
<text text-anchor="middle" x="399.0824" y="-341.2195" font-family="Times,serif" font-size="16.00" fill="#000000">des conséquences</text>
<text text-anchor="middle" x="399.0824" y="-322.0195" font-family="Times,serif" font-size="16.00" fill="#000000">de nos choix</text>
</g>
<!-- b2&#45;&gt;c2 -->
<g id="edge5" class="edge">
<title>b2&#45;&gt;c2</title>
<path fill="none" stroke="#000000" d="M399.8249,-413.7896C399.7418,-406.204 399.6469,-397.5421 399.5533,-389.0043"/>
<polygon fill="#000000" stroke="#000000" points="403.0502,-388.6935 399.4408,-378.7325 396.0507,-388.7703 403.0502,-388.6935"/>
</g>
<!-- c1&#45;&gt;c2 -->
<!-- bc1 -->
<g id="node6" class="node">
<title>bc1</title>
<ellipse fill="#c7c7c7" stroke="#7f7f7f" cx="245.0824" cy="-245.4098" rx="108.891" ry="32.6206"/>
<text text-anchor="middle" x="245.0824" y="-250.2098" font-family="Times,serif" font-size="16.00" fill="#000000">Ce calcul doit être le</text>
<text text-anchor="middle" x="245.0824" y="-231.0098" font-family="Times,serif" font-size="16.00" fill="#000000">plus objectif possible</text>
</g>
<!-- c2&#45;&gt;bc1 -->
<g id="edge7" class="edge">
<title>c2&#45;&gt;bc1</title>
<path fill="none" stroke="#000000" d="M349.083,-313.3544C333.299,-303.0426 315.7818,-291.5984 299.693,-281.0874"/>
<polygon fill="#000000" stroke="#000000" points="301.2078,-277.8964 290.9218,-275.3571 297.3793,-283.7566 301.2078,-277.8964"/>
</g>
<!-- bc2 -->
<g id="node7" class="node">
<title>bc2</title>
<ellipse fill="#c7c7c7" stroke="#7f7f7f" cx="497.0824" cy="-245.4098" rx="74.3027" ry="32.6206"/>
<text text-anchor="middle" x="497.0824" y="-250.2098" font-family="Times,serif" font-size="16.00" fill="#000000">Ce calcul doit</text>
<text text-anchor="middle" x="497.0824" y="-231.0098" font-family="Times,serif" font-size="16.00" fill="#000000">être global</text>
</g>
<!-- c2&#45;&gt;bc2 -->
<g id="edge8" class="edge">
<title>c2&#45;&gt;bc2</title>
<path fill="none" stroke="#000000" d="M430.9002,-313.3544C440.2529,-303.7526 450.5619,-293.1691 460.203,-283.2713"/>
<polygon fill="#000000" stroke="#000000" points="462.948,-285.4692 467.4184,-275.8637 457.9337,-280.5849 462.948,-285.4692"/>
</g>
<!-- bc1&#45;&gt;bc2 -->
<!-- d1 -->
<g id="node8" class="node">
<title>d1</title>
<path fill="#ffffff" stroke="#7f7f7f" d="M168.2569,-158.6017C168.2569,-158.6017 53.9079,-158.6017 53.9079,-158.6017 47.9079,-158.6017 41.9079,-152.6017 41.9079,-146.6017 41.9079,-146.6017 41.9079,-123.7983 41.9079,-123.7983 41.9079,-117.7983 47.9079,-111.7983 53.9079,-111.7983 53.9079,-111.7983 168.2569,-111.7983 168.2569,-111.7983 174.2569,-111.7983 180.2569,-117.7983 180.2569,-123.7983 180.2569,-123.7983 180.2569,-146.6017 180.2569,-146.6017 180.2569,-152.6017 174.2569,-158.6017 168.2569,-158.6017"/>
<text text-anchor="middle" x="111.0824" y="-140" font-family="Times,serif" font-size="16.00" fill="#000000">Il faut éviter</text>
<text text-anchor="middle" x="111.0824" y="-120.8" font-family="Times,serif" font-size="16.00" fill="#000000">d&#39;être dogmatique</text>
</g>
<!-- bc1&#45;&gt;d1 -->
<g id="edge10" class="edge">
<title>bc1&#45;&gt;d1</title>
<path fill="none" stroke="#000000" d="M207.3993,-214.4169C188.6534,-198.9991 166.0935,-180.4445 147.5211,-165.1694"/>
<polygon fill="#000000" stroke="#000000" points="149.5098,-162.2733 139.5631,-158.6243 145.0632,-167.6796 149.5098,-162.2733"/>
</g>
<!-- d2 -->
<g id="node9" class="node">
<title>d2</title>
<path fill="#ffffff" stroke="#7f7f7f" d="M316.2069,-167.8012C316.2069,-167.8012 205.9579,-167.8012 205.9579,-167.8012 199.9579,-167.8012 193.9579,-161.8012 193.9579,-155.8012 193.9579,-155.8012 193.9579,-114.5988 193.9579,-114.5988 193.9579,-108.5988 199.9579,-102.5988 205.9579,-102.5988 205.9579,-102.5988 316.2069,-102.5988 316.2069,-102.5988 322.2069,-102.5988 328.2069,-108.5988 328.2069,-114.5988 328.2069,-114.5988 328.2069,-155.8012 328.2069,-155.8012 328.2069,-161.8012 322.2069,-167.8012 316.2069,-167.8012"/>
<text text-anchor="middle" x="261.0824" y="-149.6" font-family="Times,serif" font-size="16.00" fill="#000000">Il faut faire un</text>
<text text-anchor="middle" x="261.0824" y="-130.4" font-family="Times,serif" font-size="16.00" fill="#000000">examen empirique</text>
<text text-anchor="middle" x="261.0824" y="-111.2" font-family="Times,serif" font-size="16.00" fill="#000000">des conséquences</text>
</g>
<!-- bc1&#45;&gt;d2 -->
<g id="edge11" class="edge">
<title>bc1&#45;&gt;d2</title>
<path fill="none" stroke="#000000" d="M249.8829,-212.3432C251.4475,-201.5665 253.2075,-189.4433 254.8608,-178.0554"/>
<polygon fill="#000000" stroke="#000000" points="258.3673,-178.2626 256.3404,-167.8634 251.4399,-177.2568 258.3673,-178.2626"/>
</g>
<!-- d3 -->
<g id="node10" class="node">
<title>d3</title>
<path fill="#ffffff" stroke="#7f7f7f" d="M585.7818,-177.5002C585.7818,-177.5002 396.383,-177.5002 396.383,-177.5002 390.383,-177.5002 384.383,-171.5002 384.383,-165.5002 384.383,-165.5002 384.383,-104.8998 384.383,-104.8998 384.383,-98.8998 390.383,-92.8998 396.383,-92.8998 396.383,-92.8998 585.7818,-92.8998 585.7818,-92.8998 591.7818,-92.8998 597.7818,-98.8998 597.7818,-104.8998 597.7818,-104.8998 597.7818,-165.5002 597.7818,-165.5002 597.7818,-171.5002 591.7818,-177.5002 585.7818,-177.5002"/>
<text text-anchor="middle" x="491.0824" y="-159.2" font-family="Times,serif" font-size="16.00" fill="#000000">Il faut aussi prendre en compte</text>
<text text-anchor="middle" x="491.0824" y="-140" font-family="Times,serif" font-size="16.00" fill="#000000">les conséquences lointaines et</text>
<text text-anchor="middle" x="491.0824" y="-120.8" font-family="Times,serif" font-size="16.00" fill="#000000">indirectes, et les conséquences</text>
<text text-anchor="middle" x="491.0824" y="-101.6" font-family="Times,serif" font-size="16.00" fill="#000000">de ce que nous ne faisons pas</text>
</g>
<!-- bc2&#45;&gt;d3 -->
<g id="edge13" class="edge">
<title>bc2&#45;&gt;d3</title>
<path fill="none" stroke="#000000" d="M495.2822,-212.3432C494.8601,-204.59 494.4001,-196.14 493.9443,-187.7682"/>
<polygon fill="#000000" stroke="#000000" points="497.4318,-187.4423 493.3933,-177.6474 490.4422,-187.8229 497.4318,-187.4423"/>
</g>
<!-- d4 -->
<g id="node11" class="node">
<title>d4</title>
<path fill="#ffffff" stroke="#7f7f7f" d="M784.4369,-177.5002C784.4369,-177.5002 623.7279,-177.5002 623.7279,-177.5002 617.7279,-177.5002 611.7279,-171.5002 611.7279,-165.5002 611.7279,-165.5002 611.7279,-104.8998 611.7279,-104.8998 611.7279,-98.8998 617.7279,-92.8998 623.7279,-92.8998 623.7279,-92.8998 784.4369,-92.8998 784.4369,-92.8998 790.4369,-92.8998 796.4369,-98.8998 796.4369,-104.8998 796.4369,-104.8998 796.4369,-165.5002 796.4369,-165.5002 796.4369,-171.5002 790.4369,-177.5002 784.4369,-177.5002"/>
<text text-anchor="middle" x="704.0824" y="-159.2" font-family="Times,serif" font-size="16.00" fill="#000000">Il faut prendre en compte</text>
<text text-anchor="middle" x="704.0824" y="-140" font-family="Times,serif" font-size="16.00" fill="#000000">tous les êtres qui subiront</text>
<text text-anchor="middle" x="704.0824" y="-120.8" font-family="Times,serif" font-size="16.00" fill="#000000">les conséquences</text>
<text text-anchor="middle" x="704.0824" y="-101.6" font-family="Times,serif" font-size="16.00" fill="#000000">de nos choix</text>
</g>
<!-- bc2&#45;&gt;d4 -->
<g id="edge14" class="edge">
<title>bc2&#45;&gt;d4</title>
<path fill="none" stroke="#000000" d="M544.5724,-220.1254C565.6212,-208.9187 591.0927,-195.3573 615.4435,-182.3926"/>
<polygon fill="#000000" stroke="#000000" points="617.1718,-185.4377 624.3538,-177.6486 613.8821,-179.2588 617.1718,-185.4377"/>
</g>
<!-- e1 -->
<g id="node12" class="node">
<title>e1</title>
<path fill="#fafafa" stroke="transparent" d="M275.9864,-84.7002C275.9864,-84.7002 96.1784,-84.7002 96.1784,-84.7002 90.1784,-84.7002 84.1784,-78.7002 84.1784,-72.7002 84.1784,-72.7002 84.1784,-12.0998 84.1784,-12.0998 84.1784,-6.0998 90.1784,-.0998 96.1784,-.0998 96.1784,-.0998 275.9864,-.0998 275.9864,-.0998 281.9864,-.0998 287.9864,-6.0998 287.9864,-12.0998 287.9864,-12.0998 287.9864,-72.7002 287.9864,-72.7002 287.9864,-78.7002 281.9864,-84.7002 275.9864,-84.7002"/>
<text text-anchor="middle" x="186.0824" y="-66.4" font-family="Times,serif" font-size="16.00" fill="#cd2626">Exemples : la défense des</text>
<text text-anchor="middle" x="186.0824" y="-47.2" font-family="Times,serif" font-size="16.00" fill="#cd2626">politiques de réduction des</text>
<text text-anchor="middle" x="186.0824" y="-28" font-family="Times,serif" font-size="16.00" fill="#cd2626">risques liés aux drogues et la</text>
<text text-anchor="middle" x="186.0824" y="-8.8" font-family="Times,serif" font-size="16.00" fill="#cd2626">défense de l&#39;homoparentalité</text>
</g>
<!-- d1&#45;&gt;e1 -->
<!-- d2&#45;&gt;d3 -->
<!-- d2&#45;&gt;e1 -->
<!-- e2 -->
<g id="node13" class="node">
<title>e2</title>
<path fill="#fafafa" stroke="transparent" d="M571.7978,-84.7002C571.7978,-84.7002 410.367,-84.7002 410.367,-84.7002 404.367,-84.7002 398.367,-78.7002 398.367,-72.7002 398.367,-72.7002 398.367,-12.0998 398.367,-12.0998 398.367,-6.0998 404.367,-.0998 410.367,-.0998 410.367,-.0998 571.7978,-.0998 571.7978,-.0998 577.7978,-.0998 583.7978,-6.0998 583.7978,-12.0998 583.7978,-12.0998 583.7978,-72.7002 583.7978,-72.7002 583.7978,-78.7002 577.7978,-84.7002 571.7978,-84.7002"/>
<text text-anchor="middle" x="491.0824" y="-66.4" font-family="Times,serif" font-size="16.00" fill="#cd2626">Exemple : la défense</text>
<text text-anchor="middle" x="491.0824" y="-47.2" font-family="Times,serif" font-size="16.00" fill="#cd2626">d&#39;un devoir de donner de</text>
<text text-anchor="middle" x="491.0824" y="-28" font-family="Times,serif" font-size="16.00" fill="#cd2626">l&#39;argent à des associations</text>
<text text-anchor="middle" x="491.0824" y="-8.8" font-family="Times,serif" font-size="16.00" fill="#cd2626">humanitaires efficaces</text>
</g>
<!-- d3&#45;&gt;e2 -->
<!-- e3 -->
<g id="node14" class="node">
<title>e3</title>
<path fill="#fafafa" stroke="transparent" d="M768.8218,-75.0012C768.8218,-75.0012 639.343,-75.0012 639.343,-75.0012 633.343,-75.0012 627.343,-69.0012 627.343,-63.0012 627.343,-63.0012 627.343,-21.7988 627.343,-21.7988 627.343,-15.7988 633.343,-9.7988 639.343,-9.7988 639.343,-9.7988 768.8218,-9.7988 768.8218,-9.7988 774.8218,-9.7988 780.8218,-15.7988 780.8218,-21.7988 780.8218,-21.7988 780.8218,-63.0012 780.8218,-63.0012 780.8218,-69.0012 774.8218,-75.0012 768.8218,-75.0012"/>
<text text-anchor="middle" x="704.0824" y="-56.8" font-family="Times,serif" font-size="16.00" fill="#cd2626">Exemple : la critique</text>
<text text-anchor="middle" x="704.0824" y="-37.6" font-family="Times,serif" font-size="16.00" fill="#cd2626">de la production</text>
<text text-anchor="middle" x="704.0824" y="-18.4" font-family="Times,serif" font-size="16.00" fill="#cd2626">industrielle de viande</text>
</g>
<!-- d4&#45;&gt;e3 -->
</g>
</svg>
