<?xml version="1.0" encoding="UTF-8" standalone="no"?>
<!DOCTYPE svg PUBLIC "-//W3C//DTD SVG 1.1//EN"
 "http://www.w3.org/Graphics/SVG/1.1/DTD/svg11.dtd">
<!-- Generated by graphviz version 2.40.1 (20161225.0304)
 -->
<!-- Title: G Pages: 1 -->
<svg width="793pt" height="519pt"
 viewBox="0.00 0.00 792.81 518.55" xmlns="http://www.w3.org/2000/svg" xmlns:xlink="http://www.w3.org/1999/xlink">
<g id="graph0" class="graph" transform="scale(1 1) rotate(0) translate(21.6 496.9458)">
<title>G</title>
<polygon fill="#fafafa" stroke="transparent" points="-21.6,21.6 -21.6,-496.9458 771.2144,-496.9458 771.2144,21.6 -21.6,21.6"/>
<!-- a1 -->
<g id="node1" class="node">
<title>a1</title>
<ellipse fill="#000000" stroke="#000000" cx="262.0824" cy="-448.7586" rx="81.102" ry="26.6747"/>
<text text-anchor="middle" x="262.0824" y="-443.3586" font-family="Times,serif" font-size="18.00" fill="#ffffff">L&#39;utilitarisme</text>
</g>
<!-- b1 -->
<g id="node2" class="node">
<title>b1</title>
<ellipse fill="#8b0000" stroke="#000000" cx="125.0824" cy="-363.6955" rx="64.2954" ry="23.4519"/>
<text text-anchor="middle" x="125.0824" y="-358.8955" font-family="Times,serif" font-size="16.00" fill="#ffffff">Une finalité</text>
</g>
<!-- a1&#45;&gt;b1 -->
<g id="edge1" class="edge">
<title>a1&#45;&gt;b1:n</title>
<path fill="none" stroke="#000000" d="M198.3953,-432.0328C169.3267,-422.8236 139.0966,-410.498 128.7823,-396.8282"/>
<polygon fill="#000000" stroke="#000000" points="131.9286,-395.2572 125.0824,-387.1714 125.3919,-397.7617 131.9286,-395.2572"/>
</g>
<!-- b2 -->
<g id="node3" class="node">
<title>b2</title>
<ellipse fill="#8b0000" stroke="#000000" cx="400.0824" cy="-363.6955" rx="71.1279" ry="23.4519"/>
<text text-anchor="middle" x="400.0824" y="-358.8955" font-family="Times,serif" font-size="16.00" fill="#ffffff">Une méthode</text>
</g>
<!-- a1&#45;&gt;b2 -->
<g id="edge2" class="edge">
<title>a1&#45;&gt;b2:n</title>
<path fill="none" stroke="#000000" d="M325.8311,-432.2315C355.2098,-423.0404 385.8656,-410.6857 396.3286,-396.9122"/>
<polygon fill="#000000" stroke="#000000" points="399.7523,-397.7611 400.0824,-387.1714 393.2206,-395.2439 399.7523,-397.7611"/>
</g>
<!-- b1&#45;&gt;b2 -->
<!-- c1 -->
<g id="node4" class="node">
<title>c1</title>
<polygon fill="#ffffff" stroke="#7f7f7f" points="254.2473,-305.0207 -.0825,-305.0207 -.0825,-239.8183 254.2473,-239.8183 254.2473,-305.0207"/>
<text text-anchor="middle" x="127.0824" y="-286.8195" font-family="Times,serif" font-size="16.00" fill="#000000">Il faut viser un maximum de bonheur</text>
<text text-anchor="middle" x="127.0824" y="-267.6195" font-family="Times,serif" font-size="16.00" fill="#000000">et un minimum de souffrances</text>
<text text-anchor="middle" x="127.0824" y="-248.4195" font-family="Times,serif" font-size="16.00" fill="#000000">pour le plus grand nombre</text>
</g>
<!-- b1&#45;&gt;c1 -->
<g id="edge4" class="edge">
<title>b1&#45;&gt;c1</title>
<path fill="none" stroke="#000000" d="M125.5974,-340.1896C125.7637,-332.604 125.9535,-323.9421 126.1405,-315.4043"/>
<polygon fill="#000000" stroke="#000000" points="129.6456,-315.2068 126.3656,-305.1325 122.6473,-315.0534 129.6456,-315.2068"/>
</g>
<!-- c2 -->
<g id="node5" class="node">
<title>c2</title>
<polygon fill="#ffffff" stroke="#7f7f7f" points="474.2345,-305.0207 323.9303,-305.0207 323.9303,-239.8183 474.2345,-239.8183 474.2345,-305.0207"/>
<text text-anchor="middle" x="399.0824" y="-286.8195" font-family="Times,serif" font-size="16.00" fill="#000000">Il faut faire un calcul</text>
<text text-anchor="middle" x="399.0824" y="-267.6195" font-family="Times,serif" font-size="16.00" fill="#000000">des conséquences</text>
<text text-anchor="middle" x="399.0824" y="-248.4195" font-family="Times,serif" font-size="16.00" fill="#000000">de nos choix</text>
</g>
<!-- b2&#45;&gt;c2 -->
<g id="edge5" class="edge">
<title>b2&#45;&gt;c2</title>
<path fill="none" stroke="#000000" d="M399.8249,-340.1896C399.7418,-332.604 399.6469,-323.9421 399.5533,-315.4043"/>
<polygon fill="#000000" stroke="#000000" points="403.0502,-315.0935 399.4408,-305.1325 396.0507,-315.1703 403.0502,-315.0935"/>
</g>
<!-- c1&#45;&gt;c2 -->
<!-- bc1 -->
<g id="node6" class="node">
<title>bc1</title>
<ellipse fill="#c7c7c7" stroke="#7f7f7f" cx="225.0824" cy="-171.8098" rx="108.891" ry="32.6206"/>
<text text-anchor="middle" x="225.0824" y="-176.6098" font-family="Times,serif" font-size="16.00" fill="#000000">Ce calcul doit être le</text>
<text text-anchor="middle" x="225.0824" y="-157.4098" font-family="Times,serif" font-size="16.00" fill="#000000">plus objectif possible</text>
</g>
<!-- c2&#45;&gt;bc1 -->
<g id="edge7" class="edge">
<title>c2&#45;&gt;bc1</title>
<path fill="none" stroke="#000000" d="M342.5896,-239.7544C323.9146,-228.9562 303.0922,-216.9164 284.2243,-206.0066"/>
<polygon fill="#000000" stroke="#000000" points="285.8322,-202.8934 275.4232,-200.9177 282.3282,-208.9533 285.8322,-202.8934"/>
</g>
<!-- bc2 -->
<g id="node7" class="node">
<title>bc2</title>
<ellipse fill="#c7c7c7" stroke="#7f7f7f" cx="509.0824" cy="-171.8098" rx="74.3027" ry="32.6206"/>
<text text-anchor="middle" x="509.0824" y="-176.6098" font-family="Times,serif" font-size="16.00" fill="#000000"></text>
<text text-anchor="middle" x="509.0824" y="-157.4098" font-family="Times,serif" font-size="16.00" fill="#000000"></text>
</g>
<!-- c2&#45;&gt;bc2 -->
<g id="edge8" class="edge">
<title>c2&#45;&gt;bc2</title>
<path fill="none" stroke="#000000" d="M434.7962,-239.7544C445.7039,-229.7779 457.7704,-218.7415 468.9506,-208.5156"/>
<polygon fill="#000000" stroke="#000000" points="471.5072,-210.9205 476.5241,-201.5887 466.7829,-205.7552 471.5072,-210.9205"/>
</g>
<!-- d1 -->
<g id="node9" class="node">
<title>d1</title>
<path fill="#ffffff" stroke="#7f7f7f" d="M185.2569,-75.4017C185.2569,-75.4017 70.9079,-75.4017 70.9079,-75.4017 64.9079,-75.4017 58.9079,-69.4017 58.9079,-63.4017 58.9079,-63.4017 58.9079,-40.5983 58.9079,-40.5983 58.9079,-34.5983 64.9079,-28.5983 70.9079,-28.5983 70.9079,-28.5983 185.2569,-28.5983 185.2569,-28.5983 191.2569,-28.5983 197.2569,-34.5983 197.2569,-40.5983 197.2569,-40.5983 197.2569,-63.4017 197.2569,-63.4017 197.2569,-69.4017 191.2569,-75.4017 185.2569,-75.4017"/>
<text text-anchor="middle" x="128.0824" y="-56.8" font-family="Times,serif" font-size="16.00" fill="#000000"></text>
<text text-anchor="middle" x="128.0824" y="-37.6" font-family="Times,serif" font-size="16.00" fill="#000000"></text>
</g>
<!-- bc1&#45;&gt;d1 -->
<g id="edge10" class="edge">
<title>bc1&#45;&gt;d1</title>
<path fill="none" stroke="#000000" d="M199.0882,-139.7029C185.006,-122.3093 167.6712,-100.8982 153.6548,-83.5858"/>
<polygon fill="#000000" stroke="#000000" points="156.0821,-81.0215 147.0694,-75.4518 150.6416,-85.4263 156.0821,-81.0215"/>
</g>
<!-- d2 -->
<g id="node10" class="node">
<title>d2</title>
<path fill="#ffffff" stroke="#7f7f7f" d="M333.2069,-84.6012C333.2069,-84.6012 222.9579,-84.6012 222.9579,-84.6012 216.9579,-84.6012 210.9579,-78.6012 210.9579,-72.6012 210.9579,-72.6012 210.9579,-31.3988 210.9579,-31.3988 210.9579,-25.3988 216.9579,-19.3988 222.9579,-19.3988 222.9579,-19.3988 333.2069,-19.3988 333.2069,-19.3988 339.2069,-19.3988 345.2069,-25.3988 345.2069,-31.3988 345.2069,-31.3988 345.2069,-72.6012 345.2069,-72.6012 345.2069,-78.6012 339.2069,-84.6012 333.2069,-84.6012"/>
<text text-anchor="middle" x="278.0824" y="-66.4" font-family="Times,serif" font-size="16.00" fill="#000000"></text>
<text text-anchor="middle" x="278.0824" y="-47.2" font-family="Times,serif" font-size="16.00" fill="#000000"></text>
<text text-anchor="middle" x="278.0824" y="-28" font-family="Times,serif" font-size="16.00" fill="#000000"></text>
</g>
<!-- bc1&#45;&gt;d2 -->
<g id="edge11" class="edge">
<title>bc1&#45;&gt;d2</title>
<path fill="none" stroke="#000000" d="M239.5649,-139.0712C245.6995,-125.2036 252.9242,-108.8717 259.4491,-94.1216"/>
<polygon fill="#000000" stroke="#000000" points="262.7727,-95.2601 263.6174,-84.699 256.371,-92.4282 262.7727,-95.2601"/>
</g>
<!-- d3 -->
<g id="node11" class="node">
<title>d3</title>
<path fill="#ffffff" stroke="#7f7f7f" d="M568.7691,-104C568.7691,-104 413.3957,-104 413.3957,-104 407.3957,-104 401.3957,-98 401.3957,-92 401.3957,-92 401.3957,-12 401.3957,-12 401.3957,-6 407.3957,0 413.3957,0 413.3957,0 568.7691,0 568.7691,0 574.7691,0 580.7691,-6 580.7691,-12 580.7691,-12 580.7691,-92 580.7691,-92 580.7691,-98 574.7691,-104 568.7691,-104"/>
<text text-anchor="middle" x="491.0824" y="-85.6" font-family="Times,serif" font-size="16.00" fill="#000000"></text>
<text text-anchor="middle" x="491.0824" y="-66.4" font-family="Times,serif" font-size="16.00" fill="#000000"></text>
<text text-anchor="middle" x="491.0824" y="-47.2" font-family="Times,serif" font-size="16.00" fill="#000000"></text>
<text text-anchor="middle" x="491.0824" y="-28" font-family="Times,serif" font-size="16.00" fill="#000000"></text>
<text text-anchor="middle" x="491.0824" y="-8.8" font-family="Times,serif" font-size="16.00" fill="#000000"></text>
</g>
<!-- bc2&#45;&gt;d3 -->
<g id="edge13" class="edge">
<title>bc2&#45;&gt;d3</title>
<path fill="none" stroke="#000000" d="M504.1638,-139.0712C502.9967,-131.3027 501.7134,-122.761 500.4208,-114.1571"/>
<polygon fill="#000000" stroke="#000000" points="503.8524,-113.4401 498.9055,-104.0711 496.9301,-114.4802 503.8524,-113.4401"/>
</g>
<!-- d4 -->
<g id="node12" class="node">
<title>d4</title>
<path fill="#ffffff" stroke="#7f7f7f" d="M737.6464,-104C737.6464,-104 606.5184,-104 606.5184,-104 600.5184,-104 594.5184,-98 594.5184,-92 594.5184,-92 594.5184,-12 594.5184,-12 594.5184,-6 600.5184,0 606.5184,0 606.5184,0 737.6464,0 737.6464,0 743.6464,0 749.6464,-6 749.6464,-12 749.6464,-12 749.6464,-92 749.6464,-92 749.6464,-98 743.6464,-104 737.6464,-104"/>
<text text-anchor="middle" x="672.0824" y="-85.6" font-family="Times,serif" font-size="16.00" fill="#000000"></text>
<text text-anchor="middle" x="672.0824" y="-66.4" font-family="Times,serif" font-size="16.00" fill="#000000"></text>
<text text-anchor="middle" x="672.0824" y="-47.2" font-family="Times,serif" font-size="16.00" fill="#000000"></text>
<text text-anchor="middle" x="672.0824" y="-28" font-family="Times,serif" font-size="16.00" fill="#000000"></text>
<text text-anchor="middle" x="672.0824" y="-8.8" font-family="Times,serif" font-size="16.00" fill="#000000"></text>
</g>
<!-- bc2&#45;&gt;d4 -->
<g id="edge14" class="edge">
<title>bc2&#45;&gt;d4</title>
<path fill="none" stroke="#000000" d="M547.7111,-143.4165C561.3398,-133.399 577.2045,-121.738 592.9511,-110.1638"/>
<polygon fill="#000000" stroke="#000000" points="595.1777,-112.871 601.1624,-104.1283 591.0319,-107.2307 595.1777,-112.871"/>
</g>
<!-- vide1 -->
<!-- vide1&#45;&gt;bc1 -->
<!-- d2&#45;&gt;d3 -->
</g>
</svg>
