<?xml version="1.0" encoding="UTF-8" standalone="no"?><!DOCTYPE svg PUBLIC "-//W3C//DTD SVG 1.1//EN" "http://www.w3.org/Graphics/SVG/1.1/DTD/svg11.dtd"><!-- Generated by graphviz version 2.40.1 (20161225.0304)
 --><!-- Title: G Pages: 1 --><svg xmlns="http://www.w3.org/2000/svg" xmlns:xlink="http://www.w3.org/1999/xlink" width="681pt" height="501pt" viewBox="0.00 0.00 681.43 500.58">
<g id="graph0" class="graph" transform="scale(1 1) rotate(0) translate(21.6 478.9801)">
<title>G</title>
<polygon fill="#fafafa" stroke="transparent" points="-21.6,21.6 -21.6,-478.9801 659.8313,-478.9801 659.8313,21.6 -21.6,21.6"/>
<!-- a0 -->
<g id="node1" class="node">
<title>a0</title>
<ellipse fill="#000000" stroke="#000000" cx="104.9177" cy="-421.1763" rx="90.8169" ry="20.861"/>
<text text-anchor="middle" x="104.9177" y="-415.7763" font-family="Times,serif" font-size="18.00" fill="#ffffff">Mathématiques</text>
</g>
<!-- b0 -->
<g id="node3" class="node">
<title>b0</title>
<ellipse fill="#8b0000" stroke="#000000" cx="104.9177" cy="-303.5862" rx="104.8354" ry="46.2727"/>
<text text-anchor="middle" x="104.9177" y="-317.9862" font-family="Times,serif" font-size="16.00" fill="#ffffff">Les vérités</text>
<text text-anchor="middle" x="104.9177" y="-298.7862" font-family="Times,serif" font-size="16.00" fill="#ffffff">mathématiques sont</text>
<text text-anchor="middle" x="104.9177" y="-279.5862" font-family="Times,serif" font-size="16.00" fill="#ffffff">des vérités de raison</text>
</g>
<!-- a0&#45;&gt;b0 -->
<g id="edge1" class="edge">
<title>a0-&gt;b0</title>
<path fill="none" stroke="#000000" d="M104.9177,-400.1535C104.9177,-388.9903 104.9177,-374.6767 104.9177,-360.5082"/>
<polygon fill="#000000" stroke="#000000" points="108.4178,-360.2641 104.9177,-350.2641 101.4178,-360.2642 108.4178,-360.2641"/>
</g>
<!-- a1 -->
<g id="node2" class="node">
<title>a1</title>
<ellipse fill="#000000" stroke="#000000" cx="315.9177" cy="-421.1763" rx="70.8616" ry="36.4089"/>
<text text-anchor="middle" x="315.9177" y="-426.5763" font-family="Times,serif" font-size="18.00" fill="#ffffff">Sciences</text>
<text text-anchor="middle" x="315.9177" y="-404.9763" font-family="Times,serif" font-size="18.00" fill="#ffffff">de la nature</text>
</g>
<!-- b1 -->
<g id="node4" class="node">
<title>b1</title>
<ellipse fill="#8b0000" stroke="#000000" cx="315.9177" cy="-303.5862" rx="92.1965" ry="46.2727"/>
<text text-anchor="middle" x="315.9177" y="-317.9862" font-family="Times,serif" font-size="16.00" fill="#ffffff">Les vérités</text>
<text text-anchor="middle" x="315.9177" y="-298.7862" font-family="Times,serif" font-size="16.00" fill="#ffffff">sur le monde sont</text>
<text text-anchor="middle" x="315.9177" y="-279.5862" font-family="Times,serif" font-size="16.00" fill="#ffffff">des vérités de fait</text>
</g>
<!-- a1&#45;&gt;b1 -->
<g id="edge2" class="edge">
<title>a1-&gt;b1</title>
<path fill="none" stroke="#000000" d="M315.9177,-384.9359C315.9177,-377.1639 315.9177,-368.7721 315.9177,-360.4326"/>
<polygon fill="#000000" stroke="#000000" points="319.4178,-360.3314 315.9177,-350.3315 312.4178,-360.3315 319.4178,-360.3314"/>
</g>
<!-- c0 -->
<g id="node5" class="node">
<title>c0</title>
<polygon fill="#ffffff" stroke="#7f7f7f" points="184.6411,-210.2012 25.1942,-210.2012 25.1942,-144.9988 184.6411,-144.9988 184.6411,-210.2012"/>
<text text-anchor="middle" x="104.9177" y="-192" font-family="Times,serif" font-size="16.00" fill="#000000">On peut les démontrer</text>
<text text-anchor="middle" x="104.9177" y="-172.8" font-family="Times,serif" font-size="16.00" fill="#000000">par le simple usage</text>
<text text-anchor="middle" x="104.9177" y="-153.6" font-family="Times,serif" font-size="16.00" fill="#000000">de la raison</text>
</g>
<!-- b0&#45;&gt;c0 -->
<g id="edge3" class="edge">
<title>b0-&gt;c0</title>
<path fill="none" stroke="#000000" d="M104.9177,-257.0315C104.9177,-244.996 104.9177,-232.0996 104.9177,-220.2733"/>
<polygon fill="#000000" stroke="#000000" points="108.4178,-220.2045 104.9177,-210.2046 101.4178,-220.2046 108.4178,-220.2045"/>
</g>
<!-- c1 -->
<g id="node6" class="node">
<title>c1</title>
<polygon fill="#ffffff" stroke="#7f7f7f" points="410.181,-219.9002 221.6543,-219.9002 221.6543,-135.2998 410.181,-135.2998 410.181,-219.9002"/>
<text text-anchor="middle" x="315.9177" y="-201.6" font-family="Times,serif" font-size="16.00" fill="#000000">On ne peut pas les</text>
<text text-anchor="middle" x="315.9177" y="-182.4" font-family="Times,serif" font-size="16.00" fill="#000000">démontrer par le simple</text>
<text text-anchor="middle" x="315.9177" y="-163.2" font-family="Times,serif" font-size="16.00" fill="#000000">usage de la raison :</text>
<text text-anchor="middle" x="315.9177" y="-144" font-family="Times,serif" font-size="16.00" fill="#000000">l'expérience est nécessaire</text>
</g>
<!-- b1&#45;&gt;c1 -->
<g id="edge4" class="edge">
<title>b1-&gt;c1</title>
<path fill="none" stroke="#000000" d="M315.9177,-257.0315C315.9177,-248.366 315.9177,-239.2543 315.9177,-230.417"/>
<polygon fill="#000000" stroke="#000000" points="319.4178,-230.212 315.9177,-220.212 312.4178,-230.212 319.4178,-230.212"/>
</g>
<!-- d0 -->
<g id="node7" class="node">
<title>d0</title>
<path fill="#ffffff" stroke="#7f7f7f" d="M184.6219,-82C184.6219,-82 25.2134,-82 25.2134,-82 19.2134,-82 13.2134,-76 13.2134,-70 13.2134,-70 13.2134,-28 13.2134,-28 13.2134,-22 19.2134,-16 25.2134,-16 25.2134,-16 184.6219,-16 184.6219,-16 190.6219,-16 196.6219,-22 196.6219,-28 196.6219,-28 196.6219,-70 196.6219,-70 196.6219,-76 190.6219,-82 184.6219,-82"/>
<text text-anchor="start" x="22.0657" y="-59.6" font-family="Times,serif" font-size="16.00" fill="#000000">Une connaissance </text>
<text text-anchor="start" x="141.1217" y="-59.6" font-family="Times,serif" font-style="italic" font-size="16.00" fill="#000000">a priori</text>
<text text-anchor="start" x="40.1857" y="-43.6" font-family="Times,serif" font-size="16.00" fill="#000000">(avant l'expérience)</text>
<text text-anchor="start" x="67.8121" y="-27.6" font-family="Times,serif" font-size="16.00" fill="#000000">est possible</text>
</g>
<!-- c0&#45;&gt;d0 -->
<g id="edge5" class="edge">
<title>c0-&gt;d0</title>
<path fill="none" stroke="#000000" d="M104.9177,-144.816C104.9177,-128.9166 104.9177,-109.6016 104.9177,-92.4904"/>
<polygon fill="#000000" stroke="#000000" points="108.4178,-92.1712 104.9177,-82.1712 101.4178,-92.1713 108.4178,-92.1712"/>
</g>
<!-- d1 -->
<g id="node8" class="node">
<title>d1</title>
<path fill="#ffffff" stroke="#7f7f7f" d="M395.6219,-98C395.6219,-98 236.2134,-98 236.2134,-98 230.2134,-98 224.2134,-92 224.2134,-86 224.2134,-86 224.2134,-12 224.2134,-12 224.2134,-6 230.2134,0 236.2134,0 236.2134,0 395.6219,0 395.6219,0 401.6219,0 407.6219,-6 407.6219,-12 407.6219,-12 407.6219,-86 407.6219,-86 407.6219,-92 401.6219,-98 395.6219,-98"/>
<text text-anchor="start" x="233.0657" y="-75.6" font-family="Times,serif" font-size="16.00" fill="#000000">Une connaissance </text>
<text text-anchor="start" x="352.1217" y="-75.6" font-family="Times,serif" font-style="italic" font-size="16.00" fill="#000000">a priori</text>
<text text-anchor="start" x="247.4889" y="-59.6" font-family="Times,serif" font-size="16.00" fill="#000000">n'est pas possible : la</text>
<text text-anchor="start" x="239.9417" y="-43.6" font-family="Times,serif" font-size="16.00" fill="#000000">connaissance du monde</text>
<text text-anchor="start" x="268.8225" y="-27.6" font-family="Times,serif" font-size="16.00" fill="#000000">est </text>
<text text-anchor="start" x="290.5937" y="-27.6" font-family="Times,serif" font-style="italic" font-size="16.00" fill="#000000">a posteriori</text>
<text text-anchor="start" x="248.5225" y="-11.6" font-family="Times,serif" font-size="16.00" fill="#000000">(après l'expérience)</text>
</g>
<!-- c1&#45;&gt;d1 -->
<g id="edge6" class="edge">
<title>c1-&gt;d1</title>
<path fill="none" stroke="#000000" d="M315.9177,-135.1351C315.9177,-126.5239 315.9177,-117.3198 315.9177,-108.2504"/>
<polygon fill="#000000" stroke="#000000" points="319.4178,-108.1069 315.9177,-98.1069 312.4178,-108.1069 319.4178,-108.1069"/>
</g>
<!-- r1 -->
<g id="node9" class="node">
<title>r1</title>
<polygon fill="#fafafa" stroke="#0000ff" points="638.0454,-222.3002 465.79,-222.3002 465.79,-132.8998 638.0454,-132.8998 638.0454,-222.3002"/>
<text text-anchor="middle" x="551.9177" y="-207.3" font-family="Times,serif" font-size="11.00" fill="#000000">Le rationalisme classique s'oppose</text>
<text text-anchor="middle" x="551.9177" y="-194.1" font-family="Times,serif" font-size="11.00" fill="#000000">à cette idée : selon cette perspective,</text>
<text text-anchor="middle" x="551.9177" y="-180.9" font-family="Times,serif" font-size="11.00" fill="#000000">certaines vérités sur le monde sont</text>
<text text-anchor="middle" x="551.9177" y="-167.7" font-family="Times,serif" font-size="11.00" fill="#000000">démontrables par le simple usage</text>
<text text-anchor="middle" x="551.9177" y="-154.5" font-family="Times,serif" font-size="11.00" fill="#000000">de la raison : une connaissance</text>
<text text-anchor="middle" x="551.9177" y="-141.3" font-family="Times,serif" font-size="11.00" fill="#000000">a priori du monde serait possible</text>
</g>
<!-- c1&#45;&gt;r1 -->
<g id="edge7" class="edge">
<title>c1-&gt;r1</title>
<path fill="none" stroke="#0000ff" stroke-dasharray="5,2" d="M410.4099,-177.6C428.8354,-177.6 447.2609,-177.6 465.6864,-177.6"/>
</g>
<!-- d1&#45;&gt;r1 -->
<g id="edge8" class="edge">
<title>d1-&gt;r1:s</title>
<path fill="none" stroke="#0000ff" stroke-dasharray="5,2" d="M407.8372,-64.3322C474.1021,-78.0825 551.9177,-101.0347 551.9177,-133"/>
</g>
</g>
</svg>